<svg version="1.1" id="Layer_1" xmlns="http://www.w3.org/2000/svg" x="0" y="0" viewBox="0 0 1100 1100" style="enable-background:new 0 0 1100 1100" xml:space="preserve" xmlns:xlink="http://www.w3.org/1999/xlink"><defs><linearGradient id="zzae" x1="99.76" y1="532.5" x2="927.43" y2="532.5" gradientUnits="userSpaceOnUse"><stop offset="0" stop-color="#d000ff"/><stop offset="1" stop-color="#0ef"/></linearGradient><linearGradient id="zzae-2" x1="453.32" y1="441.45" x2="586.32" y2="441.45" gradientUnits="userSpaceOnUse"><stop offset="0" stop-color="#0008ff"/><stop offset="1" stop-color="#f700ff"/></linearGradient><linearGradient id="zzae-3" x1="685.96" y1="399.66" x2="797.95" y2="399.66" xlink:href="#zzae-2"/><style>.zzae-10,.zzae-8{fill:none;stroke-linecap:round;stroke-linejoin:round;stroke-width:10px;stroke:#000}.zzae-8{opacity:.6}.zzae-10{stroke-dasharray:0 0 0 0 0 0}</style></defs><defs><clipPath id="clip"><circle cx="550" cy="550" r="500"/></clipPath></defs><g style="clip-path:url(#clip)"><path style="stroke:none;fill:none;clip-path:url(#clip)" d="M0 0h3000v3000H0z"/><filter id="opal"><feTurbulence baseFrequency=".01" seed="104"><animate attributeName="baseFrequency" values="0.02;0.01;0.02" dur="50s" repeatCount="indefinite"/></feTurbulence></filter><rect width="100%" height="100%" filter="url(#opal)"/></g><g/><circle cx="550" cy="550" r="500" style="stroke:#000;fill:none;stroke-linecap:round;stroke-linejoin:round;stroke-width:10px"/><g id="Layer_3" data-name="Layer 3"><path d="M845.4 409.3c37.6 41 3.9 90.4.3 131.7 0 65.6 62 122.5 26.7 140.9-63 7.3 10.1 53.9-42.8 109.8-75.1 33.6-18.7 117.2-95.9 98.7-9.5 6.9 19.1 68.3-18.5 90.4-27.8 25.4-72.6-41.9-96.1-58.3-46.7-21.6-105.6 57.1-133.8-16-39.9-103.3-90.2-113-94.3-110.8-31.5 70.1-102 33.8-87.5-36.6 8.7-42.4 21.9-85.5 10.4-128.8-6.9-46-55-46.8-42.4-18.7 31 69.3-47.4 106.5-55.8 49-5.3-36.6 58.3-52.2-26.9-139-38.4-58.1 10.5-81.6 29.2-130.9-66.9 13.8-48.5-102.7 16.6-66.5 40.8 27.6 61.3 51.4 64.3 41.2 11.6-39.6-2.7-45.5 78.9-128.5-59.4 4.7-28.2-56.7-10.4-53 105 21.9 95.8-27.6 151.9-27.6 23.2-6.3 48.9 10.3 71.1 1.1-55.6-28.4-5.6-116.4 44.2-60.9 19.3 27.4-11.6 62.1 30.5 87.5 79.4 36.2 99.6 16.1 141.7 105 97.1 62.6 80.3 114.5 38.6 120.3Z" style="fill:url(#zzae)"/><path d="M509.5 368.1c-86.4 4.7-67.5 163.9 18.2 149.6 105.4-27.1 49.6-178.9-18.2-149.6Z" style="fill:url(#zzae-2)"/><path d="M721.2 328.7c-51.5 29.1-47.6 138.1 18.8 144.6 91.7-1.2 66.4-170.3-18.8-144.6Z" style="fill:url(#zzae-3)"/><path d="M737.4 887s45.4 33.1 53.9-66.3c36.2-22.6 72.2-61.4 58.3-107.1-74-34.7-175.1-41.5-233.2 23.1-87-52-195.5-103.6-295.2-59.4-62.4 220 71.7 152.9 65 120.4 64.1-4.7 79.6 80.9 108.8 123 41 42.8 90.7-24.7 124.1-1.4 17.9 12.6 102 139.4 117.2 14.8-3.8-15.7-14.7-33.6 1.1-47.1Z" style="fill:#ff1767"/><path d="M566.1 588.7c92.8 6.8 199.3 17.8 278.1-42.6-3.5 34.9 80.8 138.5 9 139-22.2 4.7-2.3 18.4-8.6 26.2-177.5-71.5-215.9 27.8-236.5 23-82.5-52.5-191.3-100.5-286.4-53.1 0-45.2-23.2-75.3-22.8-85.1 21.9-7.4 38.7-.7 53.3-27.9 10.6 30 66.3 52.4 213.9 20.5Z"/><path d="M314.1 712.5c105.9-30.5 230.3-8.1 324.8 47.7-81.6-80.5-203.2-117.2-314.1-89.6-3.8.4-6.3 29.2-10.7 41.9Zm372.1 89.7c-26.4-42.5 9.7-99.8 51.4-115.3-43.4 3.5-91.3 13.2-119.3 50.6 21.4 22.3 43.5 44 67.9 64.7Z" style="fill:#ac1045"/><path d="M356.1 791.3c4.2 11.6 8.8 28.3.6 38.9 17.1-3.4 28.7-19.8 31.8-36.6m370 65.2c-6.6 10.7-.7 24.3 8 31.8-10.6 0-22.3.9-30.2-8 2.7-.9 14.4-17 22.2-23.8Zm84.8-503.6c-.4 18.6 8.9 37.2 23.9 47.8a95 95 0 0 1-17.7 7.5c-12-14.3-15.4-35.4-6.2-55.3Zm-239-208.3c-18.2-11.5-28.6-36.8-24.4-58.2a46.6 46.6 0 0 0 2.5 66.7c5.7 3.9 16.4-1.9 21.9-8.5Zm-223 71.3c-10 5.3-24.3 8.9-34.2 1.7 3.4 12.9 17 18.5 28.8 20.8M203 362.7c1 6.8-4 24.3-12.4 22.6 7.6 3.4 16.2 8.7 24.5 6.7 6.1-11.2 1.8-27.4-12.1-29.3Zm46.7 245c18.6 11.9 19.8 59.8 2.6 73.7 31.3-7.8 36.5-70.1 9.4-86.7m99.4-55c12.3 12.1-3.3 29.6 1.6 43.6a68.7 68.7 0 0 0-12-12.7" style="opacity:.6"/><path class="zzae-8" d="M478.1 408.7c24.3 24.6 46.7 51.3 72.7 74.1m-7.2-92-41.8 101.8M705.5 380c20.8 18.7 42.1 37 63.9 54.7"/><path class="zzae-8" d="M766.1 355.2c-11.3 30.5-23.1 60.4-34.4 90.9M229.1 441q43.8 55.7 91.7 107.7"/><path class="zzae-8" d="M272.4 540.1a994.3 994.3 0 0 0 21.9-111"/><path d="M746.5 708.3a155.4 155.4 0 0 1 58.8 13.9m17.2 8.5 6.5 3.3m-242.8 15.3c21.6 8.6 38.3 26.2 53.8 43.8m12.7 14.7a78.6 78.6 0 0 0 8 7.3m107.9 40.7a25.5 25.5 0 0 1-5.6 15.9m6-31.5-.3-4.6m-51.5 88.6c5 11.6 5 26.4-3.8 36m-11.9 7.7-3.5.9m-201.3-77.5c4.4 11.4 11.2 25.1 24.4 26.8M319.5 773.3a39.4 39.4 0 0 0 12 38.1m13.1 5.7 3.1 1.1c.2 0 .4.1.4.3s-.4.1-3.5-1.4ZM231.6 645c-2.1 8.1-2.4 18 3.7 24.5m-.3-40a14.8 14.8 0 0 1 1.2-2.9m104.9-71.7c-1.9 10.2-9.8 19.2-20.1 20.6M189.9 493a45.5 45.5 0 0 1 7.9-35.6m-1.7 48.9 1.8 2.4m-2.3-164.5c7.1-9.6 22.3-9.6 31.5-3.3m-36.8 14.8v2m118.3 46.5a53.5 53.5 0 0 1 22.4 25.7m11.3-133.1a47.9 47.9 0 0 0-18.9 22.3m-3.5 13.6-.5 4.1M360.9 210c.4-7.8 8.7-12 15.7-11.4m14.3.8 2.4.5M540 171.1c-12.5-5-25.7-3.6-37.5 2.6m99.1-75.3c11-6.2 24.8 6.6 25.4 18.1m-36.8-14.4-2.2 1.3M766.5 249c-5.1-9-14.4-14.7-24.1-18m-13.8-6.2-3.8-1-.3-.2c0-.2.3-.2 4.1 1.2ZM862.5 387c.9-9.1.9-18.8-3.5-26.8m-7.5-14.9-2.5-3m-2.1 127.4a44.6 44.6 0 0 0-2.7-31.9m-6.7-13.1-1-2.7M774 371.6a73 73 0 0 1 5.4 34.3m-11.3 40.4a32.4 32.4 0 0 1-16.9 10.9m-194-58.3a67.3 67.3 0 0 1 11.3 38.2m.3 16.4-1 5.7m-58.4-79a27.7 27.7 0 0 1 20.4-.3" style="stroke:#fff;opacity:.82;fill:none;stroke-linecap:round;stroke-linejoin:round;stroke-width:10px"/><path class="zzae-8" d="M481.7 375.8c-72.1 38.4-18.4 193.5 69.9 134.5m158.9-173.8c-63.4 28.4-16.9 188 59.8 128"/></g><g id="Layer_8" data-name="Layer 8"><path class="zzae-10" d="M355.7 443.4c-6.3-41.3-94.8-98.9-109.6-110.2-63.5-49-104.5 50.1-35.1 62.6m40.1 211.1c16.9-39.4 95 25.6 107.3-65.4m230.1-384.7c-78.9-55 56.8-126.7 54.8-30.6-.8 38.8 10.4 60.7 47.4 70 136.9 34.3 60.5 60.3 147.5 114.6 35.5 22.2 61.3 88.3 13.9 98.1"/><path class="zzae-10" d="M382.7 222.2c-8.3 46.4-74.4 62.7-78.1 112-.9 12.9 1.6 28-7.8 36.6"/><path class="zzae-10" d="M603.7 150.5c-29.1 25.4-70.6-8.7-103.7 8.8-72.4 38.3-77 34.4-121.4 23.8-40.5-9.6-48.3 58.5-6.2 57.2M206.2 364c22.4 10.1 8.1 44-3.4 58.1-91.4 113.1 63.8 110.3 25.8 191.1-52.2 110.7 87.6 91 41.4-13m569.5-244c-18.3 40.7 35.8 67.6 21.9 114.7-10.6 35.8-21.4 75.9-7.9 112.3 11.8 31.7 61.6 104.9-4.6 104.2"/><path class="zzae-10" d="M350.1 570.5c67.9 74.7 161.8 10.7 234.3 17.6 92.3 8.8 185.2 17.2 261.3-47.1M736.1 886.7c69.9 24.3 28.3-52.3 67.8-76.7 86.4-53.8 29.7-95 42.8-152.8"/><path class="zzae-10" d="M360.1 790.6c135.3 1.4 92.8 154.1 172.6 147.3 46.7-4 71.4-50.3 112.3 7.1 9.4 13.2 20 27.8 33.6 36.1 35.8 21.6 70.7-21.4 56.7-54-15.1-34.9-2.2-44.5 19.5-68.9"/><path class="zzae-10" d="M297.5 597.2c62 98.2-33.9 175.8 24.3 228.3 22.5 20.3 61.4 4.6 66-25.8"/><path class="zzae-10" d="M321.8 676.6c130.3-44.7 273.9 25.7 360.9 125.6"/><path class="zzae-10" d="M616.6 737.4c6.3-18.6 78.6-85.3 228.6-25.7M232.1 437.3q44.7 54.3 91.2 106.7"/><path class="zzae-10" d="M290.8 427q-10.9 55.2-22 110.4m249-171.7c-96 4.8-78.5 174.6 18 149.8 71.4-18.3 66.1-153.9-18-149.8Zm210.1-35.5c-67.6 19.8-45.2 169.2 31.6 139.7 48.1-18.4 46.3-91.2 15.8-127-10.1-11.8-32.9-17-47.4-12.7Z"/><path class="zzae-10" d="M762.2 351.7c-10.4 31.8-22.2 63.1-35.1 93.9"/><path class="zzae-10" d="M707.3 374.6c27.9 23.9 41.9 34.6 67.2 56.2m-234.2-42.3q-21.7 50.8-42.7 102.1"/><path class="zzae-10" d="M481.5 404.2c27 27.5 48.8 51.5 73.4 77.1"/></g></svg>