<svg version="1.1" id="Layer_1" xmlns="http://www.w3.org/2000/svg" x="0" y="0" viewBox="0 0 1100 1100" style="enable-background:new 0 0 1100 1100" xml:space="preserve" xmlns:xlink="http://www.w3.org/1999/xlink"><defs><linearGradient id="phil" x1="231.57" y1="539.55" x2="782.73" y2="539.55" gradientUnits="userSpaceOnUse"><stop offset="0" stop-color="#00ffbf"/><stop offset=".11" stop-color="#00f8c1"/><stop offset=".26" stop-color="#00e5c8"/><stop offset=".45" stop-color="#00c5d3"/><stop offset=".66" stop-color="#0099e1"/><stop offset=".88" stop-color="#0061f4"/><stop offset="1" stop-color="#0040ff"/></linearGradient><linearGradient id="phil-2" x1="549.73" y1="326.83" x2="1048.78" y2="326.83" gradientUnits="userSpaceOnUse"><stop offset="0" stop-color="#ff00fb"/><stop offset=".28" stop-color="#af50f7"/><stop offset=".63" stop-color="#52adf2"/><stop offset=".88" stop-color="#17e8ef"/><stop offset="1" stop-color="#0fe"/></linearGradient><linearGradient id="phil-3" x1="577.96" y1="281.28" x2="617.73" y2="281.28" gradientUnits="userSpaceOnUse"><stop offset="0" stop-color="#ff0059"/><stop offset="1" stop-color="#ffa600"/></linearGradient><linearGradient id="phil-4" x1="562.67" y1="415.02" x2="625.23" y2="439.48" gradientUnits="userSpaceOnUse"><stop offset="0" stop-color="#ff0059"/><stop offset=".15" stop-color="#ff134f"/><stop offset=".47" stop-color="#ff4534"/><stop offset=".91" stop-color="#ff9509"/><stop offset="1" stop-color="#ffa600"/></linearGradient><linearGradient id="phil-5" x1="508.01" y1="461.28" x2="598.23" y2="358.63" xlink:href="#phil-3"/><linearGradient id="phil-6" x1="485.73" y1="285.23" x2="581.77" y2="313.19" gradientUnits="userSpaceOnUse"><stop offset="0" stop-color="#ff0059"/><stop offset=".13" stop-color="#ff0656"/><stop offset=".29" stop-color="#ff164d"/><stop offset=".47" stop-color="#ff303f"/><stop offset=".66" stop-color="#ff552b"/><stop offset=".87" stop-color="#ff8512"/><stop offset="1" stop-color="#ffa600"/></linearGradient><style>.phil-11,.phil-9{fill:none;stroke:#000;stroke-linecap:round;stroke-linejoin:round;stroke-width:10px;stroke-dasharray:0 0 0 0 0 0}.phil-11{opacity:.6}</style></defs><defs><clipPath id="clip"><circle cx="550" cy="550" r="500"/></clipPath></defs><g style="clip-path:url(#clip)"><path style="stroke:none;fill:none;clip-path:url(#clip)" d="M0 0h3000v3000H0z"/><filter id="opal"><feTurbulence baseFrequency=".01" seed="105"><animate attributeName="baseFrequency" values="0.02;0.01;0.02" dur="50s" repeatCount="indefinite"/></feTurbulence></filter><rect width="100%" height="100%" filter="url(#opal)"/></g><g/><g id="Layer_90" data-name="Layer 90"><path d="M400.5 636.3c16.7 33-4.9 55.5-3.2 86.5.9 16.9 20.4 29.7 34.4 18.9 3.8 78.4 9.3 46.5 27 95.3 8.8 24.3-11.8 110.7 50.6 67.1 49 78.1 69.2 64.3 134.8 13.7 9.4 19.3 32.3 12.8 43.8-.5 17-23.9 2.6-56 9.8-82.1 45.1 18.5 67.1-25.8 29.3-54.8-26.8-31.2 18.3-64.6 13.5-98.4-1.5-33.9-42-57.8-31.1-93.2 18.1 18.1 55.5-13 21.2-62.5-77.3-98.7 40.5-135.9-65.1-345.4-27.9-55.5-114.6-84.1-164.6-38-19.4 17.9-32 43.8-57 57.4-21.8 12-59.9 29.1-50.5 59.3 3.8 12 15.7 21.6 28.1 21.7-30.7 33.2-15.9 65.5-31.9 77.2-24 17.6-17.7 46.9 14 33.9-1.5 6.7-4.4 13.1-10.3 18.1-23 2.2-35.5-9.4-55.2-17.5-31.5-13.1-36.4 25.5-21.7 45.2-26.6 19.1-18.4 47.9-27.7 74a81.3 81.3 0 0 1-21.1 28.8c-19.8 61.2 36.7 37 40.6 30.4 10.1 16 10.1 37 21.1 52.9 11.4 19.2 37.7 31.5 50 6.1 3.4-4 15.9 3.6 21.2 5.9Z" style="fill:url(#phil)"/><path d="M588.8 679.2c.9-2 22.3-11.7 30.3-13.8 12-5 8.5 45.8 9.8 53.6.6 44.7 5.6 91.3-12.6 133.3-22.5 52-48.4-24-51.7-47.4-13.2-49.7-12.7-101-8.7-152.3 13.3 3.6 23.9 17 32.9 26.6Z" style="fill:#ff0059"/><path d="m1045 577.6-182.6-103 6.6 54.6-128-113.6 5.1 35a1933.4 1933.4 0 0 0-161.7-115.5c27.1-44.5 64-82.4 90.7-127.4l-33.4 9.2 45.7-80-31.2 2.7s46.4-65.5 47.2-63.4c204 62.2 373.1 284.1 341.6 501.4Z" style="fill:url(#phil-2)"/><path d="M617.7 288.9c-12.9-20.5-26-41-39.7-61.4.4 35.9 1.9 71.8 4.5 107.5Z" style="fill:url(#phil-3)"/><path d="M584.4 335.1c-5.7 55.7-8.8 116.9-10 172.9l67.7-133.9Z" style="fill:url(#phil-4)"/><path d="M480.1 371.8c29.1 47 58.3 94 91.7 138l9.9-174.5Z" style="fill:url(#phil-5)"/><path d="M576.5 227.2c-1.4 36.2 6.1 72.3 5 108.6L482 368.7Z" style="fill:url(#phil-6)"/><path d="M479.8 470.7c-8.4 32.7-7.7 71.7 7.2 102.1 38.3 48.3 27.7-131.7-7.2-102.1Zm155.7-18.8c-23.4 41.2.7 127.1 18.6 113.9 15.6-20.7 5.4-120-18.6-113.9Z" style="fill:#fff"/><path d="M623 665c-10.7 2.9-25.6.9-31.7 12.1-.6 1.5-1.9 2.8-3.4 1.6-10.4-6.1-15.1-19.9-26.4-24.3-15.8-2.7 9.6-65.6 15.8-74 27-30.2 42 69.4 45.7 84.6Z"/><ellipse class="phil-9" cx="592.5" cy="723.4" rx="38" ry="148.5" transform="matrix(1, -0.05, 0.05, 1, -33.71, 28.98)"/>/><ellipse class="phil-9" cx="492.7" cy="524.8" rx="17.5" ry="59.5" transform="rotate(-5.7 492.395 524.917)"/><ellipse class="phil-9" cx="645" cy="509.6" rx="17.5" ry="59.5" transform="rotate(-5.7 645.204 509.367)"/><path class="phil-9" d="M1046.6 579.4 860.1 470.3l14.1 65.6-136.1-125.3 8.8 40.9c-50.3-43.3-105.1-81.4-164.1-117.1 33.7-42.1 66.6-84.9 96.2-130.1l-40 16.6 51.9-85.1-38.2 8.5 49.9-70"/><path class="phil-9" d="M617.5 288.1q-20.4-32.7-39.8-66L478.3 370l95.1 144.7 69.4-139.1"/><path class="phil-9" d="M574 509.2c0-58.9 8.8-111.9 8.4-175.8l-100.5 39m95.6-145.6c1.5 35.8 3.8 67.5 5.3 102.4m-25 321.8a108.8 108.8 0 0 1 42 53.9m-10.2-26.8c7.6-8.5 24.4-14.6 35.6-11.2"/><path d="M474.8 494.6c-2 17.3 16.2 29.8 32.9 22.8 0 0 .8 21.8 1.8 22.1-9.5 3.3-23.8 4.8-31.3-2.9-2.1-13.7-2.4-21.5-3.4-42Zm152.3-15c-2 17.3 16.2 29.8 32.9 22.8 0 0 .7 21.8 1.8 22.1-9.5 3.3-23.8 4.8-31.3-2.9-2.1-13.7-2.4-21.6-3.4-42Z" style="stroke-linecap:round;stroke-linejoin:round;stroke-width:10px;stroke-dasharray:0 0 0 0 0 0;stroke:#000"/><path class="phil-9" d="M400.2 637c16.6 28.3.4 50.1-3.7 77.9-3.3 22.3 18.3 41.5 34.6 21.2"/><path class="phil-9" d="M427 725.1c18.5 30.4-6.3 53.1 14.5 81.9 4.8 7.8 10.5 15.1 14.6 23.3 16.1 26.7-4.8 57.6 12.7 79.2 9.5 11.6 37.3 10.7 36.9-7.8m199.1-482.5c-9.6 32.4-1.5 68.7 17.5 96.6 9.8 14.5 23.5 28.2 24.3 46.3.9 22.1-24 44-38.5 25.4"/><path class="phil-9" d="M708.5 571c-18.6 65.3 52.9 81.3 25.1 142.6-7.3 16.2-18.9 33.2-14.6 51.8s29.3 27.3 28.7 48.3c1.1 25.9-29.6 32.8-47.5 19.2"/><path class="phil-9" d="M702.4 820.7c-17.2 27.4 6.5 70.2-12.4 96.4-8.8 12.2-34.7 21.8-43.2 3.5"/><path class="phil-9" d="M498.1 894.9c9.6 4.9 16.4 13.9 22 23.1s10.6 18.9 18.1 26.7a55.2 55.2 0 0 0 13.8 10.6 41.4 41.4 0 0 0 13.7 4.8c11.7 1.7 23.5-2.8 33.3-9.3s18.2-15 27.4-22.4 19.7-13.8 31.5-15.2M318.5 436.7c-12-12.2-17.1-37.1 1.2-45.6 18.7-7 32.8 13.9 49.1 19 8.9 2.8 18.5 1.4 27.8 2.3 23.4 2.3 44.4 20.9 49.3 43.9"/><path class="phil-9" d="M328 431.7c-53.1 29.3-18.4 54.7-44.4 91.2-7.4 10.4-19.2 18.4-22.4 30.8-7.3 28.7 35.1 43.2 43.4 13.3"/><path class="phil-9" d="M298.4 556.9c28.1 28.3 15.8 68.2 49.5 87.3 14.4 8.2 39.4-3.2 27-20.2"/><path class="phil-9" d="M364.4 622.3c11.6-.7 21.1 5.9 30.8 11 23.8 10.1 49-11.2 51.3-35.2M337.9 487.3a1084.2 1084.2 0 0 0 92.9 75.4"/><path class="phil-9" d="M405.2 476.4c-16.5 31.6-35.9 61.8-50.6 94.3m68.8-295.2c-20.6 6.6-37.8-16.3-29.2-35.4 11.3-25.2 40.6-32.8 61.2-48 30.7-22.7 35.8-53.6 78.7-68.2 49.4-16.7 99.4 12.6 129.2 51.4"/><path class="phil-9" d="M428 261c-2.9 28.5-17.2 31.5-27 53.1-5.2 11.4.5 26.1-6.1 36.8-4.4 7-12.7 10.7-17.7 17.3-12.9 17 10 40.8 24.3 22.2"/><path class="phil-9" d="M402.4 381.1a46 46 0 0 1-5.5 30.6"/><path class="phil-11" d="M401.2 380.4c-2.5 7.2-8 12.4-14.8 15.6M328 431.7c-11.5-1.1-15.9-5.5-19-11.8m-11.9 136.6a27.3 27.3 0 0 1-11.4 26.8m77.6 39.6a19.6 19.6 0 0 1 7.9 19.8m54.1 81.8a26.1 26.1 0 0 1-10.9 18.9m82.3 152.2a20 20 0 0 1-4.7 19.8m166.4-1a19.5 19.5 0 0 0-7.2 10.6m51.4-103.1a26.1 26.1 0 0 0 16.8 17.4M709 571.5a28.4 28.4 0 0 0 16.1 22.5M427 260.5a39.7 39.7 0 0 1-7.9 8.9 17.6 17.6 0 0 1-10.8 4.2m-73.1 218.9a708.6 708.6 0 0 0 91.3 75.4"/><path class="phil-11" d="M399.7 475.6c-15.3 31.6-36.2 60.2-50.3 92.3M473.8 374a1385.3 1385.3 0 0 0 100.4 147.2c24.6-45.9 48.6-92.2 71.3-139l54.2 39.9m-112.8-79 51.7 35.6"/><path class="phil-11" d="M477.2 468.6c-10.4 32.4-8.4 118.6 21.4 115.4m128.5-130.1c-9.5 19.5-7.7 122.6 25.2 114.7m-80.5 8.9c-39.7 26.1-21.3 347.5 36.5 289.7"/><path d="M725.2 545.1a27.9 27.9 0 0 1 7.4 18.1m-4.1 12.3-1.1 2.1m-9.1 85.1a32.6 32.6 0 0 1 7.2 21.2m3.6 116.5a20.3 20.3 0 0 1 5.1 14.9m-5.4 9.6-1.3 2.1m-42.8 69.8c-1.7 9.4-4 13.6-10.4 17.5m-81 23.6a29 29 0 0 1-15.2 7.6m-12.3.1a4.9 4.9 0 0 0-2.9-.6m-89.3-56.3a18.9 18.9 0 0 0 7.1 14.6M444 781.6a23.4 23.4 0 0 0 5.6 15.5m-41.5-78.7a13.7 13.7 0 0 0 3.7 10.4m-2.7-21.2.3-1.6m23.4-104.8c-2.3 5.8-5.4 11.7-10.8 15.1m-9.7 5.1-2.3.4m-65.4 4.6a20.9 20.9 0 0 0 9.8 7m-80.6-79.6a14.4 14.4 0 0 0 2.9 14.7m3.8-23.8a3.2 3.2 0 0 1 1.2-1.1m41.1-94.1A27.7 27.7 0 0 0 311 463m12.9-60.8a11.6 11.6 0 0 1 9.9 1.2m9.4 6.5 1.5.8m44.1-38.2a8.4 8.4 0 0 0-3.5 7.1m28 51.9a31.9 31.9 0 0 1 13.2 14.7m-9-137.7a24.8 24.8 0 0 0-6.4 13.4m-.2-84.2a18 18 0 0 0-6.4 15.7m15.6-24.5 1.6-.9h.2Zm168.7-89.5a88.2 88.2 0 0 1 31.2 17.4m11.5 9.5 3.3 3.4m-57.9 522a35.3 35.3 0 0 1 6.8 13.7m3.9 12.2.8 3m22.9-40.6a7.4 7.4 0 0 1 4.3-1.7m16.6-335.1q32.4 23.9 63.9 48.8m13.4 9.5 5.8 4.4m55.1 10.8a476.3 476.3 0 0 1 54.6 54.5m10.8 9.5 5.6 6.2m62.9-13a899.8 899.8 0 0 1 90.7 57.4m17.1 10.5 4.7 2.7M566.2 358.1c0 18.5-.8 36.9-2.3 55.3m-.7 14.5a34.1 34.1 0 0 1-.1 6.4m3.8-154q.9 18.9 1.5 37.8m51.6 71.7c-6.4 11.6-12.4 23.3-18.1 35.3m-6.7 12.5-2.1 4.1M593 271l9.9 15.6" style="stroke:#fff;opacity:.73;stroke-linecap:round;stroke-linejoin:round;stroke-width:10px;stroke-dasharray:0 0 0 0 0 0;fill:none"/></g><circle cx="550" cy="550" r="500" style="stroke-linecap:round;stroke-linejoin:round;stroke-width:10px;stroke:#000;fill:none" id="Layer_51" data-name="Layer 51"/></svg>