<svg version="1.1" id="Layer_1" xmlns="http://www.w3.org/2000/svg" x="0" y="0" viewBox="0 0 1100 1100" style="enable-background:new 0 0 1100 1100" xml:space="preserve" xmlns:xlink="http://www.w3.org/1999/xlink"><style type="text/css">.st302{fill:#6A10EB;stroke:#000000;stroke-width:10;stroke-linecap:round;stroke-linejoin:round;stroke-miterlimit:10;}</style><circle class="st302" cx="550" cy="553.7" r="500"/><linearGradient id="a6" gradientUnits="userSpaceOnUse" x1="163.939" y1="511.702" x2="836.611" y2="511.702" gradientTransform="matrix(1 0 0 -1 0 1100)"><stop offset="0" style="stop-color:#ff0026"/><stop offset=".225" style="stop-color:#ff371c"/><stop offset=".604" style="stop-color:#ff8d0d"/><stop offset=".871" style="stop-color:#ffc404"/><stop offset="1" style="stop-color:#ffd900"/></linearGradient><path style="fill:url(#a6)" d="M533 209.1c-68 59.6-71 20-121 36.5-19.6 10.9-14 30-9.7 39.6 11 23-51 9-69 40.3-10 18 .1 42-7.5 61.8-9 19.6-34 35-37 52.2-43 48-154 7-119 70.4 6 11 33-6 39 9.1 7 17.5-39 29-21 46.7 18 5 21 39.9 57 63.2 14 20 3 51 19 69.1 35.8 38 46-25 41-34.3 4-39 44-11 22 38.7-23 52 11 74 36.5 56.6 24-9 13 39 23 50.9 19.5 37 55 12 67 12 18 1 28 22 29.8 40.3 6.5 63 54 46 59 8 15.5-34 45 49 47 59.9 11 73 69 42 71 17.9 3-54-3-60.1 2-68.3 18.5-31 71 13 90.8-15.5 14-19.7-31-63.5 8-55.4 94 19 19-101 14-120.4-9-35.5 14-106 47-121.7 18-9 17-35.5 7-52.8-9.5-17-25-30.6-31-48.9-13.5-54 22-102-36-133.3-5-3-7-9.5-4-14.4 17-26 1-66-32-71.4-22-3-44 9-66.5 6.3C616 247 579.9 178 533 209.1z"/><style>.st40{fill:none;stroke:#000;stroke-width:10;stroke-linecap:round;stroke-linejoin:round;stroke-miterlimit:10}.st98{opacity:.6;enable-background:new}</style><g id="Outline"><path class="st98" d="M793 537c-1 .7-1 2-.5 3 5 10 11 35 25 30 8-2 21-13 18-22.4-.5-1-2-2-3-1.5-26 12-28-11-39-9.4v.3zm-34 274.5c6 5 26 8 25-3-6-7-20.6-12-21.5-26C750 772 744 803 759 811.5zm-219.3 52s1 .5 1 .8c9 13.5-3 36-18 40-34 6-9-6-6-44 .3-5.3 22.3 2.7 23 3.2zM342 731c5 7-4 22-4 33 8 13 29.6-5 33-14.9 2-12-17-21-28-20.2-1 .1-1 1.1-1 2.1zm31-120.2c2 23-8 47-26 61.9-13 10.9-17.5-30.6-8-27.9 6 4.2 28-18.8 34-34zm-157-59.9c-8 6-17 3-25 1-11 5 4 20 13.5 16 5-4 12-9 12-15.7-.5-.2-1.5-.2-.5-1.3zM337 473c-6-10-3-23 0-34 0-1 0-2-.6-2-9-9-23 11-19.8 20.7C318 463 338 475 337 472.8v.2z"/><path class="st98" d="M326 392c-2 29 24 45 7 44-7 2-14 1-15 11-1 11-24 0-24.5-1.3C285 433 317 404.5 326 392zm103-118c-9.9-4-16-16-18-25-4-6-9.9 1-11 6-7 54 29.5 28 29 19zm293 9c16 21 29.5 12 40 20.7 3 4 1 9.6-1 14-3 9-13 9-20 4.1-14.5-5.8-22-22.2-19-38.8z"/><path class="st40" d="M347 729c53.5 5 15 86 59 102 25 9 37-19.8 55-11.9 23 10.1 19.6 40 24 60.7 9.6 46 63 29.6 58-12.8"/><path class="st40" d="M519 861c89-9 47.5 119 114.5 115 39-6 35-47 25-76.5-3-9 0-18.5 7-24.5 24.5-21 59 15.5 84-2.5 15-11 8-33-2-45-12-15 0-32 10-43"/><path class="st40" d="M790 539c53 69.8-64 71 8 194.5 6 14 11 32 11 48.5 0 32-49 47.5-61 16"/><path class="st40" d="M721 287c2 51 64 31 74 88 6 34-11.5 71 7 103 10 18 27 31.5 34 51 8 19-4 47-27 42"/><path class="st40" d="M407 290.6c-16-8-12-29.9-2-41 17-15 40.5-10 61-6 29.8 1 49-29 75-38 50-17 81 55 133 44 23-5 48-11 69 1 25 14 33 55 10 75"/><path class="st40" d="M428 278c-16 26.5-51 17.5-76 28.5-20 10.5-28 33-23 55 10 47-43 51-39 88m25 4.5c1.5-23 35-26 41-5 7 25-13 47 16 72"/><path class="st40" d="M334 476c-20-34-61-31.5-89-9.6-20 8-43-3-64 4-22 7-28 37-5 43.5 6.5 2 23-2 26-1 15 4 11 25-5 30-21 6-10 29 6 29"/><path class="st40" d="M216 554.5c-15 15-14 41 2 55 37 22 41 31 36 69.7-2 31 46 41 53.5 10 2-10.8-4-22 0-33 13-32 44 20 62-44.5"/><path class="st40" d="M327 647.9c25 29.7-.5 47-7 75-10 32.5 34 65 53 25"/><path d="M729 262.5c9 4 16 13 18 22.5m-193-68c12.5 2 24.5 8 34 16m9 9 3 3m-163 10c-5.5-.9-12 .6-15.5 4M362 319.6c-9 2-14 10.7-16 19M339 449c4 1 6 6 6 9.8M308.5 470c-12-6-16-5-22-4M175 492c1-4 5-7 9-7.5m38 89.5c-4 8 0 16 4 19.9m44 78.6c-1 6 1 15 9 18m76-77.5c-3 14-13 14.5-16 16m4.5 119.5c-5-3-9-9-8-15M397 782c-1 14.5 7 28 14 30m90 53.9c-3 12 2 27 14.5 25M636 957c14-3 17-28 11-38m96-60.1c1-7 0-14-4-19m46-49.1c8-6.5 9-25 3-39M786 582c5-8 3-19-3-26m37-12c2-8.5-.6-18-7-24m-56-169c18 6 22 30 21 35" style="opacity:.7882;fill:none;stroke:#fff;stroke-width:10;stroke-linecap:round;stroke-linejoin:round;stroke-miterlimit:10;enable-background:new"/></g><defs><style>.axg-2{fill:none;stroke-linecap:round;stroke-linejoin:round;stroke-width:10px;stroke:#000}</style></defs><path d="M243.3 626.7c44.2-16.7-13.7-73.4 35.6-67.3 21.7 19.1-.3 76.2 37.7 66.4 49.7-12.9 2.3-62.1-2.5-73.1.2-30.9 41.4 1.5 50.2-38.3-18.2-24 5.5-57.2-11.5-72.8-23.1-21.4-36.9 8.5-40.9 12.3-49.6-11.5-64.2 25.4-117.3 13.2-18.8 1.7-44.6 25-24.6 41.9 11.7 10 34.4-3.6 41 13 5.6 20.2-54 25.9-6 50.9-4.7 29.1 19.3 38.5 38.3 53.8Z" style="fill:#ff00d9"/><path class="axg-2" d="M314.8 454c1.5-23.1 35.3-26.3 41.4-5 7.1 24.8-12.6 46.8 16.2 72.4"/><path class="axg-2" d="M333.7 475.6c-20.3-33.6-61.2-31.5-89.3-9.6-20 8.1-43.3-2.6-63.8 4.1s-28 37.5-4.7 43.5c6.5 1.7 23.1-2 26.4-1.1 15.3 4 11.4 25.2-5.4 30.1-21.2 6.2-10.2 28.6 6.3 29"/><path class="axg-2" d="M215.8 554.5c-14.8 14.8-13.6 41.2 2.4 54.6 36.7 21.9 40.7 30.9 35.7 69.7-2 31.4 45.8 41 53.5 10 1.8-10.8-4.5-22.1.2-32.7 12.4-32.5 44.2 20.2 62.3-44.5"/><path class="axg-2" d="M243.3 626.7c37.7-15 11.5-42.6 12.4-55.1s13.2-19 23.2-12.2c21.7 19.1-1.6 66.4 37.7 66.4 19.4 0 27.9-27.7 18.2-43.9-6.2-10.4-19.9-17.2-20.7-29.2-.9-15.6 12.2-15.8 24-15.8 17.1 0 22.7-11.2 26.4-22.4"/><path d="M252.3 630.1c37.2-23.8-3.2-55.3 13.1-65.7 19.7-12.7 16.5 44.9 26.1 55.7 14.5 16.1 42.1 14.9 49.3-5.5 15-42.4-25.4-45.4-20.3-64.1 4.2-15.7 34.1 2.2 47.4-30.2m-34.2-44.7c-5.3-11.3-15.2-21.9-8-36.1m-109.9 115c-6.5 6.5-14.4 12.3-26.3 7.7" style="opacity:.6;stroke:#000;fill:none;stroke-linecap:round;stroke-linejoin:round;stroke-width:10px"/><path d="M338.8 448.3a14 14 0 0 1 5.2 10.6m-61 4.8a28.5 28.5 0 0 1 22.2 6.9m-128.7 18.6a16.8 16.8 0 0 1 13-6.3m11.2-1.3 2.1.3M350 516.8c-2.5 4.5-5.9 7.7-12.8 6.9m-14.8 66.2c2.4 4.6 2 10.8-.1 15.9m-98.6-12.5a24.4 24.4 0 0 1-2.5-20.2" style="stroke:#fff;fill:none;stroke-linecap:round;stroke-linejoin:round;stroke-width:10px"/><style>.st40,.st68{fill:none;stroke-width:10;stroke-linecap:round;stroke-linejoin:round;stroke-miterlimit:10;stroke:#000}.st68{opacity:.6;enable-background:new}</style><g id="Happy"><path d="M472 678c-67.5 48.5 23 111 67 136.9 53 31 146 29 172-35-2-70.4-182-75.9-239-101.9z" style="fill:#fe1767"/><path d="M447 712c54-27 129.6 24 175.5 51 14 42 9-12 57-12 23 0-30-7-35-8.8-66-23-92-57-161-63C468 678 449.6 693 447 712z" style="fill:#ac1045"/><path d="M581 704c11 15 22 34 39 40.9 83-28 84 57 101 20 25-53.9 29-111.9-140-61.3v.4z"/><path d="M576 729.8c14 7 21 22 27 36m7 14c1 2 2 4 2 6m47-31.8c11 1 21 8 26 18" style="fill:none;stroke:#fff;stroke-width:10;stroke-linecap:round;stroke-linejoin:round;stroke-miterlimit:10"/><path class="st68" d="M702 653c15.5-2 51 9 55 47.5m-287-46c-24-3-49 19-51 43.5"/><path class="st40" d="M574 830.5c152.5 49 229.9-198 74-142-112 40.5-154-33-189-2.7-55 48.2 62 127.7 115 144.7zM471 656c-23 0-46 19.8-50 43"/><path class="st40" d="M701 655c27-1 48 20 54 46m-191 0c36 17.5 57 51 70 85m-15-37c34-21 74-6 93 28"/><path class="st68" d="M453 692c-84 69 216 256 268 72"/></g><style>.st16,.st40,.st68{fill:none;stroke:#fff;stroke-width:10;stroke-linecap:round;stroke-linejoin:round;stroke-miterlimit:10}.st40,.st68{stroke:#000}.st68{opacity:.6;enable-background:new}</style><g id="visor"><path class="st68" d="M425 452.5c-10 10-4 21-3 34 1 17.5-25 17-23 50.8 2 14 13.5 16 23 23.7 16 13-12 46.5 10.5 59 28 9 30-39 60.5-13 35 26 45-3 76-1 14 3 23 19.6 37 17.6 15-2 18-20 26-30.7 12-16 32 5 58-7 14-7 10.8-31 27-33 10-1 22-7 25-17.8 1-4 .7-9 3-11.9 3-4 9-5 11-9"/><path class="st68" d="M483 474c-28 10-52 59-14 72m214-104.1c32-1 53 43 26 64m-216 .1c-38 74 159 54 184 5"/><path d="M667 467c-60.6-40.6-281 59-113 83.5 33 5 185.5-41 113-83.9v.4z" style="fill:#fff"/><linearGradient id="SVGID_00000094605671738681660570000007936507584095639945_" gradientUnits="userSpaceOnUse" x1="531.586" y1="652.528" x2="653.586" y2="545.528" gradientTransform="matrix(1 0 0 -1 0 1100)"><stop offset="0" style="stop-color:#7b00ff"/><stop offset="1" style="stop-color:#ff0084"/></linearGradient><path style="fill:url(#SVGID_00000094605671738681660570000007936507584095639945_)" d="M550 467.8c-14 18 11 55 13 77 5 7 19.7 5 25-2 12-19.9-19.5-44-2-62 34-18 16 44 33 54.9 14 3 24-5 18-20-3-15 7-32-2-46-17-26.7-57-6.7-85-1.9z"/><path class="st16" d="M616 472c4 3 6.5 7 7 12m1 11v3"/><path d="M589 509.6c-6 26 3 45 25 27.9 4-17.5-4-37.8-25-27.9z"/><path class="st40" d="M623 456c-34 1-67 9-98 22.5-39.6 17-51 50.7-3 66 40 13 129-5.8 157-37.4 27-31.1-23.5-52.1-56-51.1zm-138 18c-20 15.5-47 54-14 71m210-103.1c29 12 42 36.5 27 65"/><path class="st40" d="M548 470c-15 25 21 51 15 75m57-87c33.5 21 8 44.5 21 70m-51.3 15c6-24-26-55-1-64 30-4 16 42 30.5 58"/><path class="st40" d="M580 500c4 9 19.8 11 27 7"/><linearGradient id="SVGID_00000036223863161345539850000005378798673148752026_" gradientUnits="userSpaceOnUse" x1="447.777" y1="687.666" x2="720.78" y2="506.665" gradientTransform="matrix(1 0 0 -1 0 1100)"><stop offset="0" style="stop-color:#ff002b"/><stop offset="1" style="stop-color:#ffd500"/></linearGradient><path style="opacity:.6902;fill:url(#SVGID_00000036223863161345539850000005378798673148752026_);enable-background:new" d="M490 437.6c-27-5-59.5-2-69 27.5-2 8 6.5 14 8.5 23-13 13.5-31 37-21 56 17 16 28 12 22 41.3-4 12 0 36 16.5 28 24-20.5 25-38 55-9.8 36 21 42-28 89 4.9 5 3 10.5 7 16 5.2 5-1 9-7 10.9-11.5 19.7-55 51 4 78-31 18-41 36-9 44-50 9-8 22-7 24-22.2 3-23-25-35-31-54.5-6-26 13-63-29-63-42 9.6-31 58-93 33-71-35-61.4 34.5-120.9 23.1z"/><path class="st16" d="M713 395c6.5 2 9 9 9 15m-2 13v2m26.5 60c3 3 5 8 5 13m-183-80c6-3 13.5-1 19 2m12.4 4 2.1 1m-121.5 25c-7-1-15-1-22 0M726 523c1 4 0 8-2 11m-36 27.5c-2 4-4 9-9 10.6m-12-.1h-2m-56 21c-1 3-3.5 6-5.5 9M535 592c-4 4-10 5-16 5m-11-4-2-1m-65-1.3c-1.5 3-2 7-.5 10M427 513c-4 4-6 9-7 15m-.3 10.5.3 1.5"/><path class="st68" d="M737.5 501c3 7 11 11.5 19 10.6M449 464c-5 6-13 10.9-21 13"/><path class="st40" d="M449 464c-9 26-42 39-44 68-1 8 4 17 12 19 6.5 2 13 3 15 9.8 5 16-13 44 5.5 52 24 11 23-43 58-14 45 37 47-28 95 11 27 22 25-16 40.8-28.5 15-12 35 8 52 2 15-5 15-24 24-33 7-5 17-2 23-7 14-9.6 4-29.9 7-44"/><path class="st40" d="M431 486c-24-21 3-49.7 29.8-49.5 24-2 56 9.6 74-10 39-42 61-9.7 103-5.2 46.5 2 39-48.5 78-39.5 29 11 16 33 17 56 1 18 19 29.5 27 44.9 10 16 0 42.5-21 33"/></g><defs><linearGradient id="zbg" x1="481.09" y1="66.55" x2="556.35" y2="408.14" gradientUnits="userSpaceOnUse"><stop offset="0" stop-color="#e100ff"/><stop offset=".18" stop-color="#e600dc"/><stop offset=".57" stop-color="#f10084"/><stop offset="1" stop-color="#ff001e"/></linearGradient><linearGradient id="zbg-2" x1="535.58" y1="186.28" x2="505.68" y2="294.23" gradientTransform="rotate(13.2 524.84 232.682)" gradientUnits="userSpaceOnUse"><stop offset="0" stop-color="#00fff2"/><stop offset="1" stop-color="#000dff"/></linearGradient><linearGradient id="zbg-3" x1="371.17" y1="124.15" x2="419.66" y2="250.85" gradientUnits="userSpaceOnUse"><stop offset="0" stop-color="#e100ff"/><stop offset="1" stop-color="#ff001e"/></linearGradient><linearGradient id="zbg-4" x1="580.35" y1="88.56" x2="629.68" y2="207.06" xlink:href="#zbg-3"/><style>.zbf-7{fill:none;stroke-linecap:round;stroke-linejoin:round;stroke-width:10px;stroke-dasharray:0 0 0 0 0 0;stroke:#000}</style></defs><path d="M327.9 385.8c-4.4 13.7-18.2 24-28.6 35.7-27.5 3.8-47-19.7-47.4-47-.3-20.7 3.9-39.7-6.5-59.6 20.7 8.3 15.9-10.5 17.7-24.3 5.7-41.6 31.7-62 4.3-106.2 21.5-1.1 66.7 69.5 72.3 30.5 25.7 8.6 31.4 46 72.2 29.4a45.3 45.3 0 0 0 23-21.2c13.8-27.2-15.8-33-9.3-52.2 11.3 12.6 43.8-2.5-5.9-75.5 46-3.6 107.6 64.6 104.1 18 26 15.2 15 35.5 46.6 53.1 9.1 5 13.4 15.8 21.2 22.7 39.3 35.2 74.7-18.2 48.3-54.5 27.2 4.8 2.4-40.7-7.9-47.2 72.7 11.8 84.4 120.9 108.1 76 6.5 8.1 6.3 19.5 10.1 29.1 6 15.4 21.5 25 30 39.2 5.8 9.7 8.1 21.3 13.6 31.2 7.8 17.1 31.2 26.8 38.4 45.4 10.5 27.2-15.2 48-38.6 58-5.9-18.6-21.9-31.6-42.9-38-142.9-4.6-286.5 14.4-422.8 57.4Z" style="fill:url(#zbg)"/><ellipse cx="523" cy="231.8" rx="26" ry="59.5" transform="rotate(-13.2 524.893 232.398)" style="fill:url(#zbg-2)"/><path d="M546.8 260.6c16.7-2.9-6.8-90.3-38.7-85-14 9.9-29.4 101.8 38.7 85Z" style="fill:#fff;opacity:.36"/><path d="M425.5 175.4a15.8 15.8 0 0 0 16-5.8c-11.9-5.8-14.9-21.4-30.8-25.4-1.8 26.7-31.6-8-51.9-9.5 22 27.5 17 66.2-.4 56.1.6 10.2-.6 20.4-2.7 31.2 24.8 47.1 81.5 20.9 82.3-8.5.4-13.5-12.2-25.6-12.5-38.1Z" style="fill:url(#zbg-3)"/><path d="M646.7 147.7c-16.1 12-20.1-21.1-27.6-24.6-17.8 22.9-17.7-30.9-43.4-27.3 8.7 7.6 17 46.4-3.4 35.8a56.1 56.1 0 0 1-2.5 31.8c55.9 74.3 86.7 14.4 76.9-15.7Z" style="fill:url(#zbg-4)"/><path d="M425.5 175.4a15.8 15.8 0 0 0 16-5.8c-11.9-5.8-14.9-21.4-30.8-25.4-1.8 26.7-31.6-8-51.9-9.5 22 27.5 17 66.2-.4 56.1.6 10.2-.6 20.4-2.7 31.2 24.8 47.1 81.5 20.9 82.3-8.5.4-13.5-12.2-25.6-12.5-38.1Zm221.2-27.7c-16.1 12-20.1-21.1-27.6-24.6-17.8 22.9-17.7-30.9-43.4-27.3 8.7 7.6 17 46.4-3.4 35.8a56.1 56.1 0 0 1-2.5 31.8c55.9 74.3 86.7 14.4 76.9-15.7Z" style="opacity:.39"/><path class="zbf-7" d="M789.6 327.5c-155.1 0-335.8 7.5-492.5 69.8"/><path class="zbf-7" d="M327.9 385.8c-4.4 13.7-18.2 24-28.6 35.7-27.5 3.8-47-19.7-47.4-47-.3-20.7 3.9-39.7-6.5-59.6 20.7 8.3 15.9-10.5 17.7-24.3 5.7-41.6 31.7-62 4.3-106.2 21.5-1.1 66.7 69.5 72.3 30.5 25.7 8.6 31.4 46 72.2 29.4a45.3 45.3 0 0 0 23-21.2c13.8-27.2-15.8-33-9.3-52.2 11.3 12.6 43.8-2.5-5.9-75.5 46-3.6 107.6 64.6 104.1 18 26 15.2 15 35.5 46.6 53.1 9.1 5 13.4 15.8 21.2 22.7 39.3 35.2 74.7-18.2 48.3-54.5 27.2 4.8 2.4-40.7-7.9-47.2 72.7 11.8 84.4 120.9 108.1 76 6.5 8.1 6.3 19.5 10.1 29.1 6 15.4 21.5 25 30 39.2 5.8 9.7 8.1 21.3 13.6 31.2 7.8 17.1 31.2 26.8 38.4 45.4 10.5 27.2-15.2 48-38.6 58-5.9-18.6-21.9-31.6-41.5-38.4"/><path class="zbf-7" d="M354.9 221a88.1 88.1 0 0 0 3.5-30.2c17.4 10.1 22.4-28.6.4-56.1 20.3 1.5 50.1 36.2 51.9 9.5 15.9 4 18.9 19.6 30.1 24.2m128.5-5.3a51 51 0 0 0 3-31.5c20.4 10.6 12.1-28.2 3.4-35.8 25.7-3.6 25.6 50.2 43.4 27.3 7.5 3.5 11.5 36.6 27.6 24.6"/><ellipse class="zbf-7" cx="523" cy="231.8" rx="26" ry="59.5" transform="rotate(-13.2 524.893 232.398)"/><path d="M294.2 399a20.3 20.3 0 0 1-1.7 21.7c12.3-4 26.2-16.8 26.2-30.6M794 328.5c-2.5 13.6 8.8 21 23.2 23.8-21.6 30.1-46.6-14.9-46.7-22.4" style="opacity:.6"/><path d="M760.3 332.1c-142.4 7.3-296.6 11.6-434.3 61.5m176.8-215.8c-29.8 22.8-4 139.4 38.2 109.8" style="opacity:.6;stroke:#000;fill:none;stroke-linecap:round;stroke-linejoin:round;stroke-width:10px;stroke-dasharray:0 0 0 0 0 0"/><path d="M515.7 190.5c7.4 7.6 11.6 17.7 15 27.7m3.1 12.7.7 4M671 125.1a102.2 102.2 0 0 1 16.8 22.6m10.3 15.8 2.2 3.9m53.2 58.2c9.8 5.9 13.9 16.1 17 25.5M448.3 114.6a79.5 79.5 0 0 1 26.9 14m12.3 6 3 1.8m68.6 39.9a39.1 39.1 0 0 1 13.4 13.4m-293.3 98.7a57.2 57.2 0 0 1 5.8-25.7m-9.7 41.4-.1 2.5m-7.6 55.8a38 38 0 0 0 1.7 24.2m4.8 12.8 1.8 2.1m528.9-103.9a28.7 28.7 0 0 1 12 19.3m.5 13.2-1.1 2.1" style="stroke:#fff;fill:none;stroke-linecap:round;stroke-linejoin:round;stroke-width:10px;stroke-dasharray:0 0 0 0 0 0"/><circle cx="550" cy="550" r="500" style="fill:none;stroke:#000;stroke-width:10;stroke-linecap:round;stroke-linejoin:round;stroke-miterlimit:10"/></svg>