<svg version="1.1" id="Layer_1" xmlns="http://www.w3.org/2000/svg" x="0" y="0" viewBox="0 0 1100 1100" style="enable-background:new 0 0 1100 1100" xml:space="preserve" xmlns:xlink="http://www.w3.org/1999/xlink"><circle cx="550" cy="550" r="500" style="fill:#2e2e2e"/><linearGradient id="a1" gradientUnits="userSpaceOnUse" x1="264.957" y1="853.134" x2="422.298" y2="853.134"><stop offset="0" style="stop-color:#00ff90"/><stop offset="1" style="stop-color:#c800ff"/></linearGradient><circle cx="343" cy="853" r="78" style="fill:url(#a1);stroke:#000;stroke-width:10;stroke-linecap:round;stroke-linejoin:round;stroke-miterlimit:10"/><linearGradient id="b1" gradientUnits="userSpaceOnUse" x1="826.38" y1="645.312" x2="919.38" y2="645.312"><stop offset="0" style="stop-color:#f7ff00"/><stop offset="1" style="stop-color:#ff5e00"/></linearGradient><ellipse style="fill:url(#b1);stroke:#000;stroke-width:10;stroke-linecap:round;stroke-linejoin:round;stroke-miterlimit:10" cx="873" cy="645" rx="46.5" ry="53"/><linearGradient id="c1" gradientUnits="userSpaceOnUse" x1="179.591" y1="404.219" x2="384.591" y2="404.219"><stop offset="0" style="stop-color:#0073ff"/><stop offset="1" style="stop-color:#8c00ff"/></linearGradient><ellipse style="fill:url(#c1);stroke:#000;stroke-width:10;stroke-linecap:round;stroke-linejoin:round;stroke-miterlimit:10" cx="282" cy="404" rx="102.5" ry="111"/><linearGradient id="d1" gradientUnits="userSpaceOnUse" x1="766.562" y1="310.33" x2="944.562" y2="310.33"><stop offset="0" style="stop-color:#7300ff"/><stop offset="1" style="stop-color:#ff008c"/></linearGradient><ellipse style="fill:url(#d1);stroke:#000;stroke-width:10;stroke-linecap:round;stroke-linejoin:round;stroke-miterlimit:10" cx="856" cy="310" rx="89" ry="95"/><linearGradient id="e1" gradientUnits="userSpaceOnUse" x1="615.769" y1="857.232" x2="845.269" y2="857.232"><stop offset="0" style="stop-color:#f0b"/><stop offset="1" style="stop-color:#f40"/></linearGradient><circle style="fill:url(#e1);stroke:#000;stroke-width:10;stroke-linecap:round;stroke-linejoin:round;stroke-miterlimit:10" cx="730.5" cy="857" r="115"/><linearGradient id="f1" gradientUnits="userSpaceOnUse" x1="115.411" y1="614.727" x2="186.411" y2="614.727"><stop offset="0" style="stop-color:#00ff90"/><stop offset="1" style="stop-color:#006fff"/></linearGradient><circle style="fill:url(#f1);stroke:#000;stroke-width:10;stroke-linecap:round;stroke-linejoin:round;stroke-miterlimit:10" cx="150.9" cy="615" r="35.5"/><path d="M313 326.3c18 9.9 33 27 39.6 46m7 22.7 1 7m509.9-163.1c19 5 34 19.6 41 38m6 22c1 3 1.5 5 2 8M879 609.4c9 4 16 11 19.8 20m.7 19.6-.5 5M759 766.9c25 9 44 31 49.9 56.5m7.1 23.7c1 4 1 7 .5 10.8M364 799.3c16 6 29 22 31 39m0 22.7-2 6M153.5 595.4c7 1 12 6 14 12" style="opacity:.8118;fill:none;stroke:#fff;stroke-width:16;stroke-linecap:round;stroke-linejoin:round;stroke-miterlimit:10;stroke-dasharray:0,0,0,0,0,0"/><radialGradient id="a9" cx="560.657" cy="569.423" r="93.351" gradientTransform="matrix(1 0 0 3.2533 0 -1281.846)" gradientUnits="userSpaceOnUse"><stop offset="0" style="stop-color:#00f2ff"/><stop offset="1" style="stop-color:#370080"/></radialGradient><path style="fill:url(#a9)" d="M533 210.7c-68 59.6-71 20-121 36.5-19.6 10.9-14 30-9.7 39.6 11 23-51 9-69 40.3-10 18 .1 42-7.5 61.8-9 19.6-34 35-37 52.2-43 48-154 7-119 70.4 6 11 33-6 39 9.1 7 17.5-39 29-21 46.7 18 5 21 39.9 57 63.2 14 20 3 51 19 69.1 35.8 38 46-25 41-34.3 4-39 44-11 22 38.7-23 52 11 74 36.5 56.6 24-9 13 39 23 50.9 19.5 37 55 12 67 12 18 1 28 22 29.8 40.3 6.5 63 54 46 59 8 15.5-34 45 49 47 59.9 11 73 69 42 71 17.9 3-54-3-60.1 2-68.3 18.5-31 71 13 90.8-15.5 14-19.7-31-63.5 8-55.4 94 19 19-101 14-120.4-9-35.5 14-106 47-121.7 18-9 17-35.5 7-52.8-9.5-17-25-30.6-31-48.9-13.5-54 22-102-36-133.3-5-3-7-9.5-4-14.4 17-26 1-66-32-71.4-22-3-44 9-66.5 6.3-43.4-4.8-79.5-74.1-126.4-43.1z"/><radialGradient id="b5" cx="553.285" cy="308.14" r="3.115" gradientTransform="matrix(30.3532 0 0 7.6359 -16163.282 -1999.622)" gradientUnits="userSpaceOnUse"><stop offset="0" style="stop-color:#00f2ff"/><stop offset="1" style="stop-color:#370080;stop-opacity:0"/></radialGradient><ellipse style="fill:url(#b5)" cx="635" cy="353" rx="83.5" ry="47.5"/><radialGradient id="c4" cx="685.268" cy="483.405" r="2.167" gradientTransform="matrix(16.0015 0 0 8.3553 -10251.582 -3523.179)" gradientUnits="userSpaceOnUse"><stop offset="0" style="stop-color:#00f2ff"/><stop offset="1" style="stop-color:#370080;stop-opacity:0"/></radialGradient><ellipse style="fill:url(#c4)" cx="715" cy="515.5" rx="30.5" ry="36"/><radialGradient id="d4" cx="417.82" cy="724.757" r="2.666" gradientTransform="matrix(25.7894 0 0 8.8738 -10290.887 -5668.355)" gradientUnits="userSpaceOnUse"><stop offset="0" style="stop-color:#00f2ff"/><stop offset="1" style="stop-color:#370080;stop-opacity:0"/></radialGradient><ellipse style="fill:url(#d4)" cx="488" cy="763" rx="71.5" ry="34.5"/><radialGradient id="e4" cx="525.562" cy="453.385" r="2.733" gradientTransform="matrix(2.3275 0 0 1.7985 -693.718 -358.824)" gradientUnits="userSpaceOnUse"><stop offset="0" style="stop-color:#00ff48"/><stop offset="1" style="stop-color:#7300ff;stop-opacity:0"/></radialGradient><circle style="fill:url(#e4)" cx="529.5" cy="457" r="5.5"/><radialGradient id="f4" cx="492.648" cy="546.297" r="1.723" gradientTransform="matrix(5.2809 0 0 5.0294 -2100.605 -2192.76)" gradientUnits="userSpaceOnUse"><stop offset="0" style="stop-color:#f700ff"/><stop offset="1" style="stop-color:#7300ff;stop-opacity:0"/></radialGradient><circle style="fill:url(#f4)" cx="501" cy="555" r="9"/><radialGradient id="g2" cx="642.36" cy="683.471" r="2.175" gradientTransform="matrix(4.189 0 0 4.4069 -2039.596 -2318.762)" gradientUnits="userSpaceOnUse"><stop offset="0" style="stop-color:#ff006a"/><stop offset="1" style="stop-color:#7300ff;stop-opacity:0"/></radialGradient><circle style="fill:url(#g2)" cx="651" cy="693" r="10"/><radialGradient id="h2" cx="631.016" cy="564.413" r="1.923" gradientTransform="matrix(1.8774 0 0 1.767 -550.874 -430.127)" gradientUnits="userSpaceOnUse"><stop offset="0" style="stop-color:#ff0"/><stop offset="1" style="stop-color:#7300ff;stop-opacity:0"/></radialGradient><circle style="fill:url(#h2)" cx="634" cy="567" r="3.5"/><radialGradient id="i2" cx="586.567" cy="520.158" r=".454" gradientTransform="translate(-1669.963 -1480.415) scale(3.851)" gradientUnits="userSpaceOnUse"><stop offset="0" style="stop-color:#ff2600"/><stop offset="1" style="stop-color:#7300ff;stop-opacity:0"/></radialGradient><circle style="fill:url(#i2)" cx="589" cy="523" r="2"/><radialGradient id="j2" cx="421.591" cy="470.614" r="2.51" gradientTransform="matrix(3.2467 0 0 3.9604 -939.96 -1384.463)" gradientUnits="userSpaceOnUse"><stop offset="0" style="stop-color:#00ffea"/><stop offset="1" style="stop-color:#7300ff;stop-opacity:0"/></radialGradient><circle style="fill:url(#j2)" cx="429" cy="479" r="9"/><style>.st40{fill:none;stroke:#000;stroke-width:10;stroke-linecap:round;stroke-linejoin:round;stroke-miterlimit:10}.st98{opacity:.6;enable-background:new}</style><g id="Outline"><path class="st98" d="M793 537c-1 .7-1 2-.5 3 5 10 11 35 25 30 8-2 21-13 18-22.4-.5-1-2-2-3-1.5-26 12-28-11-39-9.4v.3zm-34 274.5c6 5 26 8 25-3-6-7-20.6-12-21.5-26C750 772 744 803 759 811.5zm-219.3 52s1 .5 1 .8c9 13.5-3 36-18 40-34 6-9-6-6-44 .3-5.3 22.3 2.7 23 3.2zM342 731c5 7-4 22-4 33 8 13 29.6-5 33-14.9 2-12-17-21-28-20.2-1 .1-1 1.1-1 2.1zm31-120.2c2 23-8 47-26 61.9-13 10.9-17.5-30.6-8-27.9 6 4.2 28-18.8 34-34zm-157-59.9c-8 6-17 3-25 1-11 5 4 20 13.5 16 5-4 12-9 12-15.7-.5-.2-1.5-.2-.5-1.3zM337 473c-6-10-3-23 0-34 0-1 0-2-.6-2-9-9-23 11-19.8 20.7C318 463 338 475 337 472.8v.2z"/><path class="st98" d="M326 392c-2 29 24 45 7 44-7 2-14 1-15 11-1 11-24 0-24.5-1.3C285 433 317 404.5 326 392zm103-118c-9.9-4-16-16-18-25-4-6-9.9 1-11 6-7 54 29.5 28 29 19zm293 9c16 21 29.5 12 40 20.7 3 4 1 9.6-1 14-3 9-13 9-20 4.1-14.5-5.8-22-22.2-19-38.8z"/><path class="st40" d="M347 729c53.5 5 15 86 59 102 25 9 37-19.8 55-11.9 23 10.1 19.6 40 24 60.7 9.6 46 63 29.6 58-12.8"/><path class="st40" d="M519 861c89-9 47.5 119 114.5 115 39-6 35-47 25-76.5-3-9 0-18.5 7-24.5 24.5-21 59 15.5 84-2.5 15-11 8-33-2-45-12-15 0-32 10-43"/><path class="st40" d="M790 539c53 69.8-64 71 8 194.5 6 14 11 32 11 48.5 0 32-49 47.5-61 16"/><path class="st40" d="M721 287c2 51 64 31 74 88 6 34-11.5 71 7 103 10 18 27 31.5 34 51 8 19-4 47-27 42"/><path class="st40" d="M407 290.6c-16-8-12-29.9-2-41 17-15 40.5-10 61-6 29.8 1 49-29 75-38 50-17 81 55 133 44 23-5 48-11 69 1 25 14 33 55 10 75"/><path class="st40" d="M428 278c-16 26.5-51 17.5-76 28.5-20 10.5-28 33-23 55 10 47-43 51-39 88m25 4.5c1.5-23 35-26 41-5 7 25-13 47 16 72"/><path class="st40" d="M334 476c-20-34-61-31.5-89-9.6-20 8-43-3-64 4-22 7-28 37-5 43.5 6.5 2 23-2 26-1 15 4 11 25-5 30-21 6-10 29 6 29"/><path class="st40" d="M216 554.5c-15 15-14 41 2 55 37 22 41 31 36 69.7-2 31 46 41 53.5 10 2-10.8-4-22 0-33 13-32 44 20 62-44.5"/><path class="st40" d="M327 647.9c25 29.7-.5 47-7 75-10 32.5 34 65 53 25"/><path d="M729 262.5c9 4 16 13 18 22.5m-193-68c12.5 2 24.5 8 34 16m9 9 3 3m-163 10c-5.5-.9-12 .6-15.5 4M362 319.6c-9 2-14 10.7-16 19M339 449c4 1 6 6 6 9.8M308.5 470c-12-6-16-5-22-4M175 492c1-4 5-7 9-7.5m38 89.5c-4 8 0 16 4 19.9m44 78.6c-1 6 1 15 9 18m76-77.5c-3 14-13 14.5-16 16m4.5 119.5c-5-3-9-9-8-15M397 782c-1 14.5 7 28 14 30m90 53.9c-3 12 2 27 14.5 25M636 957c14-3 17-28 11-38m96-60.1c1-7 0-14-4-19m46-49.1c8-6.5 9-25 3-39M786 582c5-8 3-19-3-26m37-12c2-8.5-.6-18-7-24m-56-169c18 6 22 30 21 35" style="opacity:.7882;fill:none;stroke:#fff;stroke-width:10;stroke-linecap:round;stroke-linejoin:round;stroke-miterlimit:10;enable-background:new"/></g><linearGradient id="a12" gradientUnits="userSpaceOnUse" x1="234.425" y1="-533.764" x2="348.416" y2="-471.769" gradientTransform="translate(0 1066)"><stop offset="0" style="stop-color:#e0f"/><stop offset=".098" style="stop-color:#e002ff"/><stop offset=".286" style="stop-color:#ba07ff"/><stop offset=".543" style="stop-color:#7c0eff"/><stop offset=".857" style="stop-color:#2919ff"/><stop offset="1" style="stop-color:#001eff"/></linearGradient><path style="fill:url(#a12)" d="M329 545.2c-2-47-53-63-76-27-7 11-9 27-1 38 5.8 8 15 12 19 21 5 13-6 28 0 39.9 16 22 43-1.5 35-25-14.5-31.1 24-18.1 23-47.1v.2z"/><path d="M264 506c-18 25 30 88 55 57.9 22.5-21 3-59-24.5-63.3-10.5-2-23.5-4-30.5 5.2v.2z" style="opacity:.3412;fill:#fff;enable-background:new"/><path d="M329 545c-1.5-47-53-63-76-27-7 11-9 27-1 38 5.8 8 15 12 19 21.4 5 13-6 28 0 39.9 16 22 43-1.5 35-25-14.5-31.3 24-18.3 23-47.3z" style="fill:none;stroke:#000;stroke-width:10;stroke-linecap:round;stroke-linejoin:round;stroke-miterlimit:10"/><path d="M262 503c-19 13-29.7 41-14 60.5 5 6 12 10 16 17 5.5 12-3 28 3.5 39.5 4 7 13 9.8 19.7 7" style="opacity:.6;fill:none;stroke:#000;stroke-width:10;stroke-linecap:round;stroke-linejoin:round;stroke-miterlimit:10;enable-background:new"/><path d="M295.5 515c7 4 12 9.6 16 16m3.5 12c.5 1 1 2 1 3" style="fill:none;stroke:#fff;stroke-width:10;stroke-linecap:round;stroke-linejoin:round;stroke-miterlimit:10"/><style>.st40,.st68{fill:none;stroke-width:10;stroke-linecap:round;stroke-linejoin:round;stroke-miterlimit:10;stroke:#000}.st68{opacity:.6;enable-background:new}</style><g id="Happy"><path d="M472 678c-67.5 48.5 23 111 67 136.9 53 31 146 29 172-35-2-70.4-182-75.9-239-101.9z" style="fill:#fe1767"/><path d="M447 712c54-27 129.6 24 175.5 51 14 42 9-12 57-12 23 0-30-7-35-8.8-66-23-92-57-161-63C468 678 449.6 693 447 712z" style="fill:#ac1045"/><path d="M581 704c11 15 22 34 39 40.9 83-28 84 57 101 20 25-53.9 29-111.9-140-61.3v.4z"/><path d="M576 729.8c14 7 21 22 27 36m7 14c1 2 2 4 2 6m47-31.8c11 1 21 8 26 18" style="fill:none;stroke:#fff;stroke-width:10;stroke-linecap:round;stroke-linejoin:round;stroke-miterlimit:10"/><path class="st68" d="M702 653c15.5-2 51 9 55 47.5m-287-46c-24-3-49 19-51 43.5"/><path class="st40" d="M574 830.5c152.5 49 229.9-198 74-142-112 40.5-154-33-189-2.7-55 48.2 62 127.7 115 144.7zM471 656c-23 0-46 19.8-50 43"/><path class="st40" d="M701 655c27-1 48 20 54 46m-191 0c36 17.5 57 51 70 85m-15-37c34-21 74-6 93 28"/><path class="st68" d="M453 692c-84 69 216 256 268 72"/></g><defs><linearGradient id="zl" x1="574.42" y1="410.83" x2="618.38" y2="675.51" gradientUnits="userSpaceOnUse"><stop offset="0" stop-color="#00ff19"/><stop offset=".22" stop-color="#00fa46"/><stop offset=".7" stop-color="#00eeb6"/><stop offset="1" stop-color="#00e6ff"/></linearGradient><style>.zl-3{fill:none;stroke-linecap:round;stroke-linejoin:round;stroke-width:10px;stroke:#000}</style></defs><path d="M746.4 534.9c13.5 7.2 27.2-7.7 21.7-22.5-4.6-12.5-17-13.9-17-35.5 0-45.9-85.7-81.3-142.9-1.3-25.4 35.5-44.1-49.3-124-44.7-38.6 2.2-84.3 38.4-70.1 76.9 31 84.2 9.1 85.6 18.1 107.2 5.8 13.7 26.8 18.9 35.1 4.2 19.3 25.5 52.7 36.3 76.4 9.9 57.9 26.7 37.8-55 32.1-74.1-3.2-45.4 46.6-36.5 51.6-5.4 2.6 16.2-3.4 85.5 34.5 44.1 8.8 6 10.9 17.4 16.6 25.9 16.3 24.1 45.5 11.2 42.2-17 41.4 1.7 44.3-39.2 25.7-67.7Z" style="fill:url(#zl)"/><path d="M438.8 449.7a25.8 25.8 0 0 1 3.2 5.3l40.5 89.1 14.5-19.4 34 113.4s15.8-8.2 16.6-6.9c13.2 12.2 32.4-1.9 37.5-15.9l-86.3-125.8-11.2 26-25.8-78.5m180 6.5 1.7 3.3 17.9 81.5 13.3-14.7s20.7 118 20.7 118.8c22.6 2.6 24.8-13.8 24.4-31.7 8.1 1.5 14.9-1 21.4-5l-63.5-114.4-9.1 21.6-4-70.7" style="fill:#fff;opacity:.47"/><path class="zl-3" d="M458.7 607.4c9.5 6.5 14.6 17.9 23 25.8 17.5 16.1 46.2 12.8 62-4.2 4.3-4.6 8-10 13.6-12.8"/><path class="zl-3" d="M546 629c16.3 20.4 42.6-2.4 40.4-24.8-1.8-19.2-13.8-36.8-11.7-56 4.9-44.6 58.3-24.1 53.7 12.5-7.8 60.9 32.4 47.9 32.4 31.3"/><path class="zl-3" d="M653.4 587.4c25.2 6.3 18.1 44.5 44.5 45.9 11.1.6 24.3-10.8 22.6-25.1-1.2-10.5-9.2-13.3-6-24.3m5.2 15.7c19.4 6.2 39.7-10.2 39.6-30.5-.1-17.6-18.1-30.4-17.3-47.5"/><path class="zl-3" d="M746.4 534.9c13.5 7.2 27.2-7.7 21.7-22.5-4.6-12.5-17-13.9-17-35.5 0-45.9-56.4-50.9-75.3-47.5s-32.8 11.4-67.6 46.2c-30.9 30.9-44.1-49.3-124-44.7-38.6 2.2-84.3 38.4-70.1 76.9 31 84.2 9.1 85.6 18.1 107.2 5.8 13.7 26.8 18.9 34.5 4.6"/><path d="M428.9 449.8c-51.5 33.4 2.4 85.8-3.3 135.8-1.6 14-2.6 35.5 14.5 39.7m17.6-18.2c1.8 5.9 2.6 12.4-.2 17.8m100.2-8.6c-2.4 5.2-4.6 11.2-2.8 16.8m98-45.3a19.7 19.7 0 0 1-1.7 15.4m63.6-18.4c3.6 7 9.7 13.6 17.8 14.8m9.6-78.8a23.7 23.7 0 0 0 16.6 14.6m-292.7 90.2c7.1 9.4 17.8 19 30.4 16.6m45.9-9.1c7.6 6.5 19.7 6.8 28.5 1m28.9-109.4c42.3 24.6 7.5 57.5 35.3 77.9m26.3-2.6c8.7 9.5 10.9 24.3 22 32.1 7 4.9 17.3 5.9 23.4-.7" style="opacity:.6;stroke:#000;fill:none;stroke-linecap:round;stroke-linejoin:round;stroke-width:10px"/><path d="M711.8 447.7a25.1 25.1 0 0 1 18.5 15.2m4 11.6.1 2.6m19 34.3a16.1 16.1 0 0 1 3.3 8.1M743.4 560a20.2 20.2 0 0 1-1 18.5m-6.3-31.4 1.6 2.6m-31.6 53.7a15 15 0 0 1-2.1 15m-60.7-25.8a17 17 0 0 1-3.5-12.3m-133-132.9a67.2 67.2 0 0 1 34.6 19.8m-51.1-21a32.6 32.6 0 0 0-10.3.7m92.3 152.7a22.1 22.1 0 0 1-.5 14.8m-4.1-29.3.9 2m-32.4 30c-4.2 4.9-9.8 9-16.2 9.5m-12 2.7-2.9-.8m-60.4-17a13.3 13.3 0 0 1-1-12.1" style="stroke:#fff;fill:none;stroke-linecap:round;stroke-linejoin:round;stroke-width:10px"/><defs><linearGradient id="zbg" x1="481.09" y1="66.55" x2="556.35" y2="408.14" gradientUnits="userSpaceOnUse"><stop offset="0" stop-color="#e100ff"/><stop offset=".18" stop-color="#e600dc"/><stop offset=".57" stop-color="#f10084"/><stop offset="1" stop-color="#ff001e"/></linearGradient><linearGradient id="zbg-2" x1="535.58" y1="186.28" x2="505.68" y2="294.23" gradientTransform="rotate(13.2 524.84 232.682)" gradientUnits="userSpaceOnUse"><stop offset="0" stop-color="#00fff2"/><stop offset="1" stop-color="#000dff"/></linearGradient><linearGradient id="zbg-3" x1="371.17" y1="124.15" x2="419.66" y2="250.85" gradientUnits="userSpaceOnUse"><stop offset="0" stop-color="#e100ff"/><stop offset="1" stop-color="#ff001e"/></linearGradient><linearGradient id="zbg-4" x1="580.35" y1="88.56" x2="629.68" y2="207.06" xlink:href="#zbg-3"/><style>.zbf-7{fill:none;stroke-linecap:round;stroke-linejoin:round;stroke-width:10px;stroke-dasharray:0 0 0 0 0 0;stroke:#000}</style></defs><path d="M327.9 385.8c-4.4 13.7-18.2 24-28.6 35.7-27.5 3.8-47-19.7-47.4-47-.3-20.7 3.9-39.7-6.5-59.6 20.7 8.3 15.9-10.5 17.7-24.3 5.7-41.6 31.7-62 4.3-106.2 21.5-1.1 66.7 69.5 72.3 30.5 25.7 8.6 31.4 46 72.2 29.4a45.3 45.3 0 0 0 23-21.2c13.8-27.2-15.8-33-9.3-52.2 11.3 12.6 43.8-2.5-5.9-75.5 46-3.6 107.6 64.6 104.1 18 26 15.2 15 35.5 46.6 53.1 9.1 5 13.4 15.8 21.2 22.7 39.3 35.2 74.7-18.2 48.3-54.5 27.2 4.8 2.4-40.7-7.9-47.2 72.7 11.8 84.4 120.9 108.1 76 6.5 8.1 6.3 19.5 10.1 29.1 6 15.4 21.5 25 30 39.2 5.8 9.7 8.1 21.3 13.6 31.2 7.8 17.1 31.2 26.8 38.4 45.4 10.5 27.2-15.2 48-38.6 58-5.9-18.6-21.9-31.6-42.9-38-142.9-4.6-286.5 14.4-422.8 57.4Z" style="fill:url(#zbg)"/><ellipse cx="523" cy="231.8" rx="26" ry="59.5" transform="rotate(-13.2 524.893 232.398)" style="fill:url(#zbg-2)"/><path d="M546.8 260.6c16.7-2.9-6.8-90.3-38.7-85-14 9.9-29.4 101.8 38.7 85Z" style="fill:#fff;opacity:.36"/><path d="M425.5 175.4a15.8 15.8 0 0 0 16-5.8c-11.9-5.8-14.9-21.4-30.8-25.4-1.8 26.7-31.6-8-51.9-9.5 22 27.5 17 66.2-.4 56.1.6 10.2-.6 20.4-2.7 31.2 24.8 47.1 81.5 20.9 82.3-8.5.4-13.5-12.2-25.6-12.5-38.1Z" style="fill:url(#zbg-3)"/><path d="M646.7 147.7c-16.1 12-20.1-21.1-27.6-24.6-17.8 22.9-17.7-30.9-43.4-27.3 8.7 7.6 17 46.4-3.4 35.8a56.1 56.1 0 0 1-2.5 31.8c55.9 74.3 86.7 14.4 76.9-15.7Z" style="fill:url(#zbg-4)"/><path d="M425.5 175.4a15.8 15.8 0 0 0 16-5.8c-11.9-5.8-14.9-21.4-30.8-25.4-1.8 26.7-31.6-8-51.9-9.5 22 27.5 17 66.2-.4 56.1.6 10.2-.6 20.4-2.7 31.2 24.8 47.1 81.5 20.9 82.3-8.5.4-13.5-12.2-25.6-12.5-38.1Zm221.2-27.7c-16.1 12-20.1-21.1-27.6-24.6-17.8 22.9-17.7-30.9-43.4-27.3 8.7 7.6 17 46.4-3.4 35.8a56.1 56.1 0 0 1-2.5 31.8c55.9 74.3 86.7 14.4 76.9-15.7Z" style="opacity:.39"/><path class="zbf-7" d="M789.6 327.5c-155.1 0-335.8 7.5-492.5 69.8"/><path class="zbf-7" d="M327.9 385.8c-4.4 13.7-18.2 24-28.6 35.7-27.5 3.8-47-19.7-47.4-47-.3-20.7 3.9-39.7-6.5-59.6 20.7 8.3 15.9-10.5 17.7-24.3 5.7-41.6 31.7-62 4.3-106.2 21.5-1.1 66.7 69.5 72.3 30.5 25.7 8.6 31.4 46 72.2 29.4a45.3 45.3 0 0 0 23-21.2c13.8-27.2-15.8-33-9.3-52.2 11.3 12.6 43.8-2.5-5.9-75.5 46-3.6 107.6 64.6 104.1 18 26 15.2 15 35.5 46.6 53.1 9.1 5 13.4 15.8 21.2 22.7 39.3 35.2 74.7-18.2 48.3-54.5 27.2 4.8 2.4-40.7-7.9-47.2 72.7 11.8 84.4 120.9 108.1 76 6.5 8.1 6.3 19.5 10.1 29.1 6 15.4 21.5 25 30 39.2 5.8 9.7 8.1 21.3 13.6 31.2 7.8 17.1 31.2 26.8 38.4 45.4 10.5 27.2-15.2 48-38.6 58-5.9-18.6-21.9-31.6-41.5-38.4"/><path class="zbf-7" d="M354.9 221a88.1 88.1 0 0 0 3.5-30.2c17.4 10.1 22.4-28.6.4-56.1 20.3 1.5 50.1 36.2 51.9 9.5 15.9 4 18.9 19.6 30.1 24.2m128.5-5.3a51 51 0 0 0 3-31.5c20.4 10.6 12.1-28.2 3.4-35.8 25.7-3.6 25.6 50.2 43.4 27.3 7.5 3.5 11.5 36.6 27.6 24.6"/><ellipse class="zbf-7" cx="523" cy="231.8" rx="26" ry="59.5" transform="rotate(-13.2 524.893 232.398)"/><path d="M294.2 399a20.3 20.3 0 0 1-1.7 21.7c12.3-4 26.2-16.8 26.2-30.6M794 328.5c-2.5 13.6 8.8 21 23.2 23.8-21.6 30.1-46.6-14.9-46.7-22.4" style="opacity:.6"/><path d="M760.3 332.1c-142.4 7.3-296.6 11.6-434.3 61.5m176.8-215.8c-29.8 22.8-4 139.4 38.2 109.8" style="opacity:.6;stroke:#000;fill:none;stroke-linecap:round;stroke-linejoin:round;stroke-width:10px;stroke-dasharray:0 0 0 0 0 0"/><path d="M515.7 190.5c7.4 7.6 11.6 17.7 15 27.7m3.1 12.7.7 4M671 125.1a102.2 102.2 0 0 1 16.8 22.6m10.3 15.8 2.2 3.9m53.2 58.2c9.8 5.9 13.9 16.1 17 25.5M448.3 114.6a79.5 79.5 0 0 1 26.9 14m12.3 6 3 1.8m68.6 39.9a39.1 39.1 0 0 1 13.4 13.4m-293.3 98.7a57.2 57.2 0 0 1 5.8-25.7m-9.7 41.4-.1 2.5m-7.6 55.8a38 38 0 0 0 1.7 24.2m4.8 12.8 1.8 2.1m528.9-103.9a28.7 28.7 0 0 1 12 19.3m.5 13.2-1.1 2.1" style="stroke:#fff;fill:none;stroke-linecap:round;stroke-linejoin:round;stroke-width:10px;stroke-dasharray:0 0 0 0 0 0"/><circle cx="550" cy="550" r="500" style="fill:none;stroke:#000;stroke-width:10;stroke-linecap:round;stroke-linejoin:round;stroke-miterlimit:10"/></svg>