<svg version="1.1" id="Layer_1" xmlns="http://www.w3.org/2000/svg" x="0" y="0" viewBox="0 0 1100 1100" style="enable-background:new 0 0 1100 1100" xml:space="preserve" xmlns:xlink="http://www.w3.org/1999/xlink"><style type="text/css">.st303{fill:#FED907;stroke:#000000;stroke-width:10;stroke-linecap:round;stroke-linejoin:round;stroke-miterlimit:10;}</style><circle class="st303" cx="550" cy="553.7" r="500"/><linearGradient id="a8" gradientUnits="userSpaceOnUse" x1="558.119" y1="436.228" x2="806.198" y2="309.187" gradientTransform="matrix(1 0 0 -1 0 1100)"><stop offset="0" style="stop-color:#03fcf4"/><stop offset=".089" style="stop-color:#03f2f4"/><stop offset=".244" style="stop-color:#03d5f5"/><stop offset=".446" style="stop-color:#03a8f7"/><stop offset=".686" style="stop-color:#0368f9"/><stop offset=".957" style="stop-color:#0318fc"/><stop offset="1" style="stop-color:#030bfc"/></linearGradient><path style="fill:url(#a8)" d="M777.5 632.2c-21 64 38 96 31 151-4 29-37 44-59 23-39 0 84 96-74 61.8l-98-255 200 19v.2z"/><linearGradient id="b4" gradientUnits="userSpaceOnUse" x1="173.214" y1="619.428" x2="438.218" y2="483.425" gradientTransform="matrix(1 0 0 -1 0 1100)"><stop offset="0" style="stop-color:#03fcf4"/><stop offset=".089" style="stop-color:#03f2f4"/><stop offset=".244" style="stop-color:#03d5f5"/><stop offset=".446" style="stop-color:#03a8f7"/><stop offset=".686" style="stop-color:#0368f9"/><stop offset=".957" style="stop-color:#0318fc"/><stop offset="1" style="stop-color:#030bfc"/></linearGradient><path style="fill:url(#b4)" d="M331 377.1c-59 101.5-46 59.7-77 80.7-27 18-93-2-93 37 6 29.8 36 8.5 48 20 16.5 28-46 23-13 56.7 10.7-1 12 9.6 12 18 0 41 56 5 46 90 6 41 63 35 53.5-7.9-12-53.5 59-31 9.6 55.8-4 34 41 54 54.5 19l-42-202.6 70.9-144.5L331 377v.1z"/><linearGradient id="c3" gradientUnits="userSpaceOnUse" x1="342.781" y1="569.57" x2="468.781" y2="505.57" gradientTransform="matrix(1 0 0 -1 0 1100)"><stop offset="0" style="stop-color:#03fcf4"/><stop offset=".089" style="stop-color:#03f2f4"/><stop offset=".244" style="stop-color:#03d5f5"/><stop offset=".446" style="stop-color:#03a8f7"/><stop offset=".686" style="stop-color:#0368f9"/><stop offset=".957" style="stop-color:#0318fc"/><stop offset="1" style="stop-color:#030bfc"/></linearGradient><path style="fill:url(#c3)" d="M331 545c2 0 123 8 129 8.3l-5 70.8-124-79.4v.3z"/><linearGradient id="d3" gradientUnits="userSpaceOnUse" x1="192.925" y1="662.852" x2="343.925" y2="585.852" gradientTransform="matrix(1 0 0 -1 0 1100)"><stop offset="0" style="stop-color:#03fcf4"/><stop offset=".089" style="stop-color:#03f2f4"/><stop offset=".244" style="stop-color:#03d5f5"/><stop offset=".446" style="stop-color:#03a8f7"/><stop offset=".686" style="stop-color:#0368f9"/><stop offset=".957" style="stop-color:#0318fc"/><stop offset="1" style="stop-color:#030bfc"/></linearGradient><path style="fill:url(#d3)" d="M333 383s39.8 16 59 24.2L330 545s-123 30.6-123 30c-9.6-3-26-12-19.7-22 10.9-17 59-39.8-12-39.8-19.7 0-16-35 1-41.8 10-4 15 11 103-20C305 426 320 398 333 382.6v.4z"/><linearGradient id="e3" gradientUnits="userSpaceOnUse" x1="286.992" y1="458.984" x2="489.992" y2="354.984" gradientTransform="matrix(1 0 0 -1 0 1100)"><stop offset="0" style="stop-color:#03fcf4"/><stop offset=".089" style="stop-color:#03f2f4"/><stop offset=".244" style="stop-color:#03d5f5"/><stop offset=".446" style="stop-color:#03a8f7"/><stop offset=".686" style="stop-color:#0368f9"/><stop offset=".957" style="stop-color:#0318fc"/><stop offset="1" style="stop-color:#030bfc"/></linearGradient><path style="fill:url(#e3)" d="M370 736.6c-12-64-28-126.5-40-191.7l125 79.3 33.5-10s-33 200-33 201C369 878 384 757 370 736.6z"/><linearGradient id="f3" gradientUnits="userSpaceOnUse" x1="439.222" y1="373.432" x2="708.222" y2="235.432" gradientTransform="matrix(1 0 0 -1 0 1100)"><stop offset="0" style="stop-color:#03fcf4"/><stop offset=".089" style="stop-color:#03f2f4"/><stop offset=".244" style="stop-color:#03d5f5"/><stop offset=".446" style="stop-color:#03a8f7"/><stop offset=".686" style="stop-color:#0368f9"/><stop offset=".957" style="stop-color:#0318fc"/><stop offset="1" style="stop-color:#030bfc"/></linearGradient><path style="fill:url(#f3)" d="M455 817.1c11.5-68 23-137 34-204.8l103 38s83.5 217 83 217c-38 12 25 108-48 107.6-50-5-29-103-86-109.9 4 32-31 59.6-51 25-12-24.5-2-61-35-72.9z"/><linearGradient id="g1" gradientUnits="userSpaceOnUse" x1="532.938" y1="679.879" x2="827.935" y2="528.88" gradientTransform="matrix(1 0 0 -1 0 1100)"><stop offset="0" style="stop-color:#03fcf4"/><stop offset=".089" style="stop-color:#03f2f4"/><stop offset=".244" style="stop-color:#03d5f5"/><stop offset=".446" style="stop-color:#03a8f7"/><stop offset=".686" style="stop-color:#0368f9"/><stop offset=".957" style="stop-color:#0318fc"/><stop offset="1" style="stop-color:#030bfc"/></linearGradient><path style="fill:url(#g1)" d="M795 370.7c7.5 30-8 63 0 93.1 9 34 71 72 29.9 108-18 0-17-9-46 67.3l-200.8-12.3-28-255.8h244.8l.1-.3z"/><linearGradient id="h1" gradientUnits="userSpaceOnUse" x1="638.618" y1="629.254" x2="830.554" y2="531.286" gradientTransform="matrix(1 0 0 -1 0 1100)"><stop offset="0" style="stop-color:#03fcf4"/><stop offset=".089" style="stop-color:#03f2f4"/><stop offset=".244" style="stop-color:#03d5f5"/><stop offset=".446" style="stop-color:#03a8f7"/><stop offset=".686" style="stop-color:#0368f9"/><stop offset=".957" style="stop-color:#0318fc"/><stop offset="1" style="stop-color:#030bfc"/></linearGradient><path style="fill:url(#h1)" d="M774 639c-53.5-3.5-104-6-159-9.6l-39.9-44.1 29-8.4 24.5-69.5s164-129.5 165.5-128c-13 153 35 82 43 169.7 3 32-32 17-35 33.1C797 601.5 788 620 774 638.8v.2z"/><linearGradient id="i1" gradientUnits="userSpaceOnUse" x1="614.019" y1="789.038" x2="783.019" y2="703.038" gradientTransform="matrix(1 0 0 -1 0 1100)"><stop offset="0" style="stop-color:#03fcf4"/><stop offset=".089" style="stop-color:#03f2f4"/><stop offset=".244" style="stop-color:#03d5f5"/><stop offset=".446" style="stop-color:#03a8f7"/><stop offset=".686" style="stop-color:#0368f9"/><stop offset=".957" style="stop-color:#0318fc"/><stop offset="1" style="stop-color:#030bfc"/></linearGradient><path style="fill:url(#i1)" d="m642 247.4-59.5 171.4c70.9-9.6 146-17 213-42 7-26-22.5-44-43-50C809 236 695 243 642 247v.4z"/><linearGradient id="j1" gradientUnits="userSpaceOnUse" x1="442.133" y1="833.26" x2="643.133" y2="730.26" gradientTransform="matrix(1 0 0 -1 0 1100)"><stop offset="0" style="stop-color:#03fcf4"/><stop offset=".089" style="stop-color:#03f2f4"/><stop offset=".244" style="stop-color:#03d5f5"/><stop offset=".446" style="stop-color:#03a8f7"/><stop offset=".686" style="stop-color:#0368f9"/><stop offset=".957" style="stop-color:#0318fc"/><stop offset="1" style="stop-color:#030bfc"/></linearGradient><path style="fill:url(#j1)" d="M449.9 240c10 4 22 4 33 1.1 14-4 25-15 36.5-24 11-9 25-17 39-17s27 9 38 17c16 12 32.5 25 52 32.5l-58 224.1L449.9 240z"/><linearGradient id="k" gradientUnits="userSpaceOnUse" x1="357.104" y1="807.111" x2="658.067" y2="653.13" gradientTransform="matrix(1 0 0 -1 0 1100)"><stop offset="0" style="stop-color:#03fcf4"/><stop offset=".089" style="stop-color:#03f2f4"/><stop offset=".244" style="stop-color:#03d5f5"/><stop offset=".446" style="stop-color:#03a8f7"/><stop offset=".686" style="stop-color:#0368f9"/><stop offset=".957" style="stop-color:#0318fc"/><stop offset="1" style="stop-color:#030bfc"/></linearGradient><path style="fill:url(#k)" d="M462 244c-10-2.5-21-5-32-4.5s-22 4-29 12.1-9 21-3 29.6c3 4 7 8 5 12-1.5 3.5-6 4-9.8 4-14 0-27 2-39.7 7.9-12 6-23 16-27 29-2 6-2 13-2 19.7 0 9 1 18 3 26.5l300 126.5-49-106.6L462 244z"/><linearGradient id="l" gradientUnits="userSpaceOnUse" x1="435.046" y1="589.091" x2="595.046" y2="507.091" gradientTransform="matrix(1 0 0 -1 0 1100)"><stop offset="0" style="stop-color:#03fcf4"/><stop offset=".089" style="stop-color:#03f2f4"/><stop offset=".244" style="stop-color:#03d5f5"/><stop offset=".446" style="stop-color:#03a8f7"/><stop offset=".686" style="stop-color:#0368f9"/><stop offset=".957" style="stop-color:#0318fc"/><stop offset="1" style="stop-color:#030bfc"/></linearGradient><path style="fill:url(#l)" d="M629.6 507.4c-8 23-16 47-25 70.4l-149.9 46.8 12-185.6 163 68v.4z"/><linearGradient id="m" gradientUnits="userSpaceOnUse" x1="506.773" y1="513.561" x2="653.773" y2="437.561" gradientTransform="matrix(1 0 0 -1 0 1100)"><stop offset="0" style="stop-color:#03fcf4"/><stop offset=".089" style="stop-color:#03f2f4"/><stop offset=".244" style="stop-color:#03d5f5"/><stop offset=".446" style="stop-color:#03a8f7"/><stop offset=".686" style="stop-color:#0368f9"/><stop offset=".957" style="stop-color:#0318fc"/><stop offset="1" style="stop-color:#030bfc"/></linearGradient><path style="fill:url(#m)" d="M578 586.2c-31 9-58 17-89.8 27.9l163 56.8L578 586v.2z"/><linearGradient id="n" gradientUnits="userSpaceOnUse" x1="441.998" y1="531.996" x2="496.998" y2="503.996" gradientTransform="matrix(1 0 0 -1 0 1100)"><stop offset="0" style="stop-color:#03fcf4"/><stop offset=".089" style="stop-color:#03f2f4"/><stop offset=".244" style="stop-color:#03d5f5"/><stop offset=".446" style="stop-color:#03a8f7"/><stop offset=".686" style="stop-color:#0368f9"/><stop offset=".957" style="stop-color:#0318fc"/><stop offset="1" style="stop-color:#030bfc"/></linearGradient><path style="fill:url(#n)" d="M461 527.8c-2 34-4 65-6 96.7l34-10.6-28-86.1z"/><linearGradient id="o" gradientUnits="userSpaceOnUse" x1="359.947" y1="627.897" x2="470.947" y2="570.897" gradientTransform="matrix(1 0 0 -1 0 1100)"><stop offset="0" style="stop-color:#03fcf4"/><stop offset=".089" style="stop-color:#03f2f4"/><stop offset=".244" style="stop-color:#03d5f5"/><stop offset=".446" style="stop-color:#03a8f7"/><stop offset=".686" style="stop-color:#0368f9"/><stop offset=".957" style="stop-color:#0318fc"/><stop offset="1" style="stop-color:#030bfc"/></linearGradient><path style="fill:url(#o)" d="M391 406.9c-21 48.5-38 86-61 138l129.5 9.1 7.5-115.1-76-32z"/><style>.st40{fill:none;stroke:#000;stroke-width:10;stroke-linecap:round;stroke-linejoin:round;stroke-miterlimit:10}.st98{opacity:.6;enable-background:new}</style><g id="Outline"><path class="st98" d="M793 537c-1 .7-1 2-.5 3 5 10 11 35 25 30 8-2 21-13 18-22.4-.5-1-2-2-3-1.5-26 12-28-11-39-9.4v.3zm-34 274.5c6 5 26 8 25-3-6-7-20.6-12-21.5-26C750 772 744 803 759 811.5zm-219.3 52s1 .5 1 .8c9 13.5-3 36-18 40-34 6-9-6-6-44 .3-5.3 22.3 2.7 23 3.2zM342 731c5 7-4 22-4 33 8 13 29.6-5 33-14.9 2-12-17-21-28-20.2-1 .1-1 1.1-1 2.1zm31-120.2c2 23-8 47-26 61.9-13 10.9-17.5-30.6-8-27.9 6 4.2 28-18.8 34-34zm-157-59.9c-8 6-17 3-25 1-11 5 4 20 13.5 16 5-4 12-9 12-15.7-.5-.2-1.5-.2-.5-1.3zM337 473c-6-10-3-23 0-34 0-1 0-2-.6-2-9-9-23 11-19.8 20.7C318 463 338 475 337 472.8v.2z"/><path class="st98" d="M326 392c-2 29 24 45 7 44-7 2-14 1-15 11-1 11-24 0-24.5-1.3C285 433 317 404.5 326 392zm103-118c-9.9-4-16-16-18-25-4-6-9.9 1-11 6-7 54 29.5 28 29 19zm293 9c16 21 29.5 12 40 20.7 3 4 1 9.6-1 14-3 9-13 9-20 4.1-14.5-5.8-22-22.2-19-38.8z"/><path class="st40" d="M347 729c53.5 5 15 86 59 102 25 9 37-19.8 55-11.9 23 10.1 19.6 40 24 60.7 9.6 46 63 29.6 58-12.8"/><path class="st40" d="M519 861c89-9 47.5 119 114.5 115 39-6 35-47 25-76.5-3-9 0-18.5 7-24.5 24.5-21 59 15.5 84-2.5 15-11 8-33-2-45-12-15 0-32 10-43"/><path class="st40" d="M790 539c53 69.8-64 71 8 194.5 6 14 11 32 11 48.5 0 32-49 47.5-61 16"/><path class="st40" d="M721 287c2 51 64 31 74 88 6 34-11.5 71 7 103 10 18 27 31.5 34 51 8 19-4 47-27 42"/><path class="st40" d="M407 290.6c-16-8-12-29.9-2-41 17-15 40.5-10 61-6 29.8 1 49-29 75-38 50-17 81 55 133 44 23-5 48-11 69 1 25 14 33 55 10 75"/><path class="st40" d="M428 278c-16 26.5-51 17.5-76 28.5-20 10.5-28 33-23 55 10 47-43 51-39 88m25 4.5c1.5-23 35-26 41-5 7 25-13 47 16 72"/><path class="st40" d="M334 476c-20-34-61-31.5-89-9.6-20 8-43-3-64 4-22 7-28 37-5 43.5 6.5 2 23-2 26-1 15 4 11 25-5 30-21 6-10 29 6 29"/><path class="st40" d="M216 554.5c-15 15-14 41 2 55 37 22 41 31 36 69.7-2 31 46 41 53.5 10 2-10.8-4-22 0-33 13-32 44 20 62-44.5"/><path class="st40" d="M327 647.9c25 29.7-.5 47-7 75-10 32.5 34 65 53 25"/><path d="M729 262.5c9 4 16 13 18 22.5m-193-68c12.5 2 24.5 8 34 16m9 9 3 3m-163 10c-5.5-.9-12 .6-15.5 4M362 319.6c-9 2-14 10.7-16 19M339 449c4 1 6 6 6 9.8M308.5 470c-12-6-16-5-22-4M175 492c1-4 5-7 9-7.5m38 89.5c-4 8 0 16 4 19.9m44 78.6c-1 6 1 15 9 18m76-77.5c-3 14-13 14.5-16 16m4.5 119.5c-5-3-9-9-8-15M397 782c-1 14.5 7 28 14 30m90 53.9c-3 12 2 27 14.5 25M636 957c14-3 17-28 11-38m96-60.1c1-7 0-14-4-19m46-49.1c8-6.5 9-25 3-39M786 582c5-8 3-19-3-26m37-12c2-8.5-.6-18-7-24m-56-169c18 6 22 30 21 35" style="opacity:.7882;fill:none;stroke:#fff;stroke-width:10;stroke-linecap:round;stroke-linejoin:round;stroke-miterlimit:10;enable-background:new"/></g><linearGradient id="a12" gradientUnits="userSpaceOnUse" x1="234.425" y1="-533.764" x2="348.416" y2="-471.769" gradientTransform="translate(0 1066)"><stop offset="0" style="stop-color:#e0f"/><stop offset=".098" style="stop-color:#e002ff"/><stop offset=".286" style="stop-color:#ba07ff"/><stop offset=".543" style="stop-color:#7c0eff"/><stop offset=".857" style="stop-color:#2919ff"/><stop offset="1" style="stop-color:#001eff"/></linearGradient><path style="fill:url(#a12)" d="M329 545.2c-2-47-53-63-76-27-7 11-9 27-1 38 5.8 8 15 12 19 21 5 13-6 28 0 39.9 16 22 43-1.5 35-25-14.5-31.1 24-18.1 23-47.1v.2z"/><path d="M264 506c-18 25 30 88 55 57.9 22.5-21 3-59-24.5-63.3-10.5-2-23.5-4-30.5 5.2v.2z" style="opacity:.3412;fill:#fff;enable-background:new"/><path d="M329 545c-1.5-47-53-63-76-27-7 11-9 27-1 38 5.8 8 15 12 19 21.4 5 13-6 28 0 39.9 16 22 43-1.5 35-25-14.5-31.3 24-18.3 23-47.3z" style="fill:none;stroke:#000;stroke-width:10;stroke-linecap:round;stroke-linejoin:round;stroke-miterlimit:10"/><path d="M262 503c-19 13-29.7 41-14 60.5 5 6 12 10 16 17 5.5 12-3 28 3.5 39.5 4 7 13 9.8 19.7 7" style="opacity:.6;fill:none;stroke:#000;stroke-width:10;stroke-linecap:round;stroke-linejoin:round;stroke-miterlimit:10;enable-background:new"/><path d="M295.5 515c7 4 12 9.6 16 16m3.5 12c.5 1 1 2 1 3" style="fill:none;stroke:#fff;stroke-width:10;stroke-linecap:round;stroke-linejoin:round;stroke-miterlimit:10"/><defs><style>.zab-3{fill:none;stroke-linecap:round;stroke-linejoin:round;stroke-width:10px;stroke:#000}</style></defs><path d="M550.4 800.2C662.9 839.6 644 929 776.5 930.6c13.5-.7 27.2-1.4 40.4 2.5-1.7-10.8-9.3-20-19-25.5 13.1-9 30.1-6.3 43.7-.4-14-38.5-70.6-36.5-95.8-66.8-15.5-16.5-13.2-39.1-18.6-59.3-10.7-40-59.7-71.3-98.4-48.6-48.9-68.9-140.1-51.6-157.3-28.1-27.1 37.1 2.7 87.5 78.9 95.8Z" style="fill:#ff0059"/><path d="M592.1 693.6a240.8 240.8 0 0 1 36.9 39.3c34.1-22.9 80.2 4.7 95.2 38.6 36.1-26.3 31.7-93.9-15.4-104.3-23.4-2.5-80.2 26.4-116.7 26.4Z"/><path d="M520.4 791.5q5.4-10.7 10.5-21.3l14.2 28.2Zm-18.7-103c9.8 16 20.1 31.8 30.9 47.1l14.8-47.1Zm161.9-9.4c11 11.9 19.5 26 31.4 37l11.4-48.4Zm48.9 73.3 6.7-23.2 19.6 23.4-14.7 18.4-11.6-18.6z" style="fill:#fff"/><path class="zab-3" d="M767.3 894.2c19.5 17.4 40.7 6.7 55.6 41.9-19.2-7.7-40.6-4.7-61.2-6-137.3-8.9-91.2-107.9-248.8-137.2-28.9-5.4-61.1-40.2-50.2-72.1 21.5-63.1 110.6-18.9 161.8-31.1 32.9-7.8 73-35.9 104-13.3 33.8 24.8 23.7 68.1-3.1 96.1"/><path class="zab-3" d="M580.4 690.8c32.9 15 55 49.4 68.6 81.9m-18.7-39.8c35.5-25.6 86.8 10.4 95.2 48.5 5.1 23.4 6.7 49.5 26.3 66.4 28.2 24.3 76.3 24.4 95.5 60.9-15.7-5.7-34.9-11.3-49.8-1M500.6 689l33.2 50.3 14.6-50"/><path class="zab-3" d="M663.4 680a402.5 402.5 0 0 1 32 40.4l12.2-50.8M519 791.8c4.3-7.9 6.7-14.5 13-23.8l15.3 32m165-50.3a224.9 224.9 0 0 1 7.8-22.2l20.8 23.6"/><path d="M480.1 696.3c-38.8 20.9-21.3 73.2 3.3 90.5 41 28.8 70.2-11 172.3 100.5M531.2 767.2l-18.3 22.5m254.7 102.4c12.9 10.1 30.7 6.8 45.8 10" style="opacity:.6;stroke:#000;fill:none;stroke-linecap:round;stroke-linejoin:round;stroke-width:10px"/><path d="M604 729.2a90.1 90.1 0 0 1 18.8 29.4m6.2 13.6 1.9 3.3m53.8-28.5a47.4 47.4 0 0 1 22.6 28.5m3 12.5.8 2.8M677 884.1a103.4 103.4 0 0 0 37.2 22.7m11.2 3.5 3.6 1m55.1-31.2a49.8 49.8 0 0 1 18.4 8.1" style="stroke:#fff;opacity:.83;fill:none;stroke-linecap:round;stroke-linejoin:round;stroke-width:10px"/><path d="M653.1 772.7c-4.7-16.5.8-36.2 17.1-43.9-13.4-4.3-30.6-1.6-41.9 2.7m-12.9-7.2c-21.5-13-45.2-16.2-70.3-15.2 1.7-5.2.9-14.8 1.3-20.7 28.1-3.2 53.5 10.4 69 35.9Zm-85.2 18.5c-17.6-20.5-30.2-43.2-61.3-31.8 5.1-9.6 21.5-17.9 31.5-22.3" style="opacity:.6"/><style>.st40,.st68{fill:none;stroke-width:10;stroke-linecap:round;stroke-linejoin:round;stroke-miterlimit:10;stroke:#000}.st68{opacity:.6;enable-background:new}</style><g id="x"><linearGradient id="SVGID_00000108293349405905417590000007858031186733274302_" gradientUnits="userSpaceOnUse" x1="513.292" y1="1028.154" x2="683.299" y2="731.142" gradientTransform="matrix(1 0 0 -1 0 1410)"><stop offset="0" style="stop-color:#f03"/><stop offset=".221" style="stop-color:#e7005c"/><stop offset=".715" style="stop-color:#ac00c1"/><stop offset="1" style="stop-color:#80f"/></linearGradient><path style="fill:url(#SVGID_00000108293349405905417590000007858031186733274302_);stroke:#000;stroke-width:10;stroke-linecap:round;stroke-linejoin:round;stroke-miterlimit:10" d="M491 487c-16 7-3 23-8.5 33-4 7-14 9.7-21 5-9-6-9-18-11-28.9-4-21-21-39-22.5-60.8-2-33 38-55.8 64-37 38 27 79 115 116 35.9 12-26 23-58 53-67.9 30-9.7 41 29 36 51.5-2.5 11.5-12 21.5-11 33 1 12 12 22.5 11 35-.5 6-5 12.5-12 12-5 0-9-4-14.5-5-18-.5-18 23-6 31.5 18 13 42 18 56.5 36 31 37-12 83-44 46-3-4.5-6-10-11-10.8-16 .5-4 28-21 30-8 .9-15-4-17-12-5.5-20 2-44-21-55-18.5-9-41 8-38 28.4 3 19 30.5 42 10.5 59-9 6-21.5 0-27-9-4-11-17-9-19.9 2-4.5 17-11 29-30 21.5-34-14-32-64.5-4-83.9 46-31.5 26-104-8-89.7v.2z"/><path class="st40" d="M466 429c77 52 155 104 234 154"/><path class="st40" d="M671.5 395c-49.6 75-104 148-158 219.9"/><path class="st68" d="M462 432c75 57 158 103 235 157"/><path class="st68" d="M675 397.9c-46.5 78-103 148-157 221M434 408c-24 29 0 55 10 83 4 12 2 33 19 36m30-37c35 2 31 58 13 78-6 7-14 13-19.8 19.9-24 24-16 74 21 77M589 563c42 0 21 48 47 63m29-24.1c3 9 19 18 28 19M660.5 365c-51 10.9-46 80-88 102"/><path d="M459 410c8-3 18-3 24 4m11 8.4 2 2M687 398c2 7 1 14-2 20m-4 11c0 .6-1 1-1 2m25 134c10 6.5 17 19 13 31.5m-7 9.5c-.5.5-1 1-1.5 2M567 618c4 4 6 8.5 7 14m-80-18c-2 11 1 22 9 29.9m9.5 7.2 2 .9" style="fill:none;stroke:#fff;stroke-width:10;stroke-linecap:round;stroke-linejoin:round;stroke-miterlimit:10"/></g><style>.st40{fill:none;stroke:#000;stroke-width:10;stroke-linecap:round;stroke-linejoin:round;stroke-miterlimit:10}</style><g id="Galaxy_Crown"><linearGradient id="SVGID_00000129190531900010010780000008211493552199069579_" gradientUnits="userSpaceOnUse" x1="495.731" y1="1031.076" x2="535.731" y2="648.076" gradientTransform="matrix(1 0 0 -1 0 1100)"><stop offset="0" style="stop-color:#ffea00"/><stop offset=".093" style="stop-color:#ffe302"/><stop offset=".23" style="stop-color:#ffcf07"/><stop offset=".395" style="stop-color:#ffae10"/><stop offset=".581" style="stop-color:#ff801d"/><stop offset=".786" style="stop-color:#ff452d"/><stop offset="1" style="stop-color:#ff0040"/></linearGradient><path style="fill:url(#SVGID_00000129190531900010010780000008211493552199069579_)" d="M298 414c149.8-77 330-85 494-62 6-85-26-182-88-242-3 27-13 53.5-28 76-26-7-53-48-58-61.8-7 17-16 51-31 61-11 0-21.5-.8-31 8-24-29.7-45-62-62-97-13 33-24 67-39 99.2-31 20.9-60-15.5-75-32-6 22-9 53-26 69-14-2-29 4-33 19-28-9-52-29-74-46.9-13 73.5 15 143 51 209.5z"/><path d="M577.5 217c-6-10 3-37.5 16-21.9 7 19 4 41 14.5 58 23 36 60 3 46-30.8-6-39 1-29 15-25.5 6-4 3-17-3.5-17.9-30-6-32-43-50-56-29.9 106-39.6 38-56.5 74m-204 61.6c-24.5-13-17-43 9.5-17 19.5 13.5 45 89.9 74 52 17-22.5-25-87.5 6-79.3 0-12 15-15-9.6-12-20.7-5-39-20.6-54-35-11 30-17 64-29 62-15-3-29.8 10-29 25" style="opacity:.6;enable-background:new"/><linearGradient id="SVGID_00000019662561078124328900000009874137589085370762_" gradientUnits="userSpaceOnUse" x1="484.984" y1="845.11" x2="541.002" y2="845.11" gradientTransform="matrix(1 0 0 -1 0 1100)"><stop offset="0" style="stop-color:#00ffb7"/><stop offset="1" style="stop-color:#0048ff"/></linearGradient><path style="fill:url(#SVGID_00000019662561078124328900000009874137589085370762_)" d="M486 258c-4-33 5-61 20-62.8 15-2 30 23.5 34 56.4s-5 61-20 63c-15 1.4-30-23.6-34-56.6z"/><linearGradient id="SVGID_00000159439059309634084680000001970710607329571458_" gradientUnits="userSpaceOnUse" x1="288.032" y1="774.971" x2="338.199" y2="774.971" gradientTransform="matrix(1 0 0 -1 0 1100)"><stop offset="0" style="stop-color:#00ffb7"/><stop offset="1" style="stop-color:#0048ff"/></linearGradient><path style="fill:url(#SVGID_00000159439059309634084680000001970710607329571458_)" d="M294 332.5c-8-22-6-44 5-48 10.9-4 26 11 35 33 8 22 6 44-5 48-12 4.2-27-10.5-35-33z"/><linearGradient id="SVGID_00000124848668680866045530000001350187592146382249_" gradientUnits="userSpaceOnUse" x1="699.174" y1="843.9" x2="746.034" y2="843.9" gradientTransform="matrix(1 0 0 -1 0 1100)"><stop offset="0" style="stop-color:#00ffb7"/><stop offset="1" style="stop-color:#0048ff"/></linearGradient><path style="fill:url(#SVGID_00000124848668680866045530000001350187592146382249_)" d="M701 259.5c-3.5-26 3-48 15-49.8s25 17.5 29 43c4 26-3 48-15 49.8s-25.5-17.5-29-43z"/><path d="M701 234c1 17 21 48 40 44 12-84-40-74-40-44.2v.2zm-211.1 29c12 18.5 37.5 21 49 12 5.1-112.5-68.9-90-49-12zM294 292.9c-13 22 14 58 39 49.6 13-12.7-23.3-76.5-39-49.6z" style="opacity:.3098;fill:#fff;enable-background:new"/><path class="st40" d="M300 414c-40.7-57-62-147-54-214 29 29 63 59 106 61"/><path class="st40" d="M324 253c-3-9 4-18 13-20.7 46-7 49 69 89 70.5 26.5 1 9.8-53 5-69.9-4-14-.9-39 20.5-32"/><path class="st40" d="M446 214c19-39 32-82 49-122 18 45 46 88 79 125"/><path class="st40" d="M559.9 198c4-15 24-16 32-3 12 21 6 49 24 67s43 4 42-20.5c1-17-12.5-33-9-50 2-10 19.7-16 24-5"/><path class="st40" d="M671 196.5c15-29 26-61 32-93 54 65 95 157.5 90 249-163-23-335-15-493 61M356.5 232c9.9-23 19-46 22-70.7 3 1 12.5 24 52 43"/><path class="st40" d="M586.5 187c14.5-19.8 22-44 29.5-67 14 31 17 34 39.5 58.5"/><ellipse transform="rotate(-6.735 513.282 255.02)" cx="513" cy="255" rx="27" ry="60" style="fill:none;stroke:#000;stroke-width:9.9999;stroke-linecap:round;stroke-linejoin:round;stroke-miterlimit:9.9999"/><ellipse transform="rotate(-20.437 313.317 325.182)" cx="313" cy="325" rx="21" ry="43" style="fill:none;stroke:#000;stroke-width:10.0005;stroke-linecap:round;stroke-linejoin:round;stroke-miterlimit:10.0005"/><ellipse transform="rotate(-8.378 722.899 256.192)" cx="723" cy="256" rx="22.5" ry="47" style="fill:none;stroke:#000;stroke-width:9.9997;stroke-linecap:round;stroke-linejoin:round;stroke-miterlimit:9.9997"/><path d="M289 290c-18 22 13 97 44 74m166-167.5c-43 16-7 159 30 113m182-99.7c-28.5 14-15 107 20.5 93m59.5 56.1c-163-26.5-331-7-483 59" style="opacity:.6;enable-background:new;fill:none;stroke:#000;stroke-width:10;stroke-linecap:round;stroke-linejoin:round;stroke-miterlimit:10"/><path d="M712 143.9c7 11 13 23 18 35m8 16.1 3 6m-242-64c4.5 11 9.6 21 15 30.9m10 11.1 3 4.5M260 242c0 14 2 28 6 42m1 14.5c0 2 .5 4 1 6m97-39.5c5.5 6 9.7 13 12 20m8 10 2 2m198-85c2 6 3 12 4 18m1.9 13 .6 2M771 279.8c2 14 3 29 3 43M723 229c5 8 8 16 9 25m1 12v6.5M513 219c5 9 9 19 9.9 29.6M526 263v5m-219 33c5 6 9 12 11.5 19m3.5 12 1 4.5" style="fill:none;stroke:#fff;stroke-width:10;stroke-linecap:round;stroke-linejoin:round;stroke-miterlimit:10"/></g><circle cx="550" cy="550" r="500" style="fill:none;stroke:#000;stroke-width:10;stroke-linecap:round;stroke-linejoin:round;stroke-miterlimit:10"/></svg>