<svg version="1.1" id="Layer_1" xmlns="http://www.w3.org/2000/svg" x="0" y="0" viewBox="0 0 1100 1100" style="enable-background:new 0 0 1100 1100" xml:space="preserve" xmlns:xlink="http://www.w3.org/1999/xlink"><style type="text/css">.st301{fill:#005BEF;stroke:#000000;stroke-width:10;stroke-linecap:round;stroke-linejoin:round;stroke-miterlimit:10;}</style><circle class="st301" cx="550" cy="553.7" r="500"/><radialGradient id="a9" cx="560.657" cy="569.423" r="93.351" gradientTransform="matrix(1 0 0 3.2533 0 -1281.846)" gradientUnits="userSpaceOnUse"><stop offset="0" style="stop-color:#00f2ff"/><stop offset="1" style="stop-color:#370080"/></radialGradient><path style="fill:url(#a9)" d="M533 210.7c-68 59.6-71 20-121 36.5-19.6 10.9-14 30-9.7 39.6 11 23-51 9-69 40.3-10 18 .1 42-7.5 61.8-9 19.6-34 35-37 52.2-43 48-154 7-119 70.4 6 11 33-6 39 9.1 7 17.5-39 29-21 46.7 18 5 21 39.9 57 63.2 14 20 3 51 19 69.1 35.8 38 46-25 41-34.3 4-39 44-11 22 38.7-23 52 11 74 36.5 56.6 24-9 13 39 23 50.9 19.5 37 55 12 67 12 18 1 28 22 29.8 40.3 6.5 63 54 46 59 8 15.5-34 45 49 47 59.9 11 73 69 42 71 17.9 3-54-3-60.1 2-68.3 18.5-31 71 13 90.8-15.5 14-19.7-31-63.5 8-55.4 94 19 19-101 14-120.4-9-35.5 14-106 47-121.7 18-9 17-35.5 7-52.8-9.5-17-25-30.6-31-48.9-13.5-54 22-102-36-133.3-5-3-7-9.5-4-14.4 17-26 1-66-32-71.4-22-3-44 9-66.5 6.3-43.4-4.8-79.5-74.1-126.4-43.1z"/><radialGradient id="b5" cx="553.285" cy="308.14" r="3.115" gradientTransform="matrix(30.3532 0 0 7.6359 -16163.282 -1999.622)" gradientUnits="userSpaceOnUse"><stop offset="0" style="stop-color:#00f2ff"/><stop offset="1" style="stop-color:#370080;stop-opacity:0"/></radialGradient><ellipse style="fill:url(#b5)" cx="635" cy="353" rx="83.5" ry="47.5"/><radialGradient id="c4" cx="685.268" cy="483.405" r="2.167" gradientTransform="matrix(16.0015 0 0 8.3553 -10251.582 -3523.179)" gradientUnits="userSpaceOnUse"><stop offset="0" style="stop-color:#00f2ff"/><stop offset="1" style="stop-color:#370080;stop-opacity:0"/></radialGradient><ellipse style="fill:url(#c4)" cx="715" cy="515.5" rx="30.5" ry="36"/><radialGradient id="d4" cx="417.82" cy="724.757" r="2.666" gradientTransform="matrix(25.7894 0 0 8.8738 -10290.887 -5668.355)" gradientUnits="userSpaceOnUse"><stop offset="0" style="stop-color:#00f2ff"/><stop offset="1" style="stop-color:#370080;stop-opacity:0"/></radialGradient><ellipse style="fill:url(#d4)" cx="488" cy="763" rx="71.5" ry="34.5"/><radialGradient id="e4" cx="525.562" cy="453.385" r="2.733" gradientTransform="matrix(2.3275 0 0 1.7985 -693.718 -358.824)" gradientUnits="userSpaceOnUse"><stop offset="0" style="stop-color:#00ff48"/><stop offset="1" style="stop-color:#7300ff;stop-opacity:0"/></radialGradient><circle style="fill:url(#e4)" cx="529.5" cy="457" r="5.5"/><radialGradient id="f4" cx="492.648" cy="546.297" r="1.723" gradientTransform="matrix(5.2809 0 0 5.0294 -2100.605 -2192.76)" gradientUnits="userSpaceOnUse"><stop offset="0" style="stop-color:#f700ff"/><stop offset="1" style="stop-color:#7300ff;stop-opacity:0"/></radialGradient><circle style="fill:url(#f4)" cx="501" cy="555" r="9"/><radialGradient id="g2" cx="642.36" cy="683.471" r="2.175" gradientTransform="matrix(4.189 0 0 4.4069 -2039.596 -2318.762)" gradientUnits="userSpaceOnUse"><stop offset="0" style="stop-color:#ff006a"/><stop offset="1" style="stop-color:#7300ff;stop-opacity:0"/></radialGradient><circle style="fill:url(#g2)" cx="651" cy="693" r="10"/><radialGradient id="h2" cx="631.016" cy="564.413" r="1.923" gradientTransform="matrix(1.8774 0 0 1.767 -550.874 -430.127)" gradientUnits="userSpaceOnUse"><stop offset="0" style="stop-color:#ff0"/><stop offset="1" style="stop-color:#7300ff;stop-opacity:0"/></radialGradient><circle style="fill:url(#h2)" cx="634" cy="567" r="3.5"/><radialGradient id="i2" cx="586.567" cy="520.158" r=".454" gradientTransform="translate(-1669.963 -1480.415) scale(3.851)" gradientUnits="userSpaceOnUse"><stop offset="0" style="stop-color:#ff2600"/><stop offset="1" style="stop-color:#7300ff;stop-opacity:0"/></radialGradient><circle style="fill:url(#i2)" cx="589" cy="523" r="2"/><radialGradient id="j2" cx="421.591" cy="470.614" r="2.51" gradientTransform="matrix(3.2467 0 0 3.9604 -939.96 -1384.463)" gradientUnits="userSpaceOnUse"><stop offset="0" style="stop-color:#00ffea"/><stop offset="1" style="stop-color:#7300ff;stop-opacity:0"/></radialGradient><circle style="fill:url(#j2)" cx="429" cy="479" r="9"/><style>.st40{fill:none;stroke:#000;stroke-width:10;stroke-linecap:round;stroke-linejoin:round;stroke-miterlimit:10}.st98{opacity:.6;enable-background:new}</style><g id="Outline"><path class="st98" d="M793 537c-1 .7-1 2-.5 3 5 10 11 35 25 30 8-2 21-13 18-22.4-.5-1-2-2-3-1.5-26 12-28-11-39-9.4v.3zm-34 274.5c6 5 26 8 25-3-6-7-20.6-12-21.5-26C750 772 744 803 759 811.5zm-219.3 52s1 .5 1 .8c9 13.5-3 36-18 40-34 6-9-6-6-44 .3-5.3 22.3 2.7 23 3.2zM342 731c5 7-4 22-4 33 8 13 29.6-5 33-14.9 2-12-17-21-28-20.2-1 .1-1 1.1-1 2.1zm31-120.2c2 23-8 47-26 61.9-13 10.9-17.5-30.6-8-27.9 6 4.2 28-18.8 34-34zm-157-59.9c-8 6-17 3-25 1-11 5 4 20 13.5 16 5-4 12-9 12-15.7-.5-.2-1.5-.2-.5-1.3zM337 473c-6-10-3-23 0-34 0-1 0-2-.6-2-9-9-23 11-19.8 20.7C318 463 338 475 337 472.8v.2z"/><path class="st98" d="M326 392c-2 29 24 45 7 44-7 2-14 1-15 11-1 11-24 0-24.5-1.3C285 433 317 404.5 326 392zm103-118c-9.9-4-16-16-18-25-4-6-9.9 1-11 6-7 54 29.5 28 29 19zm293 9c16 21 29.5 12 40 20.7 3 4 1 9.6-1 14-3 9-13 9-20 4.1-14.5-5.8-22-22.2-19-38.8z"/><path class="st40" d="M347 729c53.5 5 15 86 59 102 25 9 37-19.8 55-11.9 23 10.1 19.6 40 24 60.7 9.6 46 63 29.6 58-12.8"/><path class="st40" d="M519 861c89-9 47.5 119 114.5 115 39-6 35-47 25-76.5-3-9 0-18.5 7-24.5 24.5-21 59 15.5 84-2.5 15-11 8-33-2-45-12-15 0-32 10-43"/><path class="st40" d="M790 539c53 69.8-64 71 8 194.5 6 14 11 32 11 48.5 0 32-49 47.5-61 16"/><path class="st40" d="M721 287c2 51 64 31 74 88 6 34-11.5 71 7 103 10 18 27 31.5 34 51 8 19-4 47-27 42"/><path class="st40" d="M407 290.6c-16-8-12-29.9-2-41 17-15 40.5-10 61-6 29.8 1 49-29 75-38 50-17 81 55 133 44 23-5 48-11 69 1 25 14 33 55 10 75"/><path class="st40" d="M428 278c-16 26.5-51 17.5-76 28.5-20 10.5-28 33-23 55 10 47-43 51-39 88m25 4.5c1.5-23 35-26 41-5 7 25-13 47 16 72"/><path class="st40" d="M334 476c-20-34-61-31.5-89-9.6-20 8-43-3-64 4-22 7-28 37-5 43.5 6.5 2 23-2 26-1 15 4 11 25-5 30-21 6-10 29 6 29"/><path class="st40" d="M216 554.5c-15 15-14 41 2 55 37 22 41 31 36 69.7-2 31 46 41 53.5 10 2-10.8-4-22 0-33 13-32 44 20 62-44.5"/><path class="st40" d="M327 647.9c25 29.7-.5 47-7 75-10 32.5 34 65 53 25"/><path d="M729 262.5c9 4 16 13 18 22.5m-193-68c12.5 2 24.5 8 34 16m9 9 3 3m-163 10c-5.5-.9-12 .6-15.5 4M362 319.6c-9 2-14 10.7-16 19M339 449c4 1 6 6 6 9.8M308.5 470c-12-6-16-5-22-4M175 492c1-4 5-7 9-7.5m38 89.5c-4 8 0 16 4 19.9m44 78.6c-1 6 1 15 9 18m76-77.5c-3 14-13 14.5-16 16m4.5 119.5c-5-3-9-9-8-15M397 782c-1 14.5 7 28 14 30m90 53.9c-3 12 2 27 14.5 25M636 957c14-3 17-28 11-38m96-60.1c1-7 0-14-4-19m46-49.1c8-6.5 9-25 3-39M786 582c5-8 3-19-3-26m37-12c2-8.5-.6-18-7-24m-56-169c18 6 22 30 21 35" style="opacity:.7882;fill:none;stroke:#fff;stroke-width:10;stroke-linecap:round;stroke-linejoin:round;stroke-miterlimit:10;enable-background:new"/></g><radialGradient id="a11" cx="288.494" cy="554.914" r="39.332" gradientTransform="matrix(1 0 0 1.0187 0 -10.236)" gradientUnits="userSpaceOnUse"><stop offset="0" style="stop-color:#f01"/><stop offset="1" style="stop-color:#fe0"/></radialGradient><path style="fill:url(#a11);stroke:#000;stroke-width:10;stroke-linecap:round;stroke-linejoin:round;stroke-miterlimit:10" d="M273 536.9c-28-45 82-54 9 29.2-42 48 48 58 20 7.9-3-6-8-11-13-16.2-4-4.8-8.9-9.8-16-20.9z"/><path d="M269.9 512.1c-17 19.7 16 41 9 48.3-25.5 26-7 53 10 47" style="opacity:.6;fill:none;stroke:#000;stroke-width:10;stroke-linecap:round;stroke-linejoin:round;stroke-miterlimit:10"/><path d="M294.5 517.1c1 2 1 5 0 8M292 577c2 4 5 8 5 12" style="opacity:.8902;fill:none;stroke:#fff;stroke-width:8;stroke-linecap:round;stroke-linejoin:round;stroke-miterlimit:10"/><defs><style>.zab-3{fill:none;stroke-linecap:round;stroke-linejoin:round;stroke-width:10px;stroke:#000}</style></defs><path d="M550.4 800.2C662.9 839.6 644 929 776.5 930.6c13.5-.7 27.2-1.4 40.4 2.5-1.7-10.8-9.3-20-19-25.5 13.1-9 30.1-6.3 43.7-.4-14-38.5-70.6-36.5-95.8-66.8-15.5-16.5-13.2-39.1-18.6-59.3-10.7-40-59.7-71.3-98.4-48.6-48.9-68.9-140.1-51.6-157.3-28.1-27.1 37.1 2.7 87.5 78.9 95.8Z" style="fill:#ff0059"/><path d="M592.1 693.6a240.8 240.8 0 0 1 36.9 39.3c34.1-22.9 80.2 4.7 95.2 38.6 36.1-26.3 31.7-93.9-15.4-104.3-23.4-2.5-80.2 26.4-116.7 26.4Z"/><path d="M520.4 791.5q5.4-10.7 10.5-21.3l14.2 28.2Zm-18.7-103c9.8 16 20.1 31.8 30.9 47.1l14.8-47.1Zm161.9-9.4c11 11.9 19.5 26 31.4 37l11.4-48.4Zm48.9 73.3 6.7-23.2 19.6 23.4-14.7 18.4-11.6-18.6z" style="fill:#fff"/><path class="zab-3" d="M767.3 894.2c19.5 17.4 40.7 6.7 55.6 41.9-19.2-7.7-40.6-4.7-61.2-6-137.3-8.9-91.2-107.9-248.8-137.2-28.9-5.4-61.1-40.2-50.2-72.1 21.5-63.1 110.6-18.9 161.8-31.1 32.9-7.8 73-35.9 104-13.3 33.8 24.8 23.7 68.1-3.1 96.1"/><path class="zab-3" d="M580.4 690.8c32.9 15 55 49.4 68.6 81.9m-18.7-39.8c35.5-25.6 86.8 10.4 95.2 48.5 5.1 23.4 6.7 49.5 26.3 66.4 28.2 24.3 76.3 24.4 95.5 60.9-15.7-5.7-34.9-11.3-49.8-1M500.6 689l33.2 50.3 14.6-50"/><path class="zab-3" d="M663.4 680a402.5 402.5 0 0 1 32 40.4l12.2-50.8M519 791.8c4.3-7.9 6.7-14.5 13-23.8l15.3 32m165-50.3a224.9 224.9 0 0 1 7.8-22.2l20.8 23.6"/><path d="M480.1 696.3c-38.8 20.9-21.3 73.2 3.3 90.5 41 28.8 70.2-11 172.3 100.5M531.2 767.2l-18.3 22.5m254.7 102.4c12.9 10.1 30.7 6.8 45.8 10" style="opacity:.6;stroke:#000;fill:none;stroke-linecap:round;stroke-linejoin:round;stroke-width:10px"/><path d="M604 729.2a90.1 90.1 0 0 1 18.8 29.4m6.2 13.6 1.9 3.3m53.8-28.5a47.4 47.4 0 0 1 22.6 28.5m3 12.5.8 2.8M677 884.1a103.4 103.4 0 0 0 37.2 22.7m11.2 3.5 3.6 1m55.1-31.2a49.8 49.8 0 0 1 18.4 8.1" style="stroke:#fff;opacity:.83;fill:none;stroke-linecap:round;stroke-linejoin:round;stroke-width:10px"/><path d="M653.1 772.7c-4.7-16.5.8-36.2 17.1-43.9-13.4-4.3-30.6-1.6-41.9 2.7m-12.9-7.2c-21.5-13-45.2-16.2-70.3-15.2 1.7-5.2.9-14.8 1.3-20.7 28.1-3.2 53.5 10.4 69 35.9Zm-85.2 18.5c-17.6-20.5-30.2-43.2-61.3-31.8 5.1-9.6 21.5-17.9 31.5-22.3" style="opacity:.6"/><defs><linearGradient id="zd" x1="447.05" y1="539.8" x2="543.4" y2="539.8" gradientUnits="userSpaceOnUse"><stop offset="0" stop-color="#f70275"/><stop offset="1" stop-color="#f78502"/></linearGradient><linearGradient id="zd-2" x1="562.73" y1="532.04" x2="661.07" y2="532.04" xlink:href="#zd"/><linearGradient id="zd-3" x1="672.66" y1="514.36" x2="758.62" y2="514.36" xlink:href="#zd"/><style>.zd-2{stroke:#000;stroke-linecap:round;stroke-linejoin:round;stroke-width:10px;fill:none;opacity:.6}</style></defs><path d="M485.3 459.7c-21.4 24.2-2.4 57.2 2.9 83.9 7.8 39-16.2 74.3 7.2 80.2 20.6 5.1 24.7-21.5 20.3-36.7-7.7-27.4-18.9-56.8-11.1-85.2 12.3-45.4-10.8-51.8-19.3-42.2Zm114.9-6.9c-40.9 11.8 15.4 82.4 3.2 120-15.2 46.8 14.5 46.2 19.9 42.4 29-20.5-13.8-70.9-9.4-103.7 2-15.1 13.3-66.6-13.7-58.7Zm98.4-16.7c-24.6 30.5 15.8 71.5 10.8 106.1-8.5 58.5 28.4 37.2 25.8 19.6-3.3-22.7-26.9-42-21.6-65.5 17.1-76.3-9.1-67.4-15-60.2Z" style="stroke-linecap:round;stroke-linejoin:round;stroke-width:10px;stroke:#000;fill:#fff"/><path class="zd-2" d="M471.3 435.8c-18.3 9.7-26.7 30.5-30.5 49.8-5.8 30.1 10.5 56.4 14.9 86 3.2 21.8-11.8 46.6 5.5 68.1 13.3 16.7 39.4 19.4 55.6 5.3"/><path class="zd-2" d="M483.2 456.2c-27.9 24.3-4.5 62 .4 91.2 3.4 20-3.8 39.6-4.3 59.4-.4 15 17.4 30.2 28.9 16.6m73-196.1c-58.1 40.5 6.2 106.8-8.4 166.1-9.4 38.5 24.5 71.9 60.5 49.8"/><path class="zd-2" d="M588.1 454.8c-21.8 22.8 4.6 64.9 9.7 92.1 3.5 18.5-4.4 35.8-3 54 1.1 14.8 20.2 27.6 30.3 13.6M689 414.9c-45.4 30.1-2.8 83-4.3 123.6-.6 17.1-6.7 34.2-3.3 51.5 3.6 19 24 36.8 42.8 26.2"/><path class="zd-2" d="M695.7 433c-21.9 21.6-5.4 54.6 3.3 78.6 7.3 20.2 3.6 35.1 4.1 54.8.2 11.2 13.5 26.1 22.5 13.8"/><path d="M694 450c-2.7 13.4 4.9 31.7 20.6 30.3-3.9 18-4.8 37.4 7 52.8.7 1.2 1.5 2.6.9 3.7-6.4 6.9-13.7-1.2-14.5-8.5-8.4-26.8-21.9-48.2-14-78.3Zm-105.8 17.7c1.6 15.1 6.1 37 25.1 28-4.3 19.6 2 39.4 6.4 58.5 2.7 7.9-7.6 9.6-12 4.7-1.7-28.1-20.6-52.8-23-80.8Zm-107.6 5c-5.2 13.7 3 35.5 19.1 36.2-4.7 18.5 5.9 36.5 6.6 54.9 1.1 6.6-10.2 8.7-13.8 4.6-1.2-27.9-26.9-70-11.9-95.7Z"/><path d="M481.2 433.4C451.7 445.9 444 484.5 448 513c5.3 37.2 18.6 52.9 12.2 93.5-11.1 69.5 118.7 61.6 73.7-65.5-16.5-46.6 4.1-69.8-2.8-89.2s-28.7-27.4-49.9-18.4Z" style="fill:url(#zd);opacity:.73"/><path d="M593.4 424c-58.2 33.4-16.5 82.4-12.4 133.4 2.2 28.7-17.7 74 20.2 85.9s71.3-22.6 56.3-56.9c-39.8-90.8-17.1-63.5-17.1-124 0-28.7-16.4-56-47-38.4Z" style="fill:url(#zd-2);opacity:.73"/><path d="M694.8 416.1c-42.8 28.8-11.4 71-5.6 109.2 3.1 20.4-6.3 41-3.6 61.6 4.7 37.7 53.5 39.6 67.2 7.6 23.6-55.4-32.8-66.6-20.7-120.5 16.2-72.2-26.4-65.2-37.3-57.9Z" style="fill:url(#zd-3);opacity:.73"/><path d="M481.2 433.4C451.7 445.9 444 484.5 448 513c5.3 37.2 18.6 52.9 12.2 93.5-11.1 69.5 118.7 61.6 73.7-65.5-16.5-46.6 4.1-69.8-2.8-89.2s-28.7-27.4-49.9-18.4Zm112.2-9.4c-58.2 33.4-16.5 82.4-12.4 133.4 2.2 28.7-17.7 74 20.2 85.9s71.3-22.6 56.3-56.9c-39.8-90.8-17.1-63.5-17.1-124 0-28.7-16.4-56-47-38.4Zm101.4-7.9c-42.8 28.8-11.4 71-5.6 109.2 3.1 20.4-6.3 41-3.6 61.6 4.7 37.7 53.5 39.6 67.2 7.6 23.6-55.4-32.8-66.6-20.7-120.5 16.2-72.2-26.4-65.2-37.3-57.9Z" style="fill:none;stroke-linecap:round;stroke-linejoin:round;stroke-width:10px;stroke:#000"/><path d="M716.1 426.7a26.8 26.8 0 0 1 3.8 19.9m-2.2 12.5-.4 2.2m26.9 106.1c.8 11.6-3 25.7-14.2 31.3m-12.1 2.8-2.5-.4m-99.9-166.4a34 34 0 0 1 7.4 21.9m-.3 14.4-.4 3.6m17.9 107.7a31.1 31.1 0 0 1-.5 30m-7.3 10.4-2.9 1.9M506.6 444.8c8.7 4.6 11.2 15.8 8.8 24.9m-2.1 13.9-1 4.2m13.6 88.6a51.2 51.2 0 0 1-4.5 36.4m-6 9.9a11.8 11.8 0 0 1-4.4 3.9" style="stroke:#fff;stroke-linecap:round;stroke-linejoin:round;stroke-width:10px;fill:none"/><linearGradient id="a24" gradientUnits="userSpaceOnUse" x1="573.737" y1="372.301" x2="573.737" y2="180.3"><stop offset="0" style="stop-color:#00ff9d"/><stop offset=".048" style="stop-color:#0af1a2"/><stop offset=".405" style="stop-color:#538bca"/><stop offset=".694" style="stop-color:#8940e6"/><stop offset=".898" style="stop-color:#aa12f8"/><stop offset="1" style="stop-color:#b700ff"/></linearGradient><path style="fill:url(#a24)" d="M755 324.4c23-19.7 15-61-10-75-21-11.5-46-6-69-1-52.5 10.5-83-60.6-133-44-26 9-45 39-75 38-20.5-4-44-9-61 6-11 11-11 35.5 4.5 43.6 0 0-14 4-31 8.3-3 9.7-.1 20 7 26.6 7 5.8 17 7 24 12.6 12 8 17 25.5 31 30.6 21 8 38-13 44-31.2 3-9 6-19.6 14-25.9 10.9-9 30-4 35.5 8.8 3.5 8 2 19 9 25.4 5.8 5 15 4 22 .4 19.9-12 9.5-32 7-52.5-2.5-19 10.6-25.5 28-16.2 21 11 27 32 32 52.5 4 17.5 28 26 44 18.4 14-7 25-27 42-22.7 15 3 21 28 38 25 7-1 12-9.5 9.5-18C748 321 755 324 755 324.4z"/><path d="M722 283.9c-4 28 26 37 45 50.2 2.5 8.5-2 17-9.5 18-17 3-23-22-38-25-18-4-28 16-42 22.7-16 8-39.7-.9-44-18.4-5-20.7-11-41-32-52.5-17-9-30-2-28 16.2 3 20 13 40.6-7 52.5-7 4-16 5-22-.4-7-6-5-17-9-25.4-5-13-25-18-35.5-8.8-8 6-10.5 16.5-14 25.9-6 18-23 39-44 31.2-14-5-19-22-31-30.6-7.5-5-17-7-24-12.6-7-6-10.5-17-7-26.6 17-5 41-6.5 49.6-24" style="fill:none;stroke:#000;stroke-width:10;stroke-linecap:round;stroke-linejoin:round;stroke-miterlimit:10;stroke-dasharray:0,0,0,0,0,0"/><path d="M408 289.6c-16-8-12-29.9-2-41.2 17-15 40.5-10.1 61-6 29.8 1 49-29 75-38 50-17 80.5 54.5 133 44 23-5 48-10.5 69 1 25 14 33 55 10 75" style="fill:none;stroke:#000;stroke-width:10;stroke-linecap:round;stroke-linejoin:round;stroke-miterlimit:10"/><path d="M723 283.6c5 15 17 28 33 33M429.7 274c-5 9-18 12-28 9M373 303.1c-3 25 18 31 36 41.9 9 7 14 18 24 24.8 28 19 52-5.8 60-33.2 3.5-12 14-27.5 28-21.5 17 11 4 42 35 40.1 13-2 25-13 28-25.5 2-10-3-20-4.5-30.7-2-19.7 12-22 26-13.4 19 12 16.5 39 27 56.9 17 25 48 17 66.5-1.4 25-24 31.5 7 48 14.1 9 4 21-2 24-11" style="opacity:.6;fill:none;stroke:#000;stroke-width:10;stroke-linecap:round;stroke-linejoin:round;stroke-miterlimit:10"/><path d="M736 260.5c5 2 9.8 6 13 11m5 11.2c.5 2 1 3.5 1 5m-194-71.8c9-1 17 4 25 9m10 8.1 3.8 2M412 266.1c.6-6 6-11 12-14m13-2.1h2.8m34.2 83.4c-2 7-6 13-12 17m17.8-30.7 1.2-2.7m86 5.2c1 4 .1 9-3 11.5m1-22.7-1-2m92.5 27.7c6 2 12 1 17-2.5" style="opacity:.651;stroke:#fff;fill:none;stroke-width:10;stroke-linecap:round;stroke-linejoin:round;stroke-miterlimit:10"/><circle cx="550" cy="550" r="500" style="fill:none;stroke:#000;stroke-width:10;stroke-linecap:round;stroke-linejoin:round;stroke-miterlimit:10"/></svg>