<svg version="1.1" id="Layer_1" xmlns="http://www.w3.org/2000/svg" x="0" y="0" viewBox="0 0 1100 1100" style="enable-background:new 0 0 1100 1100" xml:space="preserve" xmlns:xlink="http://www.w3.org/1999/xlink"><style type="text/css">.st302{fill:#6A10EB;stroke:#000000;stroke-width:10;stroke-linecap:round;stroke-linejoin:round;stroke-miterlimit:10;}</style><circle class="st302" cx="550" cy="553.7" r="500"/><style>.st71{fill:none;stroke:#ff002b;stroke-width:10;stroke-linecap:round;stroke-linejoin:round;stroke-miterlimit:10}</style><g id="X"><path d="M533 210.7c-68 59.6-71 20-121 36.5-19.6 10.9-14 30-9.7 39.6 11 23-51 9-69 40.3-10 18 .1 42-7.5 61.8-9 19.6-34 35-37 52.2-43 48-154 7-119 70.4 6 11 33-6 39 9.1 7 17.5-39 29-21 46.7 18 5 21 39.9 57 63.2 14 20 3 51 19 69.1 35.8 38 46-25 41-34.3 4-39 44-11 22 38.7-23 52 11 74 36.5 56.6 24-9 13 39 23 50.9 19.5 37 55 12 67 12 18 1 28 22 29.8 40.3 6.5 63 54 46 59 8 15.5-34 45 49 47 59.9 11 73 69 42 71 17.9 3-54-3-60.1 2-68.3 18.5-31 71 13 90.8-15.5 14-19.7-31-63.5 8-55.4 94 19 19-101 14-120.4-9-35.5 14-106 47-121.7 18-9 17-35.5 7-52.8-9.5-17-25-30.6-31-48.9-13.5-54 22-102-36-133.3-5-3-7-9.5-4-14.4 17-26 1-66-32-71.4-22-3-44 9-66.5 6.3-43.4-4.8-79.5-74.1-126.4-43.1z" style="fill:#007bff"/><path class="st71" d="M363 306.9C477 487 608 667 806 759"/><path class="st71" d="M795 413.5C715 519.6 458 757 384 799"/></g><style>.st40{fill:none;stroke:#000;stroke-width:10;stroke-linecap:round;stroke-linejoin:round;stroke-miterlimit:10}.st98{opacity:.6;enable-background:new}</style><g id="Outline"><path class="st98" d="M793 537c-1 .7-1 2-.5 3 5 10 11 35 25 30 8-2 21-13 18-22.4-.5-1-2-2-3-1.5-26 12-28-11-39-9.4v.3zm-34 274.5c6 5 26 8 25-3-6-7-20.6-12-21.5-26C750 772 744 803 759 811.5zm-219.3 52s1 .5 1 .8c9 13.5-3 36-18 40-34 6-9-6-6-44 .3-5.3 22.3 2.7 23 3.2zM342 731c5 7-4 22-4 33 8 13 29.6-5 33-14.9 2-12-17-21-28-20.2-1 .1-1 1.1-1 2.1zm31-120.2c2 23-8 47-26 61.9-13 10.9-17.5-30.6-8-27.9 6 4.2 28-18.8 34-34zm-157-59.9c-8 6-17 3-25 1-11 5 4 20 13.5 16 5-4 12-9 12-15.7-.5-.2-1.5-.2-.5-1.3zM337 473c-6-10-3-23 0-34 0-1 0-2-.6-2-9-9-23 11-19.8 20.7C318 463 338 475 337 472.8v.2z"/><path class="st98" d="M326 392c-2 29 24 45 7 44-7 2-14 1-15 11-1 11-24 0-24.5-1.3C285 433 317 404.5 326 392zm103-118c-9.9-4-16-16-18-25-4-6-9.9 1-11 6-7 54 29.5 28 29 19zm293 9c16 21 29.5 12 40 20.7 3 4 1 9.6-1 14-3 9-13 9-20 4.1-14.5-5.8-22-22.2-19-38.8z"/><path class="st40" d="M347 729c53.5 5 15 86 59 102 25 9 37-19.8 55-11.9 23 10.1 19.6 40 24 60.7 9.6 46 63 29.6 58-12.8"/><path class="st40" d="M519 861c89-9 47.5 119 114.5 115 39-6 35-47 25-76.5-3-9 0-18.5 7-24.5 24.5-21 59 15.5 84-2.5 15-11 8-33-2-45-12-15 0-32 10-43"/><path class="st40" d="M790 539c53 69.8-64 71 8 194.5 6 14 11 32 11 48.5 0 32-49 47.5-61 16"/><path class="st40" d="M721 287c2 51 64 31 74 88 6 34-11.5 71 7 103 10 18 27 31.5 34 51 8 19-4 47-27 42"/><path class="st40" d="M407 290.6c-16-8-12-29.9-2-41 17-15 40.5-10 61-6 29.8 1 49-29 75-38 50-17 81 55 133 44 23-5 48-11 69 1 25 14 33 55 10 75"/><path class="st40" d="M428 278c-16 26.5-51 17.5-76 28.5-20 10.5-28 33-23 55 10 47-43 51-39 88m25 4.5c1.5-23 35-26 41-5 7 25-13 47 16 72"/><path class="st40" d="M334 476c-20-34-61-31.5-89-9.6-20 8-43-3-64 4-22 7-28 37-5 43.5 6.5 2 23-2 26-1 15 4 11 25-5 30-21 6-10 29 6 29"/><path class="st40" d="M216 554.5c-15 15-14 41 2 55 37 22 41 31 36 69.7-2 31 46 41 53.5 10 2-10.8-4-22 0-33 13-32 44 20 62-44.5"/><path class="st40" d="M327 647.9c25 29.7-.5 47-7 75-10 32.5 34 65 53 25"/><path d="M729 262.5c9 4 16 13 18 22.5m-193-68c12.5 2 24.5 8 34 16m9 9 3 3m-163 10c-5.5-.9-12 .6-15.5 4M362 319.6c-9 2-14 10.7-16 19M339 449c4 1 6 6 6 9.8M308.5 470c-12-6-16-5-22-4M175 492c1-4 5-7 9-7.5m38 89.5c-4 8 0 16 4 19.9m44 78.6c-1 6 1 15 9 18m76-77.5c-3 14-13 14.5-16 16m4.5 119.5c-5-3-9-9-8-15M397 782c-1 14.5 7 28 14 30m90 53.9c-3 12 2 27 14.5 25M636 957c14-3 17-28 11-38m96-60.1c1-7 0-14-4-19m46-49.1c8-6.5 9-25 3-39M786 582c5-8 3-19-3-26m37-12c2-8.5-.6-18-7-24m-56-169c18 6 22 30 21 35" style="opacity:.7882;fill:none;stroke:#fff;stroke-width:10;stroke-linecap:round;stroke-linejoin:round;stroke-miterlimit:10;enable-background:new"/></g><path d="M258 512.9c21 24 41 50 59 77m6-75.4-62 77" style="fill:none;stroke:#000;stroke-width:10;stroke-linecap:round;stroke-linejoin:round;stroke-miterlimit:10"/><path d="m254 516.1 62 77m12-76.1c-23 29-42.5 52-63.5 79" style="opacity:.6;enable-background:new;fill:none;stroke:#000;stroke-width:10;stroke-linecap:round;stroke-linejoin:round;stroke-miterlimit:10"/><style>.st40{fill:none;stroke-width:10;stroke-linecap:round;stroke-linejoin:round;stroke-miterlimit:10;stroke:#000}.st152{fill:#ae0f45}</style><g id="Vamp"><path d="M429 737.5c57 100 248 114 303 5-22.3-58.5-275-50.5-303-5z" style="fill:#fe1767"/><path class="st152" d="M637 761.5c-120-80.6-205 29-203-19-10-23 154-62.9 203 19z"/><path class="st152" d="M647 768c5-34 49-35 50.9-46-22-15-59.5 0-75 19.8l24 25.8v.4z"/><path d="M575 734c14 4.5 26 13 36 24m8 10.5c1 1 2 2.5 3 4m35-31c5-1 10.5-2 15 0m31 3c3 0 5.5 1 8 3" style="fill:none;stroke:#fff;stroke-width:10;stroke-linecap:round;stroke-linejoin:round;stroke-miterlimit:10"/><path d="M424 720.7c2 37.5 43-33 182 8 35 26 59-19.8 114 5.9 41 19 50-119.8-20.7-73.1-44 22-97 39.6-147 39C508 695 427 639.7 424 720.7z"/><path d="M489.6 686c7 18 14 37 21 55 1.4 4 52.4-57.5-21-55zm214.4-7c-4.5 21-14 81-20 55-4-18-15-38-28-50.6-4-2.4 73.5-48.4 48-4.4z" style="fill:#fff"/><path d="m507 692.7.7-3c-9 12 9 41 3 52-5-5-18-44-21-58.7v2l17.3 7.7zM676 674c6 41 18 53 13.5 59.6-12-12-33-49.8-34-53.1l-1 1.1L676 674z" style="fill:#b3b3b3"/><path class="st40" d="M703 659.7c-65 28-131 58-200 28-99-43-102 58.5-29.7 98.5 49.7 27.5 109.6 43 166 29.7 42-10 124-71 111-147.5-4.3-24.9-27.3-17.4-47.3-8.7z"/><path class="st40" d="M484 684c14 23 23 49 28 76 4-21.5 11-42 21.5-62M653 684c19 17 28 42 37 66 7-30 10.7-67 24-92m-186 57c44-6 90 16 116.5 51.5"/><path class="st40" d="M621 739.9c18-9.5 38-12 58-11m16-.4c13 0 25 6 36 13M499 718c-24-1.5-48 4.5-68 17"/></g><style>.st114,.st40{fill:none;stroke:#000;stroke-width:10;stroke-linecap:round;stroke-linejoin:round;stroke-miterlimit:10}.st114{opacity:.6}</style><g id="suspicious_eye"><path d="M719 485.7c-75 34-164 43-245 39-79.5-4-88 69-8 79.6 62 8 254-20 290-73.1 22-30.2-4-60.2-37-45.5z" style="fill:#fff"/><path d="M574 545.3c1 17.5 0 35-5 52.2l56-9.9-16.5-30.5-34.5-11.8z"/><linearGradient id="SVGID_00000126282863442437977090000011937741723992343478_" gradientUnits="userSpaceOnUse" x1="587.88" y1="506.723" x2="601.628" y2="614.919"><stop offset="0" style="stop-color:#b0f"/><stop offset="1" style="stop-color:#f04"/></linearGradient><path style="fill:url(#SVGID_00000126282863442437977090000011937741723992343478_)" d="M662 508.1c13 16 19 46 13 65.8.5 0-49 15-49 14.6-27-20.5-5.5-57.5-26-66.7-46-4-15 52-33 76.7 0 0-43 3-43 2.9-13-21-19.5-53-3-73.9 48-3.5 94-8.5 141-19.4z"/><path class="st40" d="M719 485.7c-75 34-164 43-245 39-79.5-4-88 69-8 79.6 62 8 254-20 290-73.1 22-30.2-4-60.2-37-45.5z"/><path class="st40" d="M519.8 527.9c-13 23-7 52 4 75M661 508.4c17.5 17.5 19 42 14 66m-111 25.8c23-20.9-12-81 34-78.9 26 4 0 48 28 66"/><path class="st40" d="M575 533.1c3 15 18 26 34 24m121-96.7c23-5 37 2 48 21m-357 27c-14 4-25 16-29 29.9"/><path class="st114" d="M419.6 506.5c-15.5 2-28 15-29 30.8M729 456.8c19-9 41 3 50 20.9m-369 77.1c-22 112 366 41 355-46"/><path class="st114" d="M417.5 545.8c28-16 63-17.5 94-12.8-5 22-5 46 5 66M668 510.9c29.8-5 57-29 88-20.6"/><path d="M655 521.9c5 8 8 17 8 26m-1 12.1v3" style="opacity:.7804;stroke:#fff;fill:none;stroke-width:10;stroke-linecap:round;stroke-linejoin:round;stroke-miterlimit:10"/></g><style>.st40{fill:none;stroke-width:10;stroke-linecap:round;stroke-linejoin:round;stroke-miterlimit:10;stroke:#000}</style><g id="Gold_Headband"><linearGradient id="SVGID_00000134236501401383457500000003505018008553449115_" gradientUnits="userSpaceOnUse" x1="264" y1="774.579" x2="818" y2="774.579" gradientTransform="matrix(1 0 0 -1 0 1100)"><stop offset="0" style="stop-color:#fffb0a"/><stop offset="1" style="stop-color:#ff1f0a"/></linearGradient><path style="fill:url(#SVGID_00000134236501401383457500000003505018008553449115_)" d="M399 299.7c-73-.5-73 32-77 92.9 61-36 73-9.8 132.5-20.7 32-9 57-44 89.5-39 102 15.8 37 32 125 2 35-12 82 36 114 9.6-56.5-31-5.5-15-16-56-9.8-52-39.6-25-68-7-17 7-37.5.6-55 7-79.7 29-68-8-123 9.9-41.1 13.6-88 40.6-122 1.3z"/><path class="st40" d="M397 300.8c51 35 81 8 131-5 32-8 67 13 97 .7 36-19.6 30-4 63-12.7 22.5-6 33-25 59.6-24M323 394.5c48-44 82-9.6 130.6-23 40-11 59-52 108-35 54 19 45 21 99-1.4 38-16 83 36 120 9.9"/><path class="st40" d="M747 258c26.5 12 27 50 5 68 11 3 20.5 9.5 28 18m-383-44c-29.7-2-66 10.8-72.5 43-3 17 5 37-6 52"/><path d="M321 402.5c10.6-9 22-18 35-22 19.9-6 41 0 62 1 19.9 1 40-2 58-11.4 22-12 41-33 66-33 12 0 22 5 33 9.6 16 7 34 13 51 9.5 16-3 29.6-15 46-17.4 18-3 36 6 54 12.6s38 11 53.5 0" style="opacity:.6;fill:none;stroke:#000;stroke-width:10;stroke-linecap:round;stroke-linejoin:round;stroke-miterlimit:10;enable-background:new"/><path d="M745 276c7 5 9 16 5 23m-6 11.6-2 5.4m-358 0c-15 .8-29 9-38 20.6m-7 13.4-1 7m297-26c-7 5.5-16 8-24.5 7.5m-12.5-4.6c-2-.5-4-1-6-2M420 362c13 1 27-2 39-9" style="fill:none;stroke:#fff;stroke-width:10;stroke-linecap:round;stroke-linejoin:round;stroke-miterlimit:10"/></g><circle cx="550" cy="550" r="500" style="fill:none;stroke:#000;stroke-width:10;stroke-linecap:round;stroke-linejoin:round;stroke-miterlimit:10"/></svg>