<svg version="1.1" id="Layer_1" xmlns="http://www.w3.org/2000/svg" x="0" y="0" viewBox="0 0 1100 1100" style="enable-background:new 0 0 1100 1100" xml:space="preserve" xmlns:xlink="http://www.w3.org/1999/xlink"><style type="text/css">.st304{fill:#FF0A68;stroke:#000000;stroke-width:10;stroke-linecap:round;stroke-linejoin:round;stroke-miterlimit:10;}</style><circle class="st304" cx="550" cy="553.7" r="500"/><radialGradient id="a4" cx="564.461" cy="535.948" r="438.66" gradientTransform="matrix(1 0 0 -1 0 1100)" gradientUnits="userSpaceOnUse"><stop offset="0" style="stop-color:#7303fc"/><stop offset="1" style="stop-color:#03fcb1"/></radialGradient><path style="fill:url(#a4)" d="M532 209c-68 59.6-71 20-121 36.5-19.6 10.9-14 30-9.7 39.6 11 23-51 9-69 40-10 18 0 42-7.5 61.8-9 19.6-34 35-37 52-43 48-154 7-119 70 6 11 33-6 39 9 7 17.5-39 29-21 46.7 18 5 21 39.9 57 63 14 20 3 51 19 69 36 38 46-25 41-34 4-39 44-11 22 38.7-23 52 11 74 36.5 57 24-9 13 39 23 50.9 19.5 37 55 12 67 12 18 1 28 22 29.8 40.3 6 63 54 46 59 8 15.5-34 45 49 47 59.9 12 73 69.5 42 71 17.9 3-54-3-60 2-68.3 19-31 71 13 90.8-15.5 14-19.8-31-63 8-55 94 19.9 19-101 14-120-9-35.5 14-106 47-121.7 18-9 17-35.5 7-53-9.6-17-25-30.6-31-48.9-13.5-54 21-100.6-36-133-5-3-7-9.5-4-14.4 17-26 1-66-32-71-22-3-44 9-66.5 6C615 247 578.5 178 532 209z"/><style>.st40{fill:none;stroke:#000;stroke-width:10;stroke-linecap:round;stroke-linejoin:round;stroke-miterlimit:10}.st98{opacity:.6;enable-background:new}</style><g id="Outline"><path class="st98" d="M793 537c-1 .7-1 2-.5 3 5 10 11 35 25 30 8-2 21-13 18-22.4-.5-1-2-2-3-1.5-26 12-28-11-39-9.4v.3zm-34 274.5c6 5 26 8 25-3-6-7-20.6-12-21.5-26C750 772 744 803 759 811.5zm-219.3 52s1 .5 1 .8c9 13.5-3 36-18 40-34 6-9-6-6-44 .3-5.3 22.3 2.7 23 3.2zM342 731c5 7-4 22-4 33 8 13 29.6-5 33-14.9 2-12-17-21-28-20.2-1 .1-1 1.1-1 2.1zm31-120.2c2 23-8 47-26 61.9-13 10.9-17.5-30.6-8-27.9 6 4.2 28-18.8 34-34zm-157-59.9c-8 6-17 3-25 1-11 5 4 20 13.5 16 5-4 12-9 12-15.7-.5-.2-1.5-.2-.5-1.3zM337 473c-6-10-3-23 0-34 0-1 0-2-.6-2-9-9-23 11-19.8 20.7C318 463 338 475 337 472.8v.2z"/><path class="st98" d="M326 392c-2 29 24 45 7 44-7 2-14 1-15 11-1 11-24 0-24.5-1.3C285 433 317 404.5 326 392zm103-118c-9.9-4-16-16-18-25-4-6-9.9 1-11 6-7 54 29.5 28 29 19zm293 9c16 21 29.5 12 40 20.7 3 4 1 9.6-1 14-3 9-13 9-20 4.1-14.5-5.8-22-22.2-19-38.8z"/><path class="st40" d="M347 729c53.5 5 15 86 59 102 25 9 37-19.8 55-11.9 23 10.1 19.6 40 24 60.7 9.6 46 63 29.6 58-12.8"/><path class="st40" d="M519 861c89-9 47.5 119 114.5 115 39-6 35-47 25-76.5-3-9 0-18.5 7-24.5 24.5-21 59 15.5 84-2.5 15-11 8-33-2-45-12-15 0-32 10-43"/><path class="st40" d="M790 539c53 69.8-64 71 8 194.5 6 14 11 32 11 48.5 0 32-49 47.5-61 16"/><path class="st40" d="M721 287c2 51 64 31 74 88 6 34-11.5 71 7 103 10 18 27 31.5 34 51 8 19-4 47-27 42"/><path class="st40" d="M407 290.6c-16-8-12-29.9-2-41 17-15 40.5-10 61-6 29.8 1 49-29 75-38 50-17 81 55 133 44 23-5 48-11 69 1 25 14 33 55 10 75"/><path class="st40" d="M428 278c-16 26.5-51 17.5-76 28.5-20 10.5-28 33-23 55 10 47-43 51-39 88m25 4.5c1.5-23 35-26 41-5 7 25-13 47 16 72"/><path class="st40" d="M334 476c-20-34-61-31.5-89-9.6-20 8-43-3-64 4-22 7-28 37-5 43.5 6.5 2 23-2 26-1 15 4 11 25-5 30-21 6-10 29 6 29"/><path class="st40" d="M216 554.5c-15 15-14 41 2 55 37 22 41 31 36 69.7-2 31 46 41 53.5 10 2-10.8-4-22 0-33 13-32 44 20 62-44.5"/><path class="st40" d="M327 647.9c25 29.7-.5 47-7 75-10 32.5 34 65 53 25"/><path d="M729 262.5c9 4 16 13 18 22.5m-193-68c12.5 2 24.5 8 34 16m9 9 3 3m-163 10c-5.5-.9-12 .6-15.5 4M362 319.6c-9 2-14 10.7-16 19M339 449c4 1 6 6 6 9.8M308.5 470c-12-6-16-5-22-4M175 492c1-4 5-7 9-7.5m38 89.5c-4 8 0 16 4 19.9m44 78.6c-1 6 1 15 9 18m76-77.5c-3 14-13 14.5-16 16m4.5 119.5c-5-3-9-9-8-15M397 782c-1 14.5 7 28 14 30m90 53.9c-3 12 2 27 14.5 25M636 957c14-3 17-28 11-38m96-60.1c1-7 0-14-4-19m46-49.1c8-6.5 9-25 3-39M786 582c5-8 3-19-3-26m37-12c2-8.5-.6-18-7-24m-56-169c18 6 22 30 21 35" style="opacity:.7882;fill:none;stroke:#fff;stroke-width:10;stroke-linecap:round;stroke-linejoin:round;stroke-miterlimit:10;enable-background:new"/></g><linearGradient id="a10" gradientUnits="userSpaceOnUse" x1="242.469" y1="-542.713" x2="318.469" y2="-492.713" gradientTransform="translate(0 1066)"><stop offset="0" style="stop-color:#0f4"/><stop offset=".298" style="stop-color:#00e97f"/><stop offset=".781" style="stop-color:#00c8db"/><stop offset="1" style="stop-color:#0bf"/></linearGradient><path style="fill:url(#a10)" d="M279 499.3c-8 19.6-17 39-25 59 19 9.7 33 28 41 48 1-26 10.9-46 29-65-15-15.3-28-25.3-45-42.3v.3z"/><path d="M275.5 512c36 25 1 53 19 84 14-76 63.5-25-16-93.5" style="opacity:.4902;fill:#fff;enable-background:new"/><path d="M279 499c-8 19.6-17 39-25 59 19 9.7 33 28 41 48 1-26 10.9-46 29-65-15-15-28-25-45-42z" style="fill:none;stroke:#000;stroke-width:10;stroke-linecap:round;stroke-linejoin:round;stroke-miterlimit:10"/><path d="M274 498.5C264 519 255 540 248 562c21 7 34 27 45 45.5" style="opacity:.6;fill:none;stroke:#000;stroke-width:10;stroke-linecap:round;stroke-linejoin:round;stroke-miterlimit:10;enable-background:new"/><path d="M283 523c4.5 4 9 9 13 13m10 10c-.8-.6-2-1-2-2" style="fill:none;stroke:#fff;stroke-width:10;stroke-linecap:round;stroke-linejoin:round;stroke-miterlimit:10"/><style>.st40,.st68{fill:none;stroke-width:10;stroke-linecap:round;stroke-linejoin:round;stroke-miterlimit:10;stroke:#000}.st68{opacity:.6;enable-background:new}.st102{fill:#fff}</style><g id="Eye_Tounge"><path class="st102" d="M741 663c-20.5 18-46 0-62 23-25.5 38-1.5 18 5 70.8 5 44 32 46.5 36 30.2 4-15-5-30-5-46 .5-21.5 28-31 32-52 0-8 1-18.5-6-26zm-298 24c-5.5 29-5.5 79 32 84 33 7 44 42 54 38 25-30 12-78 7.5-98.7C509.5 705 492 683 443 687z"/><linearGradient id="SVGID_00000027599348716876755490000000517666610371899790_" gradientUnits="userSpaceOnUse" x1="561.184" y1="-370.643" x2="649.184" y2="-208.643" gradientTransform="translate(0 1066)"><stop offset="0" style="stop-color:#ff00d9"/><stop offset="1" style="stop-color:#ff2600"/></linearGradient><path style="fill:url(#SVGID_00000027599348716876755490000000517666610371899790_)" d="M531 815.6c7 14 29.5 21 42 9.8 17-28 4-62 14-75 17.5-22 49-7 39.7 21-7 20.1 19 13 26 44.3 15 20 79-8 41.5-29-9.6-11-14-84-39.7-66-34 28-86-40.9-114-8C529.6 747 564 751 531 815.6z"/><path class="st102" d="M600 744c-27 21 34 40.1 24 7-3-10-13-12-24-7.4v.4z"/><path d="M584 755c-7 13.5 2 47-5 67 2 1 7-9.6 63-3.5 19 2 4-25-6.5-26-7-5-11-13-11-21.5-16.5 1-32.5-11-40.5-16.2v.2z"/><path class="st68" d="M443 690.7c9 10 23 2 34 4 20 6 28 23 55 23-9.6 33 23 36-7 86M742 669c-21 15-35 4-52 12.3s-8.5 34-35 47c-42 20.8-69-29.7-109-15"/><path class="st68" d="M428 669c19 24-10 65 23 98 29.8 29.8 30.8-5 73 51.9 30 41 55 4 92 3.1 26-1 63 18 82-8"/><path d="M662 735c2.5 6 4 13 4 20m2 12c0 2 1 3 2 4.5m-116-51.7c-2 6-2 13 0 19.7M544 815c.9-4 3-7 5-10.5M735 639c-2 6-6.5 11-12 14m-12 4c-1 0-2.5.5-4 .7M656.5 691c-1.5 9-9 17-17.5 19m-15 2c-1 0-2-.6-3-1m-105-18.5c7 5 16 6 24 3M444 664c3 5.5 8 11 15 9.6" style="fill:none;stroke:#fff;stroke-width:10;stroke-linecap:round;stroke-linejoin:round;stroke-miterlimit:10"/><path class="st40" d="M429.5 666c11 23 20 24 44.5 21 18-2 30.5 18 48 23 29.8 6 33-19.7 70 3.3 24 17 56 26 73.5-3 7-12 9-28 21-35 12-6 57.5 6 67-37.5"/><path class="st40" d="M443 685c-7 25-6 56 11 77 13 15 38 9.7 52 24 24 25 32 62 69.8 40.4 58-33 97 27 138-28 18-24-4-42 0-58 7-27 46-32 28-79"/><path class="st40" d="M541 712c-15 43 28 40.9-12 99.6M664 715c33 23 2 57 44 84.5M578 822c-4-18 13-10 3-49-6-24 31-45.8 44-22 4 7 0 16 0 23.9-.5 22 32 14 27 44"/><path class="st40" d="M594 746c-11 20 18 32 31 20"/></g><style>.st16,.st40,.st68{fill:none;stroke:#fff;stroke-width:10;stroke-linecap:round;stroke-linejoin:round;stroke-miterlimit:10}.st40,.st68{stroke:#000}.st68{opacity:.6;enable-background:new}</style><g id="visor"><path class="st68" d="M425 452.5c-10 10-4 21-3 34 1 17.5-25 17-23 50.8 2 14 13.5 16 23 23.7 16 13-12 46.5 10.5 59 28 9 30-39 60.5-13 35 26 45-3 76-1 14 3 23 19.6 37 17.6 15-2 18-20 26-30.7 12-16 32 5 58-7 14-7 10.8-31 27-33 10-1 22-7 25-17.8 1-4 .7-9 3-11.9 3-4 9-5 11-9"/><path class="st68" d="M483 474c-28 10-52 59-14 72m214-104.1c32-1 53 43 26 64m-216 .1c-38 74 159 54 184 5"/><path d="M667 467c-60.6-40.6-281 59-113 83.5 33 5 185.5-41 113-83.9v.4z" style="fill:#fff"/><linearGradient id="SVGID_00000094605671738681660570000007936507584095639945_" gradientUnits="userSpaceOnUse" x1="531.586" y1="652.528" x2="653.586" y2="545.528" gradientTransform="matrix(1 0 0 -1 0 1100)"><stop offset="0" style="stop-color:#7b00ff"/><stop offset="1" style="stop-color:#ff0084"/></linearGradient><path style="fill:url(#SVGID_00000094605671738681660570000007936507584095639945_)" d="M550 467.8c-14 18 11 55 13 77 5 7 19.7 5 25-2 12-19.9-19.5-44-2-62 34-18 16 44 33 54.9 14 3 24-5 18-20-3-15 7-32-2-46-17-26.7-57-6.7-85-1.9z"/><path class="st16" d="M616 472c4 3 6.5 7 7 12m1 11v3"/><path d="M589 509.6c-6 26 3 45 25 27.9 4-17.5-4-37.8-25-27.9z"/><path class="st40" d="M623 456c-34 1-67 9-98 22.5-39.6 17-51 50.7-3 66 40 13 129-5.8 157-37.4 27-31.1-23.5-52.1-56-51.1zm-138 18c-20 15.5-47 54-14 71m210-103.1c29 12 42 36.5 27 65"/><path class="st40" d="M548 470c-15 25 21 51 15 75m57-87c33.5 21 8 44.5 21 70m-51.3 15c6-24-26-55-1-64 30-4 16 42 30.5 58"/><path class="st40" d="M580 500c4 9 19.8 11 27 7"/><linearGradient id="SVGID_00000036223863161345539850000005378798673148752026_" gradientUnits="userSpaceOnUse" x1="447.777" y1="687.666" x2="720.78" y2="506.665" gradientTransform="matrix(1 0 0 -1 0 1100)"><stop offset="0" style="stop-color:#ff002b"/><stop offset="1" style="stop-color:#ffd500"/></linearGradient><path style="opacity:.6902;fill:url(#SVGID_00000036223863161345539850000005378798673148752026_);enable-background:new" d="M490 437.6c-27-5-59.5-2-69 27.5-2 8 6.5 14 8.5 23-13 13.5-31 37-21 56 17 16 28 12 22 41.3-4 12 0 36 16.5 28 24-20.5 25-38 55-9.8 36 21 42-28 89 4.9 5 3 10.5 7 16 5.2 5-1 9-7 10.9-11.5 19.7-55 51 4 78-31 18-41 36-9 44-50 9-8 22-7 24-22.2 3-23-25-35-31-54.5-6-26 13-63-29-63-42 9.6-31 58-93 33-71-35-61.4 34.5-120.9 23.1z"/><path class="st16" d="M713 395c6.5 2 9 9 9 15m-2 13v2m26.5 60c3 3 5 8 5 13m-183-80c6-3 13.5-1 19 2m12.4 4 2.1 1m-121.5 25c-7-1-15-1-22 0M726 523c1 4 0 8-2 11m-36 27.5c-2 4-4 9-9 10.6m-12-.1h-2m-56 21c-1 3-3.5 6-5.5 9M535 592c-4 4-10 5-16 5m-11-4-2-1m-65-1.3c-1.5 3-2 7-.5 10M427 513c-4 4-6 9-7 15m-.3 10.5.3 1.5"/><path class="st68" d="M737.5 501c3 7 11 11.5 19 10.6M449 464c-5 6-13 10.9-21 13"/><path class="st40" d="M449 464c-9 26-42 39-44 68-1 8 4 17 12 19 6.5 2 13 3 15 9.8 5 16-13 44 5.5 52 24 11 23-43 58-14 45 37 47-28 95 11 27 22 25-16 40.8-28.5 15-12 35 8 52 2 15-5 15-24 24-33 7-5 17-2 23-7 14-9.6 4-29.9 7-44"/><path class="st40" d="M431 486c-24-21 3-49.7 29.8-49.5 24-2 56 9.6 74-10 39-42 61-9.7 103-5.2 46.5 2 39-48.5 78-39.5 29 11 16 33 17 56 1 18 19 29.5 27 44.9 10 16 0 42.5-21 33"/></g><style>.st40{fill:none;stroke-width:10;stroke-linecap:round;stroke-linejoin:round;stroke-miterlimit:10;stroke:#000}</style><g id="Gold_Headband"><linearGradient id="SVGID_00000134236501401383457500000003505018008553449115_" gradientUnits="userSpaceOnUse" x1="264" y1="774.579" x2="818" y2="774.579" gradientTransform="matrix(1 0 0 -1 0 1100)"><stop offset="0" style="stop-color:#fffb0a"/><stop offset="1" style="stop-color:#ff1f0a"/></linearGradient><path style="fill:url(#SVGID_00000134236501401383457500000003505018008553449115_)" d="M399 299.7c-73-.5-73 32-77 92.9 61-36 73-9.8 132.5-20.7 32-9 57-44 89.5-39 102 15.8 37 32 125 2 35-12 82 36 114 9.6-56.5-31-5.5-15-16-56-9.8-52-39.6-25-68-7-17 7-37.5.6-55 7-79.7 29-68-8-123 9.9-41.1 13.6-88 40.6-122 1.3z"/><path class="st40" d="M397 300.8c51 35 81 8 131-5 32-8 67 13 97 .7 36-19.6 30-4 63-12.7 22.5-6 33-25 59.6-24M323 394.5c48-44 82-9.6 130.6-23 40-11 59-52 108-35 54 19 45 21 99-1.4 38-16 83 36 120 9.9"/><path class="st40" d="M747 258c26.5 12 27 50 5 68 11 3 20.5 9.5 28 18m-383-44c-29.7-2-66 10.8-72.5 43-3 17 5 37-6 52"/><path d="M321 402.5c10.6-9 22-18 35-22 19.9-6 41 0 62 1 19.9 1 40-2 58-11.4 22-12 41-33 66-33 12 0 22 5 33 9.6 16 7 34 13 51 9.5 16-3 29.6-15 46-17.4 18-3 36 6 54 12.6s38 11 53.5 0" style="opacity:.6;fill:none;stroke:#000;stroke-width:10;stroke-linecap:round;stroke-linejoin:round;stroke-miterlimit:10;enable-background:new"/><path d="M745 276c7 5 9 16 5 23m-6 11.6-2 5.4m-358 0c-15 .8-29 9-38 20.6m-7 13.4-1 7m297-26c-7 5.5-16 8-24.5 7.5m-12.5-4.6c-2-.5-4-1-6-2M420 362c13 1 27-2 39-9" style="fill:none;stroke:#fff;stroke-width:10;stroke-linecap:round;stroke-linejoin:round;stroke-miterlimit:10"/></g><circle cx="550" cy="550" r="500" style="fill:none;stroke:#000;stroke-width:10;stroke-linecap:round;stroke-linejoin:round;stroke-miterlimit:10"/></svg>