<svg version="1.1" id="Layer_1" xmlns="http://www.w3.org/2000/svg" x="0" y="0" viewBox="0 0 1100 1100" style="enable-background:new 0 0 1100 1100" xml:space="preserve" xmlns:xlink="http://www.w3.org/1999/xlink"><style type="text/css">.st301{fill:#005BEF;stroke:#000000;stroke-width:10;stroke-linecap:round;stroke-linejoin:round;stroke-miterlimit:10;}</style><circle class="st301" cx="550" cy="553.7" r="500"/><defs><linearGradient id="a" x1="467.78" y1="347.4" x2="508.96" y2="422.3" gradientUnits="userSpaceOnUse"><stop offset="0" stop-color="#ff00f2"/><stop offset=".5" stop-color="#ac05ff"/><stop offset="1" stop-color="#0bf"/></linearGradient><linearGradient id="b" x1="625.23" y1="280.48" x2="689.78" y2="436.19" gradientUnits="userSpaceOnUse"><stop offset="0" stop-color="#00f"/><stop offset=".06" stop-color="#2c00ea"/><stop offset=".15" stop-color="#6b00cb"/><stop offset=".24" stop-color="#a000b2"/><stop offset=".32" stop-color="#c9009e"/><stop offset=".39" stop-color="#e70090"/><stop offset=".45" stop-color="#f90087"/><stop offset=".5" stop-color="#ff0084"/><stop offset=".58" stop-color="#ff2272"/><stop offset=".76" stop-color="#ff7a44"/><stop offset="1" stop-color="#fffb00"/></linearGradient><linearGradient id="c" x1="542.81" y1="533.18" x2="664.99" y2="716.92" gradientUnits="userSpaceOnUse"><stop offset="0" stop-color="#af0"/><stop offset=".25" stop-color="#fac400"/><stop offset=".29" stop-color="#fabf00"/><stop offset=".33" stop-color="#fab100"/><stop offset=".38" stop-color="#f99900"/><stop offset=".43" stop-color="#f87700"/><stop offset=".48" stop-color="#f74d00"/><stop offset=".5" stop-color="#f73e00"/><stop offset=".75" stop-color="#f5006e"/><stop offset="1" stop-color="#c0f"/></linearGradient><linearGradient id="d" x1="730.89" y1="463.6" x2="755.38" y2="535.72" gradientUnits="userSpaceOnUse"><stop offset="0" stop-color="#ff00a1"/><stop offset="1" stop-color="#0059ff"/></linearGradient><linearGradient id="e" x1="659.6" y1="799.3" x2="718.16" y2="799.3" gradientUnits="userSpaceOnUse"><stop offset="0" stop-color="#00f"/><stop offset="1" stop-color="#0fd"/></linearGradient><linearGradient id="f" x1="433.06" y1="520.57" x2="478.6" y2="623.4" gradientUnits="userSpaceOnUse"><stop offset="0" stop-color="#ff0900"/><stop offset=".1" stop-color="#ff0d00"/><stop offset=".2" stop-color="#fe1b00"/><stop offset=".31" stop-color="#fe3100"/><stop offset=".43" stop-color="#fd4f00"/><stop offset=".54" stop-color="#fb7600"/><stop offset=".58" stop-color="#fb8400"/><stop offset="1" stop-color="#f7ff00"/></linearGradient><linearGradient id="g" x1="514.44" y1="451.87" x2="573.27" y2="482.5" gradientUnits="userSpaceOnUse"><stop offset="0" stop-color="#ffb300"/><stop offset=".5" stop-color="#f2d45a"/><stop offset="1" stop-color="#e600ff"/></linearGradient><linearGradient id="h" x1="555.34" y1="254.67" x2="521.18" y2="370.89" gradientUnits="userSpaceOnUse"><stop offset="0" stop-color="#fffb00"/><stop offset=".05" stop-color="#f0fa0f"/><stop offset=".15" stop-color="#c9f736"/><stop offset=".3" stop-color="#89f176"/><stop offset=".47" stop-color="#32eacd"/><stop offset=".56" stop-color="#00e6ff"/><stop offset="1" stop-color="#6200ff"/></linearGradient><linearGradient id="i" x1="431.91" y1="482.9" x2="368.78" y2="334.62" gradientUnits="userSpaceOnUse"><stop offset="0" stop-color="#e1ff00"/><stop offset=".5" stop-color="#fa5700"/><stop offset="1" stop-color="#ff00f7"/></linearGradient><linearGradient id="j" x1="423.73" y1="687.79" x2="506.29" y2="788.25" gradientUnits="userSpaceOnUse"><stop offset="0" stop-color="#5900ff"/><stop offset=".5" stop-color="#db00c5"/><stop offset="1" stop-color="#ff4000"/></linearGradient><linearGradient id="k" x1="264.66" y1="609.94" x2="305.75" y2="609.94" gradientUnits="userSpaceOnUse"><stop offset="0" stop-color="#00f"/><stop offset="1" stop-color="#f0f"/></linearGradient><linearGradient id="l" x1="237.16" y1="499.87" x2="342.8" y2="552.28" gradientUnits="userSpaceOnUse"><stop offset="0" stop-color="#00ff04"/><stop offset=".06" stop-color="#01fe19"/><stop offset=".18" stop-color="#05fd50"/><stop offset=".34" stop-color="#0afaa8"/><stop offset=".5" stop-color="#0ff7ff"/><stop offset="1" stop-color="#5100ff"/></linearGradient><linearGradient id="m" x1="723.12" y1="717.37" x2="745.84" y2="681.95" gradientUnits="userSpaceOnUse"><stop offset="0" stop-color="#ff0037"/><stop offset=".39" stop-color="#ff1ce8"/><stop offset="1" stop-color="#ffc800"/></linearGradient><linearGradient id="n" x1="593.77" y1="831.53" x2="619.74" y2="874.05" gradientUnits="userSpaceOnUse"><stop offset="0" stop-color="#ea00ff"/><stop offset="1" stop-color="#ff0015"/></linearGradient></defs><g data-name="Layer 46"><path d="M531.7 209c-67.9 59.6-70.9 20.3-120.8 36.5-19.6 10.9-14.3 30.3-9.7 39.6 11.2 22.8-50.8 8.7-68.6 40.3-10.3 18.3.1 42.2-7.5 61.8s-33.8 34.7-36.8 52.2c-43.4 48.2-154 6.6-119.1 70.4 6.2 11.4 32.9-6.3 39.1 9.1 7 17.5-38.8 29.4-21.3 46.7 17.7 4.9 20.7 39.9 56.9 63.2 13.8 20 2.7 51.4 19.4 69.1 35.8 37.8 46.3-24.8 41.3-34.3 4.3-38.8 43.9-10.6 22.2 38.7-22.8 51.7 11.2 74 36.5 56.6 38.5-10.5-14.1 99.9 89.9 62.9 18.1.7 28 22.3 29.8 40.3 6.5 63 53.6 46.3 59.1 8 15.5-34.3 45.1 48.6 46.9 59.9 11.3 72.6 69.3 42 70.8 17.9 3.3-54.1-3.2-60.1 1.7-68.3 18.5-31.1 71 13.3 90.8-15.5 13.6-19.7-31.2-63.5 7.9-55.4 94 19.4 18.7-100.7 13.8-120.4-8.8-35.5 13.9-105.6 46.9-121.7 18.1-8.8 17.1-35.5 7.4-52.8s-24.9-30.6-31.4-48.9c-13.5-54.4 22.4-102.1-36-133.3a10.2 10.2 0 0 1-3.9-14.4c17.1-26.3 1.3-66.4-31.8-71.4-22.1-3.3-44.3 8.9-66.5 6.3-43.8-5.2-80.2-74.1-127-43.1Z" style="fill:#1c89ad"/><path d="M461.1 384.3c0-40.3 54-40.3 54 0s-54 40.4-54 0Z" style="fill:url(#a)"/><path d="M607.6 363.4c0-86.2 104-86.2 104 0s-104 86.2-104 0Z" style="fill:url(#b)"/><path d="M514.2 630.8c0-125.6 187-125.6 187 0s-187 125.5-187 0Z" style="fill:url(#c)"/><path d="M718.2 497.1c0-31.7 48.2-31.7 48.2 0s-48.2 31.7-48.2 0Z" style="fill:url(#d)"/><path d="M659.6 799.3c0-38.5 58.6-38.5 58.6 0s-58.6 38.5-58.6 0Z" style="fill:url(#e)"/><path d="M419.1 578.9c0-57.4 79.6-57.4 79.6 0s-79.6 57.4-79.6 0Z" style="fill:url(#f)"/><path d="M529.3 469.3c0-24.4 37-24.3 37 0s-37 24.3-37 0Z" style="fill:url(#g)"/><path d="M496.2 313c0-64.6 84-64.6 84 0s-84 64.6-84 0Z" style="fill:url(#h)"/><path d="M357.2 411.3c0-58.1 88.4-58.1 88.4 0s-88.4 58.1-88.4 0Z" style="fill:url(#i)"/><path d="M419.1 740.5c0-68.3 96-68.3 96 0s-96 68.4-96 0Z" style="fill:url(#j)"/><path d="M264.7 609.9c0-27 41.1-27 41.1 0s-41.1 27.1-41.1 0Z" style="fill:url(#k)"/><path d="M247.4 527.3c0-51.7 90-51.7 90 0s-90 51.6-90 0Z" style="fill:url(#l)"/><path d="M722.3 700.3c0-15.4 23.5-15.4 23.5 0s-23.5 15.4-23.5 0Z" style="fill:url(#m)"/><path d="M589.5 852.8c0-22.6 34.5-22.6 34.5 0s-34.5 22.5-34.5 0Z" style="fill:url(#n)"/></g><style>.st40{fill:none;stroke:#000;stroke-width:10;stroke-linecap:round;stroke-linejoin:round;stroke-miterlimit:10}.st98{opacity:.6;enable-background:new}</style><g id="Outline"><path class="st98" d="M793 537c-1 .7-1 2-.5 3 5 10 11 35 25 30 8-2 21-13 18-22.4-.5-1-2-2-3-1.5-26 12-28-11-39-9.4v.3zm-34 274.5c6 5 26 8 25-3-6-7-20.6-12-21.5-26C750 772 744 803 759 811.5zm-219.3 52s1 .5 1 .8c9 13.5-3 36-18 40-34 6-9-6-6-44 .3-5.3 22.3 2.7 23 3.2zM342 731c5 7-4 22-4 33 8 13 29.6-5 33-14.9 2-12-17-21-28-20.2-1 .1-1 1.1-1 2.1zm31-120.2c2 23-8 47-26 61.9-13 10.9-17.5-30.6-8-27.9 6 4.2 28-18.8 34-34zm-157-59.9c-8 6-17 3-25 1-11 5 4 20 13.5 16 5-4 12-9 12-15.7-.5-.2-1.5-.2-.5-1.3zM337 473c-6-10-3-23 0-34 0-1 0-2-.6-2-9-9-23 11-19.8 20.7C318 463 338 475 337 472.8v.2z"/><path class="st98" d="M326 392c-2 29 24 45 7 44-7 2-14 1-15 11-1 11-24 0-24.5-1.3C285 433 317 404.5 326 392zm103-118c-9.9-4-16-16-18-25-4-6-9.9 1-11 6-7 54 29.5 28 29 19zm293 9c16 21 29.5 12 40 20.7 3 4 1 9.6-1 14-3 9-13 9-20 4.1-14.5-5.8-22-22.2-19-38.8z"/><path class="st40" d="M347 729c53.5 5 15 86 59 102 25 9 37-19.8 55-11.9 23 10.1 19.6 40 24 60.7 9.6 46 63 29.6 58-12.8"/><path class="st40" d="M519 861c89-9 47.5 119 114.5 115 39-6 35-47 25-76.5-3-9 0-18.5 7-24.5 24.5-21 59 15.5 84-2.5 15-11 8-33-2-45-12-15 0-32 10-43"/><path class="st40" d="M790 539c53 69.8-64 71 8 194.5 6 14 11 32 11 48.5 0 32-49 47.5-61 16"/><path class="st40" d="M721 287c2 51 64 31 74 88 6 34-11.5 71 7 103 10 18 27 31.5 34 51 8 19-4 47-27 42"/><path class="st40" d="M407 290.6c-16-8-12-29.9-2-41 17-15 40.5-10 61-6 29.8 1 49-29 75-38 50-17 81 55 133 44 23-5 48-11 69 1 25 14 33 55 10 75"/><path class="st40" d="M428 278c-16 26.5-51 17.5-76 28.5-20 10.5-28 33-23 55 10 47-43 51-39 88m25 4.5c1.5-23 35-26 41-5 7 25-13 47 16 72"/><path class="st40" d="M334 476c-20-34-61-31.5-89-9.6-20 8-43-3-64 4-22 7-28 37-5 43.5 6.5 2 23-2 26-1 15 4 11 25-5 30-21 6-10 29 6 29"/><path class="st40" d="M216 554.5c-15 15-14 41 2 55 37 22 41 31 36 69.7-2 31 46 41 53.5 10 2-10.8-4-22 0-33 13-32 44 20 62-44.5"/><path class="st40" d="M327 647.9c25 29.7-.5 47-7 75-10 32.5 34 65 53 25"/><path d="M729 262.5c9 4 16 13 18 22.5m-193-68c12.5 2 24.5 8 34 16m9 9 3 3m-163 10c-5.5-.9-12 .6-15.5 4M362 319.6c-9 2-14 10.7-16 19M339 449c4 1 6 6 6 9.8M308.5 470c-12-6-16-5-22-4M175 492c1-4 5-7 9-7.5m38 89.5c-4 8 0 16 4 19.9m44 78.6c-1 6 1 15 9 18m76-77.5c-3 14-13 14.5-16 16m4.5 119.5c-5-3-9-9-8-15M397 782c-1 14.5 7 28 14 30m90 53.9c-3 12 2 27 14.5 25M636 957c14-3 17-28 11-38m96-60.1c1-7 0-14-4-19m46-49.1c8-6.5 9-25 3-39M786 582c5-8 3-19-3-26m37-12c2-8.5-.6-18-7-24m-56-169c18 6 22 30 21 35" style="opacity:.7882;fill:none;stroke:#fff;stroke-width:10;stroke-linecap:round;stroke-linejoin:round;stroke-miterlimit:10;enable-background:new"/></g><defs><linearGradient id="zaf" x1="493.99" y1="811.54" x2="981.88" y2="811.54" gradientUnits="userSpaceOnUse"><stop offset="0" stop-color="#ff0400"/><stop offset="1" stop-color="#6a00ff"/></linearGradient><style>.zaf-2,.zaf-3{fill:none;stroke-linecap:round;stroke-linejoin:round;stroke:#000;stroke-width:10px}.zaf-3{opacity:.6}</style></defs><path d="M498.1 718.7c-21.9 37.1 48.6 112.8 86.9 120.9 41.9-26.9 61.7 36 94.5 37.5-9.4-9.1 1.3-30.1 8.9-17 22.7 39.6 50.1 23.4 65.3 37.4 10.1 9.3 12.5 26.7 27.3 31.2-3.5-12.3 10.8-14.9 15.7-4.3 14.4 30.9 19.4 3.6 46.2 32.9 57-39.3 108.6-92.5 139-155.5-5.4-7.5-54.3-4.3-24.6-24.4-28.7-31.9-84.3 14.4-79.4-49-38.2 19.6-60.7-10.2-95.1-9.8-11.9.2-59.6 33.8-38.6-11.8-31.7 5.4-48.5-15.7-74.4-27.2-15.5-7-47.4 16.2-68.1-13.8-35.7 10.4-78.6 23.2-103.6 52.9Z" style="fill:url(#zaf)"/><path d="M590.7 841.3a39.6 39.6 0 0 0 41.5 7c-9.4-10.4-32.8-25.2-41.5-7Zm12.8-173.5c11.7 18.3 38.7 18.3 55.8 8.4-12.3-14.8-38.8-15.8-55.8-8.4Z"/><path class="zaf-2" d="M588.4 838.3c39.9-27.5 56.3 43.5 94.6 40.7-21.3-17.9 2.3-33.6 13.7-8.7 10.4 22.7 24.4 17.6 45.1 19.9 23 2.5 17.7 41.4 41.3 37.7-4.9-5.6 1.7-14.5 8.6-11.5s5.5 14 10.5 19.1c11 11.1 29.6.9 37.5 22.4M604.1 668.8c18.9 29.5 49.4 1 73.4 14.3 21.1 11.6 44.5 31.8 69.8 19.1-1.1 7.7-10.6 12.1-10.2 19.8.8 13.7 18.7 9.5 26.8 4.2 39.5-26.3 65.7 29.9 114.3.6 1.9 13.7-8.6 27.7 8.1 36.2 23.7 12.2 54.1-12 72.3 16.2-7.8-2-17.8 6.4-10.3 13.3 9 8.3 25.7-.9 34.2 8.6M650.4 800c31.9-6.5 31.8 33.3 62.7 31-12.8-8.7 6-21.6 14-10.9 16 21.2 21.8 18 46.1 15.8-13.9-2.8-12.1-21.5-19.5-30.7s-25.8.8-25.8-12c0-9.6 11.6-10.4 18.6-7.7-6.6-16.5-26.1-8.2-39.3-7s-12.6-14.9.8-13.9c-13-15.1-36.9 4.5-50.5-9.3m159.3 23.2c16.3-2.4 17.4 21.3 32.1 21.3s28.3 2.4 35.3 17.8c-19.2-10.5-19.7 25.2 21.2 20.4-48.9 29.8-36.7-10.8-67.6-11.2m-35.3 22.4c18.3-.1 18.7 29.5 39 28.2-6 6.8-17.3 9.7-25 4.7-10.5-6.9-22.9-6.7-13.4 7.5-16.5-.8-17.8-23.2-33.7-26.1M593.3 706.4c14.5.6 22 17.8 39.1 23.1-17.9 5.4-17.8 10.7-27.2 9-7.4-1.4-13.4-14.7-17-4.6-2.2 6.4 4.8 11 8.2 14.9-34.3 3-16.9-30.2-46.5-30.3"/><path class="zaf-2" d="M661.4 676c-21.4-33-144.3 4.2-167.1 48.8-21.4 41.8 98.3 145.5 137.1 123.5M490.2 677.2c-37.9 16.7-47.7 53.9-28.3 89.4"/><path class="zaf-3" d="M488.9 676.4c-42.3 4.7-53.7 59-30.3 89.6"/><path class="zaf-3" d="M501.2 712c-65.4 35.4 85.1 166.2 134.8 144.1a63.8 63.8 0 0 0 22.8 21m-110-156.6c20.2 6.9 19.8 37.2 45.9 29.2m-4.3-15.5c4.8 1.1 8.1 5.8 12.7 7.6 10.7 3.4 19.9-6.1 28.9-10.6m17.2 70.7c25.6.4 35.7 36.5 63.2 30.9m.5-12.1c25.6 4.4 10.3 27.8 59.6 16.3m-42.4-43.1a40.2 40.2 0 0 1 15.9-6.8m-46.5-14.7a24.4 24.4 0 0 1 8.6-5.5m60.6 101.2c12.3 7.4 16.2 24.7 34 23.9m-.6-10.6c15.1 2.1 25.7 13.3 39.2-2.7m-3.7-48c15.6 0 19.4 39.5 68.7 8M873.4 820a27.7 27.7 0 0 1 9.9-1.1"/><path class="zaf-3" d="M604 672.7c-43.9 7.5-86.8 27.6-110.7 66.9"/><path d="M652.3 693.4a31.5 31.5 0 0 1 22.2 4.6m11.8 7.1 3.4 1.7m86.7 28.7c7.7-4.6 17.3-2.6 25.1.7m115.7 41.9a32 32 0 0 1 17.1.2m-30.8.6-2.5.2m60.1 29.4a12.3 12.3 0 0 1 7.1 0m-259.6 59.3a15.4 15.4 0 0 0 13.5 8.8m11.9.7 1.8.3m73.7 47.9c1.9 4.7 5.7 5 8.2 5.4m-168.5-84.6a73 73 0 0 0 14 12.6" style="stroke:#fff;opacity:.75;stroke-width:10px;fill:none;stroke-linecap:round;stroke-linejoin:round"/><path d="M601 724.4a14.6 14.6 0 0 0 6.2 4.2m143.1 99.1a14.6 14.6 0 0 1-9.5-5.5m-4.9-6.5-1.3-1.4m-35.8 2.8a26.3 26.3 0 0 1-6.7-6.6m-6.3-7.5-.7-1.1m131.8-13.2a13.8 13.8 0 0 1 7.1 4.3m4.9 7.2 1.6 2.2m25.6 7.7a18 18 0 0 1 8.9 1.1m-62.2 47.7a13.5 13.5 0 0 1 6.7 5.3m-16.6-9.2 1.7.8" style="stroke-width:7px;stroke:#fff;opacity:.75;fill:none;stroke-linecap:round;stroke-linejoin:round"/><style>.st40{fill:none;stroke:#000;stroke-width:10;stroke-linecap:round;stroke-linejoin:round;stroke-miterlimit:10}</style><g id="glasses"><linearGradient id="SVGID_00000178916075595908665650000004557367053833667231_" gradientUnits="userSpaceOnUse" x1="598.405" y1="1033.928" x2="641.405" y2="678.931" gradientTransform="matrix(1 0 0 -1 0 1410)"><stop offset="0" style="stop-color:#00f5d0"/><stop offset=".232" style="stop-color:#42b1da"/><stop offset=".508" style="stop-color:#8b66e6"/><stop offset=".738" style="stop-color:#c02fee"/><stop offset=".908" style="stop-color:#e10df3"/><stop offset="1" style="stop-color:#ed00f5"/></linearGradient><path style="fill:url(#SVGID_00000178916075595908665650000004557367053833667231_)" d="M360 453c2 11 0 51 7 55.1 14 4 47-17 49.9 2 3 11 7 22 6 33-2 22-21 43-13 65 9 25 35.8 11 38 17.3 11 32 20 25 48 27 19 5.5 23 38 45 35 26-3 15-55 34-38.5 15 13 41 3 44.5-16.4 4-23-18.5-42.5-19-66 2-28 23-48 8-79 8 .5 17 0 25-1 13 24 8 46.5-2 69.9-17 39.8 15 52.5 29 45-2 14-11 36 2 47 10.5 5 23-4 29-12 11-22 29.5-2 39 10.3 12 12 28 6 29-11 .6-7.5-2-16 2-23 6-5 18 6 27-10.8 6-30-9-21 14-54.7 8-12 34-27 17-51-7-9.6-20.5-18-17-31 16 3 34-8.5 44-19.9 6-9.5 9-23 6-33.5-5-12-17-10.9-24.5-2-10 9.9-20.9-1-12.5-12 8-11 39-18 7-31-52.5-6.5-53 102-140.5 31.8-46-29-49 40.6-93 34-32.5-5-17-24-60.8-4-59-42-66 22.5-124 20.3-14-.5-32-7-44 3.8v.3z"/><path d="M363.5 508c17 18 36-5 48 0 24 37-27 79.5-.5 112.9 11 14 29.9 7 32 8.8 4.5 18 16 29 35 29 40-5 27 27.5 53 28m37-34.7c10 9.5 27 10.5 38 2m9-163.1c56-2-32.5 112 38 120 5 4-17 39.7 17.5 37m29.5-17c19-2 25 27 46 22m38-41.9c-4 5-11 7-17 7M445 500.6c-6 10.5-14.5 5-21 10" style="opacity:.6;enable-background:new;fill:none;stroke:#000;stroke-width:10;stroke-linecap:round;stroke-linejoin:round;stroke-miterlimit:10"/><path d="M495 429.5c9 2 17 6 23 13m-38.2-11.6c-1 0-2 .8-3.5 1.5M374 495c6 .5 12-1 16-4m213 15c2 9.5-1 19-5 28m-6.5 13-1.5 3m12 58c6 7 9.9 19 4.5 27m-10.5 8c-1 0-1.5.5-2 .7M550 656c0 7-3 13-8 18m-79-46c1 7 7 12 14 12m168-78c-3 7-3 15-1 22m25 39c-2 3.5-1 8 2 11m78.5-14c2 6 1 12-1 17m-.5-30v-2m41-76c4 7 0 14-5 19.5m22-47.5c4 3 6 7 7 11m28-92c0 8-3 16.5-9 22m-11 5c-2 0-3 .9-5 1m-150.5-41c7 1 12 5.5 17 10.7M652 409c-1 .5-2 1-3 2" style="fill:none;stroke:#fff;stroke-width:10;stroke-linecap:round;stroke-linejoin:round;stroke-miterlimit:10"/><path d="M429 607c3 4 3 10 0 15 4-1 12-3 13-8m151 11.9c-5 8-7.5 19.8 0 27-6 0-27.5-5-16-23M592 498c7-1 14.5 1 20 5-2-5-4-11-9-14m61-2c-8 5-15 13-19 21-1 0-6-12-4-18m12 96c-1 6-6.5 11-12 13 6 1 14 2 19-2m112-5c-1 7 2 14 8 18-6 2-13.5-.5-17-6m40-87.5c4 5 10 11 17 9-3.5 3-9 6-14 4.5m-28-62.5c8-2 17 3 22 8.9.5-5-.9-12-4-16h-1m-244-23.9c-5-3-6-11.5-3-16.5-6 3-13 7-13 14" style="opacity:.6;enable-background:new"/><path class="st40" d="M362 503c14 14 34.5-3 50.9-2 9.6.5 23 7 29.9-3"/><path class="st40" d="M413 501c24 36 0 62-4 97-2 19 19.5 34 35 21.5"/><path class="st40" d="M434 606c26 12 3 52 54 46 31-4 21.5 36 50 37 32 2 19-59 51-65"/><path class="st40" d="M570 642.5c12 19.5 44 17 51-5 9-27.5-27-52-19-79 7-23 24-47 7-69m27-1.5c14 25 2 49.7-5.5 74-5.8 18 6 53 29 38"/><path class="st40" d="M656 588c12 13.5 0 29-1 44 0 14 15 21 27 11.9 15-12 23-31 40.6-8.4 26 34 40 9 40-3.5s-7-29.6 5-38.5"/><path class="st40" d="M763 609c12 9 30-2 28-16.9-.8-5-3-9-4-14-4-22 32-25 13-58"/><path class="st40" d="M808 535c22-1 21-31 7-42-9-7-16-17.5-13-29m-141 20c-18 12.5-39-12-68 10.6M779 463c9.8-6 22-2 34-2 54 0 53-75.5 20.7-55-19 12-22-1-19.7-6.8 4-9 17-9 23-16 5-13-10.9-18-21-17-29 3-32 32-51.5 45-21 15-58 14-74-6.7-7-9-17-14-29-13-23 1.5-29.5 25.5-47 35-34 22-52-27-81.5 3"/><path class="st40" d="M548 438c-13 0-23-10-33-16.9-39-27-69 31-108 29-17-.9-35-10-50 2.7 6 15 2 34 5 49"/></g><style>.st40,.st68{fill:none;stroke:#000;stroke-width:10;stroke-linecap:round;stroke-linejoin:round;stroke-miterlimit:10}.st68{opacity:.6;enable-background:new}.st102{fill:#fff}</style><g id="Trippy_Hat"><radialGradient id="SVGID_00000123414473825914092120000007829286393102463126_" cx="560.408" cy="901.895" r="355.63" gradientTransform="matrix(1 0 0 -1 0 1100)" gradientUnits="userSpaceOnUse"><stop offset="0" style="stop-color:#ff0062"/><stop offset="1" style="stop-color:#ff9d00"/></radialGradient><path style="fill:url(#SVGID_00000123414473825914092120000007829286393102463126_)" d="M367 287.1c-34 6-142 40-97.5 85.9 93 52 538.5 50 605.5-61 6-38-82-50-108-53-8-43-2-92-25-131-73-78-255-50.6-336 7.5C346 178 384 236 367 287v.1z"/><linearGradient id="SVGID_00000158731567478740519670000011292647734770965143_" gradientUnits="userSpaceOnUse" x1="665.288" y1="882.675" x2="765.301" y2="977.687" gradientTransform="matrix(1 0 0 -1 0 1100)"><stop offset="0" style="stop-color:#00ffc4"/><stop offset=".104" style="stop-color:#00f6c7"/><stop offset=".275" style="stop-color:#00dcce"/><stop offset=".494" style="stop-color:#00b3db"/><stop offset=".748" style="stop-color:#007bec"/><stop offset="1" style="stop-color:#003cff"/></linearGradient><path style="fill:url(#SVGID_00000158731567478740519670000011292647734770965143_)" d="M684 91c-19.5 2.5-29 23-13.5 40.6 44 50 5.8 18.5 11 73.5 1 10 9 22 20 19 49.8-45 19 22 59 18.5C766 110 716 105 684 91z"/><linearGradient id="SVGID_00000119838619519104526170000018100987693212792465_" gradientUnits="userSpaceOnUse" x1="442.246" y1="820.658" x2="250.246" y2="682.658" gradientTransform="matrix(1 0 0 -1 0 1100)"><stop offset="0" style="stop-color:#00ffc4"/><stop offset="1" style="stop-color:#003cff"/></linearGradient><path style="fill:url(#SVGID_00000119838619519104526170000018100987693212792465_)" d="M372.5 223.8c-2 22 2 44.5-7 65-93 0-203 114 52 114-49-62 53-61 9.9-96-30-18-24.5-32-14.5-60.5C419 223 389 218 372.5 223.8z"/><path class="st102" d="M648 185c-56-42-134-25-182 23 67 36 128 34 182-23.2v.2z"/><linearGradient id="SVGID_00000028312584919422827450000003060139484899234493_" gradientUnits="userSpaceOnUse" x1="555.957" y1="951.99" x2="560.957" y2="851" gradientTransform="matrix(1 0 0 -1 0 1100)"><stop offset="0" style="stop-color:#c800ff"/><stop offset=".107" style="stop-color:#c202ff"/><stop offset=".254" style="stop-color:#b009ff"/><stop offset=".424" style="stop-color:#9313ff"/><stop offset=".611" style="stop-color:#6b21ff"/><stop offset=".809" style="stop-color:#3834ff"/><stop offset="1" style="stop-color:#0048ff"/></linearGradient><path style="fill:url(#SVGID_00000028312584919422827450000003060139484899234493_)" d="M517 171.8c-9 19-10.5 60 18 60 21 0 44 0 62-10.8 15-12 8-36 2-50.9-7-17.1-66-6.1-82 1.7z"/><path d="M558 178c-20 10-26 73 11 49 11.5-12 10.5-49-11-49z"/><path class="st102" d="M560 180c-24 9.8-9 36 12 26.5 10-7.5 3-32.5-12-26.5z"/><path class="st40" d="M356 315c18-35 15-74 13-112-5-125 316-157 370-78 33 49 9 129 46 183"/><path class="st40" d="M364 287c-119 18-233 143 229 114 293-18 368-121 177-139M675 92c-45 42 35 48 12 85-16 26-2 58 20 45 6.5-4 10-13 18-13.4 19.6 2 5 45 37.5 34"/><path class="st40" d="M373.5 222.5c17-5 46 3 41 24-9 34-23 37 14 58.9 12 7 17 29.6-5 39.4-27 12-22 44-1.5 59.8M662 193c-59-55-160-33-206 25"/><path class="st40" d="M466.5 207c57 38 129 32 184-22.5"/><path class="st40" d="M515 174c-7 17-3 39.5 5 56m73-67c12 12 18.5 36 9 55m-58 12.5c-12-64 46-75 30-4.5"/><path class="st40" d="M546 193c-3 18 20 19.6 30 14"/><path d="M789 309c-3-14 7-33 17-43-12-1.5-30-9-40-1m-414 50c-2-9-8-16.5-16-20.7 8.5-6 20.7-5 30.7-5" style="opacity:.6;enable-background:new"/><path class="st68" d="M669 90c-9 5-18 16-15.5 26.5 10 46 43 13 22 84-4.5 15 12 35 28 28.9 11.5-4 24-29 29 3 2 13 16 21 28 16.5M462 214c66 42 135 28.5 191-23m-280.5 25c33-4.5 60 12 43 47.5-11 23 6 29.6 21 42.5 11 9.8 11 29-.5 38.7-6 5-48 20-7 59"/><path class="st68" d="M507 179c-5 15-4 31 2 45m94-58c8 13 11 29 9 44"/><path d="M712 123c11 9 19 22 23 35m4 15 1 5m113 139c-11 10-24 18-38.5 22.5m-14.6 5.5-5.9 2m-519 2c.5 16 21 21 38 24m15 4.5 9 2.1M586 174c3 6 5 12 6 19m1 11-1 3m-202 26c4 1 8 4 10 8m16 72c4 2.5 7.5 7 8 12m-18-19.5-2-1.5m292-115c-3 6-3 13-1 19m5-31 1-2m-22-50c-4.5-4-8-9.5-3-17m-242 28c-15 8-29 19-39 33m55.5-42 6.5-3" style="fill:none;stroke:#fff;stroke-width:10;stroke-linecap:round;stroke-linejoin:round;stroke-miterlimit:10"/><path class="st68" d="M318 398c162 25 323 20 473-25"/></g><circle cx="550" cy="550" r="500" style="fill:none;stroke:#000;stroke-width:10;stroke-linecap:round;stroke-linejoin:round;stroke-miterlimit:10"/></svg>