<svg version="1.1" id="Layer_1" xmlns="http://www.w3.org/2000/svg" x="0" y="0" viewBox="0 0 1100 1100" style="enable-background:new 0 0 1100 1100" xml:space="preserve" xmlns:xlink="http://www.w3.org/1999/xlink"><style type="text/css">.st300{fill:#00DE72;stroke:#000000;stroke-width:10;stroke-linecap:round;stroke-linejoin:round;stroke-miterlimit:10;}</style><circle class="st300" cx="550" cy="553.7" r="500"/><linearGradient id="a8" gradientUnits="userSpaceOnUse" x1="558.119" y1="436.228" x2="806.198" y2="309.187" gradientTransform="matrix(1 0 0 -1 0 1100)"><stop offset="0" style="stop-color:#03fcf4"/><stop offset=".089" style="stop-color:#03f2f4"/><stop offset=".244" style="stop-color:#03d5f5"/><stop offset=".446" style="stop-color:#03a8f7"/><stop offset=".686" style="stop-color:#0368f9"/><stop offset=".957" style="stop-color:#0318fc"/><stop offset="1" style="stop-color:#030bfc"/></linearGradient><path style="fill:url(#a8)" d="M777.5 632.2c-21 64 38 96 31 151-4 29-37 44-59 23-39 0 84 96-74 61.8l-98-255 200 19v.2z"/><linearGradient id="b4" gradientUnits="userSpaceOnUse" x1="173.214" y1="619.428" x2="438.218" y2="483.425" gradientTransform="matrix(1 0 0 -1 0 1100)"><stop offset="0" style="stop-color:#03fcf4"/><stop offset=".089" style="stop-color:#03f2f4"/><stop offset=".244" style="stop-color:#03d5f5"/><stop offset=".446" style="stop-color:#03a8f7"/><stop offset=".686" style="stop-color:#0368f9"/><stop offset=".957" style="stop-color:#0318fc"/><stop offset="1" style="stop-color:#030bfc"/></linearGradient><path style="fill:url(#b4)" d="M331 377.1c-59 101.5-46 59.7-77 80.7-27 18-93-2-93 37 6 29.8 36 8.5 48 20 16.5 28-46 23-13 56.7 10.7-1 12 9.6 12 18 0 41 56 5 46 90 6 41 63 35 53.5-7.9-12-53.5 59-31 9.6 55.8-4 34 41 54 54.5 19l-42-202.6 70.9-144.5L331 377v.1z"/><linearGradient id="c3" gradientUnits="userSpaceOnUse" x1="342.781" y1="569.57" x2="468.781" y2="505.57" gradientTransform="matrix(1 0 0 -1 0 1100)"><stop offset="0" style="stop-color:#03fcf4"/><stop offset=".089" style="stop-color:#03f2f4"/><stop offset=".244" style="stop-color:#03d5f5"/><stop offset=".446" style="stop-color:#03a8f7"/><stop offset=".686" style="stop-color:#0368f9"/><stop offset=".957" style="stop-color:#0318fc"/><stop offset="1" style="stop-color:#030bfc"/></linearGradient><path style="fill:url(#c3)" d="M331 545c2 0 123 8 129 8.3l-5 70.8-124-79.4v.3z"/><linearGradient id="d3" gradientUnits="userSpaceOnUse" x1="192.925" y1="662.852" x2="343.925" y2="585.852" gradientTransform="matrix(1 0 0 -1 0 1100)"><stop offset="0" style="stop-color:#03fcf4"/><stop offset=".089" style="stop-color:#03f2f4"/><stop offset=".244" style="stop-color:#03d5f5"/><stop offset=".446" style="stop-color:#03a8f7"/><stop offset=".686" style="stop-color:#0368f9"/><stop offset=".957" style="stop-color:#0318fc"/><stop offset="1" style="stop-color:#030bfc"/></linearGradient><path style="fill:url(#d3)" d="M333 383s39.8 16 59 24.2L330 545s-123 30.6-123 30c-9.6-3-26-12-19.7-22 10.9-17 59-39.8-12-39.8-19.7 0-16-35 1-41.8 10-4 15 11 103-20C305 426 320 398 333 382.6v.4z"/><linearGradient id="e3" gradientUnits="userSpaceOnUse" x1="286.992" y1="458.984" x2="489.992" y2="354.984" gradientTransform="matrix(1 0 0 -1 0 1100)"><stop offset="0" style="stop-color:#03fcf4"/><stop offset=".089" style="stop-color:#03f2f4"/><stop offset=".244" style="stop-color:#03d5f5"/><stop offset=".446" style="stop-color:#03a8f7"/><stop offset=".686" style="stop-color:#0368f9"/><stop offset=".957" style="stop-color:#0318fc"/><stop offset="1" style="stop-color:#030bfc"/></linearGradient><path style="fill:url(#e3)" d="M370 736.6c-12-64-28-126.5-40-191.7l125 79.3 33.5-10s-33 200-33 201C369 878 384 757 370 736.6z"/><linearGradient id="f3" gradientUnits="userSpaceOnUse" x1="439.222" y1="373.432" x2="708.222" y2="235.432" gradientTransform="matrix(1 0 0 -1 0 1100)"><stop offset="0" style="stop-color:#03fcf4"/><stop offset=".089" style="stop-color:#03f2f4"/><stop offset=".244" style="stop-color:#03d5f5"/><stop offset=".446" style="stop-color:#03a8f7"/><stop offset=".686" style="stop-color:#0368f9"/><stop offset=".957" style="stop-color:#0318fc"/><stop offset="1" style="stop-color:#030bfc"/></linearGradient><path style="fill:url(#f3)" d="M455 817.1c11.5-68 23-137 34-204.8l103 38s83.5 217 83 217c-38 12 25 108-48 107.6-50-5-29-103-86-109.9 4 32-31 59.6-51 25-12-24.5-2-61-35-72.9z"/><linearGradient id="g1" gradientUnits="userSpaceOnUse" x1="532.938" y1="679.879" x2="827.935" y2="528.88" gradientTransform="matrix(1 0 0 -1 0 1100)"><stop offset="0" style="stop-color:#03fcf4"/><stop offset=".089" style="stop-color:#03f2f4"/><stop offset=".244" style="stop-color:#03d5f5"/><stop offset=".446" style="stop-color:#03a8f7"/><stop offset=".686" style="stop-color:#0368f9"/><stop offset=".957" style="stop-color:#0318fc"/><stop offset="1" style="stop-color:#030bfc"/></linearGradient><path style="fill:url(#g1)" d="M795 370.7c7.5 30-8 63 0 93.1 9 34 71 72 29.9 108-18 0-17-9-46 67.3l-200.8-12.3-28-255.8h244.8l.1-.3z"/><linearGradient id="h1" gradientUnits="userSpaceOnUse" x1="638.618" y1="629.254" x2="830.554" y2="531.286" gradientTransform="matrix(1 0 0 -1 0 1100)"><stop offset="0" style="stop-color:#03fcf4"/><stop offset=".089" style="stop-color:#03f2f4"/><stop offset=".244" style="stop-color:#03d5f5"/><stop offset=".446" style="stop-color:#03a8f7"/><stop offset=".686" style="stop-color:#0368f9"/><stop offset=".957" style="stop-color:#0318fc"/><stop offset="1" style="stop-color:#030bfc"/></linearGradient><path style="fill:url(#h1)" d="M774 639c-53.5-3.5-104-6-159-9.6l-39.9-44.1 29-8.4 24.5-69.5s164-129.5 165.5-128c-13 153 35 82 43 169.7 3 32-32 17-35 33.1C797 601.5 788 620 774 638.8v.2z"/><linearGradient id="i1" gradientUnits="userSpaceOnUse" x1="614.019" y1="789.038" x2="783.019" y2="703.038" gradientTransform="matrix(1 0 0 -1 0 1100)"><stop offset="0" style="stop-color:#03fcf4"/><stop offset=".089" style="stop-color:#03f2f4"/><stop offset=".244" style="stop-color:#03d5f5"/><stop offset=".446" style="stop-color:#03a8f7"/><stop offset=".686" style="stop-color:#0368f9"/><stop offset=".957" style="stop-color:#0318fc"/><stop offset="1" style="stop-color:#030bfc"/></linearGradient><path style="fill:url(#i1)" d="m642 247.4-59.5 171.4c70.9-9.6 146-17 213-42 7-26-22.5-44-43-50C809 236 695 243 642 247v.4z"/><linearGradient id="j1" gradientUnits="userSpaceOnUse" x1="442.133" y1="833.26" x2="643.133" y2="730.26" gradientTransform="matrix(1 0 0 -1 0 1100)"><stop offset="0" style="stop-color:#03fcf4"/><stop offset=".089" style="stop-color:#03f2f4"/><stop offset=".244" style="stop-color:#03d5f5"/><stop offset=".446" style="stop-color:#03a8f7"/><stop offset=".686" style="stop-color:#0368f9"/><stop offset=".957" style="stop-color:#0318fc"/><stop offset="1" style="stop-color:#030bfc"/></linearGradient><path style="fill:url(#j1)" d="M449.9 240c10 4 22 4 33 1.1 14-4 25-15 36.5-24 11-9 25-17 39-17s27 9 38 17c16 12 32.5 25 52 32.5l-58 224.1L449.9 240z"/><linearGradient id="k" gradientUnits="userSpaceOnUse" x1="357.104" y1="807.111" x2="658.067" y2="653.13" gradientTransform="matrix(1 0 0 -1 0 1100)"><stop offset="0" style="stop-color:#03fcf4"/><stop offset=".089" style="stop-color:#03f2f4"/><stop offset=".244" style="stop-color:#03d5f5"/><stop offset=".446" style="stop-color:#03a8f7"/><stop offset=".686" style="stop-color:#0368f9"/><stop offset=".957" style="stop-color:#0318fc"/><stop offset="1" style="stop-color:#030bfc"/></linearGradient><path style="fill:url(#k)" d="M462 244c-10-2.5-21-5-32-4.5s-22 4-29 12.1-9 21-3 29.6c3 4 7 8 5 12-1.5 3.5-6 4-9.8 4-14 0-27 2-39.7 7.9-12 6-23 16-27 29-2 6-2 13-2 19.7 0 9 1 18 3 26.5l300 126.5-49-106.6L462 244z"/><linearGradient id="l" gradientUnits="userSpaceOnUse" x1="435.046" y1="589.091" x2="595.046" y2="507.091" gradientTransform="matrix(1 0 0 -1 0 1100)"><stop offset="0" style="stop-color:#03fcf4"/><stop offset=".089" style="stop-color:#03f2f4"/><stop offset=".244" style="stop-color:#03d5f5"/><stop offset=".446" style="stop-color:#03a8f7"/><stop offset=".686" style="stop-color:#0368f9"/><stop offset=".957" style="stop-color:#0318fc"/><stop offset="1" style="stop-color:#030bfc"/></linearGradient><path style="fill:url(#l)" d="M629.6 507.4c-8 23-16 47-25 70.4l-149.9 46.8 12-185.6 163 68v.4z"/><linearGradient id="m" gradientUnits="userSpaceOnUse" x1="506.773" y1="513.561" x2="653.773" y2="437.561" gradientTransform="matrix(1 0 0 -1 0 1100)"><stop offset="0" style="stop-color:#03fcf4"/><stop offset=".089" style="stop-color:#03f2f4"/><stop offset=".244" style="stop-color:#03d5f5"/><stop offset=".446" style="stop-color:#03a8f7"/><stop offset=".686" style="stop-color:#0368f9"/><stop offset=".957" style="stop-color:#0318fc"/><stop offset="1" style="stop-color:#030bfc"/></linearGradient><path style="fill:url(#m)" d="M578 586.2c-31 9-58 17-89.8 27.9l163 56.8L578 586v.2z"/><linearGradient id="n" gradientUnits="userSpaceOnUse" x1="441.998" y1="531.996" x2="496.998" y2="503.996" gradientTransform="matrix(1 0 0 -1 0 1100)"><stop offset="0" style="stop-color:#03fcf4"/><stop offset=".089" style="stop-color:#03f2f4"/><stop offset=".244" style="stop-color:#03d5f5"/><stop offset=".446" style="stop-color:#03a8f7"/><stop offset=".686" style="stop-color:#0368f9"/><stop offset=".957" style="stop-color:#0318fc"/><stop offset="1" style="stop-color:#030bfc"/></linearGradient><path style="fill:url(#n)" d="M461 527.8c-2 34-4 65-6 96.7l34-10.6-28-86.1z"/><linearGradient id="o" gradientUnits="userSpaceOnUse" x1="359.947" y1="627.897" x2="470.947" y2="570.897" gradientTransform="matrix(1 0 0 -1 0 1100)"><stop offset="0" style="stop-color:#03fcf4"/><stop offset=".089" style="stop-color:#03f2f4"/><stop offset=".244" style="stop-color:#03d5f5"/><stop offset=".446" style="stop-color:#03a8f7"/><stop offset=".686" style="stop-color:#0368f9"/><stop offset=".957" style="stop-color:#0318fc"/><stop offset="1" style="stop-color:#030bfc"/></linearGradient><path style="fill:url(#o)" d="M391 406.9c-21 48.5-38 86-61 138l129.5 9.1 7.5-115.1-76-32z"/><style>.st40{fill:none;stroke:#000;stroke-width:10;stroke-linecap:round;stroke-linejoin:round;stroke-miterlimit:10}.st98{opacity:.6;enable-background:new}</style><g id="Outline"><path class="st98" d="M793 537c-1 .7-1 2-.5 3 5 10 11 35 25 30 8-2 21-13 18-22.4-.5-1-2-2-3-1.5-26 12-28-11-39-9.4v.3zm-34 274.5c6 5 26 8 25-3-6-7-20.6-12-21.5-26C750 772 744 803 759 811.5zm-219.3 52s1 .5 1 .8c9 13.5-3 36-18 40-34 6-9-6-6-44 .3-5.3 22.3 2.7 23 3.2zM342 731c5 7-4 22-4 33 8 13 29.6-5 33-14.9 2-12-17-21-28-20.2-1 .1-1 1.1-1 2.1zm31-120.2c2 23-8 47-26 61.9-13 10.9-17.5-30.6-8-27.9 6 4.2 28-18.8 34-34zm-157-59.9c-8 6-17 3-25 1-11 5 4 20 13.5 16 5-4 12-9 12-15.7-.5-.2-1.5-.2-.5-1.3zM337 473c-6-10-3-23 0-34 0-1 0-2-.6-2-9-9-23 11-19.8 20.7C318 463 338 475 337 472.8v.2z"/><path class="st98" d="M326 392c-2 29 24 45 7 44-7 2-14 1-15 11-1 11-24 0-24.5-1.3C285 433 317 404.5 326 392zm103-118c-9.9-4-16-16-18-25-4-6-9.9 1-11 6-7 54 29.5 28 29 19zm293 9c16 21 29.5 12 40 20.7 3 4 1 9.6-1 14-3 9-13 9-20 4.1-14.5-5.8-22-22.2-19-38.8z"/><path class="st40" d="M347 729c53.5 5 15 86 59 102 25 9 37-19.8 55-11.9 23 10.1 19.6 40 24 60.7 9.6 46 63 29.6 58-12.8"/><path class="st40" d="M519 861c89-9 47.5 119 114.5 115 39-6 35-47 25-76.5-3-9 0-18.5 7-24.5 24.5-21 59 15.5 84-2.5 15-11 8-33-2-45-12-15 0-32 10-43"/><path class="st40" d="M790 539c53 69.8-64 71 8 194.5 6 14 11 32 11 48.5 0 32-49 47.5-61 16"/><path class="st40" d="M721 287c2 51 64 31 74 88 6 34-11.5 71 7 103 10 18 27 31.5 34 51 8 19-4 47-27 42"/><path class="st40" d="M407 290.6c-16-8-12-29.9-2-41 17-15 40.5-10 61-6 29.8 1 49-29 75-38 50-17 81 55 133 44 23-5 48-11 69 1 25 14 33 55 10 75"/><path class="st40" d="M428 278c-16 26.5-51 17.5-76 28.5-20 10.5-28 33-23 55 10 47-43 51-39 88m25 4.5c1.5-23 35-26 41-5 7 25-13 47 16 72"/><path class="st40" d="M334 476c-20-34-61-31.5-89-9.6-20 8-43-3-64 4-22 7-28 37-5 43.5 6.5 2 23-2 26-1 15 4 11 25-5 30-21 6-10 29 6 29"/><path class="st40" d="M216 554.5c-15 15-14 41 2 55 37 22 41 31 36 69.7-2 31 46 41 53.5 10 2-10.8-4-22 0-33 13-32 44 20 62-44.5"/><path class="st40" d="M327 647.9c25 29.7-.5 47-7 75-10 32.5 34 65 53 25"/><path d="M729 262.5c9 4 16 13 18 22.5m-193-68c12.5 2 24.5 8 34 16m9 9 3 3m-163 10c-5.5-.9-12 .6-15.5 4M362 319.6c-9 2-14 10.7-16 19M339 449c4 1 6 6 6 9.8M308.5 470c-12-6-16-5-22-4M175 492c1-4 5-7 9-7.5m38 89.5c-4 8 0 16 4 19.9m44 78.6c-1 6 1 15 9 18m76-77.5c-3 14-13 14.5-16 16m4.5 119.5c-5-3-9-9-8-15M397 782c-1 14.5 7 28 14 30m90 53.9c-3 12 2 27 14.5 25M636 957c14-3 17-28 11-38m96-60.1c1-7 0-14-4-19m46-49.1c8-6.5 9-25 3-39M786 582c5-8 3-19-3-26m37-12c2-8.5-.6-18-7-24m-56-169c18 6 22 30 21 35" style="opacity:.7882;fill:none;stroke:#fff;stroke-width:10;stroke-linecap:round;stroke-linejoin:round;stroke-miterlimit:10;enable-background:new"/></g><style>.st113{fill:url(#SVGID_00000161607897382723119130000008384714424499667899_);stroke:#000;stroke-width:10;stroke-linecap:round;stroke-linejoin:round;stroke-miterlimit:10}.st115{fill:url(#SVGID_00000060750496457387242310000012666657064974295186_)}.st116{opacity:.6902;fill:url(#SVGID_00000147217783223614028420000005859567438160853156_);enable-background:new}</style><g id="Diamond"><linearGradient id="SVGID_00000047747315158047275670000003291867314489516677_" gradientUnits="userSpaceOnUse" x1="288.392" y1="548.057" x2="314.227" y2="509.458"><stop offset="0" style="stop-color:#00fff2"/><stop offset=".094" style="stop-color:#00f2f3"/><stop offset=".271" style="stop-color:#00cef5"/><stop offset=".51" style="stop-color:#0095f8"/><stop offset=".799" style="stop-color:#0047fc"/><stop offset="1" style="stop-color:#000dff"/></linearGradient><path style="fill:url(#SVGID_00000047747315158047275670000003291867314489516677_)" d="M288 501.7c2 15 4 33 7 46.8l29-6.4-36-40.4z"/><linearGradient id="SVGID_00000141446425912342851330000003408777914311007933_" gradientUnits="userSpaceOnUse" x1="267.149" y1="523.397" x2="303.78" y2="545.402"><stop offset="0" style="stop-color:#00fff2"/><stop offset=".095" style="stop-color:#00f1f3"/><stop offset=".273" style="stop-color:#00cef5"/><stop offset=".514" style="stop-color:#0094f8"/><stop offset=".807" style="stop-color:#0045fc"/><stop offset="1" style="stop-color:#000dff"/></linearGradient><path style="fill:url(#SVGID_00000141446425912342851330000003408777914311007933_)" d="M264 553.5c10-2 20.5-4 30.7-5.8l-6-43.6-24.7 49.4z"/><linearGradient id="SVGID_00000109030460764858650640000015191774076603487363_" gradientUnits="userSpaceOnUse" x1="274.137" y1="586.606" x2="296.946" y2="541.468"><stop offset="0" style="stop-color:#00fff2"/><stop offset="1" style="stop-color:#000dff"/></linearGradient><path style="fill:url(#SVGID_00000109030460764858650640000015191774076603487363_)" d="m260.1 554 34.9-6.3 6 45.4z"/><linearGradient id="SVGID_00000006686354308698079230000008291800467576291461_" gradientUnits="userSpaceOnUse" x1="288.999" y1="550.828" x2="317.454" y2="572.732"><stop offset="0" style="stop-color:#00fff2"/><stop offset=".125" style="stop-color:#00e8f3"/><stop offset=".388" style="stop-color:#00abf6"/><stop offset=".764" style="stop-color:#004cfc"/><stop offset="1" style="stop-color:#000dff"/></linearGradient><path style="fill:url(#SVGID_00000006686354308698079230000008291800467576291461_)" d="M301 593.8c-3-16-4-28.5-7-46.1l26.5-5.6-19.5 51.7z"/><path style="fill:none;stroke:#000;stroke-width:10;stroke-linecap:round;stroke-linejoin:round;stroke-miterlimit:10" d="m287 495-27.1 58.9L303 602l23-60.6z"/><path d="M282 493.7c-9.8 22-19 40.6-28 60.8l46 52" style="opacity:.6;fill:none;stroke:#000;stroke-width:10;stroke-linecap:round;stroke-linejoin:round;stroke-miterlimit:10"/></g><style>.st40{fill:none;stroke-width:10;stroke-linecap:round;stroke-linejoin:round;stroke-miterlimit:10;stroke:#000}.st152{fill:#ae0f45}</style><g id="Ooooo"><path d="M571 686c16 10 49 36 53.5 36.9 45-10.5 81 9 84 8 40-27 67-50 32-96.9-22-15-36 36-46 45-46 43-76.5-30-123.5 6.6v.4z"/><path d="M436 659c-55 31 27 58 37.5 80-13 40 24 108 52 62.5 49.9-81 57 28 71 47.9 30.1 43 62-2 45-38-5-10.8-24-62 21-34 48 29.8 62-18 47-40.7-25-38-83-4-103-22.1-10-9-27-43-91-13C487 702 459 639 436 658.7v.3z" style="fill:#fe1767"/><path class="st152" d="M427 699c23-21 47 6 67 17 54 29 76-27 132 11.9-47-62-67.5-32-92-27.7-34 6-56-28-81-45-26-8-41 18-26 43.5v.3z"/><path class="st152" d="M641 751c-6-12 19.7-27 30.6-28-13-7-39-6.5-47 7.1L641 751z"/><path d="M585 711c10 5 18 14 24 24m9 11c1.5 1 3 3 4 5m42-19c9.9 1 19 6 26.5 13" style="fill:none;stroke:#fff;stroke-width:10;stroke-linecap:round;stroke-linejoin:round;stroke-miterlimit:10"/><path class="st40" d="M433 656c-13 4-18 24-13 36.9 14 34 68 24 53 70-11 36 31 72 47 42.5 38-68 66-20 69 28 2 29 48 55 57 10 4-19-7-35-14-52-8-18 11-26 25-16.9 1 1 2 2 3.5 3 15.5 14 32 22 48 2 23.5-30-20.9-45 32-72 26-13 20-53 3-71.6-20-17.5-32 6-39 24-29 77-88-3-127 21-98 60-94-40.9-145-25.1v.2z"/><path class="st40" d="M568 686.9c29 12 55 37 70 64M623 725c26-15 63-5 87 12"/><path d="M417.5 665.9c-34 63 71.5 42 49 107-11 31 28 65 56 41 13-11 18-38 39-35 24 8 17 48 29 68 32 54 97 16 49-58-7-11 7-25 25-6 35.5 36.5 64 4 59-34.7-5-44 38-35 32-66" style="opacity:.6;fill:none;stroke:#050505;stroke-width:10;stroke-linecap:round;stroke-linejoin:round;stroke-miterlimit:10;enable-background:new"/></g><defs><linearGradient id="zj" x1="629.68" y1="468.83" x2="1049.01" y2="468.83" gradientUnits="userSpaceOnUse"><stop offset="0" stop-color="#0ff"/><stop offset="1" stop-color="#5eff00"/></linearGradient><linearGradient id="zj-2" x1="440.74" y1="521" x2="1065.73" y2="456.07" gradientUnits="userSpaceOnUse"><stop offset="0" stop-color="#00eaff"/><stop offset=".13" stop-color="#00ece3"/><stop offset=".42" stop-color="#00f29d"/><stop offset=".84" stop-color="#00fb2d"/><stop offset="1" stop-color="#0f0"/></linearGradient><style>.zj-3,.zj-4{fill:none;stroke-linecap:round;stroke-linejoin:round;stroke-width:10px;stroke-dasharray:0 0 0 0 0 0;stroke:#000}.zj-4{opacity:.6}</style></defs><path d="M544.8 451.6c-37.5 21.7-72.4 33.5-59.3 84.8 17.7 69.3 77.9 90.1 100.3 73.8 5.4-11.2-7.4-157.8-41-158.6Zm147.7-25.7c-56.4 15-73.8 88.4-44.6 134.3 14.2 22.3 43.4 40.2 70.5 39.1 29.4-2.8 22-178-25.9-173.4Z"/><path d="M677.4 588.8c92.3-52.5 121.6 53.6 152.2-.2 35 13.7 70.6-10 105.4-12.8 37.9-3 77.5 20.7 113.7 1 2.8-83.5-11.3-169.8-50.6-243.4-50.9 43.6-87.4-5.9-161.1 87-4.8-22.9-26.1-17.2-38-4-60.2 48.3-93.1 24.1-125 45-7.4 4.9-17.5 2.3-26.6 3.3-36.5 36.1-11.6 102.3 30 124.1Z" style="fill:url(#zj)"/><path d="M1012.5 365.3c-29-.1-26.1 36-48.7 44.7-21.4-62.9-68.4 13.9-99.8 25.6-61.2 9.9-101.2 49-128.4 51 4-41.7-56.9 5.8-97.4 2.6-61.8-4.9-63 27.1-142.8 3.8-36 42.7-22.1 97.5 41.8 114.5 48.9-50.2 94.6-30.3 144.7-43.2 110.5-41.5 149.7 18 190.8 2.5 12-4.5 13.2-19.4 5-28 48-25.8 121.1 51.8 125.8-3.9 13.9 4.5 30.9 8.1 44.9.8a426.7 426.7 0 0 0-35.9-170.4Z" style="fill:url(#zj-2)"/><path class="zj-3" d="M1009.9 366.3c-35.4 6.2-24.2 54.1-71 56.7"/><path class="zj-3" d="M963.4 413.6c0-18.9-15.6-34.1-34.2-26.5-27.8 11.3-43.1 44.1-74 51.9-22.7 5.7-46.9 8.3-66.3 22.5-21.9 16-46.5 31.6-74.8 26.8"/><path class="zj-3" d="M734.4 486.9c5.3-11.7-8.5-21.3-19.4-19-19.6 4.1-42.4 25.3-83.6 20.7-43-4.8-69.5 31.7-136 4.4m552.6 44.2c-21.6 13-45.2-8-67.4-8.4"/><path class="zj-3" d="M1002.1 533.9c5.6 21.1-14.2 28.9-34.5 18.1-32.2-17.1-74.2-26.2-107.8-6.9"/><path class="zj-3" d="M877.3 539.5c11 9.5 14.1 40.3-38.1 24.8-25.6-7.6-69.8-21.5-105.7-16-28.9 4.5-55.4 23.1-85.7 20.3-40.5-3.8-79.8 9.1-108.6 38.5m457.6-272.7c-23.3 25.5-55.5 23.7-86.9 27.7-47.5 5.9-44.9 57-90.3 64.1"/><path class="zj-3" d="M835.2 419.9c.3-7.4-8.4-33.2-43.4.7-20.2 19.7-49.1 31.9-78.6 28.5-20.9-2.4-32.1 19.2-62.8 13.8m396.9 117.4c-35.2 16-82.9-15.5-134.5-.9-21.2 5.9-42.4 16.6-64.1 13-15.8-2.7-31-13.3-46.6-9.4"/><path class="zj-3" d="M827.1 587c-1.2 22.6-23.7 21.2-37.8 8.5-27.5-24.7-75.5-30.8-108.4-9m-92.4-8.5c6.3 26.8-.6 47.5-31.4 37.3-156.5-51.6-48.3-148.8-17.2-161.6 23.9-9.9 29 28.5 33.4 42.1m58.7-8.9c8.4-28.5 75.9-94.6 84.8-40.5"/><path class="zj-3" d="M652.1 570.4c18.5 17.5 79.3 55 81.3 7.2"/><path class="zj-4" d="M476.4 525.5c-6.1 21.4-.8 48.7 16.6 62.4 20.8 16.2 67 47.6 91 25.8m7.2-32.7c69.1-30.7 84.4 45.5 132.8 17.3M643.6 466c-8.3 6.8-10.1 12.5-13.9 22.5m105.9 91.3a94.4 94.4 0 0 1 53.8 25.5m12.9-21.1c6.2 2.3 13.2 4.4 18 9.3m39-47.8c8.5-2.8 16.9.4 23.6 6m96.9-22.2a35 35 0 0 1 20.8 18m-40.2-145.4c-3.3 9.4-11.9 15.4-19.8 20.7m-110.3-13.9c-.8 6.8-5.7 12-10.2 16.8m-87.4 49.7a29.3 29.3 0 0 1-17.5 12.7"/><path d="M940.4 398.5a23.6 23.6 0 0 0-14.5 6.9m-9.4 7.4-2.3 2.4m90.8-32.5c-4.6 2-7 6.8-9 11.1m39.8 134.1a25.2 25.2 0 0 1-14.8-2.1m-35.8 19A21.1 21.1 0 0 1 973 540m-106.6 17.4a25.7 25.7 0 0 1-13.1-2.3m-11.7-3.4-2.5-1.2m-26.8-132.6a43.5 43.5 0 0 0-7.7 6.5m-7.1 7.6-2.2 2m113.2-58.4c-6.1.5-11.4 4.3-16.3 8.1m-7.7 8.9-2.3 1.9M628.1 500.4a55.8 55.8 0 0 0-21.8 3.2m-12.4 4.4-2.8 1.2m443.7 60.3a37.1 37.1 0 0 1-17.8 1.3" style="opacity:.72;stroke:#fff;fill:none;stroke-linecap:round;stroke-linejoin:round;stroke-width:10px;stroke-dasharray:0 0 0 0 0 0"/><path d="M690.5 545.2a63.9 63.9 0 0 1-24.3 5.6m-11.8 2.6-3.6-.5m172.4-94a86.7 86.7 0 0 0-21 9.1" style="opacity:.73;stroke:#fff;fill:none;stroke-linecap:round;stroke-linejoin:round;stroke-width:10px;stroke-dasharray:0 0 0 0 0 0"/><path class="zj-4" d="M497.6 496.3c-32.2 53.5-7.7 84.7 43.9 106.9m108.4-136a43.8 43.8 0 0 0-9.5 18.4m23.5 85.6a47 47 0 0 0 14.5 11.3"/><style>.st40,.st68{fill:none;stroke:#000;stroke-width:10;stroke-linecap:round;stroke-linejoin:round;stroke-miterlimit:10}.st68{opacity:.6;enable-background:new}</style><g id="Knowledge"><path d="M484 313.5c48 35 117.5 20 160-17-49.5-41.5-124-41.5-160 17z" style="fill:#fff"/><linearGradient id="SVGID_00000081643937399829794740000016140099050203615631_" gradientUnits="userSpaceOnUse" x1="614.626" y1="817.896" x2="614.626" y2="890.904" gradientTransform="matrix(.9959 -.09015 -.09015 -.9959 28.476 1198.007)"><stop offset="0" style="stop-color:#ff0037"/><stop offset="1" style="stop-color:#ffc800"/></linearGradient><path style="fill:url(#SVGID_00000081643937399829794740000016140099050203615631_)" d="M534 273c-14 19 1 35-2 54.7 0 2 20 7 21 1 8-77 28-53 26-2.9 6-1.5 14-1 20-2-10-19.6 8-39-6-53.5-9-11.3-51-8.3-59 2.7z"/><path class="st40" d="M471 319c82-73 109.6-66 186-15"/><path class="st40" d="M482 314c52 31 115 19 163-16m9 34c37 16 53-7 29-38m-227 6c-39 47 3 59 19.5 47"/><path class="st40" d="M530 277c-9 19 7 32-1 52m63-59.4c15 16-5 36 8 52m-49 9c19-18-7-37 12.5-49 9-4.5 19 5 16 14.5-3 9.6-8 21.5-1.5 30.7"/><path class="st40" d="M557 290c0 8.5 9 15.5 17 14.9-4 8-12.5-2-8 7 12 10.8-6 22-1.5 6.5"/><path class="st68" d="M454 300c-44.5 56 4 65 21 48m178-12.1c39 21 63-11 32-44M477 319c52 38 124 21 173-15.5"/><path class="st68" d="M523 282c-7 15 4 31 3 46"/></g><circle cx="550" cy="550" r="500" style="fill:none;stroke:#000;stroke-width:10;stroke-linecap:round;stroke-linejoin:round;stroke-miterlimit:10"/></svg>