<svg version="1.1" id="Layer_1" xmlns="http://www.w3.org/2000/svg" x="0" y="0" viewBox="0 0 1100 1100" style="enable-background:new 0 0 1100 1100" xml:space="preserve" xmlns:xlink="http://www.w3.org/1999/xlink"><style type="text/css">.st303{fill:#FED907;stroke:#000000;stroke-width:10;stroke-linecap:round;stroke-linejoin:round;stroke-miterlimit:10;}</style><circle class="st303" cx="550" cy="553.7" r="500"/><defs><linearGradient id="a" x1="440.97" y1="180.1" x2="582.97" y2="998.27" gradientUnits="userSpaceOnUse"><stop offset="0" stop-color="#fbff03"/><stop offset=".25" stop-color="#ff751a"/><stop offset=".39" stop-color="#ff298d"/><stop offset=".54" stop-color="#e100ff"/><stop offset=".75" stop-color="#4f2bff"/><stop offset="1" stop-color="#03eeff"/></linearGradient></defs><path d="M531.7 209c-67.9 59.6-70.9 20.3-120.8 36.5-19.6 10.9-14.3 30.3-9.7 39.6 11.2 22.8-50.8 8.7-68.6 40.3-10.3 18.3.1 42.2-7.5 61.8s-33.8 34.7-36.8 52.2c-43.4 48.2-154 6.6-119.1 70.4 6.2 11.4 32.9-6.3 39.1 9.1 7 17.5-38.8 29.4-21.3 46.7 17.7 4.9 20.7 39.9 56.9 63.2 13.8 20 2.7 51.4 19.4 69.1 35.8 37.8 46.3-24.8 41.3-34.3 4.3-38.8 43.9-10.6 22.2 38.7-22.8 51.7 11.2 74 36.5 56.6 24-8.9 13.3 38.7 23.3 50.9 19.5 37.2 54.9 11.6 66.6 12 18.1.7 28 22.3 29.8 40.3 6.5 63 53.6 46.3 59.1 8 15.5-34.3 45.1 48.6 46.9 59.9 11.3 72.6 69.3 42 70.8 17.9 3.3-54.1-3.2-60.1 1.7-68.3 18.5-31.1 71 13.3 90.8-15.5 13.6-19.7-31.2-63.5 7.9-55.4 94 19.4 18.7-100.7 13.8-120.4-8.8-35.5 13.9-105.6 46.9-121.7 18.1-8.8 17.1-35.5 7.4-52.8s-24.9-30.6-31.4-48.9c-13.5-54.4 22.4-102.1-36-133.3a10.2 10.2 0 0 1-3.9-14.4c17.1-26.3 1.3-66.4-31.8-71.4-22.1-3.3-44.3 8.9-66.5 6.3-43.8-5.2-80.2-74.1-127-43.1Z" style="fill:url(#a)" data-name="Layer 57"/><style>.st40{fill:none;stroke:#000;stroke-width:10;stroke-linecap:round;stroke-linejoin:round;stroke-miterlimit:10}.st98{opacity:.6;enable-background:new}</style><g id="Outline"><path class="st98" d="M793 537c-1 .7-1 2-.5 3 5 10 11 35 25 30 8-2 21-13 18-22.4-.5-1-2-2-3-1.5-26 12-28-11-39-9.4v.3zm-34 274.5c6 5 26 8 25-3-6-7-20.6-12-21.5-26C750 772 744 803 759 811.5zm-219.3 52s1 .5 1 .8c9 13.5-3 36-18 40-34 6-9-6-6-44 .3-5.3 22.3 2.7 23 3.2zM342 731c5 7-4 22-4 33 8 13 29.6-5 33-14.9 2-12-17-21-28-20.2-1 .1-1 1.1-1 2.1zm31-120.2c2 23-8 47-26 61.9-13 10.9-17.5-30.6-8-27.9 6 4.2 28-18.8 34-34zm-157-59.9c-8 6-17 3-25 1-11 5 4 20 13.5 16 5-4 12-9 12-15.7-.5-.2-1.5-.2-.5-1.3zM337 473c-6-10-3-23 0-34 0-1 0-2-.6-2-9-9-23 11-19.8 20.7C318 463 338 475 337 472.8v.2z"/><path class="st98" d="M326 392c-2 29 24 45 7 44-7 2-14 1-15 11-1 11-24 0-24.5-1.3C285 433 317 404.5 326 392zm103-118c-9.9-4-16-16-18-25-4-6-9.9 1-11 6-7 54 29.5 28 29 19zm293 9c16 21 29.5 12 40 20.7 3 4 1 9.6-1 14-3 9-13 9-20 4.1-14.5-5.8-22-22.2-19-38.8z"/><path class="st40" d="M347 729c53.5 5 15 86 59 102 25 9 37-19.8 55-11.9 23 10.1 19.6 40 24 60.7 9.6 46 63 29.6 58-12.8"/><path class="st40" d="M519 861c89-9 47.5 119 114.5 115 39-6 35-47 25-76.5-3-9 0-18.5 7-24.5 24.5-21 59 15.5 84-2.5 15-11 8-33-2-45-12-15 0-32 10-43"/><path class="st40" d="M790 539c53 69.8-64 71 8 194.5 6 14 11 32 11 48.5 0 32-49 47.5-61 16"/><path class="st40" d="M721 287c2 51 64 31 74 88 6 34-11.5 71 7 103 10 18 27 31.5 34 51 8 19-4 47-27 42"/><path class="st40" d="M407 290.6c-16-8-12-29.9-2-41 17-15 40.5-10 61-6 29.8 1 49-29 75-38 50-17 81 55 133 44 23-5 48-11 69 1 25 14 33 55 10 75"/><path class="st40" d="M428 278c-16 26.5-51 17.5-76 28.5-20 10.5-28 33-23 55 10 47-43 51-39 88m25 4.5c1.5-23 35-26 41-5 7 25-13 47 16 72"/><path class="st40" d="M334 476c-20-34-61-31.5-89-9.6-20 8-43-3-64 4-22 7-28 37-5 43.5 6.5 2 23-2 26-1 15 4 11 25-5 30-21 6-10 29 6 29"/><path class="st40" d="M216 554.5c-15 15-14 41 2 55 37 22 41 31 36 69.7-2 31 46 41 53.5 10 2-10.8-4-22 0-33 13-32 44 20 62-44.5"/><path class="st40" d="M327 647.9c25 29.7-.5 47-7 75-10 32.5 34 65 53 25"/><path d="M729 262.5c9 4 16 13 18 22.5m-193-68c12.5 2 24.5 8 34 16m9 9 3 3m-163 10c-5.5-.9-12 .6-15.5 4M362 319.6c-9 2-14 10.7-16 19M339 449c4 1 6 6 6 9.8M308.5 470c-12-6-16-5-22-4M175 492c1-4 5-7 9-7.5m38 89.5c-4 8 0 16 4 19.9m44 78.6c-1 6 1 15 9 18m76-77.5c-3 14-13 14.5-16 16m4.5 119.5c-5-3-9-9-8-15M397 782c-1 14.5 7 28 14 30m90 53.9c-3 12 2 27 14.5 25M636 957c14-3 17-28 11-38m96-60.1c1-7 0-14-4-19m46-49.1c8-6.5 9-25 3-39M786 582c5-8 3-19-3-26m37-12c2-8.5-.6-18-7-24m-56-169c18 6 22 30 21 35" style="opacity:.7882;fill:none;stroke:#fff;stroke-width:10;stroke-linecap:round;stroke-linejoin:round;stroke-miterlimit:10;enable-background:new"/></g><defs><linearGradient id="zag" x1="638.52" y1="776.5" x2="875.8" y2="776.5" gradientUnits="userSpaceOnUse"><stop offset="0" stop-color="#17ffaa"/><stop offset="1" stop-color="#ffff17"/></linearGradient><linearGradient id="zag-2" x1="841.11" y1="758.37" x2="880.76" y2="761.1" gradientUnits="userSpaceOnUse"><stop offset="0" stop-color="#ff1726"/><stop offset="1" stop-color="#fff017"/></linearGradient><linearGradient id="zag-3" x1="882.79" y1="580.8" x2="875.4" y2="723.92" gradientUnits="userSpaceOnUse"><stop offset="0" stop-color="#fb17ff"/><stop offset=".15" stop-color="#fb17e3"/><stop offset=".47" stop-color="#fd179d"/><stop offset=".93" stop-color="#ff172d"/><stop offset="1" stop-color="#ff171b"/></linearGradient><style>.zag-3,.zag-7{fill:none}.zag-3{stroke:#000}.zag-3,.zag-7{stroke-linecap:round;stroke-linejoin:round}.zag-3{stroke-width:10px}.zag-7{stroke:#fff;stroke-width:6px}</style></defs><path d="M640.3 753.4c-8.3 43.3 13.3 40.2 47.2 47.4 23.5 8.7 69.4 20.7 93.2 11.7 67.7 40.5 151.2-100.7 43.1-76.6-23.7 8.5-48.5 1.2-72.5 8.1-36.7 21.1-70.6 19.9-111 9.4Z" style="fill:url(#zag)"/><path d="M847.7 732.2c5.3 19.7-19.2 34.8 2.5 53.1 31.1 14.3 37.8-60.9-2.5-53.1Z" style="fill:url(#zag-2)"/><path class="zag-3" d="M640.3 755c39.4-4.4 40 60.7 83.4 55.8"/><path class="zag-3" d="M659.7 757.4a80 80 0 0 1 39.7 7.6m-54.7 24.2c12.8 5.5 26 10.9 39.9 11.1 2.8.1 5.6-.1 8.4.1m86.6 12.3c-15.6 7-35.1 5.7-50.4-2.2-13.5-12.7-15.9-34.4-29.8-47.3 12.3-5.7 28.2-6.9 40.9-2 24.9 9.5 24.7 47.4 50.3 55.1 29.8 9 52.4.1 71.5-25.4 9.8-13.2 21.7-31.8 11.4-47.1-17.9-26.6-60.7-.5-87-1.2"/><path class="zag-3" d="M848.1 732c-4.7 3.6 4.6 9.1-5.1 25-7.7 12.6 1.3 31.9 16.9 32.4"/><path d="M861.7 704.3c1.5 19.1 25.4 19.7 24.4-13.6-1-31.4 37.5-39.2 25.1-82.2-8.2-28.8-47.4-20.7-34.5 9.3 2.4 5.5 7.9 10.3 6.8 16.2s-9.8 9-14.2 4c-3.1-3.5-3.2-9.5-7.2-12-8.4-5.3-24.8 11.9-9 31.6 11.9 14.8 7 26.6 8.6 46.7Z" style="fill:url(#zag-3);stroke-width:10px;stroke-linecap:round;stroke-linejoin:round;stroke:#000"/><path class="zag-3" d="M640.5 742.5c-4.3 18.7-1.4 38.2 1.8 57.1"/><path class="zag-3" d="M582.2 761.4C570 663.5 673.6 655 673.6 755m.7 45.8c4.6 84.1-87.2 86.6-87.2 7.8m140.2-52.5c56.6-35.3 93.1-6 112.2 52.1"/><path d="M581.5 762.4c-13-32.9 2.9-79.3 40.4-78.4M646 787.9c-2.3-10.5-6-30.5 10.2-25.5 7.1 2.2 17 24.6 27.3 33.6m13-31c11.1 11.4 13.9 28.7 24.3 40.6m6.5-47.2c26.2 5.8 28.8 38.2 47.3 52.4m29.7-66c16.6 11.6 32.5 29.3 37.6 49 3.4 13.6 16.1-1.1 4.1-1.7m3.9-57.7c3.4 20.5-17 39.5 10.8 52m-273.6 22.2c-8.6 36.3 29.6 78.8 63.3 51.6" style="opacity:.6;stroke-width:10px;stroke-linecap:round;stroke-linejoin:round;stroke:#000;fill:none"/><path d="M633.6 701.4c9.5 0 16.9 9.5 19.3 18.7m4.1 13.2.8 4.4m2.1 74.9c1.3 9.8-1.5 19.3-9.5 28m-10.4 8.6-1.7.7" style="stroke:#fff;stroke-width:10px;stroke-linecap:round;stroke-linejoin:round;fill:none"/><path class="zag-7" d="M655.5 783.8c1.9.9 3.8 1.6 5.7 2.3m6.8 2.8 1.9.4m23.5-4a48.2 48.2 0 0 0 12 13m21.3-8.9c2.6 5.9 6.2 11.9 11.4 13.1m49.2-49.2c7.6 3.7 15.4 8.1 19.6 15.4m3.6 5.9 1 1.9M781 796.2c2.5 5.3 7.9 8.7 13.5 10.5m8.2 2.1 1.8.5m86.1-207.5a10.6 10.6 0 0 1 9.2 7.5m2.9 7.7.2 1.3"/><path d="M855.5 639.6c-1.3 3.3.6 6.9 2.4 9.8" style="stroke-width:5px;stroke:#fff;stroke-linecap:round;stroke-linejoin:round;fill:none"/><path class="zag-7" d="m744.8 805.3 1.8.2m-58.5-27.4.9 1.2"/><defs><linearGradient id="zk" x1="474.52" y1="537.34" x2="581.87" y2="537.34" gradientUnits="userSpaceOnUse"><stop offset="0" stop-color="#ff003b"/><stop offset="1" stop-color="#ffc400"/></linearGradient><linearGradient id="zk-2" x1="613.35" y1="577.54" x2="714.17" y2="577.54" xlink:href="#zk"/><style>.zk-4{fill:#fff}.zk-5,.zk-6{fill:none;stroke-linecap:round;stroke-linejoin:round;stroke-width:10px;stroke:#000}.zk-6{opacity:.6}</style></defs><path d="M576 489.1c-17.4-85.3-98.8-65.1-101.4 39.1-2.3 90 96.1 176.5 107.3 38.1Z" style="fill:url(#zk)"/><path d="M613.4 565.6c29.9 106.6 123 59.5 95.9-37Z" style="fill:url(#zk-2)"/><path d="M526.5 440.7c50.5 50 45.2 135.7 17 196 37.7 7.8 36-81.4 36.3-112.5 1-81.4-43.2-91.8-53.3-83.5Zm170 106.9c-2 25.4-12.1 49-23.7 71.4-4.3 25.7 52.1-24.9 39.8-78.7Z" style="fill:#94948a"/><path class="zk-4" d="M488.9 586.9c21.3-28.5 56.9-35.5 90.4-25.6 209.2 62.3 134.9-215.9 35.6-107.9-37.2 40.4-82.4 88.4-138 60.2-6.4 25-1.7 51.5 12 73.3Z"/><path class="zk-4" d="M708.7 467.1c18.2-7.9 25.2-30.7 41.5-41.9 114.2-78.4 170.2 163.9-51.5 120.6Z"/><path class="zk-5" d="M576 489.1c-17.4-85.3-98.8-65.1-101.4 39.1-2.3 90 96.1 176.5 107.3 38.1"/><path class="zk-5" d="M521.5 438.1a99.2 99.2 0 0 1 38.2 65.5m2.1 56c4.3 26.8-6.9 54.1-21.2 77.1"/><path class="zk-5" d="M477.4 513.2c55.1 28.6 100.3-19.4 137.5-59.8 99.3-108 173.6 170.2-35.6 107.9-33.5-9.9-69.1-2.9-90.4 25.6"/><path class="zk-5" d="M708.7 467.1c18.2-7.9 25.2-30.7 41.5-41.9 114.2-78.4 170.2 163.9-51.5 120.6m-82.1 27c4.9 42.5 82.5 107.7 99.3-22.9v1.2"/><path class="zk-5" d="M697.1 548.4c-1.4 23.6-13.3 56.8-29 77.6m.3-167.4a76.1 76.1 0 0 1 14.7 67.5m124.8-91.3a69.7 69.7 0 0 1 13 61.3"/><path class="zk-6" d="M506.3 441.7c-72.3 36.4-27.5 243.7 48.6 193.6m29.5-66.9a99.1 99.1 0 0 0 26.3 7.9c5.9 26.1 32.6 61.4 62.5 50.7m41.1-160c11.4 24.2 5.2 52.5-6.1 75.6m9.7 11.9c38.6 9.2 83.9 1.6 114.9-24.2"/><path class="zk-6" d="M481.5 517.8a138.1 138.1 0 0 0 8.7 61.4"/><path d="M522.6 458.1a49.6 49.6 0 0 1 12.4 20.3m4.2 11.4.6 3.3m10.6 79.3a92.1 92.1 0 0 1-7.9 27.3m-5.1 11.6-1.5 3M676 580.6a72.7 72.7 0 0 1-9.6 21.9" style="stroke:#fff;fill:none;stroke-linecap:round;stroke-linejoin:round;stroke-width:10px"/><style>.st68{fill:none;stroke-width:10;stroke-linecap:round;stroke-linejoin:round;stroke-miterlimit:10;opacity:.6;stroke:#000;enable-background:new}</style><g id="Target"><path class="st68" d="M519 277c32 24 63 50 92 77.3L519 277z"/><path class="st68" d="M535 358c28-34 48-57 74.5-89"/><path d="m526.5 277 86.5 71m-82 7c29.8-32 50.6-60 78-90" style="stroke:#f01;fill:none;stroke-width:10;stroke-linecap:round;stroke-linejoin:round;stroke-miterlimit:10"/></g><circle cx="550" cy="550" r="500" style="fill:none;stroke:#000;stroke-width:10;stroke-linecap:round;stroke-linejoin:round;stroke-miterlimit:10"/></svg>