<svg version="1.1" id="Layer_1" xmlns="http://www.w3.org/2000/svg" x="0" y="0" viewBox="0 0 1100 1100" style="enable-background:new 0 0 1100 1100" xml:space="preserve" xmlns:xlink="http://www.w3.org/1999/xlink"><style type="text/css">.st301{fill:#005BEF;stroke:#000000;stroke-width:10;stroke-linecap:round;stroke-linejoin:round;stroke-miterlimit:10;}</style><circle class="st301" cx="550" cy="553.7" r="500"/><linearGradient id="a8" gradientUnits="userSpaceOnUse" x1="558.119" y1="436.228" x2="806.198" y2="309.187" gradientTransform="matrix(1 0 0 -1 0 1100)"><stop offset="0" style="stop-color:#03fcf4"/><stop offset=".089" style="stop-color:#03f2f4"/><stop offset=".244" style="stop-color:#03d5f5"/><stop offset=".446" style="stop-color:#03a8f7"/><stop offset=".686" style="stop-color:#0368f9"/><stop offset=".957" style="stop-color:#0318fc"/><stop offset="1" style="stop-color:#030bfc"/></linearGradient><path style="fill:url(#a8)" d="M777.5 632.2c-21 64 38 96 31 151-4 29-37 44-59 23-39 0 84 96-74 61.8l-98-255 200 19v.2z"/><linearGradient id="b4" gradientUnits="userSpaceOnUse" x1="173.214" y1="619.428" x2="438.218" y2="483.425" gradientTransform="matrix(1 0 0 -1 0 1100)"><stop offset="0" style="stop-color:#03fcf4"/><stop offset=".089" style="stop-color:#03f2f4"/><stop offset=".244" style="stop-color:#03d5f5"/><stop offset=".446" style="stop-color:#03a8f7"/><stop offset=".686" style="stop-color:#0368f9"/><stop offset=".957" style="stop-color:#0318fc"/><stop offset="1" style="stop-color:#030bfc"/></linearGradient><path style="fill:url(#b4)" d="M331 377.1c-59 101.5-46 59.7-77 80.7-27 18-93-2-93 37 6 29.8 36 8.5 48 20 16.5 28-46 23-13 56.7 10.7-1 12 9.6 12 18 0 41 56 5 46 90 6 41 63 35 53.5-7.9-12-53.5 59-31 9.6 55.8-4 34 41 54 54.5 19l-42-202.6 70.9-144.5L331 377v.1z"/><linearGradient id="c3" gradientUnits="userSpaceOnUse" x1="342.781" y1="569.57" x2="468.781" y2="505.57" gradientTransform="matrix(1 0 0 -1 0 1100)"><stop offset="0" style="stop-color:#03fcf4"/><stop offset=".089" style="stop-color:#03f2f4"/><stop offset=".244" style="stop-color:#03d5f5"/><stop offset=".446" style="stop-color:#03a8f7"/><stop offset=".686" style="stop-color:#0368f9"/><stop offset=".957" style="stop-color:#0318fc"/><stop offset="1" style="stop-color:#030bfc"/></linearGradient><path style="fill:url(#c3)" d="M331 545c2 0 123 8 129 8.3l-5 70.8-124-79.4v.3z"/><linearGradient id="d3" gradientUnits="userSpaceOnUse" x1="192.925" y1="662.852" x2="343.925" y2="585.852" gradientTransform="matrix(1 0 0 -1 0 1100)"><stop offset="0" style="stop-color:#03fcf4"/><stop offset=".089" style="stop-color:#03f2f4"/><stop offset=".244" style="stop-color:#03d5f5"/><stop offset=".446" style="stop-color:#03a8f7"/><stop offset=".686" style="stop-color:#0368f9"/><stop offset=".957" style="stop-color:#0318fc"/><stop offset="1" style="stop-color:#030bfc"/></linearGradient><path style="fill:url(#d3)" d="M333 383s39.8 16 59 24.2L330 545s-123 30.6-123 30c-9.6-3-26-12-19.7-22 10.9-17 59-39.8-12-39.8-19.7 0-16-35 1-41.8 10-4 15 11 103-20C305 426 320 398 333 382.6v.4z"/><linearGradient id="e3" gradientUnits="userSpaceOnUse" x1="286.992" y1="458.984" x2="489.992" y2="354.984" gradientTransform="matrix(1 0 0 -1 0 1100)"><stop offset="0" style="stop-color:#03fcf4"/><stop offset=".089" style="stop-color:#03f2f4"/><stop offset=".244" style="stop-color:#03d5f5"/><stop offset=".446" style="stop-color:#03a8f7"/><stop offset=".686" style="stop-color:#0368f9"/><stop offset=".957" style="stop-color:#0318fc"/><stop offset="1" style="stop-color:#030bfc"/></linearGradient><path style="fill:url(#e3)" d="M370 736.6c-12-64-28-126.5-40-191.7l125 79.3 33.5-10s-33 200-33 201C369 878 384 757 370 736.6z"/><linearGradient id="f3" gradientUnits="userSpaceOnUse" x1="439.222" y1="373.432" x2="708.222" y2="235.432" gradientTransform="matrix(1 0 0 -1 0 1100)"><stop offset="0" style="stop-color:#03fcf4"/><stop offset=".089" style="stop-color:#03f2f4"/><stop offset=".244" style="stop-color:#03d5f5"/><stop offset=".446" style="stop-color:#03a8f7"/><stop offset=".686" style="stop-color:#0368f9"/><stop offset=".957" style="stop-color:#0318fc"/><stop offset="1" style="stop-color:#030bfc"/></linearGradient><path style="fill:url(#f3)" d="M455 817.1c11.5-68 23-137 34-204.8l103 38s83.5 217 83 217c-38 12 25 108-48 107.6-50-5-29-103-86-109.9 4 32-31 59.6-51 25-12-24.5-2-61-35-72.9z"/><linearGradient id="g1" gradientUnits="userSpaceOnUse" x1="532.938" y1="679.879" x2="827.935" y2="528.88" gradientTransform="matrix(1 0 0 -1 0 1100)"><stop offset="0" style="stop-color:#03fcf4"/><stop offset=".089" style="stop-color:#03f2f4"/><stop offset=".244" style="stop-color:#03d5f5"/><stop offset=".446" style="stop-color:#03a8f7"/><stop offset=".686" style="stop-color:#0368f9"/><stop offset=".957" style="stop-color:#0318fc"/><stop offset="1" style="stop-color:#030bfc"/></linearGradient><path style="fill:url(#g1)" d="M795 370.7c7.5 30-8 63 0 93.1 9 34 71 72 29.9 108-18 0-17-9-46 67.3l-200.8-12.3-28-255.8h244.8l.1-.3z"/><linearGradient id="h1" gradientUnits="userSpaceOnUse" x1="638.618" y1="629.254" x2="830.554" y2="531.286" gradientTransform="matrix(1 0 0 -1 0 1100)"><stop offset="0" style="stop-color:#03fcf4"/><stop offset=".089" style="stop-color:#03f2f4"/><stop offset=".244" style="stop-color:#03d5f5"/><stop offset=".446" style="stop-color:#03a8f7"/><stop offset=".686" style="stop-color:#0368f9"/><stop offset=".957" style="stop-color:#0318fc"/><stop offset="1" style="stop-color:#030bfc"/></linearGradient><path style="fill:url(#h1)" d="M774 639c-53.5-3.5-104-6-159-9.6l-39.9-44.1 29-8.4 24.5-69.5s164-129.5 165.5-128c-13 153 35 82 43 169.7 3 32-32 17-35 33.1C797 601.5 788 620 774 638.8v.2z"/><linearGradient id="i1" gradientUnits="userSpaceOnUse" x1="614.019" y1="789.038" x2="783.019" y2="703.038" gradientTransform="matrix(1 0 0 -1 0 1100)"><stop offset="0" style="stop-color:#03fcf4"/><stop offset=".089" style="stop-color:#03f2f4"/><stop offset=".244" style="stop-color:#03d5f5"/><stop offset=".446" style="stop-color:#03a8f7"/><stop offset=".686" style="stop-color:#0368f9"/><stop offset=".957" style="stop-color:#0318fc"/><stop offset="1" style="stop-color:#030bfc"/></linearGradient><path style="fill:url(#i1)" d="m642 247.4-59.5 171.4c70.9-9.6 146-17 213-42 7-26-22.5-44-43-50C809 236 695 243 642 247v.4z"/><linearGradient id="j1" gradientUnits="userSpaceOnUse" x1="442.133" y1="833.26" x2="643.133" y2="730.26" gradientTransform="matrix(1 0 0 -1 0 1100)"><stop offset="0" style="stop-color:#03fcf4"/><stop offset=".089" style="stop-color:#03f2f4"/><stop offset=".244" style="stop-color:#03d5f5"/><stop offset=".446" style="stop-color:#03a8f7"/><stop offset=".686" style="stop-color:#0368f9"/><stop offset=".957" style="stop-color:#0318fc"/><stop offset="1" style="stop-color:#030bfc"/></linearGradient><path style="fill:url(#j1)" d="M449.9 240c10 4 22 4 33 1.1 14-4 25-15 36.5-24 11-9 25-17 39-17s27 9 38 17c16 12 32.5 25 52 32.5l-58 224.1L449.9 240z"/><linearGradient id="k" gradientUnits="userSpaceOnUse" x1="357.104" y1="807.111" x2="658.067" y2="653.13" gradientTransform="matrix(1 0 0 -1 0 1100)"><stop offset="0" style="stop-color:#03fcf4"/><stop offset=".089" style="stop-color:#03f2f4"/><stop offset=".244" style="stop-color:#03d5f5"/><stop offset=".446" style="stop-color:#03a8f7"/><stop offset=".686" style="stop-color:#0368f9"/><stop offset=".957" style="stop-color:#0318fc"/><stop offset="1" style="stop-color:#030bfc"/></linearGradient><path style="fill:url(#k)" d="M462 244c-10-2.5-21-5-32-4.5s-22 4-29 12.1-9 21-3 29.6c3 4 7 8 5 12-1.5 3.5-6 4-9.8 4-14 0-27 2-39.7 7.9-12 6-23 16-27 29-2 6-2 13-2 19.7 0 9 1 18 3 26.5l300 126.5-49-106.6L462 244z"/><linearGradient id="l" gradientUnits="userSpaceOnUse" x1="435.046" y1="589.091" x2="595.046" y2="507.091" gradientTransform="matrix(1 0 0 -1 0 1100)"><stop offset="0" style="stop-color:#03fcf4"/><stop offset=".089" style="stop-color:#03f2f4"/><stop offset=".244" style="stop-color:#03d5f5"/><stop offset=".446" style="stop-color:#03a8f7"/><stop offset=".686" style="stop-color:#0368f9"/><stop offset=".957" style="stop-color:#0318fc"/><stop offset="1" style="stop-color:#030bfc"/></linearGradient><path style="fill:url(#l)" d="M629.6 507.4c-8 23-16 47-25 70.4l-149.9 46.8 12-185.6 163 68v.4z"/><linearGradient id="m" gradientUnits="userSpaceOnUse" x1="506.773" y1="513.561" x2="653.773" y2="437.561" gradientTransform="matrix(1 0 0 -1 0 1100)"><stop offset="0" style="stop-color:#03fcf4"/><stop offset=".089" style="stop-color:#03f2f4"/><stop offset=".244" style="stop-color:#03d5f5"/><stop offset=".446" style="stop-color:#03a8f7"/><stop offset=".686" style="stop-color:#0368f9"/><stop offset=".957" style="stop-color:#0318fc"/><stop offset="1" style="stop-color:#030bfc"/></linearGradient><path style="fill:url(#m)" d="M578 586.2c-31 9-58 17-89.8 27.9l163 56.8L578 586v.2z"/><linearGradient id="n" gradientUnits="userSpaceOnUse" x1="441.998" y1="531.996" x2="496.998" y2="503.996" gradientTransform="matrix(1 0 0 -1 0 1100)"><stop offset="0" style="stop-color:#03fcf4"/><stop offset=".089" style="stop-color:#03f2f4"/><stop offset=".244" style="stop-color:#03d5f5"/><stop offset=".446" style="stop-color:#03a8f7"/><stop offset=".686" style="stop-color:#0368f9"/><stop offset=".957" style="stop-color:#0318fc"/><stop offset="1" style="stop-color:#030bfc"/></linearGradient><path style="fill:url(#n)" d="M461 527.8c-2 34-4 65-6 96.7l34-10.6-28-86.1z"/><linearGradient id="o" gradientUnits="userSpaceOnUse" x1="359.947" y1="627.897" x2="470.947" y2="570.897" gradientTransform="matrix(1 0 0 -1 0 1100)"><stop offset="0" style="stop-color:#03fcf4"/><stop offset=".089" style="stop-color:#03f2f4"/><stop offset=".244" style="stop-color:#03d5f5"/><stop offset=".446" style="stop-color:#03a8f7"/><stop offset=".686" style="stop-color:#0368f9"/><stop offset=".957" style="stop-color:#0318fc"/><stop offset="1" style="stop-color:#030bfc"/></linearGradient><path style="fill:url(#o)" d="M391 406.9c-21 48.5-38 86-61 138l129.5 9.1 7.5-115.1-76-32z"/><style>.st40{fill:none;stroke:#000;stroke-width:10;stroke-linecap:round;stroke-linejoin:round;stroke-miterlimit:10}.st98{opacity:.6;enable-background:new}</style><g id="Outline"><path class="st98" d="M793 537c-1 .7-1 2-.5 3 5 10 11 35 25 30 8-2 21-13 18-22.4-.5-1-2-2-3-1.5-26 12-28-11-39-9.4v.3zm-34 274.5c6 5 26 8 25-3-6-7-20.6-12-21.5-26C750 772 744 803 759 811.5zm-219.3 52s1 .5 1 .8c9 13.5-3 36-18 40-34 6-9-6-6-44 .3-5.3 22.3 2.7 23 3.2zM342 731c5 7-4 22-4 33 8 13 29.6-5 33-14.9 2-12-17-21-28-20.2-1 .1-1 1.1-1 2.1zm31-120.2c2 23-8 47-26 61.9-13 10.9-17.5-30.6-8-27.9 6 4.2 28-18.8 34-34zm-157-59.9c-8 6-17 3-25 1-11 5 4 20 13.5 16 5-4 12-9 12-15.7-.5-.2-1.5-.2-.5-1.3zM337 473c-6-10-3-23 0-34 0-1 0-2-.6-2-9-9-23 11-19.8 20.7C318 463 338 475 337 472.8v.2z"/><path class="st98" d="M326 392c-2 29 24 45 7 44-7 2-14 1-15 11-1 11-24 0-24.5-1.3C285 433 317 404.5 326 392zm103-118c-9.9-4-16-16-18-25-4-6-9.9 1-11 6-7 54 29.5 28 29 19zm293 9c16 21 29.5 12 40 20.7 3 4 1 9.6-1 14-3 9-13 9-20 4.1-14.5-5.8-22-22.2-19-38.8z"/><path class="st40" d="M347 729c53.5 5 15 86 59 102 25 9 37-19.8 55-11.9 23 10.1 19.6 40 24 60.7 9.6 46 63 29.6 58-12.8"/><path class="st40" d="M519 861c89-9 47.5 119 114.5 115 39-6 35-47 25-76.5-3-9 0-18.5 7-24.5 24.5-21 59 15.5 84-2.5 15-11 8-33-2-45-12-15 0-32 10-43"/><path class="st40" d="M790 539c53 69.8-64 71 8 194.5 6 14 11 32 11 48.5 0 32-49 47.5-61 16"/><path class="st40" d="M721 287c2 51 64 31 74 88 6 34-11.5 71 7 103 10 18 27 31.5 34 51 8 19-4 47-27 42"/><path class="st40" d="M407 290.6c-16-8-12-29.9-2-41 17-15 40.5-10 61-6 29.8 1 49-29 75-38 50-17 81 55 133 44 23-5 48-11 69 1 25 14 33 55 10 75"/><path class="st40" d="M428 278c-16 26.5-51 17.5-76 28.5-20 10.5-28 33-23 55 10 47-43 51-39 88m25 4.5c1.5-23 35-26 41-5 7 25-13 47 16 72"/><path class="st40" d="M334 476c-20-34-61-31.5-89-9.6-20 8-43-3-64 4-22 7-28 37-5 43.5 6.5 2 23-2 26-1 15 4 11 25-5 30-21 6-10 29 6 29"/><path class="st40" d="M216 554.5c-15 15-14 41 2 55 37 22 41 31 36 69.7-2 31 46 41 53.5 10 2-10.8-4-22 0-33 13-32 44 20 62-44.5"/><path class="st40" d="M327 647.9c25 29.7-.5 47-7 75-10 32.5 34 65 53 25"/><path d="M729 262.5c9 4 16 13 18 22.5m-193-68c12.5 2 24.5 8 34 16m9 9 3 3m-163 10c-5.5-.9-12 .6-15.5 4M362 319.6c-9 2-14 10.7-16 19M339 449c4 1 6 6 6 9.8M308.5 470c-12-6-16-5-22-4M175 492c1-4 5-7 9-7.5m38 89.5c-4 8 0 16 4 19.9m44 78.6c-1 6 1 15 9 18m76-77.5c-3 14-13 14.5-16 16m4.5 119.5c-5-3-9-9-8-15M397 782c-1 14.5 7 28 14 30m90 53.9c-3 12 2 27 14.5 25M636 957c14-3 17-28 11-38m96-60.1c1-7 0-14-4-19m46-49.1c8-6.5 9-25 3-39M786 582c5-8 3-19-3-26m37-12c2-8.5-.6-18-7-24m-56-169c18 6 22 30 21 35" style="opacity:.7882;fill:none;stroke:#fff;stroke-width:10;stroke-linecap:round;stroke-linejoin:round;stroke-miterlimit:10;enable-background:new"/></g><style>.st40,.st68{fill:none;stroke-width:10;stroke-linecap:round;stroke-linejoin:round;stroke-miterlimit:10;stroke:#000}.st68{opacity:.6;enable-background:new}</style><g id="Eye"><linearGradient id="SVGID_00000144327888440828662330000012949225208094602647_" gradientUnits="userSpaceOnUse" x1="232.314" y1="-555.531" x2="336.458" y2="-482.43" gradientTransform="translate(0 1066)"><stop offset="0" style="stop-color:#00ff04"/><stop offset=".811" style="stop-color:#00fccf"/><stop offset="1" style="stop-color:#00fbff"/></linearGradient><path style="fill:url(#SVGID_00000144327888440828662330000012949225208094602647_)" d="M278 494c-31 10.8-13 49-9.5 56 8 16-9 32.5 9 50.8 9 9 46 8 40.7-31-2-13-13-23-13.5-35.8-.7-21-3.7-48-26.7-40z"/><path d="M273 498c-6.5 9-1 22 4 30.8 6 8 13 15 14 25 2 14-6 31 3 43.7 15 18 30.6-23 23-35-3-7-8-13.5-10-20.8-5-16 2-45-21-49" style="opacity:.5098;fill:#fff;enable-background:new"/><path class="st68" d="M274 516c9 24.5 14 39 18 64"/><path class="st40" d="M278 494c-31 10.8-13 49-9.5 56 8 16-9 32.5 9 50.8 9 9 46 8 40.7-31-2-13-13-23-13.5-36C304 513 301 486 278 494z"/><path class="st40" d="M282 526c6 17 10.5 35 14 53"/><path d="M279 515c1 4 2 7 3.5 11m24.5 46.9c1 5 1.5 13-5 19" style="fill:none;stroke:#fff;stroke-width:10;stroke-linecap:round;stroke-linejoin:round;stroke-miterlimit:10"/><path class="st68" d="M264 495.9c-15.5 19-6 44 1 65 3 9-3 18-1 27 4 24 31 31 46 12"/></g><defs><radialGradient id="radial-gradientzaa" cx="765.67" cy="820.76" r="91.18" gradientTransform="matrix(-.16 .83 -1.38 -.03 2001.21 206.15)" gradientUnits="userSpaceOnUse"><stop offset="0" stop-color="#ef0aff"/><stop offset=".09" stop-color="#f10af6"/><stop offset=".24" stop-color="#f50add"/><stop offset=".44" stop-color="#fc0ab4"/><stop offset=".5" stop-color="#ff0aa5"/><stop offset="1" stop-color="#ff120a"/></radialGradient><linearGradient id="zaa" x1="655.87" y1="735.42" x2="729.22" y2="794.94" gradientUnits="userSpaceOnUse"><stop offset="0" stop-color="#ff0a47"/><stop offset="1" stop-color="#f30aff"/></linearGradient><style>.zaa-8{fill:#fff}.zaa-3,.zaa-4{fill:none;stroke-linecap:round;stroke-linejoin:round;stroke:#000;stroke-width:10px}.zaa-4{opacity:.6}.zaa-8{opacity:.42}</style></defs><path d="M746.8 738.6c-5.3-98.1-108.5-6-249.9-53.8-16-5.4-33.6-10.3-49.7-5.1-36.3 11.7-11.4 58.9 7 78.8 57 61.6 153.8 83 228.1 46.5Z" style="fill:#fff"/><path d="M735.1 749.8c-17.4 18.8-28.3 48.2-32.2 73.7-20.1-28.8-49-49.4-76.1-71.1 26.7-1.1 52.2-11.9 77.9-17.4 9.4 5.8 17 11.8 30.4 14.8Z" style="fill:url(#zaa)"/><path class="zaa-3" d="M746.8 738.6c-5.3-98.1-108.5-6-249.9-53.8-16-5.4-33.6-10.3-49.7-5.1-36.3 11.7-11.4 58.9 7 78.8 57 61.6 153.8 83 228.1 46.5"/><path class="zaa-3" d="M619.6 752.8a229 229 0 0 1 86 76m2.5-93.2a64.3 64.3 0 0 0 25.2 15.7M435.1 646.2c-26.5 2.1-46.7 28.8-41.7 54.8"/><path class="zaa-3" d="M743.1 719.5c-71.5 34.3-231 64.9-310.8-21.4"/><path class="zaa-4" d="M435.1 646.2c-28.1-8.1-56.3 32.7-41.7 54.8m41-14.5c-16.4 16.7-7.9 43.9 4.2 60.2 54.4 73.6 162.5 103.4 245.9 66.1 4.1 6.9 11.5 11.7 14 19.3 2.3 12 2.4 24.5 6 36.4"/><path class="zaa-4" d="M432.8 707.1c46.6 52.8 121.3 55.3 186.7 53.9 12.9-.2 37.2 25.2 58.1 41.8m63.3-75c-32.5 14.2-69.6 23.7-105 29.3m87.5-8.2c-21.3 11.1-35.9 28.5-42.5 49.3"/><path d="M433.5 659.7c-8 .9-21.7 9.4-24.2 21.9" style="stroke:#fff;stroke-width:10px;fill:none;stroke-linecap:round;stroke-linejoin:round"/><path d="M659.8 763.9a134.8 134.8 0 0 1 14.3 10" style="stroke-width:8px;stroke:#fff;fill:none;stroke-linecap:round;stroke-linejoin:round"/><ellipse cx="749.8" cy="821.8" rx="107.7" ry="68.9" transform="rotate(-51.8 749.772 821.786)" style="fill:url(#radial-gradientzaa)"/><ellipse class="zaa-8" cx="711.3" cy="899.3" rx="18.2" ry="15" transform="rotate(-76.7 710.867 899.148)"/><ellipse class="zaa-8" cx="778.7" cy="759.5" rx="22.7" ry="16.3" transform="rotate(-61.4 779.5 759.65)"/><ellipse class="zaa-8" cx="814.3" cy="791" rx="14.5" ry="11.3" transform="rotate(-66.8 814.833 791.109)"/><ellipse class="zaa-8" cx="771.4" cy="867.8" rx="25.6" ry="19.9" transform="rotate(-66.8 771.867 867.986)"/><ellipse class="zaa-8" cx="729.4" cy="796.5" rx="22.9" ry="17.8" transform="rotate(-66.8 729.813 796.628)"/><ellipse class="zaa-8" cx="772.3" cy="816.6" rx="12.1" ry="9.4" transform="rotate(-66.8 772.817 816.715)"/><ellipse class="zaa-8" cx="729.3" cy="861" rx="12.1" ry="10.3" transform="rotate(-89.8 728.925 860.985)"/><ellipse class="zaa-8" cx="804.1" cy="833.8" rx="9.6" ry="7.5" transform="rotate(-66.8 804.545 833.937)"/><ellipse class="zaa-8" cx="745.6" cy="748.9" rx="10.5" ry="8.1" transform="rotate(-66.8 746.123 748.958)"/><ellipse class="zaa-8" cx="689.9" cy="800.7" rx="14.1" ry="9.5" transform="rotate(-59 689.062 800.39)"/><ellipse class="zaa-8" cx="696.7" cy="851.2" rx="16.2" ry="10.6" transform="rotate(-58 696.756 851.168)"/><ellipse class="zaa-8" cx="819.8" cy="748.9" rx="10" ry="7" transform="rotate(-60.3 820.367 749.004)"/><ellipse class="zaa-3" cx="749.8" cy="821.8" rx="107.7" ry="68.9" transform="rotate(-51.8 749.772 821.786)"/><path d="M770.6 745.7a128.4 128.4 0 0 0-69.7 58.9m-9.2 16.3a74.3 74.3 0 0 0-3.9 11.2" style="stroke-width:13px;opacity:.82;stroke:#fff;fill:none;stroke-linecap:round;stroke-linejoin:round"/><style>.st40,.st68{fill:none;stroke-width:10;stroke-linecap:round;stroke-linejoin:round;stroke-miterlimit:10;stroke:#000}.st68{opacity:.6;enable-background:new}</style><g id="x"><linearGradient id="SVGID_00000108293349405905417590000007858031186733274302_" gradientUnits="userSpaceOnUse" x1="513.292" y1="1028.154" x2="683.299" y2="731.142" gradientTransform="matrix(1 0 0 -1 0 1410)"><stop offset="0" style="stop-color:#f03"/><stop offset=".221" style="stop-color:#e7005c"/><stop offset=".715" style="stop-color:#ac00c1"/><stop offset="1" style="stop-color:#80f"/></linearGradient><path style="fill:url(#SVGID_00000108293349405905417590000007858031186733274302_);stroke:#000;stroke-width:10;stroke-linecap:round;stroke-linejoin:round;stroke-miterlimit:10" d="M491 487c-16 7-3 23-8.5 33-4 7-14 9.7-21 5-9-6-9-18-11-28.9-4-21-21-39-22.5-60.8-2-33 38-55.8 64-37 38 27 79 115 116 35.9 12-26 23-58 53-67.9 30-9.7 41 29 36 51.5-2.5 11.5-12 21.5-11 33 1 12 12 22.5 11 35-.5 6-5 12.5-12 12-5 0-9-4-14.5-5-18-.5-18 23-6 31.5 18 13 42 18 56.5 36 31 37-12 83-44 46-3-4.5-6-10-11-10.8-16 .5-4 28-21 30-8 .9-15-4-17-12-5.5-20 2-44-21-55-18.5-9-41 8-38 28.4 3 19 30.5 42 10.5 59-9 6-21.5 0-27-9-4-11-17-9-19.9 2-4.5 17-11 29-30 21.5-34-14-32-64.5-4-83.9 46-31.5 26-104-8-89.7v.2z"/><path class="st40" d="M466 429c77 52 155 104 234 154"/><path class="st40" d="M671.5 395c-49.6 75-104 148-158 219.9"/><path class="st68" d="M462 432c75 57 158 103 235 157"/><path class="st68" d="M675 397.9c-46.5 78-103 148-157 221M434 408c-24 29 0 55 10 83 4 12 2 33 19 36m30-37c35 2 31 58 13 78-6 7-14 13-19.8 19.9-24 24-16 74 21 77M589 563c42 0 21 48 47 63m29-24.1c3 9 19 18 28 19M660.5 365c-51 10.9-46 80-88 102"/><path d="M459 410c8-3 18-3 24 4m11 8.4 2 2M687 398c2 7 1 14-2 20m-4 11c0 .6-1 1-1 2m25 134c10 6.5 17 19 13 31.5m-7 9.5c-.5.5-1 1-1.5 2M567 618c4 4 6 8.5 7 14m-80-18c-2 11 1 22 9 29.9m9.5 7.2 2 .9" style="fill:none;stroke:#fff;stroke-width:10;stroke-linecap:round;stroke-linejoin:round;stroke-miterlimit:10"/></g><style>.st40,.st68{fill:none;stroke:#000;stroke-width:10;stroke-linecap:round;stroke-linejoin:round;stroke-miterlimit:10}.st68{opacity:.6;enable-background:new}</style><g id="Transmit"><linearGradient id="SVGID_00000127734904184448701060000009899486580737071243_" gradientUnits="userSpaceOnUse" x1="542.818" y1="876.092" x2="557.818" y2="742.092" gradientTransform="matrix(1 0 0 -1 0 1100)"><stop offset="0" style="stop-color:#00ffd0"/><stop offset=".104" style="stop-color:#00f3d3"/><stop offset=".293" style="stop-color:#00d2da"/><stop offset=".547" style="stop-color:#009de6"/><stop offset=".852" style="stop-color:#0055f7"/><stop offset="1" style="stop-color:#002fff"/></linearGradient><path style="fill:url(#SVGID_00000127734904184448701060000009899486580737071243_)" d="M549 237.6c-12 19-23 38.5-34 58.4l47 44.7 22-69.5-35-33.6z"/><linearGradient id="SVGID_00000150060648064343517610000006857265343630394550_" gradientUnits="userSpaceOnUse" x1="529.9" y1="863.989" x2="536.9" y2="798.989" gradientTransform="matrix(1 0 0 -1 0 1100)"><stop offset="0" style="stop-color:#00ffd0"/><stop offset=".104" style="stop-color:#00f3d3"/><stop offset=".293" style="stop-color:#00d2da"/><stop offset=".547" style="stop-color:#009de6"/><stop offset=".852" style="stop-color:#0055f7"/><stop offset="1" style="stop-color:#002fff"/></linearGradient><path style="fill:url(#SVGID_00000150060648064343517610000006857265343630394550_)" d="M548 241c2 2 1 10 5 49.3-11 1.5-25 4-35 5.4l30-54.7z"/><linearGradient id="SVGID_00000103974633343853836120000000367405727942247351_" gradientUnits="userSpaceOnUse" x1="584.31" y1="809.646" x2="552.31" y2="781.646" gradientTransform="matrix(1 0 0 -1 0 1100)"><stop offset="0" style="stop-color:#00ffd0"/><stop offset=".099" style="stop-color:#00f6d2"/><stop offset=".262" style="stop-color:#00ddd8"/><stop offset=".469" style="stop-color:#00b4e1"/><stop offset=".713" style="stop-color:#007bee"/><stop offset=".984" style="stop-color:#0034fe"/><stop offset="1" style="stop-color:#002fff"/></linearGradient><path style="fill:url(#SVGID_00000103974633343853836120000000367405727942247351_)" d="M554 290c2 18 4.5 31 6 48.5l19.6-50.9L554 290z"/><linearGradient id="SVGID_00000175290621592340520880000014853312583583039662_" gradientUnits="userSpaceOnUse" x1="562.39" y1="811.688" x2="530.39" y2="771.688" gradientTransform="matrix(1 0 0 -1 0 1100)"><stop offset="0" style="stop-color:#00ffd0"/><stop offset=".104" style="stop-color:#00f3d3"/><stop offset=".293" style="stop-color:#00d2da"/><stop offset=".547" style="stop-color:#009de6"/><stop offset=".852" style="stop-color:#0055f7"/><stop offset="1" style="stop-color:#002fff"/></linearGradient><path style="fill:url(#SVGID_00000175290621592340520880000014853312583583039662_)" d="M519 296c9.8-2 28-4 35-5.5l6 46.9-41-41.7v.3z"/><linearGradient id="SVGID_00000160910735292254152780000008448727389273966231_" gradientUnits="userSpaceOnUse" x1="675.74" y1="887.689" x2="552.74" y2="990.689" gradientTransform="matrix(1 0 0 -1 0 1100)"><stop offset="0" style="stop-color:#0400ff"/><stop offset=".214" style="stop-color:#0341f4"/><stop offset=".5" style="stop-color:#0291e6"/><stop offset=".736" style="stop-color:#01cddd"/><stop offset=".908" style="stop-color:#00f1d6"/><stop offset="1" style="stop-color:#00ffd4"/></linearGradient><path style="fill:url(#SVGID_00000160910735292254152780000008448727389273966231_)" d="M586 172.4c-7.5 37-17 73.5-29 109.3l106-92.1-26-7s89.7-97 89-97c-13.5-12-35-15-53-17.2l-34 71-8-24.8-30 73.5-15-16.1v.4z"/><linearGradient id="SVGID_00000022529941660613312940000016512510607446133916_" gradientUnits="userSpaceOnUse" x1="619.886" y1="971.899" x2="750.886" y2="823.899" gradientTransform="matrix(1 0 0 -1 0 1100)"><stop offset="0" style="stop-color:#0040ff"/><stop offset=".114" style="stop-color:#1f36ff"/><stop offset=".341" style="stop-color:#5823ff"/><stop offset=".55" style="stop-color:#8414ff"/><stop offset=".737" style="stop-color:#a409ff"/><stop offset=".893" style="stop-color:#b802ff"/><stop offset="1" style="stop-color:#bf00ff"/></linearGradient><path style="fill:url(#SVGID_00000022529941660613312940000016512510607446133916_)" d="M559.6 287.3c31-35 65-67 101-97.4l-26-8s94-97 95-96c5-1 9.8 1 14.5 3 29 12 57 26 81.5 44.3l-109 71.7 24 10-181 72.1v.3z"/><linearGradient id="SVGID_00000142898874918184540610000016770726687242683319_" gradientUnits="userSpaceOnUse" x1="686.196" y1="943.103" x2="766.196" y2="791.103" gradientTransform="matrix(1 0 0 -1 0 1100)"><stop offset="0" style="stop-color:#ff00e1"/><stop offset=".143" style="stop-color:#ea00e4"/><stop offset=".441" style="stop-color:#b200ed"/><stop offset=".864" style="stop-color:#5a00fa"/><stop offset="1" style="stop-color:#3c00ff"/></linearGradient><path style="fill:url(#SVGID_00000142898874918184540610000016770726687242683319_)" d="M567 287.3c47-2 93.5-6 139.9-11.8L688 256l118-11.4-24-20s105-43 104.5-44c-19-18-39.9-33.5-63-46.2l-107 70 21.5 10.1L567 287v.3z"/><path class="st40" d="m676 68.2-39 74-5-35-33 84.9-13-22.1-33 119.7 156-12.5-23-20.2 121-11.2-27-21.4 107-39.9"/><path class="st40" d="m554 289.3 111-100.9-31-6.6L729 84m94 49c-38 25-73 47-109 71.3l29 9.3-184 72"/><path class="st40" d="M562 250c-4-5-9-9.6-14-14.2l-33 60.4 47 48.5 18.5-55"/><path class="st68" d="M544 235c-15 23-24 39.5-37 62 0 0 54 52 55 52.9 9-19.9 18-39.9 26-59.9"/><path class="st68" d="M559 277c34-32 62.5-58 93-87.9l-25-6.2 93-100m99 45.1c-41 28-76 51-113 76.5l22.5 9.7-152 59"/></g><circle cx="550" cy="550" r="500" style="fill:none;stroke:#000;stroke-width:10;stroke-linecap:round;stroke-linejoin:round;stroke-miterlimit:10"/></svg>