<svg version="1.1" id="Layer_1" xmlns="http://www.w3.org/2000/svg" x="0" y="0" viewBox="0 0 1100 1100" style="enable-background:new 0 0 1100 1100" xml:space="preserve" xmlns:xlink="http://www.w3.org/1999/xlink"><circle cx="550" cy="550" r="500" style="fill:#2e2e2e"/><linearGradient id="a1" gradientUnits="userSpaceOnUse" x1="264.957" y1="853.134" x2="422.298" y2="853.134"><stop offset="0" style="stop-color:#00ff90"/><stop offset="1" style="stop-color:#c800ff"/></linearGradient><circle cx="343" cy="853" r="78" style="fill:url(#a1);stroke:#000;stroke-width:10;stroke-linecap:round;stroke-linejoin:round;stroke-miterlimit:10"/><linearGradient id="b1" gradientUnits="userSpaceOnUse" x1="826.38" y1="645.312" x2="919.38" y2="645.312"><stop offset="0" style="stop-color:#f7ff00"/><stop offset="1" style="stop-color:#ff5e00"/></linearGradient><ellipse style="fill:url(#b1);stroke:#000;stroke-width:10;stroke-linecap:round;stroke-linejoin:round;stroke-miterlimit:10" cx="873" cy="645" rx="46.5" ry="53"/><linearGradient id="c1" gradientUnits="userSpaceOnUse" x1="179.591" y1="404.219" x2="384.591" y2="404.219"><stop offset="0" style="stop-color:#0073ff"/><stop offset="1" style="stop-color:#8c00ff"/></linearGradient><ellipse style="fill:url(#c1);stroke:#000;stroke-width:10;stroke-linecap:round;stroke-linejoin:round;stroke-miterlimit:10" cx="282" cy="404" rx="102.5" ry="111"/><linearGradient id="d1" gradientUnits="userSpaceOnUse" x1="766.562" y1="310.33" x2="944.562" y2="310.33"><stop offset="0" style="stop-color:#7300ff"/><stop offset="1" style="stop-color:#ff008c"/></linearGradient><ellipse style="fill:url(#d1);stroke:#000;stroke-width:10;stroke-linecap:round;stroke-linejoin:round;stroke-miterlimit:10" cx="856" cy="310" rx="89" ry="95"/><linearGradient id="e1" gradientUnits="userSpaceOnUse" x1="615.769" y1="857.232" x2="845.269" y2="857.232"><stop offset="0" style="stop-color:#f0b"/><stop offset="1" style="stop-color:#f40"/></linearGradient><circle style="fill:url(#e1);stroke:#000;stroke-width:10;stroke-linecap:round;stroke-linejoin:round;stroke-miterlimit:10" cx="730.5" cy="857" r="115"/><linearGradient id="f1" gradientUnits="userSpaceOnUse" x1="115.411" y1="614.727" x2="186.411" y2="614.727"><stop offset="0" style="stop-color:#00ff90"/><stop offset="1" style="stop-color:#006fff"/></linearGradient><circle style="fill:url(#f1);stroke:#000;stroke-width:10;stroke-linecap:round;stroke-linejoin:round;stroke-miterlimit:10" cx="150.9" cy="615" r="35.5"/><path d="M313 326.3c18 9.9 33 27 39.6 46m7 22.7 1 7m509.9-163.1c19 5 34 19.6 41 38m6 22c1 3 1.5 5 2 8M879 609.4c9 4 16 11 19.8 20m.7 19.6-.5 5M759 766.9c25 9 44 31 49.9 56.5m7.1 23.7c1 4 1 7 .5 10.8M364 799.3c16 6 29 22 31 39m0 22.7-2 6M153.5 595.4c7 1 12 6 14 12" style="opacity:.8118;fill:none;stroke:#fff;stroke-width:16;stroke-linecap:round;stroke-linejoin:round;stroke-miterlimit:10;stroke-dasharray:0,0,0,0,0,0"/><path d="M533 209.1c-68 59.6-71 20-121 36.5-19.6 10.9-14 30-9.7 39.6 11 23-51 9-69 40.3-10 18 .1 42-7.5 61.8-9 19.6-34 35-37 52.2-43 48-154 7-119 70.4 6 11 33-6 39 9.1 7 17.5-39 29-21 46.7 18 5 21 39.9 57 63.2 14 20 3 51 19 69.1 35.8 38 46-25 41-34.3 4-39 44-11 22 38.7-23 52 11 74 36.5 56.6 24-9 13 39 23 50.9 19.5 37 55 12 67 12 18 1 28 22 29.8 40.3 6.5 63 54 46 59 8 15.5-34 45 49 47 59.9 11 73 69 42 71 17.9 3-54-3-60.1 2-68.3 18.5-31 71 13 90.8-15.5 14-19.7-31-63.5 8-55.4 94 19 19-101 14-120.4-9-35.5 14-106 47-121.7 18-9 17-35.5 7-52.8-9.5-17-25-30.6-31-48.9-13.5-54 22-102-36-133.3-5-3-7-9.5-4-14.4 17-26 1-66-32-71.4-22-3-44 9-66.5 6.3C616 247 579.9 178 533 209.1z" style="fill:#a8fffb"/><style>.st40{fill:none;stroke:#000;stroke-width:10;stroke-linecap:round;stroke-linejoin:round;stroke-miterlimit:10}.st98{opacity:.6;enable-background:new}</style><g id="Outline"><path class="st98" d="M793 537c-1 .7-1 2-.5 3 5 10 11 35 25 30 8-2 21-13 18-22.4-.5-1-2-2-3-1.5-26 12-28-11-39-9.4v.3zm-34 274.5c6 5 26 8 25-3-6-7-20.6-12-21.5-26C750 772 744 803 759 811.5zm-219.3 52s1 .5 1 .8c9 13.5-3 36-18 40-34 6-9-6-6-44 .3-5.3 22.3 2.7 23 3.2zM342 731c5 7-4 22-4 33 8 13 29.6-5 33-14.9 2-12-17-21-28-20.2-1 .1-1 1.1-1 2.1zm31-120.2c2 23-8 47-26 61.9-13 10.9-17.5-30.6-8-27.9 6 4.2 28-18.8 34-34zm-157-59.9c-8 6-17 3-25 1-11 5 4 20 13.5 16 5-4 12-9 12-15.7-.5-.2-1.5-.2-.5-1.3zM337 473c-6-10-3-23 0-34 0-1 0-2-.6-2-9-9-23 11-19.8 20.7C318 463 338 475 337 472.8v.2z"/><path class="st98" d="M326 392c-2 29 24 45 7 44-7 2-14 1-15 11-1 11-24 0-24.5-1.3C285 433 317 404.5 326 392zm103-118c-9.9-4-16-16-18-25-4-6-9.9 1-11 6-7 54 29.5 28 29 19zm293 9c16 21 29.5 12 40 20.7 3 4 1 9.6-1 14-3 9-13 9-20 4.1-14.5-5.8-22-22.2-19-38.8z"/><path class="st40" d="M347 729c53.5 5 15 86 59 102 25 9 37-19.8 55-11.9 23 10.1 19.6 40 24 60.7 9.6 46 63 29.6 58-12.8"/><path class="st40" d="M519 861c89-9 47.5 119 114.5 115 39-6 35-47 25-76.5-3-9 0-18.5 7-24.5 24.5-21 59 15.5 84-2.5 15-11 8-33-2-45-12-15 0-32 10-43"/><path class="st40" d="M790 539c53 69.8-64 71 8 194.5 6 14 11 32 11 48.5 0 32-49 47.5-61 16"/><path class="st40" d="M721 287c2 51 64 31 74 88 6 34-11.5 71 7 103 10 18 27 31.5 34 51 8 19-4 47-27 42"/><path class="st40" d="M407 290.6c-16-8-12-29.9-2-41 17-15 40.5-10 61-6 29.8 1 49-29 75-38 50-17 81 55 133 44 23-5 48-11 69 1 25 14 33 55 10 75"/><path class="st40" d="M428 278c-16 26.5-51 17.5-76 28.5-20 10.5-28 33-23 55 10 47-43 51-39 88m25 4.5c1.5-23 35-26 41-5 7 25-13 47 16 72"/><path class="st40" d="M334 476c-20-34-61-31.5-89-9.6-20 8-43-3-64 4-22 7-28 37-5 43.5 6.5 2 23-2 26-1 15 4 11 25-5 30-21 6-10 29 6 29"/><path class="st40" d="M216 554.5c-15 15-14 41 2 55 37 22 41 31 36 69.7-2 31 46 41 53.5 10 2-10.8-4-22 0-33 13-32 44 20 62-44.5"/><path class="st40" d="M327 647.9c25 29.7-.5 47-7 75-10 32.5 34 65 53 25"/><path d="M729 262.5c9 4 16 13 18 22.5m-193-68c12.5 2 24.5 8 34 16m9 9 3 3m-163 10c-5.5-.9-12 .6-15.5 4M362 319.6c-9 2-14 10.7-16 19M339 449c4 1 6 6 6 9.8M308.5 470c-12-6-16-5-22-4M175 492c1-4 5-7 9-7.5m38 89.5c-4 8 0 16 4 19.9m44 78.6c-1 6 1 15 9 18m76-77.5c-3 14-13 14.5-16 16m4.5 119.5c-5-3-9-9-8-15M397 782c-1 14.5 7 28 14 30m90 53.9c-3 12 2 27 14.5 25M636 957c14-3 17-28 11-38m96-60.1c1-7 0-14-4-19m46-49.1c8-6.5 9-25 3-39M786 582c5-8 3-19-3-26m37-12c2-8.5-.6-18-7-24m-56-169c18 6 22 30 21 35" style="opacity:.7882;fill:none;stroke:#fff;stroke-width:10;stroke-linecap:round;stroke-linejoin:round;stroke-miterlimit:10;enable-background:new"/></g><style>.st40,.st68{fill:none;stroke-width:10;stroke-linecap:round;stroke-linejoin:round;stroke-miterlimit:10;stroke:#000}.st68{opacity:.6;enable-background:new}</style><g id="Eye"><linearGradient id="SVGID_00000144327888440828662330000012949225208094602647_" gradientUnits="userSpaceOnUse" x1="232.314" y1="-555.531" x2="336.458" y2="-482.43" gradientTransform="translate(0 1066)"><stop offset="0" style="stop-color:#00ff04"/><stop offset=".811" style="stop-color:#00fccf"/><stop offset="1" style="stop-color:#00fbff"/></linearGradient><path style="fill:url(#SVGID_00000144327888440828662330000012949225208094602647_)" d="M278 494c-31 10.8-13 49-9.5 56 8 16-9 32.5 9 50.8 9 9 46 8 40.7-31-2-13-13-23-13.5-35.8-.7-21-3.7-48-26.7-40z"/><path d="M273 498c-6.5 9-1 22 4 30.8 6 8 13 15 14 25 2 14-6 31 3 43.7 15 18 30.6-23 23-35-3-7-8-13.5-10-20.8-5-16 2-45-21-49" style="opacity:.5098;fill:#fff;enable-background:new"/><path class="st68" d="M274 516c9 24.5 14 39 18 64"/><path class="st40" d="M278 494c-31 10.8-13 49-9.5 56 8 16-9 32.5 9 50.8 9 9 46 8 40.7-31-2-13-13-23-13.5-36C304 513 301 486 278 494z"/><path class="st40" d="M282 526c6 17 10.5 35 14 53"/><path d="M279 515c1 4 2 7 3.5 11m24.5 46.9c1 5 1.5 13-5 19" style="fill:none;stroke:#fff;stroke-width:10;stroke-linecap:round;stroke-linejoin:round;stroke-miterlimit:10"/><path class="st68" d="M264 495.9c-15.5 19-6 44 1 65 3 9-3 18-1 27 4 24 31 31 46 12"/></g><style>.st40{fill:none;stroke:#000;stroke-width:10;stroke-linecap:round;stroke-linejoin:round;stroke-miterlimit:10}</style><g id="Buck_Teeth"><path d="M408 710c-35-29 16.5-71 37-38m262 13c26-29 68 8 43 37m-273 57.8c55 36 130 42 191 15.5M440 698c14 16 34 28.5 53 38m80 23c12 1 24 1 36 1m103-46c-7 7-15 13-22 19.5" style="opacity:.6;enable-background:new;fill:none;stroke:#000;stroke-width:10;stroke-linecap:round;stroke-linejoin:round;stroke-miterlimit:10"/><linearGradient id="SVGID_00000144308631695432882570000007628677700832790193_" gradientUnits="userSpaceOnUse" x1="615" y1="365.37" x2="685.95" y2="365.37" gradientTransform="matrix(1 0 0 -1 0 1100)"><stop offset="0" style="stop-color:#ff0378"/><stop offset="1" style="stop-color:#ff8903"/></linearGradient><path style="fill:url(#SVGID_00000144308631695432882570000007628677700832790193_)" d="M616 768c16-5 68-13 69.9-32.3C692 706 606.5 663 616 768z"/><linearGradient id="SVGID_00000051372725403280898550000008547425539188560257_" gradientUnits="userSpaceOnUse" x1="495" y1="367.694" x2="569" y2="367.694" gradientTransform="matrix(1 0 0 -1 0 1100)"><stop offset="0" style="stop-color:#ff0378"/><stop offset="1" style="stop-color:#ff8903"/></linearGradient><path style="fill:url(#SVGID_00000051372725403280898550000008547425539188560257_)" d="M496 744.4c14 4 68 35 73 12 0-78-60-68-73-12.4v.4z"/><path d="M512 713c3 27 29 43 54 46-2 1 .5 5-2 6.5s-106-5.6-52-52.5zm106 21.5c19.6 31 57.5-1 67 5 2 13.5-97 59.5-67-5z" style="opacity:.6;enable-background:new"/><path class="st40" d="M435 702c67 74 213 98 282 15m-10-31c27-19 56 5.5 43 36m-342-12c-20-26 7-62 37-38"/><path class="st40" d="M495 743c8-59.8 88-63 74 22m46 2c-15-59.8 55-101 72-26m-210 35c58 29 129 45 189.6 15"/><path d="M544 716c5 4 8 9 9 15m3 18v-5m95-29.1c6 0 12 3 15 8m6 14.1c0-1-.7-2-1-3m-205 11c59 40 138 51 209.8 21.5M714 697c6.5-3 15.5-4 21 1m-320-11c0-7 8-13 15-8" style="fill:none;stroke:#fff;stroke-width:10;stroke-linecap:round;stroke-linejoin:round;stroke-miterlimit:10"/></g><defs><linearGradient id="zl" x1="574.42" y1="410.83" x2="618.38" y2="675.51" gradientUnits="userSpaceOnUse"><stop offset="0" stop-color="#00ff19"/><stop offset=".22" stop-color="#00fa46"/><stop offset=".7" stop-color="#00eeb6"/><stop offset="1" stop-color="#00e6ff"/></linearGradient><style>.zl-3{fill:none;stroke-linecap:round;stroke-linejoin:round;stroke-width:10px;stroke:#000}</style></defs><path d="M746.4 534.9c13.5 7.2 27.2-7.7 21.7-22.5-4.6-12.5-17-13.9-17-35.5 0-45.9-85.7-81.3-142.9-1.3-25.4 35.5-44.1-49.3-124-44.7-38.6 2.2-84.3 38.4-70.1 76.9 31 84.2 9.1 85.6 18.1 107.2 5.8 13.7 26.8 18.9 35.1 4.2 19.3 25.5 52.7 36.3 76.4 9.9 57.9 26.7 37.8-55 32.1-74.1-3.2-45.4 46.6-36.5 51.6-5.4 2.6 16.2-3.4 85.5 34.5 44.1 8.8 6 10.9 17.4 16.6 25.9 16.3 24.1 45.5 11.2 42.2-17 41.4 1.7 44.3-39.2 25.7-67.7Z" style="fill:url(#zl)"/><path d="M438.8 449.7a25.8 25.8 0 0 1 3.2 5.3l40.5 89.1 14.5-19.4 34 113.4s15.8-8.2 16.6-6.9c13.2 12.2 32.4-1.9 37.5-15.9l-86.3-125.8-11.2 26-25.8-78.5m180 6.5 1.7 3.3 17.9 81.5 13.3-14.7s20.7 118 20.7 118.8c22.6 2.6 24.8-13.8 24.4-31.7 8.1 1.5 14.9-1 21.4-5l-63.5-114.4-9.1 21.6-4-70.7" style="fill:#fff;opacity:.47"/><path class="zl-3" d="M458.7 607.4c9.5 6.5 14.6 17.9 23 25.8 17.5 16.1 46.2 12.8 62-4.2 4.3-4.6 8-10 13.6-12.8"/><path class="zl-3" d="M546 629c16.3 20.4 42.6-2.4 40.4-24.8-1.8-19.2-13.8-36.8-11.7-56 4.9-44.6 58.3-24.1 53.7 12.5-7.8 60.9 32.4 47.9 32.4 31.3"/><path class="zl-3" d="M653.4 587.4c25.2 6.3 18.1 44.5 44.5 45.9 11.1.6 24.3-10.8 22.6-25.1-1.2-10.5-9.2-13.3-6-24.3m5.2 15.7c19.4 6.2 39.7-10.2 39.6-30.5-.1-17.6-18.1-30.4-17.3-47.5"/><path class="zl-3" d="M746.4 534.9c13.5 7.2 27.2-7.7 21.7-22.5-4.6-12.5-17-13.9-17-35.5 0-45.9-56.4-50.9-75.3-47.5s-32.8 11.4-67.6 46.2c-30.9 30.9-44.1-49.3-124-44.7-38.6 2.2-84.3 38.4-70.1 76.9 31 84.2 9.1 85.6 18.1 107.2 5.8 13.7 26.8 18.9 34.5 4.6"/><path d="M428.9 449.8c-51.5 33.4 2.4 85.8-3.3 135.8-1.6 14-2.6 35.5 14.5 39.7m17.6-18.2c1.8 5.9 2.6 12.4-.2 17.8m100.2-8.6c-2.4 5.2-4.6 11.2-2.8 16.8m98-45.3a19.7 19.7 0 0 1-1.7 15.4m63.6-18.4c3.6 7 9.7 13.6 17.8 14.8m9.6-78.8a23.7 23.7 0 0 0 16.6 14.6m-292.7 90.2c7.1 9.4 17.8 19 30.4 16.6m45.9-9.1c7.6 6.5 19.7 6.8 28.5 1m28.9-109.4c42.3 24.6 7.5 57.5 35.3 77.9m26.3-2.6c8.7 9.5 10.9 24.3 22 32.1 7 4.9 17.3 5.9 23.4-.7" style="opacity:.6;stroke:#000;fill:none;stroke-linecap:round;stroke-linejoin:round;stroke-width:10px"/><path d="M711.8 447.7a25.1 25.1 0 0 1 18.5 15.2m4 11.6.1 2.6m19 34.3a16.1 16.1 0 0 1 3.3 8.1M743.4 560a20.2 20.2 0 0 1-1 18.5m-6.3-31.4 1.6 2.6m-31.6 53.7a15 15 0 0 1-2.1 15m-60.7-25.8a17 17 0 0 1-3.5-12.3m-133-132.9a67.2 67.2 0 0 1 34.6 19.8m-51.1-21a32.6 32.6 0 0 0-10.3.7m92.3 152.7a22.1 22.1 0 0 1-.5 14.8m-4.1-29.3.9 2m-32.4 30c-4.2 4.9-9.8 9-16.2 9.5m-12 2.7-2.9-.8m-60.4-17a13.3 13.3 0 0 1-1-12.1" style="stroke:#fff;fill:none;stroke-linecap:round;stroke-linejoin:round;stroke-width:10px"/><style>.st40{fill:none;stroke:#000;stroke-width:10;stroke-linecap:round;stroke-linejoin:round;stroke-miterlimit:10}</style><g id="Diamond_Tiara"><linearGradient id="SVGID_00000065760761855906260320000017418696099243063740_" gradientUnits="userSpaceOnUse" x1="541.215" y1="764.848" x2="534.215" y2="708.848" gradientTransform="matrix(1 0 0 -1 0 1100)"><stop offset="0" style="stop-color:#00eaff"/><stop offset="1" style="stop-color:#1500ff"/></linearGradient><path style="fill:url(#SVGID_00000065760761855906260320000017418696099243063740_)" d="M523 332c-3 12-1.5 25-3 37l32 18.5 6-34.5-35-21z"/><path d="M522 342c14 18 19 16 22 40 3 0 6 0 8 1 5-43 14-17-27-51" style="opacity:.2118;fill:#fff;enable-background:new"/><linearGradient id="SVGID_00000028296466383710901690000000469317893808244361_" gradientUnits="userSpaceOnUse" x1="489.76" y1="807.186" x2="520.728" y2="698.299" gradientTransform="matrix(1 0 0 -1 0 1100)"><stop offset="0" style="stop-color:#ffea00"/><stop offset="1" style="stop-color:#ff1e00"/></linearGradient><path style="fill:url(#SVGID_00000028296466383710901690000000469317893808244361_)" d="M329 359c-2 59 7-2 86 16 56 13 50-11 92-25 22-2 9.8-9 16-18 16 7 36 5 53 2 16-5 26-21 40.9-29.6 17-8 35-19 45-36 6-9 1-20.9-9-24-16-5-31 7-42 19-39 54-48 25-95 39.4C441 369 391 322 329 358.8v.2z"/><path class="st40" d="M637 245c-23 5-32 31-49 45-23 19-61 1-82 19.6-68 59-119.5 8-178 50.6"/><path class="st40" d="M540 338.9c28-9 32 11 62-25 6.5-8 18-8.5 27-12.9 14-7 34-32 35-48.3-10-7-22-9-34-5"/><path d="M332 396c32-26 71.5-15 108-9.5 27 0 47-24 73-29.8-6 30 0 11 37.5 38M547 345c8-4 18-1 27-2 15-2 23.5-17 35-25 32-22 53-17 62-63" style="opacity:.6;enable-background:new;fill:none;stroke:#000;stroke-width:10;stroke-linecap:round;stroke-linejoin:round;stroke-miterlimit:10"/><path d="M629.5 261c5-3 10-4 16-3.5m-129 59.5c7-5 15-5 23-4.5m12.5-.5 4 .5m-127 54.4c7 1 15 2 21-1m11-5.9 3-1m68-8.4c4 2 8 5 12 8" style="opacity:.702;stroke:#fff;enable-background:new;fill:none;stroke-width:10;stroke-linecap:round;stroke-linejoin:round;stroke-miterlimit:10"/><path class="st40" d="M329.8 357c3 10.5 5 22 0 32.5m192.2-59c-2 13-3 27-3 40 13 7 23 13 34 19.3l5-33.5c0-1 0-2.5-1-3.2-12-8.1-21-14.1-35-22.6zm-5 18.5c-25-2-42 23-65 29-16 4-33-1-49-3-27-3-54 3-77 17"/></g><circle cx="550" cy="550" r="500" style="fill:none;stroke:#000;stroke-width:10;stroke-linecap:round;stroke-linejoin:round;stroke-miterlimit:10"/></svg>