<svg version="1.1" id="Layer_1" xmlns="http://www.w3.org/2000/svg" x="0" y="0" viewBox="0 0 1100 1100" style="enable-background:new 0 0 1100 1100" xml:space="preserve" xmlns:xlink="http://www.w3.org/1999/xlink"><style type="text/css">.st304{fill:#FF0A68;stroke:#000000;stroke-width:10;stroke-linecap:round;stroke-linejoin:round;stroke-miterlimit:10;}</style><circle class="st304" cx="550" cy="553.7" r="500"/><style>.st71{fill:none;stroke:#ff002b;stroke-width:10;stroke-linecap:round;stroke-linejoin:round;stroke-miterlimit:10}</style><g id="X"><path d="M533 210.7c-68 59.6-71 20-121 36.5-19.6 10.9-14 30-9.7 39.6 11 23-51 9-69 40.3-10 18 .1 42-7.5 61.8-9 19.6-34 35-37 52.2-43 48-154 7-119 70.4 6 11 33-6 39 9.1 7 17.5-39 29-21 46.7 18 5 21 39.9 57 63.2 14 20 3 51 19 69.1 35.8 38 46-25 41-34.3 4-39 44-11 22 38.7-23 52 11 74 36.5 56.6 24-9 13 39 23 50.9 19.5 37 55 12 67 12 18 1 28 22 29.8 40.3 6.5 63 54 46 59 8 15.5-34 45 49 47 59.9 11 73 69 42 71 17.9 3-54-3-60.1 2-68.3 18.5-31 71 13 90.8-15.5 14-19.7-31-63.5 8-55.4 94 19 19-101 14-120.4-9-35.5 14-106 47-121.7 18-9 17-35.5 7-52.8-9.5-17-25-30.6-31-48.9-13.5-54 22-102-36-133.3-5-3-7-9.5-4-14.4 17-26 1-66-32-71.4-22-3-44 9-66.5 6.3-43.4-4.8-79.5-74.1-126.4-43.1z" style="fill:#007bff"/><path class="st71" d="M363 306.9C477 487 608 667 806 759"/><path class="st71" d="M795 413.5C715 519.6 458 757 384 799"/></g><style>.st40{fill:none;stroke:#000;stroke-width:10;stroke-linecap:round;stroke-linejoin:round;stroke-miterlimit:10}.st98{opacity:.6;enable-background:new}</style><g id="Outline"><path class="st98" d="M793 537c-1 .7-1 2-.5 3 5 10 11 35 25 30 8-2 21-13 18-22.4-.5-1-2-2-3-1.5-26 12-28-11-39-9.4v.3zm-34 274.5c6 5 26 8 25-3-6-7-20.6-12-21.5-26C750 772 744 803 759 811.5zm-219.3 52s1 .5 1 .8c9 13.5-3 36-18 40-34 6-9-6-6-44 .3-5.3 22.3 2.7 23 3.2zM342 731c5 7-4 22-4 33 8 13 29.6-5 33-14.9 2-12-17-21-28-20.2-1 .1-1 1.1-1 2.1zm31-120.2c2 23-8 47-26 61.9-13 10.9-17.5-30.6-8-27.9 6 4.2 28-18.8 34-34zm-157-59.9c-8 6-17 3-25 1-11 5 4 20 13.5 16 5-4 12-9 12-15.7-.5-.2-1.5-.2-.5-1.3zM337 473c-6-10-3-23 0-34 0-1 0-2-.6-2-9-9-23 11-19.8 20.7C318 463 338 475 337 472.8v.2z"/><path class="st98" d="M326 392c-2 29 24 45 7 44-7 2-14 1-15 11-1 11-24 0-24.5-1.3C285 433 317 404.5 326 392zm103-118c-9.9-4-16-16-18-25-4-6-9.9 1-11 6-7 54 29.5 28 29 19zm293 9c16 21 29.5 12 40 20.7 3 4 1 9.6-1 14-3 9-13 9-20 4.1-14.5-5.8-22-22.2-19-38.8z"/><path class="st40" d="M347 729c53.5 5 15 86 59 102 25 9 37-19.8 55-11.9 23 10.1 19.6 40 24 60.7 9.6 46 63 29.6 58-12.8"/><path class="st40" d="M519 861c89-9 47.5 119 114.5 115 39-6 35-47 25-76.5-3-9 0-18.5 7-24.5 24.5-21 59 15.5 84-2.5 15-11 8-33-2-45-12-15 0-32 10-43"/><path class="st40" d="M790 539c53 69.8-64 71 8 194.5 6 14 11 32 11 48.5 0 32-49 47.5-61 16"/><path class="st40" d="M721 287c2 51 64 31 74 88 6 34-11.5 71 7 103 10 18 27 31.5 34 51 8 19-4 47-27 42"/><path class="st40" d="M407 290.6c-16-8-12-29.9-2-41 17-15 40.5-10 61-6 29.8 1 49-29 75-38 50-17 81 55 133 44 23-5 48-11 69 1 25 14 33 55 10 75"/><path class="st40" d="M428 278c-16 26.5-51 17.5-76 28.5-20 10.5-28 33-23 55 10 47-43 51-39 88m25 4.5c1.5-23 35-26 41-5 7 25-13 47 16 72"/><path class="st40" d="M334 476c-20-34-61-31.5-89-9.6-20 8-43-3-64 4-22 7-28 37-5 43.5 6.5 2 23-2 26-1 15 4 11 25-5 30-21 6-10 29 6 29"/><path class="st40" d="M216 554.5c-15 15-14 41 2 55 37 22 41 31 36 69.7-2 31 46 41 53.5 10 2-10.8-4-22 0-33 13-32 44 20 62-44.5"/><path class="st40" d="M327 647.9c25 29.7-.5 47-7 75-10 32.5 34 65 53 25"/><path d="M729 262.5c9 4 16 13 18 22.5m-193-68c12.5 2 24.5 8 34 16m9 9 3 3m-163 10c-5.5-.9-12 .6-15.5 4M362 319.6c-9 2-14 10.7-16 19M339 449c4 1 6 6 6 9.8M308.5 470c-12-6-16-5-22-4M175 492c1-4 5-7 9-7.5m38 89.5c-4 8 0 16 4 19.9m44 78.6c-1 6 1 15 9 18m76-77.5c-3 14-13 14.5-16 16m4.5 119.5c-5-3-9-9-8-15M397 782c-1 14.5 7 28 14 30m90 53.9c-3 12 2 27 14.5 25M636 957c14-3 17-28 11-38m96-60.1c1-7 0-14-4-19m46-49.1c8-6.5 9-25 3-39M786 582c5-8 3-19-3-26m37-12c2-8.5-.6-18-7-24m-56-169c18 6 22 30 21 35" style="opacity:.7882;fill:none;stroke:#fff;stroke-width:10;stroke-linecap:round;stroke-linejoin:round;stroke-miterlimit:10;enable-background:new"/></g><defs><style>.axg-2{fill:none;stroke-linecap:round;stroke-linejoin:round;stroke-width:10px;stroke:#000}</style></defs><path d="M243.3 626.7c44.2-16.7-13.7-73.4 35.6-67.3 21.7 19.1-.3 76.2 37.7 66.4 49.7-12.9 2.3-62.1-2.5-73.1.2-30.9 41.4 1.5 50.2-38.3-18.2-24 5.5-57.2-11.5-72.8-23.1-21.4-36.9 8.5-40.9 12.3-49.6-11.5-64.2 25.4-117.3 13.2-18.8 1.7-44.6 25-24.6 41.9 11.7 10 34.4-3.6 41 13 5.6 20.2-54 25.9-6 50.9-4.7 29.1 19.3 38.5 38.3 53.8Z" style="fill:#ff00d9"/><path class="axg-2" d="M314.8 454c1.5-23.1 35.3-26.3 41.4-5 7.1 24.8-12.6 46.8 16.2 72.4"/><path class="axg-2" d="M333.7 475.6c-20.3-33.6-61.2-31.5-89.3-9.6-20 8.1-43.3-2.6-63.8 4.1s-28 37.5-4.7 43.5c6.5 1.7 23.1-2 26.4-1.1 15.3 4 11.4 25.2-5.4 30.1-21.2 6.2-10.2 28.6 6.3 29"/><path class="axg-2" d="M215.8 554.5c-14.8 14.8-13.6 41.2 2.4 54.6 36.7 21.9 40.7 30.9 35.7 69.7-2 31.4 45.8 41 53.5 10 1.8-10.8-4.5-22.1.2-32.7 12.4-32.5 44.2 20.2 62.3-44.5"/><path class="axg-2" d="M243.3 626.7c37.7-15 11.5-42.6 12.4-55.1s13.2-19 23.2-12.2c21.7 19.1-1.6 66.4 37.7 66.4 19.4 0 27.9-27.7 18.2-43.9-6.2-10.4-19.9-17.2-20.7-29.2-.9-15.6 12.2-15.8 24-15.8 17.1 0 22.7-11.2 26.4-22.4"/><path d="M252.3 630.1c37.2-23.8-3.2-55.3 13.1-65.7 19.7-12.7 16.5 44.9 26.1 55.7 14.5 16.1 42.1 14.9 49.3-5.5 15-42.4-25.4-45.4-20.3-64.1 4.2-15.7 34.1 2.2 47.4-30.2m-34.2-44.7c-5.3-11.3-15.2-21.9-8-36.1m-109.9 115c-6.5 6.5-14.4 12.3-26.3 7.7" style="opacity:.6;stroke:#000;fill:none;stroke-linecap:round;stroke-linejoin:round;stroke-width:10px"/><path d="M338.8 448.3a14 14 0 0 1 5.2 10.6m-61 4.8a28.5 28.5 0 0 1 22.2 6.9m-128.7 18.6a16.8 16.8 0 0 1 13-6.3m11.2-1.3 2.1.3M350 516.8c-2.5 4.5-5.9 7.7-12.8 6.9m-14.8 66.2c2.4 4.6 2 10.8-.1 15.9m-98.6-12.5a24.4 24.4 0 0 1-2.5-20.2" style="stroke:#fff;fill:none;stroke-linecap:round;stroke-linejoin:round;stroke-width:10px"/><defs><linearGradient id="zad" x1="599.92" y1="836.25" x2="638.8" y2="836.25" gradientUnits="userSpaceOnUse"><stop offset="0" stop-color="#0800ff"/><stop offset="1" stop-color="#ff00f7"/></linearGradient><linearGradient id="zad-2" x1="667.03" y1="869.12" x2="684.63" y2="925" gradientTransform="rotate(16.9 677.175 899.736)" gradientUnits="userSpaceOnUse"><stop offset="0" stop-color="#0dff31"/><stop offset=".36" stop-color="#faee0c"/><stop offset=".36" stop-color="#fae60c"/><stop offset=".41" stop-color="#f8a40c"/><stop offset=".44" stop-color="#f7700c"/><stop offset=".48" stop-color="#f64a0c"/><stop offset=".5" stop-color="#f5330c"/><stop offset=".52" stop-color="#f52b0c"/><stop offset=".68" stop-color="#f50ca0"/><stop offset="1" stop-color="#0defff"/></linearGradient><style>.zad-2{fill:#660024}.zad-4{fill:none;stroke:#000;stroke-linecap:round;stroke-linejoin:round;stroke-width:10px}</style></defs><path d="M675.8 797c46.2-21.9 84.1-91.5 12.4-105.5-33-6.4-63.7 18.4-96.5 17.6-34.7-.9-66.6-24.3-102.8-12.6-33.6 10.9-38.2 48.9-15.1 72.3 15.2 15.3 50.7 31.5 62.2 32.6 26.6.8 139.8-4.4 139.8-4.4Z"/><path d="M720.4 878.8c12.9-9.9 6.4-31.5-5.6-39.7-16.6-11.4-26.1-2.8-40.4-39.7-12-31-46.5-40.3-74.1-21.9-28.2-10.1-65.9-11.9-86.1 14 9.4 9.9 24.5 10.1 37.1 13 44.5 10.1 20.1 112.8 61.5 77.5 15.1 23.2 24.3 56.1 56.1 59.4 32.1 5.8 79.2-30.4 51.5-62.6Z" style="fill:#ff0059"/><path class="zad-2" d="M624.6 800.1c-29.3-16.2-66.3-25-95.3-4.2-2.6.6-15.9-1.2-12.9-5.1 30.9-25.3 83.3-26.6 108.2 9.3Z"/><path class="zad-2" d="M637.5 809.4c-8.8-9.8-5.9-28.3 3.5-36.8-11.7-3.3-25.9-3.1-35.2 5.7 11.3 8.2 21.1 18.5 31.7 31.1Z"/><path d="M461.8 725.3c22.8 37.4 66.4 14.2 67.9-28.3-5.1 47.8 55.7 68.8 62.2 14 6.4 55.9 67.8 39.1 59-12.9 5 40 56.8 52.7 65.6 7.8-31.5-31.8-76.5-3.7-112.8 1.8-47.6 7.2-111.9-49.1-141.9 17.6Z" style="fill:#fff"/><path class="zad-4" d="M604.9 870.9c27.4 25.1 17.7 66.9 68.9 70.7 24.9 1.9 58.9-18.3 54.8-46.2-2.6-17.8-24.8-20.3-30.7-34.5M602 777.3c25.9-18.2 60.4-8.9 72.4 22.1 14.3 36.9 23.8 28.3 40.4 39.7 12 8.2 18.5 29.8 5.6 39.7"/><path class="zad-4" d="M633.1 809.3c-23.2-42.2-84.9-52.2-120.2-19.4"/><path class="zad-4" d="M675.8 797c46.2-21.9 84.1-91.5 12.4-105.5-33-6.4-63.7 18.4-96.5 17.6-34.7-.9-66.6-24.3-102.8-12.6-33.6 10.9-38.2 48.9-15.1 72.3 15.2 15.3 50.7 31.5 62.2 32.6 26.6.8 47.7 24.1 46.6 50.7-1.9 47.2 24.5 44.4 30.4 28.3"/><path class="zad-4" d="M461.8 725.3c22.8 37.4 66.4 14.2 67.9-28.3-5.1 47.8 55.7 68.8 62.2 14 6.4 55.9 67.8 39.1 59-12.9 5 40 56.8 52.7 67.4 8.8"/><path d="M470.9 707.2c-40.1 34.2-5.3 71.3 31.1 90 23.5 12 57.6 6 70.7 34.3 8.7 18.7-3.9 49.1 19.8 57.1m18.5-1.1c13.1 21.4 18.9 51.1 47.6 56.8m-54.2-73.2a32.8 32.8 0 0 1 1.7 16.7m92.4-27.4a33 33 0 0 0 24.7 11.6" style="opacity:.6;stroke-width:10px;stroke-linecap:round;stroke-linejoin:round;stroke:#000;fill:none"/><path d="M645.6 785.1a29.9 29.9 0 0 1 11.3 12.1m-61.5-6.6a44.4 44.4 0 0 1 18 14.4m91.2 42.7a20.6 20.6 0 0 1 8 8.8m-3.7 32.4a17.1 17.1 0 0 1 4.1 18.4" style="stroke:#fff;stroke-width:10px;stroke-linecap:round;stroke-linejoin:round;fill:none"/><path d="M597.6 878.3c-1.9-3.4-3.6-7.1-3.2-11" style="stroke-width:7px;stroke:#fff;stroke-linecap:round;stroke-linejoin:round;fill:none"/><path d="M659.3 822.1c-18.6 4.8-5.6 38 6.8 26.3m-47.4-34.7c-2.3 5.3-4.6 10.6-6.8 15.9m-13.1 1.9 9.9 11.1-2.7 16.2m13-9a116 116 0 0 0 11.5 9.5m23.9 23.7c4.8 13.3 8.3 27 13.1 40.3l26.9-7.8" style="opacity:.6;stroke-width:5px;fill:none;stroke:#000;stroke-linecap:round;stroke-linejoin:round"/><ellipse cx="662.7" cy="835.3" rx="10.2" ry="13.9" style="stroke-width:5px;stroke-linecap:round;stroke-linejoin:round;stroke:#000;fill:#fff"/><path style="fill:url(#zad);stroke-width:5px;stroke-linecap:round;stroke-linejoin:round;stroke:#000" d="m619.4 813.6 4.5 17.3h14.9l-12 10.7 4.6 17.3-12-10.7-12.1 10.7 4.6-17.3-12-10.7h14.9l4.6-17.3z"/><path transform="rotate(-16.9 677.91 899.121)" style="fill:url(#zad-2);stroke-width:5px;stroke-linecap:round;stroke-linejoin:round;stroke:#000" d="M662.7 876h26.5v42.66h-26.5z"/><style>.st68{enable-background:new;opacity:.6;fill:none;stroke:#000;stroke-width:10;stroke-linecap:round;stroke-linejoin:round;stroke-miterlimit:10}</style><g id="trippy_VR"><linearGradient id="SVGID_00000020388922614253771230000004650598949562930306_" gradientUnits="userSpaceOnUse" x1="586.484" y1="720.989" x2="598.481" y2="427.041" gradientTransform="matrix(1 0 0 -1 0 1100)"><stop offset="0" style="stop-color:#ff0062"/><stop offset="1" style="stop-color:#ff9d00"/></linearGradient><path style="fill:url(#SVGID_00000020388922614253771230000004650598949562930306_);stroke:#000;stroke-width:10;stroke-linecap:round;stroke-linejoin:round;stroke-miterlimit:10" d="M729 389c-81 32-168 29.7-254 29.7-79 0-75 45-76 110-2 167 409.6 107 385-42.5-5-30.2-7-116.1-55-97.2z"/><linearGradient id="SVGID_00000048501908464928315330000009927288370948035757_" gradientUnits="userSpaceOnUse" x1="580.562" y1="671.12" x2="631.559" y2="442.138" gradientTransform="matrix(1 0 0 -1 0 1100)"><stop offset="0" style="stop-color:#00fff2"/><stop offset=".613" style="stop-color:#006cfa"/><stop offset="1" style="stop-color:#000dff"/></linearGradient><path style="fill:url(#SVGID_00000048501908464928315330000009927288370948035757_);stroke:#000;stroke-width:10;stroke-linecap:round;stroke-linejoin:round;stroke-miterlimit:10" d="M718 427.5c-108 47-156 32-241 30.7-43-.7-46 57-32 88.5 46.5 85 313 56 307-66.2-1-21.5-3.5-66.5-34-53z"/><path d="M728 449c6 14 8 29 7 44m-5 16.5-3 5.5m-270-31c-4 14-4 29.7 1 44m5 14c1 4 4 8 7 10m276-148c6 7 9.8 16 12 24.5m11 85.5c-3.5 10.9-9 21-16 30m18-42-.2-4M445 436c-10 4-19 12-23 22m-5.5 17-.5 4m5 82c4 9 10 17 18 23" style="fill:none;stroke:#fff;stroke-width:10;stroke-linecap:round;stroke-linejoin:round;stroke-miterlimit:10"/><path d="M520 460.9c26 32 51 65 74 99 0-10 0-20.8-.8-31 8 13 18 24 29 35.2l19 19.8 27-8.4-80.6-75.8-5 18.9L544 462m38 1c24 26.5 48 52 74 76.9l-4-26.1 41.5 48.1 14-7.2-62-57.3-1 17.1-46-53" style="opacity:.502;fill:#fff;enable-background:new"/><path class="st68" d="M421 431c-42 16-34 122-14 152 59 87.5 312 59 358-29"/><path class="st68" d="M452 466c-13 8-17 25-18 33.5C420.5 635.8 661 619 725 545"/><path d="M718 427.5c-108 47-156 32-241 30.7-43-.7-46 57-32 88.5 46.5 85 313 56 307-66-1-21.7-3.5-66.7-34-53.2z" style="fill:none;stroke:#000;stroke-width:10;stroke-linecap:round;stroke-linejoin:round;stroke-miterlimit:10"/></g><defs><linearGradient id="zbj" x1="516.88" y1="143.24" x2="596.42" y2="317.05" gradientUnits="userSpaceOnUse"><stop offset="0" stop-color="#0ff"/><stop offset=".08" stop-color="#1ab9ff"/><stop offset=".26" stop-color="#5a0cff"/><stop offset=".27" stop-color="#5d05ff"/><stop offset=".59" stop-color="#ff0fe7"/><stop offset=".86" stop-color="#ff6912"/><stop offset="1" stop-color="#ff1500"/></linearGradient><style>.zbj-3{fill:none;stroke-linecap:round;stroke-linejoin:round;stroke-dasharray:0 0 0 0 0 0;stroke:#000;stroke-width:10px}</style></defs><path d="M525.9 322.4c-10.7 12.5-13 27.9-2.2 41.6-2.7 13.8 5.9 30.6 22.2 28.1 8.2 15.2 31 20 42.3 5.4 13 5.9 28.9 4.8 42.1-2.6 19.8 12.2 41.2-2 36.4-25.6 11-10.9 9.7-28.6-1.8-39.3 5.2-12.8-4.1-26.2-18-27.8-5.1-14.8-24.8-21.9-37.8-11.9-13.2-7.3-29.2-4.3-40.1 6.5-11.7-9.1-46.4-8.5-43.1 25.6Z" style="fill:#dedede"/><path d="M532.9 207.8a226.2 226.2 0 0 1-45.1 28.4c11.7-107.3 133.3-157 134.8 46.4-6.1.7-9.8 2.6-14.6 7.5-12.5-5-27.5-3.1-39 4.7-5.1-2.8-10.6-5.5-16.4-6a145.7 145.7 0 0 0-19.7-81Z" style="fill:url(#zbj)"/><path class="zbj-3" d="M535.3 330.9c-32.4-25.2 23.9-62.9 38-23.3"/><path class="zbj-3" d="M525.9 322.5c-12.1 8.6-13.5 27.6-2.8 37.9m10.6-5.9c-19.8 9.9-8.9 46.3 13.5 37.7"/><path class="zbj-3" d="M547.2 382.2c-3.2 31.6 48.8 34.6 42.3 2.9"/><path class="zbj-3" d="M589.9 398.4c15.1 8.8 38.8 5.5 47.3-10.9"/><path class="zbj-3" d="M633.3 395c21.7 19.4 49.3-12.7 26.4-31.1m6.8 4.3c11.2-9.2 13-29.4-.4-37.5m-12.7 6.9c17.4-8 16-34.5-4.2-36.7m-34.2-2.4c-9.5-14.5-31.8-16.9-44.2-4.7m74.1 18.1c6.3-19.4-20.2-37.3-35.1-22.9m-86.5-97.6c23 25.7 28.1 63.6 30.9 96.9"/><path class="zbj-3" d="M623.5 281.9C610.6 51.5 492.7 154.5 487.3 237c17.4-4.1 29-19.3 44-27.9"/><path d="M621.6 285.7c-4.4 2.2-6 7.4-6.8 11.9m45.1 9.6c-5.2-1.6-10.4 1.2-14.5 4.3m28.2 31.5c-3.8-5.5-11.1-7.4-17.5-6.5m-18.3 51.7c2.5 6.6 6.5 10.4 13 11.9m-44.7.3a39.8 39.8 0 0 1-14.6-14.2m-45.9-5.5a26.2 26.2 0 0 1-11.4 8.9m40-82.1a24.5 24.5 0 0 1 8.3-20m-48.4 65.7a19.2 19.2 0 0 1-15.9-5.4" style="opacity:.37;stroke-width:10px;stroke:#000;fill:none;stroke-linecap:round;stroke-linejoin:round;stroke-dasharray:0 0 0 0 0 0"/><path d="M521.2 191.4c5.8 9.3-.1 21.2-6 29.2m14.6-7c12.6 21.4 15.6 46.5 18 71.8M523 318.3c-13.9 11.6-16.2 32.2-4.1 46.2-3.4 16.5 6.8 35.9 25.8 34.4 9.9 14.1 30.1 16.4 44 6.5a50 50 0 0 0 43-3.9 22.6 22.6 0 0 0 26.7-3.1m-37.8-122.2c-5.7.7-11.3 3.2-16.6 6.8-12.2-5.4-24.7-1.5-35.9 5.2a16 16 0 0 0-11.1-2.1" style="opacity:.6;stroke-width:10px;stroke:#000;fill:none;stroke-linecap:round;stroke-linejoin:round;stroke-dasharray:0 0 0 0 0 0"/><path d="M549.6 301.3a11 11 0 0 1 9.5 5.3m36.1-9a15.5 15.5 0 0 1 8 5.3m27.1-5.2a9.1 9.1 0 0 1 3.4 7.3m21.4 15a9.4 9.4 0 0 1-3.7 6.3m3.4 47.4a10.4 10.4 0 0 1 1 9.1m-28.8.9a17.8 17.8 0 0 1-8 5.5m-61.2-3.6a10.8 10.8 0 0 0 6.2 7.7m-29.5-18.8c-.7-3.3.8-6.8 3.1-9.3" style="stroke-width:7px;stroke:#fff;opacity:.81;fill:none;stroke-linecap:round;stroke-linejoin:round;stroke-dasharray:0 0 0 0 0 0"/><path d="M567.8 155.1c10.6 5 17.9 16.1 22.1 27.1m5.3 13.2c.3 1.2 1.7 6.3 1.9 7.5" style="stroke:#fff;opacity:.81;stroke-width:10px;fill:none;stroke-linecap:round;stroke-linejoin:round;stroke-dasharray:0 0 0 0 0 0"/><circle cx="550" cy="550" r="500" style="fill:none;stroke:#000;stroke-width:10;stroke-linecap:round;stroke-linejoin:round;stroke-miterlimit:10"/></svg>