<svg version="1.1" id="Layer_1" xmlns="http://www.w3.org/2000/svg" x="0" y="0" viewBox="0 0 1100 1100" style="enable-background:new 0 0 1100 1100" xml:space="preserve" xmlns:xlink="http://www.w3.org/1999/xlink"><style type="text/css">.st300{fill:#00DE72;stroke:#000000;stroke-width:10;stroke-linecap:round;stroke-linejoin:round;stroke-miterlimit:10;}</style><circle class="st300" cx="550" cy="553.7" r="500"/><path d="M532 209c-68 59.6-70.9 20-120.8 36.5-19.6 10.9-14 30-9.7 39.6 11 23-50.8 9-69 40.3-10 18 0 42-7.5 61.8-9 19.6-34 35-37 52-43 48-154 7-119 70.4 6 11 33-6 39 9.1 7 17.5-39 29-21 46.7 18 5 20.7 39.9 57 63 14 20 3 51 19 69.1 36 38 46-25 41-34.3 4-39 44-10.6 22 38.7-23 52 11 74 36.5 56.6 24-9 13 39 23 50.9 19.5 37 55 12 67 12 18 .7 28 22 29.8 40.3 6.5 63 54 46 59 8 15.5-34 45 49 47 59.9 11 73 69 42 70.8 17.9 3-54-3-60 2-68.3 18.5-31 71 13 90.8-15.5 14-19.7-31-63.5 8-55.4 94 19 19-100.7 14-120.4-9-35.5 14-106 47-121.7 18-9 17-35.5 7-52.8-9.5-17-25-30.6-31-48.9-13.5-54 22-102-36-133.3-5-3-7-9.5-4-14.4 17-26 1-66-32-71.4-22-3-44 9-66.5 6.3C615 247 578.5 178 532 209z" style="fill:#dbb07e"/><style>.st40{fill:none;stroke:#000;stroke-width:10;stroke-linecap:round;stroke-linejoin:round;stroke-miterlimit:10}.st98{opacity:.6;enable-background:new}</style><g id="Outline"><path class="st98" d="M793 537c-1 .7-1 2-.5 3 5 10 11 35 25 30 8-2 21-13 18-22.4-.5-1-2-2-3-1.5-26 12-28-11-39-9.4v.3zm-34 274.5c6 5 26 8 25-3-6-7-20.6-12-21.5-26C750 772 744 803 759 811.5zm-219.3 52s1 .5 1 .8c9 13.5-3 36-18 40-34 6-9-6-6-44 .3-5.3 22.3 2.7 23 3.2zM342 731c5 7-4 22-4 33 8 13 29.6-5 33-14.9 2-12-17-21-28-20.2-1 .1-1 1.1-1 2.1zm31-120.2c2 23-8 47-26 61.9-13 10.9-17.5-30.6-8-27.9 6 4.2 28-18.8 34-34zm-157-59.9c-8 6-17 3-25 1-11 5 4 20 13.5 16 5-4 12-9 12-15.7-.5-.2-1.5-.2-.5-1.3zM337 473c-6-10-3-23 0-34 0-1 0-2-.6-2-9-9-23 11-19.8 20.7C318 463 338 475 337 472.8v.2z"/><path class="st98" d="M326 392c-2 29 24 45 7 44-7 2-14 1-15 11-1 11-24 0-24.5-1.3C285 433 317 404.5 326 392zm103-118c-9.9-4-16-16-18-25-4-6-9.9 1-11 6-7 54 29.5 28 29 19zm293 9c16 21 29.5 12 40 20.7 3 4 1 9.6-1 14-3 9-13 9-20 4.1-14.5-5.8-22-22.2-19-38.8z"/><path class="st40" d="M347 729c53.5 5 15 86 59 102 25 9 37-19.8 55-11.9 23 10.1 19.6 40 24 60.7 9.6 46 63 29.6 58-12.8"/><path class="st40" d="M519 861c89-9 47.5 119 114.5 115 39-6 35-47 25-76.5-3-9 0-18.5 7-24.5 24.5-21 59 15.5 84-2.5 15-11 8-33-2-45-12-15 0-32 10-43"/><path class="st40" d="M790 539c53 69.8-64 71 8 194.5 6 14 11 32 11 48.5 0 32-49 47.5-61 16"/><path class="st40" d="M721 287c2 51 64 31 74 88 6 34-11.5 71 7 103 10 18 27 31.5 34 51 8 19-4 47-27 42"/><path class="st40" d="M407 290.6c-16-8-12-29.9-2-41 17-15 40.5-10 61-6 29.8 1 49-29 75-38 50-17 81 55 133 44 23-5 48-11 69 1 25 14 33 55 10 75"/><path class="st40" d="M428 278c-16 26.5-51 17.5-76 28.5-20 10.5-28 33-23 55 10 47-43 51-39 88m25 4.5c1.5-23 35-26 41-5 7 25-13 47 16 72"/><path class="st40" d="M334 476c-20-34-61-31.5-89-9.6-20 8-43-3-64 4-22 7-28 37-5 43.5 6.5 2 23-2 26-1 15 4 11 25-5 30-21 6-10 29 6 29"/><path class="st40" d="M216 554.5c-15 15-14 41 2 55 37 22 41 31 36 69.7-2 31 46 41 53.5 10 2-10.8-4-22 0-33 13-32 44 20 62-44.5"/><path class="st40" d="M327 647.9c25 29.7-.5 47-7 75-10 32.5 34 65 53 25"/><path d="M729 262.5c9 4 16 13 18 22.5m-193-68c12.5 2 24.5 8 34 16m9 9 3 3m-163 10c-5.5-.9-12 .6-15.5 4M362 319.6c-9 2-14 10.7-16 19M339 449c4 1 6 6 6 9.8M308.5 470c-12-6-16-5-22-4M175 492c1-4 5-7 9-7.5m38 89.5c-4 8 0 16 4 19.9m44 78.6c-1 6 1 15 9 18m76-77.5c-3 14-13 14.5-16 16m4.5 119.5c-5-3-9-9-8-15M397 782c-1 14.5 7 28 14 30m90 53.9c-3 12 2 27 14.5 25M636 957c14-3 17-28 11-38m96-60.1c1-7 0-14-4-19m46-49.1c8-6.5 9-25 3-39M786 582c5-8 3-19-3-26m37-12c2-8.5-.6-18-7-24m-56-169c18 6 22 30 21 35" style="opacity:.7882;fill:none;stroke:#fff;stroke-width:10;stroke-linecap:round;stroke-linejoin:round;stroke-miterlimit:10;enable-background:new"/></g><style>.st40,.st68{fill:none;stroke-width:10;stroke-linecap:round;stroke-linejoin:round;stroke-miterlimit:10;stroke:#000}.st68{opacity:.6;enable-background:new}</style><g id="Eye"><linearGradient id="SVGID_00000144327888440828662330000012949225208094602647_" gradientUnits="userSpaceOnUse" x1="232.314" y1="-555.531" x2="336.458" y2="-482.43" gradientTransform="translate(0 1066)"><stop offset="0" style="stop-color:#00ff04"/><stop offset=".811" style="stop-color:#00fccf"/><stop offset="1" style="stop-color:#00fbff"/></linearGradient><path style="fill:url(#SVGID_00000144327888440828662330000012949225208094602647_)" d="M278 494c-31 10.8-13 49-9.5 56 8 16-9 32.5 9 50.8 9 9 46 8 40.7-31-2-13-13-23-13.5-35.8-.7-21-3.7-48-26.7-40z"/><path d="M273 498c-6.5 9-1 22 4 30.8 6 8 13 15 14 25 2 14-6 31 3 43.7 15 18 30.6-23 23-35-3-7-8-13.5-10-20.8-5-16 2-45-21-49" style="opacity:.5098;fill:#fff;enable-background:new"/><path class="st68" d="M274 516c9 24.5 14 39 18 64"/><path class="st40" d="M278 494c-31 10.8-13 49-9.5 56 8 16-9 32.5 9 50.8 9 9 46 8 40.7-31-2-13-13-23-13.5-36C304 513 301 486 278 494z"/><path class="st40" d="M282 526c6 17 10.5 35 14 53"/><path d="M279 515c1 4 2 7 3.5 11m24.5 46.9c1 5 1.5 13-5 19" style="fill:none;stroke:#fff;stroke-width:10;stroke-linecap:round;stroke-linejoin:round;stroke-miterlimit:10"/><path class="st68" d="M264 495.9c-15.5 19-6 44 1 65 3 9-3 18-1 27 4 24 31 31 46 12"/></g><style>.st40,.st68{fill:none;stroke-width:10;stroke-linecap:round;stroke-linejoin:round;stroke-miterlimit:10;stroke:#000}.st68{opacity:.6;enable-background:new}</style><g id="Gold_Grillz"><linearGradient id="SVGID_00000054261759252241486330000007195404835055001745_" gradientUnits="userSpaceOnUse" x1="657.269" y1="-434.524" x2="664.275" y2="-229.326" gradientTransform="rotate(-5.371 12728.238 901.119) scale(.99999)"><stop offset="0" style="stop-color:#fe0"/><stop offset="1" style="stop-color:#ff4800"/></linearGradient><path style="fill:url(#SVGID_00000054261759252241486330000007195404835055001745_)" d="M436 684.2c-14.5 42 40 71 61 127 23 28 58-7 102 16 48 24 58-2 72-43 17-50 82-14 64-90.9-9-38-40.7-4-50 2-47 32-55-31-95 47-24 33-39.6-39.7-71-42-30-4-64 20.7-83-16.3v.2z"/><path d="M488 719c1 10 1 19.9 2 29.9m1 12.1c0 2 0 3 .5 5m73.5.5c0 6 0 12.5 1 19m.5 10.5v3m73.1-72c2 20 6 41 8 61m1.4 12.6v3m43-95.6c1 7 3 14 4 21m2 12v2" style="fill:none;stroke:#fff;stroke-width:10;stroke-linecap:round;stroke-linejoin:round;stroke-miterlimit:10"/><path class="st68" d="M428.5 670.9c-22 61 23 71 49 110.7 4 7 13 33 19 38 26 18 62-8 106 13 74 36 65-41 86-61.5 20-19.9 56-17 54-54-.5-10.5-3-28 6-36"/><path class="st68" d="M734 691c-48-21-26 24-107 17-26-2-22 62-59 47-18-10.6-22-36-40-45.2-32-13-68 19-94-17"/><path class="st68" d="M509 700c2 39 6 78 7 118m69-65.5 6 66.5m67-114c0 26 6 53 9 81m41-105 11 60.9"/><path class="st40" d="M424 659c44 103 85-17 135.5 78 5 7 13 13 22 10.9 21-4 18-36 34-46 20-11 47 11 68-8 37-42 42 0 64-15.9 10.7-8 0-37 10.6-52"/><path class="st40" d="M432 682c-8 40 19 63 46 90 12 12 7 41 29 48 12 4 41-4 54-3.6 53 1 86 56 106-23 16-65 78-16 68-109"/><path class="st40" d="M500 701c4 39.7 7 79 9 119m67-69c1 22 3 44 6 65m70-111c-2 17.5 11 80 12 98m38.5-121c2 21 6 42 10.5 63"/></g><style>.st40,.st68{fill:none;stroke-width:10;stroke-linecap:round;stroke-linejoin:round;stroke-miterlimit:10;stroke:#000}.st68{opacity:.6;enable-background:new}.st102{fill:#fff}</style><g id="all_seeing"><path class="st102" d="M764 494c-106-69-252-35.5-344.5 38C509 624 704 617 764 494z"/><linearGradient id="SVGID_00000154406609517563783580000003077220973173026472_" gradientUnits="userSpaceOnUse" x1="576.467" y1="996.091" x2="618.467" y2="789.095" gradientTransform="matrix(1 0 0 -1 0 1410)"><stop offset="0" style="stop-color:#001aff"/><stop offset="1" style="stop-color:#e600ff"/></linearGradient><path style="fill:url(#SVGID_00000154406609517563783580000003077220973173026472_)" d="M671 464.4c-43-9.5-199-12-159.6 59.5 29.8 54 4 62 21 66 51 12 124 4 164-28C671 535 698 508 671 464v.4z"/><path d="M592 532c3 20.5 2 40.6-2 60.6 18 2 37-3 54-6 24-4 12-34 6-48.5-25 11.9-54-6.6-58-6.5v.4z"/><path class="st102" d="M591 495c-22.5 32 39 69.5 57 40-2-22-34-61-57-40.4v.4z"/><path class="st40" d="M779.5 504C680 422 498 458 409 541"/><path class="st40" d="M420.5 531c90 96 280 85 345-37"/><path class="st40" d="M511 482c-19.8 44 28 62 14 106m143-127c35 32 1 71 28.5 100.5m-112.5 31c22-19-3-70 0-88 2-11 13-18.5 24.5-15 29.9 4 52 66 51 93"/><path class="st40" d="M584 511c5 27 37 41 62 29"/><path class="st68" d="M417 539c96 95.5 284 85 353-36"/><path class="st68" d="M503 485c-19 40 24 59 16 98m66-88c-22.5 28 18 66.5-7 96"/><path d="M658 470c7 5.5 12 14 13 23m-1 14v3.5" style="fill:none;stroke:#fff;stroke-width:10;stroke-linecap:round;stroke-linejoin:round;stroke-miterlimit:10"/></g><defs><linearGradient id="zbm" x1="557" y1="390.36" x2="524.49" y2="55.58" gradientUnits="userSpaceOnUse"><stop offset="0" stop-color="#ff003b"/><stop offset="1" stop-color="#ffc400"/></linearGradient><linearGradient id="zbm-2" x1="549.79" y1="299" x2="555.18" y2="378.33" gradientUnits="userSpaceOnUse"><stop offset="0" stop-color="#ffc800"/><stop offset="1" stop-color="#ff00ae"/></linearGradient><style>.zbm-3{fill:none;stroke:#000;stroke-linecap:round;stroke-linejoin:round;stroke-width:10px}</style></defs><path d="M316.7 353c-63-155.5-37.1-219.2 128.3-254.6 191.6-41.2 362.9-25.6 358.4 214.7-161.7-13.6-328.6.5-486.7 39.9Z" style="fill:url(#zbm)"/><path d="M317.3 403.1c-9.2 12.5-26.4 20.8-27.1 38.3-246.4-126.3 825.4-205.6 507.3-39.3 0-14.4 1.3-30.2-10-44.1a1069.4 1069.4 0 0 0-470.2 45.1Z" style="fill:url(#zbm-2)"/><path class="zbm-3" d="M816.2 359.4c-178.6-21.7-358.6-11-528.1 54.1"/><path class="zbm-3" d="M790.7 358.2c8.1 13.7 6.8 29.5 6.8 43.9 318.1-166.3-753.7-87-507.3 39.3.7-17.5 17.9-25.8 27.1-38.3"/><path class="zbm-3" d="M316.7 353c-63-155.5-37.1-219.2 128.3-254.6 191.6-41.2 359.9-25.1 359.9 215.2"/><path d="M787.5 205.3c-133.3-32.4-409.5 9.4-497.4 58.6 2 11.1 4.4 22.2 8.4 37.5 156.4-56.5 331.7-87.3 497.4-59.6Z" style="stroke-linecap:round;stroke-linejoin:round;stroke-width:10px;stroke:#000"/><path d="M791.5 364.6a1178 1178 0 0 0-478.6 45m503.3-50.2c-6.5.9-15.1 4.9-18.7 10.8M287.2 415a23 23 0 0 1 13.2 1.6m497.1-169c-163.6-22.8-340.7-7.1-492.8 61.7" style="opacity:.6;stroke-linecap:round;stroke-linejoin:round;stroke-width:10px;stroke:#000;fill:none"/><path d="M834.6 338.8a192.7 192.7 0 0 0-46-11.5m-14.4-2-6.8-.9m-433.7 43.3c-15.2 3.6-29.1 7.5-41 15.7m-17.1 8 3.3-1.8M684.1 118a78.6 78.6 0 0 1 40.3 26.8m10.5 13.6 3.7 5.1m46.3 101.1a86.7 86.7 0 0 1 1.5 26.9M313.6 181.7a76.4 76.4 0 0 1 35.5-34.4m-43.3 48.9-1.8 5.5" style="stroke:#fff;opacity:.78;fill:none;stroke-linecap:round;stroke-linejoin:round;stroke-width:10px"/><circle cx="550" cy="550" r="500" style="fill:none;stroke:#000;stroke-width:10;stroke-linecap:round;stroke-linejoin:round;stroke-miterlimit:10"/></svg>