<svg version="1.1" id="Layer_1" xmlns="http://www.w3.org/2000/svg" x="0" y="0" viewBox="0 0 1100 1100" style="enable-background:new 0 0 1100 1100" xml:space="preserve" xmlns:xlink="http://www.w3.org/1999/xlink"><style type="text/css">.st300{fill:#00DE72;stroke:#000000;stroke-width:10;stroke-linecap:round;stroke-linejoin:round;stroke-miterlimit:10;}</style><circle class="st300" cx="550" cy="553.7" r="500"/><radialGradient id="a7" cx="580.189" cy="564.136" r="327.345" gradientTransform="matrix(1 0 0 1.2341 0 -131.758)" gradientUnits="userSpaceOnUse"><stop offset="0" style="stop-color:#20f"/><stop offset="1" style="stop-color:#ff00fb"/></radialGradient><path style="fill:url(#a7)" d="M534 210.7c-68 59.6-71 20-121 36.5-19.6 10.9-14 30-9.7 39.6 11 23-51 9-69 40.3-10 18 .1 42-7.5 61.8-9 19.6-34 35-37 52.2-43 48-154 7-119 70.4 6 11 33-6 39 9.1 7 17.5-39 29-21 46.7 18 5 21 39.9 57 63.2 14 20 3 51 19 69.1 35.8 38 46-25 41-34.3 4-39 44-11 22 38.7-23 52 11 74 36.5 56.6 24-9 13 39 23 50.9 19.5 37 55 12 67 12 18 1 28 22 29.8 40.3 6.5 63 54 46 59 8 15.5-34 45 49 47 59.9 11 73 69 42 71 17.9 3-54-3-60.1 2-68.3 18.5-31 71 13 90.8-15.5 14-19.7-31-63.5 8-55.4 94 19 19-101 14-120.4-9-35.5 14-106 47-121.7 18-9 17-35.5 7-52.8-9.5-17-25-30.6-31-48.9-13.5-54 22-102-36-133.3-5-3-7-9.5-4-14.4 17-26 1-66-32-71.4-22-3-44 9-66.5 6.3C618 249 581 179.7 534 210.7z"/><radialGradient id="b3" cx="576.431" cy="567.501" r="286.75" gradientUnits="userSpaceOnUse"><stop offset="0" style="stop-color:#ff00d0"/><stop offset="1" style="stop-color:#0073ff"/></radialGradient><path style="fill:url(#b3)" d="m339.9 679.6 457.5-205.8c84 96 24 91 9.9 104.2-70.1 128 5 134 1 195.7-149-156-336-279-473-446.5 0 83-16 63-47 126.1-56 20-102 17-102 16.7s-64 47 26 46.7c13 27.5-51 37-7 58.3 15 45 48 56 51 73.8 4 23-4 55.8 28 61.7 36 7 20.6-50.1 33-62.2 16.7-11.3 22.8 17.7 22.6 31.3z"/><style>.st40{fill:none;stroke:#000;stroke-width:10;stroke-linecap:round;stroke-linejoin:round;stroke-miterlimit:10}.st98{opacity:.6;enable-background:new}</style><g id="Outline"><path class="st98" d="M793 537c-1 .7-1 2-.5 3 5 10 11 35 25 30 8-2 21-13 18-22.4-.5-1-2-2-3-1.5-26 12-28-11-39-9.4v.3zm-34 274.5c6 5 26 8 25-3-6-7-20.6-12-21.5-26C750 772 744 803 759 811.5zm-219.3 52s1 .5 1 .8c9 13.5-3 36-18 40-34 6-9-6-6-44 .3-5.3 22.3 2.7 23 3.2zM342 731c5 7-4 22-4 33 8 13 29.6-5 33-14.9 2-12-17-21-28-20.2-1 .1-1 1.1-1 2.1zm31-120.2c2 23-8 47-26 61.9-13 10.9-17.5-30.6-8-27.9 6 4.2 28-18.8 34-34zm-157-59.9c-8 6-17 3-25 1-11 5 4 20 13.5 16 5-4 12-9 12-15.7-.5-.2-1.5-.2-.5-1.3zM337 473c-6-10-3-23 0-34 0-1 0-2-.6-2-9-9-23 11-19.8 20.7C318 463 338 475 337 472.8v.2z"/><path class="st98" d="M326 392c-2 29 24 45 7 44-7 2-14 1-15 11-1 11-24 0-24.5-1.3C285 433 317 404.5 326 392zm103-118c-9.9-4-16-16-18-25-4-6-9.9 1-11 6-7 54 29.5 28 29 19zm293 9c16 21 29.5 12 40 20.7 3 4 1 9.6-1 14-3 9-13 9-20 4.1-14.5-5.8-22-22.2-19-38.8z"/><path class="st40" d="M347 729c53.5 5 15 86 59 102 25 9 37-19.8 55-11.9 23 10.1 19.6 40 24 60.7 9.6 46 63 29.6 58-12.8"/><path class="st40" d="M519 861c89-9 47.5 119 114.5 115 39-6 35-47 25-76.5-3-9 0-18.5 7-24.5 24.5-21 59 15.5 84-2.5 15-11 8-33-2-45-12-15 0-32 10-43"/><path class="st40" d="M790 539c53 69.8-64 71 8 194.5 6 14 11 32 11 48.5 0 32-49 47.5-61 16"/><path class="st40" d="M721 287c2 51 64 31 74 88 6 34-11.5 71 7 103 10 18 27 31.5 34 51 8 19-4 47-27 42"/><path class="st40" d="M407 290.6c-16-8-12-29.9-2-41 17-15 40.5-10 61-6 29.8 1 49-29 75-38 50-17 81 55 133 44 23-5 48-11 69 1 25 14 33 55 10 75"/><path class="st40" d="M428 278c-16 26.5-51 17.5-76 28.5-20 10.5-28 33-23 55 10 47-43 51-39 88m25 4.5c1.5-23 35-26 41-5 7 25-13 47 16 72"/><path class="st40" d="M334 476c-20-34-61-31.5-89-9.6-20 8-43-3-64 4-22 7-28 37-5 43.5 6.5 2 23-2 26-1 15 4 11 25-5 30-21 6-10 29 6 29"/><path class="st40" d="M216 554.5c-15 15-14 41 2 55 37 22 41 31 36 69.7-2 31 46 41 53.5 10 2-10.8-4-22 0-33 13-32 44 20 62-44.5"/><path class="st40" d="M327 647.9c25 29.7-.5 47-7 75-10 32.5 34 65 53 25"/><path d="M729 262.5c9 4 16 13 18 22.5m-193-68c12.5 2 24.5 8 34 16m9 9 3 3m-163 10c-5.5-.9-12 .6-15.5 4M362 319.6c-9 2-14 10.7-16 19M339 449c4 1 6 6 6 9.8M308.5 470c-12-6-16-5-22-4M175 492c1-4 5-7 9-7.5m38 89.5c-4 8 0 16 4 19.9m44 78.6c-1 6 1 15 9 18m76-77.5c-3 14-13 14.5-16 16m4.5 119.5c-5-3-9-9-8-15M397 782c-1 14.5 7 28 14 30m90 53.9c-3 12 2 27 14.5 25M636 957c14-3 17-28 11-38m96-60.1c1-7 0-14-4-19m46-49.1c8-6.5 9-25 3-39M786 582c5-8 3-19-3-26m37-12c2-8.5-.6-18-7-24m-56-169c18 6 22 30 21 35" style="opacity:.7882;fill:none;stroke:#fff;stroke-width:10;stroke-linecap:round;stroke-linejoin:round;stroke-miterlimit:10;enable-background:new"/></g><style>.st40{fill:none;stroke-width:10;stroke-linecap:round;stroke-linejoin:round;stroke-miterlimit:10;stroke:#000}.st152{fill:#ae0f45}</style><g id="Vamp"><path d="M429 737.5c57 100 248 114 303 5-22.3-58.5-275-50.5-303-5z" style="fill:#fe1767"/><path class="st152" d="M637 761.5c-120-80.6-205 29-203-19-10-23 154-62.9 203 19z"/><path class="st152" d="M647 768c5-34 49-35 50.9-46-22-15-59.5 0-75 19.8l24 25.8v.4z"/><path d="M575 734c14 4.5 26 13 36 24m8 10.5c1 1 2 2.5 3 4m35-31c5-1 10.5-2 15 0m31 3c3 0 5.5 1 8 3" style="fill:none;stroke:#fff;stroke-width:10;stroke-linecap:round;stroke-linejoin:round;stroke-miterlimit:10"/><path d="M424 720.7c2 37.5 43-33 182 8 35 26 59-19.8 114 5.9 41 19 50-119.8-20.7-73.1-44 22-97 39.6-147 39C508 695 427 639.7 424 720.7z"/><path d="M489.6 686c7 18 14 37 21 55 1.4 4 52.4-57.5-21-55zm214.4-7c-4.5 21-14 81-20 55-4-18-15-38-28-50.6-4-2.4 73.5-48.4 48-4.4z" style="fill:#fff"/><path d="m507 692.7.7-3c-9 12 9 41 3 52-5-5-18-44-21-58.7v2l17.3 7.7zM676 674c6 41 18 53 13.5 59.6-12-12-33-49.8-34-53.1l-1 1.1L676 674z" style="fill:#b3b3b3"/><path class="st40" d="M703 659.7c-65 28-131 58-200 28-99-43-102 58.5-29.7 98.5 49.7 27.5 109.6 43 166 29.7 42-10 124-71 111-147.5-4.3-24.9-27.3-17.4-47.3-8.7z"/><path class="st40" d="M484 684c14 23 23 49 28 76 4-21.5 11-42 21.5-62M653 684c19 17 28 42 37 66 7-30 10.7-67 24-92m-186 57c44-6 90 16 116.5 51.5"/><path class="st40" d="M621 739.9c18-9.5 38-12 58-11m16-.4c13 0 25 6 36 13M499 718c-24-1.5-48 4.5-68 17"/></g><style>.st68{enable-background:new;opacity:.6;fill:none;stroke:#000;stroke-width:10;stroke-linecap:round;stroke-linejoin:round;stroke-miterlimit:10}</style><g id="trippy_VR"><linearGradient id="SVGID_00000020388922614253771230000004650598949562930306_" gradientUnits="userSpaceOnUse" x1="586.484" y1="720.989" x2="598.481" y2="427.041" gradientTransform="matrix(1 0 0 -1 0 1100)"><stop offset="0" style="stop-color:#ff0062"/><stop offset="1" style="stop-color:#ff9d00"/></linearGradient><path style="fill:url(#SVGID_00000020388922614253771230000004650598949562930306_);stroke:#000;stroke-width:10;stroke-linecap:round;stroke-linejoin:round;stroke-miterlimit:10" d="M729 389c-81 32-168 29.7-254 29.7-79 0-75 45-76 110-2 167 409.6 107 385-42.5-5-30.2-7-116.1-55-97.2z"/><linearGradient id="SVGID_00000048501908464928315330000009927288370948035757_" gradientUnits="userSpaceOnUse" x1="580.562" y1="671.12" x2="631.559" y2="442.138" gradientTransform="matrix(1 0 0 -1 0 1100)"><stop offset="0" style="stop-color:#00fff2"/><stop offset=".613" style="stop-color:#006cfa"/><stop offset="1" style="stop-color:#000dff"/></linearGradient><path style="fill:url(#SVGID_00000048501908464928315330000009927288370948035757_);stroke:#000;stroke-width:10;stroke-linecap:round;stroke-linejoin:round;stroke-miterlimit:10" d="M718 427.5c-108 47-156 32-241 30.7-43-.7-46 57-32 88.5 46.5 85 313 56 307-66.2-1-21.5-3.5-66.5-34-53z"/><path d="M728 449c6 14 8 29 7 44m-5 16.5-3 5.5m-270-31c-4 14-4 29.7 1 44m5 14c1 4 4 8 7 10m276-148c6 7 9.8 16 12 24.5m11 85.5c-3.5 10.9-9 21-16 30m18-42-.2-4M445 436c-10 4-19 12-23 22m-5.5 17-.5 4m5 82c4 9 10 17 18 23" style="fill:none;stroke:#fff;stroke-width:10;stroke-linecap:round;stroke-linejoin:round;stroke-miterlimit:10"/><path d="M520 460.9c26 32 51 65 74 99 0-10 0-20.8-.8-31 8 13 18 24 29 35.2l19 19.8 27-8.4-80.6-75.8-5 18.9L544 462m38 1c24 26.5 48 52 74 76.9l-4-26.1 41.5 48.1 14-7.2-62-57.3-1 17.1-46-53" style="opacity:.502;fill:#fff;enable-background:new"/><path class="st68" d="M421 431c-42 16-34 122-14 152 59 87.5 312 59 358-29"/><path class="st68" d="M452 466c-13 8-17 25-18 33.5C420.5 635.8 661 619 725 545"/><path d="M718 427.5c-108 47-156 32-241 30.7-43-.7-46 57-32 88.5 46.5 85 313 56 307-66-1-21.7-3.5-66.7-34-53.2z" style="fill:none;stroke:#000;stroke-width:10;stroke-linecap:round;stroke-linejoin:round;stroke-miterlimit:10"/></g><defs><linearGradient id="zbe" x1="591.4" y1="318.14" x2="576.03" y2="139.55" gradientUnits="userSpaceOnUse"><stop offset="0" stop-color="#a305ff"/><stop offset=".45" stop-color="#5d5dff"/><stop offset="1" stop-color="#05cdff"/></linearGradient><style>.zbe-4,.zbe-6{fill:none;stroke-linecap:round;stroke-linejoin:round}.zbe-4{stroke:#000;stroke-width:10px}.zbe-6{stroke:#fff;stroke-width:9px}</style></defs><path d="M794.8 340.5c-165.4-4.7-274-.5-414.2 50.6C364.2 171.9 387 229.4 551 169.7c18-6.5 37.5-14.4 55.8-8.8 42.7 13.2 84 32.3 126.8 45.9 82.3 26.1 30.2 80 61.2 133.7Z" style="fill:#e6e6e6"/><path d="M290.5 426.5c28.7-15.5 59.1-29.8 90.6-38.6-10-54.3-11.3-116.1 11.8-166.4-92.2 22.4-113.8 122.1-102.4 205Zm59.1-23.9c101.4 117.2 209.8-36.7 463.5-3 82.3 10.9 11.9-47.9-24.5-60.1-147.3-2.1-303 2.1-439 63.1Z" style="fill:#40aadb"/><path d="M523.4 181.3c-4.5 16.3 14.7 30.1 19.2 40.3 2.8 6.6 1 19.3-1.2 28.7-7.7 32.9 42.2 33.7 33.3 3.5-9.8-33.2 27.4-29.7 15.2 23.5-10.2 44.4 67.4 38.5 47.8-7.5-4.2-10-14.3-16.6-16.4-27.3-5-26.1 26.6-38.9 12.5-71.3-41.2-23.7-70.1-7.8-110.4 10.1Z" style="fill:url(#zbe)"/><path class="zbe-4" d="M794.8 340.5c-165.4-4.7-355.2 6.8-503.7 88.1-20.7-217.7 102-201.4 259.9-258.9 18-6.5 37.5-14.4 55.8-8.8 42.7 13.2 84 32.3 126.8 45.9 82.3 26.1 30.2 80 61.2 133.7Z"/><path class="zbe-4" d="M395.9 218.7c-26.1 51.2-26.5 113-15.5 168.4m-30.8 15.5c101.4 117.2 209.8-36.7 463.5-3 82.3 10.9 11.9-47.9-21.4-59.2"/><path d="M352.4 407.6a297.6 297.6 0 0 0-61.4 27.7m122.1 8.9c60.8 18.6 122.5-11.6 181.6-24.8 65.8-14.7 133.5-21.5 200.7-16.2M384.6 226.1c-18.9 50.9-24.3 108.4-11 161m142.5-202.5c-.9 17.3 20.5 28.7 22 45s-11.4 44.1 12.5 45.4m27.8-38.1c19.1 16.3 3.6 36.1 6.8 54.5 2.7 15.5 22.3 23.6 35.8 15.5" style="opacity:.6;stroke-width:10px;stroke:#000;fill:none;stroke-linecap:round;stroke-linejoin:round"/><path class="zbe-6" d="M623.4 178.5a28.7 28.7 0 0 1-.9 15.1m-4.8 11.8-1 1.7m8.3 65a16 16 0 0 1 .9 16.5m-91.4-102a18.3 18.3 0 0 0 5.8 10.9"/><path d="M792.8 356.6a158.7 158.7 0 0 1 35 24m-364.6 49.5a73.6 73.6 0 0 1-44-3m-12.6-4.2-3.8-1.3m350-186.4c8 6.2 11.9 16 12.7 25.9m.7 11.7-.3 3.3m-375.8 22.1a139.1 139.1 0 0 0 1.7 42.2m.9 14.5.3 3m-65.5-74.2c-10.5 13.9-15.6 32.1-19 49.1m-2.2 14.5-.3 4.6" style="stroke:#fff;stroke-width:10px;fill:none;stroke-linecap:round;stroke-linejoin:round"/><path class="zbe-4" d="M523.4 181.3c-4.5 16.3 14.7 30.1 19.2 40.3 2.8 6.6 1 19.3-1.2 28.7-7.7 32.9 42.2 33.7 33.3 3.5-9.8-33.2 27.4-29.7 15.2 23.5-10.2 44.4 67.4 38.5 47.8-7.5-4.2-10-14.3-16.6-16.4-27.3-5-26.1 26.6-38.9 14-70.7"/><path class="zbe-6" d="M551.8 253.6a9.8 9.8 0 0 0 2.8 9.3"/><style>.st40{fill:none;stroke-width:10;stroke-linecap:round;stroke-linejoin:round;stroke-miterlimit:10;stroke:#000}</style><g id="UFO"><linearGradient id="SVGID_00000052093412861450223020000006077325903456914337_" gradientUnits="userSpaceOnUse" x1="88.118" y1="817.204" x2="984.044" y2="404.238" gradientTransform="matrix(1 0 0 -1 0 1100)"><stop offset="0" style="stop-color:#0fe"/><stop offset=".119" style="stop-color:#00eaf0"/><stop offset=".366" style="stop-color:#00b3f3"/><stop offset=".717" style="stop-color:#005cfa"/><stop offset="1" style="stop-color:#01f"/></linearGradient><path style="opacity:.5882;fill:url(#SVGID_00000052093412861450223020000006077325903456914337_);enable-background:new" d="M173 747.6c7 19.5 25 35 45 39.8 15 4 31 2 45 9 17 9 24 30.1 39 42 21 16 49.9 12 75 19.5 32 9.7 57 39 91 39 22 0 43-14 65-13 29.7 2 56 32 85 22 19-6 33-29.7 47-34.3 15-5 42 5 63 0 23-5.8 36-31 58-40 20-8 44-2 64-10.9 21-9.7 31-36 53-44.7 18-6 52-9 44-33.5-13-42-8-70 3-107 8-43.5-25-88-15-130.7 23-101 25-80-19-146.8-8-12-13-25-16-38.9-14-67-8-52.5-73-108-48-68-29-71.5-117-87-50.5-24-57.5-49-114-17.5-42.5 17-94-20-136.5-2-14 6-24 20-38 28-28 16-64 8-93 23-35 19-45 66-76 91.6-25 20-64 25-79.8 54-15 27-1 63-13 92-9 21-31 35-42 55-28 52 14 77 24 120.9 2 18-7 36-1 53 5 14 18 24 23 37.9 8.3 26-2.7 55 9.3 87.6z"/><linearGradient id="SVGID_00000014634002599790706590000007480268852462571909_" gradientUnits="userSpaceOnUse" x1="51.144" y1="546.313" x2="924.144" y2="144.313" gradientTransform="matrix(1 0 0 -1 0 1100)"><stop offset="0" style="stop-color:#0fe"/><stop offset=".119" style="stop-color:#00eaf0"/><stop offset=".366" style="stop-color:#00b3f3"/><stop offset=".717" style="stop-color:#005cfa"/><stop offset="1" style="stop-color:#01f"/></linearGradient><path style="fill:url(#SVGID_00000014634002599790706590000007480268852462571909_)" d="M78 694c136 465 796 470 953 3-51-46-72-7-89.9-23-17 109.9 58 54-57 117.5-57 57-26 22-98 41.5-73 63-99 32-114 40-72 38-38 48.5-124 15-68-26-46 45-168-30-98-9.6-60.7-17-122.5-64.2-115-7-76.5-94-93-132.5-21 12-59.6-33-66-4C95 665 108 681 78 694z"/><linearGradient id="SVGID_00000040570000435657401070000006676274140463924904_" gradientUnits="userSpaceOnUse" x1="470.203" y1="186.441" x2="598.203" y2="127.441" gradientTransform="matrix(1 0 0 -1 0 1100)"><stop offset="0" style="stop-color:#ff00b7"/><stop offset=".112" style="stop-color:#ea01bd"/><stop offset=".345" style="stop-color:#b305cc"/><stop offset=".674" style="stop-color:#5c0be5"/><stop offset="1" style="stop-color:#01f"/></linearGradient><path style="fill:url(#SVGID_00000040570000435657401070000006676274140463924904_)" d="M469 947.5c9.5 15 165 18 137-7-30-11.5-117-22.5-137 7z"/><linearGradient id="SVGID_00000078735920158305873170000016324894399582867873_" gradientUnits="userSpaceOnUse" x1="475.835" y1="134.644" x2="581.835" y2="85.644" gradientTransform="matrix(1 0 0 -1 0 1100)"><stop offset="0" style="stop-color:#f0b"/><stop offset=".112" style="stop-color:#ea01c1"/><stop offset=".345" style="stop-color:#b305cf"/><stop offset=".674" style="stop-color:#5c0be6"/><stop offset="1" style="stop-color:#01f"/></linearGradient><path style="fill:url(#SVGID_00000078735920158305873170000016324894399582867873_)" d="M476 990.9c4 17.5 131 19 113-1-24-15.9-110-14.9-113 1z"/><linearGradient id="SVGID_00000040576056771940554690000009644892743006637244_" gradientUnits="userSpaceOnUse" x1="723.734" y1="198.854" x2="762.734" y2="127.854" gradientTransform="matrix(1 0 0 -1 0 1100)"><stop offset="0" style="stop-color:#f0b"/><stop offset=".112" style="stop-color:#ea01c1"/><stop offset=".345" style="stop-color:#b305cf"/><stop offset=".674" style="stop-color:#5c0be6"/><stop offset="1" style="stop-color:#01f"/></linearGradient><path style="fill:url(#SVGID_00000040576056771940554690000009644892743006637244_)" d="M693.5 956c46 15 78.5 1 97-43.2-29-5-88.5 10-97 42.9v.3z"/><linearGradient id="SVGID_00000029764979584713055750000007202888973149945790_" gradientUnits="userSpaceOnUse" x1="715.955" y1="175.902" x2="767.955" y2="151.902" gradientTransform="matrix(1 0 0 -1 0 1100)"><stop offset="0" style="stop-color:#0fe"/><stop offset=".119" style="stop-color:#00eaf0"/><stop offset=".366" style="stop-color:#00b3f3"/><stop offset=".717" style="stop-color:#005cfa"/><stop offset="1" style="stop-color:#01f"/></linearGradient><path style="fill:url(#SVGID_00000029764979584713055750000007202888973149945790_)" d="M736.5 962.4c47-6 33-29 25-46-4.5-4-75.5 2-25 45.6v.4z"/><linearGradient id="SVGID_00000105387854398217304660000015504163398393846920_" gradientUnits="userSpaceOnUse" x1="343.873" y1="238.715" x2="309.873" y2="134.715" gradientTransform="matrix(1 0 0 -1 0 1100)"><stop offset="0" style="stop-color:#d0f"/><stop offset=".127" style="stop-color:#c802ff"/><stop offset=".391" style="stop-color:#9106ff"/><stop offset=".765" style="stop-color:#3a0dff"/><stop offset="1" style="stop-color:#01f"/></linearGradient><path style="fill:url(#SVGID_00000105387854398217304660000015504163398393846920_)" d="M276 876.8c23 69.8 104 63.5 107 56.9-12-45.7-62-78.7-107-56.9z"/><linearGradient id="SVGID_00000103960858358242042230000018149012917894115987_" gradientUnits="userSpaceOnUse" x1="298.825" y1="209.619" x2="361.825" y2="180.619" gradientTransform="matrix(1 0 0 -1 0 1100)"><stop offset="0" style="stop-color:#0fe"/><stop offset=".119" style="stop-color:#00eaf0"/><stop offset=".366" style="stop-color:#00b3f3"/><stop offset=".717" style="stop-color:#005cfa"/><stop offset="1" style="stop-color:#01f"/></linearGradient><path style="fill:url(#SVGID_00000103960858358242042230000018149012917894115987_)" d="M304 895.5c-17 26 44 59.9 56 26 19.5-28-40.8-67-53-32l-3 6z"/><path class="st40" d="M173 748c7 19.5 25 35 45 39.8 15 4 31 2 45 9 17 9 24 30 39 41.7 21 16 49.9 12 75 19.5 32 9.7 57 39 91 39 22 0 43-14 65-13 29.7 2 56 32 85 22.1 19-6 33-29.5 47-34 15-5 42 5 63 0 23-5.8 36-31 58-40 20-8 44-2 64-10.9 21-9.7 31-36 53-45 18-6 52-9 44-33.5-13-42-8-70 3-107 8-43.5-25-88-15-130.7 23-101 25-80.5-19-147-8-12-13-25-16-38.9-14-67-8-52.5-73-108-48-68-29-71.5-117-87.4-50.5-24-57.5-49-114-17.5-42.5 17-94-20-136.5-2-14 6-24 20-38 28-28 16-64 8-93 22.7-35 18.5-45 66-76 92-25 20-64 25-79.8 54-15 27-1 63-13 92-9 21-31 35-42 55.3-27.5 52 14 77 24 120.9 2 18-7 36-1 53 5 14 18 24 23 37.9 8 26-3 55 9 87.6v.4z"/><path class="st40" d="M943 675c17 19 39.7-17 64 4 7 6 10 16.5 21 16m-928-16c-14-14 3-39 20.6-29.9 15 8 24 21 43 13.5"/><path class="st40" d="M112 674.9c-11 8-24 14-37 17m186 189c56-30 115 4 126 65"/><path class="st40" d="M273 877c14 43 66 73 109 57m422-19c-46-16-99 9-122 51"/><path class="st40" d="M791 912c-15 49-62.5 59.9-99.7 44M612 945.5c-2-20.5-144-21-145 3 0 14.5 147 18.5 145-3zM592 993c.9-15-118-25-118-1 1 13 117 21 118 .8v.2z"/><path class="st40" d="M717 929.6c-1 12 5 24 14 32m26-49.6c9 7 15 18 16 29.8M320 873c-11 9.6-19 24-20 38.5m65-13.5c3.5 13-8 34-20 39"/><path d="M844.5 257c14 7 24 20 27 35m3.5 27v6m46 84.9c8 12 10.5 29 5 43M741 154c14 4 27 14 34 26m-142-65c12 0 23 5 31 13.5M917 575c8 17 11 36 9 54m-8.5 27-1.5 7.5" style="opacity:.6392;stroke:#fff;stroke-width:20;enable-background:new;fill:none;stroke-linecap:round;stroke-linejoin:round;stroke-miterlimit:10"/><path d="M171 740c4 61 68 53 79 58 47.5 23 36 59 105 60.5 40 1 64 33 99 44 29 6 58-12 88-9 27 3 52 26 79 18 49.8-25 16-38 107.5-34 23 1 36-27 55-37.1 46-18 66.5 5 103-45 24-32 65-12 62-46M266 880c19.5 47 66 72 116 59m87 11c12 21 132 23 143-1m-136 45c15 21 99 23 115 3m96-33c48 15 89 1 109.5-47M112 674.9c-8 3-16.5-6-15-17" style="opacity:.6;enable-background:new;stroke:#000;fill:none;stroke-width:10;stroke-linecap:round;stroke-linejoin:round;stroke-miterlimit:10"/><path d="M986 688c6-.5 12 3 15 8m9 7 3 2m-902-44c4 0 8 1 11 4m9 8 4 1m217 226.5c1 5-.5 9.6-3 14m-6 8.5-2.3 2m409.3 0c4 3 7 7 9 12m-214 5c12-1 24 0 35 3m-40.2 45.5c8-1 16 0 24 1.5" style="fill:none;stroke:#fff;stroke-width:10;stroke-linecap:round;stroke-linejoin:round;stroke-miterlimit:10"/></g><circle cx="550" cy="550" r="500" style="fill:none;stroke:#000;stroke-width:10;stroke-linecap:round;stroke-linejoin:round;stroke-miterlimit:10"/></svg>