<svg version="1.1" id="Layer_1" xmlns="http://www.w3.org/2000/svg" x="0" y="0" viewBox="0 0 1100 1100" style="enable-background:new 0 0 1100 1100" xml:space="preserve" xmlns:xlink="http://www.w3.org/1999/xlink"><style type="text/css">.st301{fill:#005BEF;stroke:#000000;stroke-width:10;stroke-linecap:round;stroke-linejoin:round;stroke-miterlimit:10;}</style><circle class="st301" cx="550" cy="553.7" r="500"/><style>.st231{fill:none;stroke:#000;stroke-width:10;stroke-linecap:round;stroke-linejoin:round;stroke-miterlimit:10}</style><g id="Layer_60"><path d="M532 209c-68 59.6-70.9 20-120.8 36.5-19.6 10.9-14 30-9.7 39.6 11 23-50.8 9-69 40.3-10 18 0 42-7.5 61.8-9 19.6-34 35-37 52-43 48-154 7-119 70.4 6 11 33-6 39 9.1 7 17.5-39 29-21 46.7 18 5 20.7 39.9 57 63 14 20 3 51 19 69.1 36 38 46-25 41-34.3 4-39 44-10.6 22 38.7-23 52 11 74 36.5 56.6 24-9 13 39 23 50.9 19.5 37 55 12 67 12 18 .7 28 22 29.8 40.3 6.5 63 54 46 59 8 15.5-34 45 49 47 59.9 11 73 69 42 70.8 17.9 3-54-3-60 2-68.3 18.5-31 71 13 90.8-15.5 14-19.7-31-63.5 8-55.4 94 19 19-100.7 14-120.4-9-35.5 14-106 47-121.7 18-9 17-35.5 7-52.8-9.5-17-25-30.6-31-48.9-13.5-54 22-102-36-133.3-5-3-7-9.5-4-14.4 17-26 1-66-32-71.4-22-3-44 9-66.5 6.3C615 247 578.5 178 532 209z" style="fill:#454d57"/><path d="M359.5 492.8c150 8 284 83 426 128.7 9.7-15 19-31 21-49 75-7-4-87-10-110.6-7-29.5 9.7-87-8-105l-169 46.4S484 242.5 484.5 242.6c-21.5-4-124-9.5-74 51.8-16.5 6-35 4-52 10-64 30.5 3 66-49 109.5-10 9-19 20.7-18 34.7 7 2 16 2 21 8 25.5-57.6 52 2.4 47 36.2zM323 643.5c32 36 1 47-5 81.7.7 33 34.5 65 55 23 9 23 3 51.5 19 71.6 33 35 45-23 82 5.4l12-116.8s-117-87-118-85.4c-8.4 20-23 26.9-45 20.5z" style="fill:#a1a1a1"/><path d="m364 671.3 78.5 8.3M378 711c34.5 2 69 2 104-2m-102.2 52c32.5-5 65-7 98-7.1M388 801.1c27.5-3 55-4.5 83-4.9" style="fill:none;stroke:#fff;stroke-width:10;stroke-linecap:round;stroke-linejoin:round;stroke-miterlimit:10"/><path d="M490.8 240c44 51 88 103 130 155.5l163-43M400 613.8c25 14 49 29.5 72 47.1m-100-42.1 120.5 85.8-13 133M362 499.1c145 15 281 76 416 128.8M626 404c-11 47-27 95-39 141.5" style="stroke:#788697;fill:none;stroke-width:10;stroke-linecap:round;stroke-linejoin:round;stroke-miterlimit:10"/><path class="st231" d="m368 622.1 117 86.1L473 825m-74-206.2c24 15 46.5 30.6 68.5 47.6m-110-171.6c148 9 286.5 80.5 426 127.4"/><path class="st231" d="M432 669.9c-30.9.8-62 .8-93 0m139 33.9-151 8.6m151 35.9-100 7m97 32.7c-29.9 2-59.8 5-89.7 8M788 357.5l-172 46.8-132-162.2m133 163.2c-13 47-26 94-39 140.4"/></g><style>.st40{fill:none;stroke:#000;stroke-width:10;stroke-linecap:round;stroke-linejoin:round;stroke-miterlimit:10}.st98{opacity:.6;enable-background:new}</style><g id="Outline"><path class="st98" d="M793 537c-1 .7-1 2-.5 3 5 10 11 35 25 30 8-2 21-13 18-22.4-.5-1-2-2-3-1.5-26 12-28-11-39-9.4v.3zm-34 274.5c6 5 26 8 25-3-6-7-20.6-12-21.5-26C750 772 744 803 759 811.5zm-219.3 52s1 .5 1 .8c9 13.5-3 36-18 40-34 6-9-6-6-44 .3-5.3 22.3 2.7 23 3.2zM342 731c5 7-4 22-4 33 8 13 29.6-5 33-14.9 2-12-17-21-28-20.2-1 .1-1 1.1-1 2.1zm31-120.2c2 23-8 47-26 61.9-13 10.9-17.5-30.6-8-27.9 6 4.2 28-18.8 34-34zm-157-59.9c-8 6-17 3-25 1-11 5 4 20 13.5 16 5-4 12-9 12-15.7-.5-.2-1.5-.2-.5-1.3zM337 473c-6-10-3-23 0-34 0-1 0-2-.6-2-9-9-23 11-19.8 20.7C318 463 338 475 337 472.8v.2z"/><path class="st98" d="M326 392c-2 29 24 45 7 44-7 2-14 1-15 11-1 11-24 0-24.5-1.3C285 433 317 404.5 326 392zm103-118c-9.9-4-16-16-18-25-4-6-9.9 1-11 6-7 54 29.5 28 29 19zm293 9c16 21 29.5 12 40 20.7 3 4 1 9.6-1 14-3 9-13 9-20 4.1-14.5-5.8-22-22.2-19-38.8z"/><path class="st40" d="M347 729c53.5 5 15 86 59 102 25 9 37-19.8 55-11.9 23 10.1 19.6 40 24 60.7 9.6 46 63 29.6 58-12.8"/><path class="st40" d="M519 861c89-9 47.5 119 114.5 115 39-6 35-47 25-76.5-3-9 0-18.5 7-24.5 24.5-21 59 15.5 84-2.5 15-11 8-33-2-45-12-15 0-32 10-43"/><path class="st40" d="M790 539c53 69.8-64 71 8 194.5 6 14 11 32 11 48.5 0 32-49 47.5-61 16"/><path class="st40" d="M721 287c2 51 64 31 74 88 6 34-11.5 71 7 103 10 18 27 31.5 34 51 8 19-4 47-27 42"/><path class="st40" d="M407 290.6c-16-8-12-29.9-2-41 17-15 40.5-10 61-6 29.8 1 49-29 75-38 50-17 81 55 133 44 23-5 48-11 69 1 25 14 33 55 10 75"/><path class="st40" d="M428 278c-16 26.5-51 17.5-76 28.5-20 10.5-28 33-23 55 10 47-43 51-39 88m25 4.5c1.5-23 35-26 41-5 7 25-13 47 16 72"/><path class="st40" d="M334 476c-20-34-61-31.5-89-9.6-20 8-43-3-64 4-22 7-28 37-5 43.5 6.5 2 23-2 26-1 15 4 11 25-5 30-21 6-10 29 6 29"/><path class="st40" d="M216 554.5c-15 15-14 41 2 55 37 22 41 31 36 69.7-2 31 46 41 53.5 10 2-10.8-4-22 0-33 13-32 44 20 62-44.5"/><path class="st40" d="M327 647.9c25 29.7-.5 47-7 75-10 32.5 34 65 53 25"/><path d="M729 262.5c9 4 16 13 18 22.5m-193-68c12.5 2 24.5 8 34 16m9 9 3 3m-163 10c-5.5-.9-12 .6-15.5 4M362 319.6c-9 2-14 10.7-16 19M339 449c4 1 6 6 6 9.8M308.5 470c-12-6-16-5-22-4M175 492c1-4 5-7 9-7.5m38 89.5c-4 8 0 16 4 19.9m44 78.6c-1 6 1 15 9 18m76-77.5c-3 14-13 14.5-16 16m4.5 119.5c-5-3-9-9-8-15M397 782c-1 14.5 7 28 14 30m90 53.9c-3 12 2 27 14.5 25M636 957c14-3 17-28 11-38m96-60.1c1-7 0-14-4-19m46-49.1c8-6.5 9-25 3-39M786 582c5-8 3-19-3-26m37-12c2-8.5-.6-18-7-24m-56-169c18 6 22 30 21 35" style="opacity:.7882;fill:none;stroke:#fff;stroke-width:10;stroke-linecap:round;stroke-linejoin:round;stroke-miterlimit:10;enable-background:new"/></g><style>.st40{fill:none;stroke:#000;stroke-width:10;stroke-linecap:round;stroke-linejoin:round;stroke-miterlimit:10}</style><g id="Pipe_Of_Knowledge"><path d="M478 695c-48 92 99 149.7 174 113 13-18-119-149-174-113.2v.2z" style="fill:#fe1767"/><path d="M574 739c-27-26-70-36.5-105-23 12-41.5 68-23 93-4 0 0-1 0-1-.5l13 27.5zm21 47c-2.5-27 21-14 31-2 6 8 9.5 17 12 26.5 24 19.5 15.5-84-56-63.5l13 39z" style="fill:#ae0f45"/><path d="M565 713c11 63 60-15 121 67 7 11.5 16-8 21-13 31-46-4-105-58-71.2-36 22.2-41.5 17.2-84 17.2z"/><linearGradient id="SVGID_00000154411778530145966520000013617003029019428782_" gradientUnits="userSpaceOnUse" x1="738.744" y1="-303.298" x2="809.744" y2="-126.298" gradientTransform="translate(0 1066)"><stop offset="0" style="stop-color:#0fa"/><stop offset=".232" style="stop-color:#10c8bc"/><stop offset=".761" style="stop-color:#3940ea"/><stop offset="1" style="stop-color:#4c00ff"/></linearGradient><path style="fill:url(#SVGID_00000154411778530145966520000013617003029019428782_)" d="M591 744.1c82 30 73 140 144.5 169 54 16 139-21 130.6-85.9 39-9.7 27-63-9-67 2 13 0 25 0 38.8-15-.9-80.7-8-74-23 3-7 13-29-.7-29-23-.5-47 24-31 44.9 13 9 2 55-13 44.5C685 799.7 671 721 591 744.1z"/><path class="st40" d="M579 744c105 18 79 194 205 173 39-6.5 91-44 82-88"/><path class="st40" d="M749 840.7c-72-27-60-123-170-98M759.5 804c-8 15-9 33-5 49m27.5-38.5c-19.8-7-45-27-34-49 15-30 79-17 106-8 58 19.5 49 84-17 66"/><linearGradient id="SVGID_00000072269211518654249690000014188232534832389782_" gradientUnits="userSpaceOnUse" x1="782" y1="-324.389" x2="876.049" y2="-324.389" gradientTransform="translate(0 1066)"><stop offset="0" style="stop-color:#f05"/><stop offset="1" style="stop-color:#fa0"/></linearGradient><path style="fill:url(#SVGID_00000072269211518654249690000014188232534832389782_)" d="M782 781c5-12.5 0-52 15-66.8 7.5 39 21 12 22 3 2-16 14-29.7 30-31-23 43 8 55 14 15 12 7 18 25 8 36-23 17-13 47-15 58 0 3.8-50.5 2.8-74-14.2z"/><path class="st40" d="M769 773.9c25 22.5 62 27 94 23"/><path class="st40" d="M779 780c24-23-9.9-40.5 20.9-67 1 28 15.8 27.5 20-4 2-14.5 20.7-21 33-27.9-35 58 19 48 7 20.7 12 2 21 15 16 26.9-3 8-11 12-16 18.5-13 17 1 26-5 49.7M652 808c-55 22-132.5 14-168-38-19-23-27-69 8-81 27-5.5 51 15 76 21.1 61.5 15 93-39.6 132-18 37 20 23 76-9 95"/><path class="st40" d="M554.5 707.5c19 22 32 49 38 77.5M473 665c-28 12.5-43 47-33.5 76m260.1-80.4c32 2 52 30 55 59.8"/><path d="M471 661.9c-32 6-52 52-34 79.8m262.6-86.8c33.5 1 62 31 59.8 65m-284.4-19C416 786 582 858 650 815m69-66.1c-2.5 14-11 30.9-22 40" style="opacity:.6;enable-background:new;fill:none;stroke:#000;stroke-width:10;stroke-linecap:round;stroke-linejoin:round;stroke-miterlimit:10"/><path d="M852 848c-4 13.5-14 26-27 33m-9 6c-1 0-2 .8-2.5 1M872 784c7 7 9 18 0 25m-105.5 12c-1 6-2 13-1 19M708 878c6 9 15 15 25 19M553 731c7 9 12 19 14 30m3 13c0 1 .5 3 1 4m272-8c2 4 2 8 2 12m-199-23c7 3 12.5 9 17 14.5" style="fill:none;stroke:#fcfcfc;stroke-width:10;stroke-linecap:round;stroke-linejoin:round;stroke-miterlimit:10"/><path d="M782 818c-11 .6-21 8-28 16 0-10 2.5-22 9-28m71.5 19c14 8 21 29.8 19.9 45 9.8-12 14-29 9.9-44M787 773c20 12 46 15 69 12 6 27-66 4-75-5m-30 75c-6-8-19-10.8-21.5-23 9 2 17 7 24 13" style="opacity:.6;enable-background:new"/></g><style>.st114,.st40{fill:none;stroke-width:10;stroke-linecap:round;stroke-linejoin:round;stroke-miterlimit:10;stroke:#000}.st114{opacity:.6}</style><g id="pyramid_eyes"><linearGradient id="SVGID_00000087410782692247136030000000956565439834726541_" gradientUnits="userSpaceOnUse" x1="414.243" y1="543.244" x2="593.219" y2="543.244" gradientTransform="matrix(1.0318 .1598 -.1592 1.0282 76.34 -111.374)"><stop offset="0" style="stop-color:#fff200"/><stop offset="1" style="stop-color:#ff0051"/></linearGradient><path style="fill:url(#SVGID_00000087410782692247136030000000956565439834726541_)" d="M520.5 442.8 404 597.9l188 10.6z"/><linearGradient id="SVGID_00000168831845365355998570000006909071484893893810_" gradientUnits="userSpaceOnUse" x1="614.824" y1="519.499" x2="758.908" y2="519.499" gradientTransform="matrix(1.0318 .1598 -.1592 1.0282 76.34 -111.374)"><stop offset="0" style="stop-color:#fff200"/><stop offset="1" style="stop-color:#ff005e"/></linearGradient><path style="fill:url(#SVGID_00000168831845365355998570000006909071484893893810_)" d="m684 440.2-69.5 168.2 155.3-26.5z"/><path class="st114" d="M513 441.8c-39.9 53.5-84 105-120 160.5l196 11m89-174c-23 59-52 116-71 176.5l161-29"/><path class="st114" d="M432 568.7c44 21 96 24 142 9m58 .7c41 4 84 .5 120-18"/><path d="M633 568c32 9 91 3 118-16.2l-22-37.3-78 8.3-18 45.2zm-198-6.2c41 21 95 25 137 6.1l-16-41.4-98 3.7-23 31.6z" style="fill:#fff"/><linearGradient id="SVGID_00000104687410609106255600000008005634098492869297_" gradientUnits="userSpaceOnUse" x1="653.571" y1="533.828" x2="709.977" y2="533.828" gradientTransform="matrix(1.0318 .1598 -.1592 1.0282 76.34 -111.374)"><stop offset="0" style="stop-color:#00ffd0"/><stop offset="1" style="stop-color:#002fff"/></linearGradient><path style="fill:url(#SVGID_00000104687410609106255600000008005634098492869297_)" d="M676 520.8c-13 12-29 68 37 46.3 14-3 10.7-21 5-29.7-16.5 12-32-.9-28-18.9l-14 2.3z"/><linearGradient id="SVGID_00000092416489060258335420000012955109637503799733_" gradientUnits="userSpaceOnUse" x1="481.368" y1="567.233" x2="535.584" y2="567.233" gradientTransform="matrix(1.0318 .1598 -.1592 1.0282 76.34 -111.374)"><stop offset="0" style="stop-color:#00ffd0"/><stop offset="1" style="stop-color:#002fff"/></linearGradient><path style="fill:url(#SVGID_00000092416489060258335420000012955109637503799733_)" d="M491 527.2c-11 15-17 51 9.9 52.4 24 2 43.5-2 34-29.8-31 2-30.8-17-25-25.1l-18.9 2.5z"/><path d="M517 472.9c3 8.5 6 17 9 25m5 12.1 1.5 3M686 470l12 22m6 10 1 2" style="fill:none;stroke:#fff;stroke-width:10;stroke-linecap:round;stroke-linejoin:round;stroke-miterlimit:10"/><path class="st40" d="M558.5 532.6c-33-13-74-10-106 3m123 35.5c-46 17-99 14-143-8M728 519c-26-5-53-3-78 6m103 31.6c-38 16-80 21-121 15"/><path class="st40" d="M488.5 526.9c-8.5 16-9.6 35-3 52m45.5-52.5c8 16 9.9 36 4 53"/><path class="st40" d="M509 525.7c-9 17 12 34 27 23m135.5-27.8c-10 23.5-7.5 34 3 50.7m37.5-54c9 14 13 30 11 46"/><path class="st40" d="M693 517.9c-14 16 11 38 25 16m-197.5-91.1L404 597.9l188 10.6z"/><path class="st40" d="m684 440.2-69.5 168.2 155.3-26.5z"/></g><defs><style>.zbi-3{fill:none;stroke-linecap:round;stroke-linejoin:round;stroke-width:10px;stroke:#000}</style></defs><path d="M346.3 398.4c133.7 133.1 174-36.5 487-17 12.1.8 16-8.5 10.7-17.5-12.5-21.3-43.6-24.9-57.7-46.5-149.5-6.2-302.5 14.1-440 81Z" style="fill:#e600ff"/><path d="M293.6 425.4c147.8-84.7 322.8-116.1 494.1-106.7 18.8-290.3-568.4-184.4-494.1 106.7Z" style="fill:#bf00ff"/><path class="zbi-3" d="M293.6 425.4c147.8-84.7 322.8-116.1 494.1-106.7 18.8-290.3-568.4-184.4-494.1 106.7Z"/><path class="zbi-3" d="M346.3 398.4c133.7 133.1 174-36.5 487-17 12.1.8 16-8.5 10.7-17.5-12.5-21.3-43.6-24.9-57.3-45.5"/><path d="M348.3 404.5a417 417 0 0 0-53.9 28m134.6 15c35.3 11.7 79.6-5 113-16.8 81.2-28.8 166.2-48.7 252.5-45.7" style="opacity:.6;stroke:#000;fill:none;stroke-linecap:round;stroke-linejoin:round;stroke-width:10px"/><path d="M811.8 353.4a39.6 39.6 0 0 1 14.9 12.3m-444.7 47a115.1 115.1 0 0 0 40.9 19.4m12.9 1.3h4.8m254.7-244.3a113 113 0 0 1 58 56.7m6.2 15.7 3.2 8m-386.4-33.8c-29.2 23.4-53.5 48.7-62.1 83.6" style="stroke:#fff;fill:none;stroke-linecap:round;stroke-linejoin:round;stroke-width:10px"/><circle cx="550" cy="550" r="500" style="fill:none;stroke:#000;stroke-width:10;stroke-linecap:round;stroke-linejoin:round;stroke-miterlimit:10"/></svg>