<svg version="1.1" id="Layer_1" xmlns="http://www.w3.org/2000/svg" x="0" y="0" viewBox="0 0 1100 1100" style="enable-background:new 0 0 1100 1100" xml:space="preserve" xmlns:xlink="http://www.w3.org/1999/xlink"><style type="text/css">.st300{fill:#00DE72;stroke:#000000;stroke-width:10;stroke-linecap:round;stroke-linejoin:round;stroke-miterlimit:10;}</style><circle class="st300" cx="550" cy="553.7" r="500"/><path d="M327 702.4c-23 52 11 74 36.5 56.6 38.5-10-14 99.9 89.9 62.9 18 1 28 22 29.8 40.3 6.5 63 54 46 59 8 15.5-34 45 49 47 59.9 11 73 69 42 71 17.9 3-54-3-60.1 2-68.3 18.5-31 71 13 90.8-15.5 14-19.7-31-63.5 8-55.4 94 19 19-101 14-120.4l-448 14z" style="fill:#20f"/><path d="M779 692.9c-15-51 21-118 41.5-126.2 18.5-8 17-33 7-50.2h-620c7 18-39 32-21 49.2 18 5 21 39.9 57 63.2 14 20 3 51 19 69.1 35.8 38 46-25 41-34.3 4-39 44-11 23 38.7-23 53 14 74 32.5 61.5 16-11 25-65 63 3.8 11 21 47 11 39-13.5-18.5-58 50.7-32 59-10 5 12.5-8 31 8 37.1 35 13 37-31 29.9-42.8-17-28 17-34 27.5-21.8 11 12-18 33 11 43.2 14 5 34-4 32-21.1-1-8-29-43 22-38 39 4 71 91 97 20.6C752 709 762 688 779 692.9z" style="fill:#04f"/><path d="M828 516.5c-76-76 7-145.5-67-184.7l-436 55.5c-9 19.6-34 35-37 52.2-43 48-155 7-119 70.4 48-3 52 29 58 37.6 23 33 72-41 88.5 20.7 12 43 39.7 26 39 9.3-2-37.5 45-31 59.6-9.7 75 110 112 49 105 20.2-9-39.9 23.5-39 29-29.8 6 9.6-7 22-3 32.5 9 25 53.5 18 35.5-25.4-11-27 39-10.1 53 .5 45.5 35 86 35 120-14.2 25-37 47-22 61.5-22.1 6.9.1 21.9-3.5 12.9-13z" style="fill:#00b2ff"/><path d="M761 331.7c-16-9 41-64-36-85.8-22-4-44 9-66.5 6.3-44-5-80-74-127-43.1-68 59.6-71 20-121 36.5-19.6 10.9-9 38-5 47.6 12 24-91-35-78 91.2-1 11 12.5 24 21 16.6 26-23 41-7 52 17.3 15 34 48.5 23 47-14.9-1-42 80.7-51 88 55.6 1.5 22 37 31 53 13.8 34-39-17-59.7-2-87.9 4-7 18-7 19.6 1.3 1 6-4 12-3 17.7 5 26.5 43.5 3 33-18.9-25-49.9 50-19.8 73-17.2C734.5 370 743 348 761 331.7z" style="fill:#00e1ff"/><style>.st40{fill:none;stroke:#000;stroke-width:10;stroke-linecap:round;stroke-linejoin:round;stroke-miterlimit:10}.st98{opacity:.6;enable-background:new}</style><g id="Outline"><path class="st98" d="M793 537c-1 .7-1 2-.5 3 5 10 11 35 25 30 8-2 21-13 18-22.4-.5-1-2-2-3-1.5-26 12-28-11-39-9.4v.3zm-34 274.5c6 5 26 8 25-3-6-7-20.6-12-21.5-26C750 772 744 803 759 811.5zm-219.3 52s1 .5 1 .8c9 13.5-3 36-18 40-34 6-9-6-6-44 .3-5.3 22.3 2.7 23 3.2zM342 731c5 7-4 22-4 33 8 13 29.6-5 33-14.9 2-12-17-21-28-20.2-1 .1-1 1.1-1 2.1zm31-120.2c2 23-8 47-26 61.9-13 10.9-17.5-30.6-8-27.9 6 4.2 28-18.8 34-34zm-157-59.9c-8 6-17 3-25 1-11 5 4 20 13.5 16 5-4 12-9 12-15.7-.5-.2-1.5-.2-.5-1.3zM337 473c-6-10-3-23 0-34 0-1 0-2-.6-2-9-9-23 11-19.8 20.7C318 463 338 475 337 472.8v.2z"/><path class="st98" d="M326 392c-2 29 24 45 7 44-7 2-14 1-15 11-1 11-24 0-24.5-1.3C285 433 317 404.5 326 392zm103-118c-9.9-4-16-16-18-25-4-6-9.9 1-11 6-7 54 29.5 28 29 19zm293 9c16 21 29.5 12 40 20.7 3 4 1 9.6-1 14-3 9-13 9-20 4.1-14.5-5.8-22-22.2-19-38.8z"/><path class="st40" d="M347 729c53.5 5 15 86 59 102 25 9 37-19.8 55-11.9 23 10.1 19.6 40 24 60.7 9.6 46 63 29.6 58-12.8"/><path class="st40" d="M519 861c89-9 47.5 119 114.5 115 39-6 35-47 25-76.5-3-9 0-18.5 7-24.5 24.5-21 59 15.5 84-2.5 15-11 8-33-2-45-12-15 0-32 10-43"/><path class="st40" d="M790 539c53 69.8-64 71 8 194.5 6 14 11 32 11 48.5 0 32-49 47.5-61 16"/><path class="st40" d="M721 287c2 51 64 31 74 88 6 34-11.5 71 7 103 10 18 27 31.5 34 51 8 19-4 47-27 42"/><path class="st40" d="M407 290.6c-16-8-12-29.9-2-41 17-15 40.5-10 61-6 29.8 1 49-29 75-38 50-17 81 55 133 44 23-5 48-11 69 1 25 14 33 55 10 75"/><path class="st40" d="M428 278c-16 26.5-51 17.5-76 28.5-20 10.5-28 33-23 55 10 47-43 51-39 88m25 4.5c1.5-23 35-26 41-5 7 25-13 47 16 72"/><path class="st40" d="M334 476c-20-34-61-31.5-89-9.6-20 8-43-3-64 4-22 7-28 37-5 43.5 6.5 2 23-2 26-1 15 4 11 25-5 30-21 6-10 29 6 29"/><path class="st40" d="M216 554.5c-15 15-14 41 2 55 37 22 41 31 36 69.7-2 31 46 41 53.5 10 2-10.8-4-22 0-33 13-32 44 20 62-44.5"/><path class="st40" d="M327 647.9c25 29.7-.5 47-7 75-10 32.5 34 65 53 25"/><path d="M729 262.5c9 4 16 13 18 22.5m-193-68c12.5 2 24.5 8 34 16m9 9 3 3m-163 10c-5.5-.9-12 .6-15.5 4M362 319.6c-9 2-14 10.7-16 19M339 449c4 1 6 6 6 9.8M308.5 470c-12-6-16-5-22-4M175 492c1-4 5-7 9-7.5m38 89.5c-4 8 0 16 4 19.9m44 78.6c-1 6 1 15 9 18m76-77.5c-3 14-13 14.5-16 16m4.5 119.5c-5-3-9-9-8-15M397 782c-1 14.5 7 28 14 30m90 53.9c-3 12 2 27 14.5 25M636 957c14-3 17-28 11-38m96-60.1c1-7 0-14-4-19m46-49.1c8-6.5 9-25 3-39M786 582c5-8 3-19-3-26m37-12c2-8.5-.6-18-7-24m-56-169c18 6 22 30 21 35" style="opacity:.7882;fill:none;stroke:#fff;stroke-width:10;stroke-linecap:round;stroke-linejoin:round;stroke-miterlimit:10;enable-background:new"/></g><style>.st40,.st68{fill:none;stroke-width:10;stroke-linecap:round;stroke-linejoin:round;stroke-miterlimit:10;stroke:#000}.st68{opacity:.6;enable-background:new}</style><g id="Eye"><linearGradient id="SVGID_00000144327888440828662330000012949225208094602647_" gradientUnits="userSpaceOnUse" x1="232.314" y1="-555.531" x2="336.458" y2="-482.43" gradientTransform="translate(0 1066)"><stop offset="0" style="stop-color:#00ff04"/><stop offset=".811" style="stop-color:#00fccf"/><stop offset="1" style="stop-color:#00fbff"/></linearGradient><path style="fill:url(#SVGID_00000144327888440828662330000012949225208094602647_)" d="M278 494c-31 10.8-13 49-9.5 56 8 16-9 32.5 9 50.8 9 9 46 8 40.7-31-2-13-13-23-13.5-35.8-.7-21-3.7-48-26.7-40z"/><path d="M273 498c-6.5 9-1 22 4 30.8 6 8 13 15 14 25 2 14-6 31 3 43.7 15 18 30.6-23 23-35-3-7-8-13.5-10-20.8-5-16 2-45-21-49" style="opacity:.5098;fill:#fff;enable-background:new"/><path class="st68" d="M274 516c9 24.5 14 39 18 64"/><path class="st40" d="M278 494c-31 10.8-13 49-9.5 56 8 16-9 32.5 9 50.8 9 9 46 8 40.7-31-2-13-13-23-13.5-36C304 513 301 486 278 494z"/><path class="st40" d="M282 526c6 17 10.5 35 14 53"/><path d="M279 515c1 4 2 7 3.5 11m24.5 46.9c1 5 1.5 13-5 19" style="fill:none;stroke:#fff;stroke-width:10;stroke-linecap:round;stroke-linejoin:round;stroke-miterlimit:10"/><path class="st68" d="M264 495.9c-15.5 19-6 44 1 65 3 9-3 18-1 27 4 24 31 31 46 12"/></g><style>.st40{fill:none;stroke-width:10;stroke-linecap:round;stroke-linejoin:round;stroke-miterlimit:10;stroke:#000}.st152{fill:#ae0f45}</style><g id="Vamp"><path d="M429 737.5c57 100 248 114 303 5-22.3-58.5-275-50.5-303-5z" style="fill:#fe1767"/><path class="st152" d="M637 761.5c-120-80.6-205 29-203-19-10-23 154-62.9 203 19z"/><path class="st152" d="M647 768c5-34 49-35 50.9-46-22-15-59.5 0-75 19.8l24 25.8v.4z"/><path d="M575 734c14 4.5 26 13 36 24m8 10.5c1 1 2 2.5 3 4m35-31c5-1 10.5-2 15 0m31 3c3 0 5.5 1 8 3" style="fill:none;stroke:#fff;stroke-width:10;stroke-linecap:round;stroke-linejoin:round;stroke-miterlimit:10"/><path d="M424 720.7c2 37.5 43-33 182 8 35 26 59-19.8 114 5.9 41 19 50-119.8-20.7-73.1-44 22-97 39.6-147 39C508 695 427 639.7 424 720.7z"/><path d="M489.6 686c7 18 14 37 21 55 1.4 4 52.4-57.5-21-55zm214.4-7c-4.5 21-14 81-20 55-4-18-15-38-28-50.6-4-2.4 73.5-48.4 48-4.4z" style="fill:#fff"/><path d="m507 692.7.7-3c-9 12 9 41 3 52-5-5-18-44-21-58.7v2l17.3 7.7zM676 674c6 41 18 53 13.5 59.6-12-12-33-49.8-34-53.1l-1 1.1L676 674z" style="fill:#b3b3b3"/><path class="st40" d="M703 659.7c-65 28-131 58-200 28-99-43-102 58.5-29.7 98.5 49.7 27.5 109.6 43 166 29.7 42-10 124-71 111-147.5-4.3-24.9-27.3-17.4-47.3-8.7z"/><path class="st40" d="M484 684c14 23 23 49 28 76 4-21.5 11-42 21.5-62M653 684c19 17 28 42 37 66 7-30 10.7-67 24-92m-186 57c44-6 90 16 116.5 51.5"/><path class="st40" d="M621 739.9c18-9.5 38-12 58-11m16-.4c13 0 25 6 36 13M499 718c-24-1.5-48 4.5-68 17"/></g><style>.st16,.st40,.st68{fill:none;stroke:#fff;stroke-width:10;stroke-linecap:round;stroke-linejoin:round;stroke-miterlimit:10}.st40,.st68{stroke:#000}.st68{opacity:.6;enable-background:new}</style><g id="visor"><path class="st68" d="M425 452.5c-10 10-4 21-3 34 1 17.5-25 17-23 50.8 2 14 13.5 16 23 23.7 16 13-12 46.5 10.5 59 28 9 30-39 60.5-13 35 26 45-3 76-1 14 3 23 19.6 37 17.6 15-2 18-20 26-30.7 12-16 32 5 58-7 14-7 10.8-31 27-33 10-1 22-7 25-17.8 1-4 .7-9 3-11.9 3-4 9-5 11-9"/><path class="st68" d="M483 474c-28 10-52 59-14 72m214-104.1c32-1 53 43 26 64m-216 .1c-38 74 159 54 184 5"/><path d="M667 467c-60.6-40.6-281 59-113 83.5 33 5 185.5-41 113-83.9v.4z" style="fill:#fff"/><linearGradient id="SVGID_00000094605671738681660570000007936507584095639945_" gradientUnits="userSpaceOnUse" x1="531.586" y1="652.528" x2="653.586" y2="545.528" gradientTransform="matrix(1 0 0 -1 0 1100)"><stop offset="0" style="stop-color:#7b00ff"/><stop offset="1" style="stop-color:#ff0084"/></linearGradient><path style="fill:url(#SVGID_00000094605671738681660570000007936507584095639945_)" d="M550 467.8c-14 18 11 55 13 77 5 7 19.7 5 25-2 12-19.9-19.5-44-2-62 34-18 16 44 33 54.9 14 3 24-5 18-20-3-15 7-32-2-46-17-26.7-57-6.7-85-1.9z"/><path class="st16" d="M616 472c4 3 6.5 7 7 12m1 11v3"/><path d="M589 509.6c-6 26 3 45 25 27.9 4-17.5-4-37.8-25-27.9z"/><path class="st40" d="M623 456c-34 1-67 9-98 22.5-39.6 17-51 50.7-3 66 40 13 129-5.8 157-37.4 27-31.1-23.5-52.1-56-51.1zm-138 18c-20 15.5-47 54-14 71m210-103.1c29 12 42 36.5 27 65"/><path class="st40" d="M548 470c-15 25 21 51 15 75m57-87c33.5 21 8 44.5 21 70m-51.3 15c6-24-26-55-1-64 30-4 16 42 30.5 58"/><path class="st40" d="M580 500c4 9 19.8 11 27 7"/><linearGradient id="SVGID_00000036223863161345539850000005378798673148752026_" gradientUnits="userSpaceOnUse" x1="447.777" y1="687.666" x2="720.78" y2="506.665" gradientTransform="matrix(1 0 0 -1 0 1100)"><stop offset="0" style="stop-color:#ff002b"/><stop offset="1" style="stop-color:#ffd500"/></linearGradient><path style="opacity:.6902;fill:url(#SVGID_00000036223863161345539850000005378798673148752026_);enable-background:new" d="M490 437.6c-27-5-59.5-2-69 27.5-2 8 6.5 14 8.5 23-13 13.5-31 37-21 56 17 16 28 12 22 41.3-4 12 0 36 16.5 28 24-20.5 25-38 55-9.8 36 21 42-28 89 4.9 5 3 10.5 7 16 5.2 5-1 9-7 10.9-11.5 19.7-55 51 4 78-31 18-41 36-9 44-50 9-8 22-7 24-22.2 3-23-25-35-31-54.5-6-26 13-63-29-63-42 9.6-31 58-93 33-71-35-61.4 34.5-120.9 23.1z"/><path class="st16" d="M713 395c6.5 2 9 9 9 15m-2 13v2m26.5 60c3 3 5 8 5 13m-183-80c6-3 13.5-1 19 2m12.4 4 2.1 1m-121.5 25c-7-1-15-1-22 0M726 523c1 4 0 8-2 11m-36 27.5c-2 4-4 9-9 10.6m-12-.1h-2m-56 21c-1 3-3.5 6-5.5 9M535 592c-4 4-10 5-16 5m-11-4-2-1m-65-1.3c-1.5 3-2 7-.5 10M427 513c-4 4-6 9-7 15m-.3 10.5.3 1.5"/><path class="st68" d="M737.5 501c3 7 11 11.5 19 10.6M449 464c-5 6-13 10.9-21 13"/><path class="st40" d="M449 464c-9 26-42 39-44 68-1 8 4 17 12 19 6.5 2 13 3 15 9.8 5 16-13 44 5.5 52 24 11 23-43 58-14 45 37 47-28 95 11 27 22 25-16 40.8-28.5 15-12 35 8 52 2 15-5 15-24 24-33 7-5 17-2 23-7 14-9.6 4-29.9 7-44"/><path class="st40" d="M431 486c-24-21 3-49.7 29.8-49.5 24-2 56 9.6 74-10 39-42 61-9.7 103-5.2 46.5 2 39-48.5 78-39.5 29 11 16 33 17 56 1 18 19 29.5 27 44.9 10 16 0 42.5-21 33"/></g><defs><linearGradient id="zbm" x1="557" y1="390.36" x2="524.49" y2="55.58" gradientUnits="userSpaceOnUse"><stop offset="0" stop-color="#ff003b"/><stop offset="1" stop-color="#ffc400"/></linearGradient><linearGradient id="zbm-2" x1="549.79" y1="299" x2="555.18" y2="378.33" gradientUnits="userSpaceOnUse"><stop offset="0" stop-color="#ffc800"/><stop offset="1" stop-color="#ff00ae"/></linearGradient><style>.zbm-3{fill:none;stroke:#000;stroke-linecap:round;stroke-linejoin:round;stroke-width:10px}</style></defs><path d="M316.7 353c-63-155.5-37.1-219.2 128.3-254.6 191.6-41.2 362.9-25.6 358.4 214.7-161.7-13.6-328.6.5-486.7 39.9Z" style="fill:url(#zbm)"/><path d="M317.3 403.1c-9.2 12.5-26.4 20.8-27.1 38.3-246.4-126.3 825.4-205.6 507.3-39.3 0-14.4 1.3-30.2-10-44.1a1069.4 1069.4 0 0 0-470.2 45.1Z" style="fill:url(#zbm-2)"/><path class="zbm-3" d="M816.2 359.4c-178.6-21.7-358.6-11-528.1 54.1"/><path class="zbm-3" d="M790.7 358.2c8.1 13.7 6.8 29.5 6.8 43.9 318.1-166.3-753.7-87-507.3 39.3.7-17.5 17.9-25.8 27.1-38.3"/><path class="zbm-3" d="M316.7 353c-63-155.5-37.1-219.2 128.3-254.6 191.6-41.2 359.9-25.1 359.9 215.2"/><path d="M787.5 205.3c-133.3-32.4-409.5 9.4-497.4 58.6 2 11.1 4.4 22.2 8.4 37.5 156.4-56.5 331.7-87.3 497.4-59.6Z" style="stroke-linecap:round;stroke-linejoin:round;stroke-width:10px;stroke:#000"/><path d="M791.5 364.6a1178 1178 0 0 0-478.6 45m503.3-50.2c-6.5.9-15.1 4.9-18.7 10.8M287.2 415a23 23 0 0 1 13.2 1.6m497.1-169c-163.6-22.8-340.7-7.1-492.8 61.7" style="opacity:.6;stroke-linecap:round;stroke-linejoin:round;stroke-width:10px;stroke:#000;fill:none"/><path d="M834.6 338.8a192.7 192.7 0 0 0-46-11.5m-14.4-2-6.8-.9m-433.7 43.3c-15.2 3.6-29.1 7.5-41 15.7m-17.1 8 3.3-1.8M684.1 118a78.6 78.6 0 0 1 40.3 26.8m10.5 13.6 3.7 5.1m46.3 101.1a86.7 86.7 0 0 1 1.5 26.9M313.6 181.7a76.4 76.4 0 0 1 35.5-34.4m-43.3 48.9-1.8 5.5" style="stroke:#fff;opacity:.78;fill:none;stroke-linecap:round;stroke-linejoin:round;stroke-width:10px"/><circle cx="550" cy="550" r="500" style="fill:none;stroke:#000;stroke-width:10;stroke-linecap:round;stroke-linejoin:round;stroke-miterlimit:10"/></svg>