<svg version="1.1" id="Layer_1" xmlns="http://www.w3.org/2000/svg" x="0" y="0" viewBox="0 0 1100 1100" style="enable-background:new 0 0 1100 1100" xml:space="preserve" xmlns:xlink="http://www.w3.org/1999/xlink"><path d="M50 550C50 274 274 50 550 50s500 224 500 500S50 826 50 550z" style="fill:#0090ff"/><path d="M1050 550c0 276-224 500-500 500S50 826 50 550s1000-276 1000 0z" style="fill:#06f"/><defs><style>.zc-2,.zc-3{fill:none;stroke-linecap:round;stroke-linejoin:round;stroke-width:10px}.zc-2{stroke:#4a4a4a}.zc-3{stroke:#00ff37}</style></defs><g id="Layer_72" data-name="Layer 72"><path d="M531.7 209c-67.9 59.6-70.9 20.3-120.8 36.5-19.6 10.9-14.3 30.3-9.7 39.6 11.2 22.8-50.8 8.7-68.6 40.3-10.3 18.3.1 42.2-7.5 61.8s-33.8 34.7-36.8 52.2c-43.4 48.2-154 6.6-119.1 70.4 6.2 11.4 32.9-6.3 39.1 9.1 7 17.5-38.8 29.4-21.3 46.7 17.7 4.9 20.7 39.9 56.9 63.2 13.8 20 2.7 51.4 19.4 69.1 35.8 37.8 46.3-24.8 41.3-34.3 4.3-38.8 43.9-10.6 22.2 38.7-22.8 51.7 11.2 74 36.5 56.6 24-8.9 13.3 38.7 23.3 50.9 19.5 37.2 54.9 11.6 66.6 12 18.1.7 28 22.3 29.8 40.3 6.5 63 53.6 46.3 59.1 8 15.5-34.3 45.1 48.6 46.9 59.9 11.3 72.6 69.3 42 70.8 17.9 3.3-54.1-3.2-60.1 1.7-68.3 18.5-31.1 71 13.3 90.8-15.5 13.6-19.7-31.2-63.5 7.9-55.4 94 19.4 18.7-100.7 13.8-120.4-8.8-35.5 13.9-105.6 46.9-121.7 18.1-8.8 17.1-35.5 7.4-52.8s-24.9-30.6-31.4-48.9c-13.5-54.4 22.4-102.1-36-133.3a10.2 10.2 0 0 1-3.9-14.4c17.1-26.3 1.3-66.4-31.8-71.4-22.1-3.3-44.3 8.9-66.5 6.3-43.8-5.2-80.2-74.1-127-43.1Z" style="fill:#757575"/><path class="zc-2" d="M416.3 430.8c-7.8 85.7-9.7 162.5-14.6 245.2-15.1 6.6-15.8 30.7 1 32.6"/><path class="zc-2" d="M268.4 456.4q-1.3 51.9-5.7 103.6c86.9 6.2 172.1 5.7 258 12.8.8 15.4 20.6 16.8 27.6 6.3"/><path class="zc-2" d="M446 564.3c-2.2 48.2-4.3 96.5-.6 144.5l102.9 7.6"/><path class="zc-2" d="M504.2 793.2a1259.8 1259.8 0 0 1-4-130.1c-9.2-4.4-11.8-17.1-.3-22.8m-89 104.8-.1 83.7"/><path class="zc-2" d="M415.9 788.2c58.7-.6 115.8-1 176.4-.6 4.4 12.8 18.4 10.7 22.6 1.9M375.8 302.8c-.7 34.1-5.5 102.7-5.8 102.4-9.5 5.5-16.4 18.6-.4 26.1m117-190.5c-4 52.9-9.6 103.1-10.8 155.2"/><path class="zc-2" d="M378.1 380.3c79.4 1.5 159.1 4.3 238.4 4.3m-131.7-43.9a705.1 705.1 0 0 0 80.9 6c2.1 11.1 12.6 11.4 17.1 4.6m73-99.4c-22.8 113.8-33.3 229.4-33.3 345.8"/><path class="zc-2" d="M790.1 437.5c-60.6-2.3-118.7-4.1-179-8.9 0 10.8-13.8 16.2-20.3 4.2"/><path class="zc-2" d="M690.3 634.1c6-76.9 12-153.9 24.2-229.5-11.3-4.6-18-23.6-2.4-32.4"/><path class="zc-2" d="M558.1 620.2a1265.5 1265.5 0 0 0 220.2 6.3"/><path class="zc-2" d="M632.7 622.6c9.4 108.6 8.8 220.1 28.8 330.2M418.1 482.2l235.5 15.9"/><path class="zc-2" d="M799.4 736.5c-74.3 4.6-143.2 5.8-216.2 6-9.8 14.5-22.4 14.1-28.5 3.3"/><path class="zc-3" d="M274.9 453.3c-.5 33.5-2.7 66.9-6.3 100.1l251.2 12m-67.1-.2q.3 68.4-1.8 136.7l98.6 8.1"/><path class="zc-3" d="M507.4 662a1249.5 1249.5 0 0 0 5 129.8m-91-360q-8.1 123.3-12.5 246.9m13.6-203.4c77 7.5 154.2 14 231.4 18.3M494.5 237.3C488.5 290 484 343 481 396m8-61.3c25.8 2.9 51.7 5 77.7 6.1M383.3 303c-2.1 35.5-4.7 70.9-7.6 106.3"/><path class="zc-3" d="M380.9 374.1c78.1 1 159.3 6.7 234.6 6.7m45.3-128.7A2110 2110 0 0 0 626 596.9"/><path class="zc-3" d="M791.1 434.5c-61.8-5-119.4-6.7-181.8-11.7"/><path class="zc-3" d="M721.5 403.7q-16.7 116.1-25.2 233.1"/><path class="zc-3" d="M783.7 620.7a1735.9 1735.9 0 0 1-224.6-4.1m79.1 6.9c10.7 106.6 7.9 214.6 26.8 320.1"/><path class="zc-3" d="M796.7 732.4c-76.7 2.3-144.6 2-217.1 4.1m-163.8 95.1c-.3-29.8.2-59.5 1.4-89.3m.5 39.6c58.5 0 115.7-.5 175.3-.5"/><ellipse class="zc-3" cx="577" cy="339.7" rx="10.4" ry="14"/><ellipse class="zc-3" cx="598.3" cy="420.8" rx="10.9" ry="16.7"/><ellipse class="zc-3" cx="374.9" cy="421" rx="11.1" ry="11.7"/><circle class="zc-3" cx="538.2" cy="565.4" r="17"/><ellipse class="zc-3" cx="564.5" cy="737.8" rx="13.3" ry="12.4"/><ellipse class="zc-3" cx="606.2" cy="781.9" rx="11.6" ry="11.7"/><circle class="zc-3" cx="722.4" cy="384.6" r="16.2"/><circle class="zc-3" cx="408.9" cy="694.8" r="15.2"/><ellipse class="zc-3" cx="508.6" cy="648.7" rx="13.4" ry="11.1"/></g><style>.st40{fill:none;stroke:#000;stroke-width:10;stroke-linecap:round;stroke-linejoin:round;stroke-miterlimit:10}.st98{opacity:.6;enable-background:new}</style><g id="Outline"><path class="st98" d="M793 537c-1 .7-1 2-.5 3 5 10 11 35 25 30 8-2 21-13 18-22.4-.5-1-2-2-3-1.5-26 12-28-11-39-9.4v.3zm-34 274.5c6 5 26 8 25-3-6-7-20.6-12-21.5-26C750 772 744 803 759 811.5zm-219.3 52s1 .5 1 .8c9 13.5-3 36-18 40-34 6-9-6-6-44 .3-5.3 22.3 2.7 23 3.2zM342 731c5 7-4 22-4 33 8 13 29.6-5 33-14.9 2-12-17-21-28-20.2-1 .1-1 1.1-1 2.1zm31-120.2c2 23-8 47-26 61.9-13 10.9-17.5-30.6-8-27.9 6 4.2 28-18.8 34-34zm-157-59.9c-8 6-17 3-25 1-11 5 4 20 13.5 16 5-4 12-9 12-15.7-.5-.2-1.5-.2-.5-1.3zM337 473c-6-10-3-23 0-34 0-1 0-2-.6-2-9-9-23 11-19.8 20.7C318 463 338 475 337 472.8v.2z"/><path class="st98" d="M326 392c-2 29 24 45 7 44-7 2-14 1-15 11-1 11-24 0-24.5-1.3C285 433 317 404.5 326 392zm103-118c-9.9-4-16-16-18-25-4-6-9.9 1-11 6-7 54 29.5 28 29 19zm293 9c16 21 29.5 12 40 20.7 3 4 1 9.6-1 14-3 9-13 9-20 4.1-14.5-5.8-22-22.2-19-38.8z"/><path class="st40" d="M347 729c53.5 5 15 86 59 102 25 9 37-19.8 55-11.9 23 10.1 19.6 40 24 60.7 9.6 46 63 29.6 58-12.8"/><path class="st40" d="M519 861c89-9 47.5 119 114.5 115 39-6 35-47 25-76.5-3-9 0-18.5 7-24.5 24.5-21 59 15.5 84-2.5 15-11 8-33-2-45-12-15 0-32 10-43"/><path class="st40" d="M790 539c53 69.8-64 71 8 194.5 6 14 11 32 11 48.5 0 32-49 47.5-61 16"/><path class="st40" d="M721 287c2 51 64 31 74 88 6 34-11.5 71 7 103 10 18 27 31.5 34 51 8 19-4 47-27 42"/><path class="st40" d="M407 290.6c-16-8-12-29.9-2-41 17-15 40.5-10 61-6 29.8 1 49-29 75-38 50-17 81 55 133 44 23-5 48-11 69 1 25 14 33 55 10 75"/><path class="st40" d="M428 278c-16 26.5-51 17.5-76 28.5-20 10.5-28 33-23 55 10 47-43 51-39 88m25 4.5c1.5-23 35-26 41-5 7 25-13 47 16 72"/><path class="st40" d="M334 476c-20-34-61-31.5-89-9.6-20 8-43-3-64 4-22 7-28 37-5 43.5 6.5 2 23-2 26-1 15 4 11 25-5 30-21 6-10 29 6 29"/><path class="st40" d="M216 554.5c-15 15-14 41 2 55 37 22 41 31 36 69.7-2 31 46 41 53.5 10 2-10.8-4-22 0-33 13-32 44 20 62-44.5"/><path class="st40" d="M327 647.9c25 29.7-.5 47-7 75-10 32.5 34 65 53 25"/><path d="M729 262.5c9 4 16 13 18 22.5m-193-68c12.5 2 24.5 8 34 16m9 9 3 3m-163 10c-5.5-.9-12 .6-15.5 4M362 319.6c-9 2-14 10.7-16 19M339 449c4 1 6 6 6 9.8M308.5 470c-12-6-16-5-22-4M175 492c1-4 5-7 9-7.5m38 89.5c-4 8 0 16 4 19.9m44 78.6c-1 6 1 15 9 18m76-77.5c-3 14-13 14.5-16 16m4.5 119.5c-5-3-9-9-8-15M397 782c-1 14.5 7 28 14 30m90 53.9c-3 12 2 27 14.5 25M636 957c14-3 17-28 11-38m96-60.1c1-7 0-14-4-19m46-49.1c8-6.5 9-25 3-39M786 582c5-8 3-19-3-26m37-12c2-8.5-.6-18-7-24m-56-169c18 6 22 30 21 35" style="opacity:.7882;fill:none;stroke:#fff;stroke-width:10;stroke-linecap:round;stroke-linejoin:round;stroke-miterlimit:10;enable-background:new"/></g><style>.st231{fill:none;stroke:#000;stroke-width:10;stroke-linecap:round;stroke-linejoin:round;stroke-miterlimit:10}</style><g id="Layer_65"><path d="M356 639c8-18-17-27-19-43 7-59.6-10.7-35-28-65.1-7 17 17 81-13 55.1-7-6-2-19-8.5-26-42 42-9-38-27-59.4 1.5 26-36 17-15-35.1-108-4-96 43-63 50 19 4 37-17 24 21.7-13 8-32 15-12.5 30.9 23 14 3 28 29 44.6 32 18 36 34 30 68 1 14 15 25 29 25.8 39.6 3 9.5-50.6 37-61.3 11-2.2 29 7.8 37-6.2z" style="fill:#ff054c"/><path class="st231" d="M244.5 466.7c-20.9 59 19.9 60 12 27.5 24 25 1.5 43 5 67.8 3.5 16.5 27 9.8 22-6 15 5 3 38 19.9 34.8 26-4-13-44 6-72 0 36 24 19.8 30 45.9 2 7 0 15-1 22.1-7 28 21 27 20 50.4"/><path d="M313 516.9c0 34 24 19 30 44.3 2 7 0 14-1 21.3-7 27 21 26 20 48.6M248.5 466.7c-20.9 57 19.9 58 12 26.6 24 24 1.5 41 5 65.4 3.5 16 27 9 22-5.7 15 5 3 36 19.9 33.6" style="opacity:.6;stroke:#000;enable-background:new;fill:none;stroke-width:10;stroke-linecap:round;stroke-linejoin:round;stroke-miterlimit:10"/><path class="st231" d="M334 475.6c-20-34-61-31.5-89-9.6-20 8-43-3-64 4.1-22 7-28 37.5-5 43.5 6.5 2 23-2 26-1.1 15 4 11 25-5 30.1-21 6-10 29 6 29"/><path class="st231" d="M216 554.5c-15 15-14 41 2 54.6 37 22 40.7 30.9 36 69.7-2 31 46 41 53.5 10 2-10.8-4.5-22 0-32.7 12-32.5 44 20 62-44.5"/><path d="M269 669.9c-1.5 6-1 14 4 19m10 4.7c4 1.5 6 0 9-1.8m36-60.8c4 2 9 3 13 2.3M217.5 579c-1 7 2 15 8 19m10.5 6.7c.8.6 1.5 1 2 1.8M187 480c-5.5 2-10 6-12 11.8" style="stroke:#fff;fill:none;stroke-width:10;stroke-linecap:round;stroke-linejoin:round;stroke-miterlimit:10"/></g><style>.st40{fill:none;stroke-width:10;stroke-linecap:round;stroke-linejoin:round;stroke-miterlimit:10;stroke:#000}</style><g id="Tounge_Out"><path d="M572 761c43 37-4 91 30 88.5 10-5 14-3 15 9 14 68 90 38 76-21.4-2-9-10-18-7-27 22-22-6.5-50-21-67.6L572 761z" style="fill:#fe1767"/><path d="M648 806c-4-29-8.5-41 18-56.9-14-4-29 5-42 9.5l24 47.4zm-44 26c1 6-3.5 13-9.6 14 5 4 13 0 16-5v-.7L604 832zm72-41.5c2 1 15.5 9 18.5 2-.5 5-4.5 10.5-7 15-1-.5-2 0-3 .9l-8.5-17.9z" style="fill:#ae0f45"/><path d="M629 772c-16-8-34-7-51-5" style="fill:none;stroke:#ae0f45;stroke-width:10;stroke-linecap:round;stroke-linejoin:round;stroke-miterlimit:10"/><path d="M678.5 837c3 13-1 28-10 38m4.5-52.1c.5 1 1 2 1.5 2.5" style="fill:none;stroke:#fff;stroke-width:10;stroke-linecap:round;stroke-linejoin:round;stroke-miterlimit:10"/><path d="M683 781c2 2 4 5 4 8m0 6v2m-90 42c-.9-2-.9-5 0-7m25-51c4 6 7 12 9.5 18m2.5 6.5c0 1 .5 1 1 2" style="fill:none;stroke:#fff;stroke-width:5;stroke-linecap:round;stroke-linejoin:round;stroke-miterlimit:10"/><path d="M454 727.9c26-2 46 21 69 29 12 4 65.8 5 59.5 59-1 9-4 18-3 26.6 2 14 14 23 26 16.9 10-5 7 7 9 12.9 2 18 21 32 39 26M752 692c-29.5 14-49.6 43-81 54" style="opacity:.6;stroke:#080808;stroke-width:10;enable-background:new;fill:none;stroke-linecap:round;stroke-linejoin:round;stroke-miterlimit:10"/><path class="st40" d="M453 722c19-4 36 8 52 17 63 35 144 22 199-21 14-11 28-25 45-31"/><path class="st40" d="M566 761c19 13 29 38 24 59.8-1 6.5-4 13-2 19.6 2 11 17.5 16 23 5"/><path class="st40" d="M607 833c13 14 6 38 20 52 29 29 69 1 67-35 .5-20.8-11-39-20-56.5m10 15.4c15-4 14-24 5-33.9-8-10.8-20.9-19-25-32.1v2M619.6 758c12 14 21 31 25 49"/></g><style>.st40,.st68{fill:none;stroke:#000;stroke-width:10;stroke-linecap:round;stroke-linejoin:round;stroke-miterlimit:10}.st68{opacity:.6;enable-background:new}</style><g id="clouds_00000132064263232096526770000004594804391114312866_"><linearGradient id="SVGID_00000168815864788562971780000008009317104823657398_" gradientUnits="userSpaceOnUse" x1="375.454" y1="631.653" x2="559.455" y2="484.653" gradientTransform="scale(1 -1) rotate(-2.241 -27002.414 -491.187)"><stop offset="0" style="stop-color:#0f9"/><stop offset=".149" style="stop-color:#00efa4"/><stop offset=".441" style="stop-color:#00c5c0"/><stop offset=".844" style="stop-color:#0082ec"/><stop offset="1" style="stop-color:#06f"/></linearGradient><path style="fill:url(#SVGID_00000168815864788562971780000008009317104823657398_)" d="M441 443.1c-21 12-28 39.7-20 62-7 14-8 32 3 44-15 28-2 55 29 58 6 45 54 47 67.5 5.4 11 11 44-4 34-43 15-15.5 16-42.5-.5-57 10.9-22 2-52-24.5-55 9-16.5 0-34-9-47.7C498 382 433 403 441 443v.1z"/><linearGradient id="SVGID_00000074418743135565432100000001250214097951887239_" gradientUnits="userSpaceOnUse" x1="555.704" y1="637.058" x2="756.704" y2="528.058" gradientTransform="scale(1 -1) rotate(-2.241 -27002.414 -491.187)"><stop offset="0" style="stop-color:#0f9"/><stop offset="1" style="stop-color:#06f"/></linearGradient><path style="fill:url(#SVGID_00000074418743135565432100000001250214097951887239_)" d="M609.9 493.1c-19 16-15 50 7.5 61-3 19 7 42 28.5 41 16 34 61 30 73-5.5 7.5 6 37-14 24-48.6 12-15 8-38-4-51 14-23 0-58-27-57-11-93-108-57-94 7.9-16.9 3.1-20.9 42.1-8 52.1v.1z"/><path class="st40" d="M467 577.9c-13 9-14 28-9.8 43 15 52 92 2 55-42M528 563c50.5 33 57-72 3-49"/><path class="st40" d="M513 464c29-22 56 18 42 45.5"/><path class="st40" d="M449.9 465c-43-76 99.9-101 82-9M523 614.5c24 10.5 42.5-22 33-43M443 539c-41 17.5-28 75 9 68"/><path class="st40" d="M439.9 446c-21 8-35 39.7-16 57"/><path class="st40" d="M437 496c-23 4-31 36-14 51.5M629 455c-27-26.5-4-66 27-76 40.6-13 67 37 46 70.8"/><path class="st40" d="M616 441c-15 12-18 36-8 52"/><path class="st40" d="M624 489.6c-36 2-37 78 11 63"/><path class="st40" d="M619 556c-9 19 7.5 42 27.5 39m12.5-28c-23 28 1 62 33 52.5 26-8 34-39 16-59.8m4-129.9c25 4 42 36 28 59m-25 11c21-22 41 3 36 28-3 15-24 28-35.5 15"/><path class="st40" d="M720.5 589c21 2 32-23 24-41M490 450.7c1 38 3 74 4 113M663 430l26 108"/><path class="st68" d="M450 409c-15 11.5-10 28-22 37-20 16-19 38-17 62 1 9-5 17-3 25.8 1 7 6 14 6.5 21-3 18.5-9 44 11 54 16 6 23 5 30 24 7 18 33 20.5 46 6M634 388.5c-19.8 9.7-19 32-25.5 50.9-5 14-17 26-13 41 8 30.5-14 45 11 76.9 16 20.1 1 36 34.5 44.9 8.5 4 12 15 19.8 20 14 10.5 33 2 43-10M703 450c4.5-9 14-14 24.5-12M708 558c9 4 14 14 18 23"/><path class="st68" d="M657 567c-8 4-14 13-15 22m-28-137c4 3.5 10 5 15 3m-116 8c5-7 12-12 20-15.5m-3 65.5c5.5-7 14-10.5 22-10m-26 61.5c6 8 15.5 13 25 13.5m-85-2c-11 4-16.5 15.5-20 26m-4-66c-6-2-12 2-16 5m11-46.5c-4-2-9-1-13 1m25-29.5c-6-.6-9-6-10.8-11M659 432l25 109m-198.5-90 3 114"/><path d="M674 394.5c8 3 14.5 11 15.5 20M688 434l1-4m32.5 22c5 4 8 10.5 8 17m1.5 38c4 4 6 9.7 6 15m-39 49c5 9 3 20-4 27m-17 7c1 0 3 .5 4 0m-65.5-129c-.9-3-.9-7 0-10m5.5 41c-5 4-8 10-7 17m3 13 1 1.5M501.5 413c7 3 12 9 14 17M487 412c-1.5 0-3 0-4 .9m48.5 60c5 2 9 6 11 11M547 526c6 4 9 11 8.5 18M538 595c3-3 5-6 6-9.8m-40 8.8c3 10-1 22-9 28m-15.3 1H478m-40-64c-5 6-6.5 15-4 23m-5.5-60c0-3.5 2-7 5-9m-4.5-33.4c0-3 1-6 3-8" style="opacity:.8;stroke:#fff;enable-background:new;fill:none;stroke-width:10;stroke-linecap:round;stroke-linejoin:round;stroke-miterlimit:10"/></g><style>.st114,.st40{fill:none;stroke:#000;stroke-width:10;stroke-linecap:round;stroke-linejoin:round;stroke-miterlimit:10}.st114{opacity:.6}</style><g id="Psychedelic_Suit"><linearGradient id="SVGID_00000088825670113330209350000015865483016365007762_" gradientUnits="userSpaceOnUse" x1="538.556" y1="462.102" x2="525.423" y2="103.145"><stop offset="0" style="stop-color:#ff00f2"/><stop offset="1" style="stop-color:#ff0d00"/></linearGradient><path style="fill:url(#SVGID_00000088825670113330209350000015865483016365007762_)" d="M858.5 371.7c4-37-31-63-46-93.9-12-25-12-56-34-75.1-34-25-39.8 10-58.5-8.6-74-75-116-32-200-47.6-34-12-69.9-39-107-27.3-28 7-34 40-21 64.7-45 45-87 8-114 110.4-23 33-76 61-64 108.3 9.7 13 31 14 31 37 33-22.5 67-45 100-67.8h513.5z"/><linearGradient id="SVGID_00000039091781128852192730000015721533003327415992_" gradientUnits="userSpaceOnUse" x1="99.873" y1="549.794" x2="245.398" y2="549.794"><stop offset="0" style="stop-color:#00d0ff"/><stop offset=".107" style="stop-color:#13c0fe"/><stop offset=".324" style="stop-color:#4697fd"/><stop offset=".633" style="stop-color:#9755fa"/><stop offset="1" style="stop-color:#ff00f7"/></linearGradient><path style="fill:url(#SVGID_00000039091781128852192730000015721533003327415992_)" d="M159.5 408.9c-53 45-43 347 54 283.6C226 688 303 333 159.5 408.9z"/><linearGradient id="SVGID_00000137118869274378456330000006875663545265356716_" gradientUnits="userSpaceOnUse" x1="180.234" y1="595.263" x2="249.693" y2="595.263"><stop offset="0" style="stop-color:#00ffd0"/><stop offset="1" style="stop-color:#002fff"/></linearGradient><path style="fill:url(#SVGID_00000137118869274378456330000006875663545265356716_)" d="M197 516.3c-21 12-15 110-16 136.9 24 126.8 132-201.7 16-136.9z"/><linearGradient id="SVGID_00000087410589667215439090000002541833041424527264_" gradientUnits="userSpaceOnUse" x1="505.592" y1="753.62" x2="490.595" y2="1084.859"><stop offset="0" style="stop-color:#0062ff"/><stop offset=".089" style="stop-color:#0d5df8"/><stop offset=".252" style="stop-color:#2e50e6"/><stop offset=".471" style="stop-color:#643cca"/><stop offset=".736" style="stop-color:#ae1fa2"/><stop offset="1" style="stop-color:#f07"/></linearGradient><path style="fill:url(#SVGID_00000087410589667215439090000002541833041424527264_)" d="M806 980.4c-192 117-469.8 87-618-86.3 92.5-81 79-166 98-170.6 192 137 356.5 133 474 90.9-2 60.6 5 113.6 46 166z"/><linearGradient id="SVGID_00000033371089312801878390000006318954850067547789_" gradientUnits="userSpaceOnUse" x1="295.854" y1="850.949" x2="273.852" y2="1000.163"><stop offset="0" style="stop-color:#ff00d5"/><stop offset="1" style="stop-color:#0ff"/></linearGradient><path style="fill:url(#SVGID_00000033371089312801878390000006318954850067547789_)" d="M292 865.8c-14 64-93 67.5 5 117.1-6.5-65 28-58 28-102l-33-15.1z"/><linearGradient id="SVGID_00000157279664813915441330000009567256565831404461_" gradientUnits="userSpaceOnUse" x1="378.466" y1="860.85" x2="468.59" y2="860.85"><stop offset="0" style="stop-color:#0fe"/><stop offset="1" style="stop-color:#01f"/></linearGradient><path style="fill:url(#SVGID_00000157279664813915441330000009567256565831404461_)" d="M385 806.2c-17 35 0 79 26 105.7-10-37 29 5 58 3.6-20-23-28-57-20-86.9l-64-22.4z"/><linearGradient id="SVGID_00000049180777387714560210000016879497838707637656_" gradientUnits="userSpaceOnUse" x1="578.314" y1="946.376" x2="603.934" y2="782.036"><stop offset="0" style="stop-color:#ff0aa9"/><stop offset="1" style="stop-color:#2f0aff"/></linearGradient><path style="fill:url(#SVGID_00000049180777387714560210000016879497838707637656_)" d="M463 904.2c39-12 0 23.5 107 4.4 49.7-3.5 175.8 33 171-55.8-13 0-80 32-279-17.9-34.5-11.9-11 54.1 1 69.3z"/><linearGradient id="SVGID_00000010270499912541982670000006112895295582302630_" gradientUnits="userSpaceOnUse" x1="714.222" y1="877.552" x2="786.916" y2="877.552"><stop offset="0" style="stop-color:#0fe"/><stop offset="1" style="stop-color:#01f"/></linearGradient><path style="fill:url(#SVGID_00000010270499912541982670000006112895295582302630_)" d="M714 918.3c35-53 3-57 73-81.5 1 26-10 53-26 73.6-3-55.4-6.5.1-47 7.9z"/><linearGradient id="SVGID_00000009552582420069804660000010944215979029327774_" gradientUnits="userSpaceOnUse" x1="564.378" y1="88.753" x2="614.955" y2="351.002"><stop offset="0" style="stop-color:#0dffc2"/><stop offset="1" style="stop-color:#0d49ff"/></linearGradient><path style="fill:url(#SVGID_00000009552582420069804660000010944215979029327774_)" d="M383 193.7c26 3 32 36 52 47.9 42 24 86-48 129 57.3 31 12 34-27 49-12.2 21 21 76 1 144 9.1 14 2 17-38 25-50.5 38-32-30-76-43-37.2-14-6.5-23-20-34-31.1-67-63-133 10-251-58.6-30-18-85 17-65 51.6 12 15 5 14-6 23.7z"/><linearGradient id="SVGID_00000139294112197586171390000008827889614344333958_" gradientUnits="userSpaceOnUse" x1="678.798" y1="275.008" x2="608.188" y2="123.165"><stop offset="0" style="stop-color:#ff005e"/><stop offset="1" style="stop-color:#ffa200"/></linearGradient><path style="fill:url(#SVGID_00000139294112197586171390000008827889614344333958_)" d="M575 155c41 15 39 76 76 95.6 107 15 32-54 19.5-75.9C679.5 136 597 145 575 155z"/><linearGradient id="SVGID_00000026165215583676733260000005649255608812176806_" gradientUnits="userSpaceOnUse" x1="218.232" y1="796.565" x2="378.364" y2="796.565"><stop offset="0" style="stop-color:#ff009d"/><stop offset="1" style="stop-color:#ff6200"/></linearGradient><path style="fill:url(#SVGID_00000026165215583676733260000005649255608812176806_)" d="M225 706.4c-16 26 2 42.5 16 62.5 13.5 32.5 9.5 59 41 85.2 87 73 132 0 63-1.8-21 5-59-50-49.8-67.6-8.2-15.2-47.2-65-70.2-78.3z"/><linearGradient id="SVGID_00000105409479395020680540000014629662419593673096_" gradientUnits="userSpaceOnUse" x1="238.618" y1="599.18" x2="896.355" y2="599.18"><stop offset="0" style="stop-color:#f07"/><stop offset="1" style="stop-color:#f80"/></linearGradient><path style="fill:url(#SVGID_00000105409479395020680540000014629662419593673096_)" d="M775.8 788.8C731 808 756 828 679 815c-64.5 1-50 26-126.5-7.1-76-10-89 18-157-46.6-51-32-45 25-78-66-9.7-16.5-29-26-37-43.6-12-25 3-55-.7-82.3-15-50.9-18-51 6-100.9 21-70 27-52 88-57.3 82-53 48-16 102-15.7 62 0 27-28 122 9.3 24 9 64-28 140.5 8.9 31-2 47-13 77 8.3 23 17 41-2 67 20.4 9 7 14.5-12 15-20.4.5-62-80.8-52-123-60.2-54-22-43-17-96-2.8-26 7-53-32-163-11.4-80.7-16-61-17-129 9.8-44 18-33-34-101 33.5-17 17-34 29.9-39.9 54.1-5.5 23.5 25-3.5 22 19.4-4 28-30 23-19 62.5 13 46-23 96-1 134 89 239 622 249.5 572 114.8-2.4.3-5.4-3.7-43.6 13.1z"/><linearGradient id="SVGID_00000111171790791424795870000015540398433758915231_" gradientUnits="userSpaceOnUse" x1="268.337" y1="605.148" x2="926.317" y2="605.148"><stop offset="0" style="stop-color:#00ffbf"/><stop offset="1" style="stop-color:#0040ff"/></linearGradient><path style="opacity:.6314;fill:url(#SVGID_00000111171790791424795870000015540398433758915231_)" d="M863 720.1c-32 66-48 52-87 68.7-45 19.2-20 39.2-97 26.2-64.5 1-50 26-126.5-7.1-76-10-89 18-157-46.6-51-32-45 25-78-66-60-60-35-74-38-125.9-15-50.8-18-51 6-100.9 21-70 28-45 88-57.3 52-11 3-41 102-15.7 25 6 44-32 122 9.3 22.5 12 39.5-32 140.5 8.9 31-2 47-13 77 8.3 23 17 41-2 68 22.5 3 34 84 113 17 109.4 13 56-18 89-2 159.7 1 27.4-48.1 45.4-35 6.5z"/><path class="st40" d="M859.6 371.5c-5-42-18-54-42-86C799.9 256 801 208 764 194c-10.7-4-27 0-27 13.5"/><path class="st40" d="M750.1 214.1c-20.8-8-35-27-52-41-53-45-110.8-15-169-24.3-42-12-85-54-129-22-19 10.9-28 43-3 52.5"/><path class="st40" d="M409.7 167.8c-36 48-109 32-123 104.5-21 62-74 55-75.8 126"/><linearGradient id="SVGID_00000171695506858413249690000001952475865389239969_" gradientUnits="userSpaceOnUse" x1="206.812" y1="472.797" x2="264.252" y2="472.797"><stop offset="0" style="stop-color:#0fd"/><stop offset="1" style="stop-color:#02f"/></linearGradient><path style="fill:url(#SVGID_00000171695506858413249690000001952475865389239969_);stroke:#000;stroke-width:10;stroke-linecap:round;stroke-linejoin:round;stroke-miterlimit:10" d="M221 461.4c8.5 2 18 2 25-3 27.5-20 22.5 26-2 32.7-32 8.9-52-36.1-23-29.7z"/><linearGradient id="SVGID_00000088119106715213300950000000021411942580906164_" gradientUnits="userSpaceOnUse" x1="141.262" y1="396.383" x2="134.913" y2="569.226"><stop offset="0" style="stop-color:#ff0374"/><stop offset="1" style="stop-color:#ff8d03"/></linearGradient><path style="fill:url(#SVGID_00000088119106715213300950000000021411942580906164_);stroke:#000;stroke-width:10;stroke-linecap:round;stroke-linejoin:round;stroke-miterlimit:10" d="M142 550.2c-14 3-43-8-44-36.1 26 10 8-11.5 3-23.2-4.5-11-.8-24 3-36 0 5.5 6.5 12 9 3.7 3-10-1.5-22 0-32.3 1-9 6.5-17 14-21.6-5 12 7 35.5 19 7.6 26 4 8 58 27 36.8 14 35-3 32-5 62.1-2 22.8-15 36.8-26 39z"/><path class="st40" d="M155 412.6c14-17 83-35 89 44"/><linearGradient id="SVGID_00000121996890278117304130000002068054217667625644_" gradientUnits="userSpaceOnUse" x1="121.533" y1="615.607" x2="165.623" y2="615.607"><stop offset="0" style="stop-color:#1b21cf"/><stop offset="1" style="stop-color:#fb00ff"/></linearGradient><path style="fill:url(#SVGID_00000121996890278117304130000002068054217667625644_);stroke:#000;stroke-width:10;stroke-linecap:round;stroke-linejoin:round;stroke-miterlimit:10" d="M136 570.9c-11 4-17.5 18-13 28.6 6 15 15 11 10.1 47.1-4 24 42 17 31-5.9-8-17-8-13 0-38.7 3.9-14-8.1-38-28.1-31.1z"/><path class="st40" d="M129 574.4v-23M243 495l-1.5 18.5M196 681.1c-9.8 5-16-9-16-16.8 0-48 0-91 8-134.7 4-24 43-24 54-13.6 17 19-4 103-5 133.5"/><linearGradient id="SVGID_00000150078755091069742200000010663418410095023026_" gradientUnits="userSpaceOnUse" x1="194.688" y1="719.375" x2="353.06" y2="719.375"><stop offset="0" style="stop-color:#00ffea"/><stop offset="1" style="stop-color:#c300ff"/></linearGradient><path style="fill:url(#SVGID_00000150078755091069742200000010663418410095023026_);stroke:#000;stroke-width:10;stroke-linecap:round;stroke-linejoin:round;stroke-miterlimit:10" d="M195 664.9c3 19.6 9.9 25 26 35.7 41 27 63 99 114 108.2 18 3 23-16 10.7-28.3-15-14.5-44-25-86-88.3-11-16-26-56-38.5-61.4C207 625 192 643 195 664.9z"/><path class="st40" d="M144 661.6c8 27 33 51 67 32m12 11.9c-19 39 21 53 25 86.8 9 74 107 107 129 86.8 7-6 2-19-7-21.9-14-4-29-1-44-6.3-11-4-5-19-15-24.3-15-8-27-23-17.5-39"/><path class="st40" d="M384 807.4c-16 39 0 84 30.5 110.9-5-12-6-32.5 12-17.3 14 12 33 19 51 17.3-29.6-17-37.5-58-30.5-89"/><path class="st40" d="M466 905.5c18-7 34 7 51 10.4 22 4 44-8.5 67-8.4 31 0 61 16 92 6.4 13-4 26-11 39-8.5m27-50.9c-4 25-15.5 48-32 66.5 30-.5 37-28 42-32 10.8-8 12 7 7 20.6 23.5-14 28-44 29-69"/><path class="st40" d="M354 788c272 141 502 55.8 466-9m65.5-333.1c-4 34 37 55 41 87 3 17-10.5 25-26 20.8m-4.5-13.8c27 84-13 78-1 134 15 67-19.8 80.7-38.5 59.5"/><path class="st40" d="M863 720.1c-32 66-48 52-87 68.7-45 19.2-20 39.2-97 26.2-19-3-37 6-56 9.3-25 4-47.5-8.5-70-16.4-76-10-89 18-157-46.6-51-32-45 25-78-66-9.7-16.5-29-26-37-43.6-12-25 3-55-.7-82.3-2.5-17-12-32-12-48.7 0-18.5 11-35 18-52.1 21-70 27-52 88-57.3 17-5 29-23 47-26.3 18.5-4 36 9 55 10.6 22 1 43-14 65-11.7 20 2 37 18 57 21 25 4 49.6-13.5 75-11.2 23 2 43 19.7 66 20.2 31-2 47-13 77 8.3 23 17 41-2 67 20.4 9 7 14.5-12 15-20.4.5-62-80.8-52-123-60.2-54-22-43-17-96-2.8-27 3-51-15-78-19-28-4-57 9.8-85 7.5-80.7-16-53-19.8-129 9.8-23 4-48-5.5-69.6 4.6-13 6-19 21-31 28.9-20 13-34 29.9-42 53m5.3 368.3c-15 30.7-36 59-62 82m580 11.2c8 27 20 52 37 74m-482-96.8c4 28-35 43-25 100.6m-50-36.1c0-34 44-42.5 43-84"/><path d="M535 968.8c-10 15-2 37 15.5 41.6 31 6.5 52-24 93-16.3 127 25 89.7-75.5 14-34.6-46.5 25-96-29.5-122.5 9.3z" style="fill:#14ccbd;stroke:#000;stroke-width:10;stroke-linecap:round;stroke-linejoin:round;stroke-miterlimit:10"/><path class="st40" d="M380 197c41 1 37 67 90 49 26-11 62-13 76 15.9 4 8 5 17 9 25.4 12 23 49 19 45-9"/><path class="st40" d="M584.5 270.4c19 0 29 22 45 27.2 16 5 33.5-8 50-5 141 24 67-34 114-65"/><path class="st40" d="M563 151.2c64 19.9 46.5 103 114 105 21 1 39-24 25-40.8-17-19.9-36-26-32-56m-360 73c72-22 91 93 105 110.9"/><path class="st114" d="M267 524.1c7 24 9 48.5 6 72.8-2 18-6 37 1 54 7 16 22.5 27 32 41.8 14 21 17 54 44 62.3 32 1 48 19.6 73 37.4 39.9 25 92 14 138 25.4 20 5 39 14 59.9 13.5 18-1 34-9 52-9.7 16-1 31 5 47 3.5 36-3.5 62-43 98.5-42M881 453c-14-20.7-45-10.5-63-22.1-44-27-58-2.5-94-10.5-46-10.5-23-30-113-7.5-26 6.6-45-42.9-132.5-9.9-16 6-33-12-50-10.5-18 2-31 17-48 23.8-24 9-54-1.5-77 12m1.5-188.8c67-18 79 61 101.5 105M372 201.2c33-1 45 53 70 52.7 69.6 0 75-39 114 44.9 9 20.1 42 4 49.5-8.1 21.5 27 59.7 3 87 8.9 26 4 61 15 79.7-9.3 12.5-15.8 8-42 24-54"/><path class="st114" d="M555 153.3c58 16 50.1 84 94 104.2 19 9 52 5.8 56-19M187 526.4c-17 19-9.7 107.5-11 136.9 1 29 12 17 23 28m-50-22.8c7-2 13-8 15-15M159 410c7 37 21 42 22 56.6 1 13-6 25-9 37.9-5 25-9 52-40 50.6m72-84.1c2 17 18 29 35 27m8-61.1c1.5 5 3 9.6 3 14.5m-.3 40.4c-.1 10.5-4 21 1 30.9 9 19-10 127-9 135"/><path class="st114" d="M203 633.1c-13 9-18 27-12 42m31.5 34.7c29.6 21 104.5 155 137 90.7 7 0 14 5 21 8.6-8 13-8 30.6-6 46m74.5-19.3c90 36 191 44.5 285 26.5-4 14-9 28-16 40m-184 65.5c-10 13-13 36 3 44.7 31 18 67-21 100.9-16.4 22 2 65 13 79-9M863 719.6c-1 8 2 17 9 22m24-202.1c5.8 7 13 13 23 12M584 270.7c7 4 11 11.5 12.5 19M751 214.2c-5-5-6-13-4-19m-337.2-29.7c-6 5-14 7-22 5M214.5 397.9c12 3.5 27 13 27 27.6 12-17 29-31 47-41.4 9-6 9-17 26-22m-66.5 457c9.6 18 23 34 38 47.7-3.5 37-45.5 41-43 77"/><path class="st114" d="M290 869.6c28 18 60 28 93 17.1 8 17 21 32 37 41.3-3-9-5-18-5-27.1 18 18 45 27 70 23.3-5-3-8-10.5-12-15.4 31 17 65.5 15 99 6.8 64-15 48 24 139-4.8-3 5-6 9.5-9 14.6 19 0 48-11 52-31.2-.1 8-1.5 15-4 22.2 5-.1 9.8-2 14-4"/><path d="M857 392.2c12 1 24 11 23.5 24M833 386.5l6 .5m-108-28c-7-.8-14 .6-21 4m-89-2.2c-10.6-4-21-9-33-8m-14 .2h-5m-92 2.1c-9.6-4-20-5-30-5m-15.5 1.9-4.5 1m-79.5 19.2c-9-2-19.5 0-28 4m-8.9 7.8-3.1 3M808 797.3c-10 13-24 24-39 29.9m-15 4.8-6 3m-439-56.2c8 7 17 13 26 17M299 769l-4-4m-87-111.1c-2 8.5 1 18 7 24m11.5-154.3c7 9 7 21 7 32M233 571l-1 6m-93 5.5c-3 3-4.5 7.5-4 12m76-177.2c8 5.8 13 16 17 25m-28.1-30.6c-2-1-4-1.5-6-2M270 821.2c7 9.8 15 19 23 27m10 5.8 3 2.5m4 36.3c-3.5 10.8-12 19.6-16 30m-5 11.7-1 3.5m104-113.3c-2 11-1 23 1 34m5 13.3 1 4m280.5 22.9c-12 5-25 6-38 4m-13-3.9-3.5-1m148-41.3c0 6-1 12-3 18m-232 29.2c-9 2-18 1-26-2m183 59.7c6 1 12 4 16 9m-30-7.6-2 .5m-133 29.3c6 6 16 7 24 4m10-4.8h3m176.9-55.2c4 9 9 18.5 14 27m7.1 12.7 2 3.4m98-297.2c2 8 2.5 16 1 24m-2.4 12.8L878 723m20-214.4c5 4 9 9.6 12 16m4 10.4 1 3m-87-211.8c6.5 7 11 16 12 26m-22-39.7-2-3.5m-55-101.9c5 1 9.7 5 12 9m-12.5 60.1c-4 7-13 8-20.1 8m-11.4.8-4-1m-147 3.7c-7-.9-10.8-8-13-14m-5-12.7-1-3m-124-32.2c5 5 11.5 8 18 9.6m12-3.4h2m-27-101.4c-11-1-23 2-32 9.5m49-4.1 4.5 1M683 215.1c6 4 9 12 7 18m-17-27.6-1.5-2.5M230 379.2c4-14 12-26 23-36m12-13.4 2.5-2.8M152 518.8c-1.5 8-7 15-14 18m16-33.3V499" style="opacity:.8706;stroke:#fff;fill:none;stroke-width:10;stroke-linecap:round;stroke-linejoin:round;stroke-miterlimit:10"/></g><circle cx="550" cy="550" r="500" style="fill:none;stroke:#000;stroke-width:10;stroke-linecap:round;stroke-linejoin:round;stroke-miterlimit:10"/></svg>