<svg version="1.1" id="Layer_1" xmlns="http://www.w3.org/2000/svg" x="0" y="0" viewBox="0 0 1100 1100" style="enable-background:new 0 0 1100 1100" xml:space="preserve" xmlns:xlink="http://www.w3.org/1999/xlink"><path d="M178 220c12 65 96 58 145 73.5 105 33 142 205 259 198C924 471 815 683 999 767.1c15-28 26-58 33.5-90.2-31 3-79-25-64-57 10-21.5 46-65-1-68.6-76-5-19-57 20-25.1 17 14 36 45 61.5 34.6 2-44-3-88-15-130.9-81.5 19-124.5-85-198-73.9-67 9.8-153.5 76-213 17.9-17-29 11-63 40.7-65.6 56-4 58-66 15-89.6-75-31-86 59.7-139.6 65.5-123 14-57.5-169-166.5-203.5C298 111 231 159 178 220zm801 586.7c-21-28-62-29-98-28.2C662 798 654 538 448 609.3 196 697 219 565 51 563.5c2 61 14 122 38 179.5 114-52 156 24 253 38.9C542 812 530.5 662 713 919.2c25 28 55 58 95 58C879.5 939 935 876 979 806.7zM534.5 1050c-15-83-150-33.5-235-128.4-62-70-75-22-110.9-26.1C277 988 402.5 1045 534.5 1050z" style="fill:#430f70"/><radialGradient id="a4" cx="564.461" cy="535.948" r="438.66" gradientTransform="matrix(1 0 0 -1 0 1100)" gradientUnits="userSpaceOnUse"><stop offset="0" style="stop-color:#7303fc"/><stop offset="1" style="stop-color:#03fcb1"/></radialGradient><path style="fill:url(#a4)" d="M532 209c-68 59.6-71 20-121 36.5-19.6 10.9-14 30-9.7 39.6 11 23-51 9-69 40-10 18 0 42-7.5 61.8-9 19.6-34 35-37 52-43 48-154 7-119 70 6 11 33-6 39 9 7 17.5-39 29-21 46.7 18 5 21 39.9 57 63 14 20 3 51 19 69 36 38 46-25 41-34 4-39 44-11 22 38.7-23 52 11 74 36.5 57 24-9 13 39 23 50.9 19.5 37 55 12 67 12 18 1 28 22 29.8 40.3 6 63 54 46 59 8 15.5-34 45 49 47 59.9 12 73 69.5 42 71 17.9 3-54-3-60 2-68.3 19-31 71 13 90.8-15.5 14-19.8-31-63 8-55 94 19.9 19-101 14-120-9-35.5 14-106 47-121.7 18-9 17-35.5 7-53-9.6-17-25-30.6-31-48.9-13.5-54 21-100.6-36-133-5-3-7-9.5-4-14.4 17-26 1-66-32-71-22-3-44 9-66.5 6C615 247 578.5 178 532 209z"/><style>.st40{fill:none;stroke:#000;stroke-width:10;stroke-linecap:round;stroke-linejoin:round;stroke-miterlimit:10}.st98{opacity:.6;enable-background:new}</style><g id="Outline"><path class="st98" d="M793 537c-1 .7-1 2-.5 3 5 10 11 35 25 30 8-2 21-13 18-22.4-.5-1-2-2-3-1.5-26 12-28-11-39-9.4v.3zm-34 274.5c6 5 26 8 25-3-6-7-20.6-12-21.5-26C750 772 744 803 759 811.5zm-219.3 52s1 .5 1 .8c9 13.5-3 36-18 40-34 6-9-6-6-44 .3-5.3 22.3 2.7 23 3.2zM342 731c5 7-4 22-4 33 8 13 29.6-5 33-14.9 2-12-17-21-28-20.2-1 .1-1 1.1-1 2.1zm31-120.2c2 23-8 47-26 61.9-13 10.9-17.5-30.6-8-27.9 6 4.2 28-18.8 34-34zm-157-59.9c-8 6-17 3-25 1-11 5 4 20 13.5 16 5-4 12-9 12-15.7-.5-.2-1.5-.2-.5-1.3zM337 473c-6-10-3-23 0-34 0-1 0-2-.6-2-9-9-23 11-19.8 20.7C318 463 338 475 337 472.8v.2z"/><path class="st98" d="M326 392c-2 29 24 45 7 44-7 2-14 1-15 11-1 11-24 0-24.5-1.3C285 433 317 404.5 326 392zm103-118c-9.9-4-16-16-18-25-4-6-9.9 1-11 6-7 54 29.5 28 29 19zm293 9c16 21 29.5 12 40 20.7 3 4 1 9.6-1 14-3 9-13 9-20 4.1-14.5-5.8-22-22.2-19-38.8z"/><path class="st40" d="M347 729c53.5 5 15 86 59 102 25 9 37-19.8 55-11.9 23 10.1 19.6 40 24 60.7 9.6 46 63 29.6 58-12.8"/><path class="st40" d="M519 861c89-9 47.5 119 114.5 115 39-6 35-47 25-76.5-3-9 0-18.5 7-24.5 24.5-21 59 15.5 84-2.5 15-11 8-33-2-45-12-15 0-32 10-43"/><path class="st40" d="M790 539c53 69.8-64 71 8 194.5 6 14 11 32 11 48.5 0 32-49 47.5-61 16"/><path class="st40" d="M721 287c2 51 64 31 74 88 6 34-11.5 71 7 103 10 18 27 31.5 34 51 8 19-4 47-27 42"/><path class="st40" d="M407 290.6c-16-8-12-29.9-2-41 17-15 40.5-10 61-6 29.8 1 49-29 75-38 50-17 81 55 133 44 23-5 48-11 69 1 25 14 33 55 10 75"/><path class="st40" d="M428 278c-16 26.5-51 17.5-76 28.5-20 10.5-28 33-23 55 10 47-43 51-39 88m25 4.5c1.5-23 35-26 41-5 7 25-13 47 16 72"/><path class="st40" d="M334 476c-20-34-61-31.5-89-9.6-20 8-43-3-64 4-22 7-28 37-5 43.5 6.5 2 23-2 26-1 15 4 11 25-5 30-21 6-10 29 6 29"/><path class="st40" d="M216 554.5c-15 15-14 41 2 55 37 22 41 31 36 69.7-2 31 46 41 53.5 10 2-10.8-4-22 0-33 13-32 44 20 62-44.5"/><path class="st40" d="M327 647.9c25 29.7-.5 47-7 75-10 32.5 34 65 53 25"/><path d="M729 262.5c9 4 16 13 18 22.5m-193-68c12.5 2 24.5 8 34 16m9 9 3 3m-163 10c-5.5-.9-12 .6-15.5 4M362 319.6c-9 2-14 10.7-16 19M339 449c4 1 6 6 6 9.8M308.5 470c-12-6-16-5-22-4M175 492c1-4 5-7 9-7.5m38 89.5c-4 8 0 16 4 19.9m44 78.6c-1 6 1 15 9 18m76-77.5c-3 14-13 14.5-16 16m4.5 119.5c-5-3-9-9-8-15M397 782c-1 14.5 7 28 14 30m90 53.9c-3 12 2 27 14.5 25M636 957c14-3 17-28 11-38m96-60.1c1-7 0-14-4-19m46-49.1c8-6.5 9-25 3-39M786 582c5-8 3-19-3-26m37-12c2-8.5-.6-18-7-24m-56-169c18 6 22 30 21 35" style="opacity:.7882;fill:none;stroke:#fff;stroke-width:10;stroke-linecap:round;stroke-linejoin:round;stroke-miterlimit:10;enable-background:new"/></g><style>.st40,.st68{fill:none;stroke-width:10;stroke-linecap:round;stroke-linejoin:round;stroke-miterlimit:10;stroke:#000}.st68{opacity:.6;enable-background:new}</style><g id="Gold_Grillz"><linearGradient id="SVGID_00000054261759252241486330000007195404835055001745_" gradientUnits="userSpaceOnUse" x1="657.269" y1="-434.524" x2="664.275" y2="-229.326" gradientTransform="rotate(-5.371 12728.238 901.119) scale(.99999)"><stop offset="0" style="stop-color:#fe0"/><stop offset="1" style="stop-color:#ff4800"/></linearGradient><path style="fill:url(#SVGID_00000054261759252241486330000007195404835055001745_)" d="M436 684.2c-14.5 42 40 71 61 127 23 28 58-7 102 16 48 24 58-2 72-43 17-50 82-14 64-90.9-9-38-40.7-4-50 2-47 32-55-31-95 47-24 33-39.6-39.7-71-42-30-4-64 20.7-83-16.3v.2z"/><path d="M488 719c1 10 1 19.9 2 29.9m1 12.1c0 2 0 3 .5 5m73.5.5c0 6 0 12.5 1 19m.5 10.5v3m73.1-72c2 20 6 41 8 61m1.4 12.6v3m43-95.6c1 7 3 14 4 21m2 12v2" style="fill:none;stroke:#fff;stroke-width:10;stroke-linecap:round;stroke-linejoin:round;stroke-miterlimit:10"/><path class="st68" d="M428.5 670.9c-22 61 23 71 49 110.7 4 7 13 33 19 38 26 18 62-8 106 13 74 36 65-41 86-61.5 20-19.9 56-17 54-54-.5-10.5-3-28 6-36"/><path class="st68" d="M734 691c-48-21-26 24-107 17-26-2-22 62-59 47-18-10.6-22-36-40-45.2-32-13-68 19-94-17"/><path class="st68" d="M509 700c2 39 6 78 7 118m69-65.5 6 66.5m67-114c0 26 6 53 9 81m41-105 11 60.9"/><path class="st40" d="M424 659c44 103 85-17 135.5 78 5 7 13 13 22 10.9 21-4 18-36 34-46 20-11 47 11 68-8 37-42 42 0 64-15.9 10.7-8 0-37 10.6-52"/><path class="st40" d="M432 682c-8 40 19 63 46 90 12 12 7 41 29 48 12 4 41-4 54-3.6 53 1 86 56 106-23 16-65 78-16 68-109"/><path class="st40" d="M500 701c4 39.7 7 79 9 119m67-69c1 22 3 44 6 65m70-111c-2 17.5 11 80 12 98m38.5-121c2 21 6 42 10.5 63"/></g><linearGradient id="a19" gradientUnits="userSpaceOnUse" x1="569.719" y1="943.832" x2="764.719" y2="730.832" gradientTransform="scale(1 -1) rotate(-7.793 -9231.448 -329.654)"><stop offset="0" style="stop-color:#00fff2"/><stop offset=".09" style="stop-color:#00f4f3"/><stop offset=".25" style="stop-color:#00d6f4"/><stop offset=".46" style="stop-color:#00a5f7"/><stop offset=".713" style="stop-color:#0062fa"/><stop offset="1" style="stop-color:#000dff"/></linearGradient><path style="fill:url(#a19)" d="M637.5 543.3c47 179.5 155 8 146-52-6 13-26 22-29 2 .9-28 39.7-80 24-103.9-7 12-19.7 26-29.6 29.3-9 3-39-.8-30-23-5 7-15 23-23 25-14 3-20.6-17-24-28-23.5 47 8.5 48-1 72.4-18 17-32-9.9-29.6-27-11 18-23 44-8 62 9 10 24 13 32.5 23 6 7 9 17 3 23.5-12.8 10.4-24.8.4-31.3-3.6v.3z"/><linearGradient id="b8" gradientUnits="userSpaceOnUse" x1="360.012" y1="935.045" x2="525.135" y2="714.881" gradientTransform="scale(1 -1) rotate(-7.793 -9231.448 -329.654)"><stop offset="0" style="stop-color:#00fff2"/><stop offset=".09" style="stop-color:#00f8f2"/><stop offset=".225" style="stop-color:#00e3f3"/><stop offset=".388" style="stop-color:#00c2f5"/><stop offset=".573" style="stop-color:#0093f8"/><stop offset=".776" style="stop-color:#0057fb"/><stop offset=".992" style="stop-color:#0010ff"/><stop offset="1" style="stop-color:#000dff"/></linearGradient><path style="fill:url(#b8)" d="M412 396c29 16 5 54-13.5 31-12 45 33 35 37 77 3 26-24.5 34-31 6-12 20.5 2 38 18 52 11 9.7 8 27.5 11 41.6 10.5 47 78 52 97 8.5 5-12 6-26 13-37 13-16 35-31 33-53.9-11.5 18-41 9-26-12.2 8-11.5 22-17 33-27 15-13 22-34 19.8-54-7 16-32 15-22-5 10-19.8 10.6-31.5-4-48.8-2 49.8-72 22-42-8-15 6-23 19-29 33.5-5 12-21 21-34 19-21-6-24-42-60-23v.3z"/><path d="M764 425c-1 9.8-6 19-11 28m-3 10.5c-.5.9-1 2-1.5 3m7.5 83.2c-10.5 24-19.5 38-42.5 53M693 609h4.5m-59-135c-1 8 4 15 9 19M520 593.9c-2 14-14 29-27.5 32m-18.5.1c1.5 0 3 1 4 .8m75-81.8c-3 4-6 8-10 11m43-103c-2 7.5-7 14-13 19m-8 7.8c-1 .5-1 1-2 2m10-73.8c0 4-2 7-4 9.7M439.5 408c4 2 6 6 9 9.8m-37 31.2c2 5 6 8 10 10" style="fill:none;stroke:#fff;stroke-width:10;stroke-linecap:round;stroke-linejoin:round;stroke-miterlimit:10"/><path d="M410 397.5c8 8 11 21 7.5 32m-22-3.5c-21 46 49.8 50 32 99M401 509.6c-13 20 3 41 17 58 12 15 6 39 18 55 15 24 51 30 73 13M575 519c-6 6-14 8-22 8m47-99.5c-4 5-10 8-17 9m-9-63.5c-2 12-10 24-22 28m-21-36c-29 6-23 44-53 55m159 15c-49 84 26.5 67 29 108.5m-33-.5c10.5 49 49 119.9 100 63m49-115c-7 5-17 12-24 9m17-113c-9.5 14-23 25-39 32m-20-27c-10 8-15 27-31 24.5M668 389c-30 50 17 59-9 80" style="opacity:.6;fill:none;stroke:#000;stroke-width:10;stroke-linecap:round;stroke-linejoin:round;stroke-miterlimit:10;enable-background:new"/><path d="M429 478c17.5 17 35 34 52 51-.9-8-2-16-2.5-23 23 21 45 44 68 64 12.5-11 21-27 29-43-11 8-34 2-30-14.1L469 452.3v31l-47-52c-7 2.5-16 3-23 1-3 28 13 34 30 45.3v.4zm40-57c27 27 54 54.5 82 81 5-3 10.7-7 16-9.8-79-76-2-2-79-77m160 53.3c15 18 30 36 44 54v-19c19 27 39 53 61 77.8 2-5 5-10 9-14.9-9.8-11-46-57-73-91-2 13-2 11-2 16-5.5-9-11-17-17-26m2-18.9c33 32.5 66 66 97.5 99.2l7-9c-37-39-56-57-112-116" style="opacity:.6118;fill:#fff;enable-background:new"/><path d="M412 396c29 16 5 54-13.5 31-12 45 33 35 37 77 3 26-24.5 34-31 6.4-12 20.5 2 38 18 52 11 9.7 8 27.5 11 42 10 47 78 52 97 8.5 5-12 6-26 13-36.7 13-16 35-31 33-53.9-11.5 18-41 9-26-12 8-11 22-17 33-27 15-13 22-34 19.8-53.6-7 16-32 15-22-5 10-19.8 10.6-31.5-4-49-2 49.8-72 22-42-8-15 6-23 19-29 33.5-5 12-21 21-34 19C451 413 448.5 377 412 395.7v.3zm225.5 147c47 179.5 155 8 146-52-6 13-26 22-29 2 .9-28 39.7-80 24-103.9-7 12-19.7 26-29.6 29-9 3-39-.8-30-23-5 7-15 23-23 25-14 3-20.6-17-24-28.2-23.5 47 8.5 48-1 72-18 17-32-9.9-29.6-27-11 18-23 44-8 62 9 10 24 13 32.5 22.8 6 7 9 17 3 23.5C656 557 644 547 637.5 543z" style="stroke:#000;fill:none;stroke-width:10;stroke-linecap:round;stroke-linejoin:round;stroke-miterlimit:10"/><linearGradient id="a24" gradientUnits="userSpaceOnUse" x1="573.737" y1="372.301" x2="573.737" y2="180.3"><stop offset="0" style="stop-color:#00ff9d"/><stop offset=".048" style="stop-color:#0af1a2"/><stop offset=".405" style="stop-color:#538bca"/><stop offset=".694" style="stop-color:#8940e6"/><stop offset=".898" style="stop-color:#aa12f8"/><stop offset="1" style="stop-color:#b700ff"/></linearGradient><path style="fill:url(#a24)" d="M755 324.4c23-19.7 15-61-10-75-21-11.5-46-6-69-1-52.5 10.5-83-60.6-133-44-26 9-45 39-75 38-20.5-4-44-9-61 6-11 11-11 35.5 4.5 43.6 0 0-14 4-31 8.3-3 9.7-.1 20 7 26.6 7 5.8 17 7 24 12.6 12 8 17 25.5 31 30.6 21 8 38-13 44-31.2 3-9 6-19.6 14-25.9 10.9-9 30-4 35.5 8.8 3.5 8 2 19 9 25.4 5.8 5 15 4 22 .4 19.9-12 9.5-32 7-52.5-2.5-19 10.6-25.5 28-16.2 21 11 27 32 32 52.5 4 17.5 28 26 44 18.4 14-7 25-27 42-22.7 15 3 21 28 38 25 7-1 12-9.5 9.5-18C748 321 755 324 755 324.4z"/><path d="M722 283.9c-4 28 26 37 45 50.2 2.5 8.5-2 17-9.5 18-17 3-23-22-38-25-18-4-28 16-42 22.7-16 8-39.7-.9-44-18.4-5-20.7-11-41-32-52.5-17-9-30-2-28 16.2 3 20 13 40.6-7 52.5-7 4-16 5-22-.4-7-6-5-17-9-25.4-5-13-25-18-35.5-8.8-8 6-10.5 16.5-14 25.9-6 18-23 39-44 31.2-14-5-19-22-31-30.6-7.5-5-17-7-24-12.6-7-6-10.5-17-7-26.6 17-5 41-6.5 49.6-24" style="fill:none;stroke:#000;stroke-width:10;stroke-linecap:round;stroke-linejoin:round;stroke-miterlimit:10;stroke-dasharray:0,0,0,0,0,0"/><path d="M408 289.6c-16-8-12-29.9-2-41.2 17-15 40.5-10.1 61-6 29.8 1 49-29 75-38 50-17 80.5 54.5 133 44 23-5 48-10.5 69 1 25 14 33 55 10 75" style="fill:none;stroke:#000;stroke-width:10;stroke-linecap:round;stroke-linejoin:round;stroke-miterlimit:10"/><path d="M723 283.6c5 15 17 28 33 33M429.7 274c-5 9-18 12-28 9M373 303.1c-3 25 18 31 36 41.9 9 7 14 18 24 24.8 28 19 52-5.8 60-33.2 3.5-12 14-27.5 28-21.5 17 11 4 42 35 40.1 13-2 25-13 28-25.5 2-10-3-20-4.5-30.7-2-19.7 12-22 26-13.4 19 12 16.5 39 27 56.9 17 25 48 17 66.5-1.4 25-24 31.5 7 48 14.1 9 4 21-2 24-11" style="opacity:.6;fill:none;stroke:#000;stroke-width:10;stroke-linecap:round;stroke-linejoin:round;stroke-miterlimit:10"/><path d="M736 260.5c5 2 9.8 6 13 11m5 11.2c.5 2 1 3.5 1 5m-194-71.8c9-1 17 4 25 9m10 8.1 3.8 2M412 266.1c.6-6 6-11 12-14m13-2.1h2.8m34.2 83.4c-2 7-6 13-12 17m17.8-30.7 1.2-2.7m86 5.2c1 4 .1 9-3 11.5m1-22.7-1-2m92.5 27.7c6 2 12 1 17-2.5" style="opacity:.651;stroke:#fff;fill:none;stroke-width:10;stroke-linecap:round;stroke-linejoin:round;stroke-miterlimit:10"/><circle cx="550" cy="550" r="500" style="fill:none;stroke:#000;stroke-width:10;stroke-linecap:round;stroke-linejoin:round;stroke-miterlimit:10"/></svg>