<svg version="1.1" id="Layer_1" xmlns="http://www.w3.org/2000/svg" x="0" y="0" viewBox="0 0 1100 1100" style="enable-background:new 0 0 1100 1100" xml:space="preserve" xmlns:xlink="http://www.w3.org/1999/xlink"><style type="text/css">.st300{fill:#00DE72;stroke:#000000;stroke-width:10;stroke-linecap:round;stroke-linejoin:round;stroke-miterlimit:10;}</style><circle class="st300" cx="550" cy="553.7" r="500"/><linearGradient id="a6" gradientUnits="userSpaceOnUse" x1="163.939" y1="511.702" x2="836.611" y2="511.702" gradientTransform="matrix(1 0 0 -1 0 1100)"><stop offset="0" style="stop-color:#ff0026"/><stop offset=".225" style="stop-color:#ff371c"/><stop offset=".604" style="stop-color:#ff8d0d"/><stop offset=".871" style="stop-color:#ffc404"/><stop offset="1" style="stop-color:#ffd900"/></linearGradient><path style="fill:url(#a6)" d="M533 209.1c-68 59.6-71 20-121 36.5-19.6 10.9-14 30-9.7 39.6 11 23-51 9-69 40.3-10 18 .1 42-7.5 61.8-9 19.6-34 35-37 52.2-43 48-154 7-119 70.4 6 11 33-6 39 9.1 7 17.5-39 29-21 46.7 18 5 21 39.9 57 63.2 14 20 3 51 19 69.1 35.8 38 46-25 41-34.3 4-39 44-11 22 38.7-23 52 11 74 36.5 56.6 24-9 13 39 23 50.9 19.5 37 55 12 67 12 18 1 28 22 29.8 40.3 6.5 63 54 46 59 8 15.5-34 45 49 47 59.9 11 73 69 42 71 17.9 3-54-3-60.1 2-68.3 18.5-31 71 13 90.8-15.5 14-19.7-31-63.5 8-55.4 94 19 19-101 14-120.4-9-35.5 14-106 47-121.7 18-9 17-35.5 7-52.8-9.5-17-25-30.6-31-48.9-13.5-54 22-102-36-133.3-5-3-7-9.5-4-14.4 17-26 1-66-32-71.4-22-3-44 9-66.5 6.3C616 247 579.9 178 533 209.1z"/><style>.st40{fill:none;stroke:#000;stroke-width:10;stroke-linecap:round;stroke-linejoin:round;stroke-miterlimit:10}.st98{opacity:.6;enable-background:new}</style><g id="Outline"><path class="st98" d="M793 537c-1 .7-1 2-.5 3 5 10 11 35 25 30 8-2 21-13 18-22.4-.5-1-2-2-3-1.5-26 12-28-11-39-9.4v.3zm-34 274.5c6 5 26 8 25-3-6-7-20.6-12-21.5-26C750 772 744 803 759 811.5zm-219.3 52s1 .5 1 .8c9 13.5-3 36-18 40-34 6-9-6-6-44 .3-5.3 22.3 2.7 23 3.2zM342 731c5 7-4 22-4 33 8 13 29.6-5 33-14.9 2-12-17-21-28-20.2-1 .1-1 1.1-1 2.1zm31-120.2c2 23-8 47-26 61.9-13 10.9-17.5-30.6-8-27.9 6 4.2 28-18.8 34-34zm-157-59.9c-8 6-17 3-25 1-11 5 4 20 13.5 16 5-4 12-9 12-15.7-.5-.2-1.5-.2-.5-1.3zM337 473c-6-10-3-23 0-34 0-1 0-2-.6-2-9-9-23 11-19.8 20.7C318 463 338 475 337 472.8v.2z"/><path class="st98" d="M326 392c-2 29 24 45 7 44-7 2-14 1-15 11-1 11-24 0-24.5-1.3C285 433 317 404.5 326 392zm103-118c-9.9-4-16-16-18-25-4-6-9.9 1-11 6-7 54 29.5 28 29 19zm293 9c16 21 29.5 12 40 20.7 3 4 1 9.6-1 14-3 9-13 9-20 4.1-14.5-5.8-22-22.2-19-38.8z"/><path class="st40" d="M347 729c53.5 5 15 86 59 102 25 9 37-19.8 55-11.9 23 10.1 19.6 40 24 60.7 9.6 46 63 29.6 58-12.8"/><path class="st40" d="M519 861c89-9 47.5 119 114.5 115 39-6 35-47 25-76.5-3-9 0-18.5 7-24.5 24.5-21 59 15.5 84-2.5 15-11 8-33-2-45-12-15 0-32 10-43"/><path class="st40" d="M790 539c53 69.8-64 71 8 194.5 6 14 11 32 11 48.5 0 32-49 47.5-61 16"/><path class="st40" d="M721 287c2 51 64 31 74 88 6 34-11.5 71 7 103 10 18 27 31.5 34 51 8 19-4 47-27 42"/><path class="st40" d="M407 290.6c-16-8-12-29.9-2-41 17-15 40.5-10 61-6 29.8 1 49-29 75-38 50-17 81 55 133 44 23-5 48-11 69 1 25 14 33 55 10 75"/><path class="st40" d="M428 278c-16 26.5-51 17.5-76 28.5-20 10.5-28 33-23 55 10 47-43 51-39 88m25 4.5c1.5-23 35-26 41-5 7 25-13 47 16 72"/><path class="st40" d="M334 476c-20-34-61-31.5-89-9.6-20 8-43-3-64 4-22 7-28 37-5 43.5 6.5 2 23-2 26-1 15 4 11 25-5 30-21 6-10 29 6 29"/><path class="st40" d="M216 554.5c-15 15-14 41 2 55 37 22 41 31 36 69.7-2 31 46 41 53.5 10 2-10.8-4-22 0-33 13-32 44 20 62-44.5"/><path class="st40" d="M327 647.9c25 29.7-.5 47-7 75-10 32.5 34 65 53 25"/><path d="M729 262.5c9 4 16 13 18 22.5m-193-68c12.5 2 24.5 8 34 16m9 9 3 3m-163 10c-5.5-.9-12 .6-15.5 4M362 319.6c-9 2-14 10.7-16 19M339 449c4 1 6 6 6 9.8M308.5 470c-12-6-16-5-22-4M175 492c1-4 5-7 9-7.5m38 89.5c-4 8 0 16 4 19.9m44 78.6c-1 6 1 15 9 18m76-77.5c-3 14-13 14.5-16 16m4.5 119.5c-5-3-9-9-8-15M397 782c-1 14.5 7 28 14 30m90 53.9c-3 12 2 27 14.5 25M636 957c14-3 17-28 11-38m96-60.1c1-7 0-14-4-19m46-49.1c8-6.5 9-25 3-39M786 582c5-8 3-19-3-26m37-12c2-8.5-.6-18-7-24m-56-169c18 6 22 30 21 35" style="opacity:.7882;fill:none;stroke:#fff;stroke-width:10;stroke-linecap:round;stroke-linejoin:round;stroke-miterlimit:10;enable-background:new"/></g><style>.st40,.st68{fill:none;stroke-width:10;stroke-linecap:round;stroke-linejoin:round;stroke-miterlimit:10;stroke:#000}.st68{opacity:.6;enable-background:new}</style><g id="Happy_Beard"><linearGradient id="SVGID_00000012458921589117142250000001255892426965824154_" gradientUnits="userSpaceOnUse" x1="482.466" y1="444.183" x2="708.475" y2="85.169" gradientTransform="matrix(.9987 .05075 .05075 -.9987 14.064 1042.44)"><stop offset="0" style="stop-color:#00a2ff"/><stop offset=".654" style="stop-color:#aa36e8"/><stop offset="1" style="stop-color:#f0d"/></linearGradient><path style="fill:url(#SVGID_00000012458921589117142250000001255892426965824154_);stroke:#000;stroke-width:10;stroke-linecap:round;stroke-linejoin:round;stroke-miterlimit:10" d="M749.8 654c37 24 16.5 79 8.5 114-16 55 39 72 17 127.5-43-56-34 11-42 16.3-19-69-64-3-13 17.9-4 24-57-17-46 57.5-23-10.7-20.8-39.9-26-60.9-6-18-26-20.8-36-4.5-9.8 20.8-19 43-41 55 4-43-33-56-39-64.9-5-8-2-20.6-10-26-15-10-28 12-43 13.2 26-41-19.5-103-26-30-28-26-11-53-23-61-8-4-15 8-24 8 12.5-20.5-2-44-5-65.6-9-66 51.5-97 109-72.5 82 35 64-11 110-8.9 54 3 86-44 129-15.4v.3z"/><path d="M441 706c-36 33 0 64 9.9 68 44 21 49 42 67 62 28 26 56 18 87 2.2 19.5-9.9 43 1 65-1 30.6-3 59-32 55-64-6-46 7-36 20-56 8-12 1-29-10-37.3-33-22-53 13-81 19.5-12 2-24-4-36-4-24 0-45 44-112 4.9-22-13-48-10.7-65 5.3v.4z" style="fill:#fe1767"/><path d="M582 710.6c22.5 7 43 21 58 38.9 24-16 58-5 82 8-4-19 14-28 22-42.5 12-22-13-65-67-27.5-39 30.5-54-11.5-95 23.1z"/><path d="M629.8 745c-22-17-48-8-72-2.9-54 11-82-46-125-24 27-47 81-13 94-7.9C573 729 583 691 629.8 745zm26.2 40c2-22 25-37 46-37-17-14-45-9-62 3.6l16 33.4z" style="fill:#ae0f45"/><path class="st40" d="M441 706c-36 33 0 64 9.9 68 44 21 49 42 67 62 28 26 56 18 87 2.2 19.5-9.9 43 1 65-1 30.6-3 59-32 55-64-6-46 7-36 20-56 8-12 1-29-10-37.3-33-22-53 13-81 19.5-12 2-24-4-36-4-24 0-45 44-112 4.9-22-13-48-10.7-65 5.3v.4z"/><path class="st68" d="M433 710c-15 15-16 41-2 57 9.9 12 26 16 38 26 24.5 18 35 53 65 64.5 31 12 59-13 88-18 19.7-4 51 12 66-7m-264-153c-59 41-7 89-22 134"/><path d="M606 741c11 8 17 21 22 33m7 14 1 4m50-33c8 2 16 6 22 12.5m20-111.7c10 1 19.8 7 25 16m4 11.2 1 3.5M751.5 833c5 6 8 12.5 11 19.5M767 863l1 3m-171 56c-2 6-4 11-8 17m-6 10-2 2M448.5 817c-1 5 0 11 .5 16" style="fill:none;stroke:#fff;stroke-width:10;stroke-linecap:round;stroke-linejoin:round;stroke-miterlimit:10"/><path class="st40" d="M582 712c38 7.5 66 45 75 80.7M640 749c30-16 57-9 83 10.9"/><path class="st68" d="M731 897c.9-8.5 5-22 15-23m-48 21c-4 13 0 34 14 38m-59 19c3 9.5 9 18 16.5 24M487 861c4.5 11.5 7 19.9 3 29m-73-82c2-9 .7-22-7-28.5"/></g><style>.st40{fill:none;stroke:#000;stroke-width:10;stroke-linecap:round;stroke-linejoin:round;stroke-miterlimit:10}</style><g id="glasses"><linearGradient id="SVGID_00000178916075595908665650000004557367053833667231_" gradientUnits="userSpaceOnUse" x1="598.405" y1="1033.928" x2="641.405" y2="678.931" gradientTransform="matrix(1 0 0 -1 0 1410)"><stop offset="0" style="stop-color:#00f5d0"/><stop offset=".232" style="stop-color:#42b1da"/><stop offset=".508" style="stop-color:#8b66e6"/><stop offset=".738" style="stop-color:#c02fee"/><stop offset=".908" style="stop-color:#e10df3"/><stop offset="1" style="stop-color:#ed00f5"/></linearGradient><path style="fill:url(#SVGID_00000178916075595908665650000004557367053833667231_)" d="M360 453c2 11 0 51 7 55.1 14 4 47-17 49.9 2 3 11 7 22 6 33-2 22-21 43-13 65 9 25 35.8 11 38 17.3 11 32 20 25 48 27 19 5.5 23 38 45 35 26-3 15-55 34-38.5 15 13 41 3 44.5-16.4 4-23-18.5-42.5-19-66 2-28 23-48 8-79 8 .5 17 0 25-1 13 24 8 46.5-2 69.9-17 39.8 15 52.5 29 45-2 14-11 36 2 47 10.5 5 23-4 29-12 11-22 29.5-2 39 10.3 12 12 28 6 29-11 .6-7.5-2-16 2-23 6-5 18 6 27-10.8 6-30-9-21 14-54.7 8-12 34-27 17-51-7-9.6-20.5-18-17-31 16 3 34-8.5 44-19.9 6-9.5 9-23 6-33.5-5-12-17-10.9-24.5-2-10 9.9-20.9-1-12.5-12 8-11 39-18 7-31-52.5-6.5-53 102-140.5 31.8-46-29-49 40.6-93 34-32.5-5-17-24-60.8-4-59-42-66 22.5-124 20.3-14-.5-32-7-44 3.8v.3z"/><path d="M363.5 508c17 18 36-5 48 0 24 37-27 79.5-.5 112.9 11 14 29.9 7 32 8.8 4.5 18 16 29 35 29 40-5 27 27.5 53 28m37-34.7c10 9.5 27 10.5 38 2m9-163.1c56-2-32.5 112 38 120 5 4-17 39.7 17.5 37m29.5-17c19-2 25 27 46 22m38-41.9c-4 5-11 7-17 7M445 500.6c-6 10.5-14.5 5-21 10" style="opacity:.6;enable-background:new;fill:none;stroke:#000;stroke-width:10;stroke-linecap:round;stroke-linejoin:round;stroke-miterlimit:10"/><path d="M495 429.5c9 2 17 6 23 13m-38.2-11.6c-1 0-2 .8-3.5 1.5M374 495c6 .5 12-1 16-4m213 15c2 9.5-1 19-5 28m-6.5 13-1.5 3m12 58c6 7 9.9 19 4.5 27m-10.5 8c-1 0-1.5.5-2 .7M550 656c0 7-3 13-8 18m-79-46c1 7 7 12 14 12m168-78c-3 7-3 15-1 22m25 39c-2 3.5-1 8 2 11m78.5-14c2 6 1 12-1 17m-.5-30v-2m41-76c4 7 0 14-5 19.5m22-47.5c4 3 6 7 7 11m28-92c0 8-3 16.5-9 22m-11 5c-2 0-3 .9-5 1m-150.5-41c7 1 12 5.5 17 10.7M652 409c-1 .5-2 1-3 2" style="fill:none;stroke:#fff;stroke-width:10;stroke-linecap:round;stroke-linejoin:round;stroke-miterlimit:10"/><path d="M429 607c3 4 3 10 0 15 4-1 12-3 13-8m151 11.9c-5 8-7.5 19.8 0 27-6 0-27.5-5-16-23M592 498c7-1 14.5 1 20 5-2-5-4-11-9-14m61-2c-8 5-15 13-19 21-1 0-6-12-4-18m12 96c-1 6-6.5 11-12 13 6 1 14 2 19-2m112-5c-1 7 2 14 8 18-6 2-13.5-.5-17-6m40-87.5c4 5 10 11 17 9-3.5 3-9 6-14 4.5m-28-62.5c8-2 17 3 22 8.9.5-5-.9-12-4-16h-1m-244-23.9c-5-3-6-11.5-3-16.5-6 3-13 7-13 14" style="opacity:.6;enable-background:new"/><path class="st40" d="M362 503c14 14 34.5-3 50.9-2 9.6.5 23 7 29.9-3"/><path class="st40" d="M413 501c24 36 0 62-4 97-2 19 19.5 34 35 21.5"/><path class="st40" d="M434 606c26 12 3 52 54 46 31-4 21.5 36 50 37 32 2 19-59 51-65"/><path class="st40" d="M570 642.5c12 19.5 44 17 51-5 9-27.5-27-52-19-79 7-23 24-47 7-69m27-1.5c14 25 2 49.7-5.5 74-5.8 18 6 53 29 38"/><path class="st40" d="M656 588c12 13.5 0 29-1 44 0 14 15 21 27 11.9 15-12 23-31 40.6-8.4 26 34 40 9 40-3.5s-7-29.6 5-38.5"/><path class="st40" d="M763 609c12 9 30-2 28-16.9-.8-5-3-9-4-14-4-22 32-25 13-58"/><path class="st40" d="M808 535c22-1 21-31 7-42-9-7-16-17.5-13-29m-141 20c-18 12.5-39-12-68 10.6M779 463c9.8-6 22-2 34-2 54 0 53-75.5 20.7-55-19 12-22-1-19.7-6.8 4-9 17-9 23-16 5-13-10.9-18-21-17-29 3-32 32-51.5 45-21 15-58 14-74-6.7-7-9-17-14-29-13-23 1.5-29.5 25.5-47 35-34 22-52-27-81.5 3"/><path class="st40" d="M548 438c-13 0-23-10-33-16.9-39-27-69 31-108 29-17-.9-35-10-50 2.7 6 15 2 34 5 49"/></g><linearGradient id="a21" gradientUnits="userSpaceOnUse" x1="503.691" y1="241.136" x2="690.539" y2="221.151"><stop offset="0" style="stop-color:#ff2b2b"/><stop offset="1" style="stop-color:#ffff2b"/></linearGradient><path style="fill:url(#a21);stroke:#000;stroke-width:10;stroke-linecap:round;stroke-linejoin:round;stroke-miterlimit:10;stroke-dasharray:0,0,0,0,0,0" d="M562 170.5c-4 2-9 2.5-13.5 1.4 18 17-4 44 7 61.1 7 11 21 19 19.9 34.5 0 7-7 15-13 8.6 1 15 13 25 23 34.8 9.5 9.5-2 29 8 38.4 16 13 43-9 39.8-26.5-2-13-9-28 2-39.7 8-8 25.5-21 14-32.8-2 5-9 8-12 3.8-4-4 1.5-10.5 3-16.1 2-11-9-18-14-27-12-24 24-41 1-62.1 0 20-34 20-28 0 5-17-3-16.5-11-27.2 7 14-20.1 30-27.5 16.4-4-8 0-18-7-25.3-5.8 19-32 29-33 48.7-2 40-15.8 26.5-16.5 24.1-4 12 11 24 9 37 15-6 26-22 42-26"/><path d="M549 202.2c-17 33 35 57 16 69.5-3 0-6 1-7 4.3-5 19.5 22 28 25 45.2 1 6.5-.5 13 1 19.9 3 15.5 25 20 34 7m-72-175.9c11 22-14 30.7-28 41.5" style="opacity:.6;fill:none;stroke:#000;stroke-width:10;stroke-linecap:round;stroke-linejoin:round;stroke-miterlimit:10;stroke-dasharray:0,0,0,0,0,0"/><path d="M620 320.5c1 4 .5 8-2 11.5m-10 7-2 1m12-117.6c3 3 5 6 6 10m-91.5-71.8c2-4.5 5-9 8-12" style="opacity:.7882;stroke:#fff;fill:none;stroke-width:10;stroke-linecap:round;stroke-linejoin:round;stroke-miterlimit:10;stroke-dasharray:0,0,0,0,0,0"/><circle cx="550" cy="550" r="500" style="fill:none;stroke:#000;stroke-width:10;stroke-linecap:round;stroke-linejoin:round;stroke-miterlimit:10"/></svg>