<svg version="1.1" id="Layer_1" xmlns="http://www.w3.org/2000/svg" x="0" y="0" viewBox="0 0 1100 1100" style="enable-background:new 0 0 1100 1100" xml:space="preserve" xmlns:xlink="http://www.w3.org/1999/xlink"><style type="text/css">.st302{fill:#6A10EB;stroke:#000000;stroke-width:10;stroke-linecap:round;stroke-linejoin:round;stroke-miterlimit:10;}</style><circle class="st302" cx="550" cy="553.7" r="500"/><radialGradient id="a4" cx="564.461" cy="535.948" r="438.66" gradientTransform="matrix(1 0 0 -1 0 1100)" gradientUnits="userSpaceOnUse"><stop offset="0" style="stop-color:#7303fc"/><stop offset="1" style="stop-color:#03fcb1"/></radialGradient><path style="fill:url(#a4)" d="M532 209c-68 59.6-71 20-121 36.5-19.6 10.9-14 30-9.7 39.6 11 23-51 9-69 40-10 18 0 42-7.5 61.8-9 19.6-34 35-37 52-43 48-154 7-119 70 6 11 33-6 39 9 7 17.5-39 29-21 46.7 18 5 21 39.9 57 63 14 20 3 51 19 69 36 38 46-25 41-34 4-39 44-11 22 38.7-23 52 11 74 36.5 57 24-9 13 39 23 50.9 19.5 37 55 12 67 12 18 1 28 22 29.8 40.3 6 63 54 46 59 8 15.5-34 45 49 47 59.9 12 73 69.5 42 71 17.9 3-54-3-60 2-68.3 19-31 71 13 90.8-15.5 14-19.8-31-63 8-55 94 19.9 19-101 14-120-9-35.5 14-106 47-121.7 18-9 17-35.5 7-53-9.6-17-25-30.6-31-48.9-13.5-54 21-100.6-36-133-5-3-7-9.5-4-14.4 17-26 1-66-32-71-22-3-44 9-66.5 6C615 247 578.5 178 532 209z"/><style>.st40{fill:none;stroke:#000;stroke-width:10;stroke-linecap:round;stroke-linejoin:round;stroke-miterlimit:10}.st98{opacity:.6;enable-background:new}</style><g id="Outline"><path class="st98" d="M793 537c-1 .7-1 2-.5 3 5 10 11 35 25 30 8-2 21-13 18-22.4-.5-1-2-2-3-1.5-26 12-28-11-39-9.4v.3zm-34 274.5c6 5 26 8 25-3-6-7-20.6-12-21.5-26C750 772 744 803 759 811.5zm-219.3 52s1 .5 1 .8c9 13.5-3 36-18 40-34 6-9-6-6-44 .3-5.3 22.3 2.7 23 3.2zM342 731c5 7-4 22-4 33 8 13 29.6-5 33-14.9 2-12-17-21-28-20.2-1 .1-1 1.1-1 2.1zm31-120.2c2 23-8 47-26 61.9-13 10.9-17.5-30.6-8-27.9 6 4.2 28-18.8 34-34zm-157-59.9c-8 6-17 3-25 1-11 5 4 20 13.5 16 5-4 12-9 12-15.7-.5-.2-1.5-.2-.5-1.3zM337 473c-6-10-3-23 0-34 0-1 0-2-.6-2-9-9-23 11-19.8 20.7C318 463 338 475 337 472.8v.2z"/><path class="st98" d="M326 392c-2 29 24 45 7 44-7 2-14 1-15 11-1 11-24 0-24.5-1.3C285 433 317 404.5 326 392zm103-118c-9.9-4-16-16-18-25-4-6-9.9 1-11 6-7 54 29.5 28 29 19zm293 9c16 21 29.5 12 40 20.7 3 4 1 9.6-1 14-3 9-13 9-20 4.1-14.5-5.8-22-22.2-19-38.8z"/><path class="st40" d="M347 729c53.5 5 15 86 59 102 25 9 37-19.8 55-11.9 23 10.1 19.6 40 24 60.7 9.6 46 63 29.6 58-12.8"/><path class="st40" d="M519 861c89-9 47.5 119 114.5 115 39-6 35-47 25-76.5-3-9 0-18.5 7-24.5 24.5-21 59 15.5 84-2.5 15-11 8-33-2-45-12-15 0-32 10-43"/><path class="st40" d="M790 539c53 69.8-64 71 8 194.5 6 14 11 32 11 48.5 0 32-49 47.5-61 16"/><path class="st40" d="M721 287c2 51 64 31 74 88 6 34-11.5 71 7 103 10 18 27 31.5 34 51 8 19-4 47-27 42"/><path class="st40" d="M407 290.6c-16-8-12-29.9-2-41 17-15 40.5-10 61-6 29.8 1 49-29 75-38 50-17 81 55 133 44 23-5 48-11 69 1 25 14 33 55 10 75"/><path class="st40" d="M428 278c-16 26.5-51 17.5-76 28.5-20 10.5-28 33-23 55 10 47-43 51-39 88m25 4.5c1.5-23 35-26 41-5 7 25-13 47 16 72"/><path class="st40" d="M334 476c-20-34-61-31.5-89-9.6-20 8-43-3-64 4-22 7-28 37-5 43.5 6.5 2 23-2 26-1 15 4 11 25-5 30-21 6-10 29 6 29"/><path class="st40" d="M216 554.5c-15 15-14 41 2 55 37 22 41 31 36 69.7-2 31 46 41 53.5 10 2-10.8-4-22 0-33 13-32 44 20 62-44.5"/><path class="st40" d="M327 647.9c25 29.7-.5 47-7 75-10 32.5 34 65 53 25"/><path d="M729 262.5c9 4 16 13 18 22.5m-193-68c12.5 2 24.5 8 34 16m9 9 3 3m-163 10c-5.5-.9-12 .6-15.5 4M362 319.6c-9 2-14 10.7-16 19M339 449c4 1 6 6 6 9.8M308.5 470c-12-6-16-5-22-4M175 492c1-4 5-7 9-7.5m38 89.5c-4 8 0 16 4 19.9m44 78.6c-1 6 1 15 9 18m76-77.5c-3 14-13 14.5-16 16m4.5 119.5c-5-3-9-9-8-15M397 782c-1 14.5 7 28 14 30m90 53.9c-3 12 2 27 14.5 25M636 957c14-3 17-28 11-38m96-60.1c1-7 0-14-4-19m46-49.1c8-6.5 9-25 3-39M786 582c5-8 3-19-3-26m37-12c2-8.5-.6-18-7-24m-56-169c18 6 22 30 21 35" style="opacity:.7882;fill:none;stroke:#fff;stroke-width:10;stroke-linecap:round;stroke-linejoin:round;stroke-miterlimit:10;enable-background:new"/></g><linearGradient id="a15" gradientUnits="userSpaceOnUse" x1="238.934" y1="-556.918" x2="343.954" y2="-476.903" gradientTransform="translate(0 1066)"><stop offset="0" style="stop-color:#ff0040"/><stop offset=".125" style="stop-color:#ec0051"/><stop offset=".379" style="stop-color:#bb007e"/><stop offset=".736" style="stop-color:#6d00c6"/><stop offset="1" style="stop-color:#2f00ff"/></linearGradient><path style="fill:url(#a15)" d="M236 532.1c15 4 17 20 16 34-2 29 36 51 62 29 28-23-9-58 18-81-9-3.5-15 15-32 3.7-7-4-12-20-3-24-39 10-16 37-41 37-7-2.8-15-3.8-20 1.3z"/><path d="M288 499.9c-21.5 33 12 52-12 78.5-4 4-9.8 8-9.7 14 3 16 28 10.5 39 6.9 9-4 16.5-13 18-23.5.5-19.7-4-39-1-59-7 5-19 3.5-25-3-4.3-3.8-5.3-10.3-9.3-13.9z" style="opacity:.1882;fill:#fff;enable-background:new"/><path d="M236 532c15 4 17 20 16 34-2 29 36 51 62 29 28-23-9-58 18-81.3-9-3.5-15 15-32 4-7-4-12-20-3-24-39 10-16 37-41 37-7-2.7-15-3.7-20 1.3z" style="fill:none;stroke:#000;stroke-width:10;stroke-linecap:round;stroke-linejoin:round;stroke-miterlimit:10"/><path d="M254.5 527c20-8 9-29 36-32M233 534c12 7.5 15 22 14 35-2 31 39 49.7 62 29" style="opacity:.6;stroke:#000;enable-background:new;fill:none;stroke-width:10;stroke-linecap:round;stroke-linejoin:round;stroke-miterlimit:10"/><path d="M310 560.8c1 9-1 21-10 25m7-40.8c0 1 0 2 .5 3" style="fill:none;stroke:#fff;stroke-width:10;stroke-linecap:round;stroke-linejoin:round;stroke-miterlimit:10"/><defs><linearGradient id="axf" x1="741.04" y1="835.98" x2="725.62" y2="701.22" gradientUnits="userSpaceOnUse"><stop offset="0" stop-color="#ff9d00"/><stop offset=".12" stop-color="#ff9306"/><stop offset=".33" stop-color="#ff7915"/><stop offset=".6" stop-color="#ff4d2d"/><stop offset=".91" stop-color="#ff124f"/><stop offset="1" stop-color="#ff0059"/></linearGradient><linearGradient id="axf-2" x1="840.33" y1="761.07" x2="812.15" y2="763.18" gradientUnits="userSpaceOnUse"><stop offset="0" stop-color="#ff1e00"/><stop offset=".09" stop-color="#fe1c0e"/><stop offset=".27" stop-color="#fc1833"/><stop offset=".51" stop-color="#f81170"/><stop offset=".8" stop-color="#f207c2"/><stop offset="1" stop-color="#e0f"/></linearGradient><linearGradient id="axf-3" x1="851.73" y1="625.07" x2="951.68" y2="625.07" gradientUnits="userSpaceOnUse"><stop offset="0" stop-color="red"/><stop offset="1" stop-color="#ff0"/></linearGradient><style>.axf-3,.axf-5,.axf-6{fill:none}.axf-3,.axf-5{stroke:#000}.axf-3,.axf-5,.axf-6{stroke-linecap:round;stroke-linejoin:round;stroke-width:10px}.axf-5{opacity:.6}.axf-6{stroke:#fff}</style></defs><path d="M626.2 736.3a94.1 94.1 0 0 0 7.1 68.7 146.4 146.4 0 0 0 66.9 2.7c14.9 7 32.9 7.4 49.6.4a55.6 55.6 0 0 0 44.8-5.5c71 22.1 69.7-119.3-40.3-69.2-14.7-9.5-31.7-1.9-46.5 4.7-15.3-11.1-36.9-5.8-51.3 4.4-10.1-4.5-18.2-7-30.3-6.2Z" style="fill:url(#axf)"/><path d="M818.5 729.1c-17.3 15.2 1.6 86.9 18.1 60.8 7.6-18.7 8.5-60.1-18.1-60.8Z" style="fill:url(#axf-2)"/><path class="axf-3" d="M625.3 728.3a141 141 0 0 0 6.8 86.1m-6-77.4c62.6-13.9 46.9 106.1 121.9 71.9"/><path class="axf-3" d="M657.1 740.2c89-44.8 53.7 106.8 138.6 64.1"/><path class="axf-3" d="M709.7 738c70.8-48.9 55.1 96.5 119.8 61.7 18.6-14.4 16.2-45.9 3.8-63.1s-65.2-16.3-78.5-3.3"/><path class="axf-3" d="M816.1 727c-9.7 22.5-6 53.7 12.1 71m-249.5-43.7c-.2-77.7 64.5-105.5 90.1-22.2m-86.5 66.4c2.2 71.9 77.8 92.6 88.3 13.5"/><path d="M851.7 729c21.7-11.6 3.3-31 4.3-47.8.6-11.4 11.9-15.7 16.8-26 7.3-15.5-4.7-21.1-4.7-35.1s10.4-20.6 10-34.5c-3.7-112.1 118.9-57.6 55.2 6.1-39.2 39.2 11.1 43.8-9.3 76.2-6.3 10-20.8 14.7-23.1 26.3-4.6 23.5-26.3 37.1-49.2 34.8Z" style="fill:url(#axf-3);stroke-linecap:round;stroke-linejoin:round;stroke-width:10px;stroke:#000"/><path class="axf-3" d="M630 804.4c20.9 7.2 50.4 8.8 72.2 2.9"/><path class="axf-5" d="M615.1 682.5c-26.5 1.4-46.5 46-36.4 71.8m3.6 44.2c-9.7 36.6 29.6 85.2 64.9 59.1"/><path class="axf-6" d="M641 707.2a56.3 56.3 0 0 1 9.2 16.6m-19.3-26.6-3.3-1M655 824.5a36.6 36.6 0 0 1-12.7 18.4"/><path class="axf-5" d="M630 740.3c-6 20.1-.6 42.8 4.4 62.6a2.4 2.4 0 0 0-.2-.8m38.7-38.6c6.7 16.4 6 31.7 18.2 42.1m30.5-45.6c8.2 18.3 4.8 36.4 20.5 47m29.3-44.5c7.4 18.9.7 32 17.1 39.6m32.2-70c-7.5 19.4-4.4 44.9 10.2 60.3m-70.4-60.6c21.2 18.8 22.4 69.7 59.2 65.2m-148.4 20.8c9-.4 17.9-2 29.1-3.6 15.5 7.7 21.6 10.4 38.6 2.9"/><path class="axf-6" d="M644.6 748.9a37.2 37.2 0 0 1 13.3 13.7m29.5-18.9a28.4 28.4 0 0 1 17.5 12.6m31.8-16.4a26.2 26.2 0 0 1 12.7 10.5m33.6-13.2c4.6-1.8 9.8-1.2 14.8-.7h.2c0 .1-.2.1-.1 0M931.6 539a21.6 21.6 0 0 1 3.4 21.3m-6.4 11.9-1.5 2m-13.8 69.9a12.8 12.8 0 0 1 2.1 13m-28.8 39.1a19.9 19.9 0 0 1-6.8 11"/><style>.st114,.st40{fill:none;stroke:#000;stroke-width:10;stroke-linecap:round;stroke-linejoin:round;stroke-miterlimit:10}.st114{opacity:.6}</style><g id="suspicious_eye"><path d="M719 485.7c-75 34-164 43-245 39-79.5-4-88 69-8 79.6 62 8 254-20 290-73.1 22-30.2-4-60.2-37-45.5z" style="fill:#fff"/><path d="M574 545.3c1 17.5 0 35-5 52.2l56-9.9-16.5-30.5-34.5-11.8z"/><linearGradient id="SVGID_00000126282863442437977090000011937741723992343478_" gradientUnits="userSpaceOnUse" x1="587.88" y1="506.723" x2="601.628" y2="614.919"><stop offset="0" style="stop-color:#b0f"/><stop offset="1" style="stop-color:#f04"/></linearGradient><path style="fill:url(#SVGID_00000126282863442437977090000011937741723992343478_)" d="M662 508.1c13 16 19 46 13 65.8.5 0-49 15-49 14.6-27-20.5-5.5-57.5-26-66.7-46-4-15 52-33 76.7 0 0-43 3-43 2.9-13-21-19.5-53-3-73.9 48-3.5 94-8.5 141-19.4z"/><path class="st40" d="M719 485.7c-75 34-164 43-245 39-79.5-4-88 69-8 79.6 62 8 254-20 290-73.1 22-30.2-4-60.2-37-45.5z"/><path class="st40" d="M519.8 527.9c-13 23-7 52 4 75M661 508.4c17.5 17.5 19 42 14 66m-111 25.8c23-20.9-12-81 34-78.9 26 4 0 48 28 66"/><path class="st40" d="M575 533.1c3 15 18 26 34 24m121-96.7c23-5 37 2 48 21m-357 27c-14 4-25 16-29 29.9"/><path class="st114" d="M419.6 506.5c-15.5 2-28 15-29 30.8M729 456.8c19-9 41 3 50 20.9m-369 77.1c-22 112 366 41 355-46"/><path class="st114" d="M417.5 545.8c28-16 63-17.5 94-12.8-5 22-5 46 5 66M668 510.9c29.8-5 57-29 88-20.6"/><path d="M655 521.9c5 8 8 17 8 26m-1 12.1v3" style="opacity:.7804;stroke:#fff;fill:none;stroke-width:10;stroke-linecap:round;stroke-linejoin:round;stroke-miterlimit:10"/></g><defs><style>.zbl-2{fill:none;stroke-linecap:round;stroke-linejoin:round;stroke-width:10px;stroke-dasharray:0 0 0 0 0 0;stroke:#000}</style></defs><path d="M841 228.2c-25.1 51.4-37.8 118.8-45.6 183-85.6-164.6-362.3-167.7-457.4 23.6-12.7-1.1-22.7 9.2-23.2 21.9-21.3-14.2-50.5-5.1-69.9 8.3l-30.2-19.1 67.4-53.5-64.8-129.6L326 294.9l25.7-143.3 105.1 80.3 89.6-151.6 88.9 143.8 105.9-89.9 29.3 127.1Z" style="fill:#37badb"/><path class="zbl-2" d="m760.6 269.1 80.4-40.9c-25.1 51.4-39.1 127.7-46.9 191.9-54.7-172-363.2-181.4-456.1 14.7-12.7-1.1-22.7 9.2-23.2 21.9-21.3-14.2-50.5-5.1-69.9 8.3"/><path class="zbl-2" d="M770.5 264.1c-11.5-43.2-21.3-87.6-29.2-131.8L620.8 238.9l.2-.2m13.4-12.8c-9.1-18.1-53.8-89.4-88.1-147.2L443.9 254.8m9.8-21.6q-50.2-42.6-102.5-82.6l-26.5 155.8m0-11c-39.1-10.5-71.1-23.2-110.3-33.7l74.9 142.5m-7.7-11.1q-34.8 26.7-68.8 54.5l31 17.5"/><path d="M788 419.3c-73.4-180.6-365.4-151-441.2 14m413.8-164.2c3-17.1 1.5-35.2-2.2-52.2m-137.6 22c6-11 5.6-23.2.7-34.8m-177.6 49.7c5.7-13.3.2-23.6-6.5-34.4M323.7 307c-2.7-5.7-5.9-10.4-14.8-16m-20.3 112.9c-10.6-1.8-20.7 3-30 7.6" style="opacity:.6;stroke:#000;fill:none;stroke-linecap:round;stroke-linejoin:round;stroke-width:10px;stroke-dasharray:0 0 0 0 0 0"/><path d="M776.1 276c8.3-4.7 16.8-9.2 25.3-13.6m9.3-6.3 3.2-1.9m-97.1-85.1c-11.5 11.6-23.3 22.8-35.3 33.8m-11 8.3-4.5 5.1m-130.6-93.9-29.2 52.1m-9 13.7a44.5 44.5 0 0 0-2.5 5.4M358 191.7c-3.3 17.9-6.4 35.7-9.3 53.6m-2.8 14.7-.5 4.8m-95.2 31.5c6.8 13.2 13.4 26.4 19.6 39.9m7.8 13.4 2.2 5.2m-44.1 91.4 6.9 4.5" style="stroke:#fff;fill:none;stroke-linecap:round;stroke-linejoin:round;stroke-width:10px;stroke-dasharray:0 0 0 0 0 0"/><circle cx="550" cy="550" r="500" style="fill:none;stroke:#000;stroke-width:10;stroke-linecap:round;stroke-linejoin:round;stroke-miterlimit:10"/></svg>