<svg version="1.1" id="Layer_1" xmlns="http://www.w3.org/2000/svg" x="0" y="0" viewBox="0 0 1100 1100" style="enable-background:new 0 0 1100 1100" xml:space="preserve" xmlns:xlink="http://www.w3.org/1999/xlink"><style type="text/css">.st301{fill:#005BEF;stroke:#000000;stroke-width:10;stroke-linecap:round;stroke-linejoin:round;stroke-miterlimit:10;}</style><circle class="st301" cx="550" cy="553.7" r="500"/><path d="M532 209c-68 59.6-70.9 20-120.8 36.5-19.6 10.9-14 30-9.7 39.6 11 23-50.8 9-69 40.3-10 18 0 42-7.5 61.8-9 19.6-34 35-37 52-43 48-154 7-119 70.4 6 11 33-6 39 9.1 7 17.5-39 29-21 46.7 18 5 20.7 39.9 57 63 14 20 3 51 19 69.1 36 38 46-25 41-34.3 4-39 44-10.6 22 38.7-23 52 11 74 36.5 56.6 24-9 13 39 23 50.9 19.5 37 55 12 67 12 18 .7 28 22 29.8 40.3 6.5 63 54 46 59 8 15.5-34 45 49 47 59.9 11 73 69 42 70.8 17.9 3-54-3-60 2-68.3 18.5-31 71 13 90.8-15.5 14-19.7-31-63.5 8-55.4 94 19 19-100.7 14-120.4-9-35.5 14-106 47-121.7 18-9 17-35.5 7-52.8-9.5-17-25-30.6-31-48.9-13.5-54 22-102-36-133.3-5-3-7-9.5-4-14.4 17-26 1-66-32-71.4-22-3-44 9-66.5 6.3C615 247 578.5 178 532 209z" style="fill:#5d7f48"/><path d="M800 739.3c-5-3.5-5.5 16-14.5-2.4-2-4.5-9-5-13-1.9-6 6-2 18.5-9 22.6-9.8 5.5-17-8-16-16.5 3-49-69.6-23-36 7.5 10.6 9.5 28 19.8 16 35.8-14 19-18-22-39-10.8-18 9-19.5 38-7 52.3 12 14 19 28.5 3 43.9 17-11 71 29.5 74-10.5 1-18-27-40.9-10-57.9 11.5 20.6 86 24.6 51.5-62.1zm9-251.4c-15 39-85 33-97-4-12-38 38-64 4-107.8-17-22-45-7-27 17.4 19 25-17 53-40 33.8-65.5-55 59.9-109-26-190.9 32 37 86-9.8 123 15.1 23 16 27 56 7 76.8 81 30.7 11 106.7 56 159.6zM209 594c9-14 28-5 35 6.7 9.7 16 28.5 43 47 22.1 7-7 4-17 .6-25.7-6.5-15 9-25 24-20.5 6 2 12 5 19 5.3 26 3 42.5-27 30.6-49-4-7-4-18-4-26.4-2-50-12-109-47-50.4-29-20.5-80 25-119 14.4-39-5-45 55-1.5 44.1 42.5 0 5 26-8 41 3 12 10.6 13 19 17.3 2.3 6.6 1.3 16.1 4.3 21.1z" style="fill:#7a0d09"/><path d="M710 870.6c-7-20.6 23.5-19 20 3.7l-20-3.7zm12-67c-4 1-6 7-3 10.1 2.5 2 7 2.5 9 5.4 1.5 2 .7 5 2 7.6 5 9 17 0 14.5-8.4C741 809 734 800 722 803.6zm65 6.7c-11-14 7-43 19.6-29.5 4 13.2-6.6 27.2-19.6 29.5zm-94-5.8c-6 7 6 23 13 16 8-7.5-4-27.5-13-16zm104-333.2c-24 8-45.5-12-39.8-37 5-20.9 36-26.5 36-1.3l3.8 38.3zm-66.4-7c-5 9.9 9 23 18 16 15.4-11.3-6.1-39.3-18-16zm6.9-141.3c-16 17.5 6 48 23 56.3s35-8 26-25.7c-11-17.6-27.5-23.6-49-30.6zm-66.9-70.9c-15 44 48 69 52 51 1-5-4-29 9.8-14 28 30 35-29 5-43.7-12.4-6.4-56.4 4.5-66.8 6.7zM212 532c4 6.5 12 10 19.6 11.3 57 9 26-88-17-71.5-17 1-42-6-52 12.5C149 530 219 497 212 532zm73-39.1c-23 30.7 35 62 39 23.5 2-18.4-25-42.4-39-23.5z" style="fill:#e1908d"/><style>.st40{fill:none;stroke:#000;stroke-width:10;stroke-linecap:round;stroke-linejoin:round;stroke-miterlimit:10}.st98{opacity:.6;enable-background:new}</style><g id="Outline"><path class="st98" d="M793 537c-1 .7-1 2-.5 3 5 10 11 35 25 30 8-2 21-13 18-22.4-.5-1-2-2-3-1.5-26 12-28-11-39-9.4v.3zm-34 274.5c6 5 26 8 25-3-6-7-20.6-12-21.5-26C750 772 744 803 759 811.5zm-219.3 52s1 .5 1 .8c9 13.5-3 36-18 40-34 6-9-6-6-44 .3-5.3 22.3 2.7 23 3.2zM342 731c5 7-4 22-4 33 8 13 29.6-5 33-14.9 2-12-17-21-28-20.2-1 .1-1 1.1-1 2.1zm31-120.2c2 23-8 47-26 61.9-13 10.9-17.5-30.6-8-27.9 6 4.2 28-18.8 34-34zm-157-59.9c-8 6-17 3-25 1-11 5 4 20 13.5 16 5-4 12-9 12-15.7-.5-.2-1.5-.2-.5-1.3zM337 473c-6-10-3-23 0-34 0-1 0-2-.6-2-9-9-23 11-19.8 20.7C318 463 338 475 337 472.8v.2z"/><path class="st98" d="M326 392c-2 29 24 45 7 44-7 2-14 1-15 11-1 11-24 0-24.5-1.3C285 433 317 404.5 326 392zm103-118c-9.9-4-16-16-18-25-4-6-9.9 1-11 6-7 54 29.5 28 29 19zm293 9c16 21 29.5 12 40 20.7 3 4 1 9.6-1 14-3 9-13 9-20 4.1-14.5-5.8-22-22.2-19-38.8z"/><path class="st40" d="M347 729c53.5 5 15 86 59 102 25 9 37-19.8 55-11.9 23 10.1 19.6 40 24 60.7 9.6 46 63 29.6 58-12.8"/><path class="st40" d="M519 861c89-9 47.5 119 114.5 115 39-6 35-47 25-76.5-3-9 0-18.5 7-24.5 24.5-21 59 15.5 84-2.5 15-11 8-33-2-45-12-15 0-32 10-43"/><path class="st40" d="M790 539c53 69.8-64 71 8 194.5 6 14 11 32 11 48.5 0 32-49 47.5-61 16"/><path class="st40" d="M721 287c2 51 64 31 74 88 6 34-11.5 71 7 103 10 18 27 31.5 34 51 8 19-4 47-27 42"/><path class="st40" d="M407 290.6c-16-8-12-29.9-2-41 17-15 40.5-10 61-6 29.8 1 49-29 75-38 50-17 81 55 133 44 23-5 48-11 69 1 25 14 33 55 10 75"/><path class="st40" d="M428 278c-16 26.5-51 17.5-76 28.5-20 10.5-28 33-23 55 10 47-43 51-39 88m25 4.5c1.5-23 35-26 41-5 7 25-13 47 16 72"/><path class="st40" d="M334 476c-20-34-61-31.5-89-9.6-20 8-43-3-64 4-22 7-28 37-5 43.5 6.5 2 23-2 26-1 15 4 11 25-5 30-21 6-10 29 6 29"/><path class="st40" d="M216 554.5c-15 15-14 41 2 55 37 22 41 31 36 69.7-2 31 46 41 53.5 10 2-10.8-4-22 0-33 13-32 44 20 62-44.5"/><path class="st40" d="M327 647.9c25 29.7-.5 47-7 75-10 32.5 34 65 53 25"/><path d="M729 262.5c9 4 16 13 18 22.5m-193-68c12.5 2 24.5 8 34 16m9 9 3 3m-163 10c-5.5-.9-12 .6-15.5 4M362 319.6c-9 2-14 10.7-16 19M339 449c4 1 6 6 6 9.8M308.5 470c-12-6-16-5-22-4M175 492c1-4 5-7 9-7.5m38 89.5c-4 8 0 16 4 19.9m44 78.6c-1 6 1 15 9 18m76-77.5c-3 14-13 14.5-16 16m4.5 119.5c-5-3-9-9-8-15M397 782c-1 14.5 7 28 14 30m90 53.9c-3 12 2 27 14.5 25M636 957c14-3 17-28 11-38m96-60.1c1-7 0-14-4-19m46-49.1c8-6.5 9-25 3-39M786 582c5-8 3-19-3-26m37-12c2-8.5-.6-18-7-24m-56-169c18 6 22 30 21 35" style="opacity:.7882;fill:none;stroke:#fff;stroke-width:10;stroke-linecap:round;stroke-linejoin:round;stroke-miterlimit:10;enable-background:new"/></g><path d="M258 512.9c21 24 41 50 59 77m6-75.4-62 77" style="fill:none;stroke:#000;stroke-width:10;stroke-linecap:round;stroke-linejoin:round;stroke-miterlimit:10"/><path d="m254 516.1 62 77m12-76.1c-23 29-42.5 52-63.5 79" style="opacity:.6;enable-background:new;fill:none;stroke:#000;stroke-width:10;stroke-linecap:round;stroke-linejoin:round;stroke-miterlimit:10"/><style>.st40,.st68{fill:none;stroke-width:10;stroke-linecap:round;stroke-linejoin:round;stroke-miterlimit:10;stroke:#000}.st68{opacity:.6;enable-background:new}.st102{fill:#fff}</style><g id="Eye_Tounge"><path class="st102" d="M741 663c-20.5 18-46 0-62 23-25.5 38-1.5 18 5 70.8 5 44 32 46.5 36 30.2 4-15-5-30-5-46 .5-21.5 28-31 32-52 0-8 1-18.5-6-26zm-298 24c-5.5 29-5.5 79 32 84 33 7 44 42 54 38 25-30 12-78 7.5-98.7C509.5 705 492 683 443 687z"/><linearGradient id="SVGID_00000027599348716876755490000000517666610371899790_" gradientUnits="userSpaceOnUse" x1="561.184" y1="-370.643" x2="649.184" y2="-208.643" gradientTransform="translate(0 1066)"><stop offset="0" style="stop-color:#ff00d9"/><stop offset="1" style="stop-color:#ff2600"/></linearGradient><path style="fill:url(#SVGID_00000027599348716876755490000000517666610371899790_)" d="M531 815.6c7 14 29.5 21 42 9.8 17-28 4-62 14-75 17.5-22 49-7 39.7 21-7 20.1 19 13 26 44.3 15 20 79-8 41.5-29-9.6-11-14-84-39.7-66-34 28-86-40.9-114-8C529.6 747 564 751 531 815.6z"/><path class="st102" d="M600 744c-27 21 34 40.1 24 7-3-10-13-12-24-7.4v.4z"/><path d="M584 755c-7 13.5 2 47-5 67 2 1 7-9.6 63-3.5 19 2 4-25-6.5-26-7-5-11-13-11-21.5-16.5 1-32.5-11-40.5-16.2v.2z"/><path class="st68" d="M443 690.7c9 10 23 2 34 4 20 6 28 23 55 23-9.6 33 23 36-7 86M742 669c-21 15-35 4-52 12.3s-8.5 34-35 47c-42 20.8-69-29.7-109-15"/><path class="st68" d="M428 669c19 24-10 65 23 98 29.8 29.8 30.8-5 73 51.9 30 41 55 4 92 3.1 26-1 63 18 82-8"/><path d="M662 735c2.5 6 4 13 4 20m2 12c0 2 1 3 2 4.5m-116-51.7c-2 6-2 13 0 19.7M544 815c.9-4 3-7 5-10.5M735 639c-2 6-6.5 11-12 14m-12 4c-1 0-2.5.5-4 .7M656.5 691c-1.5 9-9 17-17.5 19m-15 2c-1 0-2-.6-3-1m-105-18.5c7 5 16 6 24 3M444 664c3 5.5 8 11 15 9.6" style="fill:none;stroke:#fff;stroke-width:10;stroke-linecap:round;stroke-linejoin:round;stroke-miterlimit:10"/><path class="st40" d="M429.5 666c11 23 20 24 44.5 21 18-2 30.5 18 48 23 29.8 6 33-19.7 70 3.3 24 17 56 26 73.5-3 7-12 9-28 21-35 12-6 57.5 6 67-37.5"/><path class="st40" d="M443 685c-7 25-6 56 11 77 13 15 38 9.7 52 24 24 25 32 62 69.8 40.4 58-33 97 27 138-28 18-24-4-42 0-58 7-27 46-32 28-79"/><path class="st40" d="M541 712c-15 43 28 40.9-12 99.6M664 715c33 23 2 57 44 84.5M578 822c-4-18 13-10 3-49-6-24 31-45.8 44-22 4 7 0 16 0 23.9-.5 22 32 14 27 44"/><path class="st40" d="M594 746c-11 20 18 32 31 20"/></g><style>.st40,.st68{fill:none;stroke-width:10;stroke-linecap:round;stroke-linejoin:round;stroke-miterlimit:10;stroke:#000}.st68{opacity:.6;enable-background:new}</style><g id="x_eyes"><linearGradient id="SVGID_00000123421585906372433950000010468793376997334150_" gradientUnits="userSpaceOnUse" x1="562.696" y1="720.109" x2="599.725" y2="465.91" gradientTransform="matrix(1 0 0 -1 0 1100)"><stop offset="0" style="stop-color:#ff0080"/><stop offset="1" style="stop-color:#90f"/></linearGradient><path style="fill:url(#SVGID_00000123421585906372433950000010468793376997334150_);stroke:#000;stroke-width:10;stroke-linecap:round;stroke-linejoin:round;stroke-miterlimit:10" d="M435 547c-3 7-12 10.6-19 11-15 2-24-13-22-28 3-22.5 25-39 27.5-61.9 3-26 9-48 23-63.9 25-28 46-25 62-22 61 13 54 118 114 74 0 0-6 4-8 3.9-17-2-7-35 9-42 27-12 20-13 27.5-27 1-3 3-5 4.5-7.5 40-46 106-5 102 41.9-3 39 16.5 48 16 69 0 13-9 19-20 24-7 3-13 9-16 17-8 19-6 46-28 54.7-21 8-28-20-46-22 0 0 8 1.5 9 4 16 30-47 42-31.5-11.5 14-49-62-70.6-80-23.2-6 16-2 36-9 52-5 10.6-17 19.7-28 14-23-12-32-9.5-49 10-16 18-40-2-39-23.4-.5-18 8-39-5-55"/><path class="st40" d="M464 433c21 42 42 84 62 126"/><path class="st40" d="M529 436c-24 47.5-41 83.5-63 129m195.5-151L722 525m0-108c-19.7 41-36 76-58 117"/><path class="st68" d="M451 392.9c-29 19-28 57-39 86-9 23-29.9 45-20 70.6 7 18 22 19 37 12.4 9-4-8 36 10.5 54.5 29 29 39.6-13 64-13 12 3 25 11.5 35-.9m61.3-90.5c46 17 33 33 31 67.5-1.5 26 35 34 48 9.6 1 0 3 1 4 1.6 11 10 31 7 38-7M678 364.5c-19 5-29 22-39 37-5 8-16 9-23 15-24 18-13 39-17 47.5m-140-29 64 127"/><path class="st68" d="M469 569c24-48 42-87 65-132m122.5-21c22 41 41 75 62 113.5"/><path class="st68" d="M727 420.9c-18 39.5-39.7 77-59 116"/><path d="M720 386c7 6 13 13.5 16.5 22m4.5 12v4m12 54c3 5 5 12 5 18m-42 62c-1 7-5 14-11 18m14-30 .5-2M621 439c2-5 6-8 10.7-9M512 400c7 4 14 9 18.5 16m-31-19-3-1m-87 145c-2-6-1-13 2-18v0m5.5-10 1-2m124 59.8c0 5-2 10.7-5.5 15M543 559v-3m-74 45c-2.5 3.5-7 6-11 5.5" style="fill:none;stroke:#fff;stroke-width:10;stroke-linecap:round;stroke-linejoin:round;stroke-miterlimit:10"/><path class="st68" d="M662 569c6 6 5 14 2 22m-54.3-145c0 7 4 11 11 12M430 536c1 8-2 12-7 18"/></g><style>.st40{fill:none;stroke-width:10;stroke-linecap:round;stroke-linejoin:round;stroke-miterlimit:10;stroke:#000}</style><g id="Halo"><linearGradient id="SVGID_00000122693526384534565180000002607774156497303718_" gradientUnits="userSpaceOnUse" x1="310.08" y1="865.523" x2="812.151" y2="865.523" gradientTransform="matrix(1.0044 -.05704 -.0608 -1.0705 18.333 1183.23)"><stop offset="0" style="stop-color:#fbff00"/><stop offset=".661" style="stop-color:#fe9d00"/><stop offset="1" style="stop-color:#ff6f00"/></linearGradient><path style="fill:url(#SVGID_00000122693526384534565180000002607774156497303718_)" d="M293 241.6c38 131 636 51 442-77-87-57-449-11-439 73 6.5 4 48 3 64 0 92-55 241-71 339-20.5C599 261.5 399 286 310 205l-17 36.6z"/><ellipse transform="rotate(-3.252 533.104 224.114) scale(1.00001)" cx="533" cy="224" rx="240" ry="86" style="fill:none;stroke:#000;stroke-width:10.0001;stroke-linecap:round;stroke-linejoin:round;stroke-miterlimit:10.0001"/><path class="st40" d="M352 236c121 34 251 20.5 364-23"/><path class="st40" d="M366 236c69-53 240.8-64 338-19"/><path d="M355 237c26-21 62-31 94-36m266 12c-36-14-70-24-117-20.9" style="opacity:.6;enable-background:new;stroke:#000;fill:none;stroke-width:10;stroke-linecap:round;stroke-linejoin:round;stroke-miterlimit:10"/><path d="M757 212c-9 17-25 27-41 35m-16.3 7-7.2 2.5M311 225c-10 23 21 40.5 38 45m16 6 8 2" style="fill:none;stroke:#fff;stroke-width:10;stroke-linecap:round;stroke-linejoin:round;stroke-miterlimit:10"/></g><circle cx="550" cy="550" r="500" style="fill:none;stroke:#000;stroke-width:10;stroke-linecap:round;stroke-linejoin:round;stroke-miterlimit:10"/></svg>