<svg version="1.1" id="Layer_1" xmlns="http://www.w3.org/2000/svg" x="0" y="0" viewBox="0 0 1100 1100" style="enable-background:new 0 0 1100 1100" xml:space="preserve" xmlns:xlink="http://www.w3.org/1999/xlink"><circle cx="550" cy="550" r="500" style="fill:#2e2e2e"/><linearGradient id="a1" gradientUnits="userSpaceOnUse" x1="264.957" y1="853.134" x2="422.298" y2="853.134"><stop offset="0" style="stop-color:#00ff90"/><stop offset="1" style="stop-color:#c800ff"/></linearGradient><circle cx="343" cy="853" r="78" style="fill:url(#a1);stroke:#000;stroke-width:10;stroke-linecap:round;stroke-linejoin:round;stroke-miterlimit:10"/><linearGradient id="b1" gradientUnits="userSpaceOnUse" x1="826.38" y1="645.312" x2="919.38" y2="645.312"><stop offset="0" style="stop-color:#f7ff00"/><stop offset="1" style="stop-color:#ff5e00"/></linearGradient><ellipse style="fill:url(#b1);stroke:#000;stroke-width:10;stroke-linecap:round;stroke-linejoin:round;stroke-miterlimit:10" cx="873" cy="645" rx="46.5" ry="53"/><linearGradient id="c1" gradientUnits="userSpaceOnUse" x1="179.591" y1="404.219" x2="384.591" y2="404.219"><stop offset="0" style="stop-color:#0073ff"/><stop offset="1" style="stop-color:#8c00ff"/></linearGradient><ellipse style="fill:url(#c1);stroke:#000;stroke-width:10;stroke-linecap:round;stroke-linejoin:round;stroke-miterlimit:10" cx="282" cy="404" rx="102.5" ry="111"/><linearGradient id="d1" gradientUnits="userSpaceOnUse" x1="766.562" y1="310.33" x2="944.562" y2="310.33"><stop offset="0" style="stop-color:#7300ff"/><stop offset="1" style="stop-color:#ff008c"/></linearGradient><ellipse style="fill:url(#d1);stroke:#000;stroke-width:10;stroke-linecap:round;stroke-linejoin:round;stroke-miterlimit:10" cx="856" cy="310" rx="89" ry="95"/><linearGradient id="e1" gradientUnits="userSpaceOnUse" x1="615.769" y1="857.232" x2="845.269" y2="857.232"><stop offset="0" style="stop-color:#f0b"/><stop offset="1" style="stop-color:#f40"/></linearGradient><circle style="fill:url(#e1);stroke:#000;stroke-width:10;stroke-linecap:round;stroke-linejoin:round;stroke-miterlimit:10" cx="730.5" cy="857" r="115"/><linearGradient id="f1" gradientUnits="userSpaceOnUse" x1="115.411" y1="614.727" x2="186.411" y2="614.727"><stop offset="0" style="stop-color:#00ff90"/><stop offset="1" style="stop-color:#006fff"/></linearGradient><circle style="fill:url(#f1);stroke:#000;stroke-width:10;stroke-linecap:round;stroke-linejoin:round;stroke-miterlimit:10" cx="150.9" cy="615" r="35.5"/><path d="M313 326.3c18 9.9 33 27 39.6 46m7 22.7 1 7m509.9-163.1c19 5 34 19.6 41 38m6 22c1 3 1.5 5 2 8M879 609.4c9 4 16 11 19.8 20m.7 19.6-.5 5M759 766.9c25 9 44 31 49.9 56.5m7.1 23.7c1 4 1 7 .5 10.8M364 799.3c16 6 29 22 31 39m0 22.7-2 6M153.5 595.4c7 1 12 6 14 12" style="opacity:.8118;fill:none;stroke:#fff;stroke-width:16;stroke-linecap:round;stroke-linejoin:round;stroke-miterlimit:10;stroke-dasharray:0,0,0,0,0,0"/><style>.st75{fill:none;stroke-width:10;stroke-linecap:round;stroke-linejoin:round;stroke-miterlimit:10;stroke:#005e0f}</style><g id="brain"><path d="M533 208.1c-68 59.6-71 20-121 36.5-19.6 10.9-14 30-9.7 39.6 11 23-51 9-69 40.3-10 18 .1 42-7.5 61.8-9 19.6-34 35-37 52.2-43 48-154 7-119 70.4 6 11 33-6 39 9.1 7 17.5-39 29-21 46.7 18 5 21 39.9 57 63.2 14 20 3 51 19 69.1 35.8 38 46-25 41-34.3 4-39 44-11 22 38.7-23 52 11 74 36.5 56.6 38.5-10.5-14 99.9 89.9 62.9 18 1 28 22 29.8 40.3 6.5 63 54 46 59 8 15.5-34 45 49 47 59.9 11 73 69 42 71 17.9 3-54-3-60.1 2-68.3 18.5-31 71 13 90.8-15.5 14-19.7-31-63.5 8-55.4 94 19 19-101 14-120.4-9-35.5 14-106 47-121.7 18-9 17-35.5 7-52.8-9.5-17-25-30.6-31-48.9-13.5-54 22-102-36-133.3-5-3-7-9.5-4-14.4 17-26 1-66-32-71.4-22-3-44 9-66.5 6.3C616 246 579.9 177 533 208.1z" style="fill:#a1ffb0"/><path d="M697 378.3c13-5 26 9.9 19.9 22.3-8 11.5-21.5 25.5-13 40.2 18 19 52 27 40 60.9-13 32-46 15-70 22.6-14 7-27 22-44 14-12 13-30 22-46.5 11.8-16 37-37-4-75.5 25.8-16 12-4.5-5-44-16.9-22-7-25-35-10.5-50.3-19-1-39.9-26-25-43 36-6 22-36 36-50.2 16-17 61.5-6 96-25.5 8-4 51.5 5 65.5 2.8C654 386 664 346 697 378.3z" style="fill:#a15e96"/><path d="M442 474.8c2-4 2-9.6 0-14m23 75.7c2-8 0-17-6.5-23m73.5-56.1c-36 22-4 81.5-45 107m76-56.4c2 18.5 27.5 22 31 40m-54-122.4c19-1 28 20 28 36.3 0 11 8 19 17 24.2 23 11 47 16 49 48m18-58.5c14 15.8 42 19 48 42m-22.5-127.7c4-5 7-9.6 9-15M602 465.5c22 3.5 30.9-23 48.5-31M583 403c2-3 3-8 2-11.5m60-6.4c14 14 8 38 19.5 52.1 8 10.1 24 14 27 28.5" style="stroke:#5d5e5e;fill:none;stroke-width:10;stroke-linecap:round;stroke-linejoin:round;stroke-miterlimit:10"/><path d="M716 468.5c6 3 11 8 12 15m0 13.5-1 3m-245-78.6c-9 5-15 14-15.5 24M496 419h3m100 95.2c7 3 12 9 14 16M588 509l-2-1.5m45-101.6c2 3 3 7 4 10.9m-74 122.3c4 2 6.5 5 7.5 9M706 392.2c0 3-1 7-4 9" style="fill:none;stroke:#fff;stroke-width:10;stroke-linecap:round;stroke-linejoin:round;stroke-miterlimit:10"/><path class="st75" d="M694 378.2c-29-35-47 15-71.5 16.1-9 0-18-6-27-7-7-1-15 1-21 6"/><path class="st75" d="M581 402.8c-4-11-18-18-29.5-13.8-7 2.5-12 8-19 12-13 9-29 3-44 2.5-59.9 12-23 55-45 72"/><path class="st75" d="M451 462.7c-13-14-32.5 8-29 22.7 7 28 29.7 16 46 26.6 8 6 8 19 0 25"/><path class="st75" d="M458 509.9c-30.1 18-6 62 25 46.7 41-25-2-87 47-100.9"/><path class="st75" d="M478 559.6c4 11 16.5 21 27 16.5 25.5-11 10-19.9 56-9.5 14 3 29.7-16 19-28.6-8-9-25-16-19-30.6"/><path class="st75" d="M584 549.2c30.1 20 84-29.5-10-61.7-10.7-5-13-17-12-27.6 0-14-9-34-25-32.5"/><path class="st75" d="M628 535.6c26 18 37-15 61-14.8 21 1 42 9.6 53-14.2 21-57-52-48-40-84.1 4-12 20-21 16-34.4-8-16-29-7-39 3"/><path class="st75" d="M638 390.4c18.5 13 6.5 44 26 55.9 11 4 21.5 9 27 20"/><path class="st75" d="M651 428.4c-22 1-27 32-48 34m89 56.6c-3-23-35-22-43-42"/></g><style>.st40{fill:none;stroke:#000;stroke-width:10;stroke-linecap:round;stroke-linejoin:round;stroke-miterlimit:10}.st98{opacity:.6;enable-background:new}</style><g id="Outline"><path class="st98" d="M793 537c-1 .7-1 2-.5 3 5 10 11 35 25 30 8-2 21-13 18-22.4-.5-1-2-2-3-1.5-26 12-28-11-39-9.4v.3zm-34 274.5c6 5 26 8 25-3-6-7-20.6-12-21.5-26C750 772 744 803 759 811.5zm-219.3 52s1 .5 1 .8c9 13.5-3 36-18 40-34 6-9-6-6-44 .3-5.3 22.3 2.7 23 3.2zM342 731c5 7-4 22-4 33 8 13 29.6-5 33-14.9 2-12-17-21-28-20.2-1 .1-1 1.1-1 2.1zm31-120.2c2 23-8 47-26 61.9-13 10.9-17.5-30.6-8-27.9 6 4.2 28-18.8 34-34zm-157-59.9c-8 6-17 3-25 1-11 5 4 20 13.5 16 5-4 12-9 12-15.7-.5-.2-1.5-.2-.5-1.3zM337 473c-6-10-3-23 0-34 0-1 0-2-.6-2-9-9-23 11-19.8 20.7C318 463 338 475 337 472.8v.2z"/><path class="st98" d="M326 392c-2 29 24 45 7 44-7 2-14 1-15 11-1 11-24 0-24.5-1.3C285 433 317 404.5 326 392zm103-118c-9.9-4-16-16-18-25-4-6-9.9 1-11 6-7 54 29.5 28 29 19zm293 9c16 21 29.5 12 40 20.7 3 4 1 9.6-1 14-3 9-13 9-20 4.1-14.5-5.8-22-22.2-19-38.8z"/><path class="st40" d="M347 729c53.5 5 15 86 59 102 25 9 37-19.8 55-11.9 23 10.1 19.6 40 24 60.7 9.6 46 63 29.6 58-12.8"/><path class="st40" d="M519 861c89-9 47.5 119 114.5 115 39-6 35-47 25-76.5-3-9 0-18.5 7-24.5 24.5-21 59 15.5 84-2.5 15-11 8-33-2-45-12-15 0-32 10-43"/><path class="st40" d="M790 539c53 69.8-64 71 8 194.5 6 14 11 32 11 48.5 0 32-49 47.5-61 16"/><path class="st40" d="M721 287c2 51 64 31 74 88 6 34-11.5 71 7 103 10 18 27 31.5 34 51 8 19-4 47-27 42"/><path class="st40" d="M407 290.6c-16-8-12-29.9-2-41 17-15 40.5-10 61-6 29.8 1 49-29 75-38 50-17 81 55 133 44 23-5 48-11 69 1 25 14 33 55 10 75"/><path class="st40" d="M428 278c-16 26.5-51 17.5-76 28.5-20 10.5-28 33-23 55 10 47-43 51-39 88m25 4.5c1.5-23 35-26 41-5 7 25-13 47 16 72"/><path class="st40" d="M334 476c-20-34-61-31.5-89-9.6-20 8-43-3-64 4-22 7-28 37-5 43.5 6.5 2 23-2 26-1 15 4 11 25-5 30-21 6-10 29 6 29"/><path class="st40" d="M216 554.5c-15 15-14 41 2 55 37 22 41 31 36 69.7-2 31 46 41 53.5 10 2-10.8-4-22 0-33 13-32 44 20 62-44.5"/><path class="st40" d="M327 647.9c25 29.7-.5 47-7 75-10 32.5 34 65 53 25"/><path d="M729 262.5c9 4 16 13 18 22.5m-193-68c12.5 2 24.5 8 34 16m9 9 3 3m-163 10c-5.5-.9-12 .6-15.5 4M362 319.6c-9 2-14 10.7-16 19M339 449c4 1 6 6 6 9.8M308.5 470c-12-6-16-5-22-4M175 492c1-4 5-7 9-7.5m38 89.5c-4 8 0 16 4 19.9m44 78.6c-1 6 1 15 9 18m76-77.5c-3 14-13 14.5-16 16m4.5 119.5c-5-3-9-9-8-15M397 782c-1 14.5 7 28 14 30m90 53.9c-3 12 2 27 14.5 25M636 957c14-3 17-28 11-38m96-60.1c1-7 0-14-4-19m46-49.1c8-6.5 9-25 3-39M786 582c5-8 3-19-3-26m37-12c2-8.5-.6-18-7-24m-56-169c18 6 22 30 21 35" style="opacity:.7882;fill:none;stroke:#fff;stroke-width:10;stroke-linecap:round;stroke-linejoin:round;stroke-miterlimit:10;enable-background:new"/></g><linearGradient id="a10" gradientUnits="userSpaceOnUse" x1="242.469" y1="-542.713" x2="318.469" y2="-492.713" gradientTransform="translate(0 1066)"><stop offset="0" style="stop-color:#0f4"/><stop offset=".298" style="stop-color:#00e97f"/><stop offset=".781" style="stop-color:#00c8db"/><stop offset="1" style="stop-color:#0bf"/></linearGradient><path style="fill:url(#a10)" d="M279 499.3c-8 19.6-17 39-25 59 19 9.7 33 28 41 48 1-26 10.9-46 29-65-15-15.3-28-25.3-45-42.3v.3z"/><path d="M275.5 512c36 25 1 53 19 84 14-76 63.5-25-16-93.5" style="opacity:.4902;fill:#fff;enable-background:new"/><path d="M279 499c-8 19.6-17 39-25 59 19 9.7 33 28 41 48 1-26 10.9-46 29-65-15-15-28-25-45-42z" style="fill:none;stroke:#000;stroke-width:10;stroke-linecap:round;stroke-linejoin:round;stroke-miterlimit:10"/><path d="M274 498.5C264 519 255 540 248 562c21 7 34 27 45 45.5" style="opacity:.6;fill:none;stroke:#000;stroke-width:10;stroke-linecap:round;stroke-linejoin:round;stroke-miterlimit:10;enable-background:new"/><path d="M283 523c4.5 4 9 9 13 13m10 10c-.8-.6-2-1-2-2" style="fill:none;stroke:#fff;stroke-width:10;stroke-linecap:round;stroke-linejoin:round;stroke-miterlimit:10"/><linearGradient id="a16" gradientUnits="userSpaceOnUse" x1="588.718" y1="669.061" x2="570.716" y2="592.054" gradientTransform="matrix(1 0 0 -1 0 1410)"><stop offset="0" style="stop-color:#0aff16"/><stop offset=".104" style="stop-color:#0afd3b"/><stop offset=".283" style="stop-color:#0afa76"/><stop offset=".456" style="stop-color:#0af8a7"/><stop offset=".619" style="stop-color:#0af6cd"/><stop offset=".768" style="stop-color:#0af4e9"/><stop offset=".9" style="stop-color:#0af3f9"/><stop offset="1" style="stop-color:#0af3ff"/></linearGradient><path style="fill:url(#a16);stroke:#000;stroke-width:10;stroke-linecap:round;stroke-linejoin:round;stroke-miterlimit:10" d="M720 718c-63 33.5-179 40.6-235-10-27 19-37 63 12.5 57.5 18.5-2 8 39.8 29 43.1 14 2 19.6-9.8 26-22.5 7-15 25-5 29.6-3.5 26 8 27-19.6 25-33"/><path d="M482 706c-30.5 19-39.9 71 6.5 69 23-1 17 9.5 20 23 6 26 34 24 44.5 1.7 16-34 54 17 59.7-36 4-33-25 14 107-39.8" style="opacity:.6;fill:none;stroke:#000;stroke-width:10;stroke-linecap:round;stroke-linejoin:round;stroke-miterlimit:10;enable-background:new"/><path d="M484 725.9c-5 5-8 11-8 18m5 9.1c0 .5 1 1 1 1m52 42c5-3 9-13 9-13m55-21c0 3.5-1 7-4 9" style="fill:none;stroke:#fff;stroke-width:7.5;stroke-linecap:round;stroke-linejoin:round;stroke-miterlimit:10"/><style>.st40{fill:none;stroke-width:10;stroke-linecap:round;stroke-linejoin:round;stroke-miterlimit:10;stroke:#000}.st102{fill:#fff}</style><g id="big_eyes"><ellipse class="st102" cx="678" cy="489.9" rx="67.5" ry="110.5"/><ellipse class="st102" cx="508" cy="513" rx="73.5" ry="122.5"/><radialGradient id="SVGID_00000065789191343214124940000013387809796566389911_" cx="508.413" cy="417.605" r="62.802" gradientTransform="matrix(1 0 0 -2.5954 0 1663.197)" gradientUnits="userSpaceOnUse"><stop offset="0" style="stop-color:#12e6bf"/><stop offset="1" style="stop-color:#1239e6"/></radialGradient><path style="fill:url(#SVGID_00000065789191343214124940000013387809796566389911_)" d="M439 540.2C463 707 597 621.5 575.5 524L439 540v.2z"/><radialGradient id="SVGID_00000061441783641086741920000007150631355785008026_" cx="678.644" cy="440.767" r="57.921" gradientTransform="matrix(1 0 0 -2.6573 0 1721.31)" gradientUnits="userSpaceOnUse"><stop offset="0" style="stop-color:#12e6bf"/><stop offset="1" style="stop-color:#1239e6"/></radialGradient><path style="fill:url(#SVGID_00000061441783641086741920000007150631355785008026_)" d="M614 514.3c17 129.5 125.5 104 129-14.8L614 514v.3z"/><path d="M653 389.6c-34 27-49 78-39 119 38.5 36 131 0 130.8-17.5 0-17-2-35-6-51.4-5-7-12 29-53 22-34.8.3-36.8-50.2-32.8-72.1zm-164 7.9c-42 18-70 107-46 143.9 42.5 15.5 97 13 135.5-12 8-22-.6-47-5-68.8C518 526 475 459 489 397.5z"/><ellipse class="st40" cx="508" cy="513" rx="73.5" ry="122.5"/><ellipse class="st40" cx="678" cy="489.9" rx="67.5" ry="110.5"/><path class="st40" d="M494.5 393c-29 57 29.9 133 79 68m86.5-77c-29 57 37 113.5 77 53M437 540c46 18 100 14 143-10.8m35-14.2c58 16 89 1 128-16"/><path d="M483 393.9c-81 42.5-70.5 285.5 49 238M651 385c-99 69-17 278 51 209.6" style="opacity:.6;enable-background:new;stroke:#000;fill:none;stroke-width:10;stroke-linecap:round;stroke-linejoin:round;stroke-miterlimit:10"/><path d="M725 526c-2 12-6 24-13 35m-7 11c-1.5 2-3 3.5-5 5m-142-15.5c-4 15-11 29.5-20.5 42M527 613c-1 1.5-3 3-5 4" style="fill:none;stroke:#fff;stroke-width:10;stroke-linecap:round;stroke-linejoin:round;stroke-miterlimit:10"/></g><style>.st40,.st68{fill:none;stroke:#000;stroke-width:10;stroke-linecap:round;stroke-linejoin:round;stroke-miterlimit:10}.st68{opacity:.6;enable-background:new}.st102{fill:#fff}</style><g id="Trippy_Hat"><radialGradient id="SVGID_00000123414473825914092120000007829286393102463126_" cx="560.408" cy="901.895" r="355.63" gradientTransform="matrix(1 0 0 -1 0 1100)" gradientUnits="userSpaceOnUse"><stop offset="0" style="stop-color:#ff0062"/><stop offset="1" style="stop-color:#ff9d00"/></radialGradient><path style="fill:url(#SVGID_00000123414473825914092120000007829286393102463126_)" d="M367 287.1c-34 6-142 40-97.5 85.9 93 52 538.5 50 605.5-61 6-38-82-50-108-53-8-43-2-92-25-131-73-78-255-50.6-336 7.5C346 178 384 236 367 287v.1z"/><linearGradient id="SVGID_00000158731567478740519670000011292647734770965143_" gradientUnits="userSpaceOnUse" x1="665.288" y1="882.675" x2="765.301" y2="977.687" gradientTransform="matrix(1 0 0 -1 0 1100)"><stop offset="0" style="stop-color:#00ffc4"/><stop offset=".104" style="stop-color:#00f6c7"/><stop offset=".275" style="stop-color:#00dcce"/><stop offset=".494" style="stop-color:#00b3db"/><stop offset=".748" style="stop-color:#007bec"/><stop offset="1" style="stop-color:#003cff"/></linearGradient><path style="fill:url(#SVGID_00000158731567478740519670000011292647734770965143_)" d="M684 91c-19.5 2.5-29 23-13.5 40.6 44 50 5.8 18.5 11 73.5 1 10 9 22 20 19 49.8-45 19 22 59 18.5C766 110 716 105 684 91z"/><linearGradient id="SVGID_00000119838619519104526170000018100987693212792465_" gradientUnits="userSpaceOnUse" x1="442.246" y1="820.658" x2="250.246" y2="682.658" gradientTransform="matrix(1 0 0 -1 0 1100)"><stop offset="0" style="stop-color:#00ffc4"/><stop offset="1" style="stop-color:#003cff"/></linearGradient><path style="fill:url(#SVGID_00000119838619519104526170000018100987693212792465_)" d="M372.5 223.8c-2 22 2 44.5-7 65-93 0-203 114 52 114-49-62 53-61 9.9-96-30-18-24.5-32-14.5-60.5C419 223 389 218 372.5 223.8z"/><path class="st102" d="M648 185c-56-42-134-25-182 23 67 36 128 34 182-23.2v.2z"/><linearGradient id="SVGID_00000028312584919422827450000003060139484899234493_" gradientUnits="userSpaceOnUse" x1="555.957" y1="951.99" x2="560.957" y2="851" gradientTransform="matrix(1 0 0 -1 0 1100)"><stop offset="0" style="stop-color:#c800ff"/><stop offset=".107" style="stop-color:#c202ff"/><stop offset=".254" style="stop-color:#b009ff"/><stop offset=".424" style="stop-color:#9313ff"/><stop offset=".611" style="stop-color:#6b21ff"/><stop offset=".809" style="stop-color:#3834ff"/><stop offset="1" style="stop-color:#0048ff"/></linearGradient><path style="fill:url(#SVGID_00000028312584919422827450000003060139484899234493_)" d="M517 171.8c-9 19-10.5 60 18 60 21 0 44 0 62-10.8 15-12 8-36 2-50.9-7-17.1-66-6.1-82 1.7z"/><path d="M558 178c-20 10-26 73 11 49 11.5-12 10.5-49-11-49z"/><path class="st102" d="M560 180c-24 9.8-9 36 12 26.5 10-7.5 3-32.5-12-26.5z"/><path class="st40" d="M356 315c18-35 15-74 13-112-5-125 316-157 370-78 33 49 9 129 46 183"/><path class="st40" d="M364 287c-119 18-233 143 229 114 293-18 368-121 177-139M675 92c-45 42 35 48 12 85-16 26-2 58 20 45 6.5-4 10-13 18-13.4 19.6 2 5 45 37.5 34"/><path class="st40" d="M373.5 222.5c17-5 46 3 41 24-9 34-23 37 14 58.9 12 7 17 29.6-5 39.4-27 12-22 44-1.5 59.8M662 193c-59-55-160-33-206 25"/><path class="st40" d="M466.5 207c57 38 129 32 184-22.5"/><path class="st40" d="M515 174c-7 17-3 39.5 5 56m73-67c12 12 18.5 36 9 55m-58 12.5c-12-64 46-75 30-4.5"/><path class="st40" d="M546 193c-3 18 20 19.6 30 14"/><path d="M789 309c-3-14 7-33 17-43-12-1.5-30-9-40-1m-414 50c-2-9-8-16.5-16-20.7 8.5-6 20.7-5 30.7-5" style="opacity:.6;enable-background:new"/><path class="st68" d="M669 90c-9 5-18 16-15.5 26.5 10 46 43 13 22 84-4.5 15 12 35 28 28.9 11.5-4 24-29 29 3 2 13 16 21 28 16.5M462 214c66 42 135 28.5 191-23m-280.5 25c33-4.5 60 12 43 47.5-11 23 6 29.6 21 42.5 11 9.8 11 29-.5 38.7-6 5-48 20-7 59"/><path class="st68" d="M507 179c-5 15-4 31 2 45m94-58c8 13 11 29 9 44"/><path d="M712 123c11 9 19 22 23 35m4 15 1 5m113 139c-11 10-24 18-38.5 22.5m-14.6 5.5-5.9 2m-519 2c.5 16 21 21 38 24m15 4.5 9 2.1M586 174c3 6 5 12 6 19m1 11-1 3m-202 26c4 1 8 4 10 8m16 72c4 2.5 7.5 7 8 12m-18-19.5-2-1.5m292-115c-3 6-3 13-1 19m5-31 1-2m-22-50c-4.5-4-8-9.5-3-17m-242 28c-15 8-29 19-39 33m55.5-42 6.5-3" style="fill:none;stroke:#fff;stroke-width:10;stroke-linecap:round;stroke-linejoin:round;stroke-miterlimit:10"/><path class="st68" d="M318 398c162 25 323 20 473-25"/></g><circle cx="550" cy="550" r="500" style="fill:none;stroke:#000;stroke-width:10;stroke-linecap:round;stroke-linejoin:round;stroke-miterlimit:10"/></svg>