<svg version="1.1" id="Layer_1" xmlns="http://www.w3.org/2000/svg" x="0" y="0" viewBox="0 0 1100 1100" style="enable-background:new 0 0 1100 1100" xml:space="preserve" xmlns:xlink="http://www.w3.org/1999/xlink"><style type="text/css">.st303{fill:#FED907;stroke:#000000;stroke-width:10;stroke-linecap:round;stroke-linejoin:round;stroke-miterlimit:10;}</style><circle class="st303" cx="550" cy="553.7" r="500"/><g data-name="Layer 73"><path d="M531.7 209c-67.9 59.6-70.9 20.3-120.8 36.5-19.6 10.9-14.3 30.3-9.7 39.6 11.2 22.8-50.8 8.7-68.6 40.3-10.3 18.3.1 42.2-7.5 61.8s-33.8 34.7-36.8 52.2c-43.4 48.2-154 6.6-119.1 70.4 6.2 11.4 32.9-6.3 39.1 9.1 7 17.5-38.8 29.4-21.3 46.7 17.7 4.9 20.7 39.9 56.9 63.2 13.8 20 2.7 51.4 19.4 69.1 35.8 37.8 46.3-24.8 41.3-34.3 4.3-38.8 43.9-10.6 22.2 38.7-22.8 51.7 11.2 74 36.5 56.6 24-8.9 13.3 38.7 23.3 50.9 19.5 37.2 54.9 11.6 66.6 12 18.1.7 28 22.3 29.8 40.3 6.5 63 53.6 46.3 59.1 8 15.5-34.3 45.1 48.6 46.9 59.9 11.3 72.6 69.3 42 70.8 17.9 3.3-54.1-3.2-60.1 1.7-68.3 18.5-31.1 71 13.3 90.8-15.5 13.6-19.7-31.2-63.5 7.9-55.4 94 19.4 18.7-100.7 13.8-120.4-8.8-35.5 13.9-105.6 46.9-121.7 18.1-8.8 17.1-35.5 7.4-52.8s-24.9-30.6-31.4-48.9c-13.5-54.4 22.4-102.1-36-133.3a10.2 10.2 0 0 1-3.9-14.4c17.1-26.3 1.3-66.4-31.8-71.4-22.1-3.3-44.3 8.9-66.5 6.3-43.8-5.2-80.2-74.1-127-43.1Z" style="fill:#ff3903"/><path d="M797.6 467.5c-15.3 28.2-60.6 36-60.5-4.6 3.3-26.2 20.3-54 8.7-79.8-21.5-47.8-37.6-21.7-36.8-13.2 1.2 12 13.1 19.1 18.3 29.3 13.6 26.4-27.4 56.1-37.5 26.8-1.3-12.6 18-21 13.5-34-12.8-19.5-39.3 5.3-33.3 23.7 1.6 6.5 5.6 12.2 7.5 18.6 9.6 53.4-72.9 45.9-53.8-4.9 5.4-14.6 47-31.6 10.6-81.4-27.1-37 46.4-61.5 30.7-98.8 30.1-10 144.5-12.9 86.9 77.8 80 37 25.9 82.3 45.7 140.5Zm-436.5-7.4c9.3 4 21.5-2.9 22.9-12.9s-8.3-22.6-1.8-32.6c8.6-11.4 22.7-1.2 23.2 10.8 1.5 8.7.5 17.9 3.8 26.1 8.4 20.9 38.8 19.9 47.8 0 27-47-48.4-65.1-28.7-105.2 4.5-7.9 15-5.6 19.3 1.7 5.4 9.4 3 24.2 13.4 30.3 7.2 4.2 16.9-.3 21.1-7.5 18.9-45.2-59.9-59.8-23.3-125.4-33-22.4-84.9 17.1-51.4 48.3-127.3 17.8-52.1 58.8-88.6 110.3-9.6 13.4-29.2 23.5-28.6 42.8a66.5 66.5 0 0 1 22.9 8.4c-.6-15.6 38.8-39.4 48 4.9Zm308 411.9c.8-29.3-33.6-38.2-56.7-43.1-25-5.2-53.4-31.4-30.3-54.3 36.7-18.4 27.4 37.5 53.6 34.5 5.1-1 9.2-7.1 6.9-11.8s-13.1-5.8-15.2-12c-4.6-13.5 14.3-13.9 22.1-5.3 9.8 11 4.6 27.7 14.3 34.7 15.1 10.8 43.8-50-13.2-79.6-90.8-47.2 15.3-141.4 33.3-51.6 21.4 107 75.2 56.8 53.9 24.8-5.3-8.1-16.6-9.7-24-15.9-34.8-29.1 12.3-80.9 27.8-44.7 10.6 25 29 16.2 37.1 1.8.2-.5 1.1.2.9.7-13.9 21.1-.4 50.3 12.4 69.2 47.9 70.6-9.7 123-46.7 81.7-2.8 10.2-2.7 21.7 4.8 29.9 33.7 76.1-63.6 28.9-81 41Z" style="fill:#2dff03"/></g><style>.st40{fill:none;stroke:#000;stroke-width:10;stroke-linecap:round;stroke-linejoin:round;stroke-miterlimit:10}.st98{opacity:.6;enable-background:new}</style><g id="Outline"><path class="st98" d="M793 537c-1 .7-1 2-.5 3 5 10 11 35 25 30 8-2 21-13 18-22.4-.5-1-2-2-3-1.5-26 12-28-11-39-9.4v.3zm-34 274.5c6 5 26 8 25-3-6-7-20.6-12-21.5-26C750 772 744 803 759 811.5zm-219.3 52s1 .5 1 .8c9 13.5-3 36-18 40-34 6-9-6-6-44 .3-5.3 22.3 2.7 23 3.2zM342 731c5 7-4 22-4 33 8 13 29.6-5 33-14.9 2-12-17-21-28-20.2-1 .1-1 1.1-1 2.1zm31-120.2c2 23-8 47-26 61.9-13 10.9-17.5-30.6-8-27.9 6 4.2 28-18.8 34-34zm-157-59.9c-8 6-17 3-25 1-11 5 4 20 13.5 16 5-4 12-9 12-15.7-.5-.2-1.5-.2-.5-1.3zM337 473c-6-10-3-23 0-34 0-1 0-2-.6-2-9-9-23 11-19.8 20.7C318 463 338 475 337 472.8v.2z"/><path class="st98" d="M326 392c-2 29 24 45 7 44-7 2-14 1-15 11-1 11-24 0-24.5-1.3C285 433 317 404.5 326 392zm103-118c-9.9-4-16-16-18-25-4-6-9.9 1-11 6-7 54 29.5 28 29 19zm293 9c16 21 29.5 12 40 20.7 3 4 1 9.6-1 14-3 9-13 9-20 4.1-14.5-5.8-22-22.2-19-38.8z"/><path class="st40" d="M347 729c53.5 5 15 86 59 102 25 9 37-19.8 55-11.9 23 10.1 19.6 40 24 60.7 9.6 46 63 29.6 58-12.8"/><path class="st40" d="M519 861c89-9 47.5 119 114.5 115 39-6 35-47 25-76.5-3-9 0-18.5 7-24.5 24.5-21 59 15.5 84-2.5 15-11 8-33-2-45-12-15 0-32 10-43"/><path class="st40" d="M790 539c53 69.8-64 71 8 194.5 6 14 11 32 11 48.5 0 32-49 47.5-61 16"/><path class="st40" d="M721 287c2 51 64 31 74 88 6 34-11.5 71 7 103 10 18 27 31.5 34 51 8 19-4 47-27 42"/><path class="st40" d="M407 290.6c-16-8-12-29.9-2-41 17-15 40.5-10 61-6 29.8 1 49-29 75-38 50-17 81 55 133 44 23-5 48-11 69 1 25 14 33 55 10 75"/><path class="st40" d="M428 278c-16 26.5-51 17.5-76 28.5-20 10.5-28 33-23 55 10 47-43 51-39 88m25 4.5c1.5-23 35-26 41-5 7 25-13 47 16 72"/><path class="st40" d="M334 476c-20-34-61-31.5-89-9.6-20 8-43-3-64 4-22 7-28 37-5 43.5 6.5 2 23-2 26-1 15 4 11 25-5 30-21 6-10 29 6 29"/><path class="st40" d="M216 554.5c-15 15-14 41 2 55 37 22 41 31 36 69.7-2 31 46 41 53.5 10 2-10.8-4-22 0-33 13-32 44 20 62-44.5"/><path class="st40" d="M327 647.9c25 29.7-.5 47-7 75-10 32.5 34 65 53 25"/><path d="M729 262.5c9 4 16 13 18 22.5m-193-68c12.5 2 24.5 8 34 16m9 9 3 3m-163 10c-5.5-.9-12 .6-15.5 4M362 319.6c-9 2-14 10.7-16 19M339 449c4 1 6 6 6 9.8M308.5 470c-12-6-16-5-22-4M175 492c1-4 5-7 9-7.5m38 89.5c-4 8 0 16 4 19.9m44 78.6c-1 6 1 15 9 18m76-77.5c-3 14-13 14.5-16 16m4.5 119.5c-5-3-9-9-8-15M397 782c-1 14.5 7 28 14 30m90 53.9c-3 12 2 27 14.5 25M636 957c14-3 17-28 11-38m96-60.1c1-7 0-14-4-19m46-49.1c8-6.5 9-25 3-39M786 582c5-8 3-19-3-26m37-12c2-8.5-.6-18-7-24m-56-169c18 6 22 30 21 35" style="opacity:.7882;fill:none;stroke:#fff;stroke-width:10;stroke-linecap:round;stroke-linejoin:round;stroke-miterlimit:10;enable-background:new"/></g><style>.st40,.st68{fill:none;stroke-width:10;stroke-linecap:round;stroke-linejoin:round;stroke-miterlimit:10;stroke:#000}.st68{opacity:.6;enable-background:new}</style><g id="Eye"><linearGradient id="SVGID_00000144327888440828662330000012949225208094602647_" gradientUnits="userSpaceOnUse" x1="232.314" y1="-555.531" x2="336.458" y2="-482.43" gradientTransform="translate(0 1066)"><stop offset="0" style="stop-color:#00ff04"/><stop offset=".811" style="stop-color:#00fccf"/><stop offset="1" style="stop-color:#00fbff"/></linearGradient><path style="fill:url(#SVGID_00000144327888440828662330000012949225208094602647_)" d="M278 494c-31 10.8-13 49-9.5 56 8 16-9 32.5 9 50.8 9 9 46 8 40.7-31-2-13-13-23-13.5-35.8-.7-21-3.7-48-26.7-40z"/><path d="M273 498c-6.5 9-1 22 4 30.8 6 8 13 15 14 25 2 14-6 31 3 43.7 15 18 30.6-23 23-35-3-7-8-13.5-10-20.8-5-16 2-45-21-49" style="opacity:.5098;fill:#fff;enable-background:new"/><path class="st68" d="M274 516c9 24.5 14 39 18 64"/><path class="st40" d="M278 494c-31 10.8-13 49-9.5 56 8 16-9 32.5 9 50.8 9 9 46 8 40.7-31-2-13-13-23-13.5-36C304 513 301 486 278 494z"/><path class="st40" d="M282 526c6 17 10.5 35 14 53"/><path d="M279 515c1 4 2 7 3.5 11m24.5 46.9c1 5 1.5 13-5 19" style="fill:none;stroke:#fff;stroke-width:10;stroke-linecap:round;stroke-linejoin:round;stroke-miterlimit:10"/><path class="st68" d="M264 495.9c-15.5 19-6 44 1 65 3 9-3 18-1 27 4 24 31 31 46 12"/></g><style>.st40,.st68{fill:none;stroke:#000;stroke-width:10;stroke-linecap:round;stroke-linejoin:round;stroke-miterlimit:10}.st68{opacity:.6;enable-background:new}</style><g id="Mouth_Cover"><path d="M598 706c-47-14.5-175 15-82.5 66.5 25 14 169.5 24 164-14.5-13-18-39-32-61-24.7 1.2-2.8-12.5-24.3-20.5-27.3z" style="fill:#fe1767"/><path d="M614 729c-39.7-16-93-13-131 7 14-38 77-35 110-31.5l21 24.5zm47 14c-13-3-27 2-35 12 0-8-7-15-7-23 13-2 28 1 42 11z" style="fill:#ae0f45"/><path d="M600 704c7 8 14 18 19.6 27 25-2 52 9 64 32 32-15 24-49-24-56.4l-59.6-2.8v.2z"/><path class="st40" d="M506.5 772c42 17 129 25 183-9 35-22 8-49-23-54-43-7-156-9.6-179 13.1-16 16-1.5 41 19 49.6v.3z"/><path class="st40" d="M593 704c15 12 26 29.5 30 48.5m-4-19.5c24-4.5 50.5 8.5 62 30.7"/><path class="st68" d="M441 681.5c0 31-13.5 60-23 93 94 41 212 45 307 3"/><path class="st68" d="M486 717c-18.5 9.5-11 36 2 47 44 38 170 39 208.5-7"/><linearGradient id="SVGID_00000010300643410979321390000010567667997916476851_" gradientUnits="userSpaceOnUse" x1="567.366" y1="429.07" x2="603.366" y2="242.07" gradientTransform="matrix(1 0 0 -1 0 1100)"><stop offset="0" style="stop-color:#08ffce"/><stop offset=".106" style="stop-color:#1aedd1"/><stop offset=".321" style="stop-color:#4abdd9"/><stop offset=".624" style="stop-color:#9770e6"/><stop offset="1" style="stop-color:#ff08f7"/></linearGradient><path style="opacity:.6588;fill:url(#SVGID_00000010300643410979321390000010567667997916476851_);enable-background:new" d="M727 773.8c-94 42-211 37-304-3 13-29.6 21-59.7 23-90 94 25 191 5 283-19 6 39.2 12 55.2-2 112z"/><path d="m510 692.9 36 53.2 23-12.5 54 65.9 39-5.6-88-87.7-16 15.5-14.5-26.6M595 692c28 32 55 64 81 97.3l31-9.1-87-94" style="opacity:.5216;fill:#fff;enable-background:new"/><path class="st40" d="M727 774c-94 42-211 37-304-3 13-29.6 21-59.7 23-90 94 25 191 5 283-19.3 6 39.3 12 55.3-2 112.1v.2z"/><path d="M714 683c3 16 4 32 2 48m1 15-.5 6" style="opacity:.6118;fill:none;stroke:#fff;stroke-width:10;stroke-linecap:round;stroke-linejoin:round;stroke-miterlimit:10;enable-background:new"/></g><linearGradient id="a19" gradientUnits="userSpaceOnUse" x1="569.719" y1="943.832" x2="764.719" y2="730.832" gradientTransform="scale(1 -1) rotate(-7.793 -9231.448 -329.654)"><stop offset="0" style="stop-color:#00fff2"/><stop offset=".09" style="stop-color:#00f4f3"/><stop offset=".25" style="stop-color:#00d6f4"/><stop offset=".46" style="stop-color:#00a5f7"/><stop offset=".713" style="stop-color:#0062fa"/><stop offset="1" style="stop-color:#000dff"/></linearGradient><path style="fill:url(#a19)" d="M637.5 543.3c47 179.5 155 8 146-52-6 13-26 22-29 2 .9-28 39.7-80 24-103.9-7 12-19.7 26-29.6 29.3-9 3-39-.8-30-23-5 7-15 23-23 25-14 3-20.6-17-24-28-23.5 47 8.5 48-1 72.4-18 17-32-9.9-29.6-27-11 18-23 44-8 62 9 10 24 13 32.5 23 6 7 9 17 3 23.5-12.8 10.4-24.8.4-31.3-3.6v.3z"/><linearGradient id="b8" gradientUnits="userSpaceOnUse" x1="360.012" y1="935.045" x2="525.135" y2="714.881" gradientTransform="scale(1 -1) rotate(-7.793 -9231.448 -329.654)"><stop offset="0" style="stop-color:#00fff2"/><stop offset=".09" style="stop-color:#00f8f2"/><stop offset=".225" style="stop-color:#00e3f3"/><stop offset=".388" style="stop-color:#00c2f5"/><stop offset=".573" style="stop-color:#0093f8"/><stop offset=".776" style="stop-color:#0057fb"/><stop offset=".992" style="stop-color:#0010ff"/><stop offset="1" style="stop-color:#000dff"/></linearGradient><path style="fill:url(#b8)" d="M412 396c29 16 5 54-13.5 31-12 45 33 35 37 77 3 26-24.5 34-31 6-12 20.5 2 38 18 52 11 9.7 8 27.5 11 41.6 10.5 47 78 52 97 8.5 5-12 6-26 13-37 13-16 35-31 33-53.9-11.5 18-41 9-26-12.2 8-11.5 22-17 33-27 15-13 22-34 19.8-54-7 16-32 15-22-5 10-19.8 10.6-31.5-4-48.8-2 49.8-72 22-42-8-15 6-23 19-29 33.5-5 12-21 21-34 19-21-6-24-42-60-23v.3z"/><path d="M764 425c-1 9.8-6 19-11 28m-3 10.5c-.5.9-1 2-1.5 3m7.5 83.2c-10.5 24-19.5 38-42.5 53M693 609h4.5m-59-135c-1 8 4 15 9 19M520 593.9c-2 14-14 29-27.5 32m-18.5.1c1.5 0 3 1 4 .8m75-81.8c-3 4-6 8-10 11m43-103c-2 7.5-7 14-13 19m-8 7.8c-1 .5-1 1-2 2m10-73.8c0 4-2 7-4 9.7M439.5 408c4 2 6 6 9 9.8m-37 31.2c2 5 6 8 10 10" style="fill:none;stroke:#fff;stroke-width:10;stroke-linecap:round;stroke-linejoin:round;stroke-miterlimit:10"/><path d="M410 397.5c8 8 11 21 7.5 32m-22-3.5c-21 46 49.8 50 32 99M401 509.6c-13 20 3 41 17 58 12 15 6 39 18 55 15 24 51 30 73 13M575 519c-6 6-14 8-22 8m47-99.5c-4 5-10 8-17 9m-9-63.5c-2 12-10 24-22 28m-21-36c-29 6-23 44-53 55m159 15c-49 84 26.5 67 29 108.5m-33-.5c10.5 49 49 119.9 100 63m49-115c-7 5-17 12-24 9m17-113c-9.5 14-23 25-39 32m-20-27c-10 8-15 27-31 24.5M668 389c-30 50 17 59-9 80" style="opacity:.6;fill:none;stroke:#000;stroke-width:10;stroke-linecap:round;stroke-linejoin:round;stroke-miterlimit:10;enable-background:new"/><path d="M429 478c17.5 17 35 34 52 51-.9-8-2-16-2.5-23 23 21 45 44 68 64 12.5-11 21-27 29-43-11 8-34 2-30-14.1L469 452.3v31l-47-52c-7 2.5-16 3-23 1-3 28 13 34 30 45.3v.4zm40-57c27 27 54 54.5 82 81 5-3 10.7-7 16-9.8-79-76-2-2-79-77m160 53.3c15 18 30 36 44 54v-19c19 27 39 53 61 77.8 2-5 5-10 9-14.9-9.8-11-46-57-73-91-2 13-2 11-2 16-5.5-9-11-17-17-26m2-18.9c33 32.5 66 66 97.5 99.2l7-9c-37-39-56-57-112-116" style="opacity:.6118;fill:#fff;enable-background:new"/><path d="M412 396c29 16 5 54-13.5 31-12 45 33 35 37 77 3 26-24.5 34-31 6.4-12 20.5 2 38 18 52 11 9.7 8 27.5 11 42 10 47 78 52 97 8.5 5-12 6-26 13-36.7 13-16 35-31 33-53.9-11.5 18-41 9-26-12 8-11 22-17 33-27 15-13 22-34 19.8-53.6-7 16-32 15-22-5 10-19.8 10.6-31.5-4-49-2 49.8-72 22-42-8-15 6-23 19-29 33.5-5 12-21 21-34 19C451 413 448.5 377 412 395.7v.3zm225.5 147c47 179.5 155 8 146-52-6 13-26 22-29 2 .9-28 39.7-80 24-103.9-7 12-19.7 26-29.6 29-9 3-39-.8-30-23-5 7-15 23-23 25-14 3-20.6-17-24-28.2-23.5 47 8.5 48-1 72-18 17-32-9.9-29.6-27-11 18-23 44-8 62 9 10 24 13 32.5 22.8 6 7 9 17 3 23.5C656 557 644 547 637.5 543z" style="stroke:#000;fill:none;stroke-width:10;stroke-linecap:round;stroke-linejoin:round;stroke-miterlimit:10"/><style>.st40,.st68{fill:none;stroke:#000;stroke-width:10;stroke-linecap:round;stroke-linejoin:round;stroke-miterlimit:10}.st68{opacity:.6;enable-background:new}.st102{fill:#fff}</style><g id="Trippy_Hat"><radialGradient id="SVGID_00000123414473825914092120000007829286393102463126_" cx="560.408" cy="901.895" r="355.63" gradientTransform="matrix(1 0 0 -1 0 1100)" gradientUnits="userSpaceOnUse"><stop offset="0" style="stop-color:#ff0062"/><stop offset="1" style="stop-color:#ff9d00"/></radialGradient><path style="fill:url(#SVGID_00000123414473825914092120000007829286393102463126_)" d="M367 287.1c-34 6-142 40-97.5 85.9 93 52 538.5 50 605.5-61 6-38-82-50-108-53-8-43-2-92-25-131-73-78-255-50.6-336 7.5C346 178 384 236 367 287v.1z"/><linearGradient id="SVGID_00000158731567478740519670000011292647734770965143_" gradientUnits="userSpaceOnUse" x1="665.288" y1="882.675" x2="765.301" y2="977.687" gradientTransform="matrix(1 0 0 -1 0 1100)"><stop offset="0" style="stop-color:#00ffc4"/><stop offset=".104" style="stop-color:#00f6c7"/><stop offset=".275" style="stop-color:#00dcce"/><stop offset=".494" style="stop-color:#00b3db"/><stop offset=".748" style="stop-color:#007bec"/><stop offset="1" style="stop-color:#003cff"/></linearGradient><path style="fill:url(#SVGID_00000158731567478740519670000011292647734770965143_)" d="M684 91c-19.5 2.5-29 23-13.5 40.6 44 50 5.8 18.5 11 73.5 1 10 9 22 20 19 49.8-45 19 22 59 18.5C766 110 716 105 684 91z"/><linearGradient id="SVGID_00000119838619519104526170000018100987693212792465_" gradientUnits="userSpaceOnUse" x1="442.246" y1="820.658" x2="250.246" y2="682.658" gradientTransform="matrix(1 0 0 -1 0 1100)"><stop offset="0" style="stop-color:#00ffc4"/><stop offset="1" style="stop-color:#003cff"/></linearGradient><path style="fill:url(#SVGID_00000119838619519104526170000018100987693212792465_)" d="M372.5 223.8c-2 22 2 44.5-7 65-93 0-203 114 52 114-49-62 53-61 9.9-96-30-18-24.5-32-14.5-60.5C419 223 389 218 372.5 223.8z"/><path class="st102" d="M648 185c-56-42-134-25-182 23 67 36 128 34 182-23.2v.2z"/><linearGradient id="SVGID_00000028312584919422827450000003060139484899234493_" gradientUnits="userSpaceOnUse" x1="555.957" y1="951.99" x2="560.957" y2="851" gradientTransform="matrix(1 0 0 -1 0 1100)"><stop offset="0" style="stop-color:#c800ff"/><stop offset=".107" style="stop-color:#c202ff"/><stop offset=".254" style="stop-color:#b009ff"/><stop offset=".424" style="stop-color:#9313ff"/><stop offset=".611" style="stop-color:#6b21ff"/><stop offset=".809" style="stop-color:#3834ff"/><stop offset="1" style="stop-color:#0048ff"/></linearGradient><path style="fill:url(#SVGID_00000028312584919422827450000003060139484899234493_)" d="M517 171.8c-9 19-10.5 60 18 60 21 0 44 0 62-10.8 15-12 8-36 2-50.9-7-17.1-66-6.1-82 1.7z"/><path d="M558 178c-20 10-26 73 11 49 11.5-12 10.5-49-11-49z"/><path class="st102" d="M560 180c-24 9.8-9 36 12 26.5 10-7.5 3-32.5-12-26.5z"/><path class="st40" d="M356 315c18-35 15-74 13-112-5-125 316-157 370-78 33 49 9 129 46 183"/><path class="st40" d="M364 287c-119 18-233 143 229 114 293-18 368-121 177-139M675 92c-45 42 35 48 12 85-16 26-2 58 20 45 6.5-4 10-13 18-13.4 19.6 2 5 45 37.5 34"/><path class="st40" d="M373.5 222.5c17-5 46 3 41 24-9 34-23 37 14 58.9 12 7 17 29.6-5 39.4-27 12-22 44-1.5 59.8M662 193c-59-55-160-33-206 25"/><path class="st40" d="M466.5 207c57 38 129 32 184-22.5"/><path class="st40" d="M515 174c-7 17-3 39.5 5 56m73-67c12 12 18.5 36 9 55m-58 12.5c-12-64 46-75 30-4.5"/><path class="st40" d="M546 193c-3 18 20 19.6 30 14"/><path d="M789 309c-3-14 7-33 17-43-12-1.5-30-9-40-1m-414 50c-2-9-8-16.5-16-20.7 8.5-6 20.7-5 30.7-5" style="opacity:.6;enable-background:new"/><path class="st68" d="M669 90c-9 5-18 16-15.5 26.5 10 46 43 13 22 84-4.5 15 12 35 28 28.9 11.5-4 24-29 29 3 2 13 16 21 28 16.5M462 214c66 42 135 28.5 191-23m-280.5 25c33-4.5 60 12 43 47.5-11 23 6 29.6 21 42.5 11 9.8 11 29-.5 38.7-6 5-48 20-7 59"/><path class="st68" d="M507 179c-5 15-4 31 2 45m94-58c8 13 11 29 9 44"/><path d="M712 123c11 9 19 22 23 35m4 15 1 5m113 139c-11 10-24 18-38.5 22.5m-14.6 5.5-5.9 2m-519 2c.5 16 21 21 38 24m15 4.5 9 2.1M586 174c3 6 5 12 6 19m1 11-1 3m-202 26c4 1 8 4 10 8m16 72c4 2.5 7.5 7 8 12m-18-19.5-2-1.5m292-115c-3 6-3 13-1 19m5-31 1-2m-22-50c-4.5-4-8-9.5-3-17m-242 28c-15 8-29 19-39 33m55.5-42 6.5-3" style="fill:none;stroke:#fff;stroke-width:10;stroke-linecap:round;stroke-linejoin:round;stroke-miterlimit:10"/><path class="st68" d="M318 398c162 25 323 20 473-25"/></g><circle cx="550" cy="550" r="500" style="fill:none;stroke:#000;stroke-width:10;stroke-linecap:round;stroke-linejoin:round;stroke-miterlimit:10"/></svg>