<svg version="1.1" id="Layer_1" xmlns="http://www.w3.org/2000/svg" x="0" y="0" viewBox="0 0 1100 1100" style="enable-background:new 0 0 1100 1100" xml:space="preserve" xmlns:xlink="http://www.w3.org/1999/xlink"><path d="M50 550C50 274 274 50 550 50s500 224 500 500S50 826 50 550z" style="fill:#0090ff"/><path d="M1050 550c0 276-224 500-500 500S50 826 50 550s1000-276 1000 0z" style="fill:#06f"/><path d="M533 209.1c-68 59.6-71 20-121 36.5-19.6 10.9-14 30-9.7 39.6 11 23-51 9-69 40.3-10 18 .1 42-7.5 61.8-9 19.6-34 35-37 52.2-43 48-154 7-119 70.4 6 11 33-6 39 9.1 7 17.5-39 29-21 46.7 18 5 21 39.9 57 63.2 14 20 3 51 19 69.1 35.8 38 46-25 41-34.3 4-39 44-11 22 38.7-23 52 11 74 36.5 56.6 24-9 13 39 23 50.9 19.5 37 55 12 67 12 18 1 28 22 29.8 40.3 6.5 63 54 46 59 8 15.5-34 45 49 47 59.9 11 73 69 42 71 17.9 3-54-3-60.1 2-68.3 18.5-31 71 13 90.8-15.5 14-19.7-31-63.5 8-55.4 94 19 19-101 14-120.4-9-35.5 14-106 47-121.7 18-9 17-35.5 7-52.8-9.5-17-25-30.6-31-48.9-13.5-54 22-102-36-133.3-5-3-7-9.5-4-14.4 17-26 1-66-32-71.4-22-3-44 9-66.5 6.3C616 247 579.9 178 533 209.1z" style="fill:#d500ff"/><style>.st40{fill:none;stroke:#000;stroke-width:10;stroke-linecap:round;stroke-linejoin:round;stroke-miterlimit:10}.st98{opacity:.6;enable-background:new}</style><g id="Outline"><path class="st98" d="M793 537c-1 .7-1 2-.5 3 5 10 11 35 25 30 8-2 21-13 18-22.4-.5-1-2-2-3-1.5-26 12-28-11-39-9.4v.3zm-34 274.5c6 5 26 8 25-3-6-7-20.6-12-21.5-26C750 772 744 803 759 811.5zm-219.3 52s1 .5 1 .8c9 13.5-3 36-18 40-34 6-9-6-6-44 .3-5.3 22.3 2.7 23 3.2zM342 731c5 7-4 22-4 33 8 13 29.6-5 33-14.9 2-12-17-21-28-20.2-1 .1-1 1.1-1 2.1zm31-120.2c2 23-8 47-26 61.9-13 10.9-17.5-30.6-8-27.9 6 4.2 28-18.8 34-34zm-157-59.9c-8 6-17 3-25 1-11 5 4 20 13.5 16 5-4 12-9 12-15.7-.5-.2-1.5-.2-.5-1.3zM337 473c-6-10-3-23 0-34 0-1 0-2-.6-2-9-9-23 11-19.8 20.7C318 463 338 475 337 472.8v.2z"/><path class="st98" d="M326 392c-2 29 24 45 7 44-7 2-14 1-15 11-1 11-24 0-24.5-1.3C285 433 317 404.5 326 392zm103-118c-9.9-4-16-16-18-25-4-6-9.9 1-11 6-7 54 29.5 28 29 19zm293 9c16 21 29.5 12 40 20.7 3 4 1 9.6-1 14-3 9-13 9-20 4.1-14.5-5.8-22-22.2-19-38.8z"/><path class="st40" d="M347 729c53.5 5 15 86 59 102 25 9 37-19.8 55-11.9 23 10.1 19.6 40 24 60.7 9.6 46 63 29.6 58-12.8"/><path class="st40" d="M519 861c89-9 47.5 119 114.5 115 39-6 35-47 25-76.5-3-9 0-18.5 7-24.5 24.5-21 59 15.5 84-2.5 15-11 8-33-2-45-12-15 0-32 10-43"/><path class="st40" d="M790 539c53 69.8-64 71 8 194.5 6 14 11 32 11 48.5 0 32-49 47.5-61 16"/><path class="st40" d="M721 287c2 51 64 31 74 88 6 34-11.5 71 7 103 10 18 27 31.5 34 51 8 19-4 47-27 42"/><path class="st40" d="M407 290.6c-16-8-12-29.9-2-41 17-15 40.5-10 61-6 29.8 1 49-29 75-38 50-17 81 55 133 44 23-5 48-11 69 1 25 14 33 55 10 75"/><path class="st40" d="M428 278c-16 26.5-51 17.5-76 28.5-20 10.5-28 33-23 55 10 47-43 51-39 88m25 4.5c1.5-23 35-26 41-5 7 25-13 47 16 72"/><path class="st40" d="M334 476c-20-34-61-31.5-89-9.6-20 8-43-3-64 4-22 7-28 37-5 43.5 6.5 2 23-2 26-1 15 4 11 25-5 30-21 6-10 29 6 29"/><path class="st40" d="M216 554.5c-15 15-14 41 2 55 37 22 41 31 36 69.7-2 31 46 41 53.5 10 2-10.8-4-22 0-33 13-32 44 20 62-44.5"/><path class="st40" d="M327 647.9c25 29.7-.5 47-7 75-10 32.5 34 65 53 25"/><path d="M729 262.5c9 4 16 13 18 22.5m-193-68c12.5 2 24.5 8 34 16m9 9 3 3m-163 10c-5.5-.9-12 .6-15.5 4M362 319.6c-9 2-14 10.7-16 19M339 449c4 1 6 6 6 9.8M308.5 470c-12-6-16-5-22-4M175 492c1-4 5-7 9-7.5m38 89.5c-4 8 0 16 4 19.9m44 78.6c-1 6 1 15 9 18m76-77.5c-3 14-13 14.5-16 16m4.5 119.5c-5-3-9-9-8-15M397 782c-1 14.5 7 28 14 30m90 53.9c-3 12 2 27 14.5 25M636 957c14-3 17-28 11-38m96-60.1c1-7 0-14-4-19m46-49.1c8-6.5 9-25 3-39M786 582c5-8 3-19-3-26m37-12c2-8.5-.6-18-7-24m-56-169c18 6 22 30 21 35" style="opacity:.7882;fill:none;stroke:#fff;stroke-width:10;stroke-linecap:round;stroke-linejoin:round;stroke-miterlimit:10;enable-background:new"/></g><style>.st114,.st40{fill:none;stroke:#000;stroke-width:10;stroke-linecap:round;stroke-linejoin:round;stroke-miterlimit:10}.st114{opacity:.6}</style><g id="Gold_Grin"><linearGradient id="SVGID_00000081606631022545257470000014627497906921380512_" gradientUnits="userSpaceOnUse" x1="585.954" y1="672.231" x2="590.726" y2="803.954" gradientTransform="matrix(.9983 .05903 -.05903 .9983 45.793 -31.52)"><stop offset="0" style="stop-color:#ff7300"/><stop offset="1" style="stop-color:#fff700"/></linearGradient><path style="fill:url(#SVGID_00000081606631022545257470000014627497906921380512_)" d="M445 721.7c74 72 209 68.5 294 17.6 11-22 14-48 10-71.6-93 58-225 64-318 1.4 4 16.9 0 38.9 14 52.6z"/><linearGradient id="SVGID_00000100364754194457657420000004888850632049891250_" gradientUnits="userSpaceOnUse" x1="593.726" y1="750.857" x2="598.675" y2="857.774" gradientTransform="matrix(.9983 .05903 -.05903 .9983 45.793 -31.52)"><stop offset="0" style="stop-color:#ff7300"/><stop offset="1" style="stop-color:#fff700"/></linearGradient><path style="fill:url(#SVGID_00000100364754194457657420000004888850632049891250_)" d="M449.8 731c48 130 244 141 289 12.4C642 785 543 789.8 449.8 731z"/><path class="st40" d="M751 664.8c-87 59.8-236 69.9-322-1.1 27 236.3 338 220.8 322 1.1z"/><path class="st40" d="M444 722c84 74 209.8 64.5 295 19"/><path class="st114" d="M424 664.3C421 793 594 909 705 797"/><path class="st114" d="M433 673.1c85 69 224 55 314 4m-294 58.5c75 63.5 197 55 282 15"/><path d="M736 694.4c-1 9-3 18-5.8 26m-23.2 55c-12 16-29 28-49 35m-10.5 3.9c-3 .6-5 1-8 2" style="opacity:.7804;stroke:#fff;fill:none;stroke-width:10;stroke-linecap:round;stroke-linejoin:round;stroke-miterlimit:10"/></g><style>.st40,.st68{fill:none;stroke-width:10;stroke-linecap:round;stroke-linejoin:round;stroke-miterlimit:10;stroke:#000}.st68{opacity:.6;enable-background:new}</style><g id="gooie_eyes"><linearGradient id="SVGID_00000114052739278173780720000006496866318907593611_" gradientUnits="userSpaceOnUse" x1="418" y1="886.17" x2="585.983" y2="886.17" gradientTransform="matrix(1 0 0 -1 0 1410)"><stop offset="0" style="stop-color:#fc0037"/><stop offset=".047" style="stop-color:#fc0d33"/><stop offset=".303" style="stop-color:#fc4e21"/><stop offset=".535" style="stop-color:#fc8213"/><stop offset=".736" style="stop-color:#fca709"/><stop offset=".898" style="stop-color:#fcbe02"/><stop offset="1" style="stop-color:#fcc600"/></linearGradient><path style="fill:url(#SVGID_00000114052739278173780720000006496866318907593611_);stroke:#000;stroke-width:10;stroke-linecap:round;stroke-linejoin:round;stroke-miterlimit:10" d="M576 524c10-11 15-31 5-42.9-20-24-28-3-39-51.5-9-37-49-36-70-17-12 11-14 30-24 44-6 8-13.5 14.5-19.8 22-14 14-12 40 10 42 3-5 5-11 5-18 1 23-24 43-9.6 67.9 5.8 10.1 17 19 17 30.8-1 18-7.5 47 15 46.9 13 0 14-19 20.9-24 23-16 24 31 53 10.4 7-6 12-16 11-26-5-43.5 49.5-41 25-84-4-8-10-12-12-21.9.5 8 6.5 19 12.5 21.1v.2z"/><linearGradient id="SVGID_00000089552583616707315270000002940239741937286795_" gradientUnits="userSpaceOnUse" x1="598.034" y1="893.204" x2="755.973" y2="893.204" gradientTransform="matrix(1 0 0 -1 0 1410)"><stop offset="0" style="stop-color:#fc0037"/><stop offset=".111" style="stop-color:#fc1f2e"/><stop offset=".342" style="stop-color:#fc5a1e"/><stop offset=".554" style="stop-color:#fc8911"/><stop offset=".742" style="stop-color:#fcaa08"/><stop offset=".897" style="stop-color:#fcbf02"/><stop offset="1" style="stop-color:#fcc600"/></linearGradient><path style="fill:url(#SVGID_00000089552583616707315270000002940239741937286795_);stroke:#000;stroke-width:10;stroke-linecap:round;stroke-linejoin:round;stroke-miterlimit:10" d="M744 536c13.5-10 19-32 2-46-55.5-46-10.9-60-45-84.5-28-20-69 4-72 34.4-7 65-21 39.9-29 66-6 19 4.5 39.7 26 26 0-5-.6-10-2-15 9.6 25-13 49-10 73.9 1 8 6.5 16 15 15 7-1 11-9 18-10 23 0 18 38 43 39.6 23 2 10-29 34-34.2 28-1 40.7-28 28-52-8.5-12-21-22-20-38-1 8.3 3.5 19.8 12 24.8z"/><path d="M492 481.5c13.5 43.5 8 49-2 90.8-2 51 58 4 50.7-37-2-10 0-37-6.5-43.4C514 499 508 482 492 481.5zm175 .5c22 26 4 59 2 88 2 19 25 14 31.5.6 15-21 11-62 7-87.2L667 482z"/><path d="M663 439.5c-19 22 23 62 41 38 0-17-9.8-42-29-42.1l-12 4.1zm-169 10.1c-18 19 22 57 39.5 37.9 5-14-10.8-48-28-44.8l-11.5 6.9z" style="fill:#fff"/><path class="st40" d="M499 444.5c-34 26 14 55-2.5 101.9-24 67 23.5 65 43 10C547 536 534 418 499 444.5z"/><path class="st40" d="M487 461c5 21 27 37 47 31m124-27c7 15.5 31 24.5 47 17"/><path class="st40" d="M675 435c-31 0-17 39-6 56 11 18 11 39.9 2 59-11.5 24 13 49 30 20 17-29.9 13.5-135-26-135.4v.4z"/><path class="st68" d="M475 406.9c-20 11-25 33.5-36 52-8 13.5-25 22-27 38.5-7 29.5 27 14.5 14 49.1-6 24 5 29.7 16.5 47 7 15-4 32 2 46.9 3 7 12 13 19 9M486 628c14-5 21.5 15 35 12m132-238c-15 8-27 23-30 39.5-4 19-5 31-18 45.5-14 15-16 53 11.5 52.5 4 17-20 56 5 65m19.5-4.7c21 1.5 21 35.5 43 35m30.5-26.8c14 0 27-8 34.5-19m-185-86c3.5 5 9 8 15 9.8"/><path class="st68" d="M439.9 501.9c-2 4-5 8-9 10.7m71.1-74.1c-44 21-2 59.8-8 94-2 19-15 39-8 58.5 6 17 26 13 33-1m150-159.1c-48 14 12 70 1 101-3 16-14 33-3.5 48 7 11 26 11 29-3M622 515.5c-2 6-4 12-9 16M734 510c2 7 6.5 13 12 16"/><path d="M512 414.5c6 2 10 7 13 12m5 12.5c0 1 1 2 1 3m30 38.8c5 2 9 6 11 11m-8 43.2c5 7 5 15.5-1 20.7m-8 8.5-1 1M537 609c2 8-3.5 17-12 19.8m-79-89.9c-5 9-5 19.7 0 28m22 63.7c-1 3-3 5-6 6m219-225.8c8 1 16 5 18 12.5m4 11.7s1 3 1 2m30 58c4 2 6.5 6 9 9.5m-7 42.5c7.5 8 10 20 6 30.6m-9 7.4c-1 .6-2 1-3 1.5M697.5 611c-1 5-4 8-8 11M626 574c-1 6-1 11.5 1 17m-16-78c0-6 3.5-12 9-14" style="fill:none;stroke:#fff;stroke-width:10;stroke-linecap:round;stroke-linejoin:round;stroke-miterlimit:10"/></g><style>.st68{fill:none;stroke-width:10;stroke-linecap:round;stroke-linejoin:round;stroke-miterlimit:10;opacity:.6;stroke:#000;enable-background:new}</style><g id="Target"><path class="st68" d="M519 277c32 24 63 50 92 77.3L519 277z"/><path class="st68" d="M535 358c28-34 48-57 74.5-89"/><path d="m526.5 277 86.5 71m-82 7c29.8-32 50.6-60 78-90" style="stroke:#f01;fill:none;stroke-width:10;stroke-linecap:round;stroke-linejoin:round;stroke-miterlimit:10"/></g><circle cx="550" cy="550" r="500" style="fill:none;stroke:#000;stroke-width:10;stroke-linecap:round;stroke-linejoin:round;stroke-miterlimit:10"/></svg>