<svg version="1.1" id="Layer_1" xmlns="http://www.w3.org/2000/svg" x="0" y="0" viewBox="0 0 1100 1100" style="enable-background:new 0 0 1100 1100" xml:space="preserve" xmlns:xlink="http://www.w3.org/1999/xlink"><style type="text/css">.st300{fill:#00DE72;stroke:#000000;stroke-width:10;stroke-linecap:round;stroke-linejoin:round;stroke-miterlimit:10;}</style><circle class="st300" cx="550" cy="553.7" r="500"/><defs><linearGradient id="a" x1="467.78" y1="347.4" x2="508.96" y2="422.3" gradientUnits="userSpaceOnUse"><stop offset="0" stop-color="#ff00f2"/><stop offset=".5" stop-color="#ac05ff"/><stop offset="1" stop-color="#0bf"/></linearGradient><linearGradient id="b" x1="625.23" y1="280.48" x2="689.78" y2="436.19" gradientUnits="userSpaceOnUse"><stop offset="0" stop-color="#00f"/><stop offset=".06" stop-color="#2c00ea"/><stop offset=".15" stop-color="#6b00cb"/><stop offset=".24" stop-color="#a000b2"/><stop offset=".32" stop-color="#c9009e"/><stop offset=".39" stop-color="#e70090"/><stop offset=".45" stop-color="#f90087"/><stop offset=".5" stop-color="#ff0084"/><stop offset=".58" stop-color="#ff2272"/><stop offset=".76" stop-color="#ff7a44"/><stop offset="1" stop-color="#fffb00"/></linearGradient><linearGradient id="c" x1="542.81" y1="533.18" x2="664.99" y2="716.92" gradientUnits="userSpaceOnUse"><stop offset="0" stop-color="#af0"/><stop offset=".25" stop-color="#fac400"/><stop offset=".29" stop-color="#fabf00"/><stop offset=".33" stop-color="#fab100"/><stop offset=".38" stop-color="#f99900"/><stop offset=".43" stop-color="#f87700"/><stop offset=".48" stop-color="#f74d00"/><stop offset=".5" stop-color="#f73e00"/><stop offset=".75" stop-color="#f5006e"/><stop offset="1" stop-color="#c0f"/></linearGradient><linearGradient id="d" x1="730.89" y1="463.6" x2="755.38" y2="535.72" gradientUnits="userSpaceOnUse"><stop offset="0" stop-color="#ff00a1"/><stop offset="1" stop-color="#0059ff"/></linearGradient><linearGradient id="e" x1="659.6" y1="799.3" x2="718.16" y2="799.3" gradientUnits="userSpaceOnUse"><stop offset="0" stop-color="#00f"/><stop offset="1" stop-color="#0fd"/></linearGradient><linearGradient id="f" x1="433.06" y1="520.57" x2="478.6" y2="623.4" gradientUnits="userSpaceOnUse"><stop offset="0" stop-color="#ff0900"/><stop offset=".1" stop-color="#ff0d00"/><stop offset=".2" stop-color="#fe1b00"/><stop offset=".31" stop-color="#fe3100"/><stop offset=".43" stop-color="#fd4f00"/><stop offset=".54" stop-color="#fb7600"/><stop offset=".58" stop-color="#fb8400"/><stop offset="1" stop-color="#f7ff00"/></linearGradient><linearGradient id="g" x1="514.44" y1="451.87" x2="573.27" y2="482.5" gradientUnits="userSpaceOnUse"><stop offset="0" stop-color="#ffb300"/><stop offset=".5" stop-color="#f2d45a"/><stop offset="1" stop-color="#e600ff"/></linearGradient><linearGradient id="h" x1="555.34" y1="254.67" x2="521.18" y2="370.89" gradientUnits="userSpaceOnUse"><stop offset="0" stop-color="#fffb00"/><stop offset=".05" stop-color="#f0fa0f"/><stop offset=".15" stop-color="#c9f736"/><stop offset=".3" stop-color="#89f176"/><stop offset=".47" stop-color="#32eacd"/><stop offset=".56" stop-color="#00e6ff"/><stop offset="1" stop-color="#6200ff"/></linearGradient><linearGradient id="i" x1="431.91" y1="482.9" x2="368.78" y2="334.62" gradientUnits="userSpaceOnUse"><stop offset="0" stop-color="#e1ff00"/><stop offset=".5" stop-color="#fa5700"/><stop offset="1" stop-color="#ff00f7"/></linearGradient><linearGradient id="j" x1="423.73" y1="687.79" x2="506.29" y2="788.25" gradientUnits="userSpaceOnUse"><stop offset="0" stop-color="#5900ff"/><stop offset=".5" stop-color="#db00c5"/><stop offset="1" stop-color="#ff4000"/></linearGradient><linearGradient id="k" x1="264.66" y1="609.94" x2="305.75" y2="609.94" gradientUnits="userSpaceOnUse"><stop offset="0" stop-color="#00f"/><stop offset="1" stop-color="#f0f"/></linearGradient><linearGradient id="l" x1="237.16" y1="499.87" x2="342.8" y2="552.28" gradientUnits="userSpaceOnUse"><stop offset="0" stop-color="#00ff04"/><stop offset=".06" stop-color="#01fe19"/><stop offset=".18" stop-color="#05fd50"/><stop offset=".34" stop-color="#0afaa8"/><stop offset=".5" stop-color="#0ff7ff"/><stop offset="1" stop-color="#5100ff"/></linearGradient><linearGradient id="m" x1="723.12" y1="717.37" x2="745.84" y2="681.95" gradientUnits="userSpaceOnUse"><stop offset="0" stop-color="#ff0037"/><stop offset=".39" stop-color="#ff1ce8"/><stop offset="1" stop-color="#ffc800"/></linearGradient><linearGradient id="n" x1="593.77" y1="831.53" x2="619.74" y2="874.05" gradientUnits="userSpaceOnUse"><stop offset="0" stop-color="#ea00ff"/><stop offset="1" stop-color="#ff0015"/></linearGradient></defs><g data-name="Layer 46"><path d="M531.7 209c-67.9 59.6-70.9 20.3-120.8 36.5-19.6 10.9-14.3 30.3-9.7 39.6 11.2 22.8-50.8 8.7-68.6 40.3-10.3 18.3.1 42.2-7.5 61.8s-33.8 34.7-36.8 52.2c-43.4 48.2-154 6.6-119.1 70.4 6.2 11.4 32.9-6.3 39.1 9.1 7 17.5-38.8 29.4-21.3 46.7 17.7 4.9 20.7 39.9 56.9 63.2 13.8 20 2.7 51.4 19.4 69.1 35.8 37.8 46.3-24.8 41.3-34.3 4.3-38.8 43.9-10.6 22.2 38.7-22.8 51.7 11.2 74 36.5 56.6 38.5-10.5-14.1 99.9 89.9 62.9 18.1.7 28 22.3 29.8 40.3 6.5 63 53.6 46.3 59.1 8 15.5-34.3 45.1 48.6 46.9 59.9 11.3 72.6 69.3 42 70.8 17.9 3.3-54.1-3.2-60.1 1.7-68.3 18.5-31.1 71 13.3 90.8-15.5 13.6-19.7-31.2-63.5 7.9-55.4 94 19.4 18.7-100.7 13.8-120.4-8.8-35.5 13.9-105.6 46.9-121.7 18.1-8.8 17.1-35.5 7.4-52.8s-24.9-30.6-31.4-48.9c-13.5-54.4 22.4-102.1-36-133.3a10.2 10.2 0 0 1-3.9-14.4c17.1-26.3 1.3-66.4-31.8-71.4-22.1-3.3-44.3 8.9-66.5 6.3-43.8-5.2-80.2-74.1-127-43.1Z" style="fill:#1c89ad"/><path d="M461.1 384.3c0-40.3 54-40.3 54 0s-54 40.4-54 0Z" style="fill:url(#a)"/><path d="M607.6 363.4c0-86.2 104-86.2 104 0s-104 86.2-104 0Z" style="fill:url(#b)"/><path d="M514.2 630.8c0-125.6 187-125.6 187 0s-187 125.5-187 0Z" style="fill:url(#c)"/><path d="M718.2 497.1c0-31.7 48.2-31.7 48.2 0s-48.2 31.7-48.2 0Z" style="fill:url(#d)"/><path d="M659.6 799.3c0-38.5 58.6-38.5 58.6 0s-58.6 38.5-58.6 0Z" style="fill:url(#e)"/><path d="M419.1 578.9c0-57.4 79.6-57.4 79.6 0s-79.6 57.4-79.6 0Z" style="fill:url(#f)"/><path d="M529.3 469.3c0-24.4 37-24.3 37 0s-37 24.3-37 0Z" style="fill:url(#g)"/><path d="M496.2 313c0-64.6 84-64.6 84 0s-84 64.6-84 0Z" style="fill:url(#h)"/><path d="M357.2 411.3c0-58.1 88.4-58.1 88.4 0s-88.4 58.1-88.4 0Z" style="fill:url(#i)"/><path d="M419.1 740.5c0-68.3 96-68.3 96 0s-96 68.4-96 0Z" style="fill:url(#j)"/><path d="M264.7 609.9c0-27 41.1-27 41.1 0s-41.1 27.1-41.1 0Z" style="fill:url(#k)"/><path d="M247.4 527.3c0-51.7 90-51.7 90 0s-90 51.6-90 0Z" style="fill:url(#l)"/><path d="M722.3 700.3c0-15.4 23.5-15.4 23.5 0s-23.5 15.4-23.5 0Z" style="fill:url(#m)"/><path d="M589.5 852.8c0-22.6 34.5-22.6 34.5 0s-34.5 22.5-34.5 0Z" style="fill:url(#n)"/></g><style>.st40{fill:none;stroke:#000;stroke-width:10;stroke-linecap:round;stroke-linejoin:round;stroke-miterlimit:10}.st98{opacity:.6;enable-background:new}</style><g id="Outline"><path class="st98" d="M793 537c-1 .7-1 2-.5 3 5 10 11 35 25 30 8-2 21-13 18-22.4-.5-1-2-2-3-1.5-26 12-28-11-39-9.4v.3zm-34 274.5c6 5 26 8 25-3-6-7-20.6-12-21.5-26C750 772 744 803 759 811.5zm-219.3 52s1 .5 1 .8c9 13.5-3 36-18 40-34 6-9-6-6-44 .3-5.3 22.3 2.7 23 3.2zM342 731c5 7-4 22-4 33 8 13 29.6-5 33-14.9 2-12-17-21-28-20.2-1 .1-1 1.1-1 2.1zm31-120.2c2 23-8 47-26 61.9-13 10.9-17.5-30.6-8-27.9 6 4.2 28-18.8 34-34zm-157-59.9c-8 6-17 3-25 1-11 5 4 20 13.5 16 5-4 12-9 12-15.7-.5-.2-1.5-.2-.5-1.3zM337 473c-6-10-3-23 0-34 0-1 0-2-.6-2-9-9-23 11-19.8 20.7C318 463 338 475 337 472.8v.2z"/><path class="st98" d="M326 392c-2 29 24 45 7 44-7 2-14 1-15 11-1 11-24 0-24.5-1.3C285 433 317 404.5 326 392zm103-118c-9.9-4-16-16-18-25-4-6-9.9 1-11 6-7 54 29.5 28 29 19zm293 9c16 21 29.5 12 40 20.7 3 4 1 9.6-1 14-3 9-13 9-20 4.1-14.5-5.8-22-22.2-19-38.8z"/><path class="st40" d="M347 729c53.5 5 15 86 59 102 25 9 37-19.8 55-11.9 23 10.1 19.6 40 24 60.7 9.6 46 63 29.6 58-12.8"/><path class="st40" d="M519 861c89-9 47.5 119 114.5 115 39-6 35-47 25-76.5-3-9 0-18.5 7-24.5 24.5-21 59 15.5 84-2.5 15-11 8-33-2-45-12-15 0-32 10-43"/><path class="st40" d="M790 539c53 69.8-64 71 8 194.5 6 14 11 32 11 48.5 0 32-49 47.5-61 16"/><path class="st40" d="M721 287c2 51 64 31 74 88 6 34-11.5 71 7 103 10 18 27 31.5 34 51 8 19-4 47-27 42"/><path class="st40" d="M407 290.6c-16-8-12-29.9-2-41 17-15 40.5-10 61-6 29.8 1 49-29 75-38 50-17 81 55 133 44 23-5 48-11 69 1 25 14 33 55 10 75"/><path class="st40" d="M428 278c-16 26.5-51 17.5-76 28.5-20 10.5-28 33-23 55 10 47-43 51-39 88m25 4.5c1.5-23 35-26 41-5 7 25-13 47 16 72"/><path class="st40" d="M334 476c-20-34-61-31.5-89-9.6-20 8-43-3-64 4-22 7-28 37-5 43.5 6.5 2 23-2 26-1 15 4 11 25-5 30-21 6-10 29 6 29"/><path class="st40" d="M216 554.5c-15 15-14 41 2 55 37 22 41 31 36 69.7-2 31 46 41 53.5 10 2-10.8-4-22 0-33 13-32 44 20 62-44.5"/><path class="st40" d="M327 647.9c25 29.7-.5 47-7 75-10 32.5 34 65 53 25"/><path d="M729 262.5c9 4 16 13 18 22.5m-193-68c12.5 2 24.5 8 34 16m9 9 3 3m-163 10c-5.5-.9-12 .6-15.5 4M362 319.6c-9 2-14 10.7-16 19M339 449c4 1 6 6 6 9.8M308.5 470c-12-6-16-5-22-4M175 492c1-4 5-7 9-7.5m38 89.5c-4 8 0 16 4 19.9m44 78.6c-1 6 1 15 9 18m76-77.5c-3 14-13 14.5-16 16m4.5 119.5c-5-3-9-9-8-15M397 782c-1 14.5 7 28 14 30m90 53.9c-3 12 2 27 14.5 25M636 957c14-3 17-28 11-38m96-60.1c1-7 0-14-4-19m46-49.1c8-6.5 9-25 3-39M786 582c5-8 3-19-3-26m37-12c2-8.5-.6-18-7-24m-56-169c18 6 22 30 21 35" style="opacity:.7882;fill:none;stroke:#fff;stroke-width:10;stroke-linecap:round;stroke-linejoin:round;stroke-miterlimit:10;enable-background:new"/></g><style>.st114,.st40{fill:none;stroke:#000;stroke-width:10;stroke-linecap:round;stroke-linejoin:round;stroke-miterlimit:10}.st114{opacity:.6}</style><g id="Gold_Grin"><linearGradient id="SVGID_00000081606631022545257470000014627497906921380512_" gradientUnits="userSpaceOnUse" x1="585.954" y1="672.231" x2="590.726" y2="803.954" gradientTransform="matrix(.9983 .05903 -.05903 .9983 45.793 -31.52)"><stop offset="0" style="stop-color:#ff7300"/><stop offset="1" style="stop-color:#fff700"/></linearGradient><path style="fill:url(#SVGID_00000081606631022545257470000014627497906921380512_)" d="M445 721.7c74 72 209 68.5 294 17.6 11-22 14-48 10-71.6-93 58-225 64-318 1.4 4 16.9 0 38.9 14 52.6z"/><linearGradient id="SVGID_00000100364754194457657420000004888850632049891250_" gradientUnits="userSpaceOnUse" x1="593.726" y1="750.857" x2="598.675" y2="857.774" gradientTransform="matrix(.9983 .05903 -.05903 .9983 45.793 -31.52)"><stop offset="0" style="stop-color:#ff7300"/><stop offset="1" style="stop-color:#fff700"/></linearGradient><path style="fill:url(#SVGID_00000100364754194457657420000004888850632049891250_)" d="M449.8 731c48 130 244 141 289 12.4C642 785 543 789.8 449.8 731z"/><path class="st40" d="M751 664.8c-87 59.8-236 69.9-322-1.1 27 236.3 338 220.8 322 1.1z"/><path class="st40" d="M444 722c84 74 209.8 64.5 295 19"/><path class="st114" d="M424 664.3C421 793 594 909 705 797"/><path class="st114" d="M433 673.1c85 69 224 55 314 4m-294 58.5c75 63.5 197 55 282 15"/><path d="M736 694.4c-1 9-3 18-5.8 26m-23.2 55c-12 16-29 28-49 35m-10.5 3.9c-3 .6-5 1-8 2" style="opacity:.7804;stroke:#fff;fill:none;stroke-width:10;stroke-linecap:round;stroke-linejoin:round;stroke-miterlimit:10"/></g><style>.st231{fill:none;stroke:#000;stroke-width:10;stroke-linecap:round;stroke-linejoin:round;stroke-miterlimit:10}.st232{fill:#fff}.st242,.st265{fill:none;stroke:#fff;stroke-width:10;stroke-linecap:round;stroke-linejoin:round;stroke-miterlimit:10}.st265{opacity:.6;stroke:#000;enable-background:new}</style><g id="Layer_68"><linearGradient id="SVGID_00000145021301925791643900000018291356107725059245_" gradientUnits="userSpaceOnUse" x1="419.5" y1="481.7" x2="577.6" y2="481.7" gradientTransform="matrix(1.0379 .0431 .0438 -1.0549 -37.955 1061.323)"><stop offset="0" style="stop-color:#ff6c03"/><stop offset="1" style="stop-color:#f2ff03"/></linearGradient><path style="fill:url(#SVGID_00000145021301925791643900000018291356107725059245_)" d="M569.8 543.5c34-17 1-38-10-35-.8 0-3 22-3 22.4l-108 3.6c-1-5 1-27-4-25.9-30.7 4-32.5 32-6 46.7C444 679 589.6 673 569.8 543.5z"/><path class="st232" d="M555.5 526c4-163-122-115-106 .9 6.5 20.1 88.5 3.6 106-.9z"/><path class="st231" d="M447 509.1c-41 3-34 42.5 2 46M558 507c29 0 39 32.5 5 35.9"/><path class="st231" d="M435 553c14.5 121 144 130.5 136-8.8m-131-11.6c41 6 83.5 4 124-5.7"/><path class="st231" d="M449 532c-9.7-139.9 111-157 108-4.7"/><path class="st231" d="M504 465.5c9.5 20.8 13.5 45 11 68m-51.5-89c-5-6-10.5-12-15-18M497 419c-.6-7-1-13-1-19.8m36 30.7 10.5-20.3"/><path class="st265" d="M428 549.9c2 44 33 94 75 96.5M438.5 529c2-1 4.5-2.5 7-3.1m119.5-1.6c-2-2-4.5-3-7-4.7m-106 6.5c34 4 68 2 101-4.5m10.5 22.2c3 9 6 18 8 27.9"/><path class="st265" d="M448 555.5c-7 8-3 21-3 31.5"/><path class="st242" d="M557 574c0 12-4 25-10 34.9m-8 9c-2 2-4 4-6 5.4"/><path class="st265" d="M487 424c-29 15-41 49-44 81"/><linearGradient id="SVGID_00000086664807480350954550000016974711846221629849_" gradientUnits="userSpaceOnUse" x1="597.7" y1="496.1" x2="755.8" y2="496.1" gradientTransform="matrix(1 .04 .04 -1 -37.9 1061.3)"><stop offset="0" style="stop-color:#ff6c03"/><stop offset="1" style="stop-color:#f2ff03"/></linearGradient><path style="fill:url(#SVGID_00000086664807480350954550000016974711846221629849_)" d="M755.5 536c34-17 1-38-10-35-.8 0-3 22-3 22.4l-108 3.6c-1-5 1-27-4-25.9-30.7 4-32.5 32-6 46.7C629.6 671 775 665 755.5 536z"/><path class="st232" d="M741 518.7c4-163-122-115-106 .9 6 19.4 88 3.4 106-.9z"/><path class="st231" d="M632 501.5c-41 3-34 42.5 2 46m110-47.8c29 0 39 32.5 5 35.9"/><path class="st231" d="M621 545.5c14.5 121 144 130.5 136-8.8m-131-11.6c41 6 83.5 4 124-5.7"/><path class="st231" d="M634.5 524.7c-9.7-139.9 111-157 108-4.7"/><path class="st231" d="M689.6 458c9.5 20.8 13.5 45 11 68M649 437c-5-6-10.5-12-15-18m48-7.5c-.6-7-1-13-1-19.8m37 30.7 10.5-20.3"/><path class="st265" d="M614 542.4c2 44 33 94 75 96.5m-65-117.4c2-1 4.5-2.5 7-3.1m120-1.6c-2-2-4.5-3-7-4.7m-106.5 6.5c34 4 68 2 101.5-4.5m10 22.2c3 9 6 18 8 27.9"/><path class="st265" d="M633 547.9c-7 8-3 21-3 31.5"/><path class="st242" d="M743 566.5c0 12-4 25-10 34.9m-8 9c-2 2-4 4-6 5.4"/><path class="st265" d="M673 416.7c-29 15-41 49-44 81"/></g><style>.st231{fill:none;stroke:#000;stroke-width:10;stroke-linecap:round;stroke-linejoin:round;stroke-miterlimit:10}</style><g id="Layer_69"><path d="M357 479c41.5-7 15.5-83 75-83.3 64-.6 56-52 173-19 36 10 64.5-10 81-11 34-1.5 77 67 108 4.7-1-6-3.5-12-7-16.9 7 10.9 10.7 24 11 36.5 27.5-15.5 8-44 7-52-3-29 24-47-10-71.1-63-44 6-91-33.5-132.8-14-15-39 3-40.7 19.4-1 10.6 6 20 10 30 16 38.5-25 58-46.5 21.6-24-47-38-40-87-34.4-36 4-29-30.8-48-43-20.9-7-44 15-47 34.7-2 13 3 26 1 38.5-3 20-26 13-31.5-2.4-8-22-5-51-25-66.8-19-14-47 .9-47 24.4 0 9.6 5 18.5 10 26.5 40 59 0 65.5-9.6 57-5-5-7-14-14-14.9-17-.9-10 24-18 30.1-5 3.5-12-1-15-6.8-4-10 5-28-13-32.1-38-8-54 56-40.9 90.8 15 40-13 44-20.5 37.8-8.5-7 0-27-17-27.9-29.6-2-42 46-31 71.7 9.6 22 35 39 35 65.3 15-13 40.6-4 55.5 5.7-26.3-28.4 50.2-49.8 35.7 19.7z" style="fill:#3bed94"/><path class="st231" d="M315 454c1.5-23 35-26 41-5 7 25-13 47 16 72.4"/><path class="st231" d="M334 475.6c-20-34-61-31.5-89-9.6-20 8-43-3-64 4.1-22 7-28 37.5-5 43.5 6.5 2 23-2 26-1.1 15 4 11 25-5 30.1-21 6-10 29 6 29"/><path class="st231" d="M357 479c41.5-7 15.5-83 75-83.3 64-.6 56-52 173-19 36 10 64.5-10 81-11 34-1.5 77 67 108 4.7-1-6-3.5-12-7-16.9 7 10.9 10.7 24 11 36.5 27.5-15.5 8-44 7-52-3-29 24-47-10-71.1-63-44 6-91-33.5-132.8-14-15-39 3-40.7 19.4-1 10.6 6 20 10 30 16 38.5-25 58-46.5 21.6-24-47-38-40-87-34.4-36 4-29-30.8-48-43-20.9-7-44 15-47 34.7-2 13 3 26 1 38.5-3 20-26 13-31.5-2.4-8-22-5-51-25-66.8-19-14-47 .9-47 24.4 0 9.6 5 18.5 10 26.5 40 59 0 65.5-9.6 57-5-5-7-14-14-14.9-17-.9-10 24-18 30.1-5 3.5-12-1-15-6.8-4-10 5-28-13-32.1-38-8-54 56-40.9 90.8 15 40-13 44-20.5 37.8-8.5-7 0-27-17-27.9-29.6-2-42 46-31 71.7 9.6 22 35 39 34 64.9"/><path d="M795 382.6c-36 44-83-4-101-8.6-22.5-5-45 14-68 10.4-79-12-89-22-172 13.6-16 7-35 4-49 15-22 18-15 66-48 72.9" style="opacity:.6;fill:none;stroke:#000;stroke-width:10;stroke-linecap:round;stroke-linejoin:round;stroke-miterlimit:10;enable-background:new"/><path d="M750.5 143.7c4 5 7 12 7 18.7m.5 14.2v5m28 96.1c6 3 10 9 12 15M644.5 179.6c9 3 15 11 19.5 18.7m6.5 11.6c1 2 2 3 2.5 5M538 140c6 1 11 5 14 10.3m4 12c.5 1 1 2 1.5 3.6m-126.6-25.8c7 .9 14 6 17 12.4m2 12.5c.6 2 1 4 2 5.7M325 236c-9.6 9-12 23-13 35.5m0 14.5c0 3 0 5 .6 7.8M249.7 340c-6 9-8 21-5 31.6m6 14.2c.9 2 2 3 3 5.1M768 378.6c-7 2-14 1-20-2.9m-13-7.9c-1-.9-3-2-4-2.7m-118-4.6c12 2 24 2 36-1.8m-210 19.8c12-.5 23-4 33-10m-46 12.1c-2 0-3.5 0-5 .4" style="stroke:#fff;fill:none;stroke-width:10;stroke-linecap:round;stroke-linejoin:round;stroke-miterlimit:10"/></g><circle cx="550" cy="550" r="500" style="fill:none;stroke:#000;stroke-width:10;stroke-linecap:round;stroke-linejoin:round;stroke-miterlimit:10"/></svg>