<svg version="1.1" id="Layer_1" xmlns="http://www.w3.org/2000/svg" x="0" y="0" viewBox="0 0 1100 1100" style="enable-background:new 0 0 1100 1100" xml:space="preserve" xmlns:xlink="http://www.w3.org/1999/xlink"><style type="text/css">.st303{fill:#FED907;stroke:#000000;stroke-width:10;stroke-linecap:round;stroke-linejoin:round;stroke-miterlimit:10;}</style><circle class="st303" cx="550" cy="553.7" r="500"/><path d="M533 209.1c-68 59.6-71 20-121 36.5-19.6 10.9-14 30-9.7 39.6 11 23-51 9-69 40.3-10 18 .1 42-7.5 61.8-9 19.6-34 35-37 52.2-43 48-154 7-119 70.4 6 11 33-6 39 9.1 7 17.5-39 29-21 46.7 18 5 21 39.9 57 63.2 14 20 3 51 19 69.1 35.8 38 46-25 41-34.3 4-39 44-11 22 38.7-23 52 11 74 36.5 56.6 24-9 13 39 23 50.9 19.5 37 55 12 67 12 18 1 28 22 29.8 40.3 6.5 63 54 46 59 8 15.5-34 45 49 47 59.9 11 73 69 42 71 17.9 3-54-3-60.1 2-68.3 18.5-31 71 13 90.8-15.5 14-19.7-31-63.5 8-55.4 94 19 19-101 14-120.4-9-35.5 14-106 47-121.7 18-9 17-35.5 7-52.8-9.5-17-25-30.6-31-48.9-13.5-54 22-102-36-133.3-5-3-7-9.5-4-14.4 17-26 1-66-32-71.4-22-3-44 9-66.5 6.3C616 247 579.9 178 533 209.1z" style="fill:#009dff"/><style>.st40{fill:none;stroke:#000;stroke-width:10;stroke-linecap:round;stroke-linejoin:round;stroke-miterlimit:10}.st98{opacity:.6;enable-background:new}</style><g id="Outline"><path class="st98" d="M793 537c-1 .7-1 2-.5 3 5 10 11 35 25 30 8-2 21-13 18-22.4-.5-1-2-2-3-1.5-26 12-28-11-39-9.4v.3zm-34 274.5c6 5 26 8 25-3-6-7-20.6-12-21.5-26C750 772 744 803 759 811.5zm-219.3 52s1 .5 1 .8c9 13.5-3 36-18 40-34 6-9-6-6-44 .3-5.3 22.3 2.7 23 3.2zM342 731c5 7-4 22-4 33 8 13 29.6-5 33-14.9 2-12-17-21-28-20.2-1 .1-1 1.1-1 2.1zm31-120.2c2 23-8 47-26 61.9-13 10.9-17.5-30.6-8-27.9 6 4.2 28-18.8 34-34zm-157-59.9c-8 6-17 3-25 1-11 5 4 20 13.5 16 5-4 12-9 12-15.7-.5-.2-1.5-.2-.5-1.3zM337 473c-6-10-3-23 0-34 0-1 0-2-.6-2-9-9-23 11-19.8 20.7C318 463 338 475 337 472.8v.2z"/><path class="st98" d="M326 392c-2 29 24 45 7 44-7 2-14 1-15 11-1 11-24 0-24.5-1.3C285 433 317 404.5 326 392zm103-118c-9.9-4-16-16-18-25-4-6-9.9 1-11 6-7 54 29.5 28 29 19zm293 9c16 21 29.5 12 40 20.7 3 4 1 9.6-1 14-3 9-13 9-20 4.1-14.5-5.8-22-22.2-19-38.8z"/><path class="st40" d="M347 729c53.5 5 15 86 59 102 25 9 37-19.8 55-11.9 23 10.1 19.6 40 24 60.7 9.6 46 63 29.6 58-12.8"/><path class="st40" d="M519 861c89-9 47.5 119 114.5 115 39-6 35-47 25-76.5-3-9 0-18.5 7-24.5 24.5-21 59 15.5 84-2.5 15-11 8-33-2-45-12-15 0-32 10-43"/><path class="st40" d="M790 539c53 69.8-64 71 8 194.5 6 14 11 32 11 48.5 0 32-49 47.5-61 16"/><path class="st40" d="M721 287c2 51 64 31 74 88 6 34-11.5 71 7 103 10 18 27 31.5 34 51 8 19-4 47-27 42"/><path class="st40" d="M407 290.6c-16-8-12-29.9-2-41 17-15 40.5-10 61-6 29.8 1 49-29 75-38 50-17 81 55 133 44 23-5 48-11 69 1 25 14 33 55 10 75"/><path class="st40" d="M428 278c-16 26.5-51 17.5-76 28.5-20 10.5-28 33-23 55 10 47-43 51-39 88m25 4.5c1.5-23 35-26 41-5 7 25-13 47 16 72"/><path class="st40" d="M334 476c-20-34-61-31.5-89-9.6-20 8-43-3-64 4-22 7-28 37-5 43.5 6.5 2 23-2 26-1 15 4 11 25-5 30-21 6-10 29 6 29"/><path class="st40" d="M216 554.5c-15 15-14 41 2 55 37 22 41 31 36 69.7-2 31 46 41 53.5 10 2-10.8-4-22 0-33 13-32 44 20 62-44.5"/><path class="st40" d="M327 647.9c25 29.7-.5 47-7 75-10 32.5 34 65 53 25"/><path d="M729 262.5c9 4 16 13 18 22.5m-193-68c12.5 2 24.5 8 34 16m9 9 3 3m-163 10c-5.5-.9-12 .6-15.5 4M362 319.6c-9 2-14 10.7-16 19M339 449c4 1 6 6 6 9.8M308.5 470c-12-6-16-5-22-4M175 492c1-4 5-7 9-7.5m38 89.5c-4 8 0 16 4 19.9m44 78.6c-1 6 1 15 9 18m76-77.5c-3 14-13 14.5-16 16m4.5 119.5c-5-3-9-9-8-15M397 782c-1 14.5 7 28 14 30m90 53.9c-3 12 2 27 14.5 25M636 957c14-3 17-28 11-38m96-60.1c1-7 0-14-4-19m46-49.1c8-6.5 9-25 3-39M786 582c5-8 3-19-3-26m37-12c2-8.5-.6-18-7-24m-56-169c18 6 22 30 21 35" style="opacity:.7882;fill:none;stroke:#fff;stroke-width:10;stroke-linecap:round;stroke-linejoin:round;stroke-miterlimit:10;enable-background:new"/></g><linearGradient id="a12" gradientUnits="userSpaceOnUse" x1="234.425" y1="-533.764" x2="348.416" y2="-471.769" gradientTransform="translate(0 1066)"><stop offset="0" style="stop-color:#e0f"/><stop offset=".098" style="stop-color:#e002ff"/><stop offset=".286" style="stop-color:#ba07ff"/><stop offset=".543" style="stop-color:#7c0eff"/><stop offset=".857" style="stop-color:#2919ff"/><stop offset="1" style="stop-color:#001eff"/></linearGradient><path style="fill:url(#a12)" d="M329 545.2c-2-47-53-63-76-27-7 11-9 27-1 38 5.8 8 15 12 19 21 5 13-6 28 0 39.9 16 22 43-1.5 35-25-14.5-31.1 24-18.1 23-47.1v.2z"/><path d="M264 506c-18 25 30 88 55 57.9 22.5-21 3-59-24.5-63.3-10.5-2-23.5-4-30.5 5.2v.2z" style="opacity:.3412;fill:#fff;enable-background:new"/><path d="M329 545c-1.5-47-53-63-76-27-7 11-9 27-1 38 5.8 8 15 12 19 21.4 5 13-6 28 0 39.9 16 22 43-1.5 35-25-14.5-31.3 24-18.3 23-47.3z" style="fill:none;stroke:#000;stroke-width:10;stroke-linecap:round;stroke-linejoin:round;stroke-miterlimit:10"/><path d="M262 503c-19 13-29.7 41-14 60.5 5 6 12 10 16 17 5.5 12-3 28 3.5 39.5 4 7 13 9.8 19.7 7" style="opacity:.6;fill:none;stroke:#000;stroke-width:10;stroke-linecap:round;stroke-linejoin:round;stroke-miterlimit:10;enable-background:new"/><path d="M295.5 515c7 4 12 9.6 16 16m3.5 12c.5 1 1 2 1 3" style="fill:none;stroke:#fff;stroke-width:10;stroke-linecap:round;stroke-linejoin:round;stroke-miterlimit:10"/><defs><radialGradient id="radial-gradientzaa" cx="765.67" cy="820.76" r="91.18" gradientTransform="matrix(-.16 .83 -1.38 -.03 2001.21 206.15)" gradientUnits="userSpaceOnUse"><stop offset="0" stop-color="#ef0aff"/><stop offset=".09" stop-color="#f10af6"/><stop offset=".24" stop-color="#f50add"/><stop offset=".44" stop-color="#fc0ab4"/><stop offset=".5" stop-color="#ff0aa5"/><stop offset="1" stop-color="#ff120a"/></radialGradient><linearGradient id="zaa" x1="655.87" y1="735.42" x2="729.22" y2="794.94" gradientUnits="userSpaceOnUse"><stop offset="0" stop-color="#ff0a47"/><stop offset="1" stop-color="#f30aff"/></linearGradient><style>.zaa-8{fill:#fff}.zaa-3,.zaa-4{fill:none;stroke-linecap:round;stroke-linejoin:round;stroke:#000;stroke-width:10px}.zaa-4{opacity:.6}.zaa-8{opacity:.42}</style></defs><path d="M746.8 738.6c-5.3-98.1-108.5-6-249.9-53.8-16-5.4-33.6-10.3-49.7-5.1-36.3 11.7-11.4 58.9 7 78.8 57 61.6 153.8 83 228.1 46.5Z" style="fill:#fff"/><path d="M735.1 749.8c-17.4 18.8-28.3 48.2-32.2 73.7-20.1-28.8-49-49.4-76.1-71.1 26.7-1.1 52.2-11.9 77.9-17.4 9.4 5.8 17 11.8 30.4 14.8Z" style="fill:url(#zaa)"/><path class="zaa-3" d="M746.8 738.6c-5.3-98.1-108.5-6-249.9-53.8-16-5.4-33.6-10.3-49.7-5.1-36.3 11.7-11.4 58.9 7 78.8 57 61.6 153.8 83 228.1 46.5"/><path class="zaa-3" d="M619.6 752.8a229 229 0 0 1 86 76m2.5-93.2a64.3 64.3 0 0 0 25.2 15.7M435.1 646.2c-26.5 2.1-46.7 28.8-41.7 54.8"/><path class="zaa-3" d="M743.1 719.5c-71.5 34.3-231 64.9-310.8-21.4"/><path class="zaa-4" d="M435.1 646.2c-28.1-8.1-56.3 32.7-41.7 54.8m41-14.5c-16.4 16.7-7.9 43.9 4.2 60.2 54.4 73.6 162.5 103.4 245.9 66.1 4.1 6.9 11.5 11.7 14 19.3 2.3 12 2.4 24.5 6 36.4"/><path class="zaa-4" d="M432.8 707.1c46.6 52.8 121.3 55.3 186.7 53.9 12.9-.2 37.2 25.2 58.1 41.8m63.3-75c-32.5 14.2-69.6 23.7-105 29.3m87.5-8.2c-21.3 11.1-35.9 28.5-42.5 49.3"/><path d="M433.5 659.7c-8 .9-21.7 9.4-24.2 21.9" style="stroke:#fff;stroke-width:10px;fill:none;stroke-linecap:round;stroke-linejoin:round"/><path d="M659.8 763.9a134.8 134.8 0 0 1 14.3 10" style="stroke-width:8px;stroke:#fff;fill:none;stroke-linecap:round;stroke-linejoin:round"/><ellipse cx="749.8" cy="821.8" rx="107.7" ry="68.9" transform="rotate(-51.8 749.772 821.786)" style="fill:url(#radial-gradientzaa)"/><ellipse class="zaa-8" cx="711.3" cy="899.3" rx="18.2" ry="15" transform="rotate(-76.7 710.867 899.148)"/><ellipse class="zaa-8" cx="778.7" cy="759.5" rx="22.7" ry="16.3" transform="rotate(-61.4 779.5 759.65)"/><ellipse class="zaa-8" cx="814.3" cy="791" rx="14.5" ry="11.3" transform="rotate(-66.8 814.833 791.109)"/><ellipse class="zaa-8" cx="771.4" cy="867.8" rx="25.6" ry="19.9" transform="rotate(-66.8 771.867 867.986)"/><ellipse class="zaa-8" cx="729.4" cy="796.5" rx="22.9" ry="17.8" transform="rotate(-66.8 729.813 796.628)"/><ellipse class="zaa-8" cx="772.3" cy="816.6" rx="12.1" ry="9.4" transform="rotate(-66.8 772.817 816.715)"/><ellipse class="zaa-8" cx="729.3" cy="861" rx="12.1" ry="10.3" transform="rotate(-89.8 728.925 860.985)"/><ellipse class="zaa-8" cx="804.1" cy="833.8" rx="9.6" ry="7.5" transform="rotate(-66.8 804.545 833.937)"/><ellipse class="zaa-8" cx="745.6" cy="748.9" rx="10.5" ry="8.1" transform="rotate(-66.8 746.123 748.958)"/><ellipse class="zaa-8" cx="689.9" cy="800.7" rx="14.1" ry="9.5" transform="rotate(-59 689.062 800.39)"/><ellipse class="zaa-8" cx="696.7" cy="851.2" rx="16.2" ry="10.6" transform="rotate(-58 696.756 851.168)"/><ellipse class="zaa-8" cx="819.8" cy="748.9" rx="10" ry="7" transform="rotate(-60.3 820.367 749.004)"/><ellipse class="zaa-3" cx="749.8" cy="821.8" rx="107.7" ry="68.9" transform="rotate(-51.8 749.772 821.786)"/><path d="M770.6 745.7a128.4 128.4 0 0 0-69.7 58.9m-9.2 16.3a74.3 74.3 0 0 0-3.9 11.2" style="stroke-width:13px;opacity:.82;stroke:#fff;fill:none;stroke-linecap:round;stroke-linejoin:round"/><style>.st40,.st68{fill:none;stroke-width:10;stroke-linecap:round;stroke-linejoin:round;stroke-miterlimit:10;stroke:#000}.st68{opacity:.6;enable-background:new}</style><g id="trippy_monocle"><path class="st68" d="M478 416c-98.5 54-52 295 75 229m120-263c-24 5-51 30.5-54 56m142 120c-1 25-19.9 49-43.5 57M674 420c-62 49.7-14 226 41 157"/><path class="st68" d="M515 446.9c-32.5 32-26 103-10.5 143 9 22 38 29 41.5 1"/><path d="M687 417c-49 19 1 94 40 65 18-17-11-81.5-37-67.5 1-.5 1-2-3 2.5zm-171 33.5c-34 25 4 86 38.5 55C567 465 536 433 516 450.5z" style="fill:#fff"/><path class="st40" d="M525 445c-43 8-36 170.5 7 159 41-11 39-168-7-159.4v.4z"/><path d="M503 490.6c-27 129 68 160 58 12-34 27.2-51-8.6-58-12zM661 449c-47 176 96 182 72 28.9-33 23.1-57 1.6-72-28.9z"/><path class="st40" d="M504.5 467c-5.5 32 23 63 54 39M686 416c-63 33-38 186 14 170.5C755 571 744 386 686 416z"/><path class="st40" d="M666 437c-6 33 37 63 66 42m-107-39.2c6-25 25-46.5 50-54M757 557c-8.5 29-19 44-43 54"/><linearGradient id="SVGID_00000171696356865888095910000012114362784109113733_" gradientUnits="userSpaceOnUse" x1="431.024" y1="881.903" x2="597.039" y2="881.903" gradientTransform="matrix(1 0 0 -1 0 1410)"><stop offset="0" style="stop-color:#00ff62"/><stop offset="1" style="stop-color:#009dff"/></linearGradient><path style="opacity:.7216;fill:url(#SVGID_00000171696356865888095910000012114362784109113733_);enable-background:new" d="M487 413.5c-78 38-75 218 17 237 131 27.5 124-305.5-17-237z"/><path d="M537.5 423c17 11 27 32 33.5 51m3 18v7m-10 109c-6 12-17 22-30 27" style="fill:none;stroke:#fff;stroke-width:10;stroke-linecap:round;stroke-linejoin:round;stroke-miterlimit:10"/><path class="st40" d="M508 404c-109 26-102 253 17.5 248 104.1-4 95.5-275-17.5-248z"/></g><linearGradient id="a21" gradientUnits="userSpaceOnUse" x1="503.691" y1="241.136" x2="690.539" y2="221.151"><stop offset="0" style="stop-color:#ff2b2b"/><stop offset="1" style="stop-color:#ffff2b"/></linearGradient><path style="fill:url(#a21);stroke:#000;stroke-width:10;stroke-linecap:round;stroke-linejoin:round;stroke-miterlimit:10;stroke-dasharray:0,0,0,0,0,0" d="M562 170.5c-4 2-9 2.5-13.5 1.4 18 17-4 44 7 61.1 7 11 21 19 19.9 34.5 0 7-7 15-13 8.6 1 15 13 25 23 34.8 9.5 9.5-2 29 8 38.4 16 13 43-9 39.8-26.5-2-13-9-28 2-39.7 8-8 25.5-21 14-32.8-2 5-9 8-12 3.8-4-4 1.5-10.5 3-16.1 2-11-9-18-14-27-12-24 24-41 1-62.1 0 20-34 20-28 0 5-17-3-16.5-11-27.2 7 14-20.1 30-27.5 16.4-4-8 0-18-7-25.3-5.8 19-32 29-33 48.7-2 40-15.8 26.5-16.5 24.1-4 12 11 24 9 37 15-6 26-22 42-26"/><path d="M549 202.2c-17 33 35 57 16 69.5-3 0-6 1-7 4.3-5 19.5 22 28 25 45.2 1 6.5-.5 13 1 19.9 3 15.5 25 20 34 7m-72-175.9c11 22-14 30.7-28 41.5" style="opacity:.6;fill:none;stroke:#000;stroke-width:10;stroke-linecap:round;stroke-linejoin:round;stroke-miterlimit:10;stroke-dasharray:0,0,0,0,0,0"/><path d="M620 320.5c1 4 .5 8-2 11.5m-10 7-2 1m12-117.6c3 3 5 6 6 10m-91.5-71.8c2-4.5 5-9 8-12" style="opacity:.7882;stroke:#fff;fill:none;stroke-width:10;stroke-linecap:round;stroke-linejoin:round;stroke-miterlimit:10;stroke-dasharray:0,0,0,0,0,0"/><circle cx="550" cy="550" r="500" style="fill:none;stroke:#000;stroke-width:10;stroke-linecap:round;stroke-linejoin:round;stroke-miterlimit:10"/></svg>