<svg version="1.1" id="Layer_1" xmlns="http://www.w3.org/2000/svg" x="0" y="0" viewBox="0 0 1100 1100" style="enable-background:new 0 0 1100 1100" xml:space="preserve" xmlns:xlink="http://www.w3.org/1999/xlink"><circle cx="550" cy="550" r="500" style="fill:#2e2e2e"/><linearGradient id="a1" gradientUnits="userSpaceOnUse" x1="264.957" y1="853.134" x2="422.298" y2="853.134"><stop offset="0" style="stop-color:#00ff90"/><stop offset="1" style="stop-color:#c800ff"/></linearGradient><circle cx="343" cy="853" r="78" style="fill:url(#a1);stroke:#000;stroke-width:10;stroke-linecap:round;stroke-linejoin:round;stroke-miterlimit:10"/><linearGradient id="b1" gradientUnits="userSpaceOnUse" x1="826.38" y1="645.312" x2="919.38" y2="645.312"><stop offset="0" style="stop-color:#f7ff00"/><stop offset="1" style="stop-color:#ff5e00"/></linearGradient><ellipse style="fill:url(#b1);stroke:#000;stroke-width:10;stroke-linecap:round;stroke-linejoin:round;stroke-miterlimit:10" cx="873" cy="645" rx="46.5" ry="53"/><linearGradient id="c1" gradientUnits="userSpaceOnUse" x1="179.591" y1="404.219" x2="384.591" y2="404.219"><stop offset="0" style="stop-color:#0073ff"/><stop offset="1" style="stop-color:#8c00ff"/></linearGradient><ellipse style="fill:url(#c1);stroke:#000;stroke-width:10;stroke-linecap:round;stroke-linejoin:round;stroke-miterlimit:10" cx="282" cy="404" rx="102.5" ry="111"/><linearGradient id="d1" gradientUnits="userSpaceOnUse" x1="766.562" y1="310.33" x2="944.562" y2="310.33"><stop offset="0" style="stop-color:#7300ff"/><stop offset="1" style="stop-color:#ff008c"/></linearGradient><ellipse style="fill:url(#d1);stroke:#000;stroke-width:10;stroke-linecap:round;stroke-linejoin:round;stroke-miterlimit:10" cx="856" cy="310" rx="89" ry="95"/><linearGradient id="e1" gradientUnits="userSpaceOnUse" x1="615.769" y1="857.232" x2="845.269" y2="857.232"><stop offset="0" style="stop-color:#f0b"/><stop offset="1" style="stop-color:#f40"/></linearGradient><circle style="fill:url(#e1);stroke:#000;stroke-width:10;stroke-linecap:round;stroke-linejoin:round;stroke-miterlimit:10" cx="730.5" cy="857" r="115"/><linearGradient id="f1" gradientUnits="userSpaceOnUse" x1="115.411" y1="614.727" x2="186.411" y2="614.727"><stop offset="0" style="stop-color:#00ff90"/><stop offset="1" style="stop-color:#006fff"/></linearGradient><circle style="fill:url(#f1);stroke:#000;stroke-width:10;stroke-linecap:round;stroke-linejoin:round;stroke-miterlimit:10" cx="150.9" cy="615" r="35.5"/><path d="M313 326.3c18 9.9 33 27 39.6 46m7 22.7 1 7m509.9-163.1c19 5 34 19.6 41 38m6 22c1 3 1.5 5 2 8M879 609.4c9 4 16 11 19.8 20m.7 19.6-.5 5M759 766.9c25 9 44 31 49.9 56.5m7.1 23.7c1 4 1 7 .5 10.8M364 799.3c16 6 29 22 31 39m0 22.7-2 6M153.5 595.4c7 1 12 6 14 12" style="opacity:.8118;fill:none;stroke:#fff;stroke-width:16;stroke-linecap:round;stroke-linejoin:round;stroke-miterlimit:10;stroke-dasharray:0,0,0,0,0,0"/><defs><linearGradient id="a" x1="467.78" y1="347.4" x2="508.96" y2="422.3" gradientUnits="userSpaceOnUse"><stop offset="0" stop-color="#ff00f2"/><stop offset=".5" stop-color="#ac05ff"/><stop offset="1" stop-color="#0bf"/></linearGradient><linearGradient id="b" x1="625.23" y1="280.48" x2="689.78" y2="436.19" gradientUnits="userSpaceOnUse"><stop offset="0" stop-color="#00f"/><stop offset=".06" stop-color="#2c00ea"/><stop offset=".15" stop-color="#6b00cb"/><stop offset=".24" stop-color="#a000b2"/><stop offset=".32" stop-color="#c9009e"/><stop offset=".39" stop-color="#e70090"/><stop offset=".45" stop-color="#f90087"/><stop offset=".5" stop-color="#ff0084"/><stop offset=".58" stop-color="#ff2272"/><stop offset=".76" stop-color="#ff7a44"/><stop offset="1" stop-color="#fffb00"/></linearGradient><linearGradient id="c" x1="542.81" y1="533.18" x2="664.99" y2="716.92" gradientUnits="userSpaceOnUse"><stop offset="0" stop-color="#af0"/><stop offset=".25" stop-color="#fac400"/><stop offset=".29" stop-color="#fabf00"/><stop offset=".33" stop-color="#fab100"/><stop offset=".38" stop-color="#f99900"/><stop offset=".43" stop-color="#f87700"/><stop offset=".48" stop-color="#f74d00"/><stop offset=".5" stop-color="#f73e00"/><stop offset=".75" stop-color="#f5006e"/><stop offset="1" stop-color="#c0f"/></linearGradient><linearGradient id="d" x1="730.89" y1="463.6" x2="755.38" y2="535.72" gradientUnits="userSpaceOnUse"><stop offset="0" stop-color="#ff00a1"/><stop offset="1" stop-color="#0059ff"/></linearGradient><linearGradient id="e" x1="659.6" y1="799.3" x2="718.16" y2="799.3" gradientUnits="userSpaceOnUse"><stop offset="0" stop-color="#00f"/><stop offset="1" stop-color="#0fd"/></linearGradient><linearGradient id="f" x1="433.06" y1="520.57" x2="478.6" y2="623.4" gradientUnits="userSpaceOnUse"><stop offset="0" stop-color="#ff0900"/><stop offset=".1" stop-color="#ff0d00"/><stop offset=".2" stop-color="#fe1b00"/><stop offset=".31" stop-color="#fe3100"/><stop offset=".43" stop-color="#fd4f00"/><stop offset=".54" stop-color="#fb7600"/><stop offset=".58" stop-color="#fb8400"/><stop offset="1" stop-color="#f7ff00"/></linearGradient><linearGradient id="g" x1="514.44" y1="451.87" x2="573.27" y2="482.5" gradientUnits="userSpaceOnUse"><stop offset="0" stop-color="#ffb300"/><stop offset=".5" stop-color="#f2d45a"/><stop offset="1" stop-color="#e600ff"/></linearGradient><linearGradient id="h" x1="555.34" y1="254.67" x2="521.18" y2="370.89" gradientUnits="userSpaceOnUse"><stop offset="0" stop-color="#fffb00"/><stop offset=".05" stop-color="#f0fa0f"/><stop offset=".15" stop-color="#c9f736"/><stop offset=".3" stop-color="#89f176"/><stop offset=".47" stop-color="#32eacd"/><stop offset=".56" stop-color="#00e6ff"/><stop offset="1" stop-color="#6200ff"/></linearGradient><linearGradient id="i" x1="431.91" y1="482.9" x2="368.78" y2="334.62" gradientUnits="userSpaceOnUse"><stop offset="0" stop-color="#e1ff00"/><stop offset=".5" stop-color="#fa5700"/><stop offset="1" stop-color="#ff00f7"/></linearGradient><linearGradient id="j" x1="423.73" y1="687.79" x2="506.29" y2="788.25" gradientUnits="userSpaceOnUse"><stop offset="0" stop-color="#5900ff"/><stop offset=".5" stop-color="#db00c5"/><stop offset="1" stop-color="#ff4000"/></linearGradient><linearGradient id="k" x1="264.66" y1="609.94" x2="305.75" y2="609.94" gradientUnits="userSpaceOnUse"><stop offset="0" stop-color="#00f"/><stop offset="1" stop-color="#f0f"/></linearGradient><linearGradient id="l" x1="237.16" y1="499.87" x2="342.8" y2="552.28" gradientUnits="userSpaceOnUse"><stop offset="0" stop-color="#00ff04"/><stop offset=".06" stop-color="#01fe19"/><stop offset=".18" stop-color="#05fd50"/><stop offset=".34" stop-color="#0afaa8"/><stop offset=".5" stop-color="#0ff7ff"/><stop offset="1" stop-color="#5100ff"/></linearGradient><linearGradient id="m" x1="723.12" y1="717.37" x2="745.84" y2="681.95" gradientUnits="userSpaceOnUse"><stop offset="0" stop-color="#ff0037"/><stop offset=".39" stop-color="#ff1ce8"/><stop offset="1" stop-color="#ffc800"/></linearGradient><linearGradient id="n" x1="593.77" y1="831.53" x2="619.74" y2="874.05" gradientUnits="userSpaceOnUse"><stop offset="0" stop-color="#ea00ff"/><stop offset="1" stop-color="#ff0015"/></linearGradient></defs><g data-name="Layer 46"><path d="M531.7 209c-67.9 59.6-70.9 20.3-120.8 36.5-19.6 10.9-14.3 30.3-9.7 39.6 11.2 22.8-50.8 8.7-68.6 40.3-10.3 18.3.1 42.2-7.5 61.8s-33.8 34.7-36.8 52.2c-43.4 48.2-154 6.6-119.1 70.4 6.2 11.4 32.9-6.3 39.1 9.1 7 17.5-38.8 29.4-21.3 46.7 17.7 4.9 20.7 39.9 56.9 63.2 13.8 20 2.7 51.4 19.4 69.1 35.8 37.8 46.3-24.8 41.3-34.3 4.3-38.8 43.9-10.6 22.2 38.7-22.8 51.7 11.2 74 36.5 56.6 38.5-10.5-14.1 99.9 89.9 62.9 18.1.7 28 22.3 29.8 40.3 6.5 63 53.6 46.3 59.1 8 15.5-34.3 45.1 48.6 46.9 59.9 11.3 72.6 69.3 42 70.8 17.9 3.3-54.1-3.2-60.1 1.7-68.3 18.5-31.1 71 13.3 90.8-15.5 13.6-19.7-31.2-63.5 7.9-55.4 94 19.4 18.7-100.7 13.8-120.4-8.8-35.5 13.9-105.6 46.9-121.7 18.1-8.8 17.1-35.5 7.4-52.8s-24.9-30.6-31.4-48.9c-13.5-54.4 22.4-102.1-36-133.3a10.2 10.2 0 0 1-3.9-14.4c17.1-26.3 1.3-66.4-31.8-71.4-22.1-3.3-44.3 8.9-66.5 6.3-43.8-5.2-80.2-74.1-127-43.1Z" style="fill:#1c89ad"/><path d="M461.1 384.3c0-40.3 54-40.3 54 0s-54 40.4-54 0Z" style="fill:url(#a)"/><path d="M607.6 363.4c0-86.2 104-86.2 104 0s-104 86.2-104 0Z" style="fill:url(#b)"/><path d="M514.2 630.8c0-125.6 187-125.6 187 0s-187 125.5-187 0Z" style="fill:url(#c)"/><path d="M718.2 497.1c0-31.7 48.2-31.7 48.2 0s-48.2 31.7-48.2 0Z" style="fill:url(#d)"/><path d="M659.6 799.3c0-38.5 58.6-38.5 58.6 0s-58.6 38.5-58.6 0Z" style="fill:url(#e)"/><path d="M419.1 578.9c0-57.4 79.6-57.4 79.6 0s-79.6 57.4-79.6 0Z" style="fill:url(#f)"/><path d="M529.3 469.3c0-24.4 37-24.3 37 0s-37 24.3-37 0Z" style="fill:url(#g)"/><path d="M496.2 313c0-64.6 84-64.6 84 0s-84 64.6-84 0Z" style="fill:url(#h)"/><path d="M357.2 411.3c0-58.1 88.4-58.1 88.4 0s-88.4 58.1-88.4 0Z" style="fill:url(#i)"/><path d="M419.1 740.5c0-68.3 96-68.3 96 0s-96 68.4-96 0Z" style="fill:url(#j)"/><path d="M264.7 609.9c0-27 41.1-27 41.1 0s-41.1 27.1-41.1 0Z" style="fill:url(#k)"/><path d="M247.4 527.3c0-51.7 90-51.7 90 0s-90 51.6-90 0Z" style="fill:url(#l)"/><path d="M722.3 700.3c0-15.4 23.5-15.4 23.5 0s-23.5 15.4-23.5 0Z" style="fill:url(#m)"/><path d="M589.5 852.8c0-22.6 34.5-22.6 34.5 0s-34.5 22.5-34.5 0Z" style="fill:url(#n)"/></g><style>.st40{fill:none;stroke:#000;stroke-width:10;stroke-linecap:round;stroke-linejoin:round;stroke-miterlimit:10}.st98{opacity:.6;enable-background:new}</style><g id="Outline"><path class="st98" d="M793 537c-1 .7-1 2-.5 3 5 10 11 35 25 30 8-2 21-13 18-22.4-.5-1-2-2-3-1.5-26 12-28-11-39-9.4v.3zm-34 274.5c6 5 26 8 25-3-6-7-20.6-12-21.5-26C750 772 744 803 759 811.5zm-219.3 52s1 .5 1 .8c9 13.5-3 36-18 40-34 6-9-6-6-44 .3-5.3 22.3 2.7 23 3.2zM342 731c5 7-4 22-4 33 8 13 29.6-5 33-14.9 2-12-17-21-28-20.2-1 .1-1 1.1-1 2.1zm31-120.2c2 23-8 47-26 61.9-13 10.9-17.5-30.6-8-27.9 6 4.2 28-18.8 34-34zm-157-59.9c-8 6-17 3-25 1-11 5 4 20 13.5 16 5-4 12-9 12-15.7-.5-.2-1.5-.2-.5-1.3zM337 473c-6-10-3-23 0-34 0-1 0-2-.6-2-9-9-23 11-19.8 20.7C318 463 338 475 337 472.8v.2z"/><path class="st98" d="M326 392c-2 29 24 45 7 44-7 2-14 1-15 11-1 11-24 0-24.5-1.3C285 433 317 404.5 326 392zm103-118c-9.9-4-16-16-18-25-4-6-9.9 1-11 6-7 54 29.5 28 29 19zm293 9c16 21 29.5 12 40 20.7 3 4 1 9.6-1 14-3 9-13 9-20 4.1-14.5-5.8-22-22.2-19-38.8z"/><path class="st40" d="M347 729c53.5 5 15 86 59 102 25 9 37-19.8 55-11.9 23 10.1 19.6 40 24 60.7 9.6 46 63 29.6 58-12.8"/><path class="st40" d="M519 861c89-9 47.5 119 114.5 115 39-6 35-47 25-76.5-3-9 0-18.5 7-24.5 24.5-21 59 15.5 84-2.5 15-11 8-33-2-45-12-15 0-32 10-43"/><path class="st40" d="M790 539c53 69.8-64 71 8 194.5 6 14 11 32 11 48.5 0 32-49 47.5-61 16"/><path class="st40" d="M721 287c2 51 64 31 74 88 6 34-11.5 71 7 103 10 18 27 31.5 34 51 8 19-4 47-27 42"/><path class="st40" d="M407 290.6c-16-8-12-29.9-2-41 17-15 40.5-10 61-6 29.8 1 49-29 75-38 50-17 81 55 133 44 23-5 48-11 69 1 25 14 33 55 10 75"/><path class="st40" d="M428 278c-16 26.5-51 17.5-76 28.5-20 10.5-28 33-23 55 10 47-43 51-39 88m25 4.5c1.5-23 35-26 41-5 7 25-13 47 16 72"/><path class="st40" d="M334 476c-20-34-61-31.5-89-9.6-20 8-43-3-64 4-22 7-28 37-5 43.5 6.5 2 23-2 26-1 15 4 11 25-5 30-21 6-10 29 6 29"/><path class="st40" d="M216 554.5c-15 15-14 41 2 55 37 22 41 31 36 69.7-2 31 46 41 53.5 10 2-10.8-4-22 0-33 13-32 44 20 62-44.5"/><path class="st40" d="M327 647.9c25 29.7-.5 47-7 75-10 32.5 34 65 53 25"/><path d="M729 262.5c9 4 16 13 18 22.5m-193-68c12.5 2 24.5 8 34 16m9 9 3 3m-163 10c-5.5-.9-12 .6-15.5 4M362 319.6c-9 2-14 10.7-16 19M339 449c4 1 6 6 6 9.8M308.5 470c-12-6-16-5-22-4M175 492c1-4 5-7 9-7.5m38 89.5c-4 8 0 16 4 19.9m44 78.6c-1 6 1 15 9 18m76-77.5c-3 14-13 14.5-16 16m4.5 119.5c-5-3-9-9-8-15M397 782c-1 14.5 7 28 14 30m90 53.9c-3 12 2 27 14.5 25M636 957c14-3 17-28 11-38m96-60.1c1-7 0-14-4-19m46-49.1c8-6.5 9-25 3-39M786 582c5-8 3-19-3-26m37-12c2-8.5-.6-18-7-24m-56-169c18 6 22 30 21 35" style="opacity:.7882;fill:none;stroke:#fff;stroke-width:10;stroke-linecap:round;stroke-linejoin:round;stroke-miterlimit:10;enable-background:new"/></g><defs><style>.axg-2{fill:none;stroke-linecap:round;stroke-linejoin:round;stroke-width:10px;stroke:#000}</style></defs><path d="M243.3 626.7c44.2-16.7-13.7-73.4 35.6-67.3 21.7 19.1-.3 76.2 37.7 66.4 49.7-12.9 2.3-62.1-2.5-73.1.2-30.9 41.4 1.5 50.2-38.3-18.2-24 5.5-57.2-11.5-72.8-23.1-21.4-36.9 8.5-40.9 12.3-49.6-11.5-64.2 25.4-117.3 13.2-18.8 1.7-44.6 25-24.6 41.9 11.7 10 34.4-3.6 41 13 5.6 20.2-54 25.9-6 50.9-4.7 29.1 19.3 38.5 38.3 53.8Z" style="fill:#ff00d9"/><path class="axg-2" d="M314.8 454c1.5-23.1 35.3-26.3 41.4-5 7.1 24.8-12.6 46.8 16.2 72.4"/><path class="axg-2" d="M333.7 475.6c-20.3-33.6-61.2-31.5-89.3-9.6-20 8.1-43.3-2.6-63.8 4.1s-28 37.5-4.7 43.5c6.5 1.7 23.1-2 26.4-1.1 15.3 4 11.4 25.2-5.4 30.1-21.2 6.2-10.2 28.6 6.3 29"/><path class="axg-2" d="M215.8 554.5c-14.8 14.8-13.6 41.2 2.4 54.6 36.7 21.9 40.7 30.9 35.7 69.7-2 31.4 45.8 41 53.5 10 1.8-10.8-4.5-22.1.2-32.7 12.4-32.5 44.2 20.2 62.3-44.5"/><path class="axg-2" d="M243.3 626.7c37.7-15 11.5-42.6 12.4-55.1s13.2-19 23.2-12.2c21.7 19.1-1.6 66.4 37.7 66.4 19.4 0 27.9-27.7 18.2-43.9-6.2-10.4-19.9-17.2-20.7-29.2-.9-15.6 12.2-15.8 24-15.8 17.1 0 22.7-11.2 26.4-22.4"/><path d="M252.3 630.1c37.2-23.8-3.2-55.3 13.1-65.7 19.7-12.7 16.5 44.9 26.1 55.7 14.5 16.1 42.1 14.9 49.3-5.5 15-42.4-25.4-45.4-20.3-64.1 4.2-15.7 34.1 2.2 47.4-30.2m-34.2-44.7c-5.3-11.3-15.2-21.9-8-36.1m-109.9 115c-6.5 6.5-14.4 12.3-26.3 7.7" style="opacity:.6;stroke:#000;fill:none;stroke-linecap:round;stroke-linejoin:round;stroke-width:10px"/><path d="M338.8 448.3a14 14 0 0 1 5.2 10.6m-61 4.8a28.5 28.5 0 0 1 22.2 6.9m-128.7 18.6a16.8 16.8 0 0 1 13-6.3m11.2-1.3 2.1.3M350 516.8c-2.5 4.5-5.9 7.7-12.8 6.9m-14.8 66.2c2.4 4.6 2 10.8-.1 15.9m-98.6-12.5a24.4 24.4 0 0 1-2.5-20.2" style="stroke:#fff;fill:none;stroke-linecap:round;stroke-linejoin:round;stroke-width:10px"/><style>.st40{fill:none;stroke-width:10;stroke-linecap:round;stroke-linejoin:round;stroke-miterlimit:10;stroke:#000}</style><g id="Confused"><path d="M436 675c-22 21-11 48 18 57 29.7 9 14.5 58 38.5 75 48 17 33-29.6 51-32.5 18.5-3 9 36 40 57 29.5 19.8 75 1 78-35 4-55 36-12 52-35.5" style="opacity:.6;fill:none;stroke:#000;stroke-width:10;stroke-linecap:round;stroke-miterlimit:10;enable-background:new"/><path d="M584 706c7 8 13 18 21 26 97-19 94 22 113.5 24 30-7 34-98-17-91-41 5-76 35-116 39.6-.5.4-.5 1.4-1.5 1.4z"/><path d="M715 756c-4 14-34 2-46 5-18 4-5 116-91 56-13-9-17-53.5-36-48.9-13 6.5-7 30.7-28 35.5-42.5 9.7-19-76-75-85.9-17.5-3-7-33 5-44 40.6-21 39.9 31 135 32.3 12 4 18 17 26 26 73-20 110 21 110 23.7v.3z" style="fill:#fe1767"/><path d="M435 696c41.5-24 78 29 119.8 29 14-.1 30.8-6.5 44 2-10-23-15.5-20-37-18.7-30-2-56-20-82-34-18-9-47-1-45 21.3v.4zm182 59c1-18 38-25 55-24-17-5-52-5-65 4.6l10 19.1v.3z" style="fill:#ae0f45"/><path class="st40" d="M464 669.5c-28 0-47 36-19.8 50.6 6 3 12 3 18 6 30 16 8 75 47.5 78.6 9.7 1 19-7 21-17 1-6 0-13 4-17.5 6-7 18-3.5 23 3.9 5 7 6 17 9 25.5 11 39 74 49.5 87 5.9 5-16-6-56 35-44 67 19.7 78-117-5-93-69.9 20-111 65-186 15.5-9.7-6.5-19.7-14.5-33.7-14.5z"/><path class="st40" d="M582 707c14 13 25 29 32 47"/><path d="M579.9 726c6 7 11 15 14 23m5.7 15 2.4 4m52-28c9 0 18 2 26 6m-39.5-7.5h-4" style="fill:none;stroke:#fff;stroke-width:10;stroke-linecap:round;stroke-linejoin:round;stroke-miterlimit:10"/><path class="st40" d="M606 733c37-17 86-8 112 24"/></g><style>.st40{fill:none;stroke:#000;stroke-width:10;stroke-linecap:round;stroke-linejoin:round;stroke-miterlimit:10}</style><g id="glasses"><linearGradient id="SVGID_00000178916075595908665650000004557367053833667231_" gradientUnits="userSpaceOnUse" x1="598.405" y1="1033.928" x2="641.405" y2="678.931" gradientTransform="matrix(1 0 0 -1 0 1410)"><stop offset="0" style="stop-color:#00f5d0"/><stop offset=".232" style="stop-color:#42b1da"/><stop offset=".508" style="stop-color:#8b66e6"/><stop offset=".738" style="stop-color:#c02fee"/><stop offset=".908" style="stop-color:#e10df3"/><stop offset="1" style="stop-color:#ed00f5"/></linearGradient><path style="fill:url(#SVGID_00000178916075595908665650000004557367053833667231_)" d="M360 453c2 11 0 51 7 55.1 14 4 47-17 49.9 2 3 11 7 22 6 33-2 22-21 43-13 65 9 25 35.8 11 38 17.3 11 32 20 25 48 27 19 5.5 23 38 45 35 26-3 15-55 34-38.5 15 13 41 3 44.5-16.4 4-23-18.5-42.5-19-66 2-28 23-48 8-79 8 .5 17 0 25-1 13 24 8 46.5-2 69.9-17 39.8 15 52.5 29 45-2 14-11 36 2 47 10.5 5 23-4 29-12 11-22 29.5-2 39 10.3 12 12 28 6 29-11 .6-7.5-2-16 2-23 6-5 18 6 27-10.8 6-30-9-21 14-54.7 8-12 34-27 17-51-7-9.6-20.5-18-17-31 16 3 34-8.5 44-19.9 6-9.5 9-23 6-33.5-5-12-17-10.9-24.5-2-10 9.9-20.9-1-12.5-12 8-11 39-18 7-31-52.5-6.5-53 102-140.5 31.8-46-29-49 40.6-93 34-32.5-5-17-24-60.8-4-59-42-66 22.5-124 20.3-14-.5-32-7-44 3.8v.3z"/><path d="M363.5 508c17 18 36-5 48 0 24 37-27 79.5-.5 112.9 11 14 29.9 7 32 8.8 4.5 18 16 29 35 29 40-5 27 27.5 53 28m37-34.7c10 9.5 27 10.5 38 2m9-163.1c56-2-32.5 112 38 120 5 4-17 39.7 17.5 37m29.5-17c19-2 25 27 46 22m38-41.9c-4 5-11 7-17 7M445 500.6c-6 10.5-14.5 5-21 10" style="opacity:.6;enable-background:new;fill:none;stroke:#000;stroke-width:10;stroke-linecap:round;stroke-linejoin:round;stroke-miterlimit:10"/><path d="M495 429.5c9 2 17 6 23 13m-38.2-11.6c-1 0-2 .8-3.5 1.5M374 495c6 .5 12-1 16-4m213 15c2 9.5-1 19-5 28m-6.5 13-1.5 3m12 58c6 7 9.9 19 4.5 27m-10.5 8c-1 0-1.5.5-2 .7M550 656c0 7-3 13-8 18m-79-46c1 7 7 12 14 12m168-78c-3 7-3 15-1 22m25 39c-2 3.5-1 8 2 11m78.5-14c2 6 1 12-1 17m-.5-30v-2m41-76c4 7 0 14-5 19.5m22-47.5c4 3 6 7 7 11m28-92c0 8-3 16.5-9 22m-11 5c-2 0-3 .9-5 1m-150.5-41c7 1 12 5.5 17 10.7M652 409c-1 .5-2 1-3 2" style="fill:none;stroke:#fff;stroke-width:10;stroke-linecap:round;stroke-linejoin:round;stroke-miterlimit:10"/><path d="M429 607c3 4 3 10 0 15 4-1 12-3 13-8m151 11.9c-5 8-7.5 19.8 0 27-6 0-27.5-5-16-23M592 498c7-1 14.5 1 20 5-2-5-4-11-9-14m61-2c-8 5-15 13-19 21-1 0-6-12-4-18m12 96c-1 6-6.5 11-12 13 6 1 14 2 19-2m112-5c-1 7 2 14 8 18-6 2-13.5-.5-17-6m40-87.5c4 5 10 11 17 9-3.5 3-9 6-14 4.5m-28-62.5c8-2 17 3 22 8.9.5-5-.9-12-4-16h-1m-244-23.9c-5-3-6-11.5-3-16.5-6 3-13 7-13 14" style="opacity:.6;enable-background:new"/><path class="st40" d="M362 503c14 14 34.5-3 50.9-2 9.6.5 23 7 29.9-3"/><path class="st40" d="M413 501c24 36 0 62-4 97-2 19 19.5 34 35 21.5"/><path class="st40" d="M434 606c26 12 3 52 54 46 31-4 21.5 36 50 37 32 2 19-59 51-65"/><path class="st40" d="M570 642.5c12 19.5 44 17 51-5 9-27.5-27-52-19-79 7-23 24-47 7-69m27-1.5c14 25 2 49.7-5.5 74-5.8 18 6 53 29 38"/><path class="st40" d="M656 588c12 13.5 0 29-1 44 0 14 15 21 27 11.9 15-12 23-31 40.6-8.4 26 34 40 9 40-3.5s-7-29.6 5-38.5"/><path class="st40" d="M763 609c12 9 30-2 28-16.9-.8-5-3-9-4-14-4-22 32-25 13-58"/><path class="st40" d="M808 535c22-1 21-31 7-42-9-7-16-17.5-13-29m-141 20c-18 12.5-39-12-68 10.6M779 463c9.8-6 22-2 34-2 54 0 53-75.5 20.7-55-19 12-22-1-19.7-6.8 4-9 17-9 23-16 5-13-10.9-18-21-17-29 3-32 32-51.5 45-21 15-58 14-74-6.7-7-9-17-14-29-13-23 1.5-29.5 25.5-47 35-34 22-52-27-81.5 3"/><path class="st40" d="M548 438c-13 0-23-10-33-16.9-39-27-69 31-108 29-17-.9-35-10-50 2.7 6 15 2 34 5 49"/></g><defs><linearGradient id="zbd" x1="531.69" y1="69.46" x2="554.66" y2="438.37" gradientUnits="userSpaceOnUse"><stop offset="0" stop-color="#f09a11"/><stop offset=".16" stop-color="#f09613"/><stop offset=".33" stop-color="#f0891b"/><stop offset=".51" stop-color="#f07427"/><stop offset=".69" stop-color="#f05638"/><stop offset=".87" stop-color="#f0304d"/><stop offset="1" stop-color="#f0115f"/></linearGradient><linearGradient id="zbd-2" x1="542.92" y1="235.77" x2="534.97" y2="331.83" gradientUnits="userSpaceOnUse"><stop offset="0" stop-color="#f0e511"/><stop offset=".12" stop-color="#f0e011"/><stop offset=".26" stop-color="#f0d211"/><stop offset=".42" stop-color="#f0ba11"/><stop offset=".58" stop-color="#f09911"/><stop offset=".75" stop-color="#f06e11"/><stop offset=".92" stop-color="#f03b11"/><stop offset="1" stop-color="#f02011"/></linearGradient><style>.zbd-3{fill:none;stroke-linecap:round;stroke-linejoin:round;stroke-width:10px;stroke:#000}</style></defs><path d="M263.9 257.4c-54.1 48.5-21.8 131.7 33.9 164.7 19.9-14.3 33.6-34.7 32.6-60.2 37.7 14.1 79.3 10.7 119.4 7.6 105.8-8.2 216.5 23.6 322.1.2 153.4-62 81.8-200-90.4-125C697.4 131.9 594 86.4 528 138.4c-47.8-30.3-205.7-25.9-141.5 78.4 3.3 15.6 6.2 33.1.3 48.3-38.6-17.2-85.3-41.2-122.9-7.7Z" style="fill:url(#zbd)"/><path d="M387.5 265c99.2 70 203.9 63.7 303.6 29.2a95.3 95.3 0 0 1-8.6-34.4c-93.1 29.5-196.1 15.3-289.1-8.6a118.9 118.9 0 0 1-5.9 13.8Z" style="fill:url(#zbd-2)"/><path class="zbd-3" d="M683.8 246.3c214-87.9 216.6 108.9 66 128.2-91.8 11.7-184.8-11.4-277.2-5.4-48.6 3.1-97.8 7.6-144.5-6.8 5.1 25.8-12.5 44.8-31.8 60.1-58.9-34.9-88.9-126.6-24.7-172.8 79.3-56.9 276.5 176.9 485.7 87.8"/><path class="zbd-3" d="M528 138.4c40.3-37.7 138.7-20.9 149.9 46.5 8.9 53.7-12.7 97.2 38.3 134M539.3 155.8c-42.1-55.2-120.8-35.7-149.2-16.4-51.9 35.4 15.5 61.1-1.5 125.5"/><path class="zbd-3" d="M681.5 260.6c-94.3 28.1-195.1 14.6-288.7-10.4M692 295.4c-69 22.1-138.6 27.5-210.7 16.9"/><path d="M330.6 370.2c56.7 18 118 5.8 177.5 5.1 47.2-.6 94.2 6.3 141.3 9.4s95.5 2.6 140.3-12.4m-32.4-36.8c-72.7 21.9-154 21.4-224.4-8l-18.3-5.5a438 438 0 0 0 179-20.1m-301.7-44.3c32.2 26.4 73.3 38.8 109.8 59" style="opacity:.6;stroke:#000;fill:none;stroke-linecap:round;stroke-linejoin:round;stroke-width:10px"/><path d="M779.1 242c15.9-2.2 33.8.8 44.9 13.3m6.4 12.1a23.7 23.7 0 0 1 .9 9.9M625.2 145.9a39.9 39.9 0 0 1 26.7 24.8m4.7 18 .5 5.6m-187.2-57.6a73.4 73.4 0 0 1 42 15.4m-58.5-15.7a18.2 18.2 0 0 0-4.6.6M326.4 259.2c-13.5-4.8-29.7-7-42.3 1.2m-11.1 8.4-3.1 3.1m398 4.8a228.8 228.8 0 0 1-55.6 11.3m-15.2.9-8.6.3m104.4 26.4a46.3 46.3 0 0 0 10 10.7m108.6 8.7a113.9 113.9 0 0 1-30.5 17.8" style="stroke:#fff;opacity:.8;fill:none;stroke-linecap:round;stroke-linejoin:round;stroke-width:10px"/><path d="M325.7 359c-18.8 17.9-45.4 21.9-69.6 22 4.6 14.5 20.5 27 32.9 35.9 5.1 4.3 11.5 2.1 15.8-2.5 12.7-13.5 30.7-35.8 20.9-55.4Zm217.8-203.1c-2.8-14 5.3-29 18.6-34.2a76.7 76.7 0 0 0-35.8 17.2" style="opacity:.6"/><circle cx="550" cy="550" r="500" style="fill:none;stroke:#000;stroke-width:10;stroke-linecap:round;stroke-linejoin:round;stroke-miterlimit:10"/></svg>