<svg version="1.1" id="Layer_1" xmlns="http://www.w3.org/2000/svg" x="0" y="0" viewBox="0 0 1100 1100" style="enable-background:new 0 0 1100 1100" xml:space="preserve" xmlns:xlink="http://www.w3.org/1999/xlink"><style type="text/css">.st302{fill:#6A10EB;stroke:#000000;stroke-width:10;stroke-linecap:round;stroke-linejoin:round;stroke-miterlimit:10;}</style><circle class="st302" cx="550" cy="553.7" r="500"/><style>.st232{fill:#fff}.st237{fill:#4f4f4f}</style><g id="Layer_58"><path d="M532 209c-68 59.6-70.9 20-120.8 36.5-19.6 10.9-14 30-9.7 39.6 11 23-50.8 9-69 40.3-10 18 0 42-7.5 61.8-9 19.6-34 35-37 52-43 48-154 7-119 70.4 6 11 33-6 39 9.1 7 17.5-39 29-21 46.7 18 5 20.7 39.9 57 63 14 20 3 51 19 69.1 36 38 46-25 41-34.3 4-39 44-10.6 22 38.7-23 52 11 74 36.5 56.6 24-9 13 39 23 50.9 19.5 37 55 12 67 12 18 .7 28 22 29.8 40.3 6.5 63 54 46 59 8 15.5-34 45 49 47 59.9 11 73 69 42 70.8 17.9 3-54-3-60 2-68.3 18.5-31 71 13 90.8-15.5 14-19.7-31-63.5 8-55.4 94 19 19-100.7 14-120.4-9-35.5 14-106 47-121.7 18-9 17-35.5 7-52.8-9.5-17-25-30.6-31-48.9-13.5-54 22-102-36-133.3-5-3-7-9.5-4-14.4 17-26 1-66-32-71.4-22-3-44 9-66.5 6.3C615 247 578.5 178 532 209z" style="fill:#fc6603"/><path class="st232" d="M452 243.6 614 494l-43-15 54 112.5c-92-92-201-164.5-294-257.7 6-46 67-19.6 76-42.4-30-32.4 14-63.4 45-47.8z"/><path class="st237" d="M327 389.5c76 74 148 151 220.5 228.4 0 0-188-133-189-135.5 6-60.8-41-57-44-29.9-12 5-27-6-24-19.3 2.5-7.2 32-35.2 36.5-43.7z"/><path class="st232" d="M744 807.1c-89-73-178-147-273-210.1 32 42 65 84 99 124.6-13-3-25-7-38-10.9 53 51 78 125 126 182.8-.9-61 106 21 101-42.6-3-15.9-13-26.4-15-43.8z"/><path class="st237" d="M799.6 476 585 287.8l101 144.9-93-67c61 99 132 192 182 301.5-10.7-36 29.6-63 32-96.9 24 8 38-22.5 29-42.4-7-19.9-26-34.9-36.4-51.9z"/><path class="st232" d="m802 744-105-67c31 43 65 85 103.5 124.1 15-17.1 7.5-35.1 1.5-57.1zM232 471.3l267 290-106.5-54.8 6 28.1s-60.7-46-60-48.3c3-15-4.5-43-24-41-23 10.6 5 42-18 60.8-53 13.5-39-48-41-59.8-7-36-57-32-47.5-75.7-14 1-32-13-19.8-25.5 60.6-37-9-26.5-19-37-13-13-1-36 15-38.8 15.8-1.3 30.8.5 47.8 2z"/></g><style>.st40{fill:none;stroke:#000;stroke-width:10;stroke-linecap:round;stroke-linejoin:round;stroke-miterlimit:10}.st98{opacity:.6;enable-background:new}</style><g id="Outline"><path class="st98" d="M793 537c-1 .7-1 2-.5 3 5 10 11 35 25 30 8-2 21-13 18-22.4-.5-1-2-2-3-1.5-26 12-28-11-39-9.4v.3zm-34 274.5c6 5 26 8 25-3-6-7-20.6-12-21.5-26C750 772 744 803 759 811.5zm-219.3 52s1 .5 1 .8c9 13.5-3 36-18 40-34 6-9-6-6-44 .3-5.3 22.3 2.7 23 3.2zM342 731c5 7-4 22-4 33 8 13 29.6-5 33-14.9 2-12-17-21-28-20.2-1 .1-1 1.1-1 2.1zm31-120.2c2 23-8 47-26 61.9-13 10.9-17.5-30.6-8-27.9 6 4.2 28-18.8 34-34zm-157-59.9c-8 6-17 3-25 1-11 5 4 20 13.5 16 5-4 12-9 12-15.7-.5-.2-1.5-.2-.5-1.3zM337 473c-6-10-3-23 0-34 0-1 0-2-.6-2-9-9-23 11-19.8 20.7C318 463 338 475 337 472.8v.2z"/><path class="st98" d="M326 392c-2 29 24 45 7 44-7 2-14 1-15 11-1 11-24 0-24.5-1.3C285 433 317 404.5 326 392zm103-118c-9.9-4-16-16-18-25-4-6-9.9 1-11 6-7 54 29.5 28 29 19zm293 9c16 21 29.5 12 40 20.7 3 4 1 9.6-1 14-3 9-13 9-20 4.1-14.5-5.8-22-22.2-19-38.8z"/><path class="st40" d="M347 729c53.5 5 15 86 59 102 25 9 37-19.8 55-11.9 23 10.1 19.6 40 24 60.7 9.6 46 63 29.6 58-12.8"/><path class="st40" d="M519 861c89-9 47.5 119 114.5 115 39-6 35-47 25-76.5-3-9 0-18.5 7-24.5 24.5-21 59 15.5 84-2.5 15-11 8-33-2-45-12-15 0-32 10-43"/><path class="st40" d="M790 539c53 69.8-64 71 8 194.5 6 14 11 32 11 48.5 0 32-49 47.5-61 16"/><path class="st40" d="M721 287c2 51 64 31 74 88 6 34-11.5 71 7 103 10 18 27 31.5 34 51 8 19-4 47-27 42"/><path class="st40" d="M407 290.6c-16-8-12-29.9-2-41 17-15 40.5-10 61-6 29.8 1 49-29 75-38 50-17 81 55 133 44 23-5 48-11 69 1 25 14 33 55 10 75"/><path class="st40" d="M428 278c-16 26.5-51 17.5-76 28.5-20 10.5-28 33-23 55 10 47-43 51-39 88m25 4.5c1.5-23 35-26 41-5 7 25-13 47 16 72"/><path class="st40" d="M334 476c-20-34-61-31.5-89-9.6-20 8-43-3-64 4-22 7-28 37-5 43.5 6.5 2 23-2 26-1 15 4 11 25-5 30-21 6-10 29 6 29"/><path class="st40" d="M216 554.5c-15 15-14 41 2 55 37 22 41 31 36 69.7-2 31 46 41 53.5 10 2-10.8-4-22 0-33 13-32 44 20 62-44.5"/><path class="st40" d="M327 647.9c25 29.7-.5 47-7 75-10 32.5 34 65 53 25"/><path d="M729 262.5c9 4 16 13 18 22.5m-193-68c12.5 2 24.5 8 34 16m9 9 3 3m-163 10c-5.5-.9-12 .6-15.5 4M362 319.6c-9 2-14 10.7-16 19M339 449c4 1 6 6 6 9.8M308.5 470c-12-6-16-5-22-4M175 492c1-4 5-7 9-7.5m38 89.5c-4 8 0 16 4 19.9m44 78.6c-1 6 1 15 9 18m76-77.5c-3 14-13 14.5-16 16m4.5 119.5c-5-3-9-9-8-15M397 782c-1 14.5 7 28 14 30m90 53.9c-3 12 2 27 14.5 25M636 957c14-3 17-28 11-38m96-60.1c1-7 0-14-4-19m46-49.1c8-6.5 9-25 3-39M786 582c5-8 3-19-3-26m37-12c2-8.5-.6-18-7-24m-56-169c18 6 22 30 21 35" style="opacity:.7882;fill:none;stroke:#fff;stroke-width:10;stroke-linecap:round;stroke-linejoin:round;stroke-miterlimit:10;enable-background:new"/></g><style>.st40,.st68{fill:none;stroke-width:10;stroke-linecap:round;stroke-linejoin:round;stroke-miterlimit:10;stroke:#000}.st68{opacity:.6;enable-background:new}</style><g id="Eye"><linearGradient id="SVGID_00000144327888440828662330000012949225208094602647_" gradientUnits="userSpaceOnUse" x1="232.314" y1="-555.531" x2="336.458" y2="-482.43" gradientTransform="translate(0 1066)"><stop offset="0" style="stop-color:#00ff04"/><stop offset=".811" style="stop-color:#00fccf"/><stop offset="1" style="stop-color:#00fbff"/></linearGradient><path style="fill:url(#SVGID_00000144327888440828662330000012949225208094602647_)" d="M278 494c-31 10.8-13 49-9.5 56 8 16-9 32.5 9 50.8 9 9 46 8 40.7-31-2-13-13-23-13.5-35.8-.7-21-3.7-48-26.7-40z"/><path d="M273 498c-6.5 9-1 22 4 30.8 6 8 13 15 14 25 2 14-6 31 3 43.7 15 18 30.6-23 23-35-3-7-8-13.5-10-20.8-5-16 2-45-21-49" style="opacity:.5098;fill:#fff;enable-background:new"/><path class="st68" d="M274 516c9 24.5 14 39 18 64"/><path class="st40" d="M278 494c-31 10.8-13 49-9.5 56 8 16-9 32.5 9 50.8 9 9 46 8 40.7-31-2-13-13-23-13.5-36C304 513 301 486 278 494z"/><path class="st40" d="M282 526c6 17 10.5 35 14 53"/><path d="M279 515c1 4 2 7 3.5 11m24.5 46.9c1 5 1.5 13-5 19" style="fill:none;stroke:#fff;stroke-width:10;stroke-linecap:round;stroke-linejoin:round;stroke-miterlimit:10"/><path class="st68" d="M264 495.9c-15.5 19-6 44 1 65 3 9-3 18-1 27 4 24 31 31 46 12"/></g><style>.st40,.st68{fill:none;stroke-width:10;stroke-linecap:round;stroke-linejoin:round;stroke-miterlimit:10;stroke:#000}.st68{opacity:.6;enable-background:new}</style><g id="Gold_Grillz"><linearGradient id="SVGID_00000054261759252241486330000007195404835055001745_" gradientUnits="userSpaceOnUse" x1="657.269" y1="-434.524" x2="664.275" y2="-229.326" gradientTransform="rotate(-5.371 12728.238 901.119) scale(.99999)"><stop offset="0" style="stop-color:#fe0"/><stop offset="1" style="stop-color:#ff4800"/></linearGradient><path style="fill:url(#SVGID_00000054261759252241486330000007195404835055001745_)" d="M436 684.2c-14.5 42 40 71 61 127 23 28 58-7 102 16 48 24 58-2 72-43 17-50 82-14 64-90.9-9-38-40.7-4-50 2-47 32-55-31-95 47-24 33-39.6-39.7-71-42-30-4-64 20.7-83-16.3v.2z"/><path d="M488 719c1 10 1 19.9 2 29.9m1 12.1c0 2 0 3 .5 5m73.5.5c0 6 0 12.5 1 19m.5 10.5v3m73.1-72c2 20 6 41 8 61m1.4 12.6v3m43-95.6c1 7 3 14 4 21m2 12v2" style="fill:none;stroke:#fff;stroke-width:10;stroke-linecap:round;stroke-linejoin:round;stroke-miterlimit:10"/><path class="st68" d="M428.5 670.9c-22 61 23 71 49 110.7 4 7 13 33 19 38 26 18 62-8 106 13 74 36 65-41 86-61.5 20-19.9 56-17 54-54-.5-10.5-3-28 6-36"/><path class="st68" d="M734 691c-48-21-26 24-107 17-26-2-22 62-59 47-18-10.6-22-36-40-45.2-32-13-68 19-94-17"/><path class="st68" d="M509 700c2 39 6 78 7 118m69-65.5 6 66.5m67-114c0 26 6 53 9 81m41-105 11 60.9"/><path class="st40" d="M424 659c44 103 85-17 135.5 78 5 7 13 13 22 10.9 21-4 18-36 34-46 20-11 47 11 68-8 37-42 42 0 64-15.9 10.7-8 0-37 10.6-52"/><path class="st40" d="M432 682c-8 40 19 63 46 90 12 12 7 41 29 48 12 4 41-4 54-3.6 53 1 86 56 106-23 16-65 78-16 68-109"/><path class="st40" d="M500 701c4 39.7 7 79 9 119m67-69c1 22 3 44 6 65m70-111c-2 17.5 11 80 12 98m38.5-121c2 21 6 42 10.5 63"/></g><style>.st114,.st40{fill:none;stroke:#000;stroke-width:10;stroke-linecap:round;stroke-linejoin:round;stroke-miterlimit:10}.st114{opacity:.6}</style><g id="suspicious_eye"><path d="M719 485.7c-75 34-164 43-245 39-79.5-4-88 69-8 79.6 62 8 254-20 290-73.1 22-30.2-4-60.2-37-45.5z" style="fill:#fff"/><path d="M574 545.3c1 17.5 0 35-5 52.2l56-9.9-16.5-30.5-34.5-11.8z"/><linearGradient id="SVGID_00000126282863442437977090000011937741723992343478_" gradientUnits="userSpaceOnUse" x1="587.88" y1="506.723" x2="601.628" y2="614.919"><stop offset="0" style="stop-color:#b0f"/><stop offset="1" style="stop-color:#f04"/></linearGradient><path style="fill:url(#SVGID_00000126282863442437977090000011937741723992343478_)" d="M662 508.1c13 16 19 46 13 65.8.5 0-49 15-49 14.6-27-20.5-5.5-57.5-26-66.7-46-4-15 52-33 76.7 0 0-43 3-43 2.9-13-21-19.5-53-3-73.9 48-3.5 94-8.5 141-19.4z"/><path class="st40" d="M719 485.7c-75 34-164 43-245 39-79.5-4-88 69-8 79.6 62 8 254-20 290-73.1 22-30.2-4-60.2-37-45.5z"/><path class="st40" d="M519.8 527.9c-13 23-7 52 4 75M661 508.4c17.5 17.5 19 42 14 66m-111 25.8c23-20.9-12-81 34-78.9 26 4 0 48 28 66"/><path class="st40" d="M575 533.1c3 15 18 26 34 24m121-96.7c23-5 37 2 48 21m-357 27c-14 4-25 16-29 29.9"/><path class="st114" d="M419.6 506.5c-15.5 2-28 15-29 30.8M729 456.8c19-9 41 3 50 20.9m-369 77.1c-22 112 366 41 355-46"/><path class="st114" d="M417.5 545.8c28-16 63-17.5 94-12.8-5 22-5 46 5 66M668 510.9c29.8-5 57-29 88-20.6"/><path d="M655 521.9c5 8 8 17 8 26m-1 12.1v3" style="opacity:.7804;stroke:#fff;fill:none;stroke-width:10;stroke-linecap:round;stroke-linejoin:round;stroke-miterlimit:10"/></g><defs><style>.zbh-2{fill:none;stroke-linecap:round;stroke-linejoin:round;stroke-width:10px;stroke:#000}</style></defs><path d="M357.3 453.9c38.6 2 75-22.4 99.5-51.8 36 15 77.1 7.7 106.9-18.6 35.3 9.6 78.1 10 106.7-15.6 25.8 8.2 55.4 3.6 78.2-11.2 13.7 7.9 29.3 12.5 44.9 14.4 5 9.7 2.2 21.7 5.1 32 50.5-20.7 54.9-96.4 15.3-130.4-7.4-53-59.9-90.3-113.1-79-39.7-40.8-96.6-35.9-143.6-10-45.6-24.8-82-17.6-121.6 13.4-60.9-16.5-119.9 24.2-131.3 85.2-41.6 3.5-71.1 47.4-52 86.8-20.1 26.5-28.6 64.7-11.7 94.9 21.9-13 47.9-18.8 72.3-10.7 6.9-22.4 39.3-25 44.4.6Z" style="fill:#ff5e00"/><path class="zbh-2" d="M466.3 372.6c-3.4 44.7-65.7 83.2-107.4 81.6"/><path class="zbh-2" d="M560.5 384.4c-22.9 29.9-69.5 29.2-103.3 19m221.1-46c-31 42.4-94.7 40.2-135.4 13.1m127.1-1.6c33.4 10.4 71.9-.9 94.4-27.6"/><path class="zbh-2" d="M748.3 356.8a85.4 85.4 0 0 0 60.1 10.5"/><path class="zbh-2" d="M790.5 266.1c66.3 11.6 64.4 116.9 4.8 138.1a71.2 71.2 0 0 0-1.3-33.4"/><path class="zbh-2" d="M814.8 273.6c-3.9-60.2-83-106.3-133.9-67.8"/><path class="zbh-2" d="M701.8 194.1c-38.8-43.6-112.8-43.2-151.2.7"/><path class="zbh-2" d="M560.5 185.1c-49.9-31.6-113.8-14.7-133 31.8"/><path class="zbh-2" d="M436.8 197.2c-64.9-20.9-136.3 34.6-132.1 102.7"/><path class="zbh-2" d="M305.3 282.9c-44.3-2.7-69.9 49.5-53.2 87.4"/><path class="zbh-2" d="M274.8 360.1c-44 10.4-55 70-34.1 107.1 23.1-14.5 45.6-24.2 74.4-12.4.4-24.3 39.2-28.5 42.2-.6"/><path d="M797.1 281.9a35.6 35.6 0 0 1 20.7 20.6m3.9 11.6a16.8 16.8 0 0 1 .9 3.2M754.7 211a55.5 55.5 0 0 0-32.2-6.7m-12 2.5-3.4.9M627 175.3a90.3 90.3 0 0 0-34.4 6.9m-10.7 6-3.2 1.8m-86.6-6.8a52.9 52.9 0 0 0-28.4 11.8m-10.9 9.7-4.6 4m-87.1 12.8a85.4 85.4 0 0 0-23.8 22.2m-6.6 10.5-1.6 2m-64.3 67.4a50.4 50.4 0 0 0-5 19.8m-9.6 56.7a61.4 61.4 0 0 0-5 27.7m199.7-37.7a89.2 89.2 0 0 1-30.5 28.7m-11.9 6.2-4.9 1.9M538.3 388a56.5 56.5 0 0 1-22.7 6.5m-11.9.5-2.4-.1m157.3-36a81.4 81.4 0 0 1-47.3 15.3m-14.4-1.3-2.6-.2m125.2-16.1a77.1 77.1 0 0 0 23-12.2m-39.2 15.4 3.2-.3m74.4-4.5a39.9 39.9 0 0 0 14.6 1.2" style="stroke:#fff;fill:none;stroke-linecap:round;stroke-linejoin:round;stroke-width:10px"/><path d="M360.3 462.6c37.6-2.2 73.7-20.9 98-49.9 37.5 8.6 78.6 5.9 108.2-22.4 34.9 13.6 76 7.5 106.4-15.1 25.1 7.9 53.7 3.4 76.1-11.6a72.5 72.5 0 0 0 41.9 12.1" style="opacity:.6;stroke:#000;fill:none;stroke-linecap:round;stroke-linejoin:round;stroke-width:10px"/><path d="M812.6 368.9a69.1 69.1 0 0 1-14.2 31.4c.3-10.1.6-20.3-2.6-29.8m-9.2-106.3c6.4-11.8 9.6-26.3 4.6-39.1 7 1.3 21.6 27.2 21.9 47.7m-136.5-68a47.1 47.1 0 0 0-9.2-33.9c13 3.6 26.1 12 33.5 23.2m-153.7 2.4A43.3 43.3 0 0 0 525 173c11.6 2.9 23.8 6.1 32.7 14.1m-133.8 31.8c-5.5-13.7-20-21.2-33.9-23.8 14.4-2 34.6-2.2 45.7 4.5m-133 103.3c-13.1-5.1-31.4-3.5-42.7 4.8 11.3-12.8 26.9-24 44.6-23.5m166.5 87.1a45.8 45.8 0 0 0 17.7 37c-9.7-4.3-20.6-2.4-30.6-4.9m224.7-46.9c.5 5.6 2.9 11.6 8.2 14.3a116.8 116.8 0 0 1-16.7-4.3m94.9-24.6c-1.5 8 1 18.5 7.2 23.8-8-4.5-18.5-2.5-25.5-8.9" style="opacity:.6"/><style>.st40{fill:none;stroke-width:10;stroke-linecap:round;stroke-linejoin:round;stroke-miterlimit:10;stroke:#000}</style><g id="UFO"><linearGradient id="SVGID_00000052093412861450223020000006077325903456914337_" gradientUnits="userSpaceOnUse" x1="88.118" y1="817.204" x2="984.044" y2="404.238" gradientTransform="matrix(1 0 0 -1 0 1100)"><stop offset="0" style="stop-color:#0fe"/><stop offset=".119" style="stop-color:#00eaf0"/><stop offset=".366" style="stop-color:#00b3f3"/><stop offset=".717" style="stop-color:#005cfa"/><stop offset="1" style="stop-color:#01f"/></linearGradient><path style="opacity:.5882;fill:url(#SVGID_00000052093412861450223020000006077325903456914337_);enable-background:new" d="M173 747.6c7 19.5 25 35 45 39.8 15 4 31 2 45 9 17 9 24 30.1 39 42 21 16 49.9 12 75 19.5 32 9.7 57 39 91 39 22 0 43-14 65-13 29.7 2 56 32 85 22 19-6 33-29.7 47-34.3 15-5 42 5 63 0 23-5.8 36-31 58-40 20-8 44-2 64-10.9 21-9.7 31-36 53-44.7 18-6 52-9 44-33.5-13-42-8-70 3-107 8-43.5-25-88-15-130.7 23-101 25-80-19-146.8-8-12-13-25-16-38.9-14-67-8-52.5-73-108-48-68-29-71.5-117-87-50.5-24-57.5-49-114-17.5-42.5 17-94-20-136.5-2-14 6-24 20-38 28-28 16-64 8-93 23-35 19-45 66-76 91.6-25 20-64 25-79.8 54-15 27-1 63-13 92-9 21-31 35-42 55-28 52 14 77 24 120.9 2 18-7 36-1 53 5 14 18 24 23 37.9 8.3 26-2.7 55 9.3 87.6z"/><linearGradient id="SVGID_00000014634002599790706590000007480268852462571909_" gradientUnits="userSpaceOnUse" x1="51.144" y1="546.313" x2="924.144" y2="144.313" gradientTransform="matrix(1 0 0 -1 0 1100)"><stop offset="0" style="stop-color:#0fe"/><stop offset=".119" style="stop-color:#00eaf0"/><stop offset=".366" style="stop-color:#00b3f3"/><stop offset=".717" style="stop-color:#005cfa"/><stop offset="1" style="stop-color:#01f"/></linearGradient><path style="fill:url(#SVGID_00000014634002599790706590000007480268852462571909_)" d="M78 694c136 465 796 470 953 3-51-46-72-7-89.9-23-17 109.9 58 54-57 117.5-57 57-26 22-98 41.5-73 63-99 32-114 40-72 38-38 48.5-124 15-68-26-46 45-168-30-98-9.6-60.7-17-122.5-64.2-115-7-76.5-94-93-132.5-21 12-59.6-33-66-4C95 665 108 681 78 694z"/><linearGradient id="SVGID_00000040570000435657401070000006676274140463924904_" gradientUnits="userSpaceOnUse" x1="470.203" y1="186.441" x2="598.203" y2="127.441" gradientTransform="matrix(1 0 0 -1 0 1100)"><stop offset="0" style="stop-color:#ff00b7"/><stop offset=".112" style="stop-color:#ea01bd"/><stop offset=".345" style="stop-color:#b305cc"/><stop offset=".674" style="stop-color:#5c0be5"/><stop offset="1" style="stop-color:#01f"/></linearGradient><path style="fill:url(#SVGID_00000040570000435657401070000006676274140463924904_)" d="M469 947.5c9.5 15 165 18 137-7-30-11.5-117-22.5-137 7z"/><linearGradient id="SVGID_00000078735920158305873170000016324894399582867873_" gradientUnits="userSpaceOnUse" x1="475.835" y1="134.644" x2="581.835" y2="85.644" gradientTransform="matrix(1 0 0 -1 0 1100)"><stop offset="0" style="stop-color:#f0b"/><stop offset=".112" style="stop-color:#ea01c1"/><stop offset=".345" style="stop-color:#b305cf"/><stop offset=".674" style="stop-color:#5c0be6"/><stop offset="1" style="stop-color:#01f"/></linearGradient><path style="fill:url(#SVGID_00000078735920158305873170000016324894399582867873_)" d="M476 990.9c4 17.5 131 19 113-1-24-15.9-110-14.9-113 1z"/><linearGradient id="SVGID_00000040576056771940554690000009644892743006637244_" gradientUnits="userSpaceOnUse" x1="723.734" y1="198.854" x2="762.734" y2="127.854" gradientTransform="matrix(1 0 0 -1 0 1100)"><stop offset="0" style="stop-color:#f0b"/><stop offset=".112" style="stop-color:#ea01c1"/><stop offset=".345" style="stop-color:#b305cf"/><stop offset=".674" style="stop-color:#5c0be6"/><stop offset="1" style="stop-color:#01f"/></linearGradient><path style="fill:url(#SVGID_00000040576056771940554690000009644892743006637244_)" d="M693.5 956c46 15 78.5 1 97-43.2-29-5-88.5 10-97 42.9v.3z"/><linearGradient id="SVGID_00000029764979584713055750000007202888973149945790_" gradientUnits="userSpaceOnUse" x1="715.955" y1="175.902" x2="767.955" y2="151.902" gradientTransform="matrix(1 0 0 -1 0 1100)"><stop offset="0" style="stop-color:#0fe"/><stop offset=".119" style="stop-color:#00eaf0"/><stop offset=".366" style="stop-color:#00b3f3"/><stop offset=".717" style="stop-color:#005cfa"/><stop offset="1" style="stop-color:#01f"/></linearGradient><path style="fill:url(#SVGID_00000029764979584713055750000007202888973149945790_)" d="M736.5 962.4c47-6 33-29 25-46-4.5-4-75.5 2-25 45.6v.4z"/><linearGradient id="SVGID_00000105387854398217304660000015504163398393846920_" gradientUnits="userSpaceOnUse" x1="343.873" y1="238.715" x2="309.873" y2="134.715" gradientTransform="matrix(1 0 0 -1 0 1100)"><stop offset="0" style="stop-color:#d0f"/><stop offset=".127" style="stop-color:#c802ff"/><stop offset=".391" style="stop-color:#9106ff"/><stop offset=".765" style="stop-color:#3a0dff"/><stop offset="1" style="stop-color:#01f"/></linearGradient><path style="fill:url(#SVGID_00000105387854398217304660000015504163398393846920_)" d="M276 876.8c23 69.8 104 63.5 107 56.9-12-45.7-62-78.7-107-56.9z"/><linearGradient id="SVGID_00000103960858358242042230000018149012917894115987_" gradientUnits="userSpaceOnUse" x1="298.825" y1="209.619" x2="361.825" y2="180.619" gradientTransform="matrix(1 0 0 -1 0 1100)"><stop offset="0" style="stop-color:#0fe"/><stop offset=".119" style="stop-color:#00eaf0"/><stop offset=".366" style="stop-color:#00b3f3"/><stop offset=".717" style="stop-color:#005cfa"/><stop offset="1" style="stop-color:#01f"/></linearGradient><path style="fill:url(#SVGID_00000103960858358242042230000018149012917894115987_)" d="M304 895.5c-17 26 44 59.9 56 26 19.5-28-40.8-67-53-32l-3 6z"/><path class="st40" d="M173 748c7 19.5 25 35 45 39.8 15 4 31 2 45 9 17 9 24 30 39 41.7 21 16 49.9 12 75 19.5 32 9.7 57 39 91 39 22 0 43-14 65-13 29.7 2 56 32 85 22.1 19-6 33-29.5 47-34 15-5 42 5 63 0 23-5.8 36-31 58-40 20-8 44-2 64-10.9 21-9.7 31-36 53-45 18-6 52-9 44-33.5-13-42-8-70 3-107 8-43.5-25-88-15-130.7 23-101 25-80.5-19-147-8-12-13-25-16-38.9-14-67-8-52.5-73-108-48-68-29-71.5-117-87.4-50.5-24-57.5-49-114-17.5-42.5 17-94-20-136.5-2-14 6-24 20-38 28-28 16-64 8-93 22.7-35 18.5-45 66-76 92-25 20-64 25-79.8 54-15 27-1 63-13 92-9 21-31 35-42 55.3-27.5 52 14 77 24 120.9 2 18-7 36-1 53 5 14 18 24 23 37.9 8 26-3 55 9 87.6v.4z"/><path class="st40" d="M943 675c17 19 39.7-17 64 4 7 6 10 16.5 21 16m-928-16c-14-14 3-39 20.6-29.9 15 8 24 21 43 13.5"/><path class="st40" d="M112 674.9c-11 8-24 14-37 17m186 189c56-30 115 4 126 65"/><path class="st40" d="M273 877c14 43 66 73 109 57m422-19c-46-16-99 9-122 51"/><path class="st40" d="M791 912c-15 49-62.5 59.9-99.7 44M612 945.5c-2-20.5-144-21-145 3 0 14.5 147 18.5 145-3zM592 993c.9-15-118-25-118-1 1 13 117 21 118 .8v.2z"/><path class="st40" d="M717 929.6c-1 12 5 24 14 32m26-49.6c9 7 15 18 16 29.8M320 873c-11 9.6-19 24-20 38.5m65-13.5c3.5 13-8 34-20 39"/><path d="M844.5 257c14 7 24 20 27 35m3.5 27v6m46 84.9c8 12 10.5 29 5 43M741 154c14 4 27 14 34 26m-142-65c12 0 23 5 31 13.5M917 575c8 17 11 36 9 54m-8.5 27-1.5 7.5" style="opacity:.6392;stroke:#fff;stroke-width:20;enable-background:new;fill:none;stroke-linecap:round;stroke-linejoin:round;stroke-miterlimit:10"/><path d="M171 740c4 61 68 53 79 58 47.5 23 36 59 105 60.5 40 1 64 33 99 44 29 6 58-12 88-9 27 3 52 26 79 18 49.8-25 16-38 107.5-34 23 1 36-27 55-37.1 46-18 66.5 5 103-45 24-32 65-12 62-46M266 880c19.5 47 66 72 116 59m87 11c12 21 132 23 143-1m-136 45c15 21 99 23 115 3m96-33c48 15 89 1 109.5-47M112 674.9c-8 3-16.5-6-15-17" style="opacity:.6;enable-background:new;stroke:#000;fill:none;stroke-width:10;stroke-linecap:round;stroke-linejoin:round;stroke-miterlimit:10"/><path d="M986 688c6-.5 12 3 15 8m9 7 3 2m-902-44c4 0 8 1 11 4m9 8 4 1m217 226.5c1 5-.5 9.6-3 14m-6 8.5-2.3 2m409.3 0c4 3 7 7 9 12m-214 5c12-1 24 0 35 3m-40.2 45.5c8-1 16 0 24 1.5" style="fill:none;stroke:#fff;stroke-width:10;stroke-linecap:round;stroke-linejoin:round;stroke-miterlimit:10"/></g><circle cx="550" cy="550" r="500" style="fill:none;stroke:#000;stroke-width:10;stroke-linecap:round;stroke-linejoin:round;stroke-miterlimit:10"/></svg>