<svg version="1.1" id="Layer_1" xmlns="http://www.w3.org/2000/svg" x="0" y="0" viewBox="0 0 1100 1100" style="enable-background:new 0 0 1100 1100" xml:space="preserve" xmlns:xlink="http://www.w3.org/1999/xlink"><style type="text/css">.st302{fill:#6A10EB;stroke:#000000;stroke-width:10;stroke-linecap:round;stroke-linejoin:round;stroke-miterlimit:10;}</style><circle class="st302" cx="550" cy="553.7" r="500"/><path d="M533 208.9c-68 59.6-71 20-121 36.5-19.6 10.9-14 30-9.7 39.6 11 23-51 9-69 40.3-10 18 .1 42-7.5 61.8-9 19.6-34 35-37 52.2-43 48-154 7-119 70.4 6 11 33-6 39 9.1 7 17.5-39 29-21 46.7 18 5 21 39.9 57 63.2 14 20 3 51 19 69.1 35.8 38 46-25 41-34.3 4-39 44-11 22 38.7-23 52 11 74 36.5 56.6 38.5-10.5-14 99.9 89.9 62.9 18 1 28 22 29.8 40.3 6.5 63 54 46 59 8 15.5-34 45 49 47 59.9 11 73 69 42 71 17.9 3-54-3-60.1 2-68.3 18.5-31 71 13 90.8-15.5 14-19.7-31-63.5 8-55.4 94 19 19-101 14-120.4-9-35.5 14-106 47-121.7 18-9 17-35.5 7-52.8-9.5-17-25-30.6-31-48.9-13.5-54 22-102-36-133.3-5-3-7-9.5-4-14.4 17-26 1-66-32-71.4-22-3-44 9-66.5 6.3-43.3-5-79.7-74-126.3-43.1z" style="fill:#6e6e6e"/><path d="M551 531.2c-4 3-8-6-7-10.6 4-11 19.9-5 21 5.1 2 20.5-29 26-35 8.3-21-61 99.7-54 64 5.1-54 90.6-144-47-56-74.4 130.8-41 127 189-29.6 124.6-72-29.7-55-145 2-180.5 135-85 249 165 93 228.2-143 57.5-250.6-133-173-249.8 107-159.7 406.5-57 311 228.4-70.5 210.6-543 143-434-182.1C352 299 516 201 654 250.8c30 0 126.5-31 113 52-33 55 26 7 31 79.3 0 86-26 50 41 148 9 23-7 48-33 45.2-1 40-60 47-9 153.5 38 78-20 102-49.7 72.9-8 15.5 47 92.5-37 69.6-30-10.8-57 1-48 35.8 19 70.6-30 79.7-53 58.5-28-26-21-98-63-99.5 8 29.8-35 59-54 29.1-11-24-6-70-35-79.2 42-25 95-13 141-23.5C757 756 824 534.5 761 388.2c-64-146-280.5-139-361-10.4-65 104-36 285 99 311.6 252 49.5 279.7-339.5 82-329-188 9.9-179 317 14 246.8 76-28 70.5-116 2-162.2-61-41-141 47-97 103.9 65 85 178.5-53 64-70-52-8-65.5 82-9.8 75.2 11-1 21-12 22-23.1 2-29.7-43-31-38-.8 2 11 19.5 14 21 1.8-.2-5-1.2-6.2-8.2-.8z" style="fill:#d9d9d9"/><style>.st40{fill:none;stroke:#000;stroke-width:10;stroke-linecap:round;stroke-linejoin:round;stroke-miterlimit:10}.st98{opacity:.6;enable-background:new}</style><g id="Outline"><path class="st98" d="M793 537c-1 .7-1 2-.5 3 5 10 11 35 25 30 8-2 21-13 18-22.4-.5-1-2-2-3-1.5-26 12-28-11-39-9.4v.3zm-34 274.5c6 5 26 8 25-3-6-7-20.6-12-21.5-26C750 772 744 803 759 811.5zm-219.3 52s1 .5 1 .8c9 13.5-3 36-18 40-34 6-9-6-6-44 .3-5.3 22.3 2.7 23 3.2zM342 731c5 7-4 22-4 33 8 13 29.6-5 33-14.9 2-12-17-21-28-20.2-1 .1-1 1.1-1 2.1zm31-120.2c2 23-8 47-26 61.9-13 10.9-17.5-30.6-8-27.9 6 4.2 28-18.8 34-34zm-157-59.9c-8 6-17 3-25 1-11 5 4 20 13.5 16 5-4 12-9 12-15.7-.5-.2-1.5-.2-.5-1.3zM337 473c-6-10-3-23 0-34 0-1 0-2-.6-2-9-9-23 11-19.8 20.7C318 463 338 475 337 472.8v.2z"/><path class="st98" d="M326 392c-2 29 24 45 7 44-7 2-14 1-15 11-1 11-24 0-24.5-1.3C285 433 317 404.5 326 392zm103-118c-9.9-4-16-16-18-25-4-6-9.9 1-11 6-7 54 29.5 28 29 19zm293 9c16 21 29.5 12 40 20.7 3 4 1 9.6-1 14-3 9-13 9-20 4.1-14.5-5.8-22-22.2-19-38.8z"/><path class="st40" d="M347 729c53.5 5 15 86 59 102 25 9 37-19.8 55-11.9 23 10.1 19.6 40 24 60.7 9.6 46 63 29.6 58-12.8"/><path class="st40" d="M519 861c89-9 47.5 119 114.5 115 39-6 35-47 25-76.5-3-9 0-18.5 7-24.5 24.5-21 59 15.5 84-2.5 15-11 8-33-2-45-12-15 0-32 10-43"/><path class="st40" d="M790 539c53 69.8-64 71 8 194.5 6 14 11 32 11 48.5 0 32-49 47.5-61 16"/><path class="st40" d="M721 287c2 51 64 31 74 88 6 34-11.5 71 7 103 10 18 27 31.5 34 51 8 19-4 47-27 42"/><path class="st40" d="M407 290.6c-16-8-12-29.9-2-41 17-15 40.5-10 61-6 29.8 1 49-29 75-38 50-17 81 55 133 44 23-5 48-11 69 1 25 14 33 55 10 75"/><path class="st40" d="M428 278c-16 26.5-51 17.5-76 28.5-20 10.5-28 33-23 55 10 47-43 51-39 88m25 4.5c1.5-23 35-26 41-5 7 25-13 47 16 72"/><path class="st40" d="M334 476c-20-34-61-31.5-89-9.6-20 8-43-3-64 4-22 7-28 37-5 43.5 6.5 2 23-2 26-1 15 4 11 25-5 30-21 6-10 29 6 29"/><path class="st40" d="M216 554.5c-15 15-14 41 2 55 37 22 41 31 36 69.7-2 31 46 41 53.5 10 2-10.8-4-22 0-33 13-32 44 20 62-44.5"/><path class="st40" d="M327 647.9c25 29.7-.5 47-7 75-10 32.5 34 65 53 25"/><path d="M729 262.5c9 4 16 13 18 22.5m-193-68c12.5 2 24.5 8 34 16m9 9 3 3m-163 10c-5.5-.9-12 .6-15.5 4M362 319.6c-9 2-14 10.7-16 19M339 449c4 1 6 6 6 9.8M308.5 470c-12-6-16-5-22-4M175 492c1-4 5-7 9-7.5m38 89.5c-4 8 0 16 4 19.9m44 78.6c-1 6 1 15 9 18m76-77.5c-3 14-13 14.5-16 16m4.5 119.5c-5-3-9-9-8-15M397 782c-1 14.5 7 28 14 30m90 53.9c-3 12 2 27 14.5 25M636 957c14-3 17-28 11-38m96-60.1c1-7 0-14-4-19m46-49.1c8-6.5 9-25 3-39M786 582c5-8 3-19-3-26m37-12c2-8.5-.6-18-7-24m-56-169c18 6 22 30 21 35" style="opacity:.7882;fill:none;stroke:#fff;stroke-width:10;stroke-linecap:round;stroke-linejoin:round;stroke-miterlimit:10;enable-background:new"/></g><defs><linearGradient id="zad" x1="599.92" y1="836.25" x2="638.8" y2="836.25" gradientUnits="userSpaceOnUse"><stop offset="0" stop-color="#0800ff"/><stop offset="1" stop-color="#ff00f7"/></linearGradient><linearGradient id="zad-2" x1="667.03" y1="869.12" x2="684.63" y2="925" gradientTransform="rotate(16.9 677.175 899.736)" gradientUnits="userSpaceOnUse"><stop offset="0" stop-color="#0dff31"/><stop offset=".36" stop-color="#faee0c"/><stop offset=".36" stop-color="#fae60c"/><stop offset=".41" stop-color="#f8a40c"/><stop offset=".44" stop-color="#f7700c"/><stop offset=".48" stop-color="#f64a0c"/><stop offset=".5" stop-color="#f5330c"/><stop offset=".52" stop-color="#f52b0c"/><stop offset=".68" stop-color="#f50ca0"/><stop offset="1" stop-color="#0defff"/></linearGradient><style>.zad-2{fill:#660024}.zad-4{fill:none;stroke:#000;stroke-linecap:round;stroke-linejoin:round;stroke-width:10px}</style></defs><path d="M675.8 797c46.2-21.9 84.1-91.5 12.4-105.5-33-6.4-63.7 18.4-96.5 17.6-34.7-.9-66.6-24.3-102.8-12.6-33.6 10.9-38.2 48.9-15.1 72.3 15.2 15.3 50.7 31.5 62.2 32.6 26.6.8 139.8-4.4 139.8-4.4Z"/><path d="M720.4 878.8c12.9-9.9 6.4-31.5-5.6-39.7-16.6-11.4-26.1-2.8-40.4-39.7-12-31-46.5-40.3-74.1-21.9-28.2-10.1-65.9-11.9-86.1 14 9.4 9.9 24.5 10.1 37.1 13 44.5 10.1 20.1 112.8 61.5 77.5 15.1 23.2 24.3 56.1 56.1 59.4 32.1 5.8 79.2-30.4 51.5-62.6Z" style="fill:#ff0059"/><path class="zad-2" d="M624.6 800.1c-29.3-16.2-66.3-25-95.3-4.2-2.6.6-15.9-1.2-12.9-5.1 30.9-25.3 83.3-26.6 108.2 9.3Z"/><path class="zad-2" d="M637.5 809.4c-8.8-9.8-5.9-28.3 3.5-36.8-11.7-3.3-25.9-3.1-35.2 5.7 11.3 8.2 21.1 18.5 31.7 31.1Z"/><path d="M461.8 725.3c22.8 37.4 66.4 14.2 67.9-28.3-5.1 47.8 55.7 68.8 62.2 14 6.4 55.9 67.8 39.1 59-12.9 5 40 56.8 52.7 65.6 7.8-31.5-31.8-76.5-3.7-112.8 1.8-47.6 7.2-111.9-49.1-141.9 17.6Z" style="fill:#fff"/><path class="zad-4" d="M604.9 870.9c27.4 25.1 17.7 66.9 68.9 70.7 24.9 1.9 58.9-18.3 54.8-46.2-2.6-17.8-24.8-20.3-30.7-34.5M602 777.3c25.9-18.2 60.4-8.9 72.4 22.1 14.3 36.9 23.8 28.3 40.4 39.7 12 8.2 18.5 29.8 5.6 39.7"/><path class="zad-4" d="M633.1 809.3c-23.2-42.2-84.9-52.2-120.2-19.4"/><path class="zad-4" d="M675.8 797c46.2-21.9 84.1-91.5 12.4-105.5-33-6.4-63.7 18.4-96.5 17.6-34.7-.9-66.6-24.3-102.8-12.6-33.6 10.9-38.2 48.9-15.1 72.3 15.2 15.3 50.7 31.5 62.2 32.6 26.6.8 47.7 24.1 46.6 50.7-1.9 47.2 24.5 44.4 30.4 28.3"/><path class="zad-4" d="M461.8 725.3c22.8 37.4 66.4 14.2 67.9-28.3-5.1 47.8 55.7 68.8 62.2 14 6.4 55.9 67.8 39.1 59-12.9 5 40 56.8 52.7 67.4 8.8"/><path d="M470.9 707.2c-40.1 34.2-5.3 71.3 31.1 90 23.5 12 57.6 6 70.7 34.3 8.7 18.7-3.9 49.1 19.8 57.1m18.5-1.1c13.1 21.4 18.9 51.1 47.6 56.8m-54.2-73.2a32.8 32.8 0 0 1 1.7 16.7m92.4-27.4a33 33 0 0 0 24.7 11.6" style="opacity:.6;stroke-width:10px;stroke-linecap:round;stroke-linejoin:round;stroke:#000;fill:none"/><path d="M645.6 785.1a29.9 29.9 0 0 1 11.3 12.1m-61.5-6.6a44.4 44.4 0 0 1 18 14.4m91.2 42.7a20.6 20.6 0 0 1 8 8.8m-3.7 32.4a17.1 17.1 0 0 1 4.1 18.4" style="stroke:#fff;stroke-width:10px;stroke-linecap:round;stroke-linejoin:round;fill:none"/><path d="M597.6 878.3c-1.9-3.4-3.6-7.1-3.2-11" style="stroke-width:7px;stroke:#fff;stroke-linecap:round;stroke-linejoin:round;fill:none"/><path d="M659.3 822.1c-18.6 4.8-5.6 38 6.8 26.3m-47.4-34.7c-2.3 5.3-4.6 10.6-6.8 15.9m-13.1 1.9 9.9 11.1-2.7 16.2m13-9a116 116 0 0 0 11.5 9.5m23.9 23.7c4.8 13.3 8.3 27 13.1 40.3l26.9-7.8" style="opacity:.6;stroke-width:5px;fill:none;stroke:#000;stroke-linecap:round;stroke-linejoin:round"/><ellipse cx="662.7" cy="835.3" rx="10.2" ry="13.9" style="stroke-width:5px;stroke-linecap:round;stroke-linejoin:round;stroke:#000;fill:#fff"/><path style="fill:url(#zad);stroke-width:5px;stroke-linecap:round;stroke-linejoin:round;stroke:#000" d="m619.4 813.6 4.5 17.3h14.9l-12 10.7 4.6 17.3-12-10.7-12.1 10.7 4.6-17.3-12-10.7h14.9l4.6-17.3z"/><path transform="rotate(-16.9 677.91 899.121)" style="fill:url(#zad-2);stroke-width:5px;stroke-linecap:round;stroke-linejoin:round;stroke:#000" d="M662.7 876h26.5v42.66h-26.5z"/><style>.st124{stroke:#000;stroke-width:10;stroke-linecap:round;stroke-linejoin:round;stroke-miterlimit:10;fill:#fff}</style><g id="black_and_white"><ellipse transform="rotate(-4.656 485.895 504.498)" class="st124" cx="486" cy="504.5" rx="49.6" ry="123"/><ellipse transform="rotate(-4.365 685.784 479.312)" class="st124" cx="686" cy="479" rx="45" ry="119"/><path d="M453 386c-33 52-29 121-13 178.5 8.5 25 29 88 65 60M658 364c-58 61-2 318 59.9 215" style="opacity:.6;fill:none;enable-background:new;stroke:#000;stroke-width:10;stroke-linecap:round;stroke-linejoin:round;stroke-miterlimit:10"/><path d="M486 408c9 9 13 22 17 35m6 20 1 6m176-80c7 9 12 19.5 14 30.6m5 18.4 1 7" style="stroke:#000;stroke-width:10;stroke-linecap:round;stroke-linejoin:round;stroke-miterlimit:10;fill:none"/></g><path d="M358 439.8c-17.5-12-38-5-39 13.3-21-8-46-5-65 7.1-10-26 15.6-32 14-53.9-1.4-19.8-5-43 12-56.4 0 12 11 26 23 20.3 16-9.6-1-35 9.5-46.6s15.2-20.2 6-32.9-28.5-29-15-44.6c37.5 37 62.9-35.5 97-40.4 23-3.3 48 17.5 69 5.7-7.5-3-12-12-10-19.4 10 23 38.5-7 46-12.5 33-27 77 27 86-7.8 6-23-37-25-25-58 21 40.5 80.9-9 119.6 40.4 52.1 66.4 55 18.5 47 4.1 79 24 53.1 116.3 83.5 109 12-2.9 14-19.9 31-14-35 37 51 90.9-47 152 2-16 1-29-4-43.8l15 15.4c-26-39.6-65.7-22.8-75-9.3-6.8 9.9-11 23-23 27.5 7-15-11.5-35-26-23.6-4.5 4-4 13.5 2 15.8-26 5-43.1-22.5-67-26-12-1.8-24 12-15 21.8-8-2-13.9-10.1-20-15.6-26.5-23.6-50.5 17-19.5 24.9-23 17.5-48.9-8.3-71-15.1-26.9-8.3-56 1-39.5 33.9-12.5-14-38-39-55-19.3-7 11 2 26-1.5 38-10-18-40-12.5-39 9.6" style="stroke-linecap:round;stroke-linejoin:round;stroke-width:10px;stroke:#000;fill:#710cc7"/><path d="M362 443.9c4-22 25-18 39-5.7 5.5-17-2.8-28.9 3-39 13.5-23.7 39.8 15 57 20.8-21-42 15.4-45.8 45-29.1 19.7 11.1 51.5 25 67 1.5-10.9-4-22-21.1-2-23.2 15-1.6 27 27 43 17.5-10-11-4.8-30.3 24-10.4 12.1 8.4 27 14 42 17 10 2 18-2 9-10-4-8 18-22 17.5 20.6 36-15 34-61 88-37M306 252.4c0 19 19.3 29.7 24 46.6 6.1 21.9-21 22-19 58m-37 2.9c3 7 18 21 25 12m166.5-166.5c16.5 7 24-12 34-21m83-.8c9-3 15.9-12 14-21.3-3.1-15-23-22-27-37M741 164.6c2 9-1 25-13 24m111.8 68.8c-7 2-11 9.9-17 13.4s-15 2-17-5m-.8 110.5c3 6 2.5 12 2 19" style="opacity:.6;fill:none;isolation:isolate;stroke-linecap:round;stroke-linejoin:round;stroke-width:10px;stroke:#000"/><path d="M834 325.7a60.7 60.7 0 0 1-2 25m-6 11.3-2 4m-65-175.1c7 7 11 16 15 25m3.5 14 1 3.1M632 145.2c10-3 21 1 29 7m10 8.8 3 4m-155 22.9c6-1 11 0 16.5 2m-155.7 46.5a38.8 38.8 0 0 1 16.5-14m15.2-1.4 4.5 1M279 380.2a75.7 75.7 0 0 0-1 15m1 13.8v4m240-39.3c5 4 11 7 17 9.8M508 367l-3-1.5m144.5-8.3c5 4 9.6 8 15 12" style="stroke:#fff;opacity:.83;fill:none;isolation:isolate;stroke-linecap:round;stroke-linejoin:round;stroke-width:10px"/><circle cx="550" cy="550" r="500" style="fill:none;stroke:#000;stroke-width:10;stroke-linecap:round;stroke-linejoin:round;stroke-miterlimit:10"/></svg>