<svg version="1.1" id="Layer_1" xmlns="http://www.w3.org/2000/svg" x="0" y="0" viewBox="0 0 1100 1100" style="enable-background:new 0 0 1100 1100" xml:space="preserve" xmlns:xlink="http://www.w3.org/1999/xlink"><style type="text/css">.st301{fill:#005BEF;stroke:#000000;stroke-width:10;stroke-linecap:round;stroke-linejoin:round;stroke-miterlimit:10;}</style><circle class="st301" cx="550" cy="553.7" r="500"/><radialGradient id="a9" cx="560.657" cy="569.423" r="93.351" gradientTransform="matrix(1 0 0 3.2533 0 -1281.846)" gradientUnits="userSpaceOnUse"><stop offset="0" style="stop-color:#00f2ff"/><stop offset="1" style="stop-color:#370080"/></radialGradient><path style="fill:url(#a9)" d="M533 210.7c-68 59.6-71 20-121 36.5-19.6 10.9-14 30-9.7 39.6 11 23-51 9-69 40.3-10 18 .1 42-7.5 61.8-9 19.6-34 35-37 52.2-43 48-154 7-119 70.4 6 11 33-6 39 9.1 7 17.5-39 29-21 46.7 18 5 21 39.9 57 63.2 14 20 3 51 19 69.1 35.8 38 46-25 41-34.3 4-39 44-11 22 38.7-23 52 11 74 36.5 56.6 24-9 13 39 23 50.9 19.5 37 55 12 67 12 18 1 28 22 29.8 40.3 6.5 63 54 46 59 8 15.5-34 45 49 47 59.9 11 73 69 42 71 17.9 3-54-3-60.1 2-68.3 18.5-31 71 13 90.8-15.5 14-19.7-31-63.5 8-55.4 94 19 19-101 14-120.4-9-35.5 14-106 47-121.7 18-9 17-35.5 7-52.8-9.5-17-25-30.6-31-48.9-13.5-54 22-102-36-133.3-5-3-7-9.5-4-14.4 17-26 1-66-32-71.4-22-3-44 9-66.5 6.3-43.4-4.8-79.5-74.1-126.4-43.1z"/><radialGradient id="b5" cx="553.285" cy="308.14" r="3.115" gradientTransform="matrix(30.3532 0 0 7.6359 -16163.282 -1999.622)" gradientUnits="userSpaceOnUse"><stop offset="0" style="stop-color:#00f2ff"/><stop offset="1" style="stop-color:#370080;stop-opacity:0"/></radialGradient><ellipse style="fill:url(#b5)" cx="635" cy="353" rx="83.5" ry="47.5"/><radialGradient id="c4" cx="685.268" cy="483.405" r="2.167" gradientTransform="matrix(16.0015 0 0 8.3553 -10251.582 -3523.179)" gradientUnits="userSpaceOnUse"><stop offset="0" style="stop-color:#00f2ff"/><stop offset="1" style="stop-color:#370080;stop-opacity:0"/></radialGradient><ellipse style="fill:url(#c4)" cx="715" cy="515.5" rx="30.5" ry="36"/><radialGradient id="d4" cx="417.82" cy="724.757" r="2.666" gradientTransform="matrix(25.7894 0 0 8.8738 -10290.887 -5668.355)" gradientUnits="userSpaceOnUse"><stop offset="0" style="stop-color:#00f2ff"/><stop offset="1" style="stop-color:#370080;stop-opacity:0"/></radialGradient><ellipse style="fill:url(#d4)" cx="488" cy="763" rx="71.5" ry="34.5"/><radialGradient id="e4" cx="525.562" cy="453.385" r="2.733" gradientTransform="matrix(2.3275 0 0 1.7985 -693.718 -358.824)" gradientUnits="userSpaceOnUse"><stop offset="0" style="stop-color:#00ff48"/><stop offset="1" style="stop-color:#7300ff;stop-opacity:0"/></radialGradient><circle style="fill:url(#e4)" cx="529.5" cy="457" r="5.5"/><radialGradient id="f4" cx="492.648" cy="546.297" r="1.723" gradientTransform="matrix(5.2809 0 0 5.0294 -2100.605 -2192.76)" gradientUnits="userSpaceOnUse"><stop offset="0" style="stop-color:#f700ff"/><stop offset="1" style="stop-color:#7300ff;stop-opacity:0"/></radialGradient><circle style="fill:url(#f4)" cx="501" cy="555" r="9"/><radialGradient id="g2" cx="642.36" cy="683.471" r="2.175" gradientTransform="matrix(4.189 0 0 4.4069 -2039.596 -2318.762)" gradientUnits="userSpaceOnUse"><stop offset="0" style="stop-color:#ff006a"/><stop offset="1" style="stop-color:#7300ff;stop-opacity:0"/></radialGradient><circle style="fill:url(#g2)" cx="651" cy="693" r="10"/><radialGradient id="h2" cx="631.016" cy="564.413" r="1.923" gradientTransform="matrix(1.8774 0 0 1.767 -550.874 -430.127)" gradientUnits="userSpaceOnUse"><stop offset="0" style="stop-color:#ff0"/><stop offset="1" style="stop-color:#7300ff;stop-opacity:0"/></radialGradient><circle style="fill:url(#h2)" cx="634" cy="567" r="3.5"/><radialGradient id="i2" cx="586.567" cy="520.158" r=".454" gradientTransform="translate(-1669.963 -1480.415) scale(3.851)" gradientUnits="userSpaceOnUse"><stop offset="0" style="stop-color:#ff2600"/><stop offset="1" style="stop-color:#7300ff;stop-opacity:0"/></radialGradient><circle style="fill:url(#i2)" cx="589" cy="523" r="2"/><radialGradient id="j2" cx="421.591" cy="470.614" r="2.51" gradientTransform="matrix(3.2467 0 0 3.9604 -939.96 -1384.463)" gradientUnits="userSpaceOnUse"><stop offset="0" style="stop-color:#00ffea"/><stop offset="1" style="stop-color:#7300ff;stop-opacity:0"/></radialGradient><circle style="fill:url(#j2)" cx="429" cy="479" r="9"/><style>.st40{fill:none;stroke:#000;stroke-width:10;stroke-linecap:round;stroke-linejoin:round;stroke-miterlimit:10}.st98{opacity:.6;enable-background:new}</style><g id="Outline"><path class="st98" d="M793 537c-1 .7-1 2-.5 3 5 10 11 35 25 30 8-2 21-13 18-22.4-.5-1-2-2-3-1.5-26 12-28-11-39-9.4v.3zm-34 274.5c6 5 26 8 25-3-6-7-20.6-12-21.5-26C750 772 744 803 759 811.5zm-219.3 52s1 .5 1 .8c9 13.5-3 36-18 40-34 6-9-6-6-44 .3-5.3 22.3 2.7 23 3.2zM342 731c5 7-4 22-4 33 8 13 29.6-5 33-14.9 2-12-17-21-28-20.2-1 .1-1 1.1-1 2.1zm31-120.2c2 23-8 47-26 61.9-13 10.9-17.5-30.6-8-27.9 6 4.2 28-18.8 34-34zm-157-59.9c-8 6-17 3-25 1-11 5 4 20 13.5 16 5-4 12-9 12-15.7-.5-.2-1.5-.2-.5-1.3zM337 473c-6-10-3-23 0-34 0-1 0-2-.6-2-9-9-23 11-19.8 20.7C318 463 338 475 337 472.8v.2z"/><path class="st98" d="M326 392c-2 29 24 45 7 44-7 2-14 1-15 11-1 11-24 0-24.5-1.3C285 433 317 404.5 326 392zm103-118c-9.9-4-16-16-18-25-4-6-9.9 1-11 6-7 54 29.5 28 29 19zm293 9c16 21 29.5 12 40 20.7 3 4 1 9.6-1 14-3 9-13 9-20 4.1-14.5-5.8-22-22.2-19-38.8z"/><path class="st40" d="M347 729c53.5 5 15 86 59 102 25 9 37-19.8 55-11.9 23 10.1 19.6 40 24 60.7 9.6 46 63 29.6 58-12.8"/><path class="st40" d="M519 861c89-9 47.5 119 114.5 115 39-6 35-47 25-76.5-3-9 0-18.5 7-24.5 24.5-21 59 15.5 84-2.5 15-11 8-33-2-45-12-15 0-32 10-43"/><path class="st40" d="M790 539c53 69.8-64 71 8 194.5 6 14 11 32 11 48.5 0 32-49 47.5-61 16"/><path class="st40" d="M721 287c2 51 64 31 74 88 6 34-11.5 71 7 103 10 18 27 31.5 34 51 8 19-4 47-27 42"/><path class="st40" d="M407 290.6c-16-8-12-29.9-2-41 17-15 40.5-10 61-6 29.8 1 49-29 75-38 50-17 81 55 133 44 23-5 48-11 69 1 25 14 33 55 10 75"/><path class="st40" d="M428 278c-16 26.5-51 17.5-76 28.5-20 10.5-28 33-23 55 10 47-43 51-39 88m25 4.5c1.5-23 35-26 41-5 7 25-13 47 16 72"/><path class="st40" d="M334 476c-20-34-61-31.5-89-9.6-20 8-43-3-64 4-22 7-28 37-5 43.5 6.5 2 23-2 26-1 15 4 11 25-5 30-21 6-10 29 6 29"/><path class="st40" d="M216 554.5c-15 15-14 41 2 55 37 22 41 31 36 69.7-2 31 46 41 53.5 10 2-10.8-4-22 0-33 13-32 44 20 62-44.5"/><path class="st40" d="M327 647.9c25 29.7-.5 47-7 75-10 32.5 34 65 53 25"/><path d="M729 262.5c9 4 16 13 18 22.5m-193-68c12.5 2 24.5 8 34 16m9 9 3 3m-163 10c-5.5-.9-12 .6-15.5 4M362 319.6c-9 2-14 10.7-16 19M339 449c4 1 6 6 6 9.8M308.5 470c-12-6-16-5-22-4M175 492c1-4 5-7 9-7.5m38 89.5c-4 8 0 16 4 19.9m44 78.6c-1 6 1 15 9 18m76-77.5c-3 14-13 14.5-16 16m4.5 119.5c-5-3-9-9-8-15M397 782c-1 14.5 7 28 14 30m90 53.9c-3 12 2 27 14.5 25M636 957c14-3 17-28 11-38m96-60.1c1-7 0-14-4-19m46-49.1c8-6.5 9-25 3-39M786 582c5-8 3-19-3-26m37-12c2-8.5-.6-18-7-24m-56-169c18 6 22 30 21 35" style="opacity:.7882;fill:none;stroke:#fff;stroke-width:10;stroke-linecap:round;stroke-linejoin:round;stroke-miterlimit:10;enable-background:new"/></g><style>.st40,.st68{fill:none;stroke-width:10;stroke-linecap:round;stroke-linejoin:round;stroke-miterlimit:10;stroke:#000}.st68{opacity:.6;enable-background:new}</style><g id="Trippy_Gum"><linearGradient id="SVGID_00000016762508722810605940000015280985506499040426_" gradientUnits="userSpaceOnUse" x1="613.791" y1="455.889" x2="725.791" y2="245.889" gradientTransform="matrix(1 0 0 -1 0 1100)"><stop offset="0" style="stop-color:#f92891"/><stop offset=".139" style="stop-color:#f12898"/><stop offset=".356" style="stop-color:#db28aa"/><stop offset=".624" style="stop-color:#b628c7"/><stop offset=".93" style="stop-color:#8428f0"/><stop offset="1" style="stop-color:#7828fa"/></linearGradient><path style="fill:url(#SVGID_00000016762508722810605940000015280985506499040426_)" d="M596 702c-46-35.5-34 120 7 79.3 15 25 38 51 69 50.9C861 804 718 541 596 702z"/><path class="st40" d="M596.5 703.5c-2.5-9-24-12.5-28 14-3 21-4 35 7 62 7 18 27 9.5 27-3.5"/><path class="st40" d="M599 762.5c8 34 31 59 49.6 65 59.7 18 115-36 113-80.9-3-58-36-80-36-80.2-46-39-120-6-133 53"/><path class="st68" d="M573.5 703c-18 17-19 71 5 89 12 6 17-4.5 22.5-2 11 25.5 37 51 67 42m-75-112.1c.5-7-1-15-5-21"/><path class="st68" d="M599 762.5c.5 9-3 16-7 24"/><path d="M704 674c15 7.5 26.5 22 30 39m5 15.9c1 2 1 4 1 6.5" style="fill:none;stroke:#fff;stroke-width:10;stroke-linecap:round;stroke-linejoin:round;stroke-miterlimit:10"/></g><style>.st40,.st68{fill:none;stroke-width:10;stroke-linecap:round;stroke-linejoin:round;stroke-miterlimit:10;stroke:#000}.st68{opacity:.6;enable-background:new}</style><g id="flame_eye"><linearGradient id="SVGID_00000121993682064921210520000015515713131974571392_" gradientUnits="userSpaceOnUse" x1="495.753" y1="646.684" x2="696.753" y2="489.684" gradientTransform="matrix(1 0 0 -1 0 1100)"><stop offset="0" style="stop-color:#ff003b"/><stop offset=".104" style="stop-color:#f70045"/><stop offset=".279" style="stop-color:#e1005f"/><stop offset=".505" style="stop-color:#be008b"/><stop offset=".77" style="stop-color:#8d00c6"/><stop offset="1" style="stop-color:#5e00ff"/></linearGradient><path style="fill:url(#SVGID_00000121993682064921210520000015515713131974571392_);stroke:#000;stroke-width:10;stroke-linecap:round;stroke-linejoin:round;stroke-miterlimit:10" d="M499 467c-25 48-11 109 32 142-12 1-25-2-36-9 39 77 184 42 197-36.4-4 .5-21 13-29 7 15-18 13-41 13-64.9-5 17-25 28-42 19 29-40 26-78 .6-118.6-5 30-27 40-38 9-7-19.9-18-41-39-47 24 54-26 84-37 44.9-19 38 19.9 52 18 86.1-1 18-18 20-28 7-7-11-11-24-11.5-39.4v.3z"/><path d="M576 492c-9 10-3 15 0 27 7 17 14 36 24 51 6-22.5 8-46 12.5-69l-36.5-9.3v.3z"/><path d="M584 458.9c-19 22.5 3 56 28 32.6l-28-32.6z" style="fill:#fff"/><path class="st40" d="m584 453.1-16 48.8 33.5 77.4 12.5-89.2z"/><path class="st40" d="M575 481c0 17 26 25 37 14"/><path class="st68" d="M558 368c8 21 3 45-12.5 61.5m-24.5-17c-26 32.5 27 66 7 101M499 467c-29.9 42-14 104 19.5 139.7M636 405.5c-4 11-10.5 24-22 26.5m63 73c-9 10.6-19.8 20-34 19.6m49 37.9c-6.5 4-14 6-22 5"/><path class="st68" d="M495 600c19.5 69 182 66.5 197-36M581 453c-7 16-13 30-21 49 12 28 25 54 37.5 79"/><path d="M637 442c4 9.9 5 21 3 31m-3 14-1 2.7m29 46.3c0 5-2 9-4 13m8 38.9c-9.8 12-22 21.5-35.5 28m-11.5 5-4 1.1M501 519c.5 11.5 3 23 8 33.5m6 13.5 2 3.5M576 395c3 5 5 11 7 16.5m4 10.5 1 2" style="fill:none;stroke:#fff;stroke-width:10;stroke-linecap:round;stroke-linejoin:round;stroke-miterlimit:10"/></g><linearGradient id="a21" gradientUnits="userSpaceOnUse" x1="503.691" y1="241.136" x2="690.539" y2="221.151"><stop offset="0" style="stop-color:#ff2b2b"/><stop offset="1" style="stop-color:#ffff2b"/></linearGradient><path style="fill:url(#a21);stroke:#000;stroke-width:10;stroke-linecap:round;stroke-linejoin:round;stroke-miterlimit:10;stroke-dasharray:0,0,0,0,0,0" d="M562 170.5c-4 2-9 2.5-13.5 1.4 18 17-4 44 7 61.1 7 11 21 19 19.9 34.5 0 7-7 15-13 8.6 1 15 13 25 23 34.8 9.5 9.5-2 29 8 38.4 16 13 43-9 39.8-26.5-2-13-9-28 2-39.7 8-8 25.5-21 14-32.8-2 5-9 8-12 3.8-4-4 1.5-10.5 3-16.1 2-11-9-18-14-27-12-24 24-41 1-62.1 0 20-34 20-28 0 5-17-3-16.5-11-27.2 7 14-20.1 30-27.5 16.4-4-8 0-18-7-25.3-5.8 19-32 29-33 48.7-2 40-15.8 26.5-16.5 24.1-4 12 11 24 9 37 15-6 26-22 42-26"/><path d="M549 202.2c-17 33 35 57 16 69.5-3 0-6 1-7 4.3-5 19.5 22 28 25 45.2 1 6.5-.5 13 1 19.9 3 15.5 25 20 34 7m-72-175.9c11 22-14 30.7-28 41.5" style="opacity:.6;fill:none;stroke:#000;stroke-width:10;stroke-linecap:round;stroke-linejoin:round;stroke-miterlimit:10;stroke-dasharray:0,0,0,0,0,0"/><path d="M620 320.5c1 4 .5 8-2 11.5m-10 7-2 1m12-117.6c3 3 5 6 6 10m-91.5-71.8c2-4.5 5-9 8-12" style="opacity:.7882;stroke:#fff;fill:none;stroke-width:10;stroke-linecap:round;stroke-linejoin:round;stroke-miterlimit:10;stroke-dasharray:0,0,0,0,0,0"/><circle cx="550" cy="550" r="500" style="fill:none;stroke:#000;stroke-width:10;stroke-linecap:round;stroke-linejoin:round;stroke-miterlimit:10"/></svg>