<svg version="1.1" id="Layer_1" xmlns="http://www.w3.org/2000/svg" x="0" y="0" viewBox="0 0 1100 1100" style="enable-background:new 0 0 1100 1100" xml:space="preserve" xmlns:xlink="http://www.w3.org/1999/xlink"><style type="text/css">.st304{fill:#FF0A68;stroke:#000000;stroke-width:10;stroke-linecap:round;stroke-linejoin:round;stroke-miterlimit:10;}</style><circle class="st304" cx="550" cy="553.7" r="500"/><path d="M533 209.1c-68 59.6-71 20-121 36.5-19.6 10.9-14 30-9.7 39.6 11 23-51 9-69 40.3-10 18 .1 42-7.5 61.8-9 19.6-34 35-37 52.2-43 48-154 7-119 70.4 6 11 33-6 39 9.1 7 17.5-39 29-21 46.7 18 5 21 39.9 57 63.2 14 20 3 51 19 69.1 35.8 38 46-25 41-34.3 4-39 44-11 22 38.7-23 52 11 74 36.5 56.6 24-9 13 39 23 50.9 19.5 37 55 12 67 12 18 1 28 22 29.8 40.3 6.5 63 54 46 59 8 15.5-34 45 49 47 59.9 11 73 69 42 71 17.9 3-54-3-60.1 2-68.3 18.5-31 71 13 90.8-15.5 14-19.7-31-63.5 8-55.4 94 19 19-101 14-120.4-9-35.5 14-106 47-121.7 18-9 17-35.5 7-52.8-9.5-17-25-30.6-31-48.9-13.5-54 22-102-36-133.3-5-3-7-9.5-4-14.4 17-26 1-66-32-71.4-22-3-44 9-66.5 6.3C616 247 579.9 178 533 209.1z" style="fill:#e80068"/><style>.st40{fill:none;stroke:#000;stroke-width:10;stroke-linecap:round;stroke-linejoin:round;stroke-miterlimit:10}.st98{opacity:.6;enable-background:new}</style><g id="Outline"><path class="st98" d="M793 537c-1 .7-1 2-.5 3 5 10 11 35 25 30 8-2 21-13 18-22.4-.5-1-2-2-3-1.5-26 12-28-11-39-9.4v.3zm-34 274.5c6 5 26 8 25-3-6-7-20.6-12-21.5-26C750 772 744 803 759 811.5zm-219.3 52s1 .5 1 .8c9 13.5-3 36-18 40-34 6-9-6-6-44 .3-5.3 22.3 2.7 23 3.2zM342 731c5 7-4 22-4 33 8 13 29.6-5 33-14.9 2-12-17-21-28-20.2-1 .1-1 1.1-1 2.1zm31-120.2c2 23-8 47-26 61.9-13 10.9-17.5-30.6-8-27.9 6 4.2 28-18.8 34-34zm-157-59.9c-8 6-17 3-25 1-11 5 4 20 13.5 16 5-4 12-9 12-15.7-.5-.2-1.5-.2-.5-1.3zM337 473c-6-10-3-23 0-34 0-1 0-2-.6-2-9-9-23 11-19.8 20.7C318 463 338 475 337 472.8v.2z"/><path class="st98" d="M326 392c-2 29 24 45 7 44-7 2-14 1-15 11-1 11-24 0-24.5-1.3C285 433 317 404.5 326 392zm103-118c-9.9-4-16-16-18-25-4-6-9.9 1-11 6-7 54 29.5 28 29 19zm293 9c16 21 29.5 12 40 20.7 3 4 1 9.6-1 14-3 9-13 9-20 4.1-14.5-5.8-22-22.2-19-38.8z"/><path class="st40" d="M347 729c53.5 5 15 86 59 102 25 9 37-19.8 55-11.9 23 10.1 19.6 40 24 60.7 9.6 46 63 29.6 58-12.8"/><path class="st40" d="M519 861c89-9 47.5 119 114.5 115 39-6 35-47 25-76.5-3-9 0-18.5 7-24.5 24.5-21 59 15.5 84-2.5 15-11 8-33-2-45-12-15 0-32 10-43"/><path class="st40" d="M790 539c53 69.8-64 71 8 194.5 6 14 11 32 11 48.5 0 32-49 47.5-61 16"/><path class="st40" d="M721 287c2 51 64 31 74 88 6 34-11.5 71 7 103 10 18 27 31.5 34 51 8 19-4 47-27 42"/><path class="st40" d="M407 290.6c-16-8-12-29.9-2-41 17-15 40.5-10 61-6 29.8 1 49-29 75-38 50-17 81 55 133 44 23-5 48-11 69 1 25 14 33 55 10 75"/><path class="st40" d="M428 278c-16 26.5-51 17.5-76 28.5-20 10.5-28 33-23 55 10 47-43 51-39 88m25 4.5c1.5-23 35-26 41-5 7 25-13 47 16 72"/><path class="st40" d="M334 476c-20-34-61-31.5-89-9.6-20 8-43-3-64 4-22 7-28 37-5 43.5 6.5 2 23-2 26-1 15 4 11 25-5 30-21 6-10 29 6 29"/><path class="st40" d="M216 554.5c-15 15-14 41 2 55 37 22 41 31 36 69.7-2 31 46 41 53.5 10 2-10.8-4-22 0-33 13-32 44 20 62-44.5"/><path class="st40" d="M327 647.9c25 29.7-.5 47-7 75-10 32.5 34 65 53 25"/><path d="M729 262.5c9 4 16 13 18 22.5m-193-68c12.5 2 24.5 8 34 16m9 9 3 3m-163 10c-5.5-.9-12 .6-15.5 4M362 319.6c-9 2-14 10.7-16 19M339 449c4 1 6 6 6 9.8M308.5 470c-12-6-16-5-22-4M175 492c1-4 5-7 9-7.5m38 89.5c-4 8 0 16 4 19.9m44 78.6c-1 6 1 15 9 18m76-77.5c-3 14-13 14.5-16 16m4.5 119.5c-5-3-9-9-8-15M397 782c-1 14.5 7 28 14 30m90 53.9c-3 12 2 27 14.5 25M636 957c14-3 17-28 11-38m96-60.1c1-7 0-14-4-19m46-49.1c8-6.5 9-25 3-39M786 582c5-8 3-19-3-26m37-12c2-8.5-.6-18-7-24m-56-169c18 6 22 30 21 35" style="opacity:.7882;fill:none;stroke:#fff;stroke-width:10;stroke-linecap:round;stroke-linejoin:round;stroke-miterlimit:10;enable-background:new"/></g><style>.st40,.st68{fill:none;stroke-width:10;stroke-linecap:round;stroke-linejoin:round;stroke-miterlimit:10;stroke:#000}.st68{opacity:.6;enable-background:new}</style><g id="Eye"><linearGradient id="SVGID_00000144327888440828662330000012949225208094602647_" gradientUnits="userSpaceOnUse" x1="232.314" y1="-555.531" x2="336.458" y2="-482.43" gradientTransform="translate(0 1066)"><stop offset="0" style="stop-color:#00ff04"/><stop offset=".811" style="stop-color:#00fccf"/><stop offset="1" style="stop-color:#00fbff"/></linearGradient><path style="fill:url(#SVGID_00000144327888440828662330000012949225208094602647_)" d="M278 494c-31 10.8-13 49-9.5 56 8 16-9 32.5 9 50.8 9 9 46 8 40.7-31-2-13-13-23-13.5-35.8-.7-21-3.7-48-26.7-40z"/><path d="M273 498c-6.5 9-1 22 4 30.8 6 8 13 15 14 25 2 14-6 31 3 43.7 15 18 30.6-23 23-35-3-7-8-13.5-10-20.8-5-16 2-45-21-49" style="opacity:.5098;fill:#fff;enable-background:new"/><path class="st68" d="M274 516c9 24.5 14 39 18 64"/><path class="st40" d="M278 494c-31 10.8-13 49-9.5 56 8 16-9 32.5 9 50.8 9 9 46 8 40.7-31-2-13-13-23-13.5-36C304 513 301 486 278 494z"/><path class="st40" d="M282 526c6 17 10.5 35 14 53"/><path d="M279 515c1 4 2 7 3.5 11m24.5 46.9c1 5 1.5 13-5 19" style="fill:none;stroke:#fff;stroke-width:10;stroke-linecap:round;stroke-linejoin:round;stroke-miterlimit:10"/><path class="st68" d="M264 495.9c-15.5 19-6 44 1 65 3 9-3 18-1 27 4 24 31 31 46 12"/></g><style>.st40{fill:none;stroke-width:10;stroke-linecap:round;stroke-linejoin:round;stroke-miterlimit:10;stroke:#000}</style><g id="Sorta_Closed"><path d="M469 709.5c-24 28 53 137 81 92 13-17 10.6-40 6-60.6-2-25.4-70-55.9-87-31.4zM580 736c19 36-13 66 0 88.5C599 837 666.5 851 686 809c9-16.5-4-34-9-50.1-18-34-32 14-97-23.1v.2zm118 11.5c8.5 61 49 23 27 2.9-6-4.4-28-5.4-27-2.9z" style="fill:#fe1767"/><path d="M583 729.9c67 29 .1 27 79 15 18-2.9-27-66.9-79-15zm91-36.9c-6 7 13 49 41 53 37 22 12-54-2-59.6-8-3.4-35 1.6-39 6.6z"/><path d="M462 682c-19 .8-36 25-27 44m31-17c-31 30 46 137 80 100m33-83c-11 13 8 13-6 80-1 6.5-3 14 1 19.5 10 18 94.5 31 112-11M668 697c-5 8 3 16 8 22 14 16 16 39 25.5 58 7 13 24 12 27-3M707 658c22.5-7 44 11 46 33" style="opacity:.6;enable-background:new;stroke:#000;fill:none;stroke-width:10;stroke-linecap:round;stroke-linejoin:round;stroke-miterlimit:10"/><path d="M467 722c32-4.5 68.5 9.7 91 32 3-34-68-74-92-43.3l1 11.1v.2zm118 41c16-3 32.5 0 46.5 8-7-18-40.7-36-50.8-37.1l4 28.7v.4zm72 28.9c-13-14 4-32 18-39.8-15-6-39-7-48 4.8l30 35z" style="fill:#ae0f45"/><path d="M543 744c4 10 5 22 3 33m-4 13c-1 2-2 4-3 5m68.5-32c8 5 15 12 19.8 19.8m8.2 9.2 3 3m74.5-38c3 0 6 1 8 3" style="fill:none;stroke:#fff;stroke-width:10;stroke-linecap:round;stroke-linejoin:round;stroke-miterlimit:10"/><path class="st40" d="M472 706c-31 28 42 129.6 76 102 21-17 16-60.5.6-81.4C536 713 488 691 472 706zm107.5 31c21 67-50 94 61 98 24 1 51-12 48-39-3-22-21-70.7-40-83-15.5-8.5-76.5 1-69 24zm93-31.1c32 35 22 65 39 73.9 35 17.5 24-90-2-95.2-9.5-1.1-51.5 5.4-37 21.3zM707 659c25-2 38 19 45 34m-288-11c-17.5 7-29 26-27.5 44"/><path class="st40" d="M581 732.9c28 9 57 36 73 60.5"/><path class="st40" d="M622 755c13.5-8 29.7-11 45-8m31-4c11 .5 23 4 33 9"/></g><defs><linearGradient id="zf" x1="420.51" y1="545.37" x2="607.38" y2="545.37" gradientUnits="userSpaceOnUse"><stop offset="0" stop-color="#00d4ff"/><stop offset="1" stop-color="#2a00ff"/></linearGradient><linearGradient id="zf-2" x1="606.81" y1="515.34" x2="752.7" y2="515.34" xlink:href="#zf"/><style>.zf-2,.zf-5{stroke:#000}.zf-2,.zf-5,.zf-6,.zf-7{stroke-linecap:round;stroke-linejoin:round}.zf-2,.zf-5,.zf-6{stroke-width:10px}.zf-2,.zf-5,.zf-6,.zf-7{fill:none}.zf-2{opacity:.6}.zf-6,.zf-7{stroke:#fff}.zf-7{stroke-width:8px}</style></defs><path d="M488.4 466.9c-32.4 16.3-2.2 43.7-2.5 67.8-.2 15.5-5.3 32.3 3.5 46.2 24.7 38.8 74.6-.8 48.1-34.8-12-15.5-20.5-23.5-15.7-44.1s-12.4-45.7-33.4-35.1Zm157.5 7.3c7.9 26.5 21.5 11.9 13.8 58-7.3 43.6 58.7 29.1 38-5.9-26.3-44.6 13.4-53-15.4-79.6-20.3-18.9-41.9 9-36.4 27.5Z" style="stroke-width:10px;stroke-linecap:round;stroke-linejoin:round;stroke:#000;fill:#fff"/><path class="zf-2" d="M439.3 457.5c-29.7 23.6-2.9 58.7-9.5 84.3-5.8 22.7-29.4 47.7 2 57.7m20.2.8c3 11.9 15.1 17.2 25.6 21.8s13.6 14.2 18.9 22.5c13.3 20.5 48 25.8 63.6 4.3M615.6 431c-34.9 41.4 16.7 86.3 4.3 131.1-2.9 10.6-8.6 27.8 4.9 32.8m26.3-.8c9.4 15.1 23.9 40.6 48.4 31.2m26.2-51.4c6.2 2.5 14.8-.3 19.3-5.3m-269.3-97.3c-14.4 19.2 2.4 40.2 4.4 60.3 1.3 14.1-1.7 28.6 2.1 42.6 5.2 19.2 29 35.2 45.5 19.8M650 444c-20.3 25-4 35 4.7 58.5 5.3 14.4-2.9 30.8 1.7 45.2s22.2 19.7 33.1 9.5"/><path d="M484.2 473.3c-18.7 19.5 20.1 57.9 33.7 28.5-1.7 28.3 17.1 39.2 13.1 41.5-25.4 14.5-56.6 16.7-44.9-10.9-2.9-20-24.5-42.8-1.9-59.1ZM653 455.1c-11.2 24.3 27.5 38.1 36.2 14-2.3 11-3.2 23.2-1.7 34.3 3.5 13.5-14.9 11.9-23.2 10.3-.8-20.7-29.1-37.9-11.3-58.6Z"/><path d="M587.1 515.8c32.4-20.1-20.4-36.3-28.1-50.3-10.2-18.7-26.4-31.5-43-33.2-42.2-4.2-93.3 23.3-85.5 68.1 10.7 61.2-5.5 49.5-9.7 74.9-3.2 19.5 18.8 36.7 34.3 20.7 1.1 13.1 34.9 22.4 52.8 54.5 16.9 14.7 43.6 8.6 57-8.2 15.5-19.5-4.4-33 17.8-74.2 51.7 0 6.4-38.9 4.4-52.3Z" style="fill:url(#zf);opacity:.64"/><path d="M724 565.8c56 15.1 14.3-41.8 5.7-60.3-15-32.3 5.3-74-34.3-93.3-41.2-20.1-102.9 21.3-85.6 68.4 28.3 76.9 12.8 81.5 10.3 98.2-3 19.6 20.3 28.7 31.6 11.5 45.9 63.5 78.8 25.6 72.3-24.5Z" style="fill:url(#zf-2);opacity:.64"/><path class="zf-5" d="M453.9 595.7c-14.3 16.3-36.3-.9-33.1-20.4 4.2-25.4 20.4-13.7 9.7-74.9-7.8-44.8 43.3-72.3 85.5-68.1 16.6 1.7 32.8 14.5 43 33.2 7.7 14 22.5 13.6 31.6 22.7s5.8 21.8-3.5 27.6m57.7 65.9c17.8 11.1 19.5 33 37.2 40.2s38.4 2.3 41.1-24c1.7-16.6-4.6-36.3 7.6-50.2"/><path class="zf-5" d="M724 565.8c13.1 13.8 31.5 0 28.6-16.6s-17.9-28-22.9-43.7c-10.7-34 5.3-74-34.3-93.3-41.2-20.1-102.9 21.3-85.6 68.4 28.3 76.9 12.8 81.5 10.3 98.2-3 19.6 20.3 28.7 31.1 11.7m-201.3-13.6c9.9 18.5-.2 31 26.9 39.8 22 7.2 16.7 35 47.4 41.8 23.9 5.2 52.4-14.7 47.3-39.2-6.3-29.6 22.8-53.3 4.3-74.2"/><path class="zf-5" d="M582.7 566.7c10.8 4.1 23.2 0 23.2-16.7 0-21.4-24.8-26.2-30.1-46"/><path class="zf-6" d="M510.5 446.1a21.6 21.6 0 0 1 12 3.8 53.4 53.4 0 0 1 9.4 8.4m9.2 11 2.1 2.7"/><path class="zf-2" d="M576.8 503.7a14.6 14.6 0 0 0 10.2 7M575.4 544c9.7 4.2 8.7 17.6 17.3 22.7m-144 10c.2 8.2-.2 17.2-5.6 23.8m201.1-18.4c-1.4 5.6-3.2 11.9-8.2 15.3m95-49a25.7 25.7 0 0 0 .3 20.7"/><path class="zf-6" d="M681.7 423.8c14.2 1.8 23.6 15.2 25.7 28.6m2.2 14.1-.1 3.6"/><path class="zf-7" d="M739.5 557.6a12.1 12.1 0 0 0 1.9-7.9"/><path class="zf-6" d="M711.1 591.4a22 22 0 0 1-9.2 18.4m8.7-29.3-.4-2.5"/><path class="zf-7" d="M632.1 582.7a17.1 17.1 0 0 1 2.1-10.6m-57.4-80.6a16.7 16.7 0 0 1 6.5 5m3.2 40.3a23.4 23.4 0 0 1 6.2 10.9"/><path class="zf-6" d="M567.7 554.8c2.8 6.1 1.1 13.1-1.7 18.9m-4.9 11.7-.6 2.4m-2.2 35.9c0 8.7-7.6 15-15.2 17.9m-107.5-57.2a14.9 14.9 0 0 1 1.7-14.4"/><defs><linearGradient id="zbg" x1="481.09" y1="66.55" x2="556.35" y2="408.14" gradientUnits="userSpaceOnUse"><stop offset="0" stop-color="#e100ff"/><stop offset=".18" stop-color="#e600dc"/><stop offset=".57" stop-color="#f10084"/><stop offset="1" stop-color="#ff001e"/></linearGradient><linearGradient id="zbg-2" x1="535.58" y1="186.28" x2="505.68" y2="294.23" gradientTransform="rotate(13.2 524.84 232.682)" gradientUnits="userSpaceOnUse"><stop offset="0" stop-color="#00fff2"/><stop offset="1" stop-color="#000dff"/></linearGradient><linearGradient id="zbg-3" x1="371.17" y1="124.15" x2="419.66" y2="250.85" gradientUnits="userSpaceOnUse"><stop offset="0" stop-color="#e100ff"/><stop offset="1" stop-color="#ff001e"/></linearGradient><linearGradient id="zbg-4" x1="580.35" y1="88.56" x2="629.68" y2="207.06" xlink:href="#zbg-3"/><style>.zbf-7{fill:none;stroke-linecap:round;stroke-linejoin:round;stroke-width:10px;stroke-dasharray:0 0 0 0 0 0;stroke:#000}</style></defs><path d="M327.9 385.8c-4.4 13.7-18.2 24-28.6 35.7-27.5 3.8-47-19.7-47.4-47-.3-20.7 3.9-39.7-6.5-59.6 20.7 8.3 15.9-10.5 17.7-24.3 5.7-41.6 31.7-62 4.3-106.2 21.5-1.1 66.7 69.5 72.3 30.5 25.7 8.6 31.4 46 72.2 29.4a45.3 45.3 0 0 0 23-21.2c13.8-27.2-15.8-33-9.3-52.2 11.3 12.6 43.8-2.5-5.9-75.5 46-3.6 107.6 64.6 104.1 18 26 15.2 15 35.5 46.6 53.1 9.1 5 13.4 15.8 21.2 22.7 39.3 35.2 74.7-18.2 48.3-54.5 27.2 4.8 2.4-40.7-7.9-47.2 72.7 11.8 84.4 120.9 108.1 76 6.5 8.1 6.3 19.5 10.1 29.1 6 15.4 21.5 25 30 39.2 5.8 9.7 8.1 21.3 13.6 31.2 7.8 17.1 31.2 26.8 38.4 45.4 10.5 27.2-15.2 48-38.6 58-5.9-18.6-21.9-31.6-42.9-38-142.9-4.6-286.5 14.4-422.8 57.4Z" style="fill:url(#zbg)"/><ellipse cx="523" cy="231.8" rx="26" ry="59.5" transform="rotate(-13.2 524.893 232.398)" style="fill:url(#zbg-2)"/><path d="M546.8 260.6c16.7-2.9-6.8-90.3-38.7-85-14 9.9-29.4 101.8 38.7 85Z" style="fill:#fff;opacity:.36"/><path d="M425.5 175.4a15.8 15.8 0 0 0 16-5.8c-11.9-5.8-14.9-21.4-30.8-25.4-1.8 26.7-31.6-8-51.9-9.5 22 27.5 17 66.2-.4 56.1.6 10.2-.6 20.4-2.7 31.2 24.8 47.1 81.5 20.9 82.3-8.5.4-13.5-12.2-25.6-12.5-38.1Z" style="fill:url(#zbg-3)"/><path d="M646.7 147.7c-16.1 12-20.1-21.1-27.6-24.6-17.8 22.9-17.7-30.9-43.4-27.3 8.7 7.6 17 46.4-3.4 35.8a56.1 56.1 0 0 1-2.5 31.8c55.9 74.3 86.7 14.4 76.9-15.7Z" style="fill:url(#zbg-4)"/><path d="M425.5 175.4a15.8 15.8 0 0 0 16-5.8c-11.9-5.8-14.9-21.4-30.8-25.4-1.8 26.7-31.6-8-51.9-9.5 22 27.5 17 66.2-.4 56.1.6 10.2-.6 20.4-2.7 31.2 24.8 47.1 81.5 20.9 82.3-8.5.4-13.5-12.2-25.6-12.5-38.1Zm221.2-27.7c-16.1 12-20.1-21.1-27.6-24.6-17.8 22.9-17.7-30.9-43.4-27.3 8.7 7.6 17 46.4-3.4 35.8a56.1 56.1 0 0 1-2.5 31.8c55.9 74.3 86.7 14.4 76.9-15.7Z" style="opacity:.39"/><path class="zbf-7" d="M789.6 327.5c-155.1 0-335.8 7.5-492.5 69.8"/><path class="zbf-7" d="M327.9 385.8c-4.4 13.7-18.2 24-28.6 35.7-27.5 3.8-47-19.7-47.4-47-.3-20.7 3.9-39.7-6.5-59.6 20.7 8.3 15.9-10.5 17.7-24.3 5.7-41.6 31.7-62 4.3-106.2 21.5-1.1 66.7 69.5 72.3 30.5 25.7 8.6 31.4 46 72.2 29.4a45.3 45.3 0 0 0 23-21.2c13.8-27.2-15.8-33-9.3-52.2 11.3 12.6 43.8-2.5-5.9-75.5 46-3.6 107.6 64.6 104.1 18 26 15.2 15 35.5 46.6 53.1 9.1 5 13.4 15.8 21.2 22.7 39.3 35.2 74.7-18.2 48.3-54.5 27.2 4.8 2.4-40.7-7.9-47.2 72.7 11.8 84.4 120.9 108.1 76 6.5 8.1 6.3 19.5 10.1 29.1 6 15.4 21.5 25 30 39.2 5.8 9.7 8.1 21.3 13.6 31.2 7.8 17.1 31.2 26.8 38.4 45.4 10.5 27.2-15.2 48-38.6 58-5.9-18.6-21.9-31.6-41.5-38.4"/><path class="zbf-7" d="M354.9 221a88.1 88.1 0 0 0 3.5-30.2c17.4 10.1 22.4-28.6.4-56.1 20.3 1.5 50.1 36.2 51.9 9.5 15.9 4 18.9 19.6 30.1 24.2m128.5-5.3a51 51 0 0 0 3-31.5c20.4 10.6 12.1-28.2 3.4-35.8 25.7-3.6 25.6 50.2 43.4 27.3 7.5 3.5 11.5 36.6 27.6 24.6"/><ellipse class="zbf-7" cx="523" cy="231.8" rx="26" ry="59.5" transform="rotate(-13.2 524.893 232.398)"/><path d="M294.2 399a20.3 20.3 0 0 1-1.7 21.7c12.3-4 26.2-16.8 26.2-30.6M794 328.5c-2.5 13.6 8.8 21 23.2 23.8-21.6 30.1-46.6-14.9-46.7-22.4" style="opacity:.6"/><path d="M760.3 332.1c-142.4 7.3-296.6 11.6-434.3 61.5m176.8-215.8c-29.8 22.8-4 139.4 38.2 109.8" style="opacity:.6;stroke:#000;fill:none;stroke-linecap:round;stroke-linejoin:round;stroke-width:10px;stroke-dasharray:0 0 0 0 0 0"/><path d="M515.7 190.5c7.4 7.6 11.6 17.7 15 27.7m3.1 12.7.7 4M671 125.1a102.2 102.2 0 0 1 16.8 22.6m10.3 15.8 2.2 3.9m53.2 58.2c9.8 5.9 13.9 16.1 17 25.5M448.3 114.6a79.5 79.5 0 0 1 26.9 14m12.3 6 3 1.8m68.6 39.9a39.1 39.1 0 0 1 13.4 13.4m-293.3 98.7a57.2 57.2 0 0 1 5.8-25.7m-9.7 41.4-.1 2.5m-7.6 55.8a38 38 0 0 0 1.7 24.2m4.8 12.8 1.8 2.1m528.9-103.9a28.7 28.7 0 0 1 12 19.3m.5 13.2-1.1 2.1" style="stroke:#fff;fill:none;stroke-linecap:round;stroke-linejoin:round;stroke-width:10px;stroke-dasharray:0 0 0 0 0 0"/><circle cx="550" cy="550" r="500" style="fill:none;stroke:#000;stroke-width:10;stroke-linecap:round;stroke-linejoin:round;stroke-miterlimit:10"/></svg>