<svg version="1.1" id="Layer_1" xmlns="http://www.w3.org/2000/svg" x="0" y="0" viewBox="0 0 1100 1100" style="enable-background:new 0 0 1100 1100" xml:space="preserve" xmlns:xlink="http://www.w3.org/1999/xlink"><style type="text/css">.st304{fill:#FF0A68;stroke:#000000;stroke-width:10;stroke-linecap:round;stroke-linejoin:round;stroke-miterlimit:10;}</style><circle class="st304" cx="550" cy="553.7" r="500"/><g data-name="Layer 54"><path d="M531.7 209c-67.9 59.6-70.9 20.3-120.8 36.5-19.6 10.9-14.3 30.3-9.7 39.6 11.2 22.8-50.8 8.7-68.6 40.3-10.3 18.3.1 42.2-7.5 61.8s-33.8 34.7-36.8 52.2c-43.4 48.2-154 6.6-119.1 70.4 6.2 11.4 32.9-6.3 39.1 9.1 7 17.5-38.8 29.4-21.3 46.7 17.7 4.9 20.7 39.9 56.9 63.2 13.8 20 2.7 51.4 19.4 69.1 35.8 37.8 46.3-24.8 41.3-34.3 4.3-38.8 43.9-10.6 22.2 38.7-22.8 51.7 11.2 74 36.5 56.6 24-8.9 13.3 38.7 23.3 50.9 19.5 37.2 54.9 11.6 66.6 12 18.1.7 28 22.3 29.8 40.3 6.5 63 53.6 46.3 59.1 8 15.5-34.3 45.1 48.6 46.9 59.9 11.3 72.6 69.3 42 70.8 17.9 3.3-54.1-3.2-60.1 1.7-68.3 18.5-31.1 71 13.3 90.8-15.5 13.6-19.7-31.2-63.5 7.9-55.4 94 19.4 18.7-100.7 13.8-120.4-8.8-35.5 13.9-105.6 46.9-121.7 18.1-8.8 17.1-35.5 7.4-52.8s-24.9-30.6-31.4-48.9c-13.5-54.4 22.4-102.1-36-133.3a10.2 10.2 0 0 1-3.9-14.4c17.1-26.3 1.3-66.4-31.8-71.4-22.1-3.3-44.3 8.9-66.5 6.3-43.8-5.2-80.2-74.1-127-43.1Z" style="fill:#03a7ff"/><path d="M311.8 455.2c5.1-20.5 35.7-31.5 44.9-8.1 7.2 24.9 1 56.9-22 71.4-17.6 11.1.5 28.5-12.4 34.7-7.4 3.5-10.9-9.6-17.6-10.8-14.8-2.6-22.8 16.2-12.4 27.4 4.7 5.1 20 10.2 21.4 19.3 2.7 17.9 13 11.8 22.6 4.8 31.7-22.7 39.9 16.2 46.3 17.1 11.8 1.7 14.9 5.5 20.4 16.4 2.8 5.5 26.2-4.6 33.9 15.2 6.1 15.7-23.1 23.1-21.4 40.4-4.9 21.1-32.6 26.8-40.8 45.1 2.7 50-44.7 50-40.6 15.7 1-8.6 2.9-17.2 2.3-25.8s-3.9-15.6-2.9-23.4c6.8-53.5-12.5-48.9-16.7-46.3-7.2-15 27.6-35.8-5.6-35.1-9.8-.8-16.7-11.5-26.6-12s-19.6 9.2-27.7 2c-8.8-13 2.4-16.8-16.1-30.1-21.5-15.4.4-9.9-21.3-45.2a80.4 80.4 0 0 1-9.6-59.3c37.3 7.5 60.2-31.7 101.9-13.4Zm77-109c10.5 6.9 20.1 9.7 19.7 24.3s-7.9 36.7 5.9 47.2c25.4 19.4 17.6-33.3 41.5-29.2 15.4 2.6 26.9-2.4 25.3-20.1-1.9-6.4 1.3-12.2 6.6-16 18.8-13.8 6.7-17.8 22-34.9 6.7-7.5-10.9-17.7-18.9-15.9s-16 11.5-23.1 5.7c-19.4-15.3-32.1 9.9-49.7 7.7-39.4-5-39.3 24.7-29.3 31.2Zm416.9 223.2c1.8 21.2-9.5 27.4-27.9 18.9-5.9-3.9-16.1-12.8-20.8-2.7-21.1 27.5-36.5-37.5-53.4-46-8.1-4.1-36.4-15.5-36.4-3.2 0 24.2 7.7 18.4-10.5 35.4-10.2 9.5 26.5 30.9-7.3 45.8-17.5 7.7-2.2 25.6-5.4 37.1-2.8 9.9-2.3 19.6-8 28.3-11 16.7-40.4 39.6-56.6 19.8-4.7-5.7-4.5-14.7-9.8-19.8-10.7-10.2-.7-25.1-5-36.7-3.8-7.2-7.2-13.7-8.6-22-5.8-33.6-48.5.8-60.7-29.1-1.4-18.5-25.3-14.8-9.2-34.8 7.8-9.7 2.1-23.6 11-29.6 28.9-19.8 9-26.4 74.8-11.3 18.2 4.2 39 6.9 28.4-20.6-3.6-9.2 19.1-13.2 13-20.1-11.2-12.6-16.5 8.4-22.5 12-26.6 15.5-44.3-12-57 1.9-17 18.5-37.6 7.1-20.9-8.4 13.9-13 7.6-14.9 17.6-23.5 5.8-5 6-14.3 11.3-19.9 9.3-9.8 35.3-4.3 34.1-22.1-.6-9-10.6-8.9-14.9-1.2-13.1 22.8-28.2-4-16.7-21.1s46.4-40.3 59.3-17.9c2.6 4.5-3.8 11.6 1.9 13.3 14 4.4 21.7-16.6 35-18.9 24.4-4.1 14.8-13.8 25.4-19.5 14.4-7.7 11.3 11.1 38.1-5.8 19.9-12.6 45.6-15.6 68.6-8 52.5 30.7-18.5 104.8 63.9 187.2 8.7 19-6.5 50.9-30.8 42.5ZM804.6 800c-7.9-.9-5.4 9.5-19.7 2.9-23.4-10.8 2.5-34.7-39.4-38.4-7.5-.7-12.5-10-10.6-17.3 2.4-9.7 15.9-15 15.8-25.1-.3-25.7 12.5-20.5 27.2-33.1 13 35.1 38.8 72.1 26.7 111Z" style="fill:#45b06a"/></g><style>.st40{fill:none;stroke:#000;stroke-width:10;stroke-linecap:round;stroke-linejoin:round;stroke-miterlimit:10}.st98{opacity:.6;enable-background:new}</style><g id="Outline"><path class="st98" d="M793 537c-1 .7-1 2-.5 3 5 10 11 35 25 30 8-2 21-13 18-22.4-.5-1-2-2-3-1.5-26 12-28-11-39-9.4v.3zm-34 274.5c6 5 26 8 25-3-6-7-20.6-12-21.5-26C750 772 744 803 759 811.5zm-219.3 52s1 .5 1 .8c9 13.5-3 36-18 40-34 6-9-6-6-44 .3-5.3 22.3 2.7 23 3.2zM342 731c5 7-4 22-4 33 8 13 29.6-5 33-14.9 2-12-17-21-28-20.2-1 .1-1 1.1-1 2.1zm31-120.2c2 23-8 47-26 61.9-13 10.9-17.5-30.6-8-27.9 6 4.2 28-18.8 34-34zm-157-59.9c-8 6-17 3-25 1-11 5 4 20 13.5 16 5-4 12-9 12-15.7-.5-.2-1.5-.2-.5-1.3zM337 473c-6-10-3-23 0-34 0-1 0-2-.6-2-9-9-23 11-19.8 20.7C318 463 338 475 337 472.8v.2z"/><path class="st98" d="M326 392c-2 29 24 45 7 44-7 2-14 1-15 11-1 11-24 0-24.5-1.3C285 433 317 404.5 326 392zm103-118c-9.9-4-16-16-18-25-4-6-9.9 1-11 6-7 54 29.5 28 29 19zm293 9c16 21 29.5 12 40 20.7 3 4 1 9.6-1 14-3 9-13 9-20 4.1-14.5-5.8-22-22.2-19-38.8z"/><path class="st40" d="M347 729c53.5 5 15 86 59 102 25 9 37-19.8 55-11.9 23 10.1 19.6 40 24 60.7 9.6 46 63 29.6 58-12.8"/><path class="st40" d="M519 861c89-9 47.5 119 114.5 115 39-6 35-47 25-76.5-3-9 0-18.5 7-24.5 24.5-21 59 15.5 84-2.5 15-11 8-33-2-45-12-15 0-32 10-43"/><path class="st40" d="M790 539c53 69.8-64 71 8 194.5 6 14 11 32 11 48.5 0 32-49 47.5-61 16"/><path class="st40" d="M721 287c2 51 64 31 74 88 6 34-11.5 71 7 103 10 18 27 31.5 34 51 8 19-4 47-27 42"/><path class="st40" d="M407 290.6c-16-8-12-29.9-2-41 17-15 40.5-10 61-6 29.8 1 49-29 75-38 50-17 81 55 133 44 23-5 48-11 69 1 25 14 33 55 10 75"/><path class="st40" d="M428 278c-16 26.5-51 17.5-76 28.5-20 10.5-28 33-23 55 10 47-43 51-39 88m25 4.5c1.5-23 35-26 41-5 7 25-13 47 16 72"/><path class="st40" d="M334 476c-20-34-61-31.5-89-9.6-20 8-43-3-64 4-22 7-28 37-5 43.5 6.5 2 23-2 26-1 15 4 11 25-5 30-21 6-10 29 6 29"/><path class="st40" d="M216 554.5c-15 15-14 41 2 55 37 22 41 31 36 69.7-2 31 46 41 53.5 10 2-10.8-4-22 0-33 13-32 44 20 62-44.5"/><path class="st40" d="M327 647.9c25 29.7-.5 47-7 75-10 32.5 34 65 53 25"/><path d="M729 262.5c9 4 16 13 18 22.5m-193-68c12.5 2 24.5 8 34 16m9 9 3 3m-163 10c-5.5-.9-12 .6-15.5 4M362 319.6c-9 2-14 10.7-16 19M339 449c4 1 6 6 6 9.8M308.5 470c-12-6-16-5-22-4M175 492c1-4 5-7 9-7.5m38 89.5c-4 8 0 16 4 19.9m44 78.6c-1 6 1 15 9 18m76-77.5c-3 14-13 14.5-16 16m4.5 119.5c-5-3-9-9-8-15M397 782c-1 14.5 7 28 14 30m90 53.9c-3 12 2 27 14.5 25M636 957c14-3 17-28 11-38m96-60.1c1-7 0-14-4-19m46-49.1c8-6.5 9-25 3-39M786 582c5-8 3-19-3-26m37-12c2-8.5-.6-18-7-24m-56-169c18 6 22 30 21 35" style="opacity:.7882;fill:none;stroke:#fff;stroke-width:10;stroke-linecap:round;stroke-linejoin:round;stroke-miterlimit:10;enable-background:new"/></g><linearGradient id="a16" gradientUnits="userSpaceOnUse" x1="588.718" y1="669.061" x2="570.716" y2="592.054" gradientTransform="matrix(1 0 0 -1 0 1410)"><stop offset="0" style="stop-color:#0aff16"/><stop offset=".104" style="stop-color:#0afd3b"/><stop offset=".283" style="stop-color:#0afa76"/><stop offset=".456" style="stop-color:#0af8a7"/><stop offset=".619" style="stop-color:#0af6cd"/><stop offset=".768" style="stop-color:#0af4e9"/><stop offset=".9" style="stop-color:#0af3f9"/><stop offset="1" style="stop-color:#0af3ff"/></linearGradient><path style="fill:url(#a16);stroke:#000;stroke-width:10;stroke-linecap:round;stroke-linejoin:round;stroke-miterlimit:10" d="M720 718c-63 33.5-179 40.6-235-10-27 19-37 63 12.5 57.5 18.5-2 8 39.8 29 43.1 14 2 19.6-9.8 26-22.5 7-15 25-5 29.6-3.5 26 8 27-19.6 25-33"/><path d="M482 706c-30.5 19-39.9 71 6.5 69 23-1 17 9.5 20 23 6 26 34 24 44.5 1.7 16-34 54 17 59.7-36 4-33-25 14 107-39.8" style="opacity:.6;fill:none;stroke:#000;stroke-width:10;stroke-linecap:round;stroke-linejoin:round;stroke-miterlimit:10;enable-background:new"/><path d="M484 725.9c-5 5-8 11-8 18m5 9.1c0 .5 1 1 1 1m52 42c5-3 9-13 9-13m55-21c0 3.5-1 7-4 9" style="fill:none;stroke:#fff;stroke-width:7.5;stroke-linecap:round;stroke-linejoin:round;stroke-miterlimit:10"/><defs><linearGradient id="zf" x1="420.51" y1="545.37" x2="607.38" y2="545.37" gradientUnits="userSpaceOnUse"><stop offset="0" stop-color="#00d4ff"/><stop offset="1" stop-color="#2a00ff"/></linearGradient><linearGradient id="zf-2" x1="606.81" y1="515.34" x2="752.7" y2="515.34" xlink:href="#zf"/><style>.zf-2,.zf-5{stroke:#000}.zf-2,.zf-5,.zf-6,.zf-7{stroke-linecap:round;stroke-linejoin:round}.zf-2,.zf-5,.zf-6{stroke-width:10px}.zf-2,.zf-5,.zf-6,.zf-7{fill:none}.zf-2{opacity:.6}.zf-6,.zf-7{stroke:#fff}.zf-7{stroke-width:8px}</style></defs><path d="M488.4 466.9c-32.4 16.3-2.2 43.7-2.5 67.8-.2 15.5-5.3 32.3 3.5 46.2 24.7 38.8 74.6-.8 48.1-34.8-12-15.5-20.5-23.5-15.7-44.1s-12.4-45.7-33.4-35.1Zm157.5 7.3c7.9 26.5 21.5 11.9 13.8 58-7.3 43.6 58.7 29.1 38-5.9-26.3-44.6 13.4-53-15.4-79.6-20.3-18.9-41.9 9-36.4 27.5Z" style="stroke-width:10px;stroke-linecap:round;stroke-linejoin:round;stroke:#000;fill:#fff"/><path class="zf-2" d="M439.3 457.5c-29.7 23.6-2.9 58.7-9.5 84.3-5.8 22.7-29.4 47.7 2 57.7m20.2.8c3 11.9 15.1 17.2 25.6 21.8s13.6 14.2 18.9 22.5c13.3 20.5 48 25.8 63.6 4.3M615.6 431c-34.9 41.4 16.7 86.3 4.3 131.1-2.9 10.6-8.6 27.8 4.9 32.8m26.3-.8c9.4 15.1 23.9 40.6 48.4 31.2m26.2-51.4c6.2 2.5 14.8-.3 19.3-5.3m-269.3-97.3c-14.4 19.2 2.4 40.2 4.4 60.3 1.3 14.1-1.7 28.6 2.1 42.6 5.2 19.2 29 35.2 45.5 19.8M650 444c-20.3 25-4 35 4.7 58.5 5.3 14.4-2.9 30.8 1.7 45.2s22.2 19.7 33.1 9.5"/><path d="M484.2 473.3c-18.7 19.5 20.1 57.9 33.7 28.5-1.7 28.3 17.1 39.2 13.1 41.5-25.4 14.5-56.6 16.7-44.9-10.9-2.9-20-24.5-42.8-1.9-59.1ZM653 455.1c-11.2 24.3 27.5 38.1 36.2 14-2.3 11-3.2 23.2-1.7 34.3 3.5 13.5-14.9 11.9-23.2 10.3-.8-20.7-29.1-37.9-11.3-58.6Z"/><path d="M587.1 515.8c32.4-20.1-20.4-36.3-28.1-50.3-10.2-18.7-26.4-31.5-43-33.2-42.2-4.2-93.3 23.3-85.5 68.1 10.7 61.2-5.5 49.5-9.7 74.9-3.2 19.5 18.8 36.7 34.3 20.7 1.1 13.1 34.9 22.4 52.8 54.5 16.9 14.7 43.6 8.6 57-8.2 15.5-19.5-4.4-33 17.8-74.2 51.7 0 6.4-38.9 4.4-52.3Z" style="fill:url(#zf);opacity:.64"/><path d="M724 565.8c56 15.1 14.3-41.8 5.7-60.3-15-32.3 5.3-74-34.3-93.3-41.2-20.1-102.9 21.3-85.6 68.4 28.3 76.9 12.8 81.5 10.3 98.2-3 19.6 20.3 28.7 31.6 11.5 45.9 63.5 78.8 25.6 72.3-24.5Z" style="fill:url(#zf-2);opacity:.64"/><path class="zf-5" d="M453.9 595.7c-14.3 16.3-36.3-.9-33.1-20.4 4.2-25.4 20.4-13.7 9.7-74.9-7.8-44.8 43.3-72.3 85.5-68.1 16.6 1.7 32.8 14.5 43 33.2 7.7 14 22.5 13.6 31.6 22.7s5.8 21.8-3.5 27.6m57.7 65.9c17.8 11.1 19.5 33 37.2 40.2s38.4 2.3 41.1-24c1.7-16.6-4.6-36.3 7.6-50.2"/><path class="zf-5" d="M724 565.8c13.1 13.8 31.5 0 28.6-16.6s-17.9-28-22.9-43.7c-10.7-34 5.3-74-34.3-93.3-41.2-20.1-102.9 21.3-85.6 68.4 28.3 76.9 12.8 81.5 10.3 98.2-3 19.6 20.3 28.7 31.1 11.7m-201.3-13.6c9.9 18.5-.2 31 26.9 39.8 22 7.2 16.7 35 47.4 41.8 23.9 5.2 52.4-14.7 47.3-39.2-6.3-29.6 22.8-53.3 4.3-74.2"/><path class="zf-5" d="M582.7 566.7c10.8 4.1 23.2 0 23.2-16.7 0-21.4-24.8-26.2-30.1-46"/><path class="zf-6" d="M510.5 446.1a21.6 21.6 0 0 1 12 3.8 53.4 53.4 0 0 1 9.4 8.4m9.2 11 2.1 2.7"/><path class="zf-2" d="M576.8 503.7a14.6 14.6 0 0 0 10.2 7M575.4 544c9.7 4.2 8.7 17.6 17.3 22.7m-144 10c.2 8.2-.2 17.2-5.6 23.8m201.1-18.4c-1.4 5.6-3.2 11.9-8.2 15.3m95-49a25.7 25.7 0 0 0 .3 20.7"/><path class="zf-6" d="M681.7 423.8c14.2 1.8 23.6 15.2 25.7 28.6m2.2 14.1-.1 3.6"/><path class="zf-7" d="M739.5 557.6a12.1 12.1 0 0 0 1.9-7.9"/><path class="zf-6" d="M711.1 591.4a22 22 0 0 1-9.2 18.4m8.7-29.3-.4-2.5"/><path class="zf-7" d="M632.1 582.7a17.1 17.1 0 0 1 2.1-10.6m-57.4-80.6a16.7 16.7 0 0 1 6.5 5m3.2 40.3a23.4 23.4 0 0 1 6.2 10.9"/><path class="zf-6" d="M567.7 554.8c2.8 6.1 1.1 13.1-1.7 18.9m-4.9 11.7-.6 2.4m-2.2 35.9c0 8.7-7.6 15-15.2 17.9m-107.5-57.2a14.9 14.9 0 0 1 1.7-14.4"/><linearGradient id="a21" gradientUnits="userSpaceOnUse" x1="503.691" y1="241.136" x2="690.539" y2="221.151"><stop offset="0" style="stop-color:#ff2b2b"/><stop offset="1" style="stop-color:#ffff2b"/></linearGradient><path style="fill:url(#a21);stroke:#000;stroke-width:10;stroke-linecap:round;stroke-linejoin:round;stroke-miterlimit:10;stroke-dasharray:0,0,0,0,0,0" d="M562 170.5c-4 2-9 2.5-13.5 1.4 18 17-4 44 7 61.1 7 11 21 19 19.9 34.5 0 7-7 15-13 8.6 1 15 13 25 23 34.8 9.5 9.5-2 29 8 38.4 16 13 43-9 39.8-26.5-2-13-9-28 2-39.7 8-8 25.5-21 14-32.8-2 5-9 8-12 3.8-4-4 1.5-10.5 3-16.1 2-11-9-18-14-27-12-24 24-41 1-62.1 0 20-34 20-28 0 5-17-3-16.5-11-27.2 7 14-20.1 30-27.5 16.4-4-8 0-18-7-25.3-5.8 19-32 29-33 48.7-2 40-15.8 26.5-16.5 24.1-4 12 11 24 9 37 15-6 26-22 42-26"/><path d="M549 202.2c-17 33 35 57 16 69.5-3 0-6 1-7 4.3-5 19.5 22 28 25 45.2 1 6.5-.5 13 1 19.9 3 15.5 25 20 34 7m-72-175.9c11 22-14 30.7-28 41.5" style="opacity:.6;fill:none;stroke:#000;stroke-width:10;stroke-linecap:round;stroke-linejoin:round;stroke-miterlimit:10;stroke-dasharray:0,0,0,0,0,0"/><path d="M620 320.5c1 4 .5 8-2 11.5m-10 7-2 1m12-117.6c3 3 5 6 6 10m-91.5-71.8c2-4.5 5-9 8-12" style="opacity:.7882;stroke:#fff;fill:none;stroke-width:10;stroke-linecap:round;stroke-linejoin:round;stroke-miterlimit:10;stroke-dasharray:0,0,0,0,0,0"/><circle cx="550" cy="550" r="500" style="fill:none;stroke:#000;stroke-width:10;stroke-linecap:round;stroke-linejoin:round;stroke-miterlimit:10"/></svg>