<svg version="1.1" id="Layer_1" xmlns="http://www.w3.org/2000/svg" x="0" y="0" viewBox="0 0 1100 1100" style="enable-background:new 0 0 1100 1100" xml:space="preserve" xmlns:xlink="http://www.w3.org/1999/xlink"><style type="text/css">.st301{fill:#005BEF;stroke:#000000;stroke-width:10;stroke-linecap:round;stroke-linejoin:round;stroke-miterlimit:10;}</style><circle class="st301" cx="550" cy="553.7" r="500"/><path d="M532 207.7c-68 59.6-71 20-121 36.5-19.6 10.9-14 30-9.7 39.6 11 23-51 9-69 40.3-10 18 .1 42-7.5 61.8-9 19.6-34 35-37 52.2-43 48-154 7-119 70.4 6 11 33-6 39 9.1 7 17.5-39 29-21 46.7 18 5 21 39.9 57 63.2 14 20 3 51 19 69.1 35.8 38 46-25 41-34.3 4-39 44-11 22 38.7-23 52 11 74 36.5 56.6 24-9 13 39 23 50.9 19.5 37 55 12 67 12 18 1 28 22 29.8 40.3 6.5 63 54 46 59 8 15.5-34 45 49 47 59.9 11 73 69 42 71 17.9 3-54-3-60.1 2-68.3 18.5-31 71 13 90.8-15.5 14-19.7-31-63.5 8-55.4 94 19 19-101 14-120.4-9-35.5 14-106 47-121.7 18-9 17-35.5 7-52.8-9.5-17-25-30.6-31-48.9-13.5-54 22-102-36-133.3-5-3-7-9.5-4-14.4 17-26 1-66-32-71.4-22-3-44 9-66.5 6.3C615 246 579 177 532 207.7z" style="fill:#009dff"/><linearGradient id="a5" gradientUnits="userSpaceOnUse" x1="381.071" y1="365.002" x2="511.347" y2="365.002" gradientTransform="matrix(1 0 0 -1 0 1100)"><stop offset="0" style="stop-color:#c517ff"/><stop offset="1" style="stop-color:#ff1751"/></linearGradient><path style="fill:url(#a5)" d="M381 766.7c29-5 16-38 23.5-55.9 5-12 38-28 21-55 16 5 19 22 17 37.1-1.5 16 23 11 25-12.6 2.5-28 7-46.5 33-60.3-19 31 22.5 46 5.5 76.6-11 19-30.1 35-33 57.7-3 18 21 19 23 2.2 19 43-20 21-5 70.2 3 8-1 18.5-8 23.2-30-96.4-85 60.1-102-83.2z"/><linearGradient id="b2" gradientUnits="userSpaceOnUse" x1="566.921" y1="265.744" x2="809.398" y2="265.744" gradientTransform="matrix(1 0 0 -1 0 1100)"><stop offset="0" style="stop-color:#c517ff"/><stop offset="1" style="stop-color:#ff1751"/></linearGradient><path style="fill:url(#b2)" d="M660 882.5c21-37 76 16 97.5-22.4 8-24-21-40-10-55.2 33.5 32.5 88-14 47-80.7-16-1-19.8 25.5-36 2.2-21-15-58 12-53-34.7-4 7-12 12-14 19.7-2 9 10.1 31-4.5 30.9-15 0-18-6-30 6.2 51 2 49 91 19 53.7-6-7-11-14-22-14.4 23.5 25-13 61-25 23.6-12-38.5-17-63-62-48.6 54.5 11 1 67 11 27.3-30 49 28.5 69 2 103.3 32 140.6 104.5 79.6 80-10.9z"/><linearGradient id="c2" gradientUnits="userSpaceOnUse" x1="597.551" y1="561.092" x2="839.931" y2="561.092" gradientTransform="matrix(1 0 0 -1 0 1100)"><stop offset="0" style="stop-color:#c517ff"/><stop offset="1" style="stop-color:#ff1751"/></linearGradient><path style="fill:url(#c2)" d="M794 422.3c-27 46-87-10.9-124 69.1 29.8-26 38.5 15 5 21.8-44 .9-71 23-77 67 43-73 108 16 49 7.8 37 22 68-28 99-14.2 21 17-4 46-26 32.4 13 30.1 45.5-3 44.5 40.7 1 4 4 9 9 8.7 3-30 32-54 32-85.8C894 558.5 784 495 794 422.3z"/><linearGradient id="d2" gradientUnits="userSpaceOnUse" x1="213.681" y1="470.314" x2="342.252" y2="470.314" gradientTransform="matrix(1 0 0 -1 0 1100)"><stop offset="0" style="stop-color:#c517ff"/><stop offset="1" style="stop-color:#ff1751"/></linearGradient><path style="fill:url(#d2)" d="M214 599c.8-9 12-10 19.7-10.7 17-2 32.5-17 29.5-34.6 16.5 14.5 11 34 11 53 5 35 58 29 45-6.3 10 9.7 32 32 18 45.1-52-4-23 26-32 47.1-11 20-45.8 16-50-7.2 4.8-49.6-.2-55.9-41.2-86.4z"/><linearGradient id="e2" gradientUnits="userSpaceOnUse" x1="327.601" y1="625.422" x2="651.361" y2="625.422" gradientTransform="matrix(1 0 0 -1 0 1100)"><stop offset="0" style="stop-color:#c517ff"/><stop offset="1" style="stop-color:#ff1751"/></linearGradient><path style="fill:url(#e2)" d="M328 390.7c43 2 75 48 61 88.9 16-1 18-31 34-32.6 46 8-18 113 75 149.8-25-25-3-59 19-30.7 55 61-4 134 82 148.8-39-39 5-66 13-38.5 13.5-20-8-40.6-24-52.2-40.9-30.8-43-93 13-103.9-43-2-41-34-26-43.2 16-10 40 51 76.5 10.7-34 0-3-60.5-59-66.7-26 0-49.9 22-77 14.5-54-15.8.5-66 3-29.6 13-16 .9-34-17-39.1-81-21 23-103-8-132.6-30 13-125.5-11-85 58.1C341 303 328 308 328 390.7z"/><linearGradient id="f2" gradientUnits="userSpaceOnUse" x1="590.061" y1="760.677" x2="766.959" y2="760.677" gradientTransform="matrix(1 0 0 -1 0 1100)"><stop offset="0" style="stop-color:#c517ff"/><stop offset="1" style="stop-color:#ff1751"/></linearGradient><path style="fill:url(#f2)" d="M610 229.1c27 44-45 63-9.8 119.3-3-52 47 2-10 28.5 45 11 37-37.5 70.9-35.7 23 1 31 28 22.5 47.5-11 19-15 44 2 60.7-8-59.8 53-36 53-82.4 0-9-3-19 3-25.2 6-5 16-4 20.5-9.4C739 345 835 216 649 248.5c-13.5-5.5-24-14.5-39-19.4z"/><style>.st40{fill:none;stroke:#000;stroke-width:10;stroke-linecap:round;stroke-linejoin:round;stroke-miterlimit:10}.st98{opacity:.6;enable-background:new}</style><g id="Outline"><path class="st98" d="M793 537c-1 .7-1 2-.5 3 5 10 11 35 25 30 8-2 21-13 18-22.4-.5-1-2-2-3-1.5-26 12-28-11-39-9.4v.3zm-34 274.5c6 5 26 8 25-3-6-7-20.6-12-21.5-26C750 772 744 803 759 811.5zm-219.3 52s1 .5 1 .8c9 13.5-3 36-18 40-34 6-9-6-6-44 .3-5.3 22.3 2.7 23 3.2zM342 731c5 7-4 22-4 33 8 13 29.6-5 33-14.9 2-12-17-21-28-20.2-1 .1-1 1.1-1 2.1zm31-120.2c2 23-8 47-26 61.9-13 10.9-17.5-30.6-8-27.9 6 4.2 28-18.8 34-34zm-157-59.9c-8 6-17 3-25 1-11 5 4 20 13.5 16 5-4 12-9 12-15.7-.5-.2-1.5-.2-.5-1.3zM337 473c-6-10-3-23 0-34 0-1 0-2-.6-2-9-9-23 11-19.8 20.7C318 463 338 475 337 472.8v.2z"/><path class="st98" d="M326 392c-2 29 24 45 7 44-7 2-14 1-15 11-1 11-24 0-24.5-1.3C285 433 317 404.5 326 392zm103-118c-9.9-4-16-16-18-25-4-6-9.9 1-11 6-7 54 29.5 28 29 19zm293 9c16 21 29.5 12 40 20.7 3 4 1 9.6-1 14-3 9-13 9-20 4.1-14.5-5.8-22-22.2-19-38.8z"/><path class="st40" d="M347 729c53.5 5 15 86 59 102 25 9 37-19.8 55-11.9 23 10.1 19.6 40 24 60.7 9.6 46 63 29.6 58-12.8"/><path class="st40" d="M519 861c89-9 47.5 119 114.5 115 39-6 35-47 25-76.5-3-9 0-18.5 7-24.5 24.5-21 59 15.5 84-2.5 15-11 8-33-2-45-12-15 0-32 10-43"/><path class="st40" d="M790 539c53 69.8-64 71 8 194.5 6 14 11 32 11 48.5 0 32-49 47.5-61 16"/><path class="st40" d="M721 287c2 51 64 31 74 88 6 34-11.5 71 7 103 10 18 27 31.5 34 51 8 19-4 47-27 42"/><path class="st40" d="M407 290.6c-16-8-12-29.9-2-41 17-15 40.5-10 61-6 29.8 1 49-29 75-38 50-17 81 55 133 44 23-5 48-11 69 1 25 14 33 55 10 75"/><path class="st40" d="M428 278c-16 26.5-51 17.5-76 28.5-20 10.5-28 33-23 55 10 47-43 51-39 88m25 4.5c1.5-23 35-26 41-5 7 25-13 47 16 72"/><path class="st40" d="M334 476c-20-34-61-31.5-89-9.6-20 8-43-3-64 4-22 7-28 37-5 43.5 6.5 2 23-2 26-1 15 4 11 25-5 30-21 6-10 29 6 29"/><path class="st40" d="M216 554.5c-15 15-14 41 2 55 37 22 41 31 36 69.7-2 31 46 41 53.5 10 2-10.8-4-22 0-33 13-32 44 20 62-44.5"/><path class="st40" d="M327 647.9c25 29.7-.5 47-7 75-10 32.5 34 65 53 25"/><path d="M729 262.5c9 4 16 13 18 22.5m-193-68c12.5 2 24.5 8 34 16m9 9 3 3m-163 10c-5.5-.9-12 .6-15.5 4M362 319.6c-9 2-14 10.7-16 19M339 449c4 1 6 6 6 9.8M308.5 470c-12-6-16-5-22-4M175 492c1-4 5-7 9-7.5m38 89.5c-4 8 0 16 4 19.9m44 78.6c-1 6 1 15 9 18m76-77.5c-3 14-13 14.5-16 16m4.5 119.5c-5-3-9-9-8-15M397 782c-1 14.5 7 28 14 30m90 53.9c-3 12 2 27 14.5 25M636 957c14-3 17-28 11-38m96-60.1c1-7 0-14-4-19m46-49.1c8-6.5 9-25 3-39M786 582c5-8 3-19-3-26m37-12c2-8.5-.6-18-7-24m-56-169c18 6 22 30 21 35" style="opacity:.7882;fill:none;stroke:#fff;stroke-width:10;stroke-linecap:round;stroke-linejoin:round;stroke-miterlimit:10;enable-background:new"/></g><linearGradient id="a12" gradientUnits="userSpaceOnUse" x1="234.425" y1="-533.764" x2="348.416" y2="-471.769" gradientTransform="translate(0 1066)"><stop offset="0" style="stop-color:#e0f"/><stop offset=".098" style="stop-color:#e002ff"/><stop offset=".286" style="stop-color:#ba07ff"/><stop offset=".543" style="stop-color:#7c0eff"/><stop offset=".857" style="stop-color:#2919ff"/><stop offset="1" style="stop-color:#001eff"/></linearGradient><path style="fill:url(#a12)" d="M329 545.2c-2-47-53-63-76-27-7 11-9 27-1 38 5.8 8 15 12 19 21 5 13-6 28 0 39.9 16 22 43-1.5 35-25-14.5-31.1 24-18.1 23-47.1v.2z"/><path d="M264 506c-18 25 30 88 55 57.9 22.5-21 3-59-24.5-63.3-10.5-2-23.5-4-30.5 5.2v.2z" style="opacity:.3412;fill:#fff;enable-background:new"/><path d="M329 545c-1.5-47-53-63-76-27-7 11-9 27-1 38 5.8 8 15 12 19 21.4 5 13-6 28 0 39.9 16 22 43-1.5 35-25-14.5-31.3 24-18.3 23-47.3z" style="fill:none;stroke:#000;stroke-width:10;stroke-linecap:round;stroke-linejoin:round;stroke-miterlimit:10"/><path d="M262 503c-19 13-29.7 41-14 60.5 5 6 12 10 16 17 5.5 12-3 28 3.5 39.5 4 7 13 9.8 19.7 7" style="opacity:.6;fill:none;stroke:#000;stroke-width:10;stroke-linecap:round;stroke-linejoin:round;stroke-miterlimit:10;enable-background:new"/><path d="M295.5 515c7 4 12 9.6 16 16m3.5 12c.5 1 1 2 1 3" style="fill:none;stroke:#fff;stroke-width:10;stroke-linecap:round;stroke-linejoin:round;stroke-miterlimit:10"/><defs><linearGradient id="axf" x1="741.04" y1="835.98" x2="725.62" y2="701.22" gradientUnits="userSpaceOnUse"><stop offset="0" stop-color="#ff9d00"/><stop offset=".12" stop-color="#ff9306"/><stop offset=".33" stop-color="#ff7915"/><stop offset=".6" stop-color="#ff4d2d"/><stop offset=".91" stop-color="#ff124f"/><stop offset="1" stop-color="#ff0059"/></linearGradient><linearGradient id="axf-2" x1="840.33" y1="761.07" x2="812.15" y2="763.18" gradientUnits="userSpaceOnUse"><stop offset="0" stop-color="#ff1e00"/><stop offset=".09" stop-color="#fe1c0e"/><stop offset=".27" stop-color="#fc1833"/><stop offset=".51" stop-color="#f81170"/><stop offset=".8" stop-color="#f207c2"/><stop offset="1" stop-color="#e0f"/></linearGradient><linearGradient id="axf-3" x1="851.73" y1="625.07" x2="951.68" y2="625.07" gradientUnits="userSpaceOnUse"><stop offset="0" stop-color="red"/><stop offset="1" stop-color="#ff0"/></linearGradient><style>.axf-3,.axf-5,.axf-6{fill:none}.axf-3,.axf-5{stroke:#000}.axf-3,.axf-5,.axf-6{stroke-linecap:round;stroke-linejoin:round;stroke-width:10px}.axf-5{opacity:.6}.axf-6{stroke:#fff}</style></defs><path d="M626.2 736.3a94.1 94.1 0 0 0 7.1 68.7 146.4 146.4 0 0 0 66.9 2.7c14.9 7 32.9 7.4 49.6.4a55.6 55.6 0 0 0 44.8-5.5c71 22.1 69.7-119.3-40.3-69.2-14.7-9.5-31.7-1.9-46.5 4.7-15.3-11.1-36.9-5.8-51.3 4.4-10.1-4.5-18.2-7-30.3-6.2Z" style="fill:url(#axf)"/><path d="M818.5 729.1c-17.3 15.2 1.6 86.9 18.1 60.8 7.6-18.7 8.5-60.1-18.1-60.8Z" style="fill:url(#axf-2)"/><path class="axf-3" d="M625.3 728.3a141 141 0 0 0 6.8 86.1m-6-77.4c62.6-13.9 46.9 106.1 121.9 71.9"/><path class="axf-3" d="M657.1 740.2c89-44.8 53.7 106.8 138.6 64.1"/><path class="axf-3" d="M709.7 738c70.8-48.9 55.1 96.5 119.8 61.7 18.6-14.4 16.2-45.9 3.8-63.1s-65.2-16.3-78.5-3.3"/><path class="axf-3" d="M816.1 727c-9.7 22.5-6 53.7 12.1 71m-249.5-43.7c-.2-77.7 64.5-105.5 90.1-22.2m-86.5 66.4c2.2 71.9 77.8 92.6 88.3 13.5"/><path d="M851.7 729c21.7-11.6 3.3-31 4.3-47.8.6-11.4 11.9-15.7 16.8-26 7.3-15.5-4.7-21.1-4.7-35.1s10.4-20.6 10-34.5c-3.7-112.1 118.9-57.6 55.2 6.1-39.2 39.2 11.1 43.8-9.3 76.2-6.3 10-20.8 14.7-23.1 26.3-4.6 23.5-26.3 37.1-49.2 34.8Z" style="fill:url(#axf-3);stroke-linecap:round;stroke-linejoin:round;stroke-width:10px;stroke:#000"/><path class="axf-3" d="M630 804.4c20.9 7.2 50.4 8.8 72.2 2.9"/><path class="axf-5" d="M615.1 682.5c-26.5 1.4-46.5 46-36.4 71.8m3.6 44.2c-9.7 36.6 29.6 85.2 64.9 59.1"/><path class="axf-6" d="M641 707.2a56.3 56.3 0 0 1 9.2 16.6m-19.3-26.6-3.3-1M655 824.5a36.6 36.6 0 0 1-12.7 18.4"/><path class="axf-5" d="M630 740.3c-6 20.1-.6 42.8 4.4 62.6a2.4 2.4 0 0 0-.2-.8m38.7-38.6c6.7 16.4 6 31.7 18.2 42.1m30.5-45.6c8.2 18.3 4.8 36.4 20.5 47m29.3-44.5c7.4 18.9.7 32 17.1 39.6m32.2-70c-7.5 19.4-4.4 44.9 10.2 60.3m-70.4-60.6c21.2 18.8 22.4 69.7 59.2 65.2m-148.4 20.8c9-.4 17.9-2 29.1-3.6 15.5 7.7 21.6 10.4 38.6 2.9"/><path class="axf-6" d="M644.6 748.9a37.2 37.2 0 0 1 13.3 13.7m29.5-18.9a28.4 28.4 0 0 1 17.5 12.6m31.8-16.4a26.2 26.2 0 0 1 12.7 10.5m33.6-13.2c4.6-1.8 9.8-1.2 14.8-.7h.2c0 .1-.2.1-.1 0M931.6 539a21.6 21.6 0 0 1 3.4 21.3m-6.4 11.9-1.5 2m-13.8 69.9a12.8 12.8 0 0 1 2.1 13m-28.8 39.1a19.9 19.9 0 0 1-6.8 11"/><defs><linearGradient id="zl" x1="574.42" y1="410.83" x2="618.38" y2="675.51" gradientUnits="userSpaceOnUse"><stop offset="0" stop-color="#00ff19"/><stop offset=".22" stop-color="#00fa46"/><stop offset=".7" stop-color="#00eeb6"/><stop offset="1" stop-color="#00e6ff"/></linearGradient><style>.zl-3{fill:none;stroke-linecap:round;stroke-linejoin:round;stroke-width:10px;stroke:#000}</style></defs><path d="M746.4 534.9c13.5 7.2 27.2-7.7 21.7-22.5-4.6-12.5-17-13.9-17-35.5 0-45.9-85.7-81.3-142.9-1.3-25.4 35.5-44.1-49.3-124-44.7-38.6 2.2-84.3 38.4-70.1 76.9 31 84.2 9.1 85.6 18.1 107.2 5.8 13.7 26.8 18.9 35.1 4.2 19.3 25.5 52.7 36.3 76.4 9.9 57.9 26.7 37.8-55 32.1-74.1-3.2-45.4 46.6-36.5 51.6-5.4 2.6 16.2-3.4 85.5 34.5 44.1 8.8 6 10.9 17.4 16.6 25.9 16.3 24.1 45.5 11.2 42.2-17 41.4 1.7 44.3-39.2 25.7-67.7Z" style="fill:url(#zl)"/><path d="M438.8 449.7a25.8 25.8 0 0 1 3.2 5.3l40.5 89.1 14.5-19.4 34 113.4s15.8-8.2 16.6-6.9c13.2 12.2 32.4-1.9 37.5-15.9l-86.3-125.8-11.2 26-25.8-78.5m180 6.5 1.7 3.3 17.9 81.5 13.3-14.7s20.7 118 20.7 118.8c22.6 2.6 24.8-13.8 24.4-31.7 8.1 1.5 14.9-1 21.4-5l-63.5-114.4-9.1 21.6-4-70.7" style="fill:#fff;opacity:.47"/><path class="zl-3" d="M458.7 607.4c9.5 6.5 14.6 17.9 23 25.8 17.5 16.1 46.2 12.8 62-4.2 4.3-4.6 8-10 13.6-12.8"/><path class="zl-3" d="M546 629c16.3 20.4 42.6-2.4 40.4-24.8-1.8-19.2-13.8-36.8-11.7-56 4.9-44.6 58.3-24.1 53.7 12.5-7.8 60.9 32.4 47.9 32.4 31.3"/><path class="zl-3" d="M653.4 587.4c25.2 6.3 18.1 44.5 44.5 45.9 11.1.6 24.3-10.8 22.6-25.1-1.2-10.5-9.2-13.3-6-24.3m5.2 15.7c19.4 6.2 39.7-10.2 39.6-30.5-.1-17.6-18.1-30.4-17.3-47.5"/><path class="zl-3" d="M746.4 534.9c13.5 7.2 27.2-7.7 21.7-22.5-4.6-12.5-17-13.9-17-35.5 0-45.9-56.4-50.9-75.3-47.5s-32.8 11.4-67.6 46.2c-30.9 30.9-44.1-49.3-124-44.7-38.6 2.2-84.3 38.4-70.1 76.9 31 84.2 9.1 85.6 18.1 107.2 5.8 13.7 26.8 18.9 34.5 4.6"/><path d="M428.9 449.8c-51.5 33.4 2.4 85.8-3.3 135.8-1.6 14-2.6 35.5 14.5 39.7m17.6-18.2c1.8 5.9 2.6 12.4-.2 17.8m100.2-8.6c-2.4 5.2-4.6 11.2-2.8 16.8m98-45.3a19.7 19.7 0 0 1-1.7 15.4m63.6-18.4c3.6 7 9.7 13.6 17.8 14.8m9.6-78.8a23.7 23.7 0 0 0 16.6 14.6m-292.7 90.2c7.1 9.4 17.8 19 30.4 16.6m45.9-9.1c7.6 6.5 19.7 6.8 28.5 1m28.9-109.4c42.3 24.6 7.5 57.5 35.3 77.9m26.3-2.6c8.7 9.5 10.9 24.3 22 32.1 7 4.9 17.3 5.9 23.4-.7" style="opacity:.6;stroke:#000;fill:none;stroke-linecap:round;stroke-linejoin:round;stroke-width:10px"/><path d="M711.8 447.7a25.1 25.1 0 0 1 18.5 15.2m4 11.6.1 2.6m19 34.3a16.1 16.1 0 0 1 3.3 8.1M743.4 560a20.2 20.2 0 0 1-1 18.5m-6.3-31.4 1.6 2.6m-31.6 53.7a15 15 0 0 1-2.1 15m-60.7-25.8a17 17 0 0 1-3.5-12.3m-133-132.9a67.2 67.2 0 0 1 34.6 19.8m-51.1-21a32.6 32.6 0 0 0-10.3.7m92.3 152.7a22.1 22.1 0 0 1-.5 14.8m-4.1-29.3.9 2m-32.4 30c-4.2 4.9-9.8 9-16.2 9.5m-12 2.7-2.9-.8m-60.4-17a13.3 13.3 0 0 1-1-12.1" style="stroke:#fff;fill:none;stroke-linecap:round;stroke-linejoin:round;stroke-width:10px"/><defs><linearGradient id="zbk" x1="236.05" y1="322.22" x2="786.08" y2="195.7" gradientUnits="userSpaceOnUse"><stop offset="0" stop-color="#ff0080"/><stop offset="1" stop-color="#6a00ff"/></linearGradient><linearGradient id="zbk-2" x1="253.46" y1="373.96" x2="815.73" y2="373.96" gradientUnits="userSpaceOnUse"><stop offset="0" stop-color="#00ff84"/><stop offset="1" stop-color="#004cff"/></linearGradient><style>.zbk-3,.zbk-4{fill:none;stroke-linecap:round;stroke-linejoin:round;stroke-width:10px;stroke:#000}.zbk-4{opacity:.6}</style></defs><path d="M277.6 395.2c-58-233.3 425.8-349.7 508.5-97.5-104.6-28.1-415 39-508.5 97.5Z" style="fill:url(#zbk)"/><path d="M294.7 427.7c0-.1-6.5 12.2-5.1 22.2a84.4 84.4 0 0 0-30.7 6.1C191.5 337.6 774 270.5 789.1 298.1c34.5 13.6 34.5 54.4 5.6 75.2-1-3.6-1.3-19.2-25.5-36.9-160 3.8-324.4 35.6-474.5 91.3Z" style="fill:url(#zbk-2)"/><path class="zbk-3" d="M791.1 336.4A1541.8 1541.8 0 0 0 277 434.2"/><path class="zbk-3" d="M770.8 337.6c22.6 16.5 22.9 32.1 23.9 35.7 28.9-20.8 28.9-61.6-5.6-75.2-70.6-27.9-384.2 32.1-495.6 88.6-26.4 13.4-60 43.7-34.6 69.3a84.4 84.4 0 0 1 30.7-6.1c-1.4-10 5.1-22.3 5.1-22.2"/><path class="zbk-3" d="M319.6 376.1c2.8 11.7 6 23.4 9.5 35m64.1-56.7 8.2 35.9m80.9-60.2 8.8 39.9m83-60.2a432.5 432.5 0 0 0 5.3 43.8m90.7-57.4 3.1 44.2m68.5-47.6 2.4 42.3"/><path class="zbk-3" d="M788 297c-84.6-251.5-568.4-135.1-510.4 98.2"/><path class="zbk-4" d="M778.4 342.8a1506.5 1506.5 0 0 0-484.7 93.1m-17.5-1.2a41.2 41.2 0 0 0 13.1 1.4m502.3-98.9a30.6 30.6 0 0 1-10.8 6.5m1-56.7c-169.4-9.5-349.2 29.6-503.4 100.4m34.7-6.3q5.4 16.3 10.2 33"/><path class="zbk-4" d="M385.8 355.6c3.3 11.7 6.2 23.5 8.9 35.4m80.4-58.6 7.9 36.3m83.3-55.5c1.9 12.4 3.7 24.9 5.5 37.4m92.7-52.2c.7 13.6 1.6 27.2 2.7 40.7m67.8-43.8 2 38.4"/><path d="M766.9 307a51.2 51.2 0 0 1 22.2 7m-68.5-10.2c-9.3.5-18.6 1.2-27.9 2m-52.1 4.9-31.7 4.9m-63.2 11.6c-10.3 1.6-20.5 3.4-30.6 5.7m-58.3 13.9-28.7 7.5m-58.7 16.4c-7 2.3-14 4.5-21.1 6.5m-45 18a133.4 133.4 0 0 0-21.9 13.6m370.5-222.2a157.9 157.9 0 0 1 57.7 32.5m10.7 10.2 6.1 6m-347-14a187.2 187.2 0 0 0-65.7 60m-7.4 15.7a27.7 27.7 0 0 1-2.8 5.4" style="stroke:#fff;fill:none;stroke-linecap:round;stroke-linejoin:round;stroke-width:10px"/><circle cx="550" cy="550" r="500" style="fill:none;stroke:#000;stroke-width:10;stroke-linecap:round;stroke-linejoin:round;stroke-miterlimit:10"/></svg>