<svg version="1.1" id="Layer_1" xmlns="http://www.w3.org/2000/svg" x="0" y="0" viewBox="0 0 1100 1100" style="enable-background:new 0 0 1100 1100" xml:space="preserve" xmlns:xlink="http://www.w3.org/1999/xlink"><path d="M50 550C50 274 274 50 550 50s500 224 500 500S50 826 50 550z" style="fill:#0090ff"/><path d="M1050 550c0 276-224 500-500 500S50 826 50 550s1000-276 1000 0z" style="fill:#06f"/><style>.st239{fill:#575757}</style><g id="Layer_59"><path d="M532 209c-68 59.6-70.9 20-120.8 36.5-19.6 10.9-14 30-9.7 39.6 11 23-50.8 9-69 40.3-10 18 0 42-7.5 61.8-9 19.6-34 35-37 52-43 48-154 7-119 70.4 6 11 33-6 39 9.1 7 17.5-39 29-21 46.7 18 5 20.7 39.9 57 63 14 20 3 51 19 69.1 36 38 46-25 41-34.3 4-39 44-10.6 22 38.7-23 52 11 74 36.5 56.6 24-9 13 39 23 50.9 19.5 37 55 12 67 12 18 .7 28 22 29.8 40.3 6.5 63 54 46 59 8 15.5-34 45 49 47 59.9 11 73 69 42 70.8 17.9 3-54-3-60 2-68.3 18.5-31 71 13 90.8-15.5 14-19.7-31-63.5 8-55.4 94 19 19-100.7 14-120.4-9-35.5 14-106 47-121.7 18-9 17-35.5 7-52.8-9.5-17-25-30.6-31-48.9-13.5-54 22-102-36-133.3-5-3-7-9.5-4-14.4 17-26 1-66-32-71.4-22-3-44 9-66.5 6.3C615 247 578.5 178 532 209z" style="fill:#e3e3e3"/><path class="st239" d="M357 473.1c3-12 4-27-7-35-27-19-22 17-47.5 13.7-44.5-6-59 23-79 18.9-22-11-62-4.5-61 25.5.7 22.5 22 12 36 16 38 12-9.7 29-12.5 37.9-4 13 9.7 24 20.9 22.3-11 42 60.7 47 47 89.9-8 44 52 68 53 16.7-1-14-3-36 15-35.5 50.7 9.9 32-15 52-38.9 20-8-7-17 18-45.7C426 509 335 535 357 473.1z"/><ellipse class="st239" cx="524" cy="551.9" rx="77" ry="142.5"/><ellipse class="st239" cx="694" cy="548.6" rx="64" ry="144"/></g><style>.st40{fill:none;stroke:#000;stroke-width:10;stroke-linecap:round;stroke-linejoin:round;stroke-miterlimit:10}.st98{opacity:.6;enable-background:new}</style><g id="Outline"><path class="st98" d="M793 537c-1 .7-1 2-.5 3 5 10 11 35 25 30 8-2 21-13 18-22.4-.5-1-2-2-3-1.5-26 12-28-11-39-9.4v.3zm-34 274.5c6 5 26 8 25-3-6-7-20.6-12-21.5-26C750 772 744 803 759 811.5zm-219.3 52s1 .5 1 .8c9 13.5-3 36-18 40-34 6-9-6-6-44 .3-5.3 22.3 2.7 23 3.2zM342 731c5 7-4 22-4 33 8 13 29.6-5 33-14.9 2-12-17-21-28-20.2-1 .1-1 1.1-1 2.1zm31-120.2c2 23-8 47-26 61.9-13 10.9-17.5-30.6-8-27.9 6 4.2 28-18.8 34-34zm-157-59.9c-8 6-17 3-25 1-11 5 4 20 13.5 16 5-4 12-9 12-15.7-.5-.2-1.5-.2-.5-1.3zM337 473c-6-10-3-23 0-34 0-1 0-2-.6-2-9-9-23 11-19.8 20.7C318 463 338 475 337 472.8v.2z"/><path class="st98" d="M326 392c-2 29 24 45 7 44-7 2-14 1-15 11-1 11-24 0-24.5-1.3C285 433 317 404.5 326 392zm103-118c-9.9-4-16-16-18-25-4-6-9.9 1-11 6-7 54 29.5 28 29 19zm293 9c16 21 29.5 12 40 20.7 3 4 1 9.6-1 14-3 9-13 9-20 4.1-14.5-5.8-22-22.2-19-38.8z"/><path class="st40" d="M347 729c53.5 5 15 86 59 102 25 9 37-19.8 55-11.9 23 10.1 19.6 40 24 60.7 9.6 46 63 29.6 58-12.8"/><path class="st40" d="M519 861c89-9 47.5 119 114.5 115 39-6 35-47 25-76.5-3-9 0-18.5 7-24.5 24.5-21 59 15.5 84-2.5 15-11 8-33-2-45-12-15 0-32 10-43"/><path class="st40" d="M790 539c53 69.8-64 71 8 194.5 6 14 11 32 11 48.5 0 32-49 47.5-61 16"/><path class="st40" d="M721 287c2 51 64 31 74 88 6 34-11.5 71 7 103 10 18 27 31.5 34 51 8 19-4 47-27 42"/><path class="st40" d="M407 290.6c-16-8-12-29.9-2-41 17-15 40.5-10 61-6 29.8 1 49-29 75-38 50-17 81 55 133 44 23-5 48-11 69 1 25 14 33 55 10 75"/><path class="st40" d="M428 278c-16 26.5-51 17.5-76 28.5-20 10.5-28 33-23 55 10 47-43 51-39 88m25 4.5c1.5-23 35-26 41-5 7 25-13 47 16 72"/><path class="st40" d="M334 476c-20-34-61-31.5-89-9.6-20 8-43-3-64 4-22 7-28 37-5 43.5 6.5 2 23-2 26-1 15 4 11 25-5 30-21 6-10 29 6 29"/><path class="st40" d="M216 554.5c-15 15-14 41 2 55 37 22 41 31 36 69.7-2 31 46 41 53.5 10 2-10.8-4-22 0-33 13-32 44 20 62-44.5"/><path class="st40" d="M327 647.9c25 29.7-.5 47-7 75-10 32.5 34 65 53 25"/><path d="M729 262.5c9 4 16 13 18 22.5m-193-68c12.5 2 24.5 8 34 16m9 9 3 3m-163 10c-5.5-.9-12 .6-15.5 4M362 319.6c-9 2-14 10.7-16 19M339 449c4 1 6 6 6 9.8M308.5 470c-12-6-16-5-22-4M175 492c1-4 5-7 9-7.5m38 89.5c-4 8 0 16 4 19.9m44 78.6c-1 6 1 15 9 18m76-77.5c-3 14-13 14.5-16 16m4.5 119.5c-5-3-9-9-8-15M397 782c-1 14.5 7 28 14 30m90 53.9c-3 12 2 27 14.5 25M636 957c14-3 17-28 11-38m96-60.1c1-7 0-14-4-19m46-49.1c8-6.5 9-25 3-39M786 582c5-8 3-19-3-26m37-12c2-8.5-.6-18-7-24m-56-169c18 6 22 30 21 35" style="opacity:.7882;fill:none;stroke:#fff;stroke-width:10;stroke-linecap:round;stroke-linejoin:round;stroke-miterlimit:10;enable-background:new"/></g><style>.st40,.st68{fill:none;stroke-width:10;stroke-linecap:round;stroke-linejoin:round;stroke-miterlimit:10;stroke:#000}.st68{opacity:.6;enable-background:new}</style><g id="Diamond_Grillz"><linearGradient id="SVGID_00000158020979588429643290000018342716222877648305_" gradientUnits="userSpaceOnUse" x1="591.196" y1="-432.994" x2="591.196" y2="-128.969" gradientTransform="translate(0 1066)"><stop offset="0" style="stop-color:#0dffaa"/><stop offset="1" style="stop-color:#0d62ff"/></linearGradient><path style="fill:url(#SVGID_00000158020979588429643290000018342716222877648305_)" d="M510.5 800.6c214 157 325-208 159-129-69 33-123-6-175-9-30.5-13-130.5 30.4 16 138z"/><path class="st68" d="M738 669.5c-14-9.6-32-3-47 2-27 9.5-54 18-82 19-29.6 1-59-5-88-12.9-24-7-49.7-16-73.5-8"/><path class="st68" d="M526 677c-11 36-22 71-33 107m89-93c-6 44-12 89-19.7 133M655 681c7.5 46 16 92 26 137"/><path d="M734 690.5c1 22.5-4 45-15 65m-7 12.5c-1 2-3 4-4 7-1 0-1-1 4-7zm-76-60c5 24 8 45 12 73m2 16c1 2 1 4 1 6m-90-99c-3 19-7 38-11 57m-2 12.9c0 2-1 5-1 7M501 690l-15 53" style="fill:none;stroke:#fff;stroke-width:10;stroke-linecap:round;stroke-linejoin:round;stroke-miterlimit:10"/><path class="st68" d="M448 670.5C341 742 680 984 746 730"/><path class="st40" d="M699 661c-135 56-184-17-241 3-33 14-26 67-6 88 253 259 369-141.5 247-91z"/><path class="st40" d="M519.9 670.6c-13 36-20 74-33 110 0-.5 1 0 1 0M576 684c-7.5 46-16 92-21 137.5m93-141.7c6 48 17 96 25 144"/></g><defs><linearGradient id="ze" x1="411.69" y1="535.4" x2="547.43" y2="535.4" gradientUnits="userSpaceOnUse"><stop offset="0" stop-color="#0ff"/><stop offset="1" stop-color="#00f"/></linearGradient><linearGradient id="ze-2" x1="519.79" y1="532.03" x2="604.49" y2="532.03" xlink:href="#ze"/><linearGradient id="ze-3" x1="595.22" y1="562.5" x2="709.15" y2="562.5" xlink:href="#ze"/><linearGradient id="ze-4" x1="626.17" y1="477.22" x2="754.31" y2="477.22" xlink:href="#ze"/><style>.ze-2,.ze-7{stroke:#000;stroke-linecap:round;stroke-linejoin:round;stroke-width:10px;fill:none}.ze-2{opacity:.6}</style></defs><path d="M657.6 445.2c-10.2 14.7 7.8 30.8 24.5 35.3s22.5 22.4 36.9 28.4c40.5 17.2-18.5-125.4-61.4-63.7Zm-144.9 13.4c-23.1-10.5-70.3 84.4-73.7 106.9-6.5 43.3 40.7 62.5 34.9 3.1-3.1-31.3 82.8-90.1 38.8-110Zm42.6 89.2c-14.9-1.3-14.8 37.5-8.6 59.4s44.4-6.9 28.9-23.5c-13.9-15-7.4-34.7-20.3-35.9Zm60.5-22.5c-11.7 17 21.5 28.1 25.2 45.7 9 43.5 60.1 5.8 37.3-21.4-8-9.5-21.7-9-31.7-15-6.6-3.9-22.3-21.6-30.8-9.3Z" style="stroke-linecap:round;stroke-linejoin:round;stroke-width:10px;stroke:#000;fill:#fff"/><path class="ze-2" d="M501.6 435.2c-43.9 16.5-103.5 102.3-94.6 151.7 5 27.7 34.9 65.7 64.3 48.5m102.5-204.9c-25.2 21 5.3 38-29.5 86.3-16.6 23.1-29.3 51.4-29.8 80.3-.5 36.3 46.6 57.7 71.5 29.9m6.3-101.6c-3.9 12.9 3.4 25.6 9.8 36.3 19.2 31.8 11.5 28 18 41.7 20.5 43.1 79.3 12.5 87.1-25.2m-81.7-146.9c-8.6 16.4-4.6 39.5 7.1 53.4s33.3 13.2 62.8 38.6c12.8 11.1 38.2 38.7 52 15.7"/><path class="ze-2" d="M501.4 455c-34.5 24.8-69.1 81.5-67.8 124.7.4 14.8 17 38.6 32.2 24.9m79.8-56.1c-11.4 15.1-14.2 85.8 18.4 66.5m45.9-86.4c-3.4 15.5 13.6 24.5 21.4 35.4s8.6 23.5 19.6 29.2c14 7.2 29.5-5.5 31.9-19.6m-31.7-125.2c-4.5 20.9 16.9 33.1 33.5 39.5 13.7 5.2 29.8 36.5 45.1 21.3"/><path d="M671.1 436.5c-16.7 22.4 36.3 35.4 34.5 9.4 7.2 6.6 13.8 16.7 14.9 26.5-3.6 7.4-12.4 15.6-21.1 14.8-8.7-5.5-71.1-24.4-28.3-50.7Zm-47.3 106c6 7.2 22.6 1.5 18.5-6.9 8.6 6.3 21.8 5.3 28.8 13.6-1 6.4-32.1 31.5-47.3-6.7Zm-76.9 20.4c-.6 9 11.7 14.8 17 6.8 23.2 21.5-14.2 22.3-17.6 16.3-2.6-8-1-13 .6-23.1Zm-44.8-98.2c-12.6 12.2-6.9 38.7 13.1 30.8-15.8 22.1-22.6 63.4-56 41.5-16.6-10.9 24.1-65 42.9-72.3Z"/><path d="M502 436.9c-24.7 10-130.4 119.4-74 181.9 25.4 28.2 68.2 27 68.2-36.9 0-43.1 59-87.4 50.4-120.3-4.8-18-23.3-33.4-44.6-24.7Z" style="fill:url(#ze);opacity:.72"/><path d="M576.3 432c-20.8 18.6 6.9 39.7-21.4 80.6-83.6 120.5 4.8 138.2 31.8 113.4 43.6-40-31.5-66.5-6.8-105.9 49.4-78.6 11.6-101.7-3.6-88.1Z" style="fill:url(#ze-2);opacity:.72"/><path d="M598.4 517.5c-11.4 22.1 11 43.8 20.3 63.3 8.2 17.1 5.9 33.6 28.5 38.3 30.8 6.5 75-37.4 58.3-66.8-13.2-23.3-89.5-69-107.1-34.8Z" style="fill:url(#ze-3);opacity:.72"/><path d="M631.1 429.8c-13.2 27.6 1.1 57.2 29.2 65.9 23.3 7.2 40.2 27.8 60.5 43.2 52.8 40.2 42-120-23.8-129-18.7-2.6-56.5.2-65.9 19.9Z" style="fill:url(#ze-4);opacity:.72"/><path class="ze-7" d="M502 436.9c-24.7 10-130.4 119.4-74 181.9 25.4 28.2 68.2 27 68.2-36.9 0-43.1 59-87.4 50.4-120.3-4.8-18-23.3-33.4-44.6-24.7Zm74.3-4.9c-20.8 18.6 6.9 39.7-21.4 80.6-83.6 120.5 4.8 138.2 31.8 113.4 43.6-40-31.5-66.5-6.8-105.9 49.4-78.6 11.6-101.7-3.6-88.1Z"/><path class="ze-7" d="M598.4 517.5c-11.4 22.1 11 43.8 20.3 63.3 8.2 17.1 5.9 33.6 28.5 38.3 30.8 6.5 75-37.4 58.3-66.8-13.2-23.3-89.5-69-107.1-34.8Zm32.7-87.7c-13.2 27.6 1.1 57.2 29.2 65.9 23.3 7.2 40.2 27.8 60.5 43.2 52.8 40.2 42-120-23.8-129-18.7-2.6-56.5.2-65.9 19.9Z"/><path d="M701.4 426.4c18.7 4.2 28.6 34.2 34.5 55.6m1.1 13.3a52.3 52.3 0 0 1 0 12.5m-105.2 13.4a107.8 107.8 0 0 1 40.1 20.9m10.7 8.4a27.4 27.4 0 0 0 3.6 3.2m-97.3-111.3c2.9 3.5 3.1 8.3 3.1 12.6m-8.3 130.6a21.6 21.6 0 0 1-5.1 26.2m-9.1 6a25.3 25.3 0 0 1-3.6 1.2m-36.2-157.8c2.7 8.8-.3 18.1-4.6 25.9m-6.5 11.8-1.4 2.3m-37.8 85.5a37.9 37.9 0 0 1-4.1 22.2m-6.5 10.1a10.5 10.5 0 0 1-2.8 1.4" style="stroke:#fff;stroke-linecap:round;stroke-linejoin:round;stroke-width:10px;fill:none"/><defs><linearGradient id="zbk" x1="236.05" y1="322.22" x2="786.08" y2="195.7" gradientUnits="userSpaceOnUse"><stop offset="0" stop-color="#ff0080"/><stop offset="1" stop-color="#6a00ff"/></linearGradient><linearGradient id="zbk-2" x1="253.46" y1="373.96" x2="815.73" y2="373.96" gradientUnits="userSpaceOnUse"><stop offset="0" stop-color="#00ff84"/><stop offset="1" stop-color="#004cff"/></linearGradient><style>.zbk-3,.zbk-4{fill:none;stroke-linecap:round;stroke-linejoin:round;stroke-width:10px;stroke:#000}.zbk-4{opacity:.6}</style></defs><path d="M277.6 395.2c-58-233.3 425.8-349.7 508.5-97.5-104.6-28.1-415 39-508.5 97.5Z" style="fill:url(#zbk)"/><path d="M294.7 427.7c0-.1-6.5 12.2-5.1 22.2a84.4 84.4 0 0 0-30.7 6.1C191.5 337.6 774 270.5 789.1 298.1c34.5 13.6 34.5 54.4 5.6 75.2-1-3.6-1.3-19.2-25.5-36.9-160 3.8-324.4 35.6-474.5 91.3Z" style="fill:url(#zbk-2)"/><path class="zbk-3" d="M791.1 336.4A1541.8 1541.8 0 0 0 277 434.2"/><path class="zbk-3" d="M770.8 337.6c22.6 16.5 22.9 32.1 23.9 35.7 28.9-20.8 28.9-61.6-5.6-75.2-70.6-27.9-384.2 32.1-495.6 88.6-26.4 13.4-60 43.7-34.6 69.3a84.4 84.4 0 0 1 30.7-6.1c-1.4-10 5.1-22.3 5.1-22.2"/><path class="zbk-3" d="M319.6 376.1c2.8 11.7 6 23.4 9.5 35m64.1-56.7 8.2 35.9m80.9-60.2 8.8 39.9m83-60.2a432.5 432.5 0 0 0 5.3 43.8m90.7-57.4 3.1 44.2m68.5-47.6 2.4 42.3"/><path class="zbk-3" d="M788 297c-84.6-251.5-568.4-135.1-510.4 98.2"/><path class="zbk-4" d="M778.4 342.8a1506.5 1506.5 0 0 0-484.7 93.1m-17.5-1.2a41.2 41.2 0 0 0 13.1 1.4m502.3-98.9a30.6 30.6 0 0 1-10.8 6.5m1-56.7c-169.4-9.5-349.2 29.6-503.4 100.4m34.7-6.3q5.4 16.3 10.2 33"/><path class="zbk-4" d="M385.8 355.6c3.3 11.7 6.2 23.5 8.9 35.4m80.4-58.6 7.9 36.3m83.3-55.5c1.9 12.4 3.7 24.9 5.5 37.4m92.7-52.2c.7 13.6 1.6 27.2 2.7 40.7m67.8-43.8 2 38.4"/><path d="M766.9 307a51.2 51.2 0 0 1 22.2 7m-68.5-10.2c-9.3.5-18.6 1.2-27.9 2m-52.1 4.9-31.7 4.9m-63.2 11.6c-10.3 1.6-20.5 3.4-30.6 5.7m-58.3 13.9-28.7 7.5m-58.7 16.4c-7 2.3-14 4.5-21.1 6.5m-45 18a133.4 133.4 0 0 0-21.9 13.6m370.5-222.2a157.9 157.9 0 0 1 57.7 32.5m10.7 10.2 6.1 6m-347-14a187.2 187.2 0 0 0-65.7 60m-7.4 15.7a27.7 27.7 0 0 1-2.8 5.4" style="stroke:#fff;fill:none;stroke-linecap:round;stroke-linejoin:round;stroke-width:10px"/><circle cx="550" cy="550" r="500" style="fill:none;stroke:#000;stroke-width:10;stroke-linecap:round;stroke-linejoin:round;stroke-miterlimit:10"/></svg>