<svg version="1.1" id="Layer_1" xmlns="http://www.w3.org/2000/svg" x="0" y="0" viewBox="0 0 1100 1100" style="enable-background:new 0 0 1100 1100" xml:space="preserve" xmlns:xlink="http://www.w3.org/1999/xlink"><circle cx="550" cy="550" r="500" style="fill:#2e2e2e"/><linearGradient id="a1" gradientUnits="userSpaceOnUse" x1="264.957" y1="853.134" x2="422.298" y2="853.134"><stop offset="0" style="stop-color:#00ff90"/><stop offset="1" style="stop-color:#c800ff"/></linearGradient><circle cx="343" cy="853" r="78" style="fill:url(#a1);stroke:#000;stroke-width:10;stroke-linecap:round;stroke-linejoin:round;stroke-miterlimit:10"/><linearGradient id="b1" gradientUnits="userSpaceOnUse" x1="826.38" y1="645.312" x2="919.38" y2="645.312"><stop offset="0" style="stop-color:#f7ff00"/><stop offset="1" style="stop-color:#ff5e00"/></linearGradient><ellipse style="fill:url(#b1);stroke:#000;stroke-width:10;stroke-linecap:round;stroke-linejoin:round;stroke-miterlimit:10" cx="873" cy="645" rx="46.5" ry="53"/><linearGradient id="c1" gradientUnits="userSpaceOnUse" x1="179.591" y1="404.219" x2="384.591" y2="404.219"><stop offset="0" style="stop-color:#0073ff"/><stop offset="1" style="stop-color:#8c00ff"/></linearGradient><ellipse style="fill:url(#c1);stroke:#000;stroke-width:10;stroke-linecap:round;stroke-linejoin:round;stroke-miterlimit:10" cx="282" cy="404" rx="102.5" ry="111"/><linearGradient id="d1" gradientUnits="userSpaceOnUse" x1="766.562" y1="310.33" x2="944.562" y2="310.33"><stop offset="0" style="stop-color:#7300ff"/><stop offset="1" style="stop-color:#ff008c"/></linearGradient><ellipse style="fill:url(#d1);stroke:#000;stroke-width:10;stroke-linecap:round;stroke-linejoin:round;stroke-miterlimit:10" cx="856" cy="310" rx="89" ry="95"/><linearGradient id="e1" gradientUnits="userSpaceOnUse" x1="615.769" y1="857.232" x2="845.269" y2="857.232"><stop offset="0" style="stop-color:#f0b"/><stop offset="1" style="stop-color:#f40"/></linearGradient><circle style="fill:url(#e1);stroke:#000;stroke-width:10;stroke-linecap:round;stroke-linejoin:round;stroke-miterlimit:10" cx="730.5" cy="857" r="115"/><linearGradient id="f1" gradientUnits="userSpaceOnUse" x1="115.411" y1="614.727" x2="186.411" y2="614.727"><stop offset="0" style="stop-color:#00ff90"/><stop offset="1" style="stop-color:#006fff"/></linearGradient><circle style="fill:url(#f1);stroke:#000;stroke-width:10;stroke-linecap:round;stroke-linejoin:round;stroke-miterlimit:10" cx="150.9" cy="615" r="35.5"/><path d="M313 326.3c18 9.9 33 27 39.6 46m7 22.7 1 7m509.9-163.1c19 5 34 19.6 41 38m6 22c1 3 1.5 5 2 8M879 609.4c9 4 16 11 19.8 20m.7 19.6-.5 5M759 766.9c25 9 44 31 49.9 56.5m7.1 23.7c1 4 1 7 .5 10.8M364 799.3c16 6 29 22 31 39m0 22.7-2 6M153.5 595.4c7 1 12 6 14 12" style="opacity:.8118;fill:none;stroke:#fff;stroke-width:16;stroke-linecap:round;stroke-linejoin:round;stroke-miterlimit:10;stroke-dasharray:0,0,0,0,0,0"/><defs><style>.zc-2,.zc-3{fill:none;stroke-linecap:round;stroke-linejoin:round;stroke-width:10px}.zc-2{stroke:#4a4a4a}.zc-3{stroke:#00ff37}</style></defs><g id="Layer_72" data-name="Layer 72"><path d="M531.7 209c-67.9 59.6-70.9 20.3-120.8 36.5-19.6 10.9-14.3 30.3-9.7 39.6 11.2 22.8-50.8 8.7-68.6 40.3-10.3 18.3.1 42.2-7.5 61.8s-33.8 34.7-36.8 52.2c-43.4 48.2-154 6.6-119.1 70.4 6.2 11.4 32.9-6.3 39.1 9.1 7 17.5-38.8 29.4-21.3 46.7 17.7 4.9 20.7 39.9 56.9 63.2 13.8 20 2.7 51.4 19.4 69.1 35.8 37.8 46.3-24.8 41.3-34.3 4.3-38.8 43.9-10.6 22.2 38.7-22.8 51.7 11.2 74 36.5 56.6 24-8.9 13.3 38.7 23.3 50.9 19.5 37.2 54.9 11.6 66.6 12 18.1.7 28 22.3 29.8 40.3 6.5 63 53.6 46.3 59.1 8 15.5-34.3 45.1 48.6 46.9 59.9 11.3 72.6 69.3 42 70.8 17.9 3.3-54.1-3.2-60.1 1.7-68.3 18.5-31.1 71 13.3 90.8-15.5 13.6-19.7-31.2-63.5 7.9-55.4 94 19.4 18.7-100.7 13.8-120.4-8.8-35.5 13.9-105.6 46.9-121.7 18.1-8.8 17.1-35.5 7.4-52.8s-24.9-30.6-31.4-48.9c-13.5-54.4 22.4-102.1-36-133.3a10.2 10.2 0 0 1-3.9-14.4c17.1-26.3 1.3-66.4-31.8-71.4-22.1-3.3-44.3 8.9-66.5 6.3-43.8-5.2-80.2-74.1-127-43.1Z" style="fill:#757575"/><path class="zc-2" d="M416.3 430.8c-7.8 85.7-9.7 162.5-14.6 245.2-15.1 6.6-15.8 30.7 1 32.6"/><path class="zc-2" d="M268.4 456.4q-1.3 51.9-5.7 103.6c86.9 6.2 172.1 5.7 258 12.8.8 15.4 20.6 16.8 27.6 6.3"/><path class="zc-2" d="M446 564.3c-2.2 48.2-4.3 96.5-.6 144.5l102.9 7.6"/><path class="zc-2" d="M504.2 793.2a1259.8 1259.8 0 0 1-4-130.1c-9.2-4.4-11.8-17.1-.3-22.8m-89 104.8-.1 83.7"/><path class="zc-2" d="M415.9 788.2c58.7-.6 115.8-1 176.4-.6 4.4 12.8 18.4 10.7 22.6 1.9M375.8 302.8c-.7 34.1-5.5 102.7-5.8 102.4-9.5 5.5-16.4 18.6-.4 26.1m117-190.5c-4 52.9-9.6 103.1-10.8 155.2"/><path class="zc-2" d="M378.1 380.3c79.4 1.5 159.1 4.3 238.4 4.3m-131.7-43.9a705.1 705.1 0 0 0 80.9 6c2.1 11.1 12.6 11.4 17.1 4.6m73-99.4c-22.8 113.8-33.3 229.4-33.3 345.8"/><path class="zc-2" d="M790.1 437.5c-60.6-2.3-118.7-4.1-179-8.9 0 10.8-13.8 16.2-20.3 4.2"/><path class="zc-2" d="M690.3 634.1c6-76.9 12-153.9 24.2-229.5-11.3-4.6-18-23.6-2.4-32.4"/><path class="zc-2" d="M558.1 620.2a1265.5 1265.5 0 0 0 220.2 6.3"/><path class="zc-2" d="M632.7 622.6c9.4 108.6 8.8 220.1 28.8 330.2M418.1 482.2l235.5 15.9"/><path class="zc-2" d="M799.4 736.5c-74.3 4.6-143.2 5.8-216.2 6-9.8 14.5-22.4 14.1-28.5 3.3"/><path class="zc-3" d="M274.9 453.3c-.5 33.5-2.7 66.9-6.3 100.1l251.2 12m-67.1-.2q.3 68.4-1.8 136.7l98.6 8.1"/><path class="zc-3" d="M507.4 662a1249.5 1249.5 0 0 0 5 129.8m-91-360q-8.1 123.3-12.5 246.9m13.6-203.4c77 7.5 154.2 14 231.4 18.3M494.5 237.3C488.5 290 484 343 481 396m8-61.3c25.8 2.9 51.7 5 77.7 6.1M383.3 303c-2.1 35.5-4.7 70.9-7.6 106.3"/><path class="zc-3" d="M380.9 374.1c78.1 1 159.3 6.7 234.6 6.7m45.3-128.7A2110 2110 0 0 0 626 596.9"/><path class="zc-3" d="M791.1 434.5c-61.8-5-119.4-6.7-181.8-11.7"/><path class="zc-3" d="M721.5 403.7q-16.7 116.1-25.2 233.1"/><path class="zc-3" d="M783.7 620.7a1735.9 1735.9 0 0 1-224.6-4.1m79.1 6.9c10.7 106.6 7.9 214.6 26.8 320.1"/><path class="zc-3" d="M796.7 732.4c-76.7 2.3-144.6 2-217.1 4.1m-163.8 95.1c-.3-29.8.2-59.5 1.4-89.3m.5 39.6c58.5 0 115.7-.5 175.3-.5"/><ellipse class="zc-3" cx="577" cy="339.7" rx="10.4" ry="14"/><ellipse class="zc-3" cx="598.3" cy="420.8" rx="10.9" ry="16.7"/><ellipse class="zc-3" cx="374.9" cy="421" rx="11.1" ry="11.7"/><circle class="zc-3" cx="538.2" cy="565.4" r="17"/><ellipse class="zc-3" cx="564.5" cy="737.8" rx="13.3" ry="12.4"/><ellipse class="zc-3" cx="606.2" cy="781.9" rx="11.6" ry="11.7"/><circle class="zc-3" cx="722.4" cy="384.6" r="16.2"/><circle class="zc-3" cx="408.9" cy="694.8" r="15.2"/><ellipse class="zc-3" cx="508.6" cy="648.7" rx="13.4" ry="11.1"/></g><style>.st40{fill:none;stroke:#000;stroke-width:10;stroke-linecap:round;stroke-linejoin:round;stroke-miterlimit:10}.st98{opacity:.6;enable-background:new}</style><g id="Outline"><path class="st98" d="M793 537c-1 .7-1 2-.5 3 5 10 11 35 25 30 8-2 21-13 18-22.4-.5-1-2-2-3-1.5-26 12-28-11-39-9.4v.3zm-34 274.5c6 5 26 8 25-3-6-7-20.6-12-21.5-26C750 772 744 803 759 811.5zm-219.3 52s1 .5 1 .8c9 13.5-3 36-18 40-34 6-9-6-6-44 .3-5.3 22.3 2.7 23 3.2zM342 731c5 7-4 22-4 33 8 13 29.6-5 33-14.9 2-12-17-21-28-20.2-1 .1-1 1.1-1 2.1zm31-120.2c2 23-8 47-26 61.9-13 10.9-17.5-30.6-8-27.9 6 4.2 28-18.8 34-34zm-157-59.9c-8 6-17 3-25 1-11 5 4 20 13.5 16 5-4 12-9 12-15.7-.5-.2-1.5-.2-.5-1.3zM337 473c-6-10-3-23 0-34 0-1 0-2-.6-2-9-9-23 11-19.8 20.7C318 463 338 475 337 472.8v.2z"/><path class="st98" d="M326 392c-2 29 24 45 7 44-7 2-14 1-15 11-1 11-24 0-24.5-1.3C285 433 317 404.5 326 392zm103-118c-9.9-4-16-16-18-25-4-6-9.9 1-11 6-7 54 29.5 28 29 19zm293 9c16 21 29.5 12 40 20.7 3 4 1 9.6-1 14-3 9-13 9-20 4.1-14.5-5.8-22-22.2-19-38.8z"/><path class="st40" d="M347 729c53.5 5 15 86 59 102 25 9 37-19.8 55-11.9 23 10.1 19.6 40 24 60.7 9.6 46 63 29.6 58-12.8"/><path class="st40" d="M519 861c89-9 47.5 119 114.5 115 39-6 35-47 25-76.5-3-9 0-18.5 7-24.5 24.5-21 59 15.5 84-2.5 15-11 8-33-2-45-12-15 0-32 10-43"/><path class="st40" d="M790 539c53 69.8-64 71 8 194.5 6 14 11 32 11 48.5 0 32-49 47.5-61 16"/><path class="st40" d="M721 287c2 51 64 31 74 88 6 34-11.5 71 7 103 10 18 27 31.5 34 51 8 19-4 47-27 42"/><path class="st40" d="M407 290.6c-16-8-12-29.9-2-41 17-15 40.5-10 61-6 29.8 1 49-29 75-38 50-17 81 55 133 44 23-5 48-11 69 1 25 14 33 55 10 75"/><path class="st40" d="M428 278c-16 26.5-51 17.5-76 28.5-20 10.5-28 33-23 55 10 47-43 51-39 88m25 4.5c1.5-23 35-26 41-5 7 25-13 47 16 72"/><path class="st40" d="M334 476c-20-34-61-31.5-89-9.6-20 8-43-3-64 4-22 7-28 37-5 43.5 6.5 2 23-2 26-1 15 4 11 25-5 30-21 6-10 29 6 29"/><path class="st40" d="M216 554.5c-15 15-14 41 2 55 37 22 41 31 36 69.7-2 31 46 41 53.5 10 2-10.8-4-22 0-33 13-32 44 20 62-44.5"/><path class="st40" d="M327 647.9c25 29.7-.5 47-7 75-10 32.5 34 65 53 25"/><path d="M729 262.5c9 4 16 13 18 22.5m-193-68c12.5 2 24.5 8 34 16m9 9 3 3m-163 10c-5.5-.9-12 .6-15.5 4M362 319.6c-9 2-14 10.7-16 19M339 449c4 1 6 6 6 9.8M308.5 470c-12-6-16-5-22-4M175 492c1-4 5-7 9-7.5m38 89.5c-4 8 0 16 4 19.9m44 78.6c-1 6 1 15 9 18m76-77.5c-3 14-13 14.5-16 16m4.5 119.5c-5-3-9-9-8-15M397 782c-1 14.5 7 28 14 30m90 53.9c-3 12 2 27 14.5 25M636 957c14-3 17-28 11-38m96-60.1c1-7 0-14-4-19m46-49.1c8-6.5 9-25 3-39M786 582c5-8 3-19-3-26m37-12c2-8.5-.6-18-7-24m-56-169c18 6 22 30 21 35" style="opacity:.7882;fill:none;stroke:#fff;stroke-width:10;stroke-linecap:round;stroke-linejoin:round;stroke-miterlimit:10;enable-background:new"/></g><style>.st231{fill:none;stroke:#000;stroke-width:10;stroke-linecap:round;stroke-linejoin:round;stroke-miterlimit:10}</style><g id="Layer_65"><path d="M356 639c8-18-17-27-19-43 7-59.6-10.7-35-28-65.1-7 17 17 81-13 55.1-7-6-2-19-8.5-26-42 42-9-38-27-59.4 1.5 26-36 17-15-35.1-108-4-96 43-63 50 19 4 37-17 24 21.7-13 8-32 15-12.5 30.9 23 14 3 28 29 44.6 32 18 36 34 30 68 1 14 15 25 29 25.8 39.6 3 9.5-50.6 37-61.3 11-2.2 29 7.8 37-6.2z" style="fill:#ff054c"/><path class="st231" d="M244.5 466.7c-20.9 59 19.9 60 12 27.5 24 25 1.5 43 5 67.8 3.5 16.5 27 9.8 22-6 15 5 3 38 19.9 34.8 26-4-13-44 6-72 0 36 24 19.8 30 45.9 2 7 0 15-1 22.1-7 28 21 27 20 50.4"/><path d="M313 516.9c0 34 24 19 30 44.3 2 7 0 14-1 21.3-7 27 21 26 20 48.6M248.5 466.7c-20.9 57 19.9 58 12 26.6 24 24 1.5 41 5 65.4 3.5 16 27 9 22-5.7 15 5 3 36 19.9 33.6" style="opacity:.6;stroke:#000;enable-background:new;fill:none;stroke-width:10;stroke-linecap:round;stroke-linejoin:round;stroke-miterlimit:10"/><path class="st231" d="M334 475.6c-20-34-61-31.5-89-9.6-20 8-43-3-64 4.1-22 7-28 37.5-5 43.5 6.5 2 23-2 26-1.1 15 4 11 25-5 30.1-21 6-10 29 6 29"/><path class="st231" d="M216 554.5c-15 15-14 41 2 54.6 37 22 40.7 30.9 36 69.7-2 31 46 41 53.5 10 2-10.8-4.5-22 0-32.7 12-32.5 44 20 62-44.5"/><path d="M269 669.9c-1.5 6-1 14 4 19m10 4.7c4 1.5 6 0 9-1.8m36-60.8c4 2 9 3 13 2.3M217.5 579c-1 7 2 15 8 19m10.5 6.7c.8.6 1.5 1 2 1.8M187 480c-5.5 2-10 6-12 11.8" style="stroke:#fff;fill:none;stroke-width:10;stroke-linecap:round;stroke-linejoin:round;stroke-miterlimit:10"/></g><style>.st40{fill:none;stroke-width:10;stroke-linecap:round;stroke-linejoin:round;stroke-miterlimit:10;stroke:#000}</style><g id="Tounge_Out"><path d="M572 761c43 37-4 91 30 88.5 10-5 14-3 15 9 14 68 90 38 76-21.4-2-9-10-18-7-27 22-22-6.5-50-21-67.6L572 761z" style="fill:#fe1767"/><path d="M648 806c-4-29-8.5-41 18-56.9-14-4-29 5-42 9.5l24 47.4zm-44 26c1 6-3.5 13-9.6 14 5 4 13 0 16-5v-.7L604 832zm72-41.5c2 1 15.5 9 18.5 2-.5 5-4.5 10.5-7 15-1-.5-2 0-3 .9l-8.5-17.9z" style="fill:#ae0f45"/><path d="M629 772c-16-8-34-7-51-5" style="fill:none;stroke:#ae0f45;stroke-width:10;stroke-linecap:round;stroke-linejoin:round;stroke-miterlimit:10"/><path d="M678.5 837c3 13-1 28-10 38m4.5-52.1c.5 1 1 2 1.5 2.5" style="fill:none;stroke:#fff;stroke-width:10;stroke-linecap:round;stroke-linejoin:round;stroke-miterlimit:10"/><path d="M683 781c2 2 4 5 4 8m0 6v2m-90 42c-.9-2-.9-5 0-7m25-51c4 6 7 12 9.5 18m2.5 6.5c0 1 .5 1 1 2" style="fill:none;stroke:#fff;stroke-width:5;stroke-linecap:round;stroke-linejoin:round;stroke-miterlimit:10"/><path d="M454 727.9c26-2 46 21 69 29 12 4 65.8 5 59.5 59-1 9-4 18-3 26.6 2 14 14 23 26 16.9 10-5 7 7 9 12.9 2 18 21 32 39 26M752 692c-29.5 14-49.6 43-81 54" style="opacity:.6;stroke:#080808;stroke-width:10;enable-background:new;fill:none;stroke-linecap:round;stroke-linejoin:round;stroke-miterlimit:10"/><path class="st40" d="M453 722c19-4 36 8 52 17 63 35 144 22 199-21 14-11 28-25 45-31"/><path class="st40" d="M566 761c19 13 29 38 24 59.8-1 6.5-4 13-2 19.6 2 11 17.5 16 23 5"/><path class="st40" d="M607 833c13 14 6 38 20 52 29 29 69 1 67-35 .5-20.8-11-39-20-56.5m10 15.4c15-4 14-24 5-33.9-8-10.8-20.9-19-25-32.1v2M619.6 758c12 14 21 31 25 49"/></g><style>.st40,.st68{fill:none;stroke-width:10;stroke-linecap:round;stroke-linejoin:round;stroke-miterlimit:10;stroke:#000}.st68{opacity:.6;enable-background:new}</style><g id="flame_eye"><linearGradient id="SVGID_00000121993682064921210520000015515713131974571392_" gradientUnits="userSpaceOnUse" x1="495.753" y1="646.684" x2="696.753" y2="489.684" gradientTransform="matrix(1 0 0 -1 0 1100)"><stop offset="0" style="stop-color:#ff003b"/><stop offset=".104" style="stop-color:#f70045"/><stop offset=".279" style="stop-color:#e1005f"/><stop offset=".505" style="stop-color:#be008b"/><stop offset=".77" style="stop-color:#8d00c6"/><stop offset="1" style="stop-color:#5e00ff"/></linearGradient><path style="fill:url(#SVGID_00000121993682064921210520000015515713131974571392_);stroke:#000;stroke-width:10;stroke-linecap:round;stroke-linejoin:round;stroke-miterlimit:10" d="M499 467c-25 48-11 109 32 142-12 1-25-2-36-9 39 77 184 42 197-36.4-4 .5-21 13-29 7 15-18 13-41 13-64.9-5 17-25 28-42 19 29-40 26-78 .6-118.6-5 30-27 40-38 9-7-19.9-18-41-39-47 24 54-26 84-37 44.9-19 38 19.9 52 18 86.1-1 18-18 20-28 7-7-11-11-24-11.5-39.4v.3z"/><path d="M576 492c-9 10-3 15 0 27 7 17 14 36 24 51 6-22.5 8-46 12.5-69l-36.5-9.3v.3z"/><path d="M584 458.9c-19 22.5 3 56 28 32.6l-28-32.6z" style="fill:#fff"/><path class="st40" d="m584 453.1-16 48.8 33.5 77.4 12.5-89.2z"/><path class="st40" d="M575 481c0 17 26 25 37 14"/><path class="st68" d="M558 368c8 21 3 45-12.5 61.5m-24.5-17c-26 32.5 27 66 7 101M499 467c-29.9 42-14 104 19.5 139.7M636 405.5c-4 11-10.5 24-22 26.5m63 73c-9 10.6-19.8 20-34 19.6m49 37.9c-6.5 4-14 6-22 5"/><path class="st68" d="M495 600c19.5 69 182 66.5 197-36M581 453c-7 16-13 30-21 49 12 28 25 54 37.5 79"/><path d="M637 442c4 9.9 5 21 3 31m-3 14-1 2.7m29 46.3c0 5-2 9-4 13m8 38.9c-9.8 12-22 21.5-35.5 28m-11.5 5-4 1.1M501 519c.5 11.5 3 23 8 33.5m6 13.5 2 3.5M576 395c3 5 5 11 7 16.5m4 10.5 1 2" style="fill:none;stroke:#fff;stroke-width:10;stroke-linecap:round;stroke-linejoin:round;stroke-miterlimit:10"/></g><style>.st231,.st263{fill:none;stroke:#000;stroke-width:10;stroke-linecap:round;stroke-linejoin:round;stroke-miterlimit:10}.st263{stroke:#00ff2f}</style><g id="Layer_64"><path d="M290.6 446.8c8 0 15 3 22 6 0 0 10-15 15-16.6 6-2 24 2 24.5 1 16-27.5 30-34 56.5-23.9 13 5 25.5-5 33.5-14.3 39.7-75 116-2.5 177-25.7 15.5-6 29.9-14 45-21.1 48-30.8 72 20.8 110.9-11.6-5-6-11.5-10-19-14.3 47-118.3-92-70.3-118-81-33-14-67-61.5-102.5-37.9-69.7 46-67.5 34-110 32.1-26 5-37 36-18 55-47 20-83-11-77 80.3-4.5 28.2-35.5 43.2-39.9 72z" style="fill:#9e9e9e"/><path d="M741 290.6c7-.9 14-2 21-3.7M334 406c0 9 .8 18 1 27m44-53.1-46 5.4m47-67.8v13.7m6 7.3c-18 2-36 3.5-54 5.5m61 4.7c1 20 4 40.6 7 60.7m4-37.4c10-1 17-2 26-3.9m-12.5-48.7 5 39.4M453 243.9c2 29.7 4 59 7 89m8-25.4c15 0 29.7-.9 44-3m-3-40.5 1 32m.7 9.5c0 13 1 26.5 4 39.5 0 0 43-.9 43-.7 5 10.8 25.5 13 29.9 0M559 249.9c-9 23 26 36 35 12.8l6 .6 2.5 59.6m8.5-16.6h17l3 37.8m-30.1-100v10.1m15.1-19.3c0 6 .8 12.5 1 18.8m48 13v57.9m24.7-41.5-.8 52.4M654 319c19 1 39 1 58-.4" style="stroke:#454545;fill:none;stroke-width:10;stroke-linecap:round;stroke-linejoin:round;stroke-miterlimit:10"/><path class="st263" d="M398 346.8c2 22 4 44 7 65.8m-4-46.7c9.7-1 19-2 29-3.8l-8-44m36-75.1c3 29.9 6 60 7 90m.5-31.9c16 .6 31-2 47-.6m1.5-37.9c1 26 2.5 51 5 77.6 13.5 0 27 0 40.6-1"/><circle class="st263" cx="575.5" cy="257.5" r="14.5"/><ellipse class="st263" cx="575.5" cy="337.8" rx="14.5" ry="12.4"/><path class="st263" d="m593.5 257.4 27 .4-.5-22.1m-14 8.2 2 79.6m156-41.2-23 2.5m-47-1.5c-2 18-2 35.5-1 53.3"/><path class="st263" d="M712.5 313.9c-19.8 1.5-39.7 1.5-59.5.1"/><path class="st263" d="M669 326c0-19.8 0-39.5.5-59m-60 34.5c8 0 16-.8 24-1.5l2 44M331 337.9c19-1 36-2 55-4.3l-1-16.4m-44 116.7c-.9-9-1-19-.8-28m-7.2-26.8c16 0 29-2 45-3"/><path d="M722 285.5c4.5 16 17 29 32 34.5m-326-44c-6 5-14 8-22 7.4m-49 162.4c16-46 46-20.9 64-22.8 29-3 37-52 72-49.6 71 4.6 98 30.6 167.5-11.4 18-9 33-19 59-10.1 20.5 7 42.5 16 59-3.5" style="opacity:.6;stroke:#000;enable-background:new;fill:none;stroke-width:10;stroke-linecap:round;stroke-linejoin:round;stroke-miterlimit:10"/><path d="M736 261.6c6 4 11 10 13.5 16.9m2.5 12.8v5M561 216c7 1 14 4 19.5 8.3m11.5 8.4 6 4.4m-187 30.6c0-6.5 4.5-10 12-12.3m13-3.5 4 .6M359 318c-6 4.5-10 11-12 18.1m-2 10.4c-.5 1.5-.8 3-1 4.7" style="opacity:.7098;stroke:#fff;enable-background:new;fill:none;stroke-width:10;stroke-linecap:round;stroke-linejoin:round;stroke-miterlimit:10"/><path class="st231" d="M355.5 444.8c-4-19 13.5-39 32-34.7 39 9.5 38 10 62-22.3 40-54 111 5 165-13.6 17.5-6 33-16 49.8-24.6 61-31 72 29 109.8-8.4-19.8-17-53-19.5-54-54.6"/><path class="st231" d="M407 290.6c-16-8-12-29.9-2-41 17-15 40.5-10 61-6 29.8 1 49-29 75-38 50-17 80.5 54.5 133 44 23-5 48-10.5 69 1 25 14 33 55 10 75"/><path class="st231" d="M428 277.8c-16 26.5-51 17.5-76 28.5-20 10.5-28 33-23 54.8 10 47-43 51-38 88.1 7.5 0 15 2 22 4.7 5-19 34-26 43-7"/></g><circle cx="550" cy="550" r="500" style="fill:none;stroke:#000;stroke-width:10;stroke-linecap:round;stroke-linejoin:round;stroke-miterlimit:10"/></svg>