<svg version="1.1" id="Layer_1" xmlns="http://www.w3.org/2000/svg" x="0" y="0" viewBox="0 0 1100 1100" style="enable-background:new 0 0 1100 1100" xml:space="preserve" xmlns:xlink="http://www.w3.org/1999/xlink"><style type="text/css">.st304{fill:#FF0A68;stroke:#000000;stroke-width:10;stroke-linecap:round;stroke-linejoin:round;stroke-miterlimit:10;}</style><circle class="st304" cx="550" cy="553.7" r="500"/><radialGradient id="a7" cx="580.189" cy="564.136" r="327.345" gradientTransform="matrix(1 0 0 1.2341 0 -131.758)" gradientUnits="userSpaceOnUse"><stop offset="0" style="stop-color:#20f"/><stop offset="1" style="stop-color:#ff00fb"/></radialGradient><path style="fill:url(#a7)" d="M534 210.7c-68 59.6-71 20-121 36.5-19.6 10.9-14 30-9.7 39.6 11 23-51 9-69 40.3-10 18 .1 42-7.5 61.8-9 19.6-34 35-37 52.2-43 48-154 7-119 70.4 6 11 33-6 39 9.1 7 17.5-39 29-21 46.7 18 5 21 39.9 57 63.2 14 20 3 51 19 69.1 35.8 38 46-25 41-34.3 4-39 44-11 22 38.7-23 52 11 74 36.5 56.6 24-9 13 39 23 50.9 19.5 37 55 12 67 12 18 1 28 22 29.8 40.3 6.5 63 54 46 59 8 15.5-34 45 49 47 59.9 11 73 69 42 71 17.9 3-54-3-60.1 2-68.3 18.5-31 71 13 90.8-15.5 14-19.7-31-63.5 8-55.4 94 19 19-101 14-120.4-9-35.5 14-106 47-121.7 18-9 17-35.5 7-52.8-9.5-17-25-30.6-31-48.9-13.5-54 22-102-36-133.3-5-3-7-9.5-4-14.4 17-26 1-66-32-71.4-22-3-44 9-66.5 6.3C618 249 581 179.7 534 210.7z"/><radialGradient id="b3" cx="576.431" cy="567.501" r="286.75" gradientUnits="userSpaceOnUse"><stop offset="0" style="stop-color:#ff00d0"/><stop offset="1" style="stop-color:#0073ff"/></radialGradient><path style="fill:url(#b3)" d="m339.9 679.6 457.5-205.8c84 96 24 91 9.9 104.2-70.1 128 5 134 1 195.7-149-156-336-279-473-446.5 0 83-16 63-47 126.1-56 20-102 17-102 16.7s-64 47 26 46.7c13 27.5-51 37-7 58.3 15 45 48 56 51 73.8 4 23-4 55.8 28 61.7 36 7 20.6-50.1 33-62.2 16.7-11.3 22.8 17.7 22.6 31.3z"/><style>.st40{fill:none;stroke:#000;stroke-width:10;stroke-linecap:round;stroke-linejoin:round;stroke-miterlimit:10}.st98{opacity:.6;enable-background:new}</style><g id="Outline"><path class="st98" d="M793 537c-1 .7-1 2-.5 3 5 10 11 35 25 30 8-2 21-13 18-22.4-.5-1-2-2-3-1.5-26 12-28-11-39-9.4v.3zm-34 274.5c6 5 26 8 25-3-6-7-20.6-12-21.5-26C750 772 744 803 759 811.5zm-219.3 52s1 .5 1 .8c9 13.5-3 36-18 40-34 6-9-6-6-44 .3-5.3 22.3 2.7 23 3.2zM342 731c5 7-4 22-4 33 8 13 29.6-5 33-14.9 2-12-17-21-28-20.2-1 .1-1 1.1-1 2.1zm31-120.2c2 23-8 47-26 61.9-13 10.9-17.5-30.6-8-27.9 6 4.2 28-18.8 34-34zm-157-59.9c-8 6-17 3-25 1-11 5 4 20 13.5 16 5-4 12-9 12-15.7-.5-.2-1.5-.2-.5-1.3zM337 473c-6-10-3-23 0-34 0-1 0-2-.6-2-9-9-23 11-19.8 20.7C318 463 338 475 337 472.8v.2z"/><path class="st98" d="M326 392c-2 29 24 45 7 44-7 2-14 1-15 11-1 11-24 0-24.5-1.3C285 433 317 404.5 326 392zm103-118c-9.9-4-16-16-18-25-4-6-9.9 1-11 6-7 54 29.5 28 29 19zm293 9c16 21 29.5 12 40 20.7 3 4 1 9.6-1 14-3 9-13 9-20 4.1-14.5-5.8-22-22.2-19-38.8z"/><path class="st40" d="M347 729c53.5 5 15 86 59 102 25 9 37-19.8 55-11.9 23 10.1 19.6 40 24 60.7 9.6 46 63 29.6 58-12.8"/><path class="st40" d="M519 861c89-9 47.5 119 114.5 115 39-6 35-47 25-76.5-3-9 0-18.5 7-24.5 24.5-21 59 15.5 84-2.5 15-11 8-33-2-45-12-15 0-32 10-43"/><path class="st40" d="M790 539c53 69.8-64 71 8 194.5 6 14 11 32 11 48.5 0 32-49 47.5-61 16"/><path class="st40" d="M721 287c2 51 64 31 74 88 6 34-11.5 71 7 103 10 18 27 31.5 34 51 8 19-4 47-27 42"/><path class="st40" d="M407 290.6c-16-8-12-29.9-2-41 17-15 40.5-10 61-6 29.8 1 49-29 75-38 50-17 81 55 133 44 23-5 48-11 69 1 25 14 33 55 10 75"/><path class="st40" d="M428 278c-16 26.5-51 17.5-76 28.5-20 10.5-28 33-23 55 10 47-43 51-39 88m25 4.5c1.5-23 35-26 41-5 7 25-13 47 16 72"/><path class="st40" d="M334 476c-20-34-61-31.5-89-9.6-20 8-43-3-64 4-22 7-28 37-5 43.5 6.5 2 23-2 26-1 15 4 11 25-5 30-21 6-10 29 6 29"/><path class="st40" d="M216 554.5c-15 15-14 41 2 55 37 22 41 31 36 69.7-2 31 46 41 53.5 10 2-10.8-4-22 0-33 13-32 44 20 62-44.5"/><path class="st40" d="M327 647.9c25 29.7-.5 47-7 75-10 32.5 34 65 53 25"/><path d="M729 262.5c9 4 16 13 18 22.5m-193-68c12.5 2 24.5 8 34 16m9 9 3 3m-163 10c-5.5-.9-12 .6-15.5 4M362 319.6c-9 2-14 10.7-16 19M339 449c4 1 6 6 6 9.8M308.5 470c-12-6-16-5-22-4M175 492c1-4 5-7 9-7.5m38 89.5c-4 8 0 16 4 19.9m44 78.6c-1 6 1 15 9 18m76-77.5c-3 14-13 14.5-16 16m4.5 119.5c-5-3-9-9-8-15M397 782c-1 14.5 7 28 14 30m90 53.9c-3 12 2 27 14.5 25M636 957c14-3 17-28 11-38m96-60.1c1-7 0-14-4-19m46-49.1c8-6.5 9-25 3-39M786 582c5-8 3-19-3-26m37-12c2-8.5-.6-18-7-24m-56-169c18 6 22 30 21 35" style="opacity:.7882;fill:none;stroke:#fff;stroke-width:10;stroke-linecap:round;stroke-linejoin:round;stroke-miterlimit:10;enable-background:new"/></g><defs><style>.zac-4{fill:none;stroke-linecap:round;stroke-linejoin:round;stroke-width:10px;stroke:#000}</style></defs><path d="M497.5 766.8c-11.6 118.6 226.7 117.7 213-1.9Z" style="fill:#ff0059"/><path d="M501.5 776.7c58 34.9 68.2-20.3 116.4-3.9" style="stroke-linecap:round;stroke-linejoin:round;stroke-width:10px;stroke:#660024;fill:none"/><path d="M710.8 767.7c-15.5 13.1-45.4-1-55.8 13.3-4.6 6.4-3.8 13.2.4 20.5-9.7-4.2-18.8-13-24.8-22.6 4.9-10.2 63.2-17.4 80.2-11.2Z" style="fill:#660024"/><path d="M591.5 759.8a117.5 117.5 0 0 1 36.8 18.7l17.9-13.1a143.7 143.7 0 0 1-39-27.9c-5.9 6.8-12.4 13.5-15.7 22.3Z"/><path class="zac-4" d="M497.5 766.8c-11.6 118.6 226.7 117.7 213-1.9"/><path class="zac-4" d="M587.2 761.2c25.3 5.5 48.6 20.8 64.6 42.2"/><path d="M613.4 727.7c-85 131.8-186.8-17.3-157.3-65.4 16 36.8 60.9 42.3 94.1 33.4 29.4-7.8 41.6-35.6 58.8-35 20 .6 40 21.1 61.7 26.2 35.3 8.3 68.4-11.4 83.4-46.9 23 48.4-11.4 113.5-58.8 125.2-32 7.9-64.5-2.7-87.7-26.2" style="fill:#c97600;stroke:#000;stroke-linecap:round;stroke-linejoin:round;stroke-width:10px"/><path class="zac-4" d="M629.6 779.5a40.9 40.9 0 0 1 21.7-13.9"/><path d="M611.7 675.4a55.8 55.8 0 0 1 20.4 10.1m10.1 6 2.8 1.6m-57.8 43.4a60.1 60.1 0 0 1-28 23.6m-14.7 3.5-4.3-.2m204.4-70.3c-4.1 14.1-9.8 24.8-18.5 33.1m-10.5 10.3-3.4 2.5m-105.9 44.1c9.9 2 17.6 9.3 24 16.7m7.9 10.7 1.6 2.7" style="stroke:#fff;fill:none;stroke-linecap:round;stroke-linejoin:round;stroke-width:10px"/><path d="M450.9 662.3c-14.3 40.4 8.3 83 40.5 108.3-4 99.8 155.8 120.9 203.8 49m-91.1-158.3c-24.3 2.6-33.6 26.7-52.7 34.3m201.8-56.5c-11.4 19.8-27.4 35.9-50.4 47.5m-89.4 41.1c2.2 12.1 8.8 20.3 15.9 27.8" style="opacity:.6;stroke:#000;fill:none;stroke-linecap:round;stroke-linejoin:round;stroke-width:10px"/><style>.st114,.st40{fill:none;stroke-width:10;stroke-linecap:round;stroke-linejoin:round;stroke-miterlimit:10;stroke:#000}.st114{opacity:.6}</style><g id="pyramid_eyes"><linearGradient id="SVGID_00000087410782692247136030000000956565439834726541_" gradientUnits="userSpaceOnUse" x1="414.243" y1="543.244" x2="593.219" y2="543.244" gradientTransform="matrix(1.0318 .1598 -.1592 1.0282 76.34 -111.374)"><stop offset="0" style="stop-color:#fff200"/><stop offset="1" style="stop-color:#ff0051"/></linearGradient><path style="fill:url(#SVGID_00000087410782692247136030000000956565439834726541_)" d="M520.5 442.8 404 597.9l188 10.6z"/><linearGradient id="SVGID_00000168831845365355998570000006909071484893893810_" gradientUnits="userSpaceOnUse" x1="614.824" y1="519.499" x2="758.908" y2="519.499" gradientTransform="matrix(1.0318 .1598 -.1592 1.0282 76.34 -111.374)"><stop offset="0" style="stop-color:#fff200"/><stop offset="1" style="stop-color:#ff005e"/></linearGradient><path style="fill:url(#SVGID_00000168831845365355998570000006909071484893893810_)" d="m684 440.2-69.5 168.2 155.3-26.5z"/><path class="st114" d="M513 441.8c-39.9 53.5-84 105-120 160.5l196 11m89-174c-23 59-52 116-71 176.5l161-29"/><path class="st114" d="M432 568.7c44 21 96 24 142 9m58 .7c41 4 84 .5 120-18"/><path d="M633 568c32 9 91 3 118-16.2l-22-37.3-78 8.3-18 45.2zm-198-6.2c41 21 95 25 137 6.1l-16-41.4-98 3.7-23 31.6z" style="fill:#fff"/><linearGradient id="SVGID_00000104687410609106255600000008005634098492869297_" gradientUnits="userSpaceOnUse" x1="653.571" y1="533.828" x2="709.977" y2="533.828" gradientTransform="matrix(1.0318 .1598 -.1592 1.0282 76.34 -111.374)"><stop offset="0" style="stop-color:#00ffd0"/><stop offset="1" style="stop-color:#002fff"/></linearGradient><path style="fill:url(#SVGID_00000104687410609106255600000008005634098492869297_)" d="M676 520.8c-13 12-29 68 37 46.3 14-3 10.7-21 5-29.7-16.5 12-32-.9-28-18.9l-14 2.3z"/><linearGradient id="SVGID_00000092416489060258335420000012955109637503799733_" gradientUnits="userSpaceOnUse" x1="481.368" y1="567.233" x2="535.584" y2="567.233" gradientTransform="matrix(1.0318 .1598 -.1592 1.0282 76.34 -111.374)"><stop offset="0" style="stop-color:#00ffd0"/><stop offset="1" style="stop-color:#002fff"/></linearGradient><path style="fill:url(#SVGID_00000092416489060258335420000012955109637503799733_)" d="M491 527.2c-11 15-17 51 9.9 52.4 24 2 43.5-2 34-29.8-31 2-30.8-17-25-25.1l-18.9 2.5z"/><path d="M517 472.9c3 8.5 6 17 9 25m5 12.1 1.5 3M686 470l12 22m6 10 1 2" style="fill:none;stroke:#fff;stroke-width:10;stroke-linecap:round;stroke-linejoin:round;stroke-miterlimit:10"/><path class="st40" d="M558.5 532.6c-33-13-74-10-106 3m123 35.5c-46 17-99 14-143-8M728 519c-26-5-53-3-78 6m103 31.6c-38 16-80 21-121 15"/><path class="st40" d="M488.5 526.9c-8.5 16-9.6 35-3 52m45.5-52.5c8 16 9.9 36 4 53"/><path class="st40" d="M509 525.7c-9 17 12 34 27 23m135.5-27.8c-10 23.5-7.5 34 3 50.7m37.5-54c9 14 13 30 11 46"/><path class="st40" d="M693 517.9c-14 16 11 38 25 16m-197.5-91.1L404 597.9l188 10.6z"/><path class="st40" d="m684 440.2-69.5 168.2 155.3-26.5z"/></g><defs><linearGradient id="zbe" x1="591.4" y1="318.14" x2="576.03" y2="139.55" gradientUnits="userSpaceOnUse"><stop offset="0" stop-color="#a305ff"/><stop offset=".45" stop-color="#5d5dff"/><stop offset="1" stop-color="#05cdff"/></linearGradient><style>.zbe-4,.zbe-6{fill:none;stroke-linecap:round;stroke-linejoin:round}.zbe-4{stroke:#000;stroke-width:10px}.zbe-6{stroke:#fff;stroke-width:9px}</style></defs><path d="M794.8 340.5c-165.4-4.7-274-.5-414.2 50.6C364.2 171.9 387 229.4 551 169.7c18-6.5 37.5-14.4 55.8-8.8 42.7 13.2 84 32.3 126.8 45.9 82.3 26.1 30.2 80 61.2 133.7Z" style="fill:#e6e6e6"/><path d="M290.5 426.5c28.7-15.5 59.1-29.8 90.6-38.6-10-54.3-11.3-116.1 11.8-166.4-92.2 22.4-113.8 122.1-102.4 205Zm59.1-23.9c101.4 117.2 209.8-36.7 463.5-3 82.3 10.9 11.9-47.9-24.5-60.1-147.3-2.1-303 2.1-439 63.1Z" style="fill:#40aadb"/><path d="M523.4 181.3c-4.5 16.3 14.7 30.1 19.2 40.3 2.8 6.6 1 19.3-1.2 28.7-7.7 32.9 42.2 33.7 33.3 3.5-9.8-33.2 27.4-29.7 15.2 23.5-10.2 44.4 67.4 38.5 47.8-7.5-4.2-10-14.3-16.6-16.4-27.3-5-26.1 26.6-38.9 12.5-71.3-41.2-23.7-70.1-7.8-110.4 10.1Z" style="fill:url(#zbe)"/><path class="zbe-4" d="M794.8 340.5c-165.4-4.7-355.2 6.8-503.7 88.1-20.7-217.7 102-201.4 259.9-258.9 18-6.5 37.5-14.4 55.8-8.8 42.7 13.2 84 32.3 126.8 45.9 82.3 26.1 30.2 80 61.2 133.7Z"/><path class="zbe-4" d="M395.9 218.7c-26.1 51.2-26.5 113-15.5 168.4m-30.8 15.5c101.4 117.2 209.8-36.7 463.5-3 82.3 10.9 11.9-47.9-21.4-59.2"/><path d="M352.4 407.6a297.6 297.6 0 0 0-61.4 27.7m122.1 8.9c60.8 18.6 122.5-11.6 181.6-24.8 65.8-14.7 133.5-21.5 200.7-16.2M384.6 226.1c-18.9 50.9-24.3 108.4-11 161m142.5-202.5c-.9 17.3 20.5 28.7 22 45s-11.4 44.1 12.5 45.4m27.8-38.1c19.1 16.3 3.6 36.1 6.8 54.5 2.7 15.5 22.3 23.6 35.8 15.5" style="opacity:.6;stroke-width:10px;stroke:#000;fill:none;stroke-linecap:round;stroke-linejoin:round"/><path class="zbe-6" d="M623.4 178.5a28.7 28.7 0 0 1-.9 15.1m-4.8 11.8-1 1.7m8.3 65a16 16 0 0 1 .9 16.5m-91.4-102a18.3 18.3 0 0 0 5.8 10.9"/><path d="M792.8 356.6a158.7 158.7 0 0 1 35 24m-364.6 49.5a73.6 73.6 0 0 1-44-3m-12.6-4.2-3.8-1.3m350-186.4c8 6.2 11.9 16 12.7 25.9m.7 11.7-.3 3.3m-375.8 22.1a139.1 139.1 0 0 0 1.7 42.2m.9 14.5.3 3m-65.5-74.2c-10.5 13.9-15.6 32.1-19 49.1m-2.2 14.5-.3 4.6" style="stroke:#fff;stroke-width:10px;fill:none;stroke-linecap:round;stroke-linejoin:round"/><path class="zbe-4" d="M523.4 181.3c-4.5 16.3 14.7 30.1 19.2 40.3 2.8 6.6 1 19.3-1.2 28.7-7.7 32.9 42.2 33.7 33.3 3.5-9.8-33.2 27.4-29.7 15.2 23.5-10.2 44.4 67.4 38.5 47.8-7.5-4.2-10-14.3-16.6-16.4-27.3-5-26.1 26.6-38.9 14-70.7"/><path class="zbe-6" d="M551.8 253.6a9.8 9.8 0 0 0 2.8 9.3"/><circle cx="550" cy="550" r="500" style="fill:none;stroke:#000;stroke-width:10;stroke-linecap:round;stroke-linejoin:round;stroke-miterlimit:10"/></svg>