<svg version="1.1" id="Layer_1" xmlns="http://www.w3.org/2000/svg" x="0" y="0" viewBox="0 0 1100 1100" style="enable-background:new 0 0 1100 1100" xml:space="preserve" xmlns:xlink="http://www.w3.org/1999/xlink"><style type="text/css">.st302{fill:#6A10EB;stroke:#000000;stroke-width:10;stroke-linecap:round;stroke-linejoin:round;stroke-miterlimit:10;}</style><circle class="st302" cx="550" cy="553.7" r="500"/><path d="M533 209.1c-68 59.6-71 20-121 36.5-19.6 10.9-14 30-9.7 39.6 11 23-51 9-69 40.3-10 18 .1 42-7.5 61.8-9 19.6-34 35-37 52.2-43 48-154 7-119 70.4 6 11 33-6 39 9.1 7 17.5-39 29-21 46.7 18 5 21 39.9 57 63.2 14 20 3 51 19 69.1 35.8 38 46-25 41-34.3 4-39 44-11 22 38.7-23 52 11 74 36.5 56.6 24-9 13 39 23 50.9 19.5 37 55 12 67 12 18 1 28 22 29.8 40.3 6.5 63 54 46 59 8 15.5-34 45 49 47 59.9 11 73 69 42 71 17.9 3-54-3-60.1 2-68.3 18.5-31 71 13 90.8-15.5 14-19.7-31-63.5 8-55.4 94 19 19-101 14-120.4-9-35.5 14-106 47-121.7 18-9 17-35.5 7-52.8-9.5-17-25-30.6-31-48.9-13.5-54 22-102-36-133.3-5-3-7-9.5-4-14.4 17-26 1-66-32-71.4-22-3-44 9-66.5 6.3C616 247 579.9 178 533 209.1z" style="fill:#009dff"/><style>.st40{fill:none;stroke:#000;stroke-width:10;stroke-linecap:round;stroke-linejoin:round;stroke-miterlimit:10}.st98{opacity:.6;enable-background:new}</style><g id="Outline"><path class="st98" d="M793 537c-1 .7-1 2-.5 3 5 10 11 35 25 30 8-2 21-13 18-22.4-.5-1-2-2-3-1.5-26 12-28-11-39-9.4v.3zm-34 274.5c6 5 26 8 25-3-6-7-20.6-12-21.5-26C750 772 744 803 759 811.5zm-219.3 52s1 .5 1 .8c9 13.5-3 36-18 40-34 6-9-6-6-44 .3-5.3 22.3 2.7 23 3.2zM342 731c5 7-4 22-4 33 8 13 29.6-5 33-14.9 2-12-17-21-28-20.2-1 .1-1 1.1-1 2.1zm31-120.2c2 23-8 47-26 61.9-13 10.9-17.5-30.6-8-27.9 6 4.2 28-18.8 34-34zm-157-59.9c-8 6-17 3-25 1-11 5 4 20 13.5 16 5-4 12-9 12-15.7-.5-.2-1.5-.2-.5-1.3zM337 473c-6-10-3-23 0-34 0-1 0-2-.6-2-9-9-23 11-19.8 20.7C318 463 338 475 337 472.8v.2z"/><path class="st98" d="M326 392c-2 29 24 45 7 44-7 2-14 1-15 11-1 11-24 0-24.5-1.3C285 433 317 404.5 326 392zm103-118c-9.9-4-16-16-18-25-4-6-9.9 1-11 6-7 54 29.5 28 29 19zm293 9c16 21 29.5 12 40 20.7 3 4 1 9.6-1 14-3 9-13 9-20 4.1-14.5-5.8-22-22.2-19-38.8z"/><path class="st40" d="M347 729c53.5 5 15 86 59 102 25 9 37-19.8 55-11.9 23 10.1 19.6 40 24 60.7 9.6 46 63 29.6 58-12.8"/><path class="st40" d="M519 861c89-9 47.5 119 114.5 115 39-6 35-47 25-76.5-3-9 0-18.5 7-24.5 24.5-21 59 15.5 84-2.5 15-11 8-33-2-45-12-15 0-32 10-43"/><path class="st40" d="M790 539c53 69.8-64 71 8 194.5 6 14 11 32 11 48.5 0 32-49 47.5-61 16"/><path class="st40" d="M721 287c2 51 64 31 74 88 6 34-11.5 71 7 103 10 18 27 31.5 34 51 8 19-4 47-27 42"/><path class="st40" d="M407 290.6c-16-8-12-29.9-2-41 17-15 40.5-10 61-6 29.8 1 49-29 75-38 50-17 81 55 133 44 23-5 48-11 69 1 25 14 33 55 10 75"/><path class="st40" d="M428 278c-16 26.5-51 17.5-76 28.5-20 10.5-28 33-23 55 10 47-43 51-39 88m25 4.5c1.5-23 35-26 41-5 7 25-13 47 16 72"/><path class="st40" d="M334 476c-20-34-61-31.5-89-9.6-20 8-43-3-64 4-22 7-28 37-5 43.5 6.5 2 23-2 26-1 15 4 11 25-5 30-21 6-10 29 6 29"/><path class="st40" d="M216 554.5c-15 15-14 41 2 55 37 22 41 31 36 69.7-2 31 46 41 53.5 10 2-10.8-4-22 0-33 13-32 44 20 62-44.5"/><path class="st40" d="M327 647.9c25 29.7-.5 47-7 75-10 32.5 34 65 53 25"/><path d="M729 262.5c9 4 16 13 18 22.5m-193-68c12.5 2 24.5 8 34 16m9 9 3 3m-163 10c-5.5-.9-12 .6-15.5 4M362 319.6c-9 2-14 10.7-16 19M339 449c4 1 6 6 6 9.8M308.5 470c-12-6-16-5-22-4M175 492c1-4 5-7 9-7.5m38 89.5c-4 8 0 16 4 19.9m44 78.6c-1 6 1 15 9 18m76-77.5c-3 14-13 14.5-16 16m4.5 119.5c-5-3-9-9-8-15M397 782c-1 14.5 7 28 14 30m90 53.9c-3 12 2 27 14.5 25M636 957c14-3 17-28 11-38m96-60.1c1-7 0-14-4-19m46-49.1c8-6.5 9-25 3-39M786 582c5-8 3-19-3-26m37-12c2-8.5-.6-18-7-24m-56-169c18 6 22 30 21 35" style="opacity:.7882;fill:none;stroke:#fff;stroke-width:10;stroke-linecap:round;stroke-linejoin:round;stroke-miterlimit:10;enable-background:new"/></g><style>.st231{fill:none;stroke:#000;stroke-width:10;stroke-linecap:round;stroke-linejoin:round;stroke-miterlimit:10}</style><g id="Layer_65"><path d="M356 639c8-18-17-27-19-43 7-59.6-10.7-35-28-65.1-7 17 17 81-13 55.1-7-6-2-19-8.5-26-42 42-9-38-27-59.4 1.5 26-36 17-15-35.1-108-4-96 43-63 50 19 4 37-17 24 21.7-13 8-32 15-12.5 30.9 23 14 3 28 29 44.6 32 18 36 34 30 68 1 14 15 25 29 25.8 39.6 3 9.5-50.6 37-61.3 11-2.2 29 7.8 37-6.2z" style="fill:#ff054c"/><path class="st231" d="M244.5 466.7c-20.9 59 19.9 60 12 27.5 24 25 1.5 43 5 67.8 3.5 16.5 27 9.8 22-6 15 5 3 38 19.9 34.8 26-4-13-44 6-72 0 36 24 19.8 30 45.9 2 7 0 15-1 22.1-7 28 21 27 20 50.4"/><path d="M313 516.9c0 34 24 19 30 44.3 2 7 0 14-1 21.3-7 27 21 26 20 48.6M248.5 466.7c-20.9 57 19.9 58 12 26.6 24 24 1.5 41 5 65.4 3.5 16 27 9 22-5.7 15 5 3 36 19.9 33.6" style="opacity:.6;stroke:#000;enable-background:new;fill:none;stroke-width:10;stroke-linecap:round;stroke-linejoin:round;stroke-miterlimit:10"/><path class="st231" d="M334 475.6c-20-34-61-31.5-89-9.6-20 8-43-3-64 4.1-22 7-28 37.5-5 43.5 6.5 2 23-2 26-1.1 15 4 11 25-5 30.1-21 6-10 29 6 29"/><path class="st231" d="M216 554.5c-15 15-14 41 2 54.6 37 22 40.7 30.9 36 69.7-2 31 46 41 53.5 10 2-10.8-4.5-22 0-32.7 12-32.5 44 20 62-44.5"/><path d="M269 669.9c-1.5 6-1 14 4 19m10 4.7c4 1.5 6 0 9-1.8m36-60.8c4 2 9 3 13 2.3M217.5 579c-1 7 2 15 8 19m10.5 6.7c.8.6 1.5 1 2 1.8M187 480c-5.5 2-10 6-12 11.8" style="stroke:#fff;fill:none;stroke-width:10;stroke-linecap:round;stroke-linejoin:round;stroke-miterlimit:10"/></g><style>.st40,.st68{fill:none;stroke-width:10;stroke-linecap:round;stroke-linejoin:round;stroke-miterlimit:10;stroke:#000}.st68{opacity:.6;enable-background:new}.st102{fill:#fff}</style><g id="Eye_Tounge"><path class="st102" d="M741 663c-20.5 18-46 0-62 23-25.5 38-1.5 18 5 70.8 5 44 32 46.5 36 30.2 4-15-5-30-5-46 .5-21.5 28-31 32-52 0-8 1-18.5-6-26zm-298 24c-5.5 29-5.5 79 32 84 33 7 44 42 54 38 25-30 12-78 7.5-98.7C509.5 705 492 683 443 687z"/><linearGradient id="SVGID_00000027599348716876755490000000517666610371899790_" gradientUnits="userSpaceOnUse" x1="561.184" y1="-370.643" x2="649.184" y2="-208.643" gradientTransform="translate(0 1066)"><stop offset="0" style="stop-color:#ff00d9"/><stop offset="1" style="stop-color:#ff2600"/></linearGradient><path style="fill:url(#SVGID_00000027599348716876755490000000517666610371899790_)" d="M531 815.6c7 14 29.5 21 42 9.8 17-28 4-62 14-75 17.5-22 49-7 39.7 21-7 20.1 19 13 26 44.3 15 20 79-8 41.5-29-9.6-11-14-84-39.7-66-34 28-86-40.9-114-8C529.6 747 564 751 531 815.6z"/><path class="st102" d="M600 744c-27 21 34 40.1 24 7-3-10-13-12-24-7.4v.4z"/><path d="M584 755c-7 13.5 2 47-5 67 2 1 7-9.6 63-3.5 19 2 4-25-6.5-26-7-5-11-13-11-21.5-16.5 1-32.5-11-40.5-16.2v.2z"/><path class="st68" d="M443 690.7c9 10 23 2 34 4 20 6 28 23 55 23-9.6 33 23 36-7 86M742 669c-21 15-35 4-52 12.3s-8.5 34-35 47c-42 20.8-69-29.7-109-15"/><path class="st68" d="M428 669c19 24-10 65 23 98 29.8 29.8 30.8-5 73 51.9 30 41 55 4 92 3.1 26-1 63 18 82-8"/><path d="M662 735c2.5 6 4 13 4 20m2 12c0 2 1 3 2 4.5m-116-51.7c-2 6-2 13 0 19.7M544 815c.9-4 3-7 5-10.5M735 639c-2 6-6.5 11-12 14m-12 4c-1 0-2.5.5-4 .7M656.5 691c-1.5 9-9 17-17.5 19m-15 2c-1 0-2-.6-3-1m-105-18.5c7 5 16 6 24 3M444 664c3 5.5 8 11 15 9.6" style="fill:none;stroke:#fff;stroke-width:10;stroke-linecap:round;stroke-linejoin:round;stroke-miterlimit:10"/><path class="st40" d="M429.5 666c11 23 20 24 44.5 21 18-2 30.5 18 48 23 29.8 6 33-19.7 70 3.3 24 17 56 26 73.5-3 7-12 9-28 21-35 12-6 57.5 6 67-37.5"/><path class="st40" d="M443 685c-7 25-6 56 11 77 13 15 38 9.7 52 24 24 25 32 62 69.8 40.4 58-33 97 27 138-28 18-24-4-42 0-58 7-27 46-32 28-79"/><path class="st40" d="M541 712c-15 43 28 40.9-12 99.6M664 715c33 23 2 57 44 84.5M578 822c-4-18 13-10 3-49-6-24 31-45.8 44-22 4 7 0 16 0 23.9-.5 22 32 14 27 44"/><path class="st40" d="M594 746c-11 20 18 32 31 20"/></g><defs><linearGradient id="zg" x1="443.85" y1="517.27" x2="576.5" y2="517.27" gradientTransform="rotate(5.8 508.026 515.547)" gradientUnits="userSpaceOnUse"><stop offset="0" stop-color="#5e00ff"/><stop offset=".5" stop-color="#de00da"/><stop offset="1" stop-color="#ff0037"/></linearGradient><style>.zg-3,.zg-7{fill:none;stroke:#000;stroke-linecap:round;stroke-linejoin:round;stroke-width:10px}.zg-7{opacity:.6}</style></defs><path d="M627.7 431.5c-57.1-93.9-124-96.5-170.5-146.5-16.5-17.7-29.3-57.1-58.1-52.6-25.5 4-28.2 50.1-14.6 66.8a137.6 137.6 0 0 0 24.8-5.2c62.6 47.9 143.8 77.6 187.4 146.5 1.3 2.3 3.6 4.1 6 2.5 8.1-3.9 16.2-7.8 25-11.5Z" style="fill:#7a7a7a"/><path d="M712.3 538.2c24.4 43.8 95.9 26.2 110.2 79.4 7.3 27.3-29.5 40.3-43.6 22.6.5-6.7 4.4-12.9 7.6-19.6-31.3-20.2-78.6-18.2-89.4-61.5 6.1-4.9 11.1-11.1 15.2-20.9Z" style="fill:gray"/><path class="zg-3" d="M706.7 533.3c25.7 45.3 101.8 35.1 116.2 82 8.7 28.2-31.3 43-46.2 24.7a158.5 158.5 0 0 1 7-18.4"/><path class="zg-3" d="M711.2 572.3c15.3 38.5 58.2 30.1 82.6 52.1M627.7 431.5c-57.1-93.9-124-96.5-170.5-146.5-16.5-17.7-29.3-57.1-58.1-52.6-25.5 4-28.2 50.1-14.6 66.8 7.9-1 15.9-2.4 23.3-5.1"/><ellipse cx="510.2" cy="517.3" rx="65.7" ry="111.5" transform="rotate(-5.8 508.238 515.572)" style="fill:url(#zg);stroke-linecap:round;stroke-linejoin:round;stroke-width:10px;stroke:#000"/><path d="M508.6 437.9c-31.6 11.8 1.7 57 6.7 78.9s-21.8 45.6-3.3 63.3c54.3 34.3 44.1-159.9-3.4-142.2Z" style="fill:#fff;stroke-linecap:round;stroke-linejoin:round;stroke-width:10px;stroke:#000"/><path d="M500.5 450.5c-2.2 25.8 29.6 46.5 36.6 17.9 3.3 13.1 7.5 28.2 8.7 41.5 1.8 19.4-26 18.3-27.6 12.4-3.3-24.5-28.7-45.9-17.7-71.8Z"/><path class="zg-3" d="M399.7 281.5C414.2 311 553.8 367.7 598.4 444"/><path d="M751.5 434.7c-57-35-163-14-154.3 28.3 10.3 49.8 45.9 114.1 93.3 127.3 52.6 14.6 66.8-63.4 70.5-106.6 1.3-15.5 6.2-39.3-9.5-49Z" style="fill:#8c8c8c"/><path class="zg-3" d="M751.5 434.7c-57-35-163-14-154.3 28.3 10.3 49.8 45.9 114.1 93.3 127.3 52.6 14.6 66.8-63.4 70.5-106.6 1.3-15.5 6.2-39.3-9.5-49Z"/><path class="zg-3" d="M651.5 459.4q36.2 39.3 70.1 80.9"/><path class="zg-3" d="M666 540.3c16.4-28.1 32.9-59.4 46.8-85.7"/><path class="zg-7" d="M405.5 298.9c61.2 49.2 144.9 76.6 186.3 147.2-6.2 52.2 56.2 159 114.6 151 18.6-2.5 32.8 10.9 49.4 15.9 8.1 2.5 16.8 3.9 23.5 9m13.5 2.4c-6.3 3.4-9.7 10.1-10.9 17.3M399.7 281.5c0 5.6-2.9 10.2-6.7 14.4"/><path class="zg-7" d="M729.8 589.6a89.5 89.5 0 0 0 16.8-20.3M598.5 436.8c6.5-4.7 12.6-10.1 20.1-13.3m29.8 38.7q34.5 39.8 68.9 79.6"/><path class="zg-7" d="M708.2 454.6C693 483 678 509.1 662.7 537.7M487.4 409.3c-84.4 31.3-46.8 255.8 42.5 217.1"/><path class="zg-7" d="M495.4 441.8C478.6 467.7 506 494.4 510 520c2.4 15.5-10.1 28.7-8.7 44.4-.3 12.9 12.9 27.6 25.7 19.5"/><path d="M741 445.7c6.6 8.7 6 19.6 5 29.5m-133.4-21.1c-3.4 9.5 2.4 21.6 5.6 29.2m-130.6-58.2a52.3 52.3 0 0 0-19.2 28m-3.9 11.7-.7 3.4M476 572.6a63.9 63.9 0 0 0 20.7 28.7m247.6-111.4-.1 3.5m-11.5 57.5a47.4 47.4 0 0 1-19.6 23.9m90.5 32.6a19.3 19.3 0 0 1 7.6 15.7M402.8 246.5c7.7-.6 14 5.3 17.5 11.7m6.6 9.9 1.3 1.4" style="stroke:#fff;stroke-linecap:round;stroke-linejoin:round;stroke-width:10px;fill:none"/><defs><linearGradient id="zbj" x1="516.88" y1="143.24" x2="596.42" y2="317.05" gradientUnits="userSpaceOnUse"><stop offset="0" stop-color="#0ff"/><stop offset=".08" stop-color="#1ab9ff"/><stop offset=".26" stop-color="#5a0cff"/><stop offset=".27" stop-color="#5d05ff"/><stop offset=".59" stop-color="#ff0fe7"/><stop offset=".86" stop-color="#ff6912"/><stop offset="1" stop-color="#ff1500"/></linearGradient><style>.zbj-3{fill:none;stroke-linecap:round;stroke-linejoin:round;stroke-dasharray:0 0 0 0 0 0;stroke:#000;stroke-width:10px}</style></defs><path d="M525.9 322.4c-10.7 12.5-13 27.9-2.2 41.6-2.7 13.8 5.9 30.6 22.2 28.1 8.2 15.2 31 20 42.3 5.4 13 5.9 28.9 4.8 42.1-2.6 19.8 12.2 41.2-2 36.4-25.6 11-10.9 9.7-28.6-1.8-39.3 5.2-12.8-4.1-26.2-18-27.8-5.1-14.8-24.8-21.9-37.8-11.9-13.2-7.3-29.2-4.3-40.1 6.5-11.7-9.1-46.4-8.5-43.1 25.6Z" style="fill:#dedede"/><path d="M532.9 207.8a226.2 226.2 0 0 1-45.1 28.4c11.7-107.3 133.3-157 134.8 46.4-6.1.7-9.8 2.6-14.6 7.5-12.5-5-27.5-3.1-39 4.7-5.1-2.8-10.6-5.5-16.4-6a145.7 145.7 0 0 0-19.7-81Z" style="fill:url(#zbj)"/><path class="zbj-3" d="M535.3 330.9c-32.4-25.2 23.9-62.9 38-23.3"/><path class="zbj-3" d="M525.9 322.5c-12.1 8.6-13.5 27.6-2.8 37.9m10.6-5.9c-19.8 9.9-8.9 46.3 13.5 37.7"/><path class="zbj-3" d="M547.2 382.2c-3.2 31.6 48.8 34.6 42.3 2.9"/><path class="zbj-3" d="M589.9 398.4c15.1 8.8 38.8 5.5 47.3-10.9"/><path class="zbj-3" d="M633.3 395c21.7 19.4 49.3-12.7 26.4-31.1m6.8 4.3c11.2-9.2 13-29.4-.4-37.5m-12.7 6.9c17.4-8 16-34.5-4.2-36.7m-34.2-2.4c-9.5-14.5-31.8-16.9-44.2-4.7m74.1 18.1c6.3-19.4-20.2-37.3-35.1-22.9m-86.5-97.6c23 25.7 28.1 63.6 30.9 96.9"/><path class="zbj-3" d="M623.5 281.9C610.6 51.5 492.7 154.5 487.3 237c17.4-4.1 29-19.3 44-27.9"/><path d="M621.6 285.7c-4.4 2.2-6 7.4-6.8 11.9m45.1 9.6c-5.2-1.6-10.4 1.2-14.5 4.3m28.2 31.5c-3.8-5.5-11.1-7.4-17.5-6.5m-18.3 51.7c2.5 6.6 6.5 10.4 13 11.9m-44.7.3a39.8 39.8 0 0 1-14.6-14.2m-45.9-5.5a26.2 26.2 0 0 1-11.4 8.9m40-82.1a24.5 24.5 0 0 1 8.3-20m-48.4 65.7a19.2 19.2 0 0 1-15.9-5.4" style="opacity:.37;stroke-width:10px;stroke:#000;fill:none;stroke-linecap:round;stroke-linejoin:round;stroke-dasharray:0 0 0 0 0 0"/><path d="M521.2 191.4c5.8 9.3-.1 21.2-6 29.2m14.6-7c12.6 21.4 15.6 46.5 18 71.8M523 318.3c-13.9 11.6-16.2 32.2-4.1 46.2-3.4 16.5 6.8 35.9 25.8 34.4 9.9 14.1 30.1 16.4 44 6.5a50 50 0 0 0 43-3.9 22.6 22.6 0 0 0 26.7-3.1m-37.8-122.2c-5.7.7-11.3 3.2-16.6 6.8-12.2-5.4-24.7-1.5-35.9 5.2a16 16 0 0 0-11.1-2.1" style="opacity:.6;stroke-width:10px;stroke:#000;fill:none;stroke-linecap:round;stroke-linejoin:round;stroke-dasharray:0 0 0 0 0 0"/><path d="M549.6 301.3a11 11 0 0 1 9.5 5.3m36.1-9a15.5 15.5 0 0 1 8 5.3m27.1-5.2a9.1 9.1 0 0 1 3.4 7.3m21.4 15a9.4 9.4 0 0 1-3.7 6.3m3.4 47.4a10.4 10.4 0 0 1 1 9.1m-28.8.9a17.8 17.8 0 0 1-8 5.5m-61.2-3.6a10.8 10.8 0 0 0 6.2 7.7m-29.5-18.8c-.7-3.3.8-6.8 3.1-9.3" style="stroke-width:7px;stroke:#fff;opacity:.81;fill:none;stroke-linecap:round;stroke-linejoin:round;stroke-dasharray:0 0 0 0 0 0"/><path d="M567.8 155.1c10.6 5 17.9 16.1 22.1 27.1m5.3 13.2c.3 1.2 1.7 6.3 1.9 7.5" style="stroke:#fff;opacity:.81;stroke-width:10px;fill:none;stroke-linecap:round;stroke-linejoin:round;stroke-dasharray:0 0 0 0 0 0"/><circle cx="550" cy="550" r="500" style="fill:none;stroke:#000;stroke-width:10;stroke-linecap:round;stroke-linejoin:round;stroke-miterlimit:10"/></svg>