<svg id="Layer_43" data-name="Layer 43" xmlns="http://www.w3.org/2000/svg" viewBox="0 0 2453 1777.2"><g transform="matrix(.6 0 0 .6 420 360)"><svg version="1.1" id="Layer_1" xmlns="http://www.w3.org/2000/svg" x="0" y="0" viewBox="0 0 1100 1100" style="enable-background:new 0 0 1100 1100" xml:space="preserve" xmlns:xlink="http://www.w3.org/1999/xlink"><path d="M533 209.1c-68 59.6-71 20-121 36.5-19.6 10.9-14 30-9.7 39.6 11 23-51 9-69 40.3-10 18 .1 42-7.5 61.8-9 19.6-34 35-37 52.2-43 48-154 7-119 70.4 6 11 33-6 39 9.1 7 17.5-39 29-21 46.7 18 5 21 39.9 57 63.2 14 20 3 51 19 69.1 35.8 38 46-25 41-34.3 4-39 44-11 22 38.7-23 52 11 74 36.5 56.6 24-9 13 39 23 50.9 19.5 37 55 12 67 12 18 1 28 22 29.8 40.3 6.5 63 54 46 59 8 15.5-34 45 49 47 59.9 11 73 69 42 71 17.9 3-54-3-60.1 2-68.3 18.5-31 71 13 90.8-15.5 14-19.7-31-63.5 8-55.4 94 19 19-101 14-120.4-9-35.5 14-106 47-121.7 18-9 17-35.5 7-52.8-9.5-17-25-30.6-31-48.9-13.5-54 22-102-36-133.3-5-3-7-9.5-4-14.4 17-26 1-66-32-71.4-22-3-44 9-66.5 6.3C616 247 579.9 178 533 209.1z" style="fill:#d500ff"/><style>.st40{fill:none;stroke:#000;stroke-width:10;stroke-linecap:round;stroke-linejoin:round;stroke-miterlimit:10}.st98{opacity:.6;enable-background:new}</style><g id="Outline"><path class="st98" d="M793 537c-1 .7-1 2-.5 3 5 10 11 35 25 30 8-2 21-13 18-22.4-.5-1-2-2-3-1.5-26 12-28-11-39-9.4v.3zm-34 274.5c6 5 26 8 25-3-6-7-20.6-12-21.5-26C750 772 744 803 759 811.5zm-219.3 52s1 .5 1 .8c9 13.5-3 36-18 40-34 6-9-6-6-44 .3-5.3 22.3 2.7 23 3.2zM342 731c5 7-4 22-4 33 8 13 29.6-5 33-14.9 2-12-17-21-28-20.2-1 .1-1 1.1-1 2.1zm31-120.2c2 23-8 47-26 61.9-13 10.9-17.5-30.6-8-27.9 6 4.2 28-18.8 34-34zm-157-59.9c-8 6-17 3-25 1-11 5 4 20 13.5 16 5-4 12-9 12-15.7-.5-.2-1.5-.2-.5-1.3zM337 473c-6-10-3-23 0-34 0-1 0-2-.6-2-9-9-23 11-19.8 20.7C318 463 338 475 337 472.8v.2z"/><path class="st98" d="M326 392c-2 29 24 45 7 44-7 2-14 1-15 11-1 11-24 0-24.5-1.3C285 433 317 404.5 326 392zm103-118c-9.9-4-16-16-18-25-4-6-9.9 1-11 6-7 54 29.5 28 29 19zm293 9c16 21 29.5 12 40 20.7 3 4 1 9.6-1 14-3 9-13 9-20 4.1-14.5-5.8-22-22.2-19-38.8z"/><path class="st40" d="M347 729c53.5 5 15 86 59 102 25 9 37-19.8 55-11.9 23 10.1 19.6 40 24 60.7 9.6 46 63 29.6 58-12.8"/><path class="st40" d="M519 861c89-9 47.5 119 114.5 115 39-6 35-47 25-76.5-3-9 0-18.5 7-24.5 24.5-21 59 15.5 84-2.5 15-11 8-33-2-45-12-15 0-32 10-43"/><path class="st40" d="M790 539c53 69.8-64 71 8 194.5 6 14 11 32 11 48.5 0 32-49 47.5-61 16"/><path class="st40" d="M721 287c2 51 64 31 74 88 6 34-11.5 71 7 103 10 18 27 31.5 34 51 8 19-4 47-27 42"/><path class="st40" d="M407 290.6c-16-8-12-29.9-2-41 17-15 40.5-10 61-6 29.8 1 49-29 75-38 50-17 81 55 133 44 23-5 48-11 69 1 25 14 33 55 10 75"/><path class="st40" d="M428 278c-16 26.5-51 17.5-76 28.5-20 10.5-28 33-23 55 10 47-43 51-39 88m25 4.5c1.5-23 35-26 41-5 7 25-13 47 16 72"/><path class="st40" d="M334 476c-20-34-61-31.5-89-9.6-20 8-43-3-64 4-22 7-28 37-5 43.5 6.5 2 23-2 26-1 15 4 11 25-5 30-21 6-10 29 6 29"/><path class="st40" d="M216 554.5c-15 15-14 41 2 55 37 22 41 31 36 69.7-2 31 46 41 53.5 10 2-10.8-4-22 0-33 13-32 44 20 62-44.5"/><path class="st40" d="M327 647.9c25 29.7-.5 47-7 75-10 32.5 34 65 53 25"/><path d="M729 262.5c9 4 16 13 18 22.5m-193-68c12.5 2 24.5 8 34 16m9 9 3 3m-163 10c-5.5-.9-12 .6-15.5 4M362 319.6c-9 2-14 10.7-16 19M339 449c4 1 6 6 6 9.8M308.5 470c-12-6-16-5-22-4M175 492c1-4 5-7 9-7.5m38 89.5c-4 8 0 16 4 19.9m44 78.6c-1 6 1 15 9 18m76-77.5c-3 14-13 14.5-16 16m4.5 119.5c-5-3-9-9-8-15M397 782c-1 14.5 7 28 14 30m90 53.9c-3 12 2 27 14.5 25M636 957c14-3 17-28 11-38m96-60.1c1-7 0-14-4-19m46-49.1c8-6.5 9-25 3-39M786 582c5-8 3-19-3-26m37-12c2-8.5-.6-18-7-24m-56-169c18 6 22 30 21 35" style="opacity:.7882;fill:none;stroke:#fff;stroke-width:10;stroke-linecap:round;stroke-linejoin:round;stroke-miterlimit:10;enable-background:new"/></g><defs><linearGradient id="axf" x1="741.04" y1="835.98" x2="725.62" y2="701.22" gradientUnits="userSpaceOnUse"><stop offset="0" stop-color="#ff9d00"/><stop offset=".12" stop-color="#ff9306"/><stop offset=".33" stop-color="#ff7915"/><stop offset=".6" stop-color="#ff4d2d"/><stop offset=".91" stop-color="#ff124f"/><stop offset="1" stop-color="#ff0059"/></linearGradient><linearGradient id="axf-2" x1="840.33" y1="761.07" x2="812.15" y2="763.18" gradientUnits="userSpaceOnUse"><stop offset="0" stop-color="#ff1e00"/><stop offset=".09" stop-color="#fe1c0e"/><stop offset=".27" stop-color="#fc1833"/><stop offset=".51" stop-color="#f81170"/><stop offset=".8" stop-color="#f207c2"/><stop offset="1" stop-color="#e0f"/></linearGradient><linearGradient id="axf-3" x1="851.73" y1="625.07" x2="951.68" y2="625.07" gradientUnits="userSpaceOnUse"><stop offset="0" stop-color="red"/><stop offset="1" stop-color="#ff0"/></linearGradient><style>.axf-3,.axf-5,.axf-6{fill:none}.axf-3,.axf-5{stroke:#000}.axf-3,.axf-5,.axf-6{stroke-linecap:round;stroke-linejoin:round;stroke-width:10px}.axf-5{opacity:.6}.axf-6{stroke:#fff}</style></defs><path d="M626.2 736.3a94.1 94.1 0 0 0 7.1 68.7 146.4 146.4 0 0 0 66.9 2.7c14.9 7 32.9 7.4 49.6.4a55.6 55.6 0 0 0 44.8-5.5c71 22.1 69.7-119.3-40.3-69.2-14.7-9.5-31.7-1.9-46.5 4.7-15.3-11.1-36.9-5.8-51.3 4.4-10.1-4.5-18.2-7-30.3-6.2Z" style="fill:url(#axf)"/><path d="M818.5 729.1c-17.3 15.2 1.6 86.9 18.1 60.8 7.6-18.7 8.5-60.1-18.1-60.8Z" style="fill:url(#axf-2)"/><path class="axf-3" d="M625.3 728.3a141 141 0 0 0 6.8 86.1m-6-77.4c62.6-13.9 46.9 106.1 121.9 71.9"/><path class="axf-3" d="M657.1 740.2c89-44.8 53.7 106.8 138.6 64.1"/><path class="axf-3" d="M709.7 738c70.8-48.9 55.1 96.5 119.8 61.7 18.6-14.4 16.2-45.9 3.8-63.1s-65.2-16.3-78.5-3.3"/><path class="axf-3" d="M816.1 727c-9.7 22.5-6 53.7 12.1 71m-249.5-43.7c-.2-77.7 64.5-105.5 90.1-22.2m-86.5 66.4c2.2 71.9 77.8 92.6 88.3 13.5"/><path d="M851.7 729c21.7-11.6 3.3-31 4.3-47.8.6-11.4 11.9-15.7 16.8-26 7.3-15.5-4.7-21.1-4.7-35.1s10.4-20.6 10-34.5c-3.7-112.1 118.9-57.6 55.2 6.1-39.2 39.2 11.1 43.8-9.3 76.2-6.3 10-20.8 14.7-23.1 26.3-4.6 23.5-26.3 37.1-49.2 34.8Z" style="fill:url(#axf-3);stroke-linecap:round;stroke-linejoin:round;stroke-width:10px;stroke:#000"/><path class="axf-3" d="M630 804.4c20.9 7.2 50.4 8.8 72.2 2.9"/><path class="axf-5" d="M615.1 682.5c-26.5 1.4-46.5 46-36.4 71.8m3.6 44.2c-9.7 36.6 29.6 85.2 64.9 59.1"/><path class="axf-6" d="M641 707.2a56.3 56.3 0 0 1 9.2 16.6m-19.3-26.6-3.3-1M655 824.5a36.6 36.6 0 0 1-12.7 18.4"/><path class="axf-5" d="M630 740.3c-6 20.1-.6 42.8 4.4 62.6a2.4 2.4 0 0 0-.2-.8m38.7-38.6c6.7 16.4 6 31.7 18.2 42.1m30.5-45.6c8.2 18.3 4.8 36.4 20.5 47m29.3-44.5c7.4 18.9.7 32 17.1 39.6m32.2-70c-7.5 19.4-4.4 44.9 10.2 60.3m-70.4-60.6c21.2 18.8 22.4 69.7 59.2 65.2m-148.4 20.8c9-.4 17.9-2 29.1-3.6 15.5 7.7 21.6 10.4 38.6 2.9"/><path class="axf-6" d="M644.6 748.9a37.2 37.2 0 0 1 13.3 13.7m29.5-18.9a28.4 28.4 0 0 1 17.5 12.6m31.8-16.4a26.2 26.2 0 0 1 12.7 10.5m33.6-13.2c4.6-1.8 9.8-1.2 14.8-.7h.2c0 .1-.2.1-.1 0M931.6 539a21.6 21.6 0 0 1 3.4 21.3m-6.4 11.9-1.5 2m-13.8 69.9a12.8 12.8 0 0 1 2.1 13m-28.8 39.1a19.9 19.9 0 0 1-6.8 11"/><style>.st40,.st68{fill:none;stroke-width:10;stroke-linecap:round;stroke-linejoin:round;stroke-miterlimit:10;stroke:#000}.st68{opacity:.6;enable-background:new}</style><g id="gooie_eyes"><linearGradient id="SVGID_00000114052739278173780720000006496866318907593611_" gradientUnits="userSpaceOnUse" x1="418" y1="886.17" x2="585.983" y2="886.17" gradientTransform="matrix(1 0 0 -1 0 1410)"><stop offset="0" style="stop-color:#fc0037"/><stop offset=".047" style="stop-color:#fc0d33"/><stop offset=".303" style="stop-color:#fc4e21"/><stop offset=".535" style="stop-color:#fc8213"/><stop offset=".736" style="stop-color:#fca709"/><stop offset=".898" style="stop-color:#fcbe02"/><stop offset="1" style="stop-color:#fcc600"/></linearGradient><path style="fill:url(#SVGID_00000114052739278173780720000006496866318907593611_);stroke:#000;stroke-width:10;stroke-linecap:round;stroke-linejoin:round;stroke-miterlimit:10" d="M576 524c10-11 15-31 5-42.9-20-24-28-3-39-51.5-9-37-49-36-70-17-12 11-14 30-24 44-6 8-13.5 14.5-19.8 22-14 14-12 40 10 42 3-5 5-11 5-18 1 23-24 43-9.6 67.9 5.8 10.1 17 19 17 30.8-1 18-7.5 47 15 46.9 13 0 14-19 20.9-24 23-16 24 31 53 10.4 7-6 12-16 11-26-5-43.5 49.5-41 25-84-4-8-10-12-12-21.9.5 8 6.5 19 12.5 21.1v.2z"/><linearGradient id="SVGID_00000089552583616707315270000002940239741937286795_" gradientUnits="userSpaceOnUse" x1="598.034" y1="893.204" x2="755.973" y2="893.204" gradientTransform="matrix(1 0 0 -1 0 1410)"><stop offset="0" style="stop-color:#fc0037"/><stop offset=".111" style="stop-color:#fc1f2e"/><stop offset=".342" style="stop-color:#fc5a1e"/><stop offset=".554" style="stop-color:#fc8911"/><stop offset=".742" style="stop-color:#fcaa08"/><stop offset=".897" style="stop-color:#fcbf02"/><stop offset="1" style="stop-color:#fcc600"/></linearGradient><path style="fill:url(#SVGID_00000089552583616707315270000002940239741937286795_);stroke:#000;stroke-width:10;stroke-linecap:round;stroke-linejoin:round;stroke-miterlimit:10" d="M744 536c13.5-10 19-32 2-46-55.5-46-10.9-60-45-84.5-28-20-69 4-72 34.4-7 65-21 39.9-29 66-6 19 4.5 39.7 26 26 0-5-.6-10-2-15 9.6 25-13 49-10 73.9 1 8 6.5 16 15 15 7-1 11-9 18-10 23 0 18 38 43 39.6 23 2 10-29 34-34.2 28-1 40.7-28 28-52-8.5-12-21-22-20-38-1 8.3 3.5 19.8 12 24.8z"/><path d="M492 481.5c13.5 43.5 8 49-2 90.8-2 51 58 4 50.7-37-2-10 0-37-6.5-43.4C514 499 508 482 492 481.5zm175 .5c22 26 4 59 2 88 2 19 25 14 31.5.6 15-21 11-62 7-87.2L667 482z"/><path d="M663 439.5c-19 22 23 62 41 38 0-17-9.8-42-29-42.1l-12 4.1zm-169 10.1c-18 19 22 57 39.5 37.9 5-14-10.8-48-28-44.8l-11.5 6.9z" style="fill:#fff"/><path class="st40" d="M499 444.5c-34 26 14 55-2.5 101.9-24 67 23.5 65 43 10C547 536 534 418 499 444.5z"/><path class="st40" d="M487 461c5 21 27 37 47 31m124-27c7 15.5 31 24.5 47 17"/><path class="st40" d="M675 435c-31 0-17 39-6 56 11 18 11 39.9 2 59-11.5 24 13 49 30 20 17-29.9 13.5-135-26-135.4v.4z"/><path class="st68" d="M475 406.9c-20 11-25 33.5-36 52-8 13.5-25 22-27 38.5-7 29.5 27 14.5 14 49.1-6 24 5 29.7 16.5 47 7 15-4 32 2 46.9 3 7 12 13 19 9M486 628c14-5 21.5 15 35 12m132-238c-15 8-27 23-30 39.5-4 19-5 31-18 45.5-14 15-16 53 11.5 52.5 4 17-20 56 5 65m19.5-4.7c21 1.5 21 35.5 43 35m30.5-26.8c14 0 27-8 34.5-19m-185-86c3.5 5 9 8 15 9.8"/><path class="st68" d="M439.9 501.9c-2 4-5 8-9 10.7m71.1-74.1c-44 21-2 59.8-8 94-2 19-15 39-8 58.5 6 17 26 13 33-1m150-159.1c-48 14 12 70 1 101-3 16-14 33-3.5 48 7 11 26 11 29-3M622 515.5c-2 6-4 12-9 16M734 510c2 7 6.5 13 12 16"/><path d="M512 414.5c6 2 10 7 13 12m5 12.5c0 1 1 2 1 3m30 38.8c5 2 9 6 11 11m-8 43.2c5 7 5 15.5-1 20.7m-8 8.5-1 1M537 609c2 8-3.5 17-12 19.8m-79-89.9c-5 9-5 19.7 0 28m22 63.7c-1 3-3 5-6 6m219-225.8c8 1 16 5 18 12.5m4 11.7s1 3 1 2m30 58c4 2 6.5 6 9 9.5m-7 42.5c7.5 8 10 20 6 30.6m-9 7.4c-1 .6-2 1-3 1.5M697.5 611c-1 5-4 8-8 11M626 574c-1 6-1 11.5 1 17m-16-78c0-6 3.5-12 9-14" style="fill:none;stroke:#fff;stroke-width:10;stroke-linecap:round;stroke-linejoin:round;stroke-miterlimit:10"/></g><defs><style>.zbi-3{fill:none;stroke-linecap:round;stroke-linejoin:round;stroke-width:10px;stroke:#000}</style></defs><path d="M346.3 398.4c133.7 133.1 174-36.5 487-17 12.1.8 16-8.5 10.7-17.5-12.5-21.3-43.6-24.9-57.7-46.5-149.5-6.2-302.5 14.1-440 81Z" style="fill:#e600ff"/><path d="M293.6 425.4c147.8-84.7 322.8-116.1 494.1-106.7 18.8-290.3-568.4-184.4-494.1 106.7Z" style="fill:#bf00ff"/><path class="zbi-3" d="M293.6 425.4c147.8-84.7 322.8-116.1 494.1-106.7 18.8-290.3-568.4-184.4-494.1 106.7Z"/><path class="zbi-3" d="M346.3 398.4c133.7 133.1 174-36.5 487-17 12.1.8 16-8.5 10.7-17.5-12.5-21.3-43.6-24.9-57.3-45.5"/><path d="M348.3 404.5a417 417 0 0 0-53.9 28m134.6 15c35.3 11.7 79.6-5 113-16.8 81.2-28.8 166.2-48.7 252.5-45.7" style="opacity:.6;stroke:#000;fill:none;stroke-linecap:round;stroke-linejoin:round;stroke-width:10px"/><path d="M811.8 353.4a39.6 39.6 0 0 1 14.9 12.3m-444.7 47a115.1 115.1 0 0 0 40.9 19.4m12.9 1.3h4.8m254.7-244.3a113 113 0 0 1 58 56.7m6.2 15.7 3.2 8m-386.4-33.8c-29.2 23.4-53.5 48.7-62.1 83.6" style="stroke:#fff;fill:none;stroke-linecap:round;stroke-linejoin:round;stroke-width:10px"/></svg></g><defs><linearGradient id="uex" x1="759.89" y1="1211.48" x2="702.72" y2="1018.98" gradientUnits="userSpaceOnUse"><stop offset="0" stop-color="#1fb5de"/><stop offset=".01" stop-color="#22b2df"/><stop offset=".37" stop-color="#6666ec"/><stop offset=".66" stop-color="#982ff6"/><stop offset=".88" stop-color="#b70dfd"/><stop offset="1" stop-color="#c300ff"/></linearGradient><linearGradient id="uex-2" x1="715.24" y1="1177.21" x2="809.65" y2="1177.21" gradientUnits="userSpaceOnUse"><stop offset="0" stop-color="#9d00ff"/><stop offset="1" stop-color="#ff0"/></linearGradient><linearGradient id="uex-3" x1="885.62" y1="89.76" x2="213.96" y2="1060.89" gradientUnits="userSpaceOnUse"><stop offset="0" stop-color="#0fb"/><stop offset=".11" stop-color="#00f5bf"/><stop offset=".3" stop-color="#00d8c9"/><stop offset=".54" stop-color="#00abda"/><stop offset=".83" stop-color="#006cf0"/><stop offset="1" stop-color="#04f"/></linearGradient><linearGradient id="uex-4" x1="1317.13" y1="1043.23" x2="1507.58" y2="182.53" gradientUnits="userSpaceOnUse"><stop offset="0" stop-color="#ff0048"/><stop offset=".02" stop-color="#ff0945"/><stop offset=".16" stop-color="#ff3d33"/><stop offset=".3" stop-color="#ff6a23"/><stop offset=".44" stop-color="#ff8f17"/><stop offset=".58" stop-color="#ffab0d"/><stop offset=".72" stop-color="#ffc006"/><stop offset=".86" stop-color="#ffcc01"/><stop offset="1" stop-color="#ffd000"/></linearGradient><linearGradient id="uex-5" x1="76.82" y1="1375.27" x2="-456.86" y2="648.42" gradientUnits="userSpaceOnUse"><stop offset="0" stop-color="#ff0048"/><stop offset="1" stop-color="#fe0"/></linearGradient><linearGradient id="uex-6" x1="459.32" y1="480.56" x2="280.93" y2="711.42" gradientUnits="userSpaceOnUse"><stop offset="0" stop-color="#00ffe5"/><stop offset=".1" stop-color="#00fae6"/><stop offset=".24" stop-color="#00eae7"/><stop offset=".38" stop-color="#00d0ea"/><stop offset=".54" stop-color="#00acee"/><stop offset=".71" stop-color="#007ef4"/><stop offset=".88" stop-color="#0046fa"/><stop offset="1" stop-color="#001aff"/></linearGradient><linearGradient id="uex-7" x1="1894.08" y1="163.83" x2="2131.15" y2="256.01" gradientUnits="userSpaceOnUse"><stop offset="0" stop-color="#00f5f1"/><stop offset="1" stop-color="#0004f5"/></linearGradient><radialGradient id="radial-gradient" cx="602.9" cy="892.65" r="1343.8" gradientTransform="matrix(1 0 0 .35 0 584.5)" gradientUnits="userSpaceOnUse"><stop offset="0" stop-color="#9000ff"/><stop offset="1" stop-color="#ff0073"/></radialGradient><style>.uex-2{fill:#fff}.uex-13,.uex-14,.uex-7{fill:none;stroke-linecap:round;stroke-linejoin:round}.uex-7{stroke-dasharray:0 0 0 0 0 0}.uex-14,.uex-7{stroke:#000}.uex-13,.uex-14,.uex-7{stroke-width:21px}.uex-13{stroke:#ff0080}.uex-14{opacity:.6}</style></defs><path d="M1008.8 387.6C1943.1 316.2 2352 871 655.3 1330.2-243.6 1573.5-1360 1181.3 74.7 647.5c8.4 106.7 36.1 211.9 86 310.7 318.7 66 707.6-18.6 921-281.1-22.3-96.5-35.8-195.7-72.9-289.5Z" transform="translate(623.8 362.8)" style="fill:url(#radial-gradient)"/><path class="uex-2" d="M1021 1019.7c-200.2-63.1-470-10.1-585 175.8 210 73.7 448.1 9.4 585-175.8Z" transform="translate(623.8 362.8)"/><path d="M639.3 1226c-45.6-38.2-57-121.4-32.1-179.2a868.7 868.7 0 0 1 207.7-51.4c43.6 41.2 61.7 100 57.6 160.2-70.4 49.4-145.5 65.2-233.2 70.4Z" transform="translate(623.8 362.8)" style="fill:url(#uex)"/><path d="M715.9 1153.4c6 21.6 2.2 45.7-.7 67.7l94.5-33.1-27.4-54.7Z" transform="translate(623.8 362.8)" style="fill:url(#uex-2)"/><path class="uex-2" d="M727.4 1043.6c-25.9 34.7 3.9 100.3 49.6 75.1 27.2-90.7-46.3-76.6-49.6-75.1Z" transform="translate(623.8 362.8)"/><path d="M1080.3 686c-228.6 252.5-598.4 344.2-924.2 271.9C-246.7 8.5 952.3-413 1080.3 686Z" transform="translate(623.8 362.8)" style="opacity:.85;fill:url(#uex-3)"/><path d="M661.5 118.6A405.1 405.1 0 0 1 828.4 228m40.7 56.8 16.5 27.4" transform="translate(623.8 362.8)" style="stroke-dasharray:0 0 0 0 0 0;stroke-width:49px;opacity:.76;stroke-linecap:round;stroke-linejoin:round;stroke:#fff;fill:none"/><path class="uex-7" d="M73.7 642.1c-1433.7 539.2-317.3 931.4 581.6 688.1C2352 871 1943.1 316.2 1008.8 387.6" transform="translate(623.8 362.8)"/><path class="uex-7" d="M1080.3 686c-228.6 252.5-598.4 344.2-924.2 271.9C-246.7 8.5 952.3-413 1080.3 686Z" transform="translate(623.8 362.8)"/><path d="M1105.1 544.6c112.4 112.4 114.7 337.9 64.8 482.8 215.6-62.9 428.2-194.1 556.7-377.9-177.1-81.5-324.8-369.4-348.3-556.1-53.8 171.3-92.2 347.1-273.2 451.2Z" transform="translate(623.8 362.8)" style="fill:url(#uex-4);stroke-width:21px;stroke:#000;stroke-dasharray:0 0 0 0 0 0;stroke-linecap:round;stroke-linejoin:round"/><path class="uex-7" d="M1371.5 115.1c8.5 313.5-15.6 630.8-189.7 900.1" transform="translate(623.8 362.8)"/><path d="M-219.7 478.3c-25 288.1-114.7 463.7-253.8 646.1 224.8 125.3 506.7 163.1 751.7 101.3-148.1-78.8-245.6-240.9-246.8-410.9C-87.9 733-157.1 606.6-219.7 478.3Z" transform="translate(623.8 362.8)" style="fill:url(#uex-5);stroke-width:21px;stroke:#000;stroke-dasharray:0 0 0 0 0 0;stroke-linecap:round;stroke-linejoin:round"/><path class="uex-7" d="M-214.8 500c45.3 296.3 184.8 600.7 477.2 723.8m819.7-190.5c-238.2-93.4-579.9-18.4-676.6 215.7" transform="translate(623.8 362.8)"/><path class="uex-7" d="M437.3 1195.7c233.9 82.5 474.4-5.4 584.9-178.7" transform="translate(623.8 362.8)"/><path class="uex-7" d="M600.7 1056.4c-14 54.3-7.7 122.9 33.5 164m188-222.2c37.3 43.9 51.7 105.2 48.3 159.8m-169 59.7c21.4-22.7 14.9-71.3 3.8-97.7-4.7-11.3-11.8-22.3-11.2-34.5 1.5-28.6 38.8-60.4 66.1-45.1 53.1 30-1.1 86 46.7 147.4" transform="translate(623.8 362.8)"/><path d="M720.6 1047.3c-22.1 40.4 18 88.1 62 70.2-4.8 27-34.6 38.6-60.1 37.2-3.6-38.7-26-69.8-1.9-107.4Z" transform="translate(623.8 362.8)" style="stroke-width:21px;stroke:#000;stroke-dasharray:0 0 0 0 0 0;stroke-linecap:round;stroke-linejoin:round"/><circle cx="370.6" cy="595.4" r="119.5" style="fill:url(#uex-6);stroke-width:21px;stroke:#000;stroke-linecap:round;stroke-linejoin:round"/><ellipse cx="2001.8" cy="205.7" rx="124" ry="131" style="fill:url(#uex-7);stroke-width:21px;stroke:#000;stroke-linecap:round;stroke-linejoin:round"/><path class="uex-13" d="M-295.3 91.2c-20.8-4.8-49.5-32.6-70.3-37.4 14.3 17.3-.7 47.8 1.5 70.1a57.3 57.3 0 0 1 31.2-10.3 67.1 67.1 0 0 0-15.6 37.6l40.9 8c-13.2 24-12.8 54.8.9 78.5a10.8 10.8 0 0 1 2-12.3 45.1 45.1 0 0 0 30.4-10.9 88.8 88.8 0 0 0 14.7 66.9c8.7-16.1 28.5-25.2 46.4-21.3-10.3 21.2-4.4 49.1 13.7 64.3 22.8 2.1 42.7 22.1 44.6 44.9 3.2-17 17.1-16.4 26.9-30.6-6.7-5.5 2.5-27.2-1.7-34.7" transform="translate(623.8 362.8)"/><path class="uex-13" d="M-203 84.5a333.4 333.4 0 0 1 33.6-21.9c-5.9 60.2 22.2 22.6 40.7 40a520.6 520.6 0 0 0-95.6 87.8c12.6 8 19.7 22.2 26.2 35.8a109.6 109.6 0 0 0-47-1.2c17.9 9.5-9.7 47.3-13.6 61.9-2.3-13.2-18.5-14.6-29.5-13.2l-54.3 4.1c17.2 25.7 4.3 58.6-12 81.5-5.6 8.3-11.9 17.1-11.7 27.1l51.8-20.6m1705.9-692.7 37-25.4a127.2 127.2 0 0 0 4.5 45.9 104.8 104.8 0 0 1 53.3-26.7c-9.1 27.4-31.1 48-50.3 69.5a423.2 423.2 0 0 0-67.7 102.7l47.8-13.2c-14.2 19-26.9 39.3-42 57.5-56.6 25.3-108.8 62-145.5 112.7 22.8-6.8 45.1-16.3 69.3-16.9-5.1 11.9-2.1 44.7 13.8 45.9 10.2-7.8 16.4-20.6 25.1-30.3" transform="translate(623.8 362.8)"/><path class="uex-13" d="M1227.8-218.6a233.8 233.8 0 0 1-13.4-53.9 35.7 35.7 0 0 0 28.1 15.8l4.9-58.5q38.4 85.3 80.3 169.1a303 303 0 0 0-.6-89.7c18.9 17.8 47.3 25 72.6 29.4 15.5 1.1 32.3-3.3 46 4.2a187.9 187.9 0 0 0 1.3 87.9c-2.2-25.2 95 32.4 106.4 37.9l-23.1-45.7" transform="translate(623.8 362.8)"/><path class="uex-14" d="M-477.6 1135c227.8 143.4 539.4 169.8 785.3 92.3-160.1-71.5-268.3-240.8-266-416.2m122.1 156.1c315.9 85.2 709.3-26.5 926.4-266.5" transform="translate(623.8 362.8)"/><path d="M1191.8 1000.9c171.3-255.7 182.5-567.5 176.9-865.2-55.3 151.7-109.5 324.2-256 411.5 121.6 170.8 94.7 283 79.1 453.7ZM28.6 812.1c-15.2 150.3 79.9 284.9 185.5 382.1C-27.4 1069.6-179 798.5-202.7 531.5c75.9 95.7 126.4 209.7 231.3 280.6Z" transform="translate(623.8 362.8)" style="opacity:.6"/><path class="uex-14" d="M433.8 1206.3c211.9 91.1 476.5 10.8 602.1-182.6" transform="translate(623.8 362.8)"/><path class="uex-14" d="M706.1 1045.5c-63.3 49.1 15.5 106.5-15.6 170.4m-104.2-149.3c-16.3 52.1-2.2 111.7 29.9 154.9M1740 656.8c-139.7 187.2-354.3 336.5-587.1 378.6 58.5-153.1 51.6-351-53.6-484.1" transform="translate(623.8 362.8)"/><path d="M1437.3 374.9c31.1 85.6 79.5 171.4 149.1 231m27.1 23.7a119.5 119.5 0 0 0 18.7 16.1M-171.2 817.1c17.6 90.2 66.5 171.4 122 244.7m32.8 37.1a359.4 359.4 0 0 1 25.5 25.4m-576 26.3c24.5 74.9 105.8 104.6 170.9 136m32.5 13a110.3 110.3 0 0 1 20.4 9.3m2113.1-623a342.8 342.8 0 0 1-80 120.4m-22.9 26.6-9.5 10.4m-854.8 183a123.2 123.2 0 0 1 17.7 52.5m8.6 28.1.7 9.9M-180.5 187.2a87.8 87.8 0 0 1 9.2 59.3m-90.4-102.9a55.8 55.8 0 0 1 34.9 8.8m1508.2-320.8a116 116 0 0 0 9.9 62m45 38.7a72.3 72.3 0 0 0 46 12.7" transform="translate(623.8 362.8)" style="opacity:.92;stroke-width:21px;stroke-linecap:round;stroke-linejoin:round;stroke:#fff;fill:none"/></svg>