<svg version="1.1" id="Layer_1" xmlns="http://www.w3.org/2000/svg" x="0" y="0" viewBox="0 0 1100 1100" style="enable-background:new 0 0 1100 1100" xml:space="preserve" xmlns:xlink="http://www.w3.org/1999/xlink"><style type="text/css">.st300{fill:#00DE72;stroke:#000000;stroke-width:10;stroke-linecap:round;stroke-linejoin:round;stroke-miterlimit:10;}</style><circle class="st300" cx="550" cy="553.7" r="500"/><path d="M327 702.4c-23 52 11 74 36.5 56.6 38.5-10-14 99.9 89.9 62.9 18 1 28 22 29.8 40.3 6.5 63 54 46 59 8 15.5-34 45 49 47 59.9 11 73 69 42 71 17.9 3-54-3-60.1 2-68.3 18.5-31 71 13 90.8-15.5 14-19.7-31-63.5 8-55.4 94 19 19-101 14-120.4l-448 14z" style="fill:#20f"/><path d="M779 692.9c-15-51 21-118 41.5-126.2 18.5-8 17-33 7-50.2h-620c7 18-39 32-21 49.2 18 5 21 39.9 57 63.2 14 20 3 51 19 69.1 35.8 38 46-25 41-34.3 4-39 44-11 23 38.7-23 53 14 74 32.5 61.5 16-11 25-65 63 3.8 11 21 47 11 39-13.5-18.5-58 50.7-32 59-10 5 12.5-8 31 8 37.1 35 13 37-31 29.9-42.8-17-28 17-34 27.5-21.8 11 12-18 33 11 43.2 14 5 34-4 32-21.1-1-8-29-43 22-38 39 4 71 91 97 20.6C752 709 762 688 779 692.9z" style="fill:#04f"/><path d="M828 516.5c-76-76 7-145.5-67-184.7l-436 55.5c-9 19.6-34 35-37 52.2-43 48-155 7-119 70.4 48-3 52 29 58 37.6 23 33 72-41 88.5 20.7 12 43 39.7 26 39 9.3-2-37.5 45-31 59.6-9.7 75 110 112 49 105 20.2-9-39.9 23.5-39 29-29.8 6 9.6-7 22-3 32.5 9 25 53.5 18 35.5-25.4-11-27 39-10.1 53 .5 45.5 35 86 35 120-14.2 25-37 47-22 61.5-22.1 6.9.1 21.9-3.5 12.9-13z" style="fill:#00b2ff"/><path d="M761 331.7c-16-9 41-64-36-85.8-22-4-44 9-66.5 6.3-44-5-80-74-127-43.1-68 59.6-71 20-121 36.5-19.6 10.9-9 38-5 47.6 12 24-91-35-78 91.2-1 11 12.5 24 21 16.6 26-23 41-7 52 17.3 15 34 48.5 23 47-14.9-1-42 80.7-51 88 55.6 1.5 22 37 31 53 13.8 34-39-17-59.7-2-87.9 4-7 18-7 19.6 1.3 1 6-4 12-3 17.7 5 26.5 43.5 3 33-18.9-25-49.9 50-19.8 73-17.2C734.5 370 743 348 761 331.7z" style="fill:#00e1ff"/><style>.st40{fill:none;stroke:#000;stroke-width:10;stroke-linecap:round;stroke-linejoin:round;stroke-miterlimit:10}.st98{opacity:.6;enable-background:new}</style><g id="Outline"><path class="st98" d="M793 537c-1 .7-1 2-.5 3 5 10 11 35 25 30 8-2 21-13 18-22.4-.5-1-2-2-3-1.5-26 12-28-11-39-9.4v.3zm-34 274.5c6 5 26 8 25-3-6-7-20.6-12-21.5-26C750 772 744 803 759 811.5zm-219.3 52s1 .5 1 .8c9 13.5-3 36-18 40-34 6-9-6-6-44 .3-5.3 22.3 2.7 23 3.2zM342 731c5 7-4 22-4 33 8 13 29.6-5 33-14.9 2-12-17-21-28-20.2-1 .1-1 1.1-1 2.1zm31-120.2c2 23-8 47-26 61.9-13 10.9-17.5-30.6-8-27.9 6 4.2 28-18.8 34-34zm-157-59.9c-8 6-17 3-25 1-11 5 4 20 13.5 16 5-4 12-9 12-15.7-.5-.2-1.5-.2-.5-1.3zM337 473c-6-10-3-23 0-34 0-1 0-2-.6-2-9-9-23 11-19.8 20.7C318 463 338 475 337 472.8v.2z"/><path class="st98" d="M326 392c-2 29 24 45 7 44-7 2-14 1-15 11-1 11-24 0-24.5-1.3C285 433 317 404.5 326 392zm103-118c-9.9-4-16-16-18-25-4-6-9.9 1-11 6-7 54 29.5 28 29 19zm293 9c16 21 29.5 12 40 20.7 3 4 1 9.6-1 14-3 9-13 9-20 4.1-14.5-5.8-22-22.2-19-38.8z"/><path class="st40" d="M347 729c53.5 5 15 86 59 102 25 9 37-19.8 55-11.9 23 10.1 19.6 40 24 60.7 9.6 46 63 29.6 58-12.8"/><path class="st40" d="M519 861c89-9 47.5 119 114.5 115 39-6 35-47 25-76.5-3-9 0-18.5 7-24.5 24.5-21 59 15.5 84-2.5 15-11 8-33-2-45-12-15 0-32 10-43"/><path class="st40" d="M790 539c53 69.8-64 71 8 194.5 6 14 11 32 11 48.5 0 32-49 47.5-61 16"/><path class="st40" d="M721 287c2 51 64 31 74 88 6 34-11.5 71 7 103 10 18 27 31.5 34 51 8 19-4 47-27 42"/><path class="st40" d="M407 290.6c-16-8-12-29.9-2-41 17-15 40.5-10 61-6 29.8 1 49-29 75-38 50-17 81 55 133 44 23-5 48-11 69 1 25 14 33 55 10 75"/><path class="st40" d="M428 278c-16 26.5-51 17.5-76 28.5-20 10.5-28 33-23 55 10 47-43 51-39 88m25 4.5c1.5-23 35-26 41-5 7 25-13 47 16 72"/><path class="st40" d="M334 476c-20-34-61-31.5-89-9.6-20 8-43-3-64 4-22 7-28 37-5 43.5 6.5 2 23-2 26-1 15 4 11 25-5 30-21 6-10 29 6 29"/><path class="st40" d="M216 554.5c-15 15-14 41 2 55 37 22 41 31 36 69.7-2 31 46 41 53.5 10 2-10.8-4-22 0-33 13-32 44 20 62-44.5"/><path class="st40" d="M327 647.9c25 29.7-.5 47-7 75-10 32.5 34 65 53 25"/><path d="M729 262.5c9 4 16 13 18 22.5m-193-68c12.5 2 24.5 8 34 16m9 9 3 3m-163 10c-5.5-.9-12 .6-15.5 4M362 319.6c-9 2-14 10.7-16 19M339 449c4 1 6 6 6 9.8M308.5 470c-12-6-16-5-22-4M175 492c1-4 5-7 9-7.5m38 89.5c-4 8 0 16 4 19.9m44 78.6c-1 6 1 15 9 18m76-77.5c-3 14-13 14.5-16 16m4.5 119.5c-5-3-9-9-8-15M397 782c-1 14.5 7 28 14 30m90 53.9c-3 12 2 27 14.5 25M636 957c14-3 17-28 11-38m96-60.1c1-7 0-14-4-19m46-49.1c8-6.5 9-25 3-39M786 582c5-8 3-19-3-26m37-12c2-8.5-.6-18-7-24m-56-169c18 6 22 30 21 35" style="opacity:.7882;fill:none;stroke:#fff;stroke-width:10;stroke-linecap:round;stroke-linejoin:round;stroke-miterlimit:10;enable-background:new"/></g><style>.st40,.st68{fill:none;stroke:#000;stroke-width:10;stroke-linecap:round;stroke-linejoin:round;stroke-miterlimit:10}.st68{opacity:.6;enable-background:new}</style><g id="Mouth_Cover"><path d="M598 706c-47-14.5-175 15-82.5 66.5 25 14 169.5 24 164-14.5-13-18-39-32-61-24.7 1.2-2.8-12.5-24.3-20.5-27.3z" style="fill:#fe1767"/><path d="M614 729c-39.7-16-93-13-131 7 14-38 77-35 110-31.5l21 24.5zm47 14c-13-3-27 2-35 12 0-8-7-15-7-23 13-2 28 1 42 11z" style="fill:#ae0f45"/><path d="M600 704c7 8 14 18 19.6 27 25-2 52 9 64 32 32-15 24-49-24-56.4l-59.6-2.8v.2z"/><path class="st40" d="M506.5 772c42 17 129 25 183-9 35-22 8-49-23-54-43-7-156-9.6-179 13.1-16 16-1.5 41 19 49.6v.3z"/><path class="st40" d="M593 704c15 12 26 29.5 30 48.5m-4-19.5c24-4.5 50.5 8.5 62 30.7"/><path class="st68" d="M441 681.5c0 31-13.5 60-23 93 94 41 212 45 307 3"/><path class="st68" d="M486 717c-18.5 9.5-11 36 2 47 44 38 170 39 208.5-7"/><linearGradient id="SVGID_00000010300643410979321390000010567667997916476851_" gradientUnits="userSpaceOnUse" x1="567.366" y1="429.07" x2="603.366" y2="242.07" gradientTransform="matrix(1 0 0 -1 0 1100)"><stop offset="0" style="stop-color:#08ffce"/><stop offset=".106" style="stop-color:#1aedd1"/><stop offset=".321" style="stop-color:#4abdd9"/><stop offset=".624" style="stop-color:#9770e6"/><stop offset="1" style="stop-color:#ff08f7"/></linearGradient><path style="opacity:.6588;fill:url(#SVGID_00000010300643410979321390000010567667997916476851_);enable-background:new" d="M727 773.8c-94 42-211 37-304-3 13-29.6 21-59.7 23-90 94 25 191 5 283-19 6 39.2 12 55.2-2 112z"/><path d="m510 692.9 36 53.2 23-12.5 54 65.9 39-5.6-88-87.7-16 15.5-14.5-26.6M595 692c28 32 55 64 81 97.3l31-9.1-87-94" style="opacity:.5216;fill:#fff;enable-background:new"/><path class="st40" d="M727 774c-94 42-211 37-304-3 13-29.6 21-59.7 23-90 94 25 191 5 283-19.3 6 39.3 12 55.3-2 112.1v.2z"/><path d="M714 683c3 16 4 32 2 48m1 15-.5 6" style="opacity:.6118;fill:none;stroke:#fff;stroke-width:10;stroke-linecap:round;stroke-linejoin:round;stroke-miterlimit:10;enable-background:new"/></g><style>.st40,.st68{fill:none;stroke-width:10;stroke-linecap:round;stroke-linejoin:round;stroke-miterlimit:10;stroke:#000}.st68{opacity:.6;enable-background:new}</style><g id="x"><linearGradient id="SVGID_00000108293349405905417590000007858031186733274302_" gradientUnits="userSpaceOnUse" x1="513.292" y1="1028.154" x2="683.299" y2="731.142" gradientTransform="matrix(1 0 0 -1 0 1410)"><stop offset="0" style="stop-color:#f03"/><stop offset=".221" style="stop-color:#e7005c"/><stop offset=".715" style="stop-color:#ac00c1"/><stop offset="1" style="stop-color:#80f"/></linearGradient><path style="fill:url(#SVGID_00000108293349405905417590000007858031186733274302_);stroke:#000;stroke-width:10;stroke-linecap:round;stroke-linejoin:round;stroke-miterlimit:10" d="M491 487c-16 7-3 23-8.5 33-4 7-14 9.7-21 5-9-6-9-18-11-28.9-4-21-21-39-22.5-60.8-2-33 38-55.8 64-37 38 27 79 115 116 35.9 12-26 23-58 53-67.9 30-9.7 41 29 36 51.5-2.5 11.5-12 21.5-11 33 1 12 12 22.5 11 35-.5 6-5 12.5-12 12-5 0-9-4-14.5-5-18-.5-18 23-6 31.5 18 13 42 18 56.5 36 31 37-12 83-44 46-3-4.5-6-10-11-10.8-16 .5-4 28-21 30-8 .9-15-4-17-12-5.5-20 2-44-21-55-18.5-9-41 8-38 28.4 3 19 30.5 42 10.5 59-9 6-21.5 0-27-9-4-11-17-9-19.9 2-4.5 17-11 29-30 21.5-34-14-32-64.5-4-83.9 46-31.5 26-104-8-89.7v.2z"/><path class="st40" d="M466 429c77 52 155 104 234 154"/><path class="st40" d="M671.5 395c-49.6 75-104 148-158 219.9"/><path class="st68" d="M462 432c75 57 158 103 235 157"/><path class="st68" d="M675 397.9c-46.5 78-103 148-157 221M434 408c-24 29 0 55 10 83 4 12 2 33 19 36m30-37c35 2 31 58 13 78-6 7-14 13-19.8 19.9-24 24-16 74 21 77M589 563c42 0 21 48 47 63m29-24.1c3 9 19 18 28 19M660.5 365c-51 10.9-46 80-88 102"/><path d="M459 410c8-3 18-3 24 4m11 8.4 2 2M687 398c2 7 1 14-2 20m-4 11c0 .6-1 1-1 2m25 134c10 6.5 17 19 13 31.5m-7 9.5c-.5.5-1 1-1.5 2M567 618c4 4 6 8.5 7 14m-80-18c-2 11 1 22 9 29.9m9.5 7.2 2 .9" style="fill:none;stroke:#fff;stroke-width:10;stroke-linecap:round;stroke-linejoin:round;stroke-miterlimit:10"/></g><defs><style>.zbi-3{fill:none;stroke-linecap:round;stroke-linejoin:round;stroke-width:10px;stroke:#000}</style></defs><path d="M346.3 398.4c133.7 133.1 174-36.5 487-17 12.1.8 16-8.5 10.7-17.5-12.5-21.3-43.6-24.9-57.7-46.5-149.5-6.2-302.5 14.1-440 81Z" style="fill:#e600ff"/><path d="M293.6 425.4c147.8-84.7 322.8-116.1 494.1-106.7 18.8-290.3-568.4-184.4-494.1 106.7Z" style="fill:#bf00ff"/><path class="zbi-3" d="M293.6 425.4c147.8-84.7 322.8-116.1 494.1-106.7 18.8-290.3-568.4-184.4-494.1 106.7Z"/><path class="zbi-3" d="M346.3 398.4c133.7 133.1 174-36.5 487-17 12.1.8 16-8.5 10.7-17.5-12.5-21.3-43.6-24.9-57.3-45.5"/><path d="M348.3 404.5a417 417 0 0 0-53.9 28m134.6 15c35.3 11.7 79.6-5 113-16.8 81.2-28.8 166.2-48.7 252.5-45.7" style="opacity:.6;stroke:#000;fill:none;stroke-linecap:round;stroke-linejoin:round;stroke-width:10px"/><path d="M811.8 353.4a39.6 39.6 0 0 1 14.9 12.3m-444.7 47a115.1 115.1 0 0 0 40.9 19.4m12.9 1.3h4.8m254.7-244.3a113 113 0 0 1 58 56.7m6.2 15.7 3.2 8m-386.4-33.8c-29.2 23.4-53.5 48.7-62.1 83.6" style="stroke:#fff;fill:none;stroke-linecap:round;stroke-linejoin:round;stroke-width:10px"/><circle cx="550" cy="550" r="500" style="fill:none;stroke:#000;stroke-width:10;stroke-linecap:round;stroke-linejoin:round;stroke-miterlimit:10"/></svg>