<svg version="1.1" id="Layer_1" xmlns="http://www.w3.org/2000/svg" x="0" y="0" viewBox="0 0 1100 1100" style="enable-background:new 0 0 1100 1100" xml:space="preserve" xmlns:xlink="http://www.w3.org/1999/xlink"><circle cx="550" cy="550" r="500" style="fill:#2e2e2e"/><linearGradient id="a1" gradientUnits="userSpaceOnUse" x1="264.957" y1="853.134" x2="422.298" y2="853.134"><stop offset="0" style="stop-color:#00ff90"/><stop offset="1" style="stop-color:#c800ff"/></linearGradient><circle cx="343" cy="853" r="78" style="fill:url(#a1);stroke:#000;stroke-width:10;stroke-linecap:round;stroke-linejoin:round;stroke-miterlimit:10"/><linearGradient id="b1" gradientUnits="userSpaceOnUse" x1="826.38" y1="645.312" x2="919.38" y2="645.312"><stop offset="0" style="stop-color:#f7ff00"/><stop offset="1" style="stop-color:#ff5e00"/></linearGradient><ellipse style="fill:url(#b1);stroke:#000;stroke-width:10;stroke-linecap:round;stroke-linejoin:round;stroke-miterlimit:10" cx="873" cy="645" rx="46.5" ry="53"/><linearGradient id="c1" gradientUnits="userSpaceOnUse" x1="179.591" y1="404.219" x2="384.591" y2="404.219"><stop offset="0" style="stop-color:#0073ff"/><stop offset="1" style="stop-color:#8c00ff"/></linearGradient><ellipse style="fill:url(#c1);stroke:#000;stroke-width:10;stroke-linecap:round;stroke-linejoin:round;stroke-miterlimit:10" cx="282" cy="404" rx="102.5" ry="111"/><linearGradient id="d1" gradientUnits="userSpaceOnUse" x1="766.562" y1="310.33" x2="944.562" y2="310.33"><stop offset="0" style="stop-color:#7300ff"/><stop offset="1" style="stop-color:#ff008c"/></linearGradient><ellipse style="fill:url(#d1);stroke:#000;stroke-width:10;stroke-linecap:round;stroke-linejoin:round;stroke-miterlimit:10" cx="856" cy="310" rx="89" ry="95"/><linearGradient id="e1" gradientUnits="userSpaceOnUse" x1="615.769" y1="857.232" x2="845.269" y2="857.232"><stop offset="0" style="stop-color:#f0b"/><stop offset="1" style="stop-color:#f40"/></linearGradient><circle style="fill:url(#e1);stroke:#000;stroke-width:10;stroke-linecap:round;stroke-linejoin:round;stroke-miterlimit:10" cx="730.5" cy="857" r="115"/><linearGradient id="f1" gradientUnits="userSpaceOnUse" x1="115.411" y1="614.727" x2="186.411" y2="614.727"><stop offset="0" style="stop-color:#00ff90"/><stop offset="1" style="stop-color:#006fff"/></linearGradient><circle style="fill:url(#f1);stroke:#000;stroke-width:10;stroke-linecap:round;stroke-linejoin:round;stroke-miterlimit:10" cx="150.9" cy="615" r="35.5"/><path d="M313 326.3c18 9.9 33 27 39.6 46m7 22.7 1 7m509.9-163.1c19 5 34 19.6 41 38m6 22c1 3 1.5 5 2 8M879 609.4c9 4 16 11 19.8 20m.7 19.6-.5 5M759 766.9c25 9 44 31 49.9 56.5m7.1 23.7c1 4 1 7 .5 10.8M364 799.3c16 6 29 22 31 39m0 22.7-2 6M153.5 595.4c7 1 12 6 14 12" style="opacity:.8118;fill:none;stroke:#fff;stroke-width:16;stroke-linecap:round;stroke-linejoin:round;stroke-miterlimit:10;stroke-dasharray:0,0,0,0,0,0"/><path d="M532 209c-68 59.6-71 20-121 36.5-19.6 10.9-14 30-9.7 39.6 11 23-51 9-69 40.3-10.1 18 0 42-7.5 62-9 19.6-34 35-37 52-43 48-154 7-119 70 6 11 33-6 39 9.1 7 17.5-39 29-21 47 18 5 21 39.9 57 63 14 20 3 51 19 69 36 38 46-25 41-34.3 4-39 44-11 22 39-23 52 11 74 36.5 57 24-9 13 39 23 50.9 19.5 37 55 12 67 12 18 1 28 22 29.8 40 6 63 54 46 59 8 15.5-34 45 49 47 59.9 12 73 69.5 42 71 17.9 3-54-3-59.9 2-68 19-31 71 13 90.8-15.5 14-19.8-31-63 8-55 94 19.9 19-101 14-120.4-9-35.5 14-105.8 47-122 18-9 17-35.5 7-53-9.6-17-25-30.6-31-48.9-13.5-54 21-100.7-36-133.3-5-3-7-9.5-4-14 17-25.8 1-66-32-71-22-3-44 9-66.5 6C615 247 578.5 178 532 209z" style="fill:#1eb377"/><style>.st40{fill:none;stroke:#000;stroke-width:10;stroke-linecap:round;stroke-linejoin:round;stroke-miterlimit:10}.st98{opacity:.6;enable-background:new}</style><g id="Outline"><path class="st98" d="M793 537c-1 .7-1 2-.5 3 5 10 11 35 25 30 8-2 21-13 18-22.4-.5-1-2-2-3-1.5-26 12-28-11-39-9.4v.3zm-34 274.5c6 5 26 8 25-3-6-7-20.6-12-21.5-26C750 772 744 803 759 811.5zm-219.3 52s1 .5 1 .8c9 13.5-3 36-18 40-34 6-9-6-6-44 .3-5.3 22.3 2.7 23 3.2zM342 731c5 7-4 22-4 33 8 13 29.6-5 33-14.9 2-12-17-21-28-20.2-1 .1-1 1.1-1 2.1zm31-120.2c2 23-8 47-26 61.9-13 10.9-17.5-30.6-8-27.9 6 4.2 28-18.8 34-34zm-157-59.9c-8 6-17 3-25 1-11 5 4 20 13.5 16 5-4 12-9 12-15.7-.5-.2-1.5-.2-.5-1.3zM337 473c-6-10-3-23 0-34 0-1 0-2-.6-2-9-9-23 11-19.8 20.7C318 463 338 475 337 472.8v.2z"/><path class="st98" d="M326 392c-2 29 24 45 7 44-7 2-14 1-15 11-1 11-24 0-24.5-1.3C285 433 317 404.5 326 392zm103-118c-9.9-4-16-16-18-25-4-6-9.9 1-11 6-7 54 29.5 28 29 19zm293 9c16 21 29.5 12 40 20.7 3 4 1 9.6-1 14-3 9-13 9-20 4.1-14.5-5.8-22-22.2-19-38.8z"/><path class="st40" d="M347 729c53.5 5 15 86 59 102 25 9 37-19.8 55-11.9 23 10.1 19.6 40 24 60.7 9.6 46 63 29.6 58-12.8"/><path class="st40" d="M519 861c89-9 47.5 119 114.5 115 39-6 35-47 25-76.5-3-9 0-18.5 7-24.5 24.5-21 59 15.5 84-2.5 15-11 8-33-2-45-12-15 0-32 10-43"/><path class="st40" d="M790 539c53 69.8-64 71 8 194.5 6 14 11 32 11 48.5 0 32-49 47.5-61 16"/><path class="st40" d="M721 287c2 51 64 31 74 88 6 34-11.5 71 7 103 10 18 27 31.5 34 51 8 19-4 47-27 42"/><path class="st40" d="M407 290.6c-16-8-12-29.9-2-41 17-15 40.5-10 61-6 29.8 1 49-29 75-38 50-17 81 55 133 44 23-5 48-11 69 1 25 14 33 55 10 75"/><path class="st40" d="M428 278c-16 26.5-51 17.5-76 28.5-20 10.5-28 33-23 55 10 47-43 51-39 88m25 4.5c1.5-23 35-26 41-5 7 25-13 47 16 72"/><path class="st40" d="M334 476c-20-34-61-31.5-89-9.6-20 8-43-3-64 4-22 7-28 37-5 43.5 6.5 2 23-2 26-1 15 4 11 25-5 30-21 6-10 29 6 29"/><path class="st40" d="M216 554.5c-15 15-14 41 2 55 37 22 41 31 36 69.7-2 31 46 41 53.5 10 2-10.8-4-22 0-33 13-32 44 20 62-44.5"/><path class="st40" d="M327 647.9c25 29.7-.5 47-7 75-10 32.5 34 65 53 25"/><path d="M729 262.5c9 4 16 13 18 22.5m-193-68c12.5 2 24.5 8 34 16m9 9 3 3m-163 10c-5.5-.9-12 .6-15.5 4M362 319.6c-9 2-14 10.7-16 19M339 449c4 1 6 6 6 9.8M308.5 470c-12-6-16-5-22-4M175 492c1-4 5-7 9-7.5m38 89.5c-4 8 0 16 4 19.9m44 78.6c-1 6 1 15 9 18m76-77.5c-3 14-13 14.5-16 16m4.5 119.5c-5-3-9-9-8-15M397 782c-1 14.5 7 28 14 30m90 53.9c-3 12 2 27 14.5 25M636 957c14-3 17-28 11-38m96-60.1c1-7 0-14-4-19m46-49.1c8-6.5 9-25 3-39M786 582c5-8 3-19-3-26m37-12c2-8.5-.6-18-7-24m-56-169c18 6 22 30 21 35" style="opacity:.7882;fill:none;stroke:#fff;stroke-width:10;stroke-linecap:round;stroke-linejoin:round;stroke-miterlimit:10;enable-background:new"/></g><linearGradient id="a12" gradientUnits="userSpaceOnUse" x1="234.425" y1="-533.764" x2="348.416" y2="-471.769" gradientTransform="translate(0 1066)"><stop offset="0" style="stop-color:#e0f"/><stop offset=".098" style="stop-color:#e002ff"/><stop offset=".286" style="stop-color:#ba07ff"/><stop offset=".543" style="stop-color:#7c0eff"/><stop offset=".857" style="stop-color:#2919ff"/><stop offset="1" style="stop-color:#001eff"/></linearGradient><path style="fill:url(#a12)" d="M329 545.2c-2-47-53-63-76-27-7 11-9 27-1 38 5.8 8 15 12 19 21 5 13-6 28 0 39.9 16 22 43-1.5 35-25-14.5-31.1 24-18.1 23-47.1v.2z"/><path d="M264 506c-18 25 30 88 55 57.9 22.5-21 3-59-24.5-63.3-10.5-2-23.5-4-30.5 5.2v.2z" style="opacity:.3412;fill:#fff;enable-background:new"/><path d="M329 545c-1.5-47-53-63-76-27-7 11-9 27-1 38 5.8 8 15 12 19 21.4 5 13-6 28 0 39.9 16 22 43-1.5 35-25-14.5-31.3 24-18.3 23-47.3z" style="fill:none;stroke:#000;stroke-width:10;stroke-linecap:round;stroke-linejoin:round;stroke-miterlimit:10"/><path d="M262 503c-19 13-29.7 41-14 60.5 5 6 12 10 16 17 5.5 12-3 28 3.5 39.5 4 7 13 9.8 19.7 7" style="opacity:.6;fill:none;stroke:#000;stroke-width:10;stroke-linecap:round;stroke-linejoin:round;stroke-miterlimit:10;enable-background:new"/><path d="M295.5 515c7 4 12 9.6 16 16m3.5 12c.5 1 1 2 1 3" style="fill:none;stroke:#fff;stroke-width:10;stroke-linecap:round;stroke-linejoin:round;stroke-miterlimit:10"/><defs><style>.zab-3{fill:none;stroke-linecap:round;stroke-linejoin:round;stroke-width:10px;stroke:#000}</style></defs><path d="M550.4 800.2C662.9 839.6 644 929 776.5 930.6c13.5-.7 27.2-1.4 40.4 2.5-1.7-10.8-9.3-20-19-25.5 13.1-9 30.1-6.3 43.7-.4-14-38.5-70.6-36.5-95.8-66.8-15.5-16.5-13.2-39.1-18.6-59.3-10.7-40-59.7-71.3-98.4-48.6-48.9-68.9-140.1-51.6-157.3-28.1-27.1 37.1 2.7 87.5 78.9 95.8Z" style="fill:#ff0059"/><path d="M592.1 693.6a240.8 240.8 0 0 1 36.9 39.3c34.1-22.9 80.2 4.7 95.2 38.6 36.1-26.3 31.7-93.9-15.4-104.3-23.4-2.5-80.2 26.4-116.7 26.4Z"/><path d="M520.4 791.5q5.4-10.7 10.5-21.3l14.2 28.2Zm-18.7-103c9.8 16 20.1 31.8 30.9 47.1l14.8-47.1Zm161.9-9.4c11 11.9 19.5 26 31.4 37l11.4-48.4Zm48.9 73.3 6.7-23.2 19.6 23.4-14.7 18.4-11.6-18.6z" style="fill:#fff"/><path class="zab-3" d="M767.3 894.2c19.5 17.4 40.7 6.7 55.6 41.9-19.2-7.7-40.6-4.7-61.2-6-137.3-8.9-91.2-107.9-248.8-137.2-28.9-5.4-61.1-40.2-50.2-72.1 21.5-63.1 110.6-18.9 161.8-31.1 32.9-7.8 73-35.9 104-13.3 33.8 24.8 23.7 68.1-3.1 96.1"/><path class="zab-3" d="M580.4 690.8c32.9 15 55 49.4 68.6 81.9m-18.7-39.8c35.5-25.6 86.8 10.4 95.2 48.5 5.1 23.4 6.7 49.5 26.3 66.4 28.2 24.3 76.3 24.4 95.5 60.9-15.7-5.7-34.9-11.3-49.8-1M500.6 689l33.2 50.3 14.6-50"/><path class="zab-3" d="M663.4 680a402.5 402.5 0 0 1 32 40.4l12.2-50.8M519 791.8c4.3-7.9 6.7-14.5 13-23.8l15.3 32m165-50.3a224.9 224.9 0 0 1 7.8-22.2l20.8 23.6"/><path d="M480.1 696.3c-38.8 20.9-21.3 73.2 3.3 90.5 41 28.8 70.2-11 172.3 100.5M531.2 767.2l-18.3 22.5m254.7 102.4c12.9 10.1 30.7 6.8 45.8 10" style="opacity:.6;stroke:#000;fill:none;stroke-linecap:round;stroke-linejoin:round;stroke-width:10px"/><path d="M604 729.2a90.1 90.1 0 0 1 18.8 29.4m6.2 13.6 1.9 3.3m53.8-28.5a47.4 47.4 0 0 1 22.6 28.5m3 12.5.8 2.8M677 884.1a103.4 103.4 0 0 0 37.2 22.7m11.2 3.5 3.6 1m55.1-31.2a49.8 49.8 0 0 1 18.4 8.1" style="stroke:#fff;opacity:.83;fill:none;stroke-linecap:round;stroke-linejoin:round;stroke-width:10px"/><path d="M653.1 772.7c-4.7-16.5.8-36.2 17.1-43.9-13.4-4.3-30.6-1.6-41.9 2.7m-12.9-7.2c-21.5-13-45.2-16.2-70.3-15.2 1.7-5.2.9-14.8 1.3-20.7 28.1-3.2 53.5 10.4 69 35.9Zm-85.2 18.5c-17.6-20.5-30.2-43.2-61.3-31.8 5.1-9.6 21.5-17.9 31.5-22.3" style="opacity:.6"/><defs><linearGradient id="zd" x1="447.05" y1="539.8" x2="543.4" y2="539.8" gradientUnits="userSpaceOnUse"><stop offset="0" stop-color="#f70275"/><stop offset="1" stop-color="#f78502"/></linearGradient><linearGradient id="zd-2" x1="562.73" y1="532.04" x2="661.07" y2="532.04" xlink:href="#zd"/><linearGradient id="zd-3" x1="672.66" y1="514.36" x2="758.62" y2="514.36" xlink:href="#zd"/><style>.zd-2{stroke:#000;stroke-linecap:round;stroke-linejoin:round;stroke-width:10px;fill:none;opacity:.6}</style></defs><path d="M485.3 459.7c-21.4 24.2-2.4 57.2 2.9 83.9 7.8 39-16.2 74.3 7.2 80.2 20.6 5.1 24.7-21.5 20.3-36.7-7.7-27.4-18.9-56.8-11.1-85.2 12.3-45.4-10.8-51.8-19.3-42.2Zm114.9-6.9c-40.9 11.8 15.4 82.4 3.2 120-15.2 46.8 14.5 46.2 19.9 42.4 29-20.5-13.8-70.9-9.4-103.7 2-15.1 13.3-66.6-13.7-58.7Zm98.4-16.7c-24.6 30.5 15.8 71.5 10.8 106.1-8.5 58.5 28.4 37.2 25.8 19.6-3.3-22.7-26.9-42-21.6-65.5 17.1-76.3-9.1-67.4-15-60.2Z" style="stroke-linecap:round;stroke-linejoin:round;stroke-width:10px;stroke:#000;fill:#fff"/><path class="zd-2" d="M471.3 435.8c-18.3 9.7-26.7 30.5-30.5 49.8-5.8 30.1 10.5 56.4 14.9 86 3.2 21.8-11.8 46.6 5.5 68.1 13.3 16.7 39.4 19.4 55.6 5.3"/><path class="zd-2" d="M483.2 456.2c-27.9 24.3-4.5 62 .4 91.2 3.4 20-3.8 39.6-4.3 59.4-.4 15 17.4 30.2 28.9 16.6m73-196.1c-58.1 40.5 6.2 106.8-8.4 166.1-9.4 38.5 24.5 71.9 60.5 49.8"/><path class="zd-2" d="M588.1 454.8c-21.8 22.8 4.6 64.9 9.7 92.1 3.5 18.5-4.4 35.8-3 54 1.1 14.8 20.2 27.6 30.3 13.6M689 414.9c-45.4 30.1-2.8 83-4.3 123.6-.6 17.1-6.7 34.2-3.3 51.5 3.6 19 24 36.8 42.8 26.2"/><path class="zd-2" d="M695.7 433c-21.9 21.6-5.4 54.6 3.3 78.6 7.3 20.2 3.6 35.1 4.1 54.8.2 11.2 13.5 26.1 22.5 13.8"/><path d="M694 450c-2.7 13.4 4.9 31.7 20.6 30.3-3.9 18-4.8 37.4 7 52.8.7 1.2 1.5 2.6.9 3.7-6.4 6.9-13.7-1.2-14.5-8.5-8.4-26.8-21.9-48.2-14-78.3Zm-105.8 17.7c1.6 15.1 6.1 37 25.1 28-4.3 19.6 2 39.4 6.4 58.5 2.7 7.9-7.6 9.6-12 4.7-1.7-28.1-20.6-52.8-23-80.8Zm-107.6 5c-5.2 13.7 3 35.5 19.1 36.2-4.7 18.5 5.9 36.5 6.6 54.9 1.1 6.6-10.2 8.7-13.8 4.6-1.2-27.9-26.9-70-11.9-95.7Z"/><path d="M481.2 433.4C451.7 445.9 444 484.5 448 513c5.3 37.2 18.6 52.9 12.2 93.5-11.1 69.5 118.7 61.6 73.7-65.5-16.5-46.6 4.1-69.8-2.8-89.2s-28.7-27.4-49.9-18.4Z" style="fill:url(#zd);opacity:.73"/><path d="M593.4 424c-58.2 33.4-16.5 82.4-12.4 133.4 2.2 28.7-17.7 74 20.2 85.9s71.3-22.6 56.3-56.9c-39.8-90.8-17.1-63.5-17.1-124 0-28.7-16.4-56-47-38.4Z" style="fill:url(#zd-2);opacity:.73"/><path d="M694.8 416.1c-42.8 28.8-11.4 71-5.6 109.2 3.1 20.4-6.3 41-3.6 61.6 4.7 37.7 53.5 39.6 67.2 7.6 23.6-55.4-32.8-66.6-20.7-120.5 16.2-72.2-26.4-65.2-37.3-57.9Z" style="fill:url(#zd-3);opacity:.73"/><path d="M481.2 433.4C451.7 445.9 444 484.5 448 513c5.3 37.2 18.6 52.9 12.2 93.5-11.1 69.5 118.7 61.6 73.7-65.5-16.5-46.6 4.1-69.8-2.8-89.2s-28.7-27.4-49.9-18.4Zm112.2-9.4c-58.2 33.4-16.5 82.4-12.4 133.4 2.2 28.7-17.7 74 20.2 85.9s71.3-22.6 56.3-56.9c-39.8-90.8-17.1-63.5-17.1-124 0-28.7-16.4-56-47-38.4Zm101.4-7.9c-42.8 28.8-11.4 71-5.6 109.2 3.1 20.4-6.3 41-3.6 61.6 4.7 37.7 53.5 39.6 67.2 7.6 23.6-55.4-32.8-66.6-20.7-120.5 16.2-72.2-26.4-65.2-37.3-57.9Z" style="fill:none;stroke-linecap:round;stroke-linejoin:round;stroke-width:10px;stroke:#000"/><path d="M716.1 426.7a26.8 26.8 0 0 1 3.8 19.9m-2.2 12.5-.4 2.2m26.9 106.1c.8 11.6-3 25.7-14.2 31.3m-12.1 2.8-2.5-.4m-99.9-166.4a34 34 0 0 1 7.4 21.9m-.3 14.4-.4 3.6m17.9 107.7a31.1 31.1 0 0 1-.5 30m-7.3 10.4-2.9 1.9M506.6 444.8c8.7 4.6 11.2 15.8 8.8 24.9m-2.1 13.9-1 4.2m13.6 88.6a51.2 51.2 0 0 1-4.5 36.4m-6 9.9a11.8 11.8 0 0 1-4.4 3.9" style="stroke:#fff;stroke-linecap:round;stroke-linejoin:round;stroke-width:10px;fill:none"/><style>.st40{fill:none;stroke-width:10;stroke-linecap:round;stroke-linejoin:round;stroke-miterlimit:10;stroke:#000}</style><g id="Shroom_Antenna"><linearGradient id="SVGID_00000176735610897484560930000017691232496244912291_" gradientUnits="userSpaceOnUse" x1="401.493" y1="824.274" x2="312.493" y2="984.274" gradientTransform="matrix(1 0 0 -1 0 1100)"><stop offset="0" style="stop-color:#ff0019"/><stop offset=".092" style="stop-color:#ff0918"/><stop offset=".244" style="stop-color:#ff2315"/><stop offset=".437" style="stop-color:#ff4c11"/><stop offset=".665" style="stop-color:#ff850b"/><stop offset=".918" style="stop-color:#ffcd03"/><stop offset="1" style="stop-color:#ffe600"/></linearGradient><path style="fill:url(#SVGID_00000176735610897484560930000017691232496244912291_)" d="M409 168.3c96 29-58 182-88 89C213 196 389.7 58 409 168v.3z"/><linearGradient id="SVGID_00000033361498561336005100000005581830373393905326_" gradientUnits="userSpaceOnUse" x1="742.668" y1="1020.722" x2="672.668" y2="852.722" gradientTransform="matrix(1 0 0 -1 0 1100)"><stop offset="0" style="stop-color:#ff0019"/><stop offset="1" style="stop-color:#ffe600"/></linearGradient><path style="fill:url(#SVGID_00000033361498561336005100000005581830373393905326_)" d="M644 150.9c-88.5 56 113.5 159.5 116 61 91-90.9-130-173.9-116-61z"/><path d="M769 134.9c-22.5 7-8 46 13 33.9l-13-33.9zM712 120c-14 8.5-2 34 14 27 20.5-8 4-35.5-14-27zm-50 23c12.5-4 18-19 14-30.5C660 79 619 167 662 143zm46.5 27c13-21.5 37.5 7 21 21.7l-21-21.7zm21.1 58c3 8 13.5 9 19.9 5 13-9.6 0-29-14-27.9l-6 22.5v.4zM681 144c-12 17 20 14 14 0-2-7-11-6-14-.3v.3zm-48 16c19 8 4 33-11 26.1l11-26.1zm-293.4-24c-7 17 21 28.5 32 16 22-35-28-26-32-16.4v.4zM312 167c-17 15-4 42.5 18 30.9 21-12.9 5-50.9-18-30.9zm47.6 5c-7 7-1 15 8 11.5 8-7.5 0-15.5-8-11.7v.2zM304 245c-2-8 11-18 17-10.7 3 12 5 27-17 10.3v.4zm37-13c-24-13-6-48 16-27.3L341 232zm88.7-48.1c-27 13-1 39.5 9.8 16.2l-9.8-16.2zM347 264c-12 3-7 24 5 20.7 14-4 10-26-5-20.9v.2z" style="fill:#fff"/><linearGradient id="SVGID_00000043457880346161170380000015667602403679971728_" gradientUnits="userSpaceOnUse" x1="620" y1="903.19" x2="744" y2="903.19" gradientTransform="matrix(1 0 0 -1 0 1100)"><stop offset="0" style="stop-color:#ff00d5"/><stop offset="1" style="stop-color:#ff2b00"/></linearGradient><path style="fill:url(#SVGID_00000043457880346161170380000015667602403679971728_)" d="M649 177.4c-11 32 56 64 79.7 49 25-38-56-87-79.7-49.4v.4z"/><linearGradient id="SVGID_00000121994016746903787350000010207019385027681171_" gradientUnits="userSpaceOnUse" x1="327.911" y1="881.357" x2="436.911" y2="866.357" gradientTransform="matrix(1 0 0 -1 0 1100)"><stop offset="0" style="stop-color:#ff00d5"/><stop offset="1" style="stop-color:#ff2b00"/></linearGradient><path style="fill:url(#SVGID_00000121994016746903787350000010207019385027681171_)" d="M412 194.8c19 28-33 76-59 67.5-33.4-29.3 26.8-97.3 59-67.5z"/><linearGradient id="SVGID_00000120544995956153986830000010364649666597856660_" gradientUnits="userSpaceOnUse" x1="654.073" y1="885.052" x2="718.073" y2="795.052" gradientTransform="matrix(1 0 0 -1 0 1100)"><stop offset="0" style="stop-color:#ffd500"/><stop offset="1" style="stop-color:#f90"/></linearGradient><path style="fill:url(#SVGID_00000120544995956153986830000010364649666597856660_)" d="M672 228c-20.5 24-7 50.5-11 80 5 10.5 19 6 28.5 7.5 25-15-10.6-49 17.5-102 3-13.9-27-45.5-35 14.5z"/><linearGradient id="SVGID_00000139262761562535967860000013547569025019711667_" gradientUnits="userSpaceOnUse" x1="341.889" y1="850.787" x2="458.889" y2="789.787" gradientTransform="matrix(1 0 0 -1 0 1100)"><stop offset="0" style="stop-color:#ffd500"/><stop offset="1" style="stop-color:#ff8000"/></linearGradient><path style="fill:url(#SVGID_00000139262761562535967860000013547569025019711667_)" d="M405 248.9c25 17 21 46 33 73-2 11-16 10.9-24 15-27-8-4-49.6-45-92-6-12.9 12-50.9 36 4z"/><path class="st40" d="M647 299c12.5 5 22 17 24 29.9m-3-12.9c14-6 32 0 38.5 14"/><path class="st40" d="M658 303c11-13 0-31.5.8-47 .9-17 15-29.9 18-46 .7-4 .6-9 3-12 11-16 32 5 27 20-2 6-6 11.5-9 17-14 26 12 55-2 80.9"/><path class="st40" d="M671 217c-35-14-35-59 9-53 48 3 81 69 26 65"/><path class="st40" d="M661 236c-47-19-58-83 2-90.6M699 249c54 15 75-23 49-66.5"/><path class="st40" d="M643 148.9c-10.8-39.7 39-59.9 73-51 50.5 13 96 72 44 115M449 310c-9.8 8-15 22-13 35"/><path class="st40" d="M436 332c-14-2-28.5 9-30.5 24"/><path class="st40" d="M440 317c-14-9.6-9-29.8-15-44-6-16-23-24-30-39-2-4-3-8-6-10.6-15-12-28 14-18 27 3 5.5 9 9 13 13.9 21 21 5 56 26 76.5"/><path class="st40" d="M403 239c27.5-24 13.5-66-24-48-42 16.5-52.5 89-3 69.6"/><path class="st40" d="M418 253c37-31.5 27-95-29-86m-1 110c-44 29.5-74-1-64-49.7"/><path class="st40" d="M408 165.5c-2-40.9-53-46-80.9-28-41 27-65 96-5 122"/><path d="M661 299c8 13 24 2 34 13m-46-137c29.8-19 77 9.6 85 42m-298 99.5c-4 12-18 7-26 16M407 191c-29.7-2-54 24-63.5 55m45.5-78c14-4 15.5-16 9.7-26m-74.2 83.5c-2 10-6.5 32-23 21m446.5-64c5 8.5 14 29 28 11m-112-49c-9 1-16.5-2-22-9M671 320c11.5-6 27 1.5 36 9m-273 7.9c-10 1-20 6-28 13" style="opacity:.6;enable-background:new;stroke:#000;fill:none;stroke-width:10;stroke-linecap:round;stroke-linejoin:round;stroke-miterlimit:10"/><path d="M411 269.9c3.5 6 5.5 12 6 19m0 12.1 1 4m258-60c-4 6-4.5 14-2.5 20m1.5 13v4" style="fill:none;stroke:#fff;stroke-width:10;stroke-linecap:round;stroke-linejoin:round;stroke-miterlimit:10"/></g><circle cx="550" cy="550" r="500" style="fill:none;stroke:#000;stroke-width:10;stroke-linecap:round;stroke-linejoin:round;stroke-miterlimit:10"/></svg>