<svg version="1.1" id="Layer_1" xmlns="http://www.w3.org/2000/svg" x="0" y="0" viewBox="0 0 1100 1100" style="enable-background:new 0 0 1100 1100" xml:space="preserve" xmlns:xlink="http://www.w3.org/1999/xlink"><style type="text/css">.st303{fill:#FED907;stroke:#000000;stroke-width:10;stroke-linecap:round;stroke-linejoin:round;stroke-miterlimit:10;}</style><circle class="st303" cx="550" cy="553.7" r="500"/><style>.st71{fill:none;stroke:#ff002b;stroke-width:10;stroke-linecap:round;stroke-linejoin:round;stroke-miterlimit:10}</style><g id="X"><path d="M533 210.7c-68 59.6-71 20-121 36.5-19.6 10.9-14 30-9.7 39.6 11 23-51 9-69 40.3-10 18 .1 42-7.5 61.8-9 19.6-34 35-37 52.2-43 48-154 7-119 70.4 6 11 33-6 39 9.1 7 17.5-39 29-21 46.7 18 5 21 39.9 57 63.2 14 20 3 51 19 69.1 35.8 38 46-25 41-34.3 4-39 44-11 22 38.7-23 52 11 74 36.5 56.6 24-9 13 39 23 50.9 19.5 37 55 12 67 12 18 1 28 22 29.8 40.3 6.5 63 54 46 59 8 15.5-34 45 49 47 59.9 11 73 69 42 71 17.9 3-54-3-60.1 2-68.3 18.5-31 71 13 90.8-15.5 14-19.7-31-63.5 8-55.4 94 19 19-101 14-120.4-9-35.5 14-106 47-121.7 18-9 17-35.5 7-52.8-9.5-17-25-30.6-31-48.9-13.5-54 22-102-36-133.3-5-3-7-9.5-4-14.4 17-26 1-66-32-71.4-22-3-44 9-66.5 6.3-43.4-4.8-79.5-74.1-126.4-43.1z" style="fill:#007bff"/><path class="st71" d="M363 306.9C477 487 608 667 806 759"/><path class="st71" d="M795 413.5C715 519.6 458 757 384 799"/></g><style>.st40{fill:none;stroke:#000;stroke-width:10;stroke-linecap:round;stroke-linejoin:round;stroke-miterlimit:10}.st98{opacity:.6;enable-background:new}</style><g id="Outline"><path class="st98" d="M793 537c-1 .7-1 2-.5 3 5 10 11 35 25 30 8-2 21-13 18-22.4-.5-1-2-2-3-1.5-26 12-28-11-39-9.4v.3zm-34 274.5c6 5 26 8 25-3-6-7-20.6-12-21.5-26C750 772 744 803 759 811.5zm-219.3 52s1 .5 1 .8c9 13.5-3 36-18 40-34 6-9-6-6-44 .3-5.3 22.3 2.7 23 3.2zM342 731c5 7-4 22-4 33 8 13 29.6-5 33-14.9 2-12-17-21-28-20.2-1 .1-1 1.1-1 2.1zm31-120.2c2 23-8 47-26 61.9-13 10.9-17.5-30.6-8-27.9 6 4.2 28-18.8 34-34zm-157-59.9c-8 6-17 3-25 1-11 5 4 20 13.5 16 5-4 12-9 12-15.7-.5-.2-1.5-.2-.5-1.3zM337 473c-6-10-3-23 0-34 0-1 0-2-.6-2-9-9-23 11-19.8 20.7C318 463 338 475 337 472.8v.2z"/><path class="st98" d="M326 392c-2 29 24 45 7 44-7 2-14 1-15 11-1 11-24 0-24.5-1.3C285 433 317 404.5 326 392zm103-118c-9.9-4-16-16-18-25-4-6-9.9 1-11 6-7 54 29.5 28 29 19zm293 9c16 21 29.5 12 40 20.7 3 4 1 9.6-1 14-3 9-13 9-20 4.1-14.5-5.8-22-22.2-19-38.8z"/><path class="st40" d="M347 729c53.5 5 15 86 59 102 25 9 37-19.8 55-11.9 23 10.1 19.6 40 24 60.7 9.6 46 63 29.6 58-12.8"/><path class="st40" d="M519 861c89-9 47.5 119 114.5 115 39-6 35-47 25-76.5-3-9 0-18.5 7-24.5 24.5-21 59 15.5 84-2.5 15-11 8-33-2-45-12-15 0-32 10-43"/><path class="st40" d="M790 539c53 69.8-64 71 8 194.5 6 14 11 32 11 48.5 0 32-49 47.5-61 16"/><path class="st40" d="M721 287c2 51 64 31 74 88 6 34-11.5 71 7 103 10 18 27 31.5 34 51 8 19-4 47-27 42"/><path class="st40" d="M407 290.6c-16-8-12-29.9-2-41 17-15 40.5-10 61-6 29.8 1 49-29 75-38 50-17 81 55 133 44 23-5 48-11 69 1 25 14 33 55 10 75"/><path class="st40" d="M428 278c-16 26.5-51 17.5-76 28.5-20 10.5-28 33-23 55 10 47-43 51-39 88m25 4.5c1.5-23 35-26 41-5 7 25-13 47 16 72"/><path class="st40" d="M334 476c-20-34-61-31.5-89-9.6-20 8-43-3-64 4-22 7-28 37-5 43.5 6.5 2 23-2 26-1 15 4 11 25-5 30-21 6-10 29 6 29"/><path class="st40" d="M216 554.5c-15 15-14 41 2 55 37 22 41 31 36 69.7-2 31 46 41 53.5 10 2-10.8-4-22 0-33 13-32 44 20 62-44.5"/><path class="st40" d="M327 647.9c25 29.7-.5 47-7 75-10 32.5 34 65 53 25"/><path d="M729 262.5c9 4 16 13 18 22.5m-193-68c12.5 2 24.5 8 34 16m9 9 3 3m-163 10c-5.5-.9-12 .6-15.5 4M362 319.6c-9 2-14 10.7-16 19M339 449c4 1 6 6 6 9.8M308.5 470c-12-6-16-5-22-4M175 492c1-4 5-7 9-7.5m38 89.5c-4 8 0 16 4 19.9m44 78.6c-1 6 1 15 9 18m76-77.5c-3 14-13 14.5-16 16m4.5 119.5c-5-3-9-9-8-15M397 782c-1 14.5 7 28 14 30m90 53.9c-3 12 2 27 14.5 25M636 957c14-3 17-28 11-38m96-60.1c1-7 0-14-4-19m46-49.1c8-6.5 9-25 3-39M786 582c5-8 3-19-3-26m37-12c2-8.5-.6-18-7-24m-56-169c18 6 22 30 21 35" style="opacity:.7882;fill:none;stroke:#fff;stroke-width:10;stroke-linecap:round;stroke-linejoin:round;stroke-miterlimit:10;enable-background:new"/></g><style>.st40{fill:none;stroke:#000;stroke-width:10;stroke-linecap:round;stroke-linejoin:round;stroke-miterlimit:10}</style><g id="Duhh"><path d="M713 770.3c-107 104-373 27-163-65.2 27-9 49.7 7.5 69 24.1 37-16.2 72 8.8 94 41.1z" style="fill:#fe1767"/><path d="M711 767.2c-20-25-57.5-53.5-90.6-38-12-11-24-22-38-29.5C623 679.6 771 699 711 767.2z"/><path d="M611.5 726.5C562 714 507 740 474 776.7c-1-40 50-66 84-75.9 21-4.8 40 8.2 53.5 25.7zm27.5 28.1c-1-13 16-24 28-23.4-14-8-32-8-46-.1l18 23.5z" style="fill:#ae0f45"/><ellipse transform="rotate(-9.32 598.78 756.174)" class="st40" cx="599" cy="756" rx="128" ry="62"/><path class="st40" d="M571 699.3c27 9 50 29 64 54m-14-23.2c33.5-18.5 68 11 89 36M475 706c-26 21-48.5 57-26 89m272-111.6c27 10 48 49 27 77"/><path d="M475 706c-32 9.6-59 64-27 89m273-113.7c33 4 55 55 28.5 78M472 768.6c-19.6 91 222 65.8 246-6" style="opacity:.6;fill:none;stroke:#000;stroke-width:10;stroke-linecap:round;stroke-linejoin:round;stroke-miterlimit:10"/><path d="M588 723c7 5.5 13 12 18 18m8 12.5 1.5 2.5m43.5-13.2c7 3 14 7.5 19 13m9 10.2 3 3" style="opacity:.7686;fill:none;stroke:#fff;stroke-width:10;stroke-linecap:round;stroke-linejoin:round;stroke-miterlimit:10"/></g><defs><linearGradient id="zl" x1="574.42" y1="410.83" x2="618.38" y2="675.51" gradientUnits="userSpaceOnUse"><stop offset="0" stop-color="#00ff19"/><stop offset=".22" stop-color="#00fa46"/><stop offset=".7" stop-color="#00eeb6"/><stop offset="1" stop-color="#00e6ff"/></linearGradient><style>.zl-3{fill:none;stroke-linecap:round;stroke-linejoin:round;stroke-width:10px;stroke:#000}</style></defs><path d="M746.4 534.9c13.5 7.2 27.2-7.7 21.7-22.5-4.6-12.5-17-13.9-17-35.5 0-45.9-85.7-81.3-142.9-1.3-25.4 35.5-44.1-49.3-124-44.7-38.6 2.2-84.3 38.4-70.1 76.9 31 84.2 9.1 85.6 18.1 107.2 5.8 13.7 26.8 18.9 35.1 4.2 19.3 25.5 52.7 36.3 76.4 9.9 57.9 26.7 37.8-55 32.1-74.1-3.2-45.4 46.6-36.5 51.6-5.4 2.6 16.2-3.4 85.5 34.5 44.1 8.8 6 10.9 17.4 16.6 25.9 16.3 24.1 45.5 11.2 42.2-17 41.4 1.7 44.3-39.2 25.7-67.7Z" style="fill:url(#zl)"/><path d="M438.8 449.7a25.8 25.8 0 0 1 3.2 5.3l40.5 89.1 14.5-19.4 34 113.4s15.8-8.2 16.6-6.9c13.2 12.2 32.4-1.9 37.5-15.9l-86.3-125.8-11.2 26-25.8-78.5m180 6.5 1.7 3.3 17.9 81.5 13.3-14.7s20.7 118 20.7 118.8c22.6 2.6 24.8-13.8 24.4-31.7 8.1 1.5 14.9-1 21.4-5l-63.5-114.4-9.1 21.6-4-70.7" style="fill:#fff;opacity:.47"/><path class="zl-3" d="M458.7 607.4c9.5 6.5 14.6 17.9 23 25.8 17.5 16.1 46.2 12.8 62-4.2 4.3-4.6 8-10 13.6-12.8"/><path class="zl-3" d="M546 629c16.3 20.4 42.6-2.4 40.4-24.8-1.8-19.2-13.8-36.8-11.7-56 4.9-44.6 58.3-24.1 53.7 12.5-7.8 60.9 32.4 47.9 32.4 31.3"/><path class="zl-3" d="M653.4 587.4c25.2 6.3 18.1 44.5 44.5 45.9 11.1.6 24.3-10.8 22.6-25.1-1.2-10.5-9.2-13.3-6-24.3m5.2 15.7c19.4 6.2 39.7-10.2 39.6-30.5-.1-17.6-18.1-30.4-17.3-47.5"/><path class="zl-3" d="M746.4 534.9c13.5 7.2 27.2-7.7 21.7-22.5-4.6-12.5-17-13.9-17-35.5 0-45.9-56.4-50.9-75.3-47.5s-32.8 11.4-67.6 46.2c-30.9 30.9-44.1-49.3-124-44.7-38.6 2.2-84.3 38.4-70.1 76.9 31 84.2 9.1 85.6 18.1 107.2 5.8 13.7 26.8 18.9 34.5 4.6"/><path d="M428.9 449.8c-51.5 33.4 2.4 85.8-3.3 135.8-1.6 14-2.6 35.5 14.5 39.7m17.6-18.2c1.8 5.9 2.6 12.4-.2 17.8m100.2-8.6c-2.4 5.2-4.6 11.2-2.8 16.8m98-45.3a19.7 19.7 0 0 1-1.7 15.4m63.6-18.4c3.6 7 9.7 13.6 17.8 14.8m9.6-78.8a23.7 23.7 0 0 0 16.6 14.6m-292.7 90.2c7.1 9.4 17.8 19 30.4 16.6m45.9-9.1c7.6 6.5 19.7 6.8 28.5 1m28.9-109.4c42.3 24.6 7.5 57.5 35.3 77.9m26.3-2.6c8.7 9.5 10.9 24.3 22 32.1 7 4.9 17.3 5.9 23.4-.7" style="opacity:.6;stroke:#000;fill:none;stroke-linecap:round;stroke-linejoin:round;stroke-width:10px"/><path d="M711.8 447.7a25.1 25.1 0 0 1 18.5 15.2m4 11.6.1 2.6m19 34.3a16.1 16.1 0 0 1 3.3 8.1M743.4 560a20.2 20.2 0 0 1-1 18.5m-6.3-31.4 1.6 2.6m-31.6 53.7a15 15 0 0 1-2.1 15m-60.7-25.8a17 17 0 0 1-3.5-12.3m-133-132.9a67.2 67.2 0 0 1 34.6 19.8m-51.1-21a32.6 32.6 0 0 0-10.3.7m92.3 152.7a22.1 22.1 0 0 1-.5 14.8m-4.1-29.3.9 2m-32.4 30c-4.2 4.9-9.8 9-16.2 9.5m-12 2.7-2.9-.8m-60.4-17a13.3 13.3 0 0 1-1-12.1" style="stroke:#fff;fill:none;stroke-linecap:round;stroke-linejoin:round;stroke-width:10px"/><defs><linearGradient id="zbe" x1="591.4" y1="318.14" x2="576.03" y2="139.55" gradientUnits="userSpaceOnUse"><stop offset="0" stop-color="#a305ff"/><stop offset=".45" stop-color="#5d5dff"/><stop offset="1" stop-color="#05cdff"/></linearGradient><style>.zbe-4,.zbe-6{fill:none;stroke-linecap:round;stroke-linejoin:round}.zbe-4{stroke:#000;stroke-width:10px}.zbe-6{stroke:#fff;stroke-width:9px}</style></defs><path d="M794.8 340.5c-165.4-4.7-274-.5-414.2 50.6C364.2 171.9 387 229.4 551 169.7c18-6.5 37.5-14.4 55.8-8.8 42.7 13.2 84 32.3 126.8 45.9 82.3 26.1 30.2 80 61.2 133.7Z" style="fill:#e6e6e6"/><path d="M290.5 426.5c28.7-15.5 59.1-29.8 90.6-38.6-10-54.3-11.3-116.1 11.8-166.4-92.2 22.4-113.8 122.1-102.4 205Zm59.1-23.9c101.4 117.2 209.8-36.7 463.5-3 82.3 10.9 11.9-47.9-24.5-60.1-147.3-2.1-303 2.1-439 63.1Z" style="fill:#40aadb"/><path d="M523.4 181.3c-4.5 16.3 14.7 30.1 19.2 40.3 2.8 6.6 1 19.3-1.2 28.7-7.7 32.9 42.2 33.7 33.3 3.5-9.8-33.2 27.4-29.7 15.2 23.5-10.2 44.4 67.4 38.5 47.8-7.5-4.2-10-14.3-16.6-16.4-27.3-5-26.1 26.6-38.9 12.5-71.3-41.2-23.7-70.1-7.8-110.4 10.1Z" style="fill:url(#zbe)"/><path class="zbe-4" d="M794.8 340.5c-165.4-4.7-355.2 6.8-503.7 88.1-20.7-217.7 102-201.4 259.9-258.9 18-6.5 37.5-14.4 55.8-8.8 42.7 13.2 84 32.3 126.8 45.9 82.3 26.1 30.2 80 61.2 133.7Z"/><path class="zbe-4" d="M395.9 218.7c-26.1 51.2-26.5 113-15.5 168.4m-30.8 15.5c101.4 117.2 209.8-36.7 463.5-3 82.3 10.9 11.9-47.9-21.4-59.2"/><path d="M352.4 407.6a297.6 297.6 0 0 0-61.4 27.7m122.1 8.9c60.8 18.6 122.5-11.6 181.6-24.8 65.8-14.7 133.5-21.5 200.7-16.2M384.6 226.1c-18.9 50.9-24.3 108.4-11 161m142.5-202.5c-.9 17.3 20.5 28.7 22 45s-11.4 44.1 12.5 45.4m27.8-38.1c19.1 16.3 3.6 36.1 6.8 54.5 2.7 15.5 22.3 23.6 35.8 15.5" style="opacity:.6;stroke-width:10px;stroke:#000;fill:none;stroke-linecap:round;stroke-linejoin:round"/><path class="zbe-6" d="M623.4 178.5a28.7 28.7 0 0 1-.9 15.1m-4.8 11.8-1 1.7m8.3 65a16 16 0 0 1 .9 16.5m-91.4-102a18.3 18.3 0 0 0 5.8 10.9"/><path d="M792.8 356.6a158.7 158.7 0 0 1 35 24m-364.6 49.5a73.6 73.6 0 0 1-44-3m-12.6-4.2-3.8-1.3m350-186.4c8 6.2 11.9 16 12.7 25.9m.7 11.7-.3 3.3m-375.8 22.1a139.1 139.1 0 0 0 1.7 42.2m.9 14.5.3 3m-65.5-74.2c-10.5 13.9-15.6 32.1-19 49.1m-2.2 14.5-.3 4.6" style="stroke:#fff;stroke-width:10px;fill:none;stroke-linecap:round;stroke-linejoin:round"/><path class="zbe-4" d="M523.4 181.3c-4.5 16.3 14.7 30.1 19.2 40.3 2.8 6.6 1 19.3-1.2 28.7-7.7 32.9 42.2 33.7 33.3 3.5-9.8-33.2 27.4-29.7 15.2 23.5-10.2 44.4 67.4 38.5 47.8-7.5-4.2-10-14.3-16.6-16.4-27.3-5-26.1 26.6-38.9 14-70.7"/><path class="zbe-6" d="M551.8 253.6a9.8 9.8 0 0 0 2.8 9.3"/><circle cx="550" cy="550" r="500" style="fill:none;stroke:#000;stroke-width:10;stroke-linecap:round;stroke-linejoin:round;stroke-miterlimit:10"/></svg>