<svg version="1.1" id="Layer_1" xmlns="http://www.w3.org/2000/svg" x="0" y="0" viewBox="0 0 1100 1100" style="enable-background:new 0 0 1100 1100" xml:space="preserve" xmlns:xlink="http://www.w3.org/1999/xlink"><style type="text/css">.st301{fill:#005BEF;stroke:#000000;stroke-width:10;stroke-linecap:round;stroke-linejoin:round;stroke-miterlimit:10;}</style><circle class="st301" cx="550" cy="553.7" r="500"/><defs><linearGradient id="a" x1="467.78" y1="347.4" x2="508.96" y2="422.3" gradientUnits="userSpaceOnUse"><stop offset="0" stop-color="#ff00f2"/><stop offset=".5" stop-color="#ac05ff"/><stop offset="1" stop-color="#0bf"/></linearGradient><linearGradient id="b" x1="625.23" y1="280.48" x2="689.78" y2="436.19" gradientUnits="userSpaceOnUse"><stop offset="0" stop-color="#00f"/><stop offset=".06" stop-color="#2c00ea"/><stop offset=".15" stop-color="#6b00cb"/><stop offset=".24" stop-color="#a000b2"/><stop offset=".32" stop-color="#c9009e"/><stop offset=".39" stop-color="#e70090"/><stop offset=".45" stop-color="#f90087"/><stop offset=".5" stop-color="#ff0084"/><stop offset=".58" stop-color="#ff2272"/><stop offset=".76" stop-color="#ff7a44"/><stop offset="1" stop-color="#fffb00"/></linearGradient><linearGradient id="c" x1="542.81" y1="533.18" x2="664.99" y2="716.92" gradientUnits="userSpaceOnUse"><stop offset="0" stop-color="#af0"/><stop offset=".25" stop-color="#fac400"/><stop offset=".29" stop-color="#fabf00"/><stop offset=".33" stop-color="#fab100"/><stop offset=".38" stop-color="#f99900"/><stop offset=".43" stop-color="#f87700"/><stop offset=".48" stop-color="#f74d00"/><stop offset=".5" stop-color="#f73e00"/><stop offset=".75" stop-color="#f5006e"/><stop offset="1" stop-color="#c0f"/></linearGradient><linearGradient id="d" x1="730.89" y1="463.6" x2="755.38" y2="535.72" gradientUnits="userSpaceOnUse"><stop offset="0" stop-color="#ff00a1"/><stop offset="1" stop-color="#0059ff"/></linearGradient><linearGradient id="e" x1="659.6" y1="799.3" x2="718.16" y2="799.3" gradientUnits="userSpaceOnUse"><stop offset="0" stop-color="#00f"/><stop offset="1" stop-color="#0fd"/></linearGradient><linearGradient id="f" x1="433.06" y1="520.57" x2="478.6" y2="623.4" gradientUnits="userSpaceOnUse"><stop offset="0" stop-color="#ff0900"/><stop offset=".1" stop-color="#ff0d00"/><stop offset=".2" stop-color="#fe1b00"/><stop offset=".31" stop-color="#fe3100"/><stop offset=".43" stop-color="#fd4f00"/><stop offset=".54" stop-color="#fb7600"/><stop offset=".58" stop-color="#fb8400"/><stop offset="1" stop-color="#f7ff00"/></linearGradient><linearGradient id="g" x1="514.44" y1="451.87" x2="573.27" y2="482.5" gradientUnits="userSpaceOnUse"><stop offset="0" stop-color="#ffb300"/><stop offset=".5" stop-color="#f2d45a"/><stop offset="1" stop-color="#e600ff"/></linearGradient><linearGradient id="h" x1="555.34" y1="254.67" x2="521.18" y2="370.89" gradientUnits="userSpaceOnUse"><stop offset="0" stop-color="#fffb00"/><stop offset=".05" stop-color="#f0fa0f"/><stop offset=".15" stop-color="#c9f736"/><stop offset=".3" stop-color="#89f176"/><stop offset=".47" stop-color="#32eacd"/><stop offset=".56" stop-color="#00e6ff"/><stop offset="1" stop-color="#6200ff"/></linearGradient><linearGradient id="i" x1="431.91" y1="482.9" x2="368.78" y2="334.62" gradientUnits="userSpaceOnUse"><stop offset="0" stop-color="#e1ff00"/><stop offset=".5" stop-color="#fa5700"/><stop offset="1" stop-color="#ff00f7"/></linearGradient><linearGradient id="j" x1="423.73" y1="687.79" x2="506.29" y2="788.25" gradientUnits="userSpaceOnUse"><stop offset="0" stop-color="#5900ff"/><stop offset=".5" stop-color="#db00c5"/><stop offset="1" stop-color="#ff4000"/></linearGradient><linearGradient id="k" x1="264.66" y1="609.94" x2="305.75" y2="609.94" gradientUnits="userSpaceOnUse"><stop offset="0" stop-color="#00f"/><stop offset="1" stop-color="#f0f"/></linearGradient><linearGradient id="l" x1="237.16" y1="499.87" x2="342.8" y2="552.28" gradientUnits="userSpaceOnUse"><stop offset="0" stop-color="#00ff04"/><stop offset=".06" stop-color="#01fe19"/><stop offset=".18" stop-color="#05fd50"/><stop offset=".34" stop-color="#0afaa8"/><stop offset=".5" stop-color="#0ff7ff"/><stop offset="1" stop-color="#5100ff"/></linearGradient><linearGradient id="m" x1="723.12" y1="717.37" x2="745.84" y2="681.95" gradientUnits="userSpaceOnUse"><stop offset="0" stop-color="#ff0037"/><stop offset=".39" stop-color="#ff1ce8"/><stop offset="1" stop-color="#ffc800"/></linearGradient><linearGradient id="n" x1="593.77" y1="831.53" x2="619.74" y2="874.05" gradientUnits="userSpaceOnUse"><stop offset="0" stop-color="#ea00ff"/><stop offset="1" stop-color="#ff0015"/></linearGradient></defs><g data-name="Layer 46"><path d="M531.7 209c-67.9 59.6-70.9 20.3-120.8 36.5-19.6 10.9-14.3 30.3-9.7 39.6 11.2 22.8-50.8 8.7-68.6 40.3-10.3 18.3.1 42.2-7.5 61.8s-33.8 34.7-36.8 52.2c-43.4 48.2-154 6.6-119.1 70.4 6.2 11.4 32.9-6.3 39.1 9.1 7 17.5-38.8 29.4-21.3 46.7 17.7 4.9 20.7 39.9 56.9 63.2 13.8 20 2.7 51.4 19.4 69.1 35.8 37.8 46.3-24.8 41.3-34.3 4.3-38.8 43.9-10.6 22.2 38.7-22.8 51.7 11.2 74 36.5 56.6 38.5-10.5-14.1 99.9 89.9 62.9 18.1.7 28 22.3 29.8 40.3 6.5 63 53.6 46.3 59.1 8 15.5-34.3 45.1 48.6 46.9 59.9 11.3 72.6 69.3 42 70.8 17.9 3.3-54.1-3.2-60.1 1.7-68.3 18.5-31.1 71 13.3 90.8-15.5 13.6-19.7-31.2-63.5 7.9-55.4 94 19.4 18.7-100.7 13.8-120.4-8.8-35.5 13.9-105.6 46.9-121.7 18.1-8.8 17.1-35.5 7.4-52.8s-24.9-30.6-31.4-48.9c-13.5-54.4 22.4-102.1-36-133.3a10.2 10.2 0 0 1-3.9-14.4c17.1-26.3 1.3-66.4-31.8-71.4-22.1-3.3-44.3 8.9-66.5 6.3-43.8-5.2-80.2-74.1-127-43.1Z" style="fill:#1c89ad"/><path d="M461.1 384.3c0-40.3 54-40.3 54 0s-54 40.4-54 0Z" style="fill:url(#a)"/><path d="M607.6 363.4c0-86.2 104-86.2 104 0s-104 86.2-104 0Z" style="fill:url(#b)"/><path d="M514.2 630.8c0-125.6 187-125.6 187 0s-187 125.5-187 0Z" style="fill:url(#c)"/><path d="M718.2 497.1c0-31.7 48.2-31.7 48.2 0s-48.2 31.7-48.2 0Z" style="fill:url(#d)"/><path d="M659.6 799.3c0-38.5 58.6-38.5 58.6 0s-58.6 38.5-58.6 0Z" style="fill:url(#e)"/><path d="M419.1 578.9c0-57.4 79.6-57.4 79.6 0s-79.6 57.4-79.6 0Z" style="fill:url(#f)"/><path d="M529.3 469.3c0-24.4 37-24.3 37 0s-37 24.3-37 0Z" style="fill:url(#g)"/><path d="M496.2 313c0-64.6 84-64.6 84 0s-84 64.6-84 0Z" style="fill:url(#h)"/><path d="M357.2 411.3c0-58.1 88.4-58.1 88.4 0s-88.4 58.1-88.4 0Z" style="fill:url(#i)"/><path d="M419.1 740.5c0-68.3 96-68.3 96 0s-96 68.4-96 0Z" style="fill:url(#j)"/><path d="M264.7 609.9c0-27 41.1-27 41.1 0s-41.1 27.1-41.1 0Z" style="fill:url(#k)"/><path d="M247.4 527.3c0-51.7 90-51.7 90 0s-90 51.6-90 0Z" style="fill:url(#l)"/><path d="M722.3 700.3c0-15.4 23.5-15.4 23.5 0s-23.5 15.4-23.5 0Z" style="fill:url(#m)"/><path d="M589.5 852.8c0-22.6 34.5-22.6 34.5 0s-34.5 22.5-34.5 0Z" style="fill:url(#n)"/></g><style>.st40{fill:none;stroke:#000;stroke-width:10;stroke-linecap:round;stroke-linejoin:round;stroke-miterlimit:10}.st98{opacity:.6;enable-background:new}</style><g id="Outline"><path class="st98" d="M793 537c-1 .7-1 2-.5 3 5 10 11 35 25 30 8-2 21-13 18-22.4-.5-1-2-2-3-1.5-26 12-28-11-39-9.4v.3zm-34 274.5c6 5 26 8 25-3-6-7-20.6-12-21.5-26C750 772 744 803 759 811.5zm-219.3 52s1 .5 1 .8c9 13.5-3 36-18 40-34 6-9-6-6-44 .3-5.3 22.3 2.7 23 3.2zM342 731c5 7-4 22-4 33 8 13 29.6-5 33-14.9 2-12-17-21-28-20.2-1 .1-1 1.1-1 2.1zm31-120.2c2 23-8 47-26 61.9-13 10.9-17.5-30.6-8-27.9 6 4.2 28-18.8 34-34zm-157-59.9c-8 6-17 3-25 1-11 5 4 20 13.5 16 5-4 12-9 12-15.7-.5-.2-1.5-.2-.5-1.3zM337 473c-6-10-3-23 0-34 0-1 0-2-.6-2-9-9-23 11-19.8 20.7C318 463 338 475 337 472.8v.2z"/><path class="st98" d="M326 392c-2 29 24 45 7 44-7 2-14 1-15 11-1 11-24 0-24.5-1.3C285 433 317 404.5 326 392zm103-118c-9.9-4-16-16-18-25-4-6-9.9 1-11 6-7 54 29.5 28 29 19zm293 9c16 21 29.5 12 40 20.7 3 4 1 9.6-1 14-3 9-13 9-20 4.1-14.5-5.8-22-22.2-19-38.8z"/><path class="st40" d="M347 729c53.5 5 15 86 59 102 25 9 37-19.8 55-11.9 23 10.1 19.6 40 24 60.7 9.6 46 63 29.6 58-12.8"/><path class="st40" d="M519 861c89-9 47.5 119 114.5 115 39-6 35-47 25-76.5-3-9 0-18.5 7-24.5 24.5-21 59 15.5 84-2.5 15-11 8-33-2-45-12-15 0-32 10-43"/><path class="st40" d="M790 539c53 69.8-64 71 8 194.5 6 14 11 32 11 48.5 0 32-49 47.5-61 16"/><path class="st40" d="M721 287c2 51 64 31 74 88 6 34-11.5 71 7 103 10 18 27 31.5 34 51 8 19-4 47-27 42"/><path class="st40" d="M407 290.6c-16-8-12-29.9-2-41 17-15 40.5-10 61-6 29.8 1 49-29 75-38 50-17 81 55 133 44 23-5 48-11 69 1 25 14 33 55 10 75"/><path class="st40" d="M428 278c-16 26.5-51 17.5-76 28.5-20 10.5-28 33-23 55 10 47-43 51-39 88m25 4.5c1.5-23 35-26 41-5 7 25-13 47 16 72"/><path class="st40" d="M334 476c-20-34-61-31.5-89-9.6-20 8-43-3-64 4-22 7-28 37-5 43.5 6.5 2 23-2 26-1 15 4 11 25-5 30-21 6-10 29 6 29"/><path class="st40" d="M216 554.5c-15 15-14 41 2 55 37 22 41 31 36 69.7-2 31 46 41 53.5 10 2-10.8-4-22 0-33 13-32 44 20 62-44.5"/><path class="st40" d="M327 647.9c25 29.7-.5 47-7 75-10 32.5 34 65 53 25"/><path d="M729 262.5c9 4 16 13 18 22.5m-193-68c12.5 2 24.5 8 34 16m9 9 3 3m-163 10c-5.5-.9-12 .6-15.5 4M362 319.6c-9 2-14 10.7-16 19M339 449c4 1 6 6 6 9.8M308.5 470c-12-6-16-5-22-4M175 492c1-4 5-7 9-7.5m38 89.5c-4 8 0 16 4 19.9m44 78.6c-1 6 1 15 9 18m76-77.5c-3 14-13 14.5-16 16m4.5 119.5c-5-3-9-9-8-15M397 782c-1 14.5 7 28 14 30m90 53.9c-3 12 2 27 14.5 25M636 957c14-3 17-28 11-38m96-60.1c1-7 0-14-4-19m46-49.1c8-6.5 9-25 3-39M786 582c5-8 3-19-3-26m37-12c2-8.5-.6-18-7-24m-56-169c18 6 22 30 21 35" style="opacity:.7882;fill:none;stroke:#fff;stroke-width:10;stroke-linecap:round;stroke-linejoin:round;stroke-miterlimit:10;enable-background:new"/></g><linearGradient id="a15" gradientUnits="userSpaceOnUse" x1="238.934" y1="-556.918" x2="343.954" y2="-476.903" gradientTransform="translate(0 1066)"><stop offset="0" style="stop-color:#ff0040"/><stop offset=".125" style="stop-color:#ec0051"/><stop offset=".379" style="stop-color:#bb007e"/><stop offset=".736" style="stop-color:#6d00c6"/><stop offset="1" style="stop-color:#2f00ff"/></linearGradient><path style="fill:url(#a15)" d="M236 532.1c15 4 17 20 16 34-2 29 36 51 62 29 28-23-9-58 18-81-9-3.5-15 15-32 3.7-7-4-12-20-3-24-39 10-16 37-41 37-7-2.8-15-3.8-20 1.3z"/><path d="M288 499.9c-21.5 33 12 52-12 78.5-4 4-9.8 8-9.7 14 3 16 28 10.5 39 6.9 9-4 16.5-13 18-23.5.5-19.7-4-39-1-59-7 5-19 3.5-25-3-4.3-3.8-5.3-10.3-9.3-13.9z" style="opacity:.1882;fill:#fff;enable-background:new"/><path d="M236 532c15 4 17 20 16 34-2 29 36 51 62 29 28-23-9-58 18-81.3-9-3.5-15 15-32 4-7-4-12-20-3-24-39 10-16 37-41 37-7-2.7-15-3.7-20 1.3z" style="fill:none;stroke:#000;stroke-width:10;stroke-linecap:round;stroke-linejoin:round;stroke-miterlimit:10"/><path d="M254.5 527c20-8 9-29 36-32M233 534c12 7.5 15 22 14 35-2 31 39 49.7 62 29" style="opacity:.6;stroke:#000;enable-background:new;fill:none;stroke-width:10;stroke-linecap:round;stroke-linejoin:round;stroke-miterlimit:10"/><path d="M310 560.8c1 9-1 21-10 25m7-40.8c0 1 0 2 .5 3" style="fill:none;stroke:#fff;stroke-width:10;stroke-linecap:round;stroke-linejoin:round;stroke-miterlimit:10"/><g data-name="Layer 5"><path d="M794 602c-14-24-39.7 29-45 30.5-105 22-109 60.8-136 51.5-56-19-116 8-136-7-50-37-70.7-26.5-112-50-5 20-29.5 22-33 29-1 3 6 13-8 54.9-22 63 38 63 48.5 37 19 102 29 88 71 73s36 57.5 53 85c24 18 54-11 43-37.4 55 17 49 67 59 87.5 15 31 63 24.5 67-10-33-141 58.5-35 82-73 30.6-23.6-11-37-10.5-58.7.9-31 19 12 48-3C854 770 723 694 794 602Z" style="isolation:isolate;opacity:.6"/><path d="M659.8 758c4 4.5 5 11 4 16.5M652.5 744l1.5 3m-132 25a22.4 22.4 0 0 1-6 15m-61-58c0 2 0 5 1 7m130 94c1 3.5 0 7-2 10m139-106.1a11 11 0 0 1 .5 7" style="stroke:#fff;fill:none;stroke-linecap:round;stroke-linejoin:round;stroke-width:10px"/><path d="M444.5 712c-20 18.5-3 69.7 25 42 8-8 15-2 14 7-3.5 53 24 49 42.5 37m26 18c12 7 4 23 9.9 33.5s19.6 9 28 3M624.5 750c-30 48 41.5 75 53 29.9M705 727c-18.5 51 51 46 30.7-4-3.5-6-8-17-5-22-.5 27 36 26 32.5-.8" style="stroke:#000;fill:none;stroke-linecap:round;stroke-linejoin:round;stroke-width:10px;isolation:isolate;opacity:.6"/><path d="M366 622.9c9 21.5 30 22 51 22 15.5 0 27 14 39.6 23 49 34 79-12 147 13.4 43 6 56-19 89.6-35 17-8 39-2 53.5-14s23-48 47-36M448 713c-18 29 7 58 22 33 6-10.5 20.5-1.5 18 9-11 48 34 64 46 30.8 6.5-18-11-30.5-4-42m25 68.7c16 7 2 29.8 14 39.5 10 8 29 0 29.6-12.9 1-19.7-14-32-2-54m32.4-34.6c-28 65 74 62.5 44.5 0-7-14.5-18-31.5-8-47M708 728c-11 48 48 28 18-10.7-3-4-6-9-5-14s9-8 14-4.2 2.5 10 9 14.5c12 7 30-8 8-30-5.5-5.5-13-17-4-23" style="stroke:#000;fill:none;stroke-linecap:round;stroke-linejoin:round;stroke-width:10px"/></g><defs><linearGradient id="zi" x1="523.88" y1="415.21" x2="538.45" y2="667.96" gradientTransform="rotate(3.5 529.279 542.401)" gradientUnits="userSpaceOnUse"><stop offset="0" stop-color="#df0dff"/><stop offset=".5" stop-color="#f00c10"/><stop offset="1" stop-color="#ffe70d"/></linearGradient><linearGradient id="zi-2" x1="667.68" y1="397.6" x2="691.17" y2="649.75" gradientTransform="rotate(3.5 676.165 524.809)" gradientUnits="userSpaceOnUse"><stop offset="0" stop-color="#e70dff"/><stop offset=".23" stop-color="#eb0daf"/><stop offset=".5" stop-color="#f00c58"/><stop offset="1" stop-color="#fffb0d"/></linearGradient><style>.zi-2,.zi-5{stroke:#000;stroke-linecap:round;stroke-linejoin:round;stroke-width:10px;fill:none}.zi-2{opacity:.6}</style></defs><path d="M517.7 466.4c-25.4 24.8-5.8 53 2.8 80.3 5.1 16-4 32.7-3.9 49 .4 55.3 65.6 35 42.6-32.1-10.3-29.7-1.2-46-1.2-73.8 0-21.9-22.9-38.5-40.3-23.4Zm150-17c-25.4 24.9-5.9 53.1 2.8 80.4 5 15.9-4 32.6-3.9 49 .3 55.3 65.6 35 42.5-32.1-10.2-29.7-1.1-46-1.1-73.8 0-21.9-23-38.5-40.3-23.5Z" style="stroke-linecap:round;stroke-linejoin:round;stroke-width:10px;stroke:#000;fill:#fff"/><path class="zi-2" d="M505.1 438.3c-68.5 24.5-44.9 251.5 44.4 215.2M651.6 421c-64 34.3-44 238.9 42.6 216.9"/><path class="zi-2" d="M516.2 461.9c-36.7 30.1 7.4 72.3-.2 107.4-4.5 21-8.1 65.8 24.5 58.3m124.8-182.9c-36.6 30.2 7.4 72.4-.1 107.5-4.6 21-8.1 65.7 24.5 58.3"/><path d="M528 464c-26 15.6 4.9 63.3 27.2 38.4-4.6 14.8-.3 33.5-1.3 48.8-4 8.4-22.3 10.4-30.5 6-5.3-32.1-42.8-74.7 4.6-93.2Zm149.9-16.9c-26 15.6 5 63.3 27.2 38.4-4.5 14.8-.3 33.5-1.3 48.7-3.9 8.5-22.3 10.5-30.5 6.1-5.3-32.1-42.8-74.7 4.6-93.2Z"/><ellipse cx="531.3" cy="544.4" rx="60.1" ry="112" transform="rotate(-3.5 528.909 541.97)" style="fill:url(#zi);opacity:.74"/><ellipse cx="679.8" cy="527.5" rx="60.1" ry="112" transform="rotate(-3.5 676.845 525.196)" style="fill:url(#zi-2);opacity:.74"/><ellipse class="zi-5" cx="531.3" cy="544.4" rx="60.1" ry="112" transform="rotate(-3.5 528.909 541.97)"/><ellipse class="zi-5" cx="679.8" cy="527.5" rx="60.1" ry="112" transform="rotate(-3.5 676.845 525.196)"/><path d="M533.6 449.9a123.1 123.1 0 0 1 34.4 69.3m2.3 16.6a84.3 84.3 0 0 1 .6 10.1m113.2-111c18.2 16.8 30.5 44.1 35 79.3m3.1 13.8a36.8 36.8 0 0 1 .1 11" style="stroke:#fff;fill:none;stroke-linecap:round;stroke-linejoin:round;stroke-width:10px"/><defs><linearGradient id="zbk" x1="236.05" y1="322.22" x2="786.08" y2="195.7" gradientUnits="userSpaceOnUse"><stop offset="0" stop-color="#ff0080"/><stop offset="1" stop-color="#6a00ff"/></linearGradient><linearGradient id="zbk-2" x1="253.46" y1="373.96" x2="815.73" y2="373.96" gradientUnits="userSpaceOnUse"><stop offset="0" stop-color="#00ff84"/><stop offset="1" stop-color="#004cff"/></linearGradient><style>.zbk-3,.zbk-4{fill:none;stroke-linecap:round;stroke-linejoin:round;stroke-width:10px;stroke:#000}.zbk-4{opacity:.6}</style></defs><path d="M277.6 395.2c-58-233.3 425.8-349.7 508.5-97.5-104.6-28.1-415 39-508.5 97.5Z" style="fill:url(#zbk)"/><path d="M294.7 427.7c0-.1-6.5 12.2-5.1 22.2a84.4 84.4 0 0 0-30.7 6.1C191.5 337.6 774 270.5 789.1 298.1c34.5 13.6 34.5 54.4 5.6 75.2-1-3.6-1.3-19.2-25.5-36.9-160 3.8-324.4 35.6-474.5 91.3Z" style="fill:url(#zbk-2)"/><path class="zbk-3" d="M791.1 336.4A1541.8 1541.8 0 0 0 277 434.2"/><path class="zbk-3" d="M770.8 337.6c22.6 16.5 22.9 32.1 23.9 35.7 28.9-20.8 28.9-61.6-5.6-75.2-70.6-27.9-384.2 32.1-495.6 88.6-26.4 13.4-60 43.7-34.6 69.3a84.4 84.4 0 0 1 30.7-6.1c-1.4-10 5.1-22.3 5.1-22.2"/><path class="zbk-3" d="M319.6 376.1c2.8 11.7 6 23.4 9.5 35m64.1-56.7 8.2 35.9m80.9-60.2 8.8 39.9m83-60.2a432.5 432.5 0 0 0 5.3 43.8m90.7-57.4 3.1 44.2m68.5-47.6 2.4 42.3"/><path class="zbk-3" d="M788 297c-84.6-251.5-568.4-135.1-510.4 98.2"/><path class="zbk-4" d="M778.4 342.8a1506.5 1506.5 0 0 0-484.7 93.1m-17.5-1.2a41.2 41.2 0 0 0 13.1 1.4m502.3-98.9a30.6 30.6 0 0 1-10.8 6.5m1-56.7c-169.4-9.5-349.2 29.6-503.4 100.4m34.7-6.3q5.4 16.3 10.2 33"/><path class="zbk-4" d="M385.8 355.6c3.3 11.7 6.2 23.5 8.9 35.4m80.4-58.6 7.9 36.3m83.3-55.5c1.9 12.4 3.7 24.9 5.5 37.4m92.7-52.2c.7 13.6 1.6 27.2 2.7 40.7m67.8-43.8 2 38.4"/><path d="M766.9 307a51.2 51.2 0 0 1 22.2 7m-68.5-10.2c-9.3.5-18.6 1.2-27.9 2m-52.1 4.9-31.7 4.9m-63.2 11.6c-10.3 1.6-20.5 3.4-30.6 5.7m-58.3 13.9-28.7 7.5m-58.7 16.4c-7 2.3-14 4.5-21.1 6.5m-45 18a133.4 133.4 0 0 0-21.9 13.6m370.5-222.2a157.9 157.9 0 0 1 57.7 32.5m10.7 10.2 6.1 6m-347-14a187.2 187.2 0 0 0-65.7 60m-7.4 15.7a27.7 27.7 0 0 1-2.8 5.4" style="stroke:#fff;fill:none;stroke-linecap:round;stroke-linejoin:round;stroke-width:10px"/><style>.st231{fill:none;stroke:#000;stroke-width:10;stroke-linecap:round;stroke-linejoin:round;stroke-miterlimit:10}</style><g id="Layer_66"><path d="M902 539.9c23 45 86 12 84-31.1-2-75-92-102-123-159.9-15-28-8-66-29.9-89.7-36-39.5-98-30-114-96.1l13 27.7c44 20.8 55-64-12-77.4-54-10.8-104 33-158 26.3-30.6-4-57-24-87-30-136-25.5-114 150-221 195.8-17 7-35 15-46 30.6-15 21.5 3 53 30.5 53.9l30.8-43.9c-28 75-109.8 44.5-130 140.4-17 79.8 40 100.8 32 152.7-4 26-24 47-27 73-3 28 19 47.5 46 41.5 15-3 22-16 26-25L192 686c58 57-22 110 67 140.7 43 19 59.6 64 67 107.3 10.6 62 114 49 73-12.3-8-12-16-28 3-30.5 28.5-2 38 33.5 29.6 56.1-3 10.6-8 20.8-9 31.8-5 68 98 53 55-10.5-17-25.5 16-45 37-17.5 56 73 121 87 187 17.7 9-9.9 21.5-2 32 3.8 65 33 50.8-95.5 86-129.7l-22 50.5c11 37 60.8 29 75-2.4 14-30.9.9-68 12-100.3 11.5-35 52-57 56-93 9-82.5-82-100.9-17-213" style="opacity:.4314;fill:#00ffea;enable-background:new"/><path class="st231" d="M269 346c-28 75-109.8 44.5-130 140.4-17 79.8 40 100.8 32 152.7-4 26-24 47-27 73-3 28 19 47.5 46 41.5 15-3 19-12 23.5-21.1"/><path class="st231" d="M192 686c58 57-22 110 67 140.7 43 19 59.6 64 67 107.3 10.6 62 114 49 73-12.3-8-12-16-28 3-30.5 28.5-2 38 33.5 29.6 56.1-3 10.6-8 20.8-9 31.8-5 68 98 53 55-10.5-17-25.5 16-45 37-17.5 56 73 121 87 187 17.7 9-9.9 21.5-2 32 3.8 65 33 50.8-95.5 86-129.7"/><path class="st231" d="M924 484.5c-64 112 26 130.7 17 213-4 36-44 58.5-56 93-10.7 32 2 69-12 100.3-14 32-64 39-75 2.4"/><path class="st231" d="M719.5 163.1c16.5 66 78 57 114 96.1 21.5 23 15 62 29.9 89.7 31 58 120.7 85 123 159.9 1 43-61 76-84 31.1"/><path class="st231" d="M732 190.7c44 20.8 55-64-12-77.4-54-10.8-104 33-158 26.3-30.6-4-57-24-87-30C339 84 361 259.8 254 305.4c-17 7-35 15-46 30.6-15 21.5-3 54.5 25 55.4"/><path d="M824 843c-9 25-4 58 18 73.9-67 5.1-38-57.9-18-73.9zm104-359.1c-6 25.5 3 57 25.5 72.3-19 3-30 3-44-11.5-16-16.7 6.5-46.7 18.5-60.8zM723 160.1c7 14.5 22.5 25 39 25.8-18 14.1-49-2.9-39-25.8zM188 686.8c6 20.8 9 50.7-9 65.8 16.5 0 37-9 35-28.1-2-16.5-7-33.5-26-37.7zm79-344.3C252 360 228 379 204 369c11 20 32 29 49 8.8 10-9.8 16.7-19.8 14-35.3z" style="opacity:.6;enable-background:new"/><path d="M957 470.9c7 10.5 14 23 12 36.1m-4 16c-1 3-3 6-5 8m-52 107.3c7 10 12 23 13 35m1 14c0 3-.7 6-1.5 8.5M863 841.9c2 12 .9 24-3 34.9m-9 13.2c-1.5 2-3 4-5.5 4.9m-74 29.9c-.7 10.9-4 22-10.5 30.7m-203 14.2c12 14 29 23 47 26.3m17-.3c5 .5 10 0 14.5-2.3m-195.8-11.5c-.6 9 3.5 18 10.5 23.5m-9.2-37.3c.5-2 1-4 2-5.3m-99-34.3c3 13 14 24 26.5 27.6M339 908.7c-.7-2-1-3-2-5M230.5 779.8c2 11 9 22 19.9 26.3m12.6 5.8c1 .7 2.5 1 4 1.7M164 696c-5 8-5.5 18-2 26m7 11.5c1 1.5 3 3 5 3.6m26-307.8c-16 8-29 23-35 40.4m-5 15.8c-2 3-2.5 6-3 9.1m82-167.2c-7 5-15 10-17.5 18.4m-3.5 15.9v4.9m199-235.3c-14 8-25 20-31 34.5m51-40.2c5-1 10.6-1 16 .1m280 9.3c9 6 14.5 16 16 26.3m-31.5-33c-2-.9-4-1-6-1.5m80.5 123c9.9 4 19 9.8 26 17.8m9 13.1 3 6" style="stroke:#fff;fill:none;stroke-width:10;stroke-linecap:round;stroke-linejoin:round;stroke-miterlimit:10"/></g><circle cx="550" cy="550" r="500" style="fill:none;stroke:#000;stroke-width:10;stroke-linecap:round;stroke-linejoin:round;stroke-miterlimit:10"/></svg>