<svg version="1.1" id="Layer_1" xmlns="http://www.w3.org/2000/svg" x="0" y="0" viewBox="0 0 1100 1100" style="enable-background:new 0 0 1100 1100" xml:space="preserve" xmlns:xlink="http://www.w3.org/1999/xlink"><path d="M50 550C50 274 274 50 550 50s500 224 500 500S50 826 50 550z" style="fill:#0090ff"/><path d="M1050 550c0 276-224 500-500 500S50 826 50 550s1000-276 1000 0z" style="fill:#06f"/><defs><linearGradient id="a" x1="440.97" y1="180.1" x2="582.97" y2="998.27" gradientUnits="userSpaceOnUse"><stop offset="0" stop-color="#fbff03"/><stop offset=".25" stop-color="#ff751a"/><stop offset=".39" stop-color="#ff298d"/><stop offset=".54" stop-color="#e100ff"/><stop offset=".75" stop-color="#4f2bff"/><stop offset="1" stop-color="#03eeff"/></linearGradient></defs><path d="M531.7 209c-67.9 59.6-70.9 20.3-120.8 36.5-19.6 10.9-14.3 30.3-9.7 39.6 11.2 22.8-50.8 8.7-68.6 40.3-10.3 18.3.1 42.2-7.5 61.8s-33.8 34.7-36.8 52.2c-43.4 48.2-154 6.6-119.1 70.4 6.2 11.4 32.9-6.3 39.1 9.1 7 17.5-38.8 29.4-21.3 46.7 17.7 4.9 20.7 39.9 56.9 63.2 13.8 20 2.7 51.4 19.4 69.1 35.8 37.8 46.3-24.8 41.3-34.3 4.3-38.8 43.9-10.6 22.2 38.7-22.8 51.7 11.2 74 36.5 56.6 24-8.9 13.3 38.7 23.3 50.9 19.5 37.2 54.9 11.6 66.6 12 18.1.7 28 22.3 29.8 40.3 6.5 63 53.6 46.3 59.1 8 15.5-34.3 45.1 48.6 46.9 59.9 11.3 72.6 69.3 42 70.8 17.9 3.3-54.1-3.2-60.1 1.7-68.3 18.5-31.1 71 13.3 90.8-15.5 13.6-19.7-31.2-63.5 7.9-55.4 94 19.4 18.7-100.7 13.8-120.4-8.8-35.5 13.9-105.6 46.9-121.7 18.1-8.8 17.1-35.5 7.4-52.8s-24.9-30.6-31.4-48.9c-13.5-54.4 22.4-102.1-36-133.3a10.2 10.2 0 0 1-3.9-14.4c17.1-26.3 1.3-66.4-31.8-71.4-22.1-3.3-44.3 8.9-66.5 6.3-43.8-5.2-80.2-74.1-127-43.1Z" style="fill:url(#a)" data-name="Layer 57"/><style>.st40{fill:none;stroke:#000;stroke-width:10;stroke-linecap:round;stroke-linejoin:round;stroke-miterlimit:10}.st98{opacity:.6;enable-background:new}</style><g id="Outline"><path class="st98" d="M793 537c-1 .7-1 2-.5 3 5 10 11 35 25 30 8-2 21-13 18-22.4-.5-1-2-2-3-1.5-26 12-28-11-39-9.4v.3zm-34 274.5c6 5 26 8 25-3-6-7-20.6-12-21.5-26C750 772 744 803 759 811.5zm-219.3 52s1 .5 1 .8c9 13.5-3 36-18 40-34 6-9-6-6-44 .3-5.3 22.3 2.7 23 3.2zM342 731c5 7-4 22-4 33 8 13 29.6-5 33-14.9 2-12-17-21-28-20.2-1 .1-1 1.1-1 2.1zm31-120.2c2 23-8 47-26 61.9-13 10.9-17.5-30.6-8-27.9 6 4.2 28-18.8 34-34zm-157-59.9c-8 6-17 3-25 1-11 5 4 20 13.5 16 5-4 12-9 12-15.7-.5-.2-1.5-.2-.5-1.3zM337 473c-6-10-3-23 0-34 0-1 0-2-.6-2-9-9-23 11-19.8 20.7C318 463 338 475 337 472.8v.2z"/><path class="st98" d="M326 392c-2 29 24 45 7 44-7 2-14 1-15 11-1 11-24 0-24.5-1.3C285 433 317 404.5 326 392zm103-118c-9.9-4-16-16-18-25-4-6-9.9 1-11 6-7 54 29.5 28 29 19zm293 9c16 21 29.5 12 40 20.7 3 4 1 9.6-1 14-3 9-13 9-20 4.1-14.5-5.8-22-22.2-19-38.8z"/><path class="st40" d="M347 729c53.5 5 15 86 59 102 25 9 37-19.8 55-11.9 23 10.1 19.6 40 24 60.7 9.6 46 63 29.6 58-12.8"/><path class="st40" d="M519 861c89-9 47.5 119 114.5 115 39-6 35-47 25-76.5-3-9 0-18.5 7-24.5 24.5-21 59 15.5 84-2.5 15-11 8-33-2-45-12-15 0-32 10-43"/><path class="st40" d="M790 539c53 69.8-64 71 8 194.5 6 14 11 32 11 48.5 0 32-49 47.5-61 16"/><path class="st40" d="M721 287c2 51 64 31 74 88 6 34-11.5 71 7 103 10 18 27 31.5 34 51 8 19-4 47-27 42"/><path class="st40" d="M407 290.6c-16-8-12-29.9-2-41 17-15 40.5-10 61-6 29.8 1 49-29 75-38 50-17 81 55 133 44 23-5 48-11 69 1 25 14 33 55 10 75"/><path class="st40" d="M428 278c-16 26.5-51 17.5-76 28.5-20 10.5-28 33-23 55 10 47-43 51-39 88m25 4.5c1.5-23 35-26 41-5 7 25-13 47 16 72"/><path class="st40" d="M334 476c-20-34-61-31.5-89-9.6-20 8-43-3-64 4-22 7-28 37-5 43.5 6.5 2 23-2 26-1 15 4 11 25-5 30-21 6-10 29 6 29"/><path class="st40" d="M216 554.5c-15 15-14 41 2 55 37 22 41 31 36 69.7-2 31 46 41 53.5 10 2-10.8-4-22 0-33 13-32 44 20 62-44.5"/><path class="st40" d="M327 647.9c25 29.7-.5 47-7 75-10 32.5 34 65 53 25"/><path d="M729 262.5c9 4 16 13 18 22.5m-193-68c12.5 2 24.5 8 34 16m9 9 3 3m-163 10c-5.5-.9-12 .6-15.5 4M362 319.6c-9 2-14 10.7-16 19M339 449c4 1 6 6 6 9.8M308.5 470c-12-6-16-5-22-4M175 492c1-4 5-7 9-7.5m38 89.5c-4 8 0 16 4 19.9m44 78.6c-1 6 1 15 9 18m76-77.5c-3 14-13 14.5-16 16m4.5 119.5c-5-3-9-9-8-15M397 782c-1 14.5 7 28 14 30m90 53.9c-3 12 2 27 14.5 25M636 957c14-3 17-28 11-38m96-60.1c1-7 0-14-4-19m46-49.1c8-6.5 9-25 3-39M786 582c5-8 3-19-3-26m37-12c2-8.5-.6-18-7-24m-56-169c18 6 22 30 21 35" style="opacity:.7882;fill:none;stroke:#fff;stroke-width:10;stroke-linecap:round;stroke-linejoin:round;stroke-miterlimit:10;enable-background:new"/></g><path d="M742 680.8c-16 15-63 0-116 44 3 19 39.5-11 76.5 27.7 7.1-7.5 38.5-55.5 39.5-71.7z" style="stroke:#000;stroke-width:10;stroke-linecap:round;stroke-linejoin:round;stroke-miterlimit:10"/><path d="M751 654c-12 44.5-52 26-68 30.9-22 6-36 32-58.5 34-21 2-43-23-61-12.2-69.7 42-49.8-29.5-88-19.6-52 13.5-25-25-62-24.9 37-1-3 50.5 15 79 19 29 51 13 80.5 40.2 30.1 28 41 77 92 42.9 24-16 43-2 68-6 39-6 25-46 43-67.9 47-57 32-90 34-79.4 6 38-42.5 89-42.5 89-14-27-78-30-70.7-15 2.5 5 8 33 8 33-5.5-26-14-46-32-61.8 29 12 48-24 73-31 28-5 52 8 66.5-23" style="fill:#ff1768;stroke:#000;stroke-width:10;stroke-linecap:round;stroke-linejoin:round;stroke-miterlimit:10"/><path d="M433 680c-17 41 20 32 30 33 16.5 2 26.5 19.5 41.5 26.9 37 18 64-42 123 9.2 0-10.8-8-23-16-28.9-78-28-75 39.6-114-12.5C472 674 454 722 433 680zm198 67c8.5 1.5 5 16 8 23 5-19 35-31 24-28.5-10 3.5-22-7.5-32 5.5z" style="opacity:.6;stroke:#000;enable-background:new;stroke-width:10;stroke-linecap:round;stroke-linejoin:round;stroke-miterlimit:10"/><path d="M598 725.5c9 8 15 19 18 30m6 16.5c0 1 0 2 1 3.5m44-21.5c7 2 13 7 17 13" style="fill:none;stroke:#fff;stroke-width:10;stroke-linecap:round;stroke-linejoin:round;stroke-miterlimit:10"/><path d="M417 666c10 9 6 24 3 36-14 65 34 60 77 80 28 17 41 66 79 62.5 16-1.5 29-16 44.5-19 39-4 66.5 17 83-34 5-15 8-32 17-45 17-24 36-48.5 29.7-79.6" style="opacity:.6;fill:none;stroke:#000;stroke-width:10;stroke-linecap:round;stroke-linejoin:round;stroke-miterlimit:10;enable-background:new"/><defs><linearGradient id="zi" x1="523.88" y1="415.21" x2="538.45" y2="667.96" gradientTransform="rotate(3.5 529.279 542.401)" gradientUnits="userSpaceOnUse"><stop offset="0" stop-color="#df0dff"/><stop offset=".5" stop-color="#f00c10"/><stop offset="1" stop-color="#ffe70d"/></linearGradient><linearGradient id="zi-2" x1="667.68" y1="397.6" x2="691.17" y2="649.75" gradientTransform="rotate(3.5 676.165 524.809)" gradientUnits="userSpaceOnUse"><stop offset="0" stop-color="#e70dff"/><stop offset=".23" stop-color="#eb0daf"/><stop offset=".5" stop-color="#f00c58"/><stop offset="1" stop-color="#fffb0d"/></linearGradient><style>.zi-2,.zi-5{stroke:#000;stroke-linecap:round;stroke-linejoin:round;stroke-width:10px;fill:none}.zi-2{opacity:.6}</style></defs><path d="M517.7 466.4c-25.4 24.8-5.8 53 2.8 80.3 5.1 16-4 32.7-3.9 49 .4 55.3 65.6 35 42.6-32.1-10.3-29.7-1.2-46-1.2-73.8 0-21.9-22.9-38.5-40.3-23.4Zm150-17c-25.4 24.9-5.9 53.1 2.8 80.4 5 15.9-4 32.6-3.9 49 .3 55.3 65.6 35 42.5-32.1-10.2-29.7-1.1-46-1.1-73.8 0-21.9-23-38.5-40.3-23.5Z" style="stroke-linecap:round;stroke-linejoin:round;stroke-width:10px;stroke:#000;fill:#fff"/><path class="zi-2" d="M505.1 438.3c-68.5 24.5-44.9 251.5 44.4 215.2M651.6 421c-64 34.3-44 238.9 42.6 216.9"/><path class="zi-2" d="M516.2 461.9c-36.7 30.1 7.4 72.3-.2 107.4-4.5 21-8.1 65.8 24.5 58.3m124.8-182.9c-36.6 30.2 7.4 72.4-.1 107.5-4.6 21-8.1 65.7 24.5 58.3"/><path d="M528 464c-26 15.6 4.9 63.3 27.2 38.4-4.6 14.8-.3 33.5-1.3 48.8-4 8.4-22.3 10.4-30.5 6-5.3-32.1-42.8-74.7 4.6-93.2Zm149.9-16.9c-26 15.6 5 63.3 27.2 38.4-4.5 14.8-.3 33.5-1.3 48.7-3.9 8.5-22.3 10.5-30.5 6.1-5.3-32.1-42.8-74.7 4.6-93.2Z"/><ellipse cx="531.3" cy="544.4" rx="60.1" ry="112" transform="rotate(-3.5 528.909 541.97)" style="fill:url(#zi);opacity:.74"/><ellipse cx="679.8" cy="527.5" rx="60.1" ry="112" transform="rotate(-3.5 676.845 525.196)" style="fill:url(#zi-2);opacity:.74"/><ellipse class="zi-5" cx="531.3" cy="544.4" rx="60.1" ry="112" transform="rotate(-3.5 528.909 541.97)"/><ellipse class="zi-5" cx="679.8" cy="527.5" rx="60.1" ry="112" transform="rotate(-3.5 676.845 525.196)"/><path d="M533.6 449.9a123.1 123.1 0 0 1 34.4 69.3m2.3 16.6a84.3 84.3 0 0 1 .6 10.1m113.2-111c18.2 16.8 30.5 44.1 35 79.3m3.1 13.8a36.8 36.8 0 0 1 .1 11" style="stroke:#fff;fill:none;stroke-linecap:round;stroke-linejoin:round;stroke-width:10px"/><defs><style>.zbi-3{fill:none;stroke-linecap:round;stroke-linejoin:round;stroke-width:10px;stroke:#000}</style></defs><path d="M346.3 398.4c133.7 133.1 174-36.5 487-17 12.1.8 16-8.5 10.7-17.5-12.5-21.3-43.6-24.9-57.7-46.5-149.5-6.2-302.5 14.1-440 81Z" style="fill:#e600ff"/><path d="M293.6 425.4c147.8-84.7 322.8-116.1 494.1-106.7 18.8-290.3-568.4-184.4-494.1 106.7Z" style="fill:#bf00ff"/><path class="zbi-3" d="M293.6 425.4c147.8-84.7 322.8-116.1 494.1-106.7 18.8-290.3-568.4-184.4-494.1 106.7Z"/><path class="zbi-3" d="M346.3 398.4c133.7 133.1 174-36.5 487-17 12.1.8 16-8.5 10.7-17.5-12.5-21.3-43.6-24.9-57.3-45.5"/><path d="M348.3 404.5a417 417 0 0 0-53.9 28m134.6 15c35.3 11.7 79.6-5 113-16.8 81.2-28.8 166.2-48.7 252.5-45.7" style="opacity:.6;stroke:#000;fill:none;stroke-linecap:round;stroke-linejoin:round;stroke-width:10px"/><path d="M811.8 353.4a39.6 39.6 0 0 1 14.9 12.3m-444.7 47a115.1 115.1 0 0 0 40.9 19.4m12.9 1.3h4.8m254.7-244.3a113 113 0 0 1 58 56.7m6.2 15.7 3.2 8m-386.4-33.8c-29.2 23.4-53.5 48.7-62.1 83.6" style="stroke:#fff;fill:none;stroke-linecap:round;stroke-linejoin:round;stroke-width:10px"/><circle cx="550" cy="550" r="500" style="fill:none;stroke:#000;stroke-width:10;stroke-linecap:round;stroke-linejoin:round;stroke-miterlimit:10"/></svg>