<svg version="1.1" id="Layer_1" xmlns="http://www.w3.org/2000/svg" x="0" y="0" viewBox="0 0 1100 1100" style="enable-background:new 0 0 1100 1100" xml:space="preserve" xmlns:xlink="http://www.w3.org/1999/xlink"><style type="text/css">.st300{fill:#00DE72;stroke:#000000;stroke-width:10;stroke-linecap:round;stroke-linejoin:round;stroke-miterlimit:10;}</style><circle class="st300" cx="550" cy="553.7" r="500"/><style>.st75{fill:none;stroke-width:10;stroke-linecap:round;stroke-linejoin:round;stroke-miterlimit:10;stroke:#005e0f}</style><g id="brain"><path d="M533 208.1c-68 59.6-71 20-121 36.5-19.6 10.9-14 30-9.7 39.6 11 23-51 9-69 40.3-10 18 .1 42-7.5 61.8-9 19.6-34 35-37 52.2-43 48-154 7-119 70.4 6 11 33-6 39 9.1 7 17.5-39 29-21 46.7 18 5 21 39.9 57 63.2 14 20 3 51 19 69.1 35.8 38 46-25 41-34.3 4-39 44-11 22 38.7-23 52 11 74 36.5 56.6 38.5-10.5-14 99.9 89.9 62.9 18 1 28 22 29.8 40.3 6.5 63 54 46 59 8 15.5-34 45 49 47 59.9 11 73 69 42 71 17.9 3-54-3-60.1 2-68.3 18.5-31 71 13 90.8-15.5 14-19.7-31-63.5 8-55.4 94 19 19-101 14-120.4-9-35.5 14-106 47-121.7 18-9 17-35.5 7-52.8-9.5-17-25-30.6-31-48.9-13.5-54 22-102-36-133.3-5-3-7-9.5-4-14.4 17-26 1-66-32-71.4-22-3-44 9-66.5 6.3C616 246 579.9 177 533 208.1z" style="fill:#a1ffb0"/><path d="M697 378.3c13-5 26 9.9 19.9 22.3-8 11.5-21.5 25.5-13 40.2 18 19 52 27 40 60.9-13 32-46 15-70 22.6-14 7-27 22-44 14-12 13-30 22-46.5 11.8-16 37-37-4-75.5 25.8-16 12-4.5-5-44-16.9-22-7-25-35-10.5-50.3-19-1-39.9-26-25-43 36-6 22-36 36-50.2 16-17 61.5-6 96-25.5 8-4 51.5 5 65.5 2.8C654 386 664 346 697 378.3z" style="fill:#a15e96"/><path d="M442 474.8c2-4 2-9.6 0-14m23 75.7c2-8 0-17-6.5-23m73.5-56.1c-36 22-4 81.5-45 107m76-56.4c2 18.5 27.5 22 31 40m-54-122.4c19-1 28 20 28 36.3 0 11 8 19 17 24.2 23 11 47 16 49 48m18-58.5c14 15.8 42 19 48 42m-22.5-127.7c4-5 7-9.6 9-15M602 465.5c22 3.5 30.9-23 48.5-31M583 403c2-3 3-8 2-11.5m60-6.4c14 14 8 38 19.5 52.1 8 10.1 24 14 27 28.5" style="stroke:#5d5e5e;fill:none;stroke-width:10;stroke-linecap:round;stroke-linejoin:round;stroke-miterlimit:10"/><path d="M716 468.5c6 3 11 8 12 15m0 13.5-1 3m-245-78.6c-9 5-15 14-15.5 24M496 419h3m100 95.2c7 3 12 9 14 16M588 509l-2-1.5m45-101.6c2 3 3 7 4 10.9m-74 122.3c4 2 6.5 5 7.5 9M706 392.2c0 3-1 7-4 9" style="fill:none;stroke:#fff;stroke-width:10;stroke-linecap:round;stroke-linejoin:round;stroke-miterlimit:10"/><path class="st75" d="M694 378.2c-29-35-47 15-71.5 16.1-9 0-18-6-27-7-7-1-15 1-21 6"/><path class="st75" d="M581 402.8c-4-11-18-18-29.5-13.8-7 2.5-12 8-19 12-13 9-29 3-44 2.5-59.9 12-23 55-45 72"/><path class="st75" d="M451 462.7c-13-14-32.5 8-29 22.7 7 28 29.7 16 46 26.6 8 6 8 19 0 25"/><path class="st75" d="M458 509.9c-30.1 18-6 62 25 46.7 41-25-2-87 47-100.9"/><path class="st75" d="M478 559.6c4 11 16.5 21 27 16.5 25.5-11 10-19.9 56-9.5 14 3 29.7-16 19-28.6-8-9-25-16-19-30.6"/><path class="st75" d="M584 549.2c30.1 20 84-29.5-10-61.7-10.7-5-13-17-12-27.6 0-14-9-34-25-32.5"/><path class="st75" d="M628 535.6c26 18 37-15 61-14.8 21 1 42 9.6 53-14.2 21-57-52-48-40-84.1 4-12 20-21 16-34.4-8-16-29-7-39 3"/><path class="st75" d="M638 390.4c18.5 13 6.5 44 26 55.9 11 4 21.5 9 27 20"/><path class="st75" d="M651 428.4c-22 1-27 32-48 34m89 56.6c-3-23-35-22-43-42"/></g><style>.st40{fill:none;stroke:#000;stroke-width:10;stroke-linecap:round;stroke-linejoin:round;stroke-miterlimit:10}.st98{opacity:.6;enable-background:new}</style><g id="Outline"><path class="st98" d="M793 537c-1 .7-1 2-.5 3 5 10 11 35 25 30 8-2 21-13 18-22.4-.5-1-2-2-3-1.5-26 12-28-11-39-9.4v.3zm-34 274.5c6 5 26 8 25-3-6-7-20.6-12-21.5-26C750 772 744 803 759 811.5zm-219.3 52s1 .5 1 .8c9 13.5-3 36-18 40-34 6-9-6-6-44 .3-5.3 22.3 2.7 23 3.2zM342 731c5 7-4 22-4 33 8 13 29.6-5 33-14.9 2-12-17-21-28-20.2-1 .1-1 1.1-1 2.1zm31-120.2c2 23-8 47-26 61.9-13 10.9-17.5-30.6-8-27.9 6 4.2 28-18.8 34-34zm-157-59.9c-8 6-17 3-25 1-11 5 4 20 13.5 16 5-4 12-9 12-15.7-.5-.2-1.5-.2-.5-1.3zM337 473c-6-10-3-23 0-34 0-1 0-2-.6-2-9-9-23 11-19.8 20.7C318 463 338 475 337 472.8v.2z"/><path class="st98" d="M326 392c-2 29 24 45 7 44-7 2-14 1-15 11-1 11-24 0-24.5-1.3C285 433 317 404.5 326 392zm103-118c-9.9-4-16-16-18-25-4-6-9.9 1-11 6-7 54 29.5 28 29 19zm293 9c16 21 29.5 12 40 20.7 3 4 1 9.6-1 14-3 9-13 9-20 4.1-14.5-5.8-22-22.2-19-38.8z"/><path class="st40" d="M347 729c53.5 5 15 86 59 102 25 9 37-19.8 55-11.9 23 10.1 19.6 40 24 60.7 9.6 46 63 29.6 58-12.8"/><path class="st40" d="M519 861c89-9 47.5 119 114.5 115 39-6 35-47 25-76.5-3-9 0-18.5 7-24.5 24.5-21 59 15.5 84-2.5 15-11 8-33-2-45-12-15 0-32 10-43"/><path class="st40" d="M790 539c53 69.8-64 71 8 194.5 6 14 11 32 11 48.5 0 32-49 47.5-61 16"/><path class="st40" d="M721 287c2 51 64 31 74 88 6 34-11.5 71 7 103 10 18 27 31.5 34 51 8 19-4 47-27 42"/><path class="st40" d="M407 290.6c-16-8-12-29.9-2-41 17-15 40.5-10 61-6 29.8 1 49-29 75-38 50-17 81 55 133 44 23-5 48-11 69 1 25 14 33 55 10 75"/><path class="st40" d="M428 278c-16 26.5-51 17.5-76 28.5-20 10.5-28 33-23 55 10 47-43 51-39 88m25 4.5c1.5-23 35-26 41-5 7 25-13 47 16 72"/><path class="st40" d="M334 476c-20-34-61-31.5-89-9.6-20 8-43-3-64 4-22 7-28 37-5 43.5 6.5 2 23-2 26-1 15 4 11 25-5 30-21 6-10 29 6 29"/><path class="st40" d="M216 554.5c-15 15-14 41 2 55 37 22 41 31 36 69.7-2 31 46 41 53.5 10 2-10.8-4-22 0-33 13-32 44 20 62-44.5"/><path class="st40" d="M327 647.9c25 29.7-.5 47-7 75-10 32.5 34 65 53 25"/><path d="M729 262.5c9 4 16 13 18 22.5m-193-68c12.5 2 24.5 8 34 16m9 9 3 3m-163 10c-5.5-.9-12 .6-15.5 4M362 319.6c-9 2-14 10.7-16 19M339 449c4 1 6 6 6 9.8M308.5 470c-12-6-16-5-22-4M175 492c1-4 5-7 9-7.5m38 89.5c-4 8 0 16 4 19.9m44 78.6c-1 6 1 15 9 18m76-77.5c-3 14-13 14.5-16 16m4.5 119.5c-5-3-9-9-8-15M397 782c-1 14.5 7 28 14 30m90 53.9c-3 12 2 27 14.5 25M636 957c14-3 17-28 11-38m96-60.1c1-7 0-14-4-19m46-49.1c8-6.5 9-25 3-39M786 582c5-8 3-19-3-26m37-12c2-8.5-.6-18-7-24m-56-169c18 6 22 30 21 35" style="opacity:.7882;fill:none;stroke:#fff;stroke-width:10;stroke-linecap:round;stroke-linejoin:round;stroke-miterlimit:10;enable-background:new"/></g><radialGradient id="a11" cx="288.494" cy="554.914" r="39.332" gradientTransform="matrix(1 0 0 1.0187 0 -10.236)" gradientUnits="userSpaceOnUse"><stop offset="0" style="stop-color:#f01"/><stop offset="1" style="stop-color:#fe0"/></radialGradient><path style="fill:url(#a11);stroke:#000;stroke-width:10;stroke-linecap:round;stroke-linejoin:round;stroke-miterlimit:10" d="M273 536.9c-28-45 82-54 9 29.2-42 48 48 58 20 7.9-3-6-8-11-13-16.2-4-4.8-8.9-9.8-16-20.9z"/><path d="M269.9 512.1c-17 19.7 16 41 9 48.3-25.5 26-7 53 10 47" style="opacity:.6;fill:none;stroke:#000;stroke-width:10;stroke-linecap:round;stroke-linejoin:round;stroke-miterlimit:10"/><path d="M294.5 517.1c1 2 1 5 0 8M292 577c2 4 5 8 5 12" style="opacity:.8902;fill:none;stroke:#fff;stroke-width:8;stroke-linecap:round;stroke-linejoin:round;stroke-miterlimit:10"/><style>.st40{fill:none;stroke-width:10;stroke-linecap:round;stroke-linejoin:round;stroke-miterlimit:10;stroke:#000}.st152{fill:#ae0f45}</style><g id="Vamp"><path d="M429 737.5c57 100 248 114 303 5-22.3-58.5-275-50.5-303-5z" style="fill:#fe1767"/><path class="st152" d="M637 761.5c-120-80.6-205 29-203-19-10-23 154-62.9 203 19z"/><path class="st152" d="M647 768c5-34 49-35 50.9-46-22-15-59.5 0-75 19.8l24 25.8v.4z"/><path d="M575 734c14 4.5 26 13 36 24m8 10.5c1 1 2 2.5 3 4m35-31c5-1 10.5-2 15 0m31 3c3 0 5.5 1 8 3" style="fill:none;stroke:#fff;stroke-width:10;stroke-linecap:round;stroke-linejoin:round;stroke-miterlimit:10"/><path d="M424 720.7c2 37.5 43-33 182 8 35 26 59-19.8 114 5.9 41 19 50-119.8-20.7-73.1-44 22-97 39.6-147 39C508 695 427 639.7 424 720.7z"/><path d="M489.6 686c7 18 14 37 21 55 1.4 4 52.4-57.5-21-55zm214.4-7c-4.5 21-14 81-20 55-4-18-15-38-28-50.6-4-2.4 73.5-48.4 48-4.4z" style="fill:#fff"/><path d="m507 692.7.7-3c-9 12 9 41 3 52-5-5-18-44-21-58.7v2l17.3 7.7zM676 674c6 41 18 53 13.5 59.6-12-12-33-49.8-34-53.1l-1 1.1L676 674z" style="fill:#b3b3b3"/><path class="st40" d="M703 659.7c-65 28-131 58-200 28-99-43-102 58.5-29.7 98.5 49.7 27.5 109.6 43 166 29.7 42-10 124-71 111-147.5-4.3-24.9-27.3-17.4-47.3-8.7z"/><path class="st40" d="M484 684c14 23 23 49 28 76 4-21.5 11-42 21.5-62M653 684c19 17 28 42 37 66 7-30 10.7-67 24-92m-186 57c44-6 90 16 116.5 51.5"/><path class="st40" d="M621 739.9c18-9.5 38-12 58-11m16-.4c13 0 25 6 36 13M499 718c-24-1.5-48 4.5-68 17"/></g><style>.st40{fill:none;stroke:#000;stroke-width:10;stroke-linecap:round;stroke-linejoin:round;stroke-miterlimit:10}</style><g id="glasses"><linearGradient id="SVGID_00000178916075595908665650000004557367053833667231_" gradientUnits="userSpaceOnUse" x1="598.405" y1="1033.928" x2="641.405" y2="678.931" gradientTransform="matrix(1 0 0 -1 0 1410)"><stop offset="0" style="stop-color:#00f5d0"/><stop offset=".232" style="stop-color:#42b1da"/><stop offset=".508" style="stop-color:#8b66e6"/><stop offset=".738" style="stop-color:#c02fee"/><stop offset=".908" style="stop-color:#e10df3"/><stop offset="1" style="stop-color:#ed00f5"/></linearGradient><path style="fill:url(#SVGID_00000178916075595908665650000004557367053833667231_)" d="M360 453c2 11 0 51 7 55.1 14 4 47-17 49.9 2 3 11 7 22 6 33-2 22-21 43-13 65 9 25 35.8 11 38 17.3 11 32 20 25 48 27 19 5.5 23 38 45 35 26-3 15-55 34-38.5 15 13 41 3 44.5-16.4 4-23-18.5-42.5-19-66 2-28 23-48 8-79 8 .5 17 0 25-1 13 24 8 46.5-2 69.9-17 39.8 15 52.5 29 45-2 14-11 36 2 47 10.5 5 23-4 29-12 11-22 29.5-2 39 10.3 12 12 28 6 29-11 .6-7.5-2-16 2-23 6-5 18 6 27-10.8 6-30-9-21 14-54.7 8-12 34-27 17-51-7-9.6-20.5-18-17-31 16 3 34-8.5 44-19.9 6-9.5 9-23 6-33.5-5-12-17-10.9-24.5-2-10 9.9-20.9-1-12.5-12 8-11 39-18 7-31-52.5-6.5-53 102-140.5 31.8-46-29-49 40.6-93 34-32.5-5-17-24-60.8-4-59-42-66 22.5-124 20.3-14-.5-32-7-44 3.8v.3z"/><path d="M363.5 508c17 18 36-5 48 0 24 37-27 79.5-.5 112.9 11 14 29.9 7 32 8.8 4.5 18 16 29 35 29 40-5 27 27.5 53 28m37-34.7c10 9.5 27 10.5 38 2m9-163.1c56-2-32.5 112 38 120 5 4-17 39.7 17.5 37m29.5-17c19-2 25 27 46 22m38-41.9c-4 5-11 7-17 7M445 500.6c-6 10.5-14.5 5-21 10" style="opacity:.6;enable-background:new;fill:none;stroke:#000;stroke-width:10;stroke-linecap:round;stroke-linejoin:round;stroke-miterlimit:10"/><path d="M495 429.5c9 2 17 6 23 13m-38.2-11.6c-1 0-2 .8-3.5 1.5M374 495c6 .5 12-1 16-4m213 15c2 9.5-1 19-5 28m-6.5 13-1.5 3m12 58c6 7 9.9 19 4.5 27m-10.5 8c-1 0-1.5.5-2 .7M550 656c0 7-3 13-8 18m-79-46c1 7 7 12 14 12m168-78c-3 7-3 15-1 22m25 39c-2 3.5-1 8 2 11m78.5-14c2 6 1 12-1 17m-.5-30v-2m41-76c4 7 0 14-5 19.5m22-47.5c4 3 6 7 7 11m28-92c0 8-3 16.5-9 22m-11 5c-2 0-3 .9-5 1m-150.5-41c7 1 12 5.5 17 10.7M652 409c-1 .5-2 1-3 2" style="fill:none;stroke:#fff;stroke-width:10;stroke-linecap:round;stroke-linejoin:round;stroke-miterlimit:10"/><path d="M429 607c3 4 3 10 0 15 4-1 12-3 13-8m151 11.9c-5 8-7.5 19.8 0 27-6 0-27.5-5-16-23M592 498c7-1 14.5 1 20 5-2-5-4-11-9-14m61-2c-8 5-15 13-19 21-1 0-6-12-4-18m12 96c-1 6-6.5 11-12 13 6 1 14 2 19-2m112-5c-1 7 2 14 8 18-6 2-13.5-.5-17-6m40-87.5c4 5 10 11 17 9-3.5 3-9 6-14 4.5m-28-62.5c8-2 17 3 22 8.9.5-5-.9-12-4-16h-1m-244-23.9c-5-3-6-11.5-3-16.5-6 3-13 7-13 14" style="opacity:.6;enable-background:new"/><path class="st40" d="M362 503c14 14 34.5-3 50.9-2 9.6.5 23 7 29.9-3"/><path class="st40" d="M413 501c24 36 0 62-4 97-2 19 19.5 34 35 21.5"/><path class="st40" d="M434 606c26 12 3 52 54 46 31-4 21.5 36 50 37 32 2 19-59 51-65"/><path class="st40" d="M570 642.5c12 19.5 44 17 51-5 9-27.5-27-52-19-79 7-23 24-47 7-69m27-1.5c14 25 2 49.7-5.5 74-5.8 18 6 53 29 38"/><path class="st40" d="M656 588c12 13.5 0 29-1 44 0 14 15 21 27 11.9 15-12 23-31 40.6-8.4 26 34 40 9 40-3.5s-7-29.6 5-38.5"/><path class="st40" d="M763 609c12 9 30-2 28-16.9-.8-5-3-9-4-14-4-22 32-25 13-58"/><path class="st40" d="M808 535c22-1 21-31 7-42-9-7-16-17.5-13-29m-141 20c-18 12.5-39-12-68 10.6M779 463c9.8-6 22-2 34-2 54 0 53-75.5 20.7-55-19 12-22-1-19.7-6.8 4-9 17-9 23-16 5-13-10.9-18-21-17-29 3-32 32-51.5 45-21 15-58 14-74-6.7-7-9-17-14-29-13-23 1.5-29.5 25.5-47 35-34 22-52-27-81.5 3"/><path class="st40" d="M548 438c-13 0-23-10-33-16.9-39-27-69 31-108 29-17-.9-35-10-50 2.7 6 15 2 34 5 49"/></g><style>.st40,.st68{fill:none;stroke:#000;stroke-width:10;stroke-linecap:round;stroke-linejoin:round;stroke-miterlimit:10}.st68{opacity:.6;enable-background:new}</style><g id="Transmit"><linearGradient id="SVGID_00000127734904184448701060000009899486580737071243_" gradientUnits="userSpaceOnUse" x1="542.818" y1="876.092" x2="557.818" y2="742.092" gradientTransform="matrix(1 0 0 -1 0 1100)"><stop offset="0" style="stop-color:#00ffd0"/><stop offset=".104" style="stop-color:#00f3d3"/><stop offset=".293" style="stop-color:#00d2da"/><stop offset=".547" style="stop-color:#009de6"/><stop offset=".852" style="stop-color:#0055f7"/><stop offset="1" style="stop-color:#002fff"/></linearGradient><path style="fill:url(#SVGID_00000127734904184448701060000009899486580737071243_)" d="M549 237.6c-12 19-23 38.5-34 58.4l47 44.7 22-69.5-35-33.6z"/><linearGradient id="SVGID_00000150060648064343517610000006857265343630394550_" gradientUnits="userSpaceOnUse" x1="529.9" y1="863.989" x2="536.9" y2="798.989" gradientTransform="matrix(1 0 0 -1 0 1100)"><stop offset="0" style="stop-color:#00ffd0"/><stop offset=".104" style="stop-color:#00f3d3"/><stop offset=".293" style="stop-color:#00d2da"/><stop offset=".547" style="stop-color:#009de6"/><stop offset=".852" style="stop-color:#0055f7"/><stop offset="1" style="stop-color:#002fff"/></linearGradient><path style="fill:url(#SVGID_00000150060648064343517610000006857265343630394550_)" d="M548 241c2 2 1 10 5 49.3-11 1.5-25 4-35 5.4l30-54.7z"/><linearGradient id="SVGID_00000103974633343853836120000000367405727942247351_" gradientUnits="userSpaceOnUse" x1="584.31" y1="809.646" x2="552.31" y2="781.646" gradientTransform="matrix(1 0 0 -1 0 1100)"><stop offset="0" style="stop-color:#00ffd0"/><stop offset=".099" style="stop-color:#00f6d2"/><stop offset=".262" style="stop-color:#00ddd8"/><stop offset=".469" style="stop-color:#00b4e1"/><stop offset=".713" style="stop-color:#007bee"/><stop offset=".984" style="stop-color:#0034fe"/><stop offset="1" style="stop-color:#002fff"/></linearGradient><path style="fill:url(#SVGID_00000103974633343853836120000000367405727942247351_)" d="M554 290c2 18 4.5 31 6 48.5l19.6-50.9L554 290z"/><linearGradient id="SVGID_00000175290621592340520880000014853312583583039662_" gradientUnits="userSpaceOnUse" x1="562.39" y1="811.688" x2="530.39" y2="771.688" gradientTransform="matrix(1 0 0 -1 0 1100)"><stop offset="0" style="stop-color:#00ffd0"/><stop offset=".104" style="stop-color:#00f3d3"/><stop offset=".293" style="stop-color:#00d2da"/><stop offset=".547" style="stop-color:#009de6"/><stop offset=".852" style="stop-color:#0055f7"/><stop offset="1" style="stop-color:#002fff"/></linearGradient><path style="fill:url(#SVGID_00000175290621592340520880000014853312583583039662_)" d="M519 296c9.8-2 28-4 35-5.5l6 46.9-41-41.7v.3z"/><linearGradient id="SVGID_00000160910735292254152780000008448727389273966231_" gradientUnits="userSpaceOnUse" x1="675.74" y1="887.689" x2="552.74" y2="990.689" gradientTransform="matrix(1 0 0 -1 0 1100)"><stop offset="0" style="stop-color:#0400ff"/><stop offset=".214" style="stop-color:#0341f4"/><stop offset=".5" style="stop-color:#0291e6"/><stop offset=".736" style="stop-color:#01cddd"/><stop offset=".908" style="stop-color:#00f1d6"/><stop offset="1" style="stop-color:#00ffd4"/></linearGradient><path style="fill:url(#SVGID_00000160910735292254152780000008448727389273966231_)" d="M586 172.4c-7.5 37-17 73.5-29 109.3l106-92.1-26-7s89.7-97 89-97c-13.5-12-35-15-53-17.2l-34 71-8-24.8-30 73.5-15-16.1v.4z"/><linearGradient id="SVGID_00000022529941660613312940000016512510607446133916_" gradientUnits="userSpaceOnUse" x1="619.886" y1="971.899" x2="750.886" y2="823.899" gradientTransform="matrix(1 0 0 -1 0 1100)"><stop offset="0" style="stop-color:#0040ff"/><stop offset=".114" style="stop-color:#1f36ff"/><stop offset=".341" style="stop-color:#5823ff"/><stop offset=".55" style="stop-color:#8414ff"/><stop offset=".737" style="stop-color:#a409ff"/><stop offset=".893" style="stop-color:#b802ff"/><stop offset="1" style="stop-color:#bf00ff"/></linearGradient><path style="fill:url(#SVGID_00000022529941660613312940000016512510607446133916_)" d="M559.6 287.3c31-35 65-67 101-97.4l-26-8s94-97 95-96c5-1 9.8 1 14.5 3 29 12 57 26 81.5 44.3l-109 71.7 24 10-181 72.1v.3z"/><linearGradient id="SVGID_00000142898874918184540610000016770726687242683319_" gradientUnits="userSpaceOnUse" x1="686.196" y1="943.103" x2="766.196" y2="791.103" gradientTransform="matrix(1 0 0 -1 0 1100)"><stop offset="0" style="stop-color:#ff00e1"/><stop offset=".143" style="stop-color:#ea00e4"/><stop offset=".441" style="stop-color:#b200ed"/><stop offset=".864" style="stop-color:#5a00fa"/><stop offset="1" style="stop-color:#3c00ff"/></linearGradient><path style="fill:url(#SVGID_00000142898874918184540610000016770726687242683319_)" d="M567 287.3c47-2 93.5-6 139.9-11.8L688 256l118-11.4-24-20s105-43 104.5-44c-19-18-39.9-33.5-63-46.2l-107 70 21.5 10.1L567 287v.3z"/><path class="st40" d="m676 68.2-39 74-5-35-33 84.9-13-22.1-33 119.7 156-12.5-23-20.2 121-11.2-27-21.4 107-39.9"/><path class="st40" d="m554 289.3 111-100.9-31-6.6L729 84m94 49c-38 25-73 47-109 71.3l29 9.3-184 72"/><path class="st40" d="M562 250c-4-5-9-9.6-14-14.2l-33 60.4 47 48.5 18.5-55"/><path class="st68" d="M544 235c-15 23-24 39.5-37 62 0 0 54 52 55 52.9 9-19.9 18-39.9 26-59.9"/><path class="st68" d="M559 277c34-32 62.5-58 93-87.9l-25-6.2 93-100m99 45.1c-41 28-76 51-113 76.5l22.5 9.7-152 59"/></g><circle cx="550" cy="550" r="500" style="fill:none;stroke:#000;stroke-width:10;stroke-linecap:round;stroke-linejoin:round;stroke-miterlimit:10"/></svg>