<svg version="1.1" id="Layer_1" xmlns="http://www.w3.org/2000/svg" x="0" y="0" viewBox="0 0 1100 1100" style="enable-background:new 0 0 1100 1100" xml:space="preserve" xmlns:xlink="http://www.w3.org/1999/xlink"><style type="text/css">.st300{fill:#00DE72;stroke:#000000;stroke-width:10;stroke-linecap:round;stroke-linejoin:round;stroke-miterlimit:10;}</style><circle class="st300" cx="550" cy="553.7" r="500"/><path d="M532 209c-68 59.6-71 20-121 36.5-19.6 10.9-14 30-9.7 39.6 11 23-51 9-69 40.3-10.1 18 0 42-7.5 62-9 19.6-34 35-37 52-43 48-154 7-119 70 6 11 33-6 39 9.1 7 17.5-39 29-21 47 18 5 21 39.9 57 63 14 20 3 51 19 69 36 38 46-25 41-34.3 4-39 44-11 22 39-23 52 11 74 36.5 57 24-9 13 39 23 50.9 19.5 37 55 12 67 12 18 1 28 22 29.8 40 6 63 54 46 59 8 15.5-34 45 49 47 59.9 12 73 69.5 42 71 17.9 3-54-3-59.9 2-68 19-31 71 13 90.8-15.5 14-19.8-31-63 8-55 94 19.9 19-101 14-120.4-9-35.5 14-105.8 47-122 18-9 17-35.5 7-53-9.6-17-25-30.6-31-48.9-13.5-54 21-100.7-36-133.3-5-3-7-9.5-4-14 17-25.8 1-66-32-71-22-3-44 9-66.5 6C615 247 578.5 178 532 209z" style="fill:#1eb377"/><style>.st40{fill:none;stroke:#000;stroke-width:10;stroke-linecap:round;stroke-linejoin:round;stroke-miterlimit:10}.st98{opacity:.6;enable-background:new}</style><g id="Outline"><path class="st98" d="M793 537c-1 .7-1 2-.5 3 5 10 11 35 25 30 8-2 21-13 18-22.4-.5-1-2-2-3-1.5-26 12-28-11-39-9.4v.3zm-34 274.5c6 5 26 8 25-3-6-7-20.6-12-21.5-26C750 772 744 803 759 811.5zm-219.3 52s1 .5 1 .8c9 13.5-3 36-18 40-34 6-9-6-6-44 .3-5.3 22.3 2.7 23 3.2zM342 731c5 7-4 22-4 33 8 13 29.6-5 33-14.9 2-12-17-21-28-20.2-1 .1-1 1.1-1 2.1zm31-120.2c2 23-8 47-26 61.9-13 10.9-17.5-30.6-8-27.9 6 4.2 28-18.8 34-34zm-157-59.9c-8 6-17 3-25 1-11 5 4 20 13.5 16 5-4 12-9 12-15.7-.5-.2-1.5-.2-.5-1.3zM337 473c-6-10-3-23 0-34 0-1 0-2-.6-2-9-9-23 11-19.8 20.7C318 463 338 475 337 472.8v.2z"/><path class="st98" d="M326 392c-2 29 24 45 7 44-7 2-14 1-15 11-1 11-24 0-24.5-1.3C285 433 317 404.5 326 392zm103-118c-9.9-4-16-16-18-25-4-6-9.9 1-11 6-7 54 29.5 28 29 19zm293 9c16 21 29.5 12 40 20.7 3 4 1 9.6-1 14-3 9-13 9-20 4.1-14.5-5.8-22-22.2-19-38.8z"/><path class="st40" d="M347 729c53.5 5 15 86 59 102 25 9 37-19.8 55-11.9 23 10.1 19.6 40 24 60.7 9.6 46 63 29.6 58-12.8"/><path class="st40" d="M519 861c89-9 47.5 119 114.5 115 39-6 35-47 25-76.5-3-9 0-18.5 7-24.5 24.5-21 59 15.5 84-2.5 15-11 8-33-2-45-12-15 0-32 10-43"/><path class="st40" d="M790 539c53 69.8-64 71 8 194.5 6 14 11 32 11 48.5 0 32-49 47.5-61 16"/><path class="st40" d="M721 287c2 51 64 31 74 88 6 34-11.5 71 7 103 10 18 27 31.5 34 51 8 19-4 47-27 42"/><path class="st40" d="M407 290.6c-16-8-12-29.9-2-41 17-15 40.5-10 61-6 29.8 1 49-29 75-38 50-17 81 55 133 44 23-5 48-11 69 1 25 14 33 55 10 75"/><path class="st40" d="M428 278c-16 26.5-51 17.5-76 28.5-20 10.5-28 33-23 55 10 47-43 51-39 88m25 4.5c1.5-23 35-26 41-5 7 25-13 47 16 72"/><path class="st40" d="M334 476c-20-34-61-31.5-89-9.6-20 8-43-3-64 4-22 7-28 37-5 43.5 6.5 2 23-2 26-1 15 4 11 25-5 30-21 6-10 29 6 29"/><path class="st40" d="M216 554.5c-15 15-14 41 2 55 37 22 41 31 36 69.7-2 31 46 41 53.5 10 2-10.8-4-22 0-33 13-32 44 20 62-44.5"/><path class="st40" d="M327 647.9c25 29.7-.5 47-7 75-10 32.5 34 65 53 25"/><path d="M729 262.5c9 4 16 13 18 22.5m-193-68c12.5 2 24.5 8 34 16m9 9 3 3m-163 10c-5.5-.9-12 .6-15.5 4M362 319.6c-9 2-14 10.7-16 19M339 449c4 1 6 6 6 9.8M308.5 470c-12-6-16-5-22-4M175 492c1-4 5-7 9-7.5m38 89.5c-4 8 0 16 4 19.9m44 78.6c-1 6 1 15 9 18m76-77.5c-3 14-13 14.5-16 16m4.5 119.5c-5-3-9-9-8-15M397 782c-1 14.5 7 28 14 30m90 53.9c-3 12 2 27 14.5 25M636 957c14-3 17-28 11-38m96-60.1c1-7 0-14-4-19m46-49.1c8-6.5 9-25 3-39M786 582c5-8 3-19-3-26m37-12c2-8.5-.6-18-7-24m-56-169c18 6 22 30 21 35" style="opacity:.7882;fill:none;stroke:#fff;stroke-width:10;stroke-linecap:round;stroke-linejoin:round;stroke-miterlimit:10;enable-background:new"/></g><style>.st40,.st68{fill:none;stroke-width:10;stroke-linecap:round;stroke-linejoin:round;stroke-miterlimit:10;stroke:#000}.st68{opacity:.6;enable-background:new}</style><g id="Happy"><path d="M472 678c-67.5 48.5 23 111 67 136.9 53 31 146 29 172-35-2-70.4-182-75.9-239-101.9z" style="fill:#fe1767"/><path d="M447 712c54-27 129.6 24 175.5 51 14 42 9-12 57-12 23 0-30-7-35-8.8-66-23-92-57-161-63C468 678 449.6 693 447 712z" style="fill:#ac1045"/><path d="M581 704c11 15 22 34 39 40.9 83-28 84 57 101 20 25-53.9 29-111.9-140-61.3v.4z"/><path d="M576 729.8c14 7 21 22 27 36m7 14c1 2 2 4 2 6m47-31.8c11 1 21 8 26 18" style="fill:none;stroke:#fff;stroke-width:10;stroke-linecap:round;stroke-linejoin:round;stroke-miterlimit:10"/><path class="st68" d="M702 653c15.5-2 51 9 55 47.5m-287-46c-24-3-49 19-51 43.5"/><path class="st40" d="M574 830.5c152.5 49 229.9-198 74-142-112 40.5-154-33-189-2.7-55 48.2 62 127.7 115 144.7zM471 656c-23 0-46 19.8-50 43"/><path class="st40" d="M701 655c27-1 48 20 54 46m-191 0c36 17.5 57 51 70 85m-15-37c34-21 74-6 93 28"/><path class="st68" d="M453 692c-84 69 216 256 268 72"/></g><style>.st124{stroke:#000;stroke-width:10;stroke-linecap:round;stroke-linejoin:round;stroke-miterlimit:10;fill:#fff}</style><g id="black_and_white"><ellipse transform="rotate(-4.656 485.895 504.498)" class="st124" cx="486" cy="504.5" rx="49.6" ry="123"/><ellipse transform="rotate(-4.365 685.784 479.312)" class="st124" cx="686" cy="479" rx="45" ry="119"/><path d="M453 386c-33 52-29 121-13 178.5 8.5 25 29 88 65 60M658 364c-58 61-2 318 59.9 215" style="opacity:.6;fill:none;enable-background:new;stroke:#000;stroke-width:10;stroke-linecap:round;stroke-linejoin:round;stroke-miterlimit:10"/><path d="M486 408c9 9 13 22 17 35m6 20 1 6m176-80c7 9 12 19.5 14 30.6m5 18.4 1 7" style="stroke:#000;stroke-width:10;stroke-linecap:round;stroke-linejoin:round;stroke-miterlimit:10;fill:none"/></g><style>.st40,.st68{fill:none;stroke:#000;stroke-width:10;stroke-linecap:round;stroke-linejoin:round;stroke-miterlimit:10}.st68{opacity:.6;enable-background:new}</style><g id="Knowledge"><path d="M484 313.5c48 35 117.5 20 160-17-49.5-41.5-124-41.5-160 17z" style="fill:#fff"/><linearGradient id="SVGID_00000081643937399829794740000016140099050203615631_" gradientUnits="userSpaceOnUse" x1="614.626" y1="817.896" x2="614.626" y2="890.904" gradientTransform="matrix(.9959 -.09015 -.09015 -.9959 28.476 1198.007)"><stop offset="0" style="stop-color:#ff0037"/><stop offset="1" style="stop-color:#ffc800"/></linearGradient><path style="fill:url(#SVGID_00000081643937399829794740000016140099050203615631_)" d="M534 273c-14 19 1 35-2 54.7 0 2 20 7 21 1 8-77 28-53 26-2.9 6-1.5 14-1 20-2-10-19.6 8-39-6-53.5-9-11.3-51-8.3-59 2.7z"/><path class="st40" d="M471 319c82-73 109.6-66 186-15"/><path class="st40" d="M482 314c52 31 115 19 163-16m9 34c37 16 53-7 29-38m-227 6c-39 47 3 59 19.5 47"/><path class="st40" d="M530 277c-9 19 7 32-1 52m63-59.4c15 16-5 36 8 52m-49 9c19-18-7-37 12.5-49 9-4.5 19 5 16 14.5-3 9.6-8 21.5-1.5 30.7"/><path class="st40" d="M557 290c0 8.5 9 15.5 17 14.9-4 8-12.5-2-8 7 12 10.8-6 22-1.5 6.5"/><path class="st68" d="M454 300c-44.5 56 4 65 21 48m178-12.1c39 21 63-11 32-44M477 319c52 38 124 21 173-15.5"/><path class="st68" d="M523 282c-7 15 4 31 3 46"/></g><circle cx="550" cy="550" r="500" style="fill:none;stroke:#000;stroke-width:10;stroke-linecap:round;stroke-linejoin:round;stroke-miterlimit:10"/></svg>