<svg version="1.1" id="Layer_1" xmlns="http://www.w3.org/2000/svg" x="0" y="0" viewBox="0 0 1100 1100" style="enable-background:new 0 0 1100 1100" xml:space="preserve" xmlns:xlink="http://www.w3.org/1999/xlink"><circle cx="550" cy="550" r="500" style="fill:#2e2e2e"/><linearGradient id="a1" gradientUnits="userSpaceOnUse" x1="264.957" y1="853.134" x2="422.298" y2="853.134"><stop offset="0" style="stop-color:#00ff90"/><stop offset="1" style="stop-color:#c800ff"/></linearGradient><circle cx="343" cy="853" r="78" style="fill:url(#a1);stroke:#000;stroke-width:10;stroke-linecap:round;stroke-linejoin:round;stroke-miterlimit:10"/><linearGradient id="b1" gradientUnits="userSpaceOnUse" x1="826.38" y1="645.312" x2="919.38" y2="645.312"><stop offset="0" style="stop-color:#f7ff00"/><stop offset="1" style="stop-color:#ff5e00"/></linearGradient><ellipse style="fill:url(#b1);stroke:#000;stroke-width:10;stroke-linecap:round;stroke-linejoin:round;stroke-miterlimit:10" cx="873" cy="645" rx="46.5" ry="53"/><linearGradient id="c1" gradientUnits="userSpaceOnUse" x1="179.591" y1="404.219" x2="384.591" y2="404.219"><stop offset="0" style="stop-color:#0073ff"/><stop offset="1" style="stop-color:#8c00ff"/></linearGradient><ellipse style="fill:url(#c1);stroke:#000;stroke-width:10;stroke-linecap:round;stroke-linejoin:round;stroke-miterlimit:10" cx="282" cy="404" rx="102.5" ry="111"/><linearGradient id="d1" gradientUnits="userSpaceOnUse" x1="766.562" y1="310.33" x2="944.562" y2="310.33"><stop offset="0" style="stop-color:#7300ff"/><stop offset="1" style="stop-color:#ff008c"/></linearGradient><ellipse style="fill:url(#d1);stroke:#000;stroke-width:10;stroke-linecap:round;stroke-linejoin:round;stroke-miterlimit:10" cx="856" cy="310" rx="89" ry="95"/><linearGradient id="e1" gradientUnits="userSpaceOnUse" x1="615.769" y1="857.232" x2="845.269" y2="857.232"><stop offset="0" style="stop-color:#f0b"/><stop offset="1" style="stop-color:#f40"/></linearGradient><circle style="fill:url(#e1);stroke:#000;stroke-width:10;stroke-linecap:round;stroke-linejoin:round;stroke-miterlimit:10" cx="730.5" cy="857" r="115"/><linearGradient id="f1" gradientUnits="userSpaceOnUse" x1="115.411" y1="614.727" x2="186.411" y2="614.727"><stop offset="0" style="stop-color:#00ff90"/><stop offset="1" style="stop-color:#006fff"/></linearGradient><circle style="fill:url(#f1);stroke:#000;stroke-width:10;stroke-linecap:round;stroke-linejoin:round;stroke-miterlimit:10" cx="150.9" cy="615" r="35.5"/><path d="M313 326.3c18 9.9 33 27 39.6 46m7 22.7 1 7m509.9-163.1c19 5 34 19.6 41 38m6 22c1 3 1.5 5 2 8M879 609.4c9 4 16 11 19.8 20m.7 19.6-.5 5M759 766.9c25 9 44 31 49.9 56.5m7.1 23.7c1 4 1 7 .5 10.8M364 799.3c16 6 29 22 31 39m0 22.7-2 6M153.5 595.4c7 1 12 6 14 12" style="opacity:.8118;fill:none;stroke:#fff;stroke-width:16;stroke-linecap:round;stroke-linejoin:round;stroke-miterlimit:10;stroke-dasharray:0,0,0,0,0,0"/><path d="M533 209.1c-68 59.6-71 20-121 36.5-19.6 10.9-14 30-9.7 39.6 11 23-51 9-69 40.3-10 18 .1 42-7.5 61.8-9 19.6-34 35-37 52.2-43 48-154 7-119 70.4 6 11 33-6 39 9.1 7 17.5-39 29-21 46.7 18 5 21 39.9 57 63.2 14 20 3 51 19 69.1 35.8 38 46-25 41-34.3 4-39 44-11 22 38.7-23 52 11 74 36.5 56.6 24-9 13 39 23 50.9 19.5 37 55 12 67 12 18 1 28 22 29.8 40.3 6.5 63 54 46 59 8 15.5-34 45 49 47 59.9 11 73 69 42 71 17.9 3-54-3-60.1 2-68.3 18.5-31 71 13 90.8-15.5 14-19.7-31-63.5 8-55.4 94 19 19-101 14-120.4-9-35.5 14-106 47-121.7 18-9 17-35.5 7-52.8-9.5-17-25-30.6-31-48.9-13.5-54 22-102-36-133.3-5-3-7-9.5-4-14.4 17-26 1-66-32-71.4-22-3-44 9-66.5 6.3C616 247 579.9 178 533 209.1z" style="fill:#d500ff"/><style>.st40{fill:none;stroke:#000;stroke-width:10;stroke-linecap:round;stroke-linejoin:round;stroke-miterlimit:10}.st98{opacity:.6;enable-background:new}</style><g id="Outline"><path class="st98" d="M793 537c-1 .7-1 2-.5 3 5 10 11 35 25 30 8-2 21-13 18-22.4-.5-1-2-2-3-1.5-26 12-28-11-39-9.4v.3zm-34 274.5c6 5 26 8 25-3-6-7-20.6-12-21.5-26C750 772 744 803 759 811.5zm-219.3 52s1 .5 1 .8c9 13.5-3 36-18 40-34 6-9-6-6-44 .3-5.3 22.3 2.7 23 3.2zM342 731c5 7-4 22-4 33 8 13 29.6-5 33-14.9 2-12-17-21-28-20.2-1 .1-1 1.1-1 2.1zm31-120.2c2 23-8 47-26 61.9-13 10.9-17.5-30.6-8-27.9 6 4.2 28-18.8 34-34zm-157-59.9c-8 6-17 3-25 1-11 5 4 20 13.5 16 5-4 12-9 12-15.7-.5-.2-1.5-.2-.5-1.3zM337 473c-6-10-3-23 0-34 0-1 0-2-.6-2-9-9-23 11-19.8 20.7C318 463 338 475 337 472.8v.2z"/><path class="st98" d="M326 392c-2 29 24 45 7 44-7 2-14 1-15 11-1 11-24 0-24.5-1.3C285 433 317 404.5 326 392zm103-118c-9.9-4-16-16-18-25-4-6-9.9 1-11 6-7 54 29.5 28 29 19zm293 9c16 21 29.5 12 40 20.7 3 4 1 9.6-1 14-3 9-13 9-20 4.1-14.5-5.8-22-22.2-19-38.8z"/><path class="st40" d="M347 729c53.5 5 15 86 59 102 25 9 37-19.8 55-11.9 23 10.1 19.6 40 24 60.7 9.6 46 63 29.6 58-12.8"/><path class="st40" d="M519 861c89-9 47.5 119 114.5 115 39-6 35-47 25-76.5-3-9 0-18.5 7-24.5 24.5-21 59 15.5 84-2.5 15-11 8-33-2-45-12-15 0-32 10-43"/><path class="st40" d="M790 539c53 69.8-64 71 8 194.5 6 14 11 32 11 48.5 0 32-49 47.5-61 16"/><path class="st40" d="M721 287c2 51 64 31 74 88 6 34-11.5 71 7 103 10 18 27 31.5 34 51 8 19-4 47-27 42"/><path class="st40" d="M407 290.6c-16-8-12-29.9-2-41 17-15 40.5-10 61-6 29.8 1 49-29 75-38 50-17 81 55 133 44 23-5 48-11 69 1 25 14 33 55 10 75"/><path class="st40" d="M428 278c-16 26.5-51 17.5-76 28.5-20 10.5-28 33-23 55 10 47-43 51-39 88m25 4.5c1.5-23 35-26 41-5 7 25-13 47 16 72"/><path class="st40" d="M334 476c-20-34-61-31.5-89-9.6-20 8-43-3-64 4-22 7-28 37-5 43.5 6.5 2 23-2 26-1 15 4 11 25-5 30-21 6-10 29 6 29"/><path class="st40" d="M216 554.5c-15 15-14 41 2 55 37 22 41 31 36 69.7-2 31 46 41 53.5 10 2-10.8-4-22 0-33 13-32 44 20 62-44.5"/><path class="st40" d="M327 647.9c25 29.7-.5 47-7 75-10 32.5 34 65 53 25"/><path d="M729 262.5c9 4 16 13 18 22.5m-193-68c12.5 2 24.5 8 34 16m9 9 3 3m-163 10c-5.5-.9-12 .6-15.5 4M362 319.6c-9 2-14 10.7-16 19M339 449c4 1 6 6 6 9.8M308.5 470c-12-6-16-5-22-4M175 492c1-4 5-7 9-7.5m38 89.5c-4 8 0 16 4 19.9m44 78.6c-1 6 1 15 9 18m76-77.5c-3 14-13 14.5-16 16m4.5 119.5c-5-3-9-9-8-15M397 782c-1 14.5 7 28 14 30m90 53.9c-3 12 2 27 14.5 25M636 957c14-3 17-28 11-38m96-60.1c1-7 0-14-4-19m46-49.1c8-6.5 9-25 3-39M786 582c5-8 3-19-3-26m37-12c2-8.5-.6-18-7-24m-56-169c18 6 22 30 21 35" style="opacity:.7882;fill:none;stroke:#fff;stroke-width:10;stroke-linecap:round;stroke-linejoin:round;stroke-miterlimit:10;enable-background:new"/></g><defs><radialGradient id="axz" cx="274.03" cy="669.68" r="95.31" gradientTransform="matrix(1 0 0 1.52 0 -350.6)" gradientUnits="userSpaceOnUse"><stop offset="0" stop-color="#ff0"/><stop offset=".09" stop-color="#fff804"/><stop offset=".22" stop-color="#ffe611"/><stop offset=".37" stop-color="#ffc826"/><stop offset=".53" stop-color="#ff9e42"/><stop offset=".71" stop-color="#ff6867"/><stop offset=".9" stop-color="#ff2794"/><stop offset="1" stop-color="#ff00ae"/></radialGradient><style>.axz-2{fill:none;stroke-linecap:round;stroke-linejoin:round;stroke-width:10px;stroke:#000}</style></defs><path d="M284 571.6a39.5 39.5 0 0 1 23.8-24.7c51.9 51.9 50.7 215.3-24.6 244-89.2 17.6-92.9-123.2-59.1-177 12.6 3.9 22.5 14.1 28.2 26.5-19.9 37.1-15.3 95.7 16.6 117.4 0 0 78.6-58.2 15.1-186.2Z" style="fill:url(#axz)"/><path class="axz-2" d="M287.6 590s-5.4-30.7 20.2-43.1c51.9 51.9 50.7 215.3-24.6 244-16.7 6.4-35.5 2.1-48.4-10.2-41.5-39.7-36.9-118.8-10.7-166.8 6.4 3 22.3 11.8 28.4 25.6"/><path class="axz-2" d="M287.6 590c57 75.9-3.7 207.6-33.9 154.8-17.2-30-17.2-72.7-.7-103.5"/><path class="axz-2" d="M317.1 542c-27.5 6.7-34.8 31.7-33.5 63.4"/><path d="M315.9 556.4c-.4-3.7-2.4-8.4.4-13.5m-8.2 9.9c-13.4 8.1-17.6 25-17.8 39.8m-2.6 7.1c25.3 44.6 17.2 55.1 11.8 102.3m-75.3-80.9c8.9 4.2 18.3 12.3 23.2 21.5-21.9 35.5-12.9 122.8 21.5 115.2" style="opacity:.6;stroke:#000;fill:none;stroke-linecap:round;stroke-linejoin:round;stroke-width:10px"/><path d="M317.9 731.9a75.4 75.4 0 0 1-18.4 30.2m-7.9 8.8a22.9 22.9 0 0 1-8 5.3m27.5-201.8a104.3 104.3 0 0 1 11.9 31" style="stroke:#fff;fill:none;stroke-linecap:round;stroke-linejoin:round;stroke-width:10px"/><style>.st40,.st68{fill:none;stroke-width:10;stroke-linecap:round;stroke-linejoin:round;stroke-miterlimit:10;stroke:#000}.st68{opacity:.6;enable-background:new}</style><g id="Happy_Beard"><linearGradient id="SVGID_00000012458921589117142250000001255892426965824154_" gradientUnits="userSpaceOnUse" x1="482.466" y1="444.183" x2="708.475" y2="85.169" gradientTransform="matrix(.9987 .05075 .05075 -.9987 14.064 1042.44)"><stop offset="0" style="stop-color:#00a2ff"/><stop offset=".654" style="stop-color:#aa36e8"/><stop offset="1" style="stop-color:#f0d"/></linearGradient><path style="fill:url(#SVGID_00000012458921589117142250000001255892426965824154_);stroke:#000;stroke-width:10;stroke-linecap:round;stroke-linejoin:round;stroke-miterlimit:10" d="M749.8 654c37 24 16.5 79 8.5 114-16 55 39 72 17 127.5-43-56-34 11-42 16.3-19-69-64-3-13 17.9-4 24-57-17-46 57.5-23-10.7-20.8-39.9-26-60.9-6-18-26-20.8-36-4.5-9.8 20.8-19 43-41 55 4-43-33-56-39-64.9-5-8-2-20.6-10-26-15-10-28 12-43 13.2 26-41-19.5-103-26-30-28-26-11-53-23-61-8-4-15 8-24 8 12.5-20.5-2-44-5-65.6-9-66 51.5-97 109-72.5 82 35 64-11 110-8.9 54 3 86-44 129-15.4v.3z"/><path d="M441 706c-36 33 0 64 9.9 68 44 21 49 42 67 62 28 26 56 18 87 2.2 19.5-9.9 43 1 65-1 30.6-3 59-32 55-64-6-46 7-36 20-56 8-12 1-29-10-37.3-33-22-53 13-81 19.5-12 2-24-4-36-4-24 0-45 44-112 4.9-22-13-48-10.7-65 5.3v.4z" style="fill:#fe1767"/><path d="M582 710.6c22.5 7 43 21 58 38.9 24-16 58-5 82 8-4-19 14-28 22-42.5 12-22-13-65-67-27.5-39 30.5-54-11.5-95 23.1z"/><path d="M629.8 745c-22-17-48-8-72-2.9-54 11-82-46-125-24 27-47 81-13 94-7.9C573 729 583 691 629.8 745zm26.2 40c2-22 25-37 46-37-17-14-45-9-62 3.6l16 33.4z" style="fill:#ae0f45"/><path class="st40" d="M441 706c-36 33 0 64 9.9 68 44 21 49 42 67 62 28 26 56 18 87 2.2 19.5-9.9 43 1 65-1 30.6-3 59-32 55-64-6-46 7-36 20-56 8-12 1-29-10-37.3-33-22-53 13-81 19.5-12 2-24-4-36-4-24 0-45 44-112 4.9-22-13-48-10.7-65 5.3v.4z"/><path class="st68" d="M433 710c-15 15-16 41-2 57 9.9 12 26 16 38 26 24.5 18 35 53 65 64.5 31 12 59-13 88-18 19.7-4 51 12 66-7m-264-153c-59 41-7 89-22 134"/><path d="M606 741c11 8 17 21 22 33m7 14 1 4m50-33c8 2 16 6 22 12.5m20-111.7c10 1 19.8 7 25 16m4 11.2 1 3.5M751.5 833c5 6 8 12.5 11 19.5M767 863l1 3m-171 56c-2 6-4 11-8 17m-6 10-2 2M448.5 817c-1 5 0 11 .5 16" style="fill:none;stroke:#fff;stroke-width:10;stroke-linecap:round;stroke-linejoin:round;stroke-miterlimit:10"/><path class="st40" d="M582 712c38 7.5 66 45 75 80.7M640 749c30-16 57-9 83 10.9"/><path class="st68" d="M731 897c.9-8.5 5-22 15-23m-48 21c-4 13 0 34 14 38m-59 19c3 9.5 9 18 16.5 24M487 861c4.5 11.5 7 19.9 3 29m-73-82c2-9 .7-22-7-28.5"/></g><style>.st40,.st68{fill:none;stroke-width:10;stroke-linecap:round;stroke-linejoin:round;stroke-miterlimit:10;stroke:#000}.st68{opacity:.6;enable-background:new}</style><g id="gooie_eyes"><linearGradient id="SVGID_00000114052739278173780720000006496866318907593611_" gradientUnits="userSpaceOnUse" x1="418" y1="886.17" x2="585.983" y2="886.17" gradientTransform="matrix(1 0 0 -1 0 1410)"><stop offset="0" style="stop-color:#fc0037"/><stop offset=".047" style="stop-color:#fc0d33"/><stop offset=".303" style="stop-color:#fc4e21"/><stop offset=".535" style="stop-color:#fc8213"/><stop offset=".736" style="stop-color:#fca709"/><stop offset=".898" style="stop-color:#fcbe02"/><stop offset="1" style="stop-color:#fcc600"/></linearGradient><path style="fill:url(#SVGID_00000114052739278173780720000006496866318907593611_);stroke:#000;stroke-width:10;stroke-linecap:round;stroke-linejoin:round;stroke-miterlimit:10" d="M576 524c10-11 15-31 5-42.9-20-24-28-3-39-51.5-9-37-49-36-70-17-12 11-14 30-24 44-6 8-13.5 14.5-19.8 22-14 14-12 40 10 42 3-5 5-11 5-18 1 23-24 43-9.6 67.9 5.8 10.1 17 19 17 30.8-1 18-7.5 47 15 46.9 13 0 14-19 20.9-24 23-16 24 31 53 10.4 7-6 12-16 11-26-5-43.5 49.5-41 25-84-4-8-10-12-12-21.9.5 8 6.5 19 12.5 21.1v.2z"/><linearGradient id="SVGID_00000089552583616707315270000002940239741937286795_" gradientUnits="userSpaceOnUse" x1="598.034" y1="893.204" x2="755.973" y2="893.204" gradientTransform="matrix(1 0 0 -1 0 1410)"><stop offset="0" style="stop-color:#fc0037"/><stop offset=".111" style="stop-color:#fc1f2e"/><stop offset=".342" style="stop-color:#fc5a1e"/><stop offset=".554" style="stop-color:#fc8911"/><stop offset=".742" style="stop-color:#fcaa08"/><stop offset=".897" style="stop-color:#fcbf02"/><stop offset="1" style="stop-color:#fcc600"/></linearGradient><path style="fill:url(#SVGID_00000089552583616707315270000002940239741937286795_);stroke:#000;stroke-width:10;stroke-linecap:round;stroke-linejoin:round;stroke-miterlimit:10" d="M744 536c13.5-10 19-32 2-46-55.5-46-10.9-60-45-84.5-28-20-69 4-72 34.4-7 65-21 39.9-29 66-6 19 4.5 39.7 26 26 0-5-.6-10-2-15 9.6 25-13 49-10 73.9 1 8 6.5 16 15 15 7-1 11-9 18-10 23 0 18 38 43 39.6 23 2 10-29 34-34.2 28-1 40.7-28 28-52-8.5-12-21-22-20-38-1 8.3 3.5 19.8 12 24.8z"/><path d="M492 481.5c13.5 43.5 8 49-2 90.8-2 51 58 4 50.7-37-2-10 0-37-6.5-43.4C514 499 508 482 492 481.5zm175 .5c22 26 4 59 2 88 2 19 25 14 31.5.6 15-21 11-62 7-87.2L667 482z"/><path d="M663 439.5c-19 22 23 62 41 38 0-17-9.8-42-29-42.1l-12 4.1zm-169 10.1c-18 19 22 57 39.5 37.9 5-14-10.8-48-28-44.8l-11.5 6.9z" style="fill:#fff"/><path class="st40" d="M499 444.5c-34 26 14 55-2.5 101.9-24 67 23.5 65 43 10C547 536 534 418 499 444.5z"/><path class="st40" d="M487 461c5 21 27 37 47 31m124-27c7 15.5 31 24.5 47 17"/><path class="st40" d="M675 435c-31 0-17 39-6 56 11 18 11 39.9 2 59-11.5 24 13 49 30 20 17-29.9 13.5-135-26-135.4v.4z"/><path class="st68" d="M475 406.9c-20 11-25 33.5-36 52-8 13.5-25 22-27 38.5-7 29.5 27 14.5 14 49.1-6 24 5 29.7 16.5 47 7 15-4 32 2 46.9 3 7 12 13 19 9M486 628c14-5 21.5 15 35 12m132-238c-15 8-27 23-30 39.5-4 19-5 31-18 45.5-14 15-16 53 11.5 52.5 4 17-20 56 5 65m19.5-4.7c21 1.5 21 35.5 43 35m30.5-26.8c14 0 27-8 34.5-19m-185-86c3.5 5 9 8 15 9.8"/><path class="st68" d="M439.9 501.9c-2 4-5 8-9 10.7m71.1-74.1c-44 21-2 59.8-8 94-2 19-15 39-8 58.5 6 17 26 13 33-1m150-159.1c-48 14 12 70 1 101-3 16-14 33-3.5 48 7 11 26 11 29-3M622 515.5c-2 6-4 12-9 16M734 510c2 7 6.5 13 12 16"/><path d="M512 414.5c6 2 10 7 13 12m5 12.5c0 1 1 2 1 3m30 38.8c5 2 9 6 11 11m-8 43.2c5 7 5 15.5-1 20.7m-8 8.5-1 1M537 609c2 8-3.5 17-12 19.8m-79-89.9c-5 9-5 19.7 0 28m22 63.7c-1 3-3 5-6 6m219-225.8c8 1 16 5 18 12.5m4 11.7s1 3 1 2m30 58c4 2 6.5 6 9 9.5m-7 42.5c7.5 8 10 20 6 30.6m-9 7.4c-1 .6-2 1-3 1.5M697.5 611c-1 5-4 8-8 11M626 574c-1 6-1 11.5 1 17m-16-78c0-6 3.5-12 9-14" style="fill:none;stroke:#fff;stroke-width:10;stroke-linecap:round;stroke-linejoin:round;stroke-miterlimit:10"/></g><path d="M358 439.8c-17.5-12-38-5-39 13.3-21-8-46-5-65 7.1-10-26 15.6-32 14-53.9-1.4-19.8-5-43 12-56.4 0 12 11 26 23 20.3 16-9.6-1-35 9.5-46.6s15.2-20.2 6-32.9-28.5-29-15-44.6c37.5 37 62.9-35.5 97-40.4 23-3.3 48 17.5 69 5.7-7.5-3-12-12-10-19.4 10 23 38.5-7 46-12.5 33-27 77 27 86-7.8 6-23-37-25-25-58 21 40.5 80.9-9 119.6 40.4 52.1 66.4 55 18.5 47 4.1 79 24 53.1 116.3 83.5 109 12-2.9 14-19.9 31-14-35 37 51 90.9-47 152 2-16 1-29-4-43.8l15 15.4c-26-39.6-65.7-22.8-75-9.3-6.8 9.9-11 23-23 27.5 7-15-11.5-35-26-23.6-4.5 4-4 13.5 2 15.8-26 5-43.1-22.5-67-26-12-1.8-24 12-15 21.8-8-2-13.9-10.1-20-15.6-26.5-23.6-50.5 17-19.5 24.9-23 17.5-48.9-8.3-71-15.1-26.9-8.3-56 1-39.5 33.9-12.5-14-38-39-55-19.3-7 11 2 26-1.5 38-10-18-40-12.5-39 9.6" style="stroke-linecap:round;stroke-linejoin:round;stroke-width:10px;stroke:#000;fill:#710cc7"/><path d="M362 443.9c4-22 25-18 39-5.7 5.5-17-2.8-28.9 3-39 13.5-23.7 39.8 15 57 20.8-21-42 15.4-45.8 45-29.1 19.7 11.1 51.5 25 67 1.5-10.9-4-22-21.1-2-23.2 15-1.6 27 27 43 17.5-10-11-4.8-30.3 24-10.4 12.1 8.4 27 14 42 17 10 2 18-2 9-10-4-8 18-22 17.5 20.6 36-15 34-61 88-37M306 252.4c0 19 19.3 29.7 24 46.6 6.1 21.9-21 22-19 58m-37 2.9c3 7 18 21 25 12m166.5-166.5c16.5 7 24-12 34-21m83-.8c9-3 15.9-12 14-21.3-3.1-15-23-22-27-37M741 164.6c2 9-1 25-13 24m111.8 68.8c-7 2-11 9.9-17 13.4s-15 2-17-5m-.8 110.5c3 6 2.5 12 2 19" style="opacity:.6;fill:none;isolation:isolate;stroke-linecap:round;stroke-linejoin:round;stroke-width:10px;stroke:#000"/><path d="M834 325.7a60.7 60.7 0 0 1-2 25m-6 11.3-2 4m-65-175.1c7 7 11 16 15 25m3.5 14 1 3.1M632 145.2c10-3 21 1 29 7m10 8.8 3 4m-155 22.9c6-1 11 0 16.5 2m-155.7 46.5a38.8 38.8 0 0 1 16.5-14m15.2-1.4 4.5 1M279 380.2a75.7 75.7 0 0 0-1 15m1 13.8v4m240-39.3c5 4 11 7 17 9.8M508 367l-3-1.5m144.5-8.3c5 4 9.6 8 15 12" style="stroke:#fff;opacity:.83;fill:none;isolation:isolate;stroke-linecap:round;stroke-linejoin:round;stroke-width:10px"/><circle cx="550" cy="550" r="500" style="fill:none;stroke:#000;stroke-width:10;stroke-linecap:round;stroke-linejoin:round;stroke-miterlimit:10"/></svg>