<svg version="1.1" id="Layer_1" xmlns="http://www.w3.org/2000/svg" x="0" y="0" viewBox="0 0 1100 1100" style="enable-background:new 0 0 1100 1100" xml:space="preserve" xmlns:xlink="http://www.w3.org/1999/xlink"><style type="text/css">.st300{fill:#00DE72;stroke:#000000;stroke-width:10;stroke-linecap:round;stroke-linejoin:round;stroke-miterlimit:10;}</style><circle class="st300" cx="550" cy="553.7" r="500"/><linearGradient id="a8" gradientUnits="userSpaceOnUse" x1="558.119" y1="436.228" x2="806.198" y2="309.187" gradientTransform="matrix(1 0 0 -1 0 1100)"><stop offset="0" style="stop-color:#03fcf4"/><stop offset=".089" style="stop-color:#03f2f4"/><stop offset=".244" style="stop-color:#03d5f5"/><stop offset=".446" style="stop-color:#03a8f7"/><stop offset=".686" style="stop-color:#0368f9"/><stop offset=".957" style="stop-color:#0318fc"/><stop offset="1" style="stop-color:#030bfc"/></linearGradient><path style="fill:url(#a8)" d="M777.5 632.2c-21 64 38 96 31 151-4 29-37 44-59 23-39 0 84 96-74 61.8l-98-255 200 19v.2z"/><linearGradient id="b4" gradientUnits="userSpaceOnUse" x1="173.214" y1="619.428" x2="438.218" y2="483.425" gradientTransform="matrix(1 0 0 -1 0 1100)"><stop offset="0" style="stop-color:#03fcf4"/><stop offset=".089" style="stop-color:#03f2f4"/><stop offset=".244" style="stop-color:#03d5f5"/><stop offset=".446" style="stop-color:#03a8f7"/><stop offset=".686" style="stop-color:#0368f9"/><stop offset=".957" style="stop-color:#0318fc"/><stop offset="1" style="stop-color:#030bfc"/></linearGradient><path style="fill:url(#b4)" d="M331 377.1c-59 101.5-46 59.7-77 80.7-27 18-93-2-93 37 6 29.8 36 8.5 48 20 16.5 28-46 23-13 56.7 10.7-1 12 9.6 12 18 0 41 56 5 46 90 6 41 63 35 53.5-7.9-12-53.5 59-31 9.6 55.8-4 34 41 54 54.5 19l-42-202.6 70.9-144.5L331 377v.1z"/><linearGradient id="c3" gradientUnits="userSpaceOnUse" x1="342.781" y1="569.57" x2="468.781" y2="505.57" gradientTransform="matrix(1 0 0 -1 0 1100)"><stop offset="0" style="stop-color:#03fcf4"/><stop offset=".089" style="stop-color:#03f2f4"/><stop offset=".244" style="stop-color:#03d5f5"/><stop offset=".446" style="stop-color:#03a8f7"/><stop offset=".686" style="stop-color:#0368f9"/><stop offset=".957" style="stop-color:#0318fc"/><stop offset="1" style="stop-color:#030bfc"/></linearGradient><path style="fill:url(#c3)" d="M331 545c2 0 123 8 129 8.3l-5 70.8-124-79.4v.3z"/><linearGradient id="d3" gradientUnits="userSpaceOnUse" x1="192.925" y1="662.852" x2="343.925" y2="585.852" gradientTransform="matrix(1 0 0 -1 0 1100)"><stop offset="0" style="stop-color:#03fcf4"/><stop offset=".089" style="stop-color:#03f2f4"/><stop offset=".244" style="stop-color:#03d5f5"/><stop offset=".446" style="stop-color:#03a8f7"/><stop offset=".686" style="stop-color:#0368f9"/><stop offset=".957" style="stop-color:#0318fc"/><stop offset="1" style="stop-color:#030bfc"/></linearGradient><path style="fill:url(#d3)" d="M333 383s39.8 16 59 24.2L330 545s-123 30.6-123 30c-9.6-3-26-12-19.7-22 10.9-17 59-39.8-12-39.8-19.7 0-16-35 1-41.8 10-4 15 11 103-20C305 426 320 398 333 382.6v.4z"/><linearGradient id="e3" gradientUnits="userSpaceOnUse" x1="286.992" y1="458.984" x2="489.992" y2="354.984" gradientTransform="matrix(1 0 0 -1 0 1100)"><stop offset="0" style="stop-color:#03fcf4"/><stop offset=".089" style="stop-color:#03f2f4"/><stop offset=".244" style="stop-color:#03d5f5"/><stop offset=".446" style="stop-color:#03a8f7"/><stop offset=".686" style="stop-color:#0368f9"/><stop offset=".957" style="stop-color:#0318fc"/><stop offset="1" style="stop-color:#030bfc"/></linearGradient><path style="fill:url(#e3)" d="M370 736.6c-12-64-28-126.5-40-191.7l125 79.3 33.5-10s-33 200-33 201C369 878 384 757 370 736.6z"/><linearGradient id="f3" gradientUnits="userSpaceOnUse" x1="439.222" y1="373.432" x2="708.222" y2="235.432" gradientTransform="matrix(1 0 0 -1 0 1100)"><stop offset="0" style="stop-color:#03fcf4"/><stop offset=".089" style="stop-color:#03f2f4"/><stop offset=".244" style="stop-color:#03d5f5"/><stop offset=".446" style="stop-color:#03a8f7"/><stop offset=".686" style="stop-color:#0368f9"/><stop offset=".957" style="stop-color:#0318fc"/><stop offset="1" style="stop-color:#030bfc"/></linearGradient><path style="fill:url(#f3)" d="M455 817.1c11.5-68 23-137 34-204.8l103 38s83.5 217 83 217c-38 12 25 108-48 107.6-50-5-29-103-86-109.9 4 32-31 59.6-51 25-12-24.5-2-61-35-72.9z"/><linearGradient id="g1" gradientUnits="userSpaceOnUse" x1="532.938" y1="679.879" x2="827.935" y2="528.88" gradientTransform="matrix(1 0 0 -1 0 1100)"><stop offset="0" style="stop-color:#03fcf4"/><stop offset=".089" style="stop-color:#03f2f4"/><stop offset=".244" style="stop-color:#03d5f5"/><stop offset=".446" style="stop-color:#03a8f7"/><stop offset=".686" style="stop-color:#0368f9"/><stop offset=".957" style="stop-color:#0318fc"/><stop offset="1" style="stop-color:#030bfc"/></linearGradient><path style="fill:url(#g1)" d="M795 370.7c7.5 30-8 63 0 93.1 9 34 71 72 29.9 108-18 0-17-9-46 67.3l-200.8-12.3-28-255.8h244.8l.1-.3z"/><linearGradient id="h1" gradientUnits="userSpaceOnUse" x1="638.618" y1="629.254" x2="830.554" y2="531.286" gradientTransform="matrix(1 0 0 -1 0 1100)"><stop offset="0" style="stop-color:#03fcf4"/><stop offset=".089" style="stop-color:#03f2f4"/><stop offset=".244" style="stop-color:#03d5f5"/><stop offset=".446" style="stop-color:#03a8f7"/><stop offset=".686" style="stop-color:#0368f9"/><stop offset=".957" style="stop-color:#0318fc"/><stop offset="1" style="stop-color:#030bfc"/></linearGradient><path style="fill:url(#h1)" d="M774 639c-53.5-3.5-104-6-159-9.6l-39.9-44.1 29-8.4 24.5-69.5s164-129.5 165.5-128c-13 153 35 82 43 169.7 3 32-32 17-35 33.1C797 601.5 788 620 774 638.8v.2z"/><linearGradient id="i1" gradientUnits="userSpaceOnUse" x1="614.019" y1="789.038" x2="783.019" y2="703.038" gradientTransform="matrix(1 0 0 -1 0 1100)"><stop offset="0" style="stop-color:#03fcf4"/><stop offset=".089" style="stop-color:#03f2f4"/><stop offset=".244" style="stop-color:#03d5f5"/><stop offset=".446" style="stop-color:#03a8f7"/><stop offset=".686" style="stop-color:#0368f9"/><stop offset=".957" style="stop-color:#0318fc"/><stop offset="1" style="stop-color:#030bfc"/></linearGradient><path style="fill:url(#i1)" d="m642 247.4-59.5 171.4c70.9-9.6 146-17 213-42 7-26-22.5-44-43-50C809 236 695 243 642 247v.4z"/><linearGradient id="j1" gradientUnits="userSpaceOnUse" x1="442.133" y1="833.26" x2="643.133" y2="730.26" gradientTransform="matrix(1 0 0 -1 0 1100)"><stop offset="0" style="stop-color:#03fcf4"/><stop offset=".089" style="stop-color:#03f2f4"/><stop offset=".244" style="stop-color:#03d5f5"/><stop offset=".446" style="stop-color:#03a8f7"/><stop offset=".686" style="stop-color:#0368f9"/><stop offset=".957" style="stop-color:#0318fc"/><stop offset="1" style="stop-color:#030bfc"/></linearGradient><path style="fill:url(#j1)" d="M449.9 240c10 4 22 4 33 1.1 14-4 25-15 36.5-24 11-9 25-17 39-17s27 9 38 17c16 12 32.5 25 52 32.5l-58 224.1L449.9 240z"/><linearGradient id="k" gradientUnits="userSpaceOnUse" x1="357.104" y1="807.111" x2="658.067" y2="653.13" gradientTransform="matrix(1 0 0 -1 0 1100)"><stop offset="0" style="stop-color:#03fcf4"/><stop offset=".089" style="stop-color:#03f2f4"/><stop offset=".244" style="stop-color:#03d5f5"/><stop offset=".446" style="stop-color:#03a8f7"/><stop offset=".686" style="stop-color:#0368f9"/><stop offset=".957" style="stop-color:#0318fc"/><stop offset="1" style="stop-color:#030bfc"/></linearGradient><path style="fill:url(#k)" d="M462 244c-10-2.5-21-5-32-4.5s-22 4-29 12.1-9 21-3 29.6c3 4 7 8 5 12-1.5 3.5-6 4-9.8 4-14 0-27 2-39.7 7.9-12 6-23 16-27 29-2 6-2 13-2 19.7 0 9 1 18 3 26.5l300 126.5-49-106.6L462 244z"/><linearGradient id="l" gradientUnits="userSpaceOnUse" x1="435.046" y1="589.091" x2="595.046" y2="507.091" gradientTransform="matrix(1 0 0 -1 0 1100)"><stop offset="0" style="stop-color:#03fcf4"/><stop offset=".089" style="stop-color:#03f2f4"/><stop offset=".244" style="stop-color:#03d5f5"/><stop offset=".446" style="stop-color:#03a8f7"/><stop offset=".686" style="stop-color:#0368f9"/><stop offset=".957" style="stop-color:#0318fc"/><stop offset="1" style="stop-color:#030bfc"/></linearGradient><path style="fill:url(#l)" d="M629.6 507.4c-8 23-16 47-25 70.4l-149.9 46.8 12-185.6 163 68v.4z"/><linearGradient id="m" gradientUnits="userSpaceOnUse" x1="506.773" y1="513.561" x2="653.773" y2="437.561" gradientTransform="matrix(1 0 0 -1 0 1100)"><stop offset="0" style="stop-color:#03fcf4"/><stop offset=".089" style="stop-color:#03f2f4"/><stop offset=".244" style="stop-color:#03d5f5"/><stop offset=".446" style="stop-color:#03a8f7"/><stop offset=".686" style="stop-color:#0368f9"/><stop offset=".957" style="stop-color:#0318fc"/><stop offset="1" style="stop-color:#030bfc"/></linearGradient><path style="fill:url(#m)" d="M578 586.2c-31 9-58 17-89.8 27.9l163 56.8L578 586v.2z"/><linearGradient id="n" gradientUnits="userSpaceOnUse" x1="441.998" y1="531.996" x2="496.998" y2="503.996" gradientTransform="matrix(1 0 0 -1 0 1100)"><stop offset="0" style="stop-color:#03fcf4"/><stop offset=".089" style="stop-color:#03f2f4"/><stop offset=".244" style="stop-color:#03d5f5"/><stop offset=".446" style="stop-color:#03a8f7"/><stop offset=".686" style="stop-color:#0368f9"/><stop offset=".957" style="stop-color:#0318fc"/><stop offset="1" style="stop-color:#030bfc"/></linearGradient><path style="fill:url(#n)" d="M461 527.8c-2 34-4 65-6 96.7l34-10.6-28-86.1z"/><linearGradient id="o" gradientUnits="userSpaceOnUse" x1="359.947" y1="627.897" x2="470.947" y2="570.897" gradientTransform="matrix(1 0 0 -1 0 1100)"><stop offset="0" style="stop-color:#03fcf4"/><stop offset=".089" style="stop-color:#03f2f4"/><stop offset=".244" style="stop-color:#03d5f5"/><stop offset=".446" style="stop-color:#03a8f7"/><stop offset=".686" style="stop-color:#0368f9"/><stop offset=".957" style="stop-color:#0318fc"/><stop offset="1" style="stop-color:#030bfc"/></linearGradient><path style="fill:url(#o)" d="M391 406.9c-21 48.5-38 86-61 138l129.5 9.1 7.5-115.1-76-32z"/><style>.st40{fill:none;stroke:#000;stroke-width:10;stroke-linecap:round;stroke-linejoin:round;stroke-miterlimit:10}.st98{opacity:.6;enable-background:new}</style><g id="Outline"><path class="st98" d="M793 537c-1 .7-1 2-.5 3 5 10 11 35 25 30 8-2 21-13 18-22.4-.5-1-2-2-3-1.5-26 12-28-11-39-9.4v.3zm-34 274.5c6 5 26 8 25-3-6-7-20.6-12-21.5-26C750 772 744 803 759 811.5zm-219.3 52s1 .5 1 .8c9 13.5-3 36-18 40-34 6-9-6-6-44 .3-5.3 22.3 2.7 23 3.2zM342 731c5 7-4 22-4 33 8 13 29.6-5 33-14.9 2-12-17-21-28-20.2-1 .1-1 1.1-1 2.1zm31-120.2c2 23-8 47-26 61.9-13 10.9-17.5-30.6-8-27.9 6 4.2 28-18.8 34-34zm-157-59.9c-8 6-17 3-25 1-11 5 4 20 13.5 16 5-4 12-9 12-15.7-.5-.2-1.5-.2-.5-1.3zM337 473c-6-10-3-23 0-34 0-1 0-2-.6-2-9-9-23 11-19.8 20.7C318 463 338 475 337 472.8v.2z"/><path class="st98" d="M326 392c-2 29 24 45 7 44-7 2-14 1-15 11-1 11-24 0-24.5-1.3C285 433 317 404.5 326 392zm103-118c-9.9-4-16-16-18-25-4-6-9.9 1-11 6-7 54 29.5 28 29 19zm293 9c16 21 29.5 12 40 20.7 3 4 1 9.6-1 14-3 9-13 9-20 4.1-14.5-5.8-22-22.2-19-38.8z"/><path class="st40" d="M347 729c53.5 5 15 86 59 102 25 9 37-19.8 55-11.9 23 10.1 19.6 40 24 60.7 9.6 46 63 29.6 58-12.8"/><path class="st40" d="M519 861c89-9 47.5 119 114.5 115 39-6 35-47 25-76.5-3-9 0-18.5 7-24.5 24.5-21 59 15.5 84-2.5 15-11 8-33-2-45-12-15 0-32 10-43"/><path class="st40" d="M790 539c53 69.8-64 71 8 194.5 6 14 11 32 11 48.5 0 32-49 47.5-61 16"/><path class="st40" d="M721 287c2 51 64 31 74 88 6 34-11.5 71 7 103 10 18 27 31.5 34 51 8 19-4 47-27 42"/><path class="st40" d="M407 290.6c-16-8-12-29.9-2-41 17-15 40.5-10 61-6 29.8 1 49-29 75-38 50-17 81 55 133 44 23-5 48-11 69 1 25 14 33 55 10 75"/><path class="st40" d="M428 278c-16 26.5-51 17.5-76 28.5-20 10.5-28 33-23 55 10 47-43 51-39 88m25 4.5c1.5-23 35-26 41-5 7 25-13 47 16 72"/><path class="st40" d="M334 476c-20-34-61-31.5-89-9.6-20 8-43-3-64 4-22 7-28 37-5 43.5 6.5 2 23-2 26-1 15 4 11 25-5 30-21 6-10 29 6 29"/><path class="st40" d="M216 554.5c-15 15-14 41 2 55 37 22 41 31 36 69.7-2 31 46 41 53.5 10 2-10.8-4-22 0-33 13-32 44 20 62-44.5"/><path class="st40" d="M327 647.9c25 29.7-.5 47-7 75-10 32.5 34 65 53 25"/><path d="M729 262.5c9 4 16 13 18 22.5m-193-68c12.5 2 24.5 8 34 16m9 9 3 3m-163 10c-5.5-.9-12 .6-15.5 4M362 319.6c-9 2-14 10.7-16 19M339 449c4 1 6 6 6 9.8M308.5 470c-12-6-16-5-22-4M175 492c1-4 5-7 9-7.5m38 89.5c-4 8 0 16 4 19.9m44 78.6c-1 6 1 15 9 18m76-77.5c-3 14-13 14.5-16 16m4.5 119.5c-5-3-9-9-8-15M397 782c-1 14.5 7 28 14 30m90 53.9c-3 12 2 27 14.5 25M636 957c14-3 17-28 11-38m96-60.1c1-7 0-14-4-19m46-49.1c8-6.5 9-25 3-39M786 582c5-8 3-19-3-26m37-12c2-8.5-.6-18-7-24m-56-169c18 6 22 30 21 35" style="opacity:.7882;fill:none;stroke:#fff;stroke-width:10;stroke-linecap:round;stroke-linejoin:round;stroke-miterlimit:10;enable-background:new"/></g><style>.st113{fill:url(#SVGID_00000161607897382723119130000008384714424499667899_);stroke:#000;stroke-width:10;stroke-linecap:round;stroke-linejoin:round;stroke-miterlimit:10}.st115{fill:url(#SVGID_00000060750496457387242310000012666657064974295186_)}.st116{opacity:.6902;fill:url(#SVGID_00000147217783223614028420000005859567438160853156_);enable-background:new}</style><g id="Diamond"><linearGradient id="SVGID_00000047747315158047275670000003291867314489516677_" gradientUnits="userSpaceOnUse" x1="288.392" y1="548.057" x2="314.227" y2="509.458"><stop offset="0" style="stop-color:#00fff2"/><stop offset=".094" style="stop-color:#00f2f3"/><stop offset=".271" style="stop-color:#00cef5"/><stop offset=".51" style="stop-color:#0095f8"/><stop offset=".799" style="stop-color:#0047fc"/><stop offset="1" style="stop-color:#000dff"/></linearGradient><path style="fill:url(#SVGID_00000047747315158047275670000003291867314489516677_)" d="M288 501.7c2 15 4 33 7 46.8l29-6.4-36-40.4z"/><linearGradient id="SVGID_00000141446425912342851330000003408777914311007933_" gradientUnits="userSpaceOnUse" x1="267.149" y1="523.397" x2="303.78" y2="545.402"><stop offset="0" style="stop-color:#00fff2"/><stop offset=".095" style="stop-color:#00f1f3"/><stop offset=".273" style="stop-color:#00cef5"/><stop offset=".514" style="stop-color:#0094f8"/><stop offset=".807" style="stop-color:#0045fc"/><stop offset="1" style="stop-color:#000dff"/></linearGradient><path style="fill:url(#SVGID_00000141446425912342851330000003408777914311007933_)" d="M264 553.5c10-2 20.5-4 30.7-5.8l-6-43.6-24.7 49.4z"/><linearGradient id="SVGID_00000109030460764858650640000015191774076603487363_" gradientUnits="userSpaceOnUse" x1="274.137" y1="586.606" x2="296.946" y2="541.468"><stop offset="0" style="stop-color:#00fff2"/><stop offset="1" style="stop-color:#000dff"/></linearGradient><path style="fill:url(#SVGID_00000109030460764858650640000015191774076603487363_)" d="m260.1 554 34.9-6.3 6 45.4z"/><linearGradient id="SVGID_00000006686354308698079230000008291800467576291461_" gradientUnits="userSpaceOnUse" x1="288.999" y1="550.828" x2="317.454" y2="572.732"><stop offset="0" style="stop-color:#00fff2"/><stop offset=".125" style="stop-color:#00e8f3"/><stop offset=".388" style="stop-color:#00abf6"/><stop offset=".764" style="stop-color:#004cfc"/><stop offset="1" style="stop-color:#000dff"/></linearGradient><path style="fill:url(#SVGID_00000006686354308698079230000008291800467576291461_)" d="M301 593.8c-3-16-4-28.5-7-46.1l26.5-5.6-19.5 51.7z"/><path style="fill:none;stroke:#000;stroke-width:10;stroke-linecap:round;stroke-linejoin:round;stroke-miterlimit:10" d="m287 495-27.1 58.9L303 602l23-60.6z"/><path d="M282 493.7c-9.8 22-19 40.6-28 60.8l46 52" style="opacity:.6;fill:none;stroke:#000;stroke-width:10;stroke-linecap:round;stroke-linejoin:round;stroke-miterlimit:10"/></g><style>.st40,.st68{fill:none;stroke-width:10;stroke-linecap:round;stroke-linejoin:round;stroke-miterlimit:10;stroke:#000}.st68{opacity:.6;enable-background:new}</style><g id="Happy_Beard"><linearGradient id="SVGID_00000012458921589117142250000001255892426965824154_" gradientUnits="userSpaceOnUse" x1="482.466" y1="444.183" x2="708.475" y2="85.169" gradientTransform="matrix(.9987 .05075 .05075 -.9987 14.064 1042.44)"><stop offset="0" style="stop-color:#00a2ff"/><stop offset=".654" style="stop-color:#aa36e8"/><stop offset="1" style="stop-color:#f0d"/></linearGradient><path style="fill:url(#SVGID_00000012458921589117142250000001255892426965824154_);stroke:#000;stroke-width:10;stroke-linecap:round;stroke-linejoin:round;stroke-miterlimit:10" d="M749.8 654c37 24 16.5 79 8.5 114-16 55 39 72 17 127.5-43-56-34 11-42 16.3-19-69-64-3-13 17.9-4 24-57-17-46 57.5-23-10.7-20.8-39.9-26-60.9-6-18-26-20.8-36-4.5-9.8 20.8-19 43-41 55 4-43-33-56-39-64.9-5-8-2-20.6-10-26-15-10-28 12-43 13.2 26-41-19.5-103-26-30-28-26-11-53-23-61-8-4-15 8-24 8 12.5-20.5-2-44-5-65.6-9-66 51.5-97 109-72.5 82 35 64-11 110-8.9 54 3 86-44 129-15.4v.3z"/><path d="M441 706c-36 33 0 64 9.9 68 44 21 49 42 67 62 28 26 56 18 87 2.2 19.5-9.9 43 1 65-1 30.6-3 59-32 55-64-6-46 7-36 20-56 8-12 1-29-10-37.3-33-22-53 13-81 19.5-12 2-24-4-36-4-24 0-45 44-112 4.9-22-13-48-10.7-65 5.3v.4z" style="fill:#fe1767"/><path d="M582 710.6c22.5 7 43 21 58 38.9 24-16 58-5 82 8-4-19 14-28 22-42.5 12-22-13-65-67-27.5-39 30.5-54-11.5-95 23.1z"/><path d="M629.8 745c-22-17-48-8-72-2.9-54 11-82-46-125-24 27-47 81-13 94-7.9C573 729 583 691 629.8 745zm26.2 40c2-22 25-37 46-37-17-14-45-9-62 3.6l16 33.4z" style="fill:#ae0f45"/><path class="st40" d="M441 706c-36 33 0 64 9.9 68 44 21 49 42 67 62 28 26 56 18 87 2.2 19.5-9.9 43 1 65-1 30.6-3 59-32 55-64-6-46 7-36 20-56 8-12 1-29-10-37.3-33-22-53 13-81 19.5-12 2-24-4-36-4-24 0-45 44-112 4.9-22-13-48-10.7-65 5.3v.4z"/><path class="st68" d="M433 710c-15 15-16 41-2 57 9.9 12 26 16 38 26 24.5 18 35 53 65 64.5 31 12 59-13 88-18 19.7-4 51 12 66-7m-264-153c-59 41-7 89-22 134"/><path d="M606 741c11 8 17 21 22 33m7 14 1 4m50-33c8 2 16 6 22 12.5m20-111.7c10 1 19.8 7 25 16m4 11.2 1 3.5M751.5 833c5 6 8 12.5 11 19.5M767 863l1 3m-171 56c-2 6-4 11-8 17m-6 10-2 2M448.5 817c-1 5 0 11 .5 16" style="fill:none;stroke:#fff;stroke-width:10;stroke-linecap:round;stroke-linejoin:round;stroke-miterlimit:10"/><path class="st40" d="M582 712c38 7.5 66 45 75 80.7M640 749c30-16 57-9 83 10.9"/><path class="st68" d="M731 897c.9-8.5 5-22 15-23m-48 21c-4 13 0 34 14 38m-59 19c3 9.5 9 18 16.5 24M487 861c4.5 11.5 7 19.9 3 29m-73-82c2-9 .7-22-7-28.5"/></g><linearGradient id="a19" gradientUnits="userSpaceOnUse" x1="569.719" y1="943.832" x2="764.719" y2="730.832" gradientTransform="scale(1 -1) rotate(-7.793 -9231.448 -329.654)"><stop offset="0" style="stop-color:#00fff2"/><stop offset=".09" style="stop-color:#00f4f3"/><stop offset=".25" style="stop-color:#00d6f4"/><stop offset=".46" style="stop-color:#00a5f7"/><stop offset=".713" style="stop-color:#0062fa"/><stop offset="1" style="stop-color:#000dff"/></linearGradient><path style="fill:url(#a19)" d="M637.5 543.3c47 179.5 155 8 146-52-6 13-26 22-29 2 .9-28 39.7-80 24-103.9-7 12-19.7 26-29.6 29.3-9 3-39-.8-30-23-5 7-15 23-23 25-14 3-20.6-17-24-28-23.5 47 8.5 48-1 72.4-18 17-32-9.9-29.6-27-11 18-23 44-8 62 9 10 24 13 32.5 23 6 7 9 17 3 23.5-12.8 10.4-24.8.4-31.3-3.6v.3z"/><linearGradient id="b8" gradientUnits="userSpaceOnUse" x1="360.012" y1="935.045" x2="525.135" y2="714.881" gradientTransform="scale(1 -1) rotate(-7.793 -9231.448 -329.654)"><stop offset="0" style="stop-color:#00fff2"/><stop offset=".09" style="stop-color:#00f8f2"/><stop offset=".225" style="stop-color:#00e3f3"/><stop offset=".388" style="stop-color:#00c2f5"/><stop offset=".573" style="stop-color:#0093f8"/><stop offset=".776" style="stop-color:#0057fb"/><stop offset=".992" style="stop-color:#0010ff"/><stop offset="1" style="stop-color:#000dff"/></linearGradient><path style="fill:url(#b8)" d="M412 396c29 16 5 54-13.5 31-12 45 33 35 37 77 3 26-24.5 34-31 6-12 20.5 2 38 18 52 11 9.7 8 27.5 11 41.6 10.5 47 78 52 97 8.5 5-12 6-26 13-37 13-16 35-31 33-53.9-11.5 18-41 9-26-12.2 8-11.5 22-17 33-27 15-13 22-34 19.8-54-7 16-32 15-22-5 10-19.8 10.6-31.5-4-48.8-2 49.8-72 22-42-8-15 6-23 19-29 33.5-5 12-21 21-34 19-21-6-24-42-60-23v.3z"/><path d="M764 425c-1 9.8-6 19-11 28m-3 10.5c-.5.9-1 2-1.5 3m7.5 83.2c-10.5 24-19.5 38-42.5 53M693 609h4.5m-59-135c-1 8 4 15 9 19M520 593.9c-2 14-14 29-27.5 32m-18.5.1c1.5 0 3 1 4 .8m75-81.8c-3 4-6 8-10 11m43-103c-2 7.5-7 14-13 19m-8 7.8c-1 .5-1 1-2 2m10-73.8c0 4-2 7-4 9.7M439.5 408c4 2 6 6 9 9.8m-37 31.2c2 5 6 8 10 10" style="fill:none;stroke:#fff;stroke-width:10;stroke-linecap:round;stroke-linejoin:round;stroke-miterlimit:10"/><path d="M410 397.5c8 8 11 21 7.5 32m-22-3.5c-21 46 49.8 50 32 99M401 509.6c-13 20 3 41 17 58 12 15 6 39 18 55 15 24 51 30 73 13M575 519c-6 6-14 8-22 8m47-99.5c-4 5-10 8-17 9m-9-63.5c-2 12-10 24-22 28m-21-36c-29 6-23 44-53 55m159 15c-49 84 26.5 67 29 108.5m-33-.5c10.5 49 49 119.9 100 63m49-115c-7 5-17 12-24 9m17-113c-9.5 14-23 25-39 32m-20-27c-10 8-15 27-31 24.5M668 389c-30 50 17 59-9 80" style="opacity:.6;fill:none;stroke:#000;stroke-width:10;stroke-linecap:round;stroke-linejoin:round;stroke-miterlimit:10;enable-background:new"/><path d="M429 478c17.5 17 35 34 52 51-.9-8-2-16-2.5-23 23 21 45 44 68 64 12.5-11 21-27 29-43-11 8-34 2-30-14.1L469 452.3v31l-47-52c-7 2.5-16 3-23 1-3 28 13 34 30 45.3v.4zm40-57c27 27 54 54.5 82 81 5-3 10.7-7 16-9.8-79-76-2-2-79-77m160 53.3c15 18 30 36 44 54v-19c19 27 39 53 61 77.8 2-5 5-10 9-14.9-9.8-11-46-57-73-91-2 13-2 11-2 16-5.5-9-11-17-17-26m2-18.9c33 32.5 66 66 97.5 99.2l7-9c-37-39-56-57-112-116" style="opacity:.6118;fill:#fff;enable-background:new"/><path d="M412 396c29 16 5 54-13.5 31-12 45 33 35 37 77 3 26-24.5 34-31 6.4-12 20.5 2 38 18 52 11 9.7 8 27.5 11 42 10 47 78 52 97 8.5 5-12 6-26 13-36.7 13-16 35-31 33-53.9-11.5 18-41 9-26-12 8-11 22-17 33-27 15-13 22-34 19.8-53.6-7 16-32 15-22-5 10-19.8 10.6-31.5-4-49-2 49.8-72 22-42-8-15 6-23 19-29 33.5-5 12-21 21-34 19C451 413 448.5 377 412 395.7v.3zm225.5 147c47 179.5 155 8 146-52-6 13-26 22-29 2 .9-28 39.7-80 24-103.9-7 12-19.7 26-29.6 29-9 3-39-.8-30-23-5 7-15 23-23 25-14 3-20.6-17-24-28.2-23.5 47 8.5 48-1 72-18 17-32-9.9-29.6-27-11 18-23 44-8 62 9 10 24 13 32.5 22.8 6 7 9 17 3 23.5C656 557 644 547 637.5 543z" style="stroke:#000;fill:none;stroke-width:10;stroke-linecap:round;stroke-linejoin:round;stroke-miterlimit:10"/><circle cx="550" cy="550" r="500" style="fill:none;stroke:#000;stroke-width:10;stroke-linecap:round;stroke-linejoin:round;stroke-miterlimit:10"/></svg>