<svg version="1.1" id="Layer_1" xmlns="http://www.w3.org/2000/svg" x="0" y="0" viewBox="0 0 1100 1100" style="enable-background:new 0 0 1100 1100" xml:space="preserve" xmlns:xlink="http://www.w3.org/1999/xlink"><style type="text/css">.st301{fill:#005BEF;stroke:#000000;stroke-width:10;stroke-linecap:round;stroke-linejoin:round;stroke-miterlimit:10;}</style><circle class="st301" cx="550" cy="553.7" r="500"/><path d="M533 208.9c-68 59.6-71 20-121 36.5-19.6 10.9-14 30-9.7 39.6 11 23-51 9-69 40.3-10 18 .1 42-7.5 61.8-9 19.6-34 35-37 52.2-43 48-154 7-119 70.4 6 11 33-6 39 9.1 7 17.5-39 29-21 46.7 18 5 21 39.9 57 63.2 14 20 3 51 19 69.1 35.8 38 46-25 41-34.3 4-39 44-11 22 38.7-23 52 11 74 36.5 56.6 38.5-10.5-14 99.9 89.9 62.9 18 1 28 22 29.8 40.3 6.5 63 54 46 59 8 15.5-34 45 49 47 59.9 11 73 69 42 71 17.9 3-54-3-60.1 2-68.3 18.5-31 71 13 90.8-15.5 14-19.7-31-63.5 8-55.4 94 19 19-101 14-120.4-9-35.5 14-106 47-121.7 18-9 17-35.5 7-52.8-9.5-17-25-30.6-31-48.9-13.5-54 22-102-36-133.3-5-3-7-9.5-4-14.4 17-26 1-66-32-71.4-22-3-44 9-66.5 6.3-43.3-5-79.7-74-126.3-43.1z" style="fill:#6e6e6e"/><path d="M551 531.2c-4 3-8-6-7-10.6 4-11 19.9-5 21 5.1 2 20.5-29 26-35 8.3-21-61 99.7-54 64 5.1-54 90.6-144-47-56-74.4 130.8-41 127 189-29.6 124.6-72-29.7-55-145 2-180.5 135-85 249 165 93 228.2-143 57.5-250.6-133-173-249.8 107-159.7 406.5-57 311 228.4-70.5 210.6-543 143-434-182.1C352 299 516 201 654 250.8c30 0 126.5-31 113 52-33 55 26 7 31 79.3 0 86-26 50 41 148 9 23-7 48-33 45.2-1 40-60 47-9 153.5 38 78-20 102-49.7 72.9-8 15.5 47 92.5-37 69.6-30-10.8-57 1-48 35.8 19 70.6-30 79.7-53 58.5-28-26-21-98-63-99.5 8 29.8-35 59-54 29.1-11-24-6-70-35-79.2 42-25 95-13 141-23.5C757 756 824 534.5 761 388.2c-64-146-280.5-139-361-10.4-65 104-36 285 99 311.6 252 49.5 279.7-339.5 82-329-188 9.9-179 317 14 246.8 76-28 70.5-116 2-162.2-61-41-141 47-97 103.9 65 85 178.5-53 64-70-52-8-65.5 82-9.8 75.2 11-1 21-12 22-23.1 2-29.7-43-31-38-.8 2 11 19.5 14 21 1.8-.2-5-1.2-6.2-8.2-.8z" style="fill:#d9d9d9"/><style>.st40{fill:none;stroke:#000;stroke-width:10;stroke-linecap:round;stroke-linejoin:round;stroke-miterlimit:10}.st98{opacity:.6;enable-background:new}</style><g id="Outline"><path class="st98" d="M793 537c-1 .7-1 2-.5 3 5 10 11 35 25 30 8-2 21-13 18-22.4-.5-1-2-2-3-1.5-26 12-28-11-39-9.4v.3zm-34 274.5c6 5 26 8 25-3-6-7-20.6-12-21.5-26C750 772 744 803 759 811.5zm-219.3 52s1 .5 1 .8c9 13.5-3 36-18 40-34 6-9-6-6-44 .3-5.3 22.3 2.7 23 3.2zM342 731c5 7-4 22-4 33 8 13 29.6-5 33-14.9 2-12-17-21-28-20.2-1 .1-1 1.1-1 2.1zm31-120.2c2 23-8 47-26 61.9-13 10.9-17.5-30.6-8-27.9 6 4.2 28-18.8 34-34zm-157-59.9c-8 6-17 3-25 1-11 5 4 20 13.5 16 5-4 12-9 12-15.7-.5-.2-1.5-.2-.5-1.3zM337 473c-6-10-3-23 0-34 0-1 0-2-.6-2-9-9-23 11-19.8 20.7C318 463 338 475 337 472.8v.2z"/><path class="st98" d="M326 392c-2 29 24 45 7 44-7 2-14 1-15 11-1 11-24 0-24.5-1.3C285 433 317 404.5 326 392zm103-118c-9.9-4-16-16-18-25-4-6-9.9 1-11 6-7 54 29.5 28 29 19zm293 9c16 21 29.5 12 40 20.7 3 4 1 9.6-1 14-3 9-13 9-20 4.1-14.5-5.8-22-22.2-19-38.8z"/><path class="st40" d="M347 729c53.5 5 15 86 59 102 25 9 37-19.8 55-11.9 23 10.1 19.6 40 24 60.7 9.6 46 63 29.6 58-12.8"/><path class="st40" d="M519 861c89-9 47.5 119 114.5 115 39-6 35-47 25-76.5-3-9 0-18.5 7-24.5 24.5-21 59 15.5 84-2.5 15-11 8-33-2-45-12-15 0-32 10-43"/><path class="st40" d="M790 539c53 69.8-64 71 8 194.5 6 14 11 32 11 48.5 0 32-49 47.5-61 16"/><path class="st40" d="M721 287c2 51 64 31 74 88 6 34-11.5 71 7 103 10 18 27 31.5 34 51 8 19-4 47-27 42"/><path class="st40" d="M407 290.6c-16-8-12-29.9-2-41 17-15 40.5-10 61-6 29.8 1 49-29 75-38 50-17 81 55 133 44 23-5 48-11 69 1 25 14 33 55 10 75"/><path class="st40" d="M428 278c-16 26.5-51 17.5-76 28.5-20 10.5-28 33-23 55 10 47-43 51-39 88m25 4.5c1.5-23 35-26 41-5 7 25-13 47 16 72"/><path class="st40" d="M334 476c-20-34-61-31.5-89-9.6-20 8-43-3-64 4-22 7-28 37-5 43.5 6.5 2 23-2 26-1 15 4 11 25-5 30-21 6-10 29 6 29"/><path class="st40" d="M216 554.5c-15 15-14 41 2 55 37 22 41 31 36 69.7-2 31 46 41 53.5 10 2-10.8-4-22 0-33 13-32 44 20 62-44.5"/><path class="st40" d="M327 647.9c25 29.7-.5 47-7 75-10 32.5 34 65 53 25"/><path d="M729 262.5c9 4 16 13 18 22.5m-193-68c12.5 2 24.5 8 34 16m9 9 3 3m-163 10c-5.5-.9-12 .6-15.5 4M362 319.6c-9 2-14 10.7-16 19M339 449c4 1 6 6 6 9.8M308.5 470c-12-6-16-5-22-4M175 492c1-4 5-7 9-7.5m38 89.5c-4 8 0 16 4 19.9m44 78.6c-1 6 1 15 9 18m76-77.5c-3 14-13 14.5-16 16m4.5 119.5c-5-3-9-9-8-15M397 782c-1 14.5 7 28 14 30m90 53.9c-3 12 2 27 14.5 25M636 957c14-3 17-28 11-38m96-60.1c1-7 0-14-4-19m46-49.1c8-6.5 9-25 3-39M786 582c5-8 3-19-3-26m37-12c2-8.5-.6-18-7-24m-56-169c18 6 22 30 21 35" style="opacity:.7882;fill:none;stroke:#fff;stroke-width:10;stroke-linecap:round;stroke-linejoin:round;stroke-miterlimit:10;enable-background:new"/></g><defs><style>.zab-3{fill:none;stroke-linecap:round;stroke-linejoin:round;stroke-width:10px;stroke:#000}</style></defs><path d="M550.4 800.2C662.9 839.6 644 929 776.5 930.6c13.5-.7 27.2-1.4 40.4 2.5-1.7-10.8-9.3-20-19-25.5 13.1-9 30.1-6.3 43.7-.4-14-38.5-70.6-36.5-95.8-66.8-15.5-16.5-13.2-39.1-18.6-59.3-10.7-40-59.7-71.3-98.4-48.6-48.9-68.9-140.1-51.6-157.3-28.1-27.1 37.1 2.7 87.5 78.9 95.8Z" style="fill:#ff0059"/><path d="M592.1 693.6a240.8 240.8 0 0 1 36.9 39.3c34.1-22.9 80.2 4.7 95.2 38.6 36.1-26.3 31.7-93.9-15.4-104.3-23.4-2.5-80.2 26.4-116.7 26.4Z"/><path d="M520.4 791.5q5.4-10.7 10.5-21.3l14.2 28.2Zm-18.7-103c9.8 16 20.1 31.8 30.9 47.1l14.8-47.1Zm161.9-9.4c11 11.9 19.5 26 31.4 37l11.4-48.4Zm48.9 73.3 6.7-23.2 19.6 23.4-14.7 18.4-11.6-18.6z" style="fill:#fff"/><path class="zab-3" d="M767.3 894.2c19.5 17.4 40.7 6.7 55.6 41.9-19.2-7.7-40.6-4.7-61.2-6-137.3-8.9-91.2-107.9-248.8-137.2-28.9-5.4-61.1-40.2-50.2-72.1 21.5-63.1 110.6-18.9 161.8-31.1 32.9-7.8 73-35.9 104-13.3 33.8 24.8 23.7 68.1-3.1 96.1"/><path class="zab-3" d="M580.4 690.8c32.9 15 55 49.4 68.6 81.9m-18.7-39.8c35.5-25.6 86.8 10.4 95.2 48.5 5.1 23.4 6.7 49.5 26.3 66.4 28.2 24.3 76.3 24.4 95.5 60.9-15.7-5.7-34.9-11.3-49.8-1M500.6 689l33.2 50.3 14.6-50"/><path class="zab-3" d="M663.4 680a402.5 402.5 0 0 1 32 40.4l12.2-50.8M519 791.8c4.3-7.9 6.7-14.5 13-23.8l15.3 32m165-50.3a224.9 224.9 0 0 1 7.8-22.2l20.8 23.6"/><path d="M480.1 696.3c-38.8 20.9-21.3 73.2 3.3 90.5 41 28.8 70.2-11 172.3 100.5M531.2 767.2l-18.3 22.5m254.7 102.4c12.9 10.1 30.7 6.8 45.8 10" style="opacity:.6;stroke:#000;fill:none;stroke-linecap:round;stroke-linejoin:round;stroke-width:10px"/><path d="M604 729.2a90.1 90.1 0 0 1 18.8 29.4m6.2 13.6 1.9 3.3m53.8-28.5a47.4 47.4 0 0 1 22.6 28.5m3 12.5.8 2.8M677 884.1a103.4 103.4 0 0 0 37.2 22.7m11.2 3.5 3.6 1m55.1-31.2a49.8 49.8 0 0 1 18.4 8.1" style="stroke:#fff;opacity:.83;fill:none;stroke-linecap:round;stroke-linejoin:round;stroke-width:10px"/><path d="M653.1 772.7c-4.7-16.5.8-36.2 17.1-43.9-13.4-4.3-30.6-1.6-41.9 2.7m-12.9-7.2c-21.5-13-45.2-16.2-70.3-15.2 1.7-5.2.9-14.8 1.3-20.7 28.1-3.2 53.5 10.4 69 35.9Zm-85.2 18.5c-17.6-20.5-30.2-43.2-61.3-31.8 5.1-9.6 21.5-17.9 31.5-22.3" style="opacity:.6"/><defs><linearGradient id="ze" x1="411.69" y1="535.4" x2="547.43" y2="535.4" gradientUnits="userSpaceOnUse"><stop offset="0" stop-color="#0ff"/><stop offset="1" stop-color="#00f"/></linearGradient><linearGradient id="ze-2" x1="519.79" y1="532.03" x2="604.49" y2="532.03" xlink:href="#ze"/><linearGradient id="ze-3" x1="595.22" y1="562.5" x2="709.15" y2="562.5" xlink:href="#ze"/><linearGradient id="ze-4" x1="626.17" y1="477.22" x2="754.31" y2="477.22" xlink:href="#ze"/><style>.ze-2,.ze-7{stroke:#000;stroke-linecap:round;stroke-linejoin:round;stroke-width:10px;fill:none}.ze-2{opacity:.6}</style></defs><path d="M657.6 445.2c-10.2 14.7 7.8 30.8 24.5 35.3s22.5 22.4 36.9 28.4c40.5 17.2-18.5-125.4-61.4-63.7Zm-144.9 13.4c-23.1-10.5-70.3 84.4-73.7 106.9-6.5 43.3 40.7 62.5 34.9 3.1-3.1-31.3 82.8-90.1 38.8-110Zm42.6 89.2c-14.9-1.3-14.8 37.5-8.6 59.4s44.4-6.9 28.9-23.5c-13.9-15-7.4-34.7-20.3-35.9Zm60.5-22.5c-11.7 17 21.5 28.1 25.2 45.7 9 43.5 60.1 5.8 37.3-21.4-8-9.5-21.7-9-31.7-15-6.6-3.9-22.3-21.6-30.8-9.3Z" style="stroke-linecap:round;stroke-linejoin:round;stroke-width:10px;stroke:#000;fill:#fff"/><path class="ze-2" d="M501.6 435.2c-43.9 16.5-103.5 102.3-94.6 151.7 5 27.7 34.9 65.7 64.3 48.5m102.5-204.9c-25.2 21 5.3 38-29.5 86.3-16.6 23.1-29.3 51.4-29.8 80.3-.5 36.3 46.6 57.7 71.5 29.9m6.3-101.6c-3.9 12.9 3.4 25.6 9.8 36.3 19.2 31.8 11.5 28 18 41.7 20.5 43.1 79.3 12.5 87.1-25.2m-81.7-146.9c-8.6 16.4-4.6 39.5 7.1 53.4s33.3 13.2 62.8 38.6c12.8 11.1 38.2 38.7 52 15.7"/><path class="ze-2" d="M501.4 455c-34.5 24.8-69.1 81.5-67.8 124.7.4 14.8 17 38.6 32.2 24.9m79.8-56.1c-11.4 15.1-14.2 85.8 18.4 66.5m45.9-86.4c-3.4 15.5 13.6 24.5 21.4 35.4s8.6 23.5 19.6 29.2c14 7.2 29.5-5.5 31.9-19.6m-31.7-125.2c-4.5 20.9 16.9 33.1 33.5 39.5 13.7 5.2 29.8 36.5 45.1 21.3"/><path d="M671.1 436.5c-16.7 22.4 36.3 35.4 34.5 9.4 7.2 6.6 13.8 16.7 14.9 26.5-3.6 7.4-12.4 15.6-21.1 14.8-8.7-5.5-71.1-24.4-28.3-50.7Zm-47.3 106c6 7.2 22.6 1.5 18.5-6.9 8.6 6.3 21.8 5.3 28.8 13.6-1 6.4-32.1 31.5-47.3-6.7Zm-76.9 20.4c-.6 9 11.7 14.8 17 6.8 23.2 21.5-14.2 22.3-17.6 16.3-2.6-8-1-13 .6-23.1Zm-44.8-98.2c-12.6 12.2-6.9 38.7 13.1 30.8-15.8 22.1-22.6 63.4-56 41.5-16.6-10.9 24.1-65 42.9-72.3Z"/><path d="M502 436.9c-24.7 10-130.4 119.4-74 181.9 25.4 28.2 68.2 27 68.2-36.9 0-43.1 59-87.4 50.4-120.3-4.8-18-23.3-33.4-44.6-24.7Z" style="fill:url(#ze);opacity:.72"/><path d="M576.3 432c-20.8 18.6 6.9 39.7-21.4 80.6-83.6 120.5 4.8 138.2 31.8 113.4 43.6-40-31.5-66.5-6.8-105.9 49.4-78.6 11.6-101.7-3.6-88.1Z" style="fill:url(#ze-2);opacity:.72"/><path d="M598.4 517.5c-11.4 22.1 11 43.8 20.3 63.3 8.2 17.1 5.9 33.6 28.5 38.3 30.8 6.5 75-37.4 58.3-66.8-13.2-23.3-89.5-69-107.1-34.8Z" style="fill:url(#ze-3);opacity:.72"/><path d="M631.1 429.8c-13.2 27.6 1.1 57.2 29.2 65.9 23.3 7.2 40.2 27.8 60.5 43.2 52.8 40.2 42-120-23.8-129-18.7-2.6-56.5.2-65.9 19.9Z" style="fill:url(#ze-4);opacity:.72"/><path class="ze-7" d="M502 436.9c-24.7 10-130.4 119.4-74 181.9 25.4 28.2 68.2 27 68.2-36.9 0-43.1 59-87.4 50.4-120.3-4.8-18-23.3-33.4-44.6-24.7Zm74.3-4.9c-20.8 18.6 6.9 39.7-21.4 80.6-83.6 120.5 4.8 138.2 31.8 113.4 43.6-40-31.5-66.5-6.8-105.9 49.4-78.6 11.6-101.7-3.6-88.1Z"/><path class="ze-7" d="M598.4 517.5c-11.4 22.1 11 43.8 20.3 63.3 8.2 17.1 5.9 33.6 28.5 38.3 30.8 6.5 75-37.4 58.3-66.8-13.2-23.3-89.5-69-107.1-34.8Zm32.7-87.7c-13.2 27.6 1.1 57.2 29.2 65.9 23.3 7.2 40.2 27.8 60.5 43.2 52.8 40.2 42-120-23.8-129-18.7-2.6-56.5.2-65.9 19.9Z"/><path d="M701.4 426.4c18.7 4.2 28.6 34.2 34.5 55.6m1.1 13.3a52.3 52.3 0 0 1 0 12.5m-105.2 13.4a107.8 107.8 0 0 1 40.1 20.9m10.7 8.4a27.4 27.4 0 0 0 3.6 3.2m-97.3-111.3c2.9 3.5 3.1 8.3 3.1 12.6m-8.3 130.6a21.6 21.6 0 0 1-5.1 26.2m-9.1 6a25.3 25.3 0 0 1-3.6 1.2m-36.2-157.8c2.7 8.8-.3 18.1-4.6 25.9m-6.5 11.8-1.4 2.3m-37.8 85.5a37.9 37.9 0 0 1-4.1 22.2m-6.5 10.1a10.5 10.5 0 0 1-2.8 1.4" style="stroke:#fff;stroke-linecap:round;stroke-linejoin:round;stroke-width:10px;fill:none"/><defs><linearGradient id="zbm" x1="557" y1="390.36" x2="524.49" y2="55.58" gradientUnits="userSpaceOnUse"><stop offset="0" stop-color="#ff003b"/><stop offset="1" stop-color="#ffc400"/></linearGradient><linearGradient id="zbm-2" x1="549.79" y1="299" x2="555.18" y2="378.33" gradientUnits="userSpaceOnUse"><stop offset="0" stop-color="#ffc800"/><stop offset="1" stop-color="#ff00ae"/></linearGradient><style>.zbm-3{fill:none;stroke:#000;stroke-linecap:round;stroke-linejoin:round;stroke-width:10px}</style></defs><path d="M316.7 353c-63-155.5-37.1-219.2 128.3-254.6 191.6-41.2 362.9-25.6 358.4 214.7-161.7-13.6-328.6.5-486.7 39.9Z" style="fill:url(#zbm)"/><path d="M317.3 403.1c-9.2 12.5-26.4 20.8-27.1 38.3-246.4-126.3 825.4-205.6 507.3-39.3 0-14.4 1.3-30.2-10-44.1a1069.4 1069.4 0 0 0-470.2 45.1Z" style="fill:url(#zbm-2)"/><path class="zbm-3" d="M816.2 359.4c-178.6-21.7-358.6-11-528.1 54.1"/><path class="zbm-3" d="M790.7 358.2c8.1 13.7 6.8 29.5 6.8 43.9 318.1-166.3-753.7-87-507.3 39.3.7-17.5 17.9-25.8 27.1-38.3"/><path class="zbm-3" d="M316.7 353c-63-155.5-37.1-219.2 128.3-254.6 191.6-41.2 359.9-25.1 359.9 215.2"/><path d="M787.5 205.3c-133.3-32.4-409.5 9.4-497.4 58.6 2 11.1 4.4 22.2 8.4 37.5 156.4-56.5 331.7-87.3 497.4-59.6Z" style="stroke-linecap:round;stroke-linejoin:round;stroke-width:10px;stroke:#000"/><path d="M791.5 364.6a1178 1178 0 0 0-478.6 45m503.3-50.2c-6.5.9-15.1 4.9-18.7 10.8M287.2 415a23 23 0 0 1 13.2 1.6m497.1-169c-163.6-22.8-340.7-7.1-492.8 61.7" style="opacity:.6;stroke-linecap:round;stroke-linejoin:round;stroke-width:10px;stroke:#000;fill:none"/><path d="M834.6 338.8a192.7 192.7 0 0 0-46-11.5m-14.4-2-6.8-.9m-433.7 43.3c-15.2 3.6-29.1 7.5-41 15.7m-17.1 8 3.3-1.8M684.1 118a78.6 78.6 0 0 1 40.3 26.8m10.5 13.6 3.7 5.1m46.3 101.1a86.7 86.7 0 0 1 1.5 26.9M313.6 181.7a76.4 76.4 0 0 1 35.5-34.4m-43.3 48.9-1.8 5.5" style="stroke:#fff;opacity:.78;fill:none;stroke-linecap:round;stroke-linejoin:round;stroke-width:10px"/><circle cx="550" cy="550" r="500" style="fill:none;stroke:#000;stroke-width:10;stroke-linecap:round;stroke-linejoin:round;stroke-miterlimit:10"/></svg>