<svg version="1.1" id="Layer_1" xmlns="http://www.w3.org/2000/svg" x="0" y="0" viewBox="0 0 1100 1100" style="enable-background:new 0 0 1100 1100" xml:space="preserve" xmlns:xlink="http://www.w3.org/1999/xlink"><style type="text/css">.st302{fill:#6A10EB;stroke:#000000;stroke-width:10;stroke-linecap:round;stroke-linejoin:round;stroke-miterlimit:10;}</style><circle class="st302" cx="550" cy="553.7" r="500"/><linearGradient id="a8" gradientUnits="userSpaceOnUse" x1="558.119" y1="436.228" x2="806.198" y2="309.187" gradientTransform="matrix(1 0 0 -1 0 1100)"><stop offset="0" style="stop-color:#03fcf4"/><stop offset=".089" style="stop-color:#03f2f4"/><stop offset=".244" style="stop-color:#03d5f5"/><stop offset=".446" style="stop-color:#03a8f7"/><stop offset=".686" style="stop-color:#0368f9"/><stop offset=".957" style="stop-color:#0318fc"/><stop offset="1" style="stop-color:#030bfc"/></linearGradient><path style="fill:url(#a8)" d="M777.5 632.2c-21 64 38 96 31 151-4 29-37 44-59 23-39 0 84 96-74 61.8l-98-255 200 19v.2z"/><linearGradient id="b4" gradientUnits="userSpaceOnUse" x1="173.214" y1="619.428" x2="438.218" y2="483.425" gradientTransform="matrix(1 0 0 -1 0 1100)"><stop offset="0" style="stop-color:#03fcf4"/><stop offset=".089" style="stop-color:#03f2f4"/><stop offset=".244" style="stop-color:#03d5f5"/><stop offset=".446" style="stop-color:#03a8f7"/><stop offset=".686" style="stop-color:#0368f9"/><stop offset=".957" style="stop-color:#0318fc"/><stop offset="1" style="stop-color:#030bfc"/></linearGradient><path style="fill:url(#b4)" d="M331 377.1c-59 101.5-46 59.7-77 80.7-27 18-93-2-93 37 6 29.8 36 8.5 48 20 16.5 28-46 23-13 56.7 10.7-1 12 9.6 12 18 0 41 56 5 46 90 6 41 63 35 53.5-7.9-12-53.5 59-31 9.6 55.8-4 34 41 54 54.5 19l-42-202.6 70.9-144.5L331 377v.1z"/><linearGradient id="c3" gradientUnits="userSpaceOnUse" x1="342.781" y1="569.57" x2="468.781" y2="505.57" gradientTransform="matrix(1 0 0 -1 0 1100)"><stop offset="0" style="stop-color:#03fcf4"/><stop offset=".089" style="stop-color:#03f2f4"/><stop offset=".244" style="stop-color:#03d5f5"/><stop offset=".446" style="stop-color:#03a8f7"/><stop offset=".686" style="stop-color:#0368f9"/><stop offset=".957" style="stop-color:#0318fc"/><stop offset="1" style="stop-color:#030bfc"/></linearGradient><path style="fill:url(#c3)" d="M331 545c2 0 123 8 129 8.3l-5 70.8-124-79.4v.3z"/><linearGradient id="d3" gradientUnits="userSpaceOnUse" x1="192.925" y1="662.852" x2="343.925" y2="585.852" gradientTransform="matrix(1 0 0 -1 0 1100)"><stop offset="0" style="stop-color:#03fcf4"/><stop offset=".089" style="stop-color:#03f2f4"/><stop offset=".244" style="stop-color:#03d5f5"/><stop offset=".446" style="stop-color:#03a8f7"/><stop offset=".686" style="stop-color:#0368f9"/><stop offset=".957" style="stop-color:#0318fc"/><stop offset="1" style="stop-color:#030bfc"/></linearGradient><path style="fill:url(#d3)" d="M333 383s39.8 16 59 24.2L330 545s-123 30.6-123 30c-9.6-3-26-12-19.7-22 10.9-17 59-39.8-12-39.8-19.7 0-16-35 1-41.8 10-4 15 11 103-20C305 426 320 398 333 382.6v.4z"/><linearGradient id="e3" gradientUnits="userSpaceOnUse" x1="286.992" y1="458.984" x2="489.992" y2="354.984" gradientTransform="matrix(1 0 0 -1 0 1100)"><stop offset="0" style="stop-color:#03fcf4"/><stop offset=".089" style="stop-color:#03f2f4"/><stop offset=".244" style="stop-color:#03d5f5"/><stop offset=".446" style="stop-color:#03a8f7"/><stop offset=".686" style="stop-color:#0368f9"/><stop offset=".957" style="stop-color:#0318fc"/><stop offset="1" style="stop-color:#030bfc"/></linearGradient><path style="fill:url(#e3)" d="M370 736.6c-12-64-28-126.5-40-191.7l125 79.3 33.5-10s-33 200-33 201C369 878 384 757 370 736.6z"/><linearGradient id="f3" gradientUnits="userSpaceOnUse" x1="439.222" y1="373.432" x2="708.222" y2="235.432" gradientTransform="matrix(1 0 0 -1 0 1100)"><stop offset="0" style="stop-color:#03fcf4"/><stop offset=".089" style="stop-color:#03f2f4"/><stop offset=".244" style="stop-color:#03d5f5"/><stop offset=".446" style="stop-color:#03a8f7"/><stop offset=".686" style="stop-color:#0368f9"/><stop offset=".957" style="stop-color:#0318fc"/><stop offset="1" style="stop-color:#030bfc"/></linearGradient><path style="fill:url(#f3)" d="M455 817.1c11.5-68 23-137 34-204.8l103 38s83.5 217 83 217c-38 12 25 108-48 107.6-50-5-29-103-86-109.9 4 32-31 59.6-51 25-12-24.5-2-61-35-72.9z"/><linearGradient id="g1" gradientUnits="userSpaceOnUse" x1="532.938" y1="679.879" x2="827.935" y2="528.88" gradientTransform="matrix(1 0 0 -1 0 1100)"><stop offset="0" style="stop-color:#03fcf4"/><stop offset=".089" style="stop-color:#03f2f4"/><stop offset=".244" style="stop-color:#03d5f5"/><stop offset=".446" style="stop-color:#03a8f7"/><stop offset=".686" style="stop-color:#0368f9"/><stop offset=".957" style="stop-color:#0318fc"/><stop offset="1" style="stop-color:#030bfc"/></linearGradient><path style="fill:url(#g1)" d="M795 370.7c7.5 30-8 63 0 93.1 9 34 71 72 29.9 108-18 0-17-9-46 67.3l-200.8-12.3-28-255.8h244.8l.1-.3z"/><linearGradient id="h1" gradientUnits="userSpaceOnUse" x1="638.618" y1="629.254" x2="830.554" y2="531.286" gradientTransform="matrix(1 0 0 -1 0 1100)"><stop offset="0" style="stop-color:#03fcf4"/><stop offset=".089" style="stop-color:#03f2f4"/><stop offset=".244" style="stop-color:#03d5f5"/><stop offset=".446" style="stop-color:#03a8f7"/><stop offset=".686" style="stop-color:#0368f9"/><stop offset=".957" style="stop-color:#0318fc"/><stop offset="1" style="stop-color:#030bfc"/></linearGradient><path style="fill:url(#h1)" d="M774 639c-53.5-3.5-104-6-159-9.6l-39.9-44.1 29-8.4 24.5-69.5s164-129.5 165.5-128c-13 153 35 82 43 169.7 3 32-32 17-35 33.1C797 601.5 788 620 774 638.8v.2z"/><linearGradient id="i1" gradientUnits="userSpaceOnUse" x1="614.019" y1="789.038" x2="783.019" y2="703.038" gradientTransform="matrix(1 0 0 -1 0 1100)"><stop offset="0" style="stop-color:#03fcf4"/><stop offset=".089" style="stop-color:#03f2f4"/><stop offset=".244" style="stop-color:#03d5f5"/><stop offset=".446" style="stop-color:#03a8f7"/><stop offset=".686" style="stop-color:#0368f9"/><stop offset=".957" style="stop-color:#0318fc"/><stop offset="1" style="stop-color:#030bfc"/></linearGradient><path style="fill:url(#i1)" d="m642 247.4-59.5 171.4c70.9-9.6 146-17 213-42 7-26-22.5-44-43-50C809 236 695 243 642 247v.4z"/><linearGradient id="j1" gradientUnits="userSpaceOnUse" x1="442.133" y1="833.26" x2="643.133" y2="730.26" gradientTransform="matrix(1 0 0 -1 0 1100)"><stop offset="0" style="stop-color:#03fcf4"/><stop offset=".089" style="stop-color:#03f2f4"/><stop offset=".244" style="stop-color:#03d5f5"/><stop offset=".446" style="stop-color:#03a8f7"/><stop offset=".686" style="stop-color:#0368f9"/><stop offset=".957" style="stop-color:#0318fc"/><stop offset="1" style="stop-color:#030bfc"/></linearGradient><path style="fill:url(#j1)" d="M449.9 240c10 4 22 4 33 1.1 14-4 25-15 36.5-24 11-9 25-17 39-17s27 9 38 17c16 12 32.5 25 52 32.5l-58 224.1L449.9 240z"/><linearGradient id="k" gradientUnits="userSpaceOnUse" x1="357.104" y1="807.111" x2="658.067" y2="653.13" gradientTransform="matrix(1 0 0 -1 0 1100)"><stop offset="0" style="stop-color:#03fcf4"/><stop offset=".089" style="stop-color:#03f2f4"/><stop offset=".244" style="stop-color:#03d5f5"/><stop offset=".446" style="stop-color:#03a8f7"/><stop offset=".686" style="stop-color:#0368f9"/><stop offset=".957" style="stop-color:#0318fc"/><stop offset="1" style="stop-color:#030bfc"/></linearGradient><path style="fill:url(#k)" d="M462 244c-10-2.5-21-5-32-4.5s-22 4-29 12.1-9 21-3 29.6c3 4 7 8 5 12-1.5 3.5-6 4-9.8 4-14 0-27 2-39.7 7.9-12 6-23 16-27 29-2 6-2 13-2 19.7 0 9 1 18 3 26.5l300 126.5-49-106.6L462 244z"/><linearGradient id="l" gradientUnits="userSpaceOnUse" x1="435.046" y1="589.091" x2="595.046" y2="507.091" gradientTransform="matrix(1 0 0 -1 0 1100)"><stop offset="0" style="stop-color:#03fcf4"/><stop offset=".089" style="stop-color:#03f2f4"/><stop offset=".244" style="stop-color:#03d5f5"/><stop offset=".446" style="stop-color:#03a8f7"/><stop offset=".686" style="stop-color:#0368f9"/><stop offset=".957" style="stop-color:#0318fc"/><stop offset="1" style="stop-color:#030bfc"/></linearGradient><path style="fill:url(#l)" d="M629.6 507.4c-8 23-16 47-25 70.4l-149.9 46.8 12-185.6 163 68v.4z"/><linearGradient id="m" gradientUnits="userSpaceOnUse" x1="506.773" y1="513.561" x2="653.773" y2="437.561" gradientTransform="matrix(1 0 0 -1 0 1100)"><stop offset="0" style="stop-color:#03fcf4"/><stop offset=".089" style="stop-color:#03f2f4"/><stop offset=".244" style="stop-color:#03d5f5"/><stop offset=".446" style="stop-color:#03a8f7"/><stop offset=".686" style="stop-color:#0368f9"/><stop offset=".957" style="stop-color:#0318fc"/><stop offset="1" style="stop-color:#030bfc"/></linearGradient><path style="fill:url(#m)" d="M578 586.2c-31 9-58 17-89.8 27.9l163 56.8L578 586v.2z"/><linearGradient id="n" gradientUnits="userSpaceOnUse" x1="441.998" y1="531.996" x2="496.998" y2="503.996" gradientTransform="matrix(1 0 0 -1 0 1100)"><stop offset="0" style="stop-color:#03fcf4"/><stop offset=".089" style="stop-color:#03f2f4"/><stop offset=".244" style="stop-color:#03d5f5"/><stop offset=".446" style="stop-color:#03a8f7"/><stop offset=".686" style="stop-color:#0368f9"/><stop offset=".957" style="stop-color:#0318fc"/><stop offset="1" style="stop-color:#030bfc"/></linearGradient><path style="fill:url(#n)" d="M461 527.8c-2 34-4 65-6 96.7l34-10.6-28-86.1z"/><linearGradient id="o" gradientUnits="userSpaceOnUse" x1="359.947" y1="627.897" x2="470.947" y2="570.897" gradientTransform="matrix(1 0 0 -1 0 1100)"><stop offset="0" style="stop-color:#03fcf4"/><stop offset=".089" style="stop-color:#03f2f4"/><stop offset=".244" style="stop-color:#03d5f5"/><stop offset=".446" style="stop-color:#03a8f7"/><stop offset=".686" style="stop-color:#0368f9"/><stop offset=".957" style="stop-color:#0318fc"/><stop offset="1" style="stop-color:#030bfc"/></linearGradient><path style="fill:url(#o)" d="M391 406.9c-21 48.5-38 86-61 138l129.5 9.1 7.5-115.1-76-32z"/><style>.st40{fill:none;stroke:#000;stroke-width:10;stroke-linecap:round;stroke-linejoin:round;stroke-miterlimit:10}.st98{opacity:.6;enable-background:new}</style><g id="Outline"><path class="st98" d="M793 537c-1 .7-1 2-.5 3 5 10 11 35 25 30 8-2 21-13 18-22.4-.5-1-2-2-3-1.5-26 12-28-11-39-9.4v.3zm-34 274.5c6 5 26 8 25-3-6-7-20.6-12-21.5-26C750 772 744 803 759 811.5zm-219.3 52s1 .5 1 .8c9 13.5-3 36-18 40-34 6-9-6-6-44 .3-5.3 22.3 2.7 23 3.2zM342 731c5 7-4 22-4 33 8 13 29.6-5 33-14.9 2-12-17-21-28-20.2-1 .1-1 1.1-1 2.1zm31-120.2c2 23-8 47-26 61.9-13 10.9-17.5-30.6-8-27.9 6 4.2 28-18.8 34-34zm-157-59.9c-8 6-17 3-25 1-11 5 4 20 13.5 16 5-4 12-9 12-15.7-.5-.2-1.5-.2-.5-1.3zM337 473c-6-10-3-23 0-34 0-1 0-2-.6-2-9-9-23 11-19.8 20.7C318 463 338 475 337 472.8v.2z"/><path class="st98" d="M326 392c-2 29 24 45 7 44-7 2-14 1-15 11-1 11-24 0-24.5-1.3C285 433 317 404.5 326 392zm103-118c-9.9-4-16-16-18-25-4-6-9.9 1-11 6-7 54 29.5 28 29 19zm293 9c16 21 29.5 12 40 20.7 3 4 1 9.6-1 14-3 9-13 9-20 4.1-14.5-5.8-22-22.2-19-38.8z"/><path class="st40" d="M347 729c53.5 5 15 86 59 102 25 9 37-19.8 55-11.9 23 10.1 19.6 40 24 60.7 9.6 46 63 29.6 58-12.8"/><path class="st40" d="M519 861c89-9 47.5 119 114.5 115 39-6 35-47 25-76.5-3-9 0-18.5 7-24.5 24.5-21 59 15.5 84-2.5 15-11 8-33-2-45-12-15 0-32 10-43"/><path class="st40" d="M790 539c53 69.8-64 71 8 194.5 6 14 11 32 11 48.5 0 32-49 47.5-61 16"/><path class="st40" d="M721 287c2 51 64 31 74 88 6 34-11.5 71 7 103 10 18 27 31.5 34 51 8 19-4 47-27 42"/><path class="st40" d="M407 290.6c-16-8-12-29.9-2-41 17-15 40.5-10 61-6 29.8 1 49-29 75-38 50-17 81 55 133 44 23-5 48-11 69 1 25 14 33 55 10 75"/><path class="st40" d="M428 278c-16 26.5-51 17.5-76 28.5-20 10.5-28 33-23 55 10 47-43 51-39 88m25 4.5c1.5-23 35-26 41-5 7 25-13 47 16 72"/><path class="st40" d="M334 476c-20-34-61-31.5-89-9.6-20 8-43-3-64 4-22 7-28 37-5 43.5 6.5 2 23-2 26-1 15 4 11 25-5 30-21 6-10 29 6 29"/><path class="st40" d="M216 554.5c-15 15-14 41 2 55 37 22 41 31 36 69.7-2 31 46 41 53.5 10 2-10.8-4-22 0-33 13-32 44 20 62-44.5"/><path class="st40" d="M327 647.9c25 29.7-.5 47-7 75-10 32.5 34 65 53 25"/><path d="M729 262.5c9 4 16 13 18 22.5m-193-68c12.5 2 24.5 8 34 16m9 9 3 3m-163 10c-5.5-.9-12 .6-15.5 4M362 319.6c-9 2-14 10.7-16 19M339 449c4 1 6 6 6 9.8M308.5 470c-12-6-16-5-22-4M175 492c1-4 5-7 9-7.5m38 89.5c-4 8 0 16 4 19.9m44 78.6c-1 6 1 15 9 18m76-77.5c-3 14-13 14.5-16 16m4.5 119.5c-5-3-9-9-8-15M397 782c-1 14.5 7 28 14 30m90 53.9c-3 12 2 27 14.5 25M636 957c14-3 17-28 11-38m96-60.1c1-7 0-14-4-19m46-49.1c8-6.5 9-25 3-39M786 582c5-8 3-19-3-26m37-12c2-8.5-.6-18-7-24m-56-169c18 6 22 30 21 35" style="opacity:.7882;fill:none;stroke:#fff;stroke-width:10;stroke-linecap:round;stroke-linejoin:round;stroke-miterlimit:10;enable-background:new"/></g><style>.st16,.st40{fill:none;stroke:#fff;stroke-width:10;stroke-linecap:round;stroke-linejoin:round;stroke-miterlimit:10}.st40{stroke:#000}</style><g id="Uhhh"><path d="M454 750c44 128 108 11 219.5 40 76 19.7 48-35-2.5-47.9-89 0 43 77-80.5-18.3-16 19-37.5 19-45.5-6-18 19.6-34 13-46 5-1-.8-3 0-3 1 0 21.2-24 27.2-42 26.2z" style="fill:#fe1767"/><path d="M462 774c6-15 91-49 167-19 2.5-13-29.5-23-39-35-7 23-37 17-48.5-4.9-1 16-22 32-45 3-4 29-19 35-46 29L462 774zm185 2c4-16 23-25 38-27-16-8-37-5-48 9.5l10 17.5z" style="fill:#ae0f45"/><path class="st16" d="M609 748.5c5 3 9.9 7 13 13m5 9.5c.5 1 1 2 1 2.5"/><path d="M622 740c19 37 31-26 106 38 59-75 17-63-1-91-18 49.8-38 12-46 2.6 0 27.5-16 45.5-38 19.9 2 14.5-8 22.5-21 30.5z" style="fill:#0a0a0a"/><linearGradient id="SVGID_00000139981180508707222230000012447543696721124522_" gradientUnits="userSpaceOnUse" x1="599.092" y1="-379.014" x2="612.092" y2="-295.014" gradientTransform="translate(0 1066)"><stop offset="0" style="stop-color:#17dcff"/><stop offset="1" style="stop-color:#3a17ff"/></linearGradient><path style="fill:url(#SVGID_00000139981180508707222230000012447543696721124522_)" d="M453 740.5c16 23 48.5 4 43.5-21.5 19 27 42 19.8 49-9.9 9 59.6 39 13 46 6.9 22 55 46 .5 52-10.5 14 38 30.9-1 38-14 13 29.5 37 17 46-7.5 3 10 15.5 29 26 18 6-21-19.5-76-88.5-30.2-71 71.2-205.1-44.8-212 68.7z"/><path d="M465 706c-1 14 4 29.9 16 38-18 8-29.6-3-30.8-9m67.8-48.1c-8 14-4 32 4 45.5-19-3-25-28-27-44m71 8.6c-4.5 12-4 26 1 38-16-5-20-26-19.8-41.5M611 700c-5 13 3 26 10 36-17.5 4-27-19-28-33m61-22c-2 14 5 27 14.5 36.5-16 3.5-25-15-28-28v1M699 656c-4.5 18 0 37 11 52-20 .5-27-30-27-46m51 3.5c-11.5 39.7 35 55 18 14" style="opacity:.6;enable-background:new"/><path class="st16" d="M676 758c9 2.5 15 9 21 16 0 0-.5 0-.7-.5"/><path d="M718 673c0 6-2 11.5-4 17m-2 5c0 .9-1 2-1 3m-40-15c0 6-1 13-3 19m-37 6c-.5 6-3 11-6 16m-43-13.5c-1 4-3 8-6 11m-4 4.4c0 .5-1 .9-1.5 1M536 704c-1 6-3 11-6 16m-5 4s0 .6-.5.8M485 709c.5 7-1 14.5-3 21m-3 5c0 .8-1 1.5-1 2" style="fill:none;stroke:#fff;stroke-width:5;stroke-linecap:round;stroke-linejoin:round;stroke-miterlimit:10"/><path class="st40" d="M487 688.5c-54 14-41 93-2 116 39.5 23 84-15 126-19 30.6-3 61 13 91 7.7 54-9.8 68-99 38.5-125-38-34-84 9-96 16C577 725 549 672 487 688.5z"/><path class="st40" d="M451 738.5c9 20 57 20 40-49.9 14 78 59 42 52 3 6 77 54 37 47.5 11.3 4 56 61 41 47-13.5 12 48 49 41.5 42-24 5 64 47 59 49-2.9 1 13-2 24 7 35.8 4 5.5 12 8 18 5"/><path class="st40" d="M614 738.5c14 8 25 22 31 37"/><path class="st40" d="M635 757c12-14 55-27 89 24"/><path d="M457 705c-34 39 3 109 51 113.5 39.9 4 76-30 116-27.9 43 6 84 25 115-19" style="opacity:.6;fill:none;stroke:#000;stroke-width:10;stroke-linecap:round;stroke-linejoin:round;stroke-miterlimit:10;enable-background:new"/></g><defs><linearGradient id="zf" x1="420.51" y1="545.37" x2="607.38" y2="545.37" gradientUnits="userSpaceOnUse"><stop offset="0" stop-color="#00d4ff"/><stop offset="1" stop-color="#2a00ff"/></linearGradient><linearGradient id="zf-2" x1="606.81" y1="515.34" x2="752.7" y2="515.34" xlink:href="#zf"/><style>.zf-2,.zf-5{stroke:#000}.zf-2,.zf-5,.zf-6,.zf-7{stroke-linecap:round;stroke-linejoin:round}.zf-2,.zf-5,.zf-6{stroke-width:10px}.zf-2,.zf-5,.zf-6,.zf-7{fill:none}.zf-2{opacity:.6}.zf-6,.zf-7{stroke:#fff}.zf-7{stroke-width:8px}</style></defs><path d="M488.4 466.9c-32.4 16.3-2.2 43.7-2.5 67.8-.2 15.5-5.3 32.3 3.5 46.2 24.7 38.8 74.6-.8 48.1-34.8-12-15.5-20.5-23.5-15.7-44.1s-12.4-45.7-33.4-35.1Zm157.5 7.3c7.9 26.5 21.5 11.9 13.8 58-7.3 43.6 58.7 29.1 38-5.9-26.3-44.6 13.4-53-15.4-79.6-20.3-18.9-41.9 9-36.4 27.5Z" style="stroke-width:10px;stroke-linecap:round;stroke-linejoin:round;stroke:#000;fill:#fff"/><path class="zf-2" d="M439.3 457.5c-29.7 23.6-2.9 58.7-9.5 84.3-5.8 22.7-29.4 47.7 2 57.7m20.2.8c3 11.9 15.1 17.2 25.6 21.8s13.6 14.2 18.9 22.5c13.3 20.5 48 25.8 63.6 4.3M615.6 431c-34.9 41.4 16.7 86.3 4.3 131.1-2.9 10.6-8.6 27.8 4.9 32.8m26.3-.8c9.4 15.1 23.9 40.6 48.4 31.2m26.2-51.4c6.2 2.5 14.8-.3 19.3-5.3m-269.3-97.3c-14.4 19.2 2.4 40.2 4.4 60.3 1.3 14.1-1.7 28.6 2.1 42.6 5.2 19.2 29 35.2 45.5 19.8M650 444c-20.3 25-4 35 4.7 58.5 5.3 14.4-2.9 30.8 1.7 45.2s22.2 19.7 33.1 9.5"/><path d="M484.2 473.3c-18.7 19.5 20.1 57.9 33.7 28.5-1.7 28.3 17.1 39.2 13.1 41.5-25.4 14.5-56.6 16.7-44.9-10.9-2.9-20-24.5-42.8-1.9-59.1ZM653 455.1c-11.2 24.3 27.5 38.1 36.2 14-2.3 11-3.2 23.2-1.7 34.3 3.5 13.5-14.9 11.9-23.2 10.3-.8-20.7-29.1-37.9-11.3-58.6Z"/><path d="M587.1 515.8c32.4-20.1-20.4-36.3-28.1-50.3-10.2-18.7-26.4-31.5-43-33.2-42.2-4.2-93.3 23.3-85.5 68.1 10.7 61.2-5.5 49.5-9.7 74.9-3.2 19.5 18.8 36.7 34.3 20.7 1.1 13.1 34.9 22.4 52.8 54.5 16.9 14.7 43.6 8.6 57-8.2 15.5-19.5-4.4-33 17.8-74.2 51.7 0 6.4-38.9 4.4-52.3Z" style="fill:url(#zf);opacity:.64"/><path d="M724 565.8c56 15.1 14.3-41.8 5.7-60.3-15-32.3 5.3-74-34.3-93.3-41.2-20.1-102.9 21.3-85.6 68.4 28.3 76.9 12.8 81.5 10.3 98.2-3 19.6 20.3 28.7 31.6 11.5 45.9 63.5 78.8 25.6 72.3-24.5Z" style="fill:url(#zf-2);opacity:.64"/><path class="zf-5" d="M453.9 595.7c-14.3 16.3-36.3-.9-33.1-20.4 4.2-25.4 20.4-13.7 9.7-74.9-7.8-44.8 43.3-72.3 85.5-68.1 16.6 1.7 32.8 14.5 43 33.2 7.7 14 22.5 13.6 31.6 22.7s5.8 21.8-3.5 27.6m57.7 65.9c17.8 11.1 19.5 33 37.2 40.2s38.4 2.3 41.1-24c1.7-16.6-4.6-36.3 7.6-50.2"/><path class="zf-5" d="M724 565.8c13.1 13.8 31.5 0 28.6-16.6s-17.9-28-22.9-43.7c-10.7-34 5.3-74-34.3-93.3-41.2-20.1-102.9 21.3-85.6 68.4 28.3 76.9 12.8 81.5 10.3 98.2-3 19.6 20.3 28.7 31.1 11.7m-201.3-13.6c9.9 18.5-.2 31 26.9 39.8 22 7.2 16.7 35 47.4 41.8 23.9 5.2 52.4-14.7 47.3-39.2-6.3-29.6 22.8-53.3 4.3-74.2"/><path class="zf-5" d="M582.7 566.7c10.8 4.1 23.2 0 23.2-16.7 0-21.4-24.8-26.2-30.1-46"/><path class="zf-6" d="M510.5 446.1a21.6 21.6 0 0 1 12 3.8 53.4 53.4 0 0 1 9.4 8.4m9.2 11 2.1 2.7"/><path class="zf-2" d="M576.8 503.7a14.6 14.6 0 0 0 10.2 7M575.4 544c9.7 4.2 8.7 17.6 17.3 22.7m-144 10c.2 8.2-.2 17.2-5.6 23.8m201.1-18.4c-1.4 5.6-3.2 11.9-8.2 15.3m95-49a25.7 25.7 0 0 0 .3 20.7"/><path class="zf-6" d="M681.7 423.8c14.2 1.8 23.6 15.2 25.7 28.6m2.2 14.1-.1 3.6"/><path class="zf-7" d="M739.5 557.6a12.1 12.1 0 0 0 1.9-7.9"/><path class="zf-6" d="M711.1 591.4a22 22 0 0 1-9.2 18.4m8.7-29.3-.4-2.5"/><path class="zf-7" d="M632.1 582.7a17.1 17.1 0 0 1 2.1-10.6m-57.4-80.6a16.7 16.7 0 0 1 6.5 5m3.2 40.3a23.4 23.4 0 0 1 6.2 10.9"/><path class="zf-6" d="M567.7 554.8c2.8 6.1 1.1 13.1-1.7 18.9m-4.9 11.7-.6 2.4m-2.2 35.9c0 8.7-7.6 15-15.2 17.9m-107.5-57.2a14.9 14.9 0 0 1 1.7-14.4"/><defs><style>.zbh-2{fill:none;stroke-linecap:round;stroke-linejoin:round;stroke-width:10px;stroke:#000}</style></defs><path d="M357.3 453.9c38.6 2 75-22.4 99.5-51.8 36 15 77.1 7.7 106.9-18.6 35.3 9.6 78.1 10 106.7-15.6 25.8 8.2 55.4 3.6 78.2-11.2 13.7 7.9 29.3 12.5 44.9 14.4 5 9.7 2.2 21.7 5.1 32 50.5-20.7 54.9-96.4 15.3-130.4-7.4-53-59.9-90.3-113.1-79-39.7-40.8-96.6-35.9-143.6-10-45.6-24.8-82-17.6-121.6 13.4-60.9-16.5-119.9 24.2-131.3 85.2-41.6 3.5-71.1 47.4-52 86.8-20.1 26.5-28.6 64.7-11.7 94.9 21.9-13 47.9-18.8 72.3-10.7 6.9-22.4 39.3-25 44.4.6Z" style="fill:#ff5e00"/><path class="zbh-2" d="M466.3 372.6c-3.4 44.7-65.7 83.2-107.4 81.6"/><path class="zbh-2" d="M560.5 384.4c-22.9 29.9-69.5 29.2-103.3 19m221.1-46c-31 42.4-94.7 40.2-135.4 13.1m127.1-1.6c33.4 10.4 71.9-.9 94.4-27.6"/><path class="zbh-2" d="M748.3 356.8a85.4 85.4 0 0 0 60.1 10.5"/><path class="zbh-2" d="M790.5 266.1c66.3 11.6 64.4 116.9 4.8 138.1a71.2 71.2 0 0 0-1.3-33.4"/><path class="zbh-2" d="M814.8 273.6c-3.9-60.2-83-106.3-133.9-67.8"/><path class="zbh-2" d="M701.8 194.1c-38.8-43.6-112.8-43.2-151.2.7"/><path class="zbh-2" d="M560.5 185.1c-49.9-31.6-113.8-14.7-133 31.8"/><path class="zbh-2" d="M436.8 197.2c-64.9-20.9-136.3 34.6-132.1 102.7"/><path class="zbh-2" d="M305.3 282.9c-44.3-2.7-69.9 49.5-53.2 87.4"/><path class="zbh-2" d="M274.8 360.1c-44 10.4-55 70-34.1 107.1 23.1-14.5 45.6-24.2 74.4-12.4.4-24.3 39.2-28.5 42.2-.6"/><path d="M797.1 281.9a35.6 35.6 0 0 1 20.7 20.6m3.9 11.6a16.8 16.8 0 0 1 .9 3.2M754.7 211a55.5 55.5 0 0 0-32.2-6.7m-12 2.5-3.4.9M627 175.3a90.3 90.3 0 0 0-34.4 6.9m-10.7 6-3.2 1.8m-86.6-6.8a52.9 52.9 0 0 0-28.4 11.8m-10.9 9.7-4.6 4m-87.1 12.8a85.4 85.4 0 0 0-23.8 22.2m-6.6 10.5-1.6 2m-64.3 67.4a50.4 50.4 0 0 0-5 19.8m-9.6 56.7a61.4 61.4 0 0 0-5 27.7m199.7-37.7a89.2 89.2 0 0 1-30.5 28.7m-11.9 6.2-4.9 1.9M538.3 388a56.5 56.5 0 0 1-22.7 6.5m-11.9.5-2.4-.1m157.3-36a81.4 81.4 0 0 1-47.3 15.3m-14.4-1.3-2.6-.2m125.2-16.1a77.1 77.1 0 0 0 23-12.2m-39.2 15.4 3.2-.3m74.4-4.5a39.9 39.9 0 0 0 14.6 1.2" style="stroke:#fff;fill:none;stroke-linecap:round;stroke-linejoin:round;stroke-width:10px"/><path d="M360.3 462.6c37.6-2.2 73.7-20.9 98-49.9 37.5 8.6 78.6 5.9 108.2-22.4 34.9 13.6 76 7.5 106.4-15.1 25.1 7.9 53.7 3.4 76.1-11.6a72.5 72.5 0 0 0 41.9 12.1" style="opacity:.6;stroke:#000;fill:none;stroke-linecap:round;stroke-linejoin:round;stroke-width:10px"/><path d="M812.6 368.9a69.1 69.1 0 0 1-14.2 31.4c.3-10.1.6-20.3-2.6-29.8m-9.2-106.3c6.4-11.8 9.6-26.3 4.6-39.1 7 1.3 21.6 27.2 21.9 47.7m-136.5-68a47.1 47.1 0 0 0-9.2-33.9c13 3.6 26.1 12 33.5 23.2m-153.7 2.4A43.3 43.3 0 0 0 525 173c11.6 2.9 23.8 6.1 32.7 14.1m-133.8 31.8c-5.5-13.7-20-21.2-33.9-23.8 14.4-2 34.6-2.2 45.7 4.5m-133 103.3c-13.1-5.1-31.4-3.5-42.7 4.8 11.3-12.8 26.9-24 44.6-23.5m166.5 87.1a45.8 45.8 0 0 0 17.7 37c-9.7-4.3-20.6-2.4-30.6-4.9m224.7-46.9c.5 5.6 2.9 11.6 8.2 14.3a116.8 116.8 0 0 1-16.7-4.3m94.9-24.6c-1.5 8 1 18.5 7.2 23.8-8-4.5-18.5-2.5-25.5-8.9" style="opacity:.6"/><circle cx="550" cy="550" r="500" style="fill:none;stroke:#000;stroke-width:10;stroke-linecap:round;stroke-linejoin:round;stroke-miterlimit:10"/></svg>