<svg version="1.1" id="Layer_1" xmlns="http://www.w3.org/2000/svg" x="0" y="0" viewBox="0 0 1100 1100" style="enable-background:new 0 0 1100 1100" xml:space="preserve" xmlns:xlink="http://www.w3.org/1999/xlink"><style type="text/css">.st301{fill:#005BEF;stroke:#000000;stroke-width:10;stroke-linecap:round;stroke-linejoin:round;stroke-miterlimit:10;}</style><circle class="st301" cx="550" cy="553.7" r="500"/><g data-name="Layer 54"><path d="M531.7 209c-67.9 59.6-70.9 20.3-120.8 36.5-19.6 10.9-14.3 30.3-9.7 39.6 11.2 22.8-50.8 8.7-68.6 40.3-10.3 18.3.1 42.2-7.5 61.8s-33.8 34.7-36.8 52.2c-43.4 48.2-154 6.6-119.1 70.4 6.2 11.4 32.9-6.3 39.1 9.1 7 17.5-38.8 29.4-21.3 46.7 17.7 4.9 20.7 39.9 56.9 63.2 13.8 20 2.7 51.4 19.4 69.1 35.8 37.8 46.3-24.8 41.3-34.3 4.3-38.8 43.9-10.6 22.2 38.7-22.8 51.7 11.2 74 36.5 56.6 24-8.9 13.3 38.7 23.3 50.9 19.5 37.2 54.9 11.6 66.6 12 18.1.7 28 22.3 29.8 40.3 6.5 63 53.6 46.3 59.1 8 15.5-34.3 45.1 48.6 46.9 59.9 11.3 72.6 69.3 42 70.8 17.9 3.3-54.1-3.2-60.1 1.7-68.3 18.5-31.1 71 13.3 90.8-15.5 13.6-19.7-31.2-63.5 7.9-55.4 94 19.4 18.7-100.7 13.8-120.4-8.8-35.5 13.9-105.6 46.9-121.7 18.1-8.8 17.1-35.5 7.4-52.8s-24.9-30.6-31.4-48.9c-13.5-54.4 22.4-102.1-36-133.3a10.2 10.2 0 0 1-3.9-14.4c17.1-26.3 1.3-66.4-31.8-71.4-22.1-3.3-44.3 8.9-66.5 6.3-43.8-5.2-80.2-74.1-127-43.1Z" style="fill:#03a7ff"/><path d="M311.8 455.2c5.1-20.5 35.7-31.5 44.9-8.1 7.2 24.9 1 56.9-22 71.4-17.6 11.1.5 28.5-12.4 34.7-7.4 3.5-10.9-9.6-17.6-10.8-14.8-2.6-22.8 16.2-12.4 27.4 4.7 5.1 20 10.2 21.4 19.3 2.7 17.9 13 11.8 22.6 4.8 31.7-22.7 39.9 16.2 46.3 17.1 11.8 1.7 14.9 5.5 20.4 16.4 2.8 5.5 26.2-4.6 33.9 15.2 6.1 15.7-23.1 23.1-21.4 40.4-4.9 21.1-32.6 26.8-40.8 45.1 2.7 50-44.7 50-40.6 15.7 1-8.6 2.9-17.2 2.3-25.8s-3.9-15.6-2.9-23.4c6.8-53.5-12.5-48.9-16.7-46.3-7.2-15 27.6-35.8-5.6-35.1-9.8-.8-16.7-11.5-26.6-12s-19.6 9.2-27.7 2c-8.8-13 2.4-16.8-16.1-30.1-21.5-15.4.4-9.9-21.3-45.2a80.4 80.4 0 0 1-9.6-59.3c37.3 7.5 60.2-31.7 101.9-13.4Zm77-109c10.5 6.9 20.1 9.7 19.7 24.3s-7.9 36.7 5.9 47.2c25.4 19.4 17.6-33.3 41.5-29.2 15.4 2.6 26.9-2.4 25.3-20.1-1.9-6.4 1.3-12.2 6.6-16 18.8-13.8 6.7-17.8 22-34.9 6.7-7.5-10.9-17.7-18.9-15.9s-16 11.5-23.1 5.7c-19.4-15.3-32.1 9.9-49.7 7.7-39.4-5-39.3 24.7-29.3 31.2Zm416.9 223.2c1.8 21.2-9.5 27.4-27.9 18.9-5.9-3.9-16.1-12.8-20.8-2.7-21.1 27.5-36.5-37.5-53.4-46-8.1-4.1-36.4-15.5-36.4-3.2 0 24.2 7.7 18.4-10.5 35.4-10.2 9.5 26.5 30.9-7.3 45.8-17.5 7.7-2.2 25.6-5.4 37.1-2.8 9.9-2.3 19.6-8 28.3-11 16.7-40.4 39.6-56.6 19.8-4.7-5.7-4.5-14.7-9.8-19.8-10.7-10.2-.7-25.1-5-36.7-3.8-7.2-7.2-13.7-8.6-22-5.8-33.6-48.5.8-60.7-29.1-1.4-18.5-25.3-14.8-9.2-34.8 7.8-9.7 2.1-23.6 11-29.6 28.9-19.8 9-26.4 74.8-11.3 18.2 4.2 39 6.9 28.4-20.6-3.6-9.2 19.1-13.2 13-20.1-11.2-12.6-16.5 8.4-22.5 12-26.6 15.5-44.3-12-57 1.9-17 18.5-37.6 7.1-20.9-8.4 13.9-13 7.6-14.9 17.6-23.5 5.8-5 6-14.3 11.3-19.9 9.3-9.8 35.3-4.3 34.1-22.1-.6-9-10.6-8.9-14.9-1.2-13.1 22.8-28.2-4-16.7-21.1s46.4-40.3 59.3-17.9c2.6 4.5-3.8 11.6 1.9 13.3 14 4.4 21.7-16.6 35-18.9 24.4-4.1 14.8-13.8 25.4-19.5 14.4-7.7 11.3 11.1 38.1-5.8 19.9-12.6 45.6-15.6 68.6-8 52.5 30.7-18.5 104.8 63.9 187.2 8.7 19-6.5 50.9-30.8 42.5ZM804.6 800c-7.9-.9-5.4 9.5-19.7 2.9-23.4-10.8 2.5-34.7-39.4-38.4-7.5-.7-12.5-10-10.6-17.3 2.4-9.7 15.9-15 15.8-25.1-.3-25.7 12.5-20.5 27.2-33.1 13 35.1 38.8 72.1 26.7 111Z" style="fill:#45b06a"/></g><style>.st40{fill:none;stroke:#000;stroke-width:10;stroke-linecap:round;stroke-linejoin:round;stroke-miterlimit:10}.st98{opacity:.6;enable-background:new}</style><g id="Outline"><path class="st98" d="M793 537c-1 .7-1 2-.5 3 5 10 11 35 25 30 8-2 21-13 18-22.4-.5-1-2-2-3-1.5-26 12-28-11-39-9.4v.3zm-34 274.5c6 5 26 8 25-3-6-7-20.6-12-21.5-26C750 772 744 803 759 811.5zm-219.3 52s1 .5 1 .8c9 13.5-3 36-18 40-34 6-9-6-6-44 .3-5.3 22.3 2.7 23 3.2zM342 731c5 7-4 22-4 33 8 13 29.6-5 33-14.9 2-12-17-21-28-20.2-1 .1-1 1.1-1 2.1zm31-120.2c2 23-8 47-26 61.9-13 10.9-17.5-30.6-8-27.9 6 4.2 28-18.8 34-34zm-157-59.9c-8 6-17 3-25 1-11 5 4 20 13.5 16 5-4 12-9 12-15.7-.5-.2-1.5-.2-.5-1.3zM337 473c-6-10-3-23 0-34 0-1 0-2-.6-2-9-9-23 11-19.8 20.7C318 463 338 475 337 472.8v.2z"/><path class="st98" d="M326 392c-2 29 24 45 7 44-7 2-14 1-15 11-1 11-24 0-24.5-1.3C285 433 317 404.5 326 392zm103-118c-9.9-4-16-16-18-25-4-6-9.9 1-11 6-7 54 29.5 28 29 19zm293 9c16 21 29.5 12 40 20.7 3 4 1 9.6-1 14-3 9-13 9-20 4.1-14.5-5.8-22-22.2-19-38.8z"/><path class="st40" d="M347 729c53.5 5 15 86 59 102 25 9 37-19.8 55-11.9 23 10.1 19.6 40 24 60.7 9.6 46 63 29.6 58-12.8"/><path class="st40" d="M519 861c89-9 47.5 119 114.5 115 39-6 35-47 25-76.5-3-9 0-18.5 7-24.5 24.5-21 59 15.5 84-2.5 15-11 8-33-2-45-12-15 0-32 10-43"/><path class="st40" d="M790 539c53 69.8-64 71 8 194.5 6 14 11 32 11 48.5 0 32-49 47.5-61 16"/><path class="st40" d="M721 287c2 51 64 31 74 88 6 34-11.5 71 7 103 10 18 27 31.5 34 51 8 19-4 47-27 42"/><path class="st40" d="M407 290.6c-16-8-12-29.9-2-41 17-15 40.5-10 61-6 29.8 1 49-29 75-38 50-17 81 55 133 44 23-5 48-11 69 1 25 14 33 55 10 75"/><path class="st40" d="M428 278c-16 26.5-51 17.5-76 28.5-20 10.5-28 33-23 55 10 47-43 51-39 88m25 4.5c1.5-23 35-26 41-5 7 25-13 47 16 72"/><path class="st40" d="M334 476c-20-34-61-31.5-89-9.6-20 8-43-3-64 4-22 7-28 37-5 43.5 6.5 2 23-2 26-1 15 4 11 25-5 30-21 6-10 29 6 29"/><path class="st40" d="M216 554.5c-15 15-14 41 2 55 37 22 41 31 36 69.7-2 31 46 41 53.5 10 2-10.8-4-22 0-33 13-32 44 20 62-44.5"/><path class="st40" d="M327 647.9c25 29.7-.5 47-7 75-10 32.5 34 65 53 25"/><path d="M729 262.5c9 4 16 13 18 22.5m-193-68c12.5 2 24.5 8 34 16m9 9 3 3m-163 10c-5.5-.9-12 .6-15.5 4M362 319.6c-9 2-14 10.7-16 19M339 449c4 1 6 6 6 9.8M308.5 470c-12-6-16-5-22-4M175 492c1-4 5-7 9-7.5m38 89.5c-4 8 0 16 4 19.9m44 78.6c-1 6 1 15 9 18m76-77.5c-3 14-13 14.5-16 16m4.5 119.5c-5-3-9-9-8-15M397 782c-1 14.5 7 28 14 30m90 53.9c-3 12 2 27 14.5 25M636 957c14-3 17-28 11-38m96-60.1c1-7 0-14-4-19m46-49.1c8-6.5 9-25 3-39M786 582c5-8 3-19-3-26m37-12c2-8.5-.6-18-7-24m-56-169c18 6 22 30 21 35" style="opacity:.7882;fill:none;stroke:#fff;stroke-width:10;stroke-linecap:round;stroke-linejoin:round;stroke-miterlimit:10;enable-background:new"/></g><style>.st40,.st68{fill:none;stroke-width:10;stroke-linecap:round;stroke-linejoin:round;stroke-miterlimit:10;stroke:#000}.st68{opacity:.6;enable-background:new}</style><g id="Eye"><linearGradient id="SVGID_00000144327888440828662330000012949225208094602647_" gradientUnits="userSpaceOnUse" x1="232.314" y1="-555.531" x2="336.458" y2="-482.43" gradientTransform="translate(0 1066)"><stop offset="0" style="stop-color:#00ff04"/><stop offset=".811" style="stop-color:#00fccf"/><stop offset="1" style="stop-color:#00fbff"/></linearGradient><path style="fill:url(#SVGID_00000144327888440828662330000012949225208094602647_)" d="M278 494c-31 10.8-13 49-9.5 56 8 16-9 32.5 9 50.8 9 9 46 8 40.7-31-2-13-13-23-13.5-35.8-.7-21-3.7-48-26.7-40z"/><path d="M273 498c-6.5 9-1 22 4 30.8 6 8 13 15 14 25 2 14-6 31 3 43.7 15 18 30.6-23 23-35-3-7-8-13.5-10-20.8-5-16 2-45-21-49" style="opacity:.5098;fill:#fff;enable-background:new"/><path class="st68" d="M274 516c9 24.5 14 39 18 64"/><path class="st40" d="M278 494c-31 10.8-13 49-9.5 56 8 16-9 32.5 9 50.8 9 9 46 8 40.7-31-2-13-13-23-13.5-36C304 513 301 486 278 494z"/><path class="st40" d="M282 526c6 17 10.5 35 14 53"/><path d="M279 515c1 4 2 7 3.5 11m24.5 46.9c1 5 1.5 13-5 19" style="fill:none;stroke:#fff;stroke-width:10;stroke-linecap:round;stroke-linejoin:round;stroke-miterlimit:10"/><path class="st68" d="M264 495.9c-15.5 19-6 44 1 65 3 9-3 18-1 27 4 24 31 31 46 12"/></g><defs><linearGradient id="zad" x1="599.92" y1="836.25" x2="638.8" y2="836.25" gradientUnits="userSpaceOnUse"><stop offset="0" stop-color="#0800ff"/><stop offset="1" stop-color="#ff00f7"/></linearGradient><linearGradient id="zad-2" x1="667.03" y1="869.12" x2="684.63" y2="925" gradientTransform="rotate(16.9 677.175 899.736)" gradientUnits="userSpaceOnUse"><stop offset="0" stop-color="#0dff31"/><stop offset=".36" stop-color="#faee0c"/><stop offset=".36" stop-color="#fae60c"/><stop offset=".41" stop-color="#f8a40c"/><stop offset=".44" stop-color="#f7700c"/><stop offset=".48" stop-color="#f64a0c"/><stop offset=".5" stop-color="#f5330c"/><stop offset=".52" stop-color="#f52b0c"/><stop offset=".68" stop-color="#f50ca0"/><stop offset="1" stop-color="#0defff"/></linearGradient><style>.zad-2{fill:#660024}.zad-4{fill:none;stroke:#000;stroke-linecap:round;stroke-linejoin:round;stroke-width:10px}</style></defs><path d="M675.8 797c46.2-21.9 84.1-91.5 12.4-105.5-33-6.4-63.7 18.4-96.5 17.6-34.7-.9-66.6-24.3-102.8-12.6-33.6 10.9-38.2 48.9-15.1 72.3 15.2 15.3 50.7 31.5 62.2 32.6 26.6.8 139.8-4.4 139.8-4.4Z"/><path d="M720.4 878.8c12.9-9.9 6.4-31.5-5.6-39.7-16.6-11.4-26.1-2.8-40.4-39.7-12-31-46.5-40.3-74.1-21.9-28.2-10.1-65.9-11.9-86.1 14 9.4 9.9 24.5 10.1 37.1 13 44.5 10.1 20.1 112.8 61.5 77.5 15.1 23.2 24.3 56.1 56.1 59.4 32.1 5.8 79.2-30.4 51.5-62.6Z" style="fill:#ff0059"/><path class="zad-2" d="M624.6 800.1c-29.3-16.2-66.3-25-95.3-4.2-2.6.6-15.9-1.2-12.9-5.1 30.9-25.3 83.3-26.6 108.2 9.3Z"/><path class="zad-2" d="M637.5 809.4c-8.8-9.8-5.9-28.3 3.5-36.8-11.7-3.3-25.9-3.1-35.2 5.7 11.3 8.2 21.1 18.5 31.7 31.1Z"/><path d="M461.8 725.3c22.8 37.4 66.4 14.2 67.9-28.3-5.1 47.8 55.7 68.8 62.2 14 6.4 55.9 67.8 39.1 59-12.9 5 40 56.8 52.7 65.6 7.8-31.5-31.8-76.5-3.7-112.8 1.8-47.6 7.2-111.9-49.1-141.9 17.6Z" style="fill:#fff"/><path class="zad-4" d="M604.9 870.9c27.4 25.1 17.7 66.9 68.9 70.7 24.9 1.9 58.9-18.3 54.8-46.2-2.6-17.8-24.8-20.3-30.7-34.5M602 777.3c25.9-18.2 60.4-8.9 72.4 22.1 14.3 36.9 23.8 28.3 40.4 39.7 12 8.2 18.5 29.8 5.6 39.7"/><path class="zad-4" d="M633.1 809.3c-23.2-42.2-84.9-52.2-120.2-19.4"/><path class="zad-4" d="M675.8 797c46.2-21.9 84.1-91.5 12.4-105.5-33-6.4-63.7 18.4-96.5 17.6-34.7-.9-66.6-24.3-102.8-12.6-33.6 10.9-38.2 48.9-15.1 72.3 15.2 15.3 50.7 31.5 62.2 32.6 26.6.8 47.7 24.1 46.6 50.7-1.9 47.2 24.5 44.4 30.4 28.3"/><path class="zad-4" d="M461.8 725.3c22.8 37.4 66.4 14.2 67.9-28.3-5.1 47.8 55.7 68.8 62.2 14 6.4 55.9 67.8 39.1 59-12.9 5 40 56.8 52.7 67.4 8.8"/><path d="M470.9 707.2c-40.1 34.2-5.3 71.3 31.1 90 23.5 12 57.6 6 70.7 34.3 8.7 18.7-3.9 49.1 19.8 57.1m18.5-1.1c13.1 21.4 18.9 51.1 47.6 56.8m-54.2-73.2a32.8 32.8 0 0 1 1.7 16.7m92.4-27.4a33 33 0 0 0 24.7 11.6" style="opacity:.6;stroke-width:10px;stroke-linecap:round;stroke-linejoin:round;stroke:#000;fill:none"/><path d="M645.6 785.1a29.9 29.9 0 0 1 11.3 12.1m-61.5-6.6a44.4 44.4 0 0 1 18 14.4m91.2 42.7a20.6 20.6 0 0 1 8 8.8m-3.7 32.4a17.1 17.1 0 0 1 4.1 18.4" style="stroke:#fff;stroke-width:10px;stroke-linecap:round;stroke-linejoin:round;fill:none"/><path d="M597.6 878.3c-1.9-3.4-3.6-7.1-3.2-11" style="stroke-width:7px;stroke:#fff;stroke-linecap:round;stroke-linejoin:round;fill:none"/><path d="M659.3 822.1c-18.6 4.8-5.6 38 6.8 26.3m-47.4-34.7c-2.3 5.3-4.6 10.6-6.8 15.9m-13.1 1.9 9.9 11.1-2.7 16.2m13-9a116 116 0 0 0 11.5 9.5m23.9 23.7c4.8 13.3 8.3 27 13.1 40.3l26.9-7.8" style="opacity:.6;stroke-width:5px;fill:none;stroke:#000;stroke-linecap:round;stroke-linejoin:round"/><ellipse cx="662.7" cy="835.3" rx="10.2" ry="13.9" style="stroke-width:5px;stroke-linecap:round;stroke-linejoin:round;stroke:#000;fill:#fff"/><path style="fill:url(#zad);stroke-width:5px;stroke-linecap:round;stroke-linejoin:round;stroke:#000" d="m619.4 813.6 4.5 17.3h14.9l-12 10.7 4.6 17.3-12-10.7-12.1 10.7 4.6-17.3-12-10.7h14.9l4.6-17.3z"/><path transform="rotate(-16.9 677.91 899.121)" style="fill:url(#zad-2);stroke-width:5px;stroke-linecap:round;stroke-linejoin:round;stroke:#000" d="M662.7 876h26.5v42.66h-26.5z"/><style>.st40,.st68{fill:none;stroke-width:10;stroke-linecap:round;stroke-linejoin:round;stroke-miterlimit:10;stroke:#000}.st68{opacity:.6;enable-background:new}</style><g id="x"><linearGradient id="SVGID_00000108293349405905417590000007858031186733274302_" gradientUnits="userSpaceOnUse" x1="513.292" y1="1028.154" x2="683.299" y2="731.142" gradientTransform="matrix(1 0 0 -1 0 1410)"><stop offset="0" style="stop-color:#f03"/><stop offset=".221" style="stop-color:#e7005c"/><stop offset=".715" style="stop-color:#ac00c1"/><stop offset="1" style="stop-color:#80f"/></linearGradient><path style="fill:url(#SVGID_00000108293349405905417590000007858031186733274302_);stroke:#000;stroke-width:10;stroke-linecap:round;stroke-linejoin:round;stroke-miterlimit:10" d="M491 487c-16 7-3 23-8.5 33-4 7-14 9.7-21 5-9-6-9-18-11-28.9-4-21-21-39-22.5-60.8-2-33 38-55.8 64-37 38 27 79 115 116 35.9 12-26 23-58 53-67.9 30-9.7 41 29 36 51.5-2.5 11.5-12 21.5-11 33 1 12 12 22.5 11 35-.5 6-5 12.5-12 12-5 0-9-4-14.5-5-18-.5-18 23-6 31.5 18 13 42 18 56.5 36 31 37-12 83-44 46-3-4.5-6-10-11-10.8-16 .5-4 28-21 30-8 .9-15-4-17-12-5.5-20 2-44-21-55-18.5-9-41 8-38 28.4 3 19 30.5 42 10.5 59-9 6-21.5 0-27-9-4-11-17-9-19.9 2-4.5 17-11 29-30 21.5-34-14-32-64.5-4-83.9 46-31.5 26-104-8-89.7v.2z"/><path class="st40" d="M466 429c77 52 155 104 234 154"/><path class="st40" d="M671.5 395c-49.6 75-104 148-158 219.9"/><path class="st68" d="M462 432c75 57 158 103 235 157"/><path class="st68" d="M675 397.9c-46.5 78-103 148-157 221M434 408c-24 29 0 55 10 83 4 12 2 33 19 36m30-37c35 2 31 58 13 78-6 7-14 13-19.8 19.9-24 24-16 74 21 77M589 563c42 0 21 48 47 63m29-24.1c3 9 19 18 28 19M660.5 365c-51 10.9-46 80-88 102"/><path d="M459 410c8-3 18-3 24 4m11 8.4 2 2M687 398c2 7 1 14-2 20m-4 11c0 .6-1 1-1 2m25 134c10 6.5 17 19 13 31.5m-7 9.5c-.5.5-1 1-1.5 2M567 618c4 4 6 8.5 7 14m-80-18c-2 11 1 22 9 29.9m9.5 7.2 2 .9" style="fill:none;stroke:#fff;stroke-width:10;stroke-linecap:round;stroke-linejoin:round;stroke-miterlimit:10"/></g><style>.st40{fill:none;stroke-width:10;stroke-linecap:round;stroke-linejoin:round;stroke-miterlimit:10;stroke:#000}</style><g id="Halo"><linearGradient id="SVGID_00000122693526384534565180000002607774156497303718_" gradientUnits="userSpaceOnUse" x1="310.08" y1="865.523" x2="812.151" y2="865.523" gradientTransform="matrix(1.0044 -.05704 -.0608 -1.0705 18.333 1183.23)"><stop offset="0" style="stop-color:#fbff00"/><stop offset=".661" style="stop-color:#fe9d00"/><stop offset="1" style="stop-color:#ff6f00"/></linearGradient><path style="fill:url(#SVGID_00000122693526384534565180000002607774156497303718_)" d="M293 241.6c38 131 636 51 442-77-87-57-449-11-439 73 6.5 4 48 3 64 0 92-55 241-71 339-20.5C599 261.5 399 286 310 205l-17 36.6z"/><ellipse transform="rotate(-3.252 533.104 224.114) scale(1.00001)" cx="533" cy="224" rx="240" ry="86" style="fill:none;stroke:#000;stroke-width:10.0001;stroke-linecap:round;stroke-linejoin:round;stroke-miterlimit:10.0001"/><path class="st40" d="M352 236c121 34 251 20.5 364-23"/><path class="st40" d="M366 236c69-53 240.8-64 338-19"/><path d="M355 237c26-21 62-31 94-36m266 12c-36-14-70-24-117-20.9" style="opacity:.6;enable-background:new;stroke:#000;fill:none;stroke-width:10;stroke-linecap:round;stroke-linejoin:round;stroke-miterlimit:10"/><path d="M757 212c-9 17-25 27-41 35m-16.3 7-7.2 2.5M311 225c-10 23 21 40.5 38 45m16 6 8 2" style="fill:none;stroke:#fff;stroke-width:10;stroke-linecap:round;stroke-linejoin:round;stroke-miterlimit:10"/></g><circle cx="550" cy="550" r="500" style="fill:none;stroke:#000;stroke-width:10;stroke-linecap:round;stroke-linejoin:round;stroke-miterlimit:10"/></svg>