<svg version="1.1" id="Layer_1" xmlns="http://www.w3.org/2000/svg" x="0" y="0" viewBox="0 0 1100 1100" style="enable-background:new 0 0 1100 1100" xml:space="preserve" xmlns:xlink="http://www.w3.org/1999/xlink"><style type="text/css">.st300{fill:#00DE72;stroke:#000000;stroke-width:10;stroke-linecap:round;stroke-linejoin:round;stroke-miterlimit:10;}</style><circle class="st300" cx="550" cy="553.7" r="500"/><path d="M533 209.1c-68 59.6-71 20-121 36.5-19.6 10.9-14 30-9.7 39.6 11 23-51 9-69 40.3-10 18 .1 42-7.5 61.8-9 19.6-34 35-37 52.2-43 48-154 7-119 70.4 6 11 33-6 39 9.1 7 17.5-39 29-21 46.7 18 5 21 39.9 57 63.2 14 20 3 51 19 69.1 35.8 38 46-25 41-34.3 4-39 44-11 22 38.7-23 52 11 74 36.5 56.6 24-9 13 39 23 50.9 19.5 37 55 12 67 12 18 1 28 22 29.8 40.3 6.5 63 54 46 59 8 15.5-34 45 49 47 59.9 11 73 69 42 71 17.9 3-54-3-60.1 2-68.3 18.5-31 71 13 90.8-15.5 14-19.7-31-63.5 8-55.4 94 19 19-101 14-120.4-9-35.5 14-106 47-121.7 18-9 17-35.5 7-52.8-9.5-17-25-30.6-31-48.9-13.5-54 22-102-36-133.3-5-3-7-9.5-4-14.4 17-26 1-66-32-71.4-22-3-44 9-66.5 6.3C616 247 579.9 178 533 209.1z" style="fill:#d500ff"/><style>.st40{fill:none;stroke:#000;stroke-width:10;stroke-linecap:round;stroke-linejoin:round;stroke-miterlimit:10}.st98{opacity:.6;enable-background:new}</style><g id="Outline"><path class="st98" d="M793 537c-1 .7-1 2-.5 3 5 10 11 35 25 30 8-2 21-13 18-22.4-.5-1-2-2-3-1.5-26 12-28-11-39-9.4v.3zm-34 274.5c6 5 26 8 25-3-6-7-20.6-12-21.5-26C750 772 744 803 759 811.5zm-219.3 52s1 .5 1 .8c9 13.5-3 36-18 40-34 6-9-6-6-44 .3-5.3 22.3 2.7 23 3.2zM342 731c5 7-4 22-4 33 8 13 29.6-5 33-14.9 2-12-17-21-28-20.2-1 .1-1 1.1-1 2.1zm31-120.2c2 23-8 47-26 61.9-13 10.9-17.5-30.6-8-27.9 6 4.2 28-18.8 34-34zm-157-59.9c-8 6-17 3-25 1-11 5 4 20 13.5 16 5-4 12-9 12-15.7-.5-.2-1.5-.2-.5-1.3zM337 473c-6-10-3-23 0-34 0-1 0-2-.6-2-9-9-23 11-19.8 20.7C318 463 338 475 337 472.8v.2z"/><path class="st98" d="M326 392c-2 29 24 45 7 44-7 2-14 1-15 11-1 11-24 0-24.5-1.3C285 433 317 404.5 326 392zm103-118c-9.9-4-16-16-18-25-4-6-9.9 1-11 6-7 54 29.5 28 29 19zm293 9c16 21 29.5 12 40 20.7 3 4 1 9.6-1 14-3 9-13 9-20 4.1-14.5-5.8-22-22.2-19-38.8z"/><path class="st40" d="M347 729c53.5 5 15 86 59 102 25 9 37-19.8 55-11.9 23 10.1 19.6 40 24 60.7 9.6 46 63 29.6 58-12.8"/><path class="st40" d="M519 861c89-9 47.5 119 114.5 115 39-6 35-47 25-76.5-3-9 0-18.5 7-24.5 24.5-21 59 15.5 84-2.5 15-11 8-33-2-45-12-15 0-32 10-43"/><path class="st40" d="M790 539c53 69.8-64 71 8 194.5 6 14 11 32 11 48.5 0 32-49 47.5-61 16"/><path class="st40" d="M721 287c2 51 64 31 74 88 6 34-11.5 71 7 103 10 18 27 31.5 34 51 8 19-4 47-27 42"/><path class="st40" d="M407 290.6c-16-8-12-29.9-2-41 17-15 40.5-10 61-6 29.8 1 49-29 75-38 50-17 81 55 133 44 23-5 48-11 69 1 25 14 33 55 10 75"/><path class="st40" d="M428 278c-16 26.5-51 17.5-76 28.5-20 10.5-28 33-23 55 10 47-43 51-39 88m25 4.5c1.5-23 35-26 41-5 7 25-13 47 16 72"/><path class="st40" d="M334 476c-20-34-61-31.5-89-9.6-20 8-43-3-64 4-22 7-28 37-5 43.5 6.5 2 23-2 26-1 15 4 11 25-5 30-21 6-10 29 6 29"/><path class="st40" d="M216 554.5c-15 15-14 41 2 55 37 22 41 31 36 69.7-2 31 46 41 53.5 10 2-10.8-4-22 0-33 13-32 44 20 62-44.5"/><path class="st40" d="M327 647.9c25 29.7-.5 47-7 75-10 32.5 34 65 53 25"/><path d="M729 262.5c9 4 16 13 18 22.5m-193-68c12.5 2 24.5 8 34 16m9 9 3 3m-163 10c-5.5-.9-12 .6-15.5 4M362 319.6c-9 2-14 10.7-16 19M339 449c4 1 6 6 6 9.8M308.5 470c-12-6-16-5-22-4M175 492c1-4 5-7 9-7.5m38 89.5c-4 8 0 16 4 19.9m44 78.6c-1 6 1 15 9 18m76-77.5c-3 14-13 14.5-16 16m4.5 119.5c-5-3-9-9-8-15M397 782c-1 14.5 7 28 14 30m90 53.9c-3 12 2 27 14.5 25M636 957c14-3 17-28 11-38m96-60.1c1-7 0-14-4-19m46-49.1c8-6.5 9-25 3-39M786 582c5-8 3-19-3-26m37-12c2-8.5-.6-18-7-24m-56-169c18 6 22 30 21 35" style="opacity:.7882;fill:none;stroke:#fff;stroke-width:10;stroke-linecap:round;stroke-linejoin:round;stroke-miterlimit:10;enable-background:new"/></g><linearGradient id="a10" gradientUnits="userSpaceOnUse" x1="242.469" y1="-542.713" x2="318.469" y2="-492.713" gradientTransform="translate(0 1066)"><stop offset="0" style="stop-color:#0f4"/><stop offset=".298" style="stop-color:#00e97f"/><stop offset=".781" style="stop-color:#00c8db"/><stop offset="1" style="stop-color:#0bf"/></linearGradient><path style="fill:url(#a10)" d="M279 499.3c-8 19.6-17 39-25 59 19 9.7 33 28 41 48 1-26 10.9-46 29-65-15-15.3-28-25.3-45-42.3v.3z"/><path d="M275.5 512c36 25 1 53 19 84 14-76 63.5-25-16-93.5" style="opacity:.4902;fill:#fff;enable-background:new"/><path d="M279 499c-8 19.6-17 39-25 59 19 9.7 33 28 41 48 1-26 10.9-46 29-65-15-15-28-25-45-42z" style="fill:none;stroke:#000;stroke-width:10;stroke-linecap:round;stroke-linejoin:round;stroke-miterlimit:10"/><path d="M274 498.5C264 519 255 540 248 562c21 7 34 27 45 45.5" style="opacity:.6;fill:none;stroke:#000;stroke-width:10;stroke-linecap:round;stroke-linejoin:round;stroke-miterlimit:10;enable-background:new"/><path d="M283 523c4.5 4 9 9 13 13m10 10c-.8-.6-2-1-2-2" style="fill:none;stroke:#fff;stroke-width:10;stroke-linecap:round;stroke-linejoin:round;stroke-miterlimit:10"/><style>.st40{fill:none;stroke:#000;stroke-width:10;stroke-linecap:round;stroke-linejoin:round;stroke-miterlimit:10}</style><g id="Buck_Teeth"><path d="M408 710c-35-29 16.5-71 37-38m262 13c26-29 68 8 43 37m-273 57.8c55 36 130 42 191 15.5M440 698c14 16 34 28.5 53 38m80 23c12 1 24 1 36 1m103-46c-7 7-15 13-22 19.5" style="opacity:.6;enable-background:new;fill:none;stroke:#000;stroke-width:10;stroke-linecap:round;stroke-linejoin:round;stroke-miterlimit:10"/><linearGradient id="SVGID_00000144308631695432882570000007628677700832790193_" gradientUnits="userSpaceOnUse" x1="615" y1="365.37" x2="685.95" y2="365.37" gradientTransform="matrix(1 0 0 -1 0 1100)"><stop offset="0" style="stop-color:#ff0378"/><stop offset="1" style="stop-color:#ff8903"/></linearGradient><path style="fill:url(#SVGID_00000144308631695432882570000007628677700832790193_)" d="M616 768c16-5 68-13 69.9-32.3C692 706 606.5 663 616 768z"/><linearGradient id="SVGID_00000051372725403280898550000008547425539188560257_" gradientUnits="userSpaceOnUse" x1="495" y1="367.694" x2="569" y2="367.694" gradientTransform="matrix(1 0 0 -1 0 1100)"><stop offset="0" style="stop-color:#ff0378"/><stop offset="1" style="stop-color:#ff8903"/></linearGradient><path style="fill:url(#SVGID_00000051372725403280898550000008547425539188560257_)" d="M496 744.4c14 4 68 35 73 12 0-78-60-68-73-12.4v.4z"/><path d="M512 713c3 27 29 43 54 46-2 1 .5 5-2 6.5s-106-5.6-52-52.5zm106 21.5c19.6 31 57.5-1 67 5 2 13.5-97 59.5-67-5z" style="opacity:.6;enable-background:new"/><path class="st40" d="M435 702c67 74 213 98 282 15m-10-31c27-19 56 5.5 43 36m-342-12c-20-26 7-62 37-38"/><path class="st40" d="M495 743c8-59.8 88-63 74 22m46 2c-15-59.8 55-101 72-26m-210 35c58 29 129 45 189.6 15"/><path d="M544 716c5 4 8 9 9 15m3 18v-5m95-29.1c6 0 12 3 15 8m6 14.1c0-1-.7-2-1-3m-205 11c59 40 138 51 209.8 21.5M714 697c6.5-3 15.5-4 21 1m-320-11c0-7 8-13 15-8" style="fill:none;stroke:#fff;stroke-width:10;stroke-linecap:round;stroke-linejoin:round;stroke-miterlimit:10"/></g><style>.st40{fill:none;stroke-width:10;stroke-linecap:round;stroke-linejoin:round;stroke-miterlimit:10;stroke:#000}.st102{fill:#fff}</style><g id="big_eyes"><ellipse class="st102" cx="678" cy="489.9" rx="67.5" ry="110.5"/><ellipse class="st102" cx="508" cy="513" rx="73.5" ry="122.5"/><radialGradient id="SVGID_00000065789191343214124940000013387809796566389911_" cx="508.413" cy="417.605" r="62.802" gradientTransform="matrix(1 0 0 -2.5954 0 1663.197)" gradientUnits="userSpaceOnUse"><stop offset="0" style="stop-color:#12e6bf"/><stop offset="1" style="stop-color:#1239e6"/></radialGradient><path style="fill:url(#SVGID_00000065789191343214124940000013387809796566389911_)" d="M439 540.2C463 707 597 621.5 575.5 524L439 540v.2z"/><radialGradient id="SVGID_00000061441783641086741920000007150631355785008026_" cx="678.644" cy="440.767" r="57.921" gradientTransform="matrix(1 0 0 -2.6573 0 1721.31)" gradientUnits="userSpaceOnUse"><stop offset="0" style="stop-color:#12e6bf"/><stop offset="1" style="stop-color:#1239e6"/></radialGradient><path style="fill:url(#SVGID_00000061441783641086741920000007150631355785008026_)" d="M614 514.3c17 129.5 125.5 104 129-14.8L614 514v.3z"/><path d="M653 389.6c-34 27-49 78-39 119 38.5 36 131 0 130.8-17.5 0-17-2-35-6-51.4-5-7-12 29-53 22-34.8.3-36.8-50.2-32.8-72.1zm-164 7.9c-42 18-70 107-46 143.9 42.5 15.5 97 13 135.5-12 8-22-.6-47-5-68.8C518 526 475 459 489 397.5z"/><ellipse class="st40" cx="508" cy="513" rx="73.5" ry="122.5"/><ellipse class="st40" cx="678" cy="489.9" rx="67.5" ry="110.5"/><path class="st40" d="M494.5 393c-29 57 29.9 133 79 68m86.5-77c-29 57 37 113.5 77 53M437 540c46 18 100 14 143-10.8m35-14.2c58 16 89 1 128-16"/><path d="M483 393.9c-81 42.5-70.5 285.5 49 238M651 385c-99 69-17 278 51 209.6" style="opacity:.6;enable-background:new;stroke:#000;fill:none;stroke-width:10;stroke-linecap:round;stroke-linejoin:round;stroke-miterlimit:10"/><path d="M725 526c-2 12-6 24-13 35m-7 11c-1.5 2-3 3.5-5 5m-142-15.5c-4 15-11 29.5-20.5 42M527 613c-1 1.5-3 3-5 4" style="fill:none;stroke:#fff;stroke-width:10;stroke-linecap:round;stroke-linejoin:round;stroke-miterlimit:10"/></g><circle cx="550" cy="550" r="500" style="fill:none;stroke:#000;stroke-width:10;stroke-linecap:round;stroke-linejoin:round;stroke-miterlimit:10"/></svg>