<svg version="1.1" id="Layer_1" xmlns="http://www.w3.org/2000/svg" x="0" y="0" viewBox="0 0 1100 1100" style="enable-background:new 0 0 1100 1100" xml:space="preserve" xmlns:xlink="http://www.w3.org/1999/xlink"><style type="text/css">.st304{fill:#FF0A68;stroke:#000000;stroke-width:10;stroke-linecap:round;stroke-linejoin:round;stroke-miterlimit:10;}</style><circle class="st304" cx="550" cy="553.7" r="500"/><g data-name="Layer 54"><path d="M531.7 209c-67.9 59.6-70.9 20.3-120.8 36.5-19.6 10.9-14.3 30.3-9.7 39.6 11.2 22.8-50.8 8.7-68.6 40.3-10.3 18.3.1 42.2-7.5 61.8s-33.8 34.7-36.8 52.2c-43.4 48.2-154 6.6-119.1 70.4 6.2 11.4 32.9-6.3 39.1 9.1 7 17.5-38.8 29.4-21.3 46.7 17.7 4.9 20.7 39.9 56.9 63.2 13.8 20 2.7 51.4 19.4 69.1 35.8 37.8 46.3-24.8 41.3-34.3 4.3-38.8 43.9-10.6 22.2 38.7-22.8 51.7 11.2 74 36.5 56.6 24-8.9 13.3 38.7 23.3 50.9 19.5 37.2 54.9 11.6 66.6 12 18.1.7 28 22.3 29.8 40.3 6.5 63 53.6 46.3 59.1 8 15.5-34.3 45.1 48.6 46.9 59.9 11.3 72.6 69.3 42 70.8 17.9 3.3-54.1-3.2-60.1 1.7-68.3 18.5-31.1 71 13.3 90.8-15.5 13.6-19.7-31.2-63.5 7.9-55.4 94 19.4 18.7-100.7 13.8-120.4-8.8-35.5 13.9-105.6 46.9-121.7 18.1-8.8 17.1-35.5 7.4-52.8s-24.9-30.6-31.4-48.9c-13.5-54.4 22.4-102.1-36-133.3a10.2 10.2 0 0 1-3.9-14.4c17.1-26.3 1.3-66.4-31.8-71.4-22.1-3.3-44.3 8.9-66.5 6.3-43.8-5.2-80.2-74.1-127-43.1Z" style="fill:#03a7ff"/><path d="M311.8 455.2c5.1-20.5 35.7-31.5 44.9-8.1 7.2 24.9 1 56.9-22 71.4-17.6 11.1.5 28.5-12.4 34.7-7.4 3.5-10.9-9.6-17.6-10.8-14.8-2.6-22.8 16.2-12.4 27.4 4.7 5.1 20 10.2 21.4 19.3 2.7 17.9 13 11.8 22.6 4.8 31.7-22.7 39.9 16.2 46.3 17.1 11.8 1.7 14.9 5.5 20.4 16.4 2.8 5.5 26.2-4.6 33.9 15.2 6.1 15.7-23.1 23.1-21.4 40.4-4.9 21.1-32.6 26.8-40.8 45.1 2.7 50-44.7 50-40.6 15.7 1-8.6 2.9-17.2 2.3-25.8s-3.9-15.6-2.9-23.4c6.8-53.5-12.5-48.9-16.7-46.3-7.2-15 27.6-35.8-5.6-35.1-9.8-.8-16.7-11.5-26.6-12s-19.6 9.2-27.7 2c-8.8-13 2.4-16.8-16.1-30.1-21.5-15.4.4-9.9-21.3-45.2a80.4 80.4 0 0 1-9.6-59.3c37.3 7.5 60.2-31.7 101.9-13.4Zm77-109c10.5 6.9 20.1 9.7 19.7 24.3s-7.9 36.7 5.9 47.2c25.4 19.4 17.6-33.3 41.5-29.2 15.4 2.6 26.9-2.4 25.3-20.1-1.9-6.4 1.3-12.2 6.6-16 18.8-13.8 6.7-17.8 22-34.9 6.7-7.5-10.9-17.7-18.9-15.9s-16 11.5-23.1 5.7c-19.4-15.3-32.1 9.9-49.7 7.7-39.4-5-39.3 24.7-29.3 31.2Zm416.9 223.2c1.8 21.2-9.5 27.4-27.9 18.9-5.9-3.9-16.1-12.8-20.8-2.7-21.1 27.5-36.5-37.5-53.4-46-8.1-4.1-36.4-15.5-36.4-3.2 0 24.2 7.7 18.4-10.5 35.4-10.2 9.5 26.5 30.9-7.3 45.8-17.5 7.7-2.2 25.6-5.4 37.1-2.8 9.9-2.3 19.6-8 28.3-11 16.7-40.4 39.6-56.6 19.8-4.7-5.7-4.5-14.7-9.8-19.8-10.7-10.2-.7-25.1-5-36.7-3.8-7.2-7.2-13.7-8.6-22-5.8-33.6-48.5.8-60.7-29.1-1.4-18.5-25.3-14.8-9.2-34.8 7.8-9.7 2.1-23.6 11-29.6 28.9-19.8 9-26.4 74.8-11.3 18.2 4.2 39 6.9 28.4-20.6-3.6-9.2 19.1-13.2 13-20.1-11.2-12.6-16.5 8.4-22.5 12-26.6 15.5-44.3-12-57 1.9-17 18.5-37.6 7.1-20.9-8.4 13.9-13 7.6-14.9 17.6-23.5 5.8-5 6-14.3 11.3-19.9 9.3-9.8 35.3-4.3 34.1-22.1-.6-9-10.6-8.9-14.9-1.2-13.1 22.8-28.2-4-16.7-21.1s46.4-40.3 59.3-17.9c2.6 4.5-3.8 11.6 1.9 13.3 14 4.4 21.7-16.6 35-18.9 24.4-4.1 14.8-13.8 25.4-19.5 14.4-7.7 11.3 11.1 38.1-5.8 19.9-12.6 45.6-15.6 68.6-8 52.5 30.7-18.5 104.8 63.9 187.2 8.7 19-6.5 50.9-30.8 42.5ZM804.6 800c-7.9-.9-5.4 9.5-19.7 2.9-23.4-10.8 2.5-34.7-39.4-38.4-7.5-.7-12.5-10-10.6-17.3 2.4-9.7 15.9-15 15.8-25.1-.3-25.7 12.5-20.5 27.2-33.1 13 35.1 38.8 72.1 26.7 111Z" style="fill:#45b06a"/></g><style>.st40{fill:none;stroke:#000;stroke-width:10;stroke-linecap:round;stroke-linejoin:round;stroke-miterlimit:10}.st98{opacity:.6;enable-background:new}</style><g id="Outline"><path class="st98" d="M793 537c-1 .7-1 2-.5 3 5 10 11 35 25 30 8-2 21-13 18-22.4-.5-1-2-2-3-1.5-26 12-28-11-39-9.4v.3zm-34 274.5c6 5 26 8 25-3-6-7-20.6-12-21.5-26C750 772 744 803 759 811.5zm-219.3 52s1 .5 1 .8c9 13.5-3 36-18 40-34 6-9-6-6-44 .3-5.3 22.3 2.7 23 3.2zM342 731c5 7-4 22-4 33 8 13 29.6-5 33-14.9 2-12-17-21-28-20.2-1 .1-1 1.1-1 2.1zm31-120.2c2 23-8 47-26 61.9-13 10.9-17.5-30.6-8-27.9 6 4.2 28-18.8 34-34zm-157-59.9c-8 6-17 3-25 1-11 5 4 20 13.5 16 5-4 12-9 12-15.7-.5-.2-1.5-.2-.5-1.3zM337 473c-6-10-3-23 0-34 0-1 0-2-.6-2-9-9-23 11-19.8 20.7C318 463 338 475 337 472.8v.2z"/><path class="st98" d="M326 392c-2 29 24 45 7 44-7 2-14 1-15 11-1 11-24 0-24.5-1.3C285 433 317 404.5 326 392zm103-118c-9.9-4-16-16-18-25-4-6-9.9 1-11 6-7 54 29.5 28 29 19zm293 9c16 21 29.5 12 40 20.7 3 4 1 9.6-1 14-3 9-13 9-20 4.1-14.5-5.8-22-22.2-19-38.8z"/><path class="st40" d="M347 729c53.5 5 15 86 59 102 25 9 37-19.8 55-11.9 23 10.1 19.6 40 24 60.7 9.6 46 63 29.6 58-12.8"/><path class="st40" d="M519 861c89-9 47.5 119 114.5 115 39-6 35-47 25-76.5-3-9 0-18.5 7-24.5 24.5-21 59 15.5 84-2.5 15-11 8-33-2-45-12-15 0-32 10-43"/><path class="st40" d="M790 539c53 69.8-64 71 8 194.5 6 14 11 32 11 48.5 0 32-49 47.5-61 16"/><path class="st40" d="M721 287c2 51 64 31 74 88 6 34-11.5 71 7 103 10 18 27 31.5 34 51 8 19-4 47-27 42"/><path class="st40" d="M407 290.6c-16-8-12-29.9-2-41 17-15 40.5-10 61-6 29.8 1 49-29 75-38 50-17 81 55 133 44 23-5 48-11 69 1 25 14 33 55 10 75"/><path class="st40" d="M428 278c-16 26.5-51 17.5-76 28.5-20 10.5-28 33-23 55 10 47-43 51-39 88m25 4.5c1.5-23 35-26 41-5 7 25-13 47 16 72"/><path class="st40" d="M334 476c-20-34-61-31.5-89-9.6-20 8-43-3-64 4-22 7-28 37-5 43.5 6.5 2 23-2 26-1 15 4 11 25-5 30-21 6-10 29 6 29"/><path class="st40" d="M216 554.5c-15 15-14 41 2 55 37 22 41 31 36 69.7-2 31 46 41 53.5 10 2-10.8-4-22 0-33 13-32 44 20 62-44.5"/><path class="st40" d="M327 647.9c25 29.7-.5 47-7 75-10 32.5 34 65 53 25"/><path d="M729 262.5c9 4 16 13 18 22.5m-193-68c12.5 2 24.5 8 34 16m9 9 3 3m-163 10c-5.5-.9-12 .6-15.5 4M362 319.6c-9 2-14 10.7-16 19M339 449c4 1 6 6 6 9.8M308.5 470c-12-6-16-5-22-4M175 492c1-4 5-7 9-7.5m38 89.5c-4 8 0 16 4 19.9m44 78.6c-1 6 1 15 9 18m76-77.5c-3 14-13 14.5-16 16m4.5 119.5c-5-3-9-9-8-15M397 782c-1 14.5 7 28 14 30m90 53.9c-3 12 2 27 14.5 25M636 957c14-3 17-28 11-38m96-60.1c1-7 0-14-4-19m46-49.1c8-6.5 9-25 3-39M786 582c5-8 3-19-3-26m37-12c2-8.5-.6-18-7-24m-56-169c18 6 22 30 21 35" style="opacity:.7882;fill:none;stroke:#fff;stroke-width:10;stroke-linecap:round;stroke-linejoin:round;stroke-miterlimit:10;enable-background:new"/></g><style>.st40,.st68{fill:none;stroke:#000;stroke-width:10;stroke-linecap:round;stroke-linejoin:round;stroke-miterlimit:10}.st68{opacity:.6;enable-background:new}</style><g id="Mouth_Cover"><path d="M598 706c-47-14.5-175 15-82.5 66.5 25 14 169.5 24 164-14.5-13-18-39-32-61-24.7 1.2-2.8-12.5-24.3-20.5-27.3z" style="fill:#fe1767"/><path d="M614 729c-39.7-16-93-13-131 7 14-38 77-35 110-31.5l21 24.5zm47 14c-13-3-27 2-35 12 0-8-7-15-7-23 13-2 28 1 42 11z" style="fill:#ae0f45"/><path d="M600 704c7 8 14 18 19.6 27 25-2 52 9 64 32 32-15 24-49-24-56.4l-59.6-2.8v.2z"/><path class="st40" d="M506.5 772c42 17 129 25 183-9 35-22 8-49-23-54-43-7-156-9.6-179 13.1-16 16-1.5 41 19 49.6v.3z"/><path class="st40" d="M593 704c15 12 26 29.5 30 48.5m-4-19.5c24-4.5 50.5 8.5 62 30.7"/><path class="st68" d="M441 681.5c0 31-13.5 60-23 93 94 41 212 45 307 3"/><path class="st68" d="M486 717c-18.5 9.5-11 36 2 47 44 38 170 39 208.5-7"/><linearGradient id="SVGID_00000010300643410979321390000010567667997916476851_" gradientUnits="userSpaceOnUse" x1="567.366" y1="429.07" x2="603.366" y2="242.07" gradientTransform="matrix(1 0 0 -1 0 1100)"><stop offset="0" style="stop-color:#08ffce"/><stop offset=".106" style="stop-color:#1aedd1"/><stop offset=".321" style="stop-color:#4abdd9"/><stop offset=".624" style="stop-color:#9770e6"/><stop offset="1" style="stop-color:#ff08f7"/></linearGradient><path style="opacity:.6588;fill:url(#SVGID_00000010300643410979321390000010567667997916476851_);enable-background:new" d="M727 773.8c-94 42-211 37-304-3 13-29.6 21-59.7 23-90 94 25 191 5 283-19 6 39.2 12 55.2-2 112z"/><path d="m510 692.9 36 53.2 23-12.5 54 65.9 39-5.6-88-87.7-16 15.5-14.5-26.6M595 692c28 32 55 64 81 97.3l31-9.1-87-94" style="opacity:.5216;fill:#fff;enable-background:new"/><path class="st40" d="M727 774c-94 42-211 37-304-3 13-29.6 21-59.7 23-90 94 25 191 5 283-19.3 6 39.3 12 55.3-2 112.1v.2z"/><path d="M714 683c3 16 4 32 2 48m1 15-.5 6" style="opacity:.6118;fill:none;stroke:#fff;stroke-width:10;stroke-linecap:round;stroke-linejoin:round;stroke-miterlimit:10;enable-background:new"/></g><style>.st16,.st40,.st68{fill:none;stroke:#fff;stroke-width:10;stroke-linecap:round;stroke-linejoin:round;stroke-miterlimit:10}.st40,.st68{stroke:#000}.st68{opacity:.6;enable-background:new}</style><g id="visor"><path class="st68" d="M425 452.5c-10 10-4 21-3 34 1 17.5-25 17-23 50.8 2 14 13.5 16 23 23.7 16 13-12 46.5 10.5 59 28 9 30-39 60.5-13 35 26 45-3 76-1 14 3 23 19.6 37 17.6 15-2 18-20 26-30.7 12-16 32 5 58-7 14-7 10.8-31 27-33 10-1 22-7 25-17.8 1-4 .7-9 3-11.9 3-4 9-5 11-9"/><path class="st68" d="M483 474c-28 10-52 59-14 72m214-104.1c32-1 53 43 26 64m-216 .1c-38 74 159 54 184 5"/><path d="M667 467c-60.6-40.6-281 59-113 83.5 33 5 185.5-41 113-83.9v.4z" style="fill:#fff"/><linearGradient id="SVGID_00000094605671738681660570000007936507584095639945_" gradientUnits="userSpaceOnUse" x1="531.586" y1="652.528" x2="653.586" y2="545.528" gradientTransform="matrix(1 0 0 -1 0 1100)"><stop offset="0" style="stop-color:#7b00ff"/><stop offset="1" style="stop-color:#ff0084"/></linearGradient><path style="fill:url(#SVGID_00000094605671738681660570000007936507584095639945_)" d="M550 467.8c-14 18 11 55 13 77 5 7 19.7 5 25-2 12-19.9-19.5-44-2-62 34-18 16 44 33 54.9 14 3 24-5 18-20-3-15 7-32-2-46-17-26.7-57-6.7-85-1.9z"/><path class="st16" d="M616 472c4 3 6.5 7 7 12m1 11v3"/><path d="M589 509.6c-6 26 3 45 25 27.9 4-17.5-4-37.8-25-27.9z"/><path class="st40" d="M623 456c-34 1-67 9-98 22.5-39.6 17-51 50.7-3 66 40 13 129-5.8 157-37.4 27-31.1-23.5-52.1-56-51.1zm-138 18c-20 15.5-47 54-14 71m210-103.1c29 12 42 36.5 27 65"/><path class="st40" d="M548 470c-15 25 21 51 15 75m57-87c33.5 21 8 44.5 21 70m-51.3 15c6-24-26-55-1-64 30-4 16 42 30.5 58"/><path class="st40" d="M580 500c4 9 19.8 11 27 7"/><linearGradient id="SVGID_00000036223863161345539850000005378798673148752026_" gradientUnits="userSpaceOnUse" x1="447.777" y1="687.666" x2="720.78" y2="506.665" gradientTransform="matrix(1 0 0 -1 0 1100)"><stop offset="0" style="stop-color:#ff002b"/><stop offset="1" style="stop-color:#ffd500"/></linearGradient><path style="opacity:.6902;fill:url(#SVGID_00000036223863161345539850000005378798673148752026_);enable-background:new" d="M490 437.6c-27-5-59.5-2-69 27.5-2 8 6.5 14 8.5 23-13 13.5-31 37-21 56 17 16 28 12 22 41.3-4 12 0 36 16.5 28 24-20.5 25-38 55-9.8 36 21 42-28 89 4.9 5 3 10.5 7 16 5.2 5-1 9-7 10.9-11.5 19.7-55 51 4 78-31 18-41 36-9 44-50 9-8 22-7 24-22.2 3-23-25-35-31-54.5-6-26 13-63-29-63-42 9.6-31 58-93 33-71-35-61.4 34.5-120.9 23.1z"/><path class="st16" d="M713 395c6.5 2 9 9 9 15m-2 13v2m26.5 60c3 3 5 8 5 13m-183-80c6-3 13.5-1 19 2m12.4 4 2.1 1m-121.5 25c-7-1-15-1-22 0M726 523c1 4 0 8-2 11m-36 27.5c-2 4-4 9-9 10.6m-12-.1h-2m-56 21c-1 3-3.5 6-5.5 9M535 592c-4 4-10 5-16 5m-11-4-2-1m-65-1.3c-1.5 3-2 7-.5 10M427 513c-4 4-6 9-7 15m-.3 10.5.3 1.5"/><path class="st68" d="M737.5 501c3 7 11 11.5 19 10.6M449 464c-5 6-13 10.9-21 13"/><path class="st40" d="M449 464c-9 26-42 39-44 68-1 8 4 17 12 19 6.5 2 13 3 15 9.8 5 16-13 44 5.5 52 24 11 23-43 58-14 45 37 47-28 95 11 27 22 25-16 40.8-28.5 15-12 35 8 52 2 15-5 15-24 24-33 7-5 17-2 23-7 14-9.6 4-29.9 7-44"/><path class="st40" d="M431 486c-24-21 3-49.7 29.8-49.5 24-2 56 9.6 74-10 39-42 61-9.7 103-5.2 46.5 2 39-48.5 78-39.5 29 11 16 33 17 56 1 18 19 29.5 27 44.9 10 16 0 42.5-21 33"/></g><style>.st40{fill:none;stroke-width:10;stroke-linecap:round;stroke-linejoin:round;stroke-miterlimit:10;stroke:#000}</style><g id="Flame_Halo"><linearGradient id="SVGID_00000161599887772636497190000018358745444819511700_" gradientUnits="userSpaceOnUse" x1="509.55" y1="997.092" x2="552.552" y2="737.079" gradientTransform="matrix(1 0 0 -1 0 1100)"><stop offset="0" style="stop-color:#f04"/><stop offset=".113" style="stop-color:#ff0642"/><stop offset=".265" style="stop-color:#ff173b"/><stop offset=".441" style="stop-color:#ff3431"/><stop offset=".634" style="stop-color:#ff5c23"/><stop offset=".839" style="stop-color:#ff8e10"/><stop offset="1" style="stop-color:#fb0"/></linearGradient><path style="fill:url(#SVGID_00000161599887772636497190000018358745444819511700_)" d="M309 217.8c-4 34 15 83.5 56 73 21 2 29 34 49 35 9 1 17-5 26-7 20-4 38.5 14 59 14 19.6 0 36-15 56-17 16-1 33 7 48 3 18-5 28-23.5 44.5-31.5 29-11.5 55-3 65.5-38.9 19-28 45.5-41 27-80.5-6.5 18-25 24-29 1-14.5-27-49.9-4-73-8-17-3-30-22-27-39.1-11.5 14-27 30.8-47 27-8-1.5-15-7-23.5-7-13 0-22 12-34 18-19 9-28-8-26-25.6-19 11-17 28-17 47-7 19-21 0-24-11-61 73-33-4-80-10 29 46 1.5 84-48 53.8 21 22 100 46 104 29 6-13 19-23 31.5-28 24-8 53 2 75-10.9 40.8-24 34.5 14 76-.9 17-12 80.9-19.9 53 17-9.6-3-15-20.8-27-16 0 42-24 54-60 34-5.5-2-10 1-12 6.3-14 17-29.9-4-30.7-19.5-9 13-16 48-35.5 44-6-2-9.5-9-16-10.7-5.5-2-11 1-16 3.4-24 11-17-17-33.5-26.2L309 217.8z"/><path class="st40" d="M308.5 212c-7 30 6.5 80.5 43 81 16-5 29 5 39 17.5 35 38 36-12 76 10.7 44.5 25 51-2 90.6-5 13 .5 24 8 37 7 23-2 35-30 57-38 16-5.8 36 .5 49-11.1 9-8 9-21 16-31 6-9 17-14 23-21.9 17-21 7-50-3-72 9.6 34-22 45-26 22.7-19.8-43-103 33-99-57-11 23-44 49-67 27-20-9-33.5 28-54 21-14-6-12-24-8-35.6-17 13-22 25-18 46-2 26-27 15-26-6-71 85-27-11-85.5-8.5 18 18.5 22 57-6 66.7C337 228 318 218 308.5 212z"/><path class="st40" d="M386 224c7 49 35 37 24 11 11 3.5 17 14 22 24 16 19.5 21-14 46 5.9 32 18 20.9-22 46-46.5-2 10.6-2 24 8 30.9 12.5 6 15-2 21-10 5-4 12 1 17.5 3.9 34 19 64-11 46-44.9 5 4.5 16 10 32 24 5-16 13-31 23-44.9 1 8-6 23.5 6 26"/><path class="st40" d="M656 196.9c-29-14-45.5 6-72 9-18.5 2-38-18-55-8-53 31-70.6-9.7-109.6 39"/><path d="M402 252c3 0 5-3 5-6.4s-.6-6 .5-9c.7-2 2-3 4-4.9 11-11 23-23 38-27 17-5 36 0 53-4 15.5-4 30-14 46-12 8 1 15 5 23 7.6 8 3 17 4 23 0 10-4 21-8 32-9s23 0 33 5" style="opacity:.6;fill:none;stroke:#000;stroke-width:10;stroke-linecap:round;stroke-linejoin:round;stroke-miterlimit:10;enable-background:new"/><path d="M736 195c1 6.5-1 13-5 18m-9 7-3 3m-30-53c5 0 9 3 11 7m-379 58c2 11 6 22 12 31m7.9 11 2.6 2M538 153c-5 3-10 7-14 12M401 302c4 5 10 8.5 17 8m61.7 3c12.5 5 27 5 39.6 0m11.3-5 4.4-1m52 2.6c9 1 18-4 23-10.8m67-29.8c8 1 16-4 19-10.9" style="fill:none;stroke:#fff;stroke-width:10;stroke-linecap:round;stroke-linejoin:round;stroke-miterlimit:10"/></g><circle cx="550" cy="550" r="500" style="fill:none;stroke:#000;stroke-width:10;stroke-linecap:round;stroke-linejoin:round;stroke-miterlimit:10"/></svg>