<svg version="1.1" id="Layer_1" xmlns="http://www.w3.org/2000/svg" x="0" y="0" viewBox="0 0 1100 1100" style="enable-background:new 0 0 1100 1100" xml:space="preserve" xmlns:xlink="http://www.w3.org/1999/xlink"><style type="text/css">.st300{fill:#00DE72;stroke:#000000;stroke-width:10;stroke-linecap:round;stroke-linejoin:round;stroke-miterlimit:10;}</style><circle class="st300" cx="550" cy="553.7" r="500"/><path d="M533 210.7c-68 59.6-71 20-121 36.5-19.6 10.9-14 30-9.7 39.6 11 23-51 9-69 40.3-10 18 .1 42-7.5 61.8-9 19.6-34 35-37 52.2-43 48-154 7-119 70.4 6 11 33-6 39 9.1 7 17.5-39 29-21 46.7 18 5 21 39.9 57 63.2 14 20 3 51 19 69.1 35.8 38 46-25 41-34.3 4-39 44-11 22 38.7-23 52 11 74 36.5 56.6 24-9 13 39 23 50.9 19.5 37 55 12 67 12 18 1 28 22 29.8 40.3 6.5 63 54 46 59 8 15.5-34 45 49 47 59.9 11 73 69 42 71 17.9 3-54-3-60.1 2-68.3 18.5-31 71 13 90.8-15.5 14-19.7-31-63.5 8-55.4 94 19 19-101 14-120.4-9-35.5 14-106 47-121.7 18-9 17-35.5 7-52.8-9.5-17-25-30.6-31-48.9-13.5-54 22-102-36-133.3-5-3-7-9.5-4-14.4 17-26 1-66-32-71.4-22-3-44 9-66.5 6.3-43.4-4.8-79.5-74.1-126.4-43.1z" style="fill:#d1d1d1"/><path d="M333 327.5C492 478 637 643 808 779.8c43-55-391-439-418-481.9-.2.1-47 11.7-57 29.6zm-4.5 60.2c127.5 150 269 289.8 412 425.2l10-15.8-418-436-4 26.6z" style="fill:#e6e6e6"/><style>.st40{fill:none;stroke:#000;stroke-width:10;stroke-linecap:round;stroke-linejoin:round;stroke-miterlimit:10}.st98{opacity:.6;enable-background:new}</style><g id="Outline"><path class="st98" d="M793 537c-1 .7-1 2-.5 3 5 10 11 35 25 30 8-2 21-13 18-22.4-.5-1-2-2-3-1.5-26 12-28-11-39-9.4v.3zm-34 274.5c6 5 26 8 25-3-6-7-20.6-12-21.5-26C750 772 744 803 759 811.5zm-219.3 52s1 .5 1 .8c9 13.5-3 36-18 40-34 6-9-6-6-44 .3-5.3 22.3 2.7 23 3.2zM342 731c5 7-4 22-4 33 8 13 29.6-5 33-14.9 2-12-17-21-28-20.2-1 .1-1 1.1-1 2.1zm31-120.2c2 23-8 47-26 61.9-13 10.9-17.5-30.6-8-27.9 6 4.2 28-18.8 34-34zm-157-59.9c-8 6-17 3-25 1-11 5 4 20 13.5 16 5-4 12-9 12-15.7-.5-.2-1.5-.2-.5-1.3zM337 473c-6-10-3-23 0-34 0-1 0-2-.6-2-9-9-23 11-19.8 20.7C318 463 338 475 337 472.8v.2z"/><path class="st98" d="M326 392c-2 29 24 45 7 44-7 2-14 1-15 11-1 11-24 0-24.5-1.3C285 433 317 404.5 326 392zm103-118c-9.9-4-16-16-18-25-4-6-9.9 1-11 6-7 54 29.5 28 29 19zm293 9c16 21 29.5 12 40 20.7 3 4 1 9.6-1 14-3 9-13 9-20 4.1-14.5-5.8-22-22.2-19-38.8z"/><path class="st40" d="M347 729c53.5 5 15 86 59 102 25 9 37-19.8 55-11.9 23 10.1 19.6 40 24 60.7 9.6 46 63 29.6 58-12.8"/><path class="st40" d="M519 861c89-9 47.5 119 114.5 115 39-6 35-47 25-76.5-3-9 0-18.5 7-24.5 24.5-21 59 15.5 84-2.5 15-11 8-33-2-45-12-15 0-32 10-43"/><path class="st40" d="M790 539c53 69.8-64 71 8 194.5 6 14 11 32 11 48.5 0 32-49 47.5-61 16"/><path class="st40" d="M721 287c2 51 64 31 74 88 6 34-11.5 71 7 103 10 18 27 31.5 34 51 8 19-4 47-27 42"/><path class="st40" d="M407 290.6c-16-8-12-29.9-2-41 17-15 40.5-10 61-6 29.8 1 49-29 75-38 50-17 81 55 133 44 23-5 48-11 69 1 25 14 33 55 10 75"/><path class="st40" d="M428 278c-16 26.5-51 17.5-76 28.5-20 10.5-28 33-23 55 10 47-43 51-39 88m25 4.5c1.5-23 35-26 41-5 7 25-13 47 16 72"/><path class="st40" d="M334 476c-20-34-61-31.5-89-9.6-20 8-43-3-64 4-22 7-28 37-5 43.5 6.5 2 23-2 26-1 15 4 11 25-5 30-21 6-10 29 6 29"/><path class="st40" d="M216 554.5c-15 15-14 41 2 55 37 22 41 31 36 69.7-2 31 46 41 53.5 10 2-10.8-4-22 0-33 13-32 44 20 62-44.5"/><path class="st40" d="M327 647.9c25 29.7-.5 47-7 75-10 32.5 34 65 53 25"/><path d="M729 262.5c9 4 16 13 18 22.5m-193-68c12.5 2 24.5 8 34 16m9 9 3 3m-163 10c-5.5-.9-12 .6-15.5 4M362 319.6c-9 2-14 10.7-16 19M339 449c4 1 6 6 6 9.8M308.5 470c-12-6-16-5-22-4M175 492c1-4 5-7 9-7.5m38 89.5c-4 8 0 16 4 19.9m44 78.6c-1 6 1 15 9 18m76-77.5c-3 14-13 14.5-16 16m4.5 119.5c-5-3-9-9-8-15M397 782c-1 14.5 7 28 14 30m90 53.9c-3 12 2 27 14.5 25M636 957c14-3 17-28 11-38m96-60.1c1-7 0-14-4-19m46-49.1c8-6.5 9-25 3-39M786 582c5-8 3-19-3-26m37-12c2-8.5-.6-18-7-24m-56-169c18 6 22 30 21 35" style="opacity:.7882;fill:none;stroke:#fff;stroke-width:10;stroke-linecap:round;stroke-linejoin:round;stroke-miterlimit:10;enable-background:new"/></g><radialGradient id="a11" cx="288.494" cy="554.914" r="39.332" gradientTransform="matrix(1 0 0 1.0187 0 -10.236)" gradientUnits="userSpaceOnUse"><stop offset="0" style="stop-color:#f01"/><stop offset="1" style="stop-color:#fe0"/></radialGradient><path style="fill:url(#a11);stroke:#000;stroke-width:10;stroke-linecap:round;stroke-linejoin:round;stroke-miterlimit:10" d="M273 536.9c-28-45 82-54 9 29.2-42 48 48 58 20 7.9-3-6-8-11-13-16.2-4-4.8-8.9-9.8-16-20.9z"/><path d="M269.9 512.1c-17 19.7 16 41 9 48.3-25.5 26-7 53 10 47" style="opacity:.6;fill:none;stroke:#000;stroke-width:10;stroke-linecap:round;stroke-linejoin:round;stroke-miterlimit:10"/><path d="M294.5 517.1c1 2 1 5 0 8M292 577c2 4 5 8 5 12" style="opacity:.8902;fill:none;stroke:#fff;stroke-width:8;stroke-linecap:round;stroke-linejoin:round;stroke-miterlimit:10"/><style>.st40,.st68{fill:none;stroke-width:10;stroke-linecap:round;stroke-linejoin:round;stroke-miterlimit:10;stroke:#000}.st68{opacity:.6;enable-background:new}</style><g id="Eye_Mouth"><path d="M553 707c-22 9-41.5 19.6-59 36.5C619.8 856 553 707 553 707zm72 20c0-13-19-18-27-6-2 1 16.5 46 27 5.6v.4zm28-33c3 18-2 56 13 67.5 88-58.5-2-67.5-13-67.5z" style="fill:#fff"/><linearGradient id="SVGID_00000135662984397971047570000016405347921401767057_" gradientUnits="userSpaceOnUse" x1="562.708" y1="-326.584" x2="588.711" y2="-216.569" gradientTransform="rotate(3.292 -17168.273 890.9) scale(1.00005)"><stop offset="0" style="stop-color:#ff0062"/><stop offset="1" style="stop-color:#ff9d00"/></linearGradient><path style="fill:url(#SVGID_00000135662984397971047570000016405347921401767057_)" d="M590.5 741.5c-6-16 18-46 32-27-6.5 113 51 51 40 39-19.8-22 24-98-102-49.5 3.5 142 54.5 73.5 30 37.5z"/><path d="M600 785c-17-46 9-78.5 28-2.8l-28 2.6v.2z"/><path class="st40" d="M721 722c-73.5-57-177-29.7-239.7 30"/><path class="st40" d="M708 714.9c-39 85-154 98-216 30"/><path class="st40" d="M560 704c-13 27 20 51.5 8.5 79m76-92c20 17.5 0 53 21 70M596 785c10-17-5-35-3-52.5 1-11 13-28 26-19 18 12-14 39 12 66"/><path class="st40" d="M597 722c-4 11 11 23 21.5 22.5m-123.5-38c-53 44-63.5 67 6 99m174.5-142c134 42 81 79.6 27 123"/><path d="M637 702.5c3 4 5 9 4 14m1 11.5v3" style="fill:none;stroke:#fff;stroke-width:10;stroke-linecap:round;stroke-linejoin:round;stroke-miterlimit:10"/><path class="st68" d="M493 706c-63.5 36-67 76 6 100.9M677 662c47 12 161 37 29 127"/><path class="st68" d="M484.5 749.9c63 68 188 59.8 228-28"/><path class="st68" d="M553 708.5c-13 23 16 47 11 74"/></g><style>.st68{stroke:#000;stroke-width:10;stroke-linecap:round;stroke-linejoin:round;stroke-miterlimit:10;opacity:.6;fill:none;enable-background:new}</style><g id="alien_00000145779733946831664370000009074345826783358107_"><linearGradient id="SVGID_00000134929046068304295460000003865380033506734480_" gradientUnits="userSpaceOnUse" x1="387.917" y1="548.513" x2="528.981" y2="548.513" gradientTransform="matrix(.9977 .06804 .06804 -.9977 -1.427 1023.765)"><stop offset="0" style="stop-color:#0f6"/><stop offset="1" style="stop-color:#09f"/></linearGradient><path style="fill:url(#SVGID_00000134929046068304295460000003865380033506734480_);stroke:#000;stroke-width:10;stroke-linecap:round;stroke-linejoin:round;stroke-miterlimit:10" d="M465 398c-61 37-45 158-3 205.5 49.6 48 94 18 99-50.8 4-54.2-22-199.7-96-154.7z"/><linearGradient id="SVGID_00000155142322038179041680000014658100529363488651_" gradientUnits="userSpaceOnUse" x1="592.641" y1="573.859" x2="716.733" y2="573.859" gradientTransform="matrix(.9977 .06804 .06804 -.9977 -1.427 1023.765)"><stop offset="0" style="stop-color:#0f6"/><stop offset="1" style="stop-color:#09f"/></linearGradient><path style="fill:url(#SVGID_00000155142322038179041680000014658100529363488651_);stroke:#000;stroke-width:10;stroke-linecap:round;stroke-linejoin:round;stroke-miterlimit:10" d="M648 437c-66 161 42 235 93 96 10-37 21-78 10-115-15-50-78-41-103 19z"/><path d="M484 434c8 36 15.5 72 22 108m209-121.1c-9 35-19 69-29.7 104" style="stroke:#000;stroke-width:10;stroke-linecap:round;stroke-linejoin:round;stroke-miterlimit:10;fill:none"/><path d="M677 547c-9.6-1-14 15-7 20 14 13 24-18 7-20zm-169 14.9c-15 2-12 28 3.5 23 13.5-3.4 11.5-25.1-3.5-23z" style="fill:#fff;stroke:#000;stroke-width:10;stroke-linecap:round;stroke-linejoin:round;stroke-miterlimit:10"/><path class="st68" d="M453.5 399c-81 54-6 303 87 216M693 384c-77 2.5-105 255-8 222.5"/><path class="st68" d="M478 433c8 36.5 16 73 22 110m-4 21c-9 12 5 34 18 25m196-171c-11.5 35-21.5 70-30 106m-13 21c-15 10-5 39.6 14 29.5"/><path d="M494 408c17 8 27 26 32 44m6 20 1 7m197-69.5c9 14 11 33 9.5 49M735 478c0 3-1 5.5-1 8" style="fill:none;stroke:#fff;stroke-width:10;stroke-linecap:round;stroke-linejoin:round;stroke-miterlimit:10"/></g><style>.st68{fill:none;stroke-linecap:round;stroke-linejoin:round;stroke-miterlimit:10;opacity:.6;stroke:#000;stroke-width:10;enable-background:new}</style><g id="Flame_Horns"><radialGradient id="SVGID_00000080209009676873749930000001060105919475124125_" cx="411.357" cy="716.24" r="98.454" gradientTransform="matrix(1 0 0 -1.3309 0 1204.53)" gradientUnits="userSpaceOnUse"><stop offset="0" style="stop-color:#ff0051"/><stop offset="1" style="stop-color:#ffae00"/></radialGradient><path style="fill:url(#SVGID_00000080209009676873749930000001060105919475124125_);stroke:#000;stroke-width:10;stroke-linecap:round;stroke-linejoin:round;stroke-miterlimit:10" d="M358 242c-15 33-24 114 14 129 32 12 107-15 104-54-2-28-30.5-13-27-71.4-3 4-8 12-11 16-4 6-15 3-13-9.9 6-32 22-48.5 1.5-81.9-5 85-52 44-.8-41.2-77 51-41 114-41 136.5 0 8.5-6 20.5-15 16C358 274 361 254.5 358 242z"/><radialGradient id="SVGID_00000046340282393842880260000016969407795463563686_" cx="704.981" cy="693.497" r="86.371" gradientTransform="matrix(1 0 0 -1.4164 0 1232.09)" gradientUnits="userSpaceOnUse"><stop offset="0" style="stop-color:#ff0051"/><stop offset="1" style="stop-color:#ffae00"/></radialGradient><path style="fill:url(#SVGID_00000046340282393842880260000016969407795463563686_);stroke:#000;stroke-width:10;stroke-linecap:round;stroke-linejoin:round;stroke-miterlimit:10" d="M708 141c-19.7 17-39 39.6-37 67 6 94-37 75-18 114 9.8 20 41 35 63 36 38-1 57-51 36-81.5 2 16-17 27-18 7.5-2-27 30-44 6-104-14 72-57 23-32-39z"/><path class="st68" d="M359 360.9c27 42 145-2 116-52m174.6-9.9c-17 40 66 84 91 50.6"/><path d="M687 187c-4 8.5-5 18-3 27m0 15v4m53-11c0 9-3 17.5-6 26m-4.5 11-1 2.5M748 311c-1 9-6 19-13.5 26m-14.5 8 4-1m-365-48c-1 11 0 23 3 34m5 14 1 5m21-143c-2 11 1 21 4 32m3 11.8v3.2" style="stroke:#fff;stroke-width:7;fill:none;stroke-linecap:round;stroke-linejoin:round;stroke-miterlimit:10"/><path class="st68" d="M354 263c1.5 11 13 28 24 18m70-22.5c-4 6-10 9-17 5m1-78.5c2 14-5 29-19 32m309-2c9-4 16-12 19-20.6m15 94.6c-3 6-10 10.5-15 6"/></g><circle cx="550" cy="550" r="500" style="fill:none;stroke:#000;stroke-width:10;stroke-linecap:round;stroke-linejoin:round;stroke-miterlimit:10"/></svg>