<svg version="1.1" id="Layer_1" xmlns="http://www.w3.org/2000/svg" x="0" y="0" viewBox="0 0 1100 1100" style="enable-background:new 0 0 1100 1100" xml:space="preserve" xmlns:xlink="http://www.w3.org/1999/xlink"><style type="text/css">.st300{fill:#00DE72;stroke:#000000;stroke-width:10;stroke-linecap:round;stroke-linejoin:round;stroke-miterlimit:10;}</style><circle class="st300" cx="550" cy="553.7" r="500"/><path d="M533 209.1c-68 59.6-71 20-121 36.5-19.6 10.9-14 30-9.7 39.6 11 23-51 9-69 40.3-10 18 .1 42-7.5 61.8-9 19.6-34 35-37 52.2-43 48-154 7-119 70.4 6 11 33-6 39 9.1 7 17.5-39 29-21 46.7 18 5 21 39.9 57 63.2 14 20 3 51 19 69.1 35.8 38 46-25 41-34.3 4-39 44-11 22 38.7-23 52 11 74 36.5 56.6 24-9 13 39 23 50.9 19.5 37 55 12 67 12 18 1 28 22 29.8 40.3 6.5 63 54 46 59 8 15.5-34 45 49 47 59.9 11 73 69 42 71 17.9 3-54-3-60.1 2-68.3 18.5-31 71 13 90.8-15.5 14-19.7-31-63.5 8-55.4 94 19 19-101 14-120.4-9-35.5 14-106 47-121.7 18-9 17-35.5 7-52.8-9.5-17-25-30.6-31-48.9-13.5-54 22-102-36-133.3-5-3-7-9.5-4-14.4 17-26 1-66-32-71.4-22-3-44 9-66.5 6.3C616 247 579.9 178 533 209.1z" style="fill:#e80068"/><style>.st40{fill:none;stroke:#000;stroke-width:10;stroke-linecap:round;stroke-linejoin:round;stroke-miterlimit:10}.st98{opacity:.6;enable-background:new}</style><g id="Outline"><path class="st98" d="M793 537c-1 .7-1 2-.5 3 5 10 11 35 25 30 8-2 21-13 18-22.4-.5-1-2-2-3-1.5-26 12-28-11-39-9.4v.3zm-34 274.5c6 5 26 8 25-3-6-7-20.6-12-21.5-26C750 772 744 803 759 811.5zm-219.3 52s1 .5 1 .8c9 13.5-3 36-18 40-34 6-9-6-6-44 .3-5.3 22.3 2.7 23 3.2zM342 731c5 7-4 22-4 33 8 13 29.6-5 33-14.9 2-12-17-21-28-20.2-1 .1-1 1.1-1 2.1zm31-120.2c2 23-8 47-26 61.9-13 10.9-17.5-30.6-8-27.9 6 4.2 28-18.8 34-34zm-157-59.9c-8 6-17 3-25 1-11 5 4 20 13.5 16 5-4 12-9 12-15.7-.5-.2-1.5-.2-.5-1.3zM337 473c-6-10-3-23 0-34 0-1 0-2-.6-2-9-9-23 11-19.8 20.7C318 463 338 475 337 472.8v.2z"/><path class="st98" d="M326 392c-2 29 24 45 7 44-7 2-14 1-15 11-1 11-24 0-24.5-1.3C285 433 317 404.5 326 392zm103-118c-9.9-4-16-16-18-25-4-6-9.9 1-11 6-7 54 29.5 28 29 19zm293 9c16 21 29.5 12 40 20.7 3 4 1 9.6-1 14-3 9-13 9-20 4.1-14.5-5.8-22-22.2-19-38.8z"/><path class="st40" d="M347 729c53.5 5 15 86 59 102 25 9 37-19.8 55-11.9 23 10.1 19.6 40 24 60.7 9.6 46 63 29.6 58-12.8"/><path class="st40" d="M519 861c89-9 47.5 119 114.5 115 39-6 35-47 25-76.5-3-9 0-18.5 7-24.5 24.5-21 59 15.5 84-2.5 15-11 8-33-2-45-12-15 0-32 10-43"/><path class="st40" d="M790 539c53 69.8-64 71 8 194.5 6 14 11 32 11 48.5 0 32-49 47.5-61 16"/><path class="st40" d="M721 287c2 51 64 31 74 88 6 34-11.5 71 7 103 10 18 27 31.5 34 51 8 19-4 47-27 42"/><path class="st40" d="M407 290.6c-16-8-12-29.9-2-41 17-15 40.5-10 61-6 29.8 1 49-29 75-38 50-17 81 55 133 44 23-5 48-11 69 1 25 14 33 55 10 75"/><path class="st40" d="M428 278c-16 26.5-51 17.5-76 28.5-20 10.5-28 33-23 55 10 47-43 51-39 88m25 4.5c1.5-23 35-26 41-5 7 25-13 47 16 72"/><path class="st40" d="M334 476c-20-34-61-31.5-89-9.6-20 8-43-3-64 4-22 7-28 37-5 43.5 6.5 2 23-2 26-1 15 4 11 25-5 30-21 6-10 29 6 29"/><path class="st40" d="M216 554.5c-15 15-14 41 2 55 37 22 41 31 36 69.7-2 31 46 41 53.5 10 2-10.8-4-22 0-33 13-32 44 20 62-44.5"/><path class="st40" d="M327 647.9c25 29.7-.5 47-7 75-10 32.5 34 65 53 25"/><path d="M729 262.5c9 4 16 13 18 22.5m-193-68c12.5 2 24.5 8 34 16m9 9 3 3m-163 10c-5.5-.9-12 .6-15.5 4M362 319.6c-9 2-14 10.7-16 19M339 449c4 1 6 6 6 9.8M308.5 470c-12-6-16-5-22-4M175 492c1-4 5-7 9-7.5m38 89.5c-4 8 0 16 4 19.9m44 78.6c-1 6 1 15 9 18m76-77.5c-3 14-13 14.5-16 16m4.5 119.5c-5-3-9-9-8-15M397 782c-1 14.5 7 28 14 30m90 53.9c-3 12 2 27 14.5 25M636 957c14-3 17-28 11-38m96-60.1c1-7 0-14-4-19m46-49.1c8-6.5 9-25 3-39M786 582c5-8 3-19-3-26m37-12c2-8.5-.6-18-7-24m-56-169c18 6 22 30 21 35" style="opacity:.7882;fill:none;stroke:#fff;stroke-width:10;stroke-linecap:round;stroke-linejoin:round;stroke-miterlimit:10;enable-background:new"/></g><style>.st113{fill:url(#SVGID_00000161607897382723119130000008384714424499667899_);stroke:#000;stroke-width:10;stroke-linecap:round;stroke-linejoin:round;stroke-miterlimit:10}.st115{fill:url(#SVGID_00000060750496457387242310000012666657064974295186_)}.st116{opacity:.6902;fill:url(#SVGID_00000147217783223614028420000005859567438160853156_);enable-background:new}</style><g id="Diamond"><linearGradient id="SVGID_00000047747315158047275670000003291867314489516677_" gradientUnits="userSpaceOnUse" x1="288.392" y1="548.057" x2="314.227" y2="509.458"><stop offset="0" style="stop-color:#00fff2"/><stop offset=".094" style="stop-color:#00f2f3"/><stop offset=".271" style="stop-color:#00cef5"/><stop offset=".51" style="stop-color:#0095f8"/><stop offset=".799" style="stop-color:#0047fc"/><stop offset="1" style="stop-color:#000dff"/></linearGradient><path style="fill:url(#SVGID_00000047747315158047275670000003291867314489516677_)" d="M288 501.7c2 15 4 33 7 46.8l29-6.4-36-40.4z"/><linearGradient id="SVGID_00000141446425912342851330000003408777914311007933_" gradientUnits="userSpaceOnUse" x1="267.149" y1="523.397" x2="303.78" y2="545.402"><stop offset="0" style="stop-color:#00fff2"/><stop offset=".095" style="stop-color:#00f1f3"/><stop offset=".273" style="stop-color:#00cef5"/><stop offset=".514" style="stop-color:#0094f8"/><stop offset=".807" style="stop-color:#0045fc"/><stop offset="1" style="stop-color:#000dff"/></linearGradient><path style="fill:url(#SVGID_00000141446425912342851330000003408777914311007933_)" d="M264 553.5c10-2 20.5-4 30.7-5.8l-6-43.6-24.7 49.4z"/><linearGradient id="SVGID_00000109030460764858650640000015191774076603487363_" gradientUnits="userSpaceOnUse" x1="274.137" y1="586.606" x2="296.946" y2="541.468"><stop offset="0" style="stop-color:#00fff2"/><stop offset="1" style="stop-color:#000dff"/></linearGradient><path style="fill:url(#SVGID_00000109030460764858650640000015191774076603487363_)" d="m260.1 554 34.9-6.3 6 45.4z"/><linearGradient id="SVGID_00000006686354308698079230000008291800467576291461_" gradientUnits="userSpaceOnUse" x1="288.999" y1="550.828" x2="317.454" y2="572.732"><stop offset="0" style="stop-color:#00fff2"/><stop offset=".125" style="stop-color:#00e8f3"/><stop offset=".388" style="stop-color:#00abf6"/><stop offset=".764" style="stop-color:#004cfc"/><stop offset="1" style="stop-color:#000dff"/></linearGradient><path style="fill:url(#SVGID_00000006686354308698079230000008291800467576291461_)" d="M301 593.8c-3-16-4-28.5-7-46.1l26.5-5.6-19.5 51.7z"/><path style="fill:none;stroke:#000;stroke-width:10;stroke-linecap:round;stroke-linejoin:round;stroke-miterlimit:10" d="m287 495-27.1 58.9L303 602l23-60.6z"/><path d="M282 493.7c-9.8 22-19 40.6-28 60.8l46 52" style="opacity:.6;fill:none;stroke:#000;stroke-width:10;stroke-linecap:round;stroke-linejoin:round;stroke-miterlimit:10"/></g><style>.st40{fill:none;stroke-width:10;stroke-linecap:round;stroke-linejoin:round;stroke-miterlimit:10;stroke:#000}.st152{fill:#ae0f45}</style><g id="Vamp"><path d="M429 737.5c57 100 248 114 303 5-22.3-58.5-275-50.5-303-5z" style="fill:#fe1767"/><path class="st152" d="M637 761.5c-120-80.6-205 29-203-19-10-23 154-62.9 203 19z"/><path class="st152" d="M647 768c5-34 49-35 50.9-46-22-15-59.5 0-75 19.8l24 25.8v.4z"/><path d="M575 734c14 4.5 26 13 36 24m8 10.5c1 1 2 2.5 3 4m35-31c5-1 10.5-2 15 0m31 3c3 0 5.5 1 8 3" style="fill:none;stroke:#fff;stroke-width:10;stroke-linecap:round;stroke-linejoin:round;stroke-miterlimit:10"/><path d="M424 720.7c2 37.5 43-33 182 8 35 26 59-19.8 114 5.9 41 19 50-119.8-20.7-73.1-44 22-97 39.6-147 39C508 695 427 639.7 424 720.7z"/><path d="M489.6 686c7 18 14 37 21 55 1.4 4 52.4-57.5-21-55zm214.4-7c-4.5 21-14 81-20 55-4-18-15-38-28-50.6-4-2.4 73.5-48.4 48-4.4z" style="fill:#fff"/><path d="m507 692.7.7-3c-9 12 9 41 3 52-5-5-18-44-21-58.7v2l17.3 7.7zM676 674c6 41 18 53 13.5 59.6-12-12-33-49.8-34-53.1l-1 1.1L676 674z" style="fill:#b3b3b3"/><path class="st40" d="M703 659.7c-65 28-131 58-200 28-99-43-102 58.5-29.7 98.5 49.7 27.5 109.6 43 166 29.7 42-10 124-71 111-147.5-4.3-24.9-27.3-17.4-47.3-8.7z"/><path class="st40" d="M484 684c14 23 23 49 28 76 4-21.5 11-42 21.5-62M653 684c19 17 28 42 37 66 7-30 10.7-67 24-92m-186 57c44-6 90 16 116.5 51.5"/><path class="st40" d="M621 739.9c18-9.5 38-12 58-11m16-.4c13 0 25 6 36 13M499 718c-24-1.5-48 4.5-68 17"/></g><linearGradient id="a19" gradientUnits="userSpaceOnUse" x1="569.719" y1="943.832" x2="764.719" y2="730.832" gradientTransform="scale(1 -1) rotate(-7.793 -9231.448 -329.654)"><stop offset="0" style="stop-color:#00fff2"/><stop offset=".09" style="stop-color:#00f4f3"/><stop offset=".25" style="stop-color:#00d6f4"/><stop offset=".46" style="stop-color:#00a5f7"/><stop offset=".713" style="stop-color:#0062fa"/><stop offset="1" style="stop-color:#000dff"/></linearGradient><path style="fill:url(#a19)" d="M637.5 543.3c47 179.5 155 8 146-52-6 13-26 22-29 2 .9-28 39.7-80 24-103.9-7 12-19.7 26-29.6 29.3-9 3-39-.8-30-23-5 7-15 23-23 25-14 3-20.6-17-24-28-23.5 47 8.5 48-1 72.4-18 17-32-9.9-29.6-27-11 18-23 44-8 62 9 10 24 13 32.5 23 6 7 9 17 3 23.5-12.8 10.4-24.8.4-31.3-3.6v.3z"/><linearGradient id="b8" gradientUnits="userSpaceOnUse" x1="360.012" y1="935.045" x2="525.135" y2="714.881" gradientTransform="scale(1 -1) rotate(-7.793 -9231.448 -329.654)"><stop offset="0" style="stop-color:#00fff2"/><stop offset=".09" style="stop-color:#00f8f2"/><stop offset=".225" style="stop-color:#00e3f3"/><stop offset=".388" style="stop-color:#00c2f5"/><stop offset=".573" style="stop-color:#0093f8"/><stop offset=".776" style="stop-color:#0057fb"/><stop offset=".992" style="stop-color:#0010ff"/><stop offset="1" style="stop-color:#000dff"/></linearGradient><path style="fill:url(#b8)" d="M412 396c29 16 5 54-13.5 31-12 45 33 35 37 77 3 26-24.5 34-31 6-12 20.5 2 38 18 52 11 9.7 8 27.5 11 41.6 10.5 47 78 52 97 8.5 5-12 6-26 13-37 13-16 35-31 33-53.9-11.5 18-41 9-26-12.2 8-11.5 22-17 33-27 15-13 22-34 19.8-54-7 16-32 15-22-5 10-19.8 10.6-31.5-4-48.8-2 49.8-72 22-42-8-15 6-23 19-29 33.5-5 12-21 21-34 19-21-6-24-42-60-23v.3z"/><path d="M764 425c-1 9.8-6 19-11 28m-3 10.5c-.5.9-1 2-1.5 3m7.5 83.2c-10.5 24-19.5 38-42.5 53M693 609h4.5m-59-135c-1 8 4 15 9 19M520 593.9c-2 14-14 29-27.5 32m-18.5.1c1.5 0 3 1 4 .8m75-81.8c-3 4-6 8-10 11m43-103c-2 7.5-7 14-13 19m-8 7.8c-1 .5-1 1-2 2m10-73.8c0 4-2 7-4 9.7M439.5 408c4 2 6 6 9 9.8m-37 31.2c2 5 6 8 10 10" style="fill:none;stroke:#fff;stroke-width:10;stroke-linecap:round;stroke-linejoin:round;stroke-miterlimit:10"/><path d="M410 397.5c8 8 11 21 7.5 32m-22-3.5c-21 46 49.8 50 32 99M401 509.6c-13 20 3 41 17 58 12 15 6 39 18 55 15 24 51 30 73 13M575 519c-6 6-14 8-22 8m47-99.5c-4 5-10 8-17 9m-9-63.5c-2 12-10 24-22 28m-21-36c-29 6-23 44-53 55m159 15c-49 84 26.5 67 29 108.5m-33-.5c10.5 49 49 119.9 100 63m49-115c-7 5-17 12-24 9m17-113c-9.5 14-23 25-39 32m-20-27c-10 8-15 27-31 24.5M668 389c-30 50 17 59-9 80" style="opacity:.6;fill:none;stroke:#000;stroke-width:10;stroke-linecap:round;stroke-linejoin:round;stroke-miterlimit:10;enable-background:new"/><path d="M429 478c17.5 17 35 34 52 51-.9-8-2-16-2.5-23 23 21 45 44 68 64 12.5-11 21-27 29-43-11 8-34 2-30-14.1L469 452.3v31l-47-52c-7 2.5-16 3-23 1-3 28 13 34 30 45.3v.4zm40-57c27 27 54 54.5 82 81 5-3 10.7-7 16-9.8-79-76-2-2-79-77m160 53.3c15 18 30 36 44 54v-19c19 27 39 53 61 77.8 2-5 5-10 9-14.9-9.8-11-46-57-73-91-2 13-2 11-2 16-5.5-9-11-17-17-26m2-18.9c33 32.5 66 66 97.5 99.2l7-9c-37-39-56-57-112-116" style="opacity:.6118;fill:#fff;enable-background:new"/><path d="M412 396c29 16 5 54-13.5 31-12 45 33 35 37 77 3 26-24.5 34-31 6.4-12 20.5 2 38 18 52 11 9.7 8 27.5 11 42 10 47 78 52 97 8.5 5-12 6-26 13-36.7 13-16 35-31 33-53.9-11.5 18-41 9-26-12 8-11 22-17 33-27 15-13 22-34 19.8-53.6-7 16-32 15-22-5 10-19.8 10.6-31.5-4-49-2 49.8-72 22-42-8-15 6-23 19-29 33.5-5 12-21 21-34 19C451 413 448.5 377 412 395.7v.3zm225.5 147c47 179.5 155 8 146-52-6 13-26 22-29 2 .9-28 39.7-80 24-103.9-7 12-19.7 26-29.6 29-9 3-39-.8-30-23-5 7-15 23-23 25-14 3-20.6-17-24-28.2-23.5 47 8.5 48-1 72-18 17-32-9.9-29.6-27-11 18-23 44-8 62 9 10 24 13 32.5 22.8 6 7 9 17 3 23.5C656 557 644 547 637.5 543z" style="stroke:#000;fill:none;stroke-width:10;stroke-linecap:round;stroke-linejoin:round;stroke-miterlimit:10"/><defs><linearGradient id="zbb" x1="524.71" y1="224.05" x2="578.63" y2="452.63" gradientUnits="userSpaceOnUse"><stop offset="0" stop-color="#ff004d"/><stop offset="1" stop-color="#c800ff"/></linearGradient><linearGradient id="zbb-2" x1="267" y1="400.7" x2="308.54" y2="400.7" gradientUnits="userSpaceOnUse"><stop offset="0" stop-color="#ff004d"/><stop offset="1" stop-color="#e100ff"/></linearGradient><linearGradient id="zbb-3" x1="189.5" y1="428.13" x2="271.07" y2="428.13" gradientUnits="userSpaceOnUse"><stop offset="0" stop-color="#ff004d"/><stop offset="1" stop-color="#ff00d5"/></linearGradient><linearGradient id="zbb-4" x1="178.74" y1="392.88" x2="276.42" y2="392.88" gradientUnits="userSpaceOnUse"><stop offset="0" stop-color="#ff004d"/><stop offset="1" stop-color="#ff00e1"/></linearGradient><style>.zbb-5{fill:none;stroke-linecap:round;stroke-linejoin:round;stroke-width:10px;stroke:#000}</style></defs><path d="M324.4 392c-3.1 8.8-9.4 11.8-13.8 17.9-13.5-5.6-21.4-23.1-16.6-37.6 3.4-10.2 13.6-17.6 15.4-28.2 11.6-67.1 45.6-40.5 85.5-70.4 31.3-23.5 77.6-8 114.1.1 86.4 19.1 150.1-42.3 237.7-42.3 49.8 0 98 93.3 41.3 124.8-4.3-7.1-9.4-14.4-19.6-20.2-31.1 22.8-73.4 13.1-109 13.2-96.2 6.3-143.7 56.1-249.2 34.8-28.1 0-56 11.4-85.8 7.9Z" style="fill:url(#zbb)"/><path d="M291.2 381.2c-61.5 53.7 13.1 39.9 17.3 28.7-7.6-7.6-16.2-16.9-17.3-28.7Z" style="fill:url(#zbb-2)"/><path d="M265.1 405.3c-45.5-1.4-46.4 27-75.6 41.4a45.9 45.9 0 0 0 41.3-1.7 13.8 13.8 0 0 1-4.1 6c18.3-2.1 38.4-14.1 44.4-32.1-3.2-3.7-5.7-7.6-6-13.6Z" style="fill:url(#zbb-3)"/><path d="M276.4 387.6c-35.8-4.3-47.3-18.6-61.3-13.7 3.8 4.2 8.9 11.3 8.6 16.9a58.7 58.7 0 0 0-45 6.8c13.3 1.3 18.5 28.3 89.9 7.3 2.2-5.6 5-10.9 7.8-17.3Z" style="fill:url(#zbb-4)"/><path class="zbb-5" d="M313.2 385.6c20.9 12.7 51.8 5.6 73.1.9 26.5-5.7 53.9 2.5 81 3.1 64 1.4 122.7-39 186.7-40.3 31.4-.7 63.9 8 93.5-2.6 14.4-5.2 27.7-15 43.1-15.7"/><path class="zbb-5" d="M324.4 392c-3.1 8.8-9.4 11.8-13.8 17.9-13.5-5.6-21.4-23.1-16.6-37.6 3.4-10.2 13.6-17.6 15.4-28.2 11.6-67.1 45.6-40.5 85.5-70.4 31.3-23.5 77.6-8 114.1.1 86.4 19.1 150.1-42.3 237.7-42.3 49.8 0 98 93.3 41.3 124.8-4.3-7.1-9.4-14.4-16.5-18.9"/><path class="zbb-5" d="M291.6 379.2c-11.8 9-32.7 27.7-21.9 38.5 7.7 7.7 22.2-6.6 28.6 4a160.1 160.1 0 0 0 11.7-11.6"/><path class="zbb-5" d="M268.4 403.9c-12.1 4.2-29.4 1.3-40.6 9.1-14.9 10.5-21.9 33.2-43.9 30.5 12.6 14.7 35 9.1 48.6-1.4a40 40 0 0 1-5.6 11.1 57.9 57.9 0 0 0 45-31.3"/><path class="zbb-5" d="M280.3 385.5c-6.9-3.2-14.2-.2-21.3-.9-16.3-1.7-28.9-18.1-46.8-9.5 5.1 2.3 10.7 10.2 12.7 15.5-14.3 4.2-18.3-13.4-56.4 9.8 20.9-5.6 33.1 14.7 53.1 15.7"/><path d="M773.9 340.5c-40.3 22.9-77.1 19.4-121.2 16.7-64.7.8-124.6 41.4-189.3 39.5-25.5-.8-51-7-79-3.2-19.7 2.8-39.7 8.4-59.3 4.7m-13-11.9a18.5 18.5 0 0 0 5.1 10m473.1-64.2a29.1 29.1 0 0 0-8.3 8.1m-494.7 44.1c.1 11.2 6.6 21 13.1 29.8m-27.3-26.6c-7.5 19.1-39 9.5-55.7 26m43.1-4.4a18.4 18.4 0 0 0 6.4 13.8" style="opacity:.6;stroke:#000;fill:none;stroke-linecap:round;stroke-linejoin:round;stroke-width:10px"/><path d="M752.2 247.6a54.8 54.8 0 0 1 28.6 21.5m6.9 12.1 2.1 4.9m-314.5-4.9a74.2 74.2 0 0 0-43.6-5.3m-14.6 4-4.3 2.1m97 86.5a90.8 90.8 0 0 1-42.3 4.5m-124.6-65.7c-6.9 3-11.1 9.8-13.6 16.6m-84.2 94.5a29.4 29.4 0 0 0-15.7 8.8m522.2-96.6a68.4 68.4 0 0 1-39.8 6.8m-388.6 39.9a85.8 85.8 0 0 0 27.2 1.9" style="stroke:#fff;opacity:.72;fill:none;stroke-linecap:round;stroke-linejoin:round;stroke-width:10px"/><circle cx="550" cy="550" r="500" style="fill:none;stroke:#000;stroke-width:10;stroke-linecap:round;stroke-linejoin:round;stroke-miterlimit:10"/></svg>