<svg version="1.1" id="Layer_1" xmlns="http://www.w3.org/2000/svg" x="0" y="0" viewBox="0 0 1100 1100" style="enable-background:new 0 0 1100 1100" xml:space="preserve" xmlns:xlink="http://www.w3.org/1999/xlink"><style type="text/css">.st301{fill:#005BEF;stroke:#000000;stroke-width:10;stroke-linecap:round;stroke-linejoin:round;stroke-miterlimit:10;}</style><circle class="st301" cx="550" cy="553.7" r="500"/><path d="M533 209.1c-68 59.6-71 20-121 36.5-19.6 10.9-14 30-9.7 39.6 11 23-51 9-69 40.3-10 18 .1 42-7.5 61.8-9 19.6-34 35-37 52.2-43 48-154 7-119 70.4 6 11 33-6 39 9.1 7 17.5-39 29-21 46.7 18 5 21 39.9 57 63.2 14 20 3 51 19 69.1 35.8 38 46-25 41-34.3 4-39 44-11 22 38.7-23 52 11 74 36.5 56.6 24-9 13 39 23 50.9 19.5 37 55 12 67 12 18 1 28 22 29.8 40.3 6.5 63 54 46 59 8 15.5-34 45 49 47 59.9 11 73 69 42 71 17.9 3-54-3-60.1 2-68.3 18.5-31 71 13 90.8-15.5 14-19.7-31-63.5 8-55.4 94 19 19-101 14-120.4-9-35.5 14-106 47-121.7 18-9 17-35.5 7-52.8-9.5-17-25-30.6-31-48.9-13.5-54 22-102-36-133.3-5-3-7-9.5-4-14.4 17-26 1-66-32-71.4-22-3-44 9-66.5 6.3C616 247 579.9 178 533 209.1z" style="fill:#2fedc1"/><path d="M335 383c30 83 32 5 73 37.1 15 15.5 23 42 16 61.4-42 113 99.7 118 61 54.2-7-10.9-7.5-29 9-23.3 9.8 3.5 1 18 5 23 9 10 22-5 19-16.2-4-16.5-16-36 10.8-37.3 92-5.5 37 129.5 32 168.5-8.5 59.8 66 95 81 28.5 4-13-5-44 8-50.3 38-5.8 29 79 57 53.4 12-11 29.6-33 39-6.7 6.5 15 17 50.1 38.5 34" style="opacity:.6;fill:none;stroke:#000;stroke-width:10;stroke-linecap:round;stroke-linejoin:round;stroke-miterlimit:10;enable-background:new"/><path d="M782 697.2c-28-63 23-79 24-126.3 78-11 .7-76-6.5-96.5-17-50 24-120-45-146.2 28-27 9-81.5-29.9-83.8-111 20-69.5-13-164-40.6-39.9 5-47 46-138 37.8-24 5-36 40-9 49.7-19 18-55-3-76 29.9-17 26-9 52 7.5 84.6 18 36 27 9 35 5.9 37-13.5 50.5 48 42 78.1-25 91 73 116 67 59.3-1-11-14-22-9-33.3 3-5 11-7.5 15-2.6 4 5-2 13 1 19 8 15 30-2 17-21-29-42 71-54 72 29.9 0 37-19 70-23 106.3-8 75 86 103 78-3.8-2-23.5 15-23 28-10.8 19.6 19.6 9 43 24 51.3 17 9.9 43-67 62 10.2 5.8 25.3 35.5 23.7 27.9 2.9z" style="fill:#ed2fd4"/><style>.st40{fill:none;stroke:#000;stroke-width:10;stroke-linecap:round;stroke-linejoin:round;stroke-miterlimit:10}.st98{opacity:.6;enable-background:new}</style><g id="Outline"><path class="st98" d="M793 537c-1 .7-1 2-.5 3 5 10 11 35 25 30 8-2 21-13 18-22.4-.5-1-2-2-3-1.5-26 12-28-11-39-9.4v.3zm-34 274.5c6 5 26 8 25-3-6-7-20.6-12-21.5-26C750 772 744 803 759 811.5zm-219.3 52s1 .5 1 .8c9 13.5-3 36-18 40-34 6-9-6-6-44 .3-5.3 22.3 2.7 23 3.2zM342 731c5 7-4 22-4 33 8 13 29.6-5 33-14.9 2-12-17-21-28-20.2-1 .1-1 1.1-1 2.1zm31-120.2c2 23-8 47-26 61.9-13 10.9-17.5-30.6-8-27.9 6 4.2 28-18.8 34-34zm-157-59.9c-8 6-17 3-25 1-11 5 4 20 13.5 16 5-4 12-9 12-15.7-.5-.2-1.5-.2-.5-1.3zM337 473c-6-10-3-23 0-34 0-1 0-2-.6-2-9-9-23 11-19.8 20.7C318 463 338 475 337 472.8v.2z"/><path class="st98" d="M326 392c-2 29 24 45 7 44-7 2-14 1-15 11-1 11-24 0-24.5-1.3C285 433 317 404.5 326 392zm103-118c-9.9-4-16-16-18-25-4-6-9.9 1-11 6-7 54 29.5 28 29 19zm293 9c16 21 29.5 12 40 20.7 3 4 1 9.6-1 14-3 9-13 9-20 4.1-14.5-5.8-22-22.2-19-38.8z"/><path class="st40" d="M347 729c53.5 5 15 86 59 102 25 9 37-19.8 55-11.9 23 10.1 19.6 40 24 60.7 9.6 46 63 29.6 58-12.8"/><path class="st40" d="M519 861c89-9 47.5 119 114.5 115 39-6 35-47 25-76.5-3-9 0-18.5 7-24.5 24.5-21 59 15.5 84-2.5 15-11 8-33-2-45-12-15 0-32 10-43"/><path class="st40" d="M790 539c53 69.8-64 71 8 194.5 6 14 11 32 11 48.5 0 32-49 47.5-61 16"/><path class="st40" d="M721 287c2 51 64 31 74 88 6 34-11.5 71 7 103 10 18 27 31.5 34 51 8 19-4 47-27 42"/><path class="st40" d="M407 290.6c-16-8-12-29.9-2-41 17-15 40.5-10 61-6 29.8 1 49-29 75-38 50-17 81 55 133 44 23-5 48-11 69 1 25 14 33 55 10 75"/><path class="st40" d="M428 278c-16 26.5-51 17.5-76 28.5-20 10.5-28 33-23 55 10 47-43 51-39 88m25 4.5c1.5-23 35-26 41-5 7 25-13 47 16 72"/><path class="st40" d="M334 476c-20-34-61-31.5-89-9.6-20 8-43-3-64 4-22 7-28 37-5 43.5 6.5 2 23-2 26-1 15 4 11 25-5 30-21 6-10 29 6 29"/><path class="st40" d="M216 554.5c-15 15-14 41 2 55 37 22 41 31 36 69.7-2 31 46 41 53.5 10 2-10.8-4-22 0-33 13-32 44 20 62-44.5"/><path class="st40" d="M327 647.9c25 29.7-.5 47-7 75-10 32.5 34 65 53 25"/><path d="M729 262.5c9 4 16 13 18 22.5m-193-68c12.5 2 24.5 8 34 16m9 9 3 3m-163 10c-5.5-.9-12 .6-15.5 4M362 319.6c-9 2-14 10.7-16 19M339 449c4 1 6 6 6 9.8M308.5 470c-12-6-16-5-22-4M175 492c1-4 5-7 9-7.5m38 89.5c-4 8 0 16 4 19.9m44 78.6c-1 6 1 15 9 18m76-77.5c-3 14-13 14.5-16 16m4.5 119.5c-5-3-9-9-8-15M397 782c-1 14.5 7 28 14 30m90 53.9c-3 12 2 27 14.5 25M636 957c14-3 17-28 11-38m96-60.1c1-7 0-14-4-19m46-49.1c8-6.5 9-25 3-39M786 582c5-8 3-19-3-26m37-12c2-8.5-.6-18-7-24m-56-169c18 6 22 30 21 35" style="opacity:.7882;fill:none;stroke:#fff;stroke-width:10;stroke-linecap:round;stroke-linejoin:round;stroke-miterlimit:10;enable-background:new"/></g><defs><style>.axg-2{fill:none;stroke-linecap:round;stroke-linejoin:round;stroke-width:10px;stroke:#000}</style></defs><path d="M243.3 626.7c44.2-16.7-13.7-73.4 35.6-67.3 21.7 19.1-.3 76.2 37.7 66.4 49.7-12.9 2.3-62.1-2.5-73.1.2-30.9 41.4 1.5 50.2-38.3-18.2-24 5.5-57.2-11.5-72.8-23.1-21.4-36.9 8.5-40.9 12.3-49.6-11.5-64.2 25.4-117.3 13.2-18.8 1.7-44.6 25-24.6 41.9 11.7 10 34.4-3.6 41 13 5.6 20.2-54 25.9-6 50.9-4.7 29.1 19.3 38.5 38.3 53.8Z" style="fill:#ff00d9"/><path class="axg-2" d="M314.8 454c1.5-23.1 35.3-26.3 41.4-5 7.1 24.8-12.6 46.8 16.2 72.4"/><path class="axg-2" d="M333.7 475.6c-20.3-33.6-61.2-31.5-89.3-9.6-20 8.1-43.3-2.6-63.8 4.1s-28 37.5-4.7 43.5c6.5 1.7 23.1-2 26.4-1.1 15.3 4 11.4 25.2-5.4 30.1-21.2 6.2-10.2 28.6 6.3 29"/><path class="axg-2" d="M215.8 554.5c-14.8 14.8-13.6 41.2 2.4 54.6 36.7 21.9 40.7 30.9 35.7 69.7-2 31.4 45.8 41 53.5 10 1.8-10.8-4.5-22.1.2-32.7 12.4-32.5 44.2 20.2 62.3-44.5"/><path class="axg-2" d="M243.3 626.7c37.7-15 11.5-42.6 12.4-55.1s13.2-19 23.2-12.2c21.7 19.1-1.6 66.4 37.7 66.4 19.4 0 27.9-27.7 18.2-43.9-6.2-10.4-19.9-17.2-20.7-29.2-.9-15.6 12.2-15.8 24-15.8 17.1 0 22.7-11.2 26.4-22.4"/><path d="M252.3 630.1c37.2-23.8-3.2-55.3 13.1-65.7 19.7-12.7 16.5 44.9 26.1 55.7 14.5 16.1 42.1 14.9 49.3-5.5 15-42.4-25.4-45.4-20.3-64.1 4.2-15.7 34.1 2.2 47.4-30.2m-34.2-44.7c-5.3-11.3-15.2-21.9-8-36.1m-109.9 115c-6.5 6.5-14.4 12.3-26.3 7.7" style="opacity:.6;stroke:#000;fill:none;stroke-linecap:round;stroke-linejoin:round;stroke-width:10px"/><path d="M338.8 448.3a14 14 0 0 1 5.2 10.6m-61 4.8a28.5 28.5 0 0 1 22.2 6.9m-128.7 18.6a16.8 16.8 0 0 1 13-6.3m11.2-1.3 2.1.3M350 516.8c-2.5 4.5-5.9 7.7-12.8 6.9m-14.8 66.2c2.4 4.6 2 10.8-.1 15.9m-98.6-12.5a24.4 24.4 0 0 1-2.5-20.2" style="stroke:#fff;fill:none;stroke-linecap:round;stroke-linejoin:round;stroke-width:10px"/><path d="M742 680.8c-16 15-63 0-116 44 3 19 39.5-11 76.5 27.7 7.1-7.5 38.5-55.5 39.5-71.7z" style="stroke:#000;stroke-width:10;stroke-linecap:round;stroke-linejoin:round;stroke-miterlimit:10"/><path d="M751 654c-12 44.5-52 26-68 30.9-22 6-36 32-58.5 34-21 2-43-23-61-12.2-69.7 42-49.8-29.5-88-19.6-52 13.5-25-25-62-24.9 37-1-3 50.5 15 79 19 29 51 13 80.5 40.2 30.1 28 41 77 92 42.9 24-16 43-2 68-6 39-6 25-46 43-67.9 47-57 32-90 34-79.4 6 38-42.5 89-42.5 89-14-27-78-30-70.7-15 2.5 5 8 33 8 33-5.5-26-14-46-32-61.8 29 12 48-24 73-31 28-5 52 8 66.5-23" style="fill:#ff1768;stroke:#000;stroke-width:10;stroke-linecap:round;stroke-linejoin:round;stroke-miterlimit:10"/><path d="M433 680c-17 41 20 32 30 33 16.5 2 26.5 19.5 41.5 26.9 37 18 64-42 123 9.2 0-10.8-8-23-16-28.9-78-28-75 39.6-114-12.5C472 674 454 722 433 680zm198 67c8.5 1.5 5 16 8 23 5-19 35-31 24-28.5-10 3.5-22-7.5-32 5.5z" style="opacity:.6;stroke:#000;enable-background:new;stroke-width:10;stroke-linecap:round;stroke-linejoin:round;stroke-miterlimit:10"/><path d="M598 725.5c9 8 15 19 18 30m6 16.5c0 1 0 2 1 3.5m44-21.5c7 2 13 7 17 13" style="fill:none;stroke:#fff;stroke-width:10;stroke-linecap:round;stroke-linejoin:round;stroke-miterlimit:10"/><path d="M417 666c10 9 6 24 3 36-14 65 34 60 77 80 28 17 41 66 79 62.5 16-1.5 29-16 44.5-19 39-4 66.5 17 83-34 5-15 8-32 17-45 17-24 36-48.5 29.7-79.6" style="opacity:.6;fill:none;stroke:#000;stroke-width:10;stroke-linecap:round;stroke-linejoin:round;stroke-miterlimit:10;enable-background:new"/><defs><linearGradient id="dra" x1="230.79" y1="253.29" x2="665.02" y2="253.29" gradientUnits="userSpaceOnUse"><stop offset="0" stop-color="#ff1767"/><stop offset="1" stop-color="#7817ff"/></linearGradient><linearGradient id="dra-2" x1="588.55" y1="1013.86" x2="552.43" y2="225.81" gradientUnits="userSpaceOnUse"><stop offset="0" stop-color="#68e4aa"/><stop offset=".53" stop-color="#60dccd"/><stop offset="1" stop-color="#5ad5e8"/></linearGradient><linearGradient id="dra-3" x1="188.23" y1="417.81" x2="278.62" y2="681.02" gradientUnits="userSpaceOnUse"><stop offset="0" stop-color="#68e4aa"/><stop offset="1" stop-color="#68a2e3"/></linearGradient><linearGradient id="dra-4" x1="853.03" y1="560.54" x2="903.13" y2="628.09" gradientUnits="userSpaceOnUse"><stop offset="0" stop-color="#ea00ff"/><stop offset="1" stop-color="#ff0015"/></linearGradient><linearGradient id="dra-5" x1="285.61" y1="586.67" x2="346.13" y2="586.67" gradientUnits="userSpaceOnUse"><stop offset="0" stop-color="#1900ff"/><stop offset="1" stop-color="#ff00e5"/></linearGradient><linearGradient id="dra-6" x1="336.39" y1="577.03" x2="337.23" y2="577.03" xlink:href="#dra-5"/><linearGradient id="dra-7" x1="308.22" y1="608.3" x2="320.96" y2="608.3" xlink:href="#dra-5"/><linearGradient id="dra-8" x1="316.49" y1="515.86" x2="323.58" y2="515.86" xlink:href="#dra-5"/><linearGradient id="dra-9" x1="326.68" y1="534.59" x2="327.13" y2="534.59" xlink:href="#dra-5"/><linearGradient id="dra-10" x1="882.84" y1="616.58" x2="890.55" y2="616.58" xlink:href="#dra-5"/><linearGradient id="dra-11" x1="874.25" y1="626.11" x2="876.14" y2="626.11" xlink:href="#dra-5"/><linearGradient id="dra-12" x1="881.26" y1="552.36" x2="884.4" y2="552.36" xlink:href="#dra-5"/><linearGradient id="dra-13" x1="860.39" y1="578.31" x2="862.25" y2="578.31" xlink:href="#dra-5"/><linearGradient id="dra-14" x1="867.94" y1="523.86" x2="875.61" y2="523.86" xlink:href="#dra-5"/><style>.dra-21,.dra-23,.dra-24,.dra-25,.dra-28,.dra-6,.dra-7,.dra-9{fill:none}.dra-6{stroke:#357457}.dra-21,.dra-23,.dra-24,.dra-25,.dra-28,.dra-6,.dra-7,.dra-9{stroke-linecap:round;stroke-linejoin:round}.dra-21,.dra-24,.dra-6,.dra-7,.dra-9{stroke-width:6px}.dra-21,.dra-24,.dra-25,.dra-28,.dra-7{stroke:#000}.dra-28,.dra-7{opacity:.6}.dra-9{stroke:#1e4231}.dra-23{stroke:#fff;stroke-width:4px}.dra-24{opacity:.52}.dra-25,.dra-28{stroke-width:10px}</style></defs><path d="M345.4 287.4c-34.5 41-61.3 88.2-81.5 137.9-33.7-15.8-30.3-8.7-11.5-40.3a52.6 52.6 0 0 0-21.6 1.6c13.7-26 27.9-52.6 49.6-72.5-8.5-2.6-17.1-2.7-25.5-1.5a185.6 185.6 0 0 1 71-70.2 44.5 44.5 0 0 0-13.6-7.2c26.2-25.9 64.3-36.6 97.9-50.1a160.3 160.3 0 0 0-16.7-18.3c39.9-14.2 86.9-23.2 127.9-9a57.2 57.2 0 0 0-21.3-43.5c25.1.5 76.5 17.9 90.7 39.3.2-26-11.2-51.3-26.7-72.3 87.1 20.6 130.4 121 78.6 195.2-16.3-28.5-34.1-71.7-63.4-86.9-88.1-7-177 29.9-233.9 97.8Z" style="fill:url(#dra)"/><path d="M878.2 509.7c24.9 29.3 43.8 111.7-2.3 130-1.3 59.3-11.2 120.1-41.5 170.9 10.9 32.6 35.3 68.3 24.7 103.6-7.1 21.2-33.9 32.5-54.8 25.7-17-8.8-16.1-41.1-25.4-58-97.5 141.7-226.1 124.2-347.3 22.6-1.9 29.2-5.3 94.8-51.2 66.5-15.2-9.8-35.9-20.8-39.2-40.1 1.6-30.7 15.7-62.2 4.5-92.8-236.2-171.7-67-680.3 234.8-648.3a244.6 244.6 0 0 1 62.4 87.7c17.2-23.3 21.3-54.5 27.8-81 172.8 14.5 214.4 162 207.5 313.2ZM726.9 361.2c-113.4-32.3-322.5-23.7-368.1 107.3-6.4 18.6 4 35.5 13.5 51.4 43 71.9-55.4 157.2 3 222.6 63.1 70.8 172.9 138.3 249 144.5 53 4.3 165.1-121.3 148.6-198.1-21.4-99.3 84.7-290.6-46-327.7Z" style="fill:url(#dra-2)"/><path d="M131.1 475.6c13.8-12.5 35.8-8 46.7 6.8 28.8 44.1 7.1 101.1 17.8 149.8 5.9 37.7 21.2 58.9 55.2 76.9-23.4-92.5-10.3-193.1 17-283.6-10.8-5.8-91.3-38.1-134 46.9.8.7 1.3-1.8-2.7 3.2Z" style="fill:url(#dra-3)"/><path d="M193.5 534.1c6.7 53.1-10.9 119.5 31.4 161.1 9.8 7.6 24 11.3 28.3 22.9s-5.5 44.6-8.8 60.5l18.1 5.4a166.3 166.3 0 0 0-41.2 71.7 495 495 0 0 0-47.9-75.1c6.9.4 15 1.3 21.4-1.9 10.8-110.4-134.6-194.3-62.4-306.2 41.4-20.6 58.8 27.3 61.1 61.6Z" style="fill:#e3c268"/><path d="M121.9 497.5c83.6-53.8 16.9 200.2 127.2 240.3 18.6-22.5-17.2-36-30.8-47.8-40.8-53.6-12-128.2-30.5-189.1-8.6-34.9-56.2-45.9-65.9-3.4Z" style="opacity:.48"/><path class="dra-6" d="M267 466.9a28.4 28.4 0 0 0-2.9 22.4m-12.5 9.8a20.2 20.2 0 0 0 14.8-5.4c6.2 8.1 21.4 11.2 26.1.2m16.6-127.4c-9.7 24.1 25 24.1 23.9 1.6m36-58.4c1.8 25.7 30.7 16.3 33.4.3"/><path class="dra-6" d="M388.6 325.8c2.1 9.1 14.4 10.4 20.6 4.4m395.7-11.3c8.2 23.1 38.6 3.4 21.8-13.5"/><path class="dra-7" d="M618.6 135c2.4 11.2 8.3 21.9 7.2 33.3m-179.2 2.4a19 19 0 0 1 7.5 5.7m-7.8 6a37.9 37.9 0 0 1 11.1 10m9.9-7.9a16 16 0 0 0-13-4.8m-68.7 46.1a29 29 0 0 0-16.8-5.4m-50.2 67.5A49.4 49.4 0 0 0 297 290m-31.9 67.4a11.5 11.5 0 0 1 5.8-1.6m.1 9.9a20.2 20.2 0 0 1 11.2-3.4m2.5-11.9a15.6 15.6 0 0 0-11.3 7.1"/><path class="dra-6" d="M828.5 420c-8.1 34.3 47.1 30.2 32.3-2.2"/><path class="dra-6" d="M842.7 444.4a38.4 38.4 0 0 1-17.8 16.7m29.2-18.1a21.7 21.7 0 0 0 17.7 9.5m-41.9 8.1c8.3 14.1 30.4 8 35.5-6.7"/><path d="M731.2 352.3c-118.8-33.4-337.9-24.5-385.6 111.5-6.8 19.3 4.1 36.9 14.1 53.4 45.1 74.6-58.1 163.1 3.1 231.1 66.1 73.5 181.1 143.6 261 150 55.5 4.4 172.9-126 155.6-205.7-22.5-103.1 88.7-301.7-48.2-340.3Z" style="stroke:#f80;stroke-width:18px;stroke-linecap:round;stroke-linejoin:round;fill:none"/><path class="dra-9" d="M375.5 295.3c-21.8 23.5 17.5 42.3 24.7 11.8"/><path class="dra-9" d="M391.5 321.7c.2 10.6 14.6 13.3 20.7 5.7m-98.5 31.7c-19.1 21.5 17.9 36 19.4 7.2m-63 100.1c-17.6 36.5 32.9 46.1 26.6 4"/><path class="dra-9" d="M267.3 488.3a17.5 17.5 0 0 1-15.8 7.2m554.2-177.6c14 23.3 35.5-4.8 15.3-18.3m8.2 117.4c-6.1 34.4 43.4 31.4 30.4-2.7"/><path class="dra-9" d="M856 439.2a17.4 17.4 0 0 0 18.5 9.2m-35.3-7a27.1 27.1 0 0 1-15.7 16.4m6.9-2.4c5.9 17.7 30.8 9.8 33.4-6.2"/><path class="dra-7" d="M285.5 597.4c.1-2.3 2.5-3.7 4.5-4.7 11.5-4.6-7.3-17.3 9.9-22.1M316 559c-10.3 9.5 10.3 24.1 7.1 37.7m529.2-24c-14.9 10.4 7.1 23.3 2.8 35.1m21.5-60.5c-14.1 15.3 8.8 30.3 6.1 47.2"/><path d="M840.1 604.1c7.5 8.7 25.7 6.3 17.9-7-3.7-6.3-10.6-14.5-7.7-21.5a9.3 9.3 0 0 1 6.2-5.2c21.4-5.4 7.3 30.1 23.9 25.8 14.2-3.6-1.8-27-4.8-32.4-6.4-11.4 3.7-25.3 17.7-24.8 43.8 113-57.8 120.3-53.2 65.1Z" style="fill:url(#dra-4);stroke:#000;stroke-width:6px;stroke-linecap:round;stroke-linejoin:round"/><path d="M287.1 607.8a8 8 0 0 1 6.2-12.6c4.2-.2 7.2-3.7 3.3-10.2-6.3-10.3 3.3-20.6 11.3-10.8 5.1 6.2.5 17.8 8.5 22.3a7.4 7.4 0 0 0 10.4-3.8c4.6-11.1-17.5-23.8-10.8-33.7a7.9 7.9 0 0 1 10.2-2.5c4.5 2.2 8.9 6.9 13.7 8.1a8.1 8.1 0 0 1 6.1 7.2c2.7 46.2-44.4 56.2-58.9 36Z" style="fill:url(#dra-5);stroke:#000;stroke-width:6px;stroke-linecap:round;stroke-linejoin:round"/><path d="M337.1 572.7a23.2 23.2 0 0 1-.7 8.7" style="fill:url(#dra-6);stroke:#fff;stroke-width:6px;stroke-linecap:round;stroke-linejoin:round"/><path d="M321 607.2a19 19 0 0 1-12.8 1.8" style="fill:url(#dra-7);stroke:#fff;stroke-width:6px;stroke-linecap:round;stroke-linejoin:round"/><path d="M316.5 508.8a39.1 39.1 0 0 1 7.1 14.1" style="fill:url(#dra-8);stroke-width:9px;stroke:#fff;stroke-linecap:round;stroke-linejoin:round"/><path d="m326.7 533.4.2 2.1c0 .2 0 .3.2.3s.1-.2-.4-2.4Z" style="fill:url(#dra-9);stroke-width:9px;stroke:#fff;stroke-linecap:round;stroke-linejoin:round"/><path d="M890.5 610.8a19.5 19.5 0 0 1-7.7 11.5" style="fill:url(#dra-10);stroke:#fff;stroke-width:6px;stroke-linecap:round;stroke-linejoin:round"/><path style="fill:url(#dra-11);stroke:#fff;stroke-width:6px;stroke-linecap:round;stroke-linejoin:round" d="m876.1 625.7-1.8.8"/><path d="M884.4 549.4a7 7 0 0 0-3.1 5.9" style="fill:url(#dra-12);stroke:#fff;stroke-width:6px;stroke-linecap:round;stroke-linejoin:round"/><path d="M860.4 576.9a6.4 6.4 0 0 1 1.8 2.8" style="fill:url(#dra-13);stroke:#fff;stroke-width:6px;stroke-linecap:round;stroke-linejoin:round"/><path d="M867.9 519a37.9 37.9 0 0 1 7.7 9.7" style="fill:url(#dra-14);stroke-width:9px;stroke:#fff;stroke-linecap:round;stroke-linejoin:round"/><path class="dra-21" d="M639.5 150.1a52.3 52.3 0 0 0-20-15.5c4.6 9.1 11.6 24.4 8.5 34.3m-134.5 5a101.9 101.9 0 0 0-45.8-5.4c8 3.3 16.7 7.7 20.2 16"/><path class="dra-21" d="M462.3 177.9a44.8 44.8 0 0 0-14.5 2.2 20.7 20.7 0 0 1 11.9 10.8m-49.6 18a96.3 96.3 0 0 0-41.1 10.2 26 26 0 0 1 17.6 6m-49.3 37.7a131.6 131.6 0 0 0-39.7 23.8 32.3 32.3 0 0 1 22.5-.8m-28.7 42.1a107.7 107.7 0 0 0-27.4 27.7c6.4-3.4 13.4-7 20.6-6.1"/><path class="dra-21" d="M276.2 350.8a49.8 49.8 0 0 0-6.9 12.6 17.1 17.1 0 0 1 12.9-3.4"/><path d="M145.5 465.9c3.2-9.8 9.5-22.3 21.4-21.7-1.8-9.2 13.2-17 21.4-16.2m-26.4 38.3c1.9-3.5 4.5-6.9 8.2-8.3a16.2 16.2 0 0 1-2.3-8.9m8.5 7a18.8 18.8 0 0 1 10.7 2.2 13.6 13.6 0 0 1 11.9-8.7 26.2 26.2 0 0 1-3-13.7m-2.1-6a11.3 11.3 0 0 1 3.7 1c2.6-5.7 9.5-8.1 15.8-8.6M181 480.2a13.5 13.5 0 0 1 8.4-.9 24.3 24.3 0 0 1-3.1-14.9m8.3 15.1a36.1 36.1 0 0 1 11.6 5.8 1.4 1.4 0 0 0 1 .5 1.6 1.6 0 0 0 .8-.6 16.8 16.8 0 0 1 12.8-4.6 21.8 21.8 0 0 1-.7-18.5m-16-13.6c6.3.3 12.3 3.1 17.4 7 .2.1.4.3.6.3a1.8 1.8 0 0 0 .7-.5 17.3 17.3 0 0 1 10-6 25.1 25.1 0 0 1-2.6-16.1m-11.5-9.2c4.5-.2 8.9 1.6 13 3.3a15.5 15.5 0 0 1 9.3-7.3m-47.8 91.1a15.2 15.2 0 0 1 8.2.8 27.9 27.9 0 0 1 2.4-20.6m35.9-41.9a46.6 46.6 0 0 1 14.8 5.6m-28 26.1a28.4 28.4 0 0 1 17.8 14.7m-38.1 18.4c4.7 2.1 7.4 6.8 10.9 10 6.1-4.9 15.1-6.4 22.1-2.3m-41.8 20.3a35.2 35.2 0 0 1 8.8 3c-.4-5.7 2.5-12.1 5.9-16.6m-.6 20.1a25.4 25.4 0 0 1 6.2 9.2 15.5 15.5 0 0 1 18.1-3M197.2 573a22.8 22.8 0 0 1 9 .7 28.2 28.2 0 0 1 7.9-12.7m-3.4 15.9a32.4 32.4 0 0 1 9.1 11 13.8 13.8 0 0 1 14.6-2.8m-37.1 15.3c4.4-.6 9.5-1 13.1 2.1a18.3 18.3 0 0 1 5.4-10.9m-.8 15a27.1 27.1 0 0 1 7.2 10.2 17.3 17.3 0 0 1 11.7-6.1m-33.8 19.1a26.4 26.4 0 0 1 12.1 2 24.7 24.7 0 0 1 5.9-10.9m-1.2 13.7a33 33 0 0 1 8.5 11.1 16.2 16.2 0 0 1 10.8-4.5m-29.4 17.1a26.1 26.1 0 0 1 10.4 1.1 14.7 14.7 0 0 1 4.9-9.6m.2 11.7a26.7 26.7 0 0 1 9.1 10.6 15.5 15.5 0 0 1 8.3-3m-12.8 6.9a17.8 17.8 0 0 0-5 9.1m12.9 14.7c3.1.1 6.6 1.6 9.5-.1" style="opacity:.49;stroke:#000;stroke-width:6px;stroke-linecap:round;stroke-linejoin:round;fill:none"/><path class="dra-23" d="M178.5 439.3c-2.1 1.4-2.1 4.3-1.5 6.5m-19.8 9.8a7.8 7.8 0 0 0-.7 4.8m53.2-27.9a13 13 0 0 1 9.3.4m-18.2 24.7a12.3 12.3 0 0 1 8.8 1.5m-35.7 6.8a9.1 9.1 0 0 1 6.1-.4m61.7-33.7a10.2 10.2 0 0 1 8.4-2.9m-16.6 31.5a11.6 11.6 0 0 1 9.1.8M223 492.3a12.1 12.1 0 0 1 8.3 5m-40-7.4a10.3 10.3 0 0 1 3.5.6m5.3 32a16.3 16.3 0 0 1 4.6 3.7m17.1 8.2a14.5 14.5 0 0 1 8.4-4.5m-12.1 9.2a5.2 5.2 0 0 0-.6 1.6m-15.9 13.7a15.1 15.1 0 0 1 4.4 3.5m21.6 5.7a15.6 15.6 0 0 0-8 6.5m-17.1 13.8a10.5 10.5 0 0 1 5.6 3.9m19.7 7.3a11.5 11.5 0 0 0-5.5 5.2m-18.4 10.5a12.5 12.5 0 0 1 6 5.1m18.8 9.3a14.1 14.1 0 0 0-3.6 4.8m-16.8 11.1a11 11 0 0 1 5.7 4.5m18.6 7.2a9.5 9.5 0 0 0-4.2 4.2M215 668.3a8.7 8.7 0 0 1 4.8 3.4m15.9 10.3a15.1 15.1 0 0 0-3.3 6.7"/><path class="dra-9" d="M206.4 518.1c-12.9-41.8 36.4-45.5 38.6-4.2m-34.1 38.6c-4.5-28 24-36.6 30.8-22.7M209.2 580c1.1-13.5 16.4-31.4 29.2-18.7"/><path class="dra-9" d="M193.2 515.4c9.9-1.9 17.8 6.7 22 14.8m-18.9 16.1c9.4.4 16.9 8 20 16.5m-20.2 14.6c10.5-2.2 19.8 6.5 22.1 16.5"/><path class="dra-9" d="M213.7 607.6c1.5-12 10.9-22.7 21.4-18.8m-38.3 15.8c10.6-4 20.4 7.8 23.3 17.2m15.6-7a26.1 26.1 0 0 0-19.9 21.4"/><path class="dra-9" d="M198.4 634.5c11.4-2.9 23.4 4.6 25.4 18m3.1-167.7c-13-22.3 3.5-42.6 26.1-25.5m-71.1 25.1a23.6 23.6 0 0 1 24.8 6.8"/><path class="dra-9" d="M195.1 482.7c-17.2-26.7 7.8-42.2 26.8-21.5"/><path class="dra-9" d="M166.3 468.8c1.2-10.5 15-11.3 22-5.7m53-10.2c-11.2-11.3-11.2-34.2 14.1-30.1"/><path class="dra-9" d="M205.4 451.6c-20.4-26.7 11.6-32.2 27.4-18.2"/><path class="dra-9" d="M218.5 426.6a17.3 17.3 0 0 1-3.6-11.4m-38.2 43.6c-16.3-18.9-.7-36.7 20.6-23.5m-5.1-3.4a10.6 10.6 0 0 1 1.6-11.4"/><path class="dra-24" d="m118.2 510.7 68.8-3.4m-70.8 41.5 75.1-5M121.9 585c22.9-2.6 46-4.3 69.1-5.1m-53.9 41.7c18.4-2.6 37-4.7 55.5-6.3m-36.9 37.1c13.8-1.7 27.6-2.8 41.5-3.3m-19.9 39.8c11.1-.4 22.3-3.6 36.4-4.1M197 745.5a465.3 465.3 0 0 1 50.1.7m-50.3 24.5a297.8 297.8 0 0 1 45.3 1m-50.7 29.4c18.1.2 36.3.7 54.5.7"/><path class="dra-6" d="M245.2 544.2c6.9 9.6 19.9 9.1 27 1.1-4.5 3.8-7.1 9.3-9.2 14.8m-19.3 9.3a18.4 18.4 0 0 0 14.9-5.3 30.8 30.8 0 0 0 17.2 13.3"/><path class="dra-6" d="M271.1 575.1a63.1 63.1 0 0 1-5.5 16m-23.3 8.1c5.5 6.5 15.1 2.6 20.2-2.5 3.4 9.1 13.6 14.8 23 16m-41.6 28.2c21.2 27.8 42.9.3 47.2-23.9m26.7 5.3a33.5 33.5 0 0 0 23.2 21.1m7.6-49.4a14.6 14.6 0 0 0 5.9 5.4m-3.6-39.2a14 14 0 0 0 8.9 2.2m-11.1-20.2a17 17 0 0 0 9.3-3.6"/><path class="dra-6" d="M280.2 643.1c8.1 13.2 25.4 26.2 40 14.3a24.6 24.6 0 0 0 13.6 10m-81-18.7a37 37 0 0 1-8.1 11.9"/><path class="dra-6" d="M248.3 680c24.8 24.7 41.2 6.8 47.1-21.1"/><path class="dra-6" d="M285.5 682.9c10.9 16.3 32.5 28.3 45.3 7.2"/><path class="dra-6" d="M254.7 705.3c19.8 29.9 40.2 28 47-8.4"/><path class="dra-6" d="M274.7 724.2a38.3 38.3 0 0 1-8.7 13.4m26.9-17.3c10.7 14.3 30.9 28 39.9 4.2"/><path class="dra-6" d="M277.7 757.2c15.7 12.1 28.9-6.7 30.5-22.7"/><path class="dra-6" d="M298.9 754.9c14.9 28.7 38.5 31.9 47.5-2.6"/><path class="dra-6" d="M318.7 775.8a26.2 26.2 0 0 1-10.4 20.1m27.6-23.1c10.6 19.8 33.6 53.5 51.5 20.2"/><path class="dra-6" d="M352.8 797c-5.2 9.8-12.1 20.6-24.1 20.5 4.8 2.6 10.8 4.4 12.6 10.3m35.3-22.7c6.6 25.7 32.8 56.9 52.1 21.7"/><path class="dra-6" d="M418.3 837.6c8.1 27.9 34.1 49.3 54.8 18.3"/><path class="dra-6" d="M462.4 865.5c10.7 28.9 38.1 57.7 56.9 16.6"/><path class="dra-6" d="M509 897.4c16 29.8 39.1 40.5 55.5 4"/><path class="dra-6" d="M553.9 919.2c19.2 37.2 40.6 29.9 53.8-6.2m29.6 2.9c33.8 48.2 61.5 18.8 56.2-29m7.4 41.6c18.4 1.2 24.1-22.9 20.8-37.3-2.6-6.7-12.4-8.6-14-16m15.1 15.1c22.1 14.4 34 .2 30.3-24.6m-17.5-18a42.9 42.9 0 0 0 12.6 17.1m1.1-34.4c18.9 16 37.1 5 40.9-17.1 15.1 8.1 24.6-9.6 24.1-22.9 11.7-5 14.7-17.3 14-28.9 6.9-3.7 10.3-10.4 11.2-18a18.1 18.1 0 0 0 20.4-5.9"/><path class="dra-6" d="M835.4 756.8a22.5 22.5 0 0 0 16.7 8.8M824 782.5c4.5 4.7 10.4 8.7 17.1 8.5m-70.7 6.5a46.4 46.4 0 0 0 14.5 12.7m-1.9-37.9c2 1.5 5.3-.4 6.6 1.8 4.3 7.3 9.7 15.9 18.8 17.2m-13.5-19.9a35.9 35.9 0 0 0 15.2-14.7 11.4 11.4 0 0 0 11.8 5.8m-29.6-13a26.9 26.9 0 0 0 22.3-15.8c13.7.1 21.2-13.2 25-24.6 11.3 5.9 24.2-4.4 28.1-15.2m-73.4-4.2c12.1 15 35.3 6.2 39.3-11.4 14.5 10.6 31.6-6.2 35.4-20.3m-76.8-3.9c12.4 19.9 31.9 12.8 41.8-5.1 8.8 11 26.3 5.6 31.8-6.1m-71.7-17.4c14.3 20.7 31.8 12.4 40.8-7.4m-38.1-14.5c12.7-1 20.2-13 25.2-23.3a15.9 15.9 0 0 0 11.2 5.1m-28-24.2c6 7 17.3 5.7 23-1"/><path class="dra-6" d="M812.1 565.6a19 19 0 0 0 5.3 8.8m-4.2 20.7a39.5 39.5 0 0 0 18.5 11.3m-9.4 28.3a27.8 27.8 0 0 0 7 10.3m-33.7-15.6a40.1 40.1 0 0 1-3.6 16.7m30.9 15.1a24.5 24.5 0 0 0 6.2 11.8m-34.7-15.3a60.4 60.4 0 0 1-2.3 20.3m64-25.6a13.9 13.9 0 0 0 6.3 4.4c.1.1.2.1.2.2h-.1m-39.2 35.6c2.2 5.2 5.3 10.4 10.2 13.4m22.7-27.8a17.9 17.9 0 0 0 7.3 7.6m-66.8 8a30.5 30.5 0 0 1-.8 17.2m.6 11.5a18.4 18.4 0 0 0 10.2 9.9m20.4-2a20.9 20.9 0 0 0 7.6 8.8m18-28.3a25.5 25.5 0 0 0 11.8 10.7m-61.2 22.8a21.5 21.5 0 0 0 3.3 7.6m-2.8 61.9a22.1 22.1 0 0 0 10 9.8m6.3 11.4a37 37 0 0 0 .3-10.5c4.9 1.4 9.4-2.3 12.4-5.8m-58.4 17.3c9.8 23.6 36.1 40.4 45.4 6.4 6.1 7.2 20.7 14.8 25.9 3"/><path class="dra-6" d="M792.9 858.4a31.4 31.4 0 0 1-11.5 16.6m52.4-23.7c-3.1 29.5-26.7 49.5-47.8 20.4"/><path class="dra-6" d="M827.6 872.7c6.5 6.9 18.7 9.5 25.8 2.3m-49.2 10.2c-2.6 7.1-8.6 11.9-15.1 15.2"/><path class="dra-6" d="M795.2 898.7c16.6 22.4 50.1 6.5 45-19.7"/><path class="dra-6" d="M837.5 897.2a21.9 21.9 0 0 0 20.9 1.2m-45.5 10.3a23.8 23.8 0 0 1-15.5 19.5m-44.5-45.8c5.2 1.9 10.7 3.8 16.3 3.4m-48 28a29.1 29.1 0 0 0 19.9 6.5m-51.6 4.9a22.4 22.4 0 0 0 7 2.4m6.7.9c-.5 32.6-43.4 50.7-63.1 22.3-12.3 16.8-39.2 2.1-45.5-13.6"/><path class="dra-6" d="M610.6 956c-15.7 33.6-50.3 24.8-60.5-7-15.7 11.9-36.6-5.3-39.7-21.9-18.3 10.2-39.6-8.5-43.7-26.2-10.5 6.5-24.1 1.6-31.7-7.1"/><path class="dra-6" d="M599 971.5a29.7 29.7 0 0 0 9.9 11.2M521 947a29.8 29.8 0 0 1-6.4 4.8m-35-30.4a47.8 47.8 0 0 1-8 6.9m5.9-38.9a24.9 24.9 0 0 1-6.8 8.3c-.2.2-.5.4-.4.6m52 17.8c-2.1 3.1-5.1 5.3-8.1 7.4l.2-.2m52.1 13.7a75.6 75.6 0 0 1-10.6 9.8m96.7-13.7a120.6 120.6 0 0 1-7.8 14.1h-.2c-.1 0-.1-.2 0-.2M351.9 836.9c9.3 12.9 31.8 12.2 38.2-3.1"/><path class="dra-6" d="M377.3 844c6.6 23.6 35.4 44.2 52.7 18.1m-76.4 8.8c5.7 10.6 18.5 14.2 28.4 6.8 6.7 21 25.1 34.5 43.5 16.1"/><path class="dra-6" d="M392.4 867.3a33.7 33.7 0 0 1-5.6 7.3m-19.5 6.8a36.1 36.1 0 0 1-15.6 15.1"/><path class="dra-6" d="M354.9 893.6c4.4 11.5 16.7 25.1 29.7 18 7.4 17 27.8 19.1 40.5 6.6"/><path class="dra-6" d="M398.3 899.7a29.1 29.1 0 0 1-7.6 8.8m25.8-8.6a31.1 31.1 0 0 0 6.7 11.5m-52.8-.9a44.9 44.9 0 0 1-8.3 8m37.7 6.5a38 38 0 0 1-6.3 7m23.3-7.8a19.3 19.3 0 0 0 6.6 7.8m-78.3-7.6a16.2 16.2 0 0 0 12.4-3.3c5.1 11.8 18.8 19.9 30.9 13.9 7.2 11.4 23.7 15.1 34.3 6.2m271.4 10.6a20.7 20.7 0 0 0 6.2 3.8m-41.1 8.7a47.5 47.5 0 0 1-10.3 14.4"/><path class="dra-9" d="M238.7 627.3c19.5 32.1 41.6 28.2 49-14.5m33 6.3c3.7 9.8 11.3 20.6 22.9 20.5m-61.8-1.9c14.7 26.4 38.5 29.8 47.7-1.5m-37.3 18c-4.9 28.5-18.3 48.1-46.3 18.2"/><path class="dra-9" d="M249.9 643.8a36.1 36.1 0 0 1-6.4 11.5m18.4 30.9a35.9 35.9 0 0 1-9.6 17.7m70.5-50.9a27.8 27.8 0 0 0 13.7 12.3m-50.8 10.3c22.7 33.5 40.8 27 50.7-7.9"/><path class="dra-9" d="M298.1 692.9c-6.8 35.8-17.7 38.7-41 8.9"/><path class="dra-9" d="M272.3 719.4a39.6 39.6 0 0 1-8.4 15.3m29.1-20.5c18 22.3 31.9 28.9 40.7-.9m-28.5 15.4c-5.4 32.5-17.5 32.3-36.1 19"/><path class="dra-9" d="M300.9 746.6c1.7 13.2 32 52.2 43.9-.9"/><path class="dra-9" d="M315.2 770.4c.5 9.1-2.9 19.9-11.7 23.9m33.7-26.9c10.7 17.6 32 56.9 47.8 20.4"/><path class="dra-9" d="M350.5 790.6c-5.4 17-22.5 35.4-41.1 10.5m70.1-3.8c3 23.1 29.1 63 45.7 25.5"/><path class="dra-9" d="M420.3 832.1c9.2 23.8 29.7 53.5 49.7 19.6"/><path class="dra-9" d="M464.6 860.3c12 25.3 32.8 62.3 51.7 18.3"/><path class="dra-9" d="M510.5 889.6c15 28.6 33 49.1 51 8.5"/><path class="dra-9" d="M555.3 911.9c18.9 37.4 32.4 39.5 48.5-1"/><path class="dra-9" d="M594.9 931.2c21.1 31.4 41.3 32 55.4-4.9"/><path class="dra-9" d="M642.1 915.1c30.1 43.6 50.5 12.9 48-26.5m-301.3-63.4c-13.7 35-39.3 8.5-51.4-11.9"/><path class="dra-9" d="M380.9 838.7c6.8 26.6 34.4 48.8 48 12.7m-79.5 4.7c11.4 25.4 30.5 30.6 41.5 6.1"/><path class="dra-9" d="M364.8 877.2a25.3 25.3 0 0 1-14.2 15m34.4-18.6c8.2 24.6 26.5 37.7 44.9 8.4"/><path class="dra-9" d="M357.3 890.6c9.9 19.9 26.5 28 39.3 4.7"/><path class="dra-9" d="M387.8 907.6c7 21.2 28.2 18.8 39.6 2.7m-7.9-14.6a23.2 23.2 0 0 0 8.2 14.5m-60.6-3c-3.9 8.6-13.1 13.6-22.3 13.6m15.4-4c7.5 18.3 24.5 24.7 36.2 5.7"/><path class="dra-9" d="M391 930.1c6.2 17.9 28.1 17.4 36.1 1m-8.2-10.9a19 19 0 0 0 8.5 10.6m47.9-47.3c-10.3 22.6-29.3 22.3-43.8-1.5"/><path class="dra-9" d="M467 896.2c13.3 27.1 33.2 45.6 54.2 12.5"/><path class="dra-9" d="M477.9 915.4a27.5 27.5 0 0 1-12.5 11.8m46.7-5.3c8.6 32.6 34.1 38.2 52.5 8.5"/><path class="dra-9" d="M520.4 941.7a43.7 43.7 0 0 1-13.1 10.7m45.9-7c1.7 13.6 29.6 53.5 56.2 5.1"/><path class="dra-9" d="M562.4 965.5A20.6 20.6 0 0 1 551 973m-36.7-24.5a28 28 0 0 0 2.2 9.5m123.7-12.5c19.9 30 56.3 17.8 59.1-19.7"/><path class="dra-9" d="M694.4 946.6a25 25 0 0 0 12.7 7m12.4-46c34.5 25 47.4-12.4 44.3-25.6"/><path class="dra-9" d="M732.8 916.1a30.9 30.9 0 0 1-1.3 17.8m18.5-57.6c7.1 4.2 15.7 6.8 23.6 4.5m4.4-48.1c15.1 37.4 43.2 32.6 38.4-11"/><path class="dra-9" d="M816.9 833.7c5.8 8.6 22.6 21.8 28.6 6.8m-55.7 13.1a22.8 22.8 0 0 1-11.1 18.5"/><path class="dra-9" d="M785.3 866.5c26 29.5 40.8 12.9 45.2-19.4"/><path class="dra-9" d="M827 865.8c7 9.2 21.9 14.8 28.2 1.9m-69.9 28.7c8.1-.9 13.8-7.3 15.6-14.7m-5.5 11.2c15.7 22.5 48 11.4 40.7-17.9"/><path class="dra-9" d="M836.6 891.8a21.1 21.1 0 0 0 22.1 2.3m-49.8 11.6c.8 8.5-5.4 18.7-14.3 19.7m-44.4-99.6c20.3 15.3 35.3 6.2 36.2-18.3"/><path class="dra-9" d="M772.9 794.8c16.2 18.7 33.6 27.8 38.1-4.4"/><path class="dra-9" d="M805.9 807.5c7.5 15.8 17.1 17.8 25.5 5.5m-39.5-43c12.1 30.8 34.6 17.2 32.1-8.2"/><path class="dra-9" d="M824.2 774c2.9 10.9 17.7 19.4 25 7.9m-17.2 5a23.5 23.5 0 0 1-5.8 12.2M807 741c4.6 26.6 30.3 22.1 28.8-3.9"/><path class="dra-9" d="M783.1 767.7c11 6.5 23.6-8.6 25.7-18.5m25.7.7c4.8 6.9 12.5 13.3 21.4 12.1m-26.6-39.2c7.6 26.8 29.5 19.9 37.1-.8"/><path class="dra-9" d="M795.4 710.1c11.5 37.6 39.9 14.5 39.6-5.7"/><path class="dra-9" d="M809.7 730.4a19.1 19.1 0 0 1-18.3 15.4m34.8-58.8c7.7 25.8 33.1 27.9 39.6-1.9m-74.9-7.2c11 24.8 34 18.2 40.2-5.4"/><path class="dra-9" d="M855.8 704.6a18.1 18.1 0 0 0 9.9 13.7m-39.5-61.7c5.9 32.7 36.3 21.9 39.1-.6"/><path class="dra-9" d="M858.8 671a19.3 19.3 0 0 0 9.4 13.2M791 645.7c11.9 24.6 30.7 21.4 41.2-2.2m-7.1-11.9c8 15.9 26 31.2 36.9 8.4"/><path class="dra-9" d="M857.9 646.9a14.1 14.1 0 0 0 12.4 8.5m-76.7-36.3c18.5 29.1 33.7 12.3 41.3-13m-21.8-17.7a38.3 38.3 0 0 0 21.2 15.4"/><path class="dra-9" d="M796.5 600c13.3-3.8 20.3-15.6 22.8-26.5"/><path class="dra-9" d="M815.7 563.2a22.7 22.7 0 0 0 19.1 19.1m-590.2-45.2c6.5 10.2 20.2 17 29.2-.3"/><path class="dra-9" d="M804.5 553.9c7.5 11.5 15.5 9.6 23.3 1.4m-564.6 34.6c3.9 9.5 11 16.6 21.1 18.8m-24.1-50.9c3.4 7 9.1 13.5 16.9 15.6m-12.9-25.5c-3.8 8.9-11.3 21-22.5 16.2m105.7 22.4a14.7 14.7 0 0 0 8.9 8.7m-8.8-42.2a12.5 12.5 0 0 0 14.7 4.2m-15.5-19A15.1 15.1 0 0 0 358 533"/><path class="dra-9" d="M240.4 592.9c16.7 18.3 27.5-10.2 27.5-22.4m332.5 393.6c12.8 30.2 43.1 25.7 55.4-2.2"/><path class="dra-9" d="M651.3 971a13.1 13.1 0 0 0 6.8 6.3m-51.8-.8a18.2 18.2 0 0 1-6.1 7.9m86.8-66.1c32.2 21.6 35.6-16.3 30.9-36.3"/><path class="dra-9" d="M709.8 871.3c10.8 19.6 50.9 38.8 37.5-12.9"/><path class="dra-9" d="M737.5 844.5c7.7 12.8 19.1 27.4 32.4 20.9"/><path class="dra-24" d="M206.1 823.9a164.4 164.4 0 0 1 25.3.1m-40.9-104.9c20.3 0 40.6-3 61-2.5"/><path class="dra-9" d="M171.2 449.9c-14.7-7.1-24.3 3-19 17.3m68.7 195.9c-.3-9.1 7.3-17.3 16.4-17.9"/><path class="dra-9" d="M206.8 662.6c10.7-3.8 20 5.1 23.1 14.8"/><path class="dra-9" d="M225.3 692.2a19.3 19.3 0 0 1 15.1-19.8"/><path class="dra-25" d="M566.1 177.7c34.5 25.2 60.7 61.7 76.1 103 54.8-86.2 15.3-177-83-200.6 17.6 20.3 36.9 44.7 33.4 73.1"/><path class="dra-25" d="M605.6 166.9c-28.1-31.1-70.5-54.1-113-54.1 15.2 10.4 29.9 25.2 31.6 44.4m12.9 7.8c-46-22.9-102.4-15.7-149 1.7 9.8 4.7 20.1 9.8 26.3 18.7"/><path class="dra-25" d="M432.3 185.1c-38.2-1-98.7 27.4-127.5 52.2a38.2 38.2 0 0 1 23 4m16.2-4.1c-39.7 11.7-71 42.2-92.2 76.8a127.4 127.4 0 0 1 30.2-2.3m12-6.2c-29.3 19.7-51.3 51.9-65.2 84.2a50.8 50.8 0 0 1 24.2-5.8m9.1-8.4a139.4 139.4 0 0 0-23.9 34.4"/><path class="dra-25" d="M576.9 189.3c-254.1-14-372.2 280.7-330.8 499.9 11.6 61.7 53.6 108.5 98.9 149.5"/><path class="dra-25" d="M264.6 425.5c-67.1-42.1-148.7 34.7-150.8 104.3-3.7 121 82.7 121.7 82.5 252.1l-24.5-.6a265 265 0 0 1 51.5 83.1c1-32 22.3-58.4 41.3-82.4l-20.7-1.6c2.2-18.4 5-37.2 13.4-53.8"/><path class="dra-25" d="M127.8 480.2c13.3-18.8 66-26.2 65.9 69-.1 57.9-7.1 135.3 56.7 162m93.2 108.9c7.6 30.3 9.1 62.9.1 92.8-3.9 13.2-7 26.1 6.1 37.9 81.3 73.1 82.6-11.2 79.6-81.6m2.1 33.6C559.3 1005.9 673.7 1030 777.3 882"/><path class="dra-25" d="M770.1 862a129.4 129.4 0 0 1 18.1 53.5c2.9 28.2 25.1 31.7 47.9 21.7 34.3-15.2 28.1-41.7 20.2-70.2-7.2-25.8-15.2-50.8-36.7-69.7M874 641c-2.3 57.9-4.6 119.8-39.5 168.2M264.1 525.3c17.7 13.8 16.6 38.8 16.2 59.1-.8 47.2 59.4 44.1 65.1 3.7 5.2-36.3-4.4-79.7-33.4-104.4"/><path class="dra-25" d="M821.1 545.5c17.8 13.8 16.6 38.9 16.3 59.1-.9 47.2 59.3 44.2 65.1 3.7 5.2-36.3-4.5-79.7-33.5-104.4m-198.5-308c181.9 22.9 207.7 149.4 207.7 315.7"/><path class="dra-25" d="M726.9 361.2c-113.4-32.3-322.5-23.7-368.1 107.3-6.4 18.6 4 35.5 13.5 51.4 43 71.9-55.4 157.2 3 222.6 63.1 70.8 172.9 138.3 249 144.5 53 4.3 165.1-121.3 148.6-198.1-21.4-99.3 84.7-290.6-46-327.7Z"/><path class="dra-25" d="M740.4 342.5C616.1 307.6 387 316.9 337.1 458.6c-7.1 20.1 4.3 38.4 14.7 55.6 47.2 77.8-60.6 170 3.3 240.8 69.2 76.6 189.4 149.6 272.9 156.3 58.1 4.6 180.9-131.2 162.8-214.3-23.5-107.4 92.8-314.4-50.4-354.5Z"/><path d="M341.3 449.4c-38.9 71.3 53.7 62.2-.7 182.8-70.5 156.6 181 256.4 254.6 277.8 7.9 2.3 38.4 6.7 46.4 4.7 63.9-16 128.5-92.6 141.4-153.5" style="stroke-width:10px;stroke:#000;stroke-linecap:round;stroke-linejoin:round;fill:none;opacity:.48"/><path class="dra-25" d="M786.4 322.5a96.6 96.6 0 0 1 44.7 60.6m-444.9-38.6a152.1 152.1 0 0 0-70.7 85.3m272.1 513.4c31.9 10.5 69 3.4 94.8-18M486.3 230l95.3 73.5M499 314q36.4-44.8 71-92m129.9 22.8 54 69.2m-63.2-7.2a508.7 508.7 0 0 0 67-62"/><path class="dra-23" d="M390.8 311.9a8.4 8.4 0 0 1-7.3 3.8m24 7.2a8.4 8.4 0 0 1-5.1 1.9m-77.2 47.6a7.8 7.8 0 0 1-6.1 3.1M289.5 485c-1.4 2.9-4 6.1-7.5 5.7m538.9-181.6a8.6 8.6 0 0 1 1.1 7m32.4 108a8.1 8.1 0 0 1-4.3 8.3"/><path d="M781.9 335.9c7.1 3.2 12.5 9.4 17.6 15.4m-21.7-102.5a111.6 111.6 0 0 1 24.5 22m10.2 10.2 2.3 3.8m-376.9-52.6a175.9 175.9 0 0 0-43.3 30.1m254.9-87a77.1 77.1 0 0 1 2.8 33.1m-2.1 13.8-1.3 5.6M807.7 361l2.3 2.8m-424.2-3.9a101.6 101.6 0 0 0-21.4 18.4m-8.6 9.8-2.8 4.2" style="stroke-width:10px;stroke:#fff;stroke-linecap:round;stroke-linejoin:round;fill:none"/><path class="dra-23" d="M868.7 442.4a8.1 8.1 0 0 1-3-1.3M855.4 454a12.9 12.9 0 0 1-6.9 4.5m-20.8-11.8a12.3 12.3 0 0 1-4.1 3.4m-570.9 84.7a9.4 9.4 0 0 0 4.7 4.9m-9.3 19.1a11.4 11.4 0 0 0 4.3-2.4m7.3 24.4c-1 3-2 6.1-4.4 8.2m22.1 35.9a21.6 21.6 0 0 1-5.1 10.9m-4 3.5-1.3.7m53.8 1.4a19.3 19.3 0 0 1-6.8 8.4m17.2-25.2a15.3 15.3 0 0 0 5.9 6.2m-56 34.7a20.5 20.5 0 0 1-5.3 9.8m47.9 5.3a15.3 15.3 0 0 1-5.9 7.4m-4.6 2.3-1.1.1m-23.5 13.1a27.4 27.4 0 0 1-4.2 8.8m40.5 4.8a18 18 0 0 1-4.5 6.8m-24.3 13.7a21 21 0 0 1-3.9 8.1m43.1 7.3c-1.1 3.2-2.5 6.4-4.8 8.7M308 778a12.9 12.9 0 0 1-3.1 6.3m71.9 5a13.9 13.9 0 0 1-5.7 6.3m-29.8-.7a17.9 17.9 0 0 1-5.9 7.2m-3.7 3-1.6.6m27.7 22.6a24.2 24.2 0 0 0 8.4 6.1m50-10.1a12.3 12.3 0 0 1-5.1 5.9m6.5 27.7c-1.5 2.5-3.4 4.6-6.2 5.2m47.1-7.8a11.2 11.2 0 0 1-6.8 4.4m-71.2 7.1a7.9 7.9 0 0 1-6.8 3.9m45.2 15.1c-2.2 2-4.5 4.1-7.4 4.8m-4.4 1-1.6-.2m-19.1 7.1a11.1 11.1 0 0 1-5.5 3.5m34.6 11a19.9 19.9 0 0 1-6.2 2.6m6.9 19a8.9 8.9 0 0 1-5.5 2.4m-24.5-12a10.2 10.2 0 0 1-5.8 2.5m-23.5-17.2a12.1 12.1 0 0 1-4.6 2.8M463.7 888a15.3 15.3 0 0 1-7 4.2m47.7-6.8c-2 2.1-4.1 4.4-6.9 5m12 22.4a18.3 18.3 0 0 1-7.9 5.5m46.3-10.4a15.7 15.7 0 0 1-8.4 6.1m10.9 22.4a19.1 19.1 0 0 1-13.4 6.3m-27.9 0a13.6 13.6 0 0 1-3.5 2.1m83.9-21a20 20 0 0 1-7.2 8.3m12.9 26.6a20.2 20.2 0 0 1-8.9 6.9m-6 .9h-1.4m-27-.5-1.7.8m93.8 1.5a20.5 20.5 0 0 1-6 6.1m3.2-43.5a23.4 23.4 0 0 1-3.6 6.1m45.2-33.4a27.2 27.2 0 0 1-.7 9.4m6.4 28.3c-2.2 4.3-5.1 8.6-9.4 10.8m33-48.5a19.6 19.6 0 0 1-3.3 11.8m17.9 9.2a14.8 14.8 0 0 1-1.3 6.5M732 908a18.2 18.2 0 0 0 9.7 1.9m1.1-34.9a12.3 12.3 0 0 1-2 9.1m11.4-30.6c1.9 2.3 4.2 4.6 7.2 5.2m22.3.3a9 9 0 0 1-2.5 3.9m41.4-.5a18.9 18.9 0 0 1-5.4 10.1m32.3-5.5a6.7 6.7 0 0 1-5.8 1.3m11.8 21.3a10 10 0 0 1-5.9.6m-24.5 7.3a13.9 13.9 0 0 1-9.2 1.1m-21.8-12.3a7.5 7.5 0 0 1-1.9 1.7m11.4 24.6a8.5 8.5 0 0 1-3.6 5.1m30.5-80.9a11.5 11.5 0 0 0 5.7 3.8m-24.7 1c-1 3.3-2.3 6.9-5.4 8.7m-26.2-33.7a10.7 10.7 0 0 1-4.5 8.5m28.9-25.6a9.7 9.7 0 0 1-5.1 5.9m26.6 7.2a8.2 8.2 0 0 1-4.8 2.4m-21.1-58.4a14.5 14.5 0 0 1-5.6 4.2m24.9 11.6a11.8 11.8 0 0 1-5.3 8.2m30.7-.6c-2 1.4-4.7 1-6.7-.2m-6.9-34.9a8.3 8.3 0 0 1-4.4 5.9m27.6 4.7a6.8 6.8 0 0 1-4.4-1.9m-47.3-17.7a11.4 11.4 0 0 1-3.1 2.7m28.5-24a16.2 16.2 0 0 1-6.2 7m35.9 6.8a14.9 14.9 0 0 1-6.5 5.1m7-40.5a13.5 13.5 0 0 1-6.6 6.9m-29.1-20a13.2 13.2 0 0 1-7.9 6.2m41.6-20.5a12.5 12.5 0 0 1-7.1 4.3m-26.3-20.6c-1.5 2.3-3.4 4.8-6.1 5.5m35.1-10.3a8.8 8.8 0 0 1-7.2-1.8m-22.2-20.5a12.5 12.5 0 0 1-8.3 5.6m-3.1-47.3a15.1 15.1 0 0 1-4.5 6.9m25.4 7.4a19.5 19.5 0 0 1-5.1-2.8m-5.2-37.1a7.9 7.9 0 0 1-4.5.9m13.4 17.6a13.7 13.7 0 0 1-3.9-3.3"/><path class="dra-28" d="M564.5 217.6q-32.8 48-68.5 92.1"/><path class="dra-28" d="M481.4 234.5c32.3 24 65.7 50.3 96.7 73.4m174.7-65.5Q721.3 274.8 687 304"/><path class="dra-28" d="M697.2 247.9q25.3 35.8 53.9 69.5m-108.9-36.7c-19.6-33.8-42.4-74.6-81.2-92.4m44.8-21.9a75.7 75.7 0 0 0-12.8-23.5m-55.7 20.7a112.3 112.3 0 0 0-19.8-25.7m-84.7 46.8a82 82 0 0 0-32.2-11.2m-57.2 63.1a59.7 59.7 0 0 0-25.1-3.7m-25 71.9a104.6 104.6 0 0 0-32 3.6m.5 67.1a96 96 0 0 0-24.3 6.6m327-202.3a12.7 12.7 0 0 1-2.1 6.8M261.2 530.1c25.7 21.9 3.6 61.7 24.6 85.2 13.8 15.5 42.7 10 51.6-8.8m481.2-55c28.2 24.9-6.1 97 52.3 93.9M769.2 862.9a55.8 55.8 0 0 1-8.3 41.3m-418.4-82.3a14.7 14.7 0 0 1-12.9 1m56.6-478.4c-41.5 14.3-68.6 51.7-70.7 85.3m470.9-107.3c22.6 3 43.7 26.9 44.9 61.2"/><circle cx="550" cy="550" r="500" style="fill:none;stroke:#000;stroke-width:10;stroke-linecap:round;stroke-linejoin:round;stroke-miterlimit:10"/></svg>