<svg version="1.1" id="Layer_1" xmlns="http://www.w3.org/2000/svg" x="0" y="0" viewBox="0 0 1100 1100" style="enable-background:new 0 0 1100 1100" xml:space="preserve" xmlns:xlink="http://www.w3.org/1999/xlink"><style type="text/css">.st302{fill:#6A10EB;stroke:#000000;stroke-width:10;stroke-linecap:round;stroke-linejoin:round;stroke-miterlimit:10;}</style><circle class="st302" cx="550" cy="553.7" r="500"/><g data-name="Layer 54"><path d="M531.7 209c-67.9 59.6-70.9 20.3-120.8 36.5-19.6 10.9-14.3 30.3-9.7 39.6 11.2 22.8-50.8 8.7-68.6 40.3-10.3 18.3.1 42.2-7.5 61.8s-33.8 34.7-36.8 52.2c-43.4 48.2-154 6.6-119.1 70.4 6.2 11.4 32.9-6.3 39.1 9.1 7 17.5-38.8 29.4-21.3 46.7 17.7 4.9 20.7 39.9 56.9 63.2 13.8 20 2.7 51.4 19.4 69.1 35.8 37.8 46.3-24.8 41.3-34.3 4.3-38.8 43.9-10.6 22.2 38.7-22.8 51.7 11.2 74 36.5 56.6 24-8.9 13.3 38.7 23.3 50.9 19.5 37.2 54.9 11.6 66.6 12 18.1.7 28 22.3 29.8 40.3 6.5 63 53.6 46.3 59.1 8 15.5-34.3 45.1 48.6 46.9 59.9 11.3 72.6 69.3 42 70.8 17.9 3.3-54.1-3.2-60.1 1.7-68.3 18.5-31.1 71 13.3 90.8-15.5 13.6-19.7-31.2-63.5 7.9-55.4 94 19.4 18.7-100.7 13.8-120.4-8.8-35.5 13.9-105.6 46.9-121.7 18.1-8.8 17.1-35.5 7.4-52.8s-24.9-30.6-31.4-48.9c-13.5-54.4 22.4-102.1-36-133.3a10.2 10.2 0 0 1-3.9-14.4c17.1-26.3 1.3-66.4-31.8-71.4-22.1-3.3-44.3 8.9-66.5 6.3-43.8-5.2-80.2-74.1-127-43.1Z" style="fill:#03a7ff"/><path d="M311.8 455.2c5.1-20.5 35.7-31.5 44.9-8.1 7.2 24.9 1 56.9-22 71.4-17.6 11.1.5 28.5-12.4 34.7-7.4 3.5-10.9-9.6-17.6-10.8-14.8-2.6-22.8 16.2-12.4 27.4 4.7 5.1 20 10.2 21.4 19.3 2.7 17.9 13 11.8 22.6 4.8 31.7-22.7 39.9 16.2 46.3 17.1 11.8 1.7 14.9 5.5 20.4 16.4 2.8 5.5 26.2-4.6 33.9 15.2 6.1 15.7-23.1 23.1-21.4 40.4-4.9 21.1-32.6 26.8-40.8 45.1 2.7 50-44.7 50-40.6 15.7 1-8.6 2.9-17.2 2.3-25.8s-3.9-15.6-2.9-23.4c6.8-53.5-12.5-48.9-16.7-46.3-7.2-15 27.6-35.8-5.6-35.1-9.8-.8-16.7-11.5-26.6-12s-19.6 9.2-27.7 2c-8.8-13 2.4-16.8-16.1-30.1-21.5-15.4.4-9.9-21.3-45.2a80.4 80.4 0 0 1-9.6-59.3c37.3 7.5 60.2-31.7 101.9-13.4Zm77-109c10.5 6.9 20.1 9.7 19.7 24.3s-7.9 36.7 5.9 47.2c25.4 19.4 17.6-33.3 41.5-29.2 15.4 2.6 26.9-2.4 25.3-20.1-1.9-6.4 1.3-12.2 6.6-16 18.8-13.8 6.7-17.8 22-34.9 6.7-7.5-10.9-17.7-18.9-15.9s-16 11.5-23.1 5.7c-19.4-15.3-32.1 9.9-49.7 7.7-39.4-5-39.3 24.7-29.3 31.2Zm416.9 223.2c1.8 21.2-9.5 27.4-27.9 18.9-5.9-3.9-16.1-12.8-20.8-2.7-21.1 27.5-36.5-37.5-53.4-46-8.1-4.1-36.4-15.5-36.4-3.2 0 24.2 7.7 18.4-10.5 35.4-10.2 9.5 26.5 30.9-7.3 45.8-17.5 7.7-2.2 25.6-5.4 37.1-2.8 9.9-2.3 19.6-8 28.3-11 16.7-40.4 39.6-56.6 19.8-4.7-5.7-4.5-14.7-9.8-19.8-10.7-10.2-.7-25.1-5-36.7-3.8-7.2-7.2-13.7-8.6-22-5.8-33.6-48.5.8-60.7-29.1-1.4-18.5-25.3-14.8-9.2-34.8 7.8-9.7 2.1-23.6 11-29.6 28.9-19.8 9-26.4 74.8-11.3 18.2 4.2 39 6.9 28.4-20.6-3.6-9.2 19.1-13.2 13-20.1-11.2-12.6-16.5 8.4-22.5 12-26.6 15.5-44.3-12-57 1.9-17 18.5-37.6 7.1-20.9-8.4 13.9-13 7.6-14.9 17.6-23.5 5.8-5 6-14.3 11.3-19.9 9.3-9.8 35.3-4.3 34.1-22.1-.6-9-10.6-8.9-14.9-1.2-13.1 22.8-28.2-4-16.7-21.1s46.4-40.3 59.3-17.9c2.6 4.5-3.8 11.6 1.9 13.3 14 4.4 21.7-16.6 35-18.9 24.4-4.1 14.8-13.8 25.4-19.5 14.4-7.7 11.3 11.1 38.1-5.8 19.9-12.6 45.6-15.6 68.6-8 52.5 30.7-18.5 104.8 63.9 187.2 8.7 19-6.5 50.9-30.8 42.5ZM804.6 800c-7.9-.9-5.4 9.5-19.7 2.9-23.4-10.8 2.5-34.7-39.4-38.4-7.5-.7-12.5-10-10.6-17.3 2.4-9.7 15.9-15 15.8-25.1-.3-25.7 12.5-20.5 27.2-33.1 13 35.1 38.8 72.1 26.7 111Z" style="fill:#45b06a"/></g><style>.st40{fill:none;stroke:#000;stroke-width:10;stroke-linecap:round;stroke-linejoin:round;stroke-miterlimit:10}.st98{opacity:.6;enable-background:new}</style><g id="Outline"><path class="st98" d="M793 537c-1 .7-1 2-.5 3 5 10 11 35 25 30 8-2 21-13 18-22.4-.5-1-2-2-3-1.5-26 12-28-11-39-9.4v.3zm-34 274.5c6 5 26 8 25-3-6-7-20.6-12-21.5-26C750 772 744 803 759 811.5zm-219.3 52s1 .5 1 .8c9 13.5-3 36-18 40-34 6-9-6-6-44 .3-5.3 22.3 2.7 23 3.2zM342 731c5 7-4 22-4 33 8 13 29.6-5 33-14.9 2-12-17-21-28-20.2-1 .1-1 1.1-1 2.1zm31-120.2c2 23-8 47-26 61.9-13 10.9-17.5-30.6-8-27.9 6 4.2 28-18.8 34-34zm-157-59.9c-8 6-17 3-25 1-11 5 4 20 13.5 16 5-4 12-9 12-15.7-.5-.2-1.5-.2-.5-1.3zM337 473c-6-10-3-23 0-34 0-1 0-2-.6-2-9-9-23 11-19.8 20.7C318 463 338 475 337 472.8v.2z"/><path class="st98" d="M326 392c-2 29 24 45 7 44-7 2-14 1-15 11-1 11-24 0-24.5-1.3C285 433 317 404.5 326 392zm103-118c-9.9-4-16-16-18-25-4-6-9.9 1-11 6-7 54 29.5 28 29 19zm293 9c16 21 29.5 12 40 20.7 3 4 1 9.6-1 14-3 9-13 9-20 4.1-14.5-5.8-22-22.2-19-38.8z"/><path class="st40" d="M347 729c53.5 5 15 86 59 102 25 9 37-19.8 55-11.9 23 10.1 19.6 40 24 60.7 9.6 46 63 29.6 58-12.8"/><path class="st40" d="M519 861c89-9 47.5 119 114.5 115 39-6 35-47 25-76.5-3-9 0-18.5 7-24.5 24.5-21 59 15.5 84-2.5 15-11 8-33-2-45-12-15 0-32 10-43"/><path class="st40" d="M790 539c53 69.8-64 71 8 194.5 6 14 11 32 11 48.5 0 32-49 47.5-61 16"/><path class="st40" d="M721 287c2 51 64 31 74 88 6 34-11.5 71 7 103 10 18 27 31.5 34 51 8 19-4 47-27 42"/><path class="st40" d="M407 290.6c-16-8-12-29.9-2-41 17-15 40.5-10 61-6 29.8 1 49-29 75-38 50-17 81 55 133 44 23-5 48-11 69 1 25 14 33 55 10 75"/><path class="st40" d="M428 278c-16 26.5-51 17.5-76 28.5-20 10.5-28 33-23 55 10 47-43 51-39 88m25 4.5c1.5-23 35-26 41-5 7 25-13 47 16 72"/><path class="st40" d="M334 476c-20-34-61-31.5-89-9.6-20 8-43-3-64 4-22 7-28 37-5 43.5 6.5 2 23-2 26-1 15 4 11 25-5 30-21 6-10 29 6 29"/><path class="st40" d="M216 554.5c-15 15-14 41 2 55 37 22 41 31 36 69.7-2 31 46 41 53.5 10 2-10.8-4-22 0-33 13-32 44 20 62-44.5"/><path class="st40" d="M327 647.9c25 29.7-.5 47-7 75-10 32.5 34 65 53 25"/><path d="M729 262.5c9 4 16 13 18 22.5m-193-68c12.5 2 24.5 8 34 16m9 9 3 3m-163 10c-5.5-.9-12 .6-15.5 4M362 319.6c-9 2-14 10.7-16 19M339 449c4 1 6 6 6 9.8M308.5 470c-12-6-16-5-22-4M175 492c1-4 5-7 9-7.5m38 89.5c-4 8 0 16 4 19.9m44 78.6c-1 6 1 15 9 18m76-77.5c-3 14-13 14.5-16 16m4.5 119.5c-5-3-9-9-8-15M397 782c-1 14.5 7 28 14 30m90 53.9c-3 12 2 27 14.5 25M636 957c14-3 17-28 11-38m96-60.1c1-7 0-14-4-19m46-49.1c8-6.5 9-25 3-39M786 582c5-8 3-19-3-26m37-12c2-8.5-.6-18-7-24m-56-169c18 6 22 30 21 35" style="opacity:.7882;fill:none;stroke:#fff;stroke-width:10;stroke-linecap:round;stroke-linejoin:round;stroke-miterlimit:10;enable-background:new"/></g><g data-name="Layer 5"><path d="M794 602c-14-24-39.7 29-45 30.5-105 22-109 60.8-136 51.5-56-19-116 8-136-7-50-37-70.7-26.5-112-50-5 20-29.5 22-33 29-1 3 6 13-8 54.9-22 63 38 63 48.5 37 19 102 29 88 71 73s36 57.5 53 85c24 18 54-11 43-37.4 55 17 49 67 59 87.5 15 31 63 24.5 67-10-33-141 58.5-35 82-73 30.6-23.6-11-37-10.5-58.7.9-31 19 12 48-3C854 770 723 694 794 602Z" style="isolation:isolate;opacity:.6"/><path d="M659.8 758c4 4.5 5 11 4 16.5M652.5 744l1.5 3m-132 25a22.4 22.4 0 0 1-6 15m-61-58c0 2 0 5 1 7m130 94c1 3.5 0 7-2 10m139-106.1a11 11 0 0 1 .5 7" style="stroke:#fff;fill:none;stroke-linecap:round;stroke-linejoin:round;stroke-width:10px"/><path d="M444.5 712c-20 18.5-3 69.7 25 42 8-8 15-2 14 7-3.5 53 24 49 42.5 37m26 18c12 7 4 23 9.9 33.5s19.6 9 28 3M624.5 750c-30 48 41.5 75 53 29.9M705 727c-18.5 51 51 46 30.7-4-3.5-6-8-17-5-22-.5 27 36 26 32.5-.8" style="stroke:#000;fill:none;stroke-linecap:round;stroke-linejoin:round;stroke-width:10px;isolation:isolate;opacity:.6"/><path d="M366 622.9c9 21.5 30 22 51 22 15.5 0 27 14 39.6 23 49 34 79-12 147 13.4 43 6 56-19 89.6-35 17-8 39-2 53.5-14s23-48 47-36M448 713c-18 29 7 58 22 33 6-10.5 20.5-1.5 18 9-11 48 34 64 46 30.8 6.5-18-11-30.5-4-42m25 68.7c16 7 2 29.8 14 39.5 10 8 29 0 29.6-12.9 1-19.7-14-32-2-54m32.4-34.6c-28 65 74 62.5 44.5 0-7-14.5-18-31.5-8-47M708 728c-11 48 48 28 18-10.7-3-4-6-9-5-14s9-8 14-4.2 2.5 10 9 14.5c12 7 30-8 8-30-5.5-5.5-13-17-4-23" style="stroke:#000;fill:none;stroke-linecap:round;stroke-linejoin:round;stroke-width:10px"/></g><style>.st40{fill:none;stroke:#000;stroke-width:10;stroke-linecap:round;stroke-linejoin:round;stroke-miterlimit:10}</style><g id="glasses"><linearGradient id="SVGID_00000178916075595908665650000004557367053833667231_" gradientUnits="userSpaceOnUse" x1="598.405" y1="1033.928" x2="641.405" y2="678.931" gradientTransform="matrix(1 0 0 -1 0 1410)"><stop offset="0" style="stop-color:#00f5d0"/><stop offset=".232" style="stop-color:#42b1da"/><stop offset=".508" style="stop-color:#8b66e6"/><stop offset=".738" style="stop-color:#c02fee"/><stop offset=".908" style="stop-color:#e10df3"/><stop offset="1" style="stop-color:#ed00f5"/></linearGradient><path style="fill:url(#SVGID_00000178916075595908665650000004557367053833667231_)" d="M360 453c2 11 0 51 7 55.1 14 4 47-17 49.9 2 3 11 7 22 6 33-2 22-21 43-13 65 9 25 35.8 11 38 17.3 11 32 20 25 48 27 19 5.5 23 38 45 35 26-3 15-55 34-38.5 15 13 41 3 44.5-16.4 4-23-18.5-42.5-19-66 2-28 23-48 8-79 8 .5 17 0 25-1 13 24 8 46.5-2 69.9-17 39.8 15 52.5 29 45-2 14-11 36 2 47 10.5 5 23-4 29-12 11-22 29.5-2 39 10.3 12 12 28 6 29-11 .6-7.5-2-16 2-23 6-5 18 6 27-10.8 6-30-9-21 14-54.7 8-12 34-27 17-51-7-9.6-20.5-18-17-31 16 3 34-8.5 44-19.9 6-9.5 9-23 6-33.5-5-12-17-10.9-24.5-2-10 9.9-20.9-1-12.5-12 8-11 39-18 7-31-52.5-6.5-53 102-140.5 31.8-46-29-49 40.6-93 34-32.5-5-17-24-60.8-4-59-42-66 22.5-124 20.3-14-.5-32-7-44 3.8v.3z"/><path d="M363.5 508c17 18 36-5 48 0 24 37-27 79.5-.5 112.9 11 14 29.9 7 32 8.8 4.5 18 16 29 35 29 40-5 27 27.5 53 28m37-34.7c10 9.5 27 10.5 38 2m9-163.1c56-2-32.5 112 38 120 5 4-17 39.7 17.5 37m29.5-17c19-2 25 27 46 22m38-41.9c-4 5-11 7-17 7M445 500.6c-6 10.5-14.5 5-21 10" style="opacity:.6;enable-background:new;fill:none;stroke:#000;stroke-width:10;stroke-linecap:round;stroke-linejoin:round;stroke-miterlimit:10"/><path d="M495 429.5c9 2 17 6 23 13m-38.2-11.6c-1 0-2 .8-3.5 1.5M374 495c6 .5 12-1 16-4m213 15c2 9.5-1 19-5 28m-6.5 13-1.5 3m12 58c6 7 9.9 19 4.5 27m-10.5 8c-1 0-1.5.5-2 .7M550 656c0 7-3 13-8 18m-79-46c1 7 7 12 14 12m168-78c-3 7-3 15-1 22m25 39c-2 3.5-1 8 2 11m78.5-14c2 6 1 12-1 17m-.5-30v-2m41-76c4 7 0 14-5 19.5m22-47.5c4 3 6 7 7 11m28-92c0 8-3 16.5-9 22m-11 5c-2 0-3 .9-5 1m-150.5-41c7 1 12 5.5 17 10.7M652 409c-1 .5-2 1-3 2" style="fill:none;stroke:#fff;stroke-width:10;stroke-linecap:round;stroke-linejoin:round;stroke-miterlimit:10"/><path d="M429 607c3 4 3 10 0 15 4-1 12-3 13-8m151 11.9c-5 8-7.5 19.8 0 27-6 0-27.5-5-16-23M592 498c7-1 14.5 1 20 5-2-5-4-11-9-14m61-2c-8 5-15 13-19 21-1 0-6-12-4-18m12 96c-1 6-6.5 11-12 13 6 1 14 2 19-2m112-5c-1 7 2 14 8 18-6 2-13.5-.5-17-6m40-87.5c4 5 10 11 17 9-3.5 3-9 6-14 4.5m-28-62.5c8-2 17 3 22 8.9.5-5-.9-12-4-16h-1m-244-23.9c-5-3-6-11.5-3-16.5-6 3-13 7-13 14" style="opacity:.6;enable-background:new"/><path class="st40" d="M362 503c14 14 34.5-3 50.9-2 9.6.5 23 7 29.9-3"/><path class="st40" d="M413 501c24 36 0 62-4 97-2 19 19.5 34 35 21.5"/><path class="st40" d="M434 606c26 12 3 52 54 46 31-4 21.5 36 50 37 32 2 19-59 51-65"/><path class="st40" d="M570 642.5c12 19.5 44 17 51-5 9-27.5-27-52-19-79 7-23 24-47 7-69m27-1.5c14 25 2 49.7-5.5 74-5.8 18 6 53 29 38"/><path class="st40" d="M656 588c12 13.5 0 29-1 44 0 14 15 21 27 11.9 15-12 23-31 40.6-8.4 26 34 40 9 40-3.5s-7-29.6 5-38.5"/><path class="st40" d="M763 609c12 9 30-2 28-16.9-.8-5-3-9-4-14-4-22 32-25 13-58"/><path class="st40" d="M808 535c22-1 21-31 7-42-9-7-16-17.5-13-29m-141 20c-18 12.5-39-12-68 10.6M779 463c9.8-6 22-2 34-2 54 0 53-75.5 20.7-55-19 12-22-1-19.7-6.8 4-9 17-9 23-16 5-13-10.9-18-21-17-29 3-32 32-51.5 45-21 15-58 14-74-6.7-7-9-17-14-29-13-23 1.5-29.5 25.5-47 35-34 22-52-27-81.5 3"/><path class="st40" d="M548 438c-13 0-23-10-33-16.9-39-27-69 31-108 29-17-.9-35-10-50 2.7 6 15 2 34 5 49"/></g><defs><linearGradient id="zbd" x1="531.69" y1="69.46" x2="554.66" y2="438.37" gradientUnits="userSpaceOnUse"><stop offset="0" stop-color="#f09a11"/><stop offset=".16" stop-color="#f09613"/><stop offset=".33" stop-color="#f0891b"/><stop offset=".51" stop-color="#f07427"/><stop offset=".69" stop-color="#f05638"/><stop offset=".87" stop-color="#f0304d"/><stop offset="1" stop-color="#f0115f"/></linearGradient><linearGradient id="zbd-2" x1="542.92" y1="235.77" x2="534.97" y2="331.83" gradientUnits="userSpaceOnUse"><stop offset="0" stop-color="#f0e511"/><stop offset=".12" stop-color="#f0e011"/><stop offset=".26" stop-color="#f0d211"/><stop offset=".42" stop-color="#f0ba11"/><stop offset=".58" stop-color="#f09911"/><stop offset=".75" stop-color="#f06e11"/><stop offset=".92" stop-color="#f03b11"/><stop offset="1" stop-color="#f02011"/></linearGradient><style>.zbd-3{fill:none;stroke-linecap:round;stroke-linejoin:round;stroke-width:10px;stroke:#000}</style></defs><path d="M263.9 257.4c-54.1 48.5-21.8 131.7 33.9 164.7 19.9-14.3 33.6-34.7 32.6-60.2 37.7 14.1 79.3 10.7 119.4 7.6 105.8-8.2 216.5 23.6 322.1.2 153.4-62 81.8-200-90.4-125C697.4 131.9 594 86.4 528 138.4c-47.8-30.3-205.7-25.9-141.5 78.4 3.3 15.6 6.2 33.1.3 48.3-38.6-17.2-85.3-41.2-122.9-7.7Z" style="fill:url(#zbd)"/><path d="M387.5 265c99.2 70 203.9 63.7 303.6 29.2a95.3 95.3 0 0 1-8.6-34.4c-93.1 29.5-196.1 15.3-289.1-8.6a118.9 118.9 0 0 1-5.9 13.8Z" style="fill:url(#zbd-2)"/><path class="zbd-3" d="M683.8 246.3c214-87.9 216.6 108.9 66 128.2-91.8 11.7-184.8-11.4-277.2-5.4-48.6 3.1-97.8 7.6-144.5-6.8 5.1 25.8-12.5 44.8-31.8 60.1-58.9-34.9-88.9-126.6-24.7-172.8 79.3-56.9 276.5 176.9 485.7 87.8"/><path class="zbd-3" d="M528 138.4c40.3-37.7 138.7-20.9 149.9 46.5 8.9 53.7-12.7 97.2 38.3 134M539.3 155.8c-42.1-55.2-120.8-35.7-149.2-16.4-51.9 35.4 15.5 61.1-1.5 125.5"/><path class="zbd-3" d="M681.5 260.6c-94.3 28.1-195.1 14.6-288.7-10.4M692 295.4c-69 22.1-138.6 27.5-210.7 16.9"/><path d="M330.6 370.2c56.7 18 118 5.8 177.5 5.1 47.2-.6 94.2 6.3 141.3 9.4s95.5 2.6 140.3-12.4m-32.4-36.8c-72.7 21.9-154 21.4-224.4-8l-18.3-5.5a438 438 0 0 0 179-20.1m-301.7-44.3c32.2 26.4 73.3 38.8 109.8 59" style="opacity:.6;stroke:#000;fill:none;stroke-linecap:round;stroke-linejoin:round;stroke-width:10px"/><path d="M779.1 242c15.9-2.2 33.8.8 44.9 13.3m6.4 12.1a23.7 23.7 0 0 1 .9 9.9M625.2 145.9a39.9 39.9 0 0 1 26.7 24.8m4.7 18 .5 5.6m-187.2-57.6a73.4 73.4 0 0 1 42 15.4m-58.5-15.7a18.2 18.2 0 0 0-4.6.6M326.4 259.2c-13.5-4.8-29.7-7-42.3 1.2m-11.1 8.4-3.1 3.1m398 4.8a228.8 228.8 0 0 1-55.6 11.3m-15.2.9-8.6.3m104.4 26.4a46.3 46.3 0 0 0 10 10.7m108.6 8.7a113.9 113.9 0 0 1-30.5 17.8" style="stroke:#fff;opacity:.8;fill:none;stroke-linecap:round;stroke-linejoin:round;stroke-width:10px"/><path d="M325.7 359c-18.8 17.9-45.4 21.9-69.6 22 4.6 14.5 20.5 27 32.9 35.9 5.1 4.3 11.5 2.1 15.8-2.5 12.7-13.5 30.7-35.8 20.9-55.4Zm217.8-203.1c-2.8-14 5.3-29 18.6-34.2a76.7 76.7 0 0 0-35.8 17.2" style="opacity:.6"/><circle cx="550" cy="550" r="500" style="fill:none;stroke:#000;stroke-width:10;stroke-linecap:round;stroke-linejoin:round;stroke-miterlimit:10"/></svg>