<svg version="1.1" id="Layer_1" xmlns="http://www.w3.org/2000/svg" x="0" y="0" viewBox="0 0 1100 1100" style="enable-background:new 0 0 1100 1100" xml:space="preserve" xmlns:xlink="http://www.w3.org/1999/xlink"><style type="text/css">.st300{fill:#00DE72;stroke:#000000;stroke-width:10;stroke-linecap:round;stroke-linejoin:round;stroke-miterlimit:10;}</style><circle class="st300" cx="550" cy="553.7" r="500"/><style>.st71{fill:none;stroke:#ff002b;stroke-width:10;stroke-linecap:round;stroke-linejoin:round;stroke-miterlimit:10}</style><g id="X"><path d="M533 210.7c-68 59.6-71 20-121 36.5-19.6 10.9-14 30-9.7 39.6 11 23-51 9-69 40.3-10 18 .1 42-7.5 61.8-9 19.6-34 35-37 52.2-43 48-154 7-119 70.4 6 11 33-6 39 9.1 7 17.5-39 29-21 46.7 18 5 21 39.9 57 63.2 14 20 3 51 19 69.1 35.8 38 46-25 41-34.3 4-39 44-11 22 38.7-23 52 11 74 36.5 56.6 24-9 13 39 23 50.9 19.5 37 55 12 67 12 18 1 28 22 29.8 40.3 6.5 63 54 46 59 8 15.5-34 45 49 47 59.9 11 73 69 42 71 17.9 3-54-3-60.1 2-68.3 18.5-31 71 13 90.8-15.5 14-19.7-31-63.5 8-55.4 94 19 19-101 14-120.4-9-35.5 14-106 47-121.7 18-9 17-35.5 7-52.8-9.5-17-25-30.6-31-48.9-13.5-54 22-102-36-133.3-5-3-7-9.5-4-14.4 17-26 1-66-32-71.4-22-3-44 9-66.5 6.3-43.4-4.8-79.5-74.1-126.4-43.1z" style="fill:#007bff"/><path class="st71" d="M363 306.9C477 487 608 667 806 759"/><path class="st71" d="M795 413.5C715 519.6 458 757 384 799"/></g><style>.st40{fill:none;stroke:#000;stroke-width:10;stroke-linecap:round;stroke-linejoin:round;stroke-miterlimit:10}.st98{opacity:.6;enable-background:new}</style><g id="Outline"><path class="st98" d="M793 537c-1 .7-1 2-.5 3 5 10 11 35 25 30 8-2 21-13 18-22.4-.5-1-2-2-3-1.5-26 12-28-11-39-9.4v.3zm-34 274.5c6 5 26 8 25-3-6-7-20.6-12-21.5-26C750 772 744 803 759 811.5zm-219.3 52s1 .5 1 .8c9 13.5-3 36-18 40-34 6-9-6-6-44 .3-5.3 22.3 2.7 23 3.2zM342 731c5 7-4 22-4 33 8 13 29.6-5 33-14.9 2-12-17-21-28-20.2-1 .1-1 1.1-1 2.1zm31-120.2c2 23-8 47-26 61.9-13 10.9-17.5-30.6-8-27.9 6 4.2 28-18.8 34-34zm-157-59.9c-8 6-17 3-25 1-11 5 4 20 13.5 16 5-4 12-9 12-15.7-.5-.2-1.5-.2-.5-1.3zM337 473c-6-10-3-23 0-34 0-1 0-2-.6-2-9-9-23 11-19.8 20.7C318 463 338 475 337 472.8v.2z"/><path class="st98" d="M326 392c-2 29 24 45 7 44-7 2-14 1-15 11-1 11-24 0-24.5-1.3C285 433 317 404.5 326 392zm103-118c-9.9-4-16-16-18-25-4-6-9.9 1-11 6-7 54 29.5 28 29 19zm293 9c16 21 29.5 12 40 20.7 3 4 1 9.6-1 14-3 9-13 9-20 4.1-14.5-5.8-22-22.2-19-38.8z"/><path class="st40" d="M347 729c53.5 5 15 86 59 102 25 9 37-19.8 55-11.9 23 10.1 19.6 40 24 60.7 9.6 46 63 29.6 58-12.8"/><path class="st40" d="M519 861c89-9 47.5 119 114.5 115 39-6 35-47 25-76.5-3-9 0-18.5 7-24.5 24.5-21 59 15.5 84-2.5 15-11 8-33-2-45-12-15 0-32 10-43"/><path class="st40" d="M790 539c53 69.8-64 71 8 194.5 6 14 11 32 11 48.5 0 32-49 47.5-61 16"/><path class="st40" d="M721 287c2 51 64 31 74 88 6 34-11.5 71 7 103 10 18 27 31.5 34 51 8 19-4 47-27 42"/><path class="st40" d="M407 290.6c-16-8-12-29.9-2-41 17-15 40.5-10 61-6 29.8 1 49-29 75-38 50-17 81 55 133 44 23-5 48-11 69 1 25 14 33 55 10 75"/><path class="st40" d="M428 278c-16 26.5-51 17.5-76 28.5-20 10.5-28 33-23 55 10 47-43 51-39 88m25 4.5c1.5-23 35-26 41-5 7 25-13 47 16 72"/><path class="st40" d="M334 476c-20-34-61-31.5-89-9.6-20 8-43-3-64 4-22 7-28 37-5 43.5 6.5 2 23-2 26-1 15 4 11 25-5 30-21 6-10 29 6 29"/><path class="st40" d="M216 554.5c-15 15-14 41 2 55 37 22 41 31 36 69.7-2 31 46 41 53.5 10 2-10.8-4-22 0-33 13-32 44 20 62-44.5"/><path class="st40" d="M327 647.9c25 29.7-.5 47-7 75-10 32.5 34 65 53 25"/><path d="M729 262.5c9 4 16 13 18 22.5m-193-68c12.5 2 24.5 8 34 16m9 9 3 3m-163 10c-5.5-.9-12 .6-15.5 4M362 319.6c-9 2-14 10.7-16 19M339 449c4 1 6 6 6 9.8M308.5 470c-12-6-16-5-22-4M175 492c1-4 5-7 9-7.5m38 89.5c-4 8 0 16 4 19.9m44 78.6c-1 6 1 15 9 18m76-77.5c-3 14-13 14.5-16 16m4.5 119.5c-5-3-9-9-8-15M397 782c-1 14.5 7 28 14 30m90 53.9c-3 12 2 27 14.5 25M636 957c14-3 17-28 11-38m96-60.1c1-7 0-14-4-19m46-49.1c8-6.5 9-25 3-39M786 582c5-8 3-19-3-26m37-12c2-8.5-.6-18-7-24m-56-169c18 6 22 30 21 35" style="opacity:.7882;fill:none;stroke:#fff;stroke-width:10;stroke-linecap:round;stroke-linejoin:round;stroke-miterlimit:10;enable-background:new"/></g><style>.st40,.st68{fill:none;stroke-width:10;stroke-linecap:round;stroke-linejoin:round;stroke-miterlimit:10;stroke:#000}.st68{opacity:.6;enable-background:new}</style><g id="Eye"><linearGradient id="SVGID_00000144327888440828662330000012949225208094602647_" gradientUnits="userSpaceOnUse" x1="232.314" y1="-555.531" x2="336.458" y2="-482.43" gradientTransform="translate(0 1066)"><stop offset="0" style="stop-color:#00ff04"/><stop offset=".811" style="stop-color:#00fccf"/><stop offset="1" style="stop-color:#00fbff"/></linearGradient><path style="fill:url(#SVGID_00000144327888440828662330000012949225208094602647_)" d="M278 494c-31 10.8-13 49-9.5 56 8 16-9 32.5 9 50.8 9 9 46 8 40.7-31-2-13-13-23-13.5-35.8-.7-21-3.7-48-26.7-40z"/><path d="M273 498c-6.5 9-1 22 4 30.8 6 8 13 15 14 25 2 14-6 31 3 43.7 15 18 30.6-23 23-35-3-7-8-13.5-10-20.8-5-16 2-45-21-49" style="opacity:.5098;fill:#fff;enable-background:new"/><path class="st68" d="M274 516c9 24.5 14 39 18 64"/><path class="st40" d="M278 494c-31 10.8-13 49-9.5 56 8 16-9 32.5 9 50.8 9 9 46 8 40.7-31-2-13-13-23-13.5-36C304 513 301 486 278 494z"/><path class="st40" d="M282 526c6 17 10.5 35 14 53"/><path d="M279 515c1 4 2 7 3.5 11m24.5 46.9c1 5 1.5 13-5 19" style="fill:none;stroke:#fff;stroke-width:10;stroke-linecap:round;stroke-linejoin:round;stroke-miterlimit:10"/><path class="st68" d="M264 495.9c-15.5 19-6 44 1 65 3 9-3 18-1 27 4 24 31 31 46 12"/></g><style>.st40,.st68{fill:none;stroke-width:10;stroke-linecap:round;stroke-linejoin:round;stroke-miterlimit:10;stroke:#000}.st68{opacity:.6;enable-background:new}</style><g id="Mmmm"><path class="st40" d="M506 744c55 21 117 25 173 5m-182 30c-52-25-58-74 10.9-72"/><path class="st40" d="M663 713c79-11 91 46 19 76"/><path class="st68" d="M506 702c-76-9.9-68 67-11 79m10-33c56 22 120.5 31 176 5.5"/><path class="st68" d="M664.5 709.8c46-15 125 29.7 21 83"/><path d="M676 724c10-1 21 0 30 5m9 6 1 1m-220-15.2c-8 .6-16 3-21 9" style="fill:none;stroke:#fff;stroke-width:10;stroke-linecap:round;stroke-linejoin:round;stroke-miterlimit:10"/></g><style>.st114,.st40{fill:none;stroke-width:10;stroke-linecap:round;stroke-linejoin:round;stroke-miterlimit:10;stroke:#000}.st114{opacity:.6}</style><g id="pyramid_eyes"><linearGradient id="SVGID_00000087410782692247136030000000956565439834726541_" gradientUnits="userSpaceOnUse" x1="414.243" y1="543.244" x2="593.219" y2="543.244" gradientTransform="matrix(1.0318 .1598 -.1592 1.0282 76.34 -111.374)"><stop offset="0" style="stop-color:#fff200"/><stop offset="1" style="stop-color:#ff0051"/></linearGradient><path style="fill:url(#SVGID_00000087410782692247136030000000956565439834726541_)" d="M520.5 442.8 404 597.9l188 10.6z"/><linearGradient id="SVGID_00000168831845365355998570000006909071484893893810_" gradientUnits="userSpaceOnUse" x1="614.824" y1="519.499" x2="758.908" y2="519.499" gradientTransform="matrix(1.0318 .1598 -.1592 1.0282 76.34 -111.374)"><stop offset="0" style="stop-color:#fff200"/><stop offset="1" style="stop-color:#ff005e"/></linearGradient><path style="fill:url(#SVGID_00000168831845365355998570000006909071484893893810_)" d="m684 440.2-69.5 168.2 155.3-26.5z"/><path class="st114" d="M513 441.8c-39.9 53.5-84 105-120 160.5l196 11m89-174c-23 59-52 116-71 176.5l161-29"/><path class="st114" d="M432 568.7c44 21 96 24 142 9m58 .7c41 4 84 .5 120-18"/><path d="M633 568c32 9 91 3 118-16.2l-22-37.3-78 8.3-18 45.2zm-198-6.2c41 21 95 25 137 6.1l-16-41.4-98 3.7-23 31.6z" style="fill:#fff"/><linearGradient id="SVGID_00000104687410609106255600000008005634098492869297_" gradientUnits="userSpaceOnUse" x1="653.571" y1="533.828" x2="709.977" y2="533.828" gradientTransform="matrix(1.0318 .1598 -.1592 1.0282 76.34 -111.374)"><stop offset="0" style="stop-color:#00ffd0"/><stop offset="1" style="stop-color:#002fff"/></linearGradient><path style="fill:url(#SVGID_00000104687410609106255600000008005634098492869297_)" d="M676 520.8c-13 12-29 68 37 46.3 14-3 10.7-21 5-29.7-16.5 12-32-.9-28-18.9l-14 2.3z"/><linearGradient id="SVGID_00000092416489060258335420000012955109637503799733_" gradientUnits="userSpaceOnUse" x1="481.368" y1="567.233" x2="535.584" y2="567.233" gradientTransform="matrix(1.0318 .1598 -.1592 1.0282 76.34 -111.374)"><stop offset="0" style="stop-color:#00ffd0"/><stop offset="1" style="stop-color:#002fff"/></linearGradient><path style="fill:url(#SVGID_00000092416489060258335420000012955109637503799733_)" d="M491 527.2c-11 15-17 51 9.9 52.4 24 2 43.5-2 34-29.8-31 2-30.8-17-25-25.1l-18.9 2.5z"/><path d="M517 472.9c3 8.5 6 17 9 25m5 12.1 1.5 3M686 470l12 22m6 10 1 2" style="fill:none;stroke:#fff;stroke-width:10;stroke-linecap:round;stroke-linejoin:round;stroke-miterlimit:10"/><path class="st40" d="M558.5 532.6c-33-13-74-10-106 3m123 35.5c-46 17-99 14-143-8M728 519c-26-5-53-3-78 6m103 31.6c-38 16-80 21-121 15"/><path class="st40" d="M488.5 526.9c-8.5 16-9.6 35-3 52m45.5-52.5c8 16 9.9 36 4 53"/><path class="st40" d="M509 525.7c-9 17 12 34 27 23m135.5-27.8c-10 23.5-7.5 34 3 50.7m37.5-54c9 14 13 30 11 46"/><path class="st40" d="M693 517.9c-14 16 11 38 25 16m-197.5-91.1L404 597.9l188 10.6z"/><path class="st40" d="m684 440.2-69.5 168.2 155.3-26.5z"/></g><path d="M358 439.8c-17.5-12-38-5-39 13.3-21-8-46-5-65 7.1-10-26 15.6-32 14-53.9-1.4-19.8-5-43 12-56.4 0 12 11 26 23 20.3 16-9.6-1-35 9.5-46.6s15.2-20.2 6-32.9-28.5-29-15-44.6c37.5 37 62.9-35.5 97-40.4 23-3.3 48 17.5 69 5.7-7.5-3-12-12-10-19.4 10 23 38.5-7 46-12.5 33-27 77 27 86-7.8 6-23-37-25-25-58 21 40.5 80.9-9 119.6 40.4 52.1 66.4 55 18.5 47 4.1 79 24 53.1 116.3 83.5 109 12-2.9 14-19.9 31-14-35 37 51 90.9-47 152 2-16 1-29-4-43.8l15 15.4c-26-39.6-65.7-22.8-75-9.3-6.8 9.9-11 23-23 27.5 7-15-11.5-35-26-23.6-4.5 4-4 13.5 2 15.8-26 5-43.1-22.5-67-26-12-1.8-24 12-15 21.8-8-2-13.9-10.1-20-15.6-26.5-23.6-50.5 17-19.5 24.9-23 17.5-48.9-8.3-71-15.1-26.9-8.3-56 1-39.5 33.9-12.5-14-38-39-55-19.3-7 11 2 26-1.5 38-10-18-40-12.5-39 9.6" style="stroke-linecap:round;stroke-linejoin:round;stroke-width:10px;stroke:#000;fill:#710cc7"/><path d="M362 443.9c4-22 25-18 39-5.7 5.5-17-2.8-28.9 3-39 13.5-23.7 39.8 15 57 20.8-21-42 15.4-45.8 45-29.1 19.7 11.1 51.5 25 67 1.5-10.9-4-22-21.1-2-23.2 15-1.6 27 27 43 17.5-10-11-4.8-30.3 24-10.4 12.1 8.4 27 14 42 17 10 2 18-2 9-10-4-8 18-22 17.5 20.6 36-15 34-61 88-37M306 252.4c0 19 19.3 29.7 24 46.6 6.1 21.9-21 22-19 58m-37 2.9c3 7 18 21 25 12m166.5-166.5c16.5 7 24-12 34-21m83-.8c9-3 15.9-12 14-21.3-3.1-15-23-22-27-37M741 164.6c2 9-1 25-13 24m111.8 68.8c-7 2-11 9.9-17 13.4s-15 2-17-5m-.8 110.5c3 6 2.5 12 2 19" style="opacity:.6;fill:none;isolation:isolate;stroke-linecap:round;stroke-linejoin:round;stroke-width:10px;stroke:#000"/><path d="M834 325.7a60.7 60.7 0 0 1-2 25m-6 11.3-2 4m-65-175.1c7 7 11 16 15 25m3.5 14 1 3.1M632 145.2c10-3 21 1 29 7m10 8.8 3 4m-155 22.9c6-1 11 0 16.5 2m-155.7 46.5a38.8 38.8 0 0 1 16.5-14m15.2-1.4 4.5 1M279 380.2a75.7 75.7 0 0 0-1 15m1 13.8v4m240-39.3c5 4 11 7 17 9.8M508 367l-3-1.5m144.5-8.3c5 4 9.6 8 15 12" style="stroke:#fff;opacity:.83;fill:none;isolation:isolate;stroke-linecap:round;stroke-linejoin:round;stroke-width:10px"/><circle cx="550" cy="550" r="500" style="fill:none;stroke:#000;stroke-width:10;stroke-linecap:round;stroke-linejoin:round;stroke-miterlimit:10"/></svg>