<svg version="1.1" id="Layer_1" xmlns="http://www.w3.org/2000/svg" x="0" y="0" viewBox="0 0 1100 1100" style="enable-background:new 0 0 1100 1100" xml:space="preserve" xmlns:xlink="http://www.w3.org/1999/xlink"><style type="text/css">.st303{fill:#FED907;stroke:#000000;stroke-width:10;stroke-linecap:round;stroke-linejoin:round;stroke-miterlimit:10;}</style><circle class="st303" cx="550" cy="553.7" r="500"/><radialGradient id="a4" cx="564.461" cy="535.948" r="438.66" gradientTransform="matrix(1 0 0 -1 0 1100)" gradientUnits="userSpaceOnUse"><stop offset="0" style="stop-color:#7303fc"/><stop offset="1" style="stop-color:#03fcb1"/></radialGradient><path style="fill:url(#a4)" d="M532 209c-68 59.6-71 20-121 36.5-19.6 10.9-14 30-9.7 39.6 11 23-51 9-69 40-10 18 0 42-7.5 61.8-9 19.6-34 35-37 52-43 48-154 7-119 70 6 11 33-6 39 9 7 17.5-39 29-21 46.7 18 5 21 39.9 57 63 14 20 3 51 19 69 36 38 46-25 41-34 4-39 44-11 22 38.7-23 52 11 74 36.5 57 24-9 13 39 23 50.9 19.5 37 55 12 67 12 18 1 28 22 29.8 40.3 6 63 54 46 59 8 15.5-34 45 49 47 59.9 12 73 69.5 42 71 17.9 3-54-3-60 2-68.3 19-31 71 13 90.8-15.5 14-19.8-31-63 8-55 94 19.9 19-101 14-120-9-35.5 14-106 47-121.7 18-9 17-35.5 7-53-9.6-17-25-30.6-31-48.9-13.5-54 21-100.6-36-133-5-3-7-9.5-4-14.4 17-26 1-66-32-71-22-3-44 9-66.5 6C615 247 578.5 178 532 209z"/><style>.st40{fill:none;stroke:#000;stroke-width:10;stroke-linecap:round;stroke-linejoin:round;stroke-miterlimit:10}.st98{opacity:.6;enable-background:new}</style><g id="Outline"><path class="st98" d="M793 537c-1 .7-1 2-.5 3 5 10 11 35 25 30 8-2 21-13 18-22.4-.5-1-2-2-3-1.5-26 12-28-11-39-9.4v.3zm-34 274.5c6 5 26 8 25-3-6-7-20.6-12-21.5-26C750 772 744 803 759 811.5zm-219.3 52s1 .5 1 .8c9 13.5-3 36-18 40-34 6-9-6-6-44 .3-5.3 22.3 2.7 23 3.2zM342 731c5 7-4 22-4 33 8 13 29.6-5 33-14.9 2-12-17-21-28-20.2-1 .1-1 1.1-1 2.1zm31-120.2c2 23-8 47-26 61.9-13 10.9-17.5-30.6-8-27.9 6 4.2 28-18.8 34-34zm-157-59.9c-8 6-17 3-25 1-11 5 4 20 13.5 16 5-4 12-9 12-15.7-.5-.2-1.5-.2-.5-1.3zM337 473c-6-10-3-23 0-34 0-1 0-2-.6-2-9-9-23 11-19.8 20.7C318 463 338 475 337 472.8v.2z"/><path class="st98" d="M326 392c-2 29 24 45 7 44-7 2-14 1-15 11-1 11-24 0-24.5-1.3C285 433 317 404.5 326 392zm103-118c-9.9-4-16-16-18-25-4-6-9.9 1-11 6-7 54 29.5 28 29 19zm293 9c16 21 29.5 12 40 20.7 3 4 1 9.6-1 14-3 9-13 9-20 4.1-14.5-5.8-22-22.2-19-38.8z"/><path class="st40" d="M347 729c53.5 5 15 86 59 102 25 9 37-19.8 55-11.9 23 10.1 19.6 40 24 60.7 9.6 46 63 29.6 58-12.8"/><path class="st40" d="M519 861c89-9 47.5 119 114.5 115 39-6 35-47 25-76.5-3-9 0-18.5 7-24.5 24.5-21 59 15.5 84-2.5 15-11 8-33-2-45-12-15 0-32 10-43"/><path class="st40" d="M790 539c53 69.8-64 71 8 194.5 6 14 11 32 11 48.5 0 32-49 47.5-61 16"/><path class="st40" d="M721 287c2 51 64 31 74 88 6 34-11.5 71 7 103 10 18 27 31.5 34 51 8 19-4 47-27 42"/><path class="st40" d="M407 290.6c-16-8-12-29.9-2-41 17-15 40.5-10 61-6 29.8 1 49-29 75-38 50-17 81 55 133 44 23-5 48-11 69 1 25 14 33 55 10 75"/><path class="st40" d="M428 278c-16 26.5-51 17.5-76 28.5-20 10.5-28 33-23 55 10 47-43 51-39 88m25 4.5c1.5-23 35-26 41-5 7 25-13 47 16 72"/><path class="st40" d="M334 476c-20-34-61-31.5-89-9.6-20 8-43-3-64 4-22 7-28 37-5 43.5 6.5 2 23-2 26-1 15 4 11 25-5 30-21 6-10 29 6 29"/><path class="st40" d="M216 554.5c-15 15-14 41 2 55 37 22 41 31 36 69.7-2 31 46 41 53.5 10 2-10.8-4-22 0-33 13-32 44 20 62-44.5"/><path class="st40" d="M327 647.9c25 29.7-.5 47-7 75-10 32.5 34 65 53 25"/><path d="M729 262.5c9 4 16 13 18 22.5m-193-68c12.5 2 24.5 8 34 16m9 9 3 3m-163 10c-5.5-.9-12 .6-15.5 4M362 319.6c-9 2-14 10.7-16 19M339 449c4 1 6 6 6 9.8M308.5 470c-12-6-16-5-22-4M175 492c1-4 5-7 9-7.5m38 89.5c-4 8 0 16 4 19.9m44 78.6c-1 6 1 15 9 18m76-77.5c-3 14-13 14.5-16 16m4.5 119.5c-5-3-9-9-8-15M397 782c-1 14.5 7 28 14 30m90 53.9c-3 12 2 27 14.5 25M636 957c14-3 17-28 11-38m96-60.1c1-7 0-14-4-19m46-49.1c8-6.5 9-25 3-39M786 582c5-8 3-19-3-26m37-12c2-8.5-.6-18-7-24m-56-169c18 6 22 30 21 35" style="opacity:.7882;fill:none;stroke:#fff;stroke-width:10;stroke-linecap:round;stroke-linejoin:round;stroke-miterlimit:10;enable-background:new"/></g><style>.st40,.st68{fill:none;stroke:#000;stroke-width:10;stroke-linecap:round;stroke-linejoin:round;stroke-miterlimit:10}.st68{opacity:.6;enable-background:new}</style><g id="Mouth_Cover"><path d="M598 706c-47-14.5-175 15-82.5 66.5 25 14 169.5 24 164-14.5-13-18-39-32-61-24.7 1.2-2.8-12.5-24.3-20.5-27.3z" style="fill:#fe1767"/><path d="M614 729c-39.7-16-93-13-131 7 14-38 77-35 110-31.5l21 24.5zm47 14c-13-3-27 2-35 12 0-8-7-15-7-23 13-2 28 1 42 11z" style="fill:#ae0f45"/><path d="M600 704c7 8 14 18 19.6 27 25-2 52 9 64 32 32-15 24-49-24-56.4l-59.6-2.8v.2z"/><path class="st40" d="M506.5 772c42 17 129 25 183-9 35-22 8-49-23-54-43-7-156-9.6-179 13.1-16 16-1.5 41 19 49.6v.3z"/><path class="st40" d="M593 704c15 12 26 29.5 30 48.5m-4-19.5c24-4.5 50.5 8.5 62 30.7"/><path class="st68" d="M441 681.5c0 31-13.5 60-23 93 94 41 212 45 307 3"/><path class="st68" d="M486 717c-18.5 9.5-11 36 2 47 44 38 170 39 208.5-7"/><linearGradient id="SVGID_00000010300643410979321390000010567667997916476851_" gradientUnits="userSpaceOnUse" x1="567.366" y1="429.07" x2="603.366" y2="242.07" gradientTransform="matrix(1 0 0 -1 0 1100)"><stop offset="0" style="stop-color:#08ffce"/><stop offset=".106" style="stop-color:#1aedd1"/><stop offset=".321" style="stop-color:#4abdd9"/><stop offset=".624" style="stop-color:#9770e6"/><stop offset="1" style="stop-color:#ff08f7"/></linearGradient><path style="opacity:.6588;fill:url(#SVGID_00000010300643410979321390000010567667997916476851_);enable-background:new" d="M727 773.8c-94 42-211 37-304-3 13-29.6 21-59.7 23-90 94 25 191 5 283-19 6 39.2 12 55.2-2 112z"/><path d="m510 692.9 36 53.2 23-12.5 54 65.9 39-5.6-88-87.7-16 15.5-14.5-26.6M595 692c28 32 55 64 81 97.3l31-9.1-87-94" style="opacity:.5216;fill:#fff;enable-background:new"/><path class="st40" d="M727 774c-94 42-211 37-304-3 13-29.6 21-59.7 23-90 94 25 191 5 283-19.3 6 39.3 12 55.3-2 112.1v.2z"/><path d="M714 683c3 16 4 32 2 48m1 15-.5 6" style="opacity:.6118;fill:none;stroke:#fff;stroke-width:10;stroke-linecap:round;stroke-linejoin:round;stroke-miterlimit:10;enable-background:new"/></g><style>.st40,.st68{fill:none;stroke-width:10;stroke-linecap:round;stroke-linejoin:round;stroke-miterlimit:10;stroke:#000}.st68{opacity:.6;enable-background:new}</style><g id="trippy_monocle"><path class="st68" d="M478 416c-98.5 54-52 295 75 229m120-263c-24 5-51 30.5-54 56m142 120c-1 25-19.9 49-43.5 57M674 420c-62 49.7-14 226 41 157"/><path class="st68" d="M515 446.9c-32.5 32-26 103-10.5 143 9 22 38 29 41.5 1"/><path d="M687 417c-49 19 1 94 40 65 18-17-11-81.5-37-67.5 1-.5 1-2-3 2.5zm-171 33.5c-34 25 4 86 38.5 55C567 465 536 433 516 450.5z" style="fill:#fff"/><path class="st40" d="M525 445c-43 8-36 170.5 7 159 41-11 39-168-7-159.4v.4z"/><path d="M503 490.6c-27 129 68 160 58 12-34 27.2-51-8.6-58-12zM661 449c-47 176 96 182 72 28.9-33 23.1-57 1.6-72-28.9z"/><path class="st40" d="M504.5 467c-5.5 32 23 63 54 39M686 416c-63 33-38 186 14 170.5C755 571 744 386 686 416z"/><path class="st40" d="M666 437c-6 33 37 63 66 42m-107-39.2c6-25 25-46.5 50-54M757 557c-8.5 29-19 44-43 54"/><linearGradient id="SVGID_00000171696356865888095910000012114362784109113733_" gradientUnits="userSpaceOnUse" x1="431.024" y1="881.903" x2="597.039" y2="881.903" gradientTransform="matrix(1 0 0 -1 0 1410)"><stop offset="0" style="stop-color:#00ff62"/><stop offset="1" style="stop-color:#009dff"/></linearGradient><path style="opacity:.7216;fill:url(#SVGID_00000171696356865888095910000012114362784109113733_);enable-background:new" d="M487 413.5c-78 38-75 218 17 237 131 27.5 124-305.5-17-237z"/><path d="M537.5 423c17 11 27 32 33.5 51m3 18v7m-10 109c-6 12-17 22-30 27" style="fill:none;stroke:#fff;stroke-width:10;stroke-linecap:round;stroke-linejoin:round;stroke-miterlimit:10"/><path class="st40" d="M508 404c-109 26-102 253 17.5 248 104.1-4 95.5-275-17.5-248z"/></g><style>.st40{fill:none;stroke-width:10;stroke-linecap:round;stroke-linejoin:round;stroke-miterlimit:10;stroke:#000}</style><g id="Halo"><linearGradient id="SVGID_00000122693526384534565180000002607774156497303718_" gradientUnits="userSpaceOnUse" x1="310.08" y1="865.523" x2="812.151" y2="865.523" gradientTransform="matrix(1.0044 -.05704 -.0608 -1.0705 18.333 1183.23)"><stop offset="0" style="stop-color:#fbff00"/><stop offset=".661" style="stop-color:#fe9d00"/><stop offset="1" style="stop-color:#ff6f00"/></linearGradient><path style="fill:url(#SVGID_00000122693526384534565180000002607774156497303718_)" d="M293 241.6c38 131 636 51 442-77-87-57-449-11-439 73 6.5 4 48 3 64 0 92-55 241-71 339-20.5C599 261.5 399 286 310 205l-17 36.6z"/><ellipse transform="rotate(-3.252 533.104 224.114) scale(1.00001)" cx="533" cy="224" rx="240" ry="86" style="fill:none;stroke:#000;stroke-width:10.0001;stroke-linecap:round;stroke-linejoin:round;stroke-miterlimit:10.0001"/><path class="st40" d="M352 236c121 34 251 20.5 364-23"/><path class="st40" d="M366 236c69-53 240.8-64 338-19"/><path d="M355 237c26-21 62-31 94-36m266 12c-36-14-70-24-117-20.9" style="opacity:.6;enable-background:new;stroke:#000;fill:none;stroke-width:10;stroke-linecap:round;stroke-linejoin:round;stroke-miterlimit:10"/><path d="M757 212c-9 17-25 27-41 35m-16.3 7-7.2 2.5M311 225c-10 23 21 40.5 38 45m16 6 8 2" style="fill:none;stroke:#fff;stroke-width:10;stroke-linecap:round;stroke-linejoin:round;stroke-miterlimit:10"/></g><circle cx="550" cy="550" r="500" style="fill:none;stroke:#000;stroke-width:10;stroke-linecap:round;stroke-linejoin:round;stroke-miterlimit:10"/></svg>