<svg version="1.1" id="Layer_1" xmlns="http://www.w3.org/2000/svg" x="0" y="0" viewBox="0 0 1100 1100" style="enable-background:new 0 0 1100 1100" xml:space="preserve" xmlns:xlink="http://www.w3.org/1999/xlink"><path d="M178 220c12 65 96 58 145 73.5 105 33 142 205 259 198C924 471 815 683 999 767.1c15-28 26-58 33.5-90.2-31 3-79-25-64-57 10-21.5 46-65-1-68.6-76-5-19-57 20-25.1 17 14 36 45 61.5 34.6 2-44-3-88-15-130.9-81.5 19-124.5-85-198-73.9-67 9.8-153.5 76-213 17.9-17-29 11-63 40.7-65.6 56-4 58-66 15-89.6-75-31-86 59.7-139.6 65.5-123 14-57.5-169-166.5-203.5C298 111 231 159 178 220zm801 586.7c-21-28-62-29-98-28.2C662 798 654 538 448 609.3 196 697 219 565 51 563.5c2 61 14 122 38 179.5 114-52 156 24 253 38.9C542 812 530.5 662 713 919.2c25 28 55 58 95 58C879.5 939 935 876 979 806.7zM534.5 1050c-15-83-150-33.5-235-128.4-62-70-75-22-110.9-26.1C277 988 402.5 1045 534.5 1050z" style="fill:#430f70"/><linearGradient id="a8" gradientUnits="userSpaceOnUse" x1="558.119" y1="436.228" x2="806.198" y2="309.187" gradientTransform="matrix(1 0 0 -1 0 1100)"><stop offset="0" style="stop-color:#03fcf4"/><stop offset=".089" style="stop-color:#03f2f4"/><stop offset=".244" style="stop-color:#03d5f5"/><stop offset=".446" style="stop-color:#03a8f7"/><stop offset=".686" style="stop-color:#0368f9"/><stop offset=".957" style="stop-color:#0318fc"/><stop offset="1" style="stop-color:#030bfc"/></linearGradient><path style="fill:url(#a8)" d="M777.5 632.2c-21 64 38 96 31 151-4 29-37 44-59 23-39 0 84 96-74 61.8l-98-255 200 19v.2z"/><linearGradient id="b4" gradientUnits="userSpaceOnUse" x1="173.214" y1="619.428" x2="438.218" y2="483.425" gradientTransform="matrix(1 0 0 -1 0 1100)"><stop offset="0" style="stop-color:#03fcf4"/><stop offset=".089" style="stop-color:#03f2f4"/><stop offset=".244" style="stop-color:#03d5f5"/><stop offset=".446" style="stop-color:#03a8f7"/><stop offset=".686" style="stop-color:#0368f9"/><stop offset=".957" style="stop-color:#0318fc"/><stop offset="1" style="stop-color:#030bfc"/></linearGradient><path style="fill:url(#b4)" d="M331 377.1c-59 101.5-46 59.7-77 80.7-27 18-93-2-93 37 6 29.8 36 8.5 48 20 16.5 28-46 23-13 56.7 10.7-1 12 9.6 12 18 0 41 56 5 46 90 6 41 63 35 53.5-7.9-12-53.5 59-31 9.6 55.8-4 34 41 54 54.5 19l-42-202.6 70.9-144.5L331 377v.1z"/><linearGradient id="c3" gradientUnits="userSpaceOnUse" x1="342.781" y1="569.57" x2="468.781" y2="505.57" gradientTransform="matrix(1 0 0 -1 0 1100)"><stop offset="0" style="stop-color:#03fcf4"/><stop offset=".089" style="stop-color:#03f2f4"/><stop offset=".244" style="stop-color:#03d5f5"/><stop offset=".446" style="stop-color:#03a8f7"/><stop offset=".686" style="stop-color:#0368f9"/><stop offset=".957" style="stop-color:#0318fc"/><stop offset="1" style="stop-color:#030bfc"/></linearGradient><path style="fill:url(#c3)" d="M331 545c2 0 123 8 129 8.3l-5 70.8-124-79.4v.3z"/><linearGradient id="d3" gradientUnits="userSpaceOnUse" x1="192.925" y1="662.852" x2="343.925" y2="585.852" gradientTransform="matrix(1 0 0 -1 0 1100)"><stop offset="0" style="stop-color:#03fcf4"/><stop offset=".089" style="stop-color:#03f2f4"/><stop offset=".244" style="stop-color:#03d5f5"/><stop offset=".446" style="stop-color:#03a8f7"/><stop offset=".686" style="stop-color:#0368f9"/><stop offset=".957" style="stop-color:#0318fc"/><stop offset="1" style="stop-color:#030bfc"/></linearGradient><path style="fill:url(#d3)" d="M333 383s39.8 16 59 24.2L330 545s-123 30.6-123 30c-9.6-3-26-12-19.7-22 10.9-17 59-39.8-12-39.8-19.7 0-16-35 1-41.8 10-4 15 11 103-20C305 426 320 398 333 382.6v.4z"/><linearGradient id="e3" gradientUnits="userSpaceOnUse" x1="286.992" y1="458.984" x2="489.992" y2="354.984" gradientTransform="matrix(1 0 0 -1 0 1100)"><stop offset="0" style="stop-color:#03fcf4"/><stop offset=".089" style="stop-color:#03f2f4"/><stop offset=".244" style="stop-color:#03d5f5"/><stop offset=".446" style="stop-color:#03a8f7"/><stop offset=".686" style="stop-color:#0368f9"/><stop offset=".957" style="stop-color:#0318fc"/><stop offset="1" style="stop-color:#030bfc"/></linearGradient><path style="fill:url(#e3)" d="M370 736.6c-12-64-28-126.5-40-191.7l125 79.3 33.5-10s-33 200-33 201C369 878 384 757 370 736.6z"/><linearGradient id="f3" gradientUnits="userSpaceOnUse" x1="439.222" y1="373.432" x2="708.222" y2="235.432" gradientTransform="matrix(1 0 0 -1 0 1100)"><stop offset="0" style="stop-color:#03fcf4"/><stop offset=".089" style="stop-color:#03f2f4"/><stop offset=".244" style="stop-color:#03d5f5"/><stop offset=".446" style="stop-color:#03a8f7"/><stop offset=".686" style="stop-color:#0368f9"/><stop offset=".957" style="stop-color:#0318fc"/><stop offset="1" style="stop-color:#030bfc"/></linearGradient><path style="fill:url(#f3)" d="M455 817.1c11.5-68 23-137 34-204.8l103 38s83.5 217 83 217c-38 12 25 108-48 107.6-50-5-29-103-86-109.9 4 32-31 59.6-51 25-12-24.5-2-61-35-72.9z"/><linearGradient id="g1" gradientUnits="userSpaceOnUse" x1="532.938" y1="679.879" x2="827.935" y2="528.88" gradientTransform="matrix(1 0 0 -1 0 1100)"><stop offset="0" style="stop-color:#03fcf4"/><stop offset=".089" style="stop-color:#03f2f4"/><stop offset=".244" style="stop-color:#03d5f5"/><stop offset=".446" style="stop-color:#03a8f7"/><stop offset=".686" style="stop-color:#0368f9"/><stop offset=".957" style="stop-color:#0318fc"/><stop offset="1" style="stop-color:#030bfc"/></linearGradient><path style="fill:url(#g1)" d="M795 370.7c7.5 30-8 63 0 93.1 9 34 71 72 29.9 108-18 0-17-9-46 67.3l-200.8-12.3-28-255.8h244.8l.1-.3z"/><linearGradient id="h1" gradientUnits="userSpaceOnUse" x1="638.618" y1="629.254" x2="830.554" y2="531.286" gradientTransform="matrix(1 0 0 -1 0 1100)"><stop offset="0" style="stop-color:#03fcf4"/><stop offset=".089" style="stop-color:#03f2f4"/><stop offset=".244" style="stop-color:#03d5f5"/><stop offset=".446" style="stop-color:#03a8f7"/><stop offset=".686" style="stop-color:#0368f9"/><stop offset=".957" style="stop-color:#0318fc"/><stop offset="1" style="stop-color:#030bfc"/></linearGradient><path style="fill:url(#h1)" d="M774 639c-53.5-3.5-104-6-159-9.6l-39.9-44.1 29-8.4 24.5-69.5s164-129.5 165.5-128c-13 153 35 82 43 169.7 3 32-32 17-35 33.1C797 601.5 788 620 774 638.8v.2z"/><linearGradient id="i1" gradientUnits="userSpaceOnUse" x1="614.019" y1="789.038" x2="783.019" y2="703.038" gradientTransform="matrix(1 0 0 -1 0 1100)"><stop offset="0" style="stop-color:#03fcf4"/><stop offset=".089" style="stop-color:#03f2f4"/><stop offset=".244" style="stop-color:#03d5f5"/><stop offset=".446" style="stop-color:#03a8f7"/><stop offset=".686" style="stop-color:#0368f9"/><stop offset=".957" style="stop-color:#0318fc"/><stop offset="1" style="stop-color:#030bfc"/></linearGradient><path style="fill:url(#i1)" d="m642 247.4-59.5 171.4c70.9-9.6 146-17 213-42 7-26-22.5-44-43-50C809 236 695 243 642 247v.4z"/><linearGradient id="j1" gradientUnits="userSpaceOnUse" x1="442.133" y1="833.26" x2="643.133" y2="730.26" gradientTransform="matrix(1 0 0 -1 0 1100)"><stop offset="0" style="stop-color:#03fcf4"/><stop offset=".089" style="stop-color:#03f2f4"/><stop offset=".244" style="stop-color:#03d5f5"/><stop offset=".446" style="stop-color:#03a8f7"/><stop offset=".686" style="stop-color:#0368f9"/><stop offset=".957" style="stop-color:#0318fc"/><stop offset="1" style="stop-color:#030bfc"/></linearGradient><path style="fill:url(#j1)" d="M449.9 240c10 4 22 4 33 1.1 14-4 25-15 36.5-24 11-9 25-17 39-17s27 9 38 17c16 12 32.5 25 52 32.5l-58 224.1L449.9 240z"/><linearGradient id="k" gradientUnits="userSpaceOnUse" x1="357.104" y1="807.111" x2="658.067" y2="653.13" gradientTransform="matrix(1 0 0 -1 0 1100)"><stop offset="0" style="stop-color:#03fcf4"/><stop offset=".089" style="stop-color:#03f2f4"/><stop offset=".244" style="stop-color:#03d5f5"/><stop offset=".446" style="stop-color:#03a8f7"/><stop offset=".686" style="stop-color:#0368f9"/><stop offset=".957" style="stop-color:#0318fc"/><stop offset="1" style="stop-color:#030bfc"/></linearGradient><path style="fill:url(#k)" d="M462 244c-10-2.5-21-5-32-4.5s-22 4-29 12.1-9 21-3 29.6c3 4 7 8 5 12-1.5 3.5-6 4-9.8 4-14 0-27 2-39.7 7.9-12 6-23 16-27 29-2 6-2 13-2 19.7 0 9 1 18 3 26.5l300 126.5-49-106.6L462 244z"/><linearGradient id="l" gradientUnits="userSpaceOnUse" x1="435.046" y1="589.091" x2="595.046" y2="507.091" gradientTransform="matrix(1 0 0 -1 0 1100)"><stop offset="0" style="stop-color:#03fcf4"/><stop offset=".089" style="stop-color:#03f2f4"/><stop offset=".244" style="stop-color:#03d5f5"/><stop offset=".446" style="stop-color:#03a8f7"/><stop offset=".686" style="stop-color:#0368f9"/><stop offset=".957" style="stop-color:#0318fc"/><stop offset="1" style="stop-color:#030bfc"/></linearGradient><path style="fill:url(#l)" d="M629.6 507.4c-8 23-16 47-25 70.4l-149.9 46.8 12-185.6 163 68v.4z"/><linearGradient id="m" gradientUnits="userSpaceOnUse" x1="506.773" y1="513.561" x2="653.773" y2="437.561" gradientTransform="matrix(1 0 0 -1 0 1100)"><stop offset="0" style="stop-color:#03fcf4"/><stop offset=".089" style="stop-color:#03f2f4"/><stop offset=".244" style="stop-color:#03d5f5"/><stop offset=".446" style="stop-color:#03a8f7"/><stop offset=".686" style="stop-color:#0368f9"/><stop offset=".957" style="stop-color:#0318fc"/><stop offset="1" style="stop-color:#030bfc"/></linearGradient><path style="fill:url(#m)" d="M578 586.2c-31 9-58 17-89.8 27.9l163 56.8L578 586v.2z"/><linearGradient id="n" gradientUnits="userSpaceOnUse" x1="441.998" y1="531.996" x2="496.998" y2="503.996" gradientTransform="matrix(1 0 0 -1 0 1100)"><stop offset="0" style="stop-color:#03fcf4"/><stop offset=".089" style="stop-color:#03f2f4"/><stop offset=".244" style="stop-color:#03d5f5"/><stop offset=".446" style="stop-color:#03a8f7"/><stop offset=".686" style="stop-color:#0368f9"/><stop offset=".957" style="stop-color:#0318fc"/><stop offset="1" style="stop-color:#030bfc"/></linearGradient><path style="fill:url(#n)" d="M461 527.8c-2 34-4 65-6 96.7l34-10.6-28-86.1z"/><linearGradient id="o" gradientUnits="userSpaceOnUse" x1="359.947" y1="627.897" x2="470.947" y2="570.897" gradientTransform="matrix(1 0 0 -1 0 1100)"><stop offset="0" style="stop-color:#03fcf4"/><stop offset=".089" style="stop-color:#03f2f4"/><stop offset=".244" style="stop-color:#03d5f5"/><stop offset=".446" style="stop-color:#03a8f7"/><stop offset=".686" style="stop-color:#0368f9"/><stop offset=".957" style="stop-color:#0318fc"/><stop offset="1" style="stop-color:#030bfc"/></linearGradient><path style="fill:url(#o)" d="M391 406.9c-21 48.5-38 86-61 138l129.5 9.1 7.5-115.1-76-32z"/><style>.st40{fill:none;stroke:#000;stroke-width:10;stroke-linecap:round;stroke-linejoin:round;stroke-miterlimit:10}.st98{opacity:.6;enable-background:new}</style><g id="Outline"><path class="st98" d="M793 537c-1 .7-1 2-.5 3 5 10 11 35 25 30 8-2 21-13 18-22.4-.5-1-2-2-3-1.5-26 12-28-11-39-9.4v.3zm-34 274.5c6 5 26 8 25-3-6-7-20.6-12-21.5-26C750 772 744 803 759 811.5zm-219.3 52s1 .5 1 .8c9 13.5-3 36-18 40-34 6-9-6-6-44 .3-5.3 22.3 2.7 23 3.2zM342 731c5 7-4 22-4 33 8 13 29.6-5 33-14.9 2-12-17-21-28-20.2-1 .1-1 1.1-1 2.1zm31-120.2c2 23-8 47-26 61.9-13 10.9-17.5-30.6-8-27.9 6 4.2 28-18.8 34-34zm-157-59.9c-8 6-17 3-25 1-11 5 4 20 13.5 16 5-4 12-9 12-15.7-.5-.2-1.5-.2-.5-1.3zM337 473c-6-10-3-23 0-34 0-1 0-2-.6-2-9-9-23 11-19.8 20.7C318 463 338 475 337 472.8v.2z"/><path class="st98" d="M326 392c-2 29 24 45 7 44-7 2-14 1-15 11-1 11-24 0-24.5-1.3C285 433 317 404.5 326 392zm103-118c-9.9-4-16-16-18-25-4-6-9.9 1-11 6-7 54 29.5 28 29 19zm293 9c16 21 29.5 12 40 20.7 3 4 1 9.6-1 14-3 9-13 9-20 4.1-14.5-5.8-22-22.2-19-38.8z"/><path class="st40" d="M347 729c53.5 5 15 86 59 102 25 9 37-19.8 55-11.9 23 10.1 19.6 40 24 60.7 9.6 46 63 29.6 58-12.8"/><path class="st40" d="M519 861c89-9 47.5 119 114.5 115 39-6 35-47 25-76.5-3-9 0-18.5 7-24.5 24.5-21 59 15.5 84-2.5 15-11 8-33-2-45-12-15 0-32 10-43"/><path class="st40" d="M790 539c53 69.8-64 71 8 194.5 6 14 11 32 11 48.5 0 32-49 47.5-61 16"/><path class="st40" d="M721 287c2 51 64 31 74 88 6 34-11.5 71 7 103 10 18 27 31.5 34 51 8 19-4 47-27 42"/><path class="st40" d="M407 290.6c-16-8-12-29.9-2-41 17-15 40.5-10 61-6 29.8 1 49-29 75-38 50-17 81 55 133 44 23-5 48-11 69 1 25 14 33 55 10 75"/><path class="st40" d="M428 278c-16 26.5-51 17.5-76 28.5-20 10.5-28 33-23 55 10 47-43 51-39 88m25 4.5c1.5-23 35-26 41-5 7 25-13 47 16 72"/><path class="st40" d="M334 476c-20-34-61-31.5-89-9.6-20 8-43-3-64 4-22 7-28 37-5 43.5 6.5 2 23-2 26-1 15 4 11 25-5 30-21 6-10 29 6 29"/><path class="st40" d="M216 554.5c-15 15-14 41 2 55 37 22 41 31 36 69.7-2 31 46 41 53.5 10 2-10.8-4-22 0-33 13-32 44 20 62-44.5"/><path class="st40" d="M327 647.9c25 29.7-.5 47-7 75-10 32.5 34 65 53 25"/><path d="M729 262.5c9 4 16 13 18 22.5m-193-68c12.5 2 24.5 8 34 16m9 9 3 3m-163 10c-5.5-.9-12 .6-15.5 4M362 319.6c-9 2-14 10.7-16 19M339 449c4 1 6 6 6 9.8M308.5 470c-12-6-16-5-22-4M175 492c1-4 5-7 9-7.5m38 89.5c-4 8 0 16 4 19.9m44 78.6c-1 6 1 15 9 18m76-77.5c-3 14-13 14.5-16 16m4.5 119.5c-5-3-9-9-8-15M397 782c-1 14.5 7 28 14 30m90 53.9c-3 12 2 27 14.5 25M636 957c14-3 17-28 11-38m96-60.1c1-7 0-14-4-19m46-49.1c8-6.5 9-25 3-39M786 582c5-8 3-19-3-26m37-12c2-8.5-.6-18-7-24m-56-169c18 6 22 30 21 35" style="opacity:.7882;fill:none;stroke:#fff;stroke-width:10;stroke-linecap:round;stroke-linejoin:round;stroke-miterlimit:10;enable-background:new"/></g><defs><style>.axg-2{fill:none;stroke-linecap:round;stroke-linejoin:round;stroke-width:10px;stroke:#000}</style></defs><path d="M243.3 626.7c44.2-16.7-13.7-73.4 35.6-67.3 21.7 19.1-.3 76.2 37.7 66.4 49.7-12.9 2.3-62.1-2.5-73.1.2-30.9 41.4 1.5 50.2-38.3-18.2-24 5.5-57.2-11.5-72.8-23.1-21.4-36.9 8.5-40.9 12.3-49.6-11.5-64.2 25.4-117.3 13.2-18.8 1.7-44.6 25-24.6 41.9 11.7 10 34.4-3.6 41 13 5.6 20.2-54 25.9-6 50.9-4.7 29.1 19.3 38.5 38.3 53.8Z" style="fill:#ff00d9"/><path class="axg-2" d="M314.8 454c1.5-23.1 35.3-26.3 41.4-5 7.1 24.8-12.6 46.8 16.2 72.4"/><path class="axg-2" d="M333.7 475.6c-20.3-33.6-61.2-31.5-89.3-9.6-20 8.1-43.3-2.6-63.8 4.1s-28 37.5-4.7 43.5c6.5 1.7 23.1-2 26.4-1.1 15.3 4 11.4 25.2-5.4 30.1-21.2 6.2-10.2 28.6 6.3 29"/><path class="axg-2" d="M215.8 554.5c-14.8 14.8-13.6 41.2 2.4 54.6 36.7 21.9 40.7 30.9 35.7 69.7-2 31.4 45.8 41 53.5 10 1.8-10.8-4.5-22.1.2-32.7 12.4-32.5 44.2 20.2 62.3-44.5"/><path class="axg-2" d="M243.3 626.7c37.7-15 11.5-42.6 12.4-55.1s13.2-19 23.2-12.2c21.7 19.1-1.6 66.4 37.7 66.4 19.4 0 27.9-27.7 18.2-43.9-6.2-10.4-19.9-17.2-20.7-29.2-.9-15.6 12.2-15.8 24-15.8 17.1 0 22.7-11.2 26.4-22.4"/><path d="M252.3 630.1c37.2-23.8-3.2-55.3 13.1-65.7 19.7-12.7 16.5 44.9 26.1 55.7 14.5 16.1 42.1 14.9 49.3-5.5 15-42.4-25.4-45.4-20.3-64.1 4.2-15.7 34.1 2.2 47.4-30.2m-34.2-44.7c-5.3-11.3-15.2-21.9-8-36.1m-109.9 115c-6.5 6.5-14.4 12.3-26.3 7.7" style="opacity:.6;stroke:#000;fill:none;stroke-linecap:round;stroke-linejoin:round;stroke-width:10px"/><path d="M338.8 448.3a14 14 0 0 1 5.2 10.6m-61 4.8a28.5 28.5 0 0 1 22.2 6.9m-128.7 18.6a16.8 16.8 0 0 1 13-6.3m11.2-1.3 2.1.3M350 516.8c-2.5 4.5-5.9 7.7-12.8 6.9m-14.8 66.2c2.4 4.6 2 10.8-.1 15.9m-98.6-12.5a24.4 24.4 0 0 1-2.5-20.2" style="stroke:#fff;fill:none;stroke-linecap:round;stroke-linejoin:round;stroke-width:10px"/><g data-name="Layer 5"><path d="M794 602c-14-24-39.7 29-45 30.5-105 22-109 60.8-136 51.5-56-19-116 8-136-7-50-37-70.7-26.5-112-50-5 20-29.5 22-33 29-1 3 6 13-8 54.9-22 63 38 63 48.5 37 19 102 29 88 71 73s36 57.5 53 85c24 18 54-11 43-37.4 55 17 49 67 59 87.5 15 31 63 24.5 67-10-33-141 58.5-35 82-73 30.6-23.6-11-37-10.5-58.7.9-31 19 12 48-3C854 770 723 694 794 602Z" style="isolation:isolate;opacity:.6"/><path d="M659.8 758c4 4.5 5 11 4 16.5M652.5 744l1.5 3m-132 25a22.4 22.4 0 0 1-6 15m-61-58c0 2 0 5 1 7m130 94c1 3.5 0 7-2 10m139-106.1a11 11 0 0 1 .5 7" style="stroke:#fff;fill:none;stroke-linecap:round;stroke-linejoin:round;stroke-width:10px"/><path d="M444.5 712c-20 18.5-3 69.7 25 42 8-8 15-2 14 7-3.5 53 24 49 42.5 37m26 18c12 7 4 23 9.9 33.5s19.6 9 28 3M624.5 750c-30 48 41.5 75 53 29.9M705 727c-18.5 51 51 46 30.7-4-3.5-6-8-17-5-22-.5 27 36 26 32.5-.8" style="stroke:#000;fill:none;stroke-linecap:round;stroke-linejoin:round;stroke-width:10px;isolation:isolate;opacity:.6"/><path d="M366 622.9c9 21.5 30 22 51 22 15.5 0 27 14 39.6 23 49 34 79-12 147 13.4 43 6 56-19 89.6-35 17-8 39-2 53.5-14s23-48 47-36M448 713c-18 29 7 58 22 33 6-10.5 20.5-1.5 18 9-11 48 34 64 46 30.8 6.5-18-11-30.5-4-42m25 68.7c16 7 2 29.8 14 39.5 10 8 29 0 29.6-12.9 1-19.7-14-32-2-54m32.4-34.6c-28 65 74 62.5 44.5 0-7-14.5-18-31.5-8-47M708 728c-11 48 48 28 18-10.7-3-4-6-9-5-14s9-8 14-4.2 2.5 10 9 14.5c12 7 30-8 8-30-5.5-5.5-13-17-4-23" style="stroke:#000;fill:none;stroke-linecap:round;stroke-linejoin:round;stroke-width:10px"/></g><style>.st68{enable-background:new;opacity:.6;fill:none;stroke:#000;stroke-width:10;stroke-linecap:round;stroke-linejoin:round;stroke-miterlimit:10}</style><g id="trippy_VR"><linearGradient id="SVGID_00000020388922614253771230000004650598949562930306_" gradientUnits="userSpaceOnUse" x1="586.484" y1="720.989" x2="598.481" y2="427.041" gradientTransform="matrix(1 0 0 -1 0 1100)"><stop offset="0" style="stop-color:#ff0062"/><stop offset="1" style="stop-color:#ff9d00"/></linearGradient><path style="fill:url(#SVGID_00000020388922614253771230000004650598949562930306_);stroke:#000;stroke-width:10;stroke-linecap:round;stroke-linejoin:round;stroke-miterlimit:10" d="M729 389c-81 32-168 29.7-254 29.7-79 0-75 45-76 110-2 167 409.6 107 385-42.5-5-30.2-7-116.1-55-97.2z"/><linearGradient id="SVGID_00000048501908464928315330000009927288370948035757_" gradientUnits="userSpaceOnUse" x1="580.562" y1="671.12" x2="631.559" y2="442.138" gradientTransform="matrix(1 0 0 -1 0 1100)"><stop offset="0" style="stop-color:#00fff2"/><stop offset=".613" style="stop-color:#006cfa"/><stop offset="1" style="stop-color:#000dff"/></linearGradient><path style="fill:url(#SVGID_00000048501908464928315330000009927288370948035757_);stroke:#000;stroke-width:10;stroke-linecap:round;stroke-linejoin:round;stroke-miterlimit:10" d="M718 427.5c-108 47-156 32-241 30.7-43-.7-46 57-32 88.5 46.5 85 313 56 307-66.2-1-21.5-3.5-66.5-34-53z"/><path d="M728 449c6 14 8 29 7 44m-5 16.5-3 5.5m-270-31c-4 14-4 29.7 1 44m5 14c1 4 4 8 7 10m276-148c6 7 9.8 16 12 24.5m11 85.5c-3.5 10.9-9 21-16 30m18-42-.2-4M445 436c-10 4-19 12-23 22m-5.5 17-.5 4m5 82c4 9 10 17 18 23" style="fill:none;stroke:#fff;stroke-width:10;stroke-linecap:round;stroke-linejoin:round;stroke-miterlimit:10"/><path d="M520 460.9c26 32 51 65 74 99 0-10 0-20.8-.8-31 8 13 18 24 29 35.2l19 19.8 27-8.4-80.6-75.8-5 18.9L544 462m38 1c24 26.5 48 52 74 76.9l-4-26.1 41.5 48.1 14-7.2-62-57.3-1 17.1-46-53" style="opacity:.502;fill:#fff;enable-background:new"/><path class="st68" d="M421 431c-42 16-34 122-14 152 59 87.5 312 59 358-29"/><path class="st68" d="M452 466c-13 8-17 25-18 33.5C420.5 635.8 661 619 725 545"/><path d="M718 427.5c-108 47-156 32-241 30.7-43-.7-46 57-32 88.5 46.5 85 313 56 307-66-1-21.7-3.5-66.7-34-53.2z" style="fill:none;stroke:#000;stroke-width:10;stroke-linecap:round;stroke-linejoin:round;stroke-miterlimit:10"/></g><defs><linearGradient id="zbb" x1="524.71" y1="224.05" x2="578.63" y2="452.63" gradientUnits="userSpaceOnUse"><stop offset="0" stop-color="#ff004d"/><stop offset="1" stop-color="#c800ff"/></linearGradient><linearGradient id="zbb-2" x1="267" y1="400.7" x2="308.54" y2="400.7" gradientUnits="userSpaceOnUse"><stop offset="0" stop-color="#ff004d"/><stop offset="1" stop-color="#e100ff"/></linearGradient><linearGradient id="zbb-3" x1="189.5" y1="428.13" x2="271.07" y2="428.13" gradientUnits="userSpaceOnUse"><stop offset="0" stop-color="#ff004d"/><stop offset="1" stop-color="#ff00d5"/></linearGradient><linearGradient id="zbb-4" x1="178.74" y1="392.88" x2="276.42" y2="392.88" gradientUnits="userSpaceOnUse"><stop offset="0" stop-color="#ff004d"/><stop offset="1" stop-color="#ff00e1"/></linearGradient><style>.zbb-5{fill:none;stroke-linecap:round;stroke-linejoin:round;stroke-width:10px;stroke:#000}</style></defs><path d="M324.4 392c-3.1 8.8-9.4 11.8-13.8 17.9-13.5-5.6-21.4-23.1-16.6-37.6 3.4-10.2 13.6-17.6 15.4-28.2 11.6-67.1 45.6-40.5 85.5-70.4 31.3-23.5 77.6-8 114.1.1 86.4 19.1 150.1-42.3 237.7-42.3 49.8 0 98 93.3 41.3 124.8-4.3-7.1-9.4-14.4-19.6-20.2-31.1 22.8-73.4 13.1-109 13.2-96.2 6.3-143.7 56.1-249.2 34.8-28.1 0-56 11.4-85.8 7.9Z" style="fill:url(#zbb)"/><path d="M291.2 381.2c-61.5 53.7 13.1 39.9 17.3 28.7-7.6-7.6-16.2-16.9-17.3-28.7Z" style="fill:url(#zbb-2)"/><path d="M265.1 405.3c-45.5-1.4-46.4 27-75.6 41.4a45.9 45.9 0 0 0 41.3-1.7 13.8 13.8 0 0 1-4.1 6c18.3-2.1 38.4-14.1 44.4-32.1-3.2-3.7-5.7-7.6-6-13.6Z" style="fill:url(#zbb-3)"/><path d="M276.4 387.6c-35.8-4.3-47.3-18.6-61.3-13.7 3.8 4.2 8.9 11.3 8.6 16.9a58.7 58.7 0 0 0-45 6.8c13.3 1.3 18.5 28.3 89.9 7.3 2.2-5.6 5-10.9 7.8-17.3Z" style="fill:url(#zbb-4)"/><path class="zbb-5" d="M313.2 385.6c20.9 12.7 51.8 5.6 73.1.9 26.5-5.7 53.9 2.5 81 3.1 64 1.4 122.7-39 186.7-40.3 31.4-.7 63.9 8 93.5-2.6 14.4-5.2 27.7-15 43.1-15.7"/><path class="zbb-5" d="M324.4 392c-3.1 8.8-9.4 11.8-13.8 17.9-13.5-5.6-21.4-23.1-16.6-37.6 3.4-10.2 13.6-17.6 15.4-28.2 11.6-67.1 45.6-40.5 85.5-70.4 31.3-23.5 77.6-8 114.1.1 86.4 19.1 150.1-42.3 237.7-42.3 49.8 0 98 93.3 41.3 124.8-4.3-7.1-9.4-14.4-16.5-18.9"/><path class="zbb-5" d="M291.6 379.2c-11.8 9-32.7 27.7-21.9 38.5 7.7 7.7 22.2-6.6 28.6 4a160.1 160.1 0 0 0 11.7-11.6"/><path class="zbb-5" d="M268.4 403.9c-12.1 4.2-29.4 1.3-40.6 9.1-14.9 10.5-21.9 33.2-43.9 30.5 12.6 14.7 35 9.1 48.6-1.4a40 40 0 0 1-5.6 11.1 57.9 57.9 0 0 0 45-31.3"/><path class="zbb-5" d="M280.3 385.5c-6.9-3.2-14.2-.2-21.3-.9-16.3-1.7-28.9-18.1-46.8-9.5 5.1 2.3 10.7 10.2 12.7 15.5-14.3 4.2-18.3-13.4-56.4 9.8 20.9-5.6 33.1 14.7 53.1 15.7"/><path d="M773.9 340.5c-40.3 22.9-77.1 19.4-121.2 16.7-64.7.8-124.6 41.4-189.3 39.5-25.5-.8-51-7-79-3.2-19.7 2.8-39.7 8.4-59.3 4.7m-13-11.9a18.5 18.5 0 0 0 5.1 10m473.1-64.2a29.1 29.1 0 0 0-8.3 8.1m-494.7 44.1c.1 11.2 6.6 21 13.1 29.8m-27.3-26.6c-7.5 19.1-39 9.5-55.7 26m43.1-4.4a18.4 18.4 0 0 0 6.4 13.8" style="opacity:.6;stroke:#000;fill:none;stroke-linecap:round;stroke-linejoin:round;stroke-width:10px"/><path d="M752.2 247.6a54.8 54.8 0 0 1 28.6 21.5m6.9 12.1 2.1 4.9m-314.5-4.9a74.2 74.2 0 0 0-43.6-5.3m-14.6 4-4.3 2.1m97 86.5a90.8 90.8 0 0 1-42.3 4.5m-124.6-65.7c-6.9 3-11.1 9.8-13.6 16.6m-84.2 94.5a29.4 29.4 0 0 0-15.7 8.8m522.2-96.6a68.4 68.4 0 0 1-39.8 6.8m-388.6 39.9a85.8 85.8 0 0 0 27.2 1.9" style="stroke:#fff;opacity:.72;fill:none;stroke-linecap:round;stroke-linejoin:round;stroke-width:10px"/><circle cx="550" cy="550" r="500" style="fill:none;stroke:#000;stroke-width:10;stroke-linecap:round;stroke-linejoin:round;stroke-miterlimit:10"/></svg>