<svg version="1.1" id="Layer_1" xmlns="http://www.w3.org/2000/svg" x="0" y="0" viewBox="0 0 1100 1100" style="enable-background:new 0 0 1100 1100" xml:space="preserve" xmlns:xlink="http://www.w3.org/1999/xlink"><style>.st17{fill:none;stroke-width:10;stroke-linecap:round;stroke-linejoin:round;stroke-miterlimit:10;stroke:#b5d7fc}</style><g id="clouds"><circle cx="549.5" cy="550" r="500" style="fill:#48aaf1"/><path d="M609 832.7c17 31 34 34 65 19.5 13 7.5 28 11 44 11.2-4 35.8 47 49.8 59 15.4 3.5 5 9.6-.1 40 7.4 48.5 12 55-70 2-66.1-5-11-14-20.8-25-26.3 3-18 12-35 13-53-2-21-17-35-38.5-24.3-9-8-22-8.5-36-9.1 14-23-67-49.5-62 19.7-14 2-28 9.5-37 21.8C575.8 702 534 836 609 832.7zM311 906c5 16 21 27 38 26.3 5 9 33 46 56 20.9 47 22 63-31.5 21-52.4-6-18-21-30-38-39.6 5-34-35-42-53-15.9-59-31.3-88 58.2-24 60.7zm68-193.5c6 33-38 52-64 37.3-9.8 21-39.7 26-56 10.3-9 6-17 10.6-25.5 14.8 5 37.5-32 62-50 20-6 4-14 5-21 3.1-5 11-13 22-25 25.5-18-2-88-142-69-177.7 12-22 37-30.1 59-17.3 2.5-13 8.5-25 17-33.6-7-41.5 33-58 53.5-21.3 22 1 38 15 48 32.9 14-9 86-56 108 9.2 20.7-9.8 33-8 52 4.3 37-9 55 42.5 16 52.5-17 3.3-1 20.5-43 40zM215 322.3c29 36 85-24 51-52.4 25-34-15-60.9-42-32.7-.7-18-12-34-29-38.1-27.5 25-51 55-69 88 8 12 22 19 37 18.6 5 22.3 34 31.3 52 16.6zm396-190.9c-36 17-16 83.5 42 51.9 25 28 59.6-38 23-65.6-1-27.7-65-66.7-65 13.7zm378 181.5c-20-10-42-5-61 7.2-15-13-37-3-47 11.7-14-22.5-70.7-16-32 39.6-8 12-12 26-7 41.3-42 11-29 65 6 77.1 9.9 3 39 56 70 9.9 9.7 6 22 7 33 2.7 5.8 12 24 10 33 19.7 14 23 41 25.5 65 18.1 0-79.2-24-157.2-60-227.3z" style="fill:#e8f4fe"/><path d="M695.5 698.2c-5 4-8 10.6-9 17M688 729v3m-104 51c0 9 2 17 6 25m-.1-42 4.1-4m39.5 83.6c7 4 15 4 22 0M666 839l1.5-2m62.5 30.5c.5 7 6 13 13 15m13 .5 2.5-1m71.5-47.2c6.5 2 11 9 12 16m-2 13.8c-.1 1 0 2-1 3m-44-134.8c2 5 1 11-1.5 16M784 757l-2 1m-32-37.5c3 1 6.5 3 8.5 6M289 866.1c-5 15 2 23 13 26m-6-37c0-1 1-2 2-2m75-9.5c3 3 4 9 3 13m-7 10.4-2 1.5m60 47.9c5 3 9.7 8 10 14m-7.1 15.1c1 0 2-1 3-2m-72.4-14.9c2 6 6.5 11.5 12 15m27-60.2c3 2 5 4 6.5 7m-94-294.6c-14.5-2-29.6 3-40 13m55-8.3c1 0 3 1 4 2m84 30.1c5 1 10 3 12 8m0 11.4-1 4m-36.2 34.7c-5 4-11 6-17 7m-7.8 30.6c-4 5-9 8-15 10m-11 3.7h-3m-70 3c1 6 7 11.5 13 12m12-2h2m-72 31.4c-1 5-3 10-7 13m-40-232.1c5 3 9 9 9.8 15m28.2 7.6c5 3 9.9 8 13 13m-123 33.4c6 0 12 2.5 16.5 6m8.5 9.7 2 3m828-332.9c7-.5 13 1 19 4m-55 11.2c0-5-3-9-8-10M861 361c-6-1.5-11-6-13-12m-18.5 101c2 12.5 14.5 22 26 24m-25.6-38.9c0-2 2-3 3-4m66.8 51.8c3 5 2 12-2 16m-16.7 5.2c1 1 2 1 3 1m86-1.4c5 2.5 10.5 3 15.8 2m20.2 21.5c5 4 12 4 19 4M853 400.1c-2-4-1-9 1-13M671 131c7 7 11 18 8 28m-6 11.9c-1 1-1 2-2 3m-56 6.1c8 3 16-1 21-7m6-10.1c0-1 .7-2 .9-3M641 96.3c-9 2-15.5 10.5-15 19.5m1.5 12.2.5 1.6m-430 86.6c5 5 8 11 9 18m3.8 11.8.2 3m49-5.9c2 3 3 8 1 11m3 45.8c-3 14-19.8 25-33 16m-6-9.6c-.9-.7-1-2-1-3m-33 14.8c-5-1-9-4-11-8.5m-5-10.8c0-1-.6-2-.7-3m-24.6-3.5c-4-1-7-4-9.5-7m7.8 506.8c-2 5-6 9-11 12" style="fill:none;stroke:#fff;stroke-width:10;stroke-linecap:round;stroke-linejoin:round;stroke-miterlimit:10"/><path class="st17" d="M62.5 658.3c7-44 62-48 81-9.6"/><path class="st17" d="M128.5 627.7c-2-13 4-26 15-33m15.5 11.2c-26-10-18-52 8-54.4 23-2 41 30.1 27 49"/><path class="st17" d="M197 574.1c22-2 42 19 50 38"/><path class="st17" d="M239 627.8c26-69.6 136-57 111.5 15"/><path class="st17" d="M355 617.9c10.9-14 39.7-11 48 5"/><path class="st17" d="M395 634.5c5-25.5 47-13 48 8.3 1 26-27 40.8-45 24"/><path class="st17" d="M417 674.2c-9 23-33 42-58 36"/><path class="st17" d="M379 711c9.7 33-38 56.5-63.5 38"/><path class="st17" d="M310.5 720.6c17 26-10 59.6-41 48.2-16-6-22-32-12-46"/><path class="st17" d="M256 756.9c-5.5 8.5-14 15-23 19"/><path class="st17" d="M219 767.6c34 12 3 63-22 48.2-8-5-14-14-14-23"/><path class="st17" d="M192 782.3c-6 9.6-16 16-27 17m-3-11.8c0 16-12 31.5-27 36.5m199.5 20.7c-41-21.5-63 13-60.5 33.2 3 25.5 37 39.9 54 17.5"/><path class="st17" d="M310.5 907.9c6 15 21 25 37 25"/><path class="st17" d="M348 921.2c-2 29 32 49 56 34m-66-85.7c-14-16 5.5-39 24-40.8 29.9-3 39 36.5 13 49"/><path class="st17" d="M388 864.5c18 3 34 17 39.5 35m-27.7 41.3c8 23 42 24 51 .7 8-22-23-49.9-43-34m201.2-73c14 37 69 37 73-5"/><path class="st17" d="M675 850.7c10 11 27 15 41 10.9m13-13.6c-21 13.5-9.6 46 13 49.7 25 7 47-23 23-39m12.5 18.3c7 4.5 16 5 23 2"/><path class="st17" d="M795 867.6c9.8 31 53 28 60.9-2.9 10-29.9-26-59-49-34"/><path class="st17" d="M818 821.3c-2-14-15-25-29-25"/><path class="st17" d="M777 805.6c13-6 22-19 23-33m-182 52.2c-39 30-64-37-43-64.8 37-48 70-1 69 17"/><path class="st17" d="M634 751.8c2-15 24-25 38-22"/><path class="st17" d="M682 746.8c-20-24-9-65 25-65.4 26.5-.5 35 34 21 53"/><path class="st17" d="M736 709c16-6 35 5 38.5 22"/><path class="st17" d="M782 773.1c47-9 29.8-78.5-14-55m92.1-225.7c9 52 89 17 43-24"/><path class="st17" d="M918 495c7 11 22 14 34 9m-3-11.8c4.5 19.9 27 32 46 26m-12 4.1c8 26 41.5 27 63 18m-173-52.6c-19.9 14-48.5-8-56-27.7-12-30.1 19-60 47-41"/><path class="st17" d="M844 410.8c-7-13-4-30 7-39"/><path class="st17" d="M868 375.5c-26 2-46-34-25-51.6 13-9 35-5 39 12"/><path class="st17" d="M889 352.4c-13-13-2-36 15-38.5 31.5-4 36 26.5 25 36m2-30c10.6-16 39.5-15.8 55-7m-859-23.8c7 12 22 19 35.5 16"/><path class="st17" d="M161 291.3c-4 29.6 32.5 54 53 28"/><path class="st17" d="M212 308c1 23 30 32 47 19.3 22.5-15 28-57-6-60m14-.2c27-28-19.6-58-40.9-29m-.6 12.7c-2-19-7-44-28-51M611 131.6c-21 5-23 33-13 48.8 17 27 60.1 11 57.5-20"/><path class="st17" d="M651 180.9c11 17 34 5 39-10.8 12-26-7.5-59-37-59"/><path class="st17" d="M621 141.6c-38-46.5 44-87 52-28"/></g><style>.st232{fill:#fff}.st237{fill:#4f4f4f}</style><g id="Layer_58"><path d="M532 209c-68 59.6-70.9 20-120.8 36.5-19.6 10.9-14 30-9.7 39.6 11 23-50.8 9-69 40.3-10 18 0 42-7.5 61.8-9 19.6-34 35-37 52-43 48-154 7-119 70.4 6 11 33-6 39 9.1 7 17.5-39 29-21 46.7 18 5 20.7 39.9 57 63 14 20 3 51 19 69.1 36 38 46-25 41-34.3 4-39 44-10.6 22 38.7-23 52 11 74 36.5 56.6 24-9 13 39 23 50.9 19.5 37 55 12 67 12 18 .7 28 22 29.8 40.3 6.5 63 54 46 59 8 15.5-34 45 49 47 59.9 11 73 69 42 70.8 17.9 3-54-3-60 2-68.3 18.5-31 71 13 90.8-15.5 14-19.7-31-63.5 8-55.4 94 19 19-100.7 14-120.4-9-35.5 14-106 47-121.7 18-9 17-35.5 7-52.8-9.5-17-25-30.6-31-48.9-13.5-54 22-102-36-133.3-5-3-7-9.5-4-14.4 17-26 1-66-32-71.4-22-3-44 9-66.5 6.3C615 247 578.5 178 532 209z" style="fill:#fc6603"/><path class="st232" d="M452 243.6 614 494l-43-15 54 112.5c-92-92-201-164.5-294-257.7 6-46 67-19.6 76-42.4-30-32.4 14-63.4 45-47.8z"/><path class="st237" d="M327 389.5c76 74 148 151 220.5 228.4 0 0-188-133-189-135.5 6-60.8-41-57-44-29.9-12 5-27-6-24-19.3 2.5-7.2 32-35.2 36.5-43.7z"/><path class="st232" d="M744 807.1c-89-73-178-147-273-210.1 32 42 65 84 99 124.6-13-3-25-7-38-10.9 53 51 78 125 126 182.8-.9-61 106 21 101-42.6-3-15.9-13-26.4-15-43.8z"/><path class="st237" d="M799.6 476 585 287.8l101 144.9-93-67c61 99 132 192 182 301.5-10.7-36 29.6-63 32-96.9 24 8 38-22.5 29-42.4-7-19.9-26-34.9-36.4-51.9z"/><path class="st232" d="m802 744-105-67c31 43 65 85 103.5 124.1 15-17.1 7.5-35.1 1.5-57.1zM232 471.3l267 290-106.5-54.8 6 28.1s-60.7-46-60-48.3c3-15-4.5-43-24-41-23 10.6 5 42-18 60.8-53 13.5-39-48-41-59.8-7-36-57-32-47.5-75.7-14 1-32-13-19.8-25.5 60.6-37-9-26.5-19-37-13-13-1-36 15-38.8 15.8-1.3 30.8.5 47.8 2z"/></g><style>.st40{fill:none;stroke:#000;stroke-width:10;stroke-linecap:round;stroke-linejoin:round;stroke-miterlimit:10}.st98{opacity:.6;enable-background:new}</style><g id="Outline"><path class="st98" d="M793 537c-1 .7-1 2-.5 3 5 10 11 35 25 30 8-2 21-13 18-22.4-.5-1-2-2-3-1.5-26 12-28-11-39-9.4v.3zm-34 274.5c6 5 26 8 25-3-6-7-20.6-12-21.5-26C750 772 744 803 759 811.5zm-219.3 52s1 .5 1 .8c9 13.5-3 36-18 40-34 6-9-6-6-44 .3-5.3 22.3 2.7 23 3.2zM342 731c5 7-4 22-4 33 8 13 29.6-5 33-14.9 2-12-17-21-28-20.2-1 .1-1 1.1-1 2.1zm31-120.2c2 23-8 47-26 61.9-13 10.9-17.5-30.6-8-27.9 6 4.2 28-18.8 34-34zm-157-59.9c-8 6-17 3-25 1-11 5 4 20 13.5 16 5-4 12-9 12-15.7-.5-.2-1.5-.2-.5-1.3zM337 473c-6-10-3-23 0-34 0-1 0-2-.6-2-9-9-23 11-19.8 20.7C318 463 338 475 337 472.8v.2z"/><path class="st98" d="M326 392c-2 29 24 45 7 44-7 2-14 1-15 11-1 11-24 0-24.5-1.3C285 433 317 404.5 326 392zm103-118c-9.9-4-16-16-18-25-4-6-9.9 1-11 6-7 54 29.5 28 29 19zm293 9c16 21 29.5 12 40 20.7 3 4 1 9.6-1 14-3 9-13 9-20 4.1-14.5-5.8-22-22.2-19-38.8z"/><path class="st40" d="M347 729c53.5 5 15 86 59 102 25 9 37-19.8 55-11.9 23 10.1 19.6 40 24 60.7 9.6 46 63 29.6 58-12.8"/><path class="st40" d="M519 861c89-9 47.5 119 114.5 115 39-6 35-47 25-76.5-3-9 0-18.5 7-24.5 24.5-21 59 15.5 84-2.5 15-11 8-33-2-45-12-15 0-32 10-43"/><path class="st40" d="M790 539c53 69.8-64 71 8 194.5 6 14 11 32 11 48.5 0 32-49 47.5-61 16"/><path class="st40" d="M721 287c2 51 64 31 74 88 6 34-11.5 71 7 103 10 18 27 31.5 34 51 8 19-4 47-27 42"/><path class="st40" d="M407 290.6c-16-8-12-29.9-2-41 17-15 40.5-10 61-6 29.8 1 49-29 75-38 50-17 81 55 133 44 23-5 48-11 69 1 25 14 33 55 10 75"/><path class="st40" d="M428 278c-16 26.5-51 17.5-76 28.5-20 10.5-28 33-23 55 10 47-43 51-39 88m25 4.5c1.5-23 35-26 41-5 7 25-13 47 16 72"/><path class="st40" d="M334 476c-20-34-61-31.5-89-9.6-20 8-43-3-64 4-22 7-28 37-5 43.5 6.5 2 23-2 26-1 15 4 11 25-5 30-21 6-10 29 6 29"/><path class="st40" d="M216 554.5c-15 15-14 41 2 55 37 22 41 31 36 69.7-2 31 46 41 53.5 10 2-10.8-4-22 0-33 13-32 44 20 62-44.5"/><path class="st40" d="M327 647.9c25 29.7-.5 47-7 75-10 32.5 34 65 53 25"/><path d="M729 262.5c9 4 16 13 18 22.5m-193-68c12.5 2 24.5 8 34 16m9 9 3 3m-163 10c-5.5-.9-12 .6-15.5 4M362 319.6c-9 2-14 10.7-16 19M339 449c4 1 6 6 6 9.8M308.5 470c-12-6-16-5-22-4M175 492c1-4 5-7 9-7.5m38 89.5c-4 8 0 16 4 19.9m44 78.6c-1 6 1 15 9 18m76-77.5c-3 14-13 14.5-16 16m4.5 119.5c-5-3-9-9-8-15M397 782c-1 14.5 7 28 14 30m90 53.9c-3 12 2 27 14.5 25M636 957c14-3 17-28 11-38m96-60.1c1-7 0-14-4-19m46-49.1c8-6.5 9-25 3-39M786 582c5-8 3-19-3-26m37-12c2-8.5-.6-18-7-24m-56-169c18 6 22 30 21 35" style="opacity:.7882;fill:none;stroke:#fff;stroke-width:10;stroke-linecap:round;stroke-linejoin:round;stroke-miterlimit:10;enable-background:new"/></g><defs><linearGradient id="zad" x1="599.92" y1="836.25" x2="638.8" y2="836.25" gradientUnits="userSpaceOnUse"><stop offset="0" stop-color="#0800ff"/><stop offset="1" stop-color="#ff00f7"/></linearGradient><linearGradient id="zad-2" x1="667.03" y1="869.12" x2="684.63" y2="925" gradientTransform="rotate(16.9 677.175 899.736)" gradientUnits="userSpaceOnUse"><stop offset="0" stop-color="#0dff31"/><stop offset=".36" stop-color="#faee0c"/><stop offset=".36" stop-color="#fae60c"/><stop offset=".41" stop-color="#f8a40c"/><stop offset=".44" stop-color="#f7700c"/><stop offset=".48" stop-color="#f64a0c"/><stop offset=".5" stop-color="#f5330c"/><stop offset=".52" stop-color="#f52b0c"/><stop offset=".68" stop-color="#f50ca0"/><stop offset="1" stop-color="#0defff"/></linearGradient><style>.zad-2{fill:#660024}.zad-4{fill:none;stroke:#000;stroke-linecap:round;stroke-linejoin:round;stroke-width:10px}</style></defs><path d="M675.8 797c46.2-21.9 84.1-91.5 12.4-105.5-33-6.4-63.7 18.4-96.5 17.6-34.7-.9-66.6-24.3-102.8-12.6-33.6 10.9-38.2 48.9-15.1 72.3 15.2 15.3 50.7 31.5 62.2 32.6 26.6.8 139.8-4.4 139.8-4.4Z"/><path d="M720.4 878.8c12.9-9.9 6.4-31.5-5.6-39.7-16.6-11.4-26.1-2.8-40.4-39.7-12-31-46.5-40.3-74.1-21.9-28.2-10.1-65.9-11.9-86.1 14 9.4 9.9 24.5 10.1 37.1 13 44.5 10.1 20.1 112.8 61.5 77.5 15.1 23.2 24.3 56.1 56.1 59.4 32.1 5.8 79.2-30.4 51.5-62.6Z" style="fill:#ff0059"/><path class="zad-2" d="M624.6 800.1c-29.3-16.2-66.3-25-95.3-4.2-2.6.6-15.9-1.2-12.9-5.1 30.9-25.3 83.3-26.6 108.2 9.3Z"/><path class="zad-2" d="M637.5 809.4c-8.8-9.8-5.9-28.3 3.5-36.8-11.7-3.3-25.9-3.1-35.2 5.7 11.3 8.2 21.1 18.5 31.7 31.1Z"/><path d="M461.8 725.3c22.8 37.4 66.4 14.2 67.9-28.3-5.1 47.8 55.7 68.8 62.2 14 6.4 55.9 67.8 39.1 59-12.9 5 40 56.8 52.7 65.6 7.8-31.5-31.8-76.5-3.7-112.8 1.8-47.6 7.2-111.9-49.1-141.9 17.6Z" style="fill:#fff"/><path class="zad-4" d="M604.9 870.9c27.4 25.1 17.7 66.9 68.9 70.7 24.9 1.9 58.9-18.3 54.8-46.2-2.6-17.8-24.8-20.3-30.7-34.5M602 777.3c25.9-18.2 60.4-8.9 72.4 22.1 14.3 36.9 23.8 28.3 40.4 39.7 12 8.2 18.5 29.8 5.6 39.7"/><path class="zad-4" d="M633.1 809.3c-23.2-42.2-84.9-52.2-120.2-19.4"/><path class="zad-4" d="M675.8 797c46.2-21.9 84.1-91.5 12.4-105.5-33-6.4-63.7 18.4-96.5 17.6-34.7-.9-66.6-24.3-102.8-12.6-33.6 10.9-38.2 48.9-15.1 72.3 15.2 15.3 50.7 31.5 62.2 32.6 26.6.8 47.7 24.1 46.6 50.7-1.9 47.2 24.5 44.4 30.4 28.3"/><path class="zad-4" d="M461.8 725.3c22.8 37.4 66.4 14.2 67.9-28.3-5.1 47.8 55.7 68.8 62.2 14 6.4 55.9 67.8 39.1 59-12.9 5 40 56.8 52.7 67.4 8.8"/><path d="M470.9 707.2c-40.1 34.2-5.3 71.3 31.1 90 23.5 12 57.6 6 70.7 34.3 8.7 18.7-3.9 49.1 19.8 57.1m18.5-1.1c13.1 21.4 18.9 51.1 47.6 56.8m-54.2-73.2a32.8 32.8 0 0 1 1.7 16.7m92.4-27.4a33 33 0 0 0 24.7 11.6" style="opacity:.6;stroke-width:10px;stroke-linecap:round;stroke-linejoin:round;stroke:#000;fill:none"/><path d="M645.6 785.1a29.9 29.9 0 0 1 11.3 12.1m-61.5-6.6a44.4 44.4 0 0 1 18 14.4m91.2 42.7a20.6 20.6 0 0 1 8 8.8m-3.7 32.4a17.1 17.1 0 0 1 4.1 18.4" style="stroke:#fff;stroke-width:10px;stroke-linecap:round;stroke-linejoin:round;fill:none"/><path d="M597.6 878.3c-1.9-3.4-3.6-7.1-3.2-11" style="stroke-width:7px;stroke:#fff;stroke-linecap:round;stroke-linejoin:round;fill:none"/><path d="M659.3 822.1c-18.6 4.8-5.6 38 6.8 26.3m-47.4-34.7c-2.3 5.3-4.6 10.6-6.8 15.9m-13.1 1.9 9.9 11.1-2.7 16.2m13-9a116 116 0 0 0 11.5 9.5m23.9 23.7c4.8 13.3 8.3 27 13.1 40.3l26.9-7.8" style="opacity:.6;stroke-width:5px;fill:none;stroke:#000;stroke-linecap:round;stroke-linejoin:round"/><ellipse cx="662.7" cy="835.3" rx="10.2" ry="13.9" style="stroke-width:5px;stroke-linecap:round;stroke-linejoin:round;stroke:#000;fill:#fff"/><path style="fill:url(#zad);stroke-width:5px;stroke-linecap:round;stroke-linejoin:round;stroke:#000" d="m619.4 813.6 4.5 17.3h14.9l-12 10.7 4.6 17.3-12-10.7-12.1 10.7 4.6-17.3-12-10.7h14.9l4.6-17.3z"/><path transform="rotate(-16.9 677.91 899.121)" style="fill:url(#zad-2);stroke-width:5px;stroke-linecap:round;stroke-linejoin:round;stroke:#000" d="M662.7 876h26.5v42.66h-26.5z"/><defs><linearGradient id="zf" x1="420.51" y1="545.37" x2="607.38" y2="545.37" gradientUnits="userSpaceOnUse"><stop offset="0" stop-color="#00d4ff"/><stop offset="1" stop-color="#2a00ff"/></linearGradient><linearGradient id="zf-2" x1="606.81" y1="515.34" x2="752.7" y2="515.34" xlink:href="#zf"/><style>.zf-2,.zf-5{stroke:#000}.zf-2,.zf-5,.zf-6,.zf-7{stroke-linecap:round;stroke-linejoin:round}.zf-2,.zf-5,.zf-6{stroke-width:10px}.zf-2,.zf-5,.zf-6,.zf-7{fill:none}.zf-2{opacity:.6}.zf-6,.zf-7{stroke:#fff}.zf-7{stroke-width:8px}</style></defs><path d="M488.4 466.9c-32.4 16.3-2.2 43.7-2.5 67.8-.2 15.5-5.3 32.3 3.5 46.2 24.7 38.8 74.6-.8 48.1-34.8-12-15.5-20.5-23.5-15.7-44.1s-12.4-45.7-33.4-35.1Zm157.5 7.3c7.9 26.5 21.5 11.9 13.8 58-7.3 43.6 58.7 29.1 38-5.9-26.3-44.6 13.4-53-15.4-79.6-20.3-18.9-41.9 9-36.4 27.5Z" style="stroke-width:10px;stroke-linecap:round;stroke-linejoin:round;stroke:#000;fill:#fff"/><path class="zf-2" d="M439.3 457.5c-29.7 23.6-2.9 58.7-9.5 84.3-5.8 22.7-29.4 47.7 2 57.7m20.2.8c3 11.9 15.1 17.2 25.6 21.8s13.6 14.2 18.9 22.5c13.3 20.5 48 25.8 63.6 4.3M615.6 431c-34.9 41.4 16.7 86.3 4.3 131.1-2.9 10.6-8.6 27.8 4.9 32.8m26.3-.8c9.4 15.1 23.9 40.6 48.4 31.2m26.2-51.4c6.2 2.5 14.8-.3 19.3-5.3m-269.3-97.3c-14.4 19.2 2.4 40.2 4.4 60.3 1.3 14.1-1.7 28.6 2.1 42.6 5.2 19.2 29 35.2 45.5 19.8M650 444c-20.3 25-4 35 4.7 58.5 5.3 14.4-2.9 30.8 1.7 45.2s22.2 19.7 33.1 9.5"/><path d="M484.2 473.3c-18.7 19.5 20.1 57.9 33.7 28.5-1.7 28.3 17.1 39.2 13.1 41.5-25.4 14.5-56.6 16.7-44.9-10.9-2.9-20-24.5-42.8-1.9-59.1ZM653 455.1c-11.2 24.3 27.5 38.1 36.2 14-2.3 11-3.2 23.2-1.7 34.3 3.5 13.5-14.9 11.9-23.2 10.3-.8-20.7-29.1-37.9-11.3-58.6Z"/><path d="M587.1 515.8c32.4-20.1-20.4-36.3-28.1-50.3-10.2-18.7-26.4-31.5-43-33.2-42.2-4.2-93.3 23.3-85.5 68.1 10.7 61.2-5.5 49.5-9.7 74.9-3.2 19.5 18.8 36.7 34.3 20.7 1.1 13.1 34.9 22.4 52.8 54.5 16.9 14.7 43.6 8.6 57-8.2 15.5-19.5-4.4-33 17.8-74.2 51.7 0 6.4-38.9 4.4-52.3Z" style="fill:url(#zf);opacity:.64"/><path d="M724 565.8c56 15.1 14.3-41.8 5.7-60.3-15-32.3 5.3-74-34.3-93.3-41.2-20.1-102.9 21.3-85.6 68.4 28.3 76.9 12.8 81.5 10.3 98.2-3 19.6 20.3 28.7 31.6 11.5 45.9 63.5 78.8 25.6 72.3-24.5Z" style="fill:url(#zf-2);opacity:.64"/><path class="zf-5" d="M453.9 595.7c-14.3 16.3-36.3-.9-33.1-20.4 4.2-25.4 20.4-13.7 9.7-74.9-7.8-44.8 43.3-72.3 85.5-68.1 16.6 1.7 32.8 14.5 43 33.2 7.7 14 22.5 13.6 31.6 22.7s5.8 21.8-3.5 27.6m57.7 65.9c17.8 11.1 19.5 33 37.2 40.2s38.4 2.3 41.1-24c1.7-16.6-4.6-36.3 7.6-50.2"/><path class="zf-5" d="M724 565.8c13.1 13.8 31.5 0 28.6-16.6s-17.9-28-22.9-43.7c-10.7-34 5.3-74-34.3-93.3-41.2-20.1-102.9 21.3-85.6 68.4 28.3 76.9 12.8 81.5 10.3 98.2-3 19.6 20.3 28.7 31.1 11.7m-201.3-13.6c9.9 18.5-.2 31 26.9 39.8 22 7.2 16.7 35 47.4 41.8 23.9 5.2 52.4-14.7 47.3-39.2-6.3-29.6 22.8-53.3 4.3-74.2"/><path class="zf-5" d="M582.7 566.7c10.8 4.1 23.2 0 23.2-16.7 0-21.4-24.8-26.2-30.1-46"/><path class="zf-6" d="M510.5 446.1a21.6 21.6 0 0 1 12 3.8 53.4 53.4 0 0 1 9.4 8.4m9.2 11 2.1 2.7"/><path class="zf-2" d="M576.8 503.7a14.6 14.6 0 0 0 10.2 7M575.4 544c9.7 4.2 8.7 17.6 17.3 22.7m-144 10c.2 8.2-.2 17.2-5.6 23.8m201.1-18.4c-1.4 5.6-3.2 11.9-8.2 15.3m95-49a25.7 25.7 0 0 0 .3 20.7"/><path class="zf-6" d="M681.7 423.8c14.2 1.8 23.6 15.2 25.7 28.6m2.2 14.1-.1 3.6"/><path class="zf-7" d="M739.5 557.6a12.1 12.1 0 0 0 1.9-7.9"/><path class="zf-6" d="M711.1 591.4a22 22 0 0 1-9.2 18.4m8.7-29.3-.4-2.5"/><path class="zf-7" d="M632.1 582.7a17.1 17.1 0 0 1 2.1-10.6m-57.4-80.6a16.7 16.7 0 0 1 6.5 5m3.2 40.3a23.4 23.4 0 0 1 6.2 10.9"/><path class="zf-6" d="M567.7 554.8c2.8 6.1 1.1 13.1-1.7 18.9m-4.9 11.7-.6 2.4m-2.2 35.9c0 8.7-7.6 15-15.2 17.9m-107.5-57.2a14.9 14.9 0 0 1 1.7-14.4"/><defs><linearGradient id="zba" x1="236.25" y1="315.23" x2="831.1" y2="276.55" gradientUnits="userSpaceOnUse"><stop offset="0" stop-color="#ffe600"/><stop offset=".1" stop-color="#ffd80d"/><stop offset=".29" stop-color="#ffb430"/><stop offset=".54" stop-color="#ff7a68"/><stop offset=".85" stop-color="#ff2bb4"/><stop offset="1" stop-color="#f0d"/></linearGradient><linearGradient id="zba-2" x1="170.69" y1="396.71" x2="297.01" y2="391.81" gradientUnits="userSpaceOnUse"><stop offset="0" stop-color="#ffe600"/><stop offset="1" stop-color="#fb00ff"/></linearGradient><style>.zba-3{fill:none;stroke-linecap:round;stroke-linejoin:round;stroke-width:10px;stroke:#000}</style></defs><path d="M302.4 418.1c-6.2 7-11.2 12.6-13.1 22.1-29.2-1-28-19.1-16.1-37.7 13.9-21.6 21.4-46.8 26-72.1 35.7-199.2 379.2-210.4 492.2-64.9 26.5 34.1 75.6 111.2 5.1 124.4-.2-10.9-.8-22.7-9.9-32.9-168.1-31.3-344.7 5.4-503.5 66.2 0 0 239.5-107.6 239.5-107.9 29.4 8.3 87.5 14 109.8-10.4 8-20.2-164.4-16.8-104.8 13.1Z" style="fill:url(#zba)"/><path d="M296.9 338.5c-48.3 49.4-111.6 56.7-124.8 82.1s53.4 39.7 98.4 14.9c-15.4-24.6 26.7-60.7 26.4-97Z" style="fill:url(#zba-2)"/><path class="zba-3" d="M809.2 361.3c-177.3-36.6-357.6-4.4-523.7 62.7"/><path class="zba-3" d="M302.4 418.1c-6.2 7-11.2 12.6-13.1 22.1-29.2-1-28-19.1-16.1-37.7 13.9-21.6 21.4-46.8 26-72.1 35.7-199.2 379.2-210.4 492.2-64.9 26.5 34.1 75.6 111.2 5.1 124.4-.2-10.9-.8-22.7-7.2-31.9"/><ellipse class="zba-3" cx="574.7" cy="306.2" rx="60.3" ry="15.5" transform="rotate(-2.5 584.699 310.79)"/><path class="zba-3" d="M295.3 339.7c-21.3 18.9-45.4 34.5-71 47.2-18.9 9.4-47 14.7-53 36-9.8 34.9 89.4 22.7 103.1 14.3"/><path d="M791.2 365.2c-164.8-31-336.1 1.8-493 60.8m332.7-121.7a180.2 180.2 0 0 0-112 3.5m291 54.9a39.2 39.2 0 0 0-12 4.3m-513.3 57.5a19.3 19.3 0 0 0 7 4.2m-3.2-79.8c-4.3 17.8-10.9 35.4-21 50.6-7.1 10.6-11.8 23.8-6.3 36" style="opacity:.6;stroke:#000;fill:none;stroke-linecap:round;stroke-linejoin:round;stroke-width:10px"/><path d="M701.6 218.9a130.2 130.2 0 0 1 51 36.9m12.4 15 3.4 4.4m-539.3 123L201 410.9m-10.2 6.5a7.5 7.5 0 0 0-3.5 3.1m154-150.5a141.8 141.8 0 0 1 46.7-43.8" style="stroke:#fff;fill:none;stroke-linecap:round;stroke-linejoin:round;stroke-width:10px"/><circle cx="550" cy="550" r="500" style="fill:none;stroke:#000;stroke-width:10;stroke-linecap:round;stroke-linejoin:round;stroke-miterlimit:10"/></svg>