<svg version="1.1" id="Layer_1" xmlns="http://www.w3.org/2000/svg" x="0" y="0" viewBox="0 0 1100 1100" style="enable-background:new 0 0 1100 1100" xml:space="preserve" xmlns:xlink="http://www.w3.org/1999/xlink"><style type="text/css">.st304{fill:#FF0A68;stroke:#000000;stroke-width:10;stroke-linecap:round;stroke-linejoin:round;stroke-miterlimit:10;}</style><circle class="st304" cx="550" cy="553.7" r="500"/><path d="M327 702.4c-23 52 11 74 36.5 56.6 38.5-10-14 99.9 89.9 62.9 18 1 28 22 29.8 40.3 6.5 63 54 46 59 8 15.5-34 45 49 47 59.9 11 73 69 42 71 17.9 3-54-3-60.1 2-68.3 18.5-31 71 13 90.8-15.5 14-19.7-31-63.5 8-55.4 94 19 19-101 14-120.4l-448 14z" style="fill:#20f"/><path d="M779 692.9c-15-51 21-118 41.5-126.2 18.5-8 17-33 7-50.2h-620c7 18-39 32-21 49.2 18 5 21 39.9 57 63.2 14 20 3 51 19 69.1 35.8 38 46-25 41-34.3 4-39 44-11 23 38.7-23 53 14 74 32.5 61.5 16-11 25-65 63 3.8 11 21 47 11 39-13.5-18.5-58 50.7-32 59-10 5 12.5-8 31 8 37.1 35 13 37-31 29.9-42.8-17-28 17-34 27.5-21.8 11 12-18 33 11 43.2 14 5 34-4 32-21.1-1-8-29-43 22-38 39 4 71 91 97 20.6C752 709 762 688 779 692.9z" style="fill:#04f"/><path d="M828 516.5c-76-76 7-145.5-67-184.7l-436 55.5c-9 19.6-34 35-37 52.2-43 48-155 7-119 70.4 48-3 52 29 58 37.6 23 33 72-41 88.5 20.7 12 43 39.7 26 39 9.3-2-37.5 45-31 59.6-9.7 75 110 112 49 105 20.2-9-39.9 23.5-39 29-29.8 6 9.6-7 22-3 32.5 9 25 53.5 18 35.5-25.4-11-27 39-10.1 53 .5 45.5 35 86 35 120-14.2 25-37 47-22 61.5-22.1 6.9.1 21.9-3.5 12.9-13z" style="fill:#00b2ff"/><path d="M761 331.7c-16-9 41-64-36-85.8-22-4-44 9-66.5 6.3-44-5-80-74-127-43.1-68 59.6-71 20-121 36.5-19.6 10.9-9 38-5 47.6 12 24-91-35-78 91.2-1 11 12.5 24 21 16.6 26-23 41-7 52 17.3 15 34 48.5 23 47-14.9-1-42 80.7-51 88 55.6 1.5 22 37 31 53 13.8 34-39-17-59.7-2-87.9 4-7 18-7 19.6 1.3 1 6-4 12-3 17.7 5 26.5 43.5 3 33-18.9-25-49.9 50-19.8 73-17.2C734.5 370 743 348 761 331.7z" style="fill:#00e1ff"/><style>.st40{fill:none;stroke:#000;stroke-width:10;stroke-linecap:round;stroke-linejoin:round;stroke-miterlimit:10}.st98{opacity:.6;enable-background:new}</style><g id="Outline"><path class="st98" d="M793 537c-1 .7-1 2-.5 3 5 10 11 35 25 30 8-2 21-13 18-22.4-.5-1-2-2-3-1.5-26 12-28-11-39-9.4v.3zm-34 274.5c6 5 26 8 25-3-6-7-20.6-12-21.5-26C750 772 744 803 759 811.5zm-219.3 52s1 .5 1 .8c9 13.5-3 36-18 40-34 6-9-6-6-44 .3-5.3 22.3 2.7 23 3.2zM342 731c5 7-4 22-4 33 8 13 29.6-5 33-14.9 2-12-17-21-28-20.2-1 .1-1 1.1-1 2.1zm31-120.2c2 23-8 47-26 61.9-13 10.9-17.5-30.6-8-27.9 6 4.2 28-18.8 34-34zm-157-59.9c-8 6-17 3-25 1-11 5 4 20 13.5 16 5-4 12-9 12-15.7-.5-.2-1.5-.2-.5-1.3zM337 473c-6-10-3-23 0-34 0-1 0-2-.6-2-9-9-23 11-19.8 20.7C318 463 338 475 337 472.8v.2z"/><path class="st98" d="M326 392c-2 29 24 45 7 44-7 2-14 1-15 11-1 11-24 0-24.5-1.3C285 433 317 404.5 326 392zm103-118c-9.9-4-16-16-18-25-4-6-9.9 1-11 6-7 54 29.5 28 29 19zm293 9c16 21 29.5 12 40 20.7 3 4 1 9.6-1 14-3 9-13 9-20 4.1-14.5-5.8-22-22.2-19-38.8z"/><path class="st40" d="M347 729c53.5 5 15 86 59 102 25 9 37-19.8 55-11.9 23 10.1 19.6 40 24 60.7 9.6 46 63 29.6 58-12.8"/><path class="st40" d="M519 861c89-9 47.5 119 114.5 115 39-6 35-47 25-76.5-3-9 0-18.5 7-24.5 24.5-21 59 15.5 84-2.5 15-11 8-33-2-45-12-15 0-32 10-43"/><path class="st40" d="M790 539c53 69.8-64 71 8 194.5 6 14 11 32 11 48.5 0 32-49 47.5-61 16"/><path class="st40" d="M721 287c2 51 64 31 74 88 6 34-11.5 71 7 103 10 18 27 31.5 34 51 8 19-4 47-27 42"/><path class="st40" d="M407 290.6c-16-8-12-29.9-2-41 17-15 40.5-10 61-6 29.8 1 49-29 75-38 50-17 81 55 133 44 23-5 48-11 69 1 25 14 33 55 10 75"/><path class="st40" d="M428 278c-16 26.5-51 17.5-76 28.5-20 10.5-28 33-23 55 10 47-43 51-39 88m25 4.5c1.5-23 35-26 41-5 7 25-13 47 16 72"/><path class="st40" d="M334 476c-20-34-61-31.5-89-9.6-20 8-43-3-64 4-22 7-28 37-5 43.5 6.5 2 23-2 26-1 15 4 11 25-5 30-21 6-10 29 6 29"/><path class="st40" d="M216 554.5c-15 15-14 41 2 55 37 22 41 31 36 69.7-2 31 46 41 53.5 10 2-10.8-4-22 0-33 13-32 44 20 62-44.5"/><path class="st40" d="M327 647.9c25 29.7-.5 47-7 75-10 32.5 34 65 53 25"/><path d="M729 262.5c9 4 16 13 18 22.5m-193-68c12.5 2 24.5 8 34 16m9 9 3 3m-163 10c-5.5-.9-12 .6-15.5 4M362 319.6c-9 2-14 10.7-16 19M339 449c4 1 6 6 6 9.8M308.5 470c-12-6-16-5-22-4M175 492c1-4 5-7 9-7.5m38 89.5c-4 8 0 16 4 19.9m44 78.6c-1 6 1 15 9 18m76-77.5c-3 14-13 14.5-16 16m4.5 119.5c-5-3-9-9-8-15M397 782c-1 14.5 7 28 14 30m90 53.9c-3 12 2 27 14.5 25M636 957c14-3 17-28 11-38m96-60.1c1-7 0-14-4-19m46-49.1c8-6.5 9-25 3-39M786 582c5-8 3-19-3-26m37-12c2-8.5-.6-18-7-24m-56-169c18 6 22 30 21 35" style="opacity:.7882;fill:none;stroke:#fff;stroke-width:10;stroke-linecap:round;stroke-linejoin:round;stroke-miterlimit:10;enable-background:new"/></g><path d="M258 512.9c21 24 41 50 59 77m6-75.4-62 77" style="fill:none;stroke:#000;stroke-width:10;stroke-linecap:round;stroke-linejoin:round;stroke-miterlimit:10"/><path d="m254 516.1 62 77m12-76.1c-23 29-42.5 52-63.5 79" style="opacity:.6;enable-background:new;fill:none;stroke:#000;stroke-width:10;stroke-linecap:round;stroke-linejoin:round;stroke-miterlimit:10"/><style>.st114,.st40{fill:none;stroke:#000;stroke-width:10;stroke-linecap:round;stroke-linejoin:round;stroke-miterlimit:10}.st114{opacity:.6}</style><g id="Gold_Grin"><linearGradient id="SVGID_00000081606631022545257470000014627497906921380512_" gradientUnits="userSpaceOnUse" x1="585.954" y1="672.231" x2="590.726" y2="803.954" gradientTransform="matrix(.9983 .05903 -.05903 .9983 45.793 -31.52)"><stop offset="0" style="stop-color:#ff7300"/><stop offset="1" style="stop-color:#fff700"/></linearGradient><path style="fill:url(#SVGID_00000081606631022545257470000014627497906921380512_)" d="M445 721.7c74 72 209 68.5 294 17.6 11-22 14-48 10-71.6-93 58-225 64-318 1.4 4 16.9 0 38.9 14 52.6z"/><linearGradient id="SVGID_00000100364754194457657420000004888850632049891250_" gradientUnits="userSpaceOnUse" x1="593.726" y1="750.857" x2="598.675" y2="857.774" gradientTransform="matrix(.9983 .05903 -.05903 .9983 45.793 -31.52)"><stop offset="0" style="stop-color:#ff7300"/><stop offset="1" style="stop-color:#fff700"/></linearGradient><path style="fill:url(#SVGID_00000100364754194457657420000004888850632049891250_)" d="M449.8 731c48 130 244 141 289 12.4C642 785 543 789.8 449.8 731z"/><path class="st40" d="M751 664.8c-87 59.8-236 69.9-322-1.1 27 236.3 338 220.8 322 1.1z"/><path class="st40" d="M444 722c84 74 209.8 64.5 295 19"/><path class="st114" d="M424 664.3C421 793 594 909 705 797"/><path class="st114" d="M433 673.1c85 69 224 55 314 4m-294 58.5c75 63.5 197 55 282 15"/><path d="M736 694.4c-1 9-3 18-5.8 26m-23.2 55c-12 16-29 28-49 35m-10.5 3.9c-3 .6-5 1-8 2" style="opacity:.7804;stroke:#fff;fill:none;stroke-width:10;stroke-linecap:round;stroke-linejoin:round;stroke-miterlimit:10"/></g><style>.st68{stroke:#000;stroke-width:10;stroke-linecap:round;stroke-linejoin:round;stroke-miterlimit:10;opacity:.6;fill:none;enable-background:new}</style><g id="alien_00000145779733946831664370000009074345826783358107_"><linearGradient id="SVGID_00000134929046068304295460000003865380033506734480_" gradientUnits="userSpaceOnUse" x1="387.917" y1="548.513" x2="528.981" y2="548.513" gradientTransform="matrix(.9977 .06804 .06804 -.9977 -1.427 1023.765)"><stop offset="0" style="stop-color:#0f6"/><stop offset="1" style="stop-color:#09f"/></linearGradient><path style="fill:url(#SVGID_00000134929046068304295460000003865380033506734480_);stroke:#000;stroke-width:10;stroke-linecap:round;stroke-linejoin:round;stroke-miterlimit:10" d="M465 398c-61 37-45 158-3 205.5 49.6 48 94 18 99-50.8 4-54.2-22-199.7-96-154.7z"/><linearGradient id="SVGID_00000155142322038179041680000014658100529363488651_" gradientUnits="userSpaceOnUse" x1="592.641" y1="573.859" x2="716.733" y2="573.859" gradientTransform="matrix(.9977 .06804 .06804 -.9977 -1.427 1023.765)"><stop offset="0" style="stop-color:#0f6"/><stop offset="1" style="stop-color:#09f"/></linearGradient><path style="fill:url(#SVGID_00000155142322038179041680000014658100529363488651_);stroke:#000;stroke-width:10;stroke-linecap:round;stroke-linejoin:round;stroke-miterlimit:10" d="M648 437c-66 161 42 235 93 96 10-37 21-78 10-115-15-50-78-41-103 19z"/><path d="M484 434c8 36 15.5 72 22 108m209-121.1c-9 35-19 69-29.7 104" style="stroke:#000;stroke-width:10;stroke-linecap:round;stroke-linejoin:round;stroke-miterlimit:10;fill:none"/><path d="M677 547c-9.6-1-14 15-7 20 14 13 24-18 7-20zm-169 14.9c-15 2-12 28 3.5 23 13.5-3.4 11.5-25.1-3.5-23z" style="fill:#fff;stroke:#000;stroke-width:10;stroke-linecap:round;stroke-linejoin:round;stroke-miterlimit:10"/><path class="st68" d="M453.5 399c-81 54-6 303 87 216M693 384c-77 2.5-105 255-8 222.5"/><path class="st68" d="M478 433c8 36.5 16 73 22 110m-4 21c-9 12 5 34 18 25m196-171c-11.5 35-21.5 70-30 106m-13 21c-15 10-5 39.6 14 29.5"/><path d="M494 408c17 8 27 26 32 44m6 20 1 7m197-69.5c9 14 11 33 9.5 49M735 478c0 3-1 5.5-1 8" style="fill:none;stroke:#fff;stroke-width:10;stroke-linecap:round;stroke-linejoin:round;stroke-miterlimit:10"/></g><path d="M358 439.8c-17.5-12-38-5-39 13.3-21-8-46-5-65 7.1-10-26 15.6-32 14-53.9-1.4-19.8-5-43 12-56.4 0 12 11 26 23 20.3 16-9.6-1-35 9.5-46.6s15.2-20.2 6-32.9-28.5-29-15-44.6c37.5 37 62.9-35.5 97-40.4 23-3.3 48 17.5 69 5.7-7.5-3-12-12-10-19.4 10 23 38.5-7 46-12.5 33-27 77 27 86-7.8 6-23-37-25-25-58 21 40.5 80.9-9 119.6 40.4 52.1 66.4 55 18.5 47 4.1 79 24 53.1 116.3 83.5 109 12-2.9 14-19.9 31-14-35 37 51 90.9-47 152 2-16 1-29-4-43.8l15 15.4c-26-39.6-65.7-22.8-75-9.3-6.8 9.9-11 23-23 27.5 7-15-11.5-35-26-23.6-4.5 4-4 13.5 2 15.8-26 5-43.1-22.5-67-26-12-1.8-24 12-15 21.8-8-2-13.9-10.1-20-15.6-26.5-23.6-50.5 17-19.5 24.9-23 17.5-48.9-8.3-71-15.1-26.9-8.3-56 1-39.5 33.9-12.5-14-38-39-55-19.3-7 11 2 26-1.5 38-10-18-40-12.5-39 9.6" style="stroke-linecap:round;stroke-linejoin:round;stroke-width:10px;stroke:#000;fill:#710cc7"/><path d="M362 443.9c4-22 25-18 39-5.7 5.5-17-2.8-28.9 3-39 13.5-23.7 39.8 15 57 20.8-21-42 15.4-45.8 45-29.1 19.7 11.1 51.5 25 67 1.5-10.9-4-22-21.1-2-23.2 15-1.6 27 27 43 17.5-10-11-4.8-30.3 24-10.4 12.1 8.4 27 14 42 17 10 2 18-2 9-10-4-8 18-22 17.5 20.6 36-15 34-61 88-37M306 252.4c0 19 19.3 29.7 24 46.6 6.1 21.9-21 22-19 58m-37 2.9c3 7 18 21 25 12m166.5-166.5c16.5 7 24-12 34-21m83-.8c9-3 15.9-12 14-21.3-3.1-15-23-22-27-37M741 164.6c2 9-1 25-13 24m111.8 68.8c-7 2-11 9.9-17 13.4s-15 2-17-5m-.8 110.5c3 6 2.5 12 2 19" style="opacity:.6;fill:none;isolation:isolate;stroke-linecap:round;stroke-linejoin:round;stroke-width:10px;stroke:#000"/><path d="M834 325.7a60.7 60.7 0 0 1-2 25m-6 11.3-2 4m-65-175.1c7 7 11 16 15 25m3.5 14 1 3.1M632 145.2c10-3 21 1 29 7m10 8.8 3 4m-155 22.9c6-1 11 0 16.5 2m-155.7 46.5a38.8 38.8 0 0 1 16.5-14m15.2-1.4 4.5 1M279 380.2a75.7 75.7 0 0 0-1 15m1 13.8v4m240-39.3c5 4 11 7 17 9.8M508 367l-3-1.5m144.5-8.3c5 4 9.6 8 15 12" style="stroke:#fff;opacity:.83;fill:none;isolation:isolate;stroke-linecap:round;stroke-linejoin:round;stroke-width:10px"/><circle cx="550" cy="550" r="500" style="fill:none;stroke:#000;stroke-width:10;stroke-linecap:round;stroke-linejoin:round;stroke-miterlimit:10"/></svg>