<svg version="1.1" id="Layer_1" xmlns="http://www.w3.org/2000/svg" x="0" y="0" viewBox="0 0 1100 1100" style="enable-background:new 0 0 1100 1100" xml:space="preserve" xmlns:xlink="http://www.w3.org/1999/xlink"><style type="text/css">.st301{fill:#005BEF;stroke:#000000;stroke-width:10;stroke-linecap:round;stroke-linejoin:round;stroke-miterlimit:10;}</style><circle class="st301" cx="550" cy="553.7" r="500"/><path d="M533 209.1c-68 59.6-71 20-121 36.5-19.6 10.9-14 30-9.7 39.6 11 23-51 9-69 40.3-10 18 .1 42-7.5 61.8-9 19.6-34 35-37 52.2-43 48-154 7-119 70.4 6 11 33-6 39 9.1 7 17.5-39 29-21 46.7 18 5 21 39.9 57 63.2 14 20 3 51 19 69.1 35.8 38 46-25 41-34.3 4-39 44-11 22 38.7-23 52 11 74 36.5 56.6 24-9 13 39 23 50.9 19.5 37 55 12 67 12 18 1 28 22 29.8 40.3 6.5 63 54 46 59 8 15.5-34 45 49 47 59.9 11 73 69 42 71 17.9 3-54-3-60.1 2-68.3 18.5-31 71 13 90.8-15.5 14-19.7-31-63.5 8-55.4 94 19 19-101 14-120.4-9-35.5 14-106 47-121.7 18-9 17-35.5 7-52.8-9.5-17-25-30.6-31-48.9-13.5-54 22-102-36-133.3-5-3-7-9.5-4-14.4 17-26 1-66-32-71.4-22-3-44 9-66.5 6.3C616 247 579.9 178 533 209.1z" style="fill:#2fedc1"/><path d="M335 383c30 83 32 5 73 37.1 15 15.5 23 42 16 61.4-42 113 99.7 118 61 54.2-7-10.9-7.5-29 9-23.3 9.8 3.5 1 18 5 23 9 10 22-5 19-16.2-4-16.5-16-36 10.8-37.3 92-5.5 37 129.5 32 168.5-8.5 59.8 66 95 81 28.5 4-13-5-44 8-50.3 38-5.8 29 79 57 53.4 12-11 29.6-33 39-6.7 6.5 15 17 50.1 38.5 34" style="opacity:.6;fill:none;stroke:#000;stroke-width:10;stroke-linecap:round;stroke-linejoin:round;stroke-miterlimit:10;enable-background:new"/><path d="M782 697.2c-28-63 23-79 24-126.3 78-11 .7-76-6.5-96.5-17-50 24-120-45-146.2 28-27 9-81.5-29.9-83.8-111 20-69.5-13-164-40.6-39.9 5-47 46-138 37.8-24 5-36 40-9 49.7-19 18-55-3-76 29.9-17 26-9 52 7.5 84.6 18 36 27 9 35 5.9 37-13.5 50.5 48 42 78.1-25 91 73 116 67 59.3-1-11-14-22-9-33.3 3-5 11-7.5 15-2.6 4 5-2 13 1 19 8 15 30-2 17-21-29-42 71-54 72 29.9 0 37-19 70-23 106.3-8 75 86 103 78-3.8-2-23.5 15-23 28-10.8 19.6 19.6 9 43 24 51.3 17 9.9 43-67 62 10.2 5.8 25.3 35.5 23.7 27.9 2.9z" style="fill:#ed2fd4"/><style>.st40{fill:none;stroke:#000;stroke-width:10;stroke-linecap:round;stroke-linejoin:round;stroke-miterlimit:10}.st98{opacity:.6;enable-background:new}</style><g id="Outline"><path class="st98" d="M793 537c-1 .7-1 2-.5 3 5 10 11 35 25 30 8-2 21-13 18-22.4-.5-1-2-2-3-1.5-26 12-28-11-39-9.4v.3zm-34 274.5c6 5 26 8 25-3-6-7-20.6-12-21.5-26C750 772 744 803 759 811.5zm-219.3 52s1 .5 1 .8c9 13.5-3 36-18 40-34 6-9-6-6-44 .3-5.3 22.3 2.7 23 3.2zM342 731c5 7-4 22-4 33 8 13 29.6-5 33-14.9 2-12-17-21-28-20.2-1 .1-1 1.1-1 2.1zm31-120.2c2 23-8 47-26 61.9-13 10.9-17.5-30.6-8-27.9 6 4.2 28-18.8 34-34zm-157-59.9c-8 6-17 3-25 1-11 5 4 20 13.5 16 5-4 12-9 12-15.7-.5-.2-1.5-.2-.5-1.3zM337 473c-6-10-3-23 0-34 0-1 0-2-.6-2-9-9-23 11-19.8 20.7C318 463 338 475 337 472.8v.2z"/><path class="st98" d="M326 392c-2 29 24 45 7 44-7 2-14 1-15 11-1 11-24 0-24.5-1.3C285 433 317 404.5 326 392zm103-118c-9.9-4-16-16-18-25-4-6-9.9 1-11 6-7 54 29.5 28 29 19zm293 9c16 21 29.5 12 40 20.7 3 4 1 9.6-1 14-3 9-13 9-20 4.1-14.5-5.8-22-22.2-19-38.8z"/><path class="st40" d="M347 729c53.5 5 15 86 59 102 25 9 37-19.8 55-11.9 23 10.1 19.6 40 24 60.7 9.6 46 63 29.6 58-12.8"/><path class="st40" d="M519 861c89-9 47.5 119 114.5 115 39-6 35-47 25-76.5-3-9 0-18.5 7-24.5 24.5-21 59 15.5 84-2.5 15-11 8-33-2-45-12-15 0-32 10-43"/><path class="st40" d="M790 539c53 69.8-64 71 8 194.5 6 14 11 32 11 48.5 0 32-49 47.5-61 16"/><path class="st40" d="M721 287c2 51 64 31 74 88 6 34-11.5 71 7 103 10 18 27 31.5 34 51 8 19-4 47-27 42"/><path class="st40" d="M407 290.6c-16-8-12-29.9-2-41 17-15 40.5-10 61-6 29.8 1 49-29 75-38 50-17 81 55 133 44 23-5 48-11 69 1 25 14 33 55 10 75"/><path class="st40" d="M428 278c-16 26.5-51 17.5-76 28.5-20 10.5-28 33-23 55 10 47-43 51-39 88m25 4.5c1.5-23 35-26 41-5 7 25-13 47 16 72"/><path class="st40" d="M334 476c-20-34-61-31.5-89-9.6-20 8-43-3-64 4-22 7-28 37-5 43.5 6.5 2 23-2 26-1 15 4 11 25-5 30-21 6-10 29 6 29"/><path class="st40" d="M216 554.5c-15 15-14 41 2 55 37 22 41 31 36 69.7-2 31 46 41 53.5 10 2-10.8-4-22 0-33 13-32 44 20 62-44.5"/><path class="st40" d="M327 647.9c25 29.7-.5 47-7 75-10 32.5 34 65 53 25"/><path d="M729 262.5c9 4 16 13 18 22.5m-193-68c12.5 2 24.5 8 34 16m9 9 3 3m-163 10c-5.5-.9-12 .6-15.5 4M362 319.6c-9 2-14 10.7-16 19M339 449c4 1 6 6 6 9.8M308.5 470c-12-6-16-5-22-4M175 492c1-4 5-7 9-7.5m38 89.5c-4 8 0 16 4 19.9m44 78.6c-1 6 1 15 9 18m76-77.5c-3 14-13 14.5-16 16m4.5 119.5c-5-3-9-9-8-15M397 782c-1 14.5 7 28 14 30m90 53.9c-3 12 2 27 14.5 25M636 957c14-3 17-28 11-38m96-60.1c1-7 0-14-4-19m46-49.1c8-6.5 9-25 3-39M786 582c5-8 3-19-3-26m37-12c2-8.5-.6-18-7-24m-56-169c18 6 22 30 21 35" style="opacity:.7882;fill:none;stroke:#fff;stroke-width:10;stroke-linecap:round;stroke-linejoin:round;stroke-miterlimit:10;enable-background:new"/></g><style>.st114{fill:none;stroke-linecap:round;stroke-linejoin:round;stroke-miterlimit:10;opacity:.6;stroke:#000;stroke-width:10}</style><g id="Scary_Grin"><path d="M399 653.4c69 208 313 227 351-10-94 106.4-251 110.6-351 10z" style="fill:#ff0059;stroke:#000;stroke-width:10;stroke-linecap:round;stroke-linejoin:round;stroke-miterlimit:10"/><path d="M452 696.2c11 29 23 57 35.8 84.5 10.6-19 22-39 33-57.6 14 31 29 60 47 88.7l46-87.2c20 26 35 39 55 62.7-.5-29 4-53 6-84l44 28 .9-58" style="fill:none;stroke:#000;stroke-width:10;stroke-linecap:round;stroke-linejoin:round;stroke-miterlimit:10"/><path class="st114" d="M409 671.5c51 34 39.9 45 66 96m-20-63.8c90 55 216 29 289-44M517 735l42 74m54-73.5 50 55.5m14-79 36.5 24"/><path d="m660.5 729-1.5 21.8m-48 7.6c-3 9-7 18-11.5 26m-6.5 12.2c0 1-1 3-2 4m-4-53.9c-4 7-8 14-11 20.7m-7 11.1c-.5 1-1 2-2 3m-62-7.3 9-15m-24.2-7c2-5 5-9 8-13M682 760.5l1-22.5m25-28 1-7" style="stroke:#fff;stroke-width:7;fill:none;stroke-linecap:round;stroke-linejoin:round;stroke-miterlimit:10"/><path class="st114" d="M399 653.4c29 171 267 249 331 59.7"/></g><defs><linearGradient id="zi" x1="523.88" y1="415.21" x2="538.45" y2="667.96" gradientTransform="rotate(3.5 529.279 542.401)" gradientUnits="userSpaceOnUse"><stop offset="0" stop-color="#df0dff"/><stop offset=".5" stop-color="#f00c10"/><stop offset="1" stop-color="#ffe70d"/></linearGradient><linearGradient id="zi-2" x1="667.68" y1="397.6" x2="691.17" y2="649.75" gradientTransform="rotate(3.5 676.165 524.809)" gradientUnits="userSpaceOnUse"><stop offset="0" stop-color="#e70dff"/><stop offset=".23" stop-color="#eb0daf"/><stop offset=".5" stop-color="#f00c58"/><stop offset="1" stop-color="#fffb0d"/></linearGradient><style>.zi-2,.zi-5{stroke:#000;stroke-linecap:round;stroke-linejoin:round;stroke-width:10px;fill:none}.zi-2{opacity:.6}</style></defs><path d="M517.7 466.4c-25.4 24.8-5.8 53 2.8 80.3 5.1 16-4 32.7-3.9 49 .4 55.3 65.6 35 42.6-32.1-10.3-29.7-1.2-46-1.2-73.8 0-21.9-22.9-38.5-40.3-23.4Zm150-17c-25.4 24.9-5.9 53.1 2.8 80.4 5 15.9-4 32.6-3.9 49 .3 55.3 65.6 35 42.5-32.1-10.2-29.7-1.1-46-1.1-73.8 0-21.9-23-38.5-40.3-23.5Z" style="stroke-linecap:round;stroke-linejoin:round;stroke-width:10px;stroke:#000;fill:#fff"/><path class="zi-2" d="M505.1 438.3c-68.5 24.5-44.9 251.5 44.4 215.2M651.6 421c-64 34.3-44 238.9 42.6 216.9"/><path class="zi-2" d="M516.2 461.9c-36.7 30.1 7.4 72.3-.2 107.4-4.5 21-8.1 65.8 24.5 58.3m124.8-182.9c-36.6 30.2 7.4 72.4-.1 107.5-4.6 21-8.1 65.7 24.5 58.3"/><path d="M528 464c-26 15.6 4.9 63.3 27.2 38.4-4.6 14.8-.3 33.5-1.3 48.8-4 8.4-22.3 10.4-30.5 6-5.3-32.1-42.8-74.7 4.6-93.2Zm149.9-16.9c-26 15.6 5 63.3 27.2 38.4-4.5 14.8-.3 33.5-1.3 48.7-3.9 8.5-22.3 10.5-30.5 6.1-5.3-32.1-42.8-74.7 4.6-93.2Z"/><ellipse cx="531.3" cy="544.4" rx="60.1" ry="112" transform="rotate(-3.5 528.909 541.97)" style="fill:url(#zi);opacity:.74"/><ellipse cx="679.8" cy="527.5" rx="60.1" ry="112" transform="rotate(-3.5 676.845 525.196)" style="fill:url(#zi-2);opacity:.74"/><ellipse class="zi-5" cx="531.3" cy="544.4" rx="60.1" ry="112" transform="rotate(-3.5 528.909 541.97)"/><ellipse class="zi-5" cx="679.8" cy="527.5" rx="60.1" ry="112" transform="rotate(-3.5 676.845 525.196)"/><path d="M533.6 449.9a123.1 123.1 0 0 1 34.4 69.3m2.3 16.6a84.3 84.3 0 0 1 .6 10.1m113.2-111c18.2 16.8 30.5 44.1 35 79.3m3.1 13.8a36.8 36.8 0 0 1 .1 11" style="stroke:#fff;fill:none;stroke-linecap:round;stroke-linejoin:round;stroke-width:10px"/><style>.st40,.st68{fill:none;stroke:#000;stroke-width:10;stroke-linecap:round;stroke-linejoin:round;stroke-miterlimit:10}.st68{opacity:.6;enable-background:new}</style><g id="Knowledge"><path d="M484 313.5c48 35 117.5 20 160-17-49.5-41.5-124-41.5-160 17z" style="fill:#fff"/><linearGradient id="SVGID_00000081643937399829794740000016140099050203615631_" gradientUnits="userSpaceOnUse" x1="614.626" y1="817.896" x2="614.626" y2="890.904" gradientTransform="matrix(.9959 -.09015 -.09015 -.9959 28.476 1198.007)"><stop offset="0" style="stop-color:#ff0037"/><stop offset="1" style="stop-color:#ffc800"/></linearGradient><path style="fill:url(#SVGID_00000081643937399829794740000016140099050203615631_)" d="M534 273c-14 19 1 35-2 54.7 0 2 20 7 21 1 8-77 28-53 26-2.9 6-1.5 14-1 20-2-10-19.6 8-39-6-53.5-9-11.3-51-8.3-59 2.7z"/><path class="st40" d="M471 319c82-73 109.6-66 186-15"/><path class="st40" d="M482 314c52 31 115 19 163-16m9 34c37 16 53-7 29-38m-227 6c-39 47 3 59 19.5 47"/><path class="st40" d="M530 277c-9 19 7 32-1 52m63-59.4c15 16-5 36 8 52m-49 9c19-18-7-37 12.5-49 9-4.5 19 5 16 14.5-3 9.6-8 21.5-1.5 30.7"/><path class="st40" d="M557 290c0 8.5 9 15.5 17 14.9-4 8-12.5-2-8 7 12 10.8-6 22-1.5 6.5"/><path class="st68" d="M454 300c-44.5 56 4 65 21 48m178-12.1c39 21 63-11 32-44M477 319c52 38 124 21 173-15.5"/><path class="st68" d="M523 282c-7 15 4 31 3 46"/></g><circle cx="550" cy="550" r="500" style="fill:none;stroke:#000;stroke-width:10;stroke-linecap:round;stroke-linejoin:round;stroke-miterlimit:10"/></svg>