<svg version="1.1" id="Layer_1" xmlns="http://www.w3.org/2000/svg" x="0" y="0" viewBox="0 0 1100 1100" style="enable-background:new 0 0 1100 1100" xml:space="preserve" xmlns:xlink="http://www.w3.org/1999/xlink"><circle cx="550" cy="550" r="500" style="fill:#2e2e2e"/><linearGradient id="a1" gradientUnits="userSpaceOnUse" x1="264.957" y1="853.134" x2="422.298" y2="853.134"><stop offset="0" style="stop-color:#00ff90"/><stop offset="1" style="stop-color:#c800ff"/></linearGradient><circle cx="343" cy="853" r="78" style="fill:url(#a1);stroke:#000;stroke-width:10;stroke-linecap:round;stroke-linejoin:round;stroke-miterlimit:10"/><linearGradient id="b1" gradientUnits="userSpaceOnUse" x1="826.38" y1="645.312" x2="919.38" y2="645.312"><stop offset="0" style="stop-color:#f7ff00"/><stop offset="1" style="stop-color:#ff5e00"/></linearGradient><ellipse style="fill:url(#b1);stroke:#000;stroke-width:10;stroke-linecap:round;stroke-linejoin:round;stroke-miterlimit:10" cx="873" cy="645" rx="46.5" ry="53"/><linearGradient id="c1" gradientUnits="userSpaceOnUse" x1="179.591" y1="404.219" x2="384.591" y2="404.219"><stop offset="0" style="stop-color:#0073ff"/><stop offset="1" style="stop-color:#8c00ff"/></linearGradient><ellipse style="fill:url(#c1);stroke:#000;stroke-width:10;stroke-linecap:round;stroke-linejoin:round;stroke-miterlimit:10" cx="282" cy="404" rx="102.5" ry="111"/><linearGradient id="d1" gradientUnits="userSpaceOnUse" x1="766.562" y1="310.33" x2="944.562" y2="310.33"><stop offset="0" style="stop-color:#7300ff"/><stop offset="1" style="stop-color:#ff008c"/></linearGradient><ellipse style="fill:url(#d1);stroke:#000;stroke-width:10;stroke-linecap:round;stroke-linejoin:round;stroke-miterlimit:10" cx="856" cy="310" rx="89" ry="95"/><linearGradient id="e1" gradientUnits="userSpaceOnUse" x1="615.769" y1="857.232" x2="845.269" y2="857.232"><stop offset="0" style="stop-color:#f0b"/><stop offset="1" style="stop-color:#f40"/></linearGradient><circle style="fill:url(#e1);stroke:#000;stroke-width:10;stroke-linecap:round;stroke-linejoin:round;stroke-miterlimit:10" cx="730.5" cy="857" r="115"/><linearGradient id="f1" gradientUnits="userSpaceOnUse" x1="115.411" y1="614.727" x2="186.411" y2="614.727"><stop offset="0" style="stop-color:#00ff90"/><stop offset="1" style="stop-color:#006fff"/></linearGradient><circle style="fill:url(#f1);stroke:#000;stroke-width:10;stroke-linecap:round;stroke-linejoin:round;stroke-miterlimit:10" cx="150.9" cy="615" r="35.5"/><path d="M313 326.3c18 9.9 33 27 39.6 46m7 22.7 1 7m509.9-163.1c19 5 34 19.6 41 38m6 22c1 3 1.5 5 2 8M879 609.4c9 4 16 11 19.8 20m.7 19.6-.5 5M759 766.9c25 9 44 31 49.9 56.5m7.1 23.7c1 4 1 7 .5 10.8M364 799.3c16 6 29 22 31 39m0 22.7-2 6M153.5 595.4c7 1 12 6 14 12" style="opacity:.8118;fill:none;stroke:#fff;stroke-width:16;stroke-linecap:round;stroke-linejoin:round;stroke-miterlimit:10;stroke-dasharray:0,0,0,0,0,0"/><linearGradient id="a3" gradientUnits="userSpaceOnUse" x1="432.676" y1="-700.409" x2="789.687" y2="-76.39" gradientTransform="translate(0 1066)"><stop offset="0" style="stop-color:#5900ff"/><stop offset="1" style="stop-color:#f06"/></linearGradient><path style="fill:url(#a3)" d="M302.5 412.2c13 30 55 19 61-10.5 3-13-.8-27-2-40.7-3-33 15-45 47-40.6 56 8 63-33 100.6-58.7 58-39.6 78 46 81 54 9 24.5 35 23 44-.7 26-71 94-32.5 93.5 28 1 13 1 25.5 5 37.6 8 32 68 39.5 59 5-1.5-6-17-12-17-12 27 9 43 42 33 68-8 21-39.9 44-13 70.7 26 26 40 54 25 83-54 105 46 96.5-36.5 188-7 8-12 22-13 29-3 17 20.1 28 23 17.9 5-18 16-26 16-26-17 19-13 22-22 45-12.5 32-49 12-55 57-8 33-26 40.9-57 34.9-21-.5-40 13-60 19-55 17-84-17-124-47-49-29-108 16-133-68 0 0 5 18 9.5 20.3 21 11 36-34 20.5-51.5-13-15-39-16-48-34-6-11-3-25-2-37.9 3-37-23-56-40.7-84.1-24-47.5 18-100 9-149-19-49-16-105 29-138.6L302.5 412v.2z"/><linearGradient id="a8" gradientUnits="userSpaceOnUse" x1="558.119" y1="436.228" x2="806.198" y2="309.187" gradientTransform="matrix(1 0 0 -1 0 1100)"><stop offset="0" style="stop-color:#03fcf4"/><stop offset=".089" style="stop-color:#03f2f4"/><stop offset=".244" style="stop-color:#03d5f5"/><stop offset=".446" style="stop-color:#03a8f7"/><stop offset=".686" style="stop-color:#0368f9"/><stop offset=".957" style="stop-color:#0318fc"/><stop offset="1" style="stop-color:#030bfc"/></linearGradient><path style="fill:url(#a8)" d="M777.5 632.2c-21 64 38 96 31 151-4 29-37 44-59 23-39 0 84 96-74 61.8l-98-255 200 19v.2z"/><linearGradient id="b4" gradientUnits="userSpaceOnUse" x1="173.214" y1="619.428" x2="438.218" y2="483.425" gradientTransform="matrix(1 0 0 -1 0 1100)"><stop offset="0" style="stop-color:#03fcf4"/><stop offset=".089" style="stop-color:#03f2f4"/><stop offset=".244" style="stop-color:#03d5f5"/><stop offset=".446" style="stop-color:#03a8f7"/><stop offset=".686" style="stop-color:#0368f9"/><stop offset=".957" style="stop-color:#0318fc"/><stop offset="1" style="stop-color:#030bfc"/></linearGradient><path style="fill:url(#b4)" d="M331 377.1c-59 101.5-46 59.7-77 80.7-27 18-93-2-93 37 6 29.8 36 8.5 48 20 16.5 28-46 23-13 56.7 10.7-1 12 9.6 12 18 0 41 56 5 46 90 6 41 63 35 53.5-7.9-12-53.5 59-31 9.6 55.8-4 34 41 54 54.5 19l-42-202.6 70.9-144.5L331 377v.1z"/><linearGradient id="c3" gradientUnits="userSpaceOnUse" x1="342.781" y1="569.57" x2="468.781" y2="505.57" gradientTransform="matrix(1 0 0 -1 0 1100)"><stop offset="0" style="stop-color:#03fcf4"/><stop offset=".089" style="stop-color:#03f2f4"/><stop offset=".244" style="stop-color:#03d5f5"/><stop offset=".446" style="stop-color:#03a8f7"/><stop offset=".686" style="stop-color:#0368f9"/><stop offset=".957" style="stop-color:#0318fc"/><stop offset="1" style="stop-color:#030bfc"/></linearGradient><path style="fill:url(#c3)" d="M331 545c2 0 123 8 129 8.3l-5 70.8-124-79.4v.3z"/><linearGradient id="d3" gradientUnits="userSpaceOnUse" x1="192.925" y1="662.852" x2="343.925" y2="585.852" gradientTransform="matrix(1 0 0 -1 0 1100)"><stop offset="0" style="stop-color:#03fcf4"/><stop offset=".089" style="stop-color:#03f2f4"/><stop offset=".244" style="stop-color:#03d5f5"/><stop offset=".446" style="stop-color:#03a8f7"/><stop offset=".686" style="stop-color:#0368f9"/><stop offset=".957" style="stop-color:#0318fc"/><stop offset="1" style="stop-color:#030bfc"/></linearGradient><path style="fill:url(#d3)" d="M333 383s39.8 16 59 24.2L330 545s-123 30.6-123 30c-9.6-3-26-12-19.7-22 10.9-17 59-39.8-12-39.8-19.7 0-16-35 1-41.8 10-4 15 11 103-20C305 426 320 398 333 382.6v.4z"/><linearGradient id="e3" gradientUnits="userSpaceOnUse" x1="286.992" y1="458.984" x2="489.992" y2="354.984" gradientTransform="matrix(1 0 0 -1 0 1100)"><stop offset="0" style="stop-color:#03fcf4"/><stop offset=".089" style="stop-color:#03f2f4"/><stop offset=".244" style="stop-color:#03d5f5"/><stop offset=".446" style="stop-color:#03a8f7"/><stop offset=".686" style="stop-color:#0368f9"/><stop offset=".957" style="stop-color:#0318fc"/><stop offset="1" style="stop-color:#030bfc"/></linearGradient><path style="fill:url(#e3)" d="M370 736.6c-12-64-28-126.5-40-191.7l125 79.3 33.5-10s-33 200-33 201C369 878 384 757 370 736.6z"/><linearGradient id="f3" gradientUnits="userSpaceOnUse" x1="439.222" y1="373.432" x2="708.222" y2="235.432" gradientTransform="matrix(1 0 0 -1 0 1100)"><stop offset="0" style="stop-color:#03fcf4"/><stop offset=".089" style="stop-color:#03f2f4"/><stop offset=".244" style="stop-color:#03d5f5"/><stop offset=".446" style="stop-color:#03a8f7"/><stop offset=".686" style="stop-color:#0368f9"/><stop offset=".957" style="stop-color:#0318fc"/><stop offset="1" style="stop-color:#030bfc"/></linearGradient><path style="fill:url(#f3)" d="M455 817.1c11.5-68 23-137 34-204.8l103 38s83.5 217 83 217c-38 12 25 108-48 107.6-50-5-29-103-86-109.9 4 32-31 59.6-51 25-12-24.5-2-61-35-72.9z"/><linearGradient id="g1" gradientUnits="userSpaceOnUse" x1="532.938" y1="679.879" x2="827.935" y2="528.88" gradientTransform="matrix(1 0 0 -1 0 1100)"><stop offset="0" style="stop-color:#03fcf4"/><stop offset=".089" style="stop-color:#03f2f4"/><stop offset=".244" style="stop-color:#03d5f5"/><stop offset=".446" style="stop-color:#03a8f7"/><stop offset=".686" style="stop-color:#0368f9"/><stop offset=".957" style="stop-color:#0318fc"/><stop offset="1" style="stop-color:#030bfc"/></linearGradient><path style="fill:url(#g1)" d="M795 370.7c7.5 30-8 63 0 93.1 9 34 71 72 29.9 108-18 0-17-9-46 67.3l-200.8-12.3-28-255.8h244.8l.1-.3z"/><linearGradient id="h1" gradientUnits="userSpaceOnUse" x1="638.618" y1="629.254" x2="830.554" y2="531.286" gradientTransform="matrix(1 0 0 -1 0 1100)"><stop offset="0" style="stop-color:#03fcf4"/><stop offset=".089" style="stop-color:#03f2f4"/><stop offset=".244" style="stop-color:#03d5f5"/><stop offset=".446" style="stop-color:#03a8f7"/><stop offset=".686" style="stop-color:#0368f9"/><stop offset=".957" style="stop-color:#0318fc"/><stop offset="1" style="stop-color:#030bfc"/></linearGradient><path style="fill:url(#h1)" d="M774 639c-53.5-3.5-104-6-159-9.6l-39.9-44.1 29-8.4 24.5-69.5s164-129.5 165.5-128c-13 153 35 82 43 169.7 3 32-32 17-35 33.1C797 601.5 788 620 774 638.8v.2z"/><linearGradient id="i1" gradientUnits="userSpaceOnUse" x1="614.019" y1="789.038" x2="783.019" y2="703.038" gradientTransform="matrix(1 0 0 -1 0 1100)"><stop offset="0" style="stop-color:#03fcf4"/><stop offset=".089" style="stop-color:#03f2f4"/><stop offset=".244" style="stop-color:#03d5f5"/><stop offset=".446" style="stop-color:#03a8f7"/><stop offset=".686" style="stop-color:#0368f9"/><stop offset=".957" style="stop-color:#0318fc"/><stop offset="1" style="stop-color:#030bfc"/></linearGradient><path style="fill:url(#i1)" d="m642 247.4-59.5 171.4c70.9-9.6 146-17 213-42 7-26-22.5-44-43-50C809 236 695 243 642 247v.4z"/><linearGradient id="j1" gradientUnits="userSpaceOnUse" x1="442.133" y1="833.26" x2="643.133" y2="730.26" gradientTransform="matrix(1 0 0 -1 0 1100)"><stop offset="0" style="stop-color:#03fcf4"/><stop offset=".089" style="stop-color:#03f2f4"/><stop offset=".244" style="stop-color:#03d5f5"/><stop offset=".446" style="stop-color:#03a8f7"/><stop offset=".686" style="stop-color:#0368f9"/><stop offset=".957" style="stop-color:#0318fc"/><stop offset="1" style="stop-color:#030bfc"/></linearGradient><path style="fill:url(#j1)" d="M449.9 240c10 4 22 4 33 1.1 14-4 25-15 36.5-24 11-9 25-17 39-17s27 9 38 17c16 12 32.5 25 52 32.5l-58 224.1L449.9 240z"/><linearGradient id="k" gradientUnits="userSpaceOnUse" x1="357.104" y1="807.111" x2="658.067" y2="653.13" gradientTransform="matrix(1 0 0 -1 0 1100)"><stop offset="0" style="stop-color:#03fcf4"/><stop offset=".089" style="stop-color:#03f2f4"/><stop offset=".244" style="stop-color:#03d5f5"/><stop offset=".446" style="stop-color:#03a8f7"/><stop offset=".686" style="stop-color:#0368f9"/><stop offset=".957" style="stop-color:#0318fc"/><stop offset="1" style="stop-color:#030bfc"/></linearGradient><path style="fill:url(#k)" d="M462 244c-10-2.5-21-5-32-4.5s-22 4-29 12.1-9 21-3 29.6c3 4 7 8 5 12-1.5 3.5-6 4-9.8 4-14 0-27 2-39.7 7.9-12 6-23 16-27 29-2 6-2 13-2 19.7 0 9 1 18 3 26.5l300 126.5-49-106.6L462 244z"/><linearGradient id="l" gradientUnits="userSpaceOnUse" x1="435.046" y1="589.091" x2="595.046" y2="507.091" gradientTransform="matrix(1 0 0 -1 0 1100)"><stop offset="0" style="stop-color:#03fcf4"/><stop offset=".089" style="stop-color:#03f2f4"/><stop offset=".244" style="stop-color:#03d5f5"/><stop offset=".446" style="stop-color:#03a8f7"/><stop offset=".686" style="stop-color:#0368f9"/><stop offset=".957" style="stop-color:#0318fc"/><stop offset="1" style="stop-color:#030bfc"/></linearGradient><path style="fill:url(#l)" d="M629.6 507.4c-8 23-16 47-25 70.4l-149.9 46.8 12-185.6 163 68v.4z"/><linearGradient id="m" gradientUnits="userSpaceOnUse" x1="506.773" y1="513.561" x2="653.773" y2="437.561" gradientTransform="matrix(1 0 0 -1 0 1100)"><stop offset="0" style="stop-color:#03fcf4"/><stop offset=".089" style="stop-color:#03f2f4"/><stop offset=".244" style="stop-color:#03d5f5"/><stop offset=".446" style="stop-color:#03a8f7"/><stop offset=".686" style="stop-color:#0368f9"/><stop offset=".957" style="stop-color:#0318fc"/><stop offset="1" style="stop-color:#030bfc"/></linearGradient><path style="fill:url(#m)" d="M578 586.2c-31 9-58 17-89.8 27.9l163 56.8L578 586v.2z"/><linearGradient id="n" gradientUnits="userSpaceOnUse" x1="441.998" y1="531.996" x2="496.998" y2="503.996" gradientTransform="matrix(1 0 0 -1 0 1100)"><stop offset="0" style="stop-color:#03fcf4"/><stop offset=".089" style="stop-color:#03f2f4"/><stop offset=".244" style="stop-color:#03d5f5"/><stop offset=".446" style="stop-color:#03a8f7"/><stop offset=".686" style="stop-color:#0368f9"/><stop offset=".957" style="stop-color:#0318fc"/><stop offset="1" style="stop-color:#030bfc"/></linearGradient><path style="fill:url(#n)" d="M461 527.8c-2 34-4 65-6 96.7l34-10.6-28-86.1z"/><linearGradient id="o" gradientUnits="userSpaceOnUse" x1="359.947" y1="627.897" x2="470.947" y2="570.897" gradientTransform="matrix(1 0 0 -1 0 1100)"><stop offset="0" style="stop-color:#03fcf4"/><stop offset=".089" style="stop-color:#03f2f4"/><stop offset=".244" style="stop-color:#03d5f5"/><stop offset=".446" style="stop-color:#03a8f7"/><stop offset=".686" style="stop-color:#0368f9"/><stop offset=".957" style="stop-color:#0318fc"/><stop offset="1" style="stop-color:#030bfc"/></linearGradient><path style="fill:url(#o)" d="M391 406.9c-21 48.5-38 86-61 138l129.5 9.1 7.5-115.1-76-32z"/><style>.st40{fill:none;stroke:#000;stroke-width:10;stroke-linecap:round;stroke-linejoin:round;stroke-miterlimit:10}.st98{opacity:.6;enable-background:new}</style><g id="Outline"><path class="st98" d="M793 537c-1 .7-1 2-.5 3 5 10 11 35 25 30 8-2 21-13 18-22.4-.5-1-2-2-3-1.5-26 12-28-11-39-9.4v.3zm-34 274.5c6 5 26 8 25-3-6-7-20.6-12-21.5-26C750 772 744 803 759 811.5zm-219.3 52s1 .5 1 .8c9 13.5-3 36-18 40-34 6-9-6-6-44 .3-5.3 22.3 2.7 23 3.2zM342 731c5 7-4 22-4 33 8 13 29.6-5 33-14.9 2-12-17-21-28-20.2-1 .1-1 1.1-1 2.1zm31-120.2c2 23-8 47-26 61.9-13 10.9-17.5-30.6-8-27.9 6 4.2 28-18.8 34-34zm-157-59.9c-8 6-17 3-25 1-11 5 4 20 13.5 16 5-4 12-9 12-15.7-.5-.2-1.5-.2-.5-1.3zM337 473c-6-10-3-23 0-34 0-1 0-2-.6-2-9-9-23 11-19.8 20.7C318 463 338 475 337 472.8v.2z"/><path class="st98" d="M326 392c-2 29 24 45 7 44-7 2-14 1-15 11-1 11-24 0-24.5-1.3C285 433 317 404.5 326 392zm103-118c-9.9-4-16-16-18-25-4-6-9.9 1-11 6-7 54 29.5 28 29 19zm293 9c16 21 29.5 12 40 20.7 3 4 1 9.6-1 14-3 9-13 9-20 4.1-14.5-5.8-22-22.2-19-38.8z"/><path class="st40" d="M347 729c53.5 5 15 86 59 102 25 9 37-19.8 55-11.9 23 10.1 19.6 40 24 60.7 9.6 46 63 29.6 58-12.8"/><path class="st40" d="M519 861c89-9 47.5 119 114.5 115 39-6 35-47 25-76.5-3-9 0-18.5 7-24.5 24.5-21 59 15.5 84-2.5 15-11 8-33-2-45-12-15 0-32 10-43"/><path class="st40" d="M790 539c53 69.8-64 71 8 194.5 6 14 11 32 11 48.5 0 32-49 47.5-61 16"/><path class="st40" d="M721 287c2 51 64 31 74 88 6 34-11.5 71 7 103 10 18 27 31.5 34 51 8 19-4 47-27 42"/><path class="st40" d="M407 290.6c-16-8-12-29.9-2-41 17-15 40.5-10 61-6 29.8 1 49-29 75-38 50-17 81 55 133 44 23-5 48-11 69 1 25 14 33 55 10 75"/><path class="st40" d="M428 278c-16 26.5-51 17.5-76 28.5-20 10.5-28 33-23 55 10 47-43 51-39 88m25 4.5c1.5-23 35-26 41-5 7 25-13 47 16 72"/><path class="st40" d="M334 476c-20-34-61-31.5-89-9.6-20 8-43-3-64 4-22 7-28 37-5 43.5 6.5 2 23-2 26-1 15 4 11 25-5 30-21 6-10 29 6 29"/><path class="st40" d="M216 554.5c-15 15-14 41 2 55 37 22 41 31 36 69.7-2 31 46 41 53.5 10 2-10.8-4-22 0-33 13-32 44 20 62-44.5"/><path class="st40" d="M327 647.9c25 29.7-.5 47-7 75-10 32.5 34 65 53 25"/><path d="M729 262.5c9 4 16 13 18 22.5m-193-68c12.5 2 24.5 8 34 16m9 9 3 3m-163 10c-5.5-.9-12 .6-15.5 4M362 319.6c-9 2-14 10.7-16 19M339 449c4 1 6 6 6 9.8M308.5 470c-12-6-16-5-22-4M175 492c1-4 5-7 9-7.5m38 89.5c-4 8 0 16 4 19.9m44 78.6c-1 6 1 15 9 18m76-77.5c-3 14-13 14.5-16 16m4.5 119.5c-5-3-9-9-8-15M397 782c-1 14.5 7 28 14 30m90 53.9c-3 12 2 27 14.5 25M636 957c14-3 17-28 11-38m96-60.1c1-7 0-14-4-19m46-49.1c8-6.5 9-25 3-39M786 582c5-8 3-19-3-26m37-12c2-8.5-.6-18-7-24m-56-169c18 6 22 30 21 35" style="opacity:.7882;fill:none;stroke:#fff;stroke-width:10;stroke-linecap:round;stroke-linejoin:round;stroke-miterlimit:10;enable-background:new"/></g><style>.st40,.st68{fill:none;stroke-width:10;stroke-linecap:round;stroke-linejoin:round;stroke-miterlimit:10;stroke:#000}.st68{opacity:.6;enable-background:new}</style><g id="Eye"><linearGradient id="SVGID_00000144327888440828662330000012949225208094602647_" gradientUnits="userSpaceOnUse" x1="232.314" y1="-555.531" x2="336.458" y2="-482.43" gradientTransform="translate(0 1066)"><stop offset="0" style="stop-color:#00ff04"/><stop offset=".811" style="stop-color:#00fccf"/><stop offset="1" style="stop-color:#00fbff"/></linearGradient><path style="fill:url(#SVGID_00000144327888440828662330000012949225208094602647_)" d="M278 494c-31 10.8-13 49-9.5 56 8 16-9 32.5 9 50.8 9 9 46 8 40.7-31-2-13-13-23-13.5-35.8-.7-21-3.7-48-26.7-40z"/><path d="M273 498c-6.5 9-1 22 4 30.8 6 8 13 15 14 25 2 14-6 31 3 43.7 15 18 30.6-23 23-35-3-7-8-13.5-10-20.8-5-16 2-45-21-49" style="opacity:.5098;fill:#fff;enable-background:new"/><path class="st68" d="M274 516c9 24.5 14 39 18 64"/><path class="st40" d="M278 494c-31 10.8-13 49-9.5 56 8 16-9 32.5 9 50.8 9 9 46 8 40.7-31-2-13-13-23-13.5-36C304 513 301 486 278 494z"/><path class="st40" d="M282 526c6 17 10.5 35 14 53"/><path d="M279 515c1 4 2 7 3.5 11m24.5 46.9c1 5 1.5 13-5 19" style="fill:none;stroke:#fff;stroke-width:10;stroke-linecap:round;stroke-linejoin:round;stroke-miterlimit:10"/><path class="st68" d="M264 495.9c-15.5 19-6 44 1 65 3 9-3 18-1 27 4 24 31 31 46 12"/></g><style>.st40{fill:none;stroke:#000;stroke-width:10;stroke-linecap:round;stroke-linejoin:round;stroke-miterlimit:10}</style><g id="Duhh"><path d="M713 770.3c-107 104-373 27-163-65.2 27-9 49.7 7.5 69 24.1 37-16.2 72 8.8 94 41.1z" style="fill:#fe1767"/><path d="M711 767.2c-20-25-57.5-53.5-90.6-38-12-11-24-22-38-29.5C623 679.6 771 699 711 767.2z"/><path d="M611.5 726.5C562 714 507 740 474 776.7c-1-40 50-66 84-75.9 21-4.8 40 8.2 53.5 25.7zm27.5 28.1c-1-13 16-24 28-23.4-14-8-32-8-46-.1l18 23.5z" style="fill:#ae0f45"/><ellipse transform="rotate(-9.32 598.78 756.174)" class="st40" cx="599" cy="756" rx="128" ry="62"/><path class="st40" d="M571 699.3c27 9 50 29 64 54m-14-23.2c33.5-18.5 68 11 89 36M475 706c-26 21-48.5 57-26 89m272-111.6c27 10 48 49 27 77"/><path d="M475 706c-32 9.6-59 64-27 89m273-113.7c33 4 55 55 28.5 78M472 768.6c-19.6 91 222 65.8 246-6" style="opacity:.6;fill:none;stroke:#000;stroke-width:10;stroke-linecap:round;stroke-linejoin:round;stroke-miterlimit:10"/><path d="M588 723c7 5.5 13 12 18 18m8 12.5 1.5 2.5m43.5-13.2c7 3 14 7.5 19 13m9 10.2 3 3" style="opacity:.7686;fill:none;stroke:#fff;stroke-width:10;stroke-linecap:round;stroke-linejoin:round;stroke-miterlimit:10"/></g><style>.st40,.st68{fill:none;stroke-width:10;stroke-linecap:round;stroke-linejoin:round;stroke-miterlimit:10;stroke:#000}.st68{opacity:.6;enable-background:new}</style><g id="trippy_monocle"><path class="st68" d="M478 416c-98.5 54-52 295 75 229m120-263c-24 5-51 30.5-54 56m142 120c-1 25-19.9 49-43.5 57M674 420c-62 49.7-14 226 41 157"/><path class="st68" d="M515 446.9c-32.5 32-26 103-10.5 143 9 22 38 29 41.5 1"/><path d="M687 417c-49 19 1 94 40 65 18-17-11-81.5-37-67.5 1-.5 1-2-3 2.5zm-171 33.5c-34 25 4 86 38.5 55C567 465 536 433 516 450.5z" style="fill:#fff"/><path class="st40" d="M525 445c-43 8-36 170.5 7 159 41-11 39-168-7-159.4v.4z"/><path d="M503 490.6c-27 129 68 160 58 12-34 27.2-51-8.6-58-12zM661 449c-47 176 96 182 72 28.9-33 23.1-57 1.6-72-28.9z"/><path class="st40" d="M504.5 467c-5.5 32 23 63 54 39M686 416c-63 33-38 186 14 170.5C755 571 744 386 686 416z"/><path class="st40" d="M666 437c-6 33 37 63 66 42m-107-39.2c6-25 25-46.5 50-54M757 557c-8.5 29-19 44-43 54"/><linearGradient id="SVGID_00000171696356865888095910000012114362784109113733_" gradientUnits="userSpaceOnUse" x1="431.024" y1="881.903" x2="597.039" y2="881.903" gradientTransform="matrix(1 0 0 -1 0 1410)"><stop offset="0" style="stop-color:#00ff62"/><stop offset="1" style="stop-color:#009dff"/></linearGradient><path style="opacity:.7216;fill:url(#SVGID_00000171696356865888095910000012114362784109113733_);enable-background:new" d="M487 413.5c-78 38-75 218 17 237 131 27.5 124-305.5-17-237z"/><path d="M537.5 423c17 11 27 32 33.5 51m3 18v7m-10 109c-6 12-17 22-30 27" style="fill:none;stroke:#fff;stroke-width:10;stroke-linecap:round;stroke-linejoin:round;stroke-miterlimit:10"/><path class="st40" d="M508 404c-109 26-102 253 17.5 248 104.1-4 95.5-275-17.5-248z"/></g><radialGradient id="a22" cx="677.109" cy="702.572" r="56.939" gradientTransform="matrix(.9782 -.2079 -.2998 -1.4111 102.775 1435.44)" gradientUnits="userSpaceOnUse"><stop offset="0" style="stop-color:#ff00a6"/><stop offset="1" style="stop-color:#ff5900"/></radialGradient><path style="fill:url(#a22)" d="M527 249.5c-30 64-27.5 69 21 112.5 14 12.5 26 11 34-1 17-26 26-54 16-77-9-21-52.5-74-71-34.5z"/><path d="M514 279c9.6 26 38 45 64.5 50 25 5 24-26 20-42.5C542 196 525 254 514 279z" style="opacity:.3686;fill:#fff;enable-background:new"/><path d="M527 249.5c-30 64-27.5 69 21 112.5 14 12.5 26 11 34-1 17-26 26-54 16-76.6-9-21.4-52.5-74.4-71-34.9z" style="fill:none;stroke:#000;stroke-width:10;stroke-linecap:round;stroke-linejoin:round;stroke-miterlimit:10"/><path d="M531 243c-41 54-37 85 12 125 9.8 8 24.5 7.5 34-1" style="opacity:.6;fill:none;stroke:#000;stroke-width:10;stroke-linecap:round;stroke-linejoin:round;stroke-miterlimit:10;enable-background:new"/><path d="M554 255c8 5 14 12 19 20m9 11c2 3 3 6 4 9" style="fill:none;stroke:#fff;stroke-width:10;stroke-linecap:round;stroke-linejoin:round;stroke-miterlimit:10"/><style>.st16,.st40,.st68{fill:none;stroke:#fff;stroke-width:10;stroke-linecap:round;stroke-linejoin:round;stroke-miterlimit:10}.st40,.st68{stroke:#000}.st68{opacity:.6;enable-background:new}</style><g id="Polar_Hoodie"><linearGradient id="SVGID_00000032637641433338465610000007851579417180279483_" gradientUnits="userSpaceOnUse" x1="544" y1="-432" x2="544" y2="-1068" gradientTransform="translate(0 1066)"><stop offset="0" style="stop-color:#00ffc4"/><stop offset=".103" style="stop-color:#00f6c7"/><stop offset=".274" style="stop-color:#00ddce"/><stop offset=".489" style="stop-color:#00b5da"/><stop offset=".742" style="stop-color:#007deb"/><stop offset="1" style="stop-color:#003cff"/></linearGradient><path style="fill:url(#SVGID_00000032637641433338465610000007851579417180279483_)" d="M241 301.7c2 45-55.8 49.9-65 86-5 19 27 59-36 85-38 2.5-63 83-13 81.9 27-7-46 28.5 9 119.7 17 28-8 68-39.8 86 158 373 716 385 896 23.9-106-83-3-103-29-159-20-44-40-18-40.5-35.3 25-32 100.5-72.5 54-118-24-23-38 59.5-66 10.6-22-38 37-89 18-126-10.8-13-42-32-53-9.9-23 3 18-115-43-145-61 13-33 74-110-50-18-29-62 12-150-76-31-13.5-131 11.5-92 58-217-17-110 54-190 93.5-44 13-104 21-97 81.5 4 32 41 18 156 38 22 4 13-25 44-28.2 76 18 95-63 138-67 50.6-2 47 58 72 79 29 16 31-31 50-42 68.5-41 74 68 81 101 11 24 46 28 62 6 39 38-4 62-10 98 0 18 17 30 28 45 42 59-29 81-5.5 139.8 11 27 22 70.9-11 87-73 82 26 56-22 99.8-15 9.9-36.5 13.5-44 32.5-12.5 53-24 45.5-73 45-108 54.5-104 9.9-188-34.9-34-11-86 2-104.5-37 24 3.5 34-41 20.6-55-69-34-49.8-40-52.5-82.6-5-76.5-72.5-44-32-170 20-63-25.5-80 .8-148 12 34 57 12 59.8-16.9 2-19-6-39 2-57.5L241 301.7z"/><linearGradient id="SVGID_00000117640511703433748440000010943481505125308581_" gradientUnits="userSpaceOnUse" x1="541.898" y1="-622" x2="541.898" y2="96" gradientTransform="translate(0 1066)"><stop offset="0" style="stop-color:#ff0051"/><stop offset="1" style="stop-color:#ffae00"/></linearGradient><path style="fill:url(#SVGID_00000117640511703433748440000010943481505125308581_)" d="M103 782.3c-30.6-33.5 27-40 33-81 10-39.5-46-84-12-118 58.5 35 28-56 61-64-15.5 42 33 53 29 8.5 49 17 5.5 34 14 63.9 6 21 35-12 30-29 7 12 16 38 34 28-34 70 48.5 90 44 149.1-13 82 86 46 40 124.9-7 5-9 12-2 18 34 28 57.5-10 186 78 48 18 75-24 119-19.8 55.5 5 38-43 78-67 13-8 47-32 19-42-36-36 67-59 31-146-29.9-72 41-93 3-149.8 15-13 20-35 13-53 13 3 19 15 25 26 30 17.5 8-52.5 33.5-66-1 15-2 53 22 31.4 30.5 49 43-10 54-6 96.5 36-69 119-27.5 129 102 24-59 131 59 180.8-174 361.4-717 354.7-886 4z"/><path d="M513 184c32 24 78.5 20 109.9-2-31.9-21-83.9-35-109.9 1.8v.2z" style="fill:#fff"/><linearGradient id="SVGID_00000006678727818027146420000015326747936323323321_" gradientUnits="userSpaceOnUse" x1="563.48" y1="-907" x2="563.48" y2="-854" gradientTransform="translate(0 1066)"><stop offset="0" style="stop-color:#ff0051"/><stop offset="1" style="stop-color:#ffae00"/></linearGradient><path style="fill:url(#SVGID_00000006678727818027146420000015326747936323323321_)" d="M548 161c-33.5 34 23 54 37 33.1 19-37.1-29-39.1-37-33.1z"/><path class="st40" d="M302 413c13 30 55 19 61-10.5 3-13-.8-27-2-40.7-3-33 15-45 47-40.6 56 8 63-33 100.6-59 58-39.8 78 46 81 54 9 24.5 35 23 44-.7 26-71 94-32.5 93.5 28.4 1 13 1 25.5 5 38 8 32 68 39.5 59 5-1.5-6-17-12-17-12 27 9 43 42 33 68.2-8 21-39.9 44-13 70.7 26 26 40 54 25 83-54 105 46 96.5-36.5 188-7 8-12 22-13 29.3-3 17 20.1 28 23 17.9 5-18 16-26 16-26-17 19-13 22-22 45-12.5 32-49 12-55 56.6-8 33-26 40.9-57 34.9-21-.5-40 13-60 19-55 17-84-17-124-47-49-29-108 16-133-68.4 10 52 53-1 30-31-33-28-59-15-50-72 3-37-23-56-40.7-84-24-47.5 18-100 9-149.3-19-49-16-105 29-139"/><path class="st40" d="M990 780c-83-49.9-26-111-22-126 10.5-57-72-89.6-43-17.2-30.8-73 59-65 64-133.5 2-30.9-29.6-52-43-16-4 10.7-22 14-29 5.5-33.5-37.5 28-86 15-129.9-18-46.5-87-28-41 16-50-46 7-130.8-48-171-36-26-48.5 49-84 2-43-57-18-72-102-77.8-36-2.5-49-31-74-52-34-29-147 14-103 48 9.7 7.5 48-6 48-6-56 24.5-128-11-182 24-34 22-6 52-50 77-24 14-50 5-80 27-62 51 17 125 26 52-4 60.5-87 54-61 114.1 9 20-11 47-31 53-88 25-42 120-13 75 3-5 1-23 1-23 4 24-9 45-19.6 65.6-31 59.5 72 90-21 171C254 1139.8 822 1144 990 780z"/><path d="M893 378c-9.8-10.9-7-32.5 4-42-11-5-25 6-25.5 18M928 637.5c1-14 10.8-28 24-33-11-5-25-13-35-3M807 802c-11 9-25 18.5-39.7 13 6.5 1.5 5 16 22 19M358 843.5c10 7 24.5 5 33-4-2 12.5-11 27-25 29M134 519.7c-5 11.5-20.5 22-33 18 6 15 26.5 24 38 10m197-177c-11 18-22 41-9.7 60.9-15-.9-26.5-17-22-32M239 298.9c-9.5 12-27 21-43 15.9 8 12 26 22 39 12M527 119c-20 3-40-4-53-21-7 13 0 31 14 36m283 242c7 9 8 22 3 32 12.5-2 24-16 17-28v1" style="opacity:.6;enable-background:new"/><path class="st16" d="M908 358.5c8 6 11 18 8 27.5m-3.5 13c0 1.5-.5 3-1 4.5m59.5 87.3c4 10 3 22-3 31m-6 12.2c-1 .8-2 2-3 2m-14 82c6 6 9 15 8 23.5m-1 11.5c0 .8-1 2-1 2.5M832 219c10 6.5 17.5 17.5 19 29m1 16c1 2 1 4 .5 6M691 150c9 3 17.5 9 23 17M535 87c-15 .9-29.7 6-42 15m56-17.5h6.5M383 148c-14 2-28 9.7-36.5 21m53.1-23h4M220 265c-9.7 10-14 24.5-12 38m26-46.8 3-1.5M205 374c-8 5-14 14-15.5 24M124 496c-8 8-13 20-12 32m15 72.8c-4 11.5-3 16 3 28m9 11.2c1 2 1 4 2 6m230 173.7c6 5 9 14 7 21m-18.1-27.2c-1-.9-2-2-3-2M447 918c12 0 25 6 34 10.9m13 10.1c1 1 2 2 4 3m183.5 16c-9-2-18-1-26 2.5M758 889c-8 5-11 14-13 22m49-117c-5 6-8 12.5-9 19.7m16-30.7 3-3m24-165c-5 13-11 27.5-8 42m3 14.6 1 4.5M805 476c-6 8-5 19 1 27m-62-135.1c2 11.5 11 22 22 25m-24-40.3-.7-4M609.6 322c5-1 10-4.5 12-9m4.4-12 1.5-3M469 277.9c-9 11-20 20.6-33.5 26.5m-12.5 2.8h-5m-68.2 83.6c-1 10-7.5 19.5-16 24M349 369c.5 3 1 5 1 8m-64.5 124c3 10 4 21 2 31m-1.5 15c-1 2-1 3-2 5m18.5 139c9 8 15 18 18 29.5"/><path class="st68" d="M128 575c8 11 23 16 29 1 4-10 0-22 1-32 2-19 19-31 36-37.9-22 56 22 61 12.5 13 65 23 20.5 38 27 69.7 7 18 23-29.8 21-36 16 6.5 15 36 34.5 33M166.5 690.6c-13-28 26-47 26-75 9 9 6 24 12 34.9 7.5 6 11-9 10.9-15M219 726c-43 26-2 64.5-21 85.5m29-57.5c5-4 8-10.5 8-17m33 35.5c4 12-1 27-12 34.5m123 111c-4 12-12 22-22 29m152 9c-2 18-28 35.5-13 54m32-19c4-5 6-11 5-16.9v-.5M803 877c-17 10-26.5 44-15 60m26-87.3c10 14 11 33 1 47.5m66-64.7c-22 7-10 36-25 50m16-208.6c-42 19-6 58-13 78m32-122.2c-27 18 7 44-10 65M813 527c12-11 16-33 2-44 23.5-3 29 1 37.5 22 1.5 8 20 9.5 9-23.1-4.5-19 12-39.7 29.8-44-4 13-9 51 13 31.5"/><path class="st40" d="M123 579c8 20 40.5 18 43-3.5 2.5-22-11-39 22-60.6-17 60 37 51 25 11.7 14 1 31 15 25 28-29 64 23 54 19 5 12 8 15 42 32 33m525-59.7c17-9 20.8-34 7-48 27-4 21 19 31 27 5 4 13 1 15.5-4.1 10-18-18-35 19-65-12 48 16 38 19.9 30M361 950c11-6 19-18.5 19.6-31 .5 10 5 25 18 24m393.4-7c-13-19 3-42 13-58.5-2 51.5 45 2.5 9.8-30.7 12 2 27 6.5 31 19.2 2 6 1 16 8 19 4 2 10 0 12-4.5 9.6-18-5.5-30 17-47-4 9 1 24 12 20.6M860.5 753c19-24-31.5-42 13.5-78-6 29 13 30 17 14 8-29-23-32 3.5-59.4-2 22 24.5 17 24 52-.1 4 2 8 5 9.8M499.7 1009c-13-12 12.5-33 11.5-51.9 7 62 37 35 25 17 34 9.6 6 44.5 32 53M200.5 813c28-30.7-23-42 19.8-85-9 43 25 35 16.5 9 22 6 17 27 12.5 43.2-12 45 33 33 21-7 23 2 23 26 17 44-5 10.7-6 22 3.5 30.8M171 689.7c-10-22 23-34.5 23-66 3 10 1 31 11.5 36 11.5 2 16-15 12-23.5 33 17-1 46 25 63M501 194c38-51 91-36 131.5-11"/><path class="st40" d="M512.5 185c32 24 79 22 109-4"/><path class="st40" d="M541 166c-4 10.6-3 23 2 33m44-2c6-9.9 5-23-1-32"/><path class="st68" d="M508 190.7c35 25 86 23 118-6"/><path class="st16" d="M575 172c3 4 3 9 2 14"/></g><circle cx="550" cy="550" r="500" style="fill:none;stroke:#000;stroke-width:10;stroke-linecap:round;stroke-linejoin:round;stroke-miterlimit:10"/></svg>