<svg version="1.1" id="Layer_1" xmlns="http://www.w3.org/2000/svg" x="0" y="0" viewBox="0 0 1100 1100" style="enable-background:new 0 0 1100 1100" xml:space="preserve" xmlns:xlink="http://www.w3.org/1999/xlink"><path d="M50 550C50 274 274 50 550 50s500 224 500 500S50 826 50 550z" style="fill:#0090ff"/><path d="M1050 550c0 276-224 500-500 500S50 826 50 550s1000-276 1000 0z" style="fill:#06f"/><path d="M533 209.1c-68 59.6-71 20-121 36.5-19.6 10.9-14 30-9.7 39.6 11 23-51 9-69 40.3-10 18 .1 42-7.5 61.8-9 19.6-34 35-37 52.2-43 48-154 7-119 70.4 6 11 33-6 39 9.1 7 17.5-39 29-21 46.7 18 5 21 39.9 57 63.2 14 20 3 51 19 69.1 35.8 38 46-25 41-34.3 4-39 44-11 22 38.7-23 52 11 74 36.5 56.6 24-9 13 39 23 50.9 19.5 37 55 12 67 12 18 1 28 22 29.8 40.3 6.5 63 54 46 59 8 15.5-34 45 49 47 59.9 11 73 69 42 71 17.9 3-54-3-60.1 2-68.3 18.5-31 71 13 90.8-15.5 14-19.7-31-63.5 8-55.4 94 19 19-101 14-120.4-9-35.5 14-106 47-121.7 18-9 17-35.5 7-52.8-9.5-17-25-30.6-31-48.9-13.5-54 22-102-36-133.3-5-3-7-9.5-4-14.4 17-26 1-66-32-71.4-22-3-44 9-66.5 6.3C616 247 579.9 178 533 209.1z" style="fill:#2fedc1"/><path d="M335 383c30 83 32 5 73 37.1 15 15.5 23 42 16 61.4-42 113 99.7 118 61 54.2-7-10.9-7.5-29 9-23.3 9.8 3.5 1 18 5 23 9 10 22-5 19-16.2-4-16.5-16-36 10.8-37.3 92-5.5 37 129.5 32 168.5-8.5 59.8 66 95 81 28.5 4-13-5-44 8-50.3 38-5.8 29 79 57 53.4 12-11 29.6-33 39-6.7 6.5 15 17 50.1 38.5 34" style="opacity:.6;fill:none;stroke:#000;stroke-width:10;stroke-linecap:round;stroke-linejoin:round;stroke-miterlimit:10;enable-background:new"/><path d="M782 697.2c-28-63 23-79 24-126.3 78-11 .7-76-6.5-96.5-17-50 24-120-45-146.2 28-27 9-81.5-29.9-83.8-111 20-69.5-13-164-40.6-39.9 5-47 46-138 37.8-24 5-36 40-9 49.7-19 18-55-3-76 29.9-17 26-9 52 7.5 84.6 18 36 27 9 35 5.9 37-13.5 50.5 48 42 78.1-25 91 73 116 67 59.3-1-11-14-22-9-33.3 3-5 11-7.5 15-2.6 4 5-2 13 1 19 8 15 30-2 17-21-29-42 71-54 72 29.9 0 37-19 70-23 106.3-8 75 86 103 78-3.8-2-23.5 15-23 28-10.8 19.6 19.6 9 43 24 51.3 17 9.9 43-67 62 10.2 5.8 25.3 35.5 23.7 27.9 2.9z" style="fill:#ed2fd4"/><style>.st40{fill:none;stroke:#000;stroke-width:10;stroke-linecap:round;stroke-linejoin:round;stroke-miterlimit:10}.st98{opacity:.6;enable-background:new}</style><g id="Outline"><path class="st98" d="M793 537c-1 .7-1 2-.5 3 5 10 11 35 25 30 8-2 21-13 18-22.4-.5-1-2-2-3-1.5-26 12-28-11-39-9.4v.3zm-34 274.5c6 5 26 8 25-3-6-7-20.6-12-21.5-26C750 772 744 803 759 811.5zm-219.3 52s1 .5 1 .8c9 13.5-3 36-18 40-34 6-9-6-6-44 .3-5.3 22.3 2.7 23 3.2zM342 731c5 7-4 22-4 33 8 13 29.6-5 33-14.9 2-12-17-21-28-20.2-1 .1-1 1.1-1 2.1zm31-120.2c2 23-8 47-26 61.9-13 10.9-17.5-30.6-8-27.9 6 4.2 28-18.8 34-34zm-157-59.9c-8 6-17 3-25 1-11 5 4 20 13.5 16 5-4 12-9 12-15.7-.5-.2-1.5-.2-.5-1.3zM337 473c-6-10-3-23 0-34 0-1 0-2-.6-2-9-9-23 11-19.8 20.7C318 463 338 475 337 472.8v.2z"/><path class="st98" d="M326 392c-2 29 24 45 7 44-7 2-14 1-15 11-1 11-24 0-24.5-1.3C285 433 317 404.5 326 392zm103-118c-9.9-4-16-16-18-25-4-6-9.9 1-11 6-7 54 29.5 28 29 19zm293 9c16 21 29.5 12 40 20.7 3 4 1 9.6-1 14-3 9-13 9-20 4.1-14.5-5.8-22-22.2-19-38.8z"/><path class="st40" d="M347 729c53.5 5 15 86 59 102 25 9 37-19.8 55-11.9 23 10.1 19.6 40 24 60.7 9.6 46 63 29.6 58-12.8"/><path class="st40" d="M519 861c89-9 47.5 119 114.5 115 39-6 35-47 25-76.5-3-9 0-18.5 7-24.5 24.5-21 59 15.5 84-2.5 15-11 8-33-2-45-12-15 0-32 10-43"/><path class="st40" d="M790 539c53 69.8-64 71 8 194.5 6 14 11 32 11 48.5 0 32-49 47.5-61 16"/><path class="st40" d="M721 287c2 51 64 31 74 88 6 34-11.5 71 7 103 10 18 27 31.5 34 51 8 19-4 47-27 42"/><path class="st40" d="M407 290.6c-16-8-12-29.9-2-41 17-15 40.5-10 61-6 29.8 1 49-29 75-38 50-17 81 55 133 44 23-5 48-11 69 1 25 14 33 55 10 75"/><path class="st40" d="M428 278c-16 26.5-51 17.5-76 28.5-20 10.5-28 33-23 55 10 47-43 51-39 88m25 4.5c1.5-23 35-26 41-5 7 25-13 47 16 72"/><path class="st40" d="M334 476c-20-34-61-31.5-89-9.6-20 8-43-3-64 4-22 7-28 37-5 43.5 6.5 2 23-2 26-1 15 4 11 25-5 30-21 6-10 29 6 29"/><path class="st40" d="M216 554.5c-15 15-14 41 2 55 37 22 41 31 36 69.7-2 31 46 41 53.5 10 2-10.8-4-22 0-33 13-32 44 20 62-44.5"/><path class="st40" d="M327 647.9c25 29.7-.5 47-7 75-10 32.5 34 65 53 25"/><path d="M729 262.5c9 4 16 13 18 22.5m-193-68c12.5 2 24.5 8 34 16m9 9 3 3m-163 10c-5.5-.9-12 .6-15.5 4M362 319.6c-9 2-14 10.7-16 19M339 449c4 1 6 6 6 9.8M308.5 470c-12-6-16-5-22-4M175 492c1-4 5-7 9-7.5m38 89.5c-4 8 0 16 4 19.9m44 78.6c-1 6 1 15 9 18m76-77.5c-3 14-13 14.5-16 16m4.5 119.5c-5-3-9-9-8-15M397 782c-1 14.5 7 28 14 30m90 53.9c-3 12 2 27 14.5 25M636 957c14-3 17-28 11-38m96-60.1c1-7 0-14-4-19m46-49.1c8-6.5 9-25 3-39M786 582c5-8 3-19-3-26m37-12c2-8.5-.6-18-7-24m-56-169c18 6 22 30 21 35" style="opacity:.7882;fill:none;stroke:#fff;stroke-width:10;stroke-linecap:round;stroke-linejoin:round;stroke-miterlimit:10;enable-background:new"/></g><linearGradient id="a12" gradientUnits="userSpaceOnUse" x1="234.425" y1="-533.764" x2="348.416" y2="-471.769" gradientTransform="translate(0 1066)"><stop offset="0" style="stop-color:#e0f"/><stop offset=".098" style="stop-color:#e002ff"/><stop offset=".286" style="stop-color:#ba07ff"/><stop offset=".543" style="stop-color:#7c0eff"/><stop offset=".857" style="stop-color:#2919ff"/><stop offset="1" style="stop-color:#001eff"/></linearGradient><path style="fill:url(#a12)" d="M329 545.2c-2-47-53-63-76-27-7 11-9 27-1 38 5.8 8 15 12 19 21 5 13-6 28 0 39.9 16 22 43-1.5 35-25-14.5-31.1 24-18.1 23-47.1v.2z"/><path d="M264 506c-18 25 30 88 55 57.9 22.5-21 3-59-24.5-63.3-10.5-2-23.5-4-30.5 5.2v.2z" style="opacity:.3412;fill:#fff;enable-background:new"/><path d="M329 545c-1.5-47-53-63-76-27-7 11-9 27-1 38 5.8 8 15 12 19 21.4 5 13-6 28 0 39.9 16 22 43-1.5 35-25-14.5-31.3 24-18.3 23-47.3z" style="fill:none;stroke:#000;stroke-width:10;stroke-linecap:round;stroke-linejoin:round;stroke-miterlimit:10"/><path d="M262 503c-19 13-29.7 41-14 60.5 5 6 12 10 16 17 5.5 12-3 28 3.5 39.5 4 7 13 9.8 19.7 7" style="opacity:.6;fill:none;stroke:#000;stroke-width:10;stroke-linecap:round;stroke-linejoin:round;stroke-miterlimit:10;enable-background:new"/><path d="M295.5 515c7 4 12 9.6 16 16m3.5 12c.5 1 1 2 1 3" style="fill:none;stroke:#fff;stroke-width:10;stroke-linecap:round;stroke-linejoin:round;stroke-miterlimit:10"/><style>.st40{fill:none;stroke-width:10;stroke-linecap:round;stroke-linejoin:round;stroke-miterlimit:10;stroke:#000}.st152{fill:#ae0f45}</style><g id="Ooooo"><path d="M571 686c16 10 49 36 53.5 36.9 45-10.5 81 9 84 8 40-27 67-50 32-96.9-22-15-36 36-46 45-46 43-76.5-30-123.5 6.6v.4z"/><path d="M436 659c-55 31 27 58 37.5 80-13 40 24 108 52 62.5 49.9-81 57 28 71 47.9 30.1 43 62-2 45-38-5-10.8-24-62 21-34 48 29.8 62-18 47-40.7-25-38-83-4-103-22.1-10-9-27-43-91-13C487 702 459 639 436 658.7v.3z" style="fill:#fe1767"/><path class="st152" d="M427 699c23-21 47 6 67 17 54 29 76-27 132 11.9-47-62-67.5-32-92-27.7-34 6-56-28-81-45-26-8-41 18-26 43.5v.3z"/><path class="st152" d="M641 751c-6-12 19.7-27 30.6-28-13-7-39-6.5-47 7.1L641 751z"/><path d="M585 711c10 5 18 14 24 24m9 11c1.5 1 3 3 4 5m42-19c9.9 1 19 6 26.5 13" style="fill:none;stroke:#fff;stroke-width:10;stroke-linecap:round;stroke-linejoin:round;stroke-miterlimit:10"/><path class="st40" d="M433 656c-13 4-18 24-13 36.9 14 34 68 24 53 70-11 36 31 72 47 42.5 38-68 66-20 69 28 2 29 48 55 57 10 4-19-7-35-14-52-8-18 11-26 25-16.9 1 1 2 2 3.5 3 15.5 14 32 22 48 2 23.5-30-20.9-45 32-72 26-13 20-53 3-71.6-20-17.5-32 6-39 24-29 77-88-3-127 21-98 60-94-40.9-145-25.1v.2z"/><path class="st40" d="M568 686.9c29 12 55 37 70 64M623 725c26-15 63-5 87 12"/><path d="M417.5 665.9c-34 63 71.5 42 49 107-11 31 28 65 56 41 13-11 18-38 39-35 24 8 17 48 29 68 32 54 97 16 49-58-7-11 7-25 25-6 35.5 36.5 64 4 59-34.7-5-44 38-35 32-66" style="opacity:.6;fill:none;stroke:#050505;stroke-width:10;stroke-linecap:round;stroke-linejoin:round;stroke-miterlimit:10;enable-background:new"/></g><style>.st40,.st68{fill:none;stroke-width:10;stroke-linecap:round;stroke-linejoin:round;stroke-miterlimit:10;stroke:#000}.st68{opacity:.6;enable-background:new}</style><g id="x_eyes"><linearGradient id="SVGID_00000123421585906372433950000010468793376997334150_" gradientUnits="userSpaceOnUse" x1="562.696" y1="720.109" x2="599.725" y2="465.91" gradientTransform="matrix(1 0 0 -1 0 1100)"><stop offset="0" style="stop-color:#ff0080"/><stop offset="1" style="stop-color:#90f"/></linearGradient><path style="fill:url(#SVGID_00000123421585906372433950000010468793376997334150_);stroke:#000;stroke-width:10;stroke-linecap:round;stroke-linejoin:round;stroke-miterlimit:10" d="M435 547c-3 7-12 10.6-19 11-15 2-24-13-22-28 3-22.5 25-39 27.5-61.9 3-26 9-48 23-63.9 25-28 46-25 62-22 61 13 54 118 114 74 0 0-6 4-8 3.9-17-2-7-35 9-42 27-12 20-13 27.5-27 1-3 3-5 4.5-7.5 40-46 106-5 102 41.9-3 39 16.5 48 16 69 0 13-9 19-20 24-7 3-13 9-16 17-8 19-6 46-28 54.7-21 8-28-20-46-22 0 0 8 1.5 9 4 16 30-47 42-31.5-11.5 14-49-62-70.6-80-23.2-6 16-2 36-9 52-5 10.6-17 19.7-28 14-23-12-32-9.5-49 10-16 18-40-2-39-23.4-.5-18 8-39-5-55"/><path class="st40" d="M464 433c21 42 42 84 62 126"/><path class="st40" d="M529 436c-24 47.5-41 83.5-63 129m195.5-151L722 525m0-108c-19.7 41-36 76-58 117"/><path class="st68" d="M451 392.9c-29 19-28 57-39 86-9 23-29.9 45-20 70.6 7 18 22 19 37 12.4 9-4-8 36 10.5 54.5 29 29 39.6-13 64-13 12 3 25 11.5 35-.9m61.3-90.5c46 17 33 33 31 67.5-1.5 26 35 34 48 9.6 1 0 3 1 4 1.6 11 10 31 7 38-7M678 364.5c-19 5-29 22-39 37-5 8-16 9-23 15-24 18-13 39-17 47.5m-140-29 64 127"/><path class="st68" d="M469 569c24-48 42-87 65-132m122.5-21c22 41 41 75 62 113.5"/><path class="st68" d="M727 420.9c-18 39.5-39.7 77-59 116"/><path d="M720 386c7 6 13 13.5 16.5 22m4.5 12v4m12 54c3 5 5 12 5 18m-42 62c-1 7-5 14-11 18m14-30 .5-2M621 439c2-5 6-8 10.7-9M512 400c7 4 14 9 18.5 16m-31-19-3-1m-87 145c-2-6-1-13 2-18v0m5.5-10 1-2m124 59.8c0 5-2 10.7-5.5 15M543 559v-3m-74 45c-2.5 3.5-7 6-11 5.5" style="fill:none;stroke:#fff;stroke-width:10;stroke-linecap:round;stroke-linejoin:round;stroke-miterlimit:10"/><path class="st68" d="M662 569c6 6 5 14 2 22m-54.3-145c0 7 4 11 11 12M430 536c1 8-2 12-7 18"/></g><style>.st40{fill:none;stroke-width:10;stroke-linecap:round;stroke-linejoin:round;stroke-miterlimit:10;stroke:#000}</style><g id="UFO"><linearGradient id="SVGID_00000052093412861450223020000006077325903456914337_" gradientUnits="userSpaceOnUse" x1="88.118" y1="817.204" x2="984.044" y2="404.238" gradientTransform="matrix(1 0 0 -1 0 1100)"><stop offset="0" style="stop-color:#0fe"/><stop offset=".119" style="stop-color:#00eaf0"/><stop offset=".366" style="stop-color:#00b3f3"/><stop offset=".717" style="stop-color:#005cfa"/><stop offset="1" style="stop-color:#01f"/></linearGradient><path style="opacity:.5882;fill:url(#SVGID_00000052093412861450223020000006077325903456914337_);enable-background:new" d="M173 747.6c7 19.5 25 35 45 39.8 15 4 31 2 45 9 17 9 24 30.1 39 42 21 16 49.9 12 75 19.5 32 9.7 57 39 91 39 22 0 43-14 65-13 29.7 2 56 32 85 22 19-6 33-29.7 47-34.3 15-5 42 5 63 0 23-5.8 36-31 58-40 20-8 44-2 64-10.9 21-9.7 31-36 53-44.7 18-6 52-9 44-33.5-13-42-8-70 3-107 8-43.5-25-88-15-130.7 23-101 25-80-19-146.8-8-12-13-25-16-38.9-14-67-8-52.5-73-108-48-68-29-71.5-117-87-50.5-24-57.5-49-114-17.5-42.5 17-94-20-136.5-2-14 6-24 20-38 28-28 16-64 8-93 23-35 19-45 66-76 91.6-25 20-64 25-79.8 54-15 27-1 63-13 92-9 21-31 35-42 55-28 52 14 77 24 120.9 2 18-7 36-1 53 5 14 18 24 23 37.9 8.3 26-2.7 55 9.3 87.6z"/><linearGradient id="SVGID_00000014634002599790706590000007480268852462571909_" gradientUnits="userSpaceOnUse" x1="51.144" y1="546.313" x2="924.144" y2="144.313" gradientTransform="matrix(1 0 0 -1 0 1100)"><stop offset="0" style="stop-color:#0fe"/><stop offset=".119" style="stop-color:#00eaf0"/><stop offset=".366" style="stop-color:#00b3f3"/><stop offset=".717" style="stop-color:#005cfa"/><stop offset="1" style="stop-color:#01f"/></linearGradient><path style="fill:url(#SVGID_00000014634002599790706590000007480268852462571909_)" d="M78 694c136 465 796 470 953 3-51-46-72-7-89.9-23-17 109.9 58 54-57 117.5-57 57-26 22-98 41.5-73 63-99 32-114 40-72 38-38 48.5-124 15-68-26-46 45-168-30-98-9.6-60.7-17-122.5-64.2-115-7-76.5-94-93-132.5-21 12-59.6-33-66-4C95 665 108 681 78 694z"/><linearGradient id="SVGID_00000040570000435657401070000006676274140463924904_" gradientUnits="userSpaceOnUse" x1="470.203" y1="186.441" x2="598.203" y2="127.441" gradientTransform="matrix(1 0 0 -1 0 1100)"><stop offset="0" style="stop-color:#ff00b7"/><stop offset=".112" style="stop-color:#ea01bd"/><stop offset=".345" style="stop-color:#b305cc"/><stop offset=".674" style="stop-color:#5c0be5"/><stop offset="1" style="stop-color:#01f"/></linearGradient><path style="fill:url(#SVGID_00000040570000435657401070000006676274140463924904_)" d="M469 947.5c9.5 15 165 18 137-7-30-11.5-117-22.5-137 7z"/><linearGradient id="SVGID_00000078735920158305873170000016324894399582867873_" gradientUnits="userSpaceOnUse" x1="475.835" y1="134.644" x2="581.835" y2="85.644" gradientTransform="matrix(1 0 0 -1 0 1100)"><stop offset="0" style="stop-color:#f0b"/><stop offset=".112" style="stop-color:#ea01c1"/><stop offset=".345" style="stop-color:#b305cf"/><stop offset=".674" style="stop-color:#5c0be6"/><stop offset="1" style="stop-color:#01f"/></linearGradient><path style="fill:url(#SVGID_00000078735920158305873170000016324894399582867873_)" d="M476 990.9c4 17.5 131 19 113-1-24-15.9-110-14.9-113 1z"/><linearGradient id="SVGID_00000040576056771940554690000009644892743006637244_" gradientUnits="userSpaceOnUse" x1="723.734" y1="198.854" x2="762.734" y2="127.854" gradientTransform="matrix(1 0 0 -1 0 1100)"><stop offset="0" style="stop-color:#f0b"/><stop offset=".112" style="stop-color:#ea01c1"/><stop offset=".345" style="stop-color:#b305cf"/><stop offset=".674" style="stop-color:#5c0be6"/><stop offset="1" style="stop-color:#01f"/></linearGradient><path style="fill:url(#SVGID_00000040576056771940554690000009644892743006637244_)" d="M693.5 956c46 15 78.5 1 97-43.2-29-5-88.5 10-97 42.9v.3z"/><linearGradient id="SVGID_00000029764979584713055750000007202888973149945790_" gradientUnits="userSpaceOnUse" x1="715.955" y1="175.902" x2="767.955" y2="151.902" gradientTransform="matrix(1 0 0 -1 0 1100)"><stop offset="0" style="stop-color:#0fe"/><stop offset=".119" style="stop-color:#00eaf0"/><stop offset=".366" style="stop-color:#00b3f3"/><stop offset=".717" style="stop-color:#005cfa"/><stop offset="1" style="stop-color:#01f"/></linearGradient><path style="fill:url(#SVGID_00000029764979584713055750000007202888973149945790_)" d="M736.5 962.4c47-6 33-29 25-46-4.5-4-75.5 2-25 45.6v.4z"/><linearGradient id="SVGID_00000105387854398217304660000015504163398393846920_" gradientUnits="userSpaceOnUse" x1="343.873" y1="238.715" x2="309.873" y2="134.715" gradientTransform="matrix(1 0 0 -1 0 1100)"><stop offset="0" style="stop-color:#d0f"/><stop offset=".127" style="stop-color:#c802ff"/><stop offset=".391" style="stop-color:#9106ff"/><stop offset=".765" style="stop-color:#3a0dff"/><stop offset="1" style="stop-color:#01f"/></linearGradient><path style="fill:url(#SVGID_00000105387854398217304660000015504163398393846920_)" d="M276 876.8c23 69.8 104 63.5 107 56.9-12-45.7-62-78.7-107-56.9z"/><linearGradient id="SVGID_00000103960858358242042230000018149012917894115987_" gradientUnits="userSpaceOnUse" x1="298.825" y1="209.619" x2="361.825" y2="180.619" gradientTransform="matrix(1 0 0 -1 0 1100)"><stop offset="0" style="stop-color:#0fe"/><stop offset=".119" style="stop-color:#00eaf0"/><stop offset=".366" style="stop-color:#00b3f3"/><stop offset=".717" style="stop-color:#005cfa"/><stop offset="1" style="stop-color:#01f"/></linearGradient><path style="fill:url(#SVGID_00000103960858358242042230000018149012917894115987_)" d="M304 895.5c-17 26 44 59.9 56 26 19.5-28-40.8-67-53-32l-3 6z"/><path class="st40" d="M173 748c7 19.5 25 35 45 39.8 15 4 31 2 45 9 17 9 24 30 39 41.7 21 16 49.9 12 75 19.5 32 9.7 57 39 91 39 22 0 43-14 65-13 29.7 2 56 32 85 22.1 19-6 33-29.5 47-34 15-5 42 5 63 0 23-5.8 36-31 58-40 20-8 44-2 64-10.9 21-9.7 31-36 53-45 18-6 52-9 44-33.5-13-42-8-70 3-107 8-43.5-25-88-15-130.7 23-101 25-80.5-19-147-8-12-13-25-16-38.9-14-67-8-52.5-73-108-48-68-29-71.5-117-87.4-50.5-24-57.5-49-114-17.5-42.5 17-94-20-136.5-2-14 6-24 20-38 28-28 16-64 8-93 22.7-35 18.5-45 66-76 92-25 20-64 25-79.8 54-15 27-1 63-13 92-9 21-31 35-42 55.3-27.5 52 14 77 24 120.9 2 18-7 36-1 53 5 14 18 24 23 37.9 8 26-3 55 9 87.6v.4z"/><path class="st40" d="M943 675c17 19 39.7-17 64 4 7 6 10 16.5 21 16m-928-16c-14-14 3-39 20.6-29.9 15 8 24 21 43 13.5"/><path class="st40" d="M112 674.9c-11 8-24 14-37 17m186 189c56-30 115 4 126 65"/><path class="st40" d="M273 877c14 43 66 73 109 57m422-19c-46-16-99 9-122 51"/><path class="st40" d="M791 912c-15 49-62.5 59.9-99.7 44M612 945.5c-2-20.5-144-21-145 3 0 14.5 147 18.5 145-3zM592 993c.9-15-118-25-118-1 1 13 117 21 118 .8v.2z"/><path class="st40" d="M717 929.6c-1 12 5 24 14 32m26-49.6c9 7 15 18 16 29.8M320 873c-11 9.6-19 24-20 38.5m65-13.5c3.5 13-8 34-20 39"/><path d="M844.5 257c14 7 24 20 27 35m3.5 27v6m46 84.9c8 12 10.5 29 5 43M741 154c14 4 27 14 34 26m-142-65c12 0 23 5 31 13.5M917 575c8 17 11 36 9 54m-8.5 27-1.5 7.5" style="opacity:.6392;stroke:#fff;stroke-width:20;enable-background:new;fill:none;stroke-linecap:round;stroke-linejoin:round;stroke-miterlimit:10"/><path d="M171 740c4 61 68 53 79 58 47.5 23 36 59 105 60.5 40 1 64 33 99 44 29 6 58-12 88-9 27 3 52 26 79 18 49.8-25 16-38 107.5-34 23 1 36-27 55-37.1 46-18 66.5 5 103-45 24-32 65-12 62-46M266 880c19.5 47 66 72 116 59m87 11c12 21 132 23 143-1m-136 45c15 21 99 23 115 3m96-33c48 15 89 1 109.5-47M112 674.9c-8 3-16.5-6-15-17" style="opacity:.6;enable-background:new;stroke:#000;fill:none;stroke-width:10;stroke-linecap:round;stroke-linejoin:round;stroke-miterlimit:10"/><path d="M986 688c6-.5 12 3 15 8m9 7 3 2m-902-44c4 0 8 1 11 4m9 8 4 1m217 226.5c1 5-.5 9.6-3 14m-6 8.5-2.3 2m409.3 0c4 3 7 7 9 12m-214 5c12-1 24 0 35 3m-40.2 45.5c8-1 16 0 24 1.5" style="fill:none;stroke:#fff;stroke-width:10;stroke-linecap:round;stroke-linejoin:round;stroke-miterlimit:10"/></g><circle cx="550" cy="550" r="500" style="fill:none;stroke:#000;stroke-width:10;stroke-linecap:round;stroke-linejoin:round;stroke-miterlimit:10"/></svg>