<svg version="1.1" id="Layer_1" xmlns="http://www.w3.org/2000/svg" x="0" y="0" viewBox="0 0 1100 1100" style="enable-background:new 0 0 1100 1100" xml:space="preserve" xmlns:xlink="http://www.w3.org/1999/xlink"><path d="M50 550C50 274 274 50 550 50s500 224 500 500S50 826 50 550z" style="fill:#0090ff"/><path d="M1050 550c0 276-224 500-500 500S50 826 50 550s1000-276 1000 0z" style="fill:#06f"/><linearGradient id="a3" gradientUnits="userSpaceOnUse" x1="432.676" y1="-700.409" x2="789.687" y2="-76.39" gradientTransform="translate(0 1066)"><stop offset="0" style="stop-color:#5900ff"/><stop offset="1" style="stop-color:#f06"/></linearGradient><path style="fill:url(#a3)" d="M302.5 412.2c13 30 55 19 61-10.5 3-13-.8-27-2-40.7-3-33 15-45 47-40.6 56 8 63-33 100.6-58.7 58-39.6 78 46 81 54 9 24.5 35 23 44-.7 26-71 94-32.5 93.5 28 1 13 1 25.5 5 37.6 8 32 68 39.5 59 5-1.5-6-17-12-17-12 27 9 43 42 33 68-8 21-39.9 44-13 70.7 26 26 40 54 25 83-54 105 46 96.5-36.5 188-7 8-12 22-13 29-3 17 20.1 28 23 17.9 5-18 16-26 16-26-17 19-13 22-22 45-12.5 32-49 12-55 57-8 33-26 40.9-57 34.9-21-.5-40 13-60 19-55 17-84-17-124-47-49-29-108 16-133-68 0 0 5 18 9.5 20.3 21 11 36-34 20.5-51.5-13-15-39-16-48-34-6-11-3-25-2-37.9 3-37-23-56-40.7-84.1-24-47.5 18-100 9-149-19-49-16-105 29-138.6L302.5 412v.2z"/><path d="M533 209.1c-68 59.6-71 20-121 36.5-19.6 10.9-14 30-9.7 39.6 11 23-51 9-69 40.3-10 18 .1 42-7.5 61.8-9 19.6-34 35-37 52.2-43 48-154 7-119 70.4 6 11 33-6 39 9.1 7 17.5-39 29-21 46.7 18 5 21 39.9 57 63.2 14 20 3 51 19 69.1 35.8 38 46-25 41-34.3 4-39 44-11 22 38.7-23 52 11 74 36.5 56.6 24-9 13 39 23 50.9 19.5 37 55 12 67 12 18 1 28 22 29.8 40.3 6.5 63 54 46 59 8 15.5-34 45 49 47 59.9 11 73 69 42 71 17.9 3-54-3-60.1 2-68.3 18.5-31 71 13 90.8-15.5 14-19.7-31-63.5 8-55.4 94 19 19-101 14-120.4-9-35.5 14-106 47-121.7 18-9 17-35.5 7-52.8-9.5-17-25-30.6-31-48.9-13.5-54 22-102-36-133.3-5-3-7-9.5-4-14.4 17-26 1-66-32-71.4-22-3-44 9-66.5 6.3C616 247 579.9 178 533 209.1z" style="fill:#2fedc1"/><path d="M335 383c30 83 32 5 73 37.1 15 15.5 23 42 16 61.4-42 113 99.7 118 61 54.2-7-10.9-7.5-29 9-23.3 9.8 3.5 1 18 5 23 9 10 22-5 19-16.2-4-16.5-16-36 10.8-37.3 92-5.5 37 129.5 32 168.5-8.5 59.8 66 95 81 28.5 4-13-5-44 8-50.3 38-5.8 29 79 57 53.4 12-11 29.6-33 39-6.7 6.5 15 17 50.1 38.5 34" style="opacity:.6;fill:none;stroke:#000;stroke-width:10;stroke-linecap:round;stroke-linejoin:round;stroke-miterlimit:10;enable-background:new"/><path d="M782 697.2c-28-63 23-79 24-126.3 78-11 .7-76-6.5-96.5-17-50 24-120-45-146.2 28-27 9-81.5-29.9-83.8-111 20-69.5-13-164-40.6-39.9 5-47 46-138 37.8-24 5-36 40-9 49.7-19 18-55-3-76 29.9-17 26-9 52 7.5 84.6 18 36 27 9 35 5.9 37-13.5 50.5 48 42 78.1-25 91 73 116 67 59.3-1-11-14-22-9-33.3 3-5 11-7.5 15-2.6 4 5-2 13 1 19 8 15 30-2 17-21-29-42 71-54 72 29.9 0 37-19 70-23 106.3-8 75 86 103 78-3.8-2-23.5 15-23 28-10.8 19.6 19.6 9 43 24 51.3 17 9.9 43-67 62 10.2 5.8 25.3 35.5 23.7 27.9 2.9z" style="fill:#ed2fd4"/><style>.st40{fill:none;stroke:#000;stroke-width:10;stroke-linecap:round;stroke-linejoin:round;stroke-miterlimit:10}.st98{opacity:.6;enable-background:new}</style><g id="Outline"><path class="st98" d="M793 537c-1 .7-1 2-.5 3 5 10 11 35 25 30 8-2 21-13 18-22.4-.5-1-2-2-3-1.5-26 12-28-11-39-9.4v.3zm-34 274.5c6 5 26 8 25-3-6-7-20.6-12-21.5-26C750 772 744 803 759 811.5zm-219.3 52s1 .5 1 .8c9 13.5-3 36-18 40-34 6-9-6-6-44 .3-5.3 22.3 2.7 23 3.2zM342 731c5 7-4 22-4 33 8 13 29.6-5 33-14.9 2-12-17-21-28-20.2-1 .1-1 1.1-1 2.1zm31-120.2c2 23-8 47-26 61.9-13 10.9-17.5-30.6-8-27.9 6 4.2 28-18.8 34-34zm-157-59.9c-8 6-17 3-25 1-11 5 4 20 13.5 16 5-4 12-9 12-15.7-.5-.2-1.5-.2-.5-1.3zM337 473c-6-10-3-23 0-34 0-1 0-2-.6-2-9-9-23 11-19.8 20.7C318 463 338 475 337 472.8v.2z"/><path class="st98" d="M326 392c-2 29 24 45 7 44-7 2-14 1-15 11-1 11-24 0-24.5-1.3C285 433 317 404.5 326 392zm103-118c-9.9-4-16-16-18-25-4-6-9.9 1-11 6-7 54 29.5 28 29 19zm293 9c16 21 29.5 12 40 20.7 3 4 1 9.6-1 14-3 9-13 9-20 4.1-14.5-5.8-22-22.2-19-38.8z"/><path class="st40" d="M347 729c53.5 5 15 86 59 102 25 9 37-19.8 55-11.9 23 10.1 19.6 40 24 60.7 9.6 46 63 29.6 58-12.8"/><path class="st40" d="M519 861c89-9 47.5 119 114.5 115 39-6 35-47 25-76.5-3-9 0-18.5 7-24.5 24.5-21 59 15.5 84-2.5 15-11 8-33-2-45-12-15 0-32 10-43"/><path class="st40" d="M790 539c53 69.8-64 71 8 194.5 6 14 11 32 11 48.5 0 32-49 47.5-61 16"/><path class="st40" d="M721 287c2 51 64 31 74 88 6 34-11.5 71 7 103 10 18 27 31.5 34 51 8 19-4 47-27 42"/><path class="st40" d="M407 290.6c-16-8-12-29.9-2-41 17-15 40.5-10 61-6 29.8 1 49-29 75-38 50-17 81 55 133 44 23-5 48-11 69 1 25 14 33 55 10 75"/><path class="st40" d="M428 278c-16 26.5-51 17.5-76 28.5-20 10.5-28 33-23 55 10 47-43 51-39 88m25 4.5c1.5-23 35-26 41-5 7 25-13 47 16 72"/><path class="st40" d="M334 476c-20-34-61-31.5-89-9.6-20 8-43-3-64 4-22 7-28 37-5 43.5 6.5 2 23-2 26-1 15 4 11 25-5 30-21 6-10 29 6 29"/><path class="st40" d="M216 554.5c-15 15-14 41 2 55 37 22 41 31 36 69.7-2 31 46 41 53.5 10 2-10.8-4-22 0-33 13-32 44 20 62-44.5"/><path class="st40" d="M327 647.9c25 29.7-.5 47-7 75-10 32.5 34 65 53 25"/><path d="M729 262.5c9 4 16 13 18 22.5m-193-68c12.5 2 24.5 8 34 16m9 9 3 3m-163 10c-5.5-.9-12 .6-15.5 4M362 319.6c-9 2-14 10.7-16 19M339 449c4 1 6 6 6 9.8M308.5 470c-12-6-16-5-22-4M175 492c1-4 5-7 9-7.5m38 89.5c-4 8 0 16 4 19.9m44 78.6c-1 6 1 15 9 18m76-77.5c-3 14-13 14.5-16 16m4.5 119.5c-5-3-9-9-8-15M397 782c-1 14.5 7 28 14 30m90 53.9c-3 12 2 27 14.5 25M636 957c14-3 17-28 11-38m96-60.1c1-7 0-14-4-19m46-49.1c8-6.5 9-25 3-39M786 582c5-8 3-19-3-26m37-12c2-8.5-.6-18-7-24m-56-169c18 6 22 30 21 35" style="opacity:.7882;fill:none;stroke:#fff;stroke-width:10;stroke-linecap:round;stroke-linejoin:round;stroke-miterlimit:10;enable-background:new"/></g><defs><linearGradient id="zl" x1="574.42" y1="410.83" x2="618.38" y2="675.51" gradientUnits="userSpaceOnUse"><stop offset="0" stop-color="#00ff19"/><stop offset=".22" stop-color="#00fa46"/><stop offset=".7" stop-color="#00eeb6"/><stop offset="1" stop-color="#00e6ff"/></linearGradient><style>.zl-3{fill:none;stroke-linecap:round;stroke-linejoin:round;stroke-width:10px;stroke:#000}</style></defs><path d="M746.4 534.9c13.5 7.2 27.2-7.7 21.7-22.5-4.6-12.5-17-13.9-17-35.5 0-45.9-85.7-81.3-142.9-1.3-25.4 35.5-44.1-49.3-124-44.7-38.6 2.2-84.3 38.4-70.1 76.9 31 84.2 9.1 85.6 18.1 107.2 5.8 13.7 26.8 18.9 35.1 4.2 19.3 25.5 52.7 36.3 76.4 9.9 57.9 26.7 37.8-55 32.1-74.1-3.2-45.4 46.6-36.5 51.6-5.4 2.6 16.2-3.4 85.5 34.5 44.1 8.8 6 10.9 17.4 16.6 25.9 16.3 24.1 45.5 11.2 42.2-17 41.4 1.7 44.3-39.2 25.7-67.7Z" style="fill:url(#zl)"/><path d="M438.8 449.7a25.8 25.8 0 0 1 3.2 5.3l40.5 89.1 14.5-19.4 34 113.4s15.8-8.2 16.6-6.9c13.2 12.2 32.4-1.9 37.5-15.9l-86.3-125.8-11.2 26-25.8-78.5m180 6.5 1.7 3.3 17.9 81.5 13.3-14.7s20.7 118 20.7 118.8c22.6 2.6 24.8-13.8 24.4-31.7 8.1 1.5 14.9-1 21.4-5l-63.5-114.4-9.1 21.6-4-70.7" style="fill:#fff;opacity:.47"/><path class="zl-3" d="M458.7 607.4c9.5 6.5 14.6 17.9 23 25.8 17.5 16.1 46.2 12.8 62-4.2 4.3-4.6 8-10 13.6-12.8"/><path class="zl-3" d="M546 629c16.3 20.4 42.6-2.4 40.4-24.8-1.8-19.2-13.8-36.8-11.7-56 4.9-44.6 58.3-24.1 53.7 12.5-7.8 60.9 32.4 47.9 32.4 31.3"/><path class="zl-3" d="M653.4 587.4c25.2 6.3 18.1 44.5 44.5 45.9 11.1.6 24.3-10.8 22.6-25.1-1.2-10.5-9.2-13.3-6-24.3m5.2 15.7c19.4 6.2 39.7-10.2 39.6-30.5-.1-17.6-18.1-30.4-17.3-47.5"/><path class="zl-3" d="M746.4 534.9c13.5 7.2 27.2-7.7 21.7-22.5-4.6-12.5-17-13.9-17-35.5 0-45.9-56.4-50.9-75.3-47.5s-32.8 11.4-67.6 46.2c-30.9 30.9-44.1-49.3-124-44.7-38.6 2.2-84.3 38.4-70.1 76.9 31 84.2 9.1 85.6 18.1 107.2 5.8 13.7 26.8 18.9 34.5 4.6"/><path d="M428.9 449.8c-51.5 33.4 2.4 85.8-3.3 135.8-1.6 14-2.6 35.5 14.5 39.7m17.6-18.2c1.8 5.9 2.6 12.4-.2 17.8m100.2-8.6c-2.4 5.2-4.6 11.2-2.8 16.8m98-45.3a19.7 19.7 0 0 1-1.7 15.4m63.6-18.4c3.6 7 9.7 13.6 17.8 14.8m9.6-78.8a23.7 23.7 0 0 0 16.6 14.6m-292.7 90.2c7.1 9.4 17.8 19 30.4 16.6m45.9-9.1c7.6 6.5 19.7 6.8 28.5 1m28.9-109.4c42.3 24.6 7.5 57.5 35.3 77.9m26.3-2.6c8.7 9.5 10.9 24.3 22 32.1 7 4.9 17.3 5.9 23.4-.7" style="opacity:.6;stroke:#000;fill:none;stroke-linecap:round;stroke-linejoin:round;stroke-width:10px"/><path d="M711.8 447.7a25.1 25.1 0 0 1 18.5 15.2m4 11.6.1 2.6m19 34.3a16.1 16.1 0 0 1 3.3 8.1M743.4 560a20.2 20.2 0 0 1-1 18.5m-6.3-31.4 1.6 2.6m-31.6 53.7a15 15 0 0 1-2.1 15m-60.7-25.8a17 17 0 0 1-3.5-12.3m-133-132.9a67.2 67.2 0 0 1 34.6 19.8m-51.1-21a32.6 32.6 0 0 0-10.3.7m92.3 152.7a22.1 22.1 0 0 1-.5 14.8m-4.1-29.3.9 2m-32.4 30c-4.2 4.9-9.8 9-16.2 9.5m-12 2.7-2.9-.8m-60.4-17a13.3 13.3 0 0 1-1-12.1" style="stroke:#fff;fill:none;stroke-linecap:round;stroke-linejoin:round;stroke-width:10px"/><style>.st40,.st68{fill:none;stroke:#000;stroke-width:10;stroke-linecap:round;stroke-linejoin:round;stroke-miterlimit:10}.st68{opacity:.6;enable-background:new}.st262,.st263{fill:#fff;stroke:#1c1c1c;stroke-width:10;stroke-linecap:round;stroke-linejoin:round;stroke-miterlimit:10}.st263{fill:none}</style><g id="Scull_Hoodie"><linearGradient id="SVGID_00000041265213162397775930000005438875575371958204_" gradientUnits="userSpaceOnUse" x1="546" y1="-1072" x2="546" y2="63" gradientTransform="translate(0 1066)"><stop offset="0" style="stop-color:#a3a3a3"/><stop offset="1" style="stop-color:#454545"/></linearGradient><path style="fill:url(#SVGID_00000041265213162397775930000005438875575371958204_)" d="M243 300c2 45-56 49.9-65 86.4-5 19 27 59-36 85-38 2.5-63 83-13 81.9 27-7-46 28.5 9 119.7 17 28-8 68-39.8 85.8C256 1131 814 1144 994 782c-106-83-3-103-29-159-20-44-40-18-40.5-35.3 25-32 100.5-72.5 54-118-24-23-38 59.5-66 10.6-22-38 37-89 18-126-10.8-13-42-32-53-9.9-23 3 18-115-43-145-61 13-33 74-110-50-18-29-62 12-150-76-31-13.5-131 11.5-92 58-217-17-110 54-190 93.5-44 13-104 21-97 81.5 4 32 41 18 156 38 22 4 13-25 44-28.2 76 18 95-63 138-67 50.6-2 47 58 72 79 29 16 31-31 50-42 68.5-41 74 68 81 101 11 24 46 28 62 6 39 38-4 62-10 98 0 18 17 30 28 45 42 59-29 81-5.5 139.8 11 27 22 70.9-11 87-73 82 26 56-22 99.8-15 9.9-36.5 13.5-44 32.5-12.5 53-24 45.5-73 45-108 54.5-104 9.9-188-34.9-34-11-86 2-104.5-37 24 3.5 34-41 20.6-55-69-34-49.8-40-52.5-82.6-5-76.5-72.5-44-32-170 20-63-25.5-80 .8-148 12 34 57 12 59.8-16.9 2-19-6-39 2-57.5L243 300z"/><path class="st40" d="M304 411c13 30 55 19 61-10.5 3-13-.8-27-2-40.7-3-33 15-45 47-40.6 56 8 63-33 100.6-59 58-39.8 78 46 81 54 9 24.5 35 23 44-.7 26-71 94-32.5 93.5 28.4 1 13 1 25.5 5 38 8 32 68 39.5 59 5-1.5-6-17-12-17-12 27 9 43 42 33 68.2-8 21-39.9 44-13 70.7 26 26 40 54 25 83-54 105 46 96.5-36.5 188-7 8-12 22-13 29.3-3 17 20.1 28 23 17.9 5-18 16-26 16-26-17 19-13 22-22 45-12.5 32-49 12-55 56.6-8 33-26 40.9-57 34.9-21-.5-40 13-60 19-55 17-84-17-124-47-49-29-108 16-133-68.4 10 52 53-1 30-31-33-28-59-15-50-72 3-37-23-56-40.7-84-24-47.5 18-100 9-149.3-19-49-16-105 29-139"/><path class="st40" d="M992 778.5c-83-49.9-26-111-22-126 10.5-57-72-89.6-43-17.2-30.8-73 59-65 64-133.5 2-30.9-29.6-52-43-16-4 10.7-22 14-29 5.5-33.5-37.5 28-86 15-129.9-18-46.5-87-28-41 16-50-46 7-130.8-48-171-36-26-48.5 49-84 2-43-57-18-72-102-77.8-36-2.5-49.5-31-74-51.5-34.5-29-147 14-103 48 9.7 7.5 48-6 48-6-56 24.5-128-11-182 24-34 22-6 52-50 77-24 14-50 5-80 27-62 51 17 125 26 52-4 60.5-87 54-61 114.1 9 20-11 47-31 53-88 25-42 120-13 75 3-5 1-23 1-23 4 24-9 45-19.6 65.6-31 59.5 72 90-21 171C257 1138 824.5 1142 992 778.5z"/><path d="M895 377c-9.8-10.9-7-32.5 4-42-11-5-25 6-25.5 18M930 636c1-14 10.8-28 24-33-11-5-25-13-35-3M809 800c-11 9-25 18.5-39.7 13 6.5 1.5 5 16 22 19M361 842c10 7 24.5 5 33-4-2 12.5-11 27-25 29M136.5 518c-5 11.5-20 22-33 18 6 15 26.5 24 38 10M338 369c-11 18-22 41-9.7 60.9-15-.9-26.5-17-22-32M242 297c-9.5 12-27 21-43 15.9 8 12 26 22 39 12m291.6-208c-20 3-40-4-53-21-7 13 0 31 14 36M773 374.5c7 9 8 22 3 32 12.5-2 24-16 17-28v1" style="opacity:.6;enable-background:new"/><path d="M910 356.9c8 6 11 18 8 27.5m-3 12.6c0 1.5-.5 3-1 4.5m59 87.5c4 10 3 22-3 31m-6 12c-1 .8-2 2-3 2m-14 83c6 6 9 15 8 23.5m-1 10.5c0 .8-1 2-1 2.5M834 217c10 6.5 17.5 17.5 19 29m2 15.9c1 2 1 4 .5 6M693.5 148c9 3 17.5 9 23 17M537 85c-15 .9-29.7 6-42 15m56-17.2h6.5M385 146c-14 2-28 9.7-36.5 21m53.5-23h4M222 263c-9.7 9.9-14 24.5-12 38m26-46.5 3-1.5m-32 120c-8 5-14 14-15.5 24M126 494.5c-8 8-13 20-12 32m25 60.5c-7 11-11 25-5 37m7.5 15c1 2 1 4 2 6M373 818c6 5 9 14 7 21m-18-27c-1-.9-2-2-3-2m90 106.5c12 0 25 6 34 10.9m14 9.6c1 1 2 2 4 3m183 16c-9-2-18-1-26 2.5m102-71.6c-8 5-11 14-13 22M796 793c-5 6-8 12.5-9 19.7m16-30.7 3-3m23.9-165c-5 13-11 27.5-8 42m3.1 13.9 1 4.5M807 474c-6 8-5 19 1 27m7 9.5c1 1 2 2 2 3.5m-71-148c2 11.5 11 22 22 25m-24-40.1-.7-4M612 320c5-1 10-4.5 12-9m5-11.4 1.5-3M471 276c-9 11-20 20.6-33.5 27m-12 2.6h-5M352 389c-1 10-7.5 19.5-16 24m15-46c.5 3 1 5 1 8m-64 124.5c3 10 4 21 2 31m-2 14.4c-1 2-1 3-2 5m19 139.8c9 8 15 18 18 29.5" style="fill:none;stroke:#fff;stroke-width:10;stroke-linecap:round;stroke-linejoin:round;stroke-miterlimit:10"/><path class="st68" d="M179 514c-6 14 4 27 16 33 8.5 10 14 22 22 33 12 13 3 34.5 18 43.4 11 4 29-5.5 35-14.5M189 722c-9 9-7.5 24 3 31.5 9.9 7 11 34 14.5 49.9 5 21-9 23-5 35.8 5 16 19 11 31.5 8 6 0 11-2 16-5.5M325 942c-15 22 8 52 31 34 19-8 77 10 79.6 29 9 19 49.6 17 46-7.5m430.4-319c25 25-9 42.5-12 48-6 22-12 50.6-6 63 9 12.5 0 32-16 32M891 422c12.5 14 1 27-9 37-6 18-8 39.9-3 49 7 12-5 29.5-19 23M747 255c-17 5-41 49.8 6 43 13 8 23 20.5 34 31 13 21-8 53 33 38m-539-75c-26 4-16.5 34-18 37-8 19-19 37-28 56-7 11.5-15 8-23 12.1-9 5-15 24-3 29M356 244c9 18 33 20 41 .6 13-5 37-9 50.5-13 5 3.5 36 19 33-8M513 204c-2 8 3 16 10 19 15 25 43 23 44-9 2-6 8-10.5 15-4.5 6 4 5 9.8 6 15.5 3 14 22 21 31 9 4-11 16-5 16-20m-115.3-57c.5 16 15 22 28 24m51.3 0c14-1 34-2 38-18"/><path d="M579.6 199c27.5 19 8 52 47 25 27-27-16-26.5-19-29.9-12-12-28-22-38-35.8 3-14-20.8-63-32-17-28 .5-12 38 11 29.9 11 8 18 19 31 27.4v.4z" style="fill:#fff"/><path class="st262" d="M889 682c3.5-7 15-8 21-3 15 13 2.5 36-15 37.6-7 23-11 47-12 71.2 28.5 14-.5 47-22 26.6l4-12c1 13-16 17-25 9.5-10-9 0-27 13-26v-1c3-25 5-49.7 10-74.4-14-2-13-22-5-30 14-14 37 2 29 19m-672 20c.9-7.5 10.8-12 17-9 17 7 13 30-2 37 1 22 5 44 11 65 28.5 3.5 13 40.6-11 29.3V830c5 10.6-9 19.5-18 15.5-11-5-7.5-23 3-26.2v-1c-5-23-10-44.5-13-67.3-12 2.5-18-15-13-25 7-15.8 32-9 31 8m-22-227c-2-7 4-13 10.5-11.9 16 3 21 24 12 33.7 9 19.5 19.7 38 32.5 56 24-3 25.5 33.5 2 28.7l-4-10.7c7.5 8.5 0 19.5-9 18-10.8-2-14-19-7-24.2l-.5-1.1c-12-19-24.5-38-35-58-9 5-19.6-9.6-19.6-19 0-16 23-15 28 0M873 425c2.5-6 11-6 15-2.5 11 9.8 2 27-11 28.7-5 18-8 36-8 54.4 20 10 0 36-15 20.3l3-9c1 9.6-12 13-17.5 7-7-7 0-20 9-19.8v-1c2-19 4-38 7-56.8-9.7-1-9-17-3.5-23 9.7-11 26 1.5 21 15M476 986c8 5 7 19 1 25-17 15-39.8-1.5-39.6-22.4-25-10.8-50.6-18-77-22.3-19 31-52-6-27-28.2l13 6.5c-14 0-17-20.8-7-29.7 11-10 29 4 27 17.8l1 .6c27 7 54 12 81 21 4-16 26-12 34-2 14 17-7 42.5-25 32M311 308c7-6 19.9-2 24 6 10 20-12 38-32 32.3-17 21-31 44-42 68.6 25 26-19.6 48-34 18.3l9.7-10.9c-4 13-25 10.6-30.6-.6-7-14 11-27 24-21.4l1-1.2c14-24.5 26-49 41-72.5-14-8-5-28 7-33 20.6-9 39 18 24 32.5M359 224c-7-.9-12-11-10-17.9 5-17 27.5-13 35 2.1 20.7-1 41-5 60.5-11.6.8-29.7 48-11.5 28 10-2 2-16 1-11 1 16-1 19 9 16 19-4 12-21 8-25-3.3l-1 .1c-21 5-41 10.9-62.5 14 3 13-13 18-22 13.9-16-8-11.5-34 5-32M621 144c7-3 16 2 17 8.5 3 17-18 26-31.5 18.3-17.5 12.5-33 27-47 43.4 13 24-26 32-30 7.5l9.8-6c-6 9-21 3.5-23-5.9-2-11 15-18 23-11.6l1-.7c16-16 30.6-32 48-46.3-9-8 2-22 13-23.5 17.5-3 26 20 11 28"/><path class="st263" d="M547 169.6c-8 8-22-3-24-12-4-16 19.8-22.5 29-9"/><path class="st263" d="M539 139.8c-4-6 2-14 8-15 17-3 27 17 20 29.6l4 4m22 23.5 18 17M548 170c3 2 5 5 8 8m20 19.5c6 6.5 13 12 21 18"/><path class="st263" d="M597 215c-6.5 7.5 1 23 13 21 9.5-1.5 15-15 5-20.5"/><path class="st263" d="M621 224.9c25-3 15-38-9-27"/><path class="st262" d="M827.5 348c3 7-4 18.5-11 21-19 7-27.5-15-18-32.7v-.1c-12-18-27-33-44-46-28 19.9-34-23-6-33.1l6 10c-9.8-5-2-24 9-28 13-5 19 13 11 24.5l1 1c16 15 33 29 47 46 9.9-12 24-1.5 25 10 2 19.7-25 34-32.5 18"/><path class="st68" d="M815.5 339.6c4 9 4 19 1 27M755 269c-5-2-15-4-19.7 0M873 438c.6-6 5-12 10-14m-26 92c.5 6 5 11 11 12m21.9 171c1-9 7-17 15-21M866 802c.5 8 4 15 11 18M457 985c8 4 16.5 9 20 18m-131-58c-7-1-15-.7-20 4.5m-95-119.9c2 5.5 5 11 11 13m-21-108.7c-.7-8 2-16 7-23v-.2s0 0 0 0M252 602c3 5 8 8 13.5 8M208 518c-3-6-5-15-2-21m33-75c2 5 1 10-2 15m69-111c6-15 20.5-19 20-19m47-88c-9 .8-16-1.5-23-7m111-5c7-1 13-6 16-12m64 20c-3 5-5 11-2 17m75.5-16c5 4 11 5.5 17 3M612 155c9-4 16-5.5 25-4m-85-2.5c-4.5-6-8-14-7-22m50 60.5c-4 4-7 7.5-11 11"/></g><defs><linearGradient id="zag" x1="638.52" y1="776.5" x2="875.8" y2="776.5" gradientUnits="userSpaceOnUse"><stop offset="0" stop-color="#17ffaa"/><stop offset="1" stop-color="#ffff17"/></linearGradient><linearGradient id="zag-2" x1="841.11" y1="758.37" x2="880.76" y2="761.1" gradientUnits="userSpaceOnUse"><stop offset="0" stop-color="#ff1726"/><stop offset="1" stop-color="#fff017"/></linearGradient><linearGradient id="zag-3" x1="882.79" y1="580.8" x2="875.4" y2="723.92" gradientUnits="userSpaceOnUse"><stop offset="0" stop-color="#fb17ff"/><stop offset=".15" stop-color="#fb17e3"/><stop offset=".47" stop-color="#fd179d"/><stop offset=".93" stop-color="#ff172d"/><stop offset="1" stop-color="#ff171b"/></linearGradient><style>.zag-3,.zag-7{fill:none}.zag-3{stroke:#000}.zag-3,.zag-7{stroke-linecap:round;stroke-linejoin:round}.zag-3{stroke-width:10px}.zag-7{stroke:#fff;stroke-width:6px}</style></defs><path d="M640.3 753.4c-8.3 43.3 13.3 40.2 47.2 47.4 23.5 8.7 69.4 20.7 93.2 11.7 67.7 40.5 151.2-100.7 43.1-76.6-23.7 8.5-48.5 1.2-72.5 8.1-36.7 21.1-70.6 19.9-111 9.4Z" style="fill:url(#zag)"/><path d="M847.7 732.2c5.3 19.7-19.2 34.8 2.5 53.1 31.1 14.3 37.8-60.9-2.5-53.1Z" style="fill:url(#zag-2)"/><path class="zag-3" d="M640.3 755c39.4-4.4 40 60.7 83.4 55.8"/><path class="zag-3" d="M659.7 757.4a80 80 0 0 1 39.7 7.6m-54.7 24.2c12.8 5.5 26 10.9 39.9 11.1 2.8.1 5.6-.1 8.4.1m86.6 12.3c-15.6 7-35.1 5.7-50.4-2.2-13.5-12.7-15.9-34.4-29.8-47.3 12.3-5.7 28.2-6.9 40.9-2 24.9 9.5 24.7 47.4 50.3 55.1 29.8 9 52.4.1 71.5-25.4 9.8-13.2 21.7-31.8 11.4-47.1-17.9-26.6-60.7-.5-87-1.2"/><path class="zag-3" d="M848.1 732c-4.7 3.6 4.6 9.1-5.1 25-7.7 12.6 1.3 31.9 16.9 32.4"/><path d="M861.7 704.3c1.5 19.1 25.4 19.7 24.4-13.6-1-31.4 37.5-39.2 25.1-82.2-8.2-28.8-47.4-20.7-34.5 9.3 2.4 5.5 7.9 10.3 6.8 16.2s-9.8 9-14.2 4c-3.1-3.5-3.2-9.5-7.2-12-8.4-5.3-24.8 11.9-9 31.6 11.9 14.8 7 26.6 8.6 46.7Z" style="fill:url(#zag-3);stroke-width:10px;stroke-linecap:round;stroke-linejoin:round;stroke:#000"/><path class="zag-3" d="M640.5 742.5c-4.3 18.7-1.4 38.2 1.8 57.1"/><path class="zag-3" d="M582.2 761.4C570 663.5 673.6 655 673.6 755m.7 45.8c4.6 84.1-87.2 86.6-87.2 7.8m140.2-52.5c56.6-35.3 93.1-6 112.2 52.1"/><path d="M581.5 762.4c-13-32.9 2.9-79.3 40.4-78.4M646 787.9c-2.3-10.5-6-30.5 10.2-25.5 7.1 2.2 17 24.6 27.3 33.6m13-31c11.1 11.4 13.9 28.7 24.3 40.6m6.5-47.2c26.2 5.8 28.8 38.2 47.3 52.4m29.7-66c16.6 11.6 32.5 29.3 37.6 49 3.4 13.6 16.1-1.1 4.1-1.7m3.9-57.7c3.4 20.5-17 39.5 10.8 52m-273.6 22.2c-8.6 36.3 29.6 78.8 63.3 51.6" style="opacity:.6;stroke-width:10px;stroke-linecap:round;stroke-linejoin:round;stroke:#000;fill:none"/><path d="M633.6 701.4c9.5 0 16.9 9.5 19.3 18.7m4.1 13.2.8 4.4m2.1 74.9c1.3 9.8-1.5 19.3-9.5 28m-10.4 8.6-1.7.7" style="stroke:#fff;stroke-width:10px;stroke-linecap:round;stroke-linejoin:round;fill:none"/><path class="zag-7" d="M655.5 783.8c1.9.9 3.8 1.6 5.7 2.3m6.8 2.8 1.9.4m23.5-4a48.2 48.2 0 0 0 12 13m21.3-8.9c2.6 5.9 6.2 11.9 11.4 13.1m49.2-49.2c7.6 3.7 15.4 8.1 19.6 15.4m3.6 5.9 1 1.9M781 796.2c2.5 5.3 7.9 8.7 13.5 10.5m8.2 2.1 1.8.5m86.1-207.5a10.6 10.6 0 0 1 9.2 7.5m2.9 7.7.2 1.3"/><path d="M855.5 639.6c-1.3 3.3.6 6.9 2.4 9.8" style="stroke-width:5px;stroke:#fff;stroke-linecap:round;stroke-linejoin:round;fill:none"/><path class="zag-7" d="m744.8 805.3 1.8.2m-58.5-27.4.9 1.2"/><circle cx="550" cy="550" r="500" style="fill:none;stroke:#000;stroke-width:10;stroke-linecap:round;stroke-linejoin:round;stroke-miterlimit:10"/></svg>