<svg version="1.1" id="Layer_1" xmlns="http://www.w3.org/2000/svg" x="0" y="0" viewBox="0 0 1100 1100" style="enable-background:new 0 0 1100 1100" xml:space="preserve" xmlns:xlink="http://www.w3.org/1999/xlink"><style type="text/css">.st301{fill:#005BEF;stroke:#000000;stroke-width:10;stroke-linecap:round;stroke-linejoin:round;stroke-miterlimit:10;}</style><circle class="st301" cx="550" cy="553.7" r="500"/><path d="M533 209.1c-68 59.6-71 20-121 36.5-19.6 10.9-14 30-9.7 39.6 11 23-51 9-69 40.3-10 18 .1 42-7.5 61.8-9 19.6-34 35-37 52.2-43 48-154 7-119 70.4 6 11 33-6 39 9.1 7 17.5-39 29-21 46.7 18 5 21 39.9 57 63.2 14 20 3 51 19 69.1 35.8 38 46-25 41-34.3 4-39 44-11 22 38.7-23 52 11 74 36.5 56.6 24-9 13 39 23 50.9 19.5 37 55 12 67 12 18 1 28 22 29.8 40.3 6.5 63 54 46 59 8 15.5-34 45 49 47 59.9 11 73 69 42 71 17.9 3-54-3-60.1 2-68.3 18.5-31 71 13 90.8-15.5 14-19.7-31-63.5 8-55.4 94 19 19-101 14-120.4-9-35.5 14-106 47-121.7 18-9 17-35.5 7-52.8-9.5-17-25-30.6-31-48.9-13.5-54 22-102-36-133.3-5-3-7-9.5-4-14.4 17-26 1-66-32-71.4-22-3-44 9-66.5 6.3C616 247 579.9 178 533 209.1z" style="fill:#2fedc1"/><path d="M335 383c30 83 32 5 73 37.1 15 15.5 23 42 16 61.4-42 113 99.7 118 61 54.2-7-10.9-7.5-29 9-23.3 9.8 3.5 1 18 5 23 9 10 22-5 19-16.2-4-16.5-16-36 10.8-37.3 92-5.5 37 129.5 32 168.5-8.5 59.8 66 95 81 28.5 4-13-5-44 8-50.3 38-5.8 29 79 57 53.4 12-11 29.6-33 39-6.7 6.5 15 17 50.1 38.5 34" style="opacity:.6;fill:none;stroke:#000;stroke-width:10;stroke-linecap:round;stroke-linejoin:round;stroke-miterlimit:10;enable-background:new"/><path d="M782 697.2c-28-63 23-79 24-126.3 78-11 .7-76-6.5-96.5-17-50 24-120-45-146.2 28-27 9-81.5-29.9-83.8-111 20-69.5-13-164-40.6-39.9 5-47 46-138 37.8-24 5-36 40-9 49.7-19 18-55-3-76 29.9-17 26-9 52 7.5 84.6 18 36 27 9 35 5.9 37-13.5 50.5 48 42 78.1-25 91 73 116 67 59.3-1-11-14-22-9-33.3 3-5 11-7.5 15-2.6 4 5-2 13 1 19 8 15 30-2 17-21-29-42 71-54 72 29.9 0 37-19 70-23 106.3-8 75 86 103 78-3.8-2-23.5 15-23 28-10.8 19.6 19.6 9 43 24 51.3 17 9.9 43-67 62 10.2 5.8 25.3 35.5 23.7 27.9 2.9z" style="fill:#ed2fd4"/><style>.st40{fill:none;stroke:#000;stroke-width:10;stroke-linecap:round;stroke-linejoin:round;stroke-miterlimit:10}.st98{opacity:.6;enable-background:new}</style><g id="Outline"><path class="st98" d="M793 537c-1 .7-1 2-.5 3 5 10 11 35 25 30 8-2 21-13 18-22.4-.5-1-2-2-3-1.5-26 12-28-11-39-9.4v.3zm-34 274.5c6 5 26 8 25-3-6-7-20.6-12-21.5-26C750 772 744 803 759 811.5zm-219.3 52s1 .5 1 .8c9 13.5-3 36-18 40-34 6-9-6-6-44 .3-5.3 22.3 2.7 23 3.2zM342 731c5 7-4 22-4 33 8 13 29.6-5 33-14.9 2-12-17-21-28-20.2-1 .1-1 1.1-1 2.1zm31-120.2c2 23-8 47-26 61.9-13 10.9-17.5-30.6-8-27.9 6 4.2 28-18.8 34-34zm-157-59.9c-8 6-17 3-25 1-11 5 4 20 13.5 16 5-4 12-9 12-15.7-.5-.2-1.5-.2-.5-1.3zM337 473c-6-10-3-23 0-34 0-1 0-2-.6-2-9-9-23 11-19.8 20.7C318 463 338 475 337 472.8v.2z"/><path class="st98" d="M326 392c-2 29 24 45 7 44-7 2-14 1-15 11-1 11-24 0-24.5-1.3C285 433 317 404.5 326 392zm103-118c-9.9-4-16-16-18-25-4-6-9.9 1-11 6-7 54 29.5 28 29 19zm293 9c16 21 29.5 12 40 20.7 3 4 1 9.6-1 14-3 9-13 9-20 4.1-14.5-5.8-22-22.2-19-38.8z"/><path class="st40" d="M347 729c53.5 5 15 86 59 102 25 9 37-19.8 55-11.9 23 10.1 19.6 40 24 60.7 9.6 46 63 29.6 58-12.8"/><path class="st40" d="M519 861c89-9 47.5 119 114.5 115 39-6 35-47 25-76.5-3-9 0-18.5 7-24.5 24.5-21 59 15.5 84-2.5 15-11 8-33-2-45-12-15 0-32 10-43"/><path class="st40" d="M790 539c53 69.8-64 71 8 194.5 6 14 11 32 11 48.5 0 32-49 47.5-61 16"/><path class="st40" d="M721 287c2 51 64 31 74 88 6 34-11.5 71 7 103 10 18 27 31.5 34 51 8 19-4 47-27 42"/><path class="st40" d="M407 290.6c-16-8-12-29.9-2-41 17-15 40.5-10 61-6 29.8 1 49-29 75-38 50-17 81 55 133 44 23-5 48-11 69 1 25 14 33 55 10 75"/><path class="st40" d="M428 278c-16 26.5-51 17.5-76 28.5-20 10.5-28 33-23 55 10 47-43 51-39 88m25 4.5c1.5-23 35-26 41-5 7 25-13 47 16 72"/><path class="st40" d="M334 476c-20-34-61-31.5-89-9.6-20 8-43-3-64 4-22 7-28 37-5 43.5 6.5 2 23-2 26-1 15 4 11 25-5 30-21 6-10 29 6 29"/><path class="st40" d="M216 554.5c-15 15-14 41 2 55 37 22 41 31 36 69.7-2 31 46 41 53.5 10 2-10.8-4-22 0-33 13-32 44 20 62-44.5"/><path class="st40" d="M327 647.9c25 29.7-.5 47-7 75-10 32.5 34 65 53 25"/><path d="M729 262.5c9 4 16 13 18 22.5m-193-68c12.5 2 24.5 8 34 16m9 9 3 3m-163 10c-5.5-.9-12 .6-15.5 4M362 319.6c-9 2-14 10.7-16 19M339 449c4 1 6 6 6 9.8M308.5 470c-12-6-16-5-22-4M175 492c1-4 5-7 9-7.5m38 89.5c-4 8 0 16 4 19.9m44 78.6c-1 6 1 15 9 18m76-77.5c-3 14-13 14.5-16 16m4.5 119.5c-5-3-9-9-8-15M397 782c-1 14.5 7 28 14 30m90 53.9c-3 12 2 27 14.5 25M636 957c14-3 17-28 11-38m96-60.1c1-7 0-14-4-19m46-49.1c8-6.5 9-25 3-39M786 582c5-8 3-19-3-26m37-12c2-8.5-.6-18-7-24m-56-169c18 6 22 30 21 35" style="opacity:.7882;fill:none;stroke:#fff;stroke-width:10;stroke-linecap:round;stroke-linejoin:round;stroke-miterlimit:10;enable-background:new"/></g><defs><style>.axg-2{fill:none;stroke-linecap:round;stroke-linejoin:round;stroke-width:10px;stroke:#000}</style></defs><path d="M243.3 626.7c44.2-16.7-13.7-73.4 35.6-67.3 21.7 19.1-.3 76.2 37.7 66.4 49.7-12.9 2.3-62.1-2.5-73.1.2-30.9 41.4 1.5 50.2-38.3-18.2-24 5.5-57.2-11.5-72.8-23.1-21.4-36.9 8.5-40.9 12.3-49.6-11.5-64.2 25.4-117.3 13.2-18.8 1.7-44.6 25-24.6 41.9 11.7 10 34.4-3.6 41 13 5.6 20.2-54 25.9-6 50.9-4.7 29.1 19.3 38.5 38.3 53.8Z" style="fill:#ff00d9"/><path class="axg-2" d="M314.8 454c1.5-23.1 35.3-26.3 41.4-5 7.1 24.8-12.6 46.8 16.2 72.4"/><path class="axg-2" d="M333.7 475.6c-20.3-33.6-61.2-31.5-89.3-9.6-20 8.1-43.3-2.6-63.8 4.1s-28 37.5-4.7 43.5c6.5 1.7 23.1-2 26.4-1.1 15.3 4 11.4 25.2-5.4 30.1-21.2 6.2-10.2 28.6 6.3 29"/><path class="axg-2" d="M215.8 554.5c-14.8 14.8-13.6 41.2 2.4 54.6 36.7 21.9 40.7 30.9 35.7 69.7-2 31.4 45.8 41 53.5 10 1.8-10.8-4.5-22.1.2-32.7 12.4-32.5 44.2 20.2 62.3-44.5"/><path class="axg-2" d="M243.3 626.7c37.7-15 11.5-42.6 12.4-55.1s13.2-19 23.2-12.2c21.7 19.1-1.6 66.4 37.7 66.4 19.4 0 27.9-27.7 18.2-43.9-6.2-10.4-19.9-17.2-20.7-29.2-.9-15.6 12.2-15.8 24-15.8 17.1 0 22.7-11.2 26.4-22.4"/><path d="M252.3 630.1c37.2-23.8-3.2-55.3 13.1-65.7 19.7-12.7 16.5 44.9 26.1 55.7 14.5 16.1 42.1 14.9 49.3-5.5 15-42.4-25.4-45.4-20.3-64.1 4.2-15.7 34.1 2.2 47.4-30.2m-34.2-44.7c-5.3-11.3-15.2-21.9-8-36.1m-109.9 115c-6.5 6.5-14.4 12.3-26.3 7.7" style="opacity:.6;stroke:#000;fill:none;stroke-linecap:round;stroke-linejoin:round;stroke-width:10px"/><path d="M338.8 448.3a14 14 0 0 1 5.2 10.6m-61 4.8a28.5 28.5 0 0 1 22.2 6.9m-128.7 18.6a16.8 16.8 0 0 1 13-6.3m11.2-1.3 2.1.3M350 516.8c-2.5 4.5-5.9 7.7-12.8 6.9m-14.8 66.2c2.4 4.6 2 10.8-.1 15.9m-98.6-12.5a24.4 24.4 0 0 1-2.5-20.2" style="stroke:#fff;fill:none;stroke-linecap:round;stroke-linejoin:round;stroke-width:10px"/><defs><linearGradient id="zaf" x1="493.99" y1="811.54" x2="981.88" y2="811.54" gradientUnits="userSpaceOnUse"><stop offset="0" stop-color="#ff0400"/><stop offset="1" stop-color="#6a00ff"/></linearGradient><style>.zaf-2,.zaf-3{fill:none;stroke-linecap:round;stroke-linejoin:round;stroke:#000;stroke-width:10px}.zaf-3{opacity:.6}</style></defs><path d="M498.1 718.7c-21.9 37.1 48.6 112.8 86.9 120.9 41.9-26.9 61.7 36 94.5 37.5-9.4-9.1 1.3-30.1 8.9-17 22.7 39.6 50.1 23.4 65.3 37.4 10.1 9.3 12.5 26.7 27.3 31.2-3.5-12.3 10.8-14.9 15.7-4.3 14.4 30.9 19.4 3.6 46.2 32.9 57-39.3 108.6-92.5 139-155.5-5.4-7.5-54.3-4.3-24.6-24.4-28.7-31.9-84.3 14.4-79.4-49-38.2 19.6-60.7-10.2-95.1-9.8-11.9.2-59.6 33.8-38.6-11.8-31.7 5.4-48.5-15.7-74.4-27.2-15.5-7-47.4 16.2-68.1-13.8-35.7 10.4-78.6 23.2-103.6 52.9Z" style="fill:url(#zaf)"/><path d="M590.7 841.3a39.6 39.6 0 0 0 41.5 7c-9.4-10.4-32.8-25.2-41.5-7Zm12.8-173.5c11.7 18.3 38.7 18.3 55.8 8.4-12.3-14.8-38.8-15.8-55.8-8.4Z"/><path class="zaf-2" d="M588.4 838.3c39.9-27.5 56.3 43.5 94.6 40.7-21.3-17.9 2.3-33.6 13.7-8.7 10.4 22.7 24.4 17.6 45.1 19.9 23 2.5 17.7 41.4 41.3 37.7-4.9-5.6 1.7-14.5 8.6-11.5s5.5 14 10.5 19.1c11 11.1 29.6.9 37.5 22.4M604.1 668.8c18.9 29.5 49.4 1 73.4 14.3 21.1 11.6 44.5 31.8 69.8 19.1-1.1 7.7-10.6 12.1-10.2 19.8.8 13.7 18.7 9.5 26.8 4.2 39.5-26.3 65.7 29.9 114.3.6 1.9 13.7-8.6 27.7 8.1 36.2 23.7 12.2 54.1-12 72.3 16.2-7.8-2-17.8 6.4-10.3 13.3 9 8.3 25.7-.9 34.2 8.6M650.4 800c31.9-6.5 31.8 33.3 62.7 31-12.8-8.7 6-21.6 14-10.9 16 21.2 21.8 18 46.1 15.8-13.9-2.8-12.1-21.5-19.5-30.7s-25.8.8-25.8-12c0-9.6 11.6-10.4 18.6-7.7-6.6-16.5-26.1-8.2-39.3-7s-12.6-14.9.8-13.9c-13-15.1-36.9 4.5-50.5-9.3m159.3 23.2c16.3-2.4 17.4 21.3 32.1 21.3s28.3 2.4 35.3 17.8c-19.2-10.5-19.7 25.2 21.2 20.4-48.9 29.8-36.7-10.8-67.6-11.2m-35.3 22.4c18.3-.1 18.7 29.5 39 28.2-6 6.8-17.3 9.7-25 4.7-10.5-6.9-22.9-6.7-13.4 7.5-16.5-.8-17.8-23.2-33.7-26.1M593.3 706.4c14.5.6 22 17.8 39.1 23.1-17.9 5.4-17.8 10.7-27.2 9-7.4-1.4-13.4-14.7-17-4.6-2.2 6.4 4.8 11 8.2 14.9-34.3 3-16.9-30.2-46.5-30.3"/><path class="zaf-2" d="M661.4 676c-21.4-33-144.3 4.2-167.1 48.8-21.4 41.8 98.3 145.5 137.1 123.5M490.2 677.2c-37.9 16.7-47.7 53.9-28.3 89.4"/><path class="zaf-3" d="M488.9 676.4c-42.3 4.7-53.7 59-30.3 89.6"/><path class="zaf-3" d="M501.2 712c-65.4 35.4 85.1 166.2 134.8 144.1a63.8 63.8 0 0 0 22.8 21m-110-156.6c20.2 6.9 19.8 37.2 45.9 29.2m-4.3-15.5c4.8 1.1 8.1 5.8 12.7 7.6 10.7 3.4 19.9-6.1 28.9-10.6m17.2 70.7c25.6.4 35.7 36.5 63.2 30.9m.5-12.1c25.6 4.4 10.3 27.8 59.6 16.3m-42.4-43.1a40.2 40.2 0 0 1 15.9-6.8m-46.5-14.7a24.4 24.4 0 0 1 8.6-5.5m60.6 101.2c12.3 7.4 16.2 24.7 34 23.9m-.6-10.6c15.1 2.1 25.7 13.3 39.2-2.7m-3.7-48c15.6 0 19.4 39.5 68.7 8M873.4 820a27.7 27.7 0 0 1 9.9-1.1"/><path class="zaf-3" d="M604 672.7c-43.9 7.5-86.8 27.6-110.7 66.9"/><path d="M652.3 693.4a31.5 31.5 0 0 1 22.2 4.6m11.8 7.1 3.4 1.7m86.7 28.7c7.7-4.6 17.3-2.6 25.1.7m115.7 41.9a32 32 0 0 1 17.1.2m-30.8.6-2.5.2m60.1 29.4a12.3 12.3 0 0 1 7.1 0m-259.6 59.3a15.4 15.4 0 0 0 13.5 8.8m11.9.7 1.8.3m73.7 47.9c1.9 4.7 5.7 5 8.2 5.4m-168.5-84.6a73 73 0 0 0 14 12.6" style="stroke:#fff;opacity:.75;stroke-width:10px;fill:none;stroke-linecap:round;stroke-linejoin:round"/><path d="M601 724.4a14.6 14.6 0 0 0 6.2 4.2m143.1 99.1a14.6 14.6 0 0 1-9.5-5.5m-4.9-6.5-1.3-1.4m-35.8 2.8a26.3 26.3 0 0 1-6.7-6.6m-6.3-7.5-.7-1.1m131.8-13.2a13.8 13.8 0 0 1 7.1 4.3m4.9 7.2 1.6 2.2m25.6 7.7a18 18 0 0 1 8.9 1.1m-62.2 47.7a13.5 13.5 0 0 1 6.7 5.3m-16.6-9.2 1.7.8" style="stroke-width:7px;stroke:#fff;opacity:.75;fill:none;stroke-linecap:round;stroke-linejoin:round"/><style>.st40,.st68{fill:none;stroke-width:10;stroke-linecap:round;stroke-linejoin:round;stroke-miterlimit:10;stroke:#000}.st68{opacity:.6;enable-background:new}.st102{fill:#fff}</style><g id="all_seeing"><path class="st102" d="M764 494c-106-69-252-35.5-344.5 38C509 624 704 617 764 494z"/><linearGradient id="SVGID_00000154406609517563783580000003077220973173026472_" gradientUnits="userSpaceOnUse" x1="576.467" y1="996.091" x2="618.467" y2="789.095" gradientTransform="matrix(1 0 0 -1 0 1410)"><stop offset="0" style="stop-color:#001aff"/><stop offset="1" style="stop-color:#e600ff"/></linearGradient><path style="fill:url(#SVGID_00000154406609517563783580000003077220973173026472_)" d="M671 464.4c-43-9.5-199-12-159.6 59.5 29.8 54 4 62 21 66 51 12 124 4 164-28C671 535 698 508 671 464v.4z"/><path d="M592 532c3 20.5 2 40.6-2 60.6 18 2 37-3 54-6 24-4 12-34 6-48.5-25 11.9-54-6.6-58-6.5v.4z"/><path class="st102" d="M591 495c-22.5 32 39 69.5 57 40-2-22-34-61-57-40.4v.4z"/><path class="st40" d="M779.5 504C680 422 498 458 409 541"/><path class="st40" d="M420.5 531c90 96 280 85 345-37"/><path class="st40" d="M511 482c-19.8 44 28 62 14 106m143-127c35 32 1 71 28.5 100.5m-112.5 31c22-19-3-70 0-88 2-11 13-18.5 24.5-15 29.9 4 52 66 51 93"/><path class="st40" d="M584 511c5 27 37 41 62 29"/><path class="st68" d="M417 539c96 95.5 284 85 353-36"/><path class="st68" d="M503 485c-19 40 24 59 16 98m66-88c-22.5 28 18 66.5-7 96"/><path d="M658 470c7 5.5 12 14 13 23m-1 14v3.5" style="fill:none;stroke:#fff;stroke-width:10;stroke-linecap:round;stroke-linejoin:round;stroke-miterlimit:10"/></g><defs><linearGradient id="zbb" x1="524.71" y1="224.05" x2="578.63" y2="452.63" gradientUnits="userSpaceOnUse"><stop offset="0" stop-color="#ff004d"/><stop offset="1" stop-color="#c800ff"/></linearGradient><linearGradient id="zbb-2" x1="267" y1="400.7" x2="308.54" y2="400.7" gradientUnits="userSpaceOnUse"><stop offset="0" stop-color="#ff004d"/><stop offset="1" stop-color="#e100ff"/></linearGradient><linearGradient id="zbb-3" x1="189.5" y1="428.13" x2="271.07" y2="428.13" gradientUnits="userSpaceOnUse"><stop offset="0" stop-color="#ff004d"/><stop offset="1" stop-color="#ff00d5"/></linearGradient><linearGradient id="zbb-4" x1="178.74" y1="392.88" x2="276.42" y2="392.88" gradientUnits="userSpaceOnUse"><stop offset="0" stop-color="#ff004d"/><stop offset="1" stop-color="#ff00e1"/></linearGradient><style>.zbb-5{fill:none;stroke-linecap:round;stroke-linejoin:round;stroke-width:10px;stroke:#000}</style></defs><path d="M324.4 392c-3.1 8.8-9.4 11.8-13.8 17.9-13.5-5.6-21.4-23.1-16.6-37.6 3.4-10.2 13.6-17.6 15.4-28.2 11.6-67.1 45.6-40.5 85.5-70.4 31.3-23.5 77.6-8 114.1.1 86.4 19.1 150.1-42.3 237.7-42.3 49.8 0 98 93.3 41.3 124.8-4.3-7.1-9.4-14.4-19.6-20.2-31.1 22.8-73.4 13.1-109 13.2-96.2 6.3-143.7 56.1-249.2 34.8-28.1 0-56 11.4-85.8 7.9Z" style="fill:url(#zbb)"/><path d="M291.2 381.2c-61.5 53.7 13.1 39.9 17.3 28.7-7.6-7.6-16.2-16.9-17.3-28.7Z" style="fill:url(#zbb-2)"/><path d="M265.1 405.3c-45.5-1.4-46.4 27-75.6 41.4a45.9 45.9 0 0 0 41.3-1.7 13.8 13.8 0 0 1-4.1 6c18.3-2.1 38.4-14.1 44.4-32.1-3.2-3.7-5.7-7.6-6-13.6Z" style="fill:url(#zbb-3)"/><path d="M276.4 387.6c-35.8-4.3-47.3-18.6-61.3-13.7 3.8 4.2 8.9 11.3 8.6 16.9a58.7 58.7 0 0 0-45 6.8c13.3 1.3 18.5 28.3 89.9 7.3 2.2-5.6 5-10.9 7.8-17.3Z" style="fill:url(#zbb-4)"/><path class="zbb-5" d="M313.2 385.6c20.9 12.7 51.8 5.6 73.1.9 26.5-5.7 53.9 2.5 81 3.1 64 1.4 122.7-39 186.7-40.3 31.4-.7 63.9 8 93.5-2.6 14.4-5.2 27.7-15 43.1-15.7"/><path class="zbb-5" d="M324.4 392c-3.1 8.8-9.4 11.8-13.8 17.9-13.5-5.6-21.4-23.1-16.6-37.6 3.4-10.2 13.6-17.6 15.4-28.2 11.6-67.1 45.6-40.5 85.5-70.4 31.3-23.5 77.6-8 114.1.1 86.4 19.1 150.1-42.3 237.7-42.3 49.8 0 98 93.3 41.3 124.8-4.3-7.1-9.4-14.4-16.5-18.9"/><path class="zbb-5" d="M291.6 379.2c-11.8 9-32.7 27.7-21.9 38.5 7.7 7.7 22.2-6.6 28.6 4a160.1 160.1 0 0 0 11.7-11.6"/><path class="zbb-5" d="M268.4 403.9c-12.1 4.2-29.4 1.3-40.6 9.1-14.9 10.5-21.9 33.2-43.9 30.5 12.6 14.7 35 9.1 48.6-1.4a40 40 0 0 1-5.6 11.1 57.9 57.9 0 0 0 45-31.3"/><path class="zbb-5" d="M280.3 385.5c-6.9-3.2-14.2-.2-21.3-.9-16.3-1.7-28.9-18.1-46.8-9.5 5.1 2.3 10.7 10.2 12.7 15.5-14.3 4.2-18.3-13.4-56.4 9.8 20.9-5.6 33.1 14.7 53.1 15.7"/><path d="M773.9 340.5c-40.3 22.9-77.1 19.4-121.2 16.7-64.7.8-124.6 41.4-189.3 39.5-25.5-.8-51-7-79-3.2-19.7 2.8-39.7 8.4-59.3 4.7m-13-11.9a18.5 18.5 0 0 0 5.1 10m473.1-64.2a29.1 29.1 0 0 0-8.3 8.1m-494.7 44.1c.1 11.2 6.6 21 13.1 29.8m-27.3-26.6c-7.5 19.1-39 9.5-55.7 26m43.1-4.4a18.4 18.4 0 0 0 6.4 13.8" style="opacity:.6;stroke:#000;fill:none;stroke-linecap:round;stroke-linejoin:round;stroke-width:10px"/><path d="M752.2 247.6a54.8 54.8 0 0 1 28.6 21.5m6.9 12.1 2.1 4.9m-314.5-4.9a74.2 74.2 0 0 0-43.6-5.3m-14.6 4-4.3 2.1m97 86.5a90.8 90.8 0 0 1-42.3 4.5m-124.6-65.7c-6.9 3-11.1 9.8-13.6 16.6m-84.2 94.5a29.4 29.4 0 0 0-15.7 8.8m522.2-96.6a68.4 68.4 0 0 1-39.8 6.8m-388.6 39.9a85.8 85.8 0 0 0 27.2 1.9" style="stroke:#fff;opacity:.72;fill:none;stroke-linecap:round;stroke-linejoin:round;stroke-width:10px"/><circle cx="550" cy="550" r="500" style="fill:none;stroke:#000;stroke-width:10;stroke-linecap:round;stroke-linejoin:round;stroke-miterlimit:10"/></svg>