<svg version="1.1" id="Layer_1" xmlns="http://www.w3.org/2000/svg" x="0" y="0" viewBox="0 0 1100 1100" style="enable-background:new 0 0 1100 1100" xml:space="preserve" xmlns:xlink="http://www.w3.org/1999/xlink"><circle cx="550" cy="550" r="500" style="fill:#2e2e2e"/><linearGradient id="a1" gradientUnits="userSpaceOnUse" x1="264.957" y1="853.134" x2="422.298" y2="853.134"><stop offset="0" style="stop-color:#00ff90"/><stop offset="1" style="stop-color:#c800ff"/></linearGradient><circle cx="343" cy="853" r="78" style="fill:url(#a1);stroke:#000;stroke-width:10;stroke-linecap:round;stroke-linejoin:round;stroke-miterlimit:10"/><linearGradient id="b1" gradientUnits="userSpaceOnUse" x1="826.38" y1="645.312" x2="919.38" y2="645.312"><stop offset="0" style="stop-color:#f7ff00"/><stop offset="1" style="stop-color:#ff5e00"/></linearGradient><ellipse style="fill:url(#b1);stroke:#000;stroke-width:10;stroke-linecap:round;stroke-linejoin:round;stroke-miterlimit:10" cx="873" cy="645" rx="46.5" ry="53"/><linearGradient id="c1" gradientUnits="userSpaceOnUse" x1="179.591" y1="404.219" x2="384.591" y2="404.219"><stop offset="0" style="stop-color:#0073ff"/><stop offset="1" style="stop-color:#8c00ff"/></linearGradient><ellipse style="fill:url(#c1);stroke:#000;stroke-width:10;stroke-linecap:round;stroke-linejoin:round;stroke-miterlimit:10" cx="282" cy="404" rx="102.5" ry="111"/><linearGradient id="d1" gradientUnits="userSpaceOnUse" x1="766.562" y1="310.33" x2="944.562" y2="310.33"><stop offset="0" style="stop-color:#7300ff"/><stop offset="1" style="stop-color:#ff008c"/></linearGradient><ellipse style="fill:url(#d1);stroke:#000;stroke-width:10;stroke-linecap:round;stroke-linejoin:round;stroke-miterlimit:10" cx="856" cy="310" rx="89" ry="95"/><linearGradient id="e1" gradientUnits="userSpaceOnUse" x1="615.769" y1="857.232" x2="845.269" y2="857.232"><stop offset="0" style="stop-color:#f0b"/><stop offset="1" style="stop-color:#f40"/></linearGradient><circle style="fill:url(#e1);stroke:#000;stroke-width:10;stroke-linecap:round;stroke-linejoin:round;stroke-miterlimit:10" cx="730.5" cy="857" r="115"/><linearGradient id="f1" gradientUnits="userSpaceOnUse" x1="115.411" y1="614.727" x2="186.411" y2="614.727"><stop offset="0" style="stop-color:#00ff90"/><stop offset="1" style="stop-color:#006fff"/></linearGradient><circle style="fill:url(#f1);stroke:#000;stroke-width:10;stroke-linecap:round;stroke-linejoin:round;stroke-miterlimit:10" cx="150.9" cy="615" r="35.5"/><path d="M313 326.3c18 9.9 33 27 39.6 46m7 22.7 1 7m509.9-163.1c19 5 34 19.6 41 38m6 22c1 3 1.5 5 2 8M879 609.4c9 4 16 11 19.8 20m.7 19.6-.5 5M759 766.9c25 9 44 31 49.9 56.5m7.1 23.7c1 4 1 7 .5 10.8M364 799.3c16 6 29 22 31 39m0 22.7-2 6M153.5 595.4c7 1 12 6 14 12" style="opacity:.8118;fill:none;stroke:#fff;stroke-width:16;stroke-linecap:round;stroke-linejoin:round;stroke-miterlimit:10;stroke-dasharray:0,0,0,0,0,0"/><radialGradient id="a9" cx="560.657" cy="569.423" r="93.351" gradientTransform="matrix(1 0 0 3.2533 0 -1281.846)" gradientUnits="userSpaceOnUse"><stop offset="0" style="stop-color:#00f2ff"/><stop offset="1" style="stop-color:#370080"/></radialGradient><path style="fill:url(#a9)" d="M533 210.7c-68 59.6-71 20-121 36.5-19.6 10.9-14 30-9.7 39.6 11 23-51 9-69 40.3-10 18 .1 42-7.5 61.8-9 19.6-34 35-37 52.2-43 48-154 7-119 70.4 6 11 33-6 39 9.1 7 17.5-39 29-21 46.7 18 5 21 39.9 57 63.2 14 20 3 51 19 69.1 35.8 38 46-25 41-34.3 4-39 44-11 22 38.7-23 52 11 74 36.5 56.6 24-9 13 39 23 50.9 19.5 37 55 12 67 12 18 1 28 22 29.8 40.3 6.5 63 54 46 59 8 15.5-34 45 49 47 59.9 11 73 69 42 71 17.9 3-54-3-60.1 2-68.3 18.5-31 71 13 90.8-15.5 14-19.7-31-63.5 8-55.4 94 19 19-101 14-120.4-9-35.5 14-106 47-121.7 18-9 17-35.5 7-52.8-9.5-17-25-30.6-31-48.9-13.5-54 22-102-36-133.3-5-3-7-9.5-4-14.4 17-26 1-66-32-71.4-22-3-44 9-66.5 6.3-43.4-4.8-79.5-74.1-126.4-43.1z"/><radialGradient id="b5" cx="553.285" cy="308.14" r="3.115" gradientTransform="matrix(30.3532 0 0 7.6359 -16163.282 -1999.622)" gradientUnits="userSpaceOnUse"><stop offset="0" style="stop-color:#00f2ff"/><stop offset="1" style="stop-color:#370080;stop-opacity:0"/></radialGradient><ellipse style="fill:url(#b5)" cx="635" cy="353" rx="83.5" ry="47.5"/><radialGradient id="c4" cx="685.268" cy="483.405" r="2.167" gradientTransform="matrix(16.0015 0 0 8.3553 -10251.582 -3523.179)" gradientUnits="userSpaceOnUse"><stop offset="0" style="stop-color:#00f2ff"/><stop offset="1" style="stop-color:#370080;stop-opacity:0"/></radialGradient><ellipse style="fill:url(#c4)" cx="715" cy="515.5" rx="30.5" ry="36"/><radialGradient id="d4" cx="417.82" cy="724.757" r="2.666" gradientTransform="matrix(25.7894 0 0 8.8738 -10290.887 -5668.355)" gradientUnits="userSpaceOnUse"><stop offset="0" style="stop-color:#00f2ff"/><stop offset="1" style="stop-color:#370080;stop-opacity:0"/></radialGradient><ellipse style="fill:url(#d4)" cx="488" cy="763" rx="71.5" ry="34.5"/><radialGradient id="e4" cx="525.562" cy="453.385" r="2.733" gradientTransform="matrix(2.3275 0 0 1.7985 -693.718 -358.824)" gradientUnits="userSpaceOnUse"><stop offset="0" style="stop-color:#00ff48"/><stop offset="1" style="stop-color:#7300ff;stop-opacity:0"/></radialGradient><circle style="fill:url(#e4)" cx="529.5" cy="457" r="5.5"/><radialGradient id="f4" cx="492.648" cy="546.297" r="1.723" gradientTransform="matrix(5.2809 0 0 5.0294 -2100.605 -2192.76)" gradientUnits="userSpaceOnUse"><stop offset="0" style="stop-color:#f700ff"/><stop offset="1" style="stop-color:#7300ff;stop-opacity:0"/></radialGradient><circle style="fill:url(#f4)" cx="501" cy="555" r="9"/><radialGradient id="g2" cx="642.36" cy="683.471" r="2.175" gradientTransform="matrix(4.189 0 0 4.4069 -2039.596 -2318.762)" gradientUnits="userSpaceOnUse"><stop offset="0" style="stop-color:#ff006a"/><stop offset="1" style="stop-color:#7300ff;stop-opacity:0"/></radialGradient><circle style="fill:url(#g2)" cx="651" cy="693" r="10"/><radialGradient id="h2" cx="631.016" cy="564.413" r="1.923" gradientTransform="matrix(1.8774 0 0 1.767 -550.874 -430.127)" gradientUnits="userSpaceOnUse"><stop offset="0" style="stop-color:#ff0"/><stop offset="1" style="stop-color:#7300ff;stop-opacity:0"/></radialGradient><circle style="fill:url(#h2)" cx="634" cy="567" r="3.5"/><radialGradient id="i2" cx="586.567" cy="520.158" r=".454" gradientTransform="translate(-1669.963 -1480.415) scale(3.851)" gradientUnits="userSpaceOnUse"><stop offset="0" style="stop-color:#ff2600"/><stop offset="1" style="stop-color:#7300ff;stop-opacity:0"/></radialGradient><circle style="fill:url(#i2)" cx="589" cy="523" r="2"/><radialGradient id="j2" cx="421.591" cy="470.614" r="2.51" gradientTransform="matrix(3.2467 0 0 3.9604 -939.96 -1384.463)" gradientUnits="userSpaceOnUse"><stop offset="0" style="stop-color:#00ffea"/><stop offset="1" style="stop-color:#7300ff;stop-opacity:0"/></radialGradient><circle style="fill:url(#j2)" cx="429" cy="479" r="9"/><style>.st40{fill:none;stroke:#000;stroke-width:10;stroke-linecap:round;stroke-linejoin:round;stroke-miterlimit:10}.st98{opacity:.6;enable-background:new}</style><g id="Outline"><path class="st98" d="M793 537c-1 .7-1 2-.5 3 5 10 11 35 25 30 8-2 21-13 18-22.4-.5-1-2-2-3-1.5-26 12-28-11-39-9.4v.3zm-34 274.5c6 5 26 8 25-3-6-7-20.6-12-21.5-26C750 772 744 803 759 811.5zm-219.3 52s1 .5 1 .8c9 13.5-3 36-18 40-34 6-9-6-6-44 .3-5.3 22.3 2.7 23 3.2zM342 731c5 7-4 22-4 33 8 13 29.6-5 33-14.9 2-12-17-21-28-20.2-1 .1-1 1.1-1 2.1zm31-120.2c2 23-8 47-26 61.9-13 10.9-17.5-30.6-8-27.9 6 4.2 28-18.8 34-34zm-157-59.9c-8 6-17 3-25 1-11 5 4 20 13.5 16 5-4 12-9 12-15.7-.5-.2-1.5-.2-.5-1.3zM337 473c-6-10-3-23 0-34 0-1 0-2-.6-2-9-9-23 11-19.8 20.7C318 463 338 475 337 472.8v.2z"/><path class="st98" d="M326 392c-2 29 24 45 7 44-7 2-14 1-15 11-1 11-24 0-24.5-1.3C285 433 317 404.5 326 392zm103-118c-9.9-4-16-16-18-25-4-6-9.9 1-11 6-7 54 29.5 28 29 19zm293 9c16 21 29.5 12 40 20.7 3 4 1 9.6-1 14-3 9-13 9-20 4.1-14.5-5.8-22-22.2-19-38.8z"/><path class="st40" d="M347 729c53.5 5 15 86 59 102 25 9 37-19.8 55-11.9 23 10.1 19.6 40 24 60.7 9.6 46 63 29.6 58-12.8"/><path class="st40" d="M519 861c89-9 47.5 119 114.5 115 39-6 35-47 25-76.5-3-9 0-18.5 7-24.5 24.5-21 59 15.5 84-2.5 15-11 8-33-2-45-12-15 0-32 10-43"/><path class="st40" d="M790 539c53 69.8-64 71 8 194.5 6 14 11 32 11 48.5 0 32-49 47.5-61 16"/><path class="st40" d="M721 287c2 51 64 31 74 88 6 34-11.5 71 7 103 10 18 27 31.5 34 51 8 19-4 47-27 42"/><path class="st40" d="M407 290.6c-16-8-12-29.9-2-41 17-15 40.5-10 61-6 29.8 1 49-29 75-38 50-17 81 55 133 44 23-5 48-11 69 1 25 14 33 55 10 75"/><path class="st40" d="M428 278c-16 26.5-51 17.5-76 28.5-20 10.5-28 33-23 55 10 47-43 51-39 88m25 4.5c1.5-23 35-26 41-5 7 25-13 47 16 72"/><path class="st40" d="M334 476c-20-34-61-31.5-89-9.6-20 8-43-3-64 4-22 7-28 37-5 43.5 6.5 2 23-2 26-1 15 4 11 25-5 30-21 6-10 29 6 29"/><path class="st40" d="M216 554.5c-15 15-14 41 2 55 37 22 41 31 36 69.7-2 31 46 41 53.5 10 2-10.8-4-22 0-33 13-32 44 20 62-44.5"/><path class="st40" d="M327 647.9c25 29.7-.5 47-7 75-10 32.5 34 65 53 25"/><path d="M729 262.5c9 4 16 13 18 22.5m-193-68c12.5 2 24.5 8 34 16m9 9 3 3m-163 10c-5.5-.9-12 .6-15.5 4M362 319.6c-9 2-14 10.7-16 19M339 449c4 1 6 6 6 9.8M308.5 470c-12-6-16-5-22-4M175 492c1-4 5-7 9-7.5m38 89.5c-4 8 0 16 4 19.9m44 78.6c-1 6 1 15 9 18m76-77.5c-3 14-13 14.5-16 16m4.5 119.5c-5-3-9-9-8-15M397 782c-1 14.5 7 28 14 30m90 53.9c-3 12 2 27 14.5 25M636 957c14-3 17-28 11-38m96-60.1c1-7 0-14-4-19m46-49.1c8-6.5 9-25 3-39M786 582c5-8 3-19-3-26m37-12c2-8.5-.6-18-7-24m-56-169c18 6 22 30 21 35" style="opacity:.7882;fill:none;stroke:#fff;stroke-width:10;stroke-linecap:round;stroke-linejoin:round;stroke-miterlimit:10;enable-background:new"/></g><radialGradient id="a14" cx="290.798" cy="544.048" r="35.638" gradientTransform="matrix(1.0835 0 0 1.2069 -20.488 -120.931)" gradientUnits="userSpaceOnUse"><stop offset="0" style="stop-color:#ffe100"/><stop offset="1" style="stop-color:#f70"/></radialGradient><path style="fill:url(#a14)" d="M294.5 494.1 255 568.3l79.5 8.9z"/><path style="opacity:.451;fill:#fff" d="m283 520.1 22 51.8 26 2.4-37-76.5"/><path style="fill:none;stroke:#000;stroke-width:10;stroke-linecap:round;stroke-linejoin:round;stroke-miterlimit:10" d="M294.5 494.1 255 568.3l79.5 8.9z"/><path d="M289 492.2c-16 29-29.8 52-44 79.8l88 12.5" style="opacity:.6;fill:none;stroke:#000;stroke-width:10;stroke-linecap:round;stroke-linejoin:round;stroke-miterlimit:10"/><path d="M294 524.9c2.5 5 5 9.5 6 14.5m6 14.6 2 4" style="opacity:.749;fill:none;stroke:#fff;stroke-width:10;stroke-linecap:round;stroke-linejoin:round;stroke-miterlimit:10"/><style>.st114,.st40{fill:none;stroke:#000;stroke-width:10;stroke-linecap:round;stroke-linejoin:round;stroke-miterlimit:10}.st114{opacity:.6}</style><g id="Gold_Grin"><linearGradient id="SVGID_00000081606631022545257470000014627497906921380512_" gradientUnits="userSpaceOnUse" x1="585.954" y1="672.231" x2="590.726" y2="803.954" gradientTransform="matrix(.9983 .05903 -.05903 .9983 45.793 -31.52)"><stop offset="0" style="stop-color:#ff7300"/><stop offset="1" style="stop-color:#fff700"/></linearGradient><path style="fill:url(#SVGID_00000081606631022545257470000014627497906921380512_)" d="M445 721.7c74 72 209 68.5 294 17.6 11-22 14-48 10-71.6-93 58-225 64-318 1.4 4 16.9 0 38.9 14 52.6z"/><linearGradient id="SVGID_00000100364754194457657420000004888850632049891250_" gradientUnits="userSpaceOnUse" x1="593.726" y1="750.857" x2="598.675" y2="857.774" gradientTransform="matrix(.9983 .05903 -.05903 .9983 45.793 -31.52)"><stop offset="0" style="stop-color:#ff7300"/><stop offset="1" style="stop-color:#fff700"/></linearGradient><path style="fill:url(#SVGID_00000100364754194457657420000004888850632049891250_)" d="M449.8 731c48 130 244 141 289 12.4C642 785 543 789.8 449.8 731z"/><path class="st40" d="M751 664.8c-87 59.8-236 69.9-322-1.1 27 236.3 338 220.8 322 1.1z"/><path class="st40" d="M444 722c84 74 209.8 64.5 295 19"/><path class="st114" d="M424 664.3C421 793 594 909 705 797"/><path class="st114" d="M433 673.1c85 69 224 55 314 4m-294 58.5c75 63.5 197 55 282 15"/><path d="M736 694.4c-1 9-3 18-5.8 26m-23.2 55c-12 16-29 28-49 35m-10.5 3.9c-3 .6-5 1-8 2" style="opacity:.7804;stroke:#fff;fill:none;stroke-width:10;stroke-linecap:round;stroke-linejoin:round;stroke-miterlimit:10"/></g><style>.st16,.st40,.st68{fill:none;stroke:#fff;stroke-width:10;stroke-linecap:round;stroke-linejoin:round;stroke-miterlimit:10}.st40,.st68{stroke:#000}.st68{opacity:.6;enable-background:new}</style><g id="visor"><path class="st68" d="M425 452.5c-10 10-4 21-3 34 1 17.5-25 17-23 50.8 2 14 13.5 16 23 23.7 16 13-12 46.5 10.5 59 28 9 30-39 60.5-13 35 26 45-3 76-1 14 3 23 19.6 37 17.6 15-2 18-20 26-30.7 12-16 32 5 58-7 14-7 10.8-31 27-33 10-1 22-7 25-17.8 1-4 .7-9 3-11.9 3-4 9-5 11-9"/><path class="st68" d="M483 474c-28 10-52 59-14 72m214-104.1c32-1 53 43 26 64m-216 .1c-38 74 159 54 184 5"/><path d="M667 467c-60.6-40.6-281 59-113 83.5 33 5 185.5-41 113-83.9v.4z" style="fill:#fff"/><linearGradient id="SVGID_00000094605671738681660570000007936507584095639945_" gradientUnits="userSpaceOnUse" x1="531.586" y1="652.528" x2="653.586" y2="545.528" gradientTransform="matrix(1 0 0 -1 0 1100)"><stop offset="0" style="stop-color:#7b00ff"/><stop offset="1" style="stop-color:#ff0084"/></linearGradient><path style="fill:url(#SVGID_00000094605671738681660570000007936507584095639945_)" d="M550 467.8c-14 18 11 55 13 77 5 7 19.7 5 25-2 12-19.9-19.5-44-2-62 34-18 16 44 33 54.9 14 3 24-5 18-20-3-15 7-32-2-46-17-26.7-57-6.7-85-1.9z"/><path class="st16" d="M616 472c4 3 6.5 7 7 12m1 11v3"/><path d="M589 509.6c-6 26 3 45 25 27.9 4-17.5-4-37.8-25-27.9z"/><path class="st40" d="M623 456c-34 1-67 9-98 22.5-39.6 17-51 50.7-3 66 40 13 129-5.8 157-37.4 27-31.1-23.5-52.1-56-51.1zm-138 18c-20 15.5-47 54-14 71m210-103.1c29 12 42 36.5 27 65"/><path class="st40" d="M548 470c-15 25 21 51 15 75m57-87c33.5 21 8 44.5 21 70m-51.3 15c6-24-26-55-1-64 30-4 16 42 30.5 58"/><path class="st40" d="M580 500c4 9 19.8 11 27 7"/><linearGradient id="SVGID_00000036223863161345539850000005378798673148752026_" gradientUnits="userSpaceOnUse" x1="447.777" y1="687.666" x2="720.78" y2="506.665" gradientTransform="matrix(1 0 0 -1 0 1100)"><stop offset="0" style="stop-color:#ff002b"/><stop offset="1" style="stop-color:#ffd500"/></linearGradient><path style="opacity:.6902;fill:url(#SVGID_00000036223863161345539850000005378798673148752026_);enable-background:new" d="M490 437.6c-27-5-59.5-2-69 27.5-2 8 6.5 14 8.5 23-13 13.5-31 37-21 56 17 16 28 12 22 41.3-4 12 0 36 16.5 28 24-20.5 25-38 55-9.8 36 21 42-28 89 4.9 5 3 10.5 7 16 5.2 5-1 9-7 10.9-11.5 19.7-55 51 4 78-31 18-41 36-9 44-50 9-8 22-7 24-22.2 3-23-25-35-31-54.5-6-26 13-63-29-63-42 9.6-31 58-93 33-71-35-61.4 34.5-120.9 23.1z"/><path class="st16" d="M713 395c6.5 2 9 9 9 15m-2 13v2m26.5 60c3 3 5 8 5 13m-183-80c6-3 13.5-1 19 2m12.4 4 2.1 1m-121.5 25c-7-1-15-1-22 0M726 523c1 4 0 8-2 11m-36 27.5c-2 4-4 9-9 10.6m-12-.1h-2m-56 21c-1 3-3.5 6-5.5 9M535 592c-4 4-10 5-16 5m-11-4-2-1m-65-1.3c-1.5 3-2 7-.5 10M427 513c-4 4-6 9-7 15m-.3 10.5.3 1.5"/><path class="st68" d="M737.5 501c3 7 11 11.5 19 10.6M449 464c-5 6-13 10.9-21 13"/><path class="st40" d="M449 464c-9 26-42 39-44 68-1 8 4 17 12 19 6.5 2 13 3 15 9.8 5 16-13 44 5.5 52 24 11 23-43 58-14 45 37 47-28 95 11 27 22 25-16 40.8-28.5 15-12 35 8 52 2 15-5 15-24 24-33 7-5 17-2 23-7 14-9.6 4-29.9 7-44"/><path class="st40" d="M431 486c-24-21 3-49.7 29.8-49.5 24-2 56 9.6 74-10 39-42 61-9.7 103-5.2 46.5 2 39-48.5 78-39.5 29 11 16 33 17 56 1 18 19 29.5 27 44.9 10 16 0 42.5-21 33"/></g><style>.st40{fill:none;stroke:#000;stroke-width:10;stroke-linecap:round;stroke-linejoin:round;stroke-miterlimit:10}</style><g id="Galaxy_Crown"><linearGradient id="SVGID_00000129190531900010010780000008211493552199069579_" gradientUnits="userSpaceOnUse" x1="495.731" y1="1031.076" x2="535.731" y2="648.076" gradientTransform="matrix(1 0 0 -1 0 1100)"><stop offset="0" style="stop-color:#ffea00"/><stop offset=".093" style="stop-color:#ffe302"/><stop offset=".23" style="stop-color:#ffcf07"/><stop offset=".395" style="stop-color:#ffae10"/><stop offset=".581" style="stop-color:#ff801d"/><stop offset=".786" style="stop-color:#ff452d"/><stop offset="1" style="stop-color:#ff0040"/></linearGradient><path style="fill:url(#SVGID_00000129190531900010010780000008211493552199069579_)" d="M298 414c149.8-77 330-85 494-62 6-85-26-182-88-242-3 27-13 53.5-28 76-26-7-53-48-58-61.8-7 17-16 51-31 61-11 0-21.5-.8-31 8-24-29.7-45-62-62-97-13 33-24 67-39 99.2-31 20.9-60-15.5-75-32-6 22-9 53-26 69-14-2-29 4-33 19-28-9-52-29-74-46.9-13 73.5 15 143 51 209.5z"/><path d="M577.5 217c-6-10 3-37.5 16-21.9 7 19 4 41 14.5 58 23 36 60 3 46-30.8-6-39 1-29 15-25.5 6-4 3-17-3.5-17.9-30-6-32-43-50-56-29.9 106-39.6 38-56.5 74m-204 61.6c-24.5-13-17-43 9.5-17 19.5 13.5 45 89.9 74 52 17-22.5-25-87.5 6-79.3 0-12 15-15-9.6-12-20.7-5-39-20.6-54-35-11 30-17 64-29 62-15-3-29.8 10-29 25" style="opacity:.6;enable-background:new"/><linearGradient id="SVGID_00000019662561078124328900000009874137589085370762_" gradientUnits="userSpaceOnUse" x1="484.984" y1="845.11" x2="541.002" y2="845.11" gradientTransform="matrix(1 0 0 -1 0 1100)"><stop offset="0" style="stop-color:#00ffb7"/><stop offset="1" style="stop-color:#0048ff"/></linearGradient><path style="fill:url(#SVGID_00000019662561078124328900000009874137589085370762_)" d="M486 258c-4-33 5-61 20-62.8 15-2 30 23.5 34 56.4s-5 61-20 63c-15 1.4-30-23.6-34-56.6z"/><linearGradient id="SVGID_00000159439059309634084680000001970710607329571458_" gradientUnits="userSpaceOnUse" x1="288.032" y1="774.971" x2="338.199" y2="774.971" gradientTransform="matrix(1 0 0 -1 0 1100)"><stop offset="0" style="stop-color:#00ffb7"/><stop offset="1" style="stop-color:#0048ff"/></linearGradient><path style="fill:url(#SVGID_00000159439059309634084680000001970710607329571458_)" d="M294 332.5c-8-22-6-44 5-48 10.9-4 26 11 35 33 8 22 6 44-5 48-12 4.2-27-10.5-35-33z"/><linearGradient id="SVGID_00000124848668680866045530000001350187592146382249_" gradientUnits="userSpaceOnUse" x1="699.174" y1="843.9" x2="746.034" y2="843.9" gradientTransform="matrix(1 0 0 -1 0 1100)"><stop offset="0" style="stop-color:#00ffb7"/><stop offset="1" style="stop-color:#0048ff"/></linearGradient><path style="fill:url(#SVGID_00000124848668680866045530000001350187592146382249_)" d="M701 259.5c-3.5-26 3-48 15-49.8s25 17.5 29 43c4 26-3 48-15 49.8s-25.5-17.5-29-43z"/><path d="M701 234c1 17 21 48 40 44 12-84-40-74-40-44.2v.2zm-211.1 29c12 18.5 37.5 21 49 12 5.1-112.5-68.9-90-49-12zM294 292.9c-13 22 14 58 39 49.6 13-12.7-23.3-76.5-39-49.6z" style="opacity:.3098;fill:#fff;enable-background:new"/><path class="st40" d="M300 414c-40.7-57-62-147-54-214 29 29 63 59 106 61"/><path class="st40" d="M324 253c-3-9 4-18 13-20.7 46-7 49 69 89 70.5 26.5 1 9.8-53 5-69.9-4-14-.9-39 20.5-32"/><path class="st40" d="M446 214c19-39 32-82 49-122 18 45 46 88 79 125"/><path class="st40" d="M559.9 198c4-15 24-16 32-3 12 21 6 49 24 67s43 4 42-20.5c1-17-12.5-33-9-50 2-10 19.7-16 24-5"/><path class="st40" d="M671 196.5c15-29 26-61 32-93 54 65 95 157.5 90 249-163-23-335-15-493 61M356.5 232c9.9-23 19-46 22-70.7 3 1 12.5 24 52 43"/><path class="st40" d="M586.5 187c14.5-19.8 22-44 29.5-67 14 31 17 34 39.5 58.5"/><ellipse transform="rotate(-6.735 513.282 255.02)" cx="513" cy="255" rx="27" ry="60" style="fill:none;stroke:#000;stroke-width:9.9999;stroke-linecap:round;stroke-linejoin:round;stroke-miterlimit:9.9999"/><ellipse transform="rotate(-20.437 313.317 325.182)" cx="313" cy="325" rx="21" ry="43" style="fill:none;stroke:#000;stroke-width:10.0005;stroke-linecap:round;stroke-linejoin:round;stroke-miterlimit:10.0005"/><ellipse transform="rotate(-8.378 722.899 256.192)" cx="723" cy="256" rx="22.5" ry="47" style="fill:none;stroke:#000;stroke-width:9.9997;stroke-linecap:round;stroke-linejoin:round;stroke-miterlimit:9.9997"/><path d="M289 290c-18 22 13 97 44 74m166-167.5c-43 16-7 159 30 113m182-99.7c-28.5 14-15 107 20.5 93m59.5 56.1c-163-26.5-331-7-483 59" style="opacity:.6;enable-background:new;fill:none;stroke:#000;stroke-width:10;stroke-linecap:round;stroke-linejoin:round;stroke-miterlimit:10"/><path d="M712 143.9c7 11 13 23 18 35m8 16.1 3 6m-242-64c4.5 11 9.6 21 15 30.9m10 11.1 3 4.5M260 242c0 14 2 28 6 42m1 14.5c0 2 .5 4 1 6m97-39.5c5.5 6 9.7 13 12 20m8 10 2 2m198-85c2 6 3 12 4 18m1.9 13 .6 2M771 279.8c2 14 3 29 3 43M723 229c5 8 8 16 9 25m1 12v6.5M513 219c5 9 9 19 9.9 29.6M526 263v5m-219 33c5 6 9 12 11.5 19m3.5 12 1 4.5" style="fill:none;stroke:#fff;stroke-width:10;stroke-linecap:round;stroke-linejoin:round;stroke-miterlimit:10"/></g><circle cx="550" cy="550" r="500" style="fill:none;stroke:#000;stroke-width:10;stroke-linecap:round;stroke-linejoin:round;stroke-miterlimit:10"/></svg>