<svg version="1.1" id="Layer_1" xmlns="http://www.w3.org/2000/svg" x="0" y="0" viewBox="0 0 1100 1100" style="enable-background:new 0 0 1100 1100" xml:space="preserve" xmlns:xlink="http://www.w3.org/1999/xlink"><style type="text/css">.st301{fill:#005BEF;stroke:#000000;stroke-width:10;stroke-linecap:round;stroke-linejoin:round;stroke-miterlimit:10;}</style><circle class="st301" cx="550" cy="553.7" r="500"/><defs><linearGradient id="a" x1="440.97" y1="180.1" x2="582.97" y2="998.27" gradientUnits="userSpaceOnUse"><stop offset="0" stop-color="#fbff03"/><stop offset=".25" stop-color="#ff751a"/><stop offset=".39" stop-color="#ff298d"/><stop offset=".54" stop-color="#e100ff"/><stop offset=".75" stop-color="#4f2bff"/><stop offset="1" stop-color="#03eeff"/></linearGradient></defs><path d="M531.7 209c-67.9 59.6-70.9 20.3-120.8 36.5-19.6 10.9-14.3 30.3-9.7 39.6 11.2 22.8-50.8 8.7-68.6 40.3-10.3 18.3.1 42.2-7.5 61.8s-33.8 34.7-36.8 52.2c-43.4 48.2-154 6.6-119.1 70.4 6.2 11.4 32.9-6.3 39.1 9.1 7 17.5-38.8 29.4-21.3 46.7 17.7 4.9 20.7 39.9 56.9 63.2 13.8 20 2.7 51.4 19.4 69.1 35.8 37.8 46.3-24.8 41.3-34.3 4.3-38.8 43.9-10.6 22.2 38.7-22.8 51.7 11.2 74 36.5 56.6 24-8.9 13.3 38.7 23.3 50.9 19.5 37.2 54.9 11.6 66.6 12 18.1.7 28 22.3 29.8 40.3 6.5 63 53.6 46.3 59.1 8 15.5-34.3 45.1 48.6 46.9 59.9 11.3 72.6 69.3 42 70.8 17.9 3.3-54.1-3.2-60.1 1.7-68.3 18.5-31.1 71 13.3 90.8-15.5 13.6-19.7-31.2-63.5 7.9-55.4 94 19.4 18.7-100.7 13.8-120.4-8.8-35.5 13.9-105.6 46.9-121.7 18.1-8.8 17.1-35.5 7.4-52.8s-24.9-30.6-31.4-48.9c-13.5-54.4 22.4-102.1-36-133.3a10.2 10.2 0 0 1-3.9-14.4c17.1-26.3 1.3-66.4-31.8-71.4-22.1-3.3-44.3 8.9-66.5 6.3-43.8-5.2-80.2-74.1-127-43.1Z" style="fill:url(#a)" data-name="Layer 57"/><style>.st40{fill:none;stroke:#000;stroke-width:10;stroke-linecap:round;stroke-linejoin:round;stroke-miterlimit:10}.st98{opacity:.6;enable-background:new}</style><g id="Outline"><path class="st98" d="M793 537c-1 .7-1 2-.5 3 5 10 11 35 25 30 8-2 21-13 18-22.4-.5-1-2-2-3-1.5-26 12-28-11-39-9.4v.3zm-34 274.5c6 5 26 8 25-3-6-7-20.6-12-21.5-26C750 772 744 803 759 811.5zm-219.3 52s1 .5 1 .8c9 13.5-3 36-18 40-34 6-9-6-6-44 .3-5.3 22.3 2.7 23 3.2zM342 731c5 7-4 22-4 33 8 13 29.6-5 33-14.9 2-12-17-21-28-20.2-1 .1-1 1.1-1 2.1zm31-120.2c2 23-8 47-26 61.9-13 10.9-17.5-30.6-8-27.9 6 4.2 28-18.8 34-34zm-157-59.9c-8 6-17 3-25 1-11 5 4 20 13.5 16 5-4 12-9 12-15.7-.5-.2-1.5-.2-.5-1.3zM337 473c-6-10-3-23 0-34 0-1 0-2-.6-2-9-9-23 11-19.8 20.7C318 463 338 475 337 472.8v.2z"/><path class="st98" d="M326 392c-2 29 24 45 7 44-7 2-14 1-15 11-1 11-24 0-24.5-1.3C285 433 317 404.5 326 392zm103-118c-9.9-4-16-16-18-25-4-6-9.9 1-11 6-7 54 29.5 28 29 19zm293 9c16 21 29.5 12 40 20.7 3 4 1 9.6-1 14-3 9-13 9-20 4.1-14.5-5.8-22-22.2-19-38.8z"/><path class="st40" d="M347 729c53.5 5 15 86 59 102 25 9 37-19.8 55-11.9 23 10.1 19.6 40 24 60.7 9.6 46 63 29.6 58-12.8"/><path class="st40" d="M519 861c89-9 47.5 119 114.5 115 39-6 35-47 25-76.5-3-9 0-18.5 7-24.5 24.5-21 59 15.5 84-2.5 15-11 8-33-2-45-12-15 0-32 10-43"/><path class="st40" d="M790 539c53 69.8-64 71 8 194.5 6 14 11 32 11 48.5 0 32-49 47.5-61 16"/><path class="st40" d="M721 287c2 51 64 31 74 88 6 34-11.5 71 7 103 10 18 27 31.5 34 51 8 19-4 47-27 42"/><path class="st40" d="M407 290.6c-16-8-12-29.9-2-41 17-15 40.5-10 61-6 29.8 1 49-29 75-38 50-17 81 55 133 44 23-5 48-11 69 1 25 14 33 55 10 75"/><path class="st40" d="M428 278c-16 26.5-51 17.5-76 28.5-20 10.5-28 33-23 55 10 47-43 51-39 88m25 4.5c1.5-23 35-26 41-5 7 25-13 47 16 72"/><path class="st40" d="M334 476c-20-34-61-31.5-89-9.6-20 8-43-3-64 4-22 7-28 37-5 43.5 6.5 2 23-2 26-1 15 4 11 25-5 30-21 6-10 29 6 29"/><path class="st40" d="M216 554.5c-15 15-14 41 2 55 37 22 41 31 36 69.7-2 31 46 41 53.5 10 2-10.8-4-22 0-33 13-32 44 20 62-44.5"/><path class="st40" d="M327 647.9c25 29.7-.5 47-7 75-10 32.5 34 65 53 25"/><path d="M729 262.5c9 4 16 13 18 22.5m-193-68c12.5 2 24.5 8 34 16m9 9 3 3m-163 10c-5.5-.9-12 .6-15.5 4M362 319.6c-9 2-14 10.7-16 19M339 449c4 1 6 6 6 9.8M308.5 470c-12-6-16-5-22-4M175 492c1-4 5-7 9-7.5m38 89.5c-4 8 0 16 4 19.9m44 78.6c-1 6 1 15 9 18m76-77.5c-3 14-13 14.5-16 16m4.5 119.5c-5-3-9-9-8-15M397 782c-1 14.5 7 28 14 30m90 53.9c-3 12 2 27 14.5 25M636 957c14-3 17-28 11-38m96-60.1c1-7 0-14-4-19m46-49.1c8-6.5 9-25 3-39M786 582c5-8 3-19-3-26m37-12c2-8.5-.6-18-7-24m-56-169c18 6 22 30 21 35" style="opacity:.7882;fill:none;stroke:#fff;stroke-width:10;stroke-linecap:round;stroke-linejoin:round;stroke-miterlimit:10;enable-background:new"/></g><defs><radialGradient id="axz" cx="274.03" cy="669.68" r="95.31" gradientTransform="matrix(1 0 0 1.52 0 -350.6)" gradientUnits="userSpaceOnUse"><stop offset="0" stop-color="#ff0"/><stop offset=".09" stop-color="#fff804"/><stop offset=".22" stop-color="#ffe611"/><stop offset=".37" stop-color="#ffc826"/><stop offset=".53" stop-color="#ff9e42"/><stop offset=".71" stop-color="#ff6867"/><stop offset=".9" stop-color="#ff2794"/><stop offset="1" stop-color="#ff00ae"/></radialGradient><style>.axz-2{fill:none;stroke-linecap:round;stroke-linejoin:round;stroke-width:10px;stroke:#000}</style></defs><path d="M284 571.6a39.5 39.5 0 0 1 23.8-24.7c51.9 51.9 50.7 215.3-24.6 244-89.2 17.6-92.9-123.2-59.1-177 12.6 3.9 22.5 14.1 28.2 26.5-19.9 37.1-15.3 95.7 16.6 117.4 0 0 78.6-58.2 15.1-186.2Z" style="fill:url(#axz)"/><path class="axz-2" d="M287.6 590s-5.4-30.7 20.2-43.1c51.9 51.9 50.7 215.3-24.6 244-16.7 6.4-35.5 2.1-48.4-10.2-41.5-39.7-36.9-118.8-10.7-166.8 6.4 3 22.3 11.8 28.4 25.6"/><path class="axz-2" d="M287.6 590c57 75.9-3.7 207.6-33.9 154.8-17.2-30-17.2-72.7-.7-103.5"/><path class="axz-2" d="M317.1 542c-27.5 6.7-34.8 31.7-33.5 63.4"/><path d="M315.9 556.4c-.4-3.7-2.4-8.4.4-13.5m-8.2 9.9c-13.4 8.1-17.6 25-17.8 39.8m-2.6 7.1c25.3 44.6 17.2 55.1 11.8 102.3m-75.3-80.9c8.9 4.2 18.3 12.3 23.2 21.5-21.9 35.5-12.9 122.8 21.5 115.2" style="opacity:.6;stroke:#000;fill:none;stroke-linecap:round;stroke-linejoin:round;stroke-width:10px"/><path d="M317.9 731.9a75.4 75.4 0 0 1-18.4 30.2m-7.9 8.8a22.9 22.9 0 0 1-8 5.3m27.5-201.8a104.3 104.3 0 0 1 11.9 31" style="stroke:#fff;fill:none;stroke-linecap:round;stroke-linejoin:round;stroke-width:10px"/><defs><radialGradient id="radial-gradientzaa" cx="765.67" cy="820.76" r="91.18" gradientTransform="matrix(-.16 .83 -1.38 -.03 2001.21 206.15)" gradientUnits="userSpaceOnUse"><stop offset="0" stop-color="#ef0aff"/><stop offset=".09" stop-color="#f10af6"/><stop offset=".24" stop-color="#f50add"/><stop offset=".44" stop-color="#fc0ab4"/><stop offset=".5" stop-color="#ff0aa5"/><stop offset="1" stop-color="#ff120a"/></radialGradient><linearGradient id="zaa" x1="655.87" y1="735.42" x2="729.22" y2="794.94" gradientUnits="userSpaceOnUse"><stop offset="0" stop-color="#ff0a47"/><stop offset="1" stop-color="#f30aff"/></linearGradient><style>.zaa-8{fill:#fff}.zaa-3,.zaa-4{fill:none;stroke-linecap:round;stroke-linejoin:round;stroke:#000;stroke-width:10px}.zaa-4{opacity:.6}.zaa-8{opacity:.42}</style></defs><path d="M746.8 738.6c-5.3-98.1-108.5-6-249.9-53.8-16-5.4-33.6-10.3-49.7-5.1-36.3 11.7-11.4 58.9 7 78.8 57 61.6 153.8 83 228.1 46.5Z" style="fill:#fff"/><path d="M735.1 749.8c-17.4 18.8-28.3 48.2-32.2 73.7-20.1-28.8-49-49.4-76.1-71.1 26.7-1.1 52.2-11.9 77.9-17.4 9.4 5.8 17 11.8 30.4 14.8Z" style="fill:url(#zaa)"/><path class="zaa-3" d="M746.8 738.6c-5.3-98.1-108.5-6-249.9-53.8-16-5.4-33.6-10.3-49.7-5.1-36.3 11.7-11.4 58.9 7 78.8 57 61.6 153.8 83 228.1 46.5"/><path class="zaa-3" d="M619.6 752.8a229 229 0 0 1 86 76m2.5-93.2a64.3 64.3 0 0 0 25.2 15.7M435.1 646.2c-26.5 2.1-46.7 28.8-41.7 54.8"/><path class="zaa-3" d="M743.1 719.5c-71.5 34.3-231 64.9-310.8-21.4"/><path class="zaa-4" d="M435.1 646.2c-28.1-8.1-56.3 32.7-41.7 54.8m41-14.5c-16.4 16.7-7.9 43.9 4.2 60.2 54.4 73.6 162.5 103.4 245.9 66.1 4.1 6.9 11.5 11.7 14 19.3 2.3 12 2.4 24.5 6 36.4"/><path class="zaa-4" d="M432.8 707.1c46.6 52.8 121.3 55.3 186.7 53.9 12.9-.2 37.2 25.2 58.1 41.8m63.3-75c-32.5 14.2-69.6 23.7-105 29.3m87.5-8.2c-21.3 11.1-35.9 28.5-42.5 49.3"/><path d="M433.5 659.7c-8 .9-21.7 9.4-24.2 21.9" style="stroke:#fff;stroke-width:10px;fill:none;stroke-linecap:round;stroke-linejoin:round"/><path d="M659.8 763.9a134.8 134.8 0 0 1 14.3 10" style="stroke-width:8px;stroke:#fff;fill:none;stroke-linecap:round;stroke-linejoin:round"/><ellipse cx="749.8" cy="821.8" rx="107.7" ry="68.9" transform="rotate(-51.8 749.772 821.786)" style="fill:url(#radial-gradientzaa)"/><ellipse class="zaa-8" cx="711.3" cy="899.3" rx="18.2" ry="15" transform="rotate(-76.7 710.867 899.148)"/><ellipse class="zaa-8" cx="778.7" cy="759.5" rx="22.7" ry="16.3" transform="rotate(-61.4 779.5 759.65)"/><ellipse class="zaa-8" cx="814.3" cy="791" rx="14.5" ry="11.3" transform="rotate(-66.8 814.833 791.109)"/><ellipse class="zaa-8" cx="771.4" cy="867.8" rx="25.6" ry="19.9" transform="rotate(-66.8 771.867 867.986)"/><ellipse class="zaa-8" cx="729.4" cy="796.5" rx="22.9" ry="17.8" transform="rotate(-66.8 729.813 796.628)"/><ellipse class="zaa-8" cx="772.3" cy="816.6" rx="12.1" ry="9.4" transform="rotate(-66.8 772.817 816.715)"/><ellipse class="zaa-8" cx="729.3" cy="861" rx="12.1" ry="10.3" transform="rotate(-89.8 728.925 860.985)"/><ellipse class="zaa-8" cx="804.1" cy="833.8" rx="9.6" ry="7.5" transform="rotate(-66.8 804.545 833.937)"/><ellipse class="zaa-8" cx="745.6" cy="748.9" rx="10.5" ry="8.1" transform="rotate(-66.8 746.123 748.958)"/><ellipse class="zaa-8" cx="689.9" cy="800.7" rx="14.1" ry="9.5" transform="rotate(-59 689.062 800.39)"/><ellipse class="zaa-8" cx="696.7" cy="851.2" rx="16.2" ry="10.6" transform="rotate(-58 696.756 851.168)"/><ellipse class="zaa-8" cx="819.8" cy="748.9" rx="10" ry="7" transform="rotate(-60.3 820.367 749.004)"/><ellipse class="zaa-3" cx="749.8" cy="821.8" rx="107.7" ry="68.9" transform="rotate(-51.8 749.772 821.786)"/><path d="M770.6 745.7a128.4 128.4 0 0 0-69.7 58.9m-9.2 16.3a74.3 74.3 0 0 0-3.9 11.2" style="stroke-width:13px;opacity:.82;stroke:#fff;fill:none;stroke-linecap:round;stroke-linejoin:round"/><style>.st114,.st40{fill:none;stroke-width:10;stroke-linecap:round;stroke-linejoin:round;stroke-miterlimit:10;stroke:#000}.st114{opacity:.6}</style><g id="pyramid_eyes"><linearGradient id="SVGID_00000087410782692247136030000000956565439834726541_" gradientUnits="userSpaceOnUse" x1="414.243" y1="543.244" x2="593.219" y2="543.244" gradientTransform="matrix(1.0318 .1598 -.1592 1.0282 76.34 -111.374)"><stop offset="0" style="stop-color:#fff200"/><stop offset="1" style="stop-color:#ff0051"/></linearGradient><path style="fill:url(#SVGID_00000087410782692247136030000000956565439834726541_)" d="M520.5 442.8 404 597.9l188 10.6z"/><linearGradient id="SVGID_00000168831845365355998570000006909071484893893810_" gradientUnits="userSpaceOnUse" x1="614.824" y1="519.499" x2="758.908" y2="519.499" gradientTransform="matrix(1.0318 .1598 -.1592 1.0282 76.34 -111.374)"><stop offset="0" style="stop-color:#fff200"/><stop offset="1" style="stop-color:#ff005e"/></linearGradient><path style="fill:url(#SVGID_00000168831845365355998570000006909071484893893810_)" d="m684 440.2-69.5 168.2 155.3-26.5z"/><path class="st114" d="M513 441.8c-39.9 53.5-84 105-120 160.5l196 11m89-174c-23 59-52 116-71 176.5l161-29"/><path class="st114" d="M432 568.7c44 21 96 24 142 9m58 .7c41 4 84 .5 120-18"/><path d="M633 568c32 9 91 3 118-16.2l-22-37.3-78 8.3-18 45.2zm-198-6.2c41 21 95 25 137 6.1l-16-41.4-98 3.7-23 31.6z" style="fill:#fff"/><linearGradient id="SVGID_00000104687410609106255600000008005634098492869297_" gradientUnits="userSpaceOnUse" x1="653.571" y1="533.828" x2="709.977" y2="533.828" gradientTransform="matrix(1.0318 .1598 -.1592 1.0282 76.34 -111.374)"><stop offset="0" style="stop-color:#00ffd0"/><stop offset="1" style="stop-color:#002fff"/></linearGradient><path style="fill:url(#SVGID_00000104687410609106255600000008005634098492869297_)" d="M676 520.8c-13 12-29 68 37 46.3 14-3 10.7-21 5-29.7-16.5 12-32-.9-28-18.9l-14 2.3z"/><linearGradient id="SVGID_00000092416489060258335420000012955109637503799733_" gradientUnits="userSpaceOnUse" x1="481.368" y1="567.233" x2="535.584" y2="567.233" gradientTransform="matrix(1.0318 .1598 -.1592 1.0282 76.34 -111.374)"><stop offset="0" style="stop-color:#00ffd0"/><stop offset="1" style="stop-color:#002fff"/></linearGradient><path style="fill:url(#SVGID_00000092416489060258335420000012955109637503799733_)" d="M491 527.2c-11 15-17 51 9.9 52.4 24 2 43.5-2 34-29.8-31 2-30.8-17-25-25.1l-18.9 2.5z"/><path d="M517 472.9c3 8.5 6 17 9 25m5 12.1 1.5 3M686 470l12 22m6 10 1 2" style="fill:none;stroke:#fff;stroke-width:10;stroke-linecap:round;stroke-linejoin:round;stroke-miterlimit:10"/><path class="st40" d="M558.5 532.6c-33-13-74-10-106 3m123 35.5c-46 17-99 14-143-8M728 519c-26-5-53-3-78 6m103 31.6c-38 16-80 21-121 15"/><path class="st40" d="M488.5 526.9c-8.5 16-9.6 35-3 52m45.5-52.5c8 16 9.9 36 4 53"/><path class="st40" d="M509 525.7c-9 17 12 34 27 23m135.5-27.8c-10 23.5-7.5 34 3 50.7m37.5-54c9 14 13 30 11 46"/><path class="st40" d="M693 517.9c-14 16 11 38 25 16m-197.5-91.1L404 597.9l188 10.6z"/><path class="st40" d="m684 440.2-69.5 168.2 155.3-26.5z"/></g><style>.st40,.st68{fill:none;stroke:#000;stroke-width:10;stroke-linecap:round;stroke-linejoin:round;stroke-miterlimit:10}.st68{opacity:.6;enable-background:new}</style><g id="Transmit"><linearGradient id="SVGID_00000127734904184448701060000009899486580737071243_" gradientUnits="userSpaceOnUse" x1="542.818" y1="876.092" x2="557.818" y2="742.092" gradientTransform="matrix(1 0 0 -1 0 1100)"><stop offset="0" style="stop-color:#00ffd0"/><stop offset=".104" style="stop-color:#00f3d3"/><stop offset=".293" style="stop-color:#00d2da"/><stop offset=".547" style="stop-color:#009de6"/><stop offset=".852" style="stop-color:#0055f7"/><stop offset="1" style="stop-color:#002fff"/></linearGradient><path style="fill:url(#SVGID_00000127734904184448701060000009899486580737071243_)" d="M549 237.6c-12 19-23 38.5-34 58.4l47 44.7 22-69.5-35-33.6z"/><linearGradient id="SVGID_00000150060648064343517610000006857265343630394550_" gradientUnits="userSpaceOnUse" x1="529.9" y1="863.989" x2="536.9" y2="798.989" gradientTransform="matrix(1 0 0 -1 0 1100)"><stop offset="0" style="stop-color:#00ffd0"/><stop offset=".104" style="stop-color:#00f3d3"/><stop offset=".293" style="stop-color:#00d2da"/><stop offset=".547" style="stop-color:#009de6"/><stop offset=".852" style="stop-color:#0055f7"/><stop offset="1" style="stop-color:#002fff"/></linearGradient><path style="fill:url(#SVGID_00000150060648064343517610000006857265343630394550_)" d="M548 241c2 2 1 10 5 49.3-11 1.5-25 4-35 5.4l30-54.7z"/><linearGradient id="SVGID_00000103974633343853836120000000367405727942247351_" gradientUnits="userSpaceOnUse" x1="584.31" y1="809.646" x2="552.31" y2="781.646" gradientTransform="matrix(1 0 0 -1 0 1100)"><stop offset="0" style="stop-color:#00ffd0"/><stop offset=".099" style="stop-color:#00f6d2"/><stop offset=".262" style="stop-color:#00ddd8"/><stop offset=".469" style="stop-color:#00b4e1"/><stop offset=".713" style="stop-color:#007bee"/><stop offset=".984" style="stop-color:#0034fe"/><stop offset="1" style="stop-color:#002fff"/></linearGradient><path style="fill:url(#SVGID_00000103974633343853836120000000367405727942247351_)" d="M554 290c2 18 4.5 31 6 48.5l19.6-50.9L554 290z"/><linearGradient id="SVGID_00000175290621592340520880000014853312583583039662_" gradientUnits="userSpaceOnUse" x1="562.39" y1="811.688" x2="530.39" y2="771.688" gradientTransform="matrix(1 0 0 -1 0 1100)"><stop offset="0" style="stop-color:#00ffd0"/><stop offset=".104" style="stop-color:#00f3d3"/><stop offset=".293" style="stop-color:#00d2da"/><stop offset=".547" style="stop-color:#009de6"/><stop offset=".852" style="stop-color:#0055f7"/><stop offset="1" style="stop-color:#002fff"/></linearGradient><path style="fill:url(#SVGID_00000175290621592340520880000014853312583583039662_)" d="M519 296c9.8-2 28-4 35-5.5l6 46.9-41-41.7v.3z"/><linearGradient id="SVGID_00000160910735292254152780000008448727389273966231_" gradientUnits="userSpaceOnUse" x1="675.74" y1="887.689" x2="552.74" y2="990.689" gradientTransform="matrix(1 0 0 -1 0 1100)"><stop offset="0" style="stop-color:#0400ff"/><stop offset=".214" style="stop-color:#0341f4"/><stop offset=".5" style="stop-color:#0291e6"/><stop offset=".736" style="stop-color:#01cddd"/><stop offset=".908" style="stop-color:#00f1d6"/><stop offset="1" style="stop-color:#00ffd4"/></linearGradient><path style="fill:url(#SVGID_00000160910735292254152780000008448727389273966231_)" d="M586 172.4c-7.5 37-17 73.5-29 109.3l106-92.1-26-7s89.7-97 89-97c-13.5-12-35-15-53-17.2l-34 71-8-24.8-30 73.5-15-16.1v.4z"/><linearGradient id="SVGID_00000022529941660613312940000016512510607446133916_" gradientUnits="userSpaceOnUse" x1="619.886" y1="971.899" x2="750.886" y2="823.899" gradientTransform="matrix(1 0 0 -1 0 1100)"><stop offset="0" style="stop-color:#0040ff"/><stop offset=".114" style="stop-color:#1f36ff"/><stop offset=".341" style="stop-color:#5823ff"/><stop offset=".55" style="stop-color:#8414ff"/><stop offset=".737" style="stop-color:#a409ff"/><stop offset=".893" style="stop-color:#b802ff"/><stop offset="1" style="stop-color:#bf00ff"/></linearGradient><path style="fill:url(#SVGID_00000022529941660613312940000016512510607446133916_)" d="M559.6 287.3c31-35 65-67 101-97.4l-26-8s94-97 95-96c5-1 9.8 1 14.5 3 29 12 57 26 81.5 44.3l-109 71.7 24 10-181 72.1v.3z"/><linearGradient id="SVGID_00000142898874918184540610000016770726687242683319_" gradientUnits="userSpaceOnUse" x1="686.196" y1="943.103" x2="766.196" y2="791.103" gradientTransform="matrix(1 0 0 -1 0 1100)"><stop offset="0" style="stop-color:#ff00e1"/><stop offset=".143" style="stop-color:#ea00e4"/><stop offset=".441" style="stop-color:#b200ed"/><stop offset=".864" style="stop-color:#5a00fa"/><stop offset="1" style="stop-color:#3c00ff"/></linearGradient><path style="fill:url(#SVGID_00000142898874918184540610000016770726687242683319_)" d="M567 287.3c47-2 93.5-6 139.9-11.8L688 256l118-11.4-24-20s105-43 104.5-44c-19-18-39.9-33.5-63-46.2l-107 70 21.5 10.1L567 287v.3z"/><path class="st40" d="m676 68.2-39 74-5-35-33 84.9-13-22.1-33 119.7 156-12.5-23-20.2 121-11.2-27-21.4 107-39.9"/><path class="st40" d="m554 289.3 111-100.9-31-6.6L729 84m94 49c-38 25-73 47-109 71.3l29 9.3-184 72"/><path class="st40" d="M562 250c-4-5-9-9.6-14-14.2l-33 60.4 47 48.5 18.5-55"/><path class="st68" d="M544 235c-15 23-24 39.5-37 62 0 0 54 52 55 52.9 9-19.9 18-39.9 26-59.9"/><path class="st68" d="M559 277c34-32 62.5-58 93-87.9l-25-6.2 93-100m99 45.1c-41 28-76 51-113 76.5l22.5 9.7-152 59"/></g><circle cx="550" cy="550" r="500" style="fill:none;stroke:#000;stroke-width:10;stroke-linecap:round;stroke-linejoin:round;stroke-miterlimit:10"/></svg>