<svg version="1.1" id="Layer_1" xmlns="http://www.w3.org/2000/svg" x="0" y="0" viewBox="0 0 1100 1100" style="enable-background:new 0 0 1100 1100" xml:space="preserve" xmlns:xlink="http://www.w3.org/1999/xlink"><style type="text/css">.st301{fill:#005BEF;stroke:#000000;stroke-width:10;stroke-linecap:round;stroke-linejoin:round;stroke-miterlimit:10;}</style><circle class="st301" cx="550" cy="553.7" r="500"/><path d="M533 209.1c-68 59.6-71 20-121 36.5-19.6 10.9-14 30-9.7 39.6 11 23-51 9-69 40.3-10 18 .1 42-7.5 61.8-9 19.6-34 35-37 52.2-43 48-154 7-119 70.4 6 11 33-6 39 9.1 7 17.5-39 29-21 46.7 18 5 21 39.9 57 63.2 14 20 3 51 19 69.1 35.8 38 46-25 41-34.3 4-39 44-11 22 38.7-23 52 11 74 36.5 56.6 24-9 13 39 23 50.9 19.5 37 55 12 67 12 18 1 28 22 29.8 40.3 6.5 63 54 46 59 8 15.5-34 45 49 47 59.9 11 73 69 42 71 17.9 3-54-3-60.1 2-68.3 18.5-31 71 13 90.8-15.5 14-19.7-31-63.5 8-55.4 94 19 19-101 14-120.4-9-35.5 14-106 47-121.7 18-9 17-35.5 7-52.8-9.5-17-25-30.6-31-48.9-13.5-54 22-102-36-133.3-5-3-7-9.5-4-14.4 17-26 1-66-32-71.4-22-3-44 9-66.5 6.3C616 247 579.9 178 533 209.1z" style="fill:#009dff"/><style>.st40{fill:none;stroke:#000;stroke-width:10;stroke-linecap:round;stroke-linejoin:round;stroke-miterlimit:10}.st98{opacity:.6;enable-background:new}</style><g id="Outline"><path class="st98" d="M793 537c-1 .7-1 2-.5 3 5 10 11 35 25 30 8-2 21-13 18-22.4-.5-1-2-2-3-1.5-26 12-28-11-39-9.4v.3zm-34 274.5c6 5 26 8 25-3-6-7-20.6-12-21.5-26C750 772 744 803 759 811.5zm-219.3 52s1 .5 1 .8c9 13.5-3 36-18 40-34 6-9-6-6-44 .3-5.3 22.3 2.7 23 3.2zM342 731c5 7-4 22-4 33 8 13 29.6-5 33-14.9 2-12-17-21-28-20.2-1 .1-1 1.1-1 2.1zm31-120.2c2 23-8 47-26 61.9-13 10.9-17.5-30.6-8-27.9 6 4.2 28-18.8 34-34zm-157-59.9c-8 6-17 3-25 1-11 5 4 20 13.5 16 5-4 12-9 12-15.7-.5-.2-1.5-.2-.5-1.3zM337 473c-6-10-3-23 0-34 0-1 0-2-.6-2-9-9-23 11-19.8 20.7C318 463 338 475 337 472.8v.2z"/><path class="st98" d="M326 392c-2 29 24 45 7 44-7 2-14 1-15 11-1 11-24 0-24.5-1.3C285 433 317 404.5 326 392zm103-118c-9.9-4-16-16-18-25-4-6-9.9 1-11 6-7 54 29.5 28 29 19zm293 9c16 21 29.5 12 40 20.7 3 4 1 9.6-1 14-3 9-13 9-20 4.1-14.5-5.8-22-22.2-19-38.8z"/><path class="st40" d="M347 729c53.5 5 15 86 59 102 25 9 37-19.8 55-11.9 23 10.1 19.6 40 24 60.7 9.6 46 63 29.6 58-12.8"/><path class="st40" d="M519 861c89-9 47.5 119 114.5 115 39-6 35-47 25-76.5-3-9 0-18.5 7-24.5 24.5-21 59 15.5 84-2.5 15-11 8-33-2-45-12-15 0-32 10-43"/><path class="st40" d="M790 539c53 69.8-64 71 8 194.5 6 14 11 32 11 48.5 0 32-49 47.5-61 16"/><path class="st40" d="M721 287c2 51 64 31 74 88 6 34-11.5 71 7 103 10 18 27 31.5 34 51 8 19-4 47-27 42"/><path class="st40" d="M407 290.6c-16-8-12-29.9-2-41 17-15 40.5-10 61-6 29.8 1 49-29 75-38 50-17 81 55 133 44 23-5 48-11 69 1 25 14 33 55 10 75"/><path class="st40" d="M428 278c-16 26.5-51 17.5-76 28.5-20 10.5-28 33-23 55 10 47-43 51-39 88m25 4.5c1.5-23 35-26 41-5 7 25-13 47 16 72"/><path class="st40" d="M334 476c-20-34-61-31.5-89-9.6-20 8-43-3-64 4-22 7-28 37-5 43.5 6.5 2 23-2 26-1 15 4 11 25-5 30-21 6-10 29 6 29"/><path class="st40" d="M216 554.5c-15 15-14 41 2 55 37 22 41 31 36 69.7-2 31 46 41 53.5 10 2-10.8-4-22 0-33 13-32 44 20 62-44.5"/><path class="st40" d="M327 647.9c25 29.7-.5 47-7 75-10 32.5 34 65 53 25"/><path d="M729 262.5c9 4 16 13 18 22.5m-193-68c12.5 2 24.5 8 34 16m9 9 3 3m-163 10c-5.5-.9-12 .6-15.5 4M362 319.6c-9 2-14 10.7-16 19M339 449c4 1 6 6 6 9.8M308.5 470c-12-6-16-5-22-4M175 492c1-4 5-7 9-7.5m38 89.5c-4 8 0 16 4 19.9m44 78.6c-1 6 1 15 9 18m76-77.5c-3 14-13 14.5-16 16m4.5 119.5c-5-3-9-9-8-15M397 782c-1 14.5 7 28 14 30m90 53.9c-3 12 2 27 14.5 25M636 957c14-3 17-28 11-38m96-60.1c1-7 0-14-4-19m46-49.1c8-6.5 9-25 3-39M786 582c5-8 3-19-3-26m37-12c2-8.5-.6-18-7-24m-56-169c18 6 22 30 21 35" style="opacity:.7882;fill:none;stroke:#fff;stroke-width:10;stroke-linecap:round;stroke-linejoin:round;stroke-miterlimit:10;enable-background:new"/></g><style>.st113{fill:url(#SVGID_00000161607897382723119130000008384714424499667899_);stroke:#000;stroke-width:10;stroke-linecap:round;stroke-linejoin:round;stroke-miterlimit:10}.st115{fill:url(#SVGID_00000060750496457387242310000012666657064974295186_)}.st116{opacity:.6902;fill:url(#SVGID_00000147217783223614028420000005859567438160853156_);enable-background:new}</style><g id="Diamond"><linearGradient id="SVGID_00000047747315158047275670000003291867314489516677_" gradientUnits="userSpaceOnUse" x1="288.392" y1="548.057" x2="314.227" y2="509.458"><stop offset="0" style="stop-color:#00fff2"/><stop offset=".094" style="stop-color:#00f2f3"/><stop offset=".271" style="stop-color:#00cef5"/><stop offset=".51" style="stop-color:#0095f8"/><stop offset=".799" style="stop-color:#0047fc"/><stop offset="1" style="stop-color:#000dff"/></linearGradient><path style="fill:url(#SVGID_00000047747315158047275670000003291867314489516677_)" d="M288 501.7c2 15 4 33 7 46.8l29-6.4-36-40.4z"/><linearGradient id="SVGID_00000141446425912342851330000003408777914311007933_" gradientUnits="userSpaceOnUse" x1="267.149" y1="523.397" x2="303.78" y2="545.402"><stop offset="0" style="stop-color:#00fff2"/><stop offset=".095" style="stop-color:#00f1f3"/><stop offset=".273" style="stop-color:#00cef5"/><stop offset=".514" style="stop-color:#0094f8"/><stop offset=".807" style="stop-color:#0045fc"/><stop offset="1" style="stop-color:#000dff"/></linearGradient><path style="fill:url(#SVGID_00000141446425912342851330000003408777914311007933_)" d="M264 553.5c10-2 20.5-4 30.7-5.8l-6-43.6-24.7 49.4z"/><linearGradient id="SVGID_00000109030460764858650640000015191774076603487363_" gradientUnits="userSpaceOnUse" x1="274.137" y1="586.606" x2="296.946" y2="541.468"><stop offset="0" style="stop-color:#00fff2"/><stop offset="1" style="stop-color:#000dff"/></linearGradient><path style="fill:url(#SVGID_00000109030460764858650640000015191774076603487363_)" d="m260.1 554 34.9-6.3 6 45.4z"/><linearGradient id="SVGID_00000006686354308698079230000008291800467576291461_" gradientUnits="userSpaceOnUse" x1="288.999" y1="550.828" x2="317.454" y2="572.732"><stop offset="0" style="stop-color:#00fff2"/><stop offset=".125" style="stop-color:#00e8f3"/><stop offset=".388" style="stop-color:#00abf6"/><stop offset=".764" style="stop-color:#004cfc"/><stop offset="1" style="stop-color:#000dff"/></linearGradient><path style="fill:url(#SVGID_00000006686354308698079230000008291800467576291461_)" d="M301 593.8c-3-16-4-28.5-7-46.1l26.5-5.6-19.5 51.7z"/><path style="fill:none;stroke:#000;stroke-width:10;stroke-linecap:round;stroke-linejoin:round;stroke-miterlimit:10" d="m287 495-27.1 58.9L303 602l23-60.6z"/><path d="M282 493.7c-9.8 22-19 40.6-28 60.8l46 52" style="opacity:.6;fill:none;stroke:#000;stroke-width:10;stroke-linecap:round;stroke-linejoin:round;stroke-miterlimit:10"/></g><style>.st40,.st68{fill:none;stroke-width:10;stroke-linecap:round;stroke-linejoin:round;stroke-miterlimit:10;stroke:#000}.st68{opacity:.6;enable-background:new}.st102{fill:#fff}</style><g id="Eye_Tounge"><path class="st102" d="M741 663c-20.5 18-46 0-62 23-25.5 38-1.5 18 5 70.8 5 44 32 46.5 36 30.2 4-15-5-30-5-46 .5-21.5 28-31 32-52 0-8 1-18.5-6-26zm-298 24c-5.5 29-5.5 79 32 84 33 7 44 42 54 38 25-30 12-78 7.5-98.7C509.5 705 492 683 443 687z"/><linearGradient id="SVGID_00000027599348716876755490000000517666610371899790_" gradientUnits="userSpaceOnUse" x1="561.184" y1="-370.643" x2="649.184" y2="-208.643" gradientTransform="translate(0 1066)"><stop offset="0" style="stop-color:#ff00d9"/><stop offset="1" style="stop-color:#ff2600"/></linearGradient><path style="fill:url(#SVGID_00000027599348716876755490000000517666610371899790_)" d="M531 815.6c7 14 29.5 21 42 9.8 17-28 4-62 14-75 17.5-22 49-7 39.7 21-7 20.1 19 13 26 44.3 15 20 79-8 41.5-29-9.6-11-14-84-39.7-66-34 28-86-40.9-114-8C529.6 747 564 751 531 815.6z"/><path class="st102" d="M600 744c-27 21 34 40.1 24 7-3-10-13-12-24-7.4v.4z"/><path d="M584 755c-7 13.5 2 47-5 67 2 1 7-9.6 63-3.5 19 2 4-25-6.5-26-7-5-11-13-11-21.5-16.5 1-32.5-11-40.5-16.2v.2z"/><path class="st68" d="M443 690.7c9 10 23 2 34 4 20 6 28 23 55 23-9.6 33 23 36-7 86M742 669c-21 15-35 4-52 12.3s-8.5 34-35 47c-42 20.8-69-29.7-109-15"/><path class="st68" d="M428 669c19 24-10 65 23 98 29.8 29.8 30.8-5 73 51.9 30 41 55 4 92 3.1 26-1 63 18 82-8"/><path d="M662 735c2.5 6 4 13 4 20m2 12c0 2 1 3 2 4.5m-116-51.7c-2 6-2 13 0 19.7M544 815c.9-4 3-7 5-10.5M735 639c-2 6-6.5 11-12 14m-12 4c-1 0-2.5.5-4 .7M656.5 691c-1.5 9-9 17-17.5 19m-15 2c-1 0-2-.6-3-1m-105-18.5c7 5 16 6 24 3M444 664c3 5.5 8 11 15 9.6" style="fill:none;stroke:#fff;stroke-width:10;stroke-linecap:round;stroke-linejoin:round;stroke-miterlimit:10"/><path class="st40" d="M429.5 666c11 23 20 24 44.5 21 18-2 30.5 18 48 23 29.8 6 33-19.7 70 3.3 24 17 56 26 73.5-3 7-12 9-28 21-35 12-6 57.5 6 67-37.5"/><path class="st40" d="M443 685c-7 25-6 56 11 77 13 15 38 9.7 52 24 24 25 32 62 69.8 40.4 58-33 97 27 138-28 18-24-4-42 0-58 7-27 46-32 28-79"/><path class="st40" d="M541 712c-15 43 28 40.9-12 99.6M664 715c33 23 2 57 44 84.5M578 822c-4-18 13-10 3-49-6-24 31-45.8 44-22 4 7 0 16 0 23.9-.5 22 32 14 27 44"/><path class="st40" d="M594 746c-11 20 18 32 31 20"/></g><style>.st16,.st40,.st68{fill:none;stroke:#fff;stroke-width:10;stroke-linecap:round;stroke-linejoin:round;stroke-miterlimit:10}.st40,.st68{stroke:#000}.st68{opacity:.6;enable-background:new}</style><g id="visor"><path class="st68" d="M425 452.5c-10 10-4 21-3 34 1 17.5-25 17-23 50.8 2 14 13.5 16 23 23.7 16 13-12 46.5 10.5 59 28 9 30-39 60.5-13 35 26 45-3 76-1 14 3 23 19.6 37 17.6 15-2 18-20 26-30.7 12-16 32 5 58-7 14-7 10.8-31 27-33 10-1 22-7 25-17.8 1-4 .7-9 3-11.9 3-4 9-5 11-9"/><path class="st68" d="M483 474c-28 10-52 59-14 72m214-104.1c32-1 53 43 26 64m-216 .1c-38 74 159 54 184 5"/><path d="M667 467c-60.6-40.6-281 59-113 83.5 33 5 185.5-41 113-83.9v.4z" style="fill:#fff"/><linearGradient id="SVGID_00000094605671738681660570000007936507584095639945_" gradientUnits="userSpaceOnUse" x1="531.586" y1="652.528" x2="653.586" y2="545.528" gradientTransform="matrix(1 0 0 -1 0 1100)"><stop offset="0" style="stop-color:#7b00ff"/><stop offset="1" style="stop-color:#ff0084"/></linearGradient><path style="fill:url(#SVGID_00000094605671738681660570000007936507584095639945_)" d="M550 467.8c-14 18 11 55 13 77 5 7 19.7 5 25-2 12-19.9-19.5-44-2-62 34-18 16 44 33 54.9 14 3 24-5 18-20-3-15 7-32-2-46-17-26.7-57-6.7-85-1.9z"/><path class="st16" d="M616 472c4 3 6.5 7 7 12m1 11v3"/><path d="M589 509.6c-6 26 3 45 25 27.9 4-17.5-4-37.8-25-27.9z"/><path class="st40" d="M623 456c-34 1-67 9-98 22.5-39.6 17-51 50.7-3 66 40 13 129-5.8 157-37.4 27-31.1-23.5-52.1-56-51.1zm-138 18c-20 15.5-47 54-14 71m210-103.1c29 12 42 36.5 27 65"/><path class="st40" d="M548 470c-15 25 21 51 15 75m57-87c33.5 21 8 44.5 21 70m-51.3 15c6-24-26-55-1-64 30-4 16 42 30.5 58"/><path class="st40" d="M580 500c4 9 19.8 11 27 7"/><linearGradient id="SVGID_00000036223863161345539850000005378798673148752026_" gradientUnits="userSpaceOnUse" x1="447.777" y1="687.666" x2="720.78" y2="506.665" gradientTransform="matrix(1 0 0 -1 0 1100)"><stop offset="0" style="stop-color:#ff002b"/><stop offset="1" style="stop-color:#ffd500"/></linearGradient><path style="opacity:.6902;fill:url(#SVGID_00000036223863161345539850000005378798673148752026_);enable-background:new" d="M490 437.6c-27-5-59.5-2-69 27.5-2 8 6.5 14 8.5 23-13 13.5-31 37-21 56 17 16 28 12 22 41.3-4 12 0 36 16.5 28 24-20.5 25-38 55-9.8 36 21 42-28 89 4.9 5 3 10.5 7 16 5.2 5-1 9-7 10.9-11.5 19.7-55 51 4 78-31 18-41 36-9 44-50 9-8 22-7 24-22.2 3-23-25-35-31-54.5-6-26 13-63-29-63-42 9.6-31 58-93 33-71-35-61.4 34.5-120.9 23.1z"/><path class="st16" d="M713 395c6.5 2 9 9 9 15m-2 13v2m26.5 60c3 3 5 8 5 13m-183-80c6-3 13.5-1 19 2m12.4 4 2.1 1m-121.5 25c-7-1-15-1-22 0M726 523c1 4 0 8-2 11m-36 27.5c-2 4-4 9-9 10.6m-12-.1h-2m-56 21c-1 3-3.5 6-5.5 9M535 592c-4 4-10 5-16 5m-11-4-2-1m-65-1.3c-1.5 3-2 7-.5 10M427 513c-4 4-6 9-7 15m-.3 10.5.3 1.5"/><path class="st68" d="M737.5 501c3 7 11 11.5 19 10.6M449 464c-5 6-13 10.9-21 13"/><path class="st40" d="M449 464c-9 26-42 39-44 68-1 8 4 17 12 19 6.5 2 13 3 15 9.8 5 16-13 44 5.5 52 24 11 23-43 58-14 45 37 47-28 95 11 27 22 25-16 40.8-28.5 15-12 35 8 52 2 15-5 15-24 24-33 7-5 17-2 23-7 14-9.6 4-29.9 7-44"/><path class="st40" d="M431 486c-24-21 3-49.7 29.8-49.5 24-2 56 9.6 74-10 39-42 61-9.7 103-5.2 46.5 2 39-48.5 78-39.5 29 11 16 33 17 56 1 18 19 29.5 27 44.9 10 16 0 42.5-21 33"/></g><defs><style>.zbh-2{fill:none;stroke-linecap:round;stroke-linejoin:round;stroke-width:10px;stroke:#000}</style></defs><path d="M357.3 453.9c38.6 2 75-22.4 99.5-51.8 36 15 77.1 7.7 106.9-18.6 35.3 9.6 78.1 10 106.7-15.6 25.8 8.2 55.4 3.6 78.2-11.2 13.7 7.9 29.3 12.5 44.9 14.4 5 9.7 2.2 21.7 5.1 32 50.5-20.7 54.9-96.4 15.3-130.4-7.4-53-59.9-90.3-113.1-79-39.7-40.8-96.6-35.9-143.6-10-45.6-24.8-82-17.6-121.6 13.4-60.9-16.5-119.9 24.2-131.3 85.2-41.6 3.5-71.1 47.4-52 86.8-20.1 26.5-28.6 64.7-11.7 94.9 21.9-13 47.9-18.8 72.3-10.7 6.9-22.4 39.3-25 44.4.6Z" style="fill:#ff5e00"/><path class="zbh-2" d="M466.3 372.6c-3.4 44.7-65.7 83.2-107.4 81.6"/><path class="zbh-2" d="M560.5 384.4c-22.9 29.9-69.5 29.2-103.3 19m221.1-46c-31 42.4-94.7 40.2-135.4 13.1m127.1-1.6c33.4 10.4 71.9-.9 94.4-27.6"/><path class="zbh-2" d="M748.3 356.8a85.4 85.4 0 0 0 60.1 10.5"/><path class="zbh-2" d="M790.5 266.1c66.3 11.6 64.4 116.9 4.8 138.1a71.2 71.2 0 0 0-1.3-33.4"/><path class="zbh-2" d="M814.8 273.6c-3.9-60.2-83-106.3-133.9-67.8"/><path class="zbh-2" d="M701.8 194.1c-38.8-43.6-112.8-43.2-151.2.7"/><path class="zbh-2" d="M560.5 185.1c-49.9-31.6-113.8-14.7-133 31.8"/><path class="zbh-2" d="M436.8 197.2c-64.9-20.9-136.3 34.6-132.1 102.7"/><path class="zbh-2" d="M305.3 282.9c-44.3-2.7-69.9 49.5-53.2 87.4"/><path class="zbh-2" d="M274.8 360.1c-44 10.4-55 70-34.1 107.1 23.1-14.5 45.6-24.2 74.4-12.4.4-24.3 39.2-28.5 42.2-.6"/><path d="M797.1 281.9a35.6 35.6 0 0 1 20.7 20.6m3.9 11.6a16.8 16.8 0 0 1 .9 3.2M754.7 211a55.5 55.5 0 0 0-32.2-6.7m-12 2.5-3.4.9M627 175.3a90.3 90.3 0 0 0-34.4 6.9m-10.7 6-3.2 1.8m-86.6-6.8a52.9 52.9 0 0 0-28.4 11.8m-10.9 9.7-4.6 4m-87.1 12.8a85.4 85.4 0 0 0-23.8 22.2m-6.6 10.5-1.6 2m-64.3 67.4a50.4 50.4 0 0 0-5 19.8m-9.6 56.7a61.4 61.4 0 0 0-5 27.7m199.7-37.7a89.2 89.2 0 0 1-30.5 28.7m-11.9 6.2-4.9 1.9M538.3 388a56.5 56.5 0 0 1-22.7 6.5m-11.9.5-2.4-.1m157.3-36a81.4 81.4 0 0 1-47.3 15.3m-14.4-1.3-2.6-.2m125.2-16.1a77.1 77.1 0 0 0 23-12.2m-39.2 15.4 3.2-.3m74.4-4.5a39.9 39.9 0 0 0 14.6 1.2" style="stroke:#fff;fill:none;stroke-linecap:round;stroke-linejoin:round;stroke-width:10px"/><path d="M360.3 462.6c37.6-2.2 73.7-20.9 98-49.9 37.5 8.6 78.6 5.9 108.2-22.4 34.9 13.6 76 7.5 106.4-15.1 25.1 7.9 53.7 3.4 76.1-11.6a72.5 72.5 0 0 0 41.9 12.1" style="opacity:.6;stroke:#000;fill:none;stroke-linecap:round;stroke-linejoin:round;stroke-width:10px"/><path d="M812.6 368.9a69.1 69.1 0 0 1-14.2 31.4c.3-10.1.6-20.3-2.6-29.8m-9.2-106.3c6.4-11.8 9.6-26.3 4.6-39.1 7 1.3 21.6 27.2 21.9 47.7m-136.5-68a47.1 47.1 0 0 0-9.2-33.9c13 3.6 26.1 12 33.5 23.2m-153.7 2.4A43.3 43.3 0 0 0 525 173c11.6 2.9 23.8 6.1 32.7 14.1m-133.8 31.8c-5.5-13.7-20-21.2-33.9-23.8 14.4-2 34.6-2.2 45.7 4.5m-133 103.3c-13.1-5.1-31.4-3.5-42.7 4.8 11.3-12.8 26.9-24 44.6-23.5m166.5 87.1a45.8 45.8 0 0 0 17.7 37c-9.7-4.3-20.6-2.4-30.6-4.9m224.7-46.9c.5 5.6 2.9 11.6 8.2 14.3a116.8 116.8 0 0 1-16.7-4.3m94.9-24.6c-1.5 8 1 18.5 7.2 23.8-8-4.5-18.5-2.5-25.5-8.9" style="opacity:.6"/><style>.st40{fill:none;stroke-width:10;stroke-linecap:round;stroke-linejoin:round;stroke-miterlimit:10;stroke:#000}</style><g id="UFO"><linearGradient id="SVGID_00000052093412861450223020000006077325903456914337_" gradientUnits="userSpaceOnUse" x1="88.118" y1="817.204" x2="984.044" y2="404.238" gradientTransform="matrix(1 0 0 -1 0 1100)"><stop offset="0" style="stop-color:#0fe"/><stop offset=".119" style="stop-color:#00eaf0"/><stop offset=".366" style="stop-color:#00b3f3"/><stop offset=".717" style="stop-color:#005cfa"/><stop offset="1" style="stop-color:#01f"/></linearGradient><path style="opacity:.5882;fill:url(#SVGID_00000052093412861450223020000006077325903456914337_);enable-background:new" d="M173 747.6c7 19.5 25 35 45 39.8 15 4 31 2 45 9 17 9 24 30.1 39 42 21 16 49.9 12 75 19.5 32 9.7 57 39 91 39 22 0 43-14 65-13 29.7 2 56 32 85 22 19-6 33-29.7 47-34.3 15-5 42 5 63 0 23-5.8 36-31 58-40 20-8 44-2 64-10.9 21-9.7 31-36 53-44.7 18-6 52-9 44-33.5-13-42-8-70 3-107 8-43.5-25-88-15-130.7 23-101 25-80-19-146.8-8-12-13-25-16-38.9-14-67-8-52.5-73-108-48-68-29-71.5-117-87-50.5-24-57.5-49-114-17.5-42.5 17-94-20-136.5-2-14 6-24 20-38 28-28 16-64 8-93 23-35 19-45 66-76 91.6-25 20-64 25-79.8 54-15 27-1 63-13 92-9 21-31 35-42 55-28 52 14 77 24 120.9 2 18-7 36-1 53 5 14 18 24 23 37.9 8.3 26-2.7 55 9.3 87.6z"/><linearGradient id="SVGID_00000014634002599790706590000007480268852462571909_" gradientUnits="userSpaceOnUse" x1="51.144" y1="546.313" x2="924.144" y2="144.313" gradientTransform="matrix(1 0 0 -1 0 1100)"><stop offset="0" style="stop-color:#0fe"/><stop offset=".119" style="stop-color:#00eaf0"/><stop offset=".366" style="stop-color:#00b3f3"/><stop offset=".717" style="stop-color:#005cfa"/><stop offset="1" style="stop-color:#01f"/></linearGradient><path style="fill:url(#SVGID_00000014634002599790706590000007480268852462571909_)" d="M78 694c136 465 796 470 953 3-51-46-72-7-89.9-23-17 109.9 58 54-57 117.5-57 57-26 22-98 41.5-73 63-99 32-114 40-72 38-38 48.5-124 15-68-26-46 45-168-30-98-9.6-60.7-17-122.5-64.2-115-7-76.5-94-93-132.5-21 12-59.6-33-66-4C95 665 108 681 78 694z"/><linearGradient id="SVGID_00000040570000435657401070000006676274140463924904_" gradientUnits="userSpaceOnUse" x1="470.203" y1="186.441" x2="598.203" y2="127.441" gradientTransform="matrix(1 0 0 -1 0 1100)"><stop offset="0" style="stop-color:#ff00b7"/><stop offset=".112" style="stop-color:#ea01bd"/><stop offset=".345" style="stop-color:#b305cc"/><stop offset=".674" style="stop-color:#5c0be5"/><stop offset="1" style="stop-color:#01f"/></linearGradient><path style="fill:url(#SVGID_00000040570000435657401070000006676274140463924904_)" d="M469 947.5c9.5 15 165 18 137-7-30-11.5-117-22.5-137 7z"/><linearGradient id="SVGID_00000078735920158305873170000016324894399582867873_" gradientUnits="userSpaceOnUse" x1="475.835" y1="134.644" x2="581.835" y2="85.644" gradientTransform="matrix(1 0 0 -1 0 1100)"><stop offset="0" style="stop-color:#f0b"/><stop offset=".112" style="stop-color:#ea01c1"/><stop offset=".345" style="stop-color:#b305cf"/><stop offset=".674" style="stop-color:#5c0be6"/><stop offset="1" style="stop-color:#01f"/></linearGradient><path style="fill:url(#SVGID_00000078735920158305873170000016324894399582867873_)" d="M476 990.9c4 17.5 131 19 113-1-24-15.9-110-14.9-113 1z"/><linearGradient id="SVGID_00000040576056771940554690000009644892743006637244_" gradientUnits="userSpaceOnUse" x1="723.734" y1="198.854" x2="762.734" y2="127.854" gradientTransform="matrix(1 0 0 -1 0 1100)"><stop offset="0" style="stop-color:#f0b"/><stop offset=".112" style="stop-color:#ea01c1"/><stop offset=".345" style="stop-color:#b305cf"/><stop offset=".674" style="stop-color:#5c0be6"/><stop offset="1" style="stop-color:#01f"/></linearGradient><path style="fill:url(#SVGID_00000040576056771940554690000009644892743006637244_)" d="M693.5 956c46 15 78.5 1 97-43.2-29-5-88.5 10-97 42.9v.3z"/><linearGradient id="SVGID_00000029764979584713055750000007202888973149945790_" gradientUnits="userSpaceOnUse" x1="715.955" y1="175.902" x2="767.955" y2="151.902" gradientTransform="matrix(1 0 0 -1 0 1100)"><stop offset="0" style="stop-color:#0fe"/><stop offset=".119" style="stop-color:#00eaf0"/><stop offset=".366" style="stop-color:#00b3f3"/><stop offset=".717" style="stop-color:#005cfa"/><stop offset="1" style="stop-color:#01f"/></linearGradient><path style="fill:url(#SVGID_00000029764979584713055750000007202888973149945790_)" d="M736.5 962.4c47-6 33-29 25-46-4.5-4-75.5 2-25 45.6v.4z"/><linearGradient id="SVGID_00000105387854398217304660000015504163398393846920_" gradientUnits="userSpaceOnUse" x1="343.873" y1="238.715" x2="309.873" y2="134.715" gradientTransform="matrix(1 0 0 -1 0 1100)"><stop offset="0" style="stop-color:#d0f"/><stop offset=".127" style="stop-color:#c802ff"/><stop offset=".391" style="stop-color:#9106ff"/><stop offset=".765" style="stop-color:#3a0dff"/><stop offset="1" style="stop-color:#01f"/></linearGradient><path style="fill:url(#SVGID_00000105387854398217304660000015504163398393846920_)" d="M276 876.8c23 69.8 104 63.5 107 56.9-12-45.7-62-78.7-107-56.9z"/><linearGradient id="SVGID_00000103960858358242042230000018149012917894115987_" gradientUnits="userSpaceOnUse" x1="298.825" y1="209.619" x2="361.825" y2="180.619" gradientTransform="matrix(1 0 0 -1 0 1100)"><stop offset="0" style="stop-color:#0fe"/><stop offset=".119" style="stop-color:#00eaf0"/><stop offset=".366" style="stop-color:#00b3f3"/><stop offset=".717" style="stop-color:#005cfa"/><stop offset="1" style="stop-color:#01f"/></linearGradient><path style="fill:url(#SVGID_00000103960858358242042230000018149012917894115987_)" d="M304 895.5c-17 26 44 59.9 56 26 19.5-28-40.8-67-53-32l-3 6z"/><path class="st40" d="M173 748c7 19.5 25 35 45 39.8 15 4 31 2 45 9 17 9 24 30 39 41.7 21 16 49.9 12 75 19.5 32 9.7 57 39 91 39 22 0 43-14 65-13 29.7 2 56 32 85 22.1 19-6 33-29.5 47-34 15-5 42 5 63 0 23-5.8 36-31 58-40 20-8 44-2 64-10.9 21-9.7 31-36 53-45 18-6 52-9 44-33.5-13-42-8-70 3-107 8-43.5-25-88-15-130.7 23-101 25-80.5-19-147-8-12-13-25-16-38.9-14-67-8-52.5-73-108-48-68-29-71.5-117-87.4-50.5-24-57.5-49-114-17.5-42.5 17-94-20-136.5-2-14 6-24 20-38 28-28 16-64 8-93 22.7-35 18.5-45 66-76 92-25 20-64 25-79.8 54-15 27-1 63-13 92-9 21-31 35-42 55.3-27.5 52 14 77 24 120.9 2 18-7 36-1 53 5 14 18 24 23 37.9 8 26-3 55 9 87.6v.4z"/><path class="st40" d="M943 675c17 19 39.7-17 64 4 7 6 10 16.5 21 16m-928-16c-14-14 3-39 20.6-29.9 15 8 24 21 43 13.5"/><path class="st40" d="M112 674.9c-11 8-24 14-37 17m186 189c56-30 115 4 126 65"/><path class="st40" d="M273 877c14 43 66 73 109 57m422-19c-46-16-99 9-122 51"/><path class="st40" d="M791 912c-15 49-62.5 59.9-99.7 44M612 945.5c-2-20.5-144-21-145 3 0 14.5 147 18.5 145-3zM592 993c.9-15-118-25-118-1 1 13 117 21 118 .8v.2z"/><path class="st40" d="M717 929.6c-1 12 5 24 14 32m26-49.6c9 7 15 18 16 29.8M320 873c-11 9.6-19 24-20 38.5m65-13.5c3.5 13-8 34-20 39"/><path d="M844.5 257c14 7 24 20 27 35m3.5 27v6m46 84.9c8 12 10.5 29 5 43M741 154c14 4 27 14 34 26m-142-65c12 0 23 5 31 13.5M917 575c8 17 11 36 9 54m-8.5 27-1.5 7.5" style="opacity:.6392;stroke:#fff;stroke-width:20;enable-background:new;fill:none;stroke-linecap:round;stroke-linejoin:round;stroke-miterlimit:10"/><path d="M171 740c4 61 68 53 79 58 47.5 23 36 59 105 60.5 40 1 64 33 99 44 29 6 58-12 88-9 27 3 52 26 79 18 49.8-25 16-38 107.5-34 23 1 36-27 55-37.1 46-18 66.5 5 103-45 24-32 65-12 62-46M266 880c19.5 47 66 72 116 59m87 11c12 21 132 23 143-1m-136 45c15 21 99 23 115 3m96-33c48 15 89 1 109.5-47M112 674.9c-8 3-16.5-6-15-17" style="opacity:.6;enable-background:new;stroke:#000;fill:none;stroke-width:10;stroke-linecap:round;stroke-linejoin:round;stroke-miterlimit:10"/><path d="M986 688c6-.5 12 3 15 8m9 7 3 2m-902-44c4 0 8 1 11 4m9 8 4 1m217 226.5c1 5-.5 9.6-3 14m-6 8.5-2.3 2m409.3 0c4 3 7 7 9 12m-214 5c12-1 24 0 35 3m-40.2 45.5c8-1 16 0 24 1.5" style="fill:none;stroke:#fff;stroke-width:10;stroke-linecap:round;stroke-linejoin:round;stroke-miterlimit:10"/></g><circle cx="550" cy="550" r="500" style="fill:none;stroke:#000;stroke-width:10;stroke-linecap:round;stroke-linejoin:round;stroke-miterlimit:10"/></svg>