<svg version="1.1" id="Layer_1" xmlns="http://www.w3.org/2000/svg" x="0" y="0" viewBox="0 0 1100 1100" style="enable-background:new 0 0 1100 1100" xml:space="preserve" xmlns:xlink="http://www.w3.org/1999/xlink"><style type="text/css">.st300{fill:#00DE72;stroke:#000000;stroke-width:10;stroke-linecap:round;stroke-linejoin:round;stroke-miterlimit:10;}</style><circle class="st300" cx="550" cy="553.7" r="500"/><path d="M532 209c-68 59.6-70.9 20-120.8 36.5-19.6 10.9-14 30-9.7 39.6 11 23-50.8 9-69 40.3-10 18 0 42-7.5 61.8-9 19.6-34 35-37 52-43 48-154 7-119 70.4 6 11 33-6 39 9.1 7 17.5-39 29-21 46.7 18 5 20.7 39.9 57 63 14 20 3 51 19 69.1 36 38 46-25 41-34.3 4-39 44-10.6 22 38.7-23 52 11 74 36.5 56.6 24-9 13 39 23 50.9 19.5 37 55 12 67 12 18 .7 28 22 29.8 40.3 6.5 63 54 46 59 8 15.5-34 45 49 47 59.9 11 73 69 42 70.8 17.9 3-54-3-60 2-68.3 18.5-31 71 13 90.8-15.5 14-19.7-31-63.5 8-55.4 94 19 19-100.7 14-120.4-9-35.5 14-106 47-121.7 18-9 17-35.5 7-52.8-9.5-17-25-30.6-31-48.9-13.5-54 22-102-36-133.3-5-3-7-9.5-4-14.4 17-26 1-66-32-71.4-22-3-44 9-66.5 6.3C615 247 578.5 178 532 209z" style="fill:#dbb07e"/><style>.st40{fill:none;stroke:#000;stroke-width:10;stroke-linecap:round;stroke-linejoin:round;stroke-miterlimit:10}.st98{opacity:.6;enable-background:new}</style><g id="Outline"><path class="st98" d="M793 537c-1 .7-1 2-.5 3 5 10 11 35 25 30 8-2 21-13 18-22.4-.5-1-2-2-3-1.5-26 12-28-11-39-9.4v.3zm-34 274.5c6 5 26 8 25-3-6-7-20.6-12-21.5-26C750 772 744 803 759 811.5zm-219.3 52s1 .5 1 .8c9 13.5-3 36-18 40-34 6-9-6-6-44 .3-5.3 22.3 2.7 23 3.2zM342 731c5 7-4 22-4 33 8 13 29.6-5 33-14.9 2-12-17-21-28-20.2-1 .1-1 1.1-1 2.1zm31-120.2c2 23-8 47-26 61.9-13 10.9-17.5-30.6-8-27.9 6 4.2 28-18.8 34-34zm-157-59.9c-8 6-17 3-25 1-11 5 4 20 13.5 16 5-4 12-9 12-15.7-.5-.2-1.5-.2-.5-1.3zM337 473c-6-10-3-23 0-34 0-1 0-2-.6-2-9-9-23 11-19.8 20.7C318 463 338 475 337 472.8v.2z"/><path class="st98" d="M326 392c-2 29 24 45 7 44-7 2-14 1-15 11-1 11-24 0-24.5-1.3C285 433 317 404.5 326 392zm103-118c-9.9-4-16-16-18-25-4-6-9.9 1-11 6-7 54 29.5 28 29 19zm293 9c16 21 29.5 12 40 20.7 3 4 1 9.6-1 14-3 9-13 9-20 4.1-14.5-5.8-22-22.2-19-38.8z"/><path class="st40" d="M347 729c53.5 5 15 86 59 102 25 9 37-19.8 55-11.9 23 10.1 19.6 40 24 60.7 9.6 46 63 29.6 58-12.8"/><path class="st40" d="M519 861c89-9 47.5 119 114.5 115 39-6 35-47 25-76.5-3-9 0-18.5 7-24.5 24.5-21 59 15.5 84-2.5 15-11 8-33-2-45-12-15 0-32 10-43"/><path class="st40" d="M790 539c53 69.8-64 71 8 194.5 6 14 11 32 11 48.5 0 32-49 47.5-61 16"/><path class="st40" d="M721 287c2 51 64 31 74 88 6 34-11.5 71 7 103 10 18 27 31.5 34 51 8 19-4 47-27 42"/><path class="st40" d="M407 290.6c-16-8-12-29.9-2-41 17-15 40.5-10 61-6 29.8 1 49-29 75-38 50-17 81 55 133 44 23-5 48-11 69 1 25 14 33 55 10 75"/><path class="st40" d="M428 278c-16 26.5-51 17.5-76 28.5-20 10.5-28 33-23 55 10 47-43 51-39 88m25 4.5c1.5-23 35-26 41-5 7 25-13 47 16 72"/><path class="st40" d="M334 476c-20-34-61-31.5-89-9.6-20 8-43-3-64 4-22 7-28 37-5 43.5 6.5 2 23-2 26-1 15 4 11 25-5 30-21 6-10 29 6 29"/><path class="st40" d="M216 554.5c-15 15-14 41 2 55 37 22 41 31 36 69.7-2 31 46 41 53.5 10 2-10.8-4-22 0-33 13-32 44 20 62-44.5"/><path class="st40" d="M327 647.9c25 29.7-.5 47-7 75-10 32.5 34 65 53 25"/><path d="M729 262.5c9 4 16 13 18 22.5m-193-68c12.5 2 24.5 8 34 16m9 9 3 3m-163 10c-5.5-.9-12 .6-15.5 4M362 319.6c-9 2-14 10.7-16 19M339 449c4 1 6 6 6 9.8M308.5 470c-12-6-16-5-22-4M175 492c1-4 5-7 9-7.5m38 89.5c-4 8 0 16 4 19.9m44 78.6c-1 6 1 15 9 18m76-77.5c-3 14-13 14.5-16 16m4.5 119.5c-5-3-9-9-8-15M397 782c-1 14.5 7 28 14 30m90 53.9c-3 12 2 27 14.5 25M636 957c14-3 17-28 11-38m96-60.1c1-7 0-14-4-19m46-49.1c8-6.5 9-25 3-39M786 582c5-8 3-19-3-26m37-12c2-8.5-.6-18-7-24m-56-169c18 6 22 30 21 35" style="opacity:.7882;fill:none;stroke:#fff;stroke-width:10;stroke-linecap:round;stroke-linejoin:round;stroke-miterlimit:10;enable-background:new"/></g><defs><radialGradient id="axz" cx="274.03" cy="669.68" r="95.31" gradientTransform="matrix(1 0 0 1.52 0 -350.6)" gradientUnits="userSpaceOnUse"><stop offset="0" stop-color="#ff0"/><stop offset=".09" stop-color="#fff804"/><stop offset=".22" stop-color="#ffe611"/><stop offset=".37" stop-color="#ffc826"/><stop offset=".53" stop-color="#ff9e42"/><stop offset=".71" stop-color="#ff6867"/><stop offset=".9" stop-color="#ff2794"/><stop offset="1" stop-color="#ff00ae"/></radialGradient><style>.axz-2{fill:none;stroke-linecap:round;stroke-linejoin:round;stroke-width:10px;stroke:#000}</style></defs><path d="M284 571.6a39.5 39.5 0 0 1 23.8-24.7c51.9 51.9 50.7 215.3-24.6 244-89.2 17.6-92.9-123.2-59.1-177 12.6 3.9 22.5 14.1 28.2 26.5-19.9 37.1-15.3 95.7 16.6 117.4 0 0 78.6-58.2 15.1-186.2Z" style="fill:url(#axz)"/><path class="axz-2" d="M287.6 590s-5.4-30.7 20.2-43.1c51.9 51.9 50.7 215.3-24.6 244-16.7 6.4-35.5 2.1-48.4-10.2-41.5-39.7-36.9-118.8-10.7-166.8 6.4 3 22.3 11.8 28.4 25.6"/><path class="axz-2" d="M287.6 590c57 75.9-3.7 207.6-33.9 154.8-17.2-30-17.2-72.7-.7-103.5"/><path class="axz-2" d="M317.1 542c-27.5 6.7-34.8 31.7-33.5 63.4"/><path d="M315.9 556.4c-.4-3.7-2.4-8.4.4-13.5m-8.2 9.9c-13.4 8.1-17.6 25-17.8 39.8m-2.6 7.1c25.3 44.6 17.2 55.1 11.8 102.3m-75.3-80.9c8.9 4.2 18.3 12.3 23.2 21.5-21.9 35.5-12.9 122.8 21.5 115.2" style="opacity:.6;stroke:#000;fill:none;stroke-linecap:round;stroke-linejoin:round;stroke-width:10px"/><path d="M317.9 731.9a75.4 75.4 0 0 1-18.4 30.2m-7.9 8.8a22.9 22.9 0 0 1-8 5.3m27.5-201.8a104.3 104.3 0 0 1 11.9 31" style="stroke:#fff;fill:none;stroke-linecap:round;stroke-linejoin:round;stroke-width:10px"/><style>.st40{fill:none;stroke-width:10;stroke-linecap:round;stroke-linejoin:round;stroke-miterlimit:10;stroke:#000}</style><g id="Sorta_Closed"><path d="M469 709.5c-24 28 53 137 81 92 13-17 10.6-40 6-60.6-2-25.4-70-55.9-87-31.4zM580 736c19 36-13 66 0 88.5C599 837 666.5 851 686 809c9-16.5-4-34-9-50.1-18-34-32 14-97-23.1v.2zm118 11.5c8.5 61 49 23 27 2.9-6-4.4-28-5.4-27-2.9z" style="fill:#fe1767"/><path d="M583 729.9c67 29 .1 27 79 15 18-2.9-27-66.9-79-15zm91-36.9c-6 7 13 49 41 53 37 22 12-54-2-59.6-8-3.4-35 1.6-39 6.6z"/><path d="M462 682c-19 .8-36 25-27 44m31-17c-31 30 46 137 80 100m33-83c-11 13 8 13-6 80-1 6.5-3 14 1 19.5 10 18 94.5 31 112-11M668 697c-5 8 3 16 8 22 14 16 16 39 25.5 58 7 13 24 12 27-3M707 658c22.5-7 44 11 46 33" style="opacity:.6;enable-background:new;stroke:#000;fill:none;stroke-width:10;stroke-linecap:round;stroke-linejoin:round;stroke-miterlimit:10"/><path d="M467 722c32-4.5 68.5 9.7 91 32 3-34-68-74-92-43.3l1 11.1v.2zm118 41c16-3 32.5 0 46.5 8-7-18-40.7-36-50.8-37.1l4 28.7v.4zm72 28.9c-13-14 4-32 18-39.8-15-6-39-7-48 4.8l30 35z" style="fill:#ae0f45"/><path d="M543 744c4 10 5 22 3 33m-4 13c-1 2-2 4-3 5m68.5-32c8 5 15 12 19.8 19.8m8.2 9.2 3 3m74.5-38c3 0 6 1 8 3" style="fill:none;stroke:#fff;stroke-width:10;stroke-linecap:round;stroke-linejoin:round;stroke-miterlimit:10"/><path class="st40" d="M472 706c-31 28 42 129.6 76 102 21-17 16-60.5.6-81.4C536 713 488 691 472 706zm107.5 31c21 67-50 94 61 98 24 1 51-12 48-39-3-22-21-70.7-40-83-15.5-8.5-76.5 1-69 24zm93-31.1c32 35 22 65 39 73.9 35 17.5 24-90-2-95.2-9.5-1.1-51.5 5.4-37 21.3zM707 659c25-2 38 19 45 34m-288-11c-17.5 7-29 26-27.5 44"/><path class="st40" d="M581 732.9c28 9 57 36 73 60.5"/><path class="st40" d="M622 755c13.5-8 29.7-11 45-8m31-4c11 .5 23 4 33 9"/></g><linearGradient id="a18" gradientUnits="userSpaceOnUse" x1="567.997" y1="610.614" x2="741.994" y2="610.614" gradientTransform="matrix(1 0 0 -1 0 1100)"><stop offset="0" style="stop-color:#0ff"/><stop offset=".5" style="stop-color:#ff03af"/><stop offset="1" style="stop-color:#0095ff"/></linearGradient><path style="fill:url(#a18);stroke:#000;stroke-width:10;stroke-linecap:round;stroke-linejoin:round;stroke-miterlimit:10" d="M569 425c-9 24 89 51 74 72-2 3-21-4-26 10.9-10 32 104 76 123 50.3 13-18.5-63-39.9-57-59.9 3-11 38 1 45-15.9 11-26.5-143-97-159-57.7v.3z"/><linearGradient id="b7" gradientUnits="userSpaceOnUse" x1="393.997" y1="591.618" x2="567.994" y2="591.618" gradientTransform="matrix(1 0 0 -1 0 1100)"><stop offset="0" style="stop-color:#0ff"/><stop offset=".5" style="stop-color:#f700ba"/><stop offset="1" style="stop-color:#0095ff"/></linearGradient><path style="fill:url(#b7);stroke:#000;stroke-width:10;stroke-linecap:round;stroke-linejoin:round;stroke-miterlimit:10" d="M395 444c-9 24 89 51 74 72-2 3-21-4-26 10.9-10 32 104 76 123 50.3 13-18.5-63-39.9-57-59.9 3-11 38 1 45-15.9 12-27-143-97-159-57.7v.3z"/><path d="M393 442.5c-12 31 55 49 71 66 2.5 10-11 2-16 3-12 1-15 17-10 26.1 11 22 37 33 58.5 43.5 25 12 56 15 70.7-4M568 419c-27 38 87 60 65 74-83 9 78 112 108 65" style="opacity:.6;stroke:#000;enable-background:new;fill:none;stroke-width:10;stroke-linecap:round;stroke-linejoin:round;stroke-miterlimit:10"/><path d="M469.6 457c20.5 5 39.9 14 57 27M646 439c18 6 35 15 49 27m-2 63c8.5 3 16 8 23 14l1 1m-203 1c11 5 21 12 29.6 20" style="fill:none;stroke:#fff;stroke-width:10;stroke-linecap:round;stroke-linejoin:round;stroke-miterlimit:10"/><style>.st40{fill:none;stroke-width:10;stroke-linecap:round;stroke-linejoin:round;stroke-miterlimit:10;stroke:#000}</style><g id="Halo"><linearGradient id="SVGID_00000122693526384534565180000002607774156497303718_" gradientUnits="userSpaceOnUse" x1="310.08" y1="865.523" x2="812.151" y2="865.523" gradientTransform="matrix(1.0044 -.05704 -.0608 -1.0705 18.333 1183.23)"><stop offset="0" style="stop-color:#fbff00"/><stop offset=".661" style="stop-color:#fe9d00"/><stop offset="1" style="stop-color:#ff6f00"/></linearGradient><path style="fill:url(#SVGID_00000122693526384534565180000002607774156497303718_)" d="M293 241.6c38 131 636 51 442-77-87-57-449-11-439 73 6.5 4 48 3 64 0 92-55 241-71 339-20.5C599 261.5 399 286 310 205l-17 36.6z"/><ellipse transform="rotate(-3.252 533.104 224.114) scale(1.00001)" cx="533" cy="224" rx="240" ry="86" style="fill:none;stroke:#000;stroke-width:10.0001;stroke-linecap:round;stroke-linejoin:round;stroke-miterlimit:10.0001"/><path class="st40" d="M352 236c121 34 251 20.5 364-23"/><path class="st40" d="M366 236c69-53 240.8-64 338-19"/><path d="M355 237c26-21 62-31 94-36m266 12c-36-14-70-24-117-20.9" style="opacity:.6;enable-background:new;stroke:#000;fill:none;stroke-width:10;stroke-linecap:round;stroke-linejoin:round;stroke-miterlimit:10"/><path d="M757 212c-9 17-25 27-41 35m-16.3 7-7.2 2.5M311 225c-10 23 21 40.5 38 45m16 6 8 2" style="fill:none;stroke:#fff;stroke-width:10;stroke-linecap:round;stroke-linejoin:round;stroke-miterlimit:10"/></g><circle cx="550" cy="550" r="500" style="fill:none;stroke:#000;stroke-width:10;stroke-linecap:round;stroke-linejoin:round;stroke-miterlimit:10"/></svg>