<svg version="1.1" id="Layer_1" xmlns="http://www.w3.org/2000/svg" x="0" y="0" viewBox="0 0 1100 1100" style="enable-background:new 0 0 1100 1100" xml:space="preserve" xmlns:xlink="http://www.w3.org/1999/xlink"><style type="text/css">.st303{fill:#FED907;stroke:#000000;stroke-width:10;stroke-linecap:round;stroke-linejoin:round;stroke-miterlimit:10;}</style><circle class="st303" cx="550" cy="553.7" r="500"/><defs><style>.zc-2,.zc-3{fill:none;stroke-linecap:round;stroke-linejoin:round;stroke-width:10px}.zc-2{stroke:#4a4a4a}.zc-3{stroke:#00ff37}</style></defs><g id="Layer_72" data-name="Layer 72"><path d="M531.7 209c-67.9 59.6-70.9 20.3-120.8 36.5-19.6 10.9-14.3 30.3-9.7 39.6 11.2 22.8-50.8 8.7-68.6 40.3-10.3 18.3.1 42.2-7.5 61.8s-33.8 34.7-36.8 52.2c-43.4 48.2-154 6.6-119.1 70.4 6.2 11.4 32.9-6.3 39.1 9.1 7 17.5-38.8 29.4-21.3 46.7 17.7 4.9 20.7 39.9 56.9 63.2 13.8 20 2.7 51.4 19.4 69.1 35.8 37.8 46.3-24.8 41.3-34.3 4.3-38.8 43.9-10.6 22.2 38.7-22.8 51.7 11.2 74 36.5 56.6 24-8.9 13.3 38.7 23.3 50.9 19.5 37.2 54.9 11.6 66.6 12 18.1.7 28 22.3 29.8 40.3 6.5 63 53.6 46.3 59.1 8 15.5-34.3 45.1 48.6 46.9 59.9 11.3 72.6 69.3 42 70.8 17.9 3.3-54.1-3.2-60.1 1.7-68.3 18.5-31.1 71 13.3 90.8-15.5 13.6-19.7-31.2-63.5 7.9-55.4 94 19.4 18.7-100.7 13.8-120.4-8.8-35.5 13.9-105.6 46.9-121.7 18.1-8.8 17.1-35.5 7.4-52.8s-24.9-30.6-31.4-48.9c-13.5-54.4 22.4-102.1-36-133.3a10.2 10.2 0 0 1-3.9-14.4c17.1-26.3 1.3-66.4-31.8-71.4-22.1-3.3-44.3 8.9-66.5 6.3-43.8-5.2-80.2-74.1-127-43.1Z" style="fill:#757575"/><path class="zc-2" d="M416.3 430.8c-7.8 85.7-9.7 162.5-14.6 245.2-15.1 6.6-15.8 30.7 1 32.6"/><path class="zc-2" d="M268.4 456.4q-1.3 51.9-5.7 103.6c86.9 6.2 172.1 5.7 258 12.8.8 15.4 20.6 16.8 27.6 6.3"/><path class="zc-2" d="M446 564.3c-2.2 48.2-4.3 96.5-.6 144.5l102.9 7.6"/><path class="zc-2" d="M504.2 793.2a1259.8 1259.8 0 0 1-4-130.1c-9.2-4.4-11.8-17.1-.3-22.8m-89 104.8-.1 83.7"/><path class="zc-2" d="M415.9 788.2c58.7-.6 115.8-1 176.4-.6 4.4 12.8 18.4 10.7 22.6 1.9M375.8 302.8c-.7 34.1-5.5 102.7-5.8 102.4-9.5 5.5-16.4 18.6-.4 26.1m117-190.5c-4 52.9-9.6 103.1-10.8 155.2"/><path class="zc-2" d="M378.1 380.3c79.4 1.5 159.1 4.3 238.4 4.3m-131.7-43.9a705.1 705.1 0 0 0 80.9 6c2.1 11.1 12.6 11.4 17.1 4.6m73-99.4c-22.8 113.8-33.3 229.4-33.3 345.8"/><path class="zc-2" d="M790.1 437.5c-60.6-2.3-118.7-4.1-179-8.9 0 10.8-13.8 16.2-20.3 4.2"/><path class="zc-2" d="M690.3 634.1c6-76.9 12-153.9 24.2-229.5-11.3-4.6-18-23.6-2.4-32.4"/><path class="zc-2" d="M558.1 620.2a1265.5 1265.5 0 0 0 220.2 6.3"/><path class="zc-2" d="M632.7 622.6c9.4 108.6 8.8 220.1 28.8 330.2M418.1 482.2l235.5 15.9"/><path class="zc-2" d="M799.4 736.5c-74.3 4.6-143.2 5.8-216.2 6-9.8 14.5-22.4 14.1-28.5 3.3"/><path class="zc-3" d="M274.9 453.3c-.5 33.5-2.7 66.9-6.3 100.1l251.2 12m-67.1-.2q.3 68.4-1.8 136.7l98.6 8.1"/><path class="zc-3" d="M507.4 662a1249.5 1249.5 0 0 0 5 129.8m-91-360q-8.1 123.3-12.5 246.9m13.6-203.4c77 7.5 154.2 14 231.4 18.3M494.5 237.3C488.5 290 484 343 481 396m8-61.3c25.8 2.9 51.7 5 77.7 6.1M383.3 303c-2.1 35.5-4.7 70.9-7.6 106.3"/><path class="zc-3" d="M380.9 374.1c78.1 1 159.3 6.7 234.6 6.7m45.3-128.7A2110 2110 0 0 0 626 596.9"/><path class="zc-3" d="M791.1 434.5c-61.8-5-119.4-6.7-181.8-11.7"/><path class="zc-3" d="M721.5 403.7q-16.7 116.1-25.2 233.1"/><path class="zc-3" d="M783.7 620.7a1735.9 1735.9 0 0 1-224.6-4.1m79.1 6.9c10.7 106.6 7.9 214.6 26.8 320.1"/><path class="zc-3" d="M796.7 732.4c-76.7 2.3-144.6 2-217.1 4.1m-163.8 95.1c-.3-29.8.2-59.5 1.4-89.3m.5 39.6c58.5 0 115.7-.5 175.3-.5"/><ellipse class="zc-3" cx="577" cy="339.7" rx="10.4" ry="14"/><ellipse class="zc-3" cx="598.3" cy="420.8" rx="10.9" ry="16.7"/><ellipse class="zc-3" cx="374.9" cy="421" rx="11.1" ry="11.7"/><circle class="zc-3" cx="538.2" cy="565.4" r="17"/><ellipse class="zc-3" cx="564.5" cy="737.8" rx="13.3" ry="12.4"/><ellipse class="zc-3" cx="606.2" cy="781.9" rx="11.6" ry="11.7"/><circle class="zc-3" cx="722.4" cy="384.6" r="16.2"/><circle class="zc-3" cx="408.9" cy="694.8" r="15.2"/><ellipse class="zc-3" cx="508.6" cy="648.7" rx="13.4" ry="11.1"/></g><style>.st40{fill:none;stroke:#000;stroke-width:10;stroke-linecap:round;stroke-linejoin:round;stroke-miterlimit:10}.st98{opacity:.6;enable-background:new}</style><g id="Outline"><path class="st98" d="M793 537c-1 .7-1 2-.5 3 5 10 11 35 25 30 8-2 21-13 18-22.4-.5-1-2-2-3-1.5-26 12-28-11-39-9.4v.3zm-34 274.5c6 5 26 8 25-3-6-7-20.6-12-21.5-26C750 772 744 803 759 811.5zm-219.3 52s1 .5 1 .8c9 13.5-3 36-18 40-34 6-9-6-6-44 .3-5.3 22.3 2.7 23 3.2zM342 731c5 7-4 22-4 33 8 13 29.6-5 33-14.9 2-12-17-21-28-20.2-1 .1-1 1.1-1 2.1zm31-120.2c2 23-8 47-26 61.9-13 10.9-17.5-30.6-8-27.9 6 4.2 28-18.8 34-34zm-157-59.9c-8 6-17 3-25 1-11 5 4 20 13.5 16 5-4 12-9 12-15.7-.5-.2-1.5-.2-.5-1.3zM337 473c-6-10-3-23 0-34 0-1 0-2-.6-2-9-9-23 11-19.8 20.7C318 463 338 475 337 472.8v.2z"/><path class="st98" d="M326 392c-2 29 24 45 7 44-7 2-14 1-15 11-1 11-24 0-24.5-1.3C285 433 317 404.5 326 392zm103-118c-9.9-4-16-16-18-25-4-6-9.9 1-11 6-7 54 29.5 28 29 19zm293 9c16 21 29.5 12 40 20.7 3 4 1 9.6-1 14-3 9-13 9-20 4.1-14.5-5.8-22-22.2-19-38.8z"/><path class="st40" d="M347 729c53.5 5 15 86 59 102 25 9 37-19.8 55-11.9 23 10.1 19.6 40 24 60.7 9.6 46 63 29.6 58-12.8"/><path class="st40" d="M519 861c89-9 47.5 119 114.5 115 39-6 35-47 25-76.5-3-9 0-18.5 7-24.5 24.5-21 59 15.5 84-2.5 15-11 8-33-2-45-12-15 0-32 10-43"/><path class="st40" d="M790 539c53 69.8-64 71 8 194.5 6 14 11 32 11 48.5 0 32-49 47.5-61 16"/><path class="st40" d="M721 287c2 51 64 31 74 88 6 34-11.5 71 7 103 10 18 27 31.5 34 51 8 19-4 47-27 42"/><path class="st40" d="M407 290.6c-16-8-12-29.9-2-41 17-15 40.5-10 61-6 29.8 1 49-29 75-38 50-17 81 55 133 44 23-5 48-11 69 1 25 14 33 55 10 75"/><path class="st40" d="M428 278c-16 26.5-51 17.5-76 28.5-20 10.5-28 33-23 55 10 47-43 51-39 88m25 4.5c1.5-23 35-26 41-5 7 25-13 47 16 72"/><path class="st40" d="M334 476c-20-34-61-31.5-89-9.6-20 8-43-3-64 4-22 7-28 37-5 43.5 6.5 2 23-2 26-1 15 4 11 25-5 30-21 6-10 29 6 29"/><path class="st40" d="M216 554.5c-15 15-14 41 2 55 37 22 41 31 36 69.7-2 31 46 41 53.5 10 2-10.8-4-22 0-33 13-32 44 20 62-44.5"/><path class="st40" d="M327 647.9c25 29.7-.5 47-7 75-10 32.5 34 65 53 25"/><path d="M729 262.5c9 4 16 13 18 22.5m-193-68c12.5 2 24.5 8 34 16m9 9 3 3m-163 10c-5.5-.9-12 .6-15.5 4M362 319.6c-9 2-14 10.7-16 19M339 449c4 1 6 6 6 9.8M308.5 470c-12-6-16-5-22-4M175 492c1-4 5-7 9-7.5m38 89.5c-4 8 0 16 4 19.9m44 78.6c-1 6 1 15 9 18m76-77.5c-3 14-13 14.5-16 16m4.5 119.5c-5-3-9-9-8-15M397 782c-1 14.5 7 28 14 30m90 53.9c-3 12 2 27 14.5 25M636 957c14-3 17-28 11-38m96-60.1c1-7 0-14-4-19m46-49.1c8-6.5 9-25 3-39M786 582c5-8 3-19-3-26m37-12c2-8.5-.6-18-7-24m-56-169c18 6 22 30 21 35" style="opacity:.7882;fill:none;stroke:#fff;stroke-width:10;stroke-linecap:round;stroke-linejoin:round;stroke-miterlimit:10;enable-background:new"/></g><style>.st40,.st68{fill:none;stroke-width:10;stroke-linecap:round;stroke-linejoin:round;stroke-miterlimit:10;stroke:#000}.st68{opacity:.6;enable-background:new}</style><g id="Eye"><linearGradient id="SVGID_00000144327888440828662330000012949225208094602647_" gradientUnits="userSpaceOnUse" x1="232.314" y1="-555.531" x2="336.458" y2="-482.43" gradientTransform="translate(0 1066)"><stop offset="0" style="stop-color:#00ff04"/><stop offset=".811" style="stop-color:#00fccf"/><stop offset="1" style="stop-color:#00fbff"/></linearGradient><path style="fill:url(#SVGID_00000144327888440828662330000012949225208094602647_)" d="M278 494c-31 10.8-13 49-9.5 56 8 16-9 32.5 9 50.8 9 9 46 8 40.7-31-2-13-13-23-13.5-35.8-.7-21-3.7-48-26.7-40z"/><path d="M273 498c-6.5 9-1 22 4 30.8 6 8 13 15 14 25 2 14-6 31 3 43.7 15 18 30.6-23 23-35-3-7-8-13.5-10-20.8-5-16 2-45-21-49" style="opacity:.5098;fill:#fff;enable-background:new"/><path class="st68" d="M274 516c9 24.5 14 39 18 64"/><path class="st40" d="M278 494c-31 10.8-13 49-9.5 56 8 16-9 32.5 9 50.8 9 9 46 8 40.7-31-2-13-13-23-13.5-36C304 513 301 486 278 494z"/><path class="st40" d="M282 526c6 17 10.5 35 14 53"/><path d="M279 515c1 4 2 7 3.5 11m24.5 46.9c1 5 1.5 13-5 19" style="fill:none;stroke:#fff;stroke-width:10;stroke-linecap:round;stroke-linejoin:round;stroke-miterlimit:10"/><path class="st68" d="M264 495.9c-15.5 19-6 44 1 65 3 9-3 18-1 27 4 24 31 31 46 12"/></g><style>.st40,.st68{fill:none;stroke-width:10;stroke-linecap:round;stroke-linejoin:round;stroke-miterlimit:10;stroke:#000}.st68{opacity:.6;enable-background:new}</style><g id="Happy_Beard"><linearGradient id="SVGID_00000012458921589117142250000001255892426965824154_" gradientUnits="userSpaceOnUse" x1="482.466" y1="444.183" x2="708.475" y2="85.169" gradientTransform="matrix(.9987 .05075 .05075 -.9987 14.064 1042.44)"><stop offset="0" style="stop-color:#00a2ff"/><stop offset=".654" style="stop-color:#aa36e8"/><stop offset="1" style="stop-color:#f0d"/></linearGradient><path style="fill:url(#SVGID_00000012458921589117142250000001255892426965824154_);stroke:#000;stroke-width:10;stroke-linecap:round;stroke-linejoin:round;stroke-miterlimit:10" d="M749.8 654c37 24 16.5 79 8.5 114-16 55 39 72 17 127.5-43-56-34 11-42 16.3-19-69-64-3-13 17.9-4 24-57-17-46 57.5-23-10.7-20.8-39.9-26-60.9-6-18-26-20.8-36-4.5-9.8 20.8-19 43-41 55 4-43-33-56-39-64.9-5-8-2-20.6-10-26-15-10-28 12-43 13.2 26-41-19.5-103-26-30-28-26-11-53-23-61-8-4-15 8-24 8 12.5-20.5-2-44-5-65.6-9-66 51.5-97 109-72.5 82 35 64-11 110-8.9 54 3 86-44 129-15.4v.3z"/><path d="M441 706c-36 33 0 64 9.9 68 44 21 49 42 67 62 28 26 56 18 87 2.2 19.5-9.9 43 1 65-1 30.6-3 59-32 55-64-6-46 7-36 20-56 8-12 1-29-10-37.3-33-22-53 13-81 19.5-12 2-24-4-36-4-24 0-45 44-112 4.9-22-13-48-10.7-65 5.3v.4z" style="fill:#fe1767"/><path d="M582 710.6c22.5 7 43 21 58 38.9 24-16 58-5 82 8-4-19 14-28 22-42.5 12-22-13-65-67-27.5-39 30.5-54-11.5-95 23.1z"/><path d="M629.8 745c-22-17-48-8-72-2.9-54 11-82-46-125-24 27-47 81-13 94-7.9C573 729 583 691 629.8 745zm26.2 40c2-22 25-37 46-37-17-14-45-9-62 3.6l16 33.4z" style="fill:#ae0f45"/><path class="st40" d="M441 706c-36 33 0 64 9.9 68 44 21 49 42 67 62 28 26 56 18 87 2.2 19.5-9.9 43 1 65-1 30.6-3 59-32 55-64-6-46 7-36 20-56 8-12 1-29-10-37.3-33-22-53 13-81 19.5-12 2-24-4-36-4-24 0-45 44-112 4.9-22-13-48-10.7-65 5.3v.4z"/><path class="st68" d="M433 710c-15 15-16 41-2 57 9.9 12 26 16 38 26 24.5 18 35 53 65 64.5 31 12 59-13 88-18 19.7-4 51 12 66-7m-264-153c-59 41-7 89-22 134"/><path d="M606 741c11 8 17 21 22 33m7 14 1 4m50-33c8 2 16 6 22 12.5m20-111.7c10 1 19.8 7 25 16m4 11.2 1 3.5M751.5 833c5 6 8 12.5 11 19.5M767 863l1 3m-171 56c-2 6-4 11-8 17m-6 10-2 2M448.5 817c-1 5 0 11 .5 16" style="fill:none;stroke:#fff;stroke-width:10;stroke-linecap:round;stroke-linejoin:round;stroke-miterlimit:10"/><path class="st40" d="M582 712c38 7.5 66 45 75 80.7M640 749c30-16 57-9 83 10.9"/><path class="st68" d="M731 897c.9-8.5 5-22 15-23m-48 21c-4 13 0 34 14 38m-59 19c3 9.5 9 18 16.5 24M487 861c4.5 11.5 7 19.9 3 29m-73-82c2-9 .7-22-7-28.5"/></g><style>.st114,.st40{fill:none;stroke-width:10;stroke-linecap:round;stroke-linejoin:round;stroke-miterlimit:10;stroke:#000}.st114{opacity:.6}</style><g id="pyramid_eyes"><linearGradient id="SVGID_00000087410782692247136030000000956565439834726541_" gradientUnits="userSpaceOnUse" x1="414.243" y1="543.244" x2="593.219" y2="543.244" gradientTransform="matrix(1.0318 .1598 -.1592 1.0282 76.34 -111.374)"><stop offset="0" style="stop-color:#fff200"/><stop offset="1" style="stop-color:#ff0051"/></linearGradient><path style="fill:url(#SVGID_00000087410782692247136030000000956565439834726541_)" d="M520.5 442.8 404 597.9l188 10.6z"/><linearGradient id="SVGID_00000168831845365355998570000006909071484893893810_" gradientUnits="userSpaceOnUse" x1="614.824" y1="519.499" x2="758.908" y2="519.499" gradientTransform="matrix(1.0318 .1598 -.1592 1.0282 76.34 -111.374)"><stop offset="0" style="stop-color:#fff200"/><stop offset="1" style="stop-color:#ff005e"/></linearGradient><path style="fill:url(#SVGID_00000168831845365355998570000006909071484893893810_)" d="m684 440.2-69.5 168.2 155.3-26.5z"/><path class="st114" d="M513 441.8c-39.9 53.5-84 105-120 160.5l196 11m89-174c-23 59-52 116-71 176.5l161-29"/><path class="st114" d="M432 568.7c44 21 96 24 142 9m58 .7c41 4 84 .5 120-18"/><path d="M633 568c32 9 91 3 118-16.2l-22-37.3-78 8.3-18 45.2zm-198-6.2c41 21 95 25 137 6.1l-16-41.4-98 3.7-23 31.6z" style="fill:#fff"/><linearGradient id="SVGID_00000104687410609106255600000008005634098492869297_" gradientUnits="userSpaceOnUse" x1="653.571" y1="533.828" x2="709.977" y2="533.828" gradientTransform="matrix(1.0318 .1598 -.1592 1.0282 76.34 -111.374)"><stop offset="0" style="stop-color:#00ffd0"/><stop offset="1" style="stop-color:#002fff"/></linearGradient><path style="fill:url(#SVGID_00000104687410609106255600000008005634098492869297_)" d="M676 520.8c-13 12-29 68 37 46.3 14-3 10.7-21 5-29.7-16.5 12-32-.9-28-18.9l-14 2.3z"/><linearGradient id="SVGID_00000092416489060258335420000012955109637503799733_" gradientUnits="userSpaceOnUse" x1="481.368" y1="567.233" x2="535.584" y2="567.233" gradientTransform="matrix(1.0318 .1598 -.1592 1.0282 76.34 -111.374)"><stop offset="0" style="stop-color:#00ffd0"/><stop offset="1" style="stop-color:#002fff"/></linearGradient><path style="fill:url(#SVGID_00000092416489060258335420000012955109637503799733_)" d="M491 527.2c-11 15-17 51 9.9 52.4 24 2 43.5-2 34-29.8-31 2-30.8-17-25-25.1l-18.9 2.5z"/><path d="M517 472.9c3 8.5 6 17 9 25m5 12.1 1.5 3M686 470l12 22m6 10 1 2" style="fill:none;stroke:#fff;stroke-width:10;stroke-linecap:round;stroke-linejoin:round;stroke-miterlimit:10"/><path class="st40" d="M558.5 532.6c-33-13-74-10-106 3m123 35.5c-46 17-99 14-143-8M728 519c-26-5-53-3-78 6m103 31.6c-38 16-80 21-121 15"/><path class="st40" d="M488.5 526.9c-8.5 16-9.6 35-3 52m45.5-52.5c8 16 9.9 36 4 53"/><path class="st40" d="M509 525.7c-9 17 12 34 27 23m135.5-27.8c-10 23.5-7.5 34 3 50.7m37.5-54c9 14 13 30 11 46"/><path class="st40" d="M693 517.9c-14 16 11 38 25 16m-197.5-91.1L404 597.9l188 10.6z"/><path class="st40" d="m684 440.2-69.5 168.2 155.3-26.5z"/></g><defs><linearGradient id="zbj" x1="516.88" y1="143.24" x2="596.42" y2="317.05" gradientUnits="userSpaceOnUse"><stop offset="0" stop-color="#0ff"/><stop offset=".08" stop-color="#1ab9ff"/><stop offset=".26" stop-color="#5a0cff"/><stop offset=".27" stop-color="#5d05ff"/><stop offset=".59" stop-color="#ff0fe7"/><stop offset=".86" stop-color="#ff6912"/><stop offset="1" stop-color="#ff1500"/></linearGradient><style>.zbj-3{fill:none;stroke-linecap:round;stroke-linejoin:round;stroke-dasharray:0 0 0 0 0 0;stroke:#000;stroke-width:10px}</style></defs><path d="M525.9 322.4c-10.7 12.5-13 27.9-2.2 41.6-2.7 13.8 5.9 30.6 22.2 28.1 8.2 15.2 31 20 42.3 5.4 13 5.9 28.9 4.8 42.1-2.6 19.8 12.2 41.2-2 36.4-25.6 11-10.9 9.7-28.6-1.8-39.3 5.2-12.8-4.1-26.2-18-27.8-5.1-14.8-24.8-21.9-37.8-11.9-13.2-7.3-29.2-4.3-40.1 6.5-11.7-9.1-46.4-8.5-43.1 25.6Z" style="fill:#dedede"/><path d="M532.9 207.8a226.2 226.2 0 0 1-45.1 28.4c11.7-107.3 133.3-157 134.8 46.4-6.1.7-9.8 2.6-14.6 7.5-12.5-5-27.5-3.1-39 4.7-5.1-2.8-10.6-5.5-16.4-6a145.7 145.7 0 0 0-19.7-81Z" style="fill:url(#zbj)"/><path class="zbj-3" d="M535.3 330.9c-32.4-25.2 23.9-62.9 38-23.3"/><path class="zbj-3" d="M525.9 322.5c-12.1 8.6-13.5 27.6-2.8 37.9m10.6-5.9c-19.8 9.9-8.9 46.3 13.5 37.7"/><path class="zbj-3" d="M547.2 382.2c-3.2 31.6 48.8 34.6 42.3 2.9"/><path class="zbj-3" d="M589.9 398.4c15.1 8.8 38.8 5.5 47.3-10.9"/><path class="zbj-3" d="M633.3 395c21.7 19.4 49.3-12.7 26.4-31.1m6.8 4.3c11.2-9.2 13-29.4-.4-37.5m-12.7 6.9c17.4-8 16-34.5-4.2-36.7m-34.2-2.4c-9.5-14.5-31.8-16.9-44.2-4.7m74.1 18.1c6.3-19.4-20.2-37.3-35.1-22.9m-86.5-97.6c23 25.7 28.1 63.6 30.9 96.9"/><path class="zbj-3" d="M623.5 281.9C610.6 51.5 492.7 154.5 487.3 237c17.4-4.1 29-19.3 44-27.9"/><path d="M621.6 285.7c-4.4 2.2-6 7.4-6.8 11.9m45.1 9.6c-5.2-1.6-10.4 1.2-14.5 4.3m28.2 31.5c-3.8-5.5-11.1-7.4-17.5-6.5m-18.3 51.7c2.5 6.6 6.5 10.4 13 11.9m-44.7.3a39.8 39.8 0 0 1-14.6-14.2m-45.9-5.5a26.2 26.2 0 0 1-11.4 8.9m40-82.1a24.5 24.5 0 0 1 8.3-20m-48.4 65.7a19.2 19.2 0 0 1-15.9-5.4" style="opacity:.37;stroke-width:10px;stroke:#000;fill:none;stroke-linecap:round;stroke-linejoin:round;stroke-dasharray:0 0 0 0 0 0"/><path d="M521.2 191.4c5.8 9.3-.1 21.2-6 29.2m14.6-7c12.6 21.4 15.6 46.5 18 71.8M523 318.3c-13.9 11.6-16.2 32.2-4.1 46.2-3.4 16.5 6.8 35.9 25.8 34.4 9.9 14.1 30.1 16.4 44 6.5a50 50 0 0 0 43-3.9 22.6 22.6 0 0 0 26.7-3.1m-37.8-122.2c-5.7.7-11.3 3.2-16.6 6.8-12.2-5.4-24.7-1.5-35.9 5.2a16 16 0 0 0-11.1-2.1" style="opacity:.6;stroke-width:10px;stroke:#000;fill:none;stroke-linecap:round;stroke-linejoin:round;stroke-dasharray:0 0 0 0 0 0"/><path d="M549.6 301.3a11 11 0 0 1 9.5 5.3m36.1-9a15.5 15.5 0 0 1 8 5.3m27.1-5.2a9.1 9.1 0 0 1 3.4 7.3m21.4 15a9.4 9.4 0 0 1-3.7 6.3m3.4 47.4a10.4 10.4 0 0 1 1 9.1m-28.8.9a17.8 17.8 0 0 1-8 5.5m-61.2-3.6a10.8 10.8 0 0 0 6.2 7.7m-29.5-18.8c-.7-3.3.8-6.8 3.1-9.3" style="stroke-width:7px;stroke:#fff;opacity:.81;fill:none;stroke-linecap:round;stroke-linejoin:round;stroke-dasharray:0 0 0 0 0 0"/><path d="M567.8 155.1c10.6 5 17.9 16.1 22.1 27.1m5.3 13.2c.3 1.2 1.7 6.3 1.9 7.5" style="stroke:#fff;opacity:.81;stroke-width:10px;fill:none;stroke-linecap:round;stroke-linejoin:round;stroke-dasharray:0 0 0 0 0 0"/><circle cx="550" cy="550" r="500" style="fill:none;stroke:#000;stroke-width:10;stroke-linecap:round;stroke-linejoin:round;stroke-miterlimit:10"/></svg>