<svg version="1.1" id="Layer_1" xmlns="http://www.w3.org/2000/svg" x="0" y="0" viewBox="0 0 1100 1100" style="enable-background:new 0 0 1100 1100" xml:space="preserve" xmlns:xlink="http://www.w3.org/1999/xlink"><style type="text/css">.st301{fill:#005BEF;stroke:#000000;stroke-width:10;stroke-linecap:round;stroke-linejoin:round;stroke-miterlimit:10;}</style><circle class="st301" cx="550" cy="553.7" r="500"/><path d="M532 209c-68 59.6-71 20-121 36.5-19.6 10.9-14 30-9.7 39.6 11 23-51 9-69 40.3-10.1 18 0 42-7.5 62-9 19.6-34 35-37 52-43 48-154 7-119 70 6 11 33-6 39 9.1 7 17.5-39 29-21 47 18 5 21 39.9 57 63 14 20 3 51 19 69 36 38 46-25 41-34.3 4-39 44-11 22 39-23 52 11 74 36.5 57 24-9 13 39 23 50.9 19.5 37 55 12 67 12 18 1 28 22 29.8 40 6 63 54 46 59 8 15.5-34 45 49 47 59.9 12 73 69.5 42 71 17.9 3-54-3-59.9 2-68 19-31 71 13 90.8-15.5 14-19.8-31-63 8-55 94 19.9 19-101 14-120.4-9-35.5 14-105.8 47-122 18-9 17-35.5 7-53-9.6-17-25-30.6-31-48.9-13.5-54 21-100.7-36-133.3-5-3-7-9.5-4-14 17-25.8 1-66-32-71-22-3-44 9-66.5 6C615 247 578.5 178 532 209z" style="fill:#1eb377"/><style>.st40{fill:none;stroke:#000;stroke-width:10;stroke-linecap:round;stroke-linejoin:round;stroke-miterlimit:10}.st98{opacity:.6;enable-background:new}</style><g id="Outline"><path class="st98" d="M793 537c-1 .7-1 2-.5 3 5 10 11 35 25 30 8-2 21-13 18-22.4-.5-1-2-2-3-1.5-26 12-28-11-39-9.4v.3zm-34 274.5c6 5 26 8 25-3-6-7-20.6-12-21.5-26C750 772 744 803 759 811.5zm-219.3 52s1 .5 1 .8c9 13.5-3 36-18 40-34 6-9-6-6-44 .3-5.3 22.3 2.7 23 3.2zM342 731c5 7-4 22-4 33 8 13 29.6-5 33-14.9 2-12-17-21-28-20.2-1 .1-1 1.1-1 2.1zm31-120.2c2 23-8 47-26 61.9-13 10.9-17.5-30.6-8-27.9 6 4.2 28-18.8 34-34zm-157-59.9c-8 6-17 3-25 1-11 5 4 20 13.5 16 5-4 12-9 12-15.7-.5-.2-1.5-.2-.5-1.3zM337 473c-6-10-3-23 0-34 0-1 0-2-.6-2-9-9-23 11-19.8 20.7C318 463 338 475 337 472.8v.2z"/><path class="st98" d="M326 392c-2 29 24 45 7 44-7 2-14 1-15 11-1 11-24 0-24.5-1.3C285 433 317 404.5 326 392zm103-118c-9.9-4-16-16-18-25-4-6-9.9 1-11 6-7 54 29.5 28 29 19zm293 9c16 21 29.5 12 40 20.7 3 4 1 9.6-1 14-3 9-13 9-20 4.1-14.5-5.8-22-22.2-19-38.8z"/><path class="st40" d="M347 729c53.5 5 15 86 59 102 25 9 37-19.8 55-11.9 23 10.1 19.6 40 24 60.7 9.6 46 63 29.6 58-12.8"/><path class="st40" d="M519 861c89-9 47.5 119 114.5 115 39-6 35-47 25-76.5-3-9 0-18.5 7-24.5 24.5-21 59 15.5 84-2.5 15-11 8-33-2-45-12-15 0-32 10-43"/><path class="st40" d="M790 539c53 69.8-64 71 8 194.5 6 14 11 32 11 48.5 0 32-49 47.5-61 16"/><path class="st40" d="M721 287c2 51 64 31 74 88 6 34-11.5 71 7 103 10 18 27 31.5 34 51 8 19-4 47-27 42"/><path class="st40" d="M407 290.6c-16-8-12-29.9-2-41 17-15 40.5-10 61-6 29.8 1 49-29 75-38 50-17 81 55 133 44 23-5 48-11 69 1 25 14 33 55 10 75"/><path class="st40" d="M428 278c-16 26.5-51 17.5-76 28.5-20 10.5-28 33-23 55 10 47-43 51-39 88m25 4.5c1.5-23 35-26 41-5 7 25-13 47 16 72"/><path class="st40" d="M334 476c-20-34-61-31.5-89-9.6-20 8-43-3-64 4-22 7-28 37-5 43.5 6.5 2 23-2 26-1 15 4 11 25-5 30-21 6-10 29 6 29"/><path class="st40" d="M216 554.5c-15 15-14 41 2 55 37 22 41 31 36 69.7-2 31 46 41 53.5 10 2-10.8-4-22 0-33 13-32 44 20 62-44.5"/><path class="st40" d="M327 647.9c25 29.7-.5 47-7 75-10 32.5 34 65 53 25"/><path d="M729 262.5c9 4 16 13 18 22.5m-193-68c12.5 2 24.5 8 34 16m9 9 3 3m-163 10c-5.5-.9-12 .6-15.5 4M362 319.6c-9 2-14 10.7-16 19M339 449c4 1 6 6 6 9.8M308.5 470c-12-6-16-5-22-4M175 492c1-4 5-7 9-7.5m38 89.5c-4 8 0 16 4 19.9m44 78.6c-1 6 1 15 9 18m76-77.5c-3 14-13 14.5-16 16m4.5 119.5c-5-3-9-9-8-15M397 782c-1 14.5 7 28 14 30m90 53.9c-3 12 2 27 14.5 25M636 957c14-3 17-28 11-38m96-60.1c1-7 0-14-4-19m46-49.1c8-6.5 9-25 3-39M786 582c5-8 3-19-3-26m37-12c2-8.5-.6-18-7-24m-56-169c18 6 22 30 21 35" style="opacity:.7882;fill:none;stroke:#fff;stroke-width:10;stroke-linecap:round;stroke-linejoin:round;stroke-miterlimit:10;enable-background:new"/></g><style>.st40,.st68{fill:none;stroke-width:10;stroke-linecap:round;stroke-linejoin:round;stroke-miterlimit:10;stroke:#000}.st68{opacity:.6;enable-background:new}</style><g id="Mmmm"><path class="st40" d="M506 744c55 21 117 25 173 5m-182 30c-52-25-58-74 10.9-72"/><path class="st40" d="M663 713c79-11 91 46 19 76"/><path class="st68" d="M506 702c-76-9.9-68 67-11 79m10-33c56 22 120.5 31 176 5.5"/><path class="st68" d="M664.5 709.8c46-15 125 29.7 21 83"/><path d="M676 724c10-1 21 0 30 5m9 6 1 1m-220-15.2c-8 .6-16 3-21 9" style="fill:none;stroke:#fff;stroke-width:10;stroke-linecap:round;stroke-linejoin:round;stroke-miterlimit:10"/></g><defs><linearGradient id="zj" x1="629.68" y1="468.83" x2="1049.01" y2="468.83" gradientUnits="userSpaceOnUse"><stop offset="0" stop-color="#0ff"/><stop offset="1" stop-color="#5eff00"/></linearGradient><linearGradient id="zj-2" x1="440.74" y1="521" x2="1065.73" y2="456.07" gradientUnits="userSpaceOnUse"><stop offset="0" stop-color="#00eaff"/><stop offset=".13" stop-color="#00ece3"/><stop offset=".42" stop-color="#00f29d"/><stop offset=".84" stop-color="#00fb2d"/><stop offset="1" stop-color="#0f0"/></linearGradient><style>.zj-3,.zj-4{fill:none;stroke-linecap:round;stroke-linejoin:round;stroke-width:10px;stroke-dasharray:0 0 0 0 0 0;stroke:#000}.zj-4{opacity:.6}</style></defs><path d="M544.8 451.6c-37.5 21.7-72.4 33.5-59.3 84.8 17.7 69.3 77.9 90.1 100.3 73.8 5.4-11.2-7.4-157.8-41-158.6Zm147.7-25.7c-56.4 15-73.8 88.4-44.6 134.3 14.2 22.3 43.4 40.2 70.5 39.1 29.4-2.8 22-178-25.9-173.4Z"/><path d="M677.4 588.8c92.3-52.5 121.6 53.6 152.2-.2 35 13.7 70.6-10 105.4-12.8 37.9-3 77.5 20.7 113.7 1 2.8-83.5-11.3-169.8-50.6-243.4-50.9 43.6-87.4-5.9-161.1 87-4.8-22.9-26.1-17.2-38-4-60.2 48.3-93.1 24.1-125 45-7.4 4.9-17.5 2.3-26.6 3.3-36.5 36.1-11.6 102.3 30 124.1Z" style="fill:url(#zj)"/><path d="M1012.5 365.3c-29-.1-26.1 36-48.7 44.7-21.4-62.9-68.4 13.9-99.8 25.6-61.2 9.9-101.2 49-128.4 51 4-41.7-56.9 5.8-97.4 2.6-61.8-4.9-63 27.1-142.8 3.8-36 42.7-22.1 97.5 41.8 114.5 48.9-50.2 94.6-30.3 144.7-43.2 110.5-41.5 149.7 18 190.8 2.5 12-4.5 13.2-19.4 5-28 48-25.8 121.1 51.8 125.8-3.9 13.9 4.5 30.9 8.1 44.9.8a426.7 426.7 0 0 0-35.9-170.4Z" style="fill:url(#zj-2)"/><path class="zj-3" d="M1009.9 366.3c-35.4 6.2-24.2 54.1-71 56.7"/><path class="zj-3" d="M963.4 413.6c0-18.9-15.6-34.1-34.2-26.5-27.8 11.3-43.1 44.1-74 51.9-22.7 5.7-46.9 8.3-66.3 22.5-21.9 16-46.5 31.6-74.8 26.8"/><path class="zj-3" d="M734.4 486.9c5.3-11.7-8.5-21.3-19.4-19-19.6 4.1-42.4 25.3-83.6 20.7-43-4.8-69.5 31.7-136 4.4m552.6 44.2c-21.6 13-45.2-8-67.4-8.4"/><path class="zj-3" d="M1002.1 533.9c5.6 21.1-14.2 28.9-34.5 18.1-32.2-17.1-74.2-26.2-107.8-6.9"/><path class="zj-3" d="M877.3 539.5c11 9.5 14.1 40.3-38.1 24.8-25.6-7.6-69.8-21.5-105.7-16-28.9 4.5-55.4 23.1-85.7 20.3-40.5-3.8-79.8 9.1-108.6 38.5m457.6-272.7c-23.3 25.5-55.5 23.7-86.9 27.7-47.5 5.9-44.9 57-90.3 64.1"/><path class="zj-3" d="M835.2 419.9c.3-7.4-8.4-33.2-43.4.7-20.2 19.7-49.1 31.9-78.6 28.5-20.9-2.4-32.1 19.2-62.8 13.8m396.9 117.4c-35.2 16-82.9-15.5-134.5-.9-21.2 5.9-42.4 16.6-64.1 13-15.8-2.7-31-13.3-46.6-9.4"/><path class="zj-3" d="M827.1 587c-1.2 22.6-23.7 21.2-37.8 8.5-27.5-24.7-75.5-30.8-108.4-9m-92.4-8.5c6.3 26.8-.6 47.5-31.4 37.3-156.5-51.6-48.3-148.8-17.2-161.6 23.9-9.9 29 28.5 33.4 42.1m58.7-8.9c8.4-28.5 75.9-94.6 84.8-40.5"/><path class="zj-3" d="M652.1 570.4c18.5 17.5 79.3 55 81.3 7.2"/><path class="zj-4" d="M476.4 525.5c-6.1 21.4-.8 48.7 16.6 62.4 20.8 16.2 67 47.6 91 25.8m7.2-32.7c69.1-30.7 84.4 45.5 132.8 17.3M643.6 466c-8.3 6.8-10.1 12.5-13.9 22.5m105.9 91.3a94.4 94.4 0 0 1 53.8 25.5m12.9-21.1c6.2 2.3 13.2 4.4 18 9.3m39-47.8c8.5-2.8 16.9.4 23.6 6m96.9-22.2a35 35 0 0 1 20.8 18m-40.2-145.4c-3.3 9.4-11.9 15.4-19.8 20.7m-110.3-13.9c-.8 6.8-5.7 12-10.2 16.8m-87.4 49.7a29.3 29.3 0 0 1-17.5 12.7"/><path d="M940.4 398.5a23.6 23.6 0 0 0-14.5 6.9m-9.4 7.4-2.3 2.4m90.8-32.5c-4.6 2-7 6.8-9 11.1m39.8 134.1a25.2 25.2 0 0 1-14.8-2.1m-35.8 19A21.1 21.1 0 0 1 973 540m-106.6 17.4a25.7 25.7 0 0 1-13.1-2.3m-11.7-3.4-2.5-1.2m-26.8-132.6a43.5 43.5 0 0 0-7.7 6.5m-7.1 7.6-2.2 2m113.2-58.4c-6.1.5-11.4 4.3-16.3 8.1m-7.7 8.9-2.3 1.9M628.1 500.4a55.8 55.8 0 0 0-21.8 3.2m-12.4 4.4-2.8 1.2m443.7 60.3a37.1 37.1 0 0 1-17.8 1.3" style="opacity:.72;stroke:#fff;fill:none;stroke-linecap:round;stroke-linejoin:round;stroke-width:10px;stroke-dasharray:0 0 0 0 0 0"/><path d="M690.5 545.2a63.9 63.9 0 0 1-24.3 5.6m-11.8 2.6-3.6-.5m172.4-94a86.7 86.7 0 0 0-21 9.1" style="opacity:.73;stroke:#fff;fill:none;stroke-linecap:round;stroke-linejoin:round;stroke-width:10px;stroke-dasharray:0 0 0 0 0 0"/><path class="zj-4" d="M497.6 496.3c-32.2 53.5-7.7 84.7 43.9 106.9m108.4-136a43.8 43.8 0 0 0-9.5 18.4m23.5 85.6a47 47 0 0 0 14.5 11.3"/><defs><linearGradient id="zbe" x1="591.4" y1="318.14" x2="576.03" y2="139.55" gradientUnits="userSpaceOnUse"><stop offset="0" stop-color="#a305ff"/><stop offset=".45" stop-color="#5d5dff"/><stop offset="1" stop-color="#05cdff"/></linearGradient><style>.zbe-4,.zbe-6{fill:none;stroke-linecap:round;stroke-linejoin:round}.zbe-4{stroke:#000;stroke-width:10px}.zbe-6{stroke:#fff;stroke-width:9px}</style></defs><path d="M794.8 340.5c-165.4-4.7-274-.5-414.2 50.6C364.2 171.9 387 229.4 551 169.7c18-6.5 37.5-14.4 55.8-8.8 42.7 13.2 84 32.3 126.8 45.9 82.3 26.1 30.2 80 61.2 133.7Z" style="fill:#e6e6e6"/><path d="M290.5 426.5c28.7-15.5 59.1-29.8 90.6-38.6-10-54.3-11.3-116.1 11.8-166.4-92.2 22.4-113.8 122.1-102.4 205Zm59.1-23.9c101.4 117.2 209.8-36.7 463.5-3 82.3 10.9 11.9-47.9-24.5-60.1-147.3-2.1-303 2.1-439 63.1Z" style="fill:#40aadb"/><path d="M523.4 181.3c-4.5 16.3 14.7 30.1 19.2 40.3 2.8 6.6 1 19.3-1.2 28.7-7.7 32.9 42.2 33.7 33.3 3.5-9.8-33.2 27.4-29.7 15.2 23.5-10.2 44.4 67.4 38.5 47.8-7.5-4.2-10-14.3-16.6-16.4-27.3-5-26.1 26.6-38.9 12.5-71.3-41.2-23.7-70.1-7.8-110.4 10.1Z" style="fill:url(#zbe)"/><path class="zbe-4" d="M794.8 340.5c-165.4-4.7-355.2 6.8-503.7 88.1-20.7-217.7 102-201.4 259.9-258.9 18-6.5 37.5-14.4 55.8-8.8 42.7 13.2 84 32.3 126.8 45.9 82.3 26.1 30.2 80 61.2 133.7Z"/><path class="zbe-4" d="M395.9 218.7c-26.1 51.2-26.5 113-15.5 168.4m-30.8 15.5c101.4 117.2 209.8-36.7 463.5-3 82.3 10.9 11.9-47.9-21.4-59.2"/><path d="M352.4 407.6a297.6 297.6 0 0 0-61.4 27.7m122.1 8.9c60.8 18.6 122.5-11.6 181.6-24.8 65.8-14.7 133.5-21.5 200.7-16.2M384.6 226.1c-18.9 50.9-24.3 108.4-11 161m142.5-202.5c-.9 17.3 20.5 28.7 22 45s-11.4 44.1 12.5 45.4m27.8-38.1c19.1 16.3 3.6 36.1 6.8 54.5 2.7 15.5 22.3 23.6 35.8 15.5" style="opacity:.6;stroke-width:10px;stroke:#000;fill:none;stroke-linecap:round;stroke-linejoin:round"/><path class="zbe-6" d="M623.4 178.5a28.7 28.7 0 0 1-.9 15.1m-4.8 11.8-1 1.7m8.3 65a16 16 0 0 1 .9 16.5m-91.4-102a18.3 18.3 0 0 0 5.8 10.9"/><path d="M792.8 356.6a158.7 158.7 0 0 1 35 24m-364.6 49.5a73.6 73.6 0 0 1-44-3m-12.6-4.2-3.8-1.3m350-186.4c8 6.2 11.9 16 12.7 25.9m.7 11.7-.3 3.3m-375.8 22.1a139.1 139.1 0 0 0 1.7 42.2m.9 14.5.3 3m-65.5-74.2c-10.5 13.9-15.6 32.1-19 49.1m-2.2 14.5-.3 4.6" style="stroke:#fff;stroke-width:10px;fill:none;stroke-linecap:round;stroke-linejoin:round"/><path class="zbe-4" d="M523.4 181.3c-4.5 16.3 14.7 30.1 19.2 40.3 2.8 6.6 1 19.3-1.2 28.7-7.7 32.9 42.2 33.7 33.3 3.5-9.8-33.2 27.4-29.7 15.2 23.5-10.2 44.4 67.4 38.5 47.8-7.5-4.2-10-14.3-16.6-16.4-27.3-5-26.1 26.6-38.9 14-70.7"/><path class="zbe-6" d="M551.8 253.6a9.8 9.8 0 0 0 2.8 9.3"/><circle cx="550" cy="550" r="500" style="fill:none;stroke:#000;stroke-width:10;stroke-linecap:round;stroke-linejoin:round;stroke-miterlimit:10"/></svg>