<svg version="1.1" id="Layer_1" xmlns="http://www.w3.org/2000/svg" x="0" y="0" viewBox="0 0 1100 1100" style="enable-background:new 0 0 1100 1100" xml:space="preserve" xmlns:xlink="http://www.w3.org/1999/xlink"><style type="text/css">.st302{fill:#6A10EB;stroke:#000000;stroke-width:10;stroke-linecap:round;stroke-linejoin:round;stroke-miterlimit:10;}</style><circle class="st302" cx="550" cy="553.7" r="500"/><path d="M533 209.1c-68 59.6-71 20-121 36.5-19.6 10.9-14 30-9.7 39.6 11 23-51 9-69 40.3-10 18 .1 42-7.5 61.8-9 19.6-34 35-37 52.2-43 48-154 7-119 70.4 6 11 33-6 39 9.1 7 17.5-39 29-21 46.7 18 5 21 39.9 57 63.2 14 20 3 51 19 69.1 35.8 38 46-25 41-34.3 4-39 44-11 22 38.7-23 52 11 74 36.5 56.6 24-9 13 39 23 50.9 19.5 37 55 12 67 12 18 1 28 22 29.8 40.3 6.5 63 54 46 59 8 15.5-34 45 49 47 59.9 11 73 69 42 71 17.9 3-54-3-60.1 2-68.3 18.5-31 71 13 90.8-15.5 14-19.7-31-63.5 8-55.4 94 19 19-101 14-120.4-9-35.5 14-106 47-121.7 18-9 17-35.5 7-52.8-9.5-17-25-30.6-31-48.9-13.5-54 22-102-36-133.3-5-3-7-9.5-4-14.4 17-26 1-66-32-71.4-22-3-44 9-66.5 6.3C616 247 579.9 178 533 209.1z" style="fill:#d500ff"/><style>.st40{fill:none;stroke:#000;stroke-width:10;stroke-linecap:round;stroke-linejoin:round;stroke-miterlimit:10}.st98{opacity:.6;enable-background:new}</style><g id="Outline"><path class="st98" d="M793 537c-1 .7-1 2-.5 3 5 10 11 35 25 30 8-2 21-13 18-22.4-.5-1-2-2-3-1.5-26 12-28-11-39-9.4v.3zm-34 274.5c6 5 26 8 25-3-6-7-20.6-12-21.5-26C750 772 744 803 759 811.5zm-219.3 52s1 .5 1 .8c9 13.5-3 36-18 40-34 6-9-6-6-44 .3-5.3 22.3 2.7 23 3.2zM342 731c5 7-4 22-4 33 8 13 29.6-5 33-14.9 2-12-17-21-28-20.2-1 .1-1 1.1-1 2.1zm31-120.2c2 23-8 47-26 61.9-13 10.9-17.5-30.6-8-27.9 6 4.2 28-18.8 34-34zm-157-59.9c-8 6-17 3-25 1-11 5 4 20 13.5 16 5-4 12-9 12-15.7-.5-.2-1.5-.2-.5-1.3zM337 473c-6-10-3-23 0-34 0-1 0-2-.6-2-9-9-23 11-19.8 20.7C318 463 338 475 337 472.8v.2z"/><path class="st98" d="M326 392c-2 29 24 45 7 44-7 2-14 1-15 11-1 11-24 0-24.5-1.3C285 433 317 404.5 326 392zm103-118c-9.9-4-16-16-18-25-4-6-9.9 1-11 6-7 54 29.5 28 29 19zm293 9c16 21 29.5 12 40 20.7 3 4 1 9.6-1 14-3 9-13 9-20 4.1-14.5-5.8-22-22.2-19-38.8z"/><path class="st40" d="M347 729c53.5 5 15 86 59 102 25 9 37-19.8 55-11.9 23 10.1 19.6 40 24 60.7 9.6 46 63 29.6 58-12.8"/><path class="st40" d="M519 861c89-9 47.5 119 114.5 115 39-6 35-47 25-76.5-3-9 0-18.5 7-24.5 24.5-21 59 15.5 84-2.5 15-11 8-33-2-45-12-15 0-32 10-43"/><path class="st40" d="M790 539c53 69.8-64 71 8 194.5 6 14 11 32 11 48.5 0 32-49 47.5-61 16"/><path class="st40" d="M721 287c2 51 64 31 74 88 6 34-11.5 71 7 103 10 18 27 31.5 34 51 8 19-4 47-27 42"/><path class="st40" d="M407 290.6c-16-8-12-29.9-2-41 17-15 40.5-10 61-6 29.8 1 49-29 75-38 50-17 81 55 133 44 23-5 48-11 69 1 25 14 33 55 10 75"/><path class="st40" d="M428 278c-16 26.5-51 17.5-76 28.5-20 10.5-28 33-23 55 10 47-43 51-39 88m25 4.5c1.5-23 35-26 41-5 7 25-13 47 16 72"/><path class="st40" d="M334 476c-20-34-61-31.5-89-9.6-20 8-43-3-64 4-22 7-28 37-5 43.5 6.5 2 23-2 26-1 15 4 11 25-5 30-21 6-10 29 6 29"/><path class="st40" d="M216 554.5c-15 15-14 41 2 55 37 22 41 31 36 69.7-2 31 46 41 53.5 10 2-10.8-4-22 0-33 13-32 44 20 62-44.5"/><path class="st40" d="M327 647.9c25 29.7-.5 47-7 75-10 32.5 34 65 53 25"/><path d="M729 262.5c9 4 16 13 18 22.5m-193-68c12.5 2 24.5 8 34 16m9 9 3 3m-163 10c-5.5-.9-12 .6-15.5 4M362 319.6c-9 2-14 10.7-16 19M339 449c4 1 6 6 6 9.8M308.5 470c-12-6-16-5-22-4M175 492c1-4 5-7 9-7.5m38 89.5c-4 8 0 16 4 19.9m44 78.6c-1 6 1 15 9 18m76-77.5c-3 14-13 14.5-16 16m4.5 119.5c-5-3-9-9-8-15M397 782c-1 14.5 7 28 14 30m90 53.9c-3 12 2 27 14.5 25M636 957c14-3 17-28 11-38m96-60.1c1-7 0-14-4-19m46-49.1c8-6.5 9-25 3-39M786 582c5-8 3-19-3-26m37-12c2-8.5-.6-18-7-24m-56-169c18 6 22 30 21 35" style="opacity:.7882;fill:none;stroke:#fff;stroke-width:10;stroke-linecap:round;stroke-linejoin:round;stroke-miterlimit:10;enable-background:new"/></g><linearGradient id="a15" gradientUnits="userSpaceOnUse" x1="238.934" y1="-556.918" x2="343.954" y2="-476.903" gradientTransform="translate(0 1066)"><stop offset="0" style="stop-color:#ff0040"/><stop offset=".125" style="stop-color:#ec0051"/><stop offset=".379" style="stop-color:#bb007e"/><stop offset=".736" style="stop-color:#6d00c6"/><stop offset="1" style="stop-color:#2f00ff"/></linearGradient><path style="fill:url(#a15)" d="M236 532.1c15 4 17 20 16 34-2 29 36 51 62 29 28-23-9-58 18-81-9-3.5-15 15-32 3.7-7-4-12-20-3-24-39 10-16 37-41 37-7-2.8-15-3.8-20 1.3z"/><path d="M288 499.9c-21.5 33 12 52-12 78.5-4 4-9.8 8-9.7 14 3 16 28 10.5 39 6.9 9-4 16.5-13 18-23.5.5-19.7-4-39-1-59-7 5-19 3.5-25-3-4.3-3.8-5.3-10.3-9.3-13.9z" style="opacity:.1882;fill:#fff;enable-background:new"/><path d="M236 532c15 4 17 20 16 34-2 29 36 51 62 29 28-23-9-58 18-81.3-9-3.5-15 15-32 4-7-4-12-20-3-24-39 10-16 37-41 37-7-2.7-15-3.7-20 1.3z" style="fill:none;stroke:#000;stroke-width:10;stroke-linecap:round;stroke-linejoin:round;stroke-miterlimit:10"/><path d="M254.5 527c20-8 9-29 36-32M233 534c12 7.5 15 22 14 35-2 31 39 49.7 62 29" style="opacity:.6;stroke:#000;enable-background:new;fill:none;stroke-width:10;stroke-linecap:round;stroke-linejoin:round;stroke-miterlimit:10"/><path d="M310 560.8c1 9-1 21-10 25m7-40.8c0 1 0 2 .5 3" style="fill:none;stroke:#fff;stroke-width:10;stroke-linecap:round;stroke-linejoin:round;stroke-miterlimit:10"/><defs><linearGradient id="zad" x1="599.92" y1="836.25" x2="638.8" y2="836.25" gradientUnits="userSpaceOnUse"><stop offset="0" stop-color="#0800ff"/><stop offset="1" stop-color="#ff00f7"/></linearGradient><linearGradient id="zad-2" x1="667.03" y1="869.12" x2="684.63" y2="925" gradientTransform="rotate(16.9 677.175 899.736)" gradientUnits="userSpaceOnUse"><stop offset="0" stop-color="#0dff31"/><stop offset=".36" stop-color="#faee0c"/><stop offset=".36" stop-color="#fae60c"/><stop offset=".41" stop-color="#f8a40c"/><stop offset=".44" stop-color="#f7700c"/><stop offset=".48" stop-color="#f64a0c"/><stop offset=".5" stop-color="#f5330c"/><stop offset=".52" stop-color="#f52b0c"/><stop offset=".68" stop-color="#f50ca0"/><stop offset="1" stop-color="#0defff"/></linearGradient><style>.zad-2{fill:#660024}.zad-4{fill:none;stroke:#000;stroke-linecap:round;stroke-linejoin:round;stroke-width:10px}</style></defs><path d="M675.8 797c46.2-21.9 84.1-91.5 12.4-105.5-33-6.4-63.7 18.4-96.5 17.6-34.7-.9-66.6-24.3-102.8-12.6-33.6 10.9-38.2 48.9-15.1 72.3 15.2 15.3 50.7 31.5 62.2 32.6 26.6.8 139.8-4.4 139.8-4.4Z"/><path d="M720.4 878.8c12.9-9.9 6.4-31.5-5.6-39.7-16.6-11.4-26.1-2.8-40.4-39.7-12-31-46.5-40.3-74.1-21.9-28.2-10.1-65.9-11.9-86.1 14 9.4 9.9 24.5 10.1 37.1 13 44.5 10.1 20.1 112.8 61.5 77.5 15.1 23.2 24.3 56.1 56.1 59.4 32.1 5.8 79.2-30.4 51.5-62.6Z" style="fill:#ff0059"/><path class="zad-2" d="M624.6 800.1c-29.3-16.2-66.3-25-95.3-4.2-2.6.6-15.9-1.2-12.9-5.1 30.9-25.3 83.3-26.6 108.2 9.3Z"/><path class="zad-2" d="M637.5 809.4c-8.8-9.8-5.9-28.3 3.5-36.8-11.7-3.3-25.9-3.1-35.2 5.7 11.3 8.2 21.1 18.5 31.7 31.1Z"/><path d="M461.8 725.3c22.8 37.4 66.4 14.2 67.9-28.3-5.1 47.8 55.7 68.8 62.2 14 6.4 55.9 67.8 39.1 59-12.9 5 40 56.8 52.7 65.6 7.8-31.5-31.8-76.5-3.7-112.8 1.8-47.6 7.2-111.9-49.1-141.9 17.6Z" style="fill:#fff"/><path class="zad-4" d="M604.9 870.9c27.4 25.1 17.7 66.9 68.9 70.7 24.9 1.9 58.9-18.3 54.8-46.2-2.6-17.8-24.8-20.3-30.7-34.5M602 777.3c25.9-18.2 60.4-8.9 72.4 22.1 14.3 36.9 23.8 28.3 40.4 39.7 12 8.2 18.5 29.8 5.6 39.7"/><path class="zad-4" d="M633.1 809.3c-23.2-42.2-84.9-52.2-120.2-19.4"/><path class="zad-4" d="M675.8 797c46.2-21.9 84.1-91.5 12.4-105.5-33-6.4-63.7 18.4-96.5 17.6-34.7-.9-66.6-24.3-102.8-12.6-33.6 10.9-38.2 48.9-15.1 72.3 15.2 15.3 50.7 31.5 62.2 32.6 26.6.8 47.7 24.1 46.6 50.7-1.9 47.2 24.5 44.4 30.4 28.3"/><path class="zad-4" d="M461.8 725.3c22.8 37.4 66.4 14.2 67.9-28.3-5.1 47.8 55.7 68.8 62.2 14 6.4 55.9 67.8 39.1 59-12.9 5 40 56.8 52.7 67.4 8.8"/><path d="M470.9 707.2c-40.1 34.2-5.3 71.3 31.1 90 23.5 12 57.6 6 70.7 34.3 8.7 18.7-3.9 49.1 19.8 57.1m18.5-1.1c13.1 21.4 18.9 51.1 47.6 56.8m-54.2-73.2a32.8 32.8 0 0 1 1.7 16.7m92.4-27.4a33 33 0 0 0 24.7 11.6" style="opacity:.6;stroke-width:10px;stroke-linecap:round;stroke-linejoin:round;stroke:#000;fill:none"/><path d="M645.6 785.1a29.9 29.9 0 0 1 11.3 12.1m-61.5-6.6a44.4 44.4 0 0 1 18 14.4m91.2 42.7a20.6 20.6 0 0 1 8 8.8m-3.7 32.4a17.1 17.1 0 0 1 4.1 18.4" style="stroke:#fff;stroke-width:10px;stroke-linecap:round;stroke-linejoin:round;fill:none"/><path d="M597.6 878.3c-1.9-3.4-3.6-7.1-3.2-11" style="stroke-width:7px;stroke:#fff;stroke-linecap:round;stroke-linejoin:round;fill:none"/><path d="M659.3 822.1c-18.6 4.8-5.6 38 6.8 26.3m-47.4-34.7c-2.3 5.3-4.6 10.6-6.8 15.9m-13.1 1.9 9.9 11.1-2.7 16.2m13-9a116 116 0 0 0 11.5 9.5m23.9 23.7c4.8 13.3 8.3 27 13.1 40.3l26.9-7.8" style="opacity:.6;stroke-width:5px;fill:none;stroke:#000;stroke-linecap:round;stroke-linejoin:round"/><ellipse cx="662.7" cy="835.3" rx="10.2" ry="13.9" style="stroke-width:5px;stroke-linecap:round;stroke-linejoin:round;stroke:#000;fill:#fff"/><path style="fill:url(#zad);stroke-width:5px;stroke-linecap:round;stroke-linejoin:round;stroke:#000" d="m619.4 813.6 4.5 17.3h14.9l-12 10.7 4.6 17.3-12-10.7-12.1 10.7 4.6-17.3-12-10.7h14.9l4.6-17.3z"/><path transform="rotate(-16.9 677.91 899.121)" style="fill:url(#zad-2);stroke-width:5px;stroke-linecap:round;stroke-linejoin:round;stroke:#000" d="M662.7 876h26.5v42.66h-26.5z"/><style>.st40{fill:none;stroke:#000;stroke-width:10;stroke-linecap:round;stroke-linejoin:round;stroke-miterlimit:10}</style><g id="glasses"><linearGradient id="SVGID_00000178916075595908665650000004557367053833667231_" gradientUnits="userSpaceOnUse" x1="598.405" y1="1033.928" x2="641.405" y2="678.931" gradientTransform="matrix(1 0 0 -1 0 1410)"><stop offset="0" style="stop-color:#00f5d0"/><stop offset=".232" style="stop-color:#42b1da"/><stop offset=".508" style="stop-color:#8b66e6"/><stop offset=".738" style="stop-color:#c02fee"/><stop offset=".908" style="stop-color:#e10df3"/><stop offset="1" style="stop-color:#ed00f5"/></linearGradient><path style="fill:url(#SVGID_00000178916075595908665650000004557367053833667231_)" d="M360 453c2 11 0 51 7 55.1 14 4 47-17 49.9 2 3 11 7 22 6 33-2 22-21 43-13 65 9 25 35.8 11 38 17.3 11 32 20 25 48 27 19 5.5 23 38 45 35 26-3 15-55 34-38.5 15 13 41 3 44.5-16.4 4-23-18.5-42.5-19-66 2-28 23-48 8-79 8 .5 17 0 25-1 13 24 8 46.5-2 69.9-17 39.8 15 52.5 29 45-2 14-11 36 2 47 10.5 5 23-4 29-12 11-22 29.5-2 39 10.3 12 12 28 6 29-11 .6-7.5-2-16 2-23 6-5 18 6 27-10.8 6-30-9-21 14-54.7 8-12 34-27 17-51-7-9.6-20.5-18-17-31 16 3 34-8.5 44-19.9 6-9.5 9-23 6-33.5-5-12-17-10.9-24.5-2-10 9.9-20.9-1-12.5-12 8-11 39-18 7-31-52.5-6.5-53 102-140.5 31.8-46-29-49 40.6-93 34-32.5-5-17-24-60.8-4-59-42-66 22.5-124 20.3-14-.5-32-7-44 3.8v.3z"/><path d="M363.5 508c17 18 36-5 48 0 24 37-27 79.5-.5 112.9 11 14 29.9 7 32 8.8 4.5 18 16 29 35 29 40-5 27 27.5 53 28m37-34.7c10 9.5 27 10.5 38 2m9-163.1c56-2-32.5 112 38 120 5 4-17 39.7 17.5 37m29.5-17c19-2 25 27 46 22m38-41.9c-4 5-11 7-17 7M445 500.6c-6 10.5-14.5 5-21 10" style="opacity:.6;enable-background:new;fill:none;stroke:#000;stroke-width:10;stroke-linecap:round;stroke-linejoin:round;stroke-miterlimit:10"/><path d="M495 429.5c9 2 17 6 23 13m-38.2-11.6c-1 0-2 .8-3.5 1.5M374 495c6 .5 12-1 16-4m213 15c2 9.5-1 19-5 28m-6.5 13-1.5 3m12 58c6 7 9.9 19 4.5 27m-10.5 8c-1 0-1.5.5-2 .7M550 656c0 7-3 13-8 18m-79-46c1 7 7 12 14 12m168-78c-3 7-3 15-1 22m25 39c-2 3.5-1 8 2 11m78.5-14c2 6 1 12-1 17m-.5-30v-2m41-76c4 7 0 14-5 19.5m22-47.5c4 3 6 7 7 11m28-92c0 8-3 16.5-9 22m-11 5c-2 0-3 .9-5 1m-150.5-41c7 1 12 5.5 17 10.7M652 409c-1 .5-2 1-3 2" style="fill:none;stroke:#fff;stroke-width:10;stroke-linecap:round;stroke-linejoin:round;stroke-miterlimit:10"/><path d="M429 607c3 4 3 10 0 15 4-1 12-3 13-8m151 11.9c-5 8-7.5 19.8 0 27-6 0-27.5-5-16-23M592 498c7-1 14.5 1 20 5-2-5-4-11-9-14m61-2c-8 5-15 13-19 21-1 0-6-12-4-18m12 96c-1 6-6.5 11-12 13 6 1 14 2 19-2m112-5c-1 7 2 14 8 18-6 2-13.5-.5-17-6m40-87.5c4 5 10 11 17 9-3.5 3-9 6-14 4.5m-28-62.5c8-2 17 3 22 8.9.5-5-.9-12-4-16h-1m-244-23.9c-5-3-6-11.5-3-16.5-6 3-13 7-13 14" style="opacity:.6;enable-background:new"/><path class="st40" d="M362 503c14 14 34.5-3 50.9-2 9.6.5 23 7 29.9-3"/><path class="st40" d="M413 501c24 36 0 62-4 97-2 19 19.5 34 35 21.5"/><path class="st40" d="M434 606c26 12 3 52 54 46 31-4 21.5 36 50 37 32 2 19-59 51-65"/><path class="st40" d="M570 642.5c12 19.5 44 17 51-5 9-27.5-27-52-19-79 7-23 24-47 7-69m27-1.5c14 25 2 49.7-5.5 74-5.8 18 6 53 29 38"/><path class="st40" d="M656 588c12 13.5 0 29-1 44 0 14 15 21 27 11.9 15-12 23-31 40.6-8.4 26 34 40 9 40-3.5s-7-29.6 5-38.5"/><path class="st40" d="M763 609c12 9 30-2 28-16.9-.8-5-3-9-4-14-4-22 32-25 13-58"/><path class="st40" d="M808 535c22-1 21-31 7-42-9-7-16-17.5-13-29m-141 20c-18 12.5-39-12-68 10.6M779 463c9.8-6 22-2 34-2 54 0 53-75.5 20.7-55-19 12-22-1-19.7-6.8 4-9 17-9 23-16 5-13-10.9-18-21-17-29 3-32 32-51.5 45-21 15-58 14-74-6.7-7-9-17-14-29-13-23 1.5-29.5 25.5-47 35-34 22-52-27-81.5 3"/><path class="st40" d="M548 438c-13 0-23-10-33-16.9-39-27-69 31-108 29-17-.9-35-10-50 2.7 6 15 2 34 5 49"/></g><style>.st40{fill:none;stroke:#000;stroke-width:10;stroke-linecap:round;stroke-linejoin:round;stroke-miterlimit:10}</style><g id="Diamond_Tiara"><linearGradient id="SVGID_00000065760761855906260320000017418696099243063740_" gradientUnits="userSpaceOnUse" x1="541.215" y1="764.848" x2="534.215" y2="708.848" gradientTransform="matrix(1 0 0 -1 0 1100)"><stop offset="0" style="stop-color:#00eaff"/><stop offset="1" style="stop-color:#1500ff"/></linearGradient><path style="fill:url(#SVGID_00000065760761855906260320000017418696099243063740_)" d="M523 332c-3 12-1.5 25-3 37l32 18.5 6-34.5-35-21z"/><path d="M522 342c14 18 19 16 22 40 3 0 6 0 8 1 5-43 14-17-27-51" style="opacity:.2118;fill:#fff;enable-background:new"/><linearGradient id="SVGID_00000028296466383710901690000000469317893808244361_" gradientUnits="userSpaceOnUse" x1="489.76" y1="807.186" x2="520.728" y2="698.299" gradientTransform="matrix(1 0 0 -1 0 1100)"><stop offset="0" style="stop-color:#ffea00"/><stop offset="1" style="stop-color:#ff1e00"/></linearGradient><path style="fill:url(#SVGID_00000028296466383710901690000000469317893808244361_)" d="M329 359c-2 59 7-2 86 16 56 13 50-11 92-25 22-2 9.8-9 16-18 16 7 36 5 53 2 16-5 26-21 40.9-29.6 17-8 35-19 45-36 6-9 1-20.9-9-24-16-5-31 7-42 19-39 54-48 25-95 39.4C441 369 391 322 329 358.8v.2z"/><path class="st40" d="M637 245c-23 5-32 31-49 45-23 19-61 1-82 19.6-68 59-119.5 8-178 50.6"/><path class="st40" d="M540 338.9c28-9 32 11 62-25 6.5-8 18-8.5 27-12.9 14-7 34-32 35-48.3-10-7-22-9-34-5"/><path d="M332 396c32-26 71.5-15 108-9.5 27 0 47-24 73-29.8-6 30 0 11 37.5 38M547 345c8-4 18-1 27-2 15-2 23.5-17 35-25 32-22 53-17 62-63" style="opacity:.6;enable-background:new;fill:none;stroke:#000;stroke-width:10;stroke-linecap:round;stroke-linejoin:round;stroke-miterlimit:10"/><path d="M629.5 261c5-3 10-4 16-3.5m-129 59.5c7-5 15-5 23-4.5m12.5-.5 4 .5m-127 54.4c7 1 15 2 21-1m11-5.9 3-1m68-8.4c4 2 8 5 12 8" style="opacity:.702;stroke:#fff;enable-background:new;fill:none;stroke-width:10;stroke-linecap:round;stroke-linejoin:round;stroke-miterlimit:10"/><path class="st40" d="M329.8 357c3 10.5 5 22 0 32.5m192.2-59c-2 13-3 27-3 40 13 7 23 13 34 19.3l5-33.5c0-1 0-2.5-1-3.2-12-8.1-21-14.1-35-22.6zm-5 18.5c-25-2-42 23-65 29-16 4-33-1-49-3-27-3-54 3-77 17"/></g><circle cx="550" cy="550" r="500" style="fill:none;stroke:#000;stroke-width:10;stroke-linecap:round;stroke-linejoin:round;stroke-miterlimit:10"/></svg>