<svg version="1.1" id="Layer_1" xmlns="http://www.w3.org/2000/svg" x="0" y="0" viewBox="0 0 1100 1100" style="enable-background:new 0 0 1100 1100" xml:space="preserve" xmlns:xlink="http://www.w3.org/1999/xlink"><style type="text/css">.st302{fill:#6A10EB;stroke:#000000;stroke-width:10;stroke-linecap:round;stroke-linejoin:round;stroke-miterlimit:10;}</style><circle class="st302" cx="550" cy="553.7" r="500"/><path d="M532 209c-68 59.6-70.9 20-120.8 36.5-19.6 10.9-14 30-9.7 39.6 11 23-50.8 9-69 40.3-10 18 0 42-7.5 61.8-9 19.6-34 35-37 52-43 48-154 7-119 70.4 6 11 33-6 39 9.1 7 17.5-39 29-21 46.7 18 5 20.7 39.9 57 63 14 20 3 51 19 69.1 36 38 46-25 41-34.3 4-39 44-10.6 22 38.7-23 52 11 74 36.5 56.6 24-9 13 39 23 50.9 19.5 37 55 12 67 12 18 .7 28 22 29.8 40.3 6.5 63 54 46 59 8 15.5-34 45 49 47 59.9 11 73 69 42 70.8 17.9 3-54-3-60 2-68.3 18.5-31 71 13 90.8-15.5 14-19.7-31-63.5 8-55.4 94 19 19-100.7 14-120.4-9-35.5 14-106 47-121.7 18-9 17-35.5 7-52.8-9.5-17-25-30.6-31-48.9-13.5-54 22-102-36-133.3-5-3-7-9.5-4-14.4 17-26 1-66-32-71.4-22-3-44 9-66.5 6.3C615 247 578.5 178 532 209z" style="fill:#7faadb"/><path d="M488 240.1c86 0 172 18 258 12.7m-347 16.3c121 16 243 28.5 365 37m-414 2c146 19 291 44 438.5 47.1M328 347.7c154 30.7 309 58 465.5 59.4M322 399.8c157 36 317 60 478 73.4m-540-15.6c189.5 36 382.5 62 577 76m-669.5-38c209 42 419.8 72 632 90.4M211 576.5c187.5 24 374 54 565 65m-446 11c40.6 6 198 26 214 28.1 78.5 10 157 20 236 22m-457 9.2c163 27.5 322.5 45 485 63M385 782c120.7 19 239 29 358 44m-259.5 17.4c96.5 8 184 18 271 20.8m-173 37.1c27 6 54 10.9 80.8 15.3" style="fill:none;stroke:#457ebf;stroke-width:10;stroke-linecap:round;stroke-linejoin:round;stroke-miterlimit:10"/><style>.st40{fill:none;stroke:#000;stroke-width:10;stroke-linecap:round;stroke-linejoin:round;stroke-miterlimit:10}.st98{opacity:.6;enable-background:new}</style><g id="Outline"><path class="st98" d="M793 537c-1 .7-1 2-.5 3 5 10 11 35 25 30 8-2 21-13 18-22.4-.5-1-2-2-3-1.5-26 12-28-11-39-9.4v.3zm-34 274.5c6 5 26 8 25-3-6-7-20.6-12-21.5-26C750 772 744 803 759 811.5zm-219.3 52s1 .5 1 .8c9 13.5-3 36-18 40-34 6-9-6-6-44 .3-5.3 22.3 2.7 23 3.2zM342 731c5 7-4 22-4 33 8 13 29.6-5 33-14.9 2-12-17-21-28-20.2-1 .1-1 1.1-1 2.1zm31-120.2c2 23-8 47-26 61.9-13 10.9-17.5-30.6-8-27.9 6 4.2 28-18.8 34-34zm-157-59.9c-8 6-17 3-25 1-11 5 4 20 13.5 16 5-4 12-9 12-15.7-.5-.2-1.5-.2-.5-1.3zM337 473c-6-10-3-23 0-34 0-1 0-2-.6-2-9-9-23 11-19.8 20.7C318 463 338 475 337 472.8v.2z"/><path class="st98" d="M326 392c-2 29 24 45 7 44-7 2-14 1-15 11-1 11-24 0-24.5-1.3C285 433 317 404.5 326 392zm103-118c-9.9-4-16-16-18-25-4-6-9.9 1-11 6-7 54 29.5 28 29 19zm293 9c16 21 29.5 12 40 20.7 3 4 1 9.6-1 14-3 9-13 9-20 4.1-14.5-5.8-22-22.2-19-38.8z"/><path class="st40" d="M347 729c53.5 5 15 86 59 102 25 9 37-19.8 55-11.9 23 10.1 19.6 40 24 60.7 9.6 46 63 29.6 58-12.8"/><path class="st40" d="M519 861c89-9 47.5 119 114.5 115 39-6 35-47 25-76.5-3-9 0-18.5 7-24.5 24.5-21 59 15.5 84-2.5 15-11 8-33-2-45-12-15 0-32 10-43"/><path class="st40" d="M790 539c53 69.8-64 71 8 194.5 6 14 11 32 11 48.5 0 32-49 47.5-61 16"/><path class="st40" d="M721 287c2 51 64 31 74 88 6 34-11.5 71 7 103 10 18 27 31.5 34 51 8 19-4 47-27 42"/><path class="st40" d="M407 290.6c-16-8-12-29.9-2-41 17-15 40.5-10 61-6 29.8 1 49-29 75-38 50-17 81 55 133 44 23-5 48-11 69 1 25 14 33 55 10 75"/><path class="st40" d="M428 278c-16 26.5-51 17.5-76 28.5-20 10.5-28 33-23 55 10 47-43 51-39 88m25 4.5c1.5-23 35-26 41-5 7 25-13 47 16 72"/><path class="st40" d="M334 476c-20-34-61-31.5-89-9.6-20 8-43-3-64 4-22 7-28 37-5 43.5 6.5 2 23-2 26-1 15 4 11 25-5 30-21 6-10 29 6 29"/><path class="st40" d="M216 554.5c-15 15-14 41 2 55 37 22 41 31 36 69.7-2 31 46 41 53.5 10 2-10.8-4-22 0-33 13-32 44 20 62-44.5"/><path class="st40" d="M327 647.9c25 29.7-.5 47-7 75-10 32.5 34 65 53 25"/><path d="M729 262.5c9 4 16 13 18 22.5m-193-68c12.5 2 24.5 8 34 16m9 9 3 3m-163 10c-5.5-.9-12 .6-15.5 4M362 319.6c-9 2-14 10.7-16 19M339 449c4 1 6 6 6 9.8M308.5 470c-12-6-16-5-22-4M175 492c1-4 5-7 9-7.5m38 89.5c-4 8 0 16 4 19.9m44 78.6c-1 6 1 15 9 18m76-77.5c-3 14-13 14.5-16 16m4.5 119.5c-5-3-9-9-8-15M397 782c-1 14.5 7 28 14 30m90 53.9c-3 12 2 27 14.5 25M636 957c14-3 17-28 11-38m96-60.1c1-7 0-14-4-19m46-49.1c8-6.5 9-25 3-39M786 582c5-8 3-19-3-26m37-12c2-8.5-.6-18-7-24m-56-169c18 6 22 30 21 35" style="opacity:.7882;fill:none;stroke:#fff;stroke-width:10;stroke-linecap:round;stroke-linejoin:round;stroke-miterlimit:10;enable-background:new"/></g><linearGradient id="a12" gradientUnits="userSpaceOnUse" x1="234.425" y1="-533.764" x2="348.416" y2="-471.769" gradientTransform="translate(0 1066)"><stop offset="0" style="stop-color:#e0f"/><stop offset=".098" style="stop-color:#e002ff"/><stop offset=".286" style="stop-color:#ba07ff"/><stop offset=".543" style="stop-color:#7c0eff"/><stop offset=".857" style="stop-color:#2919ff"/><stop offset="1" style="stop-color:#001eff"/></linearGradient><path style="fill:url(#a12)" d="M329 545.2c-2-47-53-63-76-27-7 11-9 27-1 38 5.8 8 15 12 19 21 5 13-6 28 0 39.9 16 22 43-1.5 35-25-14.5-31.1 24-18.1 23-47.1v.2z"/><path d="M264 506c-18 25 30 88 55 57.9 22.5-21 3-59-24.5-63.3-10.5-2-23.5-4-30.5 5.2v.2z" style="opacity:.3412;fill:#fff;enable-background:new"/><path d="M329 545c-1.5-47-53-63-76-27-7 11-9 27-1 38 5.8 8 15 12 19 21.4 5 13-6 28 0 39.9 16 22 43-1.5 35-25-14.5-31.3 24-18.3 23-47.3z" style="fill:none;stroke:#000;stroke-width:10;stroke-linecap:round;stroke-linejoin:round;stroke-miterlimit:10"/><path d="M262 503c-19 13-29.7 41-14 60.5 5 6 12 10 16 17 5.5 12-3 28 3.5 39.5 4 7 13 9.8 19.7 7" style="opacity:.6;fill:none;stroke:#000;stroke-width:10;stroke-linecap:round;stroke-linejoin:round;stroke-miterlimit:10;enable-background:new"/><path d="M295.5 515c7 4 12 9.6 16 16m3.5 12c.5 1 1 2 1 3" style="fill:none;stroke:#fff;stroke-width:10;stroke-linecap:round;stroke-linejoin:round;stroke-miterlimit:10"/><defs><style>.zac-4{fill:none;stroke-linecap:round;stroke-linejoin:round;stroke-width:10px;stroke:#000}</style></defs><path d="M497.5 766.8c-11.6 118.6 226.7 117.7 213-1.9Z" style="fill:#ff0059"/><path d="M501.5 776.7c58 34.9 68.2-20.3 116.4-3.9" style="stroke-linecap:round;stroke-linejoin:round;stroke-width:10px;stroke:#660024;fill:none"/><path d="M710.8 767.7c-15.5 13.1-45.4-1-55.8 13.3-4.6 6.4-3.8 13.2.4 20.5-9.7-4.2-18.8-13-24.8-22.6 4.9-10.2 63.2-17.4 80.2-11.2Z" style="fill:#660024"/><path d="M591.5 759.8a117.5 117.5 0 0 1 36.8 18.7l17.9-13.1a143.7 143.7 0 0 1-39-27.9c-5.9 6.8-12.4 13.5-15.7 22.3Z"/><path class="zac-4" d="M497.5 766.8c-11.6 118.6 226.7 117.7 213-1.9"/><path class="zac-4" d="M587.2 761.2c25.3 5.5 48.6 20.8 64.6 42.2"/><path d="M613.4 727.7c-85 131.8-186.8-17.3-157.3-65.4 16 36.8 60.9 42.3 94.1 33.4 29.4-7.8 41.6-35.6 58.8-35 20 .6 40 21.1 61.7 26.2 35.3 8.3 68.4-11.4 83.4-46.9 23 48.4-11.4 113.5-58.8 125.2-32 7.9-64.5-2.7-87.7-26.2" style="fill:#c97600;stroke:#000;stroke-linecap:round;stroke-linejoin:round;stroke-width:10px"/><path class="zac-4" d="M629.6 779.5a40.9 40.9 0 0 1 21.7-13.9"/><path d="M611.7 675.4a55.8 55.8 0 0 1 20.4 10.1m10.1 6 2.8 1.6m-57.8 43.4a60.1 60.1 0 0 1-28 23.6m-14.7 3.5-4.3-.2m204.4-70.3c-4.1 14.1-9.8 24.8-18.5 33.1m-10.5 10.3-3.4 2.5m-105.9 44.1c9.9 2 17.6 9.3 24 16.7m7.9 10.7 1.6 2.7" style="stroke:#fff;fill:none;stroke-linecap:round;stroke-linejoin:round;stroke-width:10px"/><path d="M450.9 662.3c-14.3 40.4 8.3 83 40.5 108.3-4 99.8 155.8 120.9 203.8 49m-91.1-158.3c-24.3 2.6-33.6 26.7-52.7 34.3m201.8-56.5c-11.4 19.8-27.4 35.9-50.4 47.5m-89.4 41.1c2.2 12.1 8.8 20.3 15.9 27.8" style="opacity:.6;stroke:#000;fill:none;stroke-linecap:round;stroke-linejoin:round;stroke-width:10px"/><style>.st124{stroke:#000;stroke-width:10;stroke-linecap:round;stroke-linejoin:round;stroke-miterlimit:10;fill:#fff}</style><g id="black_and_white"><ellipse transform="rotate(-4.656 485.895 504.498)" class="st124" cx="486" cy="504.5" rx="49.6" ry="123"/><ellipse transform="rotate(-4.365 685.784 479.312)" class="st124" cx="686" cy="479" rx="45" ry="119"/><path d="M453 386c-33 52-29 121-13 178.5 8.5 25 29 88 65 60M658 364c-58 61-2 318 59.9 215" style="opacity:.6;fill:none;enable-background:new;stroke:#000;stroke-width:10;stroke-linecap:round;stroke-linejoin:round;stroke-miterlimit:10"/><path d="M486 408c9 9 13 22 17 35m6 20 1 6m176-80c7 9 12 19.5 14 30.6m5 18.4 1 7" style="stroke:#000;stroke-width:10;stroke-linecap:round;stroke-linejoin:round;stroke-miterlimit:10;fill:none"/></g><defs><style>.zbi-3{fill:none;stroke-linecap:round;stroke-linejoin:round;stroke-width:10px;stroke:#000}</style></defs><path d="M346.3 398.4c133.7 133.1 174-36.5 487-17 12.1.8 16-8.5 10.7-17.5-12.5-21.3-43.6-24.9-57.7-46.5-149.5-6.2-302.5 14.1-440 81Z" style="fill:#e600ff"/><path d="M293.6 425.4c147.8-84.7 322.8-116.1 494.1-106.7 18.8-290.3-568.4-184.4-494.1 106.7Z" style="fill:#bf00ff"/><path class="zbi-3" d="M293.6 425.4c147.8-84.7 322.8-116.1 494.1-106.7 18.8-290.3-568.4-184.4-494.1 106.7Z"/><path class="zbi-3" d="M346.3 398.4c133.7 133.1 174-36.5 487-17 12.1.8 16-8.5 10.7-17.5-12.5-21.3-43.6-24.9-57.3-45.5"/><path d="M348.3 404.5a417 417 0 0 0-53.9 28m134.6 15c35.3 11.7 79.6-5 113-16.8 81.2-28.8 166.2-48.7 252.5-45.7" style="opacity:.6;stroke:#000;fill:none;stroke-linecap:round;stroke-linejoin:round;stroke-width:10px"/><path d="M811.8 353.4a39.6 39.6 0 0 1 14.9 12.3m-444.7 47a115.1 115.1 0 0 0 40.9 19.4m12.9 1.3h4.8m254.7-244.3a113 113 0 0 1 58 56.7m6.2 15.7 3.2 8m-386.4-33.8c-29.2 23.4-53.5 48.7-62.1 83.6" style="stroke:#fff;fill:none;stroke-linecap:round;stroke-linejoin:round;stroke-width:10px"/><circle cx="550" cy="550" r="500" style="fill:none;stroke:#000;stroke-width:10;stroke-linecap:round;stroke-linejoin:round;stroke-miterlimit:10"/></svg>