<svg version="1.1" id="Layer_1" xmlns="http://www.w3.org/2000/svg" x="0" y="0" viewBox="0 0 1100 1100" style="enable-background:new 0 0 1100 1100" xml:space="preserve" xmlns:xlink="http://www.w3.org/1999/xlink"><style type="text/css">.st302{fill:#6A10EB;stroke:#000000;stroke-width:10;stroke-linecap:round;stroke-linejoin:round;stroke-miterlimit:10;}</style><circle class="st302" cx="550" cy="553.7" r="500"/><defs><linearGradient id="a" x1="467.78" y1="347.4" x2="508.96" y2="422.3" gradientUnits="userSpaceOnUse"><stop offset="0" stop-color="#ff00f2"/><stop offset=".5" stop-color="#ac05ff"/><stop offset="1" stop-color="#0bf"/></linearGradient><linearGradient id="b" x1="625.23" y1="280.48" x2="689.78" y2="436.19" gradientUnits="userSpaceOnUse"><stop offset="0" stop-color="#00f"/><stop offset=".06" stop-color="#2c00ea"/><stop offset=".15" stop-color="#6b00cb"/><stop offset=".24" stop-color="#a000b2"/><stop offset=".32" stop-color="#c9009e"/><stop offset=".39" stop-color="#e70090"/><stop offset=".45" stop-color="#f90087"/><stop offset=".5" stop-color="#ff0084"/><stop offset=".58" stop-color="#ff2272"/><stop offset=".76" stop-color="#ff7a44"/><stop offset="1" stop-color="#fffb00"/></linearGradient><linearGradient id="c" x1="542.81" y1="533.18" x2="664.99" y2="716.92" gradientUnits="userSpaceOnUse"><stop offset="0" stop-color="#af0"/><stop offset=".25" stop-color="#fac400"/><stop offset=".29" stop-color="#fabf00"/><stop offset=".33" stop-color="#fab100"/><stop offset=".38" stop-color="#f99900"/><stop offset=".43" stop-color="#f87700"/><stop offset=".48" stop-color="#f74d00"/><stop offset=".5" stop-color="#f73e00"/><stop offset=".75" stop-color="#f5006e"/><stop offset="1" stop-color="#c0f"/></linearGradient><linearGradient id="d" x1="730.89" y1="463.6" x2="755.38" y2="535.72" gradientUnits="userSpaceOnUse"><stop offset="0" stop-color="#ff00a1"/><stop offset="1" stop-color="#0059ff"/></linearGradient><linearGradient id="e" x1="659.6" y1="799.3" x2="718.16" y2="799.3" gradientUnits="userSpaceOnUse"><stop offset="0" stop-color="#00f"/><stop offset="1" stop-color="#0fd"/></linearGradient><linearGradient id="f" x1="433.06" y1="520.57" x2="478.6" y2="623.4" gradientUnits="userSpaceOnUse"><stop offset="0" stop-color="#ff0900"/><stop offset=".1" stop-color="#ff0d00"/><stop offset=".2" stop-color="#fe1b00"/><stop offset=".31" stop-color="#fe3100"/><stop offset=".43" stop-color="#fd4f00"/><stop offset=".54" stop-color="#fb7600"/><stop offset=".58" stop-color="#fb8400"/><stop offset="1" stop-color="#f7ff00"/></linearGradient><linearGradient id="g" x1="514.44" y1="451.87" x2="573.27" y2="482.5" gradientUnits="userSpaceOnUse"><stop offset="0" stop-color="#ffb300"/><stop offset=".5" stop-color="#f2d45a"/><stop offset="1" stop-color="#e600ff"/></linearGradient><linearGradient id="h" x1="555.34" y1="254.67" x2="521.18" y2="370.89" gradientUnits="userSpaceOnUse"><stop offset="0" stop-color="#fffb00"/><stop offset=".05" stop-color="#f0fa0f"/><stop offset=".15" stop-color="#c9f736"/><stop offset=".3" stop-color="#89f176"/><stop offset=".47" stop-color="#32eacd"/><stop offset=".56" stop-color="#00e6ff"/><stop offset="1" stop-color="#6200ff"/></linearGradient><linearGradient id="i" x1="431.91" y1="482.9" x2="368.78" y2="334.62" gradientUnits="userSpaceOnUse"><stop offset="0" stop-color="#e1ff00"/><stop offset=".5" stop-color="#fa5700"/><stop offset="1" stop-color="#ff00f7"/></linearGradient><linearGradient id="j" x1="423.73" y1="687.79" x2="506.29" y2="788.25" gradientUnits="userSpaceOnUse"><stop offset="0" stop-color="#5900ff"/><stop offset=".5" stop-color="#db00c5"/><stop offset="1" stop-color="#ff4000"/></linearGradient><linearGradient id="k" x1="264.66" y1="609.94" x2="305.75" y2="609.94" gradientUnits="userSpaceOnUse"><stop offset="0" stop-color="#00f"/><stop offset="1" stop-color="#f0f"/></linearGradient><linearGradient id="l" x1="237.16" y1="499.87" x2="342.8" y2="552.28" gradientUnits="userSpaceOnUse"><stop offset="0" stop-color="#00ff04"/><stop offset=".06" stop-color="#01fe19"/><stop offset=".18" stop-color="#05fd50"/><stop offset=".34" stop-color="#0afaa8"/><stop offset=".5" stop-color="#0ff7ff"/><stop offset="1" stop-color="#5100ff"/></linearGradient><linearGradient id="m" x1="723.12" y1="717.37" x2="745.84" y2="681.95" gradientUnits="userSpaceOnUse"><stop offset="0" stop-color="#ff0037"/><stop offset=".39" stop-color="#ff1ce8"/><stop offset="1" stop-color="#ffc800"/></linearGradient><linearGradient id="n" x1="593.77" y1="831.53" x2="619.74" y2="874.05" gradientUnits="userSpaceOnUse"><stop offset="0" stop-color="#ea00ff"/><stop offset="1" stop-color="#ff0015"/></linearGradient></defs><g data-name="Layer 46"><path d="M531.7 209c-67.9 59.6-70.9 20.3-120.8 36.5-19.6 10.9-14.3 30.3-9.7 39.6 11.2 22.8-50.8 8.7-68.6 40.3-10.3 18.3.1 42.2-7.5 61.8s-33.8 34.7-36.8 52.2c-43.4 48.2-154 6.6-119.1 70.4 6.2 11.4 32.9-6.3 39.1 9.1 7 17.5-38.8 29.4-21.3 46.7 17.7 4.9 20.7 39.9 56.9 63.2 13.8 20 2.7 51.4 19.4 69.1 35.8 37.8 46.3-24.8 41.3-34.3 4.3-38.8 43.9-10.6 22.2 38.7-22.8 51.7 11.2 74 36.5 56.6 38.5-10.5-14.1 99.9 89.9 62.9 18.1.7 28 22.3 29.8 40.3 6.5 63 53.6 46.3 59.1 8 15.5-34.3 45.1 48.6 46.9 59.9 11.3 72.6 69.3 42 70.8 17.9 3.3-54.1-3.2-60.1 1.7-68.3 18.5-31.1 71 13.3 90.8-15.5 13.6-19.7-31.2-63.5 7.9-55.4 94 19.4 18.7-100.7 13.8-120.4-8.8-35.5 13.9-105.6 46.9-121.7 18.1-8.8 17.1-35.5 7.4-52.8s-24.9-30.6-31.4-48.9c-13.5-54.4 22.4-102.1-36-133.3a10.2 10.2 0 0 1-3.9-14.4c17.1-26.3 1.3-66.4-31.8-71.4-22.1-3.3-44.3 8.9-66.5 6.3-43.8-5.2-80.2-74.1-127-43.1Z" style="fill:#1c89ad"/><path d="M461.1 384.3c0-40.3 54-40.3 54 0s-54 40.4-54 0Z" style="fill:url(#a)"/><path d="M607.6 363.4c0-86.2 104-86.2 104 0s-104 86.2-104 0Z" style="fill:url(#b)"/><path d="M514.2 630.8c0-125.6 187-125.6 187 0s-187 125.5-187 0Z" style="fill:url(#c)"/><path d="M718.2 497.1c0-31.7 48.2-31.7 48.2 0s-48.2 31.7-48.2 0Z" style="fill:url(#d)"/><path d="M659.6 799.3c0-38.5 58.6-38.5 58.6 0s-58.6 38.5-58.6 0Z" style="fill:url(#e)"/><path d="M419.1 578.9c0-57.4 79.6-57.4 79.6 0s-79.6 57.4-79.6 0Z" style="fill:url(#f)"/><path d="M529.3 469.3c0-24.4 37-24.3 37 0s-37 24.3-37 0Z" style="fill:url(#g)"/><path d="M496.2 313c0-64.6 84-64.6 84 0s-84 64.6-84 0Z" style="fill:url(#h)"/><path d="M357.2 411.3c0-58.1 88.4-58.1 88.4 0s-88.4 58.1-88.4 0Z" style="fill:url(#i)"/><path d="M419.1 740.5c0-68.3 96-68.3 96 0s-96 68.4-96 0Z" style="fill:url(#j)"/><path d="M264.7 609.9c0-27 41.1-27 41.1 0s-41.1 27.1-41.1 0Z" style="fill:url(#k)"/><path d="M247.4 527.3c0-51.7 90-51.7 90 0s-90 51.6-90 0Z" style="fill:url(#l)"/><path d="M722.3 700.3c0-15.4 23.5-15.4 23.5 0s-23.5 15.4-23.5 0Z" style="fill:url(#m)"/><path d="M589.5 852.8c0-22.6 34.5-22.6 34.5 0s-34.5 22.5-34.5 0Z" style="fill:url(#n)"/></g><style>.st40{fill:none;stroke:#000;stroke-width:10;stroke-linecap:round;stroke-linejoin:round;stroke-miterlimit:10}.st98{opacity:.6;enable-background:new}</style><g id="Outline"><path class="st98" d="M793 537c-1 .7-1 2-.5 3 5 10 11 35 25 30 8-2 21-13 18-22.4-.5-1-2-2-3-1.5-26 12-28-11-39-9.4v.3zm-34 274.5c6 5 26 8 25-3-6-7-20.6-12-21.5-26C750 772 744 803 759 811.5zm-219.3 52s1 .5 1 .8c9 13.5-3 36-18 40-34 6-9-6-6-44 .3-5.3 22.3 2.7 23 3.2zM342 731c5 7-4 22-4 33 8 13 29.6-5 33-14.9 2-12-17-21-28-20.2-1 .1-1 1.1-1 2.1zm31-120.2c2 23-8 47-26 61.9-13 10.9-17.5-30.6-8-27.9 6 4.2 28-18.8 34-34zm-157-59.9c-8 6-17 3-25 1-11 5 4 20 13.5 16 5-4 12-9 12-15.7-.5-.2-1.5-.2-.5-1.3zM337 473c-6-10-3-23 0-34 0-1 0-2-.6-2-9-9-23 11-19.8 20.7C318 463 338 475 337 472.8v.2z"/><path class="st98" d="M326 392c-2 29 24 45 7 44-7 2-14 1-15 11-1 11-24 0-24.5-1.3C285 433 317 404.5 326 392zm103-118c-9.9-4-16-16-18-25-4-6-9.9 1-11 6-7 54 29.5 28 29 19zm293 9c16 21 29.5 12 40 20.7 3 4 1 9.6-1 14-3 9-13 9-20 4.1-14.5-5.8-22-22.2-19-38.8z"/><path class="st40" d="M347 729c53.5 5 15 86 59 102 25 9 37-19.8 55-11.9 23 10.1 19.6 40 24 60.7 9.6 46 63 29.6 58-12.8"/><path class="st40" d="M519 861c89-9 47.5 119 114.5 115 39-6 35-47 25-76.5-3-9 0-18.5 7-24.5 24.5-21 59 15.5 84-2.5 15-11 8-33-2-45-12-15 0-32 10-43"/><path class="st40" d="M790 539c53 69.8-64 71 8 194.5 6 14 11 32 11 48.5 0 32-49 47.5-61 16"/><path class="st40" d="M721 287c2 51 64 31 74 88 6 34-11.5 71 7 103 10 18 27 31.5 34 51 8 19-4 47-27 42"/><path class="st40" d="M407 290.6c-16-8-12-29.9-2-41 17-15 40.5-10 61-6 29.8 1 49-29 75-38 50-17 81 55 133 44 23-5 48-11 69 1 25 14 33 55 10 75"/><path class="st40" d="M428 278c-16 26.5-51 17.5-76 28.5-20 10.5-28 33-23 55 10 47-43 51-39 88m25 4.5c1.5-23 35-26 41-5 7 25-13 47 16 72"/><path class="st40" d="M334 476c-20-34-61-31.5-89-9.6-20 8-43-3-64 4-22 7-28 37-5 43.5 6.5 2 23-2 26-1 15 4 11 25-5 30-21 6-10 29 6 29"/><path class="st40" d="M216 554.5c-15 15-14 41 2 55 37 22 41 31 36 69.7-2 31 46 41 53.5 10 2-10.8-4-22 0-33 13-32 44 20 62-44.5"/><path class="st40" d="M327 647.9c25 29.7-.5 47-7 75-10 32.5 34 65 53 25"/><path d="M729 262.5c9 4 16 13 18 22.5m-193-68c12.5 2 24.5 8 34 16m9 9 3 3m-163 10c-5.5-.9-12 .6-15.5 4M362 319.6c-9 2-14 10.7-16 19M339 449c4 1 6 6 6 9.8M308.5 470c-12-6-16-5-22-4M175 492c1-4 5-7 9-7.5m38 89.5c-4 8 0 16 4 19.9m44 78.6c-1 6 1 15 9 18m76-77.5c-3 14-13 14.5-16 16m4.5 119.5c-5-3-9-9-8-15M397 782c-1 14.5 7 28 14 30m90 53.9c-3 12 2 27 14.5 25M636 957c14-3 17-28 11-38m96-60.1c1-7 0-14-4-19m46-49.1c8-6.5 9-25 3-39M786 582c5-8 3-19-3-26m37-12c2-8.5-.6-18-7-24m-56-169c18 6 22 30 21 35" style="opacity:.7882;fill:none;stroke:#fff;stroke-width:10;stroke-linecap:round;stroke-linejoin:round;stroke-miterlimit:10;enable-background:new"/></g><style>.st113{fill:url(#SVGID_00000161607897382723119130000008384714424499667899_);stroke:#000;stroke-width:10;stroke-linecap:round;stroke-linejoin:round;stroke-miterlimit:10}.st115{fill:url(#SVGID_00000060750496457387242310000012666657064974295186_)}.st116{opacity:.6902;fill:url(#SVGID_00000147217783223614028420000005859567438160853156_);enable-background:new}</style><g id="Diamond"><linearGradient id="SVGID_00000047747315158047275670000003291867314489516677_" gradientUnits="userSpaceOnUse" x1="288.392" y1="548.057" x2="314.227" y2="509.458"><stop offset="0" style="stop-color:#00fff2"/><stop offset=".094" style="stop-color:#00f2f3"/><stop offset=".271" style="stop-color:#00cef5"/><stop offset=".51" style="stop-color:#0095f8"/><stop offset=".799" style="stop-color:#0047fc"/><stop offset="1" style="stop-color:#000dff"/></linearGradient><path style="fill:url(#SVGID_00000047747315158047275670000003291867314489516677_)" d="M288 501.7c2 15 4 33 7 46.8l29-6.4-36-40.4z"/><linearGradient id="SVGID_00000141446425912342851330000003408777914311007933_" gradientUnits="userSpaceOnUse" x1="267.149" y1="523.397" x2="303.78" y2="545.402"><stop offset="0" style="stop-color:#00fff2"/><stop offset=".095" style="stop-color:#00f1f3"/><stop offset=".273" style="stop-color:#00cef5"/><stop offset=".514" style="stop-color:#0094f8"/><stop offset=".807" style="stop-color:#0045fc"/><stop offset="1" style="stop-color:#000dff"/></linearGradient><path style="fill:url(#SVGID_00000141446425912342851330000003408777914311007933_)" d="M264 553.5c10-2 20.5-4 30.7-5.8l-6-43.6-24.7 49.4z"/><linearGradient id="SVGID_00000109030460764858650640000015191774076603487363_" gradientUnits="userSpaceOnUse" x1="274.137" y1="586.606" x2="296.946" y2="541.468"><stop offset="0" style="stop-color:#00fff2"/><stop offset="1" style="stop-color:#000dff"/></linearGradient><path style="fill:url(#SVGID_00000109030460764858650640000015191774076603487363_)" d="m260.1 554 34.9-6.3 6 45.4z"/><linearGradient id="SVGID_00000006686354308698079230000008291800467576291461_" gradientUnits="userSpaceOnUse" x1="288.999" y1="550.828" x2="317.454" y2="572.732"><stop offset="0" style="stop-color:#00fff2"/><stop offset=".125" style="stop-color:#00e8f3"/><stop offset=".388" style="stop-color:#00abf6"/><stop offset=".764" style="stop-color:#004cfc"/><stop offset="1" style="stop-color:#000dff"/></linearGradient><path style="fill:url(#SVGID_00000006686354308698079230000008291800467576291461_)" d="M301 593.8c-3-16-4-28.5-7-46.1l26.5-5.6-19.5 51.7z"/><path style="fill:none;stroke:#000;stroke-width:10;stroke-linecap:round;stroke-linejoin:round;stroke-miterlimit:10" d="m287 495-27.1 58.9L303 602l23-60.6z"/><path d="M282 493.7c-9.8 22-19 40.6-28 60.8l46 52" style="opacity:.6;fill:none;stroke:#000;stroke-width:10;stroke-linecap:round;stroke-linejoin:round;stroke-miterlimit:10"/></g><style>.st40{fill:none;stroke:#000;stroke-width:10;stroke-linecap:round;stroke-linejoin:round;stroke-miterlimit:10}</style><g id="Buck_Teeth"><path d="M408 710c-35-29 16.5-71 37-38m262 13c26-29 68 8 43 37m-273 57.8c55 36 130 42 191 15.5M440 698c14 16 34 28.5 53 38m80 23c12 1 24 1 36 1m103-46c-7 7-15 13-22 19.5" style="opacity:.6;enable-background:new;fill:none;stroke:#000;stroke-width:10;stroke-linecap:round;stroke-linejoin:round;stroke-miterlimit:10"/><linearGradient id="SVGID_00000144308631695432882570000007628677700832790193_" gradientUnits="userSpaceOnUse" x1="615" y1="365.37" x2="685.95" y2="365.37" gradientTransform="matrix(1 0 0 -1 0 1100)"><stop offset="0" style="stop-color:#ff0378"/><stop offset="1" style="stop-color:#ff8903"/></linearGradient><path style="fill:url(#SVGID_00000144308631695432882570000007628677700832790193_)" d="M616 768c16-5 68-13 69.9-32.3C692 706 606.5 663 616 768z"/><linearGradient id="SVGID_00000051372725403280898550000008547425539188560257_" gradientUnits="userSpaceOnUse" x1="495" y1="367.694" x2="569" y2="367.694" gradientTransform="matrix(1 0 0 -1 0 1100)"><stop offset="0" style="stop-color:#ff0378"/><stop offset="1" style="stop-color:#ff8903"/></linearGradient><path style="fill:url(#SVGID_00000051372725403280898550000008547425539188560257_)" d="M496 744.4c14 4 68 35 73 12 0-78-60-68-73-12.4v.4z"/><path d="M512 713c3 27 29 43 54 46-2 1 .5 5-2 6.5s-106-5.6-52-52.5zm106 21.5c19.6 31 57.5-1 67 5 2 13.5-97 59.5-67-5z" style="opacity:.6;enable-background:new"/><path class="st40" d="M435 702c67 74 213 98 282 15m-10-31c27-19 56 5.5 43 36m-342-12c-20-26 7-62 37-38"/><path class="st40" d="M495 743c8-59.8 88-63 74 22m46 2c-15-59.8 55-101 72-26m-210 35c58 29 129 45 189.6 15"/><path d="M544 716c5 4 8 9 9 15m3 18v-5m95-29.1c6 0 12 3 15 8m6 14.1c0-1-.7-2-1-3m-205 11c59 40 138 51 209.8 21.5M714 697c6.5-3 15.5-4 21 1m-320-11c0-7 8-13 15-8" style="fill:none;stroke:#fff;stroke-width:10;stroke-linecap:round;stroke-linejoin:round;stroke-miterlimit:10"/></g><defs><linearGradient id="ze" x1="411.69" y1="535.4" x2="547.43" y2="535.4" gradientUnits="userSpaceOnUse"><stop offset="0" stop-color="#0ff"/><stop offset="1" stop-color="#00f"/></linearGradient><linearGradient id="ze-2" x1="519.79" y1="532.03" x2="604.49" y2="532.03" xlink:href="#ze"/><linearGradient id="ze-3" x1="595.22" y1="562.5" x2="709.15" y2="562.5" xlink:href="#ze"/><linearGradient id="ze-4" x1="626.17" y1="477.22" x2="754.31" y2="477.22" xlink:href="#ze"/><style>.ze-2,.ze-7{stroke:#000;stroke-linecap:round;stroke-linejoin:round;stroke-width:10px;fill:none}.ze-2{opacity:.6}</style></defs><path d="M657.6 445.2c-10.2 14.7 7.8 30.8 24.5 35.3s22.5 22.4 36.9 28.4c40.5 17.2-18.5-125.4-61.4-63.7Zm-144.9 13.4c-23.1-10.5-70.3 84.4-73.7 106.9-6.5 43.3 40.7 62.5 34.9 3.1-3.1-31.3 82.8-90.1 38.8-110Zm42.6 89.2c-14.9-1.3-14.8 37.5-8.6 59.4s44.4-6.9 28.9-23.5c-13.9-15-7.4-34.7-20.3-35.9Zm60.5-22.5c-11.7 17 21.5 28.1 25.2 45.7 9 43.5 60.1 5.8 37.3-21.4-8-9.5-21.7-9-31.7-15-6.6-3.9-22.3-21.6-30.8-9.3Z" style="stroke-linecap:round;stroke-linejoin:round;stroke-width:10px;stroke:#000;fill:#fff"/><path class="ze-2" d="M501.6 435.2c-43.9 16.5-103.5 102.3-94.6 151.7 5 27.7 34.9 65.7 64.3 48.5m102.5-204.9c-25.2 21 5.3 38-29.5 86.3-16.6 23.1-29.3 51.4-29.8 80.3-.5 36.3 46.6 57.7 71.5 29.9m6.3-101.6c-3.9 12.9 3.4 25.6 9.8 36.3 19.2 31.8 11.5 28 18 41.7 20.5 43.1 79.3 12.5 87.1-25.2m-81.7-146.9c-8.6 16.4-4.6 39.5 7.1 53.4s33.3 13.2 62.8 38.6c12.8 11.1 38.2 38.7 52 15.7"/><path class="ze-2" d="M501.4 455c-34.5 24.8-69.1 81.5-67.8 124.7.4 14.8 17 38.6 32.2 24.9m79.8-56.1c-11.4 15.1-14.2 85.8 18.4 66.5m45.9-86.4c-3.4 15.5 13.6 24.5 21.4 35.4s8.6 23.5 19.6 29.2c14 7.2 29.5-5.5 31.9-19.6m-31.7-125.2c-4.5 20.9 16.9 33.1 33.5 39.5 13.7 5.2 29.8 36.5 45.1 21.3"/><path d="M671.1 436.5c-16.7 22.4 36.3 35.4 34.5 9.4 7.2 6.6 13.8 16.7 14.9 26.5-3.6 7.4-12.4 15.6-21.1 14.8-8.7-5.5-71.1-24.4-28.3-50.7Zm-47.3 106c6 7.2 22.6 1.5 18.5-6.9 8.6 6.3 21.8 5.3 28.8 13.6-1 6.4-32.1 31.5-47.3-6.7Zm-76.9 20.4c-.6 9 11.7 14.8 17 6.8 23.2 21.5-14.2 22.3-17.6 16.3-2.6-8-1-13 .6-23.1Zm-44.8-98.2c-12.6 12.2-6.9 38.7 13.1 30.8-15.8 22.1-22.6 63.4-56 41.5-16.6-10.9 24.1-65 42.9-72.3Z"/><path d="M502 436.9c-24.7 10-130.4 119.4-74 181.9 25.4 28.2 68.2 27 68.2-36.9 0-43.1 59-87.4 50.4-120.3-4.8-18-23.3-33.4-44.6-24.7Z" style="fill:url(#ze);opacity:.72"/><path d="M576.3 432c-20.8 18.6 6.9 39.7-21.4 80.6-83.6 120.5 4.8 138.2 31.8 113.4 43.6-40-31.5-66.5-6.8-105.9 49.4-78.6 11.6-101.7-3.6-88.1Z" style="fill:url(#ze-2);opacity:.72"/><path d="M598.4 517.5c-11.4 22.1 11 43.8 20.3 63.3 8.2 17.1 5.9 33.6 28.5 38.3 30.8 6.5 75-37.4 58.3-66.8-13.2-23.3-89.5-69-107.1-34.8Z" style="fill:url(#ze-3);opacity:.72"/><path d="M631.1 429.8c-13.2 27.6 1.1 57.2 29.2 65.9 23.3 7.2 40.2 27.8 60.5 43.2 52.8 40.2 42-120-23.8-129-18.7-2.6-56.5.2-65.9 19.9Z" style="fill:url(#ze-4);opacity:.72"/><path class="ze-7" d="M502 436.9c-24.7 10-130.4 119.4-74 181.9 25.4 28.2 68.2 27 68.2-36.9 0-43.1 59-87.4 50.4-120.3-4.8-18-23.3-33.4-44.6-24.7Zm74.3-4.9c-20.8 18.6 6.9 39.7-21.4 80.6-83.6 120.5 4.8 138.2 31.8 113.4 43.6-40-31.5-66.5-6.8-105.9 49.4-78.6 11.6-101.7-3.6-88.1Z"/><path class="ze-7" d="M598.4 517.5c-11.4 22.1 11 43.8 20.3 63.3 8.2 17.1 5.9 33.6 28.5 38.3 30.8 6.5 75-37.4 58.3-66.8-13.2-23.3-89.5-69-107.1-34.8Zm32.7-87.7c-13.2 27.6 1.1 57.2 29.2 65.9 23.3 7.2 40.2 27.8 60.5 43.2 52.8 40.2 42-120-23.8-129-18.7-2.6-56.5.2-65.9 19.9Z"/><path d="M701.4 426.4c18.7 4.2 28.6 34.2 34.5 55.6m1.1 13.3a52.3 52.3 0 0 1 0 12.5m-105.2 13.4a107.8 107.8 0 0 1 40.1 20.9m10.7 8.4a27.4 27.4 0 0 0 3.6 3.2m-97.3-111.3c2.9 3.5 3.1 8.3 3.1 12.6m-8.3 130.6a21.6 21.6 0 0 1-5.1 26.2m-9.1 6a25.3 25.3 0 0 1-3.6 1.2m-36.2-157.8c2.7 8.8-.3 18.1-4.6 25.9m-6.5 11.8-1.4 2.3m-37.8 85.5a37.9 37.9 0 0 1-4.1 22.2m-6.5 10.1a10.5 10.5 0 0 1-2.8 1.4" style="stroke:#fff;stroke-linecap:round;stroke-linejoin:round;stroke-width:10px;fill:none"/><defs><linearGradient id="zbg" x1="481.09" y1="66.55" x2="556.35" y2="408.14" gradientUnits="userSpaceOnUse"><stop offset="0" stop-color="#e100ff"/><stop offset=".18" stop-color="#e600dc"/><stop offset=".57" stop-color="#f10084"/><stop offset="1" stop-color="#ff001e"/></linearGradient><linearGradient id="zbg-2" x1="535.58" y1="186.28" x2="505.68" y2="294.23" gradientTransform="rotate(13.2 524.84 232.682)" gradientUnits="userSpaceOnUse"><stop offset="0" stop-color="#00fff2"/><stop offset="1" stop-color="#000dff"/></linearGradient><linearGradient id="zbg-3" x1="371.17" y1="124.15" x2="419.66" y2="250.85" gradientUnits="userSpaceOnUse"><stop offset="0" stop-color="#e100ff"/><stop offset="1" stop-color="#ff001e"/></linearGradient><linearGradient id="zbg-4" x1="580.35" y1="88.56" x2="629.68" y2="207.06" xlink:href="#zbg-3"/><style>.zbf-7{fill:none;stroke-linecap:round;stroke-linejoin:round;stroke-width:10px;stroke-dasharray:0 0 0 0 0 0;stroke:#000}</style></defs><path d="M327.9 385.8c-4.4 13.7-18.2 24-28.6 35.7-27.5 3.8-47-19.7-47.4-47-.3-20.7 3.9-39.7-6.5-59.6 20.7 8.3 15.9-10.5 17.7-24.3 5.7-41.6 31.7-62 4.3-106.2 21.5-1.1 66.7 69.5 72.3 30.5 25.7 8.6 31.4 46 72.2 29.4a45.3 45.3 0 0 0 23-21.2c13.8-27.2-15.8-33-9.3-52.2 11.3 12.6 43.8-2.5-5.9-75.5 46-3.6 107.6 64.6 104.1 18 26 15.2 15 35.5 46.6 53.1 9.1 5 13.4 15.8 21.2 22.7 39.3 35.2 74.7-18.2 48.3-54.5 27.2 4.8 2.4-40.7-7.9-47.2 72.7 11.8 84.4 120.9 108.1 76 6.5 8.1 6.3 19.5 10.1 29.1 6 15.4 21.5 25 30 39.2 5.8 9.7 8.1 21.3 13.6 31.2 7.8 17.1 31.2 26.8 38.4 45.4 10.5 27.2-15.2 48-38.6 58-5.9-18.6-21.9-31.6-42.9-38-142.9-4.6-286.5 14.4-422.8 57.4Z" style="fill:url(#zbg)"/><ellipse cx="523" cy="231.8" rx="26" ry="59.5" transform="rotate(-13.2 524.893 232.398)" style="fill:url(#zbg-2)"/><path d="M546.8 260.6c16.7-2.9-6.8-90.3-38.7-85-14 9.9-29.4 101.8 38.7 85Z" style="fill:#fff;opacity:.36"/><path d="M425.5 175.4a15.8 15.8 0 0 0 16-5.8c-11.9-5.8-14.9-21.4-30.8-25.4-1.8 26.7-31.6-8-51.9-9.5 22 27.5 17 66.2-.4 56.1.6 10.2-.6 20.4-2.7 31.2 24.8 47.1 81.5 20.9 82.3-8.5.4-13.5-12.2-25.6-12.5-38.1Z" style="fill:url(#zbg-3)"/><path d="M646.7 147.7c-16.1 12-20.1-21.1-27.6-24.6-17.8 22.9-17.7-30.9-43.4-27.3 8.7 7.6 17 46.4-3.4 35.8a56.1 56.1 0 0 1-2.5 31.8c55.9 74.3 86.7 14.4 76.9-15.7Z" style="fill:url(#zbg-4)"/><path d="M425.5 175.4a15.8 15.8 0 0 0 16-5.8c-11.9-5.8-14.9-21.4-30.8-25.4-1.8 26.7-31.6-8-51.9-9.5 22 27.5 17 66.2-.4 56.1.6 10.2-.6 20.4-2.7 31.2 24.8 47.1 81.5 20.9 82.3-8.5.4-13.5-12.2-25.6-12.5-38.1Zm221.2-27.7c-16.1 12-20.1-21.1-27.6-24.6-17.8 22.9-17.7-30.9-43.4-27.3 8.7 7.6 17 46.4-3.4 35.8a56.1 56.1 0 0 1-2.5 31.8c55.9 74.3 86.7 14.4 76.9-15.7Z" style="opacity:.39"/><path class="zbf-7" d="M789.6 327.5c-155.1 0-335.8 7.5-492.5 69.8"/><path class="zbf-7" d="M327.9 385.8c-4.4 13.7-18.2 24-28.6 35.7-27.5 3.8-47-19.7-47.4-47-.3-20.7 3.9-39.7-6.5-59.6 20.7 8.3 15.9-10.5 17.7-24.3 5.7-41.6 31.7-62 4.3-106.2 21.5-1.1 66.7 69.5 72.3 30.5 25.7 8.6 31.4 46 72.2 29.4a45.3 45.3 0 0 0 23-21.2c13.8-27.2-15.8-33-9.3-52.2 11.3 12.6 43.8-2.5-5.9-75.5 46-3.6 107.6 64.6 104.1 18 26 15.2 15 35.5 46.6 53.1 9.1 5 13.4 15.8 21.2 22.7 39.3 35.2 74.7-18.2 48.3-54.5 27.2 4.8 2.4-40.7-7.9-47.2 72.7 11.8 84.4 120.9 108.1 76 6.5 8.1 6.3 19.5 10.1 29.1 6 15.4 21.5 25 30 39.2 5.8 9.7 8.1 21.3 13.6 31.2 7.8 17.1 31.2 26.8 38.4 45.4 10.5 27.2-15.2 48-38.6 58-5.9-18.6-21.9-31.6-41.5-38.4"/><path class="zbf-7" d="M354.9 221a88.1 88.1 0 0 0 3.5-30.2c17.4 10.1 22.4-28.6.4-56.1 20.3 1.5 50.1 36.2 51.9 9.5 15.9 4 18.9 19.6 30.1 24.2m128.5-5.3a51 51 0 0 0 3-31.5c20.4 10.6 12.1-28.2 3.4-35.8 25.7-3.6 25.6 50.2 43.4 27.3 7.5 3.5 11.5 36.6 27.6 24.6"/><ellipse class="zbf-7" cx="523" cy="231.8" rx="26" ry="59.5" transform="rotate(-13.2 524.893 232.398)"/><path d="M294.2 399a20.3 20.3 0 0 1-1.7 21.7c12.3-4 26.2-16.8 26.2-30.6M794 328.5c-2.5 13.6 8.8 21 23.2 23.8-21.6 30.1-46.6-14.9-46.7-22.4" style="opacity:.6"/><path d="M760.3 332.1c-142.4 7.3-296.6 11.6-434.3 61.5m176.8-215.8c-29.8 22.8-4 139.4 38.2 109.8" style="opacity:.6;stroke:#000;fill:none;stroke-linecap:round;stroke-linejoin:round;stroke-width:10px;stroke-dasharray:0 0 0 0 0 0"/><path d="M515.7 190.5c7.4 7.6 11.6 17.7 15 27.7m3.1 12.7.7 4M671 125.1a102.2 102.2 0 0 1 16.8 22.6m10.3 15.8 2.2 3.9m53.2 58.2c9.8 5.9 13.9 16.1 17 25.5M448.3 114.6a79.5 79.5 0 0 1 26.9 14m12.3 6 3 1.8m68.6 39.9a39.1 39.1 0 0 1 13.4 13.4m-293.3 98.7a57.2 57.2 0 0 1 5.8-25.7m-9.7 41.4-.1 2.5m-7.6 55.8a38 38 0 0 0 1.7 24.2m4.8 12.8 1.8 2.1m528.9-103.9a28.7 28.7 0 0 1 12 19.3m.5 13.2-1.1 2.1" style="stroke:#fff;fill:none;stroke-linecap:round;stroke-linejoin:round;stroke-width:10px;stroke-dasharray:0 0 0 0 0 0"/><circle cx="550" cy="550" r="500" style="fill:none;stroke:#000;stroke-width:10;stroke-linecap:round;stroke-linejoin:round;stroke-miterlimit:10"/></svg>