<svg version="1.1" id="Layer_1" xmlns="http://www.w3.org/2000/svg" x="0" y="0" viewBox="0 0 1100 1100" style="enable-background:new 0 0 1100 1100" xml:space="preserve" xmlns:xlink="http://www.w3.org/1999/xlink"><style type="text/css">.st303{fill:#FED907;stroke:#000000;stroke-width:10;stroke-linecap:round;stroke-linejoin:round;stroke-miterlimit:10;}</style><circle class="st303" cx="550" cy="553.7" r="500"/><defs><linearGradient id="a" x1="440.97" y1="180.1" x2="582.97" y2="998.27" gradientUnits="userSpaceOnUse"><stop offset="0" stop-color="#fbff03"/><stop offset=".25" stop-color="#ff751a"/><stop offset=".39" stop-color="#ff298d"/><stop offset=".54" stop-color="#e100ff"/><stop offset=".75" stop-color="#4f2bff"/><stop offset="1" stop-color="#03eeff"/></linearGradient></defs><path d="M531.7 209c-67.9 59.6-70.9 20.3-120.8 36.5-19.6 10.9-14.3 30.3-9.7 39.6 11.2 22.8-50.8 8.7-68.6 40.3-10.3 18.3.1 42.2-7.5 61.8s-33.8 34.7-36.8 52.2c-43.4 48.2-154 6.6-119.1 70.4 6.2 11.4 32.9-6.3 39.1 9.1 7 17.5-38.8 29.4-21.3 46.7 17.7 4.9 20.7 39.9 56.9 63.2 13.8 20 2.7 51.4 19.4 69.1 35.8 37.8 46.3-24.8 41.3-34.3 4.3-38.8 43.9-10.6 22.2 38.7-22.8 51.7 11.2 74 36.5 56.6 24-8.9 13.3 38.7 23.3 50.9 19.5 37.2 54.9 11.6 66.6 12 18.1.7 28 22.3 29.8 40.3 6.5 63 53.6 46.3 59.1 8 15.5-34.3 45.1 48.6 46.9 59.9 11.3 72.6 69.3 42 70.8 17.9 3.3-54.1-3.2-60.1 1.7-68.3 18.5-31.1 71 13.3 90.8-15.5 13.6-19.7-31.2-63.5 7.9-55.4 94 19.4 18.7-100.7 13.8-120.4-8.8-35.5 13.9-105.6 46.9-121.7 18.1-8.8 17.1-35.5 7.4-52.8s-24.9-30.6-31.4-48.9c-13.5-54.4 22.4-102.1-36-133.3a10.2 10.2 0 0 1-3.9-14.4c17.1-26.3 1.3-66.4-31.8-71.4-22.1-3.3-44.3 8.9-66.5 6.3-43.8-5.2-80.2-74.1-127-43.1Z" style="fill:url(#a)" data-name="Layer 57"/><style>.st40{fill:none;stroke:#000;stroke-width:10;stroke-linecap:round;stroke-linejoin:round;stroke-miterlimit:10}.st98{opacity:.6;enable-background:new}</style><g id="Outline"><path class="st98" d="M793 537c-1 .7-1 2-.5 3 5 10 11 35 25 30 8-2 21-13 18-22.4-.5-1-2-2-3-1.5-26 12-28-11-39-9.4v.3zm-34 274.5c6 5 26 8 25-3-6-7-20.6-12-21.5-26C750 772 744 803 759 811.5zm-219.3 52s1 .5 1 .8c9 13.5-3 36-18 40-34 6-9-6-6-44 .3-5.3 22.3 2.7 23 3.2zM342 731c5 7-4 22-4 33 8 13 29.6-5 33-14.9 2-12-17-21-28-20.2-1 .1-1 1.1-1 2.1zm31-120.2c2 23-8 47-26 61.9-13 10.9-17.5-30.6-8-27.9 6 4.2 28-18.8 34-34zm-157-59.9c-8 6-17 3-25 1-11 5 4 20 13.5 16 5-4 12-9 12-15.7-.5-.2-1.5-.2-.5-1.3zM337 473c-6-10-3-23 0-34 0-1 0-2-.6-2-9-9-23 11-19.8 20.7C318 463 338 475 337 472.8v.2z"/><path class="st98" d="M326 392c-2 29 24 45 7 44-7 2-14 1-15 11-1 11-24 0-24.5-1.3C285 433 317 404.5 326 392zm103-118c-9.9-4-16-16-18-25-4-6-9.9 1-11 6-7 54 29.5 28 29 19zm293 9c16 21 29.5 12 40 20.7 3 4 1 9.6-1 14-3 9-13 9-20 4.1-14.5-5.8-22-22.2-19-38.8z"/><path class="st40" d="M347 729c53.5 5 15 86 59 102 25 9 37-19.8 55-11.9 23 10.1 19.6 40 24 60.7 9.6 46 63 29.6 58-12.8"/><path class="st40" d="M519 861c89-9 47.5 119 114.5 115 39-6 35-47 25-76.5-3-9 0-18.5 7-24.5 24.5-21 59 15.5 84-2.5 15-11 8-33-2-45-12-15 0-32 10-43"/><path class="st40" d="M790 539c53 69.8-64 71 8 194.5 6 14 11 32 11 48.5 0 32-49 47.5-61 16"/><path class="st40" d="M721 287c2 51 64 31 74 88 6 34-11.5 71 7 103 10 18 27 31.5 34 51 8 19-4 47-27 42"/><path class="st40" d="M407 290.6c-16-8-12-29.9-2-41 17-15 40.5-10 61-6 29.8 1 49-29 75-38 50-17 81 55 133 44 23-5 48-11 69 1 25 14 33 55 10 75"/><path class="st40" d="M428 278c-16 26.5-51 17.5-76 28.5-20 10.5-28 33-23 55 10 47-43 51-39 88m25 4.5c1.5-23 35-26 41-5 7 25-13 47 16 72"/><path class="st40" d="M334 476c-20-34-61-31.5-89-9.6-20 8-43-3-64 4-22 7-28 37-5 43.5 6.5 2 23-2 26-1 15 4 11 25-5 30-21 6-10 29 6 29"/><path class="st40" d="M216 554.5c-15 15-14 41 2 55 37 22 41 31 36 69.7-2 31 46 41 53.5 10 2-10.8-4-22 0-33 13-32 44 20 62-44.5"/><path class="st40" d="M327 647.9c25 29.7-.5 47-7 75-10 32.5 34 65 53 25"/><path d="M729 262.5c9 4 16 13 18 22.5m-193-68c12.5 2 24.5 8 34 16m9 9 3 3m-163 10c-5.5-.9-12 .6-15.5 4M362 319.6c-9 2-14 10.7-16 19M339 449c4 1 6 6 6 9.8M308.5 470c-12-6-16-5-22-4M175 492c1-4 5-7 9-7.5m38 89.5c-4 8 0 16 4 19.9m44 78.6c-1 6 1 15 9 18m76-77.5c-3 14-13 14.5-16 16m4.5 119.5c-5-3-9-9-8-15M397 782c-1 14.5 7 28 14 30m90 53.9c-3 12 2 27 14.5 25M636 957c14-3 17-28 11-38m96-60.1c1-7 0-14-4-19m46-49.1c8-6.5 9-25 3-39M786 582c5-8 3-19-3-26m37-12c2-8.5-.6-18-7-24m-56-169c18 6 22 30 21 35" style="opacity:.7882;fill:none;stroke:#fff;stroke-width:10;stroke-linecap:round;stroke-linejoin:round;stroke-miterlimit:10;enable-background:new"/></g><defs><style>.zab-3{fill:none;stroke-linecap:round;stroke-linejoin:round;stroke-width:10px;stroke:#000}</style></defs><path d="M550.4 800.2C662.9 839.6 644 929 776.5 930.6c13.5-.7 27.2-1.4 40.4 2.5-1.7-10.8-9.3-20-19-25.5 13.1-9 30.1-6.3 43.7-.4-14-38.5-70.6-36.5-95.8-66.8-15.5-16.5-13.2-39.1-18.6-59.3-10.7-40-59.7-71.3-98.4-48.6-48.9-68.9-140.1-51.6-157.3-28.1-27.1 37.1 2.7 87.5 78.9 95.8Z" style="fill:#ff0059"/><path d="M592.1 693.6a240.8 240.8 0 0 1 36.9 39.3c34.1-22.9 80.2 4.7 95.2 38.6 36.1-26.3 31.7-93.9-15.4-104.3-23.4-2.5-80.2 26.4-116.7 26.4Z"/><path d="M520.4 791.5q5.4-10.7 10.5-21.3l14.2 28.2Zm-18.7-103c9.8 16 20.1 31.8 30.9 47.1l14.8-47.1Zm161.9-9.4c11 11.9 19.5 26 31.4 37l11.4-48.4Zm48.9 73.3 6.7-23.2 19.6 23.4-14.7 18.4-11.6-18.6z" style="fill:#fff"/><path class="zab-3" d="M767.3 894.2c19.5 17.4 40.7 6.7 55.6 41.9-19.2-7.7-40.6-4.7-61.2-6-137.3-8.9-91.2-107.9-248.8-137.2-28.9-5.4-61.1-40.2-50.2-72.1 21.5-63.1 110.6-18.9 161.8-31.1 32.9-7.8 73-35.9 104-13.3 33.8 24.8 23.7 68.1-3.1 96.1"/><path class="zab-3" d="M580.4 690.8c32.9 15 55 49.4 68.6 81.9m-18.7-39.8c35.5-25.6 86.8 10.4 95.2 48.5 5.1 23.4 6.7 49.5 26.3 66.4 28.2 24.3 76.3 24.4 95.5 60.9-15.7-5.7-34.9-11.3-49.8-1M500.6 689l33.2 50.3 14.6-50"/><path class="zab-3" d="M663.4 680a402.5 402.5 0 0 1 32 40.4l12.2-50.8M519 791.8c4.3-7.9 6.7-14.5 13-23.8l15.3 32m165-50.3a224.9 224.9 0 0 1 7.8-22.2l20.8 23.6"/><path d="M480.1 696.3c-38.8 20.9-21.3 73.2 3.3 90.5 41 28.8 70.2-11 172.3 100.5M531.2 767.2l-18.3 22.5m254.7 102.4c12.9 10.1 30.7 6.8 45.8 10" style="opacity:.6;stroke:#000;fill:none;stroke-linecap:round;stroke-linejoin:round;stroke-width:10px"/><path d="M604 729.2a90.1 90.1 0 0 1 18.8 29.4m6.2 13.6 1.9 3.3m53.8-28.5a47.4 47.4 0 0 1 22.6 28.5m3 12.5.8 2.8M677 884.1a103.4 103.4 0 0 0 37.2 22.7m11.2 3.5 3.6 1m55.1-31.2a49.8 49.8 0 0 1 18.4 8.1" style="stroke:#fff;opacity:.83;fill:none;stroke-linecap:round;stroke-linejoin:round;stroke-width:10px"/><path d="M653.1 772.7c-4.7-16.5.8-36.2 17.1-43.9-13.4-4.3-30.6-1.6-41.9 2.7m-12.9-7.2c-21.5-13-45.2-16.2-70.3-15.2 1.7-5.2.9-14.8 1.3-20.7 28.1-3.2 53.5 10.4 69 35.9Zm-85.2 18.5c-17.6-20.5-30.2-43.2-61.3-31.8 5.1-9.6 21.5-17.9 31.5-22.3" style="opacity:.6"/><linearGradient id="a17" gradientUnits="userSpaceOnUse" x1="590.032" y1="1073.389" x2="771.011" y2="1073.389" gradientTransform="matrix(1 0 0 -1 0 1410)"><stop offset="0" style="stop-color:#f05"/><stop offset="1" style="stop-color:#fa0"/></linearGradient><path style="fill:url(#a17);stroke:#000;stroke-width:10;stroke-linecap:round;stroke-linejoin:round;stroke-miterlimit:10" d="M619.5 57.5c4 17 16 32 14 49.7-3 21-31 27-33 5-18 36 26 48 32 78 4 36-39 34-33 8.7-13 28-12 64 5 89.6 9.9 15 21.5 29 25 46.9 8 32-32 31.5-28 1-36 69 71 152 33 173.2-13 2-18-23-30-19 15 24 5 49 7 75 3 41 62 56 98 48 65-15 71-89 56-140.4 2 17-15 24-22 8-3-7-.6-14 1-21 8-35 17-71 10-106-1 9.6-19 33-26 17.2-9.8-41 32-71 7-142-3 10.6-10.1 19.8-20 24-18 8-21-32-15-50.9 12-37 35-75 37-115"/><linearGradient id="b6" gradientUnits="userSpaceOnUse" x1="375" y1="1070.696" x2="592" y2="1070.696" gradientTransform="matrix(1 0 0 -1 0 1410)"><stop offset="0" style="stop-color:#f05"/><stop offset="1" style="stop-color:#fa0"/></linearGradient><path style="fill:url(#b6);stroke:#000;stroke-width:10;stroke-linecap:round;stroke-linejoin:round;stroke-miterlimit:10" d="M559 50c8 29-35 46-38 73-4 36 49 41 53 5 31.5 115-73 176-32 207.9 15 12 25-11 22-19 31 52-25 105-21 156 2 27.5 31 13 30.8-10.6 95 209.9-200 209-155 65 4-25-2-52-16-73 8 6 24 12 29.6 0 4-16-25-38-19.5-76 4-29.6 27.5-60 14-90.1 5 4 7 9.9 10 15 20 24 29.9-11 12-26.5-48-30.5-96-79-59.8-138-.5 36 55 29 42-4.7-9-23-34-25-33.5-58 9.9-6 21-8 32-11"/><path d="M381 162c12 22 52 13 56-13-6 17-46 16-49.6-3M432 317.5c9 8 25-1.5 28-11.5-9 9-22 4-28-6m-17 171c12.5 3 26-9.7 20-22 0 13.5-17 13-26 9.5M529.7 149c12 13 32 19 49 14-3-7-2-15-2.5-22-25 15-19 11-46.5 7.8v.2zm5.3 186c7 10 26.5 19 36.5 9-.7-5-2-9.5-4-14-5 6.5-14 10-21.5 5m37 157c-10 9-29.7 6-38-4 13 2 24-4 31.5-14.5v.8m36 39.7c8.5 6 23 5 27-5.5-11 4-21-7-29.5-14M739 483c3 12 17 22 29 20 1 0 1-1 1-2-.6-5 1-12-3-15.5-3 1-18 9-27.5-3.5v1zm-11.5-106c9 7 25 5.5 30-5-1-3 0-8-.7-10.8M597 369.6c10 8 26.5 0 31-10.9-10 4-23-1-31-8.2l1 1m143-80.9c-17 4-35-9-43-23 20 9 25 2.5 37-13M590 228c14 8 35 1 39-14.9-11 7-24 5-34-3m3-74.1c13.5 12 37-1 36-19-8 9.7-25 9-35 3" style="opacity:.6;enable-background:new"/><path d="M409 569.5c12 49.6 66.5 75 114 63 23-4.5 50.8-23 57-46m27-17.5c13 63 124 72 148 14" style="opacity:.6;enable-background:new;stroke:#000;fill:none;stroke-width:10;stroke-linecap:round;stroke-linejoin:round;stroke-miterlimit:10"/><path d="M718 94c-3 29-13.5 59-27 85m-6 14c-1 1.5-1 3-2 5m46 76.5c-1 16-4.5 32-9.8 47M714 335c-.5 2-1 3-1.5 5m28.5 50.8c-1 15-4 29.6-8 44m-3 13.9-1 4m25 86.3c-4 25-22 50.9-48 56m-18 1.4h-4M573 518c4 28-1 59.7-25 77m-14.5 8c-1 .5-3 .9-4 1m26-242c-2 15-9 29-16 43m-4.5 14c0 1.5-1 3-2 4m30-241.5c-4 21-11 42-21.5 61m-7.5 15.1-1.5 4m10-198.6c-4 7.5-9.8 14-16 19.9" style="fill:none;stroke:#fff;stroke-width:10;stroke-linecap:round;stroke-linejoin:round;stroke-miterlimit:10"/><circle cx="550" cy="550" r="500" style="fill:none;stroke:#000;stroke-width:10;stroke-linecap:round;stroke-linejoin:round;stroke-miterlimit:10"/></svg>