<svg version="1.1" id="Layer_1" xmlns="http://www.w3.org/2000/svg" x="0" y="0" viewBox="0 0 1100 1100" style="enable-background:new 0 0 1100 1100" xml:space="preserve" xmlns:xlink="http://www.w3.org/1999/xlink"><style type="text/css">.st300{fill:#00DE72;stroke:#000000;stroke-width:10;stroke-linecap:round;stroke-linejoin:round;stroke-miterlimit:10;}</style><circle class="st300" cx="550" cy="553.7" r="500"/><path d="M532 209c-68 59.6-70.9 20-120.8 36.5-19.6 10.9-14 30-9.7 39.6 11 23-50.8 9-69 40.3-10 18 0 42-7.5 61.8-9 19.6-34 35-37 52-43 48-154 7-119 70.4 6 11 33-6 39 9.1 7 17.5-39 29-21 46.7 18 5 20.7 39.9 57 63 14 20 3 51 19 69.1 36 38 46-25 41-34.3 4-39 44-10.6 22 38.7-23 52 11 74 36.5 56.6 24-9 13 39 23 50.9 19.5 37 55 12 67 12 18 .7 28 22 29.8 40.3 6.5 63 54 46 59 8 15.5-34 45 49 47 59.9 11 73 69 42 70.8 17.9 3-54-3-60 2-68.3 18.5-31 71 13 90.8-15.5 14-19.7-31-63.5 8-55.4 94 19 19-100.7 14-120.4-9-35.5 14-106 47-121.7 18-9 17-35.5 7-52.8-9.5-17-25-30.6-31-48.9-13.5-54 22-102-36-133.3-5-3-7-9.5-4-14.4 17-26 1-66-32-71.4-22-3-44 9-66.5 6.3C615 247 578.5 178 532 209z" style="fill:#5d7f48"/><path d="M800 739.3c-5-3.5-5.5 16-14.5-2.4-2-4.5-9-5-13-1.9-6 6-2 18.5-9 22.6-9.8 5.5-17-8-16-16.5 3-49-69.6-23-36 7.5 10.6 9.5 28 19.8 16 35.8-14 19-18-22-39-10.8-18 9-19.5 38-7 52.3 12 14 19 28.5 3 43.9 17-11 71 29.5 74-10.5 1-18-27-40.9-10-57.9 11.5 20.6 86 24.6 51.5-62.1zm9-251.4c-15 39-85 33-97-4-12-38 38-64 4-107.8-17-22-45-7-27 17.4 19 25-17 53-40 33.8-65.5-55 59.9-109-26-190.9 32 37 86-9.8 123 15.1 23 16 27 56 7 76.8 81 30.7 11 106.7 56 159.6zM209 594c9-14 28-5 35 6.7 9.7 16 28.5 43 47 22.1 7-7 4-17 .6-25.7-6.5-15 9-25 24-20.5 6 2 12 5 19 5.3 26 3 42.5-27 30.6-49-4-7-4-18-4-26.4-2-50-12-109-47-50.4-29-20.5-80 25-119 14.4-39-5-45 55-1.5 44.1 42.5 0 5 26-8 41 3 12 10.6 13 19 17.3 2.3 6.6 1.3 16.1 4.3 21.1z" style="fill:#7a0d09"/><path d="M710 870.6c-7-20.6 23.5-19 20 3.7l-20-3.7zm12-67c-4 1-6 7-3 10.1 2.5 2 7 2.5 9 5.4 1.5 2 .7 5 2 7.6 5 9 17 0 14.5-8.4C741 809 734 800 722 803.6zm65 6.7c-11-14 7-43 19.6-29.5 4 13.2-6.6 27.2-19.6 29.5zm-94-5.8c-6 7 6 23 13 16 8-7.5-4-27.5-13-16zm104-333.2c-24 8-45.5-12-39.8-37 5-20.9 36-26.5 36-1.3l3.8 38.3zm-66.4-7c-5 9.9 9 23 18 16 15.4-11.3-6.1-39.3-18-16zm6.9-141.3c-16 17.5 6 48 23 56.3s35-8 26-25.7c-11-17.6-27.5-23.6-49-30.6zm-66.9-70.9c-15 44 48 69 52 51 1-5-4-29 9.8-14 28 30 35-29 5-43.7-12.4-6.4-56.4 4.5-66.8 6.7zM212 532c4 6.5 12 10 19.6 11.3 57 9 26-88-17-71.5-17 1-42-6-52 12.5C149 530 219 497 212 532zm73-39.1c-23 30.7 35 62 39 23.5 2-18.4-25-42.4-39-23.5z" style="fill:#e1908d"/><style>.st40{fill:none;stroke:#000;stroke-width:10;stroke-linecap:round;stroke-linejoin:round;stroke-miterlimit:10}.st98{opacity:.6;enable-background:new}</style><g id="Outline"><path class="st98" d="M793 537c-1 .7-1 2-.5 3 5 10 11 35 25 30 8-2 21-13 18-22.4-.5-1-2-2-3-1.5-26 12-28-11-39-9.4v.3zm-34 274.5c6 5 26 8 25-3-6-7-20.6-12-21.5-26C750 772 744 803 759 811.5zm-219.3 52s1 .5 1 .8c9 13.5-3 36-18 40-34 6-9-6-6-44 .3-5.3 22.3 2.7 23 3.2zM342 731c5 7-4 22-4 33 8 13 29.6-5 33-14.9 2-12-17-21-28-20.2-1 .1-1 1.1-1 2.1zm31-120.2c2 23-8 47-26 61.9-13 10.9-17.5-30.6-8-27.9 6 4.2 28-18.8 34-34zm-157-59.9c-8 6-17 3-25 1-11 5 4 20 13.5 16 5-4 12-9 12-15.7-.5-.2-1.5-.2-.5-1.3zM337 473c-6-10-3-23 0-34 0-1 0-2-.6-2-9-9-23 11-19.8 20.7C318 463 338 475 337 472.8v.2z"/><path class="st98" d="M326 392c-2 29 24 45 7 44-7 2-14 1-15 11-1 11-24 0-24.5-1.3C285 433 317 404.5 326 392zm103-118c-9.9-4-16-16-18-25-4-6-9.9 1-11 6-7 54 29.5 28 29 19zm293 9c16 21 29.5 12 40 20.7 3 4 1 9.6-1 14-3 9-13 9-20 4.1-14.5-5.8-22-22.2-19-38.8z"/><path class="st40" d="M347 729c53.5 5 15 86 59 102 25 9 37-19.8 55-11.9 23 10.1 19.6 40 24 60.7 9.6 46 63 29.6 58-12.8"/><path class="st40" d="M519 861c89-9 47.5 119 114.5 115 39-6 35-47 25-76.5-3-9 0-18.5 7-24.5 24.5-21 59 15.5 84-2.5 15-11 8-33-2-45-12-15 0-32 10-43"/><path class="st40" d="M790 539c53 69.8-64 71 8 194.5 6 14 11 32 11 48.5 0 32-49 47.5-61 16"/><path class="st40" d="M721 287c2 51 64 31 74 88 6 34-11.5 71 7 103 10 18 27 31.5 34 51 8 19-4 47-27 42"/><path class="st40" d="M407 290.6c-16-8-12-29.9-2-41 17-15 40.5-10 61-6 29.8 1 49-29 75-38 50-17 81 55 133 44 23-5 48-11 69 1 25 14 33 55 10 75"/><path class="st40" d="M428 278c-16 26.5-51 17.5-76 28.5-20 10.5-28 33-23 55 10 47-43 51-39 88m25 4.5c1.5-23 35-26 41-5 7 25-13 47 16 72"/><path class="st40" d="M334 476c-20-34-61-31.5-89-9.6-20 8-43-3-64 4-22 7-28 37-5 43.5 6.5 2 23-2 26-1 15 4 11 25-5 30-21 6-10 29 6 29"/><path class="st40" d="M216 554.5c-15 15-14 41 2 55 37 22 41 31 36 69.7-2 31 46 41 53.5 10 2-10.8-4-22 0-33 13-32 44 20 62-44.5"/><path class="st40" d="M327 647.9c25 29.7-.5 47-7 75-10 32.5 34 65 53 25"/><path d="M729 262.5c9 4 16 13 18 22.5m-193-68c12.5 2 24.5 8 34 16m9 9 3 3m-163 10c-5.5-.9-12 .6-15.5 4M362 319.6c-9 2-14 10.7-16 19M339 449c4 1 6 6 6 9.8M308.5 470c-12-6-16-5-22-4M175 492c1-4 5-7 9-7.5m38 89.5c-4 8 0 16 4 19.9m44 78.6c-1 6 1 15 9 18m76-77.5c-3 14-13 14.5-16 16m4.5 119.5c-5-3-9-9-8-15M397 782c-1 14.5 7 28 14 30m90 53.9c-3 12 2 27 14.5 25M636 957c14-3 17-28 11-38m96-60.1c1-7 0-14-4-19m46-49.1c8-6.5 9-25 3-39M786 582c5-8 3-19-3-26m37-12c2-8.5-.6-18-7-24m-56-169c18 6 22 30 21 35" style="opacity:.7882;fill:none;stroke:#fff;stroke-width:10;stroke-linecap:round;stroke-linejoin:round;stroke-miterlimit:10;enable-background:new"/></g><style>.st40,.st68{fill:none;stroke:#000;stroke-width:10;stroke-linecap:round;stroke-linejoin:round;stroke-miterlimit:10}.st68{opacity:.6;enable-background:new}</style><g id="Mouth_Cover"><path d="M598 706c-47-14.5-175 15-82.5 66.5 25 14 169.5 24 164-14.5-13-18-39-32-61-24.7 1.2-2.8-12.5-24.3-20.5-27.3z" style="fill:#fe1767"/><path d="M614 729c-39.7-16-93-13-131 7 14-38 77-35 110-31.5l21 24.5zm47 14c-13-3-27 2-35 12 0-8-7-15-7-23 13-2 28 1 42 11z" style="fill:#ae0f45"/><path d="M600 704c7 8 14 18 19.6 27 25-2 52 9 64 32 32-15 24-49-24-56.4l-59.6-2.8v.2z"/><path class="st40" d="M506.5 772c42 17 129 25 183-9 35-22 8-49-23-54-43-7-156-9.6-179 13.1-16 16-1.5 41 19 49.6v.3z"/><path class="st40" d="M593 704c15 12 26 29.5 30 48.5m-4-19.5c24-4.5 50.5 8.5 62 30.7"/><path class="st68" d="M441 681.5c0 31-13.5 60-23 93 94 41 212 45 307 3"/><path class="st68" d="M486 717c-18.5 9.5-11 36 2 47 44 38 170 39 208.5-7"/><linearGradient id="SVGID_00000010300643410979321390000010567667997916476851_" gradientUnits="userSpaceOnUse" x1="567.366" y1="429.07" x2="603.366" y2="242.07" gradientTransform="matrix(1 0 0 -1 0 1100)"><stop offset="0" style="stop-color:#08ffce"/><stop offset=".106" style="stop-color:#1aedd1"/><stop offset=".321" style="stop-color:#4abdd9"/><stop offset=".624" style="stop-color:#9770e6"/><stop offset="1" style="stop-color:#ff08f7"/></linearGradient><path style="opacity:.6588;fill:url(#SVGID_00000010300643410979321390000010567667997916476851_);enable-background:new" d="M727 773.8c-94 42-211 37-304-3 13-29.6 21-59.7 23-90 94 25 191 5 283-19 6 39.2 12 55.2-2 112z"/><path d="m510 692.9 36 53.2 23-12.5 54 65.9 39-5.6-88-87.7-16 15.5-14.5-26.6M595 692c28 32 55 64 81 97.3l31-9.1-87-94" style="opacity:.5216;fill:#fff;enable-background:new"/><path class="st40" d="M727 774c-94 42-211 37-304-3 13-29.6 21-59.7 23-90 94 25 191 5 283-19.3 6 39.3 12 55.3-2 112.1v.2z"/><path d="M714 683c3 16 4 32 2 48m1 15-.5 6" style="opacity:.6118;fill:none;stroke:#fff;stroke-width:10;stroke-linecap:round;stroke-linejoin:round;stroke-miterlimit:10;enable-background:new"/></g><defs><linearGradient id="a" x1="591.66" y1="391.79" x2="591.66" y2="679.79" gradientUnits="userSpaceOnUse"><stop offset="0" stop-color="#f08"/><stop offset=".22" stop-color="#fe336d"/><stop offset=".71" stop-color="#fcb329"/><stop offset="1" stop-color="#fbff00"/></linearGradient></defs><path d="M455.5 582.7c11.6 22.3 28.8 20.1 46 32.9 5.2 3.8 6.7 18-14.9 11.2 46.7 61.8 107.7-17.3 107.9-69.7-4.3 3.3-13.9 8.3-17.4-.9-8.3-21.6 29.3-54.6 39.3-17.2 2.5 9.4-6.1 17.4-2.7 26.7 2.6 7.2 9.4 29-8.2 23.8-.3 19 20.4 44.4 37.4 48.2 51.5 11.8 90.4-56.5 98-75.1-16.7 6.6-32.4 2.7-2.3-23.5a74.7 74.7 0 0 0 22-33.2c-37.3 12.3 22.9-54.3 14.3-83.8-53.1 68.9-60.7 20.1-52.2 7-11.9 3.5-18.7 13.9-25.2 23.6-10 15-23.2 11.3-25.6-8-1.8-14.6-15.4-17.4-26-21.1 16.1 42.5-13.7 39.4-17.6 12.2-11.9 6.2-16.6 20-19.6 32-4.3 17.8-29.9 44.2-41.9 23-10-17.6 24.4-33.4-6.8-55.7-4.9 23.2-20.3 21.9-37.1 33.8-20.9 14.8-22.7-20.3-10.3-32.5-21.9 3.9-29.4 29.1-47.3 28.6s-14.4-22.6-6.2-32.8c-17.3 7.9-33.3 29.1-34.2 48.1-.5 9.6 13.1 25.5 1.9 30.4-6.5 3-12.7-5.7-19.2-.1 12.8 10.7 10.6 19.5 34.5 32.5 54.2 29.6 20.3 39.7 13.4 39.6Z" style="fill:url(#a)"/><path d="M456.3 463.6c10.3 24.3 16.9 61.6 25.7 86.4l13.9-22.9 48.5 116.8 22.2-17.8-65.7-133.4-9.6 20.2-13.9-51.6m31.4 12.5c18.1 49.4 36.4 99.1 62.8 144.6l6.9-13.8-61.1-131m97.9-21q17.9 55.6 39.5 109.9l7.1-30.9 25.7 95.8 25.9-22.3-49.4-105.5-11 18.6s-11-62.2-11.3-61.6c-8.1-1.7-12-11.8-15.3-18-5 3.2-8 8.7-11.2 14Zm37.6-6.5c20.9 39.8 39.3 81.4 67.8 116.8l9.3-16.4s-51.9-84.7-51-84c-13.6-11.7-3.6-35-30.3-34.6a28.6 28.6 0 0 1 4.2 18.2Z" style="fill:#fff;opacity:.36"/><path d="M559 434.6c-5.6 19.9-31.3 20.6-42.8 35.4m108.4-34c-22.5 14.4-17.7 42.9-39.5 60.4m57.5-72.2a54.6 54.6 0 0 1 3.2 28m73.1-25.5c-15.3 6.3-21.8 23.6-34 33.7m86.8-40.2c-10.1 15.1-24.3 28.5-40.8 36.4M508 433c-18.1 3.8-25.5 24.1-41.7 31.2m-12.5-33.9c-18.1 11.8-36.6 32-32.8 54.6 1.2 7.2 5.6 13.6 6 21m-20.7 8.3c6 5.6 9.8 13.1 15.2 19.2 13.6 15.4 36.8 21 47.4 39.2m-15.4 11.8c8.8 22 35.8 22.5 47.4 37.8m-15.6 8.2c10.2 14.5 29.4 26.6 46.9 18.4m68.1-124c12.6 11.3 11.9 14.8 8.5 32.4-1.8 9.4 6.8 19.5 4 29.1m-9.6 4.5c3.2 30.4 34.3 62.2 65.7 46.5m-76.4-81.4a18.1 18.1 0 0 1-10.7 3.6m157.4 1.2a40.5 40.5 0 0 1-13.9.9m33.7-57a20.5 20.5 0 0 1-7 .3" style="stroke:#000;opacity:.6;fill:none;stroke-linecap:round;stroke-linejoin:round;stroke-width:10px;stroke-dasharray:0 0 0 0 0 0"/><path d="M702.3 596a70.8 70.8 0 0 1-25.5 22.5m-11.7 5.3-4.1 1.1m80.4-107.3c-3.4 4.2-7.1 8.3-12 10.7m-104.2-70.5a32 32 0 0 0-4.3 13.4m-46.1 116.5a85.3 85.3 0 0 1-17 25.3m-10.6 10.6-3 2.4m15.5-165.8a29 29 0 0 1-3.8 8.4M442.6 465a22.9 22.9 0 0 0-4.1 13.6m3.9 14.5.4 3.5m-7.4 26.9a38.9 38.9 0 0 0 11.8 7.3m30.9 59.1a27.2 27.2 0 0 0 11.1 5.3m261-131.4a50.4 50.4 0 0 1-6.4 13.2" style="fill:none;stroke-linecap:round;stroke-linejoin:round;stroke-width:10px;stroke-dasharray:0 0 0 0 0 0;stroke:#fff"/><path d="M455.5 582.7c11.6 22.3 28.8 20.1 46 32.9 5.2 3.8 6.7 18-14.9 11.2 46.7 61.8 107.7-17.3 107.9-69.7-4.3 3.3-13.9 8.3-17.4-.9-8.3-21.6 29.3-54.6 39.3-17.2 2.5 9.4-6.1 17.4-2.7 26.7 2.6 7.2 9.4 29-8.2 23.8-.3 19 20.4 44.4 37.4 48.2 51.5 11.8 90.4-56.5 98-75.1-16.7 6.6-32.4 2.7-2.3-23.5a74.7 74.7 0 0 0 22-33.2c-37.3 12.3 22.9-54.3 14.3-83.8-53.1 68.9-60.7 20.1-52.2 7-11.9 3.5-18.7 13.9-25.2 23.6-10 15-23.2 11.3-25.6-8-1.8-14.6-15.4-17.4-26-21.1 16.1 42.5-13.7 39.4-17.6 12.2-11.9 6.2-16.6 20-19.6 32-4.3 17.8-29.9 44.2-41.9 23-10-17.6 24.4-33.4-6.8-55.7-4.9 23.2-20.3 21.9-37.1 33.8-20.9 14.8-22.7-20.3-10.3-32.5-21.9 3.9-29.4 29.1-47.3 28.6s-14.4-22.6-6.2-32.8c-17.3 7.9-33.3 29.1-34.2 48.1-.5 9.6 13.1 25.5 1.9 30.4-6.5 3-12.7-5.7-19.2-.1 12.8 10.7 10.6 19.5 34.5 32.5 54.2 29.6 20.3 39.7 13.4 39.6Z" style="stroke:#000;fill:none;stroke-linecap:round;stroke-linejoin:round;stroke-width:10px;stroke-dasharray:0 0 0 0 0 0"/><defs><style>.zbh-2{fill:none;stroke-linecap:round;stroke-linejoin:round;stroke-width:10px;stroke:#000}</style></defs><path d="M357.3 453.9c38.6 2 75-22.4 99.5-51.8 36 15 77.1 7.7 106.9-18.6 35.3 9.6 78.1 10 106.7-15.6 25.8 8.2 55.4 3.6 78.2-11.2 13.7 7.9 29.3 12.5 44.9 14.4 5 9.7 2.2 21.7 5.1 32 50.5-20.7 54.9-96.4 15.3-130.4-7.4-53-59.9-90.3-113.1-79-39.7-40.8-96.6-35.9-143.6-10-45.6-24.8-82-17.6-121.6 13.4-60.9-16.5-119.9 24.2-131.3 85.2-41.6 3.5-71.1 47.4-52 86.8-20.1 26.5-28.6 64.7-11.7 94.9 21.9-13 47.9-18.8 72.3-10.7 6.9-22.4 39.3-25 44.4.6Z" style="fill:#ff5e00"/><path class="zbh-2" d="M466.3 372.6c-3.4 44.7-65.7 83.2-107.4 81.6"/><path class="zbh-2" d="M560.5 384.4c-22.9 29.9-69.5 29.2-103.3 19m221.1-46c-31 42.4-94.7 40.2-135.4 13.1m127.1-1.6c33.4 10.4 71.9-.9 94.4-27.6"/><path class="zbh-2" d="M748.3 356.8a85.4 85.4 0 0 0 60.1 10.5"/><path class="zbh-2" d="M790.5 266.1c66.3 11.6 64.4 116.9 4.8 138.1a71.2 71.2 0 0 0-1.3-33.4"/><path class="zbh-2" d="M814.8 273.6c-3.9-60.2-83-106.3-133.9-67.8"/><path class="zbh-2" d="M701.8 194.1c-38.8-43.6-112.8-43.2-151.2.7"/><path class="zbh-2" d="M560.5 185.1c-49.9-31.6-113.8-14.7-133 31.8"/><path class="zbh-2" d="M436.8 197.2c-64.9-20.9-136.3 34.6-132.1 102.7"/><path class="zbh-2" d="M305.3 282.9c-44.3-2.7-69.9 49.5-53.2 87.4"/><path class="zbh-2" d="M274.8 360.1c-44 10.4-55 70-34.1 107.1 23.1-14.5 45.6-24.2 74.4-12.4.4-24.3 39.2-28.5 42.2-.6"/><path d="M797.1 281.9a35.6 35.6 0 0 1 20.7 20.6m3.9 11.6a16.8 16.8 0 0 1 .9 3.2M754.7 211a55.5 55.5 0 0 0-32.2-6.7m-12 2.5-3.4.9M627 175.3a90.3 90.3 0 0 0-34.4 6.9m-10.7 6-3.2 1.8m-86.6-6.8a52.9 52.9 0 0 0-28.4 11.8m-10.9 9.7-4.6 4m-87.1 12.8a85.4 85.4 0 0 0-23.8 22.2m-6.6 10.5-1.6 2m-64.3 67.4a50.4 50.4 0 0 0-5 19.8m-9.6 56.7a61.4 61.4 0 0 0-5 27.7m199.7-37.7a89.2 89.2 0 0 1-30.5 28.7m-11.9 6.2-4.9 1.9M538.3 388a56.5 56.5 0 0 1-22.7 6.5m-11.9.5-2.4-.1m157.3-36a81.4 81.4 0 0 1-47.3 15.3m-14.4-1.3-2.6-.2m125.2-16.1a77.1 77.1 0 0 0 23-12.2m-39.2 15.4 3.2-.3m74.4-4.5a39.9 39.9 0 0 0 14.6 1.2" style="stroke:#fff;fill:none;stroke-linecap:round;stroke-linejoin:round;stroke-width:10px"/><path d="M360.3 462.6c37.6-2.2 73.7-20.9 98-49.9 37.5 8.6 78.6 5.9 108.2-22.4 34.9 13.6 76 7.5 106.4-15.1 25.1 7.9 53.7 3.4 76.1-11.6a72.5 72.5 0 0 0 41.9 12.1" style="opacity:.6;stroke:#000;fill:none;stroke-linecap:round;stroke-linejoin:round;stroke-width:10px"/><path d="M812.6 368.9a69.1 69.1 0 0 1-14.2 31.4c.3-10.1.6-20.3-2.6-29.8m-9.2-106.3c6.4-11.8 9.6-26.3 4.6-39.1 7 1.3 21.6 27.2 21.9 47.7m-136.5-68a47.1 47.1 0 0 0-9.2-33.9c13 3.6 26.1 12 33.5 23.2m-153.7 2.4A43.3 43.3 0 0 0 525 173c11.6 2.9 23.8 6.1 32.7 14.1m-133.8 31.8c-5.5-13.7-20-21.2-33.9-23.8 14.4-2 34.6-2.2 45.7 4.5m-133 103.3c-13.1-5.1-31.4-3.5-42.7 4.8 11.3-12.8 26.9-24 44.6-23.5m166.5 87.1a45.8 45.8 0 0 0 17.7 37c-9.7-4.3-20.6-2.4-30.6-4.9m224.7-46.9c.5 5.6 2.9 11.6 8.2 14.3a116.8 116.8 0 0 1-16.7-4.3m94.9-24.6c-1.5 8 1 18.5 7.2 23.8-8-4.5-18.5-2.5-25.5-8.9" style="opacity:.6"/><circle cx="550" cy="550" r="500" style="fill:none;stroke:#000;stroke-width:10;stroke-linecap:round;stroke-linejoin:round;stroke-miterlimit:10"/></svg>