<svg version="1.1" id="Layer_1" xmlns="http://www.w3.org/2000/svg" x="0" y="0" viewBox="0 0 1100 1100" style="enable-background:new 0 0 1100 1100" xml:space="preserve" xmlns:xlink="http://www.w3.org/1999/xlink"><style type="text/css">.st300{fill:#00DE72;stroke:#000000;stroke-width:10;stroke-linecap:round;stroke-linejoin:round;stroke-miterlimit:10;}</style><circle class="st300" cx="550" cy="553.7" r="500"/><path d="M532 209c-68 59.6-71 20-121 36.5-19.6 10.9-14 30-9.7 39.6 11 23-51 9-69 40.3-10.1 18 0 42-7.5 62-9 19.6-34 35-37 52-43 48-154 7-119 70 6 11 33-6 39 9.1 7 17.5-39 29-21 47 18 5 21 39.9 57 63 14 20 3 51 19 69 36 38 46-25 41-34.3 4-39 44-11 22 39-23 52 11 74 36.5 57 24-9 13 39 23 50.9 19.5 37 55 12 67 12 18 1 28 22 29.8 40 6 63 54 46 59 8 15.5-34 45 49 47 59.9 12 73 69.5 42 71 17.9 3-54-3-59.9 2-68 19-31 71 13 90.8-15.5 14-19.8-31-63 8-55 94 19.9 19-101 14-120.4-9-35.5 14-105.8 47-122 18-9 17-35.5 7-53-9.6-17-25-30.6-31-48.9-13.5-54 21-100.7-36-133.3-5-3-7-9.5-4-14 17-25.8 1-66-32-71-22-3-44 9-66.5 6C615 247 578.5 178 532 209z" style="fill:#1eb377"/><style>.st40{fill:none;stroke:#000;stroke-width:10;stroke-linecap:round;stroke-linejoin:round;stroke-miterlimit:10}.st98{opacity:.6;enable-background:new}</style><g id="Outline"><path class="st98" d="M793 537c-1 .7-1 2-.5 3 5 10 11 35 25 30 8-2 21-13 18-22.4-.5-1-2-2-3-1.5-26 12-28-11-39-9.4v.3zm-34 274.5c6 5 26 8 25-3-6-7-20.6-12-21.5-26C750 772 744 803 759 811.5zm-219.3 52s1 .5 1 .8c9 13.5-3 36-18 40-34 6-9-6-6-44 .3-5.3 22.3 2.7 23 3.2zM342 731c5 7-4 22-4 33 8 13 29.6-5 33-14.9 2-12-17-21-28-20.2-1 .1-1 1.1-1 2.1zm31-120.2c2 23-8 47-26 61.9-13 10.9-17.5-30.6-8-27.9 6 4.2 28-18.8 34-34zm-157-59.9c-8 6-17 3-25 1-11 5 4 20 13.5 16 5-4 12-9 12-15.7-.5-.2-1.5-.2-.5-1.3zM337 473c-6-10-3-23 0-34 0-1 0-2-.6-2-9-9-23 11-19.8 20.7C318 463 338 475 337 472.8v.2z"/><path class="st98" d="M326 392c-2 29 24 45 7 44-7 2-14 1-15 11-1 11-24 0-24.5-1.3C285 433 317 404.5 326 392zm103-118c-9.9-4-16-16-18-25-4-6-9.9 1-11 6-7 54 29.5 28 29 19zm293 9c16 21 29.5 12 40 20.7 3 4 1 9.6-1 14-3 9-13 9-20 4.1-14.5-5.8-22-22.2-19-38.8z"/><path class="st40" d="M347 729c53.5 5 15 86 59 102 25 9 37-19.8 55-11.9 23 10.1 19.6 40 24 60.7 9.6 46 63 29.6 58-12.8"/><path class="st40" d="M519 861c89-9 47.5 119 114.5 115 39-6 35-47 25-76.5-3-9 0-18.5 7-24.5 24.5-21 59 15.5 84-2.5 15-11 8-33-2-45-12-15 0-32 10-43"/><path class="st40" d="M790 539c53 69.8-64 71 8 194.5 6 14 11 32 11 48.5 0 32-49 47.5-61 16"/><path class="st40" d="M721 287c2 51 64 31 74 88 6 34-11.5 71 7 103 10 18 27 31.5 34 51 8 19-4 47-27 42"/><path class="st40" d="M407 290.6c-16-8-12-29.9-2-41 17-15 40.5-10 61-6 29.8 1 49-29 75-38 50-17 81 55 133 44 23-5 48-11 69 1 25 14 33 55 10 75"/><path class="st40" d="M428 278c-16 26.5-51 17.5-76 28.5-20 10.5-28 33-23 55 10 47-43 51-39 88m25 4.5c1.5-23 35-26 41-5 7 25-13 47 16 72"/><path class="st40" d="M334 476c-20-34-61-31.5-89-9.6-20 8-43-3-64 4-22 7-28 37-5 43.5 6.5 2 23-2 26-1 15 4 11 25-5 30-21 6-10 29 6 29"/><path class="st40" d="M216 554.5c-15 15-14 41 2 55 37 22 41 31 36 69.7-2 31 46 41 53.5 10 2-10.8-4-22 0-33 13-32 44 20 62-44.5"/><path class="st40" d="M327 647.9c25 29.7-.5 47-7 75-10 32.5 34 65 53 25"/><path d="M729 262.5c9 4 16 13 18 22.5m-193-68c12.5 2 24.5 8 34 16m9 9 3 3m-163 10c-5.5-.9-12 .6-15.5 4M362 319.6c-9 2-14 10.7-16 19M339 449c4 1 6 6 6 9.8M308.5 470c-12-6-16-5-22-4M175 492c1-4 5-7 9-7.5m38 89.5c-4 8 0 16 4 19.9m44 78.6c-1 6 1 15 9 18m76-77.5c-3 14-13 14.5-16 16m4.5 119.5c-5-3-9-9-8-15M397 782c-1 14.5 7 28 14 30m90 53.9c-3 12 2 27 14.5 25M636 957c14-3 17-28 11-38m96-60.1c1-7 0-14-4-19m46-49.1c8-6.5 9-25 3-39M786 582c5-8 3-19-3-26m37-12c2-8.5-.6-18-7-24m-56-169c18 6 22 30 21 35" style="opacity:.7882;fill:none;stroke:#fff;stroke-width:10;stroke-linecap:round;stroke-linejoin:round;stroke-miterlimit:10;enable-background:new"/></g><defs><style>.axg-2{fill:none;stroke-linecap:round;stroke-linejoin:round;stroke-width:10px;stroke:#000}</style></defs><path d="M243.3 626.7c44.2-16.7-13.7-73.4 35.6-67.3 21.7 19.1-.3 76.2 37.7 66.4 49.7-12.9 2.3-62.1-2.5-73.1.2-30.9 41.4 1.5 50.2-38.3-18.2-24 5.5-57.2-11.5-72.8-23.1-21.4-36.9 8.5-40.9 12.3-49.6-11.5-64.2 25.4-117.3 13.2-18.8 1.7-44.6 25-24.6 41.9 11.7 10 34.4-3.6 41 13 5.6 20.2-54 25.9-6 50.9-4.7 29.1 19.3 38.5 38.3 53.8Z" style="fill:#ff00d9"/><path class="axg-2" d="M314.8 454c1.5-23.1 35.3-26.3 41.4-5 7.1 24.8-12.6 46.8 16.2 72.4"/><path class="axg-2" d="M333.7 475.6c-20.3-33.6-61.2-31.5-89.3-9.6-20 8.1-43.3-2.6-63.8 4.1s-28 37.5-4.7 43.5c6.5 1.7 23.1-2 26.4-1.1 15.3 4 11.4 25.2-5.4 30.1-21.2 6.2-10.2 28.6 6.3 29"/><path class="axg-2" d="M215.8 554.5c-14.8 14.8-13.6 41.2 2.4 54.6 36.7 21.9 40.7 30.9 35.7 69.7-2 31.4 45.8 41 53.5 10 1.8-10.8-4.5-22.1.2-32.7 12.4-32.5 44.2 20.2 62.3-44.5"/><path class="axg-2" d="M243.3 626.7c37.7-15 11.5-42.6 12.4-55.1s13.2-19 23.2-12.2c21.7 19.1-1.6 66.4 37.7 66.4 19.4 0 27.9-27.7 18.2-43.9-6.2-10.4-19.9-17.2-20.7-29.2-.9-15.6 12.2-15.8 24-15.8 17.1 0 22.7-11.2 26.4-22.4"/><path d="M252.3 630.1c37.2-23.8-3.2-55.3 13.1-65.7 19.7-12.7 16.5 44.9 26.1 55.7 14.5 16.1 42.1 14.9 49.3-5.5 15-42.4-25.4-45.4-20.3-64.1 4.2-15.7 34.1 2.2 47.4-30.2m-34.2-44.7c-5.3-11.3-15.2-21.9-8-36.1m-109.9 115c-6.5 6.5-14.4 12.3-26.3 7.7" style="opacity:.6;stroke:#000;fill:none;stroke-linecap:round;stroke-linejoin:round;stroke-width:10px"/><path d="M338.8 448.3a14 14 0 0 1 5.2 10.6m-61 4.8a28.5 28.5 0 0 1 22.2 6.9m-128.7 18.6a16.8 16.8 0 0 1 13-6.3m11.2-1.3 2.1.3M350 516.8c-2.5 4.5-5.9 7.7-12.8 6.9m-14.8 66.2c2.4 4.6 2 10.8-.1 15.9m-98.6-12.5a24.4 24.4 0 0 1-2.5-20.2" style="stroke:#fff;fill:none;stroke-linecap:round;stroke-linejoin:round;stroke-width:10px"/><style>.st114,.st40{fill:none;stroke:#000;stroke-width:10;stroke-linecap:round;stroke-linejoin:round;stroke-miterlimit:10}.st114{opacity:.6}</style><g id="Gold_Grin"><linearGradient id="SVGID_00000081606631022545257470000014627497906921380512_" gradientUnits="userSpaceOnUse" x1="585.954" y1="672.231" x2="590.726" y2="803.954" gradientTransform="matrix(.9983 .05903 -.05903 .9983 45.793 -31.52)"><stop offset="0" style="stop-color:#ff7300"/><stop offset="1" style="stop-color:#fff700"/></linearGradient><path style="fill:url(#SVGID_00000081606631022545257470000014627497906921380512_)" d="M445 721.7c74 72 209 68.5 294 17.6 11-22 14-48 10-71.6-93 58-225 64-318 1.4 4 16.9 0 38.9 14 52.6z"/><linearGradient id="SVGID_00000100364754194457657420000004888850632049891250_" gradientUnits="userSpaceOnUse" x1="593.726" y1="750.857" x2="598.675" y2="857.774" gradientTransform="matrix(.9983 .05903 -.05903 .9983 45.793 -31.52)"><stop offset="0" style="stop-color:#ff7300"/><stop offset="1" style="stop-color:#fff700"/></linearGradient><path style="fill:url(#SVGID_00000100364754194457657420000004888850632049891250_)" d="M449.8 731c48 130 244 141 289 12.4C642 785 543 789.8 449.8 731z"/><path class="st40" d="M751 664.8c-87 59.8-236 69.9-322-1.1 27 236.3 338 220.8 322 1.1z"/><path class="st40" d="M444 722c84 74 209.8 64.5 295 19"/><path class="st114" d="M424 664.3C421 793 594 909 705 797"/><path class="st114" d="M433 673.1c85 69 224 55 314 4m-294 58.5c75 63.5 197 55 282 15"/><path d="M736 694.4c-1 9-3 18-5.8 26m-23.2 55c-12 16-29 28-49 35m-10.5 3.9c-3 .6-5 1-8 2" style="opacity:.7804;stroke:#fff;fill:none;stroke-width:10;stroke-linecap:round;stroke-linejoin:round;stroke-miterlimit:10"/></g><defs><linearGradient id="zg" x1="443.85" y1="517.27" x2="576.5" y2="517.27" gradientTransform="rotate(5.8 508.026 515.547)" gradientUnits="userSpaceOnUse"><stop offset="0" stop-color="#5e00ff"/><stop offset=".5" stop-color="#de00da"/><stop offset="1" stop-color="#ff0037"/></linearGradient><style>.zg-3,.zg-7{fill:none;stroke:#000;stroke-linecap:round;stroke-linejoin:round;stroke-width:10px}.zg-7{opacity:.6}</style></defs><path d="M627.7 431.5c-57.1-93.9-124-96.5-170.5-146.5-16.5-17.7-29.3-57.1-58.1-52.6-25.5 4-28.2 50.1-14.6 66.8a137.6 137.6 0 0 0 24.8-5.2c62.6 47.9 143.8 77.6 187.4 146.5 1.3 2.3 3.6 4.1 6 2.5 8.1-3.9 16.2-7.8 25-11.5Z" style="fill:#7a7a7a"/><path d="M712.3 538.2c24.4 43.8 95.9 26.2 110.2 79.4 7.3 27.3-29.5 40.3-43.6 22.6.5-6.7 4.4-12.9 7.6-19.6-31.3-20.2-78.6-18.2-89.4-61.5 6.1-4.9 11.1-11.1 15.2-20.9Z" style="fill:gray"/><path class="zg-3" d="M706.7 533.3c25.7 45.3 101.8 35.1 116.2 82 8.7 28.2-31.3 43-46.2 24.7a158.5 158.5 0 0 1 7-18.4"/><path class="zg-3" d="M711.2 572.3c15.3 38.5 58.2 30.1 82.6 52.1M627.7 431.5c-57.1-93.9-124-96.5-170.5-146.5-16.5-17.7-29.3-57.1-58.1-52.6-25.5 4-28.2 50.1-14.6 66.8 7.9-1 15.9-2.4 23.3-5.1"/><ellipse cx="510.2" cy="517.3" rx="65.7" ry="111.5" transform="rotate(-5.8 508.238 515.572)" style="fill:url(#zg);stroke-linecap:round;stroke-linejoin:round;stroke-width:10px;stroke:#000"/><path d="M508.6 437.9c-31.6 11.8 1.7 57 6.7 78.9s-21.8 45.6-3.3 63.3c54.3 34.3 44.1-159.9-3.4-142.2Z" style="fill:#fff;stroke-linecap:round;stroke-linejoin:round;stroke-width:10px;stroke:#000"/><path d="M500.5 450.5c-2.2 25.8 29.6 46.5 36.6 17.9 3.3 13.1 7.5 28.2 8.7 41.5 1.8 19.4-26 18.3-27.6 12.4-3.3-24.5-28.7-45.9-17.7-71.8Z"/><path class="zg-3" d="M399.7 281.5C414.2 311 553.8 367.7 598.4 444"/><path d="M751.5 434.7c-57-35-163-14-154.3 28.3 10.3 49.8 45.9 114.1 93.3 127.3 52.6 14.6 66.8-63.4 70.5-106.6 1.3-15.5 6.2-39.3-9.5-49Z" style="fill:#8c8c8c"/><path class="zg-3" d="M751.5 434.7c-57-35-163-14-154.3 28.3 10.3 49.8 45.9 114.1 93.3 127.3 52.6 14.6 66.8-63.4 70.5-106.6 1.3-15.5 6.2-39.3-9.5-49Z"/><path class="zg-3" d="M651.5 459.4q36.2 39.3 70.1 80.9"/><path class="zg-3" d="M666 540.3c16.4-28.1 32.9-59.4 46.8-85.7"/><path class="zg-7" d="M405.5 298.9c61.2 49.2 144.9 76.6 186.3 147.2-6.2 52.2 56.2 159 114.6 151 18.6-2.5 32.8 10.9 49.4 15.9 8.1 2.5 16.8 3.9 23.5 9m13.5 2.4c-6.3 3.4-9.7 10.1-10.9 17.3M399.7 281.5c0 5.6-2.9 10.2-6.7 14.4"/><path class="zg-7" d="M729.8 589.6a89.5 89.5 0 0 0 16.8-20.3M598.5 436.8c6.5-4.7 12.6-10.1 20.1-13.3m29.8 38.7q34.5 39.8 68.9 79.6"/><path class="zg-7" d="M708.2 454.6C693 483 678 509.1 662.7 537.7M487.4 409.3c-84.4 31.3-46.8 255.8 42.5 217.1"/><path class="zg-7" d="M495.4 441.8C478.6 467.7 506 494.4 510 520c2.4 15.5-10.1 28.7-8.7 44.4-.3 12.9 12.9 27.6 25.7 19.5"/><path d="M741 445.7c6.6 8.7 6 19.6 5 29.5m-133.4-21.1c-3.4 9.5 2.4 21.6 5.6 29.2m-130.6-58.2a52.3 52.3 0 0 0-19.2 28m-3.9 11.7-.7 3.4M476 572.6a63.9 63.9 0 0 0 20.7 28.7m247.6-111.4-.1 3.5m-11.5 57.5a47.4 47.4 0 0 1-19.6 23.9m90.5 32.6a19.3 19.3 0 0 1 7.6 15.7M402.8 246.5c7.7-.6 14 5.3 17.5 11.7m6.6 9.9 1.3 1.4" style="stroke:#fff;stroke-linecap:round;stroke-linejoin:round;stroke-width:10px;fill:none"/><circle cx="550" cy="550" r="500" style="fill:none;stroke:#000;stroke-width:10;stroke-linecap:round;stroke-linejoin:round;stroke-miterlimit:10"/></svg>