<svg version="1.1" id="Layer_1" xmlns="http://www.w3.org/2000/svg" x="0" y="0" viewBox="0 0 1100 1100" style="enable-background:new 0 0 1100 1100" xml:space="preserve" xmlns:xlink="http://www.w3.org/1999/xlink"><defs><linearGradient id="cat" x1="577.66" y1="993.91" x2="566.51" y2="732.97" gradientUnits="userSpaceOnUse"><stop offset="0" stop-color="#e94153"/><stop offset=".15" stop-color="#e84158"/><stop offset=".31" stop-color="#e74165"/><stop offset=".49" stop-color="#e4417c"/><stop offset=".67" stop-color="#e0419c"/><stop offset=".86" stop-color="#db41c5"/><stop offset="1" stop-color="#d741e8"/></linearGradient><linearGradient id="cat-2" x1="263.62" y1="537.42" x2="287.83" y2="537.42" gradientUnits="userSpaceOnUse"><stop offset="0" stop-color="#f0a202"/><stop offset="1" stop-color="#f002c8"/></linearGradient><linearGradient id="cat-3" x1="154.61" y1="359.28" x2="233.04" y2="359.28" gradientUnits="userSpaceOnUse"><stop offset="0" stop-color="#f0a202"/><stop offset="1" stop-color="#f00291"/></linearGradient><linearGradient id="cat-4" x1="663.19" y1="596.06" x2="565.14" y2="540.46" gradientUnits="userSpaceOnUse"><stop offset="0" stop-color="#e94052"/><stop offset=".13" stop-color="#e94651"/><stop offset=".3" stop-color="#e9584f"/><stop offset=".51" stop-color="#e9754b"/><stop offset=".74" stop-color="#e89e46"/><stop offset=".98" stop-color="#e8d240"/><stop offset="1" stop-color="#e8d73f"/></linearGradient><linearGradient id="cat-5" x1="571.13" y1="954.96" x2="664.73" y2="954.96" gradientUnits="userSpaceOnUse"><stop offset="0" stop-color="#fcc900"/><stop offset="1" stop-color="#fc3f00"/></linearGradient><linearGradient id="cat-6" x1="613.29" y1="401.03" x2="546.98" y2="232.65" gradientUnits="userSpaceOnUse"><stop offset="0" stop-color="#f0a202"/><stop offset=".12" stop-color="#f09b06"/><stop offset=".3" stop-color="#f08810"/><stop offset=".5" stop-color="#f06921"/><stop offset=".73" stop-color="#f03e38"/><stop offset=".98" stop-color="#f00856"/><stop offset="1" stop-color="#f00259"/></linearGradient><style>.cat-12,.cat-13,.cat-8{fill:none}.cat-13,.cat-8{stroke:#000}.cat-12,.cat-13,.cat-8{stroke-linecap:round;stroke-linejoin:round;stroke-width:10px}.cat-12{stroke:#fcc900}.cat-13{opacity:.6}</style></defs><defs><clipPath id="clip"><circle cx="550" cy="550" r="500"/></clipPath></defs><g style="clip-path:url(#clip)"><path style="stroke:none;fill:none;clip-path:url(#clip)" d="M0 0h3000v3000H0z"/><filter id="opal"><feTurbulence baseFrequency=".01" seed="100"><animate attributeName="baseFrequency" values="0.02;0.01;0.02" dur="50s" repeatCount="indefinite"/></feTurbulence></filter><rect width="100%" height="100%" filter="url(#opal)"/></g><g/><g id="Layer_88" data-name="Layer 88"><path d="M294.7 675.8c-11.4 60.8 44.2 68.2 74.8 104.2 37.4 69.1 61.4 36.1 61.7 20.9 20 7.2 31.6 28.3 50.2 38.4 30.3 13.9 68 5.2 97.4 23.5 55.7 34.7 77.2 32.4 120.8-16.7 1.9 12.4 15.4 20.8 27.4 17.1 29.5-12.4 24.8-52.5 37-77.4 16.5-33.5 52.3-64.3 37.5-105 11.6 5.3 27.8 2.7 33.5-9.6 8.4-24.5-15.4-44.8-24.1-66-25.6-62.6 26.2-62.2-14.5-146.4 23.2 10.2 46.6-13.1 31.8-35.4-9-13.6-22.4-24.1-29.7-38.9-17.5-29.2 8.3-52-7-82.4-9.9-19.5-33.9-36.8-27.8-61.1 24.7 14.1 46.7-17.5 28.1-37.7-23.4-23-37.9-7.2-54.6-49.4-18.5-46.4-84-67-111.4-17.1-6.8 20.8-25.3 32.4-43.1 43-22.4 16-14.3 53 15.6 49.3a60.1 60.1 0 0 1-12.4 21.2c-25.9 2.7-52 5.5-76.8 12.8a192.7 192.7 0 0 1-13.6-23.2c21.7-5.8 24.4-35 1.4-41.9-51-6.6-49.5-42.4-84.6-65.3-18.5-9.3-40.6-13.8-59.1-1.3C279 182 340.1 272 270.7 329.3c-29.7-91.7-123-47-115.3 33.8 3.4 36.7 33.2 45.2 44.4 73.4 3.3 8.4 9.1 65.4 42.4 35.8 20.2 77.4-54 158.3 52.5 203.5Z" style="fill:#e6dacc"/><path d="M570.9 252.8c-11.4.4-22.7 2.5-33.2 7.3 31.7 24 26.2 81.6 51.2 80 19.8-4.2 12.3-28.7 1.9-39.2-8.6-15.9-22.4-27.7-19.9-48.1Z" style="fill:#ff00ae"/><path d="M538.7 258.9c12.2 9.4 18.2 34.7 30.2 36.3 19-.7-.1-24.5 1.6-35 3.4-12.5-23.2-5.6-31.8-1.3Z" style="fill:#fff"/><path d="M744.5 700.3c-25.2-22.9-70.6-37.5-99.1-13.1-12.4-17.3-29.1-31.4-48.1-39.4-34.3 18.9-74.4 27.1-114.6 24 6.5 161.8 226.1 189.2 261.8 28.5Z" style="fill:#ff0059"/><path d="M746.5 652.7a78.4 78.4 0 0 1-3.3 43.7c-28.2-20.6-67.1-30.8-98-9.9-12.7-16.5-30.5-28.3-47.4-40.9a104.2 104.2 0 0 0 32-25.4c33.1 24.4 74.2 31.4 116.7 32.5Z"/><path d="M787.2 752.4c-26.1 21.7-30.6 57.3-40.1 88.1-18.4 39.3-44.2 18-46.7 6.3-16.8 9.4-24.4 28.9-42.5 36.2-28 11.4-53-4.2-75.1-19.4-27.7-19.1-62.8-10.8-92.9-20.5-21.8-8.7-35.5-31-56.5-41.5-4.5 15.7-15.5 24.9-31.5 19.7-25.9-14.9-31.3-57.3-63.8-63.2-14 30 7.7 64.7 37.2 74.9 69.5 24.1 25.2-4.8 77.3 60 10.6 13.2 32.5 9.6 35.3-7.5 39.7 39.6 42.9 20.2 94.9 39 18.3-23.6 52.2-21.5 73.2-2.1 26-14.1 45.3 1.3 64.5-30 3.8-5.5 7.6-11.4 14.1-14.2 10.9 17.7 49.8 22.5 41.2-29.3 3.6-35.6 52-59.5 11.4-96.5Z" style="fill:url(#cat)"/><path d="M281.1 499.4c-13.8 9.5-12.5 24.8-9.3 39.1-2.1 14.2-19 28.8 2.9 36.9 18.1-21.4 14.7-61.9 6.4-76Z" style="fill:url(#cat-2)"/><path d="M163.1 313.4c19.4.6 14 33 61.5 50.1 15.9 20.8 7.1 36-8.1 41.5-20.8 3.2-24.5-32.5-51.1-15-15.2-22.9-12.8-51.2-2.3-76.6Z" style="fill:url(#cat-3)"/><path class="cat-8" d="M290.9 369.7c13.6 34-3.3 55.9-12.7 87.1-6.2 20.2 5.2 41.5 9.6 62.2 9.6 46.1-35.2 75.4-25 110.8 6.4 16.4 25.9 19.4 36.6 5.8"/><path class="cat-8" d="M297.8 620.7c13 37-24.9 73.2 13.4 113 17.7 18.4 45.1 26.1 59.1 49.1 8 13.2 14.6 28.5 28.3 37.2s37-.9 30.9-18.5m370.8-143.6c-3.2 7.6-2.6 16.4 0 24.1 15.4 45.8-15.9 65.6-35 100.4-10.2 18.6-9.8 41.1-18.5 60.2-12.8 28-39.1 29-46.6 4.7"/><path class="cat-8" d="M793.9 431.3c-7.1 28.6 12.6 46.2 19.6 71.2 5.2 18.8-4.8 38.2-7.8 57.5-5.7 35.6 13 56.4 27.4 85.2 12.1 24.4-3.5 48.4-33.7 33.8M320.2 527.1c24.4-.1 31.4 33.7 52.4 40.3s42.1 4.1 58.3 23.1M321.8 607c15.5-10.2 31.1 10.9 46.6 10.1 25.1-1.3 31.4-17.9 59.4-1.6m4.1 24c-49.1-7.5-31.2 51.9-87.4 40.3"/><path class="cat-8" d="M759 565.9c15-47.6 73.4-10.4 93.6-68.2m-74.8 84.5c24.1-21.6 40.6-2.6 59.4-15.1s34.1-28 56.9-15M789 604.7c27.3-21 57.4 25.5 89.2-5.9M766 217.7c-18.9 46.2 22.6 61.5 31 98.2 3.3 14.4-3.5 29.2-4.1 44-.9 24.2 18.1 39.9 32.1 56.8 20.4 24.5 1.5 55.7-29.2 41.9"/><path class="cat-8" d="M597.9 226.8c-18.8 7.8-34.3-14.3-28.1-32 7.1-20 29.8-23.1 43.6-35.6 7.9-7.1 10.6-18.2 16.3-27.1 30-46 91.2-24.3 107.4 22.5 14.7 42.4 32.3 24.5 55.8 49.5 19.4 20.7-3.6 53.4-28.5 36.3"/><path class="cat-8" d="M604.1 207.9a101.2 101.2 0 0 1-16.5 42.8m-101-27.7a117.8 117.8 0 0 0 22.9 39.1"/><path class="cat-8" d="M295.8 389.7c-9 10.6-25.7 8.5-34.5-2.2-19.5-23.7 8.2-54.1 20.9-69.3 53.7-64.7 3.1-128.8 67-184.3 24.5-21.3 64.4-9.2 82.7 14.5s24.6 40.1 58.1 46.4c40.7 7.6 24.1 46.2 4.7 44.1M418 796.7c26 2.7 37.5 23.9 56.5 38.2 26.8 20.1 67.2 8.6 97.1 25.6 28.1 15.9 60.6 39.5 92.1 19 18.7-12.3 29-36.3 50-44.1"/><path d="M364 156.1c-25.2 20.5-8.2 57.3-10.7 85-2.1 23.1-17.4 44.9-13.8 68.5 6.3 40.4 46.1 31.4 63.9 8.3s29.4-26.5 54.3-37c15.1-6.4 24.7-33.3-9.1-57.4-22.4-16-23.2-8.4-38.1-46.3-7.5-18.9-26.1-37.7-46.5-21.1Zm311.2-26.4c-27.5 4-24 45.4-36.2 67-7.7 13.8-26.3 35.5-3.9 45.1 17.5 7.5 38.7-6.8 56.4.5 13.2 5.4 25.1 26.5 40.7 18.3s14.1-32.7 4.3-45.6c-6-7.8-15.1-12.9-20.5-21.1-15.8-24.6-14.8-68.1-40.8-64.2Z" style="fill:#fbd6d7;stroke-linecap:round;stroke-linejoin:round;stroke-width:10px;stroke:#000"/><path class="cat-8" d="M534.1 258.6c33.1 19.7 25.8 62.2 40.8 77.4 7.8 7.9 21.5 5.7 26.2-4.3 10.1-21.6-40.1-50.9-29.6-78M453.6 438.3c51-4.3 94.4 34 116.9 76.8m168.7-109.5c-40.8 15.9-67.6 55.3-79.3 96.3"/><path d="M661.5 586.8c-31.3 41.1-48.1 36.9-89.7-4.3-37.6-37.4 144.6-67.8 89.7 4.3Z" style="fill:url(#cat-4);stroke-linecap:round;stroke-linejoin:round;stroke-width:10px;stroke:#000"/><path class="cat-8" d="M461.4 620.1c-29.2 90 145.9 45.7 167.7-1.6 20.1 24.6 167.8 69.3 136-14.5"/><path class="cat-8" d="M482.3 671.9c21.3 196.6 276.1 176.6 266.7-20.2"/><path class="cat-8" d="M597.1 649c36.8 14.7 61.8 53.3 60.2 92.9"/><path class="cat-8" d="M644.9 687.8c29-24.2 72.1-12.7 98.3 10.7m-277.9 50.2a108 108 0 0 0 54.3 61.7m-180.4-53.9c-16.2 26.8 2.5 60.6 29.3 72.4 14.9 6.5 31.4 9.4 45.7 17.2 21 11.4 24.3 37.1 41.4 51.7 11.3 9.6 33.5 2.9 29.1-13.6"/><path class="cat-8" d="M475.2 879.8c23.6 2.7 30.1 34.5 56.4 35.4 16.6.4 35.1-1.2 48.4 11m209.4-173.7c33.1 28 4.9 51.1-9.2 80.5-6 12.6.7 29.1-4.9 42.4-8.1 19.5-28.5 22.5-40 3.7"/><path class="cat-8" d="M745.8 872.7c-28.9 2.5-23.2 36-49.8 40.7-12.9 2.2-27.4-1-38.4 8"/><path d="M588.8 918.9c-12 10.2-18 27.7-17.7 43.2.8 33.3 41.5 54 70.4 35.2 54.6-35.4 3.1-125.7-52.7-78.4Z" style="fill:url(#cat-5);stroke-linecap:round;stroke-linejoin:round;stroke-width:10px;stroke:#000"/><path class="cat-8" d="M228.8 445.7c59.7 69-55.4 183.8 64.5 229.8"/><path class="cat-8" d="M270.3 330.9c-36.4-115.5-147.6-25.1-107.1 57.1 7.9 16.1 25.4 25.3 33.8 41.1 6.6 12.4 3 30.7 11.4 42s27 9 33-3.5"/><path class="cat-8" d="M167.2 390.8c25.7-23.8 28.2 25.5 56.4 11.4 12.6-6.2 10.3-23.9 3.4-33.9s-19.7-12.8-30-18.2c-14.2-7.4-12.8-32.6-30.8-35.1m114.6 183.7c-25 13.6-1.8 31.2-10.4 45.3-5.5 9.1-15.3 20.6 3.2 31.9m155-170.3c22.3-20.9 62.6-22.2 83.5 0m257.8-44.4c-24.5-13.5-57.8-3.2-70.4 21.7"/><path d="M558.6 279.2c4.7 10.4 15 18.4 16.9 3.2 1.2-10.2 40.4 36.5-9 31.5-.8-9.5-1.6-19.5-7.9-34.7Z"/><circle class="cat-12" cx="446.6" cy="844.6" r="2.5"/><circle class="cat-12" cx="522" cy="875" r="2.4"/><circle class="cat-12" cx="692.3" cy="882.5" r="2.7"/><circle class="cat-12" cx="776.2" cy="796" r="2.9"/><path class="cat-13" d="M529.1 261.6c13.4 8.5 22.4 22.8 27.6 37.6 4.4 12.5 6.5 26 13.5 37.3s24.5 10.4 29.4-2.2"/><path d="M495.3 267.5c15.1 14.2 27.9 32.4 30.1 53.1-.6 17.6 7.6 41.9 28 25 13.6 78.4 110.4 60.7 73.2-18.9 22.7 1.4 19.4-24.5 3.8-33.3-11.8-9.5-20.1-24.8-17.6-40.3-40.1-4.7-79.1 3.1-117.5 14.4Z" style="opacity:.72;fill:url(#cat-6)"/><path class="cat-8" d="M630.6 255.6c-35.7-12.1-107.2-.5-141 16.5"/><path class="cat-8" d="M495.5 269.6c13.4 12.5 26.2 27.4 28.9 45.5 1.6 11.1-.2 25.8 10.5 32.7 5 3.2 12.8 2.4 15.7-2.8m-4.8-12.7c10.5 11.8 10 27.4 16.8 41 9.3 18.5 34.7 27.7 53.5 20.3s23.5-33.1 15.4-50.9c-4.8-10.4-13.1-20.9-10.6-32.9"/><path class="cat-8" d="M614.3 253.2c-10.7 23.4 20.9 39.4 27.3 51.4s-6.1 28.1-18.3 19.1"/><path class="cat-13" d="M289.7 369.4a32.8 32.8 0 0 1-6.6 26.3m13.1 224.5a34.8 34.8 0 0 1-11.4 22.8m131.6 154.5a20.4 20.4 0 0 1 8 19.3m289.4 19.5c-4.7 5.4-8.5 12-8.2 19.1m95.2-196a27.4 27.4 0 0 0 13.4 22.9m-18.8-251.2a40.3 40.3 0 0 0 14.7 30.4m-43-243.6a30.7 30.7 0 0 0 9.5 26.9m-173.1-37.5a37.2 37.2 0 0 1-21.7 18.9m-94.3-4a26.7 26.7 0 0 0 18.4 11.4M227.5 446.9c3.4 8.9 6.8 18.4 5.2 27.9M473.6 880a19.9 19.9 0 0 1 5.4 16.1m136.8 10.2c-20.1-2.8-32 6.7-39.7 16.8M746 873.2c-3.6 4.8-3.3 11.7.1 16.5M544.2 332a19.7 19.7 0 0 1-2.5 15m80.2-36.4a19.5 19.5 0 0 0 14 13.1"/><path class="cat-13" d="M491.8 273.1c11.1 11 22.8 23.1 26.3 38.8 2 9.4 1.1 19.5 4.5 28.5 4.2 10.9 17 17.9 28.1 13.4 3.1 37.9 58.6 66.7 79.9 27.7M458.4 621.1c-11.3 22.9-2.7 42.9 20 54.1-.2 119.8 164.9 198.3 236.2 89.6M566.7 569.2c-5.9 20.2 38.4 55.5 57.3 50m-303.2-88.3c17.3 2.4 24.9 20.9 36.4 31.7 20.8 19.7 49.1 8.2 72.3 29.1M324 609.8c14.6-3.8 27.1 9.7 41.2 10.5 20.9 1.2 41.1-14.3 61.3-2m-80.3 65.1c46.5 14.8 48.4-47.2 84.8-39.7M807.4 540c-17.2 1.7-36.6 8.7-43.5 25.9M780 585a43 43 0 0 1 22.3-9.6m-11.7 32.5a40.5 40.5 0 0 1 19.9-4.3M454.8 442.2c49-2.2 88.7 34.8 112.8 74.3m173.5-107.7c-38.7 17.5-67.1 54.3-76.8 95.3M426.4 401.6c23.9-21.6 63.2-21.4 86.8.5m255.9-47.3c-26.1-13.8-59.2.3-72.5 25.5m-526 14.3c16.3-13.9 26.3 14.2 42.4 14.2 11.9 0 19.6-10.3 19.6-21.5m44.7 106.8c-20.3 9.4-4.2 31-10.9 45.9s-12.3 29.8 3.9 38.7M369 155.2c36.2-4 33.9 47 57.1 62.4 20.6 13.7 49.5 32.2 34.9 60m212.9-146.9c22.6 13.8 21.4 44.3 35 64.4 17.3 25.7 41.3 33 19 66.6"/><path class="cat-13" d="M339.3 761c34.7 18.1 30.7 46.1 57.8 62.5 15.1 9 37.4 3.5 40.8-14 63.5 67.1 80.7 24 143 60.4 52.5 30.6 78.7 30.7 117.1-17 13.1 28.1 49.3 13.3 54.7-13.5 6.1-29.9 15.2-59.7 35.7-83.3"/><path class="cat-13" d="M462 750.6c4.7 28.2 29.9 50.6 54.9 61.9"/><path d="M485 682.6c56.8 24.7 93.2-22.7 141.4-11.7-44.9-47.1-34.3 11-141.4 2.1-.8 1.7-1 3.6 0 9.6Zm176.1 61.2c8.3-13.2-2-29.9 2.5-43.8 6.8-20.9 31.1-21.5 49.1-15.1-23.7-17.8-47.9-11.3-68.6 2.9 14.6 15.1 11.6 37.2 17 56Z" style="fill:#660024"/><path class="cat-13" d="M266.7 325.2c-25.7 27.1-25.2 82.3 23.4 74.8-2.2 19.7-13.4 37.3-17 56.8-8.7 47.3 28.6 59.6.4 112.9-17.4 26.8-29.8 86.6 20.7 77.7a132.4 132.4 0 0 1-5.2 22.4"/><path d="M777.1 302.4a25.7 25.7 0 0 1 6.5 16.5m30.6 106.3a19.9 19.9 0 0 1 5.6 15.9m-24 53.9a34.4 34.4 0 0 1 4.4 20.4m24 141a17.6 17.6 0 0 1-1.3 11.9m-34.6 31.6a33.3 33.3 0 0 1-2.3 21.3m-7.5 13.1-1.7 3.4m-43.9 104.4a18.4 18.4 0 0 1-9.7 9.9m68.1-76.2a17.7 17.7 0 0 1-1.3 11.3m-25 83.3a18.1 18.1 0 0 1-7.6 8.6m-55 17.1a18.9 18.9 0 0 1-12.1 5.7m-51.6 26.6a30.9 30.9 0 0 1 8 25.1m-.6 13a15.5 15.5 0 0 1-1.3 3.6m-114.3-67.2a25 25 0 0 1-14.3-9.7m-49-3.5a14.2 14.2 0 0 1-8.4-6.6m-108-85.9a23.9 23.9 0 0 1-4.6-14.6m314.4 82.7a31.6 31.6 0 0 1-22.1 9.2m-12.1-1.7a12.9 12.9 0 0 1-3.8-1.2m-119.8-37.9a33.2 33.2 0 0 1-19-7.6m-75.5-15a13.3 13.3 0 0 1-7.9-5.6M306 698.1a43.5 43.5 0 0 0 11.8 24.4m10.5 8.5 2 1.7M274 615.5a21.1 21.1 0 0 0 2.9 13.9m-56-339.1a34.2 34.2 0 0 1 19.8 14.9m-27 67a21.8 21.8 0 0 1 5.6 14.1m-50-55.8a12.6 12.6 0 0 1 2.5 6.2m42.3 120.2a14.5 14.5 0 0 0 5.2 7.8m51.8-111.3a21.9 21.9 0 0 0-2.4 17.5m5.6 9.3 1.4 1.9m218.9-173a12.4 12.4 0 0 1 7.8 7.4m85.6-26.9a19.3 19.3 0 0 0-6.1 15.4m200.4 6.7a15.9 15.9 0 0 1 4.4 14.8M620.1 351.2a23.8 23.8 0 0 1-.5 17.2m-3.3 10.4a10 10 0 0 1-1.9 2.2m118.8-7.5a30.3 30.3 0 0 1 23.1-.1m-34.4 3.9a22 22 0 0 1-2.5 1.7m-224.3 32.1a36.8 36.8 0 0 0-23.7-6.5m-13.1 2.7-2 .3m198 162.2a75.8 75.8 0 0 1-13.2 18.6m-9 9.3-2.8 2.1m-8.1 85.2a79.8 79.8 0 0 1 17.5 33.6m1.9 14.2a20.6 20.6 0 0 0-.1 4.3m60-47a53.8 53.8 0 0 1 19.4 10.8m9.6 6.9 2.1 1.6m-21.5-575c5.7 3.9 8.8 10.5 11.7 16.8M405 142.7a36.1 36.1 0 0 1 16.3 14.1" style="stroke:#fff;stroke-linecap:round;stroke-linejoin:round;stroke-width:10px;fill:none"/></g><circle class="cat-8" cx="550" cy="550" r="500" id="Layer_51" data-name="Layer 51"/></svg>