<svg version="1.1" id="Layer_1" xmlns="http://www.w3.org/2000/svg" x="0" y="0" viewBox="0 0 1100 1100" style="enable-background:new 0 0 1100 1100" xml:space="preserve" xmlns:xlink="http://www.w3.org/1999/xlink"><style type="text/css">.st300{fill:#00DE72;stroke:#000000;stroke-width:10;stroke-linecap:round;stroke-linejoin:round;stroke-miterlimit:10;}</style><circle class="st300" cx="550" cy="553.7" r="500"/><g data-name="Layer 73"><path d="M531.7 209c-67.9 59.6-70.9 20.3-120.8 36.5-19.6 10.9-14.3 30.3-9.7 39.6 11.2 22.8-50.8 8.7-68.6 40.3-10.3 18.3.1 42.2-7.5 61.8s-33.8 34.7-36.8 52.2c-43.4 48.2-154 6.6-119.1 70.4 6.2 11.4 32.9-6.3 39.1 9.1 7 17.5-38.8 29.4-21.3 46.7 17.7 4.9 20.7 39.9 56.9 63.2 13.8 20 2.7 51.4 19.4 69.1 35.8 37.8 46.3-24.8 41.3-34.3 4.3-38.8 43.9-10.6 22.2 38.7-22.8 51.7 11.2 74 36.5 56.6 24-8.9 13.3 38.7 23.3 50.9 19.5 37.2 54.9 11.6 66.6 12 18.1.7 28 22.3 29.8 40.3 6.5 63 53.6 46.3 59.1 8 15.5-34.3 45.1 48.6 46.9 59.9 11.3 72.6 69.3 42 70.8 17.9 3.3-54.1-3.2-60.1 1.7-68.3 18.5-31.1 71 13.3 90.8-15.5 13.6-19.7-31.2-63.5 7.9-55.4 94 19.4 18.7-100.7 13.8-120.4-8.8-35.5 13.9-105.6 46.9-121.7 18.1-8.8 17.1-35.5 7.4-52.8s-24.9-30.6-31.4-48.9c-13.5-54.4 22.4-102.1-36-133.3a10.2 10.2 0 0 1-3.9-14.4c17.1-26.3 1.3-66.4-31.8-71.4-22.1-3.3-44.3 8.9-66.5 6.3-43.8-5.2-80.2-74.1-127-43.1Z" style="fill:#ff3903"/><path d="M797.6 467.5c-15.3 28.2-60.6 36-60.5-4.6 3.3-26.2 20.3-54 8.7-79.8-21.5-47.8-37.6-21.7-36.8-13.2 1.2 12 13.1 19.1 18.3 29.3 13.6 26.4-27.4 56.1-37.5 26.8-1.3-12.6 18-21 13.5-34-12.8-19.5-39.3 5.3-33.3 23.7 1.6 6.5 5.6 12.2 7.5 18.6 9.6 53.4-72.9 45.9-53.8-4.9 5.4-14.6 47-31.6 10.6-81.4-27.1-37 46.4-61.5 30.7-98.8 30.1-10 144.5-12.9 86.9 77.8 80 37 25.9 82.3 45.7 140.5Zm-436.5-7.4c9.3 4 21.5-2.9 22.9-12.9s-8.3-22.6-1.8-32.6c8.6-11.4 22.7-1.2 23.2 10.8 1.5 8.7.5 17.9 3.8 26.1 8.4 20.9 38.8 19.9 47.8 0 27-47-48.4-65.1-28.7-105.2 4.5-7.9 15-5.6 19.3 1.7 5.4 9.4 3 24.2 13.4 30.3 7.2 4.2 16.9-.3 21.1-7.5 18.9-45.2-59.9-59.8-23.3-125.4-33-22.4-84.9 17.1-51.4 48.3-127.3 17.8-52.1 58.8-88.6 110.3-9.6 13.4-29.2 23.5-28.6 42.8a66.5 66.5 0 0 1 22.9 8.4c-.6-15.6 38.8-39.4 48 4.9Zm308 411.9c.8-29.3-33.6-38.2-56.7-43.1-25-5.2-53.4-31.4-30.3-54.3 36.7-18.4 27.4 37.5 53.6 34.5 5.1-1 9.2-7.1 6.9-11.8s-13.1-5.8-15.2-12c-4.6-13.5 14.3-13.9 22.1-5.3 9.8 11 4.6 27.7 14.3 34.7 15.1 10.8 43.8-50-13.2-79.6-90.8-47.2 15.3-141.4 33.3-51.6 21.4 107 75.2 56.8 53.9 24.8-5.3-8.1-16.6-9.7-24-15.9-34.8-29.1 12.3-80.9 27.8-44.7 10.6 25 29 16.2 37.1 1.8.2-.5 1.1.2.9.7-13.9 21.1-.4 50.3 12.4 69.2 47.9 70.6-9.7 123-46.7 81.7-2.8 10.2-2.7 21.7 4.8 29.9 33.7 76.1-63.6 28.9-81 41Z" style="fill:#2dff03"/></g><style>.st40{fill:none;stroke:#000;stroke-width:10;stroke-linecap:round;stroke-linejoin:round;stroke-miterlimit:10}.st98{opacity:.6;enable-background:new}</style><g id="Outline"><path class="st98" d="M793 537c-1 .7-1 2-.5 3 5 10 11 35 25 30 8-2 21-13 18-22.4-.5-1-2-2-3-1.5-26 12-28-11-39-9.4v.3zm-34 274.5c6 5 26 8 25-3-6-7-20.6-12-21.5-26C750 772 744 803 759 811.5zm-219.3 52s1 .5 1 .8c9 13.5-3 36-18 40-34 6-9-6-6-44 .3-5.3 22.3 2.7 23 3.2zM342 731c5 7-4 22-4 33 8 13 29.6-5 33-14.9 2-12-17-21-28-20.2-1 .1-1 1.1-1 2.1zm31-120.2c2 23-8 47-26 61.9-13 10.9-17.5-30.6-8-27.9 6 4.2 28-18.8 34-34zm-157-59.9c-8 6-17 3-25 1-11 5 4 20 13.5 16 5-4 12-9 12-15.7-.5-.2-1.5-.2-.5-1.3zM337 473c-6-10-3-23 0-34 0-1 0-2-.6-2-9-9-23 11-19.8 20.7C318 463 338 475 337 472.8v.2z"/><path class="st98" d="M326 392c-2 29 24 45 7 44-7 2-14 1-15 11-1 11-24 0-24.5-1.3C285 433 317 404.5 326 392zm103-118c-9.9-4-16-16-18-25-4-6-9.9 1-11 6-7 54 29.5 28 29 19zm293 9c16 21 29.5 12 40 20.7 3 4 1 9.6-1 14-3 9-13 9-20 4.1-14.5-5.8-22-22.2-19-38.8z"/><path class="st40" d="M347 729c53.5 5 15 86 59 102 25 9 37-19.8 55-11.9 23 10.1 19.6 40 24 60.7 9.6 46 63 29.6 58-12.8"/><path class="st40" d="M519 861c89-9 47.5 119 114.5 115 39-6 35-47 25-76.5-3-9 0-18.5 7-24.5 24.5-21 59 15.5 84-2.5 15-11 8-33-2-45-12-15 0-32 10-43"/><path class="st40" d="M790 539c53 69.8-64 71 8 194.5 6 14 11 32 11 48.5 0 32-49 47.5-61 16"/><path class="st40" d="M721 287c2 51 64 31 74 88 6 34-11.5 71 7 103 10 18 27 31.5 34 51 8 19-4 47-27 42"/><path class="st40" d="M407 290.6c-16-8-12-29.9-2-41 17-15 40.5-10 61-6 29.8 1 49-29 75-38 50-17 81 55 133 44 23-5 48-11 69 1 25 14 33 55 10 75"/><path class="st40" d="M428 278c-16 26.5-51 17.5-76 28.5-20 10.5-28 33-23 55 10 47-43 51-39 88m25 4.5c1.5-23 35-26 41-5 7 25-13 47 16 72"/><path class="st40" d="M334 476c-20-34-61-31.5-89-9.6-20 8-43-3-64 4-22 7-28 37-5 43.5 6.5 2 23-2 26-1 15 4 11 25-5 30-21 6-10 29 6 29"/><path class="st40" d="M216 554.5c-15 15-14 41 2 55 37 22 41 31 36 69.7-2 31 46 41 53.5 10 2-10.8-4-22 0-33 13-32 44 20 62-44.5"/><path class="st40" d="M327 647.9c25 29.7-.5 47-7 75-10 32.5 34 65 53 25"/><path d="M729 262.5c9 4 16 13 18 22.5m-193-68c12.5 2 24.5 8 34 16m9 9 3 3m-163 10c-5.5-.9-12 .6-15.5 4M362 319.6c-9 2-14 10.7-16 19M339 449c4 1 6 6 6 9.8M308.5 470c-12-6-16-5-22-4M175 492c1-4 5-7 9-7.5m38 89.5c-4 8 0 16 4 19.9m44 78.6c-1 6 1 15 9 18m76-77.5c-3 14-13 14.5-16 16m4.5 119.5c-5-3-9-9-8-15M397 782c-1 14.5 7 28 14 30m90 53.9c-3 12 2 27 14.5 25M636 957c14-3 17-28 11-38m96-60.1c1-7 0-14-4-19m46-49.1c8-6.5 9-25 3-39M786 582c5-8 3-19-3-26m37-12c2-8.5-.6-18-7-24m-56-169c18 6 22 30 21 35" style="opacity:.7882;fill:none;stroke:#fff;stroke-width:10;stroke-linecap:round;stroke-linejoin:round;stroke-miterlimit:10;enable-background:new"/></g><radialGradient id="a14" cx="290.798" cy="544.048" r="35.638" gradientTransform="matrix(1.0835 0 0 1.2069 -20.488 -120.931)" gradientUnits="userSpaceOnUse"><stop offset="0" style="stop-color:#ffe100"/><stop offset="1" style="stop-color:#f70"/></radialGradient><path style="fill:url(#a14)" d="M294.5 494.1 255 568.3l79.5 8.9z"/><path style="opacity:.451;fill:#fff" d="m283 520.1 22 51.8 26 2.4-37-76.5"/><path style="fill:none;stroke:#000;stroke-width:10;stroke-linecap:round;stroke-linejoin:round;stroke-miterlimit:10" d="M294.5 494.1 255 568.3l79.5 8.9z"/><path d="M289 492.2c-16 29-29.8 52-44 79.8l88 12.5" style="opacity:.6;fill:none;stroke:#000;stroke-width:10;stroke-linecap:round;stroke-linejoin:round;stroke-miterlimit:10"/><path d="M294 524.9c2.5 5 5 9.5 6 14.5m6 14.6 2 4" style="opacity:.749;fill:none;stroke:#fff;stroke-width:10;stroke-linecap:round;stroke-linejoin:round;stroke-miterlimit:10"/><style>.st40{fill:none;stroke-width:10;stroke-linecap:round;stroke-linejoin:round;stroke-miterlimit:10;stroke:#000}.st152{fill:#ae0f45}</style><g id="Ooooo"><path d="M571 686c16 10 49 36 53.5 36.9 45-10.5 81 9 84 8 40-27 67-50 32-96.9-22-15-36 36-46 45-46 43-76.5-30-123.5 6.6v.4z"/><path d="M436 659c-55 31 27 58 37.5 80-13 40 24 108 52 62.5 49.9-81 57 28 71 47.9 30.1 43 62-2 45-38-5-10.8-24-62 21-34 48 29.8 62-18 47-40.7-25-38-83-4-103-22.1-10-9-27-43-91-13C487 702 459 639 436 658.7v.3z" style="fill:#fe1767"/><path class="st152" d="M427 699c23-21 47 6 67 17 54 29 76-27 132 11.9-47-62-67.5-32-92-27.7-34 6-56-28-81-45-26-8-41 18-26 43.5v.3z"/><path class="st152" d="M641 751c-6-12 19.7-27 30.6-28-13-7-39-6.5-47 7.1L641 751z"/><path d="M585 711c10 5 18 14 24 24m9 11c1.5 1 3 3 4 5m42-19c9.9 1 19 6 26.5 13" style="fill:none;stroke:#fff;stroke-width:10;stroke-linecap:round;stroke-linejoin:round;stroke-miterlimit:10"/><path class="st40" d="M433 656c-13 4-18 24-13 36.9 14 34 68 24 53 70-11 36 31 72 47 42.5 38-68 66-20 69 28 2 29 48 55 57 10 4-19-7-35-14-52-8-18 11-26 25-16.9 1 1 2 2 3.5 3 15.5 14 32 22 48 2 23.5-30-20.9-45 32-72 26-13 20-53 3-71.6-20-17.5-32 6-39 24-29 77-88-3-127 21-98 60-94-40.9-145-25.1v.2z"/><path class="st40" d="M568 686.9c29 12 55 37 70 64M623 725c26-15 63-5 87 12"/><path d="M417.5 665.9c-34 63 71.5 42 49 107-11 31 28 65 56 41 13-11 18-38 39-35 24 8 17 48 29 68 32 54 97 16 49-58-7-11 7-25 25-6 35.5 36.5 64 4 59-34.7-5-44 38-35 32-66" style="opacity:.6;fill:none;stroke:#050505;stroke-width:10;stroke-linecap:round;stroke-linejoin:round;stroke-miterlimit:10;enable-background:new"/></g><style>.st40,.st68{fill:none;stroke-width:10;stroke-linecap:round;stroke-linejoin:round;stroke-miterlimit:10;stroke:#000}.st68{opacity:.6;enable-background:new}</style><g id="flame_eye"><linearGradient id="SVGID_00000121993682064921210520000015515713131974571392_" gradientUnits="userSpaceOnUse" x1="495.753" y1="646.684" x2="696.753" y2="489.684" gradientTransform="matrix(1 0 0 -1 0 1100)"><stop offset="0" style="stop-color:#ff003b"/><stop offset=".104" style="stop-color:#f70045"/><stop offset=".279" style="stop-color:#e1005f"/><stop offset=".505" style="stop-color:#be008b"/><stop offset=".77" style="stop-color:#8d00c6"/><stop offset="1" style="stop-color:#5e00ff"/></linearGradient><path style="fill:url(#SVGID_00000121993682064921210520000015515713131974571392_);stroke:#000;stroke-width:10;stroke-linecap:round;stroke-linejoin:round;stroke-miterlimit:10" d="M499 467c-25 48-11 109 32 142-12 1-25-2-36-9 39 77 184 42 197-36.4-4 .5-21 13-29 7 15-18 13-41 13-64.9-5 17-25 28-42 19 29-40 26-78 .6-118.6-5 30-27 40-38 9-7-19.9-18-41-39-47 24 54-26 84-37 44.9-19 38 19.9 52 18 86.1-1 18-18 20-28 7-7-11-11-24-11.5-39.4v.3z"/><path d="M576 492c-9 10-3 15 0 27 7 17 14 36 24 51 6-22.5 8-46 12.5-69l-36.5-9.3v.3z"/><path d="M584 458.9c-19 22.5 3 56 28 32.6l-28-32.6z" style="fill:#fff"/><path class="st40" d="m584 453.1-16 48.8 33.5 77.4 12.5-89.2z"/><path class="st40" d="M575 481c0 17 26 25 37 14"/><path class="st68" d="M558 368c8 21 3 45-12.5 61.5m-24.5-17c-26 32.5 27 66 7 101M499 467c-29.9 42-14 104 19.5 139.7M636 405.5c-4 11-10.5 24-22 26.5m63 73c-9 10.6-19.8 20-34 19.6m49 37.9c-6.5 4-14 6-22 5"/><path class="st68" d="M495 600c19.5 69 182 66.5 197-36M581 453c-7 16-13 30-21 49 12 28 25 54 37.5 79"/><path d="M637 442c4 9.9 5 21 3 31m-3 14-1 2.7m29 46.3c0 5-2 9-4 13m8 38.9c-9.8 12-22 21.5-35.5 28m-11.5 5-4 1.1M501 519c.5 11.5 3 23 8 33.5m6 13.5 2 3.5M576 395c3 5 5 11 7 16.5m4 10.5 1 2" style="fill:none;stroke:#fff;stroke-width:10;stroke-linecap:round;stroke-linejoin:round;stroke-miterlimit:10"/></g><radialGradient id="a22" cx="677.109" cy="702.572" r="56.939" gradientTransform="matrix(.9782 -.2079 -.2998 -1.4111 102.775 1435.44)" gradientUnits="userSpaceOnUse"><stop offset="0" style="stop-color:#ff00a6"/><stop offset="1" style="stop-color:#ff5900"/></radialGradient><path style="fill:url(#a22)" d="M527 249.5c-30 64-27.5 69 21 112.5 14 12.5 26 11 34-1 17-26 26-54 16-77-9-21-52.5-74-71-34.5z"/><path d="M514 279c9.6 26 38 45 64.5 50 25 5 24-26 20-42.5C542 196 525 254 514 279z" style="opacity:.3686;fill:#fff;enable-background:new"/><path d="M527 249.5c-30 64-27.5 69 21 112.5 14 12.5 26 11 34-1 17-26 26-54 16-76.6-9-21.4-52.5-74.4-71-34.9z" style="fill:none;stroke:#000;stroke-width:10;stroke-linecap:round;stroke-linejoin:round;stroke-miterlimit:10"/><path d="M531 243c-41 54-37 85 12 125 9.8 8 24.5 7.5 34-1" style="opacity:.6;fill:none;stroke:#000;stroke-width:10;stroke-linecap:round;stroke-linejoin:round;stroke-miterlimit:10;enable-background:new"/><path d="M554 255c8 5 14 12 19 20m9 11c2 3 3 6 4 9" style="fill:none;stroke:#fff;stroke-width:10;stroke-linecap:round;stroke-linejoin:round;stroke-miterlimit:10"/><circle cx="550" cy="550" r="500" style="fill:none;stroke:#000;stroke-width:10;stroke-linecap:round;stroke-linejoin:round;stroke-miterlimit:10"/></svg>