<svg version="1.1" id="Layer_1" xmlns="http://www.w3.org/2000/svg" x="0" y="0" viewBox="0 0 1100 1100" style="enable-background:new 0 0 1100 1100" xml:space="preserve" xmlns:xlink="http://www.w3.org/1999/xlink"><style type="text/css">.st303{fill:#FED907;stroke:#000000;stroke-width:10;stroke-linecap:round;stroke-linejoin:round;stroke-miterlimit:10;}</style><circle class="st303" cx="550" cy="553.7" r="500"/><path d="M533 209.1c-68 59.6-71 20-121 36.5-19.6 10.9-14 30-9.7 39.6 11 23-51 9-69 40.3-10 18 .1 42-7.5 61.8-9 19.6-34 35-37 52.2-43 48-154 7-119 70.4 6 11 33-6 39 9.1 7 17.5-39 29-21 46.7 18 5 21 39.9 57 63.2 14 20 3 51 19 69.1 35.8 38 46-25 41-34.3 4-39 44-11 22 38.7-23 52 11 74 36.5 56.6 24-9 13 39 23 50.9 19.5 37 55 12 67 12 18 1 28 22 29.8 40.3 6.5 63 54 46 59 8 15.5-34 45 49 47 59.9 11 73 69 42 71 17.9 3-54-3-60.1 2-68.3 18.5-31 71 13 90.8-15.5 14-19.7-31-63.5 8-55.4 94 19 19-101 14-120.4-9-35.5 14-106 47-121.7 18-9 17-35.5 7-52.8-9.5-17-25-30.6-31-48.9-13.5-54 22-102-36-133.3-5-3-7-9.5-4-14.4 17-26 1-66-32-71.4-22-3-44 9-66.5 6.3C616 247 579.9 178 533 209.1z" style="fill:#d500ff"/><style>.st40{fill:none;stroke:#000;stroke-width:10;stroke-linecap:round;stroke-linejoin:round;stroke-miterlimit:10}.st98{opacity:.6;enable-background:new}</style><g id="Outline"><path class="st98" d="M793 537c-1 .7-1 2-.5 3 5 10 11 35 25 30 8-2 21-13 18-22.4-.5-1-2-2-3-1.5-26 12-28-11-39-9.4v.3zm-34 274.5c6 5 26 8 25-3-6-7-20.6-12-21.5-26C750 772 744 803 759 811.5zm-219.3 52s1 .5 1 .8c9 13.5-3 36-18 40-34 6-9-6-6-44 .3-5.3 22.3 2.7 23 3.2zM342 731c5 7-4 22-4 33 8 13 29.6-5 33-14.9 2-12-17-21-28-20.2-1 .1-1 1.1-1 2.1zm31-120.2c2 23-8 47-26 61.9-13 10.9-17.5-30.6-8-27.9 6 4.2 28-18.8 34-34zm-157-59.9c-8 6-17 3-25 1-11 5 4 20 13.5 16 5-4 12-9 12-15.7-.5-.2-1.5-.2-.5-1.3zM337 473c-6-10-3-23 0-34 0-1 0-2-.6-2-9-9-23 11-19.8 20.7C318 463 338 475 337 472.8v.2z"/><path class="st98" d="M326 392c-2 29 24 45 7 44-7 2-14 1-15 11-1 11-24 0-24.5-1.3C285 433 317 404.5 326 392zm103-118c-9.9-4-16-16-18-25-4-6-9.9 1-11 6-7 54 29.5 28 29 19zm293 9c16 21 29.5 12 40 20.7 3 4 1 9.6-1 14-3 9-13 9-20 4.1-14.5-5.8-22-22.2-19-38.8z"/><path class="st40" d="M347 729c53.5 5 15 86 59 102 25 9 37-19.8 55-11.9 23 10.1 19.6 40 24 60.7 9.6 46 63 29.6 58-12.8"/><path class="st40" d="M519 861c89-9 47.5 119 114.5 115 39-6 35-47 25-76.5-3-9 0-18.5 7-24.5 24.5-21 59 15.5 84-2.5 15-11 8-33-2-45-12-15 0-32 10-43"/><path class="st40" d="M790 539c53 69.8-64 71 8 194.5 6 14 11 32 11 48.5 0 32-49 47.5-61 16"/><path class="st40" d="M721 287c2 51 64 31 74 88 6 34-11.5 71 7 103 10 18 27 31.5 34 51 8 19-4 47-27 42"/><path class="st40" d="M407 290.6c-16-8-12-29.9-2-41 17-15 40.5-10 61-6 29.8 1 49-29 75-38 50-17 81 55 133 44 23-5 48-11 69 1 25 14 33 55 10 75"/><path class="st40" d="M428 278c-16 26.5-51 17.5-76 28.5-20 10.5-28 33-23 55 10 47-43 51-39 88m25 4.5c1.5-23 35-26 41-5 7 25-13 47 16 72"/><path class="st40" d="M334 476c-20-34-61-31.5-89-9.6-20 8-43-3-64 4-22 7-28 37-5 43.5 6.5 2 23-2 26-1 15 4 11 25-5 30-21 6-10 29 6 29"/><path class="st40" d="M216 554.5c-15 15-14 41 2 55 37 22 41 31 36 69.7-2 31 46 41 53.5 10 2-10.8-4-22 0-33 13-32 44 20 62-44.5"/><path class="st40" d="M327 647.9c25 29.7-.5 47-7 75-10 32.5 34 65 53 25"/><path d="M729 262.5c9 4 16 13 18 22.5m-193-68c12.5 2 24.5 8 34 16m9 9 3 3m-163 10c-5.5-.9-12 .6-15.5 4M362 319.6c-9 2-14 10.7-16 19M339 449c4 1 6 6 6 9.8M308.5 470c-12-6-16-5-22-4M175 492c1-4 5-7 9-7.5m38 89.5c-4 8 0 16 4 19.9m44 78.6c-1 6 1 15 9 18m76-77.5c-3 14-13 14.5-16 16m4.5 119.5c-5-3-9-9-8-15M397 782c-1 14.5 7 28 14 30m90 53.9c-3 12 2 27 14.5 25M636 957c14-3 17-28 11-38m96-60.1c1-7 0-14-4-19m46-49.1c8-6.5 9-25 3-39M786 582c5-8 3-19-3-26m37-12c2-8.5-.6-18-7-24m-56-169c18 6 22 30 21 35" style="opacity:.7882;fill:none;stroke:#fff;stroke-width:10;stroke-linecap:round;stroke-linejoin:round;stroke-miterlimit:10;enable-background:new"/></g><radialGradient id="a14" cx="290.798" cy="544.048" r="35.638" gradientTransform="matrix(1.0835 0 0 1.2069 -20.488 -120.931)" gradientUnits="userSpaceOnUse"><stop offset="0" style="stop-color:#ffe100"/><stop offset="1" style="stop-color:#f70"/></radialGradient><path style="fill:url(#a14)" d="M294.5 494.1 255 568.3l79.5 8.9z"/><path style="opacity:.451;fill:#fff" d="m283 520.1 22 51.8 26 2.4-37-76.5"/><path style="fill:none;stroke:#000;stroke-width:10;stroke-linecap:round;stroke-linejoin:round;stroke-miterlimit:10" d="M294.5 494.1 255 568.3l79.5 8.9z"/><path d="M289 492.2c-16 29-29.8 52-44 79.8l88 12.5" style="opacity:.6;fill:none;stroke:#000;stroke-width:10;stroke-linecap:round;stroke-linejoin:round;stroke-miterlimit:10"/><path d="M294 524.9c2.5 5 5 9.5 6 14.5m6 14.6 2 4" style="opacity:.749;fill:none;stroke:#fff;stroke-width:10;stroke-linecap:round;stroke-linejoin:round;stroke-miterlimit:10"/><style>.st40,.st68{fill:none;stroke:#000;stroke-width:10;stroke-linecap:round;stroke-linejoin:round;stroke-miterlimit:10}.st68{opacity:.6;enable-background:new}</style><g id="Mouth_Cover"><path d="M598 706c-47-14.5-175 15-82.5 66.5 25 14 169.5 24 164-14.5-13-18-39-32-61-24.7 1.2-2.8-12.5-24.3-20.5-27.3z" style="fill:#fe1767"/><path d="M614 729c-39.7-16-93-13-131 7 14-38 77-35 110-31.5l21 24.5zm47 14c-13-3-27 2-35 12 0-8-7-15-7-23 13-2 28 1 42 11z" style="fill:#ae0f45"/><path d="M600 704c7 8 14 18 19.6 27 25-2 52 9 64 32 32-15 24-49-24-56.4l-59.6-2.8v.2z"/><path class="st40" d="M506.5 772c42 17 129 25 183-9 35-22 8-49-23-54-43-7-156-9.6-179 13.1-16 16-1.5 41 19 49.6v.3z"/><path class="st40" d="M593 704c15 12 26 29.5 30 48.5m-4-19.5c24-4.5 50.5 8.5 62 30.7"/><path class="st68" d="M441 681.5c0 31-13.5 60-23 93 94 41 212 45 307 3"/><path class="st68" d="M486 717c-18.5 9.5-11 36 2 47 44 38 170 39 208.5-7"/><linearGradient id="SVGID_00000010300643410979321390000010567667997916476851_" gradientUnits="userSpaceOnUse" x1="567.366" y1="429.07" x2="603.366" y2="242.07" gradientTransform="matrix(1 0 0 -1 0 1100)"><stop offset="0" style="stop-color:#08ffce"/><stop offset=".106" style="stop-color:#1aedd1"/><stop offset=".321" style="stop-color:#4abdd9"/><stop offset=".624" style="stop-color:#9770e6"/><stop offset="1" style="stop-color:#ff08f7"/></linearGradient><path style="opacity:.6588;fill:url(#SVGID_00000010300643410979321390000010567667997916476851_);enable-background:new" d="M727 773.8c-94 42-211 37-304-3 13-29.6 21-59.7 23-90 94 25 191 5 283-19 6 39.2 12 55.2-2 112z"/><path d="m510 692.9 36 53.2 23-12.5 54 65.9 39-5.6-88-87.7-16 15.5-14.5-26.6M595 692c28 32 55 64 81 97.3l31-9.1-87-94" style="opacity:.5216;fill:#fff;enable-background:new"/><path class="st40" d="M727 774c-94 42-211 37-304-3 13-29.6 21-59.7 23-90 94 25 191 5 283-19.3 6 39.3 12 55.3-2 112.1v.2z"/><path d="M714 683c3 16 4 32 2 48m1 15-.5 6" style="opacity:.6118;fill:none;stroke:#fff;stroke-width:10;stroke-linecap:round;stroke-linejoin:round;stroke-miterlimit:10;enable-background:new"/></g><style>.st40{fill:none;stroke:#000;stroke-width:10;stroke-linecap:round;stroke-linejoin:round;stroke-miterlimit:10}</style><g id="closed"><path class="st40" d="M438 542.4c31-12 73-10.1 105-.5m180-13.1c-37-5.5-76-6-108.5 3M733 494.6c40 24 40.5 56-8 68m-290-53.1c-35 9-54 55-10.1 67.5m112.6-68.4c47 0 58.5 46 13.5 65"/><path class="st40" d="M615 495.9c-62 31-25 78 6 72"/><path d="M432 508.2c-37.5 12-58 62-7 69m118-30.4c-33-7-70.6-11-103 0m113 31.8c12-4 22-11 29.7-21.4 7 12 25 19 38.5 13m-6.7-33.3c35-7 72-8 107.5-3.5m3 34.3c12-3 25-8 30-19.9" style="opacity:.6;fill:none;stroke:#000;stroke-width:10;stroke-linecap:round;stroke-linejoin:round;stroke-miterlimit:10"/></g><defs><linearGradient id="zbd" x1="531.69" y1="69.46" x2="554.66" y2="438.37" gradientUnits="userSpaceOnUse"><stop offset="0" stop-color="#f09a11"/><stop offset=".16" stop-color="#f09613"/><stop offset=".33" stop-color="#f0891b"/><stop offset=".51" stop-color="#f07427"/><stop offset=".69" stop-color="#f05638"/><stop offset=".87" stop-color="#f0304d"/><stop offset="1" stop-color="#f0115f"/></linearGradient><linearGradient id="zbd-2" x1="542.92" y1="235.77" x2="534.97" y2="331.83" gradientUnits="userSpaceOnUse"><stop offset="0" stop-color="#f0e511"/><stop offset=".12" stop-color="#f0e011"/><stop offset=".26" stop-color="#f0d211"/><stop offset=".42" stop-color="#f0ba11"/><stop offset=".58" stop-color="#f09911"/><stop offset=".75" stop-color="#f06e11"/><stop offset=".92" stop-color="#f03b11"/><stop offset="1" stop-color="#f02011"/></linearGradient><style>.zbd-3{fill:none;stroke-linecap:round;stroke-linejoin:round;stroke-width:10px;stroke:#000}</style></defs><path d="M263.9 257.4c-54.1 48.5-21.8 131.7 33.9 164.7 19.9-14.3 33.6-34.7 32.6-60.2 37.7 14.1 79.3 10.7 119.4 7.6 105.8-8.2 216.5 23.6 322.1.2 153.4-62 81.8-200-90.4-125C697.4 131.9 594 86.4 528 138.4c-47.8-30.3-205.7-25.9-141.5 78.4 3.3 15.6 6.2 33.1.3 48.3-38.6-17.2-85.3-41.2-122.9-7.7Z" style="fill:url(#zbd)"/><path d="M387.5 265c99.2 70 203.9 63.7 303.6 29.2a95.3 95.3 0 0 1-8.6-34.4c-93.1 29.5-196.1 15.3-289.1-8.6a118.9 118.9 0 0 1-5.9 13.8Z" style="fill:url(#zbd-2)"/><path class="zbd-3" d="M683.8 246.3c214-87.9 216.6 108.9 66 128.2-91.8 11.7-184.8-11.4-277.2-5.4-48.6 3.1-97.8 7.6-144.5-6.8 5.1 25.8-12.5 44.8-31.8 60.1-58.9-34.9-88.9-126.6-24.7-172.8 79.3-56.9 276.5 176.9 485.7 87.8"/><path class="zbd-3" d="M528 138.4c40.3-37.7 138.7-20.9 149.9 46.5 8.9 53.7-12.7 97.2 38.3 134M539.3 155.8c-42.1-55.2-120.8-35.7-149.2-16.4-51.9 35.4 15.5 61.1-1.5 125.5"/><path class="zbd-3" d="M681.5 260.6c-94.3 28.1-195.1 14.6-288.7-10.4M692 295.4c-69 22.1-138.6 27.5-210.7 16.9"/><path d="M330.6 370.2c56.7 18 118 5.8 177.5 5.1 47.2-.6 94.2 6.3 141.3 9.4s95.5 2.6 140.3-12.4m-32.4-36.8c-72.7 21.9-154 21.4-224.4-8l-18.3-5.5a438 438 0 0 0 179-20.1m-301.7-44.3c32.2 26.4 73.3 38.8 109.8 59" style="opacity:.6;stroke:#000;fill:none;stroke-linecap:round;stroke-linejoin:round;stroke-width:10px"/><path d="M779.1 242c15.9-2.2 33.8.8 44.9 13.3m6.4 12.1a23.7 23.7 0 0 1 .9 9.9M625.2 145.9a39.9 39.9 0 0 1 26.7 24.8m4.7 18 .5 5.6m-187.2-57.6a73.4 73.4 0 0 1 42 15.4m-58.5-15.7a18.2 18.2 0 0 0-4.6.6M326.4 259.2c-13.5-4.8-29.7-7-42.3 1.2m-11.1 8.4-3.1 3.1m398 4.8a228.8 228.8 0 0 1-55.6 11.3m-15.2.9-8.6.3m104.4 26.4a46.3 46.3 0 0 0 10 10.7m108.6 8.7a113.9 113.9 0 0 1-30.5 17.8" style="stroke:#fff;opacity:.8;fill:none;stroke-linecap:round;stroke-linejoin:round;stroke-width:10px"/><path d="M325.7 359c-18.8 17.9-45.4 21.9-69.6 22 4.6 14.5 20.5 27 32.9 35.9 5.1 4.3 11.5 2.1 15.8-2.5 12.7-13.5 30.7-35.8 20.9-55.4Zm217.8-203.1c-2.8-14 5.3-29 18.6-34.2a76.7 76.7 0 0 0-35.8 17.2" style="opacity:.6"/><circle cx="550" cy="550" r="500" style="fill:none;stroke:#000;stroke-width:10;stroke-linecap:round;stroke-linejoin:round;stroke-miterlimit:10"/></svg>