<svg version="1.1" id="Layer_1" xmlns="http://www.w3.org/2000/svg" x="0" y="0" viewBox="0 0 1100 1100" style="enable-background:new 0 0 1100 1100" xml:space="preserve" xmlns:xlink="http://www.w3.org/1999/xlink"><style type="text/css">.st301{fill:#005BEF;stroke:#000000;stroke-width:10;stroke-linecap:round;stroke-linejoin:round;stroke-miterlimit:10;}</style><circle class="st301" cx="550" cy="553.7" r="500"/><path d="M532 209c-68 59.6-70.9 20-120.8 36.5-19.6 10.9-14 30-9.7 39.6 11 23-50.8 9-69 40.3-10 18 0 42-7.5 61.8-9 19.6-34 35-37 52-43 48-154 7-119 70.4 6 11 33-6 39 9.1 7 17.5-39 29-21 46.7 18 5 20.7 39.9 57 63 14 20 3 51 19 69.1 36 38 46-25 41-34.3 4-39 44-10.6 22 38.7-23 52 11 74 36.5 56.6 24-9 13 39 23 50.9 19.5 37 55 12 67 12 18 .7 28 22 29.8 40.3 6.5 63 54 46 59 8 15.5-34 45 49 47 59.9 11 73 69 42 70.8 17.9 3-54-3-60 2-68.3 18.5-31 71 13 90.8-15.5 14-19.7-31-63.5 8-55.4 94 19 19-100.7 14-120.4-9-35.5 14-106 47-121.7 18-9 17-35.5 7-52.8-9.5-17-25-30.6-31-48.9-13.5-54 22-102-36-133.3-5-3-7-9.5-4-14.4 17-26 1-66-32-71.4-22-3-44 9-66.5 6.3C615 247 578.5 178 532 209z" style="fill:#5d7f48"/><path d="M800 739.3c-5-3.5-5.5 16-14.5-2.4-2-4.5-9-5-13-1.9-6 6-2 18.5-9 22.6-9.8 5.5-17-8-16-16.5 3-49-69.6-23-36 7.5 10.6 9.5 28 19.8 16 35.8-14 19-18-22-39-10.8-18 9-19.5 38-7 52.3 12 14 19 28.5 3 43.9 17-11 71 29.5 74-10.5 1-18-27-40.9-10-57.9 11.5 20.6 86 24.6 51.5-62.1zm9-251.4c-15 39-85 33-97-4-12-38 38-64 4-107.8-17-22-45-7-27 17.4 19 25-17 53-40 33.8-65.5-55 59.9-109-26-190.9 32 37 86-9.8 123 15.1 23 16 27 56 7 76.8 81 30.7 11 106.7 56 159.6zM209 594c9-14 28-5 35 6.7 9.7 16 28.5 43 47 22.1 7-7 4-17 .6-25.7-6.5-15 9-25 24-20.5 6 2 12 5 19 5.3 26 3 42.5-27 30.6-49-4-7-4-18-4-26.4-2-50-12-109-47-50.4-29-20.5-80 25-119 14.4-39-5-45 55-1.5 44.1 42.5 0 5 26-8 41 3 12 10.6 13 19 17.3 2.3 6.6 1.3 16.1 4.3 21.1z" style="fill:#7a0d09"/><path d="M710 870.6c-7-20.6 23.5-19 20 3.7l-20-3.7zm12-67c-4 1-6 7-3 10.1 2.5 2 7 2.5 9 5.4 1.5 2 .7 5 2 7.6 5 9 17 0 14.5-8.4C741 809 734 800 722 803.6zm65 6.7c-11-14 7-43 19.6-29.5 4 13.2-6.6 27.2-19.6 29.5zm-94-5.8c-6 7 6 23 13 16 8-7.5-4-27.5-13-16zm104-333.2c-24 8-45.5-12-39.8-37 5-20.9 36-26.5 36-1.3l3.8 38.3zm-66.4-7c-5 9.9 9 23 18 16 15.4-11.3-6.1-39.3-18-16zm6.9-141.3c-16 17.5 6 48 23 56.3s35-8 26-25.7c-11-17.6-27.5-23.6-49-30.6zm-66.9-70.9c-15 44 48 69 52 51 1-5-4-29 9.8-14 28 30 35-29 5-43.7-12.4-6.4-56.4 4.5-66.8 6.7zM212 532c4 6.5 12 10 19.6 11.3 57 9 26-88-17-71.5-17 1-42-6-52 12.5C149 530 219 497 212 532zm73-39.1c-23 30.7 35 62 39 23.5 2-18.4-25-42.4-39-23.5z" style="fill:#e1908d"/><style>.st40{fill:none;stroke:#000;stroke-width:10;stroke-linecap:round;stroke-linejoin:round;stroke-miterlimit:10}.st98{opacity:.6;enable-background:new}</style><g id="Outline"><path class="st98" d="M793 537c-1 .7-1 2-.5 3 5 10 11 35 25 30 8-2 21-13 18-22.4-.5-1-2-2-3-1.5-26 12-28-11-39-9.4v.3zm-34 274.5c6 5 26 8 25-3-6-7-20.6-12-21.5-26C750 772 744 803 759 811.5zm-219.3 52s1 .5 1 .8c9 13.5-3 36-18 40-34 6-9-6-6-44 .3-5.3 22.3 2.7 23 3.2zM342 731c5 7-4 22-4 33 8 13 29.6-5 33-14.9 2-12-17-21-28-20.2-1 .1-1 1.1-1 2.1zm31-120.2c2 23-8 47-26 61.9-13 10.9-17.5-30.6-8-27.9 6 4.2 28-18.8 34-34zm-157-59.9c-8 6-17 3-25 1-11 5 4 20 13.5 16 5-4 12-9 12-15.7-.5-.2-1.5-.2-.5-1.3zM337 473c-6-10-3-23 0-34 0-1 0-2-.6-2-9-9-23 11-19.8 20.7C318 463 338 475 337 472.8v.2z"/><path class="st98" d="M326 392c-2 29 24 45 7 44-7 2-14 1-15 11-1 11-24 0-24.5-1.3C285 433 317 404.5 326 392zm103-118c-9.9-4-16-16-18-25-4-6-9.9 1-11 6-7 54 29.5 28 29 19zm293 9c16 21 29.5 12 40 20.7 3 4 1 9.6-1 14-3 9-13 9-20 4.1-14.5-5.8-22-22.2-19-38.8z"/><path class="st40" d="M347 729c53.5 5 15 86 59 102 25 9 37-19.8 55-11.9 23 10.1 19.6 40 24 60.7 9.6 46 63 29.6 58-12.8"/><path class="st40" d="M519 861c89-9 47.5 119 114.5 115 39-6 35-47 25-76.5-3-9 0-18.5 7-24.5 24.5-21 59 15.5 84-2.5 15-11 8-33-2-45-12-15 0-32 10-43"/><path class="st40" d="M790 539c53 69.8-64 71 8 194.5 6 14 11 32 11 48.5 0 32-49 47.5-61 16"/><path class="st40" d="M721 287c2 51 64 31 74 88 6 34-11.5 71 7 103 10 18 27 31.5 34 51 8 19-4 47-27 42"/><path class="st40" d="M407 290.6c-16-8-12-29.9-2-41 17-15 40.5-10 61-6 29.8 1 49-29 75-38 50-17 81 55 133 44 23-5 48-11 69 1 25 14 33 55 10 75"/><path class="st40" d="M428 278c-16 26.5-51 17.5-76 28.5-20 10.5-28 33-23 55 10 47-43 51-39 88m25 4.5c1.5-23 35-26 41-5 7 25-13 47 16 72"/><path class="st40" d="M334 476c-20-34-61-31.5-89-9.6-20 8-43-3-64 4-22 7-28 37-5 43.5 6.5 2 23-2 26-1 15 4 11 25-5 30-21 6-10 29 6 29"/><path class="st40" d="M216 554.5c-15 15-14 41 2 55 37 22 41 31 36 69.7-2 31 46 41 53.5 10 2-10.8-4-22 0-33 13-32 44 20 62-44.5"/><path class="st40" d="M327 647.9c25 29.7-.5 47-7 75-10 32.5 34 65 53 25"/><path d="M729 262.5c9 4 16 13 18 22.5m-193-68c12.5 2 24.5 8 34 16m9 9 3 3m-163 10c-5.5-.9-12 .6-15.5 4M362 319.6c-9 2-14 10.7-16 19M339 449c4 1 6 6 6 9.8M308.5 470c-12-6-16-5-22-4M175 492c1-4 5-7 9-7.5m38 89.5c-4 8 0 16 4 19.9m44 78.6c-1 6 1 15 9 18m76-77.5c-3 14-13 14.5-16 16m4.5 119.5c-5-3-9-9-8-15M397 782c-1 14.5 7 28 14 30m90 53.9c-3 12 2 27 14.5 25M636 957c14-3 17-28 11-38m96-60.1c1-7 0-14-4-19m46-49.1c8-6.5 9-25 3-39M786 582c5-8 3-19-3-26m37-12c2-8.5-.6-18-7-24m-56-169c18 6 22 30 21 35" style="opacity:.7882;fill:none;stroke:#fff;stroke-width:10;stroke-linecap:round;stroke-linejoin:round;stroke-miterlimit:10;enable-background:new"/></g><style>.st231{fill:none;stroke:#000;stroke-width:10;stroke-linecap:round;stroke-linejoin:round;stroke-miterlimit:10}</style><g id="Layer_65"><path d="M356 639c8-18-17-27-19-43 7-59.6-10.7-35-28-65.1-7 17 17 81-13 55.1-7-6-2-19-8.5-26-42 42-9-38-27-59.4 1.5 26-36 17-15-35.1-108-4-96 43-63 50 19 4 37-17 24 21.7-13 8-32 15-12.5 30.9 23 14 3 28 29 44.6 32 18 36 34 30 68 1 14 15 25 29 25.8 39.6 3 9.5-50.6 37-61.3 11-2.2 29 7.8 37-6.2z" style="fill:#ff054c"/><path class="st231" d="M244.5 466.7c-20.9 59 19.9 60 12 27.5 24 25 1.5 43 5 67.8 3.5 16.5 27 9.8 22-6 15 5 3 38 19.9 34.8 26-4-13-44 6-72 0 36 24 19.8 30 45.9 2 7 0 15-1 22.1-7 28 21 27 20 50.4"/><path d="M313 516.9c0 34 24 19 30 44.3 2 7 0 14-1 21.3-7 27 21 26 20 48.6M248.5 466.7c-20.9 57 19.9 58 12 26.6 24 24 1.5 41 5 65.4 3.5 16 27 9 22-5.7 15 5 3 36 19.9 33.6" style="opacity:.6;stroke:#000;enable-background:new;fill:none;stroke-width:10;stroke-linecap:round;stroke-linejoin:round;stroke-miterlimit:10"/><path class="st231" d="M334 475.6c-20-34-61-31.5-89-9.6-20 8-43-3-64 4.1-22 7-28 37.5-5 43.5 6.5 2 23-2 26-1.1 15 4 11 25-5 30.1-21 6-10 29 6 29"/><path class="st231" d="M216 554.5c-15 15-14 41 2 54.6 37 22 40.7 30.9 36 69.7-2 31 46 41 53.5 10 2-10.8-4.5-22 0-32.7 12-32.5 44 20 62-44.5"/><path d="M269 669.9c-1.5 6-1 14 4 19m10 4.7c4 1.5 6 0 9-1.8m36-60.8c4 2 9 3 13 2.3M217.5 579c-1 7 2 15 8 19m10.5 6.7c.8.6 1.5 1 2 1.8M187 480c-5.5 2-10 6-12 11.8" style="stroke:#fff;fill:none;stroke-width:10;stroke-linecap:round;stroke-linejoin:round;stroke-miterlimit:10"/></g><style>.st40{fill:none;stroke-width:10;stroke-linecap:round;stroke-linejoin:round;stroke-miterlimit:10;stroke:#000}.st152{fill:#ae0f45}</style><g id="Vamp"><path d="M429 737.5c57 100 248 114 303 5-22.3-58.5-275-50.5-303-5z" style="fill:#fe1767"/><path class="st152" d="M637 761.5c-120-80.6-205 29-203-19-10-23 154-62.9 203 19z"/><path class="st152" d="M647 768c5-34 49-35 50.9-46-22-15-59.5 0-75 19.8l24 25.8v.4z"/><path d="M575 734c14 4.5 26 13 36 24m8 10.5c1 1 2 2.5 3 4m35-31c5-1 10.5-2 15 0m31 3c3 0 5.5 1 8 3" style="fill:none;stroke:#fff;stroke-width:10;stroke-linecap:round;stroke-linejoin:round;stroke-miterlimit:10"/><path d="M424 720.7c2 37.5 43-33 182 8 35 26 59-19.8 114 5.9 41 19 50-119.8-20.7-73.1-44 22-97 39.6-147 39C508 695 427 639.7 424 720.7z"/><path d="M489.6 686c7 18 14 37 21 55 1.4 4 52.4-57.5-21-55zm214.4-7c-4.5 21-14 81-20 55-4-18-15-38-28-50.6-4-2.4 73.5-48.4 48-4.4z" style="fill:#fff"/><path d="m507 692.7.7-3c-9 12 9 41 3 52-5-5-18-44-21-58.7v2l17.3 7.7zM676 674c6 41 18 53 13.5 59.6-12-12-33-49.8-34-53.1l-1 1.1L676 674z" style="fill:#b3b3b3"/><path class="st40" d="M703 659.7c-65 28-131 58-200 28-99-43-102 58.5-29.7 98.5 49.7 27.5 109.6 43 166 29.7 42-10 124-71 111-147.5-4.3-24.9-27.3-17.4-47.3-8.7z"/><path class="st40" d="M484 684c14 23 23 49 28 76 4-21.5 11-42 21.5-62M653 684c19 17 28 42 37 66 7-30 10.7-67 24-92m-186 57c44-6 90 16 116.5 51.5"/><path class="st40" d="M621 739.9c18-9.5 38-12 58-11m16-.4c13 0 25 6 36 13M499 718c-24-1.5-48 4.5-68 17"/></g><style>.st40,.st68{fill:none;stroke-width:10;stroke-linecap:round;stroke-linejoin:round;stroke-miterlimit:10;stroke:#000}.st68{opacity:.6;enable-background:new}</style><g id="x"><linearGradient id="SVGID_00000108293349405905417590000007858031186733274302_" gradientUnits="userSpaceOnUse" x1="513.292" y1="1028.154" x2="683.299" y2="731.142" gradientTransform="matrix(1 0 0 -1 0 1410)"><stop offset="0" style="stop-color:#f03"/><stop offset=".221" style="stop-color:#e7005c"/><stop offset=".715" style="stop-color:#ac00c1"/><stop offset="1" style="stop-color:#80f"/></linearGradient><path style="fill:url(#SVGID_00000108293349405905417590000007858031186733274302_);stroke:#000;stroke-width:10;stroke-linecap:round;stroke-linejoin:round;stroke-miterlimit:10" d="M491 487c-16 7-3 23-8.5 33-4 7-14 9.7-21 5-9-6-9-18-11-28.9-4-21-21-39-22.5-60.8-2-33 38-55.8 64-37 38 27 79 115 116 35.9 12-26 23-58 53-67.9 30-9.7 41 29 36 51.5-2.5 11.5-12 21.5-11 33 1 12 12 22.5 11 35-.5 6-5 12.5-12 12-5 0-9-4-14.5-5-18-.5-18 23-6 31.5 18 13 42 18 56.5 36 31 37-12 83-44 46-3-4.5-6-10-11-10.8-16 .5-4 28-21 30-8 .9-15-4-17-12-5.5-20 2-44-21-55-18.5-9-41 8-38 28.4 3 19 30.5 42 10.5 59-9 6-21.5 0-27-9-4-11-17-9-19.9 2-4.5 17-11 29-30 21.5-34-14-32-64.5-4-83.9 46-31.5 26-104-8-89.7v.2z"/><path class="st40" d="M466 429c77 52 155 104 234 154"/><path class="st40" d="M671.5 395c-49.6 75-104 148-158 219.9"/><path class="st68" d="M462 432c75 57 158 103 235 157"/><path class="st68" d="M675 397.9c-46.5 78-103 148-157 221M434 408c-24 29 0 55 10 83 4 12 2 33 19 36m30-37c35 2 31 58 13 78-6 7-14 13-19.8 19.9-24 24-16 74 21 77M589 563c42 0 21 48 47 63m29-24.1c3 9 19 18 28 19M660.5 365c-51 10.9-46 80-88 102"/><path d="M459 410c8-3 18-3 24 4m11 8.4 2 2M687 398c2 7 1 14-2 20m-4 11c0 .6-1 1-1 2m25 134c10 6.5 17 19 13 31.5m-7 9.5c-.5.5-1 1-1.5 2M567 618c4 4 6 8.5 7 14m-80-18c-2 11 1 22 9 29.9m9.5 7.2 2 .9" style="fill:none;stroke:#fff;stroke-width:10;stroke-linecap:round;stroke-linejoin:round;stroke-miterlimit:10"/></g><defs><linearGradient id="zbe" x1="591.4" y1="318.14" x2="576.03" y2="139.55" gradientUnits="userSpaceOnUse"><stop offset="0" stop-color="#a305ff"/><stop offset=".45" stop-color="#5d5dff"/><stop offset="1" stop-color="#05cdff"/></linearGradient><style>.zbe-4,.zbe-6{fill:none;stroke-linecap:round;stroke-linejoin:round}.zbe-4{stroke:#000;stroke-width:10px}.zbe-6{stroke:#fff;stroke-width:9px}</style></defs><path d="M794.8 340.5c-165.4-4.7-274-.5-414.2 50.6C364.2 171.9 387 229.4 551 169.7c18-6.5 37.5-14.4 55.8-8.8 42.7 13.2 84 32.3 126.8 45.9 82.3 26.1 30.2 80 61.2 133.7Z" style="fill:#e6e6e6"/><path d="M290.5 426.5c28.7-15.5 59.1-29.8 90.6-38.6-10-54.3-11.3-116.1 11.8-166.4-92.2 22.4-113.8 122.1-102.4 205Zm59.1-23.9c101.4 117.2 209.8-36.7 463.5-3 82.3 10.9 11.9-47.9-24.5-60.1-147.3-2.1-303 2.1-439 63.1Z" style="fill:#40aadb"/><path d="M523.4 181.3c-4.5 16.3 14.7 30.1 19.2 40.3 2.8 6.6 1 19.3-1.2 28.7-7.7 32.9 42.2 33.7 33.3 3.5-9.8-33.2 27.4-29.7 15.2 23.5-10.2 44.4 67.4 38.5 47.8-7.5-4.2-10-14.3-16.6-16.4-27.3-5-26.1 26.6-38.9 12.5-71.3-41.2-23.7-70.1-7.8-110.4 10.1Z" style="fill:url(#zbe)"/><path class="zbe-4" d="M794.8 340.5c-165.4-4.7-355.2 6.8-503.7 88.1-20.7-217.7 102-201.4 259.9-258.9 18-6.5 37.5-14.4 55.8-8.8 42.7 13.2 84 32.3 126.8 45.9 82.3 26.1 30.2 80 61.2 133.7Z"/><path class="zbe-4" d="M395.9 218.7c-26.1 51.2-26.5 113-15.5 168.4m-30.8 15.5c101.4 117.2 209.8-36.7 463.5-3 82.3 10.9 11.9-47.9-21.4-59.2"/><path d="M352.4 407.6a297.6 297.6 0 0 0-61.4 27.7m122.1 8.9c60.8 18.6 122.5-11.6 181.6-24.8 65.8-14.7 133.5-21.5 200.7-16.2M384.6 226.1c-18.9 50.9-24.3 108.4-11 161m142.5-202.5c-.9 17.3 20.5 28.7 22 45s-11.4 44.1 12.5 45.4m27.8-38.1c19.1 16.3 3.6 36.1 6.8 54.5 2.7 15.5 22.3 23.6 35.8 15.5" style="opacity:.6;stroke-width:10px;stroke:#000;fill:none;stroke-linecap:round;stroke-linejoin:round"/><path class="zbe-6" d="M623.4 178.5a28.7 28.7 0 0 1-.9 15.1m-4.8 11.8-1 1.7m8.3 65a16 16 0 0 1 .9 16.5m-91.4-102a18.3 18.3 0 0 0 5.8 10.9"/><path d="M792.8 356.6a158.7 158.7 0 0 1 35 24m-364.6 49.5a73.6 73.6 0 0 1-44-3m-12.6-4.2-3.8-1.3m350-186.4c8 6.2 11.9 16 12.7 25.9m.7 11.7-.3 3.3m-375.8 22.1a139.1 139.1 0 0 0 1.7 42.2m.9 14.5.3 3m-65.5-74.2c-10.5 13.9-15.6 32.1-19 49.1m-2.2 14.5-.3 4.6" style="stroke:#fff;stroke-width:10px;fill:none;stroke-linecap:round;stroke-linejoin:round"/><path class="zbe-4" d="M523.4 181.3c-4.5 16.3 14.7 30.1 19.2 40.3 2.8 6.6 1 19.3-1.2 28.7-7.7 32.9 42.2 33.7 33.3 3.5-9.8-33.2 27.4-29.7 15.2 23.5-10.2 44.4 67.4 38.5 47.8-7.5-4.2-10-14.3-16.6-16.4-27.3-5-26.1 26.6-38.9 14-70.7"/><path class="zbe-6" d="M551.8 253.6a9.8 9.8 0 0 0 2.8 9.3"/><style>.st231{fill:none;stroke:#000;stroke-width:10;stroke-linecap:round;stroke-linejoin:round;stroke-miterlimit:10}</style><g id="Layer_66"><path d="M902 539.9c23 45 86 12 84-31.1-2-75-92-102-123-159.9-15-28-8-66-29.9-89.7-36-39.5-98-30-114-96.1l13 27.7c44 20.8 55-64-12-77.4-54-10.8-104 33-158 26.3-30.6-4-57-24-87-30-136-25.5-114 150-221 195.8-17 7-35 15-46 30.6-15 21.5 3 53 30.5 53.9l30.8-43.9c-28 75-109.8 44.5-130 140.4-17 79.8 40 100.8 32 152.7-4 26-24 47-27 73-3 28 19 47.5 46 41.5 15-3 22-16 26-25L192 686c58 57-22 110 67 140.7 43 19 59.6 64 67 107.3 10.6 62 114 49 73-12.3-8-12-16-28 3-30.5 28.5-2 38 33.5 29.6 56.1-3 10.6-8 20.8-9 31.8-5 68 98 53 55-10.5-17-25.5 16-45 37-17.5 56 73 121 87 187 17.7 9-9.9 21.5-2 32 3.8 65 33 50.8-95.5 86-129.7l-22 50.5c11 37 60.8 29 75-2.4 14-30.9.9-68 12-100.3 11.5-35 52-57 56-93 9-82.5-82-100.9-17-213" style="opacity:.4314;fill:#00ffea;enable-background:new"/><path class="st231" d="M269 346c-28 75-109.8 44.5-130 140.4-17 79.8 40 100.8 32 152.7-4 26-24 47-27 73-3 28 19 47.5 46 41.5 15-3 19-12 23.5-21.1"/><path class="st231" d="M192 686c58 57-22 110 67 140.7 43 19 59.6 64 67 107.3 10.6 62 114 49 73-12.3-8-12-16-28 3-30.5 28.5-2 38 33.5 29.6 56.1-3 10.6-8 20.8-9 31.8-5 68 98 53 55-10.5-17-25.5 16-45 37-17.5 56 73 121 87 187 17.7 9-9.9 21.5-2 32 3.8 65 33 50.8-95.5 86-129.7"/><path class="st231" d="M924 484.5c-64 112 26 130.7 17 213-4 36-44 58.5-56 93-10.7 32 2 69-12 100.3-14 32-64 39-75 2.4"/><path class="st231" d="M719.5 163.1c16.5 66 78 57 114 96.1 21.5 23 15 62 29.9 89.7 31 58 120.7 85 123 159.9 1 43-61 76-84 31.1"/><path class="st231" d="M732 190.7c44 20.8 55-64-12-77.4-54-10.8-104 33-158 26.3-30.6-4-57-24-87-30C339 84 361 259.8 254 305.4c-17 7-35 15-46 30.6-15 21.5-3 54.5 25 55.4"/><path d="M824 843c-9 25-4 58 18 73.9-67 5.1-38-57.9-18-73.9zm104-359.1c-6 25.5 3 57 25.5 72.3-19 3-30 3-44-11.5-16-16.7 6.5-46.7 18.5-60.8zM723 160.1c7 14.5 22.5 25 39 25.8-18 14.1-49-2.9-39-25.8zM188 686.8c6 20.8 9 50.7-9 65.8 16.5 0 37-9 35-28.1-2-16.5-7-33.5-26-37.7zm79-344.3C252 360 228 379 204 369c11 20 32 29 49 8.8 10-9.8 16.7-19.8 14-35.3z" style="opacity:.6;enable-background:new"/><path d="M957 470.9c7 10.5 14 23 12 36.1m-4 16c-1 3-3 6-5 8m-52 107.3c7 10 12 23 13 35m1 14c0 3-.7 6-1.5 8.5M863 841.9c2 12 .9 24-3 34.9m-9 13.2c-1.5 2-3 4-5.5 4.9m-74 29.9c-.7 10.9-4 22-10.5 30.7m-203 14.2c12 14 29 23 47 26.3m17-.3c5 .5 10 0 14.5-2.3m-195.8-11.5c-.6 9 3.5 18 10.5 23.5m-9.2-37.3c.5-2 1-4 2-5.3m-99-34.3c3 13 14 24 26.5 27.6M339 908.7c-.7-2-1-3-2-5M230.5 779.8c2 11 9 22 19.9 26.3m12.6 5.8c1 .7 2.5 1 4 1.7M164 696c-5 8-5.5 18-2 26m7 11.5c1 1.5 3 3 5 3.6m26-307.8c-16 8-29 23-35 40.4m-5 15.8c-2 3-2.5 6-3 9.1m82-167.2c-7 5-15 10-17.5 18.4m-3.5 15.9v4.9m199-235.3c-14 8-25 20-31 34.5m51-40.2c5-1 10.6-1 16 .1m280 9.3c9 6 14.5 16 16 26.3m-31.5-33c-2-.9-4-1-6-1.5m80.5 123c9.9 4 19 9.8 26 17.8m9 13.1 3 6" style="stroke:#fff;fill:none;stroke-width:10;stroke-linecap:round;stroke-linejoin:round;stroke-miterlimit:10"/></g><circle cx="550" cy="550" r="500" style="fill:none;stroke:#000;stroke-width:10;stroke-linecap:round;stroke-linejoin:round;stroke-miterlimit:10"/></svg>