<svg version="1.1" id="Layer_1" xmlns="http://www.w3.org/2000/svg" x="0" y="0" viewBox="0 0 1100 1100" style="enable-background:new 0 0 1100 1100" xml:space="preserve" xmlns:xlink="http://www.w3.org/1999/xlink"><style type="text/css">.st301{fill:#005BEF;stroke:#000000;stroke-width:10;stroke-linecap:round;stroke-linejoin:round;stroke-miterlimit:10;}</style><circle class="st301" cx="550" cy="553.7" r="500"/><defs><linearGradient id="a" x1="467.78" y1="347.4" x2="508.96" y2="422.3" gradientUnits="userSpaceOnUse"><stop offset="0" stop-color="#ff00f2"/><stop offset=".5" stop-color="#ac05ff"/><stop offset="1" stop-color="#0bf"/></linearGradient><linearGradient id="b" x1="625.23" y1="280.48" x2="689.78" y2="436.19" gradientUnits="userSpaceOnUse"><stop offset="0" stop-color="#00f"/><stop offset=".06" stop-color="#2c00ea"/><stop offset=".15" stop-color="#6b00cb"/><stop offset=".24" stop-color="#a000b2"/><stop offset=".32" stop-color="#c9009e"/><stop offset=".39" stop-color="#e70090"/><stop offset=".45" stop-color="#f90087"/><stop offset=".5" stop-color="#ff0084"/><stop offset=".58" stop-color="#ff2272"/><stop offset=".76" stop-color="#ff7a44"/><stop offset="1" stop-color="#fffb00"/></linearGradient><linearGradient id="c" x1="542.81" y1="533.18" x2="664.99" y2="716.92" gradientUnits="userSpaceOnUse"><stop offset="0" stop-color="#af0"/><stop offset=".25" stop-color="#fac400"/><stop offset=".29" stop-color="#fabf00"/><stop offset=".33" stop-color="#fab100"/><stop offset=".38" stop-color="#f99900"/><stop offset=".43" stop-color="#f87700"/><stop offset=".48" stop-color="#f74d00"/><stop offset=".5" stop-color="#f73e00"/><stop offset=".75" stop-color="#f5006e"/><stop offset="1" stop-color="#c0f"/></linearGradient><linearGradient id="d" x1="730.89" y1="463.6" x2="755.38" y2="535.72" gradientUnits="userSpaceOnUse"><stop offset="0" stop-color="#ff00a1"/><stop offset="1" stop-color="#0059ff"/></linearGradient><linearGradient id="e" x1="659.6" y1="799.3" x2="718.16" y2="799.3" gradientUnits="userSpaceOnUse"><stop offset="0" stop-color="#00f"/><stop offset="1" stop-color="#0fd"/></linearGradient><linearGradient id="f" x1="433.06" y1="520.57" x2="478.6" y2="623.4" gradientUnits="userSpaceOnUse"><stop offset="0" stop-color="#ff0900"/><stop offset=".1" stop-color="#ff0d00"/><stop offset=".2" stop-color="#fe1b00"/><stop offset=".31" stop-color="#fe3100"/><stop offset=".43" stop-color="#fd4f00"/><stop offset=".54" stop-color="#fb7600"/><stop offset=".58" stop-color="#fb8400"/><stop offset="1" stop-color="#f7ff00"/></linearGradient><linearGradient id="g" x1="514.44" y1="451.87" x2="573.27" y2="482.5" gradientUnits="userSpaceOnUse"><stop offset="0" stop-color="#ffb300"/><stop offset=".5" stop-color="#f2d45a"/><stop offset="1" stop-color="#e600ff"/></linearGradient><linearGradient id="h" x1="555.34" y1="254.67" x2="521.18" y2="370.89" gradientUnits="userSpaceOnUse"><stop offset="0" stop-color="#fffb00"/><stop offset=".05" stop-color="#f0fa0f"/><stop offset=".15" stop-color="#c9f736"/><stop offset=".3" stop-color="#89f176"/><stop offset=".47" stop-color="#32eacd"/><stop offset=".56" stop-color="#00e6ff"/><stop offset="1" stop-color="#6200ff"/></linearGradient><linearGradient id="i" x1="431.91" y1="482.9" x2="368.78" y2="334.62" gradientUnits="userSpaceOnUse"><stop offset="0" stop-color="#e1ff00"/><stop offset=".5" stop-color="#fa5700"/><stop offset="1" stop-color="#ff00f7"/></linearGradient><linearGradient id="j" x1="423.73" y1="687.79" x2="506.29" y2="788.25" gradientUnits="userSpaceOnUse"><stop offset="0" stop-color="#5900ff"/><stop offset=".5" stop-color="#db00c5"/><stop offset="1" stop-color="#ff4000"/></linearGradient><linearGradient id="k" x1="264.66" y1="609.94" x2="305.75" y2="609.94" gradientUnits="userSpaceOnUse"><stop offset="0" stop-color="#00f"/><stop offset="1" stop-color="#f0f"/></linearGradient><linearGradient id="l" x1="237.16" y1="499.87" x2="342.8" y2="552.28" gradientUnits="userSpaceOnUse"><stop offset="0" stop-color="#00ff04"/><stop offset=".06" stop-color="#01fe19"/><stop offset=".18" stop-color="#05fd50"/><stop offset=".34" stop-color="#0afaa8"/><stop offset=".5" stop-color="#0ff7ff"/><stop offset="1" stop-color="#5100ff"/></linearGradient><linearGradient id="m" x1="723.12" y1="717.37" x2="745.84" y2="681.95" gradientUnits="userSpaceOnUse"><stop offset="0" stop-color="#ff0037"/><stop offset=".39" stop-color="#ff1ce8"/><stop offset="1" stop-color="#ffc800"/></linearGradient><linearGradient id="n" x1="593.77" y1="831.53" x2="619.74" y2="874.05" gradientUnits="userSpaceOnUse"><stop offset="0" stop-color="#ea00ff"/><stop offset="1" stop-color="#ff0015"/></linearGradient></defs><g data-name="Layer 46"><path d="M531.7 209c-67.9 59.6-70.9 20.3-120.8 36.5-19.6 10.9-14.3 30.3-9.7 39.6 11.2 22.8-50.8 8.7-68.6 40.3-10.3 18.3.1 42.2-7.5 61.8s-33.8 34.7-36.8 52.2c-43.4 48.2-154 6.6-119.1 70.4 6.2 11.4 32.9-6.3 39.1 9.1 7 17.5-38.8 29.4-21.3 46.7 17.7 4.9 20.7 39.9 56.9 63.2 13.8 20 2.7 51.4 19.4 69.1 35.8 37.8 46.3-24.8 41.3-34.3 4.3-38.8 43.9-10.6 22.2 38.7-22.8 51.7 11.2 74 36.5 56.6 38.5-10.5-14.1 99.9 89.9 62.9 18.1.7 28 22.3 29.8 40.3 6.5 63 53.6 46.3 59.1 8 15.5-34.3 45.1 48.6 46.9 59.9 11.3 72.6 69.3 42 70.8 17.9 3.3-54.1-3.2-60.1 1.7-68.3 18.5-31.1 71 13.3 90.8-15.5 13.6-19.7-31.2-63.5 7.9-55.4 94 19.4 18.7-100.7 13.8-120.4-8.8-35.5 13.9-105.6 46.9-121.7 18.1-8.8 17.1-35.5 7.4-52.8s-24.9-30.6-31.4-48.9c-13.5-54.4 22.4-102.1-36-133.3a10.2 10.2 0 0 1-3.9-14.4c17.1-26.3 1.3-66.4-31.8-71.4-22.1-3.3-44.3 8.9-66.5 6.3-43.8-5.2-80.2-74.1-127-43.1Z" style="fill:#1c89ad"/><path d="M461.1 384.3c0-40.3 54-40.3 54 0s-54 40.4-54 0Z" style="fill:url(#a)"/><path d="M607.6 363.4c0-86.2 104-86.2 104 0s-104 86.2-104 0Z" style="fill:url(#b)"/><path d="M514.2 630.8c0-125.6 187-125.6 187 0s-187 125.5-187 0Z" style="fill:url(#c)"/><path d="M718.2 497.1c0-31.7 48.2-31.7 48.2 0s-48.2 31.7-48.2 0Z" style="fill:url(#d)"/><path d="M659.6 799.3c0-38.5 58.6-38.5 58.6 0s-58.6 38.5-58.6 0Z" style="fill:url(#e)"/><path d="M419.1 578.9c0-57.4 79.6-57.4 79.6 0s-79.6 57.4-79.6 0Z" style="fill:url(#f)"/><path d="M529.3 469.3c0-24.4 37-24.3 37 0s-37 24.3-37 0Z" style="fill:url(#g)"/><path d="M496.2 313c0-64.6 84-64.6 84 0s-84 64.6-84 0Z" style="fill:url(#h)"/><path d="M357.2 411.3c0-58.1 88.4-58.1 88.4 0s-88.4 58.1-88.4 0Z" style="fill:url(#i)"/><path d="M419.1 740.5c0-68.3 96-68.3 96 0s-96 68.4-96 0Z" style="fill:url(#j)"/><path d="M264.7 609.9c0-27 41.1-27 41.1 0s-41.1 27.1-41.1 0Z" style="fill:url(#k)"/><path d="M247.4 527.3c0-51.7 90-51.7 90 0s-90 51.6-90 0Z" style="fill:url(#l)"/><path d="M722.3 700.3c0-15.4 23.5-15.4 23.5 0s-23.5 15.4-23.5 0Z" style="fill:url(#m)"/><path d="M589.5 852.8c0-22.6 34.5-22.6 34.5 0s-34.5 22.5-34.5 0Z" style="fill:url(#n)"/></g><style>.st40{fill:none;stroke:#000;stroke-width:10;stroke-linecap:round;stroke-linejoin:round;stroke-miterlimit:10}.st98{opacity:.6;enable-background:new}</style><g id="Outline"><path class="st98" d="M793 537c-1 .7-1 2-.5 3 5 10 11 35 25 30 8-2 21-13 18-22.4-.5-1-2-2-3-1.5-26 12-28-11-39-9.4v.3zm-34 274.5c6 5 26 8 25-3-6-7-20.6-12-21.5-26C750 772 744 803 759 811.5zm-219.3 52s1 .5 1 .8c9 13.5-3 36-18 40-34 6-9-6-6-44 .3-5.3 22.3 2.7 23 3.2zM342 731c5 7-4 22-4 33 8 13 29.6-5 33-14.9 2-12-17-21-28-20.2-1 .1-1 1.1-1 2.1zm31-120.2c2 23-8 47-26 61.9-13 10.9-17.5-30.6-8-27.9 6 4.2 28-18.8 34-34zm-157-59.9c-8 6-17 3-25 1-11 5 4 20 13.5 16 5-4 12-9 12-15.7-.5-.2-1.5-.2-.5-1.3zM337 473c-6-10-3-23 0-34 0-1 0-2-.6-2-9-9-23 11-19.8 20.7C318 463 338 475 337 472.8v.2z"/><path class="st98" d="M326 392c-2 29 24 45 7 44-7 2-14 1-15 11-1 11-24 0-24.5-1.3C285 433 317 404.5 326 392zm103-118c-9.9-4-16-16-18-25-4-6-9.9 1-11 6-7 54 29.5 28 29 19zm293 9c16 21 29.5 12 40 20.7 3 4 1 9.6-1 14-3 9-13 9-20 4.1-14.5-5.8-22-22.2-19-38.8z"/><path class="st40" d="M347 729c53.5 5 15 86 59 102 25 9 37-19.8 55-11.9 23 10.1 19.6 40 24 60.7 9.6 46 63 29.6 58-12.8"/><path class="st40" d="M519 861c89-9 47.5 119 114.5 115 39-6 35-47 25-76.5-3-9 0-18.5 7-24.5 24.5-21 59 15.5 84-2.5 15-11 8-33-2-45-12-15 0-32 10-43"/><path class="st40" d="M790 539c53 69.8-64 71 8 194.5 6 14 11 32 11 48.5 0 32-49 47.5-61 16"/><path class="st40" d="M721 287c2 51 64 31 74 88 6 34-11.5 71 7 103 10 18 27 31.5 34 51 8 19-4 47-27 42"/><path class="st40" d="M407 290.6c-16-8-12-29.9-2-41 17-15 40.5-10 61-6 29.8 1 49-29 75-38 50-17 81 55 133 44 23-5 48-11 69 1 25 14 33 55 10 75"/><path class="st40" d="M428 278c-16 26.5-51 17.5-76 28.5-20 10.5-28 33-23 55 10 47-43 51-39 88m25 4.5c1.5-23 35-26 41-5 7 25-13 47 16 72"/><path class="st40" d="M334 476c-20-34-61-31.5-89-9.6-20 8-43-3-64 4-22 7-28 37-5 43.5 6.5 2 23-2 26-1 15 4 11 25-5 30-21 6-10 29 6 29"/><path class="st40" d="M216 554.5c-15 15-14 41 2 55 37 22 41 31 36 69.7-2 31 46 41 53.5 10 2-10.8-4-22 0-33 13-32 44 20 62-44.5"/><path class="st40" d="M327 647.9c25 29.7-.5 47-7 75-10 32.5 34 65 53 25"/><path d="M729 262.5c9 4 16 13 18 22.5m-193-68c12.5 2 24.5 8 34 16m9 9 3 3m-163 10c-5.5-.9-12 .6-15.5 4M362 319.6c-9 2-14 10.7-16 19M339 449c4 1 6 6 6 9.8M308.5 470c-12-6-16-5-22-4M175 492c1-4 5-7 9-7.5m38 89.5c-4 8 0 16 4 19.9m44 78.6c-1 6 1 15 9 18m76-77.5c-3 14-13 14.5-16 16m4.5 119.5c-5-3-9-9-8-15M397 782c-1 14.5 7 28 14 30m90 53.9c-3 12 2 27 14.5 25M636 957c14-3 17-28 11-38m96-60.1c1-7 0-14-4-19m46-49.1c8-6.5 9-25 3-39M786 582c5-8 3-19-3-26m37-12c2-8.5-.6-18-7-24m-56-169c18 6 22 30 21 35" style="opacity:.7882;fill:none;stroke:#fff;stroke-width:10;stroke-linecap:round;stroke-linejoin:round;stroke-miterlimit:10;enable-background:new"/></g><style>.st40,.st68{fill:none;stroke-width:10;stroke-linecap:round;stroke-linejoin:round;stroke-miterlimit:10;stroke:#000}.st68{opacity:.6;enable-background:new}.st102{fill:#fff}</style><g id="Eye_Tounge"><path class="st102" d="M741 663c-20.5 18-46 0-62 23-25.5 38-1.5 18 5 70.8 5 44 32 46.5 36 30.2 4-15-5-30-5-46 .5-21.5 28-31 32-52 0-8 1-18.5-6-26zm-298 24c-5.5 29-5.5 79 32 84 33 7 44 42 54 38 25-30 12-78 7.5-98.7C509.5 705 492 683 443 687z"/><linearGradient id="SVGID_00000027599348716876755490000000517666610371899790_" gradientUnits="userSpaceOnUse" x1="561.184" y1="-370.643" x2="649.184" y2="-208.643" gradientTransform="translate(0 1066)"><stop offset="0" style="stop-color:#ff00d9"/><stop offset="1" style="stop-color:#ff2600"/></linearGradient><path style="fill:url(#SVGID_00000027599348716876755490000000517666610371899790_)" d="M531 815.6c7 14 29.5 21 42 9.8 17-28 4-62 14-75 17.5-22 49-7 39.7 21-7 20.1 19 13 26 44.3 15 20 79-8 41.5-29-9.6-11-14-84-39.7-66-34 28-86-40.9-114-8C529.6 747 564 751 531 815.6z"/><path class="st102" d="M600 744c-27 21 34 40.1 24 7-3-10-13-12-24-7.4v.4z"/><path d="M584 755c-7 13.5 2 47-5 67 2 1 7-9.6 63-3.5 19 2 4-25-6.5-26-7-5-11-13-11-21.5-16.5 1-32.5-11-40.5-16.2v.2z"/><path class="st68" d="M443 690.7c9 10 23 2 34 4 20 6 28 23 55 23-9.6 33 23 36-7 86M742 669c-21 15-35 4-52 12.3s-8.5 34-35 47c-42 20.8-69-29.7-109-15"/><path class="st68" d="M428 669c19 24-10 65 23 98 29.8 29.8 30.8-5 73 51.9 30 41 55 4 92 3.1 26-1 63 18 82-8"/><path d="M662 735c2.5 6 4 13 4 20m2 12c0 2 1 3 2 4.5m-116-51.7c-2 6-2 13 0 19.7M544 815c.9-4 3-7 5-10.5M735 639c-2 6-6.5 11-12 14m-12 4c-1 0-2.5.5-4 .7M656.5 691c-1.5 9-9 17-17.5 19m-15 2c-1 0-2-.6-3-1m-105-18.5c7 5 16 6 24 3M444 664c3 5.5 8 11 15 9.6" style="fill:none;stroke:#fff;stroke-width:10;stroke-linecap:round;stroke-linejoin:round;stroke-miterlimit:10"/><path class="st40" d="M429.5 666c11 23 20 24 44.5 21 18-2 30.5 18 48 23 29.8 6 33-19.7 70 3.3 24 17 56 26 73.5-3 7-12 9-28 21-35 12-6 57.5 6 67-37.5"/><path class="st40" d="M443 685c-7 25-6 56 11 77 13 15 38 9.7 52 24 24 25 32 62 69.8 40.4 58-33 97 27 138-28 18-24-4-42 0-58 7-27 46-32 28-79"/><path class="st40" d="M541 712c-15 43 28 40.9-12 99.6M664 715c33 23 2 57 44 84.5M578 822c-4-18 13-10 3-49-6-24 31-45.8 44-22 4 7 0 16 0 23.9-.5 22 32 14 27 44"/><path class="st40" d="M594 746c-11 20 18 32 31 20"/></g><defs><linearGradient id="zi" x1="523.88" y1="415.21" x2="538.45" y2="667.96" gradientTransform="rotate(3.5 529.279 542.401)" gradientUnits="userSpaceOnUse"><stop offset="0" stop-color="#df0dff"/><stop offset=".5" stop-color="#f00c10"/><stop offset="1" stop-color="#ffe70d"/></linearGradient><linearGradient id="zi-2" x1="667.68" y1="397.6" x2="691.17" y2="649.75" gradientTransform="rotate(3.5 676.165 524.809)" gradientUnits="userSpaceOnUse"><stop offset="0" stop-color="#e70dff"/><stop offset=".23" stop-color="#eb0daf"/><stop offset=".5" stop-color="#f00c58"/><stop offset="1" stop-color="#fffb0d"/></linearGradient><style>.zi-2,.zi-5{stroke:#000;stroke-linecap:round;stroke-linejoin:round;stroke-width:10px;fill:none}.zi-2{opacity:.6}</style></defs><path d="M517.7 466.4c-25.4 24.8-5.8 53 2.8 80.3 5.1 16-4 32.7-3.9 49 .4 55.3 65.6 35 42.6-32.1-10.3-29.7-1.2-46-1.2-73.8 0-21.9-22.9-38.5-40.3-23.4Zm150-17c-25.4 24.9-5.9 53.1 2.8 80.4 5 15.9-4 32.6-3.9 49 .3 55.3 65.6 35 42.5-32.1-10.2-29.7-1.1-46-1.1-73.8 0-21.9-23-38.5-40.3-23.5Z" style="stroke-linecap:round;stroke-linejoin:round;stroke-width:10px;stroke:#000;fill:#fff"/><path class="zi-2" d="M505.1 438.3c-68.5 24.5-44.9 251.5 44.4 215.2M651.6 421c-64 34.3-44 238.9 42.6 216.9"/><path class="zi-2" d="M516.2 461.9c-36.7 30.1 7.4 72.3-.2 107.4-4.5 21-8.1 65.8 24.5 58.3m124.8-182.9c-36.6 30.2 7.4 72.4-.1 107.5-4.6 21-8.1 65.7 24.5 58.3"/><path d="M528 464c-26 15.6 4.9 63.3 27.2 38.4-4.6 14.8-.3 33.5-1.3 48.8-4 8.4-22.3 10.4-30.5 6-5.3-32.1-42.8-74.7 4.6-93.2Zm149.9-16.9c-26 15.6 5 63.3 27.2 38.4-4.5 14.8-.3 33.5-1.3 48.7-3.9 8.5-22.3 10.5-30.5 6.1-5.3-32.1-42.8-74.7 4.6-93.2Z"/><ellipse cx="531.3" cy="544.4" rx="60.1" ry="112" transform="rotate(-3.5 528.909 541.97)" style="fill:url(#zi);opacity:.74"/><ellipse cx="679.8" cy="527.5" rx="60.1" ry="112" transform="rotate(-3.5 676.845 525.196)" style="fill:url(#zi-2);opacity:.74"/><ellipse class="zi-5" cx="531.3" cy="544.4" rx="60.1" ry="112" transform="rotate(-3.5 528.909 541.97)"/><ellipse class="zi-5" cx="679.8" cy="527.5" rx="60.1" ry="112" transform="rotate(-3.5 676.845 525.196)"/><path d="M533.6 449.9a123.1 123.1 0 0 1 34.4 69.3m2.3 16.6a84.3 84.3 0 0 1 .6 10.1m113.2-111c18.2 16.8 30.5 44.1 35 79.3m3.1 13.8a36.8 36.8 0 0 1 .1 11" style="stroke:#fff;fill:none;stroke-linecap:round;stroke-linejoin:round;stroke-width:10px"/><style>.st40{fill:none;stroke-width:10;stroke-linecap:round;stroke-linejoin:round;stroke-miterlimit:10;stroke:#000}</style><g id="Flame_Halo"><linearGradient id="SVGID_00000161599887772636497190000018358745444819511700_" gradientUnits="userSpaceOnUse" x1="509.55" y1="997.092" x2="552.552" y2="737.079" gradientTransform="matrix(1 0 0 -1 0 1100)"><stop offset="0" style="stop-color:#f04"/><stop offset=".113" style="stop-color:#ff0642"/><stop offset=".265" style="stop-color:#ff173b"/><stop offset=".441" style="stop-color:#ff3431"/><stop offset=".634" style="stop-color:#ff5c23"/><stop offset=".839" style="stop-color:#ff8e10"/><stop offset="1" style="stop-color:#fb0"/></linearGradient><path style="fill:url(#SVGID_00000161599887772636497190000018358745444819511700_)" d="M309 217.8c-4 34 15 83.5 56 73 21 2 29 34 49 35 9 1 17-5 26-7 20-4 38.5 14 59 14 19.6 0 36-15 56-17 16-1 33 7 48 3 18-5 28-23.5 44.5-31.5 29-11.5 55-3 65.5-38.9 19-28 45.5-41 27-80.5-6.5 18-25 24-29 1-14.5-27-49.9-4-73-8-17-3-30-22-27-39.1-11.5 14-27 30.8-47 27-8-1.5-15-7-23.5-7-13 0-22 12-34 18-19 9-28-8-26-25.6-19 11-17 28-17 47-7 19-21 0-24-11-61 73-33-4-80-10 29 46 1.5 84-48 53.8 21 22 100 46 104 29 6-13 19-23 31.5-28 24-8 53 2 75-10.9 40.8-24 34.5 14 76-.9 17-12 80.9-19.9 53 17-9.6-3-15-20.8-27-16 0 42-24 54-60 34-5.5-2-10 1-12 6.3-14 17-29.9-4-30.7-19.5-9 13-16 48-35.5 44-6-2-9.5-9-16-10.7-5.5-2-11 1-16 3.4-24 11-17-17-33.5-26.2L309 217.8z"/><path class="st40" d="M308.5 212c-7 30 6.5 80.5 43 81 16-5 29 5 39 17.5 35 38 36-12 76 10.7 44.5 25 51-2 90.6-5 13 .5 24 8 37 7 23-2 35-30 57-38 16-5.8 36 .5 49-11.1 9-8 9-21 16-31 6-9 17-14 23-21.9 17-21 7-50-3-72 9.6 34-22 45-26 22.7-19.8-43-103 33-99-57-11 23-44 49-67 27-20-9-33.5 28-54 21-14-6-12-24-8-35.6-17 13-22 25-18 46-2 26-27 15-26-6-71 85-27-11-85.5-8.5 18 18.5 22 57-6 66.7C337 228 318 218 308.5 212z"/><path class="st40" d="M386 224c7 49 35 37 24 11 11 3.5 17 14 22 24 16 19.5 21-14 46 5.9 32 18 20.9-22 46-46.5-2 10.6-2 24 8 30.9 12.5 6 15-2 21-10 5-4 12 1 17.5 3.9 34 19 64-11 46-44.9 5 4.5 16 10 32 24 5-16 13-31 23-44.9 1 8-6 23.5 6 26"/><path class="st40" d="M656 196.9c-29-14-45.5 6-72 9-18.5 2-38-18-55-8-53 31-70.6-9.7-109.6 39"/><path d="M402 252c3 0 5-3 5-6.4s-.6-6 .5-9c.7-2 2-3 4-4.9 11-11 23-23 38-27 17-5 36 0 53-4 15.5-4 30-14 46-12 8 1 15 5 23 7.6 8 3 17 4 23 0 10-4 21-8 32-9s23 0 33 5" style="opacity:.6;fill:none;stroke:#000;stroke-width:10;stroke-linecap:round;stroke-linejoin:round;stroke-miterlimit:10;enable-background:new"/><path d="M736 195c1 6.5-1 13-5 18m-9 7-3 3m-30-53c5 0 9 3 11 7m-379 58c2 11 6 22 12 31m7.9 11 2.6 2M538 153c-5 3-10 7-14 12M401 302c4 5 10 8.5 17 8m61.7 3c12.5 5 27 5 39.6 0m11.3-5 4.4-1m52 2.6c9 1 18-4 23-10.8m67-29.8c8 1 16-4 19-10.9" style="fill:none;stroke:#fff;stroke-width:10;stroke-linecap:round;stroke-linejoin:round;stroke-miterlimit:10"/></g><circle cx="550" cy="550" r="500" style="fill:none;stroke:#000;stroke-width:10;stroke-linecap:round;stroke-linejoin:round;stroke-miterlimit:10"/></svg>