<svg version="1.1" id="Layer_1" xmlns="http://www.w3.org/2000/svg" x="0" y="0" viewBox="0 0 1100 1100" style="enable-background:new 0 0 1100 1100" xml:space="preserve" xmlns:xlink="http://www.w3.org/1999/xlink"><style type="text/css">.st303{fill:#FED907;stroke:#000000;stroke-width:10;stroke-linecap:round;stroke-linejoin:round;stroke-miterlimit:10;}</style><circle class="st303" cx="550" cy="553.7" r="500"/><radialGradient id="a9" cx="560.657" cy="569.423" r="93.351" gradientTransform="matrix(1 0 0 3.2533 0 -1281.846)" gradientUnits="userSpaceOnUse"><stop offset="0" style="stop-color:#00f2ff"/><stop offset="1" style="stop-color:#370080"/></radialGradient><path style="fill:url(#a9)" d="M533 210.7c-68 59.6-71 20-121 36.5-19.6 10.9-14 30-9.7 39.6 11 23-51 9-69 40.3-10 18 .1 42-7.5 61.8-9 19.6-34 35-37 52.2-43 48-154 7-119 70.4 6 11 33-6 39 9.1 7 17.5-39 29-21 46.7 18 5 21 39.9 57 63.2 14 20 3 51 19 69.1 35.8 38 46-25 41-34.3 4-39 44-11 22 38.7-23 52 11 74 36.5 56.6 24-9 13 39 23 50.9 19.5 37 55 12 67 12 18 1 28 22 29.8 40.3 6.5 63 54 46 59 8 15.5-34 45 49 47 59.9 11 73 69 42 71 17.9 3-54-3-60.1 2-68.3 18.5-31 71 13 90.8-15.5 14-19.7-31-63.5 8-55.4 94 19 19-101 14-120.4-9-35.5 14-106 47-121.7 18-9 17-35.5 7-52.8-9.5-17-25-30.6-31-48.9-13.5-54 22-102-36-133.3-5-3-7-9.5-4-14.4 17-26 1-66-32-71.4-22-3-44 9-66.5 6.3-43.4-4.8-79.5-74.1-126.4-43.1z"/><radialGradient id="b5" cx="553.285" cy="308.14" r="3.115" gradientTransform="matrix(30.3532 0 0 7.6359 -16163.282 -1999.622)" gradientUnits="userSpaceOnUse"><stop offset="0" style="stop-color:#00f2ff"/><stop offset="1" style="stop-color:#370080;stop-opacity:0"/></radialGradient><ellipse style="fill:url(#b5)" cx="635" cy="353" rx="83.5" ry="47.5"/><radialGradient id="c4" cx="685.268" cy="483.405" r="2.167" gradientTransform="matrix(16.0015 0 0 8.3553 -10251.582 -3523.179)" gradientUnits="userSpaceOnUse"><stop offset="0" style="stop-color:#00f2ff"/><stop offset="1" style="stop-color:#370080;stop-opacity:0"/></radialGradient><ellipse style="fill:url(#c4)" cx="715" cy="515.5" rx="30.5" ry="36"/><radialGradient id="d4" cx="417.82" cy="724.757" r="2.666" gradientTransform="matrix(25.7894 0 0 8.8738 -10290.887 -5668.355)" gradientUnits="userSpaceOnUse"><stop offset="0" style="stop-color:#00f2ff"/><stop offset="1" style="stop-color:#370080;stop-opacity:0"/></radialGradient><ellipse style="fill:url(#d4)" cx="488" cy="763" rx="71.5" ry="34.5"/><radialGradient id="e4" cx="525.562" cy="453.385" r="2.733" gradientTransform="matrix(2.3275 0 0 1.7985 -693.718 -358.824)" gradientUnits="userSpaceOnUse"><stop offset="0" style="stop-color:#00ff48"/><stop offset="1" style="stop-color:#7300ff;stop-opacity:0"/></radialGradient><circle style="fill:url(#e4)" cx="529.5" cy="457" r="5.5"/><radialGradient id="f4" cx="492.648" cy="546.297" r="1.723" gradientTransform="matrix(5.2809 0 0 5.0294 -2100.605 -2192.76)" gradientUnits="userSpaceOnUse"><stop offset="0" style="stop-color:#f700ff"/><stop offset="1" style="stop-color:#7300ff;stop-opacity:0"/></radialGradient><circle style="fill:url(#f4)" cx="501" cy="555" r="9"/><radialGradient id="g2" cx="642.36" cy="683.471" r="2.175" gradientTransform="matrix(4.189 0 0 4.4069 -2039.596 -2318.762)" gradientUnits="userSpaceOnUse"><stop offset="0" style="stop-color:#ff006a"/><stop offset="1" style="stop-color:#7300ff;stop-opacity:0"/></radialGradient><circle style="fill:url(#g2)" cx="651" cy="693" r="10"/><radialGradient id="h2" cx="631.016" cy="564.413" r="1.923" gradientTransform="matrix(1.8774 0 0 1.767 -550.874 -430.127)" gradientUnits="userSpaceOnUse"><stop offset="0" style="stop-color:#ff0"/><stop offset="1" style="stop-color:#7300ff;stop-opacity:0"/></radialGradient><circle style="fill:url(#h2)" cx="634" cy="567" r="3.5"/><radialGradient id="i2" cx="586.567" cy="520.158" r=".454" gradientTransform="translate(-1669.963 -1480.415) scale(3.851)" gradientUnits="userSpaceOnUse"><stop offset="0" style="stop-color:#ff2600"/><stop offset="1" style="stop-color:#7300ff;stop-opacity:0"/></radialGradient><circle style="fill:url(#i2)" cx="589" cy="523" r="2"/><radialGradient id="j2" cx="421.591" cy="470.614" r="2.51" gradientTransform="matrix(3.2467 0 0 3.9604 -939.96 -1384.463)" gradientUnits="userSpaceOnUse"><stop offset="0" style="stop-color:#00ffea"/><stop offset="1" style="stop-color:#7300ff;stop-opacity:0"/></radialGradient><circle style="fill:url(#j2)" cx="429" cy="479" r="9"/><style>.st40{fill:none;stroke:#000;stroke-width:10;stroke-linecap:round;stroke-linejoin:round;stroke-miterlimit:10}.st98{opacity:.6;enable-background:new}</style><g id="Outline"><path class="st98" d="M793 537c-1 .7-1 2-.5 3 5 10 11 35 25 30 8-2 21-13 18-22.4-.5-1-2-2-3-1.5-26 12-28-11-39-9.4v.3zm-34 274.5c6 5 26 8 25-3-6-7-20.6-12-21.5-26C750 772 744 803 759 811.5zm-219.3 52s1 .5 1 .8c9 13.5-3 36-18 40-34 6-9-6-6-44 .3-5.3 22.3 2.7 23 3.2zM342 731c5 7-4 22-4 33 8 13 29.6-5 33-14.9 2-12-17-21-28-20.2-1 .1-1 1.1-1 2.1zm31-120.2c2 23-8 47-26 61.9-13 10.9-17.5-30.6-8-27.9 6 4.2 28-18.8 34-34zm-157-59.9c-8 6-17 3-25 1-11 5 4 20 13.5 16 5-4 12-9 12-15.7-.5-.2-1.5-.2-.5-1.3zM337 473c-6-10-3-23 0-34 0-1 0-2-.6-2-9-9-23 11-19.8 20.7C318 463 338 475 337 472.8v.2z"/><path class="st98" d="M326 392c-2 29 24 45 7 44-7 2-14 1-15 11-1 11-24 0-24.5-1.3C285 433 317 404.5 326 392zm103-118c-9.9-4-16-16-18-25-4-6-9.9 1-11 6-7 54 29.5 28 29 19zm293 9c16 21 29.5 12 40 20.7 3 4 1 9.6-1 14-3 9-13 9-20 4.1-14.5-5.8-22-22.2-19-38.8z"/><path class="st40" d="M347 729c53.5 5 15 86 59 102 25 9 37-19.8 55-11.9 23 10.1 19.6 40 24 60.7 9.6 46 63 29.6 58-12.8"/><path class="st40" d="M519 861c89-9 47.5 119 114.5 115 39-6 35-47 25-76.5-3-9 0-18.5 7-24.5 24.5-21 59 15.5 84-2.5 15-11 8-33-2-45-12-15 0-32 10-43"/><path class="st40" d="M790 539c53 69.8-64 71 8 194.5 6 14 11 32 11 48.5 0 32-49 47.5-61 16"/><path class="st40" d="M721 287c2 51 64 31 74 88 6 34-11.5 71 7 103 10 18 27 31.5 34 51 8 19-4 47-27 42"/><path class="st40" d="M407 290.6c-16-8-12-29.9-2-41 17-15 40.5-10 61-6 29.8 1 49-29 75-38 50-17 81 55 133 44 23-5 48-11 69 1 25 14 33 55 10 75"/><path class="st40" d="M428 278c-16 26.5-51 17.5-76 28.5-20 10.5-28 33-23 55 10 47-43 51-39 88m25 4.5c1.5-23 35-26 41-5 7 25-13 47 16 72"/><path class="st40" d="M334 476c-20-34-61-31.5-89-9.6-20 8-43-3-64 4-22 7-28 37-5 43.5 6.5 2 23-2 26-1 15 4 11 25-5 30-21 6-10 29 6 29"/><path class="st40" d="M216 554.5c-15 15-14 41 2 55 37 22 41 31 36 69.7-2 31 46 41 53.5 10 2-10.8-4-22 0-33 13-32 44 20 62-44.5"/><path class="st40" d="M327 647.9c25 29.7-.5 47-7 75-10 32.5 34 65 53 25"/><path d="M729 262.5c9 4 16 13 18 22.5m-193-68c12.5 2 24.5 8 34 16m9 9 3 3m-163 10c-5.5-.9-12 .6-15.5 4M362 319.6c-9 2-14 10.7-16 19M339 449c4 1 6 6 6 9.8M308.5 470c-12-6-16-5-22-4M175 492c1-4 5-7 9-7.5m38 89.5c-4 8 0 16 4 19.9m44 78.6c-1 6 1 15 9 18m76-77.5c-3 14-13 14.5-16 16m4.5 119.5c-5-3-9-9-8-15M397 782c-1 14.5 7 28 14 30m90 53.9c-3 12 2 27 14.5 25M636 957c14-3 17-28 11-38m96-60.1c1-7 0-14-4-19m46-49.1c8-6.5 9-25 3-39M786 582c5-8 3-19-3-26m37-12c2-8.5-.6-18-7-24m-56-169c18 6 22 30 21 35" style="opacity:.7882;fill:none;stroke:#fff;stroke-width:10;stroke-linecap:round;stroke-linejoin:round;stroke-miterlimit:10;enable-background:new"/></g><style>.st40,.st68{fill:none;stroke-width:10;stroke-linecap:round;stroke-linejoin:round;stroke-miterlimit:10;stroke:#000}.st68{opacity:.6;enable-background:new}</style><g id="Eye"><linearGradient id="SVGID_00000144327888440828662330000012949225208094602647_" gradientUnits="userSpaceOnUse" x1="232.314" y1="-555.531" x2="336.458" y2="-482.43" gradientTransform="translate(0 1066)"><stop offset="0" style="stop-color:#00ff04"/><stop offset=".811" style="stop-color:#00fccf"/><stop offset="1" style="stop-color:#00fbff"/></linearGradient><path style="fill:url(#SVGID_00000144327888440828662330000012949225208094602647_)" d="M278 494c-31 10.8-13 49-9.5 56 8 16-9 32.5 9 50.8 9 9 46 8 40.7-31-2-13-13-23-13.5-35.8-.7-21-3.7-48-26.7-40z"/><path d="M273 498c-6.5 9-1 22 4 30.8 6 8 13 15 14 25 2 14-6 31 3 43.7 15 18 30.6-23 23-35-3-7-8-13.5-10-20.8-5-16 2-45-21-49" style="opacity:.5098;fill:#fff;enable-background:new"/><path class="st68" d="M274 516c9 24.5 14 39 18 64"/><path class="st40" d="M278 494c-31 10.8-13 49-9.5 56 8 16-9 32.5 9 50.8 9 9 46 8 40.7-31-2-13-13-23-13.5-36C304 513 301 486 278 494z"/><path class="st40" d="M282 526c6 17 10.5 35 14 53"/><path d="M279 515c1 4 2 7 3.5 11m24.5 46.9c1 5 1.5 13-5 19" style="fill:none;stroke:#fff;stroke-width:10;stroke-linecap:round;stroke-linejoin:round;stroke-miterlimit:10"/><path class="st68" d="M264 495.9c-15.5 19-6 44 1 65 3 9-3 18-1 27 4 24 31 31 46 12"/></g><defs><linearGradient id="zl" x1="574.42" y1="410.83" x2="618.38" y2="675.51" gradientUnits="userSpaceOnUse"><stop offset="0" stop-color="#00ff19"/><stop offset=".22" stop-color="#00fa46"/><stop offset=".7" stop-color="#00eeb6"/><stop offset="1" stop-color="#00e6ff"/></linearGradient><style>.zl-3{fill:none;stroke-linecap:round;stroke-linejoin:round;stroke-width:10px;stroke:#000}</style></defs><path d="M746.4 534.9c13.5 7.2 27.2-7.7 21.7-22.5-4.6-12.5-17-13.9-17-35.5 0-45.9-85.7-81.3-142.9-1.3-25.4 35.5-44.1-49.3-124-44.7-38.6 2.2-84.3 38.4-70.1 76.9 31 84.2 9.1 85.6 18.1 107.2 5.8 13.7 26.8 18.9 35.1 4.2 19.3 25.5 52.7 36.3 76.4 9.9 57.9 26.7 37.8-55 32.1-74.1-3.2-45.4 46.6-36.5 51.6-5.4 2.6 16.2-3.4 85.5 34.5 44.1 8.8 6 10.9 17.4 16.6 25.9 16.3 24.1 45.5 11.2 42.2-17 41.4 1.7 44.3-39.2 25.7-67.7Z" style="fill:url(#zl)"/><path d="M438.8 449.7a25.8 25.8 0 0 1 3.2 5.3l40.5 89.1 14.5-19.4 34 113.4s15.8-8.2 16.6-6.9c13.2 12.2 32.4-1.9 37.5-15.9l-86.3-125.8-11.2 26-25.8-78.5m180 6.5 1.7 3.3 17.9 81.5 13.3-14.7s20.7 118 20.7 118.8c22.6 2.6 24.8-13.8 24.4-31.7 8.1 1.5 14.9-1 21.4-5l-63.5-114.4-9.1 21.6-4-70.7" style="fill:#fff;opacity:.47"/><path class="zl-3" d="M458.7 607.4c9.5 6.5 14.6 17.9 23 25.8 17.5 16.1 46.2 12.8 62-4.2 4.3-4.6 8-10 13.6-12.8"/><path class="zl-3" d="M546 629c16.3 20.4 42.6-2.4 40.4-24.8-1.8-19.2-13.8-36.8-11.7-56 4.9-44.6 58.3-24.1 53.7 12.5-7.8 60.9 32.4 47.9 32.4 31.3"/><path class="zl-3" d="M653.4 587.4c25.2 6.3 18.1 44.5 44.5 45.9 11.1.6 24.3-10.8 22.6-25.1-1.2-10.5-9.2-13.3-6-24.3m5.2 15.7c19.4 6.2 39.7-10.2 39.6-30.5-.1-17.6-18.1-30.4-17.3-47.5"/><path class="zl-3" d="M746.4 534.9c13.5 7.2 27.2-7.7 21.7-22.5-4.6-12.5-17-13.9-17-35.5 0-45.9-56.4-50.9-75.3-47.5s-32.8 11.4-67.6 46.2c-30.9 30.9-44.1-49.3-124-44.7-38.6 2.2-84.3 38.4-70.1 76.9 31 84.2 9.1 85.6 18.1 107.2 5.8 13.7 26.8 18.9 34.5 4.6"/><path d="M428.9 449.8c-51.5 33.4 2.4 85.8-3.3 135.8-1.6 14-2.6 35.5 14.5 39.7m17.6-18.2c1.8 5.9 2.6 12.4-.2 17.8m100.2-8.6c-2.4 5.2-4.6 11.2-2.8 16.8m98-45.3a19.7 19.7 0 0 1-1.7 15.4m63.6-18.4c3.6 7 9.7 13.6 17.8 14.8m9.6-78.8a23.7 23.7 0 0 0 16.6 14.6m-292.7 90.2c7.1 9.4 17.8 19 30.4 16.6m45.9-9.1c7.6 6.5 19.7 6.8 28.5 1m28.9-109.4c42.3 24.6 7.5 57.5 35.3 77.9m26.3-2.6c8.7 9.5 10.9 24.3 22 32.1 7 4.9 17.3 5.9 23.4-.7" style="opacity:.6;stroke:#000;fill:none;stroke-linecap:round;stroke-linejoin:round;stroke-width:10px"/><path d="M711.8 447.7a25.1 25.1 0 0 1 18.5 15.2m4 11.6.1 2.6m19 34.3a16.1 16.1 0 0 1 3.3 8.1M743.4 560a20.2 20.2 0 0 1-1 18.5m-6.3-31.4 1.6 2.6m-31.6 53.7a15 15 0 0 1-2.1 15m-60.7-25.8a17 17 0 0 1-3.5-12.3m-133-132.9a67.2 67.2 0 0 1 34.6 19.8m-51.1-21a32.6 32.6 0 0 0-10.3.7m92.3 152.7a22.1 22.1 0 0 1-.5 14.8m-4.1-29.3.9 2m-32.4 30c-4.2 4.9-9.8 9-16.2 9.5m-12 2.7-2.9-.8m-60.4-17a13.3 13.3 0 0 1-1-12.1" style="stroke:#fff;fill:none;stroke-linecap:round;stroke-linejoin:round;stroke-width:10px"/><defs><linearGradient id="fuz" x1="460.47" y1="141.95" x2="539.33" y2="1020.83" gradientUnits="userSpaceOnUse"><stop offset="0" stop-color="#0af"/><stop offset=".56" stop-color="#9149dd"/><stop offset="1" stop-color="#ff00c3"/></linearGradient><linearGradient id="fuz-2" x1="666.07" y1="237.03" x2="675.85" y2="303.04" gradientUnits="userSpaceOnUse"><stop offset="0" stop-color="#28e0ed"/><stop offset=".09" stop-color="#32d6ed"/><stop offset=".26" stop-color="#4db9ee"/><stop offset=".47" stop-color="#798cef"/><stop offset=".73" stop-color="#b64cf0"/><stop offset="1" stop-color="#ff00f2"/></linearGradient><linearGradient id="fuz-3" x1="664.36" y1="216.88" x2="674.14" y2="289.38" gradientUnits="userSpaceOnUse"><stop offset="0" stop-color="#ff24f4"/><stop offset="1" stop-color="#d3ff24"/></linearGradient><linearGradient id="fuz-4" x1="662.71" y1="188.53" x2="682.52" y2="261.89" gradientUnits="userSpaceOnUse"><stop offset="0" stop-color="#0962b5"/><stop offset=".18" stop-color="#3152b5"/><stop offset=".59" stop-color="#952ab6"/><stop offset="1" stop-color="#ff00b7"/></linearGradient><linearGradient id="fuz-5" x1="661.77" y1="163.79" x2="699.36" y2="230.28" gradientUnits="userSpaceOnUse"><stop offset="0" stop-color="#37ff00"/><stop offset="1" stop-color="#1487d9"/></linearGradient><linearGradient id="fuz-6" x1="649.65" y1="145.56" x2="683.1" y2="201.99" gradientUnits="userSpaceOnUse"><stop offset="0" stop-color="#ed287e"/><stop offset="1" stop-color="#ffca4f"/></linearGradient><linearGradient id="fuz-7" x1="630.56" y1="130.61" x2="680.87" y2="163.16" gradientUnits="userSpaceOnUse"><stop offset="0" stop-color="#0affca"/><stop offset=".09" stop-color="#11f8ca"/><stop offset=".22" stop-color="#26e3ca"/><stop offset=".39" stop-color="#48c1ca"/><stop offset=".57" stop-color="#7792ca"/><stop offset=".77" stop-color="#b356ca"/><stop offset=".99" stop-color="#fb0eca"/><stop offset="1" stop-color="#ff0aca"/></linearGradient><linearGradient id="fuz-8" x1="611.32" y1="127.94" x2="669.91" y2="147.25" gradientUnits="userSpaceOnUse"><stop offset="0" stop-color="#ef0"/><stop offset="1" stop-color="#ff2f00"/></linearGradient><linearGradient id="fuz-9" x1="589.26" y1="146.77" x2="639.84" y2="146.77" gradientTransform="matrix(.99 .12 -.12 1 31.68 -73.49)" gradientUnits="userSpaceOnUse"><stop offset="0" stop-color="#2600ff"/><stop offset="1" stop-color="#ff00d9"/></linearGradient><linearGradient id="fuz-10" x1="525.83" y1="253.16" x2="535.61" y2="319.17" gradientTransform="rotate(-6.7 505.783 218.171)" xlink:href="#fuz-2"/><linearGradient id="fuz-11" x1="524.05" y1="233.07" x2="533.84" y2="305.66" gradientTransform="rotate(-6.7 505.783 218.171)" xlink:href="#fuz-3"/><linearGradient id="fuz-12" x1="521.66" y1="205.19" x2="541.63" y2="279.16" gradientTransform="rotate(-6.7 505.783 218.171)" xlink:href="#fuz-4"/><linearGradient id="fuz-13" x1="520.71" y1="180.58" x2="559.65" y2="249.48" gradientTransform="rotate(-6.7 505.783 218.171)" xlink:href="#fuz-5"/><linearGradient id="fuz-14" x1="507.98" y1="161.66" x2="542.5" y2="219.88" gradientTransform="rotate(-6.7 505.783 218.171)" xlink:href="#fuz-6"/><linearGradient id="fuz-15" x1="488.34" y1="145.62" x2="543.54" y2="181.34" gradientTransform="rotate(-6.7 505.783 218.171)" xlink:href="#fuz-7"/><linearGradient id="fuz-16" x1="464.73" y1="142.36" x2="531.53" y2="164.37" gradientTransform="rotate(-6.7 505.783 218.171)" xlink:href="#fuz-8"/><linearGradient id="fuz-17" x1="443.03" y1="179.04" x2="499.6" y2="179.04" gradientTransform="matrix(.99 0 0 1.01 .8 -16.2)" xlink:href="#fuz-9"/><style>.fuz-18,.fuz-20{fill:none;stroke-linecap:round;stroke-linejoin:round;stroke-width:10px;stroke-dasharray:0 0 0 0 0 0;stroke:#000}.fuz-18{opacity:.6}</style></defs><path d="M272.2 336.9c22.9-8.6 27.6-36.5 41.4-54.2 11.8-15.1 30.2-23.6 42.8-38.1-5.6-6.5-15.4-7.2-23.3-9.4 16.9-23.9 53.4-32.4 80.7-37.2-.6-4.5-4.8-8.6-8.5-11.1 11.4-4.8 23.6-2.9 35.3-.8 16.3-82.4 109.1-106.4 135.8-16.7 38.8-2.3 2.5-19.2 63.1-65.6 50.6-26.7 79.1 40.7 79.7 81.9 49.4 6.6 43.8 1.1 79.3 34.2a151.2 151.2 0 0 1-25 3.9c93.2 52.3 53.6 90.9 106.7 164-9.6 2.4-18.4-3.3-27.4-4.1-.5 26.5 20 48.6 22.6 74-4.1 34.2 0 57.1 18 87.4-4.8 4.1-14.4-.7-20.3-1.3 2.1 10.4 4.5 21.4 11.7 29.2a35.1 35.1 0 0 1-21.9-2.3c-7.6 22.2 23.5 64.9 10.5 97-2.1 17 1.6 34.2 7.1 50.4-7.7 2.3-16.3 1.2-22.4-3.5 6.4 39.4-20 79.4-5.6 119.3a39.8 39.8 0 0 1-31.6-19.2c-16.7 8.8-19.5 32.9-29.6 47.9-11.4 19.1-33.2 33-37.3 56a37 37 0 0 1-10.4-14.6c-18.1 7.3-25.4 25.5-34.2 41.3-10.2 13-34.8 16.8-35.6 36.1a33.8 33.8 0 0 1-8-19.9 77.6 77.6 0 0 0-19.2 34.9 131.2 131.2 0 0 0-59-32c.2 9.8-5.8 19.5-14.7 24-26.4-58.1-62.4-54.7-111.8-78.5-20-12.2-33.5-32.7-52-47a93.6 93.6 0 0 1-13.8 23.3c-20.7-71.5-66.6-47-103.6-106.9-5.2 4.7-11.3 10-18.3 13-2.1-29.1-26.7-50.2-28.9-79.2 5.6-20 13.9-43.4 1.9-62.5-6.4 3.7-7.2 19.1-10.6 26-19.1-29.5-57.3-22.1-78.9-47.1-9.3-10.9-13-25.8-22.9-36.1-9.1 4-19.9 7.1-30.2 5.7 26.4-48.9-23.5-110.9 27-144.6-5.1-4.5-10.1-10.3-12.1-17.1 47 4.3 72.7-46.7 116.2-32.2 2.1-7.3 4.3-14.3 6.9-21a47.8 47.8 0 0 0 22.5 23.2c7.1-8.7 8.9-39.2 28.9-62.8a31 31 0 0 1-21-7.7ZM792 496c-5.7-5.7-16.7-4.5-21.4 1.5 49.5-84 7.5-150.6-89.3-159.4-54-4.9-125-15.7-184.7 4.3s-135 53.2-137.9 128.9c-1.7 44.4 27.2 48.4 23.6 105.8-4.5-5.5-9.5-11.2-16.3-13.2l-1.9-9.9c-11.1 34.2 18 41-.7 89.7-13.3 34.8-6.7 93.3 32.7 108.6 15.6 6 24 9.5 34.9 22.1-5.7-1.5-25.4-4.1-25.4-4.1 29.1 30.9 68.3 57.9 109.2 68C634.7 944.6 741 825 766.1 739c0 0 11.9-43.8 5.3-87.1-7.4-48.2 18.7-98.8 24.3-170.8" style="fill:url(#fuz)"/><path d="M596.5 162.5c35.9 21.3 35.4-29.1 31.9 56.5-21.8 123.1 100.3 91.5 91.9-5.2-16.2-187.3-114.1-106.2-123.8-51.3Z" style="fill:url(#fuz-2)"/><path d="M625.8 254.7c4.2 8.5 13.8 17.1 22.1 10.1 3.8-3.7 7.1-13.5 13-10.3 6.1 6.8-.3 27.7 13.7 26.4 3.8-1 4.3-5.3 3.9-9.4-1.2-13.2 11 1.1 16.8-5.3 5.8-4.1-.9-13.9 5.5-17 2.6-1.3 6.9.4 8.5-3.2s-1-5.6.1-8 5.9 2.5 6.2.7c23.6-128.3-69.4-199.4-117.4-82.3-5 15.8 22.1 8.6 29.5 12.4 7.4 16.6-1.6 63-1.9 85.9Z" style="fill:url(#fuz-3)"/><path d="M628.4 228c-.5 19 21.7 29.4 30.6 11.2 1.9-4.8 3.6-13.8 9.5-12.5 6.3 3.1 2.7 13.7 2.9 20 .8 24 26.9 11 12.7-7.9-.9-2.8.1-6.9 2.6-7.2s4.2 5.5 5.7 8.4a6.2 6.2 0 0 0 10.4.7c5.3-5.9-3.5-22.7 6.1-24.7 3.3 1.1 1.2 8.7 4.9 9.2 11.9-8.9-3.4-70.7-6.2-84.7-14.8-74-102.9-39.8-109.4 24C630 177 631 135.4 628.4 228Z" style="fill:url(#fuz-4)"/><path d="M631.6 212.8c-.6 16.6 26.5 23.1 28.6 4.1-.1-4.5-2.4-13 3.3-14.1s2.6 20.2 15.1 15.8c7.9-5.7-.6-15.5 1.9-22.2 5.2-6.9 11.4 3.2 8.9 9.8s-5.3 14.8-.2 19.8c3.4 3.3 9.3.3 11.3-4.6 5.4-13.4-9.8-24.8-5.6-37.9 1.2-2.5 3.9-4.2 6-3.1 6 3.8-.8 13.8 2 19.4 23.8 17.5 11.4-57.2 3.9-66-24.7-59.3-93.9-33.1-109.6 23.8-4.2 15.3 47.8-19.6 34.4 55.2Z" style="fill:url(#fuz-5)"/><path d="M632 197.6c4.2 10.9 19.5 17 22.3 1.2-.5-6.3.1-15.8 7.5-11.9 3.6 4.4 4.8 14.4 11.9 7.9 8.5-9.3-5.9-20.6 1.3-28.6 4.9-3.7 7.8 3.2 6.1 8.4-.6 3-1.4 6.7.3 9.1 3.4 4.8 9.9-.4 9.5-6.2.4-8.2-9-11.8-8-19.9.3-2.4 2.3-4.7 4.4-4.4 4.7 1.5 7.4 13.5 14.3 5.4 2.6-6.4-3.6-17.2 6.5-19-23.1-72.4-97.5-39.9-111.7 25.3 10.7 2.3 20.5.3 31.2 2.5 2 8 0 22.3 4.4 30.2Z" style="fill:url(#fuz-6)"/><path d="M633.6 188.5c6.5 7.8 18.1 6.8 15.9-6.9-1.6-4.5.4-11.4 5.3-9 3.5 3.9 6.7 8.8 10.9 1.8 3.8-9.4-6.5-15.7-6.4-24.7-.2-3.1 2.7-5.2 5.1-4.1 4.1 1.6 4.4 8.9 8.5 10.1s5.5-2.7 5.8-6c1-8.4-11.7-13.7-6.4-22.1 9.1-6.2 8.1 9.5 12.4 13 2.5 2 6.6.1 7.5-3.4.8-6.8-6.3-15.8 3-19.5-78.3-68.7-73 44.8-61.6 70.8Z" style="fill:url(#fuz-7)"/><path d="M633.1 179.1c3.3 4.6 10.2 5.2 11.3-1.9s-10.6-18.9 4.4-16c3.1-.1 5.8-3.9 5.2-7.4-1.1-6.1-12.9-9.9-7-17.2 1.5-1.3 3.6-.7 5.4-1 8.1-1.3 8.1-15.3.3-16.7-16 1.7-9.7-16.3 1.3-9.3 3.4 2.2 5.7 6.2 9.4 7.7 6.5 2 10.2-7.2 6.9-13-25.4-25.6-72 30.2-72.7 61 6.7.2 30.6-5.1 35.5 13.8Z" style="fill:url(#fuz-8)"/><path d="M621.6 119.2c1.9-1.8 5.6-3 6.7.2.6 1.7-.4 3.5-1.2 5-2.1 3.6.3 7.3 3.7 5.1s8-7.2 12.9-6.3 4.4 10-1.6 10.7c-4 .2-12.3 2.4-9.4 8.8 2.8 2.9 9.9.3 10.1 6.9-.9 8.3-5.7 3.2-9 4.9-3.1 3.8 2.5 6.7 4.3 9 3.1 4.6-3.1 13.3-7.2 9.4s-29.5-7.3-38-10c1.5-6.3 19.7-34.8 28.7-43.7Z" style="fill:url(#fuz-9)"/><path d="M444.6 184.5c42.7 16.8 35.5-32.9 42.8 52.1-8 124 123.4 78.7 101.4-15.9-42.5-182.8-140.6-91.6-144.2-36.2Z" style="fill:url(#fuz-10)"/><path d="M489.3 272.1c5.7 7.9 17.5 15.3 25.8 7.3 3.7-4 6.1-14.1 13.1-11.6 7.7 6 3.2 27.4 18.7 24.5 4-1.5 4.1-5.7 3.1-9.7-3.1-12.9 12.4-.3 17.9-7.2 5.9-4.8-2.7-13.7 3.9-17.5 2.8-1.6 7.7-.4 9-4.1s-1.8-5.4-.9-7.9 6.9 1.7 7-.1c9.4-129.3-103.1-188.7-141.2-67.6-3.5 16.2 25.7 5.9 34.4 8.8 10.4 15.5 6.4 62.5 9.2 85.1Z" style="fill:url(#fuz-11)"/><path d="M488.6 245.4c1.9 18.8 28 26.5 35.5 7.5 1.4-5 2.1-14.1 8.9-13.5 7.4 2.4 4.8 13.3 5.8 19.4 4.1 23.7 31.3 7.8 13.1-9.2-1.3-2.6-.8-6.8 2-7.4s5.3 4.9 7.4 7.6 9.2 3.4 11.7-.5c5.1-6.5-7-22 3.4-25.1 3.9.7 2.5 8.4 6.7 8.5 12.1-10.2-13-69.3-18-82.9-26.1-71.2-119.5-27.3-118.3 36.5 37 8.6 32.6-32.6 41.8 59.1Z" style="fill:url(#fuz-12)"/><path d="M490.2 230c1.5 16.5 32.4 19.7 32.3.8-.7-4.5-4.4-12.6 1.8-14.3s5.6 19.6 18.8 13.8c8.1-6.5-2.6-15.3-.8-22.2 4.9-7.3 13.1 1.8 11.2 8.7s-3.9 15.3 2.3 19.5c4.3 3 10.5-.7 12-5.8 4.2-13.8-14.1-23.3-11.1-36.8.9-2.6 3.7-4.5 6.2-3.7 7.2 3 1 13.7 4.7 18.9 28.8 14.5 5.3-57.7-4.2-65.6-35.2-55.7-108.6-21.8-118.7 36.2-2.7 15.6 50.6-24.8 45.5 50.5Z" style="fill:url(#fuz-13)"/><path d="M488.6 215c6.1 10.3 23.9 14.5 24.9-1.4-1.3-6.2-1.9-15.6 6.9-12.6 4.5 3.9 7.1 13.6 14.2 6.4 8.2-10.2-9.3-19.7-2.3-28.4 5-4.3 9.1 2.2 7.9 7.5-.3 3.1-.7 6.8 1.5 9 4.4 4.4 11-1.6 9.7-7.2-.6-8.1-11.3-10.6-11.5-18.7.1-2.5 2-4.9 4.4-4.9 5.3.9 9.9 12.5 16.5 3.7 2.1-6.6-6.2-16.6 4.8-19.6-35.1-68.7-113.5-28-120.8 38.1 12.2.9 22.8-2.2 35-1.2 3.2 7.7 2.9 22 8.8 29.3Z" style="fill:url(#fuz-14)"/><path d="M489.2 205.8c8.3 7 21 4.6 16.7-8.6-2.3-4.3-1-11.3 4.8-9.6 4.3 3.5 8.6 7.9 12.3.6 3-9.7-9.2-14.8-10.3-23.6a4.1 4.1 0 0 1 5.2-4.7c4.6 1.2 5.9 8.3 10.6 8.9s5.9-3.2 5.7-6.6c0-8.4-14.7-12.1-9.9-21 9.2-7.2 10.2 8.4 15.4 11.4 3 1.7 7.4-.7 7.9-4.3 0-6.8-9.1-14.8.8-19.6-95.9-58.7-75.2 52.7-59.2 77.1Z" style="fill:url(#fuz-15)"/><path d="M487.5 196.6c4.3 4.1 11.9 3.9 12.2-3.2s-14.2-17.4 2.8-16.3c3.5-.4 5.9-4.6 4.8-7.9-2-6-15.6-8.3-10-16.2 1.6-1.4 3.9-1.1 5.9-1.6 8.9-2.2 7-16.1-1.8-16.6-17.6 3.6-13-14.9.2-9.3 4 1.8 7.1 5.5 11.4 6.6 7.5 1.1 10.4-8.4 5.9-13.7-31.5-22.3-76 38.2-72.6 68.7 7.4-.6 33.3-8.6 41.2 9.5Z" style="fill:url(#fuz-16)"/><path d="M466.8 138.8c1.9-2 5.8-3.6 7.5-.6s0 3.5-.6 5.1c-1.9 3.8 1.2 7.1 4.6 4.6s8.1-8.1 13.6-7.7c7.1.9 6.2 9.4-.3 10.8-4.5.5-13.4 3.7-9.4 9.7 3.5 2.5 11.1-.8 12.2 5.7 0 8.3-6 3.7-9.4 5.8-3 4.1 3.6 6.3 5.9 8.4 4.1 4.1-1.6 13.5-6.7 10.1s-33.7-3.7-43.5-5.4c.8-6.4 17.3-36.7 26.1-46.5Z" style="fill:url(#fuz-17)"/><path class="fuz-18" d="M330.3 595.9c5.5 38.7-34.7 73.3-72.3 66.9m21.4 108.3a19.2 19.2 0 0 1-4.2 14.6m27.8-45.4c-.7-9.4 9.7-14.6 12.8-22.5m25.1 48.9c-2.8 18 24.5 22.2 24.7 40m31.8 50.7a25.4 25.4 0 0 1-1.5 22.3m48.8-23.9c.1 16.8 22.6 20.2 27 35m102.1 71.7a21.9 21.9 0 0 1 3.5 20.8m-27.5-77.5c-.3 22.6 30.9 22.1 39 39.2m86.6 2.2a34.9 34.9 0 0 0-3.1 25.9m5.8-46.4c3.2-16.8 30.1-29 20.4-47.9m50.4 9.1a34.6 34.6 0 0 0 3.8 25.2l-.5-.4M772 786.8c1.3 11.8 16.2 17.5 15.7 30.2m41.1-7.8c2.1 9.1 9.6 15.9 17.9 19.7m7-129.6c5.7 8.1 13.6 12.5 21.4 15.2m-77.5-74.1a47.7 47.7 0 0 0 29.9 23.7m38.9-100.6a19.5 19.5 0 0 0 12.1 7m-6-38.5c2 6.6 11.7 8.9 16.1 10.9m-93.4-57.5a27.6 27.6 0 0 1-14.5 4.8m32.3-36.7a41.2 41.2 0 0 0 29 20.6m11.3-102.2c3.5 6.9 11.2 10 18.4 11.5m-76.9-23.2a36.6 36.6 0 0 0 27.9 11.2m-78.9-91c11.8 8.9 15.7 28.4 33.6 27.6m-14.2-100.5c6.6 8.1 17.6 11 27.7 10.3m-352.3 121c-7.6 7.1-17.9 11.9-28.2 10.6m-5-53.9a38 38 0 0 1-31.6 13.3m-6.6 91.2c-7.4 9-20.5 9-31.1 7m86.7-210.9a20.3 20.3 0 0 1-9.1-6.7M361 235a38.1 38.1 0 0 1-22.9-.1m-40.3 98.3c-4.1 5.9-12.2 5-18.7 3.6M243.8 409a21.6 21.6 0 0 1-.7-16m-100.8 53.8a24.4 24.4 0 0 1-14.7-5m-.6 138.3a28.5 28.5 0 0 1-16.9 15.4m120.3 55.2a25.1 25.1 0 0 1 4.8 19.6m-101-133.9a26.3 26.3 0 0 0 26.2-4.9m36.7-96.8a26.8 26.8 0 0 0 20.3 14.1m111.5 118.3c-5.9 8.4-11.1 13.2-20.4 14.1m-54.3 39.7c-6 7.4-16.2 9.4-25.4 9.7m-40.8-144c29.4 33.6 54.7 70.7 83.4 104.9"/><path class="fuz-18" d="M264.9 476.3c-31.2 39.3-58.6 72.1-87.4 108.5m187.6-29.9c5 2.9 10.2 6.5 12 12.3m29.6 202.2a20.3 20.3 0 0 1 11.2-.8m55-574.1c12.3 22.5 4.3 53.3 7.7 78 5.8 42.6 60 61.9 90.5 24.3"/><path d="M528.1 130.7a47.6 47.6 0 0 1 19.6 18.9m5.6 11.3 2.1 3.8m122.3-46.5a40.2 40.2 0 0 1 16.5 22.3m3 11.1 1 4.2m2.7 105.6a27.1 27.1 0 0 1-16.4 17.6M573 271.1a32.9 32.9 0 0 1-20 18.6M277.1 432.1c8.7 2.6 15 10.5 17.7 19.1m-158.5 17.1c-7.5 6.6-13.4 15.7-14 25.6m-.1 12.2-.1 3.6M160.6 613c3.8 8.8 12.6 14 20.7 18.5m11.3 4.5a10.2 10.2 0 0 1 3.3.9m118.6-33.6a43.7 43.7 0 0 1-13.5 25.6m-9.1 7.2L289 638m65.7-39.4a33.8 33.8 0 0 1 1.7 20.6m-4.4 12.7c-.6 1.2-1.4 2.7-1.1 2.7m-91 73.4a39.3 39.3 0 0 0 1.8 25.1m53.5 55.6a44.4 44.4 0 0 0 19.1 18.3M702 932.5a16.4 16.4 0 0 1-7.1 9.8m92.3-95.8a39.2 39.2 0 0 1-10.6 16.8m-7.7 8.7-2 1.8m77.3-153.4a39.8 39.8 0 0 1 .3 20m-2.2 11.3-1.2 2.6M860.8 630a40.5 40.5 0 0 1 1.8 22.6m-.7 10.9-.5 2m-3.2-223.7a29.4 29.4 0 0 1 5.7 20.7M809.8 267a57.8 57.8 0 0 1 18.2 27.6m2.7 11.8c-.3-.8 1.6 3.8.6 2.4M336 279.1a39.2 39.2 0 0 0-15.2 18.7m49.5-76.1a56.1 56.1 0 0 1 19.5-6.1m-94.4 147.2c-4.7 4.4-5.7 11.2-6.2 17.3" style="stroke:#fff;fill:none;stroke-linecap:round;stroke-linejoin:round;stroke-width:10px;stroke-dasharray:0 0 0 0 0 0"/><path class="fuz-18" d="M619 166c12.5 24.5-.7 65 2.3 93.5 3.6 34.5 41.4 63 75.9 28.5"/><path class="fuz-20" d="M364.1 554c-11.1 34.2 18 41-.7 89.7-13.3 34.8-6.7 93.3 32.7 108.6 15.6 6 24 9.5 34.9 22.1a33.5 33.5 0 0 0-17.5.2"/><path class="fuz-20" d="M795.3 498c-5.7-5.7-20-6.5-24.7-.5 49.5-84 7.5-150.6-89.3-159.4-54-4.9-125-15.7-184.7 4.3s-135 53.2-137.9 128.9c-1.7 44.4 27.2 48.4 23.6 105.8-4.5-5.5-9.5-11.2-16.3-13.2"/><path class="fuz-20" d="M796.2 485.5c-2.9 61.3-26.1 102.2-25.3 155.6.4 26.5 7 55.7.1 81.3-35.4 132.2-136.3 200.1-245.1 125.5-43.9-30-90.3-40.9-119.7-77.6M478 190.2c-23.7 5.3-49.1-13.8-73-2.2a16.8 16.8 0 0 1 8.9 10.9"/><path class="fuz-20" d="M423 197.6c-9.5 5.3-58.6.6-99.1 43.4a42.8 42.8 0 0 1 29.7 1.8"/><path class="fuz-20" d="M360.9 236.1c-9.9 22.1-37.7 29.4-50.1 49.5s-17.2 44.1-43.5 50.2a43.5 43.5 0 0 0 23 8.6m8.5-11.2c-2.1 10.3-10.3 17.3-15.9 25.7-9.7 14.3-6.3 35.2-17.5 48.5"/><path class="fuz-20" d="M310.9 461.3c-5.1-50.5-50.6-36.3-67.5-77.8a29 29 0 0 0-7.3 21"/><path class="fuz-20" d="M242.6 409.3c-44.7-25.2-80.2 34-124.5 27.8a26.2 26.2 0 0 0 16.5 15.2"/><path class="fuz-20" d="M141.4 448.2c-68.9 41.8-6.2 95.1-38.7 151 10.9 3.6 24.2-2.1 29-12.7"/><path class="fuz-20" d="M127.1 579.9c6.5 5.3 10 13.3 13.3 21 30.1 71.7 65.1 28.3 93.6 77.7 8.1-5.2 10-19.2 4.8-27.3"/><path class="fuz-20" d="M230.9 650.1c13.1-3.9 26.1 7.4 39.2 7.7 32.9.8 56.6-30.6 58.8-61.7"/><path class="fuz-20" d="M251.1 654.3c12.7 22.7-15.1 53.2-1.3 84.4 7.7 17.4 27.9 35.1 18.8 55.5a50.4 50.4 0 0 0 19-15.9"/><path class="fuz-20" d="M280.6 770.6c15.8 7.6 21.3 26.3 33.5 37.8s27.9 14.6 41.6 22.5c21 12.2 35.3 35.3 37.5 60.8a39.2 39.2 0 0 0 11.1-29.4"/><path class="fuz-20" d="M397.7 856.7c26 10 38.9 39.9 63.1 53.8 13.7 7.9 29.9 9.9 44.8 15.1a111.1 111.1 0 0 1 67.4 68 43.2 43.2 0 0 0 12-28.2"/><path class="fuz-20" d="M574.1 961.8c28.1 0 52.9 19.9 72.9 37.5a92.2 92.2 0 0 1 29.4-53l-.8.9"/><path class="fuz-20" d="M749.2 886.4c-5.8 21.9-26.5 24.3-34.9 50.2-7.3 22.4-34.2 17.2-40.1 44.6a25.3 25.3 0 0 1-7.9-24.2"/><path class="fuz-20" d="M829.5 806.9c-26.2 10.7-24.3 38.7-38.3 58.5s-34.8 30.2-35.9 57.3a34.8 34.8 0 0 1-12.2-23.7"/><path class="fuz-20" d="M852.3 699.6c22.6 53.8-15.3 61.6 1.7 135.7-11.8-2.7-30.5-10.6-30.2-23.1"/><path class="fuz-20" d="M866 562.1c-14.7 33 5.7 43.8 10 73.3s-11.8 51.1 8.1 84c-11.2 2.5-22-1.8-27.7-8.3"/><path class="fuz-20" d="M864.6 570.4c6.3 2.9 15.9 5 21.8 1.5-8.5-13.8-18.2-25.3-14.7-41"/><path class="fuz-20" d="M852.6 370.2c-9.6 38.1 16.3 51.4 23.7 82.5 2.7 11.6-1.9 23.6-2.3 35.5-.8 21.8 10.5 42.4 24.8 58.9a41.8 41.8 0 0 1-27-5.6"/><path class="fuz-20" d="M762.7 207.3c2.7 9.1 9.5 16.4 17.1 22 93.1 49.7 45.8 97.1 101.9 158.1a35.3 35.3 0 0 1-30.4-8"/><path class="fuz-20" d="M718.7 184.2c11.1.2 8.2 3.4 19 5.8 8.6 1.8 17.7-1.6 26.2.4 15.1 3.6 22.2 22.4 36.8 27.7a40.6 40.6 0 0 1-29.8 2.8m-145.6-55.3a186.4 186.4 0 0 0-46.1 2.5m-139.3 15.3c23.9-88.9 115.6-98 139.8-5.5 9.3 35.7 24.5 90.3-6.4 117.3-24.7 21.6-65.8 24.3-81.1-10s7.6-83.2-22.6-111.1"/><path class="fuz-20" d="M595.7 163c30-86.3 110.2-86.9 121.4 7.2 4.3 36.4 11.7 92.1-17.8 116.2-23.7 19.2-59.4 18.2-69-17.3s13.3-87.1-10-117.7M407.2 255.7c-23.6 4.4-15.5 37.4-32.2 49.3a33.8 33.8 0 0 0 28.4-12.6m31.9 15.9c-17.6 4.8-10.2 30.5-24.5 38.9a38.7 38.7 0 0 0 26.5-10.2m-71 18.6c-19.8 8.3-8.7 40.8-29.4 48.1a29.2 29.2 0 0 0 28.3-7.1m-147.3 48.8c-8.1-.2-13-8.2-16.9-14.4 5.6 1 12.2 1.5 16.7-2.5M156 494.2c-14.4 3.5-2.5 27.3-20.7 38.6a22.6 22.6 0 0 0 24-5m80.4 65.4c-12.4 7.4-.9 25.7-10.8 34.7 8.5-1.4 18-3.3 23.8-10.3m63.2-80.6c-11.5 11.5 3.5 28.9-7.9 41.3a29.4 29.4 0 0 0 18.8-13.8m-27.1 127.9c9.5 14.7-15 23.7-1.2 46 .4-9.7 11.6-13.8 16-21.5M344 764c-5.3 17.1 23.2 16.3 25.5 42.2 7.6-5.7 9.3-16.4 8.5-25.9m70.4 74.2c-.8 10.9 21.4 18.7 26.4 34.1 7.9-20.2.4-23-4-40.7m81.7 57c1.1 20.4 32.1 19 38.6 38.1 8-21.1-4.2-27.9-10.1-44.4m116.9-22.2c6.1 20.4-21.5 30.8-22.9 50.1-7-8.8-6.3-20.3-5.5-28.5m105.6-113.6c-2 11.4 17.3 13.6 15 31.2 20.4-20.2 4.5-36.3 11-57.3m7.9-163.1c27.2 7.2 5.2 46.5 18.8 65.5a42.4 42.4 0 0 1-26.6-22.9m26.6-220.4c14.4 7.1-1.9 37.7 15.8 53.8-10.9-3.6-23.4-8.6-27.5-20.3m-19.6-126.5c20.2-5.6 13.3 34.5 27 43.2a29.9 29.9 0 0 1-26-12.3m-37.8-100.5c17.8 9.9 6.3 35.3 17.8 49.8-19.2-2.9-19.9-17-31.1-27.5m-476.7 201c-29.7 36.4-56 74.2-88.7 109.7"/><path class="fuz-20" d="M193.2 484.1q39.9 52.8 80.7 104.7"/><defs><linearGradient id="axf" x1="741.04" y1="835.98" x2="725.62" y2="701.22" gradientUnits="userSpaceOnUse"><stop offset="0" stop-color="#ff9d00"/><stop offset=".12" stop-color="#ff9306"/><stop offset=".33" stop-color="#ff7915"/><stop offset=".6" stop-color="#ff4d2d"/><stop offset=".91" stop-color="#ff124f"/><stop offset="1" stop-color="#ff0059"/></linearGradient><linearGradient id="axf-2" x1="840.33" y1="761.07" x2="812.15" y2="763.18" gradientUnits="userSpaceOnUse"><stop offset="0" stop-color="#ff1e00"/><stop offset=".09" stop-color="#fe1c0e"/><stop offset=".27" stop-color="#fc1833"/><stop offset=".51" stop-color="#f81170"/><stop offset=".8" stop-color="#f207c2"/><stop offset="1" stop-color="#e0f"/></linearGradient><linearGradient id="axf-3" x1="851.73" y1="625.07" x2="951.68" y2="625.07" gradientUnits="userSpaceOnUse"><stop offset="0" stop-color="red"/><stop offset="1" stop-color="#ff0"/></linearGradient><style>.axf-3,.axf-5,.axf-6{fill:none}.axf-3,.axf-5{stroke:#000}.axf-3,.axf-5,.axf-6{stroke-linecap:round;stroke-linejoin:round;stroke-width:10px}.axf-5{opacity:.6}.axf-6{stroke:#fff}</style></defs><path d="M626.2 736.3a94.1 94.1 0 0 0 7.1 68.7 146.4 146.4 0 0 0 66.9 2.7c14.9 7 32.9 7.4 49.6.4a55.6 55.6 0 0 0 44.8-5.5c71 22.1 69.7-119.3-40.3-69.2-14.7-9.5-31.7-1.9-46.5 4.7-15.3-11.1-36.9-5.8-51.3 4.4-10.1-4.5-18.2-7-30.3-6.2Z" style="fill:url(#axf)"/><path d="M818.5 729.1c-17.3 15.2 1.6 86.9 18.1 60.8 7.6-18.7 8.5-60.1-18.1-60.8Z" style="fill:url(#axf-2)"/><path class="axf-3" d="M625.3 728.3a141 141 0 0 0 6.8 86.1m-6-77.4c62.6-13.9 46.9 106.1 121.9 71.9"/><path class="axf-3" d="M657.1 740.2c89-44.8 53.7 106.8 138.6 64.1"/><path class="axf-3" d="M709.7 738c70.8-48.9 55.1 96.5 119.8 61.7 18.6-14.4 16.2-45.9 3.8-63.1s-65.2-16.3-78.5-3.3"/><path class="axf-3" d="M816.1 727c-9.7 22.5-6 53.7 12.1 71m-249.5-43.7c-.2-77.7 64.5-105.5 90.1-22.2m-86.5 66.4c2.2 71.9 77.8 92.6 88.3 13.5"/><path d="M851.7 729c21.7-11.6 3.3-31 4.3-47.8.6-11.4 11.9-15.7 16.8-26 7.3-15.5-4.7-21.1-4.7-35.1s10.4-20.6 10-34.5c-3.7-112.1 118.9-57.6 55.2 6.1-39.2 39.2 11.1 43.8-9.3 76.2-6.3 10-20.8 14.7-23.1 26.3-4.6 23.5-26.3 37.1-49.2 34.8Z" style="fill:url(#axf-3);stroke-linecap:round;stroke-linejoin:round;stroke-width:10px;stroke:#000"/><path class="axf-3" d="M630 804.4c20.9 7.2 50.4 8.8 72.2 2.9"/><path class="axf-5" d="M615.1 682.5c-26.5 1.4-46.5 46-36.4 71.8m3.6 44.2c-9.7 36.6 29.6 85.2 64.9 59.1"/><path class="axf-6" d="M641 707.2a56.3 56.3 0 0 1 9.2 16.6m-19.3-26.6-3.3-1M655 824.5a36.6 36.6 0 0 1-12.7 18.4"/><path class="axf-5" d="M630 740.3c-6 20.1-.6 42.8 4.4 62.6a2.4 2.4 0 0 0-.2-.8m38.7-38.6c6.7 16.4 6 31.7 18.2 42.1m30.5-45.6c8.2 18.3 4.8 36.4 20.5 47m29.3-44.5c7.4 18.9.7 32 17.1 39.6m32.2-70c-7.5 19.4-4.4 44.9 10.2 60.3m-70.4-60.6c21.2 18.8 22.4 69.7 59.2 65.2m-148.4 20.8c9-.4 17.9-2 29.1-3.6 15.5 7.7 21.6 10.4 38.6 2.9"/><path class="axf-6" d="M644.6 748.9a37.2 37.2 0 0 1 13.3 13.7m29.5-18.9a28.4 28.4 0 0 1 17.5 12.6m31.8-16.4a26.2 26.2 0 0 1 12.7 10.5m33.6-13.2c4.6-1.8 9.8-1.2 14.8-.7h.2c0 .1-.2.1-.1 0M931.6 539a21.6 21.6 0 0 1 3.4 21.3m-6.4 11.9-1.5 2m-13.8 69.9a12.8 12.8 0 0 1 2.1 13m-28.8 39.1a19.9 19.9 0 0 1-6.8 11"/><circle cx="550" cy="550" r="500" style="fill:none;stroke:#000;stroke-width:10;stroke-linecap:round;stroke-linejoin:round;stroke-miterlimit:10"/></svg>