<svg version="1.1" id="Layer_1" xmlns="http://www.w3.org/2000/svg" x="0" y="0" viewBox="0 0 1100 1100" style="enable-background:new 0 0 1100 1100" xml:space="preserve" xmlns:xlink="http://www.w3.org/1999/xlink"><path d="M50 550C50 274 274 50 550 50s500 224 500 500S50 826 50 550z" style="fill:#0090ff"/><path d="M1050 550c0 276-224 500-500 500S50 826 50 550s1000-276 1000 0z" style="fill:#06f"/><path d="M532 209c-68 59.6-71 20-121 36.5-19.6 10.9-14 30-9.7 39.6 11 23-51 9-69 40.3-10.1 18 0 42-7.5 62-9 19.6-34 35-37 52-43 48-154 7-119 70 6 11 33-6 39 9.1 7 17.5-39 29-21 47 18 5 21 39.9 57 63 14 20 3 51 19 69 36 38 46-25 41-34.3 4-39 44-11 22 39-23 52 11 74 36.5 57 24-9 13 39 23 50.9 19.5 37 55 12 67 12 18 1 28 22 29.8 40 6 63 54 46 59 8 15.5-34 45 49 47 59.9 12 73 69.5 42 71 17.9 3-54-3-59.9 2-68 19-31 71 13 90.8-15.5 14-19.8-31-63 8-55 94 19.9 19-101 14-120.4-9-35.5 14-105.8 47-122 18-9 17-35.5 7-53-9.6-17-25-30.6-31-48.9-13.5-54 21-100.7-36-133.3-5-3-7-9.5-4-14 17-25.8 1-66-32-71-22-3-44 9-66.5 6C615 247 578.5 178 532 209z" style="fill:#1eb377"/><style>.st40{fill:none;stroke:#000;stroke-width:10;stroke-linecap:round;stroke-linejoin:round;stroke-miterlimit:10}.st98{opacity:.6;enable-background:new}</style><g id="Outline"><path class="st98" d="M793 537c-1 .7-1 2-.5 3 5 10 11 35 25 30 8-2 21-13 18-22.4-.5-1-2-2-3-1.5-26 12-28-11-39-9.4v.3zm-34 274.5c6 5 26 8 25-3-6-7-20.6-12-21.5-26C750 772 744 803 759 811.5zm-219.3 52s1 .5 1 .8c9 13.5-3 36-18 40-34 6-9-6-6-44 .3-5.3 22.3 2.7 23 3.2zM342 731c5 7-4 22-4 33 8 13 29.6-5 33-14.9 2-12-17-21-28-20.2-1 .1-1 1.1-1 2.1zm31-120.2c2 23-8 47-26 61.9-13 10.9-17.5-30.6-8-27.9 6 4.2 28-18.8 34-34zm-157-59.9c-8 6-17 3-25 1-11 5 4 20 13.5 16 5-4 12-9 12-15.7-.5-.2-1.5-.2-.5-1.3zM337 473c-6-10-3-23 0-34 0-1 0-2-.6-2-9-9-23 11-19.8 20.7C318 463 338 475 337 472.8v.2z"/><path class="st98" d="M326 392c-2 29 24 45 7 44-7 2-14 1-15 11-1 11-24 0-24.5-1.3C285 433 317 404.5 326 392zm103-118c-9.9-4-16-16-18-25-4-6-9.9 1-11 6-7 54 29.5 28 29 19zm293 9c16 21 29.5 12 40 20.7 3 4 1 9.6-1 14-3 9-13 9-20 4.1-14.5-5.8-22-22.2-19-38.8z"/><path class="st40" d="M347 729c53.5 5 15 86 59 102 25 9 37-19.8 55-11.9 23 10.1 19.6 40 24 60.7 9.6 46 63 29.6 58-12.8"/><path class="st40" d="M519 861c89-9 47.5 119 114.5 115 39-6 35-47 25-76.5-3-9 0-18.5 7-24.5 24.5-21 59 15.5 84-2.5 15-11 8-33-2-45-12-15 0-32 10-43"/><path class="st40" d="M790 539c53 69.8-64 71 8 194.5 6 14 11 32 11 48.5 0 32-49 47.5-61 16"/><path class="st40" d="M721 287c2 51 64 31 74 88 6 34-11.5 71 7 103 10 18 27 31.5 34 51 8 19-4 47-27 42"/><path class="st40" d="M407 290.6c-16-8-12-29.9-2-41 17-15 40.5-10 61-6 29.8 1 49-29 75-38 50-17 81 55 133 44 23-5 48-11 69 1 25 14 33 55 10 75"/><path class="st40" d="M428 278c-16 26.5-51 17.5-76 28.5-20 10.5-28 33-23 55 10 47-43 51-39 88m25 4.5c1.5-23 35-26 41-5 7 25-13 47 16 72"/><path class="st40" d="M334 476c-20-34-61-31.5-89-9.6-20 8-43-3-64 4-22 7-28 37-5 43.5 6.5 2 23-2 26-1 15 4 11 25-5 30-21 6-10 29 6 29"/><path class="st40" d="M216 554.5c-15 15-14 41 2 55 37 22 41 31 36 69.7-2 31 46 41 53.5 10 2-10.8-4-22 0-33 13-32 44 20 62-44.5"/><path class="st40" d="M327 647.9c25 29.7-.5 47-7 75-10 32.5 34 65 53 25"/><path d="M729 262.5c9 4 16 13 18 22.5m-193-68c12.5 2 24.5 8 34 16m9 9 3 3m-163 10c-5.5-.9-12 .6-15.5 4M362 319.6c-9 2-14 10.7-16 19M339 449c4 1 6 6 6 9.8M308.5 470c-12-6-16-5-22-4M175 492c1-4 5-7 9-7.5m38 89.5c-4 8 0 16 4 19.9m44 78.6c-1 6 1 15 9 18m76-77.5c-3 14-13 14.5-16 16m4.5 119.5c-5-3-9-9-8-15M397 782c-1 14.5 7 28 14 30m90 53.9c-3 12 2 27 14.5 25M636 957c14-3 17-28 11-38m96-60.1c1-7 0-14-4-19m46-49.1c8-6.5 9-25 3-39M786 582c5-8 3-19-3-26m37-12c2-8.5-.6-18-7-24m-56-169c18 6 22 30 21 35" style="opacity:.7882;fill:none;stroke:#fff;stroke-width:10;stroke-linecap:round;stroke-linejoin:round;stroke-miterlimit:10;enable-background:new"/></g><linearGradient id="a15" gradientUnits="userSpaceOnUse" x1="238.934" y1="-556.918" x2="343.954" y2="-476.903" gradientTransform="translate(0 1066)"><stop offset="0" style="stop-color:#ff0040"/><stop offset=".125" style="stop-color:#ec0051"/><stop offset=".379" style="stop-color:#bb007e"/><stop offset=".736" style="stop-color:#6d00c6"/><stop offset="1" style="stop-color:#2f00ff"/></linearGradient><path style="fill:url(#a15)" d="M236 532.1c15 4 17 20 16 34-2 29 36 51 62 29 28-23-9-58 18-81-9-3.5-15 15-32 3.7-7-4-12-20-3-24-39 10-16 37-41 37-7-2.8-15-3.8-20 1.3z"/><path d="M288 499.9c-21.5 33 12 52-12 78.5-4 4-9.8 8-9.7 14 3 16 28 10.5 39 6.9 9-4 16.5-13 18-23.5.5-19.7-4-39-1-59-7 5-19 3.5-25-3-4.3-3.8-5.3-10.3-9.3-13.9z" style="opacity:.1882;fill:#fff;enable-background:new"/><path d="M236 532c15 4 17 20 16 34-2 29 36 51 62 29 28-23-9-58 18-81.3-9-3.5-15 15-32 4-7-4-12-20-3-24-39 10-16 37-41 37-7-2.7-15-3.7-20 1.3z" style="fill:none;stroke:#000;stroke-width:10;stroke-linecap:round;stroke-linejoin:round;stroke-miterlimit:10"/><path d="M254.5 527c20-8 9-29 36-32M233 534c12 7.5 15 22 14 35-2 31 39 49.7 62 29" style="opacity:.6;stroke:#000;enable-background:new;fill:none;stroke-width:10;stroke-linecap:round;stroke-linejoin:round;stroke-miterlimit:10"/><path d="M310 560.8c1 9-1 21-10 25m7-40.8c0 1 0 2 .5 3" style="fill:none;stroke:#fff;stroke-width:10;stroke-linecap:round;stroke-linejoin:round;stroke-miterlimit:10"/><style>.st40,.st68{fill:none;stroke-width:10;stroke-linecap:round;stroke-linejoin:round;stroke-miterlimit:10;stroke:#000}.st68{opacity:.6;enable-background:new}</style><g id="Diamond_Grillz"><linearGradient id="SVGID_00000158020979588429643290000018342716222877648305_" gradientUnits="userSpaceOnUse" x1="591.196" y1="-432.994" x2="591.196" y2="-128.969" gradientTransform="translate(0 1066)"><stop offset="0" style="stop-color:#0dffaa"/><stop offset="1" style="stop-color:#0d62ff"/></linearGradient><path style="fill:url(#SVGID_00000158020979588429643290000018342716222877648305_)" d="M510.5 800.6c214 157 325-208 159-129-69 33-123-6-175-9-30.5-13-130.5 30.4 16 138z"/><path class="st68" d="M738 669.5c-14-9.6-32-3-47 2-27 9.5-54 18-82 19-29.6 1-59-5-88-12.9-24-7-49.7-16-73.5-8"/><path class="st68" d="M526 677c-11 36-22 71-33 107m89-93c-6 44-12 89-19.7 133M655 681c7.5 46 16 92 26 137"/><path d="M734 690.5c1 22.5-4 45-15 65m-7 12.5c-1 2-3 4-4 7-1 0-1-1 4-7zm-76-60c5 24 8 45 12 73m2 16c1 2 1 4 1 6m-90-99c-3 19-7 38-11 57m-2 12.9c0 2-1 5-1 7M501 690l-15 53" style="fill:none;stroke:#fff;stroke-width:10;stroke-linecap:round;stroke-linejoin:round;stroke-miterlimit:10"/><path class="st68" d="M448 670.5C341 742 680 984 746 730"/><path class="st40" d="M699 661c-135 56-184-17-241 3-33 14-26 67-6 88 253 259 369-141.5 247-91z"/><path class="st40" d="M519.9 670.6c-13 36-20 74-33 110 0-.5 1 0 1 0M576 684c-7.5 46-16 92-21 137.5m93-141.7c6 48 17 96 25 144"/></g><style>.st40,.st68{fill:none;stroke-width:10;stroke-linecap:round;stroke-linejoin:round;stroke-miterlimit:10;stroke:#000}.st68{opacity:.6;enable-background:new}</style><g id="trippy_monocle"><path class="st68" d="M478 416c-98.5 54-52 295 75 229m120-263c-24 5-51 30.5-54 56m142 120c-1 25-19.9 49-43.5 57M674 420c-62 49.7-14 226 41 157"/><path class="st68" d="M515 446.9c-32.5 32-26 103-10.5 143 9 22 38 29 41.5 1"/><path d="M687 417c-49 19 1 94 40 65 18-17-11-81.5-37-67.5 1-.5 1-2-3 2.5zm-171 33.5c-34 25 4 86 38.5 55C567 465 536 433 516 450.5z" style="fill:#fff"/><path class="st40" d="M525 445c-43 8-36 170.5 7 159 41-11 39-168-7-159.4v.4z"/><path d="M503 490.6c-27 129 68 160 58 12-34 27.2-51-8.6-58-12zM661 449c-47 176 96 182 72 28.9-33 23.1-57 1.6-72-28.9z"/><path class="st40" d="M504.5 467c-5.5 32 23 63 54 39M686 416c-63 33-38 186 14 170.5C755 571 744 386 686 416z"/><path class="st40" d="M666 437c-6 33 37 63 66 42m-107-39.2c6-25 25-46.5 50-54M757 557c-8.5 29-19 44-43 54"/><linearGradient id="SVGID_00000171696356865888095910000012114362784109113733_" gradientUnits="userSpaceOnUse" x1="431.024" y1="881.903" x2="597.039" y2="881.903" gradientTransform="matrix(1 0 0 -1 0 1410)"><stop offset="0" style="stop-color:#00ff62"/><stop offset="1" style="stop-color:#009dff"/></linearGradient><path style="opacity:.7216;fill:url(#SVGID_00000171696356865888095910000012114362784109113733_);enable-background:new" d="M487 413.5c-78 38-75 218 17 237 131 27.5 124-305.5-17-237z"/><path d="M537.5 423c17 11 27 32 33.5 51m3 18v7m-10 109c-6 12-17 22-30 27" style="fill:none;stroke:#fff;stroke-width:10;stroke-linecap:round;stroke-linejoin:round;stroke-miterlimit:10"/><path class="st40" d="M508 404c-109 26-102 253 17.5 248 104.1-4 95.5-275-17.5-248z"/></g><defs><linearGradient id="zba" x1="236.25" y1="315.23" x2="831.1" y2="276.55" gradientUnits="userSpaceOnUse"><stop offset="0" stop-color="#ffe600"/><stop offset=".1" stop-color="#ffd80d"/><stop offset=".29" stop-color="#ffb430"/><stop offset=".54" stop-color="#ff7a68"/><stop offset=".85" stop-color="#ff2bb4"/><stop offset="1" stop-color="#f0d"/></linearGradient><linearGradient id="zba-2" x1="170.69" y1="396.71" x2="297.01" y2="391.81" gradientUnits="userSpaceOnUse"><stop offset="0" stop-color="#ffe600"/><stop offset="1" stop-color="#fb00ff"/></linearGradient><style>.zba-3{fill:none;stroke-linecap:round;stroke-linejoin:round;stroke-width:10px;stroke:#000}</style></defs><path d="M302.4 418.1c-6.2 7-11.2 12.6-13.1 22.1-29.2-1-28-19.1-16.1-37.7 13.9-21.6 21.4-46.8 26-72.1 35.7-199.2 379.2-210.4 492.2-64.9 26.5 34.1 75.6 111.2 5.1 124.4-.2-10.9-.8-22.7-9.9-32.9-168.1-31.3-344.7 5.4-503.5 66.2 0 0 239.5-107.6 239.5-107.9 29.4 8.3 87.5 14 109.8-10.4 8-20.2-164.4-16.8-104.8 13.1Z" style="fill:url(#zba)"/><path d="M296.9 338.5c-48.3 49.4-111.6 56.7-124.8 82.1s53.4 39.7 98.4 14.9c-15.4-24.6 26.7-60.7 26.4-97Z" style="fill:url(#zba-2)"/><path class="zba-3" d="M809.2 361.3c-177.3-36.6-357.6-4.4-523.7 62.7"/><path class="zba-3" d="M302.4 418.1c-6.2 7-11.2 12.6-13.1 22.1-29.2-1-28-19.1-16.1-37.7 13.9-21.6 21.4-46.8 26-72.1 35.7-199.2 379.2-210.4 492.2-64.9 26.5 34.1 75.6 111.2 5.1 124.4-.2-10.9-.8-22.7-7.2-31.9"/><ellipse class="zba-3" cx="574.7" cy="306.2" rx="60.3" ry="15.5" transform="rotate(-2.5 584.699 310.79)"/><path class="zba-3" d="M295.3 339.7c-21.3 18.9-45.4 34.5-71 47.2-18.9 9.4-47 14.7-53 36-9.8 34.9 89.4 22.7 103.1 14.3"/><path d="M791.2 365.2c-164.8-31-336.1 1.8-493 60.8m332.7-121.7a180.2 180.2 0 0 0-112 3.5m291 54.9a39.2 39.2 0 0 0-12 4.3m-513.3 57.5a19.3 19.3 0 0 0 7 4.2m-3.2-79.8c-4.3 17.8-10.9 35.4-21 50.6-7.1 10.6-11.8 23.8-6.3 36" style="opacity:.6;stroke:#000;fill:none;stroke-linecap:round;stroke-linejoin:round;stroke-width:10px"/><path d="M701.6 218.9a130.2 130.2 0 0 1 51 36.9m12.4 15 3.4 4.4m-539.3 123L201 410.9m-10.2 6.5a7.5 7.5 0 0 0-3.5 3.1m154-150.5a141.8 141.8 0 0 1 46.7-43.8" style="stroke:#fff;fill:none;stroke-linecap:round;stroke-linejoin:round;stroke-width:10px"/><circle cx="550" cy="550" r="500" style="fill:none;stroke:#000;stroke-width:10;stroke-linecap:round;stroke-linejoin:round;stroke-miterlimit:10"/></svg>