<svg version="1.1" id="Layer_1" xmlns="http://www.w3.org/2000/svg" x="0" y="0" viewBox="0 0 1100 1100" style="enable-background:new 0 0 1100 1100" xml:space="preserve" xmlns:xlink="http://www.w3.org/1999/xlink"><style type="text/css">.st303{fill:#FED907;stroke:#000000;stroke-width:10;stroke-linecap:round;stroke-linejoin:round;stroke-miterlimit:10;}</style><circle class="st303" cx="550" cy="553.7" r="500"/><linearGradient id="a3" gradientUnits="userSpaceOnUse" x1="432.676" y1="-700.409" x2="789.687" y2="-76.39" gradientTransform="translate(0 1066)"><stop offset="0" style="stop-color:#5900ff"/><stop offset="1" style="stop-color:#f06"/></linearGradient><path style="fill:url(#a3)" d="M302.5 412.2c13 30 55 19 61-10.5 3-13-.8-27-2-40.7-3-33 15-45 47-40.6 56 8 63-33 100.6-58.7 58-39.6 78 46 81 54 9 24.5 35 23 44-.7 26-71 94-32.5 93.5 28 1 13 1 25.5 5 37.6 8 32 68 39.5 59 5-1.5-6-17-12-17-12 27 9 43 42 33 68-8 21-39.9 44-13 70.7 26 26 40 54 25 83-54 105 46 96.5-36.5 188-7 8-12 22-13 29-3 17 20.1 28 23 17.9 5-18 16-26 16-26-17 19-13 22-22 45-12.5 32-49 12-55 57-8 33-26 40.9-57 34.9-21-.5-40 13-60 19-55 17-84-17-124-47-49-29-108 16-133-68 0 0 5 18 9.5 20.3 21 11 36-34 20.5-51.5-13-15-39-16-48-34-6-11-3-25-2-37.9 3-37-23-56-40.7-84.1-24-47.5 18-100 9-149-19-49-16-105 29-138.6L302.5 412v.2z"/><g data-name="Layer 73"><path d="M531.7 209c-67.9 59.6-70.9 20.3-120.8 36.5-19.6 10.9-14.3 30.3-9.7 39.6 11.2 22.8-50.8 8.7-68.6 40.3-10.3 18.3.1 42.2-7.5 61.8s-33.8 34.7-36.8 52.2c-43.4 48.2-154 6.6-119.1 70.4 6.2 11.4 32.9-6.3 39.1 9.1 7 17.5-38.8 29.4-21.3 46.7 17.7 4.9 20.7 39.9 56.9 63.2 13.8 20 2.7 51.4 19.4 69.1 35.8 37.8 46.3-24.8 41.3-34.3 4.3-38.8 43.9-10.6 22.2 38.7-22.8 51.7 11.2 74 36.5 56.6 24-8.9 13.3 38.7 23.3 50.9 19.5 37.2 54.9 11.6 66.6 12 18.1.7 28 22.3 29.8 40.3 6.5 63 53.6 46.3 59.1 8 15.5-34.3 45.1 48.6 46.9 59.9 11.3 72.6 69.3 42 70.8 17.9 3.3-54.1-3.2-60.1 1.7-68.3 18.5-31.1 71 13.3 90.8-15.5 13.6-19.7-31.2-63.5 7.9-55.4 94 19.4 18.7-100.7 13.8-120.4-8.8-35.5 13.9-105.6 46.9-121.7 18.1-8.8 17.1-35.5 7.4-52.8s-24.9-30.6-31.4-48.9c-13.5-54.4 22.4-102.1-36-133.3a10.2 10.2 0 0 1-3.9-14.4c17.1-26.3 1.3-66.4-31.8-71.4-22.1-3.3-44.3 8.9-66.5 6.3-43.8-5.2-80.2-74.1-127-43.1Z" style="fill:#ff3903"/><path d="M797.6 467.5c-15.3 28.2-60.6 36-60.5-4.6 3.3-26.2 20.3-54 8.7-79.8-21.5-47.8-37.6-21.7-36.8-13.2 1.2 12 13.1 19.1 18.3 29.3 13.6 26.4-27.4 56.1-37.5 26.8-1.3-12.6 18-21 13.5-34-12.8-19.5-39.3 5.3-33.3 23.7 1.6 6.5 5.6 12.2 7.5 18.6 9.6 53.4-72.9 45.9-53.8-4.9 5.4-14.6 47-31.6 10.6-81.4-27.1-37 46.4-61.5 30.7-98.8 30.1-10 144.5-12.9 86.9 77.8 80 37 25.9 82.3 45.7 140.5Zm-436.5-7.4c9.3 4 21.5-2.9 22.9-12.9s-8.3-22.6-1.8-32.6c8.6-11.4 22.7-1.2 23.2 10.8 1.5 8.7.5 17.9 3.8 26.1 8.4 20.9 38.8 19.9 47.8 0 27-47-48.4-65.1-28.7-105.2 4.5-7.9 15-5.6 19.3 1.7 5.4 9.4 3 24.2 13.4 30.3 7.2 4.2 16.9-.3 21.1-7.5 18.9-45.2-59.9-59.8-23.3-125.4-33-22.4-84.9 17.1-51.4 48.3-127.3 17.8-52.1 58.8-88.6 110.3-9.6 13.4-29.2 23.5-28.6 42.8a66.5 66.5 0 0 1 22.9 8.4c-.6-15.6 38.8-39.4 48 4.9Zm308 411.9c.8-29.3-33.6-38.2-56.7-43.1-25-5.2-53.4-31.4-30.3-54.3 36.7-18.4 27.4 37.5 53.6 34.5 5.1-1 9.2-7.1 6.9-11.8s-13.1-5.8-15.2-12c-4.6-13.5 14.3-13.9 22.1-5.3 9.8 11 4.6 27.7 14.3 34.7 15.1 10.8 43.8-50-13.2-79.6-90.8-47.2 15.3-141.4 33.3-51.6 21.4 107 75.2 56.8 53.9 24.8-5.3-8.1-16.6-9.7-24-15.9-34.8-29.1 12.3-80.9 27.8-44.7 10.6 25 29 16.2 37.1 1.8.2-.5 1.1.2.9.7-13.9 21.1-.4 50.3 12.4 69.2 47.9 70.6-9.7 123-46.7 81.7-2.8 10.2-2.7 21.7 4.8 29.9 33.7 76.1-63.6 28.9-81 41Z" style="fill:#2dff03"/></g><style>.st40{fill:none;stroke:#000;stroke-width:10;stroke-linecap:round;stroke-linejoin:round;stroke-miterlimit:10}.st98{opacity:.6;enable-background:new}</style><g id="Outline"><path class="st98" d="M793 537c-1 .7-1 2-.5 3 5 10 11 35 25 30 8-2 21-13 18-22.4-.5-1-2-2-3-1.5-26 12-28-11-39-9.4v.3zm-34 274.5c6 5 26 8 25-3-6-7-20.6-12-21.5-26C750 772 744 803 759 811.5zm-219.3 52s1 .5 1 .8c9 13.5-3 36-18 40-34 6-9-6-6-44 .3-5.3 22.3 2.7 23 3.2zM342 731c5 7-4 22-4 33 8 13 29.6-5 33-14.9 2-12-17-21-28-20.2-1 .1-1 1.1-1 2.1zm31-120.2c2 23-8 47-26 61.9-13 10.9-17.5-30.6-8-27.9 6 4.2 28-18.8 34-34zm-157-59.9c-8 6-17 3-25 1-11 5 4 20 13.5 16 5-4 12-9 12-15.7-.5-.2-1.5-.2-.5-1.3zM337 473c-6-10-3-23 0-34 0-1 0-2-.6-2-9-9-23 11-19.8 20.7C318 463 338 475 337 472.8v.2z"/><path class="st98" d="M326 392c-2 29 24 45 7 44-7 2-14 1-15 11-1 11-24 0-24.5-1.3C285 433 317 404.5 326 392zm103-118c-9.9-4-16-16-18-25-4-6-9.9 1-11 6-7 54 29.5 28 29 19zm293 9c16 21 29.5 12 40 20.7 3 4 1 9.6-1 14-3 9-13 9-20 4.1-14.5-5.8-22-22.2-19-38.8z"/><path class="st40" d="M347 729c53.5 5 15 86 59 102 25 9 37-19.8 55-11.9 23 10.1 19.6 40 24 60.7 9.6 46 63 29.6 58-12.8"/><path class="st40" d="M519 861c89-9 47.5 119 114.5 115 39-6 35-47 25-76.5-3-9 0-18.5 7-24.5 24.5-21 59 15.5 84-2.5 15-11 8-33-2-45-12-15 0-32 10-43"/><path class="st40" d="M790 539c53 69.8-64 71 8 194.5 6 14 11 32 11 48.5 0 32-49 47.5-61 16"/><path class="st40" d="M721 287c2 51 64 31 74 88 6 34-11.5 71 7 103 10 18 27 31.5 34 51 8 19-4 47-27 42"/><path class="st40" d="M407 290.6c-16-8-12-29.9-2-41 17-15 40.5-10 61-6 29.8 1 49-29 75-38 50-17 81 55 133 44 23-5 48-11 69 1 25 14 33 55 10 75"/><path class="st40" d="M428 278c-16 26.5-51 17.5-76 28.5-20 10.5-28 33-23 55 10 47-43 51-39 88m25 4.5c1.5-23 35-26 41-5 7 25-13 47 16 72"/><path class="st40" d="M334 476c-20-34-61-31.5-89-9.6-20 8-43-3-64 4-22 7-28 37-5 43.5 6.5 2 23-2 26-1 15 4 11 25-5 30-21 6-10 29 6 29"/><path class="st40" d="M216 554.5c-15 15-14 41 2 55 37 22 41 31 36 69.7-2 31 46 41 53.5 10 2-10.8-4-22 0-33 13-32 44 20 62-44.5"/><path class="st40" d="M327 647.9c25 29.7-.5 47-7 75-10 32.5 34 65 53 25"/><path d="M729 262.5c9 4 16 13 18 22.5m-193-68c12.5 2 24.5 8 34 16m9 9 3 3m-163 10c-5.5-.9-12 .6-15.5 4M362 319.6c-9 2-14 10.7-16 19M339 449c4 1 6 6 6 9.8M308.5 470c-12-6-16-5-22-4M175 492c1-4 5-7 9-7.5m38 89.5c-4 8 0 16 4 19.9m44 78.6c-1 6 1 15 9 18m76-77.5c-3 14-13 14.5-16 16m4.5 119.5c-5-3-9-9-8-15M397 782c-1 14.5 7 28 14 30m90 53.9c-3 12 2 27 14.5 25M636 957c14-3 17-28 11-38m96-60.1c1-7 0-14-4-19m46-49.1c8-6.5 9-25 3-39M786 582c5-8 3-19-3-26m37-12c2-8.5-.6-18-7-24m-56-169c18 6 22 30 21 35" style="opacity:.7882;fill:none;stroke:#fff;stroke-width:10;stroke-linecap:round;stroke-linejoin:round;stroke-miterlimit:10;enable-background:new"/></g><defs><linearGradient id="a" x1="591.66" y1="391.79" x2="591.66" y2="679.79" gradientUnits="userSpaceOnUse"><stop offset="0" stop-color="#f08"/><stop offset=".22" stop-color="#fe336d"/><stop offset=".71" stop-color="#fcb329"/><stop offset="1" stop-color="#fbff00"/></linearGradient></defs><path d="M455.5 582.7c11.6 22.3 28.8 20.1 46 32.9 5.2 3.8 6.7 18-14.9 11.2 46.7 61.8 107.7-17.3 107.9-69.7-4.3 3.3-13.9 8.3-17.4-.9-8.3-21.6 29.3-54.6 39.3-17.2 2.5 9.4-6.1 17.4-2.7 26.7 2.6 7.2 9.4 29-8.2 23.8-.3 19 20.4 44.4 37.4 48.2 51.5 11.8 90.4-56.5 98-75.1-16.7 6.6-32.4 2.7-2.3-23.5a74.7 74.7 0 0 0 22-33.2c-37.3 12.3 22.9-54.3 14.3-83.8-53.1 68.9-60.7 20.1-52.2 7-11.9 3.5-18.7 13.9-25.2 23.6-10 15-23.2 11.3-25.6-8-1.8-14.6-15.4-17.4-26-21.1 16.1 42.5-13.7 39.4-17.6 12.2-11.9 6.2-16.6 20-19.6 32-4.3 17.8-29.9 44.2-41.9 23-10-17.6 24.4-33.4-6.8-55.7-4.9 23.2-20.3 21.9-37.1 33.8-20.9 14.8-22.7-20.3-10.3-32.5-21.9 3.9-29.4 29.1-47.3 28.6s-14.4-22.6-6.2-32.8c-17.3 7.9-33.3 29.1-34.2 48.1-.5 9.6 13.1 25.5 1.9 30.4-6.5 3-12.7-5.7-19.2-.1 12.8 10.7 10.6 19.5 34.5 32.5 54.2 29.6 20.3 39.7 13.4 39.6Z" style="fill:url(#a)"/><path d="M456.3 463.6c10.3 24.3 16.9 61.6 25.7 86.4l13.9-22.9 48.5 116.8 22.2-17.8-65.7-133.4-9.6 20.2-13.9-51.6m31.4 12.5c18.1 49.4 36.4 99.1 62.8 144.6l6.9-13.8-61.1-131m97.9-21q17.9 55.6 39.5 109.9l7.1-30.9 25.7 95.8 25.9-22.3-49.4-105.5-11 18.6s-11-62.2-11.3-61.6c-8.1-1.7-12-11.8-15.3-18-5 3.2-8 8.7-11.2 14Zm37.6-6.5c20.9 39.8 39.3 81.4 67.8 116.8l9.3-16.4s-51.9-84.7-51-84c-13.6-11.7-3.6-35-30.3-34.6a28.6 28.6 0 0 1 4.2 18.2Z" style="fill:#fff;opacity:.36"/><path d="M559 434.6c-5.6 19.9-31.3 20.6-42.8 35.4m108.4-34c-22.5 14.4-17.7 42.9-39.5 60.4m57.5-72.2a54.6 54.6 0 0 1 3.2 28m73.1-25.5c-15.3 6.3-21.8 23.6-34 33.7m86.8-40.2c-10.1 15.1-24.3 28.5-40.8 36.4M508 433c-18.1 3.8-25.5 24.1-41.7 31.2m-12.5-33.9c-18.1 11.8-36.6 32-32.8 54.6 1.2 7.2 5.6 13.6 6 21m-20.7 8.3c6 5.6 9.8 13.1 15.2 19.2 13.6 15.4 36.8 21 47.4 39.2m-15.4 11.8c8.8 22 35.8 22.5 47.4 37.8m-15.6 8.2c10.2 14.5 29.4 26.6 46.9 18.4m68.1-124c12.6 11.3 11.9 14.8 8.5 32.4-1.8 9.4 6.8 19.5 4 29.1m-9.6 4.5c3.2 30.4 34.3 62.2 65.7 46.5m-76.4-81.4a18.1 18.1 0 0 1-10.7 3.6m157.4 1.2a40.5 40.5 0 0 1-13.9.9m33.7-57a20.5 20.5 0 0 1-7 .3" style="stroke:#000;opacity:.6;fill:none;stroke-linecap:round;stroke-linejoin:round;stroke-width:10px;stroke-dasharray:0 0 0 0 0 0"/><path d="M702.3 596a70.8 70.8 0 0 1-25.5 22.5m-11.7 5.3-4.1 1.1m80.4-107.3c-3.4 4.2-7.1 8.3-12 10.7m-104.2-70.5a32 32 0 0 0-4.3 13.4m-46.1 116.5a85.3 85.3 0 0 1-17 25.3m-10.6 10.6-3 2.4m15.5-165.8a29 29 0 0 1-3.8 8.4M442.6 465a22.9 22.9 0 0 0-4.1 13.6m3.9 14.5.4 3.5m-7.4 26.9a38.9 38.9 0 0 0 11.8 7.3m30.9 59.1a27.2 27.2 0 0 0 11.1 5.3m261-131.4a50.4 50.4 0 0 1-6.4 13.2" style="fill:none;stroke-linecap:round;stroke-linejoin:round;stroke-width:10px;stroke-dasharray:0 0 0 0 0 0;stroke:#fff"/><path d="M455.5 582.7c11.6 22.3 28.8 20.1 46 32.9 5.2 3.8 6.7 18-14.9 11.2 46.7 61.8 107.7-17.3 107.9-69.7-4.3 3.3-13.9 8.3-17.4-.9-8.3-21.6 29.3-54.6 39.3-17.2 2.5 9.4-6.1 17.4-2.7 26.7 2.6 7.2 9.4 29-8.2 23.8-.3 19 20.4 44.4 37.4 48.2 51.5 11.8 90.4-56.5 98-75.1-16.7 6.6-32.4 2.7-2.3-23.5a74.7 74.7 0 0 0 22-33.2c-37.3 12.3 22.9-54.3 14.3-83.8-53.1 68.9-60.7 20.1-52.2 7-11.9 3.5-18.7 13.9-25.2 23.6-10 15-23.2 11.3-25.6-8-1.8-14.6-15.4-17.4-26-21.1 16.1 42.5-13.7 39.4-17.6 12.2-11.9 6.2-16.6 20-19.6 32-4.3 17.8-29.9 44.2-41.9 23-10-17.6 24.4-33.4-6.8-55.7-4.9 23.2-20.3 21.9-37.1 33.8-20.9 14.8-22.7-20.3-10.3-32.5-21.9 3.9-29.4 29.1-47.3 28.6s-14.4-22.6-6.2-32.8c-17.3 7.9-33.3 29.1-34.2 48.1-.5 9.6 13.1 25.5 1.9 30.4-6.5 3-12.7-5.7-19.2-.1 12.8 10.7 10.6 19.5 34.5 32.5 54.2 29.6 20.3 39.7 13.4 39.6Z" style="stroke:#000;fill:none;stroke-linecap:round;stroke-linejoin:round;stroke-width:10px;stroke-dasharray:0 0 0 0 0 0"/><defs><linearGradient id="zbk" x1="236.05" y1="322.22" x2="786.08" y2="195.7" gradientUnits="userSpaceOnUse"><stop offset="0" stop-color="#ff0080"/><stop offset="1" stop-color="#6a00ff"/></linearGradient><linearGradient id="zbk-2" x1="253.46" y1="373.96" x2="815.73" y2="373.96" gradientUnits="userSpaceOnUse"><stop offset="0" stop-color="#00ff84"/><stop offset="1" stop-color="#004cff"/></linearGradient><style>.zbk-3,.zbk-4{fill:none;stroke-linecap:round;stroke-linejoin:round;stroke-width:10px;stroke:#000}.zbk-4{opacity:.6}</style></defs><path d="M277.6 395.2c-58-233.3 425.8-349.7 508.5-97.5-104.6-28.1-415 39-508.5 97.5Z" style="fill:url(#zbk)"/><path d="M294.7 427.7c0-.1-6.5 12.2-5.1 22.2a84.4 84.4 0 0 0-30.7 6.1C191.5 337.6 774 270.5 789.1 298.1c34.5 13.6 34.5 54.4 5.6 75.2-1-3.6-1.3-19.2-25.5-36.9-160 3.8-324.4 35.6-474.5 91.3Z" style="fill:url(#zbk-2)"/><path class="zbk-3" d="M791.1 336.4A1541.8 1541.8 0 0 0 277 434.2"/><path class="zbk-3" d="M770.8 337.6c22.6 16.5 22.9 32.1 23.9 35.7 28.9-20.8 28.9-61.6-5.6-75.2-70.6-27.9-384.2 32.1-495.6 88.6-26.4 13.4-60 43.7-34.6 69.3a84.4 84.4 0 0 1 30.7-6.1c-1.4-10 5.1-22.3 5.1-22.2"/><path class="zbk-3" d="M319.6 376.1c2.8 11.7 6 23.4 9.5 35m64.1-56.7 8.2 35.9m80.9-60.2 8.8 39.9m83-60.2a432.5 432.5 0 0 0 5.3 43.8m90.7-57.4 3.1 44.2m68.5-47.6 2.4 42.3"/><path class="zbk-3" d="M788 297c-84.6-251.5-568.4-135.1-510.4 98.2"/><path class="zbk-4" d="M778.4 342.8a1506.5 1506.5 0 0 0-484.7 93.1m-17.5-1.2a41.2 41.2 0 0 0 13.1 1.4m502.3-98.9a30.6 30.6 0 0 1-10.8 6.5m1-56.7c-169.4-9.5-349.2 29.6-503.4 100.4m34.7-6.3q5.4 16.3 10.2 33"/><path class="zbk-4" d="M385.8 355.6c3.3 11.7 6.2 23.5 8.9 35.4m80.4-58.6 7.9 36.3m83.3-55.5c1.9 12.4 3.7 24.9 5.5 37.4m92.7-52.2c.7 13.6 1.6 27.2 2.7 40.7m67.8-43.8 2 38.4"/><path d="M766.9 307a51.2 51.2 0 0 1 22.2 7m-68.5-10.2c-9.3.5-18.6 1.2-27.9 2m-52.1 4.9-31.7 4.9m-63.2 11.6c-10.3 1.6-20.5 3.4-30.6 5.7m-58.3 13.9-28.7 7.5m-58.7 16.4c-7 2.3-14 4.5-21.1 6.5m-45 18a133.4 133.4 0 0 0-21.9 13.6m370.5-222.2a157.9 157.9 0 0 1 57.7 32.5m10.7 10.2 6.1 6m-347-14a187.2 187.2 0 0 0-65.7 60m-7.4 15.7a27.7 27.7 0 0 1-2.8 5.4" style="stroke:#fff;fill:none;stroke-linecap:round;stroke-linejoin:round;stroke-width:10px"/><style>.st16,.st40,.st68{fill:none;stroke:#fff;stroke-width:10;stroke-linecap:round;stroke-linejoin:round;stroke-miterlimit:10}.st40,.st68{stroke:#000}.st68{opacity:.6;enable-background:new}</style><g id="Polar_Hoodie"><linearGradient id="SVGID_00000032637641433338465610000007851579417180279483_" gradientUnits="userSpaceOnUse" x1="544" y1="-432" x2="544" y2="-1068" gradientTransform="translate(0 1066)"><stop offset="0" style="stop-color:#00ffc4"/><stop offset=".103" style="stop-color:#00f6c7"/><stop offset=".274" style="stop-color:#00ddce"/><stop offset=".489" style="stop-color:#00b5da"/><stop offset=".742" style="stop-color:#007deb"/><stop offset="1" style="stop-color:#003cff"/></linearGradient><path style="fill:url(#SVGID_00000032637641433338465610000007851579417180279483_)" d="M241 301.7c2 45-55.8 49.9-65 86-5 19 27 59-36 85-38 2.5-63 83-13 81.9 27-7-46 28.5 9 119.7 17 28-8 68-39.8 86 158 373 716 385 896 23.9-106-83-3-103-29-159-20-44-40-18-40.5-35.3 25-32 100.5-72.5 54-118-24-23-38 59.5-66 10.6-22-38 37-89 18-126-10.8-13-42-32-53-9.9-23 3 18-115-43-145-61 13-33 74-110-50-18-29-62 12-150-76-31-13.5-131 11.5-92 58-217-17-110 54-190 93.5-44 13-104 21-97 81.5 4 32 41 18 156 38 22 4 13-25 44-28.2 76 18 95-63 138-67 50.6-2 47 58 72 79 29 16 31-31 50-42 68.5-41 74 68 81 101 11 24 46 28 62 6 39 38-4 62-10 98 0 18 17 30 28 45 42 59-29 81-5.5 139.8 11 27 22 70.9-11 87-73 82 26 56-22 99.8-15 9.9-36.5 13.5-44 32.5-12.5 53-24 45.5-73 45-108 54.5-104 9.9-188-34.9-34-11-86 2-104.5-37 24 3.5 34-41 20.6-55-69-34-49.8-40-52.5-82.6-5-76.5-72.5-44-32-170 20-63-25.5-80 .8-148 12 34 57 12 59.8-16.9 2-19-6-39 2-57.5L241 301.7z"/><linearGradient id="SVGID_00000117640511703433748440000010943481505125308581_" gradientUnits="userSpaceOnUse" x1="541.898" y1="-622" x2="541.898" y2="96" gradientTransform="translate(0 1066)"><stop offset="0" style="stop-color:#ff0051"/><stop offset="1" style="stop-color:#ffae00"/></linearGradient><path style="fill:url(#SVGID_00000117640511703433748440000010943481505125308581_)" d="M103 782.3c-30.6-33.5 27-40 33-81 10-39.5-46-84-12-118 58.5 35 28-56 61-64-15.5 42 33 53 29 8.5 49 17 5.5 34 14 63.9 6 21 35-12 30-29 7 12 16 38 34 28-34 70 48.5 90 44 149.1-13 82 86 46 40 124.9-7 5-9 12-2 18 34 28 57.5-10 186 78 48 18 75-24 119-19.8 55.5 5 38-43 78-67 13-8 47-32 19-42-36-36 67-59 31-146-29.9-72 41-93 3-149.8 15-13 20-35 13-53 13 3 19 15 25 26 30 17.5 8-52.5 33.5-66-1 15-2 53 22 31.4 30.5 49 43-10 54-6 96.5 36-69 119-27.5 129 102 24-59 131 59 180.8-174 361.4-717 354.7-886 4z"/><path d="M513 184c32 24 78.5 20 109.9-2-31.9-21-83.9-35-109.9 1.8v.2z" style="fill:#fff"/><linearGradient id="SVGID_00000006678727818027146420000015326747936323323321_" gradientUnits="userSpaceOnUse" x1="563.48" y1="-907" x2="563.48" y2="-854" gradientTransform="translate(0 1066)"><stop offset="0" style="stop-color:#ff0051"/><stop offset="1" style="stop-color:#ffae00"/></linearGradient><path style="fill:url(#SVGID_00000006678727818027146420000015326747936323323321_)" d="M548 161c-33.5 34 23 54 37 33.1 19-37.1-29-39.1-37-33.1z"/><path class="st40" d="M302 413c13 30 55 19 61-10.5 3-13-.8-27-2-40.7-3-33 15-45 47-40.6 56 8 63-33 100.6-59 58-39.8 78 46 81 54 9 24.5 35 23 44-.7 26-71 94-32.5 93.5 28.4 1 13 1 25.5 5 38 8 32 68 39.5 59 5-1.5-6-17-12-17-12 27 9 43 42 33 68.2-8 21-39.9 44-13 70.7 26 26 40 54 25 83-54 105 46 96.5-36.5 188-7 8-12 22-13 29.3-3 17 20.1 28 23 17.9 5-18 16-26 16-26-17 19-13 22-22 45-12.5 32-49 12-55 56.6-8 33-26 40.9-57 34.9-21-.5-40 13-60 19-55 17-84-17-124-47-49-29-108 16-133-68.4 10 52 53-1 30-31-33-28-59-15-50-72 3-37-23-56-40.7-84-24-47.5 18-100 9-149.3-19-49-16-105 29-139"/><path class="st40" d="M990 780c-83-49.9-26-111-22-126 10.5-57-72-89.6-43-17.2-30.8-73 59-65 64-133.5 2-30.9-29.6-52-43-16-4 10.7-22 14-29 5.5-33.5-37.5 28-86 15-129.9-18-46.5-87-28-41 16-50-46 7-130.8-48-171-36-26-48.5 49-84 2-43-57-18-72-102-77.8-36-2.5-49-31-74-52-34-29-147 14-103 48 9.7 7.5 48-6 48-6-56 24.5-128-11-182 24-34 22-6 52-50 77-24 14-50 5-80 27-62 51 17 125 26 52-4 60.5-87 54-61 114.1 9 20-11 47-31 53-88 25-42 120-13 75 3-5 1-23 1-23 4 24-9 45-19.6 65.6-31 59.5 72 90-21 171C254 1139.8 822 1144 990 780z"/><path d="M893 378c-9.8-10.9-7-32.5 4-42-11-5-25 6-25.5 18M928 637.5c1-14 10.8-28 24-33-11-5-25-13-35-3M807 802c-11 9-25 18.5-39.7 13 6.5 1.5 5 16 22 19M358 843.5c10 7 24.5 5 33-4-2 12.5-11 27-25 29M134 519.7c-5 11.5-20.5 22-33 18 6 15 26.5 24 38 10m197-177c-11 18-22 41-9.7 60.9-15-.9-26.5-17-22-32M239 298.9c-9.5 12-27 21-43 15.9 8 12 26 22 39 12M527 119c-20 3-40-4-53-21-7 13 0 31 14 36m283 242c7 9 8 22 3 32 12.5-2 24-16 17-28v1" style="opacity:.6;enable-background:new"/><path class="st16" d="M908 358.5c8 6 11 18 8 27.5m-3.5 13c0 1.5-.5 3-1 4.5m59.5 87.3c4 10 3 22-3 31m-6 12.2c-1 .8-2 2-3 2m-14 82c6 6 9 15 8 23.5m-1 11.5c0 .8-1 2-1 2.5M832 219c10 6.5 17.5 17.5 19 29m1 16c1 2 1 4 .5 6M691 150c9 3 17.5 9 23 17M535 87c-15 .9-29.7 6-42 15m56-17.5h6.5M383 148c-14 2-28 9.7-36.5 21m53.1-23h4M220 265c-9.7 10-14 24.5-12 38m26-46.8 3-1.5M205 374c-8 5-14 14-15.5 24M124 496c-8 8-13 20-12 32m15 72.8c-4 11.5-3 16 3 28m9 11.2c1 2 1 4 2 6m230 173.7c6 5 9 14 7 21m-18.1-27.2c-1-.9-2-2-3-2M447 918c12 0 25 6 34 10.9m13 10.1c1 1 2 2 4 3m183.5 16c-9-2-18-1-26 2.5M758 889c-8 5-11 14-13 22m49-117c-5 6-8 12.5-9 19.7m16-30.7 3-3m24-165c-5 13-11 27.5-8 42m3 14.6 1 4.5M805 476c-6 8-5 19 1 27m-62-135.1c2 11.5 11 22 22 25m-24-40.3-.7-4M609.6 322c5-1 10-4.5 12-9m4.4-12 1.5-3M469 277.9c-9 11-20 20.6-33.5 26.5m-12.5 2.8h-5m-68.2 83.6c-1 10-7.5 19.5-16 24M349 369c.5 3 1 5 1 8m-64.5 124c3 10 4 21 2 31m-1.5 15c-1 2-1 3-2 5m18.5 139c9 8 15 18 18 29.5"/><path class="st68" d="M128 575c8 11 23 16 29 1 4-10 0-22 1-32 2-19 19-31 36-37.9-22 56 22 61 12.5 13 65 23 20.5 38 27 69.7 7 18 23-29.8 21-36 16 6.5 15 36 34.5 33M166.5 690.6c-13-28 26-47 26-75 9 9 6 24 12 34.9 7.5 6 11-9 10.9-15M219 726c-43 26-2 64.5-21 85.5m29-57.5c5-4 8-10.5 8-17m33 35.5c4 12-1 27-12 34.5m123 111c-4 12-12 22-22 29m152 9c-2 18-28 35.5-13 54m32-19c4-5 6-11 5-16.9v-.5M803 877c-17 10-26.5 44-15 60m26-87.3c10 14 11 33 1 47.5m66-64.7c-22 7-10 36-25 50m16-208.6c-42 19-6 58-13 78m32-122.2c-27 18 7 44-10 65M813 527c12-11 16-33 2-44 23.5-3 29 1 37.5 22 1.5 8 20 9.5 9-23.1-4.5-19 12-39.7 29.8-44-4 13-9 51 13 31.5"/><path class="st40" d="M123 579c8 20 40.5 18 43-3.5 2.5-22-11-39 22-60.6-17 60 37 51 25 11.7 14 1 31 15 25 28-29 64 23 54 19 5 12 8 15 42 32 33m525-59.7c17-9 20.8-34 7-48 27-4 21 19 31 27 5 4 13 1 15.5-4.1 10-18-18-35 19-65-12 48 16 38 19.9 30M361 950c11-6 19-18.5 19.6-31 .5 10 5 25 18 24m393.4-7c-13-19 3-42 13-58.5-2 51.5 45 2.5 9.8-30.7 12 2 27 6.5 31 19.2 2 6 1 16 8 19 4 2 10 0 12-4.5 9.6-18-5.5-30 17-47-4 9 1 24 12 20.6M860.5 753c19-24-31.5-42 13.5-78-6 29 13 30 17 14 8-29-23-32 3.5-59.4-2 22 24.5 17 24 52-.1 4 2 8 5 9.8M499.7 1009c-13-12 12.5-33 11.5-51.9 7 62 37 35 25 17 34 9.6 6 44.5 32 53M200.5 813c28-30.7-23-42 19.8-85-9 43 25 35 16.5 9 22 6 17 27 12.5 43.2-12 45 33 33 21-7 23 2 23 26 17 44-5 10.7-6 22 3.5 30.8M171 689.7c-10-22 23-34.5 23-66 3 10 1 31 11.5 36 11.5 2 16-15 12-23.5 33 17-1 46 25 63M501 194c38-51 91-36 131.5-11"/><path class="st40" d="M512.5 185c32 24 79 22 109-4"/><path class="st40" d="M541 166c-4 10.6-3 23 2 33m44-2c6-9.9 5-23-1-32"/><path class="st68" d="M508 190.7c35 25 86 23 118-6"/><path class="st16" d="M575 172c3 4 3 9 2 14"/></g><defs><linearGradient id="zae" x1="798.93" y1="733.98" x2="937.44" y2="726.56" gradientUnits="userSpaceOnUse"><stop offset="0" stop-color="#f705ff"/><stop offset=".5" stop-color="#e30556"/><stop offset="1" stop-color="#ffc505"/></linearGradient><linearGradient id="zae-2" x1="611.81" y1="744.71" x2="857.55" y2="744.71" gradientUnits="userSpaceOnUse"><stop offset="0" stop-color="#00ff6f"/><stop offset="1" stop-color="#0090ff"/></linearGradient><linearGradient id="zae-3" x1="826.24" y1="742.98" x2="857.41" y2="742.98" gradientUnits="userSpaceOnUse"><stop offset="0" stop-color="#f06"/><stop offset="1" stop-color="#f90"/></linearGradient><linearGradient id="zae-4" x1="652.3" y1="753.53" x2="744.04" y2="753.53" gradientUnits="userSpaceOnUse"><stop offset="0" stop-color="#ff009d"/><stop offset="1" stop-color="#ff6200"/></linearGradient><style>.zae-4{fill:none;stroke-linecap:round;stroke-linejoin:round;stroke:#000;stroke-width:10px}</style></defs><path d="M812.7 697.1c-.8-22 16.5-29.6 35.7-16.3 10.5 7.2 15.4-1.7 18.7-9.4 4.1-9.3 3.6-22 15-25.1 23.8-6.4 33.2 25.6 10.5 39.9-19.1 12 1.3 36 14.1 16s39.7-11.3 31.6 11.8-50.1 5.6-50.1 25.6c0 10.8 11.2 9.8 21.5 13.5 20.6 7.4 6.2 41.6-14.9 31.6-5.1-2.4-10.8-6.9-16.1-4.4s-6.4 10.6-2.1 16c5.6 7.1-1.3 16.9-9.5 17.8-10.6 1.1-15.2-10.9-26.1-11.6-8.9-.7-21.3-3-23.4-13.4Z" style="fill:url(#zae)"/><path d="M618.4 773.8c34.4-8.5 64.9 17.1 98 17.7 13.5.2 26.5-5.5 39.9-5.8 30.3-.7 84.6 8.6 93.6-13.4 27-65.5-22.1-88.1-77.6-66.3-22.3 8.8-52.5 17.8-49.1 11.6-11.3-39.7-77.3 19.7-106.9 13.8-6.8 12.9-5.7 29.7 2.1 42.4Z" style="fill:url(#zae-2)"/><path d="M826.2 700.5c13.3 51.7-1.7 70.9 4.5 83.3 21.3 15.6 49.6-80.6-4.5-83.3Z" style="fill:url(#zae-3)"/><path class="zae-4" d="M618.5 731.8c30.7.3 53.9-26.7 84.5-28.9 10-.7 24.2 8.1 18.6 18.9"/><path class="zae-4" d="M703.5 723c24.3 2.4 46.5-8.2 68.8-17 55.5-21.8 104.6.8 77.6 66.3-9 22-63.3 12.7-93.6 13.4-13.4.3-26.4 6-39.9 5.8-33.1-.6-63.6-26.2-98-17.7"/><path class="zae-4" d="M822.7 698.8c12.6 24.9 12.8 58.2 4.2 85m7.2-25.9 18.6-1.8m-19.2-29.2 19.1-3.1"/><path d="M652.5 752.4c3.9 11 18.1 7.3 27.1 6.2 13.9-1.6 26.9 6.1 40.5 8.2 32.8 4.8 31.5-32.1-1.3-22.7-16.9 4.8-70.3-17.1-66.3 8.3Z" style="fill:url(#zae-4)"/><path d="M689.5 743.1c-.3 21.2 51.3 36.2 52.5 9.2-2.4-12.2-42.8-8.6-52.5-9.2Z" style="opacity:.3;fill:#fff"/><path d="M716.3 747.7a24.6 24.6 0 0 1 14.2 17.3c31-7.7-2.6-32.5-14.2-17.3Z" style="opacity:.49;fill:#fff"/><path class="zae-4" d="M652.5 752.4c3.9 11 18.1 7.3 27.1 6.2 13.9-1.6 26.9 6.1 40.5 8.2 32.8 4.8 31.5-32.1-1.3-22.7-16.9 4.8-70.3-17.1-66.3 8.3Zm160.2-55.3c-.8-22 16.5-29.6 35.7-16.3 10.5 7.2 15.4-1.7 18.7-9.4 4.1-9.3 3.6-22 15-25.1 23.8-6.4 33.2 25.6 10.5 39.9-19.1 12 1.3 36 14.1 16s39.7-11.3 31.6 11.8-50.1 5.6-50.1 25.6c0 10.8 11.2 9.8 21.5 13.5 20.6 7.4 6.2 41.6-14.9 31.6-5.1-2.4-10.8-6.9-16.1-4.4s-6.4 10.6-2.1 16c5.6 7.1-1.3 16.9-9.5 17.8-10.6 1.1-15.2-10.9-26.1-11.6-8.9-.7-21.3-3-23.4-13.4m-200.2-69.5c-6.3 20.9-8.1 46 2.8 68.3m-40.6-82.5c17.4-67.6 59.3-31.9 66 18.2"/><path class="zae-4" d="M580.9 801.8c24.2 71.2 65.8 25.1 65.5-26.9"/><path d="M579.6 705.4c-1.9-18.1 12-42.1 31.5-36.9m-30.2 133.3c-1.6 20 21.5 52.2 41.4 33.1m-2.7-100c-2.1 11.4-2.1 24 1.2 35.1m82.5-48.2a43.1 43.1 0 0 0 16.4-7.2m-67.4 36.3c0 21.6 32.7 10.1 46.5 15.3s39.6 12.3 44.6-8.1m86.9-53.6c8.6 24.5 8.9 50.5 2.4 75.6" style="opacity:.6;stroke-width:10px;stroke:#000;fill:none;stroke-linecap:round;stroke-linejoin:round"/><path d="M817.3 714.5c-9.8-5.5-21.6-2.9-31.6.8m-11.3 3.4a8.5 8.5 0 0 0-2.2.9m-80.3-1.9a68.2 68.2 0 0 0-13.8 5.4M612 683.4c5.4 3.3 8.7 9.1 11.7 14.7m5.1 10.8.7 2.7m3.6 76.6a53.2 53.2 0 0 1-7.3 20.4m-7.6 10.1-2.3 2.3" style="stroke:#fff;stroke-width:10px;fill:none;stroke-linecap:round;stroke-linejoin:round"/><path d="M835.4 685.4a9 9 0 0 0-8.7.3m65.2-29.1a10.1 10.1 0 0 1 3 8m-2.2 7a5.9 5.9 0 0 1-1.7 2.7m38.9 31.7a9.5 9.5 0 0 1-6.3 8.3m-15.8 58.5a8.5 8.5 0 0 1-8.5 1.4m-6.7-2.8-1.6-.5m-31.5 30.3a10.1 10.1 0 0 0 6.3 3.2" style="stroke-width:6px;stroke:#fff;fill:none;stroke-linecap:round;stroke-linejoin:round"/><circle cx="550" cy="550" r="500" style="fill:none;stroke:#000;stroke-width:10;stroke-linecap:round;stroke-linejoin:round;stroke-miterlimit:10"/></svg>