<svg version="1.1" id="Layer_1" xmlns="http://www.w3.org/2000/svg" x="0" y="0" viewBox="0 0 1100 1100" style="enable-background:new 0 0 1100 1100" xml:space="preserve" xmlns:xlink="http://www.w3.org/1999/xlink"><style>.st17{fill:none;stroke-width:10;stroke-linecap:round;stroke-linejoin:round;stroke-miterlimit:10;stroke:#b5d7fc}</style><g id="clouds"><circle cx="549.5" cy="550" r="500" style="fill:#48aaf1"/><path d="M609 832.7c17 31 34 34 65 19.5 13 7.5 28 11 44 11.2-4 35.8 47 49.8 59 15.4 3.5 5 9.6-.1 40 7.4 48.5 12 55-70 2-66.1-5-11-14-20.8-25-26.3 3-18 12-35 13-53-2-21-17-35-38.5-24.3-9-8-22-8.5-36-9.1 14-23-67-49.5-62 19.7-14 2-28 9.5-37 21.8C575.8 702 534 836 609 832.7zM311 906c5 16 21 27 38 26.3 5 9 33 46 56 20.9 47 22 63-31.5 21-52.4-6-18-21-30-38-39.6 5-34-35-42-53-15.9-59-31.3-88 58.2-24 60.7zm68-193.5c6 33-38 52-64 37.3-9.8 21-39.7 26-56 10.3-9 6-17 10.6-25.5 14.8 5 37.5-32 62-50 20-6 4-14 5-21 3.1-5 11-13 22-25 25.5-18-2-88-142-69-177.7 12-22 37-30.1 59-17.3 2.5-13 8.5-25 17-33.6-7-41.5 33-58 53.5-21.3 22 1 38 15 48 32.9 14-9 86-56 108 9.2 20.7-9.8 33-8 52 4.3 37-9 55 42.5 16 52.5-17 3.3-1 20.5-43 40zM215 322.3c29 36 85-24 51-52.4 25-34-15-60.9-42-32.7-.7-18-12-34-29-38.1-27.5 25-51 55-69 88 8 12 22 19 37 18.6 5 22.3 34 31.3 52 16.6zm396-190.9c-36 17-16 83.5 42 51.9 25 28 59.6-38 23-65.6-1-27.7-65-66.7-65 13.7zm378 181.5c-20-10-42-5-61 7.2-15-13-37-3-47 11.7-14-22.5-70.7-16-32 39.6-8 12-12 26-7 41.3-42 11-29 65 6 77.1 9.9 3 39 56 70 9.9 9.7 6 22 7 33 2.7 5.8 12 24 10 33 19.7 14 23 41 25.5 65 18.1 0-79.2-24-157.2-60-227.3z" style="fill:#e8f4fe"/><path d="M695.5 698.2c-5 4-8 10.6-9 17M688 729v3m-104 51c0 9 2 17 6 25m-.1-42 4.1-4m39.5 83.6c7 4 15 4 22 0M666 839l1.5-2m62.5 30.5c.5 7 6 13 13 15m13 .5 2.5-1m71.5-47.2c6.5 2 11 9 12 16m-2 13.8c-.1 1 0 2-1 3m-44-134.8c2 5 1 11-1.5 16M784 757l-2 1m-32-37.5c3 1 6.5 3 8.5 6M289 866.1c-5 15 2 23 13 26m-6-37c0-1 1-2 2-2m75-9.5c3 3 4 9 3 13m-7 10.4-2 1.5m60 47.9c5 3 9.7 8 10 14m-7.1 15.1c1 0 2-1 3-2m-72.4-14.9c2 6 6.5 11.5 12 15m27-60.2c3 2 5 4 6.5 7m-94-294.6c-14.5-2-29.6 3-40 13m55-8.3c1 0 3 1 4 2m84 30.1c5 1 10 3 12 8m0 11.4-1 4m-36.2 34.7c-5 4-11 6-17 7m-7.8 30.6c-4 5-9 8-15 10m-11 3.7h-3m-70 3c1 6 7 11.5 13 12m12-2h2m-72 31.4c-1 5-3 10-7 13m-40-232.1c5 3 9 9 9.8 15m28.2 7.6c5 3 9.9 8 13 13m-123 33.4c6 0 12 2.5 16.5 6m8.5 9.7 2 3m828-332.9c7-.5 13 1 19 4m-55 11.2c0-5-3-9-8-10M861 361c-6-1.5-11-6-13-12m-18.5 101c2 12.5 14.5 22 26 24m-25.6-38.9c0-2 2-3 3-4m66.8 51.8c3 5 2 12-2 16m-16.7 5.2c1 1 2 1 3 1m86-1.4c5 2.5 10.5 3 15.8 2m20.2 21.5c5 4 12 4 19 4M853 400.1c-2-4-1-9 1-13M671 131c7 7 11 18 8 28m-6 11.9c-1 1-1 2-2 3m-56 6.1c8 3 16-1 21-7m6-10.1c0-1 .7-2 .9-3M641 96.3c-9 2-15.5 10.5-15 19.5m1.5 12.2.5 1.6m-430 86.6c5 5 8 11 9 18m3.8 11.8.2 3m49-5.9c2 3 3 8 1 11m3 45.8c-3 14-19.8 25-33 16m-6-9.6c-.9-.7-1-2-1-3m-33 14.8c-5-1-9-4-11-8.5m-5-10.8c0-1-.6-2-.7-3m-24.6-3.5c-4-1-7-4-9.5-7m7.8 506.8c-2 5-6 9-11 12" style="fill:none;stroke:#fff;stroke-width:10;stroke-linecap:round;stroke-linejoin:round;stroke-miterlimit:10"/><path class="st17" d="M62.5 658.3c7-44 62-48 81-9.6"/><path class="st17" d="M128.5 627.7c-2-13 4-26 15-33m15.5 11.2c-26-10-18-52 8-54.4 23-2 41 30.1 27 49"/><path class="st17" d="M197 574.1c22-2 42 19 50 38"/><path class="st17" d="M239 627.8c26-69.6 136-57 111.5 15"/><path class="st17" d="M355 617.9c10.9-14 39.7-11 48 5"/><path class="st17" d="M395 634.5c5-25.5 47-13 48 8.3 1 26-27 40.8-45 24"/><path class="st17" d="M417 674.2c-9 23-33 42-58 36"/><path class="st17" d="M379 711c9.7 33-38 56.5-63.5 38"/><path class="st17" d="M310.5 720.6c17 26-10 59.6-41 48.2-16-6-22-32-12-46"/><path class="st17" d="M256 756.9c-5.5 8.5-14 15-23 19"/><path class="st17" d="M219 767.6c34 12 3 63-22 48.2-8-5-14-14-14-23"/><path class="st17" d="M192 782.3c-6 9.6-16 16-27 17m-3-11.8c0 16-12 31.5-27 36.5m199.5 20.7c-41-21.5-63 13-60.5 33.2 3 25.5 37 39.9 54 17.5"/><path class="st17" d="M310.5 907.9c6 15 21 25 37 25"/><path class="st17" d="M348 921.2c-2 29 32 49 56 34m-66-85.7c-14-16 5.5-39 24-40.8 29.9-3 39 36.5 13 49"/><path class="st17" d="M388 864.5c18 3 34 17 39.5 35m-27.7 41.3c8 23 42 24 51 .7 8-22-23-49.9-43-34m201.2-73c14 37 69 37 73-5"/><path class="st17" d="M675 850.7c10 11 27 15 41 10.9m13-13.6c-21 13.5-9.6 46 13 49.7 25 7 47-23 23-39m12.5 18.3c7 4.5 16 5 23 2"/><path class="st17" d="M795 867.6c9.8 31 53 28 60.9-2.9 10-29.9-26-59-49-34"/><path class="st17" d="M818 821.3c-2-14-15-25-29-25"/><path class="st17" d="M777 805.6c13-6 22-19 23-33m-182 52.2c-39 30-64-37-43-64.8 37-48 70-1 69 17"/><path class="st17" d="M634 751.8c2-15 24-25 38-22"/><path class="st17" d="M682 746.8c-20-24-9-65 25-65.4 26.5-.5 35 34 21 53"/><path class="st17" d="M736 709c16-6 35 5 38.5 22"/><path class="st17" d="M782 773.1c47-9 29.8-78.5-14-55m92.1-225.7c9 52 89 17 43-24"/><path class="st17" d="M918 495c7 11 22 14 34 9m-3-11.8c4.5 19.9 27 32 46 26m-12 4.1c8 26 41.5 27 63 18m-173-52.6c-19.9 14-48.5-8-56-27.7-12-30.1 19-60 47-41"/><path class="st17" d="M844 410.8c-7-13-4-30 7-39"/><path class="st17" d="M868 375.5c-26 2-46-34-25-51.6 13-9 35-5 39 12"/><path class="st17" d="M889 352.4c-13-13-2-36 15-38.5 31.5-4 36 26.5 25 36m2-30c10.6-16 39.5-15.8 55-7m-859-23.8c7 12 22 19 35.5 16"/><path class="st17" d="M161 291.3c-4 29.6 32.5 54 53 28"/><path class="st17" d="M212 308c1 23 30 32 47 19.3 22.5-15 28-57-6-60m14-.2c27-28-19.6-58-40.9-29m-.6 12.7c-2-19-7-44-28-51M611 131.6c-21 5-23 33-13 48.8 17 27 60.1 11 57.5-20"/><path class="st17" d="M651 180.9c11 17 34 5 39-10.8 12-26-7.5-59-37-59"/><path class="st17" d="M621 141.6c-38-46.5 44-87 52-28"/></g><radialGradient id="a7" cx="580.189" cy="564.136" r="327.345" gradientTransform="matrix(1 0 0 1.2341 0 -131.758)" gradientUnits="userSpaceOnUse"><stop offset="0" style="stop-color:#20f"/><stop offset="1" style="stop-color:#ff00fb"/></radialGradient><path style="fill:url(#a7)" d="M534 210.7c-68 59.6-71 20-121 36.5-19.6 10.9-14 30-9.7 39.6 11 23-51 9-69 40.3-10 18 .1 42-7.5 61.8-9 19.6-34 35-37 52.2-43 48-154 7-119 70.4 6 11 33-6 39 9.1 7 17.5-39 29-21 46.7 18 5 21 39.9 57 63.2 14 20 3 51 19 69.1 35.8 38 46-25 41-34.3 4-39 44-11 22 38.7-23 52 11 74 36.5 56.6 24-9 13 39 23 50.9 19.5 37 55 12 67 12 18 1 28 22 29.8 40.3 6.5 63 54 46 59 8 15.5-34 45 49 47 59.9 11 73 69 42 71 17.9 3-54-3-60.1 2-68.3 18.5-31 71 13 90.8-15.5 14-19.7-31-63.5 8-55.4 94 19 19-101 14-120.4-9-35.5 14-106 47-121.7 18-9 17-35.5 7-52.8-9.5-17-25-30.6-31-48.9-13.5-54 22-102-36-133.3-5-3-7-9.5-4-14.4 17-26 1-66-32-71.4-22-3-44 9-66.5 6.3C618 249 581 179.7 534 210.7z"/><radialGradient id="b3" cx="576.431" cy="567.501" r="286.75" gradientUnits="userSpaceOnUse"><stop offset="0" style="stop-color:#ff00d0"/><stop offset="1" style="stop-color:#0073ff"/></radialGradient><path style="fill:url(#b3)" d="m339.9 679.6 457.5-205.8c84 96 24 91 9.9 104.2-70.1 128 5 134 1 195.7-149-156-336-279-473-446.5 0 83-16 63-47 126.1-56 20-102 17-102 16.7s-64 47 26 46.7c13 27.5-51 37-7 58.3 15 45 48 56 51 73.8 4 23-4 55.8 28 61.7 36 7 20.6-50.1 33-62.2 16.7-11.3 22.8 17.7 22.6 31.3z"/><style>.st40{fill:none;stroke:#000;stroke-width:10;stroke-linecap:round;stroke-linejoin:round;stroke-miterlimit:10}.st98{opacity:.6;enable-background:new}</style><g id="Outline"><path class="st98" d="M793 537c-1 .7-1 2-.5 3 5 10 11 35 25 30 8-2 21-13 18-22.4-.5-1-2-2-3-1.5-26 12-28-11-39-9.4v.3zm-34 274.5c6 5 26 8 25-3-6-7-20.6-12-21.5-26C750 772 744 803 759 811.5zm-219.3 52s1 .5 1 .8c9 13.5-3 36-18 40-34 6-9-6-6-44 .3-5.3 22.3 2.7 23 3.2zM342 731c5 7-4 22-4 33 8 13 29.6-5 33-14.9 2-12-17-21-28-20.2-1 .1-1 1.1-1 2.1zm31-120.2c2 23-8 47-26 61.9-13 10.9-17.5-30.6-8-27.9 6 4.2 28-18.8 34-34zm-157-59.9c-8 6-17 3-25 1-11 5 4 20 13.5 16 5-4 12-9 12-15.7-.5-.2-1.5-.2-.5-1.3zM337 473c-6-10-3-23 0-34 0-1 0-2-.6-2-9-9-23 11-19.8 20.7C318 463 338 475 337 472.8v.2z"/><path class="st98" d="M326 392c-2 29 24 45 7 44-7 2-14 1-15 11-1 11-24 0-24.5-1.3C285 433 317 404.5 326 392zm103-118c-9.9-4-16-16-18-25-4-6-9.9 1-11 6-7 54 29.5 28 29 19zm293 9c16 21 29.5 12 40 20.7 3 4 1 9.6-1 14-3 9-13 9-20 4.1-14.5-5.8-22-22.2-19-38.8z"/><path class="st40" d="M347 729c53.5 5 15 86 59 102 25 9 37-19.8 55-11.9 23 10.1 19.6 40 24 60.7 9.6 46 63 29.6 58-12.8"/><path class="st40" d="M519 861c89-9 47.5 119 114.5 115 39-6 35-47 25-76.5-3-9 0-18.5 7-24.5 24.5-21 59 15.5 84-2.5 15-11 8-33-2-45-12-15 0-32 10-43"/><path class="st40" d="M790 539c53 69.8-64 71 8 194.5 6 14 11 32 11 48.5 0 32-49 47.5-61 16"/><path class="st40" d="M721 287c2 51 64 31 74 88 6 34-11.5 71 7 103 10 18 27 31.5 34 51 8 19-4 47-27 42"/><path class="st40" d="M407 290.6c-16-8-12-29.9-2-41 17-15 40.5-10 61-6 29.8 1 49-29 75-38 50-17 81 55 133 44 23-5 48-11 69 1 25 14 33 55 10 75"/><path class="st40" d="M428 278c-16 26.5-51 17.5-76 28.5-20 10.5-28 33-23 55 10 47-43 51-39 88m25 4.5c1.5-23 35-26 41-5 7 25-13 47 16 72"/><path class="st40" d="M334 476c-20-34-61-31.5-89-9.6-20 8-43-3-64 4-22 7-28 37-5 43.5 6.5 2 23-2 26-1 15 4 11 25-5 30-21 6-10 29 6 29"/><path class="st40" d="M216 554.5c-15 15-14 41 2 55 37 22 41 31 36 69.7-2 31 46 41 53.5 10 2-10.8-4-22 0-33 13-32 44 20 62-44.5"/><path class="st40" d="M327 647.9c25 29.7-.5 47-7 75-10 32.5 34 65 53 25"/><path d="M729 262.5c9 4 16 13 18 22.5m-193-68c12.5 2 24.5 8 34 16m9 9 3 3m-163 10c-5.5-.9-12 .6-15.5 4M362 319.6c-9 2-14 10.7-16 19M339 449c4 1 6 6 6 9.8M308.5 470c-12-6-16-5-22-4M175 492c1-4 5-7 9-7.5m38 89.5c-4 8 0 16 4 19.9m44 78.6c-1 6 1 15 9 18m76-77.5c-3 14-13 14.5-16 16m4.5 119.5c-5-3-9-9-8-15M397 782c-1 14.5 7 28 14 30m90 53.9c-3 12 2 27 14.5 25M636 957c14-3 17-28 11-38m96-60.1c1-7 0-14-4-19m46-49.1c8-6.5 9-25 3-39M786 582c5-8 3-19-3-26m37-12c2-8.5-.6-18-7-24m-56-169c18 6 22 30 21 35" style="opacity:.7882;fill:none;stroke:#fff;stroke-width:10;stroke-linecap:round;stroke-linejoin:round;stroke-miterlimit:10;enable-background:new"/></g><style>.st40,.st68{fill:none;stroke-width:10;stroke-linecap:round;stroke-linejoin:round;stroke-miterlimit:10;stroke:#000}.st68{opacity:.6;enable-background:new}</style><g id="Happy_Beard"><linearGradient id="SVGID_00000012458921589117142250000001255892426965824154_" gradientUnits="userSpaceOnUse" x1="482.466" y1="444.183" x2="708.475" y2="85.169" gradientTransform="matrix(.9987 .05075 .05075 -.9987 14.064 1042.44)"><stop offset="0" style="stop-color:#00a2ff"/><stop offset=".654" style="stop-color:#aa36e8"/><stop offset="1" style="stop-color:#f0d"/></linearGradient><path style="fill:url(#SVGID_00000012458921589117142250000001255892426965824154_);stroke:#000;stroke-width:10;stroke-linecap:round;stroke-linejoin:round;stroke-miterlimit:10" d="M749.8 654c37 24 16.5 79 8.5 114-16 55 39 72 17 127.5-43-56-34 11-42 16.3-19-69-64-3-13 17.9-4 24-57-17-46 57.5-23-10.7-20.8-39.9-26-60.9-6-18-26-20.8-36-4.5-9.8 20.8-19 43-41 55 4-43-33-56-39-64.9-5-8-2-20.6-10-26-15-10-28 12-43 13.2 26-41-19.5-103-26-30-28-26-11-53-23-61-8-4-15 8-24 8 12.5-20.5-2-44-5-65.6-9-66 51.5-97 109-72.5 82 35 64-11 110-8.9 54 3 86-44 129-15.4v.3z"/><path d="M441 706c-36 33 0 64 9.9 68 44 21 49 42 67 62 28 26 56 18 87 2.2 19.5-9.9 43 1 65-1 30.6-3 59-32 55-64-6-46 7-36 20-56 8-12 1-29-10-37.3-33-22-53 13-81 19.5-12 2-24-4-36-4-24 0-45 44-112 4.9-22-13-48-10.7-65 5.3v.4z" style="fill:#fe1767"/><path d="M582 710.6c22.5 7 43 21 58 38.9 24-16 58-5 82 8-4-19 14-28 22-42.5 12-22-13-65-67-27.5-39 30.5-54-11.5-95 23.1z"/><path d="M629.8 745c-22-17-48-8-72-2.9-54 11-82-46-125-24 27-47 81-13 94-7.9C573 729 583 691 629.8 745zm26.2 40c2-22 25-37 46-37-17-14-45-9-62 3.6l16 33.4z" style="fill:#ae0f45"/><path class="st40" d="M441 706c-36 33 0 64 9.9 68 44 21 49 42 67 62 28 26 56 18 87 2.2 19.5-9.9 43 1 65-1 30.6-3 59-32 55-64-6-46 7-36 20-56 8-12 1-29-10-37.3-33-22-53 13-81 19.5-12 2-24-4-36-4-24 0-45 44-112 4.9-22-13-48-10.7-65 5.3v.4z"/><path class="st68" d="M433 710c-15 15-16 41-2 57 9.9 12 26 16 38 26 24.5 18 35 53 65 64.5 31 12 59-13 88-18 19.7-4 51 12 66-7m-264-153c-59 41-7 89-22 134"/><path d="M606 741c11 8 17 21 22 33m7 14 1 4m50-33c8 2 16 6 22 12.5m20-111.7c10 1 19.8 7 25 16m4 11.2 1 3.5M751.5 833c5 6 8 12.5 11 19.5M767 863l1 3m-171 56c-2 6-4 11-8 17m-6 10-2 2M448.5 817c-1 5 0 11 .5 16" style="fill:none;stroke:#fff;stroke-width:10;stroke-linecap:round;stroke-linejoin:round;stroke-miterlimit:10"/><path class="st40" d="M582 712c38 7.5 66 45 75 80.7M640 749c30-16 57-9 83 10.9"/><path class="st68" d="M731 897c.9-8.5 5-22 15-23m-48 21c-4 13 0 34 14 38m-59 19c3 9.5 9 18 16.5 24M487 861c4.5 11.5 7 19.9 3 29m-73-82c2-9 .7-22-7-28.5"/></g><defs><linearGradient id="zl" x1="574.42" y1="410.83" x2="618.38" y2="675.51" gradientUnits="userSpaceOnUse"><stop offset="0" stop-color="#00ff19"/><stop offset=".22" stop-color="#00fa46"/><stop offset=".7" stop-color="#00eeb6"/><stop offset="1" stop-color="#00e6ff"/></linearGradient><style>.zl-3{fill:none;stroke-linecap:round;stroke-linejoin:round;stroke-width:10px;stroke:#000}</style></defs><path d="M746.4 534.9c13.5 7.2 27.2-7.7 21.7-22.5-4.6-12.5-17-13.9-17-35.5 0-45.9-85.7-81.3-142.9-1.3-25.4 35.5-44.1-49.3-124-44.7-38.6 2.2-84.3 38.4-70.1 76.9 31 84.2 9.1 85.6 18.1 107.2 5.8 13.7 26.8 18.9 35.1 4.2 19.3 25.5 52.7 36.3 76.4 9.9 57.9 26.7 37.8-55 32.1-74.1-3.2-45.4 46.6-36.5 51.6-5.4 2.6 16.2-3.4 85.5 34.5 44.1 8.8 6 10.9 17.4 16.6 25.9 16.3 24.1 45.5 11.2 42.2-17 41.4 1.7 44.3-39.2 25.7-67.7Z" style="fill:url(#zl)"/><path d="M438.8 449.7a25.8 25.8 0 0 1 3.2 5.3l40.5 89.1 14.5-19.4 34 113.4s15.8-8.2 16.6-6.9c13.2 12.2 32.4-1.9 37.5-15.9l-86.3-125.8-11.2 26-25.8-78.5m180 6.5 1.7 3.3 17.9 81.5 13.3-14.7s20.7 118 20.7 118.8c22.6 2.6 24.8-13.8 24.4-31.7 8.1 1.5 14.9-1 21.4-5l-63.5-114.4-9.1 21.6-4-70.7" style="fill:#fff;opacity:.47"/><path class="zl-3" d="M458.7 607.4c9.5 6.5 14.6 17.9 23 25.8 17.5 16.1 46.2 12.8 62-4.2 4.3-4.6 8-10 13.6-12.8"/><path class="zl-3" d="M546 629c16.3 20.4 42.6-2.4 40.4-24.8-1.8-19.2-13.8-36.8-11.7-56 4.9-44.6 58.3-24.1 53.7 12.5-7.8 60.9 32.4 47.9 32.4 31.3"/><path class="zl-3" d="M653.4 587.4c25.2 6.3 18.1 44.5 44.5 45.9 11.1.6 24.3-10.8 22.6-25.1-1.2-10.5-9.2-13.3-6-24.3m5.2 15.7c19.4 6.2 39.7-10.2 39.6-30.5-.1-17.6-18.1-30.4-17.3-47.5"/><path class="zl-3" d="M746.4 534.9c13.5 7.2 27.2-7.7 21.7-22.5-4.6-12.5-17-13.9-17-35.5 0-45.9-56.4-50.9-75.3-47.5s-32.8 11.4-67.6 46.2c-30.9 30.9-44.1-49.3-124-44.7-38.6 2.2-84.3 38.4-70.1 76.9 31 84.2 9.1 85.6 18.1 107.2 5.8 13.7 26.8 18.9 34.5 4.6"/><path d="M428.9 449.8c-51.5 33.4 2.4 85.8-3.3 135.8-1.6 14-2.6 35.5 14.5 39.7m17.6-18.2c1.8 5.9 2.6 12.4-.2 17.8m100.2-8.6c-2.4 5.2-4.6 11.2-2.8 16.8m98-45.3a19.7 19.7 0 0 1-1.7 15.4m63.6-18.4c3.6 7 9.7 13.6 17.8 14.8m9.6-78.8a23.7 23.7 0 0 0 16.6 14.6m-292.7 90.2c7.1 9.4 17.8 19 30.4 16.6m45.9-9.1c7.6 6.5 19.7 6.8 28.5 1m28.9-109.4c42.3 24.6 7.5 57.5 35.3 77.9m26.3-2.6c8.7 9.5 10.9 24.3 22 32.1 7 4.9 17.3 5.9 23.4-.7" style="opacity:.6;stroke:#000;fill:none;stroke-linecap:round;stroke-linejoin:round;stroke-width:10px"/><path d="M711.8 447.7a25.1 25.1 0 0 1 18.5 15.2m4 11.6.1 2.6m19 34.3a16.1 16.1 0 0 1 3.3 8.1M743.4 560a20.2 20.2 0 0 1-1 18.5m-6.3-31.4 1.6 2.6m-31.6 53.7a15 15 0 0 1-2.1 15m-60.7-25.8a17 17 0 0 1-3.5-12.3m-133-132.9a67.2 67.2 0 0 1 34.6 19.8m-51.1-21a32.6 32.6 0 0 0-10.3.7m92.3 152.7a22.1 22.1 0 0 1-.5 14.8m-4.1-29.3.9 2m-32.4 30c-4.2 4.9-9.8 9-16.2 9.5m-12 2.7-2.9-.8m-60.4-17a13.3 13.3 0 0 1-1-12.1" style="stroke:#fff;fill:none;stroke-linecap:round;stroke-linejoin:round;stroke-width:10px"/><style>.st40,.st68{fill:none;stroke:#000;stroke-width:10;stroke-linecap:round;stroke-linejoin:round;stroke-miterlimit:10}.st68{opacity:.6;enable-background:new}.st102{fill:#fff}</style><g id="Trippy_Hat"><radialGradient id="SVGID_00000123414473825914092120000007829286393102463126_" cx="560.408" cy="901.895" r="355.63" gradientTransform="matrix(1 0 0 -1 0 1100)" gradientUnits="userSpaceOnUse"><stop offset="0" style="stop-color:#ff0062"/><stop offset="1" style="stop-color:#ff9d00"/></radialGradient><path style="fill:url(#SVGID_00000123414473825914092120000007829286393102463126_)" d="M367 287.1c-34 6-142 40-97.5 85.9 93 52 538.5 50 605.5-61 6-38-82-50-108-53-8-43-2-92-25-131-73-78-255-50.6-336 7.5C346 178 384 236 367 287v.1z"/><linearGradient id="SVGID_00000158731567478740519670000011292647734770965143_" gradientUnits="userSpaceOnUse" x1="665.288" y1="882.675" x2="765.301" y2="977.687" gradientTransform="matrix(1 0 0 -1 0 1100)"><stop offset="0" style="stop-color:#00ffc4"/><stop offset=".104" style="stop-color:#00f6c7"/><stop offset=".275" style="stop-color:#00dcce"/><stop offset=".494" style="stop-color:#00b3db"/><stop offset=".748" style="stop-color:#007bec"/><stop offset="1" style="stop-color:#003cff"/></linearGradient><path style="fill:url(#SVGID_00000158731567478740519670000011292647734770965143_)" d="M684 91c-19.5 2.5-29 23-13.5 40.6 44 50 5.8 18.5 11 73.5 1 10 9 22 20 19 49.8-45 19 22 59 18.5C766 110 716 105 684 91z"/><linearGradient id="SVGID_00000119838619519104526170000018100987693212792465_" gradientUnits="userSpaceOnUse" x1="442.246" y1="820.658" x2="250.246" y2="682.658" gradientTransform="matrix(1 0 0 -1 0 1100)"><stop offset="0" style="stop-color:#00ffc4"/><stop offset="1" style="stop-color:#003cff"/></linearGradient><path style="fill:url(#SVGID_00000119838619519104526170000018100987693212792465_)" d="M372.5 223.8c-2 22 2 44.5-7 65-93 0-203 114 52 114-49-62 53-61 9.9-96-30-18-24.5-32-14.5-60.5C419 223 389 218 372.5 223.8z"/><path class="st102" d="M648 185c-56-42-134-25-182 23 67 36 128 34 182-23.2v.2z"/><linearGradient id="SVGID_00000028312584919422827450000003060139484899234493_" gradientUnits="userSpaceOnUse" x1="555.957" y1="951.99" x2="560.957" y2="851" gradientTransform="matrix(1 0 0 -1 0 1100)"><stop offset="0" style="stop-color:#c800ff"/><stop offset=".107" style="stop-color:#c202ff"/><stop offset=".254" style="stop-color:#b009ff"/><stop offset=".424" style="stop-color:#9313ff"/><stop offset=".611" style="stop-color:#6b21ff"/><stop offset=".809" style="stop-color:#3834ff"/><stop offset="1" style="stop-color:#0048ff"/></linearGradient><path style="fill:url(#SVGID_00000028312584919422827450000003060139484899234493_)" d="M517 171.8c-9 19-10.5 60 18 60 21 0 44 0 62-10.8 15-12 8-36 2-50.9-7-17.1-66-6.1-82 1.7z"/><path d="M558 178c-20 10-26 73 11 49 11.5-12 10.5-49-11-49z"/><path class="st102" d="M560 180c-24 9.8-9 36 12 26.5 10-7.5 3-32.5-12-26.5z"/><path class="st40" d="M356 315c18-35 15-74 13-112-5-125 316-157 370-78 33 49 9 129 46 183"/><path class="st40" d="M364 287c-119 18-233 143 229 114 293-18 368-121 177-139M675 92c-45 42 35 48 12 85-16 26-2 58 20 45 6.5-4 10-13 18-13.4 19.6 2 5 45 37.5 34"/><path class="st40" d="M373.5 222.5c17-5 46 3 41 24-9 34-23 37 14 58.9 12 7 17 29.6-5 39.4-27 12-22 44-1.5 59.8M662 193c-59-55-160-33-206 25"/><path class="st40" d="M466.5 207c57 38 129 32 184-22.5"/><path class="st40" d="M515 174c-7 17-3 39.5 5 56m73-67c12 12 18.5 36 9 55m-58 12.5c-12-64 46-75 30-4.5"/><path class="st40" d="M546 193c-3 18 20 19.6 30 14"/><path d="M789 309c-3-14 7-33 17-43-12-1.5-30-9-40-1m-414 50c-2-9-8-16.5-16-20.7 8.5-6 20.7-5 30.7-5" style="opacity:.6;enable-background:new"/><path class="st68" d="M669 90c-9 5-18 16-15.5 26.5 10 46 43 13 22 84-4.5 15 12 35 28 28.9 11.5-4 24-29 29 3 2 13 16 21 28 16.5M462 214c66 42 135 28.5 191-23m-280.5 25c33-4.5 60 12 43 47.5-11 23 6 29.6 21 42.5 11 9.8 11 29-.5 38.7-6 5-48 20-7 59"/><path class="st68" d="M507 179c-5 15-4 31 2 45m94-58c8 13 11 29 9 44"/><path d="M712 123c11 9 19 22 23 35m4 15 1 5m113 139c-11 10-24 18-38.5 22.5m-14.6 5.5-5.9 2m-519 2c.5 16 21 21 38 24m15 4.5 9 2.1M586 174c3 6 5 12 6 19m1 11-1 3m-202 26c4 1 8 4 10 8m16 72c4 2.5 7.5 7 8 12m-18-19.5-2-1.5m292-115c-3 6-3 13-1 19m5-31 1-2m-22-50c-4.5-4-8-9.5-3-17m-242 28c-15 8-29 19-39 33m55.5-42 6.5-3" style="fill:none;stroke:#fff;stroke-width:10;stroke-linecap:round;stroke-linejoin:round;stroke-miterlimit:10"/><path class="st68" d="M318 398c162 25 323 20 473-25"/></g><circle cx="550" cy="550" r="500" style="fill:none;stroke:#000;stroke-width:10;stroke-linecap:round;stroke-linejoin:round;stroke-miterlimit:10"/></svg>