<svg version="1.1" id="Layer_1" xmlns="http://www.w3.org/2000/svg" x="0" y="0" viewBox="0 0 1100 1100" style="enable-background:new 0 0 1100 1100" xml:space="preserve" xmlns:xlink="http://www.w3.org/1999/xlink"><path d="M50 550C50 274 274 50 550 50s500 224 500 500S50 826 50 550z" style="fill:#0090ff"/><path d="M1050 550c0 276-224 500-500 500S50 826 50 550s1000-276 1000 0z" style="fill:#06f"/><style>.st42{stroke:#fff}.st42,.st43,.st44,.st45,.st46,.st47,.st48{fill:none;stroke-width:24;stroke-linecap:round;stroke-linejoin:round;stroke-miterlimit:10}.st43{stroke:#208670}.st44{stroke:#ffce00}.st45{stroke:#534a2e}.st46{stroke:#f96fff}.st47{stroke:#1553c0}.st48{stroke:#ff1767}</style><g id="trippenza"><path d="M533 210c-68 59.6-71 20-121 36.5-19.6 10.9-14 30-9.7 39.6 11 23-51 9-69 40.3-10.1 18 1 42-7.5 62-8 19.8-34 35-37 52-43 48-154 7-119 70 6 11 33-6 39 9.1 7 17.5-39 29-21 47 18 5 21 39.9 57 63 14 20 3 51 19 69 36 38 46-25 41-34.3 4-39 44-11 22 39-23 52 11 74 36.5 57 24-9 13 39 23 50.9 19.5 37 55 12 67 12 18 1 28 22 29.8 40 6 63 54 46 59 8 15.5-34 45 49 47 59.9 12 73 69.5 42 71 17.9 3-54-3-59.9 2-68 19-31 71 13 90.8-15.5 14-19.8-31-63 8-55 94 19.9 19-101 14-120.4-9-35.5 14-105.8 47-122 18-9 17-35.5 7-53-9.6-17-25-30.6-31-48.9-13.5-54 21-100.7-36-133.3-5-3-7-9.5-4-14 17-25.8 1-66-32-71-22-3-44 9-66.5 6C616 248 579 179 533 210z" style="fill:#31cf7b"/><path class="st42" d="M347 320.6c68 2 128 48 150.5 111"/><path class="st43" d="M367 500c12-19 45-49 93-39"/><path class="st44" d="M493 246c249 345-10.5 369 19 248.5"/><path class="st45" d="M541 469c-68-25-102 67-97 121"/><path class="st42" d="M456 808.9c-2-71 8-144 57-199.6l-3 3"/><path class="st46" d="M412 603c-17 34-25 73-23 111"/><path class="st44" d="M544 665c23 96 106 174 204 190"/><path class="st47" d="M573 602.9c92 22.5 175-57 218-130.5"/><path class="st48" d="M748 334c-15 51-46 95-83 133"/><path class="st45" d="M659 323c3.5 36-6 72-15 107"/><path class="st43" d="M584 643c47 28 107 31 156 9"/><path class="st44" d="M661 726.9c16 11 35 19 54 23"/><path class="st46" d="M738 458c-22 34-52.5 62.5-88 81"/><path class="st47" d="M588 264c10 25 16 52 18 79"/><path class="st44" d="M247 619c20.9-33 52-53 89.8-61"/><path class="st48" d="M334 514c-26-12.5-56-18-85-15"/><path class="st47" d="M378 399.6c16-2.5 34 2 47 11"/></g><style>.st40{fill:none;stroke:#000;stroke-width:10;stroke-linecap:round;stroke-linejoin:round;stroke-miterlimit:10}.st98{opacity:.6;enable-background:new}</style><g id="Outline"><path class="st98" d="M793 537c-1 .7-1 2-.5 3 5 10 11 35 25 30 8-2 21-13 18-22.4-.5-1-2-2-3-1.5-26 12-28-11-39-9.4v.3zm-34 274.5c6 5 26 8 25-3-6-7-20.6-12-21.5-26C750 772 744 803 759 811.5zm-219.3 52s1 .5 1 .8c9 13.5-3 36-18 40-34 6-9-6-6-44 .3-5.3 22.3 2.7 23 3.2zM342 731c5 7-4 22-4 33 8 13 29.6-5 33-14.9 2-12-17-21-28-20.2-1 .1-1 1.1-1 2.1zm31-120.2c2 23-8 47-26 61.9-13 10.9-17.5-30.6-8-27.9 6 4.2 28-18.8 34-34zm-157-59.9c-8 6-17 3-25 1-11 5 4 20 13.5 16 5-4 12-9 12-15.7-.5-.2-1.5-.2-.5-1.3zM337 473c-6-10-3-23 0-34 0-1 0-2-.6-2-9-9-23 11-19.8 20.7C318 463 338 475 337 472.8v.2z"/><path class="st98" d="M326 392c-2 29 24 45 7 44-7 2-14 1-15 11-1 11-24 0-24.5-1.3C285 433 317 404.5 326 392zm103-118c-9.9-4-16-16-18-25-4-6-9.9 1-11 6-7 54 29.5 28 29 19zm293 9c16 21 29.5 12 40 20.7 3 4 1 9.6-1 14-3 9-13 9-20 4.1-14.5-5.8-22-22.2-19-38.8z"/><path class="st40" d="M347 729c53.5 5 15 86 59 102 25 9 37-19.8 55-11.9 23 10.1 19.6 40 24 60.7 9.6 46 63 29.6 58-12.8"/><path class="st40" d="M519 861c89-9 47.5 119 114.5 115 39-6 35-47 25-76.5-3-9 0-18.5 7-24.5 24.5-21 59 15.5 84-2.5 15-11 8-33-2-45-12-15 0-32 10-43"/><path class="st40" d="M790 539c53 69.8-64 71 8 194.5 6 14 11 32 11 48.5 0 32-49 47.5-61 16"/><path class="st40" d="M721 287c2 51 64 31 74 88 6 34-11.5 71 7 103 10 18 27 31.5 34 51 8 19-4 47-27 42"/><path class="st40" d="M407 290.6c-16-8-12-29.9-2-41 17-15 40.5-10 61-6 29.8 1 49-29 75-38 50-17 81 55 133 44 23-5 48-11 69 1 25 14 33 55 10 75"/><path class="st40" d="M428 278c-16 26.5-51 17.5-76 28.5-20 10.5-28 33-23 55 10 47-43 51-39 88m25 4.5c1.5-23 35-26 41-5 7 25-13 47 16 72"/><path class="st40" d="M334 476c-20-34-61-31.5-89-9.6-20 8-43-3-64 4-22 7-28 37-5 43.5 6.5 2 23-2 26-1 15 4 11 25-5 30-21 6-10 29 6 29"/><path class="st40" d="M216 554.5c-15 15-14 41 2 55 37 22 41 31 36 69.7-2 31 46 41 53.5 10 2-10.8-4-22 0-33 13-32 44 20 62-44.5"/><path class="st40" d="M327 647.9c25 29.7-.5 47-7 75-10 32.5 34 65 53 25"/><path d="M729 262.5c9 4 16 13 18 22.5m-193-68c12.5 2 24.5 8 34 16m9 9 3 3m-163 10c-5.5-.9-12 .6-15.5 4M362 319.6c-9 2-14 10.7-16 19M339 449c4 1 6 6 6 9.8M308.5 470c-12-6-16-5-22-4M175 492c1-4 5-7 9-7.5m38 89.5c-4 8 0 16 4 19.9m44 78.6c-1 6 1 15 9 18m76-77.5c-3 14-13 14.5-16 16m4.5 119.5c-5-3-9-9-8-15M397 782c-1 14.5 7 28 14 30m90 53.9c-3 12 2 27 14.5 25M636 957c14-3 17-28 11-38m96-60.1c1-7 0-14-4-19m46-49.1c8-6.5 9-25 3-39M786 582c5-8 3-19-3-26m37-12c2-8.5-.6-18-7-24m-56-169c18 6 22 30 21 35" style="opacity:.7882;fill:none;stroke:#fff;stroke-width:10;stroke-linecap:round;stroke-linejoin:round;stroke-miterlimit:10;enable-background:new"/></g><style>.st231{fill:none;stroke:#000;stroke-width:10;stroke-linecap:round;stroke-linejoin:round;stroke-miterlimit:10}</style><g id="Layer_65"><path d="M356 639c8-18-17-27-19-43 7-59.6-10.7-35-28-65.1-7 17 17 81-13 55.1-7-6-2-19-8.5-26-42 42-9-38-27-59.4 1.5 26-36 17-15-35.1-108-4-96 43-63 50 19 4 37-17 24 21.7-13 8-32 15-12.5 30.9 23 14 3 28 29 44.6 32 18 36 34 30 68 1 14 15 25 29 25.8 39.6 3 9.5-50.6 37-61.3 11-2.2 29 7.8 37-6.2z" style="fill:#ff054c"/><path class="st231" d="M244.5 466.7c-20.9 59 19.9 60 12 27.5 24 25 1.5 43 5 67.8 3.5 16.5 27 9.8 22-6 15 5 3 38 19.9 34.8 26-4-13-44 6-72 0 36 24 19.8 30 45.9 2 7 0 15-1 22.1-7 28 21 27 20 50.4"/><path d="M313 516.9c0 34 24 19 30 44.3 2 7 0 14-1 21.3-7 27 21 26 20 48.6M248.5 466.7c-20.9 57 19.9 58 12 26.6 24 24 1.5 41 5 65.4 3.5 16 27 9 22-5.7 15 5 3 36 19.9 33.6" style="opacity:.6;stroke:#000;enable-background:new;fill:none;stroke-width:10;stroke-linecap:round;stroke-linejoin:round;stroke-miterlimit:10"/><path class="st231" d="M334 475.6c-20-34-61-31.5-89-9.6-20 8-43-3-64 4.1-22 7-28 37.5-5 43.5 6.5 2 23-2 26-1.1 15 4 11 25-5 30.1-21 6-10 29 6 29"/><path class="st231" d="M216 554.5c-15 15-14 41 2 54.6 37 22 40.7 30.9 36 69.7-2 31 46 41 53.5 10 2-10.8-4.5-22 0-32.7 12-32.5 44 20 62-44.5"/><path d="M269 669.9c-1.5 6-1 14 4 19m10 4.7c4 1.5 6 0 9-1.8m36-60.8c4 2 9 3 13 2.3M217.5 579c-1 7 2 15 8 19m10.5 6.7c.8.6 1.5 1 2 1.8M187 480c-5.5 2-10 6-12 11.8" style="stroke:#fff;fill:none;stroke-width:10;stroke-linecap:round;stroke-linejoin:round;stroke-miterlimit:10"/></g><defs><linearGradient id="zag" x1="638.52" y1="776.5" x2="875.8" y2="776.5" gradientUnits="userSpaceOnUse"><stop offset="0" stop-color="#17ffaa"/><stop offset="1" stop-color="#ffff17"/></linearGradient><linearGradient id="zag-2" x1="841.11" y1="758.37" x2="880.76" y2="761.1" gradientUnits="userSpaceOnUse"><stop offset="0" stop-color="#ff1726"/><stop offset="1" stop-color="#fff017"/></linearGradient><linearGradient id="zag-3" x1="882.79" y1="580.8" x2="875.4" y2="723.92" gradientUnits="userSpaceOnUse"><stop offset="0" stop-color="#fb17ff"/><stop offset=".15" stop-color="#fb17e3"/><stop offset=".47" stop-color="#fd179d"/><stop offset=".93" stop-color="#ff172d"/><stop offset="1" stop-color="#ff171b"/></linearGradient><style>.zag-3,.zag-7{fill:none}.zag-3{stroke:#000}.zag-3,.zag-7{stroke-linecap:round;stroke-linejoin:round}.zag-3{stroke-width:10px}.zag-7{stroke:#fff;stroke-width:6px}</style></defs><path d="M640.3 753.4c-8.3 43.3 13.3 40.2 47.2 47.4 23.5 8.7 69.4 20.7 93.2 11.7 67.7 40.5 151.2-100.7 43.1-76.6-23.7 8.5-48.5 1.2-72.5 8.1-36.7 21.1-70.6 19.9-111 9.4Z" style="fill:url(#zag)"/><path d="M847.7 732.2c5.3 19.7-19.2 34.8 2.5 53.1 31.1 14.3 37.8-60.9-2.5-53.1Z" style="fill:url(#zag-2)"/><path class="zag-3" d="M640.3 755c39.4-4.4 40 60.7 83.4 55.8"/><path class="zag-3" d="M659.7 757.4a80 80 0 0 1 39.7 7.6m-54.7 24.2c12.8 5.5 26 10.9 39.9 11.1 2.8.1 5.6-.1 8.4.1m86.6 12.3c-15.6 7-35.1 5.7-50.4-2.2-13.5-12.7-15.9-34.4-29.8-47.3 12.3-5.7 28.2-6.9 40.9-2 24.9 9.5 24.7 47.4 50.3 55.1 29.8 9 52.4.1 71.5-25.4 9.8-13.2 21.7-31.8 11.4-47.1-17.9-26.6-60.7-.5-87-1.2"/><path class="zag-3" d="M848.1 732c-4.7 3.6 4.6 9.1-5.1 25-7.7 12.6 1.3 31.9 16.9 32.4"/><path d="M861.7 704.3c1.5 19.1 25.4 19.7 24.4-13.6-1-31.4 37.5-39.2 25.1-82.2-8.2-28.8-47.4-20.7-34.5 9.3 2.4 5.5 7.9 10.3 6.8 16.2s-9.8 9-14.2 4c-3.1-3.5-3.2-9.5-7.2-12-8.4-5.3-24.8 11.9-9 31.6 11.9 14.8 7 26.6 8.6 46.7Z" style="fill:url(#zag-3);stroke-width:10px;stroke-linecap:round;stroke-linejoin:round;stroke:#000"/><path class="zag-3" d="M640.5 742.5c-4.3 18.7-1.4 38.2 1.8 57.1"/><path class="zag-3" d="M582.2 761.4C570 663.5 673.6 655 673.6 755m.7 45.8c4.6 84.1-87.2 86.6-87.2 7.8m140.2-52.5c56.6-35.3 93.1-6 112.2 52.1"/><path d="M581.5 762.4c-13-32.9 2.9-79.3 40.4-78.4M646 787.9c-2.3-10.5-6-30.5 10.2-25.5 7.1 2.2 17 24.6 27.3 33.6m13-31c11.1 11.4 13.9 28.7 24.3 40.6m6.5-47.2c26.2 5.8 28.8 38.2 47.3 52.4m29.7-66c16.6 11.6 32.5 29.3 37.6 49 3.4 13.6 16.1-1.1 4.1-1.7m3.9-57.7c3.4 20.5-17 39.5 10.8 52m-273.6 22.2c-8.6 36.3 29.6 78.8 63.3 51.6" style="opacity:.6;stroke-width:10px;stroke-linecap:round;stroke-linejoin:round;stroke:#000;fill:none"/><path d="M633.6 701.4c9.5 0 16.9 9.5 19.3 18.7m4.1 13.2.8 4.4m2.1 74.9c1.3 9.8-1.5 19.3-9.5 28m-10.4 8.6-1.7.7" style="stroke:#fff;stroke-width:10px;stroke-linecap:round;stroke-linejoin:round;fill:none"/><path class="zag-7" d="M655.5 783.8c1.9.9 3.8 1.6 5.7 2.3m6.8 2.8 1.9.4m23.5-4a48.2 48.2 0 0 0 12 13m21.3-8.9c2.6 5.9 6.2 11.9 11.4 13.1m49.2-49.2c7.6 3.7 15.4 8.1 19.6 15.4m3.6 5.9 1 1.9M781 796.2c2.5 5.3 7.9 8.7 13.5 10.5m8.2 2.1 1.8.5m86.1-207.5a10.6 10.6 0 0 1 9.2 7.5m2.9 7.7.2 1.3"/><path d="M855.5 639.6c-1.3 3.3.6 6.9 2.4 9.8" style="stroke-width:5px;stroke:#fff;stroke-linecap:round;stroke-linejoin:round;fill:none"/><path class="zag-7" d="m744.8 805.3 1.8.2m-58.5-27.4.9 1.2"/><style>.st40,.st68{fill:none;stroke-width:10;stroke-linecap:round;stroke-linejoin:round;stroke-miterlimit:10;stroke:#000}.st68{opacity:.6;enable-background:new}</style><g id="gooie_eyes"><linearGradient id="SVGID_00000114052739278173780720000006496866318907593611_" gradientUnits="userSpaceOnUse" x1="418" y1="886.17" x2="585.983" y2="886.17" gradientTransform="matrix(1 0 0 -1 0 1410)"><stop offset="0" style="stop-color:#fc0037"/><stop offset=".047" style="stop-color:#fc0d33"/><stop offset=".303" style="stop-color:#fc4e21"/><stop offset=".535" style="stop-color:#fc8213"/><stop offset=".736" style="stop-color:#fca709"/><stop offset=".898" style="stop-color:#fcbe02"/><stop offset="1" style="stop-color:#fcc600"/></linearGradient><path style="fill:url(#SVGID_00000114052739278173780720000006496866318907593611_);stroke:#000;stroke-width:10;stroke-linecap:round;stroke-linejoin:round;stroke-miterlimit:10" d="M576 524c10-11 15-31 5-42.9-20-24-28-3-39-51.5-9-37-49-36-70-17-12 11-14 30-24 44-6 8-13.5 14.5-19.8 22-14 14-12 40 10 42 3-5 5-11 5-18 1 23-24 43-9.6 67.9 5.8 10.1 17 19 17 30.8-1 18-7.5 47 15 46.9 13 0 14-19 20.9-24 23-16 24 31 53 10.4 7-6 12-16 11-26-5-43.5 49.5-41 25-84-4-8-10-12-12-21.9.5 8 6.5 19 12.5 21.1v.2z"/><linearGradient id="SVGID_00000089552583616707315270000002940239741937286795_" gradientUnits="userSpaceOnUse" x1="598.034" y1="893.204" x2="755.973" y2="893.204" gradientTransform="matrix(1 0 0 -1 0 1410)"><stop offset="0" style="stop-color:#fc0037"/><stop offset=".111" style="stop-color:#fc1f2e"/><stop offset=".342" style="stop-color:#fc5a1e"/><stop offset=".554" style="stop-color:#fc8911"/><stop offset=".742" style="stop-color:#fcaa08"/><stop offset=".897" style="stop-color:#fcbf02"/><stop offset="1" style="stop-color:#fcc600"/></linearGradient><path style="fill:url(#SVGID_00000089552583616707315270000002940239741937286795_);stroke:#000;stroke-width:10;stroke-linecap:round;stroke-linejoin:round;stroke-miterlimit:10" d="M744 536c13.5-10 19-32 2-46-55.5-46-10.9-60-45-84.5-28-20-69 4-72 34.4-7 65-21 39.9-29 66-6 19 4.5 39.7 26 26 0-5-.6-10-2-15 9.6 25-13 49-10 73.9 1 8 6.5 16 15 15 7-1 11-9 18-10 23 0 18 38 43 39.6 23 2 10-29 34-34.2 28-1 40.7-28 28-52-8.5-12-21-22-20-38-1 8.3 3.5 19.8 12 24.8z"/><path d="M492 481.5c13.5 43.5 8 49-2 90.8-2 51 58 4 50.7-37-2-10 0-37-6.5-43.4C514 499 508 482 492 481.5zm175 .5c22 26 4 59 2 88 2 19 25 14 31.5.6 15-21 11-62 7-87.2L667 482z"/><path d="M663 439.5c-19 22 23 62 41 38 0-17-9.8-42-29-42.1l-12 4.1zm-169 10.1c-18 19 22 57 39.5 37.9 5-14-10.8-48-28-44.8l-11.5 6.9z" style="fill:#fff"/><path class="st40" d="M499 444.5c-34 26 14 55-2.5 101.9-24 67 23.5 65 43 10C547 536 534 418 499 444.5z"/><path class="st40" d="M487 461c5 21 27 37 47 31m124-27c7 15.5 31 24.5 47 17"/><path class="st40" d="M675 435c-31 0-17 39-6 56 11 18 11 39.9 2 59-11.5 24 13 49 30 20 17-29.9 13.5-135-26-135.4v.4z"/><path class="st68" d="M475 406.9c-20 11-25 33.5-36 52-8 13.5-25 22-27 38.5-7 29.5 27 14.5 14 49.1-6 24 5 29.7 16.5 47 7 15-4 32 2 46.9 3 7 12 13 19 9M486 628c14-5 21.5 15 35 12m132-238c-15 8-27 23-30 39.5-4 19-5 31-18 45.5-14 15-16 53 11.5 52.5 4 17-20 56 5 65m19.5-4.7c21 1.5 21 35.5 43 35m30.5-26.8c14 0 27-8 34.5-19m-185-86c3.5 5 9 8 15 9.8"/><path class="st68" d="M439.9 501.9c-2 4-5 8-9 10.7m71.1-74.1c-44 21-2 59.8-8 94-2 19-15 39-8 58.5 6 17 26 13 33-1m150-159.1c-48 14 12 70 1 101-3 16-14 33-3.5 48 7 11 26 11 29-3M622 515.5c-2 6-4 12-9 16M734 510c2 7 6.5 13 12 16"/><path d="M512 414.5c6 2 10 7 13 12m5 12.5c0 1 1 2 1 3m30 38.8c5 2 9 6 11 11m-8 43.2c5 7 5 15.5-1 20.7m-8 8.5-1 1M537 609c2 8-3.5 17-12 19.8m-79-89.9c-5 9-5 19.7 0 28m22 63.7c-1 3-3 5-6 6m219-225.8c8 1 16 5 18 12.5m4 11.7s1 3 1 2m30 58c4 2 6.5 6 9 9.5m-7 42.5c7.5 8 10 20 6 30.6m-9 7.4c-1 .6-2 1-3 1.5M697.5 611c-1 5-4 8-8 11M626 574c-1 6-1 11.5 1 17m-16-78c0-6 3.5-12 9-14" style="fill:none;stroke:#fff;stroke-width:10;stroke-linecap:round;stroke-linejoin:round;stroke-miterlimit:10"/></g><linearGradient id="a24" gradientUnits="userSpaceOnUse" x1="573.737" y1="372.301" x2="573.737" y2="180.3"><stop offset="0" style="stop-color:#00ff9d"/><stop offset=".048" style="stop-color:#0af1a2"/><stop offset=".405" style="stop-color:#538bca"/><stop offset=".694" style="stop-color:#8940e6"/><stop offset=".898" style="stop-color:#aa12f8"/><stop offset="1" style="stop-color:#b700ff"/></linearGradient><path style="fill:url(#a24)" d="M755 324.4c23-19.7 15-61-10-75-21-11.5-46-6-69-1-52.5 10.5-83-60.6-133-44-26 9-45 39-75 38-20.5-4-44-9-61 6-11 11-11 35.5 4.5 43.6 0 0-14 4-31 8.3-3 9.7-.1 20 7 26.6 7 5.8 17 7 24 12.6 12 8 17 25.5 31 30.6 21 8 38-13 44-31.2 3-9 6-19.6 14-25.9 10.9-9 30-4 35.5 8.8 3.5 8 2 19 9 25.4 5.8 5 15 4 22 .4 19.9-12 9.5-32 7-52.5-2.5-19 10.6-25.5 28-16.2 21 11 27 32 32 52.5 4 17.5 28 26 44 18.4 14-7 25-27 42-22.7 15 3 21 28 38 25 7-1 12-9.5 9.5-18C748 321 755 324 755 324.4z"/><path d="M722 283.9c-4 28 26 37 45 50.2 2.5 8.5-2 17-9.5 18-17 3-23-22-38-25-18-4-28 16-42 22.7-16 8-39.7-.9-44-18.4-5-20.7-11-41-32-52.5-17-9-30-2-28 16.2 3 20 13 40.6-7 52.5-7 4-16 5-22-.4-7-6-5-17-9-25.4-5-13-25-18-35.5-8.8-8 6-10.5 16.5-14 25.9-6 18-23 39-44 31.2-14-5-19-22-31-30.6-7.5-5-17-7-24-12.6-7-6-10.5-17-7-26.6 17-5 41-6.5 49.6-24" style="fill:none;stroke:#000;stroke-width:10;stroke-linecap:round;stroke-linejoin:round;stroke-miterlimit:10;stroke-dasharray:0,0,0,0,0,0"/><path d="M408 289.6c-16-8-12-29.9-2-41.2 17-15 40.5-10.1 61-6 29.8 1 49-29 75-38 50-17 80.5 54.5 133 44 23-5 48-10.5 69 1 25 14 33 55 10 75" style="fill:none;stroke:#000;stroke-width:10;stroke-linecap:round;stroke-linejoin:round;stroke-miterlimit:10"/><path d="M723 283.6c5 15 17 28 33 33M429.7 274c-5 9-18 12-28 9M373 303.1c-3 25 18 31 36 41.9 9 7 14 18 24 24.8 28 19 52-5.8 60-33.2 3.5-12 14-27.5 28-21.5 17 11 4 42 35 40.1 13-2 25-13 28-25.5 2-10-3-20-4.5-30.7-2-19.7 12-22 26-13.4 19 12 16.5 39 27 56.9 17 25 48 17 66.5-1.4 25-24 31.5 7 48 14.1 9 4 21-2 24-11" style="opacity:.6;fill:none;stroke:#000;stroke-width:10;stroke-linecap:round;stroke-linejoin:round;stroke-miterlimit:10"/><path d="M736 260.5c5 2 9.8 6 13 11m5 11.2c.5 2 1 3.5 1 5m-194-71.8c9-1 17 4 25 9m10 8.1 3.8 2M412 266.1c.6-6 6-11 12-14m13-2.1h2.8m34.2 83.4c-2 7-6 13-12 17m17.8-30.7 1.2-2.7m86 5.2c1 4 .1 9-3 11.5m1-22.7-1-2m92.5 27.7c6 2 12 1 17-2.5" style="opacity:.651;stroke:#fff;fill:none;stroke-width:10;stroke-linecap:round;stroke-linejoin:round;stroke-miterlimit:10"/><style>.st231{fill:none;stroke:#000;stroke-width:10;stroke-linecap:round;stroke-linejoin:round;stroke-miterlimit:10}</style><g id="Layer_66"><path d="M902 539.9c23 45 86 12 84-31.1-2-75-92-102-123-159.9-15-28-8-66-29.9-89.7-36-39.5-98-30-114-96.1l13 27.7c44 20.8 55-64-12-77.4-54-10.8-104 33-158 26.3-30.6-4-57-24-87-30-136-25.5-114 150-221 195.8-17 7-35 15-46 30.6-15 21.5 3 53 30.5 53.9l30.8-43.9c-28 75-109.8 44.5-130 140.4-17 79.8 40 100.8 32 152.7-4 26-24 47-27 73-3 28 19 47.5 46 41.5 15-3 22-16 26-25L192 686c58 57-22 110 67 140.7 43 19 59.6 64 67 107.3 10.6 62 114 49 73-12.3-8-12-16-28 3-30.5 28.5-2 38 33.5 29.6 56.1-3 10.6-8 20.8-9 31.8-5 68 98 53 55-10.5-17-25.5 16-45 37-17.5 56 73 121 87 187 17.7 9-9.9 21.5-2 32 3.8 65 33 50.8-95.5 86-129.7l-22 50.5c11 37 60.8 29 75-2.4 14-30.9.9-68 12-100.3 11.5-35 52-57 56-93 9-82.5-82-100.9-17-213" style="opacity:.4314;fill:#00ffea;enable-background:new"/><path class="st231" d="M269 346c-28 75-109.8 44.5-130 140.4-17 79.8 40 100.8 32 152.7-4 26-24 47-27 73-3 28 19 47.5 46 41.5 15-3 19-12 23.5-21.1"/><path class="st231" d="M192 686c58 57-22 110 67 140.7 43 19 59.6 64 67 107.3 10.6 62 114 49 73-12.3-8-12-16-28 3-30.5 28.5-2 38 33.5 29.6 56.1-3 10.6-8 20.8-9 31.8-5 68 98 53 55-10.5-17-25.5 16-45 37-17.5 56 73 121 87 187 17.7 9-9.9 21.5-2 32 3.8 65 33 50.8-95.5 86-129.7"/><path class="st231" d="M924 484.5c-64 112 26 130.7 17 213-4 36-44 58.5-56 93-10.7 32 2 69-12 100.3-14 32-64 39-75 2.4"/><path class="st231" d="M719.5 163.1c16.5 66 78 57 114 96.1 21.5 23 15 62 29.9 89.7 31 58 120.7 85 123 159.9 1 43-61 76-84 31.1"/><path class="st231" d="M732 190.7c44 20.8 55-64-12-77.4-54-10.8-104 33-158 26.3-30.6-4-57-24-87-30C339 84 361 259.8 254 305.4c-17 7-35 15-46 30.6-15 21.5-3 54.5 25 55.4"/><path d="M824 843c-9 25-4 58 18 73.9-67 5.1-38-57.9-18-73.9zm104-359.1c-6 25.5 3 57 25.5 72.3-19 3-30 3-44-11.5-16-16.7 6.5-46.7 18.5-60.8zM723 160.1c7 14.5 22.5 25 39 25.8-18 14.1-49-2.9-39-25.8zM188 686.8c6 20.8 9 50.7-9 65.8 16.5 0 37-9 35-28.1-2-16.5-7-33.5-26-37.7zm79-344.3C252 360 228 379 204 369c11 20 32 29 49 8.8 10-9.8 16.7-19.8 14-35.3z" style="opacity:.6;enable-background:new"/><path d="M957 470.9c7 10.5 14 23 12 36.1m-4 16c-1 3-3 6-5 8m-52 107.3c7 10 12 23 13 35m1 14c0 3-.7 6-1.5 8.5M863 841.9c2 12 .9 24-3 34.9m-9 13.2c-1.5 2-3 4-5.5 4.9m-74 29.9c-.7 10.9-4 22-10.5 30.7m-203 14.2c12 14 29 23 47 26.3m17-.3c5 .5 10 0 14.5-2.3m-195.8-11.5c-.6 9 3.5 18 10.5 23.5m-9.2-37.3c.5-2 1-4 2-5.3m-99-34.3c3 13 14 24 26.5 27.6M339 908.7c-.7-2-1-3-2-5M230.5 779.8c2 11 9 22 19.9 26.3m12.6 5.8c1 .7 2.5 1 4 1.7M164 696c-5 8-5.5 18-2 26m7 11.5c1 1.5 3 3 5 3.6m26-307.8c-16 8-29 23-35 40.4m-5 15.8c-2 3-2.5 6-3 9.1m82-167.2c-7 5-15 10-17.5 18.4m-3.5 15.9v4.9m199-235.3c-14 8-25 20-31 34.5m51-40.2c5-1 10.6-1 16 .1m280 9.3c9 6 14.5 16 16 26.3m-31.5-33c-2-.9-4-1-6-1.5m80.5 123c9.9 4 19 9.8 26 17.8m9 13.1 3 6" style="stroke:#fff;fill:none;stroke-width:10;stroke-linecap:round;stroke-linejoin:round;stroke-miterlimit:10"/></g><circle cx="550" cy="550" r="500" style="fill:none;stroke:#000;stroke-width:10;stroke-linecap:round;stroke-linejoin:round;stroke-miterlimit:10"/></svg>