<svg version="1.1" id="Layer_1" xmlns="http://www.w3.org/2000/svg" x="0" y="0" viewBox="0 0 1100 1100" style="enable-background:new 0 0 1100 1100" xml:space="preserve" xmlns:xlink="http://www.w3.org/1999/xlink"><style type="text/css">.st304{fill:#FF0A68;stroke:#000000;stroke-width:10;stroke-linecap:round;stroke-linejoin:round;stroke-miterlimit:10;}</style><circle class="st304" cx="550" cy="553.7" r="500"/><defs><linearGradient id="a" x1="467.78" y1="347.4" x2="508.96" y2="422.3" gradientUnits="userSpaceOnUse"><stop offset="0" stop-color="#ff00f2"/><stop offset=".5" stop-color="#ac05ff"/><stop offset="1" stop-color="#0bf"/></linearGradient><linearGradient id="b" x1="625.23" y1="280.48" x2="689.78" y2="436.19" gradientUnits="userSpaceOnUse"><stop offset="0" stop-color="#00f"/><stop offset=".06" stop-color="#2c00ea"/><stop offset=".15" stop-color="#6b00cb"/><stop offset=".24" stop-color="#a000b2"/><stop offset=".32" stop-color="#c9009e"/><stop offset=".39" stop-color="#e70090"/><stop offset=".45" stop-color="#f90087"/><stop offset=".5" stop-color="#ff0084"/><stop offset=".58" stop-color="#ff2272"/><stop offset=".76" stop-color="#ff7a44"/><stop offset="1" stop-color="#fffb00"/></linearGradient><linearGradient id="c" x1="542.81" y1="533.18" x2="664.99" y2="716.92" gradientUnits="userSpaceOnUse"><stop offset="0" stop-color="#af0"/><stop offset=".25" stop-color="#fac400"/><stop offset=".29" stop-color="#fabf00"/><stop offset=".33" stop-color="#fab100"/><stop offset=".38" stop-color="#f99900"/><stop offset=".43" stop-color="#f87700"/><stop offset=".48" stop-color="#f74d00"/><stop offset=".5" stop-color="#f73e00"/><stop offset=".75" stop-color="#f5006e"/><stop offset="1" stop-color="#c0f"/></linearGradient><linearGradient id="d" x1="730.89" y1="463.6" x2="755.38" y2="535.72" gradientUnits="userSpaceOnUse"><stop offset="0" stop-color="#ff00a1"/><stop offset="1" stop-color="#0059ff"/></linearGradient><linearGradient id="e" x1="659.6" y1="799.3" x2="718.16" y2="799.3" gradientUnits="userSpaceOnUse"><stop offset="0" stop-color="#00f"/><stop offset="1" stop-color="#0fd"/></linearGradient><linearGradient id="f" x1="433.06" y1="520.57" x2="478.6" y2="623.4" gradientUnits="userSpaceOnUse"><stop offset="0" stop-color="#ff0900"/><stop offset=".1" stop-color="#ff0d00"/><stop offset=".2" stop-color="#fe1b00"/><stop offset=".31" stop-color="#fe3100"/><stop offset=".43" stop-color="#fd4f00"/><stop offset=".54" stop-color="#fb7600"/><stop offset=".58" stop-color="#fb8400"/><stop offset="1" stop-color="#f7ff00"/></linearGradient><linearGradient id="g" x1="514.44" y1="451.87" x2="573.27" y2="482.5" gradientUnits="userSpaceOnUse"><stop offset="0" stop-color="#ffb300"/><stop offset=".5" stop-color="#f2d45a"/><stop offset="1" stop-color="#e600ff"/></linearGradient><linearGradient id="h" x1="555.34" y1="254.67" x2="521.18" y2="370.89" gradientUnits="userSpaceOnUse"><stop offset="0" stop-color="#fffb00"/><stop offset=".05" stop-color="#f0fa0f"/><stop offset=".15" stop-color="#c9f736"/><stop offset=".3" stop-color="#89f176"/><stop offset=".47" stop-color="#32eacd"/><stop offset=".56" stop-color="#00e6ff"/><stop offset="1" stop-color="#6200ff"/></linearGradient><linearGradient id="i" x1="431.91" y1="482.9" x2="368.78" y2="334.62" gradientUnits="userSpaceOnUse"><stop offset="0" stop-color="#e1ff00"/><stop offset=".5" stop-color="#fa5700"/><stop offset="1" stop-color="#ff00f7"/></linearGradient><linearGradient id="j" x1="423.73" y1="687.79" x2="506.29" y2="788.25" gradientUnits="userSpaceOnUse"><stop offset="0" stop-color="#5900ff"/><stop offset=".5" stop-color="#db00c5"/><stop offset="1" stop-color="#ff4000"/></linearGradient><linearGradient id="k" x1="264.66" y1="609.94" x2="305.75" y2="609.94" gradientUnits="userSpaceOnUse"><stop offset="0" stop-color="#00f"/><stop offset="1" stop-color="#f0f"/></linearGradient><linearGradient id="l" x1="237.16" y1="499.87" x2="342.8" y2="552.28" gradientUnits="userSpaceOnUse"><stop offset="0" stop-color="#00ff04"/><stop offset=".06" stop-color="#01fe19"/><stop offset=".18" stop-color="#05fd50"/><stop offset=".34" stop-color="#0afaa8"/><stop offset=".5" stop-color="#0ff7ff"/><stop offset="1" stop-color="#5100ff"/></linearGradient><linearGradient id="m" x1="723.12" y1="717.37" x2="745.84" y2="681.95" gradientUnits="userSpaceOnUse"><stop offset="0" stop-color="#ff0037"/><stop offset=".39" stop-color="#ff1ce8"/><stop offset="1" stop-color="#ffc800"/></linearGradient><linearGradient id="n" x1="593.77" y1="831.53" x2="619.74" y2="874.05" gradientUnits="userSpaceOnUse"><stop offset="0" stop-color="#ea00ff"/><stop offset="1" stop-color="#ff0015"/></linearGradient></defs><g data-name="Layer 46"><path d="M531.7 209c-67.9 59.6-70.9 20.3-120.8 36.5-19.6 10.9-14.3 30.3-9.7 39.6 11.2 22.8-50.8 8.7-68.6 40.3-10.3 18.3.1 42.2-7.5 61.8s-33.8 34.7-36.8 52.2c-43.4 48.2-154 6.6-119.1 70.4 6.2 11.4 32.9-6.3 39.1 9.1 7 17.5-38.8 29.4-21.3 46.7 17.7 4.9 20.7 39.9 56.9 63.2 13.8 20 2.7 51.4 19.4 69.1 35.8 37.8 46.3-24.8 41.3-34.3 4.3-38.8 43.9-10.6 22.2 38.7-22.8 51.7 11.2 74 36.5 56.6 38.5-10.5-14.1 99.9 89.9 62.9 18.1.7 28 22.3 29.8 40.3 6.5 63 53.6 46.3 59.1 8 15.5-34.3 45.1 48.6 46.9 59.9 11.3 72.6 69.3 42 70.8 17.9 3.3-54.1-3.2-60.1 1.7-68.3 18.5-31.1 71 13.3 90.8-15.5 13.6-19.7-31.2-63.5 7.9-55.4 94 19.4 18.7-100.7 13.8-120.4-8.8-35.5 13.9-105.6 46.9-121.7 18.1-8.8 17.1-35.5 7.4-52.8s-24.9-30.6-31.4-48.9c-13.5-54.4 22.4-102.1-36-133.3a10.2 10.2 0 0 1-3.9-14.4c17.1-26.3 1.3-66.4-31.8-71.4-22.1-3.3-44.3 8.9-66.5 6.3-43.8-5.2-80.2-74.1-127-43.1Z" style="fill:#1c89ad"/><path d="M461.1 384.3c0-40.3 54-40.3 54 0s-54 40.4-54 0Z" style="fill:url(#a)"/><path d="M607.6 363.4c0-86.2 104-86.2 104 0s-104 86.2-104 0Z" style="fill:url(#b)"/><path d="M514.2 630.8c0-125.6 187-125.6 187 0s-187 125.5-187 0Z" style="fill:url(#c)"/><path d="M718.2 497.1c0-31.7 48.2-31.7 48.2 0s-48.2 31.7-48.2 0Z" style="fill:url(#d)"/><path d="M659.6 799.3c0-38.5 58.6-38.5 58.6 0s-58.6 38.5-58.6 0Z" style="fill:url(#e)"/><path d="M419.1 578.9c0-57.4 79.6-57.4 79.6 0s-79.6 57.4-79.6 0Z" style="fill:url(#f)"/><path d="M529.3 469.3c0-24.4 37-24.3 37 0s-37 24.3-37 0Z" style="fill:url(#g)"/><path d="M496.2 313c0-64.6 84-64.6 84 0s-84 64.6-84 0Z" style="fill:url(#h)"/><path d="M357.2 411.3c0-58.1 88.4-58.1 88.4 0s-88.4 58.1-88.4 0Z" style="fill:url(#i)"/><path d="M419.1 740.5c0-68.3 96-68.3 96 0s-96 68.4-96 0Z" style="fill:url(#j)"/><path d="M264.7 609.9c0-27 41.1-27 41.1 0s-41.1 27.1-41.1 0Z" style="fill:url(#k)"/><path d="M247.4 527.3c0-51.7 90-51.7 90 0s-90 51.6-90 0Z" style="fill:url(#l)"/><path d="M722.3 700.3c0-15.4 23.5-15.4 23.5 0s-23.5 15.4-23.5 0Z" style="fill:url(#m)"/><path d="M589.5 852.8c0-22.6 34.5-22.6 34.5 0s-34.5 22.5-34.5 0Z" style="fill:url(#n)"/></g><style>.st40{fill:none;stroke:#000;stroke-width:10;stroke-linecap:round;stroke-linejoin:round;stroke-miterlimit:10}.st98{opacity:.6;enable-background:new}</style><g id="Outline"><path class="st98" d="M793 537c-1 .7-1 2-.5 3 5 10 11 35 25 30 8-2 21-13 18-22.4-.5-1-2-2-3-1.5-26 12-28-11-39-9.4v.3zm-34 274.5c6 5 26 8 25-3-6-7-20.6-12-21.5-26C750 772 744 803 759 811.5zm-219.3 52s1 .5 1 .8c9 13.5-3 36-18 40-34 6-9-6-6-44 .3-5.3 22.3 2.7 23 3.2zM342 731c5 7-4 22-4 33 8 13 29.6-5 33-14.9 2-12-17-21-28-20.2-1 .1-1 1.1-1 2.1zm31-120.2c2 23-8 47-26 61.9-13 10.9-17.5-30.6-8-27.9 6 4.2 28-18.8 34-34zm-157-59.9c-8 6-17 3-25 1-11 5 4 20 13.5 16 5-4 12-9 12-15.7-.5-.2-1.5-.2-.5-1.3zM337 473c-6-10-3-23 0-34 0-1 0-2-.6-2-9-9-23 11-19.8 20.7C318 463 338 475 337 472.8v.2z"/><path class="st98" d="M326 392c-2 29 24 45 7 44-7 2-14 1-15 11-1 11-24 0-24.5-1.3C285 433 317 404.5 326 392zm103-118c-9.9-4-16-16-18-25-4-6-9.9 1-11 6-7 54 29.5 28 29 19zm293 9c16 21 29.5 12 40 20.7 3 4 1 9.6-1 14-3 9-13 9-20 4.1-14.5-5.8-22-22.2-19-38.8z"/><path class="st40" d="M347 729c53.5 5 15 86 59 102 25 9 37-19.8 55-11.9 23 10.1 19.6 40 24 60.7 9.6 46 63 29.6 58-12.8"/><path class="st40" d="M519 861c89-9 47.5 119 114.5 115 39-6 35-47 25-76.5-3-9 0-18.5 7-24.5 24.5-21 59 15.5 84-2.5 15-11 8-33-2-45-12-15 0-32 10-43"/><path class="st40" d="M790 539c53 69.8-64 71 8 194.5 6 14 11 32 11 48.5 0 32-49 47.5-61 16"/><path class="st40" d="M721 287c2 51 64 31 74 88 6 34-11.5 71 7 103 10 18 27 31.5 34 51 8 19-4 47-27 42"/><path class="st40" d="M407 290.6c-16-8-12-29.9-2-41 17-15 40.5-10 61-6 29.8 1 49-29 75-38 50-17 81 55 133 44 23-5 48-11 69 1 25 14 33 55 10 75"/><path class="st40" d="M428 278c-16 26.5-51 17.5-76 28.5-20 10.5-28 33-23 55 10 47-43 51-39 88m25 4.5c1.5-23 35-26 41-5 7 25-13 47 16 72"/><path class="st40" d="M334 476c-20-34-61-31.5-89-9.6-20 8-43-3-64 4-22 7-28 37-5 43.5 6.5 2 23-2 26-1 15 4 11 25-5 30-21 6-10 29 6 29"/><path class="st40" d="M216 554.5c-15 15-14 41 2 55 37 22 41 31 36 69.7-2 31 46 41 53.5 10 2-10.8-4-22 0-33 13-32 44 20 62-44.5"/><path class="st40" d="M327 647.9c25 29.7-.5 47-7 75-10 32.5 34 65 53 25"/><path d="M729 262.5c9 4 16 13 18 22.5m-193-68c12.5 2 24.5 8 34 16m9 9 3 3m-163 10c-5.5-.9-12 .6-15.5 4M362 319.6c-9 2-14 10.7-16 19M339 449c4 1 6 6 6 9.8M308.5 470c-12-6-16-5-22-4M175 492c1-4 5-7 9-7.5m38 89.5c-4 8 0 16 4 19.9m44 78.6c-1 6 1 15 9 18m76-77.5c-3 14-13 14.5-16 16m4.5 119.5c-5-3-9-9-8-15M397 782c-1 14.5 7 28 14 30m90 53.9c-3 12 2 27 14.5 25M636 957c14-3 17-28 11-38m96-60.1c1-7 0-14-4-19m46-49.1c8-6.5 9-25 3-39M786 582c5-8 3-19-3-26m37-12c2-8.5-.6-18-7-24m-56-169c18 6 22 30 21 35" style="opacity:.7882;fill:none;stroke:#fff;stroke-width:10;stroke-linecap:round;stroke-linejoin:round;stroke-miterlimit:10;enable-background:new"/></g><defs><linearGradient id="zae" x1="798.93" y1="733.98" x2="937.44" y2="726.56" gradientUnits="userSpaceOnUse"><stop offset="0" stop-color="#f705ff"/><stop offset=".5" stop-color="#e30556"/><stop offset="1" stop-color="#ffc505"/></linearGradient><linearGradient id="zae-2" x1="611.81" y1="744.71" x2="857.55" y2="744.71" gradientUnits="userSpaceOnUse"><stop offset="0" stop-color="#00ff6f"/><stop offset="1" stop-color="#0090ff"/></linearGradient><linearGradient id="zae-3" x1="826.24" y1="742.98" x2="857.41" y2="742.98" gradientUnits="userSpaceOnUse"><stop offset="0" stop-color="#f06"/><stop offset="1" stop-color="#f90"/></linearGradient><linearGradient id="zae-4" x1="652.3" y1="753.53" x2="744.04" y2="753.53" gradientUnits="userSpaceOnUse"><stop offset="0" stop-color="#ff009d"/><stop offset="1" stop-color="#ff6200"/></linearGradient><style>.zae-4{fill:none;stroke-linecap:round;stroke-linejoin:round;stroke:#000;stroke-width:10px}</style></defs><path d="M812.7 697.1c-.8-22 16.5-29.6 35.7-16.3 10.5 7.2 15.4-1.7 18.7-9.4 4.1-9.3 3.6-22 15-25.1 23.8-6.4 33.2 25.6 10.5 39.9-19.1 12 1.3 36 14.1 16s39.7-11.3 31.6 11.8-50.1 5.6-50.1 25.6c0 10.8 11.2 9.8 21.5 13.5 20.6 7.4 6.2 41.6-14.9 31.6-5.1-2.4-10.8-6.9-16.1-4.4s-6.4 10.6-2.1 16c5.6 7.1-1.3 16.9-9.5 17.8-10.6 1.1-15.2-10.9-26.1-11.6-8.9-.7-21.3-3-23.4-13.4Z" style="fill:url(#zae)"/><path d="M618.4 773.8c34.4-8.5 64.9 17.1 98 17.7 13.5.2 26.5-5.5 39.9-5.8 30.3-.7 84.6 8.6 93.6-13.4 27-65.5-22.1-88.1-77.6-66.3-22.3 8.8-52.5 17.8-49.1 11.6-11.3-39.7-77.3 19.7-106.9 13.8-6.8 12.9-5.7 29.7 2.1 42.4Z" style="fill:url(#zae-2)"/><path d="M826.2 700.5c13.3 51.7-1.7 70.9 4.5 83.3 21.3 15.6 49.6-80.6-4.5-83.3Z" style="fill:url(#zae-3)"/><path class="zae-4" d="M618.5 731.8c30.7.3 53.9-26.7 84.5-28.9 10-.7 24.2 8.1 18.6 18.9"/><path class="zae-4" d="M703.5 723c24.3 2.4 46.5-8.2 68.8-17 55.5-21.8 104.6.8 77.6 66.3-9 22-63.3 12.7-93.6 13.4-13.4.3-26.4 6-39.9 5.8-33.1-.6-63.6-26.2-98-17.7"/><path class="zae-4" d="M822.7 698.8c12.6 24.9 12.8 58.2 4.2 85m7.2-25.9 18.6-1.8m-19.2-29.2 19.1-3.1"/><path d="M652.5 752.4c3.9 11 18.1 7.3 27.1 6.2 13.9-1.6 26.9 6.1 40.5 8.2 32.8 4.8 31.5-32.1-1.3-22.7-16.9 4.8-70.3-17.1-66.3 8.3Z" style="fill:url(#zae-4)"/><path d="M689.5 743.1c-.3 21.2 51.3 36.2 52.5 9.2-2.4-12.2-42.8-8.6-52.5-9.2Z" style="opacity:.3;fill:#fff"/><path d="M716.3 747.7a24.6 24.6 0 0 1 14.2 17.3c31-7.7-2.6-32.5-14.2-17.3Z" style="opacity:.49;fill:#fff"/><path class="zae-4" d="M652.5 752.4c3.9 11 18.1 7.3 27.1 6.2 13.9-1.6 26.9 6.1 40.5 8.2 32.8 4.8 31.5-32.1-1.3-22.7-16.9 4.8-70.3-17.1-66.3 8.3Zm160.2-55.3c-.8-22 16.5-29.6 35.7-16.3 10.5 7.2 15.4-1.7 18.7-9.4 4.1-9.3 3.6-22 15-25.1 23.8-6.4 33.2 25.6 10.5 39.9-19.1 12 1.3 36 14.1 16s39.7-11.3 31.6 11.8-50.1 5.6-50.1 25.6c0 10.8 11.2 9.8 21.5 13.5 20.6 7.4 6.2 41.6-14.9 31.6-5.1-2.4-10.8-6.9-16.1-4.4s-6.4 10.6-2.1 16c5.6 7.1-1.3 16.9-9.5 17.8-10.6 1.1-15.2-10.9-26.1-11.6-8.9-.7-21.3-3-23.4-13.4m-200.2-69.5c-6.3 20.9-8.1 46 2.8 68.3m-40.6-82.5c17.4-67.6 59.3-31.9 66 18.2"/><path class="zae-4" d="M580.9 801.8c24.2 71.2 65.8 25.1 65.5-26.9"/><path d="M579.6 705.4c-1.9-18.1 12-42.1 31.5-36.9m-30.2 133.3c-1.6 20 21.5 52.2 41.4 33.1m-2.7-100c-2.1 11.4-2.1 24 1.2 35.1m82.5-48.2a43.1 43.1 0 0 0 16.4-7.2m-67.4 36.3c0 21.6 32.7 10.1 46.5 15.3s39.6 12.3 44.6-8.1m86.9-53.6c8.6 24.5 8.9 50.5 2.4 75.6" style="opacity:.6;stroke-width:10px;stroke:#000;fill:none;stroke-linecap:round;stroke-linejoin:round"/><path d="M817.3 714.5c-9.8-5.5-21.6-2.9-31.6.8m-11.3 3.4a8.5 8.5 0 0 0-2.2.9m-80.3-1.9a68.2 68.2 0 0 0-13.8 5.4M612 683.4c5.4 3.3 8.7 9.1 11.7 14.7m5.1 10.8.7 2.7m3.6 76.6a53.2 53.2 0 0 1-7.3 20.4m-7.6 10.1-2.3 2.3" style="stroke:#fff;stroke-width:10px;fill:none;stroke-linecap:round;stroke-linejoin:round"/><path d="M835.4 685.4a9 9 0 0 0-8.7.3m65.2-29.1a10.1 10.1 0 0 1 3 8m-2.2 7a5.9 5.9 0 0 1-1.7 2.7m38.9 31.7a9.5 9.5 0 0 1-6.3 8.3m-15.8 58.5a8.5 8.5 0 0 1-8.5 1.4m-6.7-2.8-1.6-.5m-31.5 30.3a10.1 10.1 0 0 0 6.3 3.2" style="stroke-width:6px;stroke:#fff;fill:none;stroke-linecap:round;stroke-linejoin:round"/><style>.st114,.st40{fill:none;stroke:#000;stroke-width:10;stroke-linecap:round;stroke-linejoin:round;stroke-miterlimit:10}.st114{opacity:.6}</style><g id="suspicious_eye"><path d="M719 485.7c-75 34-164 43-245 39-79.5-4-88 69-8 79.6 62 8 254-20 290-73.1 22-30.2-4-60.2-37-45.5z" style="fill:#fff"/><path d="M574 545.3c1 17.5 0 35-5 52.2l56-9.9-16.5-30.5-34.5-11.8z"/><linearGradient id="SVGID_00000126282863442437977090000011937741723992343478_" gradientUnits="userSpaceOnUse" x1="587.88" y1="506.723" x2="601.628" y2="614.919"><stop offset="0" style="stop-color:#b0f"/><stop offset="1" style="stop-color:#f04"/></linearGradient><path style="fill:url(#SVGID_00000126282863442437977090000011937741723992343478_)" d="M662 508.1c13 16 19 46 13 65.8.5 0-49 15-49 14.6-27-20.5-5.5-57.5-26-66.7-46-4-15 52-33 76.7 0 0-43 3-43 2.9-13-21-19.5-53-3-73.9 48-3.5 94-8.5 141-19.4z"/><path class="st40" d="M719 485.7c-75 34-164 43-245 39-79.5-4-88 69-8 79.6 62 8 254-20 290-73.1 22-30.2-4-60.2-37-45.5z"/><path class="st40" d="M519.8 527.9c-13 23-7 52 4 75M661 508.4c17.5 17.5 19 42 14 66m-111 25.8c23-20.9-12-81 34-78.9 26 4 0 48 28 66"/><path class="st40" d="M575 533.1c3 15 18 26 34 24m121-96.7c23-5 37 2 48 21m-357 27c-14 4-25 16-29 29.9"/><path class="st114" d="M419.6 506.5c-15.5 2-28 15-29 30.8M729 456.8c19-9 41 3 50 20.9m-369 77.1c-22 112 366 41 355-46"/><path class="st114" d="M417.5 545.8c28-16 63-17.5 94-12.8-5 22-5 46 5 66M668 510.9c29.8-5 57-29 88-20.6"/><path d="M655 521.9c5 8 8 17 8 26m-1 12.1v3" style="opacity:.7804;stroke:#fff;fill:none;stroke-width:10;stroke-linecap:round;stroke-linejoin:round;stroke-miterlimit:10"/></g><defs><linearGradient id="zba" x1="236.25" y1="315.23" x2="831.1" y2="276.55" gradientUnits="userSpaceOnUse"><stop offset="0" stop-color="#ffe600"/><stop offset=".1" stop-color="#ffd80d"/><stop offset=".29" stop-color="#ffb430"/><stop offset=".54" stop-color="#ff7a68"/><stop offset=".85" stop-color="#ff2bb4"/><stop offset="1" stop-color="#f0d"/></linearGradient><linearGradient id="zba-2" x1="170.69" y1="396.71" x2="297.01" y2="391.81" gradientUnits="userSpaceOnUse"><stop offset="0" stop-color="#ffe600"/><stop offset="1" stop-color="#fb00ff"/></linearGradient><style>.zba-3{fill:none;stroke-linecap:round;stroke-linejoin:round;stroke-width:10px;stroke:#000}</style></defs><path d="M302.4 418.1c-6.2 7-11.2 12.6-13.1 22.1-29.2-1-28-19.1-16.1-37.7 13.9-21.6 21.4-46.8 26-72.1 35.7-199.2 379.2-210.4 492.2-64.9 26.5 34.1 75.6 111.2 5.1 124.4-.2-10.9-.8-22.7-9.9-32.9-168.1-31.3-344.7 5.4-503.5 66.2 0 0 239.5-107.6 239.5-107.9 29.4 8.3 87.5 14 109.8-10.4 8-20.2-164.4-16.8-104.8 13.1Z" style="fill:url(#zba)"/><path d="M296.9 338.5c-48.3 49.4-111.6 56.7-124.8 82.1s53.4 39.7 98.4 14.9c-15.4-24.6 26.7-60.7 26.4-97Z" style="fill:url(#zba-2)"/><path class="zba-3" d="M809.2 361.3c-177.3-36.6-357.6-4.4-523.7 62.7"/><path class="zba-3" d="M302.4 418.1c-6.2 7-11.2 12.6-13.1 22.1-29.2-1-28-19.1-16.1-37.7 13.9-21.6 21.4-46.8 26-72.1 35.7-199.2 379.2-210.4 492.2-64.9 26.5 34.1 75.6 111.2 5.1 124.4-.2-10.9-.8-22.7-7.2-31.9"/><ellipse class="zba-3" cx="574.7" cy="306.2" rx="60.3" ry="15.5" transform="rotate(-2.5 584.699 310.79)"/><path class="zba-3" d="M295.3 339.7c-21.3 18.9-45.4 34.5-71 47.2-18.9 9.4-47 14.7-53 36-9.8 34.9 89.4 22.7 103.1 14.3"/><path d="M791.2 365.2c-164.8-31-336.1 1.8-493 60.8m332.7-121.7a180.2 180.2 0 0 0-112 3.5m291 54.9a39.2 39.2 0 0 0-12 4.3m-513.3 57.5a19.3 19.3 0 0 0 7 4.2m-3.2-79.8c-4.3 17.8-10.9 35.4-21 50.6-7.1 10.6-11.8 23.8-6.3 36" style="opacity:.6;stroke:#000;fill:none;stroke-linecap:round;stroke-linejoin:round;stroke-width:10px"/><path d="M701.6 218.9a130.2 130.2 0 0 1 51 36.9m12.4 15 3.4 4.4m-539.3 123L201 410.9m-10.2 6.5a7.5 7.5 0 0 0-3.5 3.1m154-150.5a141.8 141.8 0 0 1 46.7-43.8" style="stroke:#fff;fill:none;stroke-linecap:round;stroke-linejoin:round;stroke-width:10px"/><circle cx="550" cy="550" r="500" style="fill:none;stroke:#000;stroke-width:10;stroke-linecap:round;stroke-linejoin:round;stroke-miterlimit:10"/></svg>