<svg version="1.1" id="Layer_1" xmlns="http://www.w3.org/2000/svg" x="0" y="0" viewBox="0 0 1100 1100" style="enable-background:new 0 0 1100 1100" xml:space="preserve" xmlns:xlink="http://www.w3.org/1999/xlink"><style>.st17{fill:none;stroke-width:10;stroke-linecap:round;stroke-linejoin:round;stroke-miterlimit:10;stroke:#b5d7fc}</style><g id="clouds"><circle cx="549.5" cy="550" r="500" style="fill:#48aaf1"/><path d="M609 832.7c17 31 34 34 65 19.5 13 7.5 28 11 44 11.2-4 35.8 47 49.8 59 15.4 3.5 5 9.6-.1 40 7.4 48.5 12 55-70 2-66.1-5-11-14-20.8-25-26.3 3-18 12-35 13-53-2-21-17-35-38.5-24.3-9-8-22-8.5-36-9.1 14-23-67-49.5-62 19.7-14 2-28 9.5-37 21.8C575.8 702 534 836 609 832.7zM311 906c5 16 21 27 38 26.3 5 9 33 46 56 20.9 47 22 63-31.5 21-52.4-6-18-21-30-38-39.6 5-34-35-42-53-15.9-59-31.3-88 58.2-24 60.7zm68-193.5c6 33-38 52-64 37.3-9.8 21-39.7 26-56 10.3-9 6-17 10.6-25.5 14.8 5 37.5-32 62-50 20-6 4-14 5-21 3.1-5 11-13 22-25 25.5-18-2-88-142-69-177.7 12-22 37-30.1 59-17.3 2.5-13 8.5-25 17-33.6-7-41.5 33-58 53.5-21.3 22 1 38 15 48 32.9 14-9 86-56 108 9.2 20.7-9.8 33-8 52 4.3 37-9 55 42.5 16 52.5-17 3.3-1 20.5-43 40zM215 322.3c29 36 85-24 51-52.4 25-34-15-60.9-42-32.7-.7-18-12-34-29-38.1-27.5 25-51 55-69 88 8 12 22 19 37 18.6 5 22.3 34 31.3 52 16.6zm396-190.9c-36 17-16 83.5 42 51.9 25 28 59.6-38 23-65.6-1-27.7-65-66.7-65 13.7zm378 181.5c-20-10-42-5-61 7.2-15-13-37-3-47 11.7-14-22.5-70.7-16-32 39.6-8 12-12 26-7 41.3-42 11-29 65 6 77.1 9.9 3 39 56 70 9.9 9.7 6 22 7 33 2.7 5.8 12 24 10 33 19.7 14 23 41 25.5 65 18.1 0-79.2-24-157.2-60-227.3z" style="fill:#e8f4fe"/><path d="M695.5 698.2c-5 4-8 10.6-9 17M688 729v3m-104 51c0 9 2 17 6 25m-.1-42 4.1-4m39.5 83.6c7 4 15 4 22 0M666 839l1.5-2m62.5 30.5c.5 7 6 13 13 15m13 .5 2.5-1m71.5-47.2c6.5 2 11 9 12 16m-2 13.8c-.1 1 0 2-1 3m-44-134.8c2 5 1 11-1.5 16M784 757l-2 1m-32-37.5c3 1 6.5 3 8.5 6M289 866.1c-5 15 2 23 13 26m-6-37c0-1 1-2 2-2m75-9.5c3 3 4 9 3 13m-7 10.4-2 1.5m60 47.9c5 3 9.7 8 10 14m-7.1 15.1c1 0 2-1 3-2m-72.4-14.9c2 6 6.5 11.5 12 15m27-60.2c3 2 5 4 6.5 7m-94-294.6c-14.5-2-29.6 3-40 13m55-8.3c1 0 3 1 4 2m84 30.1c5 1 10 3 12 8m0 11.4-1 4m-36.2 34.7c-5 4-11 6-17 7m-7.8 30.6c-4 5-9 8-15 10m-11 3.7h-3m-70 3c1 6 7 11.5 13 12m12-2h2m-72 31.4c-1 5-3 10-7 13m-40-232.1c5 3 9 9 9.8 15m28.2 7.6c5 3 9.9 8 13 13m-123 33.4c6 0 12 2.5 16.5 6m8.5 9.7 2 3m828-332.9c7-.5 13 1 19 4m-55 11.2c0-5-3-9-8-10M861 361c-6-1.5-11-6-13-12m-18.5 101c2 12.5 14.5 22 26 24m-25.6-38.9c0-2 2-3 3-4m66.8 51.8c3 5 2 12-2 16m-16.7 5.2c1 1 2 1 3 1m86-1.4c5 2.5 10.5 3 15.8 2m20.2 21.5c5 4 12 4 19 4M853 400.1c-2-4-1-9 1-13M671 131c7 7 11 18 8 28m-6 11.9c-1 1-1 2-2 3m-56 6.1c8 3 16-1 21-7m6-10.1c0-1 .7-2 .9-3M641 96.3c-9 2-15.5 10.5-15 19.5m1.5 12.2.5 1.6m-430 86.6c5 5 8 11 9 18m3.8 11.8.2 3m49-5.9c2 3 3 8 1 11m3 45.8c-3 14-19.8 25-33 16m-6-9.6c-.9-.7-1-2-1-3m-33 14.8c-5-1-9-4-11-8.5m-5-10.8c0-1-.6-2-.7-3m-24.6-3.5c-4-1-7-4-9.5-7m7.8 506.8c-2 5-6 9-11 12" style="fill:none;stroke:#fff;stroke-width:10;stroke-linecap:round;stroke-linejoin:round;stroke-miterlimit:10"/><path class="st17" d="M62.5 658.3c7-44 62-48 81-9.6"/><path class="st17" d="M128.5 627.7c-2-13 4-26 15-33m15.5 11.2c-26-10-18-52 8-54.4 23-2 41 30.1 27 49"/><path class="st17" d="M197 574.1c22-2 42 19 50 38"/><path class="st17" d="M239 627.8c26-69.6 136-57 111.5 15"/><path class="st17" d="M355 617.9c10.9-14 39.7-11 48 5"/><path class="st17" d="M395 634.5c5-25.5 47-13 48 8.3 1 26-27 40.8-45 24"/><path class="st17" d="M417 674.2c-9 23-33 42-58 36"/><path class="st17" d="M379 711c9.7 33-38 56.5-63.5 38"/><path class="st17" d="M310.5 720.6c17 26-10 59.6-41 48.2-16-6-22-32-12-46"/><path class="st17" d="M256 756.9c-5.5 8.5-14 15-23 19"/><path class="st17" d="M219 767.6c34 12 3 63-22 48.2-8-5-14-14-14-23"/><path class="st17" d="M192 782.3c-6 9.6-16 16-27 17m-3-11.8c0 16-12 31.5-27 36.5m199.5 20.7c-41-21.5-63 13-60.5 33.2 3 25.5 37 39.9 54 17.5"/><path class="st17" d="M310.5 907.9c6 15 21 25 37 25"/><path class="st17" d="M348 921.2c-2 29 32 49 56 34m-66-85.7c-14-16 5.5-39 24-40.8 29.9-3 39 36.5 13 49"/><path class="st17" d="M388 864.5c18 3 34 17 39.5 35m-27.7 41.3c8 23 42 24 51 .7 8-22-23-49.9-43-34m201.2-73c14 37 69 37 73-5"/><path class="st17" d="M675 850.7c10 11 27 15 41 10.9m13-13.6c-21 13.5-9.6 46 13 49.7 25 7 47-23 23-39m12.5 18.3c7 4.5 16 5 23 2"/><path class="st17" d="M795 867.6c9.8 31 53 28 60.9-2.9 10-29.9-26-59-49-34"/><path class="st17" d="M818 821.3c-2-14-15-25-29-25"/><path class="st17" d="M777 805.6c13-6 22-19 23-33m-182 52.2c-39 30-64-37-43-64.8 37-48 70-1 69 17"/><path class="st17" d="M634 751.8c2-15 24-25 38-22"/><path class="st17" d="M682 746.8c-20-24-9-65 25-65.4 26.5-.5 35 34 21 53"/><path class="st17" d="M736 709c16-6 35 5 38.5 22"/><path class="st17" d="M782 773.1c47-9 29.8-78.5-14-55m92.1-225.7c9 52 89 17 43-24"/><path class="st17" d="M918 495c7 11 22 14 34 9m-3-11.8c4.5 19.9 27 32 46 26m-12 4.1c8 26 41.5 27 63 18m-173-52.6c-19.9 14-48.5-8-56-27.7-12-30.1 19-60 47-41"/><path class="st17" d="M844 410.8c-7-13-4-30 7-39"/><path class="st17" d="M868 375.5c-26 2-46-34-25-51.6 13-9 35-5 39 12"/><path class="st17" d="M889 352.4c-13-13-2-36 15-38.5 31.5-4 36 26.5 25 36m2-30c10.6-16 39.5-15.8 55-7m-859-23.8c7 12 22 19 35.5 16"/><path class="st17" d="M161 291.3c-4 29.6 32.5 54 53 28"/><path class="st17" d="M212 308c1 23 30 32 47 19.3 22.5-15 28-57-6-60m14-.2c27-28-19.6-58-40.9-29m-.6 12.7c-2-19-7-44-28-51M611 131.6c-21 5-23 33-13 48.8 17 27 60.1 11 57.5-20"/><path class="st17" d="M651 180.9c11 17 34 5 39-10.8 12-26-7.5-59-37-59"/><path class="st17" d="M621 141.6c-38-46.5 44-87 52-28"/></g><style>.st232{fill:#fff}.st237{fill:#4f4f4f}</style><g id="Layer_58"><path d="M532 209c-68 59.6-70.9 20-120.8 36.5-19.6 10.9-14 30-9.7 39.6 11 23-50.8 9-69 40.3-10 18 0 42-7.5 61.8-9 19.6-34 35-37 52-43 48-154 7-119 70.4 6 11 33-6 39 9.1 7 17.5-39 29-21 46.7 18 5 20.7 39.9 57 63 14 20 3 51 19 69.1 36 38 46-25 41-34.3 4-39 44-10.6 22 38.7-23 52 11 74 36.5 56.6 24-9 13 39 23 50.9 19.5 37 55 12 67 12 18 .7 28 22 29.8 40.3 6.5 63 54 46 59 8 15.5-34 45 49 47 59.9 11 73 69 42 70.8 17.9 3-54-3-60 2-68.3 18.5-31 71 13 90.8-15.5 14-19.7-31-63.5 8-55.4 94 19 19-100.7 14-120.4-9-35.5 14-106 47-121.7 18-9 17-35.5 7-52.8-9.5-17-25-30.6-31-48.9-13.5-54 22-102-36-133.3-5-3-7-9.5-4-14.4 17-26 1-66-32-71.4-22-3-44 9-66.5 6.3C615 247 578.5 178 532 209z" style="fill:#fc6603"/><path class="st232" d="M452 243.6 614 494l-43-15 54 112.5c-92-92-201-164.5-294-257.7 6-46 67-19.6 76-42.4-30-32.4 14-63.4 45-47.8z"/><path class="st237" d="M327 389.5c76 74 148 151 220.5 228.4 0 0-188-133-189-135.5 6-60.8-41-57-44-29.9-12 5-27-6-24-19.3 2.5-7.2 32-35.2 36.5-43.7z"/><path class="st232" d="M744 807.1c-89-73-178-147-273-210.1 32 42 65 84 99 124.6-13-3-25-7-38-10.9 53 51 78 125 126 182.8-.9-61 106 21 101-42.6-3-15.9-13-26.4-15-43.8z"/><path class="st237" d="M799.6 476 585 287.8l101 144.9-93-67c61 99 132 192 182 301.5-10.7-36 29.6-63 32-96.9 24 8 38-22.5 29-42.4-7-19.9-26-34.9-36.4-51.9z"/><path class="st232" d="m802 744-105-67c31 43 65 85 103.5 124.1 15-17.1 7.5-35.1 1.5-57.1zM232 471.3l267 290-106.5-54.8 6 28.1s-60.7-46-60-48.3c3-15-4.5-43-24-41-23 10.6 5 42-18 60.8-53 13.5-39-48-41-59.8-7-36-57-32-47.5-75.7-14 1-32-13-19.8-25.5 60.6-37-9-26.5-19-37-13-13-1-36 15-38.8 15.8-1.3 30.8.5 47.8 2z"/></g><style>.st40{fill:none;stroke:#000;stroke-width:10;stroke-linecap:round;stroke-linejoin:round;stroke-miterlimit:10}.st98{opacity:.6;enable-background:new}</style><g id="Outline"><path class="st98" d="M793 537c-1 .7-1 2-.5 3 5 10 11 35 25 30 8-2 21-13 18-22.4-.5-1-2-2-3-1.5-26 12-28-11-39-9.4v.3zm-34 274.5c6 5 26 8 25-3-6-7-20.6-12-21.5-26C750 772 744 803 759 811.5zm-219.3 52s1 .5 1 .8c9 13.5-3 36-18 40-34 6-9-6-6-44 .3-5.3 22.3 2.7 23 3.2zM342 731c5 7-4 22-4 33 8 13 29.6-5 33-14.9 2-12-17-21-28-20.2-1 .1-1 1.1-1 2.1zm31-120.2c2 23-8 47-26 61.9-13 10.9-17.5-30.6-8-27.9 6 4.2 28-18.8 34-34zm-157-59.9c-8 6-17 3-25 1-11 5 4 20 13.5 16 5-4 12-9 12-15.7-.5-.2-1.5-.2-.5-1.3zM337 473c-6-10-3-23 0-34 0-1 0-2-.6-2-9-9-23 11-19.8 20.7C318 463 338 475 337 472.8v.2z"/><path class="st98" d="M326 392c-2 29 24 45 7 44-7 2-14 1-15 11-1 11-24 0-24.5-1.3C285 433 317 404.5 326 392zm103-118c-9.9-4-16-16-18-25-4-6-9.9 1-11 6-7 54 29.5 28 29 19zm293 9c16 21 29.5 12 40 20.7 3 4 1 9.6-1 14-3 9-13 9-20 4.1-14.5-5.8-22-22.2-19-38.8z"/><path class="st40" d="M347 729c53.5 5 15 86 59 102 25 9 37-19.8 55-11.9 23 10.1 19.6 40 24 60.7 9.6 46 63 29.6 58-12.8"/><path class="st40" d="M519 861c89-9 47.5 119 114.5 115 39-6 35-47 25-76.5-3-9 0-18.5 7-24.5 24.5-21 59 15.5 84-2.5 15-11 8-33-2-45-12-15 0-32 10-43"/><path class="st40" d="M790 539c53 69.8-64 71 8 194.5 6 14 11 32 11 48.5 0 32-49 47.5-61 16"/><path class="st40" d="M721 287c2 51 64 31 74 88 6 34-11.5 71 7 103 10 18 27 31.5 34 51 8 19-4 47-27 42"/><path class="st40" d="M407 290.6c-16-8-12-29.9-2-41 17-15 40.5-10 61-6 29.8 1 49-29 75-38 50-17 81 55 133 44 23-5 48-11 69 1 25 14 33 55 10 75"/><path class="st40" d="M428 278c-16 26.5-51 17.5-76 28.5-20 10.5-28 33-23 55 10 47-43 51-39 88m25 4.5c1.5-23 35-26 41-5 7 25-13 47 16 72"/><path class="st40" d="M334 476c-20-34-61-31.5-89-9.6-20 8-43-3-64 4-22 7-28 37-5 43.5 6.5 2 23-2 26-1 15 4 11 25-5 30-21 6-10 29 6 29"/><path class="st40" d="M216 554.5c-15 15-14 41 2 55 37 22 41 31 36 69.7-2 31 46 41 53.5 10 2-10.8-4-22 0-33 13-32 44 20 62-44.5"/><path class="st40" d="M327 647.9c25 29.7-.5 47-7 75-10 32.5 34 65 53 25"/><path d="M729 262.5c9 4 16 13 18 22.5m-193-68c12.5 2 24.5 8 34 16m9 9 3 3m-163 10c-5.5-.9-12 .6-15.5 4M362 319.6c-9 2-14 10.7-16 19M339 449c4 1 6 6 6 9.8M308.5 470c-12-6-16-5-22-4M175 492c1-4 5-7 9-7.5m38 89.5c-4 8 0 16 4 19.9m44 78.6c-1 6 1 15 9 18m76-77.5c-3 14-13 14.5-16 16m4.5 119.5c-5-3-9-9-8-15M397 782c-1 14.5 7 28 14 30m90 53.9c-3 12 2 27 14.5 25M636 957c14-3 17-28 11-38m96-60.1c1-7 0-14-4-19m46-49.1c8-6.5 9-25 3-39M786 582c5-8 3-19-3-26m37-12c2-8.5-.6-18-7-24m-56-169c18 6 22 30 21 35" style="opacity:.7882;fill:none;stroke:#fff;stroke-width:10;stroke-linecap:round;stroke-linejoin:round;stroke-miterlimit:10;enable-background:new"/></g><style>.st40,.st68{fill:none;stroke-width:10;stroke-linecap:round;stroke-linejoin:round;stroke-miterlimit:10;stroke:#000}.st68{opacity:.6;enable-background:new}</style><g id="Eye"><linearGradient id="SVGID_00000144327888440828662330000012949225208094602647_" gradientUnits="userSpaceOnUse" x1="232.314" y1="-555.531" x2="336.458" y2="-482.43" gradientTransform="translate(0 1066)"><stop offset="0" style="stop-color:#00ff04"/><stop offset=".811" style="stop-color:#00fccf"/><stop offset="1" style="stop-color:#00fbff"/></linearGradient><path style="fill:url(#SVGID_00000144327888440828662330000012949225208094602647_)" d="M278 494c-31 10.8-13 49-9.5 56 8 16-9 32.5 9 50.8 9 9 46 8 40.7-31-2-13-13-23-13.5-35.8-.7-21-3.7-48-26.7-40z"/><path d="M273 498c-6.5 9-1 22 4 30.8 6 8 13 15 14 25 2 14-6 31 3 43.7 15 18 30.6-23 23-35-3-7-8-13.5-10-20.8-5-16 2-45-21-49" style="opacity:.5098;fill:#fff;enable-background:new"/><path class="st68" d="M274 516c9 24.5 14 39 18 64"/><path class="st40" d="M278 494c-31 10.8-13 49-9.5 56 8 16-9 32.5 9 50.8 9 9 46 8 40.7-31-2-13-13-23-13.5-36C304 513 301 486 278 494z"/><path class="st40" d="M282 526c6 17 10.5 35 14 53"/><path d="M279 515c1 4 2 7 3.5 11m24.5 46.9c1 5 1.5 13-5 19" style="fill:none;stroke:#fff;stroke-width:10;stroke-linecap:round;stroke-linejoin:round;stroke-miterlimit:10"/><path class="st68" d="M264 495.9c-15.5 19-6 44 1 65 3 9-3 18-1 27 4 24 31 31 46 12"/></g><path d="M742 680.8c-16 15-63 0-116 44 3 19 39.5-11 76.5 27.7 7.1-7.5 38.5-55.5 39.5-71.7z" style="stroke:#000;stroke-width:10;stroke-linecap:round;stroke-linejoin:round;stroke-miterlimit:10"/><path d="M751 654c-12 44.5-52 26-68 30.9-22 6-36 32-58.5 34-21 2-43-23-61-12.2-69.7 42-49.8-29.5-88-19.6-52 13.5-25-25-62-24.9 37-1-3 50.5 15 79 19 29 51 13 80.5 40.2 30.1 28 41 77 92 42.9 24-16 43-2 68-6 39-6 25-46 43-67.9 47-57 32-90 34-79.4 6 38-42.5 89-42.5 89-14-27-78-30-70.7-15 2.5 5 8 33 8 33-5.5-26-14-46-32-61.8 29 12 48-24 73-31 28-5 52 8 66.5-23" style="fill:#ff1768;stroke:#000;stroke-width:10;stroke-linecap:round;stroke-linejoin:round;stroke-miterlimit:10"/><path d="M433 680c-17 41 20 32 30 33 16.5 2 26.5 19.5 41.5 26.9 37 18 64-42 123 9.2 0-10.8-8-23-16-28.9-78-28-75 39.6-114-12.5C472 674 454 722 433 680zm198 67c8.5 1.5 5 16 8 23 5-19 35-31 24-28.5-10 3.5-22-7.5-32 5.5z" style="opacity:.6;stroke:#000;enable-background:new;stroke-width:10;stroke-linecap:round;stroke-linejoin:round;stroke-miterlimit:10"/><path d="M598 725.5c9 8 15 19 18 30m6 16.5c0 1 0 2 1 3.5m44-21.5c7 2 13 7 17 13" style="fill:none;stroke:#fff;stroke-width:10;stroke-linecap:round;stroke-linejoin:round;stroke-miterlimit:10"/><path d="M417 666c10 9 6 24 3 36-14 65 34 60 77 80 28 17 41 66 79 62.5 16-1.5 29-16 44.5-19 39-4 66.5 17 83-34 5-15 8-32 17-45 17-24 36-48.5 29.7-79.6" style="opacity:.6;fill:none;stroke:#000;stroke-width:10;stroke-linecap:round;stroke-linejoin:round;stroke-miterlimit:10;enable-background:new"/><style>.st40,.st68{fill:none;stroke:#000;stroke-width:10;stroke-linecap:round;stroke-linejoin:round;stroke-miterlimit:10}.st68{opacity:.6;enable-background:new}</style><g id="clouds_00000132064263232096526770000004594804391114312866_"><linearGradient id="SVGID_00000168815864788562971780000008009317104823657398_" gradientUnits="userSpaceOnUse" x1="375.454" y1="631.653" x2="559.455" y2="484.653" gradientTransform="scale(1 -1) rotate(-2.241 -27002.414 -491.187)"><stop offset="0" style="stop-color:#0f9"/><stop offset=".149" style="stop-color:#00efa4"/><stop offset=".441" style="stop-color:#00c5c0"/><stop offset=".844" style="stop-color:#0082ec"/><stop offset="1" style="stop-color:#06f"/></linearGradient><path style="fill:url(#SVGID_00000168815864788562971780000008009317104823657398_)" d="M441 443.1c-21 12-28 39.7-20 62-7 14-8 32 3 44-15 28-2 55 29 58 6 45 54 47 67.5 5.4 11 11 44-4 34-43 15-15.5 16-42.5-.5-57 10.9-22 2-52-24.5-55 9-16.5 0-34-9-47.7C498 382 433 403 441 443v.1z"/><linearGradient id="SVGID_00000074418743135565432100000001250214097951887239_" gradientUnits="userSpaceOnUse" x1="555.704" y1="637.058" x2="756.704" y2="528.058" gradientTransform="scale(1 -1) rotate(-2.241 -27002.414 -491.187)"><stop offset="0" style="stop-color:#0f9"/><stop offset="1" style="stop-color:#06f"/></linearGradient><path style="fill:url(#SVGID_00000074418743135565432100000001250214097951887239_)" d="M609.9 493.1c-19 16-15 50 7.5 61-3 19 7 42 28.5 41 16 34 61 30 73-5.5 7.5 6 37-14 24-48.6 12-15 8-38-4-51 14-23 0-58-27-57-11-93-108-57-94 7.9-16.9 3.1-20.9 42.1-8 52.1v.1z"/><path class="st40" d="M467 577.9c-13 9-14 28-9.8 43 15 52 92 2 55-42M528 563c50.5 33 57-72 3-49"/><path class="st40" d="M513 464c29-22 56 18 42 45.5"/><path class="st40" d="M449.9 465c-43-76 99.9-101 82-9M523 614.5c24 10.5 42.5-22 33-43M443 539c-41 17.5-28 75 9 68"/><path class="st40" d="M439.9 446c-21 8-35 39.7-16 57"/><path class="st40" d="M437 496c-23 4-31 36-14 51.5M629 455c-27-26.5-4-66 27-76 40.6-13 67 37 46 70.8"/><path class="st40" d="M616 441c-15 12-18 36-8 52"/><path class="st40" d="M624 489.6c-36 2-37 78 11 63"/><path class="st40" d="M619 556c-9 19 7.5 42 27.5 39m12.5-28c-23 28 1 62 33 52.5 26-8 34-39 16-59.8m4-129.9c25 4 42 36 28 59m-25 11c21-22 41 3 36 28-3 15-24 28-35.5 15"/><path class="st40" d="M720.5 589c21 2 32-23 24-41M490 450.7c1 38 3 74 4 113M663 430l26 108"/><path class="st68" d="M450 409c-15 11.5-10 28-22 37-20 16-19 38-17 62 1 9-5 17-3 25.8 1 7 6 14 6.5 21-3 18.5-9 44 11 54 16 6 23 5 30 24 7 18 33 20.5 46 6M634 388.5c-19.8 9.7-19 32-25.5 50.9-5 14-17 26-13 41 8 30.5-14 45 11 76.9 16 20.1 1 36 34.5 44.9 8.5 4 12 15 19.8 20 14 10.5 33 2 43-10M703 450c4.5-9 14-14 24.5-12M708 558c9 4 14 14 18 23"/><path class="st68" d="M657 567c-8 4-14 13-15 22m-28-137c4 3.5 10 5 15 3m-116 8c5-7 12-12 20-15.5m-3 65.5c5.5-7 14-10.5 22-10m-26 61.5c6 8 15.5 13 25 13.5m-85-2c-11 4-16.5 15.5-20 26m-4-66c-6-2-12 2-16 5m11-46.5c-4-2-9-1-13 1m25-29.5c-6-.6-9-6-10.8-11M659 432l25 109m-198.5-90 3 114"/><path d="M674 394.5c8 3 14.5 11 15.5 20M688 434l1-4m32.5 22c5 4 8 10.5 8 17m1.5 38c4 4 6 9.7 6 15m-39 49c5 9 3 20-4 27m-17 7c1 0 3 .5 4 0m-65.5-129c-.9-3-.9-7 0-10m5.5 41c-5 4-8 10-7 17m3 13 1 1.5M501.5 413c7 3 12 9 14 17M487 412c-1.5 0-3 0-4 .9m48.5 60c5 2 9 6 11 11M547 526c6 4 9 11 8.5 18M538 595c3-3 5-6 6-9.8m-40 8.8c3 10-1 22-9 28m-15.3 1H478m-40-64c-5 6-6.5 15-4 23m-5.5-60c0-3.5 2-7 5-9m-4.5-33.4c0-3 1-6 3-8" style="opacity:.8;stroke:#fff;enable-background:new;fill:none;stroke-width:10;stroke-linecap:round;stroke-linejoin:round;stroke-miterlimit:10"/></g><radialGradient id="a22" cx="677.109" cy="702.572" r="56.939" gradientTransform="matrix(.9782 -.2079 -.2998 -1.4111 102.775 1435.44)" gradientUnits="userSpaceOnUse"><stop offset="0" style="stop-color:#ff00a6"/><stop offset="1" style="stop-color:#ff5900"/></radialGradient><path style="fill:url(#a22)" d="M527 249.5c-30 64-27.5 69 21 112.5 14 12.5 26 11 34-1 17-26 26-54 16-77-9-21-52.5-74-71-34.5z"/><path d="M514 279c9.6 26 38 45 64.5 50 25 5 24-26 20-42.5C542 196 525 254 514 279z" style="opacity:.3686;fill:#fff;enable-background:new"/><path d="M527 249.5c-30 64-27.5 69 21 112.5 14 12.5 26 11 34-1 17-26 26-54 16-76.6-9-21.4-52.5-74.4-71-34.9z" style="fill:none;stroke:#000;stroke-width:10;stroke-linecap:round;stroke-linejoin:round;stroke-miterlimit:10"/><path d="M531 243c-41 54-37 85 12 125 9.8 8 24.5 7.5 34-1" style="opacity:.6;fill:none;stroke:#000;stroke-width:10;stroke-linecap:round;stroke-linejoin:round;stroke-miterlimit:10;enable-background:new"/><path d="M554 255c8 5 14 12 19 20m9 11c2 3 3 6 4 9" style="fill:none;stroke:#fff;stroke-width:10;stroke-linecap:round;stroke-linejoin:round;stroke-miterlimit:10"/><circle cx="550" cy="550" r="500" style="fill:none;stroke:#000;stroke-width:10;stroke-linecap:round;stroke-linejoin:round;stroke-miterlimit:10"/></svg>