<svg version="1.1" id="Layer_1" xmlns="http://www.w3.org/2000/svg" x="0" y="0" viewBox="0 0 1100 1100" style="enable-background:new 0 0 1100 1100" xml:space="preserve" xmlns:xlink="http://www.w3.org/1999/xlink"><style type="text/css">.st302{fill:#6A10EB;stroke:#000000;stroke-width:10;stroke-linecap:round;stroke-linejoin:round;stroke-miterlimit:10;}</style><circle class="st302" cx="550" cy="553.7" r="500"/><path d="M533 209.1c-68 59.6-71 20-121 36.5-19.6 10.9-14 30-9.7 39.6 11 23-51 9-69 40.3-10 18 .1 42-7.5 61.8-9 19.6-34 35-37 52.2-43 48-154 7-119 70.4 6 11 33-6 39 9.1 7 17.5-39 29-21 46.7 18 5 21 39.9 57 63.2 14 20 3 51 19 69.1 35.8 38 46-25 41-34.3 4-39 44-11 22 38.7-23 52 11 74 36.5 56.6 24-9 13 39 23 50.9 19.5 37 55 12 67 12 18 1 28 22 29.8 40.3 6.5 63 54 46 59 8 15.5-34 45 49 47 59.9 11 73 69 42 71 17.9 3-54-3-60.1 2-68.3 18.5-31 71 13 90.8-15.5 14-19.7-31-63.5 8-55.4 94 19 19-101 14-120.4-9-35.5 14-106 47-121.7 18-9 17-35.5 7-52.8-9.5-17-25-30.6-31-48.9-13.5-54 22-102-36-133.3-5-3-7-9.5-4-14.4 17-26 1-66-32-71.4-22-3-44 9-66.5 6.3C616 247 579.9 178 533 209.1z" style="fill:#2fedc1"/><path d="M335 383c30 83 32 5 73 37.1 15 15.5 23 42 16 61.4-42 113 99.7 118 61 54.2-7-10.9-7.5-29 9-23.3 9.8 3.5 1 18 5 23 9 10 22-5 19-16.2-4-16.5-16-36 10.8-37.3 92-5.5 37 129.5 32 168.5-8.5 59.8 66 95 81 28.5 4-13-5-44 8-50.3 38-5.8 29 79 57 53.4 12-11 29.6-33 39-6.7 6.5 15 17 50.1 38.5 34" style="opacity:.6;fill:none;stroke:#000;stroke-width:10;stroke-linecap:round;stroke-linejoin:round;stroke-miterlimit:10;enable-background:new"/><path d="M782 697.2c-28-63 23-79 24-126.3 78-11 .7-76-6.5-96.5-17-50 24-120-45-146.2 28-27 9-81.5-29.9-83.8-111 20-69.5-13-164-40.6-39.9 5-47 46-138 37.8-24 5-36 40-9 49.7-19 18-55-3-76 29.9-17 26-9 52 7.5 84.6 18 36 27 9 35 5.9 37-13.5 50.5 48 42 78.1-25 91 73 116 67 59.3-1-11-14-22-9-33.3 3-5 11-7.5 15-2.6 4 5-2 13 1 19 8 15 30-2 17-21-29-42 71-54 72 29.9 0 37-19 70-23 106.3-8 75 86 103 78-3.8-2-23.5 15-23 28-10.8 19.6 19.6 9 43 24 51.3 17 9.9 43-67 62 10.2 5.8 25.3 35.5 23.7 27.9 2.9z" style="fill:#ed2fd4"/><style>.st40{fill:none;stroke:#000;stroke-width:10;stroke-linecap:round;stroke-linejoin:round;stroke-miterlimit:10}.st98{opacity:.6;enable-background:new}</style><g id="Outline"><path class="st98" d="M793 537c-1 .7-1 2-.5 3 5 10 11 35 25 30 8-2 21-13 18-22.4-.5-1-2-2-3-1.5-26 12-28-11-39-9.4v.3zm-34 274.5c6 5 26 8 25-3-6-7-20.6-12-21.5-26C750 772 744 803 759 811.5zm-219.3 52s1 .5 1 .8c9 13.5-3 36-18 40-34 6-9-6-6-44 .3-5.3 22.3 2.7 23 3.2zM342 731c5 7-4 22-4 33 8 13 29.6-5 33-14.9 2-12-17-21-28-20.2-1 .1-1 1.1-1 2.1zm31-120.2c2 23-8 47-26 61.9-13 10.9-17.5-30.6-8-27.9 6 4.2 28-18.8 34-34zm-157-59.9c-8 6-17 3-25 1-11 5 4 20 13.5 16 5-4 12-9 12-15.7-.5-.2-1.5-.2-.5-1.3zM337 473c-6-10-3-23 0-34 0-1 0-2-.6-2-9-9-23 11-19.8 20.7C318 463 338 475 337 472.8v.2z"/><path class="st98" d="M326 392c-2 29 24 45 7 44-7 2-14 1-15 11-1 11-24 0-24.5-1.3C285 433 317 404.5 326 392zm103-118c-9.9-4-16-16-18-25-4-6-9.9 1-11 6-7 54 29.5 28 29 19zm293 9c16 21 29.5 12 40 20.7 3 4 1 9.6-1 14-3 9-13 9-20 4.1-14.5-5.8-22-22.2-19-38.8z"/><path class="st40" d="M347 729c53.5 5 15 86 59 102 25 9 37-19.8 55-11.9 23 10.1 19.6 40 24 60.7 9.6 46 63 29.6 58-12.8"/><path class="st40" d="M519 861c89-9 47.5 119 114.5 115 39-6 35-47 25-76.5-3-9 0-18.5 7-24.5 24.5-21 59 15.5 84-2.5 15-11 8-33-2-45-12-15 0-32 10-43"/><path class="st40" d="M790 539c53 69.8-64 71 8 194.5 6 14 11 32 11 48.5 0 32-49 47.5-61 16"/><path class="st40" d="M721 287c2 51 64 31 74 88 6 34-11.5 71 7 103 10 18 27 31.5 34 51 8 19-4 47-27 42"/><path class="st40" d="M407 290.6c-16-8-12-29.9-2-41 17-15 40.5-10 61-6 29.8 1 49-29 75-38 50-17 81 55 133 44 23-5 48-11 69 1 25 14 33 55 10 75"/><path class="st40" d="M428 278c-16 26.5-51 17.5-76 28.5-20 10.5-28 33-23 55 10 47-43 51-39 88m25 4.5c1.5-23 35-26 41-5 7 25-13 47 16 72"/><path class="st40" d="M334 476c-20-34-61-31.5-89-9.6-20 8-43-3-64 4-22 7-28 37-5 43.5 6.5 2 23-2 26-1 15 4 11 25-5 30-21 6-10 29 6 29"/><path class="st40" d="M216 554.5c-15 15-14 41 2 55 37 22 41 31 36 69.7-2 31 46 41 53.5 10 2-10.8-4-22 0-33 13-32 44 20 62-44.5"/><path class="st40" d="M327 647.9c25 29.7-.5 47-7 75-10 32.5 34 65 53 25"/><path d="M729 262.5c9 4 16 13 18 22.5m-193-68c12.5 2 24.5 8 34 16m9 9 3 3m-163 10c-5.5-.9-12 .6-15.5 4M362 319.6c-9 2-14 10.7-16 19M339 449c4 1 6 6 6 9.8M308.5 470c-12-6-16-5-22-4M175 492c1-4 5-7 9-7.5m38 89.5c-4 8 0 16 4 19.9m44 78.6c-1 6 1 15 9 18m76-77.5c-3 14-13 14.5-16 16m4.5 119.5c-5-3-9-9-8-15M397 782c-1 14.5 7 28 14 30m90 53.9c-3 12 2 27 14.5 25M636 957c14-3 17-28 11-38m96-60.1c1-7 0-14-4-19m46-49.1c8-6.5 9-25 3-39M786 582c5-8 3-19-3-26m37-12c2-8.5-.6-18-7-24m-56-169c18 6 22 30 21 35" style="opacity:.7882;fill:none;stroke:#fff;stroke-width:10;stroke-linecap:round;stroke-linejoin:round;stroke-miterlimit:10;enable-background:new"/></g><linearGradient id="a12" gradientUnits="userSpaceOnUse" x1="234.425" y1="-533.764" x2="348.416" y2="-471.769" gradientTransform="translate(0 1066)"><stop offset="0" style="stop-color:#e0f"/><stop offset=".098" style="stop-color:#e002ff"/><stop offset=".286" style="stop-color:#ba07ff"/><stop offset=".543" style="stop-color:#7c0eff"/><stop offset=".857" style="stop-color:#2919ff"/><stop offset="1" style="stop-color:#001eff"/></linearGradient><path style="fill:url(#a12)" d="M329 545.2c-2-47-53-63-76-27-7 11-9 27-1 38 5.8 8 15 12 19 21 5 13-6 28 0 39.9 16 22 43-1.5 35-25-14.5-31.1 24-18.1 23-47.1v.2z"/><path d="M264 506c-18 25 30 88 55 57.9 22.5-21 3-59-24.5-63.3-10.5-2-23.5-4-30.5 5.2v.2z" style="opacity:.3412;fill:#fff;enable-background:new"/><path d="M329 545c-1.5-47-53-63-76-27-7 11-9 27-1 38 5.8 8 15 12 19 21.4 5 13-6 28 0 39.9 16 22 43-1.5 35-25-14.5-31.3 24-18.3 23-47.3z" style="fill:none;stroke:#000;stroke-width:10;stroke-linecap:round;stroke-linejoin:round;stroke-miterlimit:10"/><path d="M262 503c-19 13-29.7 41-14 60.5 5 6 12 10 16 17 5.5 12-3 28 3.5 39.5 4 7 13 9.8 19.7 7" style="opacity:.6;fill:none;stroke:#000;stroke-width:10;stroke-linecap:round;stroke-linejoin:round;stroke-miterlimit:10;enable-background:new"/><path d="M295.5 515c7 4 12 9.6 16 16m3.5 12c.5 1 1 2 1 3" style="fill:none;stroke:#fff;stroke-width:10;stroke-linecap:round;stroke-linejoin:round;stroke-miterlimit:10"/><style>.st40,.st68{fill:none;stroke-width:10;stroke-linecap:round;stroke-linejoin:round;stroke-miterlimit:10;stroke:#000}.st68{opacity:.6;enable-background:new}</style><g id="Happy"><path d="M472 678c-67.5 48.5 23 111 67 136.9 53 31 146 29 172-35-2-70.4-182-75.9-239-101.9z" style="fill:#fe1767"/><path d="M447 712c54-27 129.6 24 175.5 51 14 42 9-12 57-12 23 0-30-7-35-8.8-66-23-92-57-161-63C468 678 449.6 693 447 712z" style="fill:#ac1045"/><path d="M581 704c11 15 22 34 39 40.9 83-28 84 57 101 20 25-53.9 29-111.9-140-61.3v.4z"/><path d="M576 729.8c14 7 21 22 27 36m7 14c1 2 2 4 2 6m47-31.8c11 1 21 8 26 18" style="fill:none;stroke:#fff;stroke-width:10;stroke-linecap:round;stroke-linejoin:round;stroke-miterlimit:10"/><path class="st68" d="M702 653c15.5-2 51 9 55 47.5m-287-46c-24-3-49 19-51 43.5"/><path class="st40" d="M574 830.5c152.5 49 229.9-198 74-142-112 40.5-154-33-189-2.7-55 48.2 62 127.7 115 144.7zM471 656c-23 0-46 19.8-50 43"/><path class="st40" d="M701 655c27-1 48 20 54 46m-191 0c36 17.5 57 51 70 85m-15-37c34-21 74-6 93 28"/><path class="st68" d="M453 692c-84 69 216 256 268 72"/></g><style>.st40,.st68{fill:none;stroke-width:10;stroke-linecap:round;stroke-linejoin:round;stroke-miterlimit:10;stroke:#000}.st68{opacity:.6;enable-background:new}</style><g id="gooie_eyes"><linearGradient id="SVGID_00000114052739278173780720000006496866318907593611_" gradientUnits="userSpaceOnUse" x1="418" y1="886.17" x2="585.983" y2="886.17" gradientTransform="matrix(1 0 0 -1 0 1410)"><stop offset="0" style="stop-color:#fc0037"/><stop offset=".047" style="stop-color:#fc0d33"/><stop offset=".303" style="stop-color:#fc4e21"/><stop offset=".535" style="stop-color:#fc8213"/><stop offset=".736" style="stop-color:#fca709"/><stop offset=".898" style="stop-color:#fcbe02"/><stop offset="1" style="stop-color:#fcc600"/></linearGradient><path style="fill:url(#SVGID_00000114052739278173780720000006496866318907593611_);stroke:#000;stroke-width:10;stroke-linecap:round;stroke-linejoin:round;stroke-miterlimit:10" d="M576 524c10-11 15-31 5-42.9-20-24-28-3-39-51.5-9-37-49-36-70-17-12 11-14 30-24 44-6 8-13.5 14.5-19.8 22-14 14-12 40 10 42 3-5 5-11 5-18 1 23-24 43-9.6 67.9 5.8 10.1 17 19 17 30.8-1 18-7.5 47 15 46.9 13 0 14-19 20.9-24 23-16 24 31 53 10.4 7-6 12-16 11-26-5-43.5 49.5-41 25-84-4-8-10-12-12-21.9.5 8 6.5 19 12.5 21.1v.2z"/><linearGradient id="SVGID_00000089552583616707315270000002940239741937286795_" gradientUnits="userSpaceOnUse" x1="598.034" y1="893.204" x2="755.973" y2="893.204" gradientTransform="matrix(1 0 0 -1 0 1410)"><stop offset="0" style="stop-color:#fc0037"/><stop offset=".111" style="stop-color:#fc1f2e"/><stop offset=".342" style="stop-color:#fc5a1e"/><stop offset=".554" style="stop-color:#fc8911"/><stop offset=".742" style="stop-color:#fcaa08"/><stop offset=".897" style="stop-color:#fcbf02"/><stop offset="1" style="stop-color:#fcc600"/></linearGradient><path style="fill:url(#SVGID_00000089552583616707315270000002940239741937286795_);stroke:#000;stroke-width:10;stroke-linecap:round;stroke-linejoin:round;stroke-miterlimit:10" d="M744 536c13.5-10 19-32 2-46-55.5-46-10.9-60-45-84.5-28-20-69 4-72 34.4-7 65-21 39.9-29 66-6 19 4.5 39.7 26 26 0-5-.6-10-2-15 9.6 25-13 49-10 73.9 1 8 6.5 16 15 15 7-1 11-9 18-10 23 0 18 38 43 39.6 23 2 10-29 34-34.2 28-1 40.7-28 28-52-8.5-12-21-22-20-38-1 8.3 3.5 19.8 12 24.8z"/><path d="M492 481.5c13.5 43.5 8 49-2 90.8-2 51 58 4 50.7-37-2-10 0-37-6.5-43.4C514 499 508 482 492 481.5zm175 .5c22 26 4 59 2 88 2 19 25 14 31.5.6 15-21 11-62 7-87.2L667 482z"/><path d="M663 439.5c-19 22 23 62 41 38 0-17-9.8-42-29-42.1l-12 4.1zm-169 10.1c-18 19 22 57 39.5 37.9 5-14-10.8-48-28-44.8l-11.5 6.9z" style="fill:#fff"/><path class="st40" d="M499 444.5c-34 26 14 55-2.5 101.9-24 67 23.5 65 43 10C547 536 534 418 499 444.5z"/><path class="st40" d="M487 461c5 21 27 37 47 31m124-27c7 15.5 31 24.5 47 17"/><path class="st40" d="M675 435c-31 0-17 39-6 56 11 18 11 39.9 2 59-11.5 24 13 49 30 20 17-29.9 13.5-135-26-135.4v.4z"/><path class="st68" d="M475 406.9c-20 11-25 33.5-36 52-8 13.5-25 22-27 38.5-7 29.5 27 14.5 14 49.1-6 24 5 29.7 16.5 47 7 15-4 32 2 46.9 3 7 12 13 19 9M486 628c14-5 21.5 15 35 12m132-238c-15 8-27 23-30 39.5-4 19-5 31-18 45.5-14 15-16 53 11.5 52.5 4 17-20 56 5 65m19.5-4.7c21 1.5 21 35.5 43 35m30.5-26.8c14 0 27-8 34.5-19m-185-86c3.5 5 9 8 15 9.8"/><path class="st68" d="M439.9 501.9c-2 4-5 8-9 10.7m71.1-74.1c-44 21-2 59.8-8 94-2 19-15 39-8 58.5 6 17 26 13 33-1m150-159.1c-48 14 12 70 1 101-3 16-14 33-3.5 48 7 11 26 11 29-3M622 515.5c-2 6-4 12-9 16M734 510c2 7 6.5 13 12 16"/><path d="M512 414.5c6 2 10 7 13 12m5 12.5c0 1 1 2 1 3m30 38.8c5 2 9 6 11 11m-8 43.2c5 7 5 15.5-1 20.7m-8 8.5-1 1M537 609c2 8-3.5 17-12 19.8m-79-89.9c-5 9-5 19.7 0 28m22 63.7c-1 3-3 5-6 6m219-225.8c8 1 16 5 18 12.5m4 11.7s1 3 1 2m30 58c4 2 6.5 6 9 9.5m-7 42.5c7.5 8 10 20 6 30.6m-9 7.4c-1 .6-2 1-3 1.5M697.5 611c-1 5-4 8-8 11M626 574c-1 6-1 11.5 1 17m-16-78c0-6 3.5-12 9-14" style="fill:none;stroke:#fff;stroke-width:10;stroke-linecap:round;stroke-linejoin:round;stroke-miterlimit:10"/></g><style>.st231,.st263{fill:none;stroke:#000;stroke-width:10;stroke-linecap:round;stroke-linejoin:round;stroke-miterlimit:10}.st263{stroke:#00ff2f}</style><g id="Layer_64"><path d="M290.6 446.8c8 0 15 3 22 6 0 0 10-15 15-16.6 6-2 24 2 24.5 1 16-27.5 30-34 56.5-23.9 13 5 25.5-5 33.5-14.3 39.7-75 116-2.5 177-25.7 15.5-6 29.9-14 45-21.1 48-30.8 72 20.8 110.9-11.6-5-6-11.5-10-19-14.3 47-118.3-92-70.3-118-81-33-14-67-61.5-102.5-37.9-69.7 46-67.5 34-110 32.1-26 5-37 36-18 55-47 20-83-11-77 80.3-4.5 28.2-35.5 43.2-39.9 72z" style="fill:#9e9e9e"/><path d="M741 290.6c7-.9 14-2 21-3.7M334 406c0 9 .8 18 1 27m44-53.1-46 5.4m47-67.8v13.7m6 7.3c-18 2-36 3.5-54 5.5m61 4.7c1 20 4 40.6 7 60.7m4-37.4c10-1 17-2 26-3.9m-12.5-48.7 5 39.4M453 243.9c2 29.7 4 59 7 89m8-25.4c15 0 29.7-.9 44-3m-3-40.5 1 32m.7 9.5c0 13 1 26.5 4 39.5 0 0 43-.9 43-.7 5 10.8 25.5 13 29.9 0M559 249.9c-9 23 26 36 35 12.8l6 .6 2.5 59.6m8.5-16.6h17l3 37.8m-30.1-100v10.1m15.1-19.3c0 6 .8 12.5 1 18.8m48 13v57.9m24.7-41.5-.8 52.4M654 319c19 1 39 1 58-.4" style="stroke:#454545;fill:none;stroke-width:10;stroke-linecap:round;stroke-linejoin:round;stroke-miterlimit:10"/><path class="st263" d="M398 346.8c2 22 4 44 7 65.8m-4-46.7c9.7-1 19-2 29-3.8l-8-44m36-75.1c3 29.9 6 60 7 90m.5-31.9c16 .6 31-2 47-.6m1.5-37.9c1 26 2.5 51 5 77.6 13.5 0 27 0 40.6-1"/><circle class="st263" cx="575.5" cy="257.5" r="14.5"/><ellipse class="st263" cx="575.5" cy="337.8" rx="14.5" ry="12.4"/><path class="st263" d="m593.5 257.4 27 .4-.5-22.1m-14 8.2 2 79.6m156-41.2-23 2.5m-47-1.5c-2 18-2 35.5-1 53.3"/><path class="st263" d="M712.5 313.9c-19.8 1.5-39.7 1.5-59.5.1"/><path class="st263" d="M669 326c0-19.8 0-39.5.5-59m-60 34.5c8 0 16-.8 24-1.5l2 44M331 337.9c19-1 36-2 55-4.3l-1-16.4m-44 116.7c-.9-9-1-19-.8-28m-7.2-26.8c16 0 29-2 45-3"/><path d="M722 285.5c4.5 16 17 29 32 34.5m-326-44c-6 5-14 8-22 7.4m-49 162.4c16-46 46-20.9 64-22.8 29-3 37-52 72-49.6 71 4.6 98 30.6 167.5-11.4 18-9 33-19 59-10.1 20.5 7 42.5 16 59-3.5" style="opacity:.6;stroke:#000;enable-background:new;fill:none;stroke-width:10;stroke-linecap:round;stroke-linejoin:round;stroke-miterlimit:10"/><path d="M736 261.6c6 4 11 10 13.5 16.9m2.5 12.8v5M561 216c7 1 14 4 19.5 8.3m11.5 8.4 6 4.4m-187 30.6c0-6.5 4.5-10 12-12.3m13-3.5 4 .6M359 318c-6 4.5-10 11-12 18.1m-2 10.4c-.5 1.5-.8 3-1 4.7" style="opacity:.7098;stroke:#fff;enable-background:new;fill:none;stroke-width:10;stroke-linecap:round;stroke-linejoin:round;stroke-miterlimit:10"/><path class="st231" d="M355.5 444.8c-4-19 13.5-39 32-34.7 39 9.5 38 10 62-22.3 40-54 111 5 165-13.6 17.5-6 33-16 49.8-24.6 61-31 72 29 109.8-8.4-19.8-17-53-19.5-54-54.6"/><path class="st231" d="M407 290.6c-16-8-12-29.9-2-41 17-15 40.5-10 61-6 29.8 1 49-29 75-38 50-17 80.5 54.5 133 44 23-5 48-10.5 69 1 25 14 33 55 10 75"/><path class="st231" d="M428 277.8c-16 26.5-51 17.5-76 28.5-20 10.5-28 33-23 54.8 10 47-43 51-38 88.1 7.5 0 15 2 22 4.7 5-19 34-26 43-7"/></g><circle cx="550" cy="550" r="500" style="fill:none;stroke:#000;stroke-width:10;stroke-linecap:round;stroke-linejoin:round;stroke-miterlimit:10"/></svg>