<svg version="1.1" id="Layer_1" xmlns="http://www.w3.org/2000/svg" x="0" y="0" viewBox="0 0 1100 1100" style="enable-background:new 0 0 1100 1100" xml:space="preserve" xmlns:xlink="http://www.w3.org/1999/xlink"><style type="text/css">.st300{fill:#00DE72;stroke:#000000;stroke-width:10;stroke-linecap:round;stroke-linejoin:round;stroke-miterlimit:10;}</style><circle class="st300" cx="550" cy="553.7" r="500"/><path d="M532 207.7c-68 59.6-71 20-121 36.5-19.6 10.9-14 30-9.7 39.6 11 23-51 9-69 40.3-10 18 .1 42-7.5 61.8-9 19.6-34 35-37 52.2-43 48-154 7-119 70.4 6 11 33-6 39 9.1 7 17.5-39 29-21 46.7 18 5 21 39.9 57 63.2 14 20 3 51 19 69.1 35.8 38 46-25 41-34.3 4-39 44-11 22 38.7-23 52 11 74 36.5 56.6 24-9 13 39 23 50.9 19.5 37 55 12 67 12 18 1 28 22 29.8 40.3 6.5 63 54 46 59 8 15.5-34 45 49 47 59.9 11 73 69 42 71 17.9 3-54-3-60.1 2-68.3 18.5-31 71 13 90.8-15.5 14-19.7-31-63.5 8-55.4 94 19 19-101 14-120.4-9-35.5 14-106 47-121.7 18-9 17-35.5 7-52.8-9.5-17-25-30.6-31-48.9-13.5-54 22-102-36-133.3-5-3-7-9.5-4-14.4 17-26 1-66-32-71.4-22-3-44 9-66.5 6.3C615 246 579 177 532 207.7z" style="fill:#009dff"/><linearGradient id="a5" gradientUnits="userSpaceOnUse" x1="381.071" y1="365.002" x2="511.347" y2="365.002" gradientTransform="matrix(1 0 0 -1 0 1100)"><stop offset="0" style="stop-color:#c517ff"/><stop offset="1" style="stop-color:#ff1751"/></linearGradient><path style="fill:url(#a5)" d="M381 766.7c29-5 16-38 23.5-55.9 5-12 38-28 21-55 16 5 19 22 17 37.1-1.5 16 23 11 25-12.6 2.5-28 7-46.5 33-60.3-19 31 22.5 46 5.5 76.6-11 19-30.1 35-33 57.7-3 18 21 19 23 2.2 19 43-20 21-5 70.2 3 8-1 18.5-8 23.2-30-96.4-85 60.1-102-83.2z"/><linearGradient id="b2" gradientUnits="userSpaceOnUse" x1="566.921" y1="265.744" x2="809.398" y2="265.744" gradientTransform="matrix(1 0 0 -1 0 1100)"><stop offset="0" style="stop-color:#c517ff"/><stop offset="1" style="stop-color:#ff1751"/></linearGradient><path style="fill:url(#b2)" d="M660 882.5c21-37 76 16 97.5-22.4 8-24-21-40-10-55.2 33.5 32.5 88-14 47-80.7-16-1-19.8 25.5-36 2.2-21-15-58 12-53-34.7-4 7-12 12-14 19.7-2 9 10.1 31-4.5 30.9-15 0-18-6-30 6.2 51 2 49 91 19 53.7-6-7-11-14-22-14.4 23.5 25-13 61-25 23.6-12-38.5-17-63-62-48.6 54.5 11 1 67 11 27.3-30 49 28.5 69 2 103.3 32 140.6 104.5 79.6 80-10.9z"/><linearGradient id="c2" gradientUnits="userSpaceOnUse" x1="597.551" y1="561.092" x2="839.931" y2="561.092" gradientTransform="matrix(1 0 0 -1 0 1100)"><stop offset="0" style="stop-color:#c517ff"/><stop offset="1" style="stop-color:#ff1751"/></linearGradient><path style="fill:url(#c2)" d="M794 422.3c-27 46-87-10.9-124 69.1 29.8-26 38.5 15 5 21.8-44 .9-71 23-77 67 43-73 108 16 49 7.8 37 22 68-28 99-14.2 21 17-4 46-26 32.4 13 30.1 45.5-3 44.5 40.7 1 4 4 9 9 8.7 3-30 32-54 32-85.8C894 558.5 784 495 794 422.3z"/><linearGradient id="d2" gradientUnits="userSpaceOnUse" x1="213.681" y1="470.314" x2="342.252" y2="470.314" gradientTransform="matrix(1 0 0 -1 0 1100)"><stop offset="0" style="stop-color:#c517ff"/><stop offset="1" style="stop-color:#ff1751"/></linearGradient><path style="fill:url(#d2)" d="M214 599c.8-9 12-10 19.7-10.7 17-2 32.5-17 29.5-34.6 16.5 14.5 11 34 11 53 5 35 58 29 45-6.3 10 9.7 32 32 18 45.1-52-4-23 26-32 47.1-11 20-45.8 16-50-7.2 4.8-49.6-.2-55.9-41.2-86.4z"/><linearGradient id="e2" gradientUnits="userSpaceOnUse" x1="327.601" y1="625.422" x2="651.361" y2="625.422" gradientTransform="matrix(1 0 0 -1 0 1100)"><stop offset="0" style="stop-color:#c517ff"/><stop offset="1" style="stop-color:#ff1751"/></linearGradient><path style="fill:url(#e2)" d="M328 390.7c43 2 75 48 61 88.9 16-1 18-31 34-32.6 46 8-18 113 75 149.8-25-25-3-59 19-30.7 55 61-4 134 82 148.8-39-39 5-66 13-38.5 13.5-20-8-40.6-24-52.2-40.9-30.8-43-93 13-103.9-43-2-41-34-26-43.2 16-10 40 51 76.5 10.7-34 0-3-60.5-59-66.7-26 0-49.9 22-77 14.5-54-15.8.5-66 3-29.6 13-16 .9-34-17-39.1-81-21 23-103-8-132.6-30 13-125.5-11-85 58.1C341 303 328 308 328 390.7z"/><linearGradient id="f2" gradientUnits="userSpaceOnUse" x1="590.061" y1="760.677" x2="766.959" y2="760.677" gradientTransform="matrix(1 0 0 -1 0 1100)"><stop offset="0" style="stop-color:#c517ff"/><stop offset="1" style="stop-color:#ff1751"/></linearGradient><path style="fill:url(#f2)" d="M610 229.1c27 44-45 63-9.8 119.3-3-52 47 2-10 28.5 45 11 37-37.5 70.9-35.7 23 1 31 28 22.5 47.5-11 19-15 44 2 60.7-8-59.8 53-36 53-82.4 0-9-3-19 3-25.2 6-5 16-4 20.5-9.4C739 345 835 216 649 248.5c-13.5-5.5-24-14.5-39-19.4z"/><style>.st40{fill:none;stroke:#000;stroke-width:10;stroke-linecap:round;stroke-linejoin:round;stroke-miterlimit:10}.st98{opacity:.6;enable-background:new}</style><g id="Outline"><path class="st98" d="M793 537c-1 .7-1 2-.5 3 5 10 11 35 25 30 8-2 21-13 18-22.4-.5-1-2-2-3-1.5-26 12-28-11-39-9.4v.3zm-34 274.5c6 5 26 8 25-3-6-7-20.6-12-21.5-26C750 772 744 803 759 811.5zm-219.3 52s1 .5 1 .8c9 13.5-3 36-18 40-34 6-9-6-6-44 .3-5.3 22.3 2.7 23 3.2zM342 731c5 7-4 22-4 33 8 13 29.6-5 33-14.9 2-12-17-21-28-20.2-1 .1-1 1.1-1 2.1zm31-120.2c2 23-8 47-26 61.9-13 10.9-17.5-30.6-8-27.9 6 4.2 28-18.8 34-34zm-157-59.9c-8 6-17 3-25 1-11 5 4 20 13.5 16 5-4 12-9 12-15.7-.5-.2-1.5-.2-.5-1.3zM337 473c-6-10-3-23 0-34 0-1 0-2-.6-2-9-9-23 11-19.8 20.7C318 463 338 475 337 472.8v.2z"/><path class="st98" d="M326 392c-2 29 24 45 7 44-7 2-14 1-15 11-1 11-24 0-24.5-1.3C285 433 317 404.5 326 392zm103-118c-9.9-4-16-16-18-25-4-6-9.9 1-11 6-7 54 29.5 28 29 19zm293 9c16 21 29.5 12 40 20.7 3 4 1 9.6-1 14-3 9-13 9-20 4.1-14.5-5.8-22-22.2-19-38.8z"/><path class="st40" d="M347 729c53.5 5 15 86 59 102 25 9 37-19.8 55-11.9 23 10.1 19.6 40 24 60.7 9.6 46 63 29.6 58-12.8"/><path class="st40" d="M519 861c89-9 47.5 119 114.5 115 39-6 35-47 25-76.5-3-9 0-18.5 7-24.5 24.5-21 59 15.5 84-2.5 15-11 8-33-2-45-12-15 0-32 10-43"/><path class="st40" d="M790 539c53 69.8-64 71 8 194.5 6 14 11 32 11 48.5 0 32-49 47.5-61 16"/><path class="st40" d="M721 287c2 51 64 31 74 88 6 34-11.5 71 7 103 10 18 27 31.5 34 51 8 19-4 47-27 42"/><path class="st40" d="M407 290.6c-16-8-12-29.9-2-41 17-15 40.5-10 61-6 29.8 1 49-29 75-38 50-17 81 55 133 44 23-5 48-11 69 1 25 14 33 55 10 75"/><path class="st40" d="M428 278c-16 26.5-51 17.5-76 28.5-20 10.5-28 33-23 55 10 47-43 51-39 88m25 4.5c1.5-23 35-26 41-5 7 25-13 47 16 72"/><path class="st40" d="M334 476c-20-34-61-31.5-89-9.6-20 8-43-3-64 4-22 7-28 37-5 43.5 6.5 2 23-2 26-1 15 4 11 25-5 30-21 6-10 29 6 29"/><path class="st40" d="M216 554.5c-15 15-14 41 2 55 37 22 41 31 36 69.7-2 31 46 41 53.5 10 2-10.8-4-22 0-33 13-32 44 20 62-44.5"/><path class="st40" d="M327 647.9c25 29.7-.5 47-7 75-10 32.5 34 65 53 25"/><path d="M729 262.5c9 4 16 13 18 22.5m-193-68c12.5 2 24.5 8 34 16m9 9 3 3m-163 10c-5.5-.9-12 .6-15.5 4M362 319.6c-9 2-14 10.7-16 19M339 449c4 1 6 6 6 9.8M308.5 470c-12-6-16-5-22-4M175 492c1-4 5-7 9-7.5m38 89.5c-4 8 0 16 4 19.9m44 78.6c-1 6 1 15 9 18m76-77.5c-3 14-13 14.5-16 16m4.5 119.5c-5-3-9-9-8-15M397 782c-1 14.5 7 28 14 30m90 53.9c-3 12 2 27 14.5 25M636 957c14-3 17-28 11-38m96-60.1c1-7 0-14-4-19m46-49.1c8-6.5 9-25 3-39M786 582c5-8 3-19-3-26m37-12c2-8.5-.6-18-7-24m-56-169c18 6 22 30 21 35" style="opacity:.7882;fill:none;stroke:#fff;stroke-width:10;stroke-linecap:round;stroke-linejoin:round;stroke-miterlimit:10;enable-background:new"/></g><linearGradient id="a15" gradientUnits="userSpaceOnUse" x1="238.934" y1="-556.918" x2="343.954" y2="-476.903" gradientTransform="translate(0 1066)"><stop offset="0" style="stop-color:#ff0040"/><stop offset=".125" style="stop-color:#ec0051"/><stop offset=".379" style="stop-color:#bb007e"/><stop offset=".736" style="stop-color:#6d00c6"/><stop offset="1" style="stop-color:#2f00ff"/></linearGradient><path style="fill:url(#a15)" d="M236 532.1c15 4 17 20 16 34-2 29 36 51 62 29 28-23-9-58 18-81-9-3.5-15 15-32 3.7-7-4-12-20-3-24-39 10-16 37-41 37-7-2.8-15-3.8-20 1.3z"/><path d="M288 499.9c-21.5 33 12 52-12 78.5-4 4-9.8 8-9.7 14 3 16 28 10.5 39 6.9 9-4 16.5-13 18-23.5.5-19.7-4-39-1-59-7 5-19 3.5-25-3-4.3-3.8-5.3-10.3-9.3-13.9z" style="opacity:.1882;fill:#fff;enable-background:new"/><path d="M236 532c15 4 17 20 16 34-2 29 36 51 62 29 28-23-9-58 18-81.3-9-3.5-15 15-32 4-7-4-12-20-3-24-39 10-16 37-41 37-7-2.7-15-3.7-20 1.3z" style="fill:none;stroke:#000;stroke-width:10;stroke-linecap:round;stroke-linejoin:round;stroke-miterlimit:10"/><path d="M254.5 527c20-8 9-29 36-32M233 534c12 7.5 15 22 14 35-2 31 39 49.7 62 29" style="opacity:.6;stroke:#000;enable-background:new;fill:none;stroke-width:10;stroke-linecap:round;stroke-linejoin:round;stroke-miterlimit:10"/><path d="M310 560.8c1 9-1 21-10 25m7-40.8c0 1 0 2 .5 3" style="fill:none;stroke:#fff;stroke-width:10;stroke-linecap:round;stroke-linejoin:round;stroke-miterlimit:10"/><path d="M742 680.8c-16 15-63 0-116 44 3 19 39.5-11 76.5 27.7 7.1-7.5 38.5-55.5 39.5-71.7z" style="stroke:#000;stroke-width:10;stroke-linecap:round;stroke-linejoin:round;stroke-miterlimit:10"/><path d="M751 654c-12 44.5-52 26-68 30.9-22 6-36 32-58.5 34-21 2-43-23-61-12.2-69.7 42-49.8-29.5-88-19.6-52 13.5-25-25-62-24.9 37-1-3 50.5 15 79 19 29 51 13 80.5 40.2 30.1 28 41 77 92 42.9 24-16 43-2 68-6 39-6 25-46 43-67.9 47-57 32-90 34-79.4 6 38-42.5 89-42.5 89-14-27-78-30-70.7-15 2.5 5 8 33 8 33-5.5-26-14-46-32-61.8 29 12 48-24 73-31 28-5 52 8 66.5-23" style="fill:#ff1768;stroke:#000;stroke-width:10;stroke-linecap:round;stroke-linejoin:round;stroke-miterlimit:10"/><path d="M433 680c-17 41 20 32 30 33 16.5 2 26.5 19.5 41.5 26.9 37 18 64-42 123 9.2 0-10.8-8-23-16-28.9-78-28-75 39.6-114-12.5C472 674 454 722 433 680zm198 67c8.5 1.5 5 16 8 23 5-19 35-31 24-28.5-10 3.5-22-7.5-32 5.5z" style="opacity:.6;stroke:#000;enable-background:new;stroke-width:10;stroke-linecap:round;stroke-linejoin:round;stroke-miterlimit:10"/><path d="M598 725.5c9 8 15 19 18 30m6 16.5c0 1 0 2 1 3.5m44-21.5c7 2 13 7 17 13" style="fill:none;stroke:#fff;stroke-width:10;stroke-linecap:round;stroke-linejoin:round;stroke-miterlimit:10"/><path d="M417 666c10 9 6 24 3 36-14 65 34 60 77 80 28 17 41 66 79 62.5 16-1.5 29-16 44.5-19 39-4 66.5 17 83-34 5-15 8-32 17-45 17-24 36-48.5 29.7-79.6" style="opacity:.6;fill:none;stroke:#000;stroke-width:10;stroke-linecap:round;stroke-linejoin:round;stroke-miterlimit:10;enable-background:new"/><style>.st40{fill:none;stroke:#000;stroke-width:10;stroke-linecap:round;stroke-linejoin:round;stroke-miterlimit:10}</style><g id="glasses"><linearGradient id="SVGID_00000178916075595908665650000004557367053833667231_" gradientUnits="userSpaceOnUse" x1="598.405" y1="1033.928" x2="641.405" y2="678.931" gradientTransform="matrix(1 0 0 -1 0 1410)"><stop offset="0" style="stop-color:#00f5d0"/><stop offset=".232" style="stop-color:#42b1da"/><stop offset=".508" style="stop-color:#8b66e6"/><stop offset=".738" style="stop-color:#c02fee"/><stop offset=".908" style="stop-color:#e10df3"/><stop offset="1" style="stop-color:#ed00f5"/></linearGradient><path style="fill:url(#SVGID_00000178916075595908665650000004557367053833667231_)" d="M360 453c2 11 0 51 7 55.1 14 4 47-17 49.9 2 3 11 7 22 6 33-2 22-21 43-13 65 9 25 35.8 11 38 17.3 11 32 20 25 48 27 19 5.5 23 38 45 35 26-3 15-55 34-38.5 15 13 41 3 44.5-16.4 4-23-18.5-42.5-19-66 2-28 23-48 8-79 8 .5 17 0 25-1 13 24 8 46.5-2 69.9-17 39.8 15 52.5 29 45-2 14-11 36 2 47 10.5 5 23-4 29-12 11-22 29.5-2 39 10.3 12 12 28 6 29-11 .6-7.5-2-16 2-23 6-5 18 6 27-10.8 6-30-9-21 14-54.7 8-12 34-27 17-51-7-9.6-20.5-18-17-31 16 3 34-8.5 44-19.9 6-9.5 9-23 6-33.5-5-12-17-10.9-24.5-2-10 9.9-20.9-1-12.5-12 8-11 39-18 7-31-52.5-6.5-53 102-140.5 31.8-46-29-49 40.6-93 34-32.5-5-17-24-60.8-4-59-42-66 22.5-124 20.3-14-.5-32-7-44 3.8v.3z"/><path d="M363.5 508c17 18 36-5 48 0 24 37-27 79.5-.5 112.9 11 14 29.9 7 32 8.8 4.5 18 16 29 35 29 40-5 27 27.5 53 28m37-34.7c10 9.5 27 10.5 38 2m9-163.1c56-2-32.5 112 38 120 5 4-17 39.7 17.5 37m29.5-17c19-2 25 27 46 22m38-41.9c-4 5-11 7-17 7M445 500.6c-6 10.5-14.5 5-21 10" style="opacity:.6;enable-background:new;fill:none;stroke:#000;stroke-width:10;stroke-linecap:round;stroke-linejoin:round;stroke-miterlimit:10"/><path d="M495 429.5c9 2 17 6 23 13m-38.2-11.6c-1 0-2 .8-3.5 1.5M374 495c6 .5 12-1 16-4m213 15c2 9.5-1 19-5 28m-6.5 13-1.5 3m12 58c6 7 9.9 19 4.5 27m-10.5 8c-1 0-1.5.5-2 .7M550 656c0 7-3 13-8 18m-79-46c1 7 7 12 14 12m168-78c-3 7-3 15-1 22m25 39c-2 3.5-1 8 2 11m78.5-14c2 6 1 12-1 17m-.5-30v-2m41-76c4 7 0 14-5 19.5m22-47.5c4 3 6 7 7 11m28-92c0 8-3 16.5-9 22m-11 5c-2 0-3 .9-5 1m-150.5-41c7 1 12 5.5 17 10.7M652 409c-1 .5-2 1-3 2" style="fill:none;stroke:#fff;stroke-width:10;stroke-linecap:round;stroke-linejoin:round;stroke-miterlimit:10"/><path d="M429 607c3 4 3 10 0 15 4-1 12-3 13-8m151 11.9c-5 8-7.5 19.8 0 27-6 0-27.5-5-16-23M592 498c7-1 14.5 1 20 5-2-5-4-11-9-14m61-2c-8 5-15 13-19 21-1 0-6-12-4-18m12 96c-1 6-6.5 11-12 13 6 1 14 2 19-2m112-5c-1 7 2 14 8 18-6 2-13.5-.5-17-6m40-87.5c4 5 10 11 17 9-3.5 3-9 6-14 4.5m-28-62.5c8-2 17 3 22 8.9.5-5-.9-12-4-16h-1m-244-23.9c-5-3-6-11.5-3-16.5-6 3-13 7-13 14" style="opacity:.6;enable-background:new"/><path class="st40" d="M362 503c14 14 34.5-3 50.9-2 9.6.5 23 7 29.9-3"/><path class="st40" d="M413 501c24 36 0 62-4 97-2 19 19.5 34 35 21.5"/><path class="st40" d="M434 606c26 12 3 52 54 46 31-4 21.5 36 50 37 32 2 19-59 51-65"/><path class="st40" d="M570 642.5c12 19.5 44 17 51-5 9-27.5-27-52-19-79 7-23 24-47 7-69m27-1.5c14 25 2 49.7-5.5 74-5.8 18 6 53 29 38"/><path class="st40" d="M656 588c12 13.5 0 29-1 44 0 14 15 21 27 11.9 15-12 23-31 40.6-8.4 26 34 40 9 40-3.5s-7-29.6 5-38.5"/><path class="st40" d="M763 609c12 9 30-2 28-16.9-.8-5-3-9-4-14-4-22 32-25 13-58"/><path class="st40" d="M808 535c22-1 21-31 7-42-9-7-16-17.5-13-29m-141 20c-18 12.5-39-12-68 10.6M779 463c9.8-6 22-2 34-2 54 0 53-75.5 20.7-55-19 12-22-1-19.7-6.8 4-9 17-9 23-16 5-13-10.9-18-21-17-29 3-32 32-51.5 45-21 15-58 14-74-6.7-7-9-17-14-29-13-23 1.5-29.5 25.5-47 35-34 22-52-27-81.5 3"/><path class="st40" d="M548 438c-13 0-23-10-33-16.9-39-27-69 31-108 29-17-.9-35-10-50 2.7 6 15 2 34 5 49"/></g><style>.st231{fill:none;stroke:#000;stroke-width:10;stroke-linecap:round;stroke-linejoin:round;stroke-miterlimit:10}</style><g id="Layer_69"><path d="M357 479c41.5-7 15.5-83 75-83.3 64-.6 56-52 173-19 36 10 64.5-10 81-11 34-1.5 77 67 108 4.7-1-6-3.5-12-7-16.9 7 10.9 10.7 24 11 36.5 27.5-15.5 8-44 7-52-3-29 24-47-10-71.1-63-44 6-91-33.5-132.8-14-15-39 3-40.7 19.4-1 10.6 6 20 10 30 16 38.5-25 58-46.5 21.6-24-47-38-40-87-34.4-36 4-29-30.8-48-43-20.9-7-44 15-47 34.7-2 13 3 26 1 38.5-3 20-26 13-31.5-2.4-8-22-5-51-25-66.8-19-14-47 .9-47 24.4 0 9.6 5 18.5 10 26.5 40 59 0 65.5-9.6 57-5-5-7-14-14-14.9-17-.9-10 24-18 30.1-5 3.5-12-1-15-6.8-4-10 5-28-13-32.1-38-8-54 56-40.9 90.8 15 40-13 44-20.5 37.8-8.5-7 0-27-17-27.9-29.6-2-42 46-31 71.7 9.6 22 35 39 35 65.3 15-13 40.6-4 55.5 5.7-26.3-28.4 50.2-49.8 35.7 19.7z" style="fill:#3bed94"/><path class="st231" d="M315 454c1.5-23 35-26 41-5 7 25-13 47 16 72.4"/><path class="st231" d="M334 475.6c-20-34-61-31.5-89-9.6-20 8-43-3-64 4.1-22 7-28 37.5-5 43.5 6.5 2 23-2 26-1.1 15 4 11 25-5 30.1-21 6-10 29 6 29"/><path class="st231" d="M357 479c41.5-7 15.5-83 75-83.3 64-.6 56-52 173-19 36 10 64.5-10 81-11 34-1.5 77 67 108 4.7-1-6-3.5-12-7-16.9 7 10.9 10.7 24 11 36.5 27.5-15.5 8-44 7-52-3-29 24-47-10-71.1-63-44 6-91-33.5-132.8-14-15-39 3-40.7 19.4-1 10.6 6 20 10 30 16 38.5-25 58-46.5 21.6-24-47-38-40-87-34.4-36 4-29-30.8-48-43-20.9-7-44 15-47 34.7-2 13 3 26 1 38.5-3 20-26 13-31.5-2.4-8-22-5-51-25-66.8-19-14-47 .9-47 24.4 0 9.6 5 18.5 10 26.5 40 59 0 65.5-9.6 57-5-5-7-14-14-14.9-17-.9-10 24-18 30.1-5 3.5-12-1-15-6.8-4-10 5-28-13-32.1-38-8-54 56-40.9 90.8 15 40-13 44-20.5 37.8-8.5-7 0-27-17-27.9-29.6-2-42 46-31 71.7 9.6 22 35 39 34 64.9"/><path d="M795 382.6c-36 44-83-4-101-8.6-22.5-5-45 14-68 10.4-79-12-89-22-172 13.6-16 7-35 4-49 15-22 18-15 66-48 72.9" style="opacity:.6;fill:none;stroke:#000;stroke-width:10;stroke-linecap:round;stroke-linejoin:round;stroke-miterlimit:10;enable-background:new"/><path d="M750.5 143.7c4 5 7 12 7 18.7m.5 14.2v5m28 96.1c6 3 10 9 12 15M644.5 179.6c9 3 15 11 19.5 18.7m6.5 11.6c1 2 2 3 2.5 5M538 140c6 1 11 5 14 10.3m4 12c.5 1 1 2 1.5 3.6m-126.6-25.8c7 .9 14 6 17 12.4m2 12.5c.6 2 1 4 2 5.7M325 236c-9.6 9-12 23-13 35.5m0 14.5c0 3 0 5 .6 7.8M249.7 340c-6 9-8 21-5 31.6m6 14.2c.9 2 2 3 3 5.1M768 378.6c-7 2-14 1-20-2.9m-13-7.9c-1-.9-3-2-4-2.7m-118-4.6c12 2 24 2 36-1.8m-210 19.8c12-.5 23-4 33-10m-46 12.1c-2 0-3.5 0-5 .4" style="stroke:#fff;fill:none;stroke-width:10;stroke-linecap:round;stroke-linejoin:round;stroke-miterlimit:10"/></g><circle cx="550" cy="550" r="500" style="fill:none;stroke:#000;stroke-width:10;stroke-linecap:round;stroke-linejoin:round;stroke-miterlimit:10"/></svg>