<svg version="1.1" id="Layer_1" xmlns="http://www.w3.org/2000/svg" x="0" y="0" viewBox="0 0 1100 1100" style="enable-background:new 0 0 1100 1100" xml:space="preserve" xmlns:xlink="http://www.w3.org/1999/xlink"><circle cx="550" cy="550" r="500" style="fill:#2e2e2e"/><linearGradient id="a1" gradientUnits="userSpaceOnUse" x1="264.957" y1="853.134" x2="422.298" y2="853.134"><stop offset="0" style="stop-color:#00ff90"/><stop offset="1" style="stop-color:#c800ff"/></linearGradient><circle cx="343" cy="853" r="78" style="fill:url(#a1);stroke:#000;stroke-width:10;stroke-linecap:round;stroke-linejoin:round;stroke-miterlimit:10"/><linearGradient id="b1" gradientUnits="userSpaceOnUse" x1="826.38" y1="645.312" x2="919.38" y2="645.312"><stop offset="0" style="stop-color:#f7ff00"/><stop offset="1" style="stop-color:#ff5e00"/></linearGradient><ellipse style="fill:url(#b1);stroke:#000;stroke-width:10;stroke-linecap:round;stroke-linejoin:round;stroke-miterlimit:10" cx="873" cy="645" rx="46.5" ry="53"/><linearGradient id="c1" gradientUnits="userSpaceOnUse" x1="179.591" y1="404.219" x2="384.591" y2="404.219"><stop offset="0" style="stop-color:#0073ff"/><stop offset="1" style="stop-color:#8c00ff"/></linearGradient><ellipse style="fill:url(#c1);stroke:#000;stroke-width:10;stroke-linecap:round;stroke-linejoin:round;stroke-miterlimit:10" cx="282" cy="404" rx="102.5" ry="111"/><linearGradient id="d1" gradientUnits="userSpaceOnUse" x1="766.562" y1="310.33" x2="944.562" y2="310.33"><stop offset="0" style="stop-color:#7300ff"/><stop offset="1" style="stop-color:#ff008c"/></linearGradient><ellipse style="fill:url(#d1);stroke:#000;stroke-width:10;stroke-linecap:round;stroke-linejoin:round;stroke-miterlimit:10" cx="856" cy="310" rx="89" ry="95"/><linearGradient id="e1" gradientUnits="userSpaceOnUse" x1="615.769" y1="857.232" x2="845.269" y2="857.232"><stop offset="0" style="stop-color:#f0b"/><stop offset="1" style="stop-color:#f40"/></linearGradient><circle style="fill:url(#e1);stroke:#000;stroke-width:10;stroke-linecap:round;stroke-linejoin:round;stroke-miterlimit:10" cx="730.5" cy="857" r="115"/><linearGradient id="f1" gradientUnits="userSpaceOnUse" x1="115.411" y1="614.727" x2="186.411" y2="614.727"><stop offset="0" style="stop-color:#00ff90"/><stop offset="1" style="stop-color:#006fff"/></linearGradient><circle style="fill:url(#f1);stroke:#000;stroke-width:10;stroke-linecap:round;stroke-linejoin:round;stroke-miterlimit:10" cx="150.9" cy="615" r="35.5"/><path d="M313 326.3c18 9.9 33 27 39.6 46m7 22.7 1 7m509.9-163.1c19 5 34 19.6 41 38m6 22c1 3 1.5 5 2 8M879 609.4c9 4 16 11 19.8 20m.7 19.6-.5 5M759 766.9c25 9 44 31 49.9 56.5m7.1 23.7c1 4 1 7 .5 10.8M364 799.3c16 6 29 22 31 39m0 22.7-2 6M153.5 595.4c7 1 12 6 14 12" style="opacity:.8118;fill:none;stroke:#fff;stroke-width:16;stroke-linecap:round;stroke-linejoin:round;stroke-miterlimit:10;stroke-dasharray:0,0,0,0,0,0"/><linearGradient id="a3" gradientUnits="userSpaceOnUse" x1="432.676" y1="-700.409" x2="789.687" y2="-76.39" gradientTransform="translate(0 1066)"><stop offset="0" style="stop-color:#5900ff"/><stop offset="1" style="stop-color:#f06"/></linearGradient><path style="fill:url(#a3)" d="M302.5 412.2c13 30 55 19 61-10.5 3-13-.8-27-2-40.7-3-33 15-45 47-40.6 56 8 63-33 100.6-58.7 58-39.6 78 46 81 54 9 24.5 35 23 44-.7 26-71 94-32.5 93.5 28 1 13 1 25.5 5 37.6 8 32 68 39.5 59 5-1.5-6-17-12-17-12 27 9 43 42 33 68-8 21-39.9 44-13 70.7 26 26 40 54 25 83-54 105 46 96.5-36.5 188-7 8-12 22-13 29-3 17 20.1 28 23 17.9 5-18 16-26 16-26-17 19-13 22-22 45-12.5 32-49 12-55 57-8 33-26 40.9-57 34.9-21-.5-40 13-60 19-55 17-84-17-124-47-49-29-108 16-133-68 0 0 5 18 9.5 20.3 21 11 36-34 20.5-51.5-13-15-39-16-48-34-6-11-3-25-2-37.9 3-37-23-56-40.7-84.1-24-47.5 18-100 9-149-19-49-16-105 29-138.6L302.5 412v.2z"/><path d="M327 702.4c-23 52 11 74 36.5 56.6 38.5-10-14 99.9 89.9 62.9 18 1 28 22 29.8 40.3 6.5 63 54 46 59 8 15.5-34 45 49 47 59.9 11 73 69 42 71 17.9 3-54-3-60.1 2-68.3 18.5-31 71 13 90.8-15.5 14-19.7-31-63.5 8-55.4 94 19 19-101 14-120.4l-448 14z" style="fill:#20f"/><path d="M779 692.9c-15-51 21-118 41.5-126.2 18.5-8 17-33 7-50.2h-620c7 18-39 32-21 49.2 18 5 21 39.9 57 63.2 14 20 3 51 19 69.1 35.8 38 46-25 41-34.3 4-39 44-11 23 38.7-23 53 14 74 32.5 61.5 16-11 25-65 63 3.8 11 21 47 11 39-13.5-18.5-58 50.7-32 59-10 5 12.5-8 31 8 37.1 35 13 37-31 29.9-42.8-17-28 17-34 27.5-21.8 11 12-18 33 11 43.2 14 5 34-4 32-21.1-1-8-29-43 22-38 39 4 71 91 97 20.6C752 709 762 688 779 692.9z" style="fill:#04f"/><path d="M828 516.5c-76-76 7-145.5-67-184.7l-436 55.5c-9 19.6-34 35-37 52.2-43 48-155 7-119 70.4 48-3 52 29 58 37.6 23 33 72-41 88.5 20.7 12 43 39.7 26 39 9.3-2-37.5 45-31 59.6-9.7 75 110 112 49 105 20.2-9-39.9 23.5-39 29-29.8 6 9.6-7 22-3 32.5 9 25 53.5 18 35.5-25.4-11-27 39-10.1 53 .5 45.5 35 86 35 120-14.2 25-37 47-22 61.5-22.1 6.9.1 21.9-3.5 12.9-13z" style="fill:#00b2ff"/><path d="M761 331.7c-16-9 41-64-36-85.8-22-4-44 9-66.5 6.3-44-5-80-74-127-43.1-68 59.6-71 20-121 36.5-19.6 10.9-9 38-5 47.6 12 24-91-35-78 91.2-1 11 12.5 24 21 16.6 26-23 41-7 52 17.3 15 34 48.5 23 47-14.9-1-42 80.7-51 88 55.6 1.5 22 37 31 53 13.8 34-39-17-59.7-2-87.9 4-7 18-7 19.6 1.3 1 6-4 12-3 17.7 5 26.5 43.5 3 33-18.9-25-49.9 50-19.8 73-17.2C734.5 370 743 348 761 331.7z" style="fill:#00e1ff"/><style>.st40{fill:none;stroke:#000;stroke-width:10;stroke-linecap:round;stroke-linejoin:round;stroke-miterlimit:10}.st98{opacity:.6;enable-background:new}</style><g id="Outline"><path class="st98" d="M793 537c-1 .7-1 2-.5 3 5 10 11 35 25 30 8-2 21-13 18-22.4-.5-1-2-2-3-1.5-26 12-28-11-39-9.4v.3zm-34 274.5c6 5 26 8 25-3-6-7-20.6-12-21.5-26C750 772 744 803 759 811.5zm-219.3 52s1 .5 1 .8c9 13.5-3 36-18 40-34 6-9-6-6-44 .3-5.3 22.3 2.7 23 3.2zM342 731c5 7-4 22-4 33 8 13 29.6-5 33-14.9 2-12-17-21-28-20.2-1 .1-1 1.1-1 2.1zm31-120.2c2 23-8 47-26 61.9-13 10.9-17.5-30.6-8-27.9 6 4.2 28-18.8 34-34zm-157-59.9c-8 6-17 3-25 1-11 5 4 20 13.5 16 5-4 12-9 12-15.7-.5-.2-1.5-.2-.5-1.3zM337 473c-6-10-3-23 0-34 0-1 0-2-.6-2-9-9-23 11-19.8 20.7C318 463 338 475 337 472.8v.2z"/><path class="st98" d="M326 392c-2 29 24 45 7 44-7 2-14 1-15 11-1 11-24 0-24.5-1.3C285 433 317 404.5 326 392zm103-118c-9.9-4-16-16-18-25-4-6-9.9 1-11 6-7 54 29.5 28 29 19zm293 9c16 21 29.5 12 40 20.7 3 4 1 9.6-1 14-3 9-13 9-20 4.1-14.5-5.8-22-22.2-19-38.8z"/><path class="st40" d="M347 729c53.5 5 15 86 59 102 25 9 37-19.8 55-11.9 23 10.1 19.6 40 24 60.7 9.6 46 63 29.6 58-12.8"/><path class="st40" d="M519 861c89-9 47.5 119 114.5 115 39-6 35-47 25-76.5-3-9 0-18.5 7-24.5 24.5-21 59 15.5 84-2.5 15-11 8-33-2-45-12-15 0-32 10-43"/><path class="st40" d="M790 539c53 69.8-64 71 8 194.5 6 14 11 32 11 48.5 0 32-49 47.5-61 16"/><path class="st40" d="M721 287c2 51 64 31 74 88 6 34-11.5 71 7 103 10 18 27 31.5 34 51 8 19-4 47-27 42"/><path class="st40" d="M407 290.6c-16-8-12-29.9-2-41 17-15 40.5-10 61-6 29.8 1 49-29 75-38 50-17 81 55 133 44 23-5 48-11 69 1 25 14 33 55 10 75"/><path class="st40" d="M428 278c-16 26.5-51 17.5-76 28.5-20 10.5-28 33-23 55 10 47-43 51-39 88m25 4.5c1.5-23 35-26 41-5 7 25-13 47 16 72"/><path class="st40" d="M334 476c-20-34-61-31.5-89-9.6-20 8-43-3-64 4-22 7-28 37-5 43.5 6.5 2 23-2 26-1 15 4 11 25-5 30-21 6-10 29 6 29"/><path class="st40" d="M216 554.5c-15 15-14 41 2 55 37 22 41 31 36 69.7-2 31 46 41 53.5 10 2-10.8-4-22 0-33 13-32 44 20 62-44.5"/><path class="st40" d="M327 647.9c25 29.7-.5 47-7 75-10 32.5 34 65 53 25"/><path d="M729 262.5c9 4 16 13 18 22.5m-193-68c12.5 2 24.5 8 34 16m9 9 3 3m-163 10c-5.5-.9-12 .6-15.5 4M362 319.6c-9 2-14 10.7-16 19M339 449c4 1 6 6 6 9.8M308.5 470c-12-6-16-5-22-4M175 492c1-4 5-7 9-7.5m38 89.5c-4 8 0 16 4 19.9m44 78.6c-1 6 1 15 9 18m76-77.5c-3 14-13 14.5-16 16m4.5 119.5c-5-3-9-9-8-15M397 782c-1 14.5 7 28 14 30m90 53.9c-3 12 2 27 14.5 25M636 957c14-3 17-28 11-38m96-60.1c1-7 0-14-4-19m46-49.1c8-6.5 9-25 3-39M786 582c5-8 3-19-3-26m37-12c2-8.5-.6-18-7-24m-56-169c18 6 22 30 21 35" style="opacity:.7882;fill:none;stroke:#fff;stroke-width:10;stroke-linecap:round;stroke-linejoin:round;stroke-miterlimit:10;enable-background:new"/></g><g data-name="Layer 5"><path d="M794 602c-14-24-39.7 29-45 30.5-105 22-109 60.8-136 51.5-56-19-116 8-136-7-50-37-70.7-26.5-112-50-5 20-29.5 22-33 29-1 3 6 13-8 54.9-22 63 38 63 48.5 37 19 102 29 88 71 73s36 57.5 53 85c24 18 54-11 43-37.4 55 17 49 67 59 87.5 15 31 63 24.5 67-10-33-141 58.5-35 82-73 30.6-23.6-11-37-10.5-58.7.9-31 19 12 48-3C854 770 723 694 794 602Z" style="isolation:isolate;opacity:.6"/><path d="M659.8 758c4 4.5 5 11 4 16.5M652.5 744l1.5 3m-132 25a22.4 22.4 0 0 1-6 15m-61-58c0 2 0 5 1 7m130 94c1 3.5 0 7-2 10m139-106.1a11 11 0 0 1 .5 7" style="stroke:#fff;fill:none;stroke-linecap:round;stroke-linejoin:round;stroke-width:10px"/><path d="M444.5 712c-20 18.5-3 69.7 25 42 8-8 15-2 14 7-3.5 53 24 49 42.5 37m26 18c12 7 4 23 9.9 33.5s19.6 9 28 3M624.5 750c-30 48 41.5 75 53 29.9M705 727c-18.5 51 51 46 30.7-4-3.5-6-8-17-5-22-.5 27 36 26 32.5-.8" style="stroke:#000;fill:none;stroke-linecap:round;stroke-linejoin:round;stroke-width:10px;isolation:isolate;opacity:.6"/><path d="M366 622.9c9 21.5 30 22 51 22 15.5 0 27 14 39.6 23 49 34 79-12 147 13.4 43 6 56-19 89.6-35 17-8 39-2 53.5-14s23-48 47-36M448 713c-18 29 7 58 22 33 6-10.5 20.5-1.5 18 9-11 48 34 64 46 30.8 6.5-18-11-30.5-4-42m25 68.7c16 7 2 29.8 14 39.5 10 8 29 0 29.6-12.9 1-19.7-14-32-2-54m32.4-34.6c-28 65 74 62.5 44.5 0-7-14.5-18-31.5-8-47M708 728c-11 48 48 28 18-10.7-3-4-6-9-5-14s9-8 14-4.2 2.5 10 9 14.5c12 7 30-8 8-30-5.5-5.5-13-17-4-23" style="stroke:#000;fill:none;stroke-linecap:round;stroke-linejoin:round;stroke-width:10px"/></g><style>.st16,.st40,.st68{fill:none;stroke:#fff;stroke-width:10;stroke-linecap:round;stroke-linejoin:round;stroke-miterlimit:10}.st40,.st68{stroke:#000}.st68{opacity:.6;enable-background:new}</style><g id="visor"><path class="st68" d="M425 452.5c-10 10-4 21-3 34 1 17.5-25 17-23 50.8 2 14 13.5 16 23 23.7 16 13-12 46.5 10.5 59 28 9 30-39 60.5-13 35 26 45-3 76-1 14 3 23 19.6 37 17.6 15-2 18-20 26-30.7 12-16 32 5 58-7 14-7 10.8-31 27-33 10-1 22-7 25-17.8 1-4 .7-9 3-11.9 3-4 9-5 11-9"/><path class="st68" d="M483 474c-28 10-52 59-14 72m214-104.1c32-1 53 43 26 64m-216 .1c-38 74 159 54 184 5"/><path d="M667 467c-60.6-40.6-281 59-113 83.5 33 5 185.5-41 113-83.9v.4z" style="fill:#fff"/><linearGradient id="SVGID_00000094605671738681660570000007936507584095639945_" gradientUnits="userSpaceOnUse" x1="531.586" y1="652.528" x2="653.586" y2="545.528" gradientTransform="matrix(1 0 0 -1 0 1100)"><stop offset="0" style="stop-color:#7b00ff"/><stop offset="1" style="stop-color:#ff0084"/></linearGradient><path style="fill:url(#SVGID_00000094605671738681660570000007936507584095639945_)" d="M550 467.8c-14 18 11 55 13 77 5 7 19.7 5 25-2 12-19.9-19.5-44-2-62 34-18 16 44 33 54.9 14 3 24-5 18-20-3-15 7-32-2-46-17-26.7-57-6.7-85-1.9z"/><path class="st16" d="M616 472c4 3 6.5 7 7 12m1 11v3"/><path d="M589 509.6c-6 26 3 45 25 27.9 4-17.5-4-37.8-25-27.9z"/><path class="st40" d="M623 456c-34 1-67 9-98 22.5-39.6 17-51 50.7-3 66 40 13 129-5.8 157-37.4 27-31.1-23.5-52.1-56-51.1zm-138 18c-20 15.5-47 54-14 71m210-103.1c29 12 42 36.5 27 65"/><path class="st40" d="M548 470c-15 25 21 51 15 75m57-87c33.5 21 8 44.5 21 70m-51.3 15c6-24-26-55-1-64 30-4 16 42 30.5 58"/><path class="st40" d="M580 500c4 9 19.8 11 27 7"/><linearGradient id="SVGID_00000036223863161345539850000005378798673148752026_" gradientUnits="userSpaceOnUse" x1="447.777" y1="687.666" x2="720.78" y2="506.665" gradientTransform="matrix(1 0 0 -1 0 1100)"><stop offset="0" style="stop-color:#ff002b"/><stop offset="1" style="stop-color:#ffd500"/></linearGradient><path style="opacity:.6902;fill:url(#SVGID_00000036223863161345539850000005378798673148752026_);enable-background:new" d="M490 437.6c-27-5-59.5-2-69 27.5-2 8 6.5 14 8.5 23-13 13.5-31 37-21 56 17 16 28 12 22 41.3-4 12 0 36 16.5 28 24-20.5 25-38 55-9.8 36 21 42-28 89 4.9 5 3 10.5 7 16 5.2 5-1 9-7 10.9-11.5 19.7-55 51 4 78-31 18-41 36-9 44-50 9-8 22-7 24-22.2 3-23-25-35-31-54.5-6-26 13-63-29-63-42 9.6-31 58-93 33-71-35-61.4 34.5-120.9 23.1z"/><path class="st16" d="M713 395c6.5 2 9 9 9 15m-2 13v2m26.5 60c3 3 5 8 5 13m-183-80c6-3 13.5-1 19 2m12.4 4 2.1 1m-121.5 25c-7-1-15-1-22 0M726 523c1 4 0 8-2 11m-36 27.5c-2 4-4 9-9 10.6m-12-.1h-2m-56 21c-1 3-3.5 6-5.5 9M535 592c-4 4-10 5-16 5m-11-4-2-1m-65-1.3c-1.5 3-2 7-.5 10M427 513c-4 4-6 9-7 15m-.3 10.5.3 1.5"/><path class="st68" d="M737.5 501c3 7 11 11.5 19 10.6M449 464c-5 6-13 10.9-21 13"/><path class="st40" d="M449 464c-9 26-42 39-44 68-1 8 4 17 12 19 6.5 2 13 3 15 9.8 5 16-13 44 5.5 52 24 11 23-43 58-14 45 37 47-28 95 11 27 22 25-16 40.8-28.5 15-12 35 8 52 2 15-5 15-24 24-33 7-5 17-2 23-7 14-9.6 4-29.9 7-44"/><path class="st40" d="M431 486c-24-21 3-49.7 29.8-49.5 24-2 56 9.6 74-10 39-42 61-9.7 103-5.2 46.5 2 39-48.5 78-39.5 29 11 16 33 17 56 1 18 19 29.5 27 44.9 10 16 0 42.5-21 33"/></g><style>.st16,.st40,.st68{fill:none;stroke:#fff;stroke-width:10;stroke-linecap:round;stroke-linejoin:round;stroke-miterlimit:10}.st40,.st68{stroke:#000}.st68{opacity:.6;enable-background:new}</style><g id="Polar_Hoodie"><linearGradient id="SVGID_00000032637641433338465610000007851579417180279483_" gradientUnits="userSpaceOnUse" x1="544" y1="-432" x2="544" y2="-1068" gradientTransform="translate(0 1066)"><stop offset="0" style="stop-color:#00ffc4"/><stop offset=".103" style="stop-color:#00f6c7"/><stop offset=".274" style="stop-color:#00ddce"/><stop offset=".489" style="stop-color:#00b5da"/><stop offset=".742" style="stop-color:#007deb"/><stop offset="1" style="stop-color:#003cff"/></linearGradient><path style="fill:url(#SVGID_00000032637641433338465610000007851579417180279483_)" d="M241 301.7c2 45-55.8 49.9-65 86-5 19 27 59-36 85-38 2.5-63 83-13 81.9 27-7-46 28.5 9 119.7 17 28-8 68-39.8 86 158 373 716 385 896 23.9-106-83-3-103-29-159-20-44-40-18-40.5-35.3 25-32 100.5-72.5 54-118-24-23-38 59.5-66 10.6-22-38 37-89 18-126-10.8-13-42-32-53-9.9-23 3 18-115-43-145-61 13-33 74-110-50-18-29-62 12-150-76-31-13.5-131 11.5-92 58-217-17-110 54-190 93.5-44 13-104 21-97 81.5 4 32 41 18 156 38 22 4 13-25 44-28.2 76 18 95-63 138-67 50.6-2 47 58 72 79 29 16 31-31 50-42 68.5-41 74 68 81 101 11 24 46 28 62 6 39 38-4 62-10 98 0 18 17 30 28 45 42 59-29 81-5.5 139.8 11 27 22 70.9-11 87-73 82 26 56-22 99.8-15 9.9-36.5 13.5-44 32.5-12.5 53-24 45.5-73 45-108 54.5-104 9.9-188-34.9-34-11-86 2-104.5-37 24 3.5 34-41 20.6-55-69-34-49.8-40-52.5-82.6-5-76.5-72.5-44-32-170 20-63-25.5-80 .8-148 12 34 57 12 59.8-16.9 2-19-6-39 2-57.5L241 301.7z"/><linearGradient id="SVGID_00000117640511703433748440000010943481505125308581_" gradientUnits="userSpaceOnUse" x1="541.898" y1="-622" x2="541.898" y2="96" gradientTransform="translate(0 1066)"><stop offset="0" style="stop-color:#ff0051"/><stop offset="1" style="stop-color:#ffae00"/></linearGradient><path style="fill:url(#SVGID_00000117640511703433748440000010943481505125308581_)" d="M103 782.3c-30.6-33.5 27-40 33-81 10-39.5-46-84-12-118 58.5 35 28-56 61-64-15.5 42 33 53 29 8.5 49 17 5.5 34 14 63.9 6 21 35-12 30-29 7 12 16 38 34 28-34 70 48.5 90 44 149.1-13 82 86 46 40 124.9-7 5-9 12-2 18 34 28 57.5-10 186 78 48 18 75-24 119-19.8 55.5 5 38-43 78-67 13-8 47-32 19-42-36-36 67-59 31-146-29.9-72 41-93 3-149.8 15-13 20-35 13-53 13 3 19 15 25 26 30 17.5 8-52.5 33.5-66-1 15-2 53 22 31.4 30.5 49 43-10 54-6 96.5 36-69 119-27.5 129 102 24-59 131 59 180.8-174 361.4-717 354.7-886 4z"/><path d="M513 184c32 24 78.5 20 109.9-2-31.9-21-83.9-35-109.9 1.8v.2z" style="fill:#fff"/><linearGradient id="SVGID_00000006678727818027146420000015326747936323323321_" gradientUnits="userSpaceOnUse" x1="563.48" y1="-907" x2="563.48" y2="-854" gradientTransform="translate(0 1066)"><stop offset="0" style="stop-color:#ff0051"/><stop offset="1" style="stop-color:#ffae00"/></linearGradient><path style="fill:url(#SVGID_00000006678727818027146420000015326747936323323321_)" d="M548 161c-33.5 34 23 54 37 33.1 19-37.1-29-39.1-37-33.1z"/><path class="st40" d="M302 413c13 30 55 19 61-10.5 3-13-.8-27-2-40.7-3-33 15-45 47-40.6 56 8 63-33 100.6-59 58-39.8 78 46 81 54 9 24.5 35 23 44-.7 26-71 94-32.5 93.5 28.4 1 13 1 25.5 5 38 8 32 68 39.5 59 5-1.5-6-17-12-17-12 27 9 43 42 33 68.2-8 21-39.9 44-13 70.7 26 26 40 54 25 83-54 105 46 96.5-36.5 188-7 8-12 22-13 29.3-3 17 20.1 28 23 17.9 5-18 16-26 16-26-17 19-13 22-22 45-12.5 32-49 12-55 56.6-8 33-26 40.9-57 34.9-21-.5-40 13-60 19-55 17-84-17-124-47-49-29-108 16-133-68.4 10 52 53-1 30-31-33-28-59-15-50-72 3-37-23-56-40.7-84-24-47.5 18-100 9-149.3-19-49-16-105 29-139"/><path class="st40" d="M990 780c-83-49.9-26-111-22-126 10.5-57-72-89.6-43-17.2-30.8-73 59-65 64-133.5 2-30.9-29.6-52-43-16-4 10.7-22 14-29 5.5-33.5-37.5 28-86 15-129.9-18-46.5-87-28-41 16-50-46 7-130.8-48-171-36-26-48.5 49-84 2-43-57-18-72-102-77.8-36-2.5-49-31-74-52-34-29-147 14-103 48 9.7 7.5 48-6 48-6-56 24.5-128-11-182 24-34 22-6 52-50 77-24 14-50 5-80 27-62 51 17 125 26 52-4 60.5-87 54-61 114.1 9 20-11 47-31 53-88 25-42 120-13 75 3-5 1-23 1-23 4 24-9 45-19.6 65.6-31 59.5 72 90-21 171C254 1139.8 822 1144 990 780z"/><path d="M893 378c-9.8-10.9-7-32.5 4-42-11-5-25 6-25.5 18M928 637.5c1-14 10.8-28 24-33-11-5-25-13-35-3M807 802c-11 9-25 18.5-39.7 13 6.5 1.5 5 16 22 19M358 843.5c10 7 24.5 5 33-4-2 12.5-11 27-25 29M134 519.7c-5 11.5-20.5 22-33 18 6 15 26.5 24 38 10m197-177c-11 18-22 41-9.7 60.9-15-.9-26.5-17-22-32M239 298.9c-9.5 12-27 21-43 15.9 8 12 26 22 39 12M527 119c-20 3-40-4-53-21-7 13 0 31 14 36m283 242c7 9 8 22 3 32 12.5-2 24-16 17-28v1" style="opacity:.6;enable-background:new"/><path class="st16" d="M908 358.5c8 6 11 18 8 27.5m-3.5 13c0 1.5-.5 3-1 4.5m59.5 87.3c4 10 3 22-3 31m-6 12.2c-1 .8-2 2-3 2m-14 82c6 6 9 15 8 23.5m-1 11.5c0 .8-1 2-1 2.5M832 219c10 6.5 17.5 17.5 19 29m1 16c1 2 1 4 .5 6M691 150c9 3 17.5 9 23 17M535 87c-15 .9-29.7 6-42 15m56-17.5h6.5M383 148c-14 2-28 9.7-36.5 21m53.1-23h4M220 265c-9.7 10-14 24.5-12 38m26-46.8 3-1.5M205 374c-8 5-14 14-15.5 24M124 496c-8 8-13 20-12 32m15 72.8c-4 11.5-3 16 3 28m9 11.2c1 2 1 4 2 6m230 173.7c6 5 9 14 7 21m-18.1-27.2c-1-.9-2-2-3-2M447 918c12 0 25 6 34 10.9m13 10.1c1 1 2 2 4 3m183.5 16c-9-2-18-1-26 2.5M758 889c-8 5-11 14-13 22m49-117c-5 6-8 12.5-9 19.7m16-30.7 3-3m24-165c-5 13-11 27.5-8 42m3 14.6 1 4.5M805 476c-6 8-5 19 1 27m-62-135.1c2 11.5 11 22 22 25m-24-40.3-.7-4M609.6 322c5-1 10-4.5 12-9m4.4-12 1.5-3M469 277.9c-9 11-20 20.6-33.5 26.5m-12.5 2.8h-5m-68.2 83.6c-1 10-7.5 19.5-16 24M349 369c.5 3 1 5 1 8m-64.5 124c3 10 4 21 2 31m-1.5 15c-1 2-1 3-2 5m18.5 139c9 8 15 18 18 29.5"/><path class="st68" d="M128 575c8 11 23 16 29 1 4-10 0-22 1-32 2-19 19-31 36-37.9-22 56 22 61 12.5 13 65 23 20.5 38 27 69.7 7 18 23-29.8 21-36 16 6.5 15 36 34.5 33M166.5 690.6c-13-28 26-47 26-75 9 9 6 24 12 34.9 7.5 6 11-9 10.9-15M219 726c-43 26-2 64.5-21 85.5m29-57.5c5-4 8-10.5 8-17m33 35.5c4 12-1 27-12 34.5m123 111c-4 12-12 22-22 29m152 9c-2 18-28 35.5-13 54m32-19c4-5 6-11 5-16.9v-.5M803 877c-17 10-26.5 44-15 60m26-87.3c10 14 11 33 1 47.5m66-64.7c-22 7-10 36-25 50m16-208.6c-42 19-6 58-13 78m32-122.2c-27 18 7 44-10 65M813 527c12-11 16-33 2-44 23.5-3 29 1 37.5 22 1.5 8 20 9.5 9-23.1-4.5-19 12-39.7 29.8-44-4 13-9 51 13 31.5"/><path class="st40" d="M123 579c8 20 40.5 18 43-3.5 2.5-22-11-39 22-60.6-17 60 37 51 25 11.7 14 1 31 15 25 28-29 64 23 54 19 5 12 8 15 42 32 33m525-59.7c17-9 20.8-34 7-48 27-4 21 19 31 27 5 4 13 1 15.5-4.1 10-18-18-35 19-65-12 48 16 38 19.9 30M361 950c11-6 19-18.5 19.6-31 .5 10 5 25 18 24m393.4-7c-13-19 3-42 13-58.5-2 51.5 45 2.5 9.8-30.7 12 2 27 6.5 31 19.2 2 6 1 16 8 19 4 2 10 0 12-4.5 9.6-18-5.5-30 17-47-4 9 1 24 12 20.6M860.5 753c19-24-31.5-42 13.5-78-6 29 13 30 17 14 8-29-23-32 3.5-59.4-2 22 24.5 17 24 52-.1 4 2 8 5 9.8M499.7 1009c-13-12 12.5-33 11.5-51.9 7 62 37 35 25 17 34 9.6 6 44.5 32 53M200.5 813c28-30.7-23-42 19.8-85-9 43 25 35 16.5 9 22 6 17 27 12.5 43.2-12 45 33 33 21-7 23 2 23 26 17 44-5 10.7-6 22 3.5 30.8M171 689.7c-10-22 23-34.5 23-66 3 10 1 31 11.5 36 11.5 2 16-15 12-23.5 33 17-1 46 25 63M501 194c38-51 91-36 131.5-11"/><path class="st40" d="M512.5 185c32 24 79 22 109-4"/><path class="st40" d="M541 166c-4 10.6-3 23 2 33m44-2c6-9.9 5-23-1-32"/><path class="st68" d="M508 190.7c35 25 86 23 118-6"/><path class="st16" d="M575 172c3 4 3 9 2 14"/></g><circle cx="550" cy="550" r="500" style="fill:none;stroke:#000;stroke-width:10;stroke-linecap:round;stroke-linejoin:round;stroke-miterlimit:10"/></svg>