<svg version="1.1" id="Layer_1" xmlns="http://www.w3.org/2000/svg" x="0" y="0" viewBox="0 0 1100 1100" style="enable-background:new 0 0 1100 1100" xml:space="preserve" xmlns:xlink="http://www.w3.org/1999/xlink"><path d="M50 550C50 274 274 50 550 50s500 224 500 500S50 826 50 550z" style="fill:#0090ff"/><path d="M1050 550c0 276-224 500-500 500S50 826 50 550s1000-276 1000 0z" style="fill:#06f"/><style>.st19{fill:#0324fc}.st20{fill:#3851f6}</style><g id="ghost"><path class="st19" d="M532 209c-68 59.6-71 20-121 36.5-19.6 10.9-14 30-9.7 39.6 11 23-51 9-69 40.3-10.1 18 0 42-7.5 62-9 19.6-34 35-37 52-43 48-154 7-119 70 6 11 33-6 39 9.1 7 17.5-39 29-21 47 18 5 21 39.9 57 63 14 20 3 51 19 69 36 38 46-25 41-34.3 4-39 44-11 22 39-23 52 11 74 36.5 57 24-9 13 39 23 50.9 19.5 37 55 12 67 12 18 1 28 22 29.8 40 6 63 54 46 59 8 15.5-34 45 49 47 59.9 12 73 69.5 42 71 17.9 3-54-3-59.9 2-68 19-31 71 13 90.8-15.5 14-19.8-31-63 8-55 94 19.9 19-101 14-120.4-9-35.5 14-105.8 47-122 18-9 17-35.5 7-53-9.6-17-25-30.6-31-48.9-13.5-54 21-100.7-36-133.3-5-3-7-9.5-4-14 17-25.8 1-66-32-71-22-3-44 9-66.5 6C615 247 578.5 178 532 209z"/><path class="st20" d="M583 308c-143-14-255 231-115 287 35 14 169 47 224-23.5C803 429 662 305 583 307.7v.3z"/><path class="st20" d="M447.5 610.8c-18 42 33.5 106 67 54 34 59.5 58 17.5 65-6.9 4 54.5 53 43.5 57-6.3-1 25 39.5 42 52 14.9 10.6-23 .6-72-33-56-62 15-123 17-189-5-7.5-1.5-16.5-.5-19 5.3z"/><path class="st20" d="M586.5 785c128 5.5 105-133 49-45-3.5-8-21-52-55 0 8-32.5-46-40-55-11.9 1-22-49.7-45-63-26.5C461 704 511 782 586.5 785z"/><path class="st19" d="M517 507.5c39.9 27 64-95.8 20.5-109C502 388 489.7 485 517 507.5zm159-62.6c3-18-12-52-25-46-54 24.1 2 194.1 25 46zM589 577c57-5 27-57 3-62-7-1-39 65-3 62z"/></g><style>.st40{fill:none;stroke:#000;stroke-width:10;stroke-linecap:round;stroke-linejoin:round;stroke-miterlimit:10}.st98{opacity:.6;enable-background:new}</style><g id="Outline"><path class="st98" d="M793 537c-1 .7-1 2-.5 3 5 10 11 35 25 30 8-2 21-13 18-22.4-.5-1-2-2-3-1.5-26 12-28-11-39-9.4v.3zm-34 274.5c6 5 26 8 25-3-6-7-20.6-12-21.5-26C750 772 744 803 759 811.5zm-219.3 52s1 .5 1 .8c9 13.5-3 36-18 40-34 6-9-6-6-44 .3-5.3 22.3 2.7 23 3.2zM342 731c5 7-4 22-4 33 8 13 29.6-5 33-14.9 2-12-17-21-28-20.2-1 .1-1 1.1-1 2.1zm31-120.2c2 23-8 47-26 61.9-13 10.9-17.5-30.6-8-27.9 6 4.2 28-18.8 34-34zm-157-59.9c-8 6-17 3-25 1-11 5 4 20 13.5 16 5-4 12-9 12-15.7-.5-.2-1.5-.2-.5-1.3zM337 473c-6-10-3-23 0-34 0-1 0-2-.6-2-9-9-23 11-19.8 20.7C318 463 338 475 337 472.8v.2z"/><path class="st98" d="M326 392c-2 29 24 45 7 44-7 2-14 1-15 11-1 11-24 0-24.5-1.3C285 433 317 404.5 326 392zm103-118c-9.9-4-16-16-18-25-4-6-9.9 1-11 6-7 54 29.5 28 29 19zm293 9c16 21 29.5 12 40 20.7 3 4 1 9.6-1 14-3 9-13 9-20 4.1-14.5-5.8-22-22.2-19-38.8z"/><path class="st40" d="M347 729c53.5 5 15 86 59 102 25 9 37-19.8 55-11.9 23 10.1 19.6 40 24 60.7 9.6 46 63 29.6 58-12.8"/><path class="st40" d="M519 861c89-9 47.5 119 114.5 115 39-6 35-47 25-76.5-3-9 0-18.5 7-24.5 24.5-21 59 15.5 84-2.5 15-11 8-33-2-45-12-15 0-32 10-43"/><path class="st40" d="M790 539c53 69.8-64 71 8 194.5 6 14 11 32 11 48.5 0 32-49 47.5-61 16"/><path class="st40" d="M721 287c2 51 64 31 74 88 6 34-11.5 71 7 103 10 18 27 31.5 34 51 8 19-4 47-27 42"/><path class="st40" d="M407 290.6c-16-8-12-29.9-2-41 17-15 40.5-10 61-6 29.8 1 49-29 75-38 50-17 81 55 133 44 23-5 48-11 69 1 25 14 33 55 10 75"/><path class="st40" d="M428 278c-16 26.5-51 17.5-76 28.5-20 10.5-28 33-23 55 10 47-43 51-39 88m25 4.5c1.5-23 35-26 41-5 7 25-13 47 16 72"/><path class="st40" d="M334 476c-20-34-61-31.5-89-9.6-20 8-43-3-64 4-22 7-28 37-5 43.5 6.5 2 23-2 26-1 15 4 11 25-5 30-21 6-10 29 6 29"/><path class="st40" d="M216 554.5c-15 15-14 41 2 55 37 22 41 31 36 69.7-2 31 46 41 53.5 10 2-10.8-4-22 0-33 13-32 44 20 62-44.5"/><path class="st40" d="M327 647.9c25 29.7-.5 47-7 75-10 32.5 34 65 53 25"/><path d="M729 262.5c9 4 16 13 18 22.5m-193-68c12.5 2 24.5 8 34 16m9 9 3 3m-163 10c-5.5-.9-12 .6-15.5 4M362 319.6c-9 2-14 10.7-16 19M339 449c4 1 6 6 6 9.8M308.5 470c-12-6-16-5-22-4M175 492c1-4 5-7 9-7.5m38 89.5c-4 8 0 16 4 19.9m44 78.6c-1 6 1 15 9 18m76-77.5c-3 14-13 14.5-16 16m4.5 119.5c-5-3-9-9-8-15M397 782c-1 14.5 7 28 14 30m90 53.9c-3 12 2 27 14.5 25M636 957c14-3 17-28 11-38m96-60.1c1-7 0-14-4-19m46-49.1c8-6.5 9-25 3-39M786 582c5-8 3-19-3-26m37-12c2-8.5-.6-18-7-24m-56-169c18 6 22 30 21 35" style="opacity:.7882;fill:none;stroke:#fff;stroke-width:10;stroke-linecap:round;stroke-linejoin:round;stroke-miterlimit:10;enable-background:new"/></g><radialGradient id="a11" cx="288.494" cy="554.914" r="39.332" gradientTransform="matrix(1 0 0 1.0187 0 -10.236)" gradientUnits="userSpaceOnUse"><stop offset="0" style="stop-color:#f01"/><stop offset="1" style="stop-color:#fe0"/></radialGradient><path style="fill:url(#a11);stroke:#000;stroke-width:10;stroke-linecap:round;stroke-linejoin:round;stroke-miterlimit:10" d="M273 536.9c-28-45 82-54 9 29.2-42 48 48 58 20 7.9-3-6-8-11-13-16.2-4-4.8-8.9-9.8-16-20.9z"/><path d="M269.9 512.1c-17 19.7 16 41 9 48.3-25.5 26-7 53 10 47" style="opacity:.6;fill:none;stroke:#000;stroke-width:10;stroke-linecap:round;stroke-linejoin:round;stroke-miterlimit:10"/><path d="M294.5 517.1c1 2 1 5 0 8M292 577c2 4 5 8 5 12" style="opacity:.8902;fill:none;stroke:#fff;stroke-width:8;stroke-linecap:round;stroke-linejoin:round;stroke-miterlimit:10"/><g data-name="Layer 5"><path d="M794 602c-14-24-39.7 29-45 30.5-105 22-109 60.8-136 51.5-56-19-116 8-136-7-50-37-70.7-26.5-112-50-5 20-29.5 22-33 29-1 3 6 13-8 54.9-22 63 38 63 48.5 37 19 102 29 88 71 73s36 57.5 53 85c24 18 54-11 43-37.4 55 17 49 67 59 87.5 15 31 63 24.5 67-10-33-141 58.5-35 82-73 30.6-23.6-11-37-10.5-58.7.9-31 19 12 48-3C854 770 723 694 794 602Z" style="isolation:isolate;opacity:.6"/><path d="M659.8 758c4 4.5 5 11 4 16.5M652.5 744l1.5 3m-132 25a22.4 22.4 0 0 1-6 15m-61-58c0 2 0 5 1 7m130 94c1 3.5 0 7-2 10m139-106.1a11 11 0 0 1 .5 7" style="stroke:#fff;fill:none;stroke-linecap:round;stroke-linejoin:round;stroke-width:10px"/><path d="M444.5 712c-20 18.5-3 69.7 25 42 8-8 15-2 14 7-3.5 53 24 49 42.5 37m26 18c12 7 4 23 9.9 33.5s19.6 9 28 3M624.5 750c-30 48 41.5 75 53 29.9M705 727c-18.5 51 51 46 30.7-4-3.5-6-8-17-5-22-.5 27 36 26 32.5-.8" style="stroke:#000;fill:none;stroke-linecap:round;stroke-linejoin:round;stroke-width:10px;isolation:isolate;opacity:.6"/><path d="M366 622.9c9 21.5 30 22 51 22 15.5 0 27 14 39.6 23 49 34 79-12 147 13.4 43 6 56-19 89.6-35 17-8 39-2 53.5-14s23-48 47-36M448 713c-18 29 7 58 22 33 6-10.5 20.5-1.5 18 9-11 48 34 64 46 30.8 6.5-18-11-30.5-4-42m25 68.7c16 7 2 29.8 14 39.5 10 8 29 0 29.6-12.9 1-19.7-14-32-2-54m32.4-34.6c-28 65 74 62.5 44.5 0-7-14.5-18-31.5-8-47M708 728c-11 48 48 28 18-10.7-3-4-6-9-5-14s9-8 14-4.2 2.5 10 9 14.5c12 7 30-8 8-30-5.5-5.5-13-17-4-23" style="stroke:#000;fill:none;stroke-linecap:round;stroke-linejoin:round;stroke-width:10px"/></g><style>.st124{stroke:#000;stroke-width:10;stroke-linecap:round;stroke-linejoin:round;stroke-miterlimit:10;fill:#fff}</style><g id="black_and_white"><ellipse transform="rotate(-4.656 485.895 504.498)" class="st124" cx="486" cy="504.5" rx="49.6" ry="123"/><ellipse transform="rotate(-4.365 685.784 479.312)" class="st124" cx="686" cy="479" rx="45" ry="119"/><path d="M453 386c-33 52-29 121-13 178.5 8.5 25 29 88 65 60M658 364c-58 61-2 318 59.9 215" style="opacity:.6;fill:none;enable-background:new;stroke:#000;stroke-width:10;stroke-linecap:round;stroke-linejoin:round;stroke-miterlimit:10"/><path d="M486 408c9 9 13 22 17 35m6 20 1 6m176-80c7 9 12 19.5 14 30.6m5 18.4 1 7" style="stroke:#000;stroke-width:10;stroke-linecap:round;stroke-linejoin:round;stroke-miterlimit:10;fill:none"/></g><defs><linearGradient id="zbd" x1="531.69" y1="69.46" x2="554.66" y2="438.37" gradientUnits="userSpaceOnUse"><stop offset="0" stop-color="#f09a11"/><stop offset=".16" stop-color="#f09613"/><stop offset=".33" stop-color="#f0891b"/><stop offset=".51" stop-color="#f07427"/><stop offset=".69" stop-color="#f05638"/><stop offset=".87" stop-color="#f0304d"/><stop offset="1" stop-color="#f0115f"/></linearGradient><linearGradient id="zbd-2" x1="542.92" y1="235.77" x2="534.97" y2="331.83" gradientUnits="userSpaceOnUse"><stop offset="0" stop-color="#f0e511"/><stop offset=".12" stop-color="#f0e011"/><stop offset=".26" stop-color="#f0d211"/><stop offset=".42" stop-color="#f0ba11"/><stop offset=".58" stop-color="#f09911"/><stop offset=".75" stop-color="#f06e11"/><stop offset=".92" stop-color="#f03b11"/><stop offset="1" stop-color="#f02011"/></linearGradient><style>.zbd-3{fill:none;stroke-linecap:round;stroke-linejoin:round;stroke-width:10px;stroke:#000}</style></defs><path d="M263.9 257.4c-54.1 48.5-21.8 131.7 33.9 164.7 19.9-14.3 33.6-34.7 32.6-60.2 37.7 14.1 79.3 10.7 119.4 7.6 105.8-8.2 216.5 23.6 322.1.2 153.4-62 81.8-200-90.4-125C697.4 131.9 594 86.4 528 138.4c-47.8-30.3-205.7-25.9-141.5 78.4 3.3 15.6 6.2 33.1.3 48.3-38.6-17.2-85.3-41.2-122.9-7.7Z" style="fill:url(#zbd)"/><path d="M387.5 265c99.2 70 203.9 63.7 303.6 29.2a95.3 95.3 0 0 1-8.6-34.4c-93.1 29.5-196.1 15.3-289.1-8.6a118.9 118.9 0 0 1-5.9 13.8Z" style="fill:url(#zbd-2)"/><path class="zbd-3" d="M683.8 246.3c214-87.9 216.6 108.9 66 128.2-91.8 11.7-184.8-11.4-277.2-5.4-48.6 3.1-97.8 7.6-144.5-6.8 5.1 25.8-12.5 44.8-31.8 60.1-58.9-34.9-88.9-126.6-24.7-172.8 79.3-56.9 276.5 176.9 485.7 87.8"/><path class="zbd-3" d="M528 138.4c40.3-37.7 138.7-20.9 149.9 46.5 8.9 53.7-12.7 97.2 38.3 134M539.3 155.8c-42.1-55.2-120.8-35.7-149.2-16.4-51.9 35.4 15.5 61.1-1.5 125.5"/><path class="zbd-3" d="M681.5 260.6c-94.3 28.1-195.1 14.6-288.7-10.4M692 295.4c-69 22.1-138.6 27.5-210.7 16.9"/><path d="M330.6 370.2c56.7 18 118 5.8 177.5 5.1 47.2-.6 94.2 6.3 141.3 9.4s95.5 2.6 140.3-12.4m-32.4-36.8c-72.7 21.9-154 21.4-224.4-8l-18.3-5.5a438 438 0 0 0 179-20.1m-301.7-44.3c32.2 26.4 73.3 38.8 109.8 59" style="opacity:.6;stroke:#000;fill:none;stroke-linecap:round;stroke-linejoin:round;stroke-width:10px"/><path d="M779.1 242c15.9-2.2 33.8.8 44.9 13.3m6.4 12.1a23.7 23.7 0 0 1 .9 9.9M625.2 145.9a39.9 39.9 0 0 1 26.7 24.8m4.7 18 .5 5.6m-187.2-57.6a73.4 73.4 0 0 1 42 15.4m-58.5-15.7a18.2 18.2 0 0 0-4.6.6M326.4 259.2c-13.5-4.8-29.7-7-42.3 1.2m-11.1 8.4-3.1 3.1m398 4.8a228.8 228.8 0 0 1-55.6 11.3m-15.2.9-8.6.3m104.4 26.4a46.3 46.3 0 0 0 10 10.7m108.6 8.7a113.9 113.9 0 0 1-30.5 17.8" style="stroke:#fff;opacity:.8;fill:none;stroke-linecap:round;stroke-linejoin:round;stroke-width:10px"/><path d="M325.7 359c-18.8 17.9-45.4 21.9-69.6 22 4.6 14.5 20.5 27 32.9 35.9 5.1 4.3 11.5 2.1 15.8-2.5 12.7-13.5 30.7-35.8 20.9-55.4Zm217.8-203.1c-2.8-14 5.3-29 18.6-34.2a76.7 76.7 0 0 0-35.8 17.2" style="opacity:.6"/><circle cx="550" cy="550" r="500" style="fill:none;stroke:#000;stroke-width:10;stroke-linecap:round;stroke-linejoin:round;stroke-miterlimit:10"/></svg>