<svg xmlns="http://www.w3.org/2000/svg" xmlns:xlink="http://www.w3.org/1999/xlink" viewBox="0 0 2453 1392.6"><g transform="matrix(.7 0 0 .7 315 31.85)"><svg version="1.1" id="Layer_1" xmlns="http://www.w3.org/2000/svg" x="0" y="0" viewBox="0 0 1100 1100" style="enable-background:new 0 0 1100 1100" xml:space="preserve" xmlns:xlink="http://www.w3.org/1999/xlink"><path d="M533 210.7c-68 59.6-71 20-121 36.5-19.6 10.9-14 30-9.7 39.6 11 23-51 9-69 40.3-10 18 .1 42-7.5 61.8-9 19.6-34 35-37 52.2-43 48-154 7-119 70.4 6 11 33-6 39 9.1 7 17.5-39 29-21 46.7 18 5 21 39.9 57 63.2 14 20 3 51 19 69.1 35.8 38 46-25 41-34.3 4-39 44-11 22 38.7-23 52 11 74 36.5 56.6 24-9 13 39 23 50.9 19.5 37 55 12 67 12 18 1 28 22 29.8 40.3 6.5 63 54 46 59 8 15.5-34 45 49 47 59.9 11 73 69 42 71 17.9 3-54-3-60.1 2-68.3 18.5-31 71 13 90.8-15.5 14-19.7-31-63.5 8-55.4 94 19 19-101 14-120.4-9-35.5 14-106 47-121.7 18-9 17-35.5 7-52.8-9.5-17-25-30.6-31-48.9-13.5-54 22-102-36-133.3-5-3-7-9.5-4-14.4 17-26 1-66-32-71.4-22-3-44 9-66.5 6.3-43.4-4.8-79.5-74.1-126.4-43.1z" style="fill:#d1d1d1"/><path d="M333 327.5C492 478 637 643 808 779.8c43-55-391-439-418-481.9-.2.1-47 11.7-57 29.6zm-4.5 60.2c127.5 150 269 289.8 412 425.2l10-15.8-418-436-4 26.6z" style="fill:#e6e6e6"/><style>.st40{fill:none;stroke:#000;stroke-width:10;stroke-linecap:round;stroke-linejoin:round;stroke-miterlimit:10}.st98{opacity:.6;enable-background:new}</style><g id="Outline"><path class="st98" d="M793 537c-1 .7-1 2-.5 3 5 10 11 35 25 30 8-2 21-13 18-22.4-.5-1-2-2-3-1.5-26 12-28-11-39-9.4v.3zm-34 274.5c6 5 26 8 25-3-6-7-20.6-12-21.5-26C750 772 744 803 759 811.5zm-219.3 52s1 .5 1 .8c9 13.5-3 36-18 40-34 6-9-6-6-44 .3-5.3 22.3 2.7 23 3.2zM342 731c5 7-4 22-4 33 8 13 29.6-5 33-14.9 2-12-17-21-28-20.2-1 .1-1 1.1-1 2.1zm31-120.2c2 23-8 47-26 61.9-13 10.9-17.5-30.6-8-27.9 6 4.2 28-18.8 34-34zm-157-59.9c-8 6-17 3-25 1-11 5 4 20 13.5 16 5-4 12-9 12-15.7-.5-.2-1.5-.2-.5-1.3zM337 473c-6-10-3-23 0-34 0-1 0-2-.6-2-9-9-23 11-19.8 20.7C318 463 338 475 337 472.8v.2z"/><path class="st98" d="M326 392c-2 29 24 45 7 44-7 2-14 1-15 11-1 11-24 0-24.5-1.3C285 433 317 404.5 326 392zm103-118c-9.9-4-16-16-18-25-4-6-9.9 1-11 6-7 54 29.5 28 29 19zm293 9c16 21 29.5 12 40 20.7 3 4 1 9.6-1 14-3 9-13 9-20 4.1-14.5-5.8-22-22.2-19-38.8z"/><path class="st40" d="M347 729c53.5 5 15 86 59 102 25 9 37-19.8 55-11.9 23 10.1 19.6 40 24 60.7 9.6 46 63 29.6 58-12.8"/><path class="st40" d="M519 861c89-9 47.5 119 114.5 115 39-6 35-47 25-76.5-3-9 0-18.5 7-24.5 24.5-21 59 15.5 84-2.5 15-11 8-33-2-45-12-15 0-32 10-43"/><path class="st40" d="M790 539c53 69.8-64 71 8 194.5 6 14 11 32 11 48.5 0 32-49 47.5-61 16"/><path class="st40" d="M721 287c2 51 64 31 74 88 6 34-11.5 71 7 103 10 18 27 31.5 34 51 8 19-4 47-27 42"/><path class="st40" d="M407 290.6c-16-8-12-29.9-2-41 17-15 40.5-10 61-6 29.8 1 49-29 75-38 50-17 81 55 133 44 23-5 48-11 69 1 25 14 33 55 10 75"/><path class="st40" d="M428 278c-16 26.5-51 17.5-76 28.5-20 10.5-28 33-23 55 10 47-43 51-39 88m25 4.5c1.5-23 35-26 41-5 7 25-13 47 16 72"/><path class="st40" d="M334 476c-20-34-61-31.5-89-9.6-20 8-43-3-64 4-22 7-28 37-5 43.5 6.5 2 23-2 26-1 15 4 11 25-5 30-21 6-10 29 6 29"/><path class="st40" d="M216 554.5c-15 15-14 41 2 55 37 22 41 31 36 69.7-2 31 46 41 53.5 10 2-10.8-4-22 0-33 13-32 44 20 62-44.5"/><path class="st40" d="M327 647.9c25 29.7-.5 47-7 75-10 32.5 34 65 53 25"/><path d="M729 262.5c9 4 16 13 18 22.5m-193-68c12.5 2 24.5 8 34 16m9 9 3 3m-163 10c-5.5-.9-12 .6-15.5 4M362 319.6c-9 2-14 10.7-16 19M339 449c4 1 6 6 6 9.8M308.5 470c-12-6-16-5-22-4M175 492c1-4 5-7 9-7.5m38 89.5c-4 8 0 16 4 19.9m44 78.6c-1 6 1 15 9 18m76-77.5c-3 14-13 14.5-16 16m4.5 119.5c-5-3-9-9-8-15M397 782c-1 14.5 7 28 14 30m90 53.9c-3 12 2 27 14.5 25M636 957c14-3 17-28 11-38m96-60.1c1-7 0-14-4-19m46-49.1c8-6.5 9-25 3-39M786 582c5-8 3-19-3-26m37-12c2-8.5-.6-18-7-24m-56-169c18 6 22 30 21 35" style="opacity:.7882;fill:none;stroke:#fff;stroke-width:10;stroke-linecap:round;stroke-linejoin:round;stroke-miterlimit:10;enable-background:new"/></g><style>.st40,.st68{fill:none;stroke-width:10;stroke-linecap:round;stroke-linejoin:round;stroke-miterlimit:10;stroke:#000}.st68{opacity:.6;enable-background:new}</style><g id="Eye"><linearGradient id="SVGID_00000144327888440828662330000012949225208094602647_" gradientUnits="userSpaceOnUse" x1="232.314" y1="-555.531" x2="336.458" y2="-482.43" gradientTransform="translate(0 1066)"><stop offset="0" style="stop-color:#00ff04"/><stop offset=".811" style="stop-color:#00fccf"/><stop offset="1" style="stop-color:#00fbff"/></linearGradient><path style="fill:url(#SVGID_00000144327888440828662330000012949225208094602647_)" d="M278 494c-31 10.8-13 49-9.5 56 8 16-9 32.5 9 50.8 9 9 46 8 40.7-31-2-13-13-23-13.5-35.8-.7-21-3.7-48-26.7-40z"/><path d="M273 498c-6.5 9-1 22 4 30.8 6 8 13 15 14 25 2 14-6 31 3 43.7 15 18 30.6-23 23-35-3-7-8-13.5-10-20.8-5-16 2-45-21-49" style="opacity:.5098;fill:#fff;enable-background:new"/><path class="st68" d="M274 516c9 24.5 14 39 18 64"/><path class="st40" d="M278 494c-31 10.8-13 49-9.5 56 8 16-9 32.5 9 50.8 9 9 46 8 40.7-31-2-13-13-23-13.5-36C304 513 301 486 278 494z"/><path class="st40" d="M282 526c6 17 10.5 35 14 53"/><path d="M279 515c1 4 2 7 3.5 11m24.5 46.9c1 5 1.5 13-5 19" style="fill:none;stroke:#fff;stroke-width:10;stroke-linecap:round;stroke-linejoin:round;stroke-miterlimit:10"/><path class="st68" d="M264 495.9c-15.5 19-6 44 1 65 3 9-3 18-1 27 4 24 31 31 46 12"/></g><style>.st40,.st68{fill:none;stroke-width:10;stroke-linecap:round;stroke-linejoin:round;stroke-miterlimit:10;stroke:#000}.st68{opacity:.6;enable-background:new}</style><g id="Happy_Beard"><linearGradient id="SVGID_00000012458921589117142250000001255892426965824154_" gradientUnits="userSpaceOnUse" x1="482.466" y1="444.183" x2="708.475" y2="85.169" gradientTransform="matrix(.9987 .05075 .05075 -.9987 14.064 1042.44)"><stop offset="0" style="stop-color:#00a2ff"/><stop offset=".654" style="stop-color:#aa36e8"/><stop offset="1" style="stop-color:#f0d"/></linearGradient><path style="fill:url(#SVGID_00000012458921589117142250000001255892426965824154_);stroke:#000;stroke-width:10;stroke-linecap:round;stroke-linejoin:round;stroke-miterlimit:10" d="M749.8 654c37 24 16.5 79 8.5 114-16 55 39 72 17 127.5-43-56-34 11-42 16.3-19-69-64-3-13 17.9-4 24-57-17-46 57.5-23-10.7-20.8-39.9-26-60.9-6-18-26-20.8-36-4.5-9.8 20.8-19 43-41 55 4-43-33-56-39-64.9-5-8-2-20.6-10-26-15-10-28 12-43 13.2 26-41-19.5-103-26-30-28-26-11-53-23-61-8-4-15 8-24 8 12.5-20.5-2-44-5-65.6-9-66 51.5-97 109-72.5 82 35 64-11 110-8.9 54 3 86-44 129-15.4v.3z"/><path d="M441 706c-36 33 0 64 9.9 68 44 21 49 42 67 62 28 26 56 18 87 2.2 19.5-9.9 43 1 65-1 30.6-3 59-32 55-64-6-46 7-36 20-56 8-12 1-29-10-37.3-33-22-53 13-81 19.5-12 2-24-4-36-4-24 0-45 44-112 4.9-22-13-48-10.7-65 5.3v.4z" style="fill:#fe1767"/><path d="M582 710.6c22.5 7 43 21 58 38.9 24-16 58-5 82 8-4-19 14-28 22-42.5 12-22-13-65-67-27.5-39 30.5-54-11.5-95 23.1z"/><path d="M629.8 745c-22-17-48-8-72-2.9-54 11-82-46-125-24 27-47 81-13 94-7.9C573 729 583 691 629.8 745zm26.2 40c2-22 25-37 46-37-17-14-45-9-62 3.6l16 33.4z" style="fill:#ae0f45"/><path class="st40" d="M441 706c-36 33 0 64 9.9 68 44 21 49 42 67 62 28 26 56 18 87 2.2 19.5-9.9 43 1 65-1 30.6-3 59-32 55-64-6-46 7-36 20-56 8-12 1-29-10-37.3-33-22-53 13-81 19.5-12 2-24-4-36-4-24 0-45 44-112 4.9-22-13-48-10.7-65 5.3v.4z"/><path class="st68" d="M433 710c-15 15-16 41-2 57 9.9 12 26 16 38 26 24.5 18 35 53 65 64.5 31 12 59-13 88-18 19.7-4 51 12 66-7m-264-153c-59 41-7 89-22 134"/><path d="M606 741c11 8 17 21 22 33m7 14 1 4m50-33c8 2 16 6 22 12.5m20-111.7c10 1 19.8 7 25 16m4 11.2 1 3.5M751.5 833c5 6 8 12.5 11 19.5M767 863l1 3m-171 56c-2 6-4 11-8 17m-6 10-2 2M448.5 817c-1 5 0 11 .5 16" style="fill:none;stroke:#fff;stroke-width:10;stroke-linecap:round;stroke-linejoin:round;stroke-miterlimit:10"/><path class="st40" d="M582 712c38 7.5 66 45 75 80.7M640 749c30-16 57-9 83 10.9"/><path class="st68" d="M731 897c.9-8.5 5-22 15-23m-48 21c-4 13 0 34 14 38m-59 19c3 9.5 9 18 16.5 24M487 861c4.5 11.5 7 19.9 3 29m-73-82c2-9 .7-22-7-28.5"/></g><defs><linearGradient id="zl" x1="574.42" y1="410.83" x2="618.38" y2="675.51" gradientUnits="userSpaceOnUse"><stop offset="0" stop-color="#00ff19"/><stop offset=".22" stop-color="#00fa46"/><stop offset=".7" stop-color="#00eeb6"/><stop offset="1" stop-color="#00e6ff"/></linearGradient><style>.zl-3{fill:none;stroke-linecap:round;stroke-linejoin:round;stroke-width:10px;stroke:#000}</style></defs><path d="M746.4 534.9c13.5 7.2 27.2-7.7 21.7-22.5-4.6-12.5-17-13.9-17-35.5 0-45.9-85.7-81.3-142.9-1.3-25.4 35.5-44.1-49.3-124-44.7-38.6 2.2-84.3 38.4-70.1 76.9 31 84.2 9.1 85.6 18.1 107.2 5.8 13.7 26.8 18.9 35.1 4.2 19.3 25.5 52.7 36.3 76.4 9.9 57.9 26.7 37.8-55 32.1-74.1-3.2-45.4 46.6-36.5 51.6-5.4 2.6 16.2-3.4 85.5 34.5 44.1 8.8 6 10.9 17.4 16.6 25.9 16.3 24.1 45.5 11.2 42.2-17 41.4 1.7 44.3-39.2 25.7-67.7Z" style="fill:url(#zl)"/><path d="M438.8 449.7a25.8 25.8 0 0 1 3.2 5.3l40.5 89.1 14.5-19.4 34 113.4s15.8-8.2 16.6-6.9c13.2 12.2 32.4-1.9 37.5-15.9l-86.3-125.8-11.2 26-25.8-78.5m180 6.5 1.7 3.3 17.9 81.5 13.3-14.7s20.7 118 20.7 118.8c22.6 2.6 24.8-13.8 24.4-31.7 8.1 1.5 14.9-1 21.4-5l-63.5-114.4-9.1 21.6-4-70.7" style="fill:#fff;opacity:.47"/><path class="zl-3" d="M458.7 607.4c9.5 6.5 14.6 17.9 23 25.8 17.5 16.1 46.2 12.8 62-4.2 4.3-4.6 8-10 13.6-12.8"/><path class="zl-3" d="M546 629c16.3 20.4 42.6-2.4 40.4-24.8-1.8-19.2-13.8-36.8-11.7-56 4.9-44.6 58.3-24.1 53.7 12.5-7.8 60.9 32.4 47.9 32.4 31.3"/><path class="zl-3" d="M653.4 587.4c25.2 6.3 18.1 44.5 44.5 45.9 11.1.6 24.3-10.8 22.6-25.1-1.2-10.5-9.2-13.3-6-24.3m5.2 15.7c19.4 6.2 39.7-10.2 39.6-30.5-.1-17.6-18.1-30.4-17.3-47.5"/><path class="zl-3" d="M746.4 534.9c13.5 7.2 27.2-7.7 21.7-22.5-4.6-12.5-17-13.9-17-35.5 0-45.9-56.4-50.9-75.3-47.5s-32.8 11.4-67.6 46.2c-30.9 30.9-44.1-49.3-124-44.7-38.6 2.2-84.3 38.4-70.1 76.9 31 84.2 9.1 85.6 18.1 107.2 5.8 13.7 26.8 18.9 34.5 4.6"/><path d="M428.9 449.8c-51.5 33.4 2.4 85.8-3.3 135.8-1.6 14-2.6 35.5 14.5 39.7m17.6-18.2c1.8 5.9 2.6 12.4-.2 17.8m100.2-8.6c-2.4 5.2-4.6 11.2-2.8 16.8m98-45.3a19.7 19.7 0 0 1-1.7 15.4m63.6-18.4c3.6 7 9.7 13.6 17.8 14.8m9.6-78.8a23.7 23.7 0 0 0 16.6 14.6m-292.7 90.2c7.1 9.4 17.8 19 30.4 16.6m45.9-9.1c7.6 6.5 19.7 6.8 28.5 1m28.9-109.4c42.3 24.6 7.5 57.5 35.3 77.9m26.3-2.6c8.7 9.5 10.9 24.3 22 32.1 7 4.9 17.3 5.9 23.4-.7" style="opacity:.6;stroke:#000;fill:none;stroke-linecap:round;stroke-linejoin:round;stroke-width:10px"/><path d="M711.8 447.7a25.1 25.1 0 0 1 18.5 15.2m4 11.6.1 2.6m19 34.3a16.1 16.1 0 0 1 3.3 8.1M743.4 560a20.2 20.2 0 0 1-1 18.5m-6.3-31.4 1.6 2.6m-31.6 53.7a15 15 0 0 1-2.1 15m-60.7-25.8a17 17 0 0 1-3.5-12.3m-133-132.9a67.2 67.2 0 0 1 34.6 19.8m-51.1-21a32.6 32.6 0 0 0-10.3.7m92.3 152.7a22.1 22.1 0 0 1-.5 14.8m-4.1-29.3.9 2m-32.4 30c-4.2 4.9-9.8 9-16.2 9.5m-12 2.7-2.9-.8m-60.4-17a13.3 13.3 0 0 1-1-12.1" style="stroke:#fff;fill:none;stroke-linecap:round;stroke-linejoin:round;stroke-width:10px"/><style>.st231,.st263{fill:none;stroke:#000;stroke-width:10;stroke-linecap:round;stroke-linejoin:round;stroke-miterlimit:10}.st263{stroke:#00ff2f}</style><g id="Layer_64"><path d="M290.6 446.8c8 0 15 3 22 6 0 0 10-15 15-16.6 6-2 24 2 24.5 1 16-27.5 30-34 56.5-23.9 13 5 25.5-5 33.5-14.3 39.7-75 116-2.5 177-25.7 15.5-6 29.9-14 45-21.1 48-30.8 72 20.8 110.9-11.6-5-6-11.5-10-19-14.3 47-118.3-92-70.3-118-81-33-14-67-61.5-102.5-37.9-69.7 46-67.5 34-110 32.1-26 5-37 36-18 55-47 20-83-11-77 80.3-4.5 28.2-35.5 43.2-39.9 72z" style="fill:#9e9e9e"/><path d="M741 290.6c7-.9 14-2 21-3.7M334 406c0 9 .8 18 1 27m44-53.1-46 5.4m47-67.8v13.7m6 7.3c-18 2-36 3.5-54 5.5m61 4.7c1 20 4 40.6 7 60.7m4-37.4c10-1 17-2 26-3.9m-12.5-48.7 5 39.4M453 243.9c2 29.7 4 59 7 89m8-25.4c15 0 29.7-.9 44-3m-3-40.5 1 32m.7 9.5c0 13 1 26.5 4 39.5 0 0 43-.9 43-.7 5 10.8 25.5 13 29.9 0M559 249.9c-9 23 26 36 35 12.8l6 .6 2.5 59.6m8.5-16.6h17l3 37.8m-30.1-100v10.1m15.1-19.3c0 6 .8 12.5 1 18.8m48 13v57.9m24.7-41.5-.8 52.4M654 319c19 1 39 1 58-.4" style="stroke:#454545;fill:none;stroke-width:10;stroke-linecap:round;stroke-linejoin:round;stroke-miterlimit:10"/><path class="st263" d="M398 346.8c2 22 4 44 7 65.8m-4-46.7c9.7-1 19-2 29-3.8l-8-44m36-75.1c3 29.9 6 60 7 90m.5-31.9c16 .6 31-2 47-.6m1.5-37.9c1 26 2.5 51 5 77.6 13.5 0 27 0 40.6-1"/><circle class="st263" cx="575.5" cy="257.5" r="14.5"/><ellipse class="st263" cx="575.5" cy="337.8" rx="14.5" ry="12.4"/><path class="st263" d="m593.5 257.4 27 .4-.5-22.1m-14 8.2 2 79.6m156-41.2-23 2.5m-47-1.5c-2 18-2 35.5-1 53.3"/><path class="st263" d="M712.5 313.9c-19.8 1.5-39.7 1.5-59.5.1"/><path class="st263" d="M669 326c0-19.8 0-39.5.5-59m-60 34.5c8 0 16-.8 24-1.5l2 44M331 337.9c19-1 36-2 55-4.3l-1-16.4m-44 116.7c-.9-9-1-19-.8-28m-7.2-26.8c16 0 29-2 45-3"/><path d="M722 285.5c4.5 16 17 29 32 34.5m-326-44c-6 5-14 8-22 7.4m-49 162.4c16-46 46-20.9 64-22.8 29-3 37-52 72-49.6 71 4.6 98 30.6 167.5-11.4 18-9 33-19 59-10.1 20.5 7 42.5 16 59-3.5" style="opacity:.6;stroke:#000;enable-background:new;fill:none;stroke-width:10;stroke-linecap:round;stroke-linejoin:round;stroke-miterlimit:10"/><path d="M736 261.6c6 4 11 10 13.5 16.9m2.5 12.8v5M561 216c7 1 14 4 19.5 8.3m11.5 8.4 6 4.4m-187 30.6c0-6.5 4.5-10 12-12.3m13-3.5 4 .6M359 318c-6 4.5-10 11-12 18.1m-2 10.4c-.5 1.5-.8 3-1 4.7" style="opacity:.7098;stroke:#fff;enable-background:new;fill:none;stroke-width:10;stroke-linecap:round;stroke-linejoin:round;stroke-miterlimit:10"/><path class="st231" d="M355.5 444.8c-4-19 13.5-39 32-34.7 39 9.5 38 10 62-22.3 40-54 111 5 165-13.6 17.5-6 33-16 49.8-24.6 61-31 72 29 109.8-8.4-19.8-17-53-19.5-54-54.6"/><path class="st231" d="M407 290.6c-16-8-12-29.9-2-41 17-15 40.5-10 61-6 29.8 1 49-29 75-38 50-17 80.5 54.5 133 44 23-5 48-10.5 69 1 25 14 33 55 10 75"/><path class="st231" d="M428 277.8c-16 26.5-51 17.5-76 28.5-20 10.5-28 33-23 54.8 10 47-43 51-38 88.1 7.5 0 15 2 22 4.7 5-19 34-26 43-7"/></g></svg></g><defs><linearGradient id="ufl" x1="712.25" y1="1387.14" x2="491.19" y2="394.86" gradientUnits="userSpaceOnUse"><stop offset="0" stop-color="#0fb3ff"/><stop offset=".01" stop-color="#11b1ff"/><stop offset=".37" stop-color="#5f6cff"/><stop offset=".66" stop-color="#973aff"/><stop offset=".88" stop-color="#ba1bff"/><stop offset="1" stop-color="#c70fff"/></linearGradient><linearGradient id="ufl-2" x1="914.14" y1="119.84" x2="139.73" y2="1041.84" gradientUnits="userSpaceOnUse"><stop offset="0" stop-color="#00fff7"/><stop offset="1" stop-color="#0008ff"/></linearGradient><linearGradient id="ufl-3" x1="1264.59" y1="720.27" x2="1532.68" y2="720.27" gradientUnits="userSpaceOnUse"><stop offset="0" stop-color="#de21ff"/><stop offset="1" stop-color="#ff2142"/></linearGradient><linearGradient id="ufl-4" x1="1313.57" y1="533.11" x2="1529.03" y2="533.11" xlink:href="#ufl-3"/><linearGradient id="ufl-5" x1="1157.13" y1="451.02" x2="1360.8" y2="451.02" xlink:href="#ufl-3"/><linearGradient id="ufl-6" x1="1134.34" y1="737.95" x2="1295.06" y2="737.95" xlink:href="#ufl-3"/><linearGradient id="ufl-7" x1="1081.56" y1="600.95" x2="1194.13" y2="600.95" xlink:href="#ufl-3"/><linearGradient id="ufl-8" x1="1203.75" y1="795.81" x2="1385.21" y2="795.81" gradientTransform="matrix(1.21 0 0 1.32 -279.5 -443.8)" gradientUnits="userSpaceOnUse"><stop offset="0" stop-color="#fff200"/><stop offset="1" stop-color="#ff00b7"/></linearGradient><linearGradient id="ufl-9" x1="-242.97" y1="1282.33" x2="101.22" y2="1282.33" gradientUnits="userSpaceOnUse"><stop offset="0" stop-color="#bc21ff"/><stop offset="1" stop-color="#ff2164"/></linearGradient><linearGradient id="ufl-10" x1="42.63" y1="1129.69" x2="242.22" y2="1129.69" xlink:href="#ufl-9"/><linearGradient id="ufl-11" x1="-124.47" y1="919.65" x2="121.75" y2="919.65" xlink:href="#ufl-9"/><linearGradient id="ufl-12" x1="-366.77" y1="1170.84" x2="-200.79" y2="1170.84" xlink:href="#ufl-9"/><linearGradient id="ufl-13" x1="-315.37" y1="969.21" x2="-98.59" y2="969.21" xlink:href="#ufl-9"/><linearGradient id="ufl-14" x1="1445.81" y1="960.6" x2="1642.95" y2="960.6" gradientUnits="userSpaceOnUse"><stop offset="0" stop-color="#9f21ff"/><stop offset="1" stop-color="#ff2181"/></linearGradient><linearGradient id="ufl-15" x1="1295.61" y1="911.68" x2="1463.12" y2="911.68" xlink:href="#ufl-14"/><linearGradient id="ufl-16" x1="1254.31" y1="686.69" x2="1457.65" y2="686.69" xlink:href="#ufl-14"/><linearGradient id="ufl-17" x1="1400.96" y1="518.88" x2="1759.74" y2="518.88" xlink:href="#ufl-14"/><linearGradient id="ufl-18" x1="1692.16" y1="700.1" x2="1818.59" y2="700.1" xlink:href="#ufl-14"/><linearGradient id="ufl-19" x1="840.21" y1="1156.43" x2="1093.92" y2="1156.43" gradientUnits="userSpaceOnUse"><stop offset="0" stop-color="#c300ff"/><stop offset="1" stop-color="#ff003b"/></linearGradient><linearGradient id="ufl-20" x1="724.81" y1="1088.97" x2="865.18" y2="1088.97" xlink:href="#ufl-19"/><linearGradient id="ufl-21" x1="738.67" y1="935.14" x2="937.45" y2="935.14" xlink:href="#ufl-19"/><linearGradient id="ufl-22" x1="916.9" y1="859.81" x2="1084.14" y2="859.81" xlink:href="#ufl-19"/><linearGradient id="ufl-23" x1="1002.26" y1="1007.22" x2="1194.3" y2="1007.22" xlink:href="#ufl-19"/><linearGradient id="ufl-24" x1="402.86" y1="1070.83" x2="686.86" y2="1070.83" xlink:href="#ufl-8"/><linearGradient id="ufl-25" x1="2004.6" y1="716.15" x2="2364.6" y2="716.15" gradientUnits="userSpaceOnUse"><stop offset="0" stop-color="#fffb00"/><stop offset="1" stop-color="#ff0059"/></linearGradient><linearGradient id="ufl-26" x1="1446.59" y1="974.46" x2="1646.59" y2="974.46" gradientUnits="userSpaceOnUse"><stop offset="0" stop-color="#fffb00"/><stop offset="1" stop-color="#ff0090"/></linearGradient><linearGradient id="ufl-27" x1="102.75" y1="1339.05" x2="320.52" y2="1339.05" gradientUnits="userSpaceOnUse"><stop offset="0" stop-color="#e400f0"/><stop offset="1" stop-color="#f0000c"/></linearGradient><linearGradient id="ufl-28" x1="251.74" y1="1244.54" x2="395.44" y2="1244.54" xlink:href="#ufl-27"/><linearGradient id="ufl-29" x1="134.35" y1="1125.52" x2="300.32" y2="1125.52" xlink:href="#ufl-27"/><linearGradient id="ufl-30" x1="15.13" y1="1308.96" x2="119.27" y2="1308.96" xlink:href="#ufl-27"/><linearGradient id="ufl-31" x1="27.93" y1="1187.67" x2="155.38" y2="1187.67" xlink:href="#ufl-27"/><linearGradient id="ufl-32" x1="97.97" y1="1156.57" x2="279.44" y2="1156.57" gradientTransform="translate(-2.8 86.5)" xlink:href="#ufl-8"/><style>.ufl-34,.ufl-9{stroke:#000}.ufl-34,.ufl-35,.ufl-9{stroke-linecap:round;stroke-linejoin:round;stroke-dasharray:0 0 0 0 0 0;stroke-width:21px;fill:none}.ufl-34{opacity:.59}.ufl-35{stroke:#fff;opacity:.68}</style></defs><g id="Layer_42" data-name="Layer 42"><path d="M1008.8 387.6C1943.1 316.2 2352 871 655.3 1330.2c-898.9 243.3-2015.3-148.9-579.9-683C90 753.5 105.8 862.1 162 959.4c324.7 72.5 681.8-27 913.5-269.3 7.4-102.4-45.2-205-66.7-302.5Z" transform="translate(623.8 -21.9)" style="fill:url(#ufl)"/><path d="M1080.3 686c-228.6 252.5-598.4 344.2-924.2 271.9C-246.7 8.5 952.3-413 1080.3 686Z" transform="translate(623.8 -21.9)" style="opacity:.67;fill:url(#ufl-2)"/><path d="M1266.4 723c-10.7 50 28.6 105.7 71.5 133 67.5-37.2 132.5-78.7 194.8-126-5.9-69.5-62.3-132.4-130.6-145.4 20.7 87-48.5 163.5-135.7 138.4Z" transform="translate(623.8 -21.9)" style="fill:url(#ufl-3)"/><path d="M1313.6 487.4c68.9 31.5 70.5 94.1 89.2 96.3 30.2 3.5 55.4 27.3 81.8 41 143.7-147.1-101.1-245.5-171-137.3Z" transform="translate(623.8 -21.9)" style="fill:url(#ufl-4)"/><path d="M1360.8 451c-18.2 8.4-33.4 21.6-47.8 35.1-42.4-2.6-84.5-3.6-118 26a131.6 131.6 0 0 0-37.8-13.1c-3.8-118.3 144.6-149.5 203.6-48Z" transform="translate(623.8 -21.9)" style="fill:url(#ufl-5)"/><path d="M1295.1 826.6c-24.5-30.4-34.1-70-37.4-108.2-35.3-23-67.2-48.6-84.9-87.9-94.1 82-.8 275.8 122.3 196.1Z" transform="translate(623.8 -21.9)" style="fill:url(#ufl-6)"/><path d="M1130.9 697.4a208.4 208.4 0 0 1 42.5-69c-8.4-39.7-3.4-83.6 20.7-115.4-114.1-46.9-148.9 112.6-69.7 177.1" transform="translate(623.8 -21.9)" style="fill:url(#ufl-7)"/><ellipse cx="1287" cy="604.4" rx="109.8" ry="127.6" transform="rotate(-38.8 1566.715 -292.346)" style="fill:url(#ufl-8);stroke-width:21px;stroke-linecap:round;stroke-linejoin:round;stroke-dasharray:0 0 0 0 0 0;stroke:#000"/><path class="ufl-9" d="M1261.4 720.8c-1.3 54.6 25.8 113.8 79.2 136.9m61.6-271.6c62.8 7.2 126.7 77.3 133.3 140.7" transform="translate(623.8 -21.9)"/><path class="ufl-9" d="M1173.5 629.1c-97.2 88.2-5.2 276 120.6 196.3" transform="translate(623.8 -21.9)"/><path class="ufl-9" d="M1130.2 696.5c-96-76.4-46.7-229.6 67.6-185.7m112.8-20.1c129.4-130.5 290.1 27.6 176.6 133" transform="translate(623.8 -21.9)"/><path class="ufl-9" d="M1158.6 501.6c-18.9-107 136.4-159.6 200.2-51.2" transform="translate(623.8 -21.9)"/><path d="M-195.8 1190.6c-51.2 39.6-56.7 123.3-35.6 182.5 98.2 16.3 197.4 26.7 298.5 29.3 50.4-71.2 44.4-174.9-13.9-240.1-49.6 99.4-181.3 119.5-249 28.3Z" transform="translate(623.8 -21.9)" style="fill:url(#ufl-9)"/><path d="M42.6 1000.9c44.1 83.3-5.1 144.6 12.1 161.1 27.5 26.6 33.7 68.8 49.2 102.3 264-30.3 96.9-313.3-61.3-263.4Z" transform="translate(623.8 -21.9)" style="fill:url(#ufl-10)"/><path d="M119.7 1002.4c-25.2-5.9-51.1-5-76.6-3.2C2.4 964.1-39.2 930.8-97 933.3a158.3 158.3 0 0 0-27.5-41.6c92-116.4 267-32 244.2 110.7Z" transform="translate(623.8 -21.9)" style="fill:url(#ufl-11)"/><path d="M-250.7 1312c-.1-48 22.3-93.3 49.9-132.5-17-49.3-28.4-98.5-14.4-149.8-161.3 6.2-224.2 263.9-35.5 282.3Z" transform="translate(623.8 -21.9)" style="fill:url(#ufl-12)"/><path d="M-311.6 1061.6c30.4-17.4 64.4-28.4 98.7-33.3 23.7-44.7 64.2-82.8 114.3-94.8-77.1-132.8-241.3-6.7-213.7 116.1" transform="translate(623.8 -21.9)" style="fill:url(#ufl-13)"/><path d="M1457.1 895.8c53.6 38.3 124.5 33.7 185.8 19.2-14.9 16.3-171.4 124.9-181.5 108.8-26.1-39.9-13.6-83.8-4.3-128Z" transform="translate(623.8 -21.9)" style="fill:url(#ufl-14)"/><path d="M1456.7 892.8c-18.1 42-15.6 92.2 6.4 132.2 1.4 1-55.8 35.2-55.8 35.2-143.6-31-145.4-234.1-24.4-297 4 53 32.5 97.5 73.8 129.6Z" transform="translate(623.8 -21.9)" style="fill:url(#ufl-15)"/><path d="M1457.6 578.8c-149.6-126-283.3 153.2-146 247.8 0 0 66.9-60.8 67.7-61.1-7.5-77.9 21.6-134.6 78.3-186.7Z" transform="translate(623.8 -21.9)" style="fill:url(#ufl-16)"/><path d="M1758.6 544.6c.5 1.4 1.9-.3.6-1.4-16-21.9-37.5-39-61-52.3-129.5-73.8-215.9-100.3-297.2 51.4a215.6 215.6 0 0 1 64.1 35.1c75.3-46.9 165.2-30.4 228.7 28.6a189.9 189.9 0 0 1 64.8-61.4Z" transform="translate(623.8 -21.9)" style="fill:url(#ufl-17)"/><path d="M1764.3 547.3a141.8 141.8 0 0 0-72.1 58.7c64.6 63.7 58.4 170.8 22.5 246.9 93.3-75.2 152.8-205.1 49.6-305.6Z" transform="translate(623.8 -21.9)" style="fill:url(#ufl-18)"/><path d="M858.4 1081.2c-29.2 59.3-25 136.1 25.6 183.3 0 0 215.3-76.7 209.8-77.3-4.8-56.2-32.3-111-83-138.8" transform="translate(623.8 -21.9)" style="fill:url(#ufl-19)"/><path d="M865.2 1076.1c-28.1 24.1-39.8 65.6-28.4 100.9-23 3.2-61.2 42.3-99.6-22.5s21.8-145.8 84.1-168.1c1.9 35.9 12.8 67.2 43.9 89.7Z" transform="translate(623.8 -21.9)" style="fill:url(#ufl-20)"/><path d="M904.1 835.7c-51.9 27-106 51-156.7 79.8-12.4 38.5-12 81.3 3.8 119.1 17-24 43.6-39.5 70.9-50.4 9.5-54.3 60.2-96.7 115.3-96.3-.8-20.1-13.3-39.3-33.3-52.2Z" transform="translate(623.8 -21.9)" style="fill:url(#ufl-21)"/><path d="m1084.1 904.8-83.2 22.5c-29.1-34.2-52.5-24.3-55.9-37.2-5.5-21.3-14.1-42.7-28.1-58.9 16-15 33.8-26.1 52.7-38.9 61.5 3.8 96.9 57 114.5 112.5Z" transform="translate(623.8 -21.9)" style="fill:url(#ufl-22)"/><path d="M1002.3 925.7a153.8 153.8 0 0 1 14.6 117.2s59.1 63.9 59.9 64.6c191.9 12.8 135.8-277.1-74.5-181.8Z" transform="translate(623.8 -21.9)" style="fill:url(#ufl-23)"/><ellipse cx="544.9" cy="1070.8" rx="142" ry="157" style="fill:url(#ufl-24);stroke-width:21px;stroke-linecap:round;stroke-linejoin:round;stroke-dasharray:0 0 0 0 0 0;stroke:#000"/><ellipse cx="2184.6" cy="716.1" rx="180" ry="188" style="fill:url(#ufl-25);stroke-width:21px;stroke-linecap:round;stroke-linejoin:round;stroke-dasharray:0 0 0 0 0 0;stroke:#000"/><ellipse cx="1546.6" cy="974.5" rx="100" ry="103.7" style="fill:url(#ufl-26);stroke-width:21px;stroke-linecap:round;stroke-linejoin:round;stroke-dasharray:0 0 0 0 0 0;stroke:#000"/><path class="ufl-9" d="M-199 1184.6c-45.6 51.3-66.1 129-31 192.2m282.1-212.9c57.4 55.3 65 171.7 20.4 237.5" transform="translate(623.8 -21.9)"/><path class="ufl-9" d="M-213.4 1028.9c-169.4 9.7-228.7 260.7-37.3 281.2" transform="translate(623.8 -21.9)"/><path class="ufl-9" d="M-311.6 1060.3c-35-147.2 138.8-256.3 218.5-126M37 1001.9c236.2-25.6 270.1 249.8 70.2 263.5" transform="translate(623.8 -21.9)"/><path class="ufl-9" d="M-125.2 895.2c67.6-117.2 266.8-47.9 243.4 105.2" transform="translate(623.8 -21.9)"/><path d="M123.1 1313.2c-28.4 25.8-24.1 68.2-5.2 95.2a1693.5 1693.5 0 0 0 190.1-20.7c25-41.4 11.5-92.4-31.2-118-21.8 55.4-102.6 81-153.7 43.5Z" transform="translate(623.8 -21.9)" style="fill:url(#ufl-27)"/><path d="M251.7 1173.1c37.2 45.3 13.3 88.3 26 96.3 20.3 12.8 29 37.7 42.6 56.2 162.3-49.6 25-201.5-68.6-152.5Z" transform="translate(623.8 -21.9)" style="fill:url(#ufl-28)"/><path d="M300.3 1164.8c-16.5-.6-32.7 3-48.5 7.2-29.5-16.5-59.4-31.9-95.5-23.5a97.7 97.7 0 0 0-22-22c44.5-81.5 164-50.9 166 38.3Z" transform="translate(623.8 -21.9)" style="fill:url(#ufl-29)"/><path d="M103 1396.4c-5.5-29.1 3.4-59.2 16.3-86.3-16.3-27.9-29.1-56.3-26.2-89.1-100.6 22.8-110.7 186.6 9.9 175.4Z" transform="translate(623.8 -21.9)" style="fill:url(#ufl-30)"/><path d="M36.2 1251.7a182.8 182.8 0 0 1 58.2-31.9c9.8-29.9 30.9-57.8 61-70.9-63.6-71.6-152.3 24.4-120.9 95.6" transform="translate(623.8 -21.9)" style="fill:url(#ufl-31)"/><ellipse cx="185.9" cy="1243.1" rx="90.7" ry="96.9" transform="rotate(-10.7 380.082 -2103.186)" style="fill:url(#ufl-32);stroke-width:21px;stroke-linecap:round;stroke-linejoin:round;stroke-dasharray:0 0 0 0 0 0;stroke:#000"/><path class="ufl-9" d="M121 1313c-24.4 28.2-30.8 65.2-3.4 89.1m158.7-131.3c41.5 22.1 57.7 82 36.1 121.6" transform="translate(623.8 -21.9)"/><path class="ufl-9" d="M94.2 1220.3c-105.3 25.9-113.9 185.1 8.6 175" transform="translate(623.8 -21.9)"/><path class="ufl-9" d="M36.1 1250.9c-38.8-85.2 57.9-171.8 122.8-102.3m89.4 25.7c145.4-43.4 198.2 119.7 74.2 151.6" transform="translate(623.8 -21.9)"/><path class="ufl-9" d="M134.3 1128.7c29.1-79 162.1-60.6 164.8 35.1m558.9-84.7c-39.7 56.7-28.7 140.3 24.4 184.8m132.5-218c43 36.4 82 88.3 76.2 147.3" transform="translate(623.8 -21.9)"/><path class="ufl-9" d="M835.1 1181.7c-117.3 56.7-177.8-128.5-12.3-199.8m175.4-54.2c203.6-110.1 289.4 198.9 73.8 179" transform="translate(623.8 -21.9)"/><path class="ufl-9" d="M753.7 1030.8c-19.4-27.1-25.7-86.6-6.8-115m161.5-81.4c19.7 9.1 31.1 33.8 34.2 54.4m27-100.4c56.9 5 99.3 62.1 117.7 112.4m366.8-6.2c-11.3 43.6-15.2 93.7 10.2 133M1380.8 765c-143.8 82.9-105.3 274.6 29.7 293.2" transform="translate(623.8 -21.9)"/><path class="ufl-9" d="M1310 827.3c-140.1-130.4 25.1-371.9 151.2-245.8m234.8 27.6a125.2 125.2 0 0 1 73.3-59.8" transform="translate(623.8 -21.9)"/><path class="ufl-9" d="M1401 547.9c21.2-58.2 72.2-104.7 132.2-120.3" transform="translate(623.8 -21.9)"/><path class="ufl-9" d="M73.7 642.1c-1433.7 539.2-317.3 931.4 581.6 688.1C2352 871 1943.1 316.2 1008.8 387.6" transform="translate(623.8 -21.9)"/><path class="ufl-9" d="M1080.3 686c-228.6 252.5-598.4 344.2-924.2 271.9C-246.7 8.5 952.3-413 1080.3 686Z" transform="translate(623.8 -21.9)"/><path class="ufl-34" d="M156.4 970c326.6 78.6 711.7-13.7 933.9-274m-1289.8 505.8c75.1 74.1 133 82.6 221.5 30.2a52.2 52.2 0 0 0-.1 26.9c-34.2 22.9-30.6 122.1 12.7 136.6m-259-357.4c-21.9 47.5-7.8 100.1 12.9 146.1a166.4 166.4 0 0 0-47.8 114m155.2-373.6c-52.9 7.5-96 44.9-119 92.4a167.5 167.5 0 0 0-83.3 31m418.7-56.1c-23-6.2-47.4-7.6-71.6-6.3-29.5-46.2-76.8-70-131.4-66.1a123.8 123.8 0 0 0-22.2-28.8M204.8 1067c-32.7-1.4-61.6 19.5-79.2 45.7-16.4-5.1-34.7-3.7-50.6 2.3 1.4-34.7-.3-74-19.7-103.8M83.4 1233c-4.8 27.8 3 57.6 18.8 80.9-9.2 24.4-16.2 52.2-6.4 77.4m25.6-68.7c43.7 54 136.8 26.5 161.1-33.7m-15-113.8c16.7 27.7 30.1 60.9 24.1 93.7 18.4 4.8 28.3 28.7 35.4 44.8m-35.2-160.1a83.3 83.3 0 0 0-43.2 6.9h1.4c-21-27.3-56.1-26.8-88.5-24.5a35.5 35.5 0 0 0-16.9-13.2m-2 19.9c-32.3 8.8-54.7 37.7-61.4 69.8-14.9 4.6-30.6 10.3-41.9 21.2-.7 0-.9 1.2-.2 1.5a.8.8 0 0 0 .7-1.4m-411.4-78.9c-21.7 88.1 22 154.5 111.5 169.9a53.2 53.2 0 0 0 9.3 38.1m966.9-230.9c3.7 61.5 59.8 82.1 113.6 71.5a87.4 87.4 0 0 0 30 53.3m-50.4-261.5c-6.1 33.8 12.6 61.7 29.8 89.9a119.1 119.1 0 0 0-17.7 91.2m37.8-83.3-4.1-3.4c46.1 45.6 128 25.3 160.3-26.2m178.5-14.5c-13 50.8-59.1 77.6-110.6 69.8a93.8 93.8 0 0 1 23.1 61.2M1014.7 927c24.1 25.6 30 84.1 13.2 114.9 23.8 11.4 37.9 37.8 51.1 59.6" transform="translate(623.8 -21.9)"/><path class="ufl-34" d="M937.5 879.7c-69.6-11.2-116 32.4-130.3 98.2-21.4 4.5-38.9 20.7-54.3 35.5m178-191.9c10.9 19.9 21.9 40.5 24.4 63.1 18.9 1 34.4 17.6 48.1 29.4a129.8 129.8 0 0 1 69.7-24.6m14.3-221c7.7 16.4 19 31.1 30.4 44-4.4 86.1 88.9 186.8 174.6 132.7-58.2 117.1 34.9 204.7 91.8 221.2m-12.1-284.6c6.2 46.1 31.6 89.2 68.2 117.7a215.5 215.5 0 0 0 10.7 134.3m8-123.7c44.5 30.6 103.2 39.9 155 24.4m-167.2-358.1c-61.4 38.8-86.9 112.6-80.7 183.7a117.2 117.2 0 0 0-55.1 51.5m101.6-277.2c19.1 5.8 36.8 15.9 53.4 28 77.1-42.4 165.1-24.6 230.1 31.6a85.4 85.4 0 0 1 55-47.3m-41.8 60c48.1 50.3 64.9 169.7 22.5 227m-563-189.4c14 36.5 42.5 67.1 76.5 86.6 2.2 32 15 62.3 29.7 90.8.4.9 2.1 1.6 2.1.6m50.5-338c23.6 13.5 45.2 30.5 66 48 11.2-30.4 29.1-61.5 59.4-75.9m-92.8 79.6c-74.6 14.6-119.9 97.7-114.1 162.9m-81.8-207.6c10.1-.2 21-1.3 30.1 3.4 30.3-21 69.9-35.1 107-18.4 13.8-11.5 28.1-25.8 46.2-29.5m-167.3 66.7c-24.9 30.4-33.1 73.7-22.3 112.9-14.3 16.2-28.2 33.9-33.1 55" transform="translate(623.8 -21.9)"/><path class="ufl-35" d="M1588.8 586.7a120.6 120.6 0 0 1 71.5 53.5m13.2 38.7 2.6 12.1M1322 897.7a125.3 125.3 0 0 0 18 80.1m19.6 24.3a73.7 73.7 0 0 0 7.4 9.3c.1-.5.2-1-7.4-9.3Zm116.8-44.1c-2 13.7-2.5 27.5 1.8 40.7m-97.4-422.3c-37.3 4.2-67.2 33.4-80.7 67.3m-8.1 28.8a40.7 40.7 0 0 1-2.8 10.2m172.6-176.3a150.9 150.9 0 0 1 70-43.1m27.2-3.5h8.7c.9.1 2 .5-8.7 0Zm-193.7 20.1a75.7 75.7 0 0 1 34.2-8.9m-213.7-5.9a71.1 71.1 0 0 1 41.1-41.9m28.7-3.4h6.8c.5-.1 1.1.5-6.8 0Zm-23.1 98.2c-22.5 16.9-35.8 45.4-34.2 73.5l.8-1.2m5.8 29.3a7.4 7.4 0 0 0 1.5 6.2m-101.2-41.6a70.3 70.3 0 0 1 25.1-44.1m-26.5 72.6a36.2 36.2 0 0 0 1.4 7.3m58.4 116.4a82.1 82.1 0 0 0 24.3 53.7m23.5 20.1a49.1 49.1 0 0 0 5.1 3.9m-101 125.3c17.2 14 33.7 30.4 40.7 51.5m7 25.3a23.6 23.6 0 0 1 0 7.5m-125.6 92.4c10.6 19.3 20.3 39.8 21.9 61.8M941.8 926.6a97 97 0 0 1 42.4 66.1m-1.3 27.5a44.3 44.3 0 0 0-.6 9.6m22.4-197.5a152.7 152.7 0 0 1 30.7 33M755.7 1078c-6.2 20.3-9.4 42.6-1.5 62.3m12.5 19.1 3.3 4.4m-8.9-189.7c-2.7-7.5-2.2-15.9-.8-23.6m-438.5 249.7a72.5 72.5 0 0 1 33.3 26.6c.1.2.2.4.1.5s-.4-.1-.2-.1m7.6 26.2 1.9 9.5m-74.1 70.8a61.5 61.5 0 0 1-3.3 34.2m-240.9-68.4c-5.7 12.9-7.5 30.5-1.4 43.3m17.3 19.3 2.5 4m1.1-197.6a64.2 64.2 0 0 0-14.9 30.6m202.3-75.1a63.9 63.9 0 0 0-40.4-15.7m-104.9-75.1a144.7 144.7 0 0 1 45.4 17.3M15.1 871.1a150.3 150.3 0 0 1 58.7 49.4m12.9 21.1 2 5.2m-271-41.9a100.2 100.2 0 0 0-71.8 34.3m-18.8 25.1-2.5 5.9m-43 144.7a129.7 129.7 0 0 0-24.8 72m1.2 25.5a21.1 21.1 0 0 0 1.7 8.2m133.3 44.3a118.9 118.9 0 0 0-4.1 77m191-345.3a118.5 118.5 0 0 1 27.6 78.5m2.4 35.5-.5 9.4c0 .4-.1.8-.4.9s-.7-.4.9-10.3Z" transform="translate(623.8 -21.9)"/><path d="M653.2 119.5A362.6 362.6 0 0 1 808 236.6m54 78.4c.8 1.8 11.3 29.6 10.1 22.7" transform="translate(623.8 -21.9)" style="stroke-width:52px;stroke:#fff;opacity:.68;fill:none;stroke-linecap:round;stroke-linejoin:round;stroke-dasharray:0 0 0 0 0 0"/><path class="ufl-35" d="M-456 976.4a280.8 280.8 0 0 0-103.5 126.7m-7.4 34.7v14.2m1277.4 110.6-206.4 53.6m-45.4 12.8-14.6 2.5" transform="translate(623.8 -21.9)"/></g></svg>