<svg version="1.1" id="Layer_1" xmlns="http://www.w3.org/2000/svg" x="0" y="0" viewBox="0 0 1100 1100" style="enable-background:new 0 0 1100 1100" xml:space="preserve" xmlns:xlink="http://www.w3.org/1999/xlink"><style type="text/css">.st303{fill:#FED907;stroke:#000000;stroke-width:10;stroke-linecap:round;stroke-linejoin:round;stroke-miterlimit:10;}</style><circle class="st303" cx="550" cy="553.7" r="500"/><radialGradient id="a4" cx="564.461" cy="535.948" r="438.66" gradientTransform="matrix(1 0 0 -1 0 1100)" gradientUnits="userSpaceOnUse"><stop offset="0" style="stop-color:#7303fc"/><stop offset="1" style="stop-color:#03fcb1"/></radialGradient><path style="fill:url(#a4)" d="M532 209c-68 59.6-71 20-121 36.5-19.6 10.9-14 30-9.7 39.6 11 23-51 9-69 40-10 18 0 42-7.5 61.8-9 19.6-34 35-37 52-43 48-154 7-119 70 6 11 33-6 39 9 7 17.5-39 29-21 46.7 18 5 21 39.9 57 63 14 20 3 51 19 69 36 38 46-25 41-34 4-39 44-11 22 38.7-23 52 11 74 36.5 57 24-9 13 39 23 50.9 19.5 37 55 12 67 12 18 1 28 22 29.8 40.3 6 63 54 46 59 8 15.5-34 45 49 47 59.9 12 73 69.5 42 71 17.9 3-54-3-60 2-68.3 19-31 71 13 90.8-15.5 14-19.8-31-63 8-55 94 19.9 19-101 14-120-9-35.5 14-106 47-121.7 18-9 17-35.5 7-53-9.6-17-25-30.6-31-48.9-13.5-54 21-100.6-36-133-5-3-7-9.5-4-14.4 17-26 1-66-32-71-22-3-44 9-66.5 6C615 247 578.5 178 532 209z"/><style>.st40{fill:none;stroke:#000;stroke-width:10;stroke-linecap:round;stroke-linejoin:round;stroke-miterlimit:10}.st98{opacity:.6;enable-background:new}</style><g id="Outline"><path class="st98" d="M793 537c-1 .7-1 2-.5 3 5 10 11 35 25 30 8-2 21-13 18-22.4-.5-1-2-2-3-1.5-26 12-28-11-39-9.4v.3zm-34 274.5c6 5 26 8 25-3-6-7-20.6-12-21.5-26C750 772 744 803 759 811.5zm-219.3 52s1 .5 1 .8c9 13.5-3 36-18 40-34 6-9-6-6-44 .3-5.3 22.3 2.7 23 3.2zM342 731c5 7-4 22-4 33 8 13 29.6-5 33-14.9 2-12-17-21-28-20.2-1 .1-1 1.1-1 2.1zm31-120.2c2 23-8 47-26 61.9-13 10.9-17.5-30.6-8-27.9 6 4.2 28-18.8 34-34zm-157-59.9c-8 6-17 3-25 1-11 5 4 20 13.5 16 5-4 12-9 12-15.7-.5-.2-1.5-.2-.5-1.3zM337 473c-6-10-3-23 0-34 0-1 0-2-.6-2-9-9-23 11-19.8 20.7C318 463 338 475 337 472.8v.2z"/><path class="st98" d="M326 392c-2 29 24 45 7 44-7 2-14 1-15 11-1 11-24 0-24.5-1.3C285 433 317 404.5 326 392zm103-118c-9.9-4-16-16-18-25-4-6-9.9 1-11 6-7 54 29.5 28 29 19zm293 9c16 21 29.5 12 40 20.7 3 4 1 9.6-1 14-3 9-13 9-20 4.1-14.5-5.8-22-22.2-19-38.8z"/><path class="st40" d="M347 729c53.5 5 15 86 59 102 25 9 37-19.8 55-11.9 23 10.1 19.6 40 24 60.7 9.6 46 63 29.6 58-12.8"/><path class="st40" d="M519 861c89-9 47.5 119 114.5 115 39-6 35-47 25-76.5-3-9 0-18.5 7-24.5 24.5-21 59 15.5 84-2.5 15-11 8-33-2-45-12-15 0-32 10-43"/><path class="st40" d="M790 539c53 69.8-64 71 8 194.5 6 14 11 32 11 48.5 0 32-49 47.5-61 16"/><path class="st40" d="M721 287c2 51 64 31 74 88 6 34-11.5 71 7 103 10 18 27 31.5 34 51 8 19-4 47-27 42"/><path class="st40" d="M407 290.6c-16-8-12-29.9-2-41 17-15 40.5-10 61-6 29.8 1 49-29 75-38 50-17 81 55 133 44 23-5 48-11 69 1 25 14 33 55 10 75"/><path class="st40" d="M428 278c-16 26.5-51 17.5-76 28.5-20 10.5-28 33-23 55 10 47-43 51-39 88m25 4.5c1.5-23 35-26 41-5 7 25-13 47 16 72"/><path class="st40" d="M334 476c-20-34-61-31.5-89-9.6-20 8-43-3-64 4-22 7-28 37-5 43.5 6.5 2 23-2 26-1 15 4 11 25-5 30-21 6-10 29 6 29"/><path class="st40" d="M216 554.5c-15 15-14 41 2 55 37 22 41 31 36 69.7-2 31 46 41 53.5 10 2-10.8-4-22 0-33 13-32 44 20 62-44.5"/><path class="st40" d="M327 647.9c25 29.7-.5 47-7 75-10 32.5 34 65 53 25"/><path d="M729 262.5c9 4 16 13 18 22.5m-193-68c12.5 2 24.5 8 34 16m9 9 3 3m-163 10c-5.5-.9-12 .6-15.5 4M362 319.6c-9 2-14 10.7-16 19M339 449c4 1 6 6 6 9.8M308.5 470c-12-6-16-5-22-4M175 492c1-4 5-7 9-7.5m38 89.5c-4 8 0 16 4 19.9m44 78.6c-1 6 1 15 9 18m76-77.5c-3 14-13 14.5-16 16m4.5 119.5c-5-3-9-9-8-15M397 782c-1 14.5 7 28 14 30m90 53.9c-3 12 2 27 14.5 25M636 957c14-3 17-28 11-38m96-60.1c1-7 0-14-4-19m46-49.1c8-6.5 9-25 3-39M786 582c5-8 3-19-3-26m37-12c2-8.5-.6-18-7-24m-56-169c18 6 22 30 21 35" style="opacity:.7882;fill:none;stroke:#fff;stroke-width:10;stroke-linecap:round;stroke-linejoin:round;stroke-miterlimit:10;enable-background:new"/></g><style>.st40,.st68{fill:none;stroke-width:10;stroke-linecap:round;stroke-linejoin:round;stroke-miterlimit:10;stroke:#000}.st68{opacity:.6;enable-background:new}</style><g id="Mmmm"><path class="st40" d="M506 744c55 21 117 25 173 5m-182 30c-52-25-58-74 10.9-72"/><path class="st40" d="M663 713c79-11 91 46 19 76"/><path class="st68" d="M506 702c-76-9.9-68 67-11 79m10-33c56 22 120.5 31 176 5.5"/><path class="st68" d="M664.5 709.8c46-15 125 29.7 21 83"/><path d="M676 724c10-1 21 0 30 5m9 6 1 1m-220-15.2c-8 .6-16 3-21 9" style="fill:none;stroke:#fff;stroke-width:10;stroke-linecap:round;stroke-linejoin:round;stroke-miterlimit:10"/></g><style>.st40{fill:none;stroke:#000;stroke-width:10;stroke-linecap:round;stroke-linejoin:round;stroke-miterlimit:10}</style><g id="closed"><path class="st40" d="M438 542.4c31-12 73-10.1 105-.5m180-13.1c-37-5.5-76-6-108.5 3M733 494.6c40 24 40.5 56-8 68m-290-53.1c-35 9-54 55-10.1 67.5m112.6-68.4c47 0 58.5 46 13.5 65"/><path class="st40" d="M615 495.9c-62 31-25 78 6 72"/><path d="M432 508.2c-37.5 12-58 62-7 69m118-30.4c-33-7-70.6-11-103 0m113 31.8c12-4 22-11 29.7-21.4 7 12 25 19 38.5 13m-6.7-33.3c35-7 72-8 107.5-3.5m3 34.3c12-3 25-8 30-19.9" style="opacity:.6;fill:none;stroke:#000;stroke-width:10;stroke-linecap:round;stroke-linejoin:round;stroke-miterlimit:10"/></g><radialGradient id="a22" cx="677.109" cy="702.572" r="56.939" gradientTransform="matrix(.9782 -.2079 -.2998 -1.4111 102.775 1435.44)" gradientUnits="userSpaceOnUse"><stop offset="0" style="stop-color:#ff00a6"/><stop offset="1" style="stop-color:#ff5900"/></radialGradient><path style="fill:url(#a22)" d="M527 249.5c-30 64-27.5 69 21 112.5 14 12.5 26 11 34-1 17-26 26-54 16-77-9-21-52.5-74-71-34.5z"/><path d="M514 279c9.6 26 38 45 64.5 50 25 5 24-26 20-42.5C542 196 525 254 514 279z" style="opacity:.3686;fill:#fff;enable-background:new"/><path d="M527 249.5c-30 64-27.5 69 21 112.5 14 12.5 26 11 34-1 17-26 26-54 16-76.6-9-21.4-52.5-74.4-71-34.9z" style="fill:none;stroke:#000;stroke-width:10;stroke-linecap:round;stroke-linejoin:round;stroke-miterlimit:10"/><path d="M531 243c-41 54-37 85 12 125 9.8 8 24.5 7.5 34-1" style="opacity:.6;fill:none;stroke:#000;stroke-width:10;stroke-linecap:round;stroke-linejoin:round;stroke-miterlimit:10;enable-background:new"/><path d="M554 255c8 5 14 12 19 20m9 11c2 3 3 6 4 9" style="fill:none;stroke:#fff;stroke-width:10;stroke-linecap:round;stroke-linejoin:round;stroke-miterlimit:10"/><circle cx="550" cy="550" r="500" style="fill:none;stroke:#000;stroke-width:10;stroke-linecap:round;stroke-linejoin:round;stroke-miterlimit:10"/></svg>