<svg version="1.1" id="Layer_1" xmlns="http://www.w3.org/2000/svg" x="0" y="0" viewBox="0 0 1100 1100" style="enable-background:new 0 0 1100 1100" xml:space="preserve" xmlns:xlink="http://www.w3.org/1999/xlink"><circle cx="550" cy="550" r="500" style="fill:#2e2e2e"/><linearGradient id="a1" gradientUnits="userSpaceOnUse" x1="264.957" y1="853.134" x2="422.298" y2="853.134"><stop offset="0" style="stop-color:#00ff90"/><stop offset="1" style="stop-color:#c800ff"/></linearGradient><circle cx="343" cy="853" r="78" style="fill:url(#a1);stroke:#000;stroke-width:10;stroke-linecap:round;stroke-linejoin:round;stroke-miterlimit:10"/><linearGradient id="b1" gradientUnits="userSpaceOnUse" x1="826.38" y1="645.312" x2="919.38" y2="645.312"><stop offset="0" style="stop-color:#f7ff00"/><stop offset="1" style="stop-color:#ff5e00"/></linearGradient><ellipse style="fill:url(#b1);stroke:#000;stroke-width:10;stroke-linecap:round;stroke-linejoin:round;stroke-miterlimit:10" cx="873" cy="645" rx="46.5" ry="53"/><linearGradient id="c1" gradientUnits="userSpaceOnUse" x1="179.591" y1="404.219" x2="384.591" y2="404.219"><stop offset="0" style="stop-color:#0073ff"/><stop offset="1" style="stop-color:#8c00ff"/></linearGradient><ellipse style="fill:url(#c1);stroke:#000;stroke-width:10;stroke-linecap:round;stroke-linejoin:round;stroke-miterlimit:10" cx="282" cy="404" rx="102.5" ry="111"/><linearGradient id="d1" gradientUnits="userSpaceOnUse" x1="766.562" y1="310.33" x2="944.562" y2="310.33"><stop offset="0" style="stop-color:#7300ff"/><stop offset="1" style="stop-color:#ff008c"/></linearGradient><ellipse style="fill:url(#d1);stroke:#000;stroke-width:10;stroke-linecap:round;stroke-linejoin:round;stroke-miterlimit:10" cx="856" cy="310" rx="89" ry="95"/><linearGradient id="e1" gradientUnits="userSpaceOnUse" x1="615.769" y1="857.232" x2="845.269" y2="857.232"><stop offset="0" style="stop-color:#f0b"/><stop offset="1" style="stop-color:#f40"/></linearGradient><circle style="fill:url(#e1);stroke:#000;stroke-width:10;stroke-linecap:round;stroke-linejoin:round;stroke-miterlimit:10" cx="730.5" cy="857" r="115"/><linearGradient id="f1" gradientUnits="userSpaceOnUse" x1="115.411" y1="614.727" x2="186.411" y2="614.727"><stop offset="0" style="stop-color:#00ff90"/><stop offset="1" style="stop-color:#006fff"/></linearGradient><circle style="fill:url(#f1);stroke:#000;stroke-width:10;stroke-linecap:round;stroke-linejoin:round;stroke-miterlimit:10" cx="150.9" cy="615" r="35.5"/><path d="M313 326.3c18 9.9 33 27 39.6 46m7 22.7 1 7m509.9-163.1c19 5 34 19.6 41 38m6 22c1 3 1.5 5 2 8M879 609.4c9 4 16 11 19.8 20m.7 19.6-.5 5M759 766.9c25 9 44 31 49.9 56.5m7.1 23.7c1 4 1 7 .5 10.8M364 799.3c16 6 29 22 31 39m0 22.7-2 6M153.5 595.4c7 1 12 6 14 12" style="opacity:.8118;fill:none;stroke:#fff;stroke-width:16;stroke-linecap:round;stroke-linejoin:round;stroke-miterlimit:10;stroke-dasharray:0,0,0,0,0,0"/><path d="M532 209c-68 59.6-71 20-121 36.5-19.6 10.9-14 30-9.7 39.6 11 23-51 9-69 40.3-10.1 18 0 42-7.5 62-9 19.6-34 35-37 52-43 48-154 7-119 70 6 11 33-6 39 9.1 7 17.5-39 29-21 47 18 5 21 39.9 57 63 14 20 3 51 19 69 36 38 46-25 41-34.3 4-39 44-11 22 39-23 52 11 74 36.5 57 24-9 13 39 23 50.9 19.5 37 55 12 67 12 18 1 28 22 29.8 40 6 63 54 46 59 8 15.5-34 45 49 47 59.9 12 73 69.5 42 71 17.9 3-54-3-59.9 2-68 19-31 71 13 90.8-15.5 14-19.8-31-63 8-55 94 19.9 19-101 14-120.4-9-35.5 14-105.8 47-122 18-9 17-35.5 7-53-9.6-17-25-30.6-31-48.9-13.5-54 21-100.7-36-133.3-5-3-7-9.5-4-14 17-25.8 1-66-32-71-22-3-44 9-66.5 6C615 247 578.5 178 532 209z" style="fill:#1eb377"/><style>.st40{fill:none;stroke:#000;stroke-width:10;stroke-linecap:round;stroke-linejoin:round;stroke-miterlimit:10}.st98{opacity:.6;enable-background:new}</style><g id="Outline"><path class="st98" d="M793 537c-1 .7-1 2-.5 3 5 10 11 35 25 30 8-2 21-13 18-22.4-.5-1-2-2-3-1.5-26 12-28-11-39-9.4v.3zm-34 274.5c6 5 26 8 25-3-6-7-20.6-12-21.5-26C750 772 744 803 759 811.5zm-219.3 52s1 .5 1 .8c9 13.5-3 36-18 40-34 6-9-6-6-44 .3-5.3 22.3 2.7 23 3.2zM342 731c5 7-4 22-4 33 8 13 29.6-5 33-14.9 2-12-17-21-28-20.2-1 .1-1 1.1-1 2.1zm31-120.2c2 23-8 47-26 61.9-13 10.9-17.5-30.6-8-27.9 6 4.2 28-18.8 34-34zm-157-59.9c-8 6-17 3-25 1-11 5 4 20 13.5 16 5-4 12-9 12-15.7-.5-.2-1.5-.2-.5-1.3zM337 473c-6-10-3-23 0-34 0-1 0-2-.6-2-9-9-23 11-19.8 20.7C318 463 338 475 337 472.8v.2z"/><path class="st98" d="M326 392c-2 29 24 45 7 44-7 2-14 1-15 11-1 11-24 0-24.5-1.3C285 433 317 404.5 326 392zm103-118c-9.9-4-16-16-18-25-4-6-9.9 1-11 6-7 54 29.5 28 29 19zm293 9c16 21 29.5 12 40 20.7 3 4 1 9.6-1 14-3 9-13 9-20 4.1-14.5-5.8-22-22.2-19-38.8z"/><path class="st40" d="M347 729c53.5 5 15 86 59 102 25 9 37-19.8 55-11.9 23 10.1 19.6 40 24 60.7 9.6 46 63 29.6 58-12.8"/><path class="st40" d="M519 861c89-9 47.5 119 114.5 115 39-6 35-47 25-76.5-3-9 0-18.5 7-24.5 24.5-21 59 15.5 84-2.5 15-11 8-33-2-45-12-15 0-32 10-43"/><path class="st40" d="M790 539c53 69.8-64 71 8 194.5 6 14 11 32 11 48.5 0 32-49 47.5-61 16"/><path class="st40" d="M721 287c2 51 64 31 74 88 6 34-11.5 71 7 103 10 18 27 31.5 34 51 8 19-4 47-27 42"/><path class="st40" d="M407 290.6c-16-8-12-29.9-2-41 17-15 40.5-10 61-6 29.8 1 49-29 75-38 50-17 81 55 133 44 23-5 48-11 69 1 25 14 33 55 10 75"/><path class="st40" d="M428 278c-16 26.5-51 17.5-76 28.5-20 10.5-28 33-23 55 10 47-43 51-39 88m25 4.5c1.5-23 35-26 41-5 7 25-13 47 16 72"/><path class="st40" d="M334 476c-20-34-61-31.5-89-9.6-20 8-43-3-64 4-22 7-28 37-5 43.5 6.5 2 23-2 26-1 15 4 11 25-5 30-21 6-10 29 6 29"/><path class="st40" d="M216 554.5c-15 15-14 41 2 55 37 22 41 31 36 69.7-2 31 46 41 53.5 10 2-10.8-4-22 0-33 13-32 44 20 62-44.5"/><path class="st40" d="M327 647.9c25 29.7-.5 47-7 75-10 32.5 34 65 53 25"/><path d="M729 262.5c9 4 16 13 18 22.5m-193-68c12.5 2 24.5 8 34 16m9 9 3 3m-163 10c-5.5-.9-12 .6-15.5 4M362 319.6c-9 2-14 10.7-16 19M339 449c4 1 6 6 6 9.8M308.5 470c-12-6-16-5-22-4M175 492c1-4 5-7 9-7.5m38 89.5c-4 8 0 16 4 19.9m44 78.6c-1 6 1 15 9 18m76-77.5c-3 14-13 14.5-16 16m4.5 119.5c-5-3-9-9-8-15M397 782c-1 14.5 7 28 14 30m90 53.9c-3 12 2 27 14.5 25M636 957c14-3 17-28 11-38m96-60.1c1-7 0-14-4-19m46-49.1c8-6.5 9-25 3-39M786 582c5-8 3-19-3-26m37-12c2-8.5-.6-18-7-24m-56-169c18 6 22 30 21 35" style="opacity:.7882;fill:none;stroke:#fff;stroke-width:10;stroke-linecap:round;stroke-linejoin:round;stroke-miterlimit:10;enable-background:new"/></g><path d="M258 512.9c21 24 41 50 59 77m6-75.4-62 77" style="fill:none;stroke:#000;stroke-width:10;stroke-linecap:round;stroke-linejoin:round;stroke-miterlimit:10"/><path d="m254 516.1 62 77m12-76.1c-23 29-42.5 52-63.5 79" style="opacity:.6;enable-background:new;fill:none;stroke:#000;stroke-width:10;stroke-linecap:round;stroke-linejoin:round;stroke-miterlimit:10"/><style>.st40{fill:none;stroke:#000;stroke-width:10;stroke-linecap:round;stroke-linejoin:round;stroke-miterlimit:10}</style><g id="Buck_Teeth"><path d="M408 710c-35-29 16.5-71 37-38m262 13c26-29 68 8 43 37m-273 57.8c55 36 130 42 191 15.5M440 698c14 16 34 28.5 53 38m80 23c12 1 24 1 36 1m103-46c-7 7-15 13-22 19.5" style="opacity:.6;enable-background:new;fill:none;stroke:#000;stroke-width:10;stroke-linecap:round;stroke-linejoin:round;stroke-miterlimit:10"/><linearGradient id="SVGID_00000144308631695432882570000007628677700832790193_" gradientUnits="userSpaceOnUse" x1="615" y1="365.37" x2="685.95" y2="365.37" gradientTransform="matrix(1 0 0 -1 0 1100)"><stop offset="0" style="stop-color:#ff0378"/><stop offset="1" style="stop-color:#ff8903"/></linearGradient><path style="fill:url(#SVGID_00000144308631695432882570000007628677700832790193_)" d="M616 768c16-5 68-13 69.9-32.3C692 706 606.5 663 616 768z"/><linearGradient id="SVGID_00000051372725403280898550000008547425539188560257_" gradientUnits="userSpaceOnUse" x1="495" y1="367.694" x2="569" y2="367.694" gradientTransform="matrix(1 0 0 -1 0 1100)"><stop offset="0" style="stop-color:#ff0378"/><stop offset="1" style="stop-color:#ff8903"/></linearGradient><path style="fill:url(#SVGID_00000051372725403280898550000008547425539188560257_)" d="M496 744.4c14 4 68 35 73 12 0-78-60-68-73-12.4v.4z"/><path d="M512 713c3 27 29 43 54 46-2 1 .5 5-2 6.5s-106-5.6-52-52.5zm106 21.5c19.6 31 57.5-1 67 5 2 13.5-97 59.5-67-5z" style="opacity:.6;enable-background:new"/><path class="st40" d="M435 702c67 74 213 98 282 15m-10-31c27-19 56 5.5 43 36m-342-12c-20-26 7-62 37-38"/><path class="st40" d="M495 743c8-59.8 88-63 74 22m46 2c-15-59.8 55-101 72-26m-210 35c58 29 129 45 189.6 15"/><path d="M544 716c5 4 8 9 9 15m3 18v-5m95-29.1c6 0 12 3 15 8m6 14.1c0-1-.7-2-1-3m-205 11c59 40 138 51 209.8 21.5M714 697c6.5-3 15.5-4 21 1m-320-11c0-7 8-13 15-8" style="fill:none;stroke:#fff;stroke-width:10;stroke-linecap:round;stroke-linejoin:round;stroke-miterlimit:10"/></g><style>.st40,.st68{fill:none;stroke-width:10;stroke-linecap:round;stroke-linejoin:round;stroke-miterlimit:10;stroke:#000}.st68{opacity:.6;enable-background:new}.st102{fill:#fff}</style><g id="all_seeing"><path class="st102" d="M764 494c-106-69-252-35.5-344.5 38C509 624 704 617 764 494z"/><linearGradient id="SVGID_00000154406609517563783580000003077220973173026472_" gradientUnits="userSpaceOnUse" x1="576.467" y1="996.091" x2="618.467" y2="789.095" gradientTransform="matrix(1 0 0 -1 0 1410)"><stop offset="0" style="stop-color:#001aff"/><stop offset="1" style="stop-color:#e600ff"/></linearGradient><path style="fill:url(#SVGID_00000154406609517563783580000003077220973173026472_)" d="M671 464.4c-43-9.5-199-12-159.6 59.5 29.8 54 4 62 21 66 51 12 124 4 164-28C671 535 698 508 671 464v.4z"/><path d="M592 532c3 20.5 2 40.6-2 60.6 18 2 37-3 54-6 24-4 12-34 6-48.5-25 11.9-54-6.6-58-6.5v.4z"/><path class="st102" d="M591 495c-22.5 32 39 69.5 57 40-2-22-34-61-57-40.4v.4z"/><path class="st40" d="M779.5 504C680 422 498 458 409 541"/><path class="st40" d="M420.5 531c90 96 280 85 345-37"/><path class="st40" d="M511 482c-19.8 44 28 62 14 106m143-127c35 32 1 71 28.5 100.5m-112.5 31c22-19-3-70 0-88 2-11 13-18.5 24.5-15 29.9 4 52 66 51 93"/><path class="st40" d="M584 511c5 27 37 41 62 29"/><path class="st68" d="M417 539c96 95.5 284 85 353-36"/><path class="st68" d="M503 485c-19 40 24 59 16 98m66-88c-22.5 28 18 66.5-7 96"/><path d="M658 470c7 5.5 12 14 13 23m-1 14v3.5" style="fill:none;stroke:#fff;stroke-width:10;stroke-linecap:round;stroke-linejoin:round;stroke-miterlimit:10"/></g><defs><linearGradient id="zbj" x1="516.88" y1="143.24" x2="596.42" y2="317.05" gradientUnits="userSpaceOnUse"><stop offset="0" stop-color="#0ff"/><stop offset=".08" stop-color="#1ab9ff"/><stop offset=".26" stop-color="#5a0cff"/><stop offset=".27" stop-color="#5d05ff"/><stop offset=".59" stop-color="#ff0fe7"/><stop offset=".86" stop-color="#ff6912"/><stop offset="1" stop-color="#ff1500"/></linearGradient><style>.zbj-3{fill:none;stroke-linecap:round;stroke-linejoin:round;stroke-dasharray:0 0 0 0 0 0;stroke:#000;stroke-width:10px}</style></defs><path d="M525.9 322.4c-10.7 12.5-13 27.9-2.2 41.6-2.7 13.8 5.9 30.6 22.2 28.1 8.2 15.2 31 20 42.3 5.4 13 5.9 28.9 4.8 42.1-2.6 19.8 12.2 41.2-2 36.4-25.6 11-10.9 9.7-28.6-1.8-39.3 5.2-12.8-4.1-26.2-18-27.8-5.1-14.8-24.8-21.9-37.8-11.9-13.2-7.3-29.2-4.3-40.1 6.5-11.7-9.1-46.4-8.5-43.1 25.6Z" style="fill:#dedede"/><path d="M532.9 207.8a226.2 226.2 0 0 1-45.1 28.4c11.7-107.3 133.3-157 134.8 46.4-6.1.7-9.8 2.6-14.6 7.5-12.5-5-27.5-3.1-39 4.7-5.1-2.8-10.6-5.5-16.4-6a145.7 145.7 0 0 0-19.7-81Z" style="fill:url(#zbj)"/><path class="zbj-3" d="M535.3 330.9c-32.4-25.2 23.9-62.9 38-23.3"/><path class="zbj-3" d="M525.9 322.5c-12.1 8.6-13.5 27.6-2.8 37.9m10.6-5.9c-19.8 9.9-8.9 46.3 13.5 37.7"/><path class="zbj-3" d="M547.2 382.2c-3.2 31.6 48.8 34.6 42.3 2.9"/><path class="zbj-3" d="M589.9 398.4c15.1 8.8 38.8 5.5 47.3-10.9"/><path class="zbj-3" d="M633.3 395c21.7 19.4 49.3-12.7 26.4-31.1m6.8 4.3c11.2-9.2 13-29.4-.4-37.5m-12.7 6.9c17.4-8 16-34.5-4.2-36.7m-34.2-2.4c-9.5-14.5-31.8-16.9-44.2-4.7m74.1 18.1c6.3-19.4-20.2-37.3-35.1-22.9m-86.5-97.6c23 25.7 28.1 63.6 30.9 96.9"/><path class="zbj-3" d="M623.5 281.9C610.6 51.5 492.7 154.5 487.3 237c17.4-4.1 29-19.3 44-27.9"/><path d="M621.6 285.7c-4.4 2.2-6 7.4-6.8 11.9m45.1 9.6c-5.2-1.6-10.4 1.2-14.5 4.3m28.2 31.5c-3.8-5.5-11.1-7.4-17.5-6.5m-18.3 51.7c2.5 6.6 6.5 10.4 13 11.9m-44.7.3a39.8 39.8 0 0 1-14.6-14.2m-45.9-5.5a26.2 26.2 0 0 1-11.4 8.9m40-82.1a24.5 24.5 0 0 1 8.3-20m-48.4 65.7a19.2 19.2 0 0 1-15.9-5.4" style="opacity:.37;stroke-width:10px;stroke:#000;fill:none;stroke-linecap:round;stroke-linejoin:round;stroke-dasharray:0 0 0 0 0 0"/><path d="M521.2 191.4c5.8 9.3-.1 21.2-6 29.2m14.6-7c12.6 21.4 15.6 46.5 18 71.8M523 318.3c-13.9 11.6-16.2 32.2-4.1 46.2-3.4 16.5 6.8 35.9 25.8 34.4 9.9 14.1 30.1 16.4 44 6.5a50 50 0 0 0 43-3.9 22.6 22.6 0 0 0 26.7-3.1m-37.8-122.2c-5.7.7-11.3 3.2-16.6 6.8-12.2-5.4-24.7-1.5-35.9 5.2a16 16 0 0 0-11.1-2.1" style="opacity:.6;stroke-width:10px;stroke:#000;fill:none;stroke-linecap:round;stroke-linejoin:round;stroke-dasharray:0 0 0 0 0 0"/><path d="M549.6 301.3a11 11 0 0 1 9.5 5.3m36.1-9a15.5 15.5 0 0 1 8 5.3m27.1-5.2a9.1 9.1 0 0 1 3.4 7.3m21.4 15a9.4 9.4 0 0 1-3.7 6.3m3.4 47.4a10.4 10.4 0 0 1 1 9.1m-28.8.9a17.8 17.8 0 0 1-8 5.5m-61.2-3.6a10.8 10.8 0 0 0 6.2 7.7m-29.5-18.8c-.7-3.3.8-6.8 3.1-9.3" style="stroke-width:7px;stroke:#fff;opacity:.81;fill:none;stroke-linecap:round;stroke-linejoin:round;stroke-dasharray:0 0 0 0 0 0"/><path d="M567.8 155.1c10.6 5 17.9 16.1 22.1 27.1m5.3 13.2c.3 1.2 1.7 6.3 1.9 7.5" style="stroke:#fff;opacity:.81;stroke-width:10px;fill:none;stroke-linecap:round;stroke-linejoin:round;stroke-dasharray:0 0 0 0 0 0"/><circle cx="550" cy="550" r="500" style="fill:none;stroke:#000;stroke-width:10;stroke-linecap:round;stroke-linejoin:round;stroke-miterlimit:10"/></svg>