<svg version="1.1" id="Layer_1" xmlns="http://www.w3.org/2000/svg" x="0" y="0" viewBox="0 0 1100 1100" style="enable-background:new 0 0 1100 1100" xml:space="preserve" xmlns:xlink="http://www.w3.org/1999/xlink"><style type="text/css">.st303{fill:#FED907;stroke:#000000;stroke-width:10;stroke-linecap:round;stroke-linejoin:round;stroke-miterlimit:10;}</style><circle class="st303" cx="550" cy="553.7" r="500"/><path d="M533 209.1c-68 59.6-71 20-121 36.5-19.6 10.9-14 30-9.7 39.6 11 23-51 9-69 40.3-10 18 .1 42-7.5 61.8-9 19.6-34 35-37 52.2-43 48-154 7-119 70.4 6 11 33-6 39 9.1 7 17.5-39 29-21 46.7 18 5 21 39.9 57 63.2 14 20 3 51 19 69.1 35.8 38 46-25 41-34.3 4-39 44-11 22 38.7-23 52 11 74 36.5 56.6 24-9 13 39 23 50.9 19.5 37 55 12 67 12 18 1 28 22 29.8 40.3 6.5 63 54 46 59 8 15.5-34 45 49 47 59.9 11 73 69 42 71 17.9 3-54-3-60.1 2-68.3 18.5-31 71 13 90.8-15.5 14-19.7-31-63.5 8-55.4 94 19 19-101 14-120.4-9-35.5 14-106 47-121.7 18-9 17-35.5 7-52.8-9.5-17-25-30.6-31-48.9-13.5-54 22-102-36-133.3-5-3-7-9.5-4-14.4 17-26 1-66-32-71.4-22-3-44 9-66.5 6.3C616 247 579.9 178 533 209.1z" style="fill:#2fedc1"/><path d="M335 383c30 83 32 5 73 37.1 15 15.5 23 42 16 61.4-42 113 99.7 118 61 54.2-7-10.9-7.5-29 9-23.3 9.8 3.5 1 18 5 23 9 10 22-5 19-16.2-4-16.5-16-36 10.8-37.3 92-5.5 37 129.5 32 168.5-8.5 59.8 66 95 81 28.5 4-13-5-44 8-50.3 38-5.8 29 79 57 53.4 12-11 29.6-33 39-6.7 6.5 15 17 50.1 38.5 34" style="opacity:.6;fill:none;stroke:#000;stroke-width:10;stroke-linecap:round;stroke-linejoin:round;stroke-miterlimit:10;enable-background:new"/><path d="M782 697.2c-28-63 23-79 24-126.3 78-11 .7-76-6.5-96.5-17-50 24-120-45-146.2 28-27 9-81.5-29.9-83.8-111 20-69.5-13-164-40.6-39.9 5-47 46-138 37.8-24 5-36 40-9 49.7-19 18-55-3-76 29.9-17 26-9 52 7.5 84.6 18 36 27 9 35 5.9 37-13.5 50.5 48 42 78.1-25 91 73 116 67 59.3-1-11-14-22-9-33.3 3-5 11-7.5 15-2.6 4 5-2 13 1 19 8 15 30-2 17-21-29-42 71-54 72 29.9 0 37-19 70-23 106.3-8 75 86 103 78-3.8-2-23.5 15-23 28-10.8 19.6 19.6 9 43 24 51.3 17 9.9 43-67 62 10.2 5.8 25.3 35.5 23.7 27.9 2.9z" style="fill:#ed2fd4"/><style>.st40{fill:none;stroke:#000;stroke-width:10;stroke-linecap:round;stroke-linejoin:round;stroke-miterlimit:10}.st98{opacity:.6;enable-background:new}</style><g id="Outline"><path class="st98" d="M793 537c-1 .7-1 2-.5 3 5 10 11 35 25 30 8-2 21-13 18-22.4-.5-1-2-2-3-1.5-26 12-28-11-39-9.4v.3zm-34 274.5c6 5 26 8 25-3-6-7-20.6-12-21.5-26C750 772 744 803 759 811.5zm-219.3 52s1 .5 1 .8c9 13.5-3 36-18 40-34 6-9-6-6-44 .3-5.3 22.3 2.7 23 3.2zM342 731c5 7-4 22-4 33 8 13 29.6-5 33-14.9 2-12-17-21-28-20.2-1 .1-1 1.1-1 2.1zm31-120.2c2 23-8 47-26 61.9-13 10.9-17.5-30.6-8-27.9 6 4.2 28-18.8 34-34zm-157-59.9c-8 6-17 3-25 1-11 5 4 20 13.5 16 5-4 12-9 12-15.7-.5-.2-1.5-.2-.5-1.3zM337 473c-6-10-3-23 0-34 0-1 0-2-.6-2-9-9-23 11-19.8 20.7C318 463 338 475 337 472.8v.2z"/><path class="st98" d="M326 392c-2 29 24 45 7 44-7 2-14 1-15 11-1 11-24 0-24.5-1.3C285 433 317 404.5 326 392zm103-118c-9.9-4-16-16-18-25-4-6-9.9 1-11 6-7 54 29.5 28 29 19zm293 9c16 21 29.5 12 40 20.7 3 4 1 9.6-1 14-3 9-13 9-20 4.1-14.5-5.8-22-22.2-19-38.8z"/><path class="st40" d="M347 729c53.5 5 15 86 59 102 25 9 37-19.8 55-11.9 23 10.1 19.6 40 24 60.7 9.6 46 63 29.6 58-12.8"/><path class="st40" d="M519 861c89-9 47.5 119 114.5 115 39-6 35-47 25-76.5-3-9 0-18.5 7-24.5 24.5-21 59 15.5 84-2.5 15-11 8-33-2-45-12-15 0-32 10-43"/><path class="st40" d="M790 539c53 69.8-64 71 8 194.5 6 14 11 32 11 48.5 0 32-49 47.5-61 16"/><path class="st40" d="M721 287c2 51 64 31 74 88 6 34-11.5 71 7 103 10 18 27 31.5 34 51 8 19-4 47-27 42"/><path class="st40" d="M407 290.6c-16-8-12-29.9-2-41 17-15 40.5-10 61-6 29.8 1 49-29 75-38 50-17 81 55 133 44 23-5 48-11 69 1 25 14 33 55 10 75"/><path class="st40" d="M428 278c-16 26.5-51 17.5-76 28.5-20 10.5-28 33-23 55 10 47-43 51-39 88m25 4.5c1.5-23 35-26 41-5 7 25-13 47 16 72"/><path class="st40" d="M334 476c-20-34-61-31.5-89-9.6-20 8-43-3-64 4-22 7-28 37-5 43.5 6.5 2 23-2 26-1 15 4 11 25-5 30-21 6-10 29 6 29"/><path class="st40" d="M216 554.5c-15 15-14 41 2 55 37 22 41 31 36 69.7-2 31 46 41 53.5 10 2-10.8-4-22 0-33 13-32 44 20 62-44.5"/><path class="st40" d="M327 647.9c25 29.7-.5 47-7 75-10 32.5 34 65 53 25"/><path d="M729 262.5c9 4 16 13 18 22.5m-193-68c12.5 2 24.5 8 34 16m9 9 3 3m-163 10c-5.5-.9-12 .6-15.5 4M362 319.6c-9 2-14 10.7-16 19M339 449c4 1 6 6 6 9.8M308.5 470c-12-6-16-5-22-4M175 492c1-4 5-7 9-7.5m38 89.5c-4 8 0 16 4 19.9m44 78.6c-1 6 1 15 9 18m76-77.5c-3 14-13 14.5-16 16m4.5 119.5c-5-3-9-9-8-15M397 782c-1 14.5 7 28 14 30m90 53.9c-3 12 2 27 14.5 25M636 957c14-3 17-28 11-38m96-60.1c1-7 0-14-4-19m46-49.1c8-6.5 9-25 3-39M786 582c5-8 3-19-3-26m37-12c2-8.5-.6-18-7-24m-56-169c18 6 22 30 21 35" style="opacity:.7882;fill:none;stroke:#fff;stroke-width:10;stroke-linecap:round;stroke-linejoin:round;stroke-miterlimit:10;enable-background:new"/></g><defs><linearGradient id="axf" x1="741.04" y1="835.98" x2="725.62" y2="701.22" gradientUnits="userSpaceOnUse"><stop offset="0" stop-color="#ff9d00"/><stop offset=".12" stop-color="#ff9306"/><stop offset=".33" stop-color="#ff7915"/><stop offset=".6" stop-color="#ff4d2d"/><stop offset=".91" stop-color="#ff124f"/><stop offset="1" stop-color="#ff0059"/></linearGradient><linearGradient id="axf-2" x1="840.33" y1="761.07" x2="812.15" y2="763.18" gradientUnits="userSpaceOnUse"><stop offset="0" stop-color="#ff1e00"/><stop offset=".09" stop-color="#fe1c0e"/><stop offset=".27" stop-color="#fc1833"/><stop offset=".51" stop-color="#f81170"/><stop offset=".8" stop-color="#f207c2"/><stop offset="1" stop-color="#e0f"/></linearGradient><linearGradient id="axf-3" x1="851.73" y1="625.07" x2="951.68" y2="625.07" gradientUnits="userSpaceOnUse"><stop offset="0" stop-color="red"/><stop offset="1" stop-color="#ff0"/></linearGradient><style>.axf-3,.axf-5,.axf-6{fill:none}.axf-3,.axf-5{stroke:#000}.axf-3,.axf-5,.axf-6{stroke-linecap:round;stroke-linejoin:round;stroke-width:10px}.axf-5{opacity:.6}.axf-6{stroke:#fff}</style></defs><path d="M626.2 736.3a94.1 94.1 0 0 0 7.1 68.7 146.4 146.4 0 0 0 66.9 2.7c14.9 7 32.9 7.4 49.6.4a55.6 55.6 0 0 0 44.8-5.5c71 22.1 69.7-119.3-40.3-69.2-14.7-9.5-31.7-1.9-46.5 4.7-15.3-11.1-36.9-5.8-51.3 4.4-10.1-4.5-18.2-7-30.3-6.2Z" style="fill:url(#axf)"/><path d="M818.5 729.1c-17.3 15.2 1.6 86.9 18.1 60.8 7.6-18.7 8.5-60.1-18.1-60.8Z" style="fill:url(#axf-2)"/><path class="axf-3" d="M625.3 728.3a141 141 0 0 0 6.8 86.1m-6-77.4c62.6-13.9 46.9 106.1 121.9 71.9"/><path class="axf-3" d="M657.1 740.2c89-44.8 53.7 106.8 138.6 64.1"/><path class="axf-3" d="M709.7 738c70.8-48.9 55.1 96.5 119.8 61.7 18.6-14.4 16.2-45.9 3.8-63.1s-65.2-16.3-78.5-3.3"/><path class="axf-3" d="M816.1 727c-9.7 22.5-6 53.7 12.1 71m-249.5-43.7c-.2-77.7 64.5-105.5 90.1-22.2m-86.5 66.4c2.2 71.9 77.8 92.6 88.3 13.5"/><path d="M851.7 729c21.7-11.6 3.3-31 4.3-47.8.6-11.4 11.9-15.7 16.8-26 7.3-15.5-4.7-21.1-4.7-35.1s10.4-20.6 10-34.5c-3.7-112.1 118.9-57.6 55.2 6.1-39.2 39.2 11.1 43.8-9.3 76.2-6.3 10-20.8 14.7-23.1 26.3-4.6 23.5-26.3 37.1-49.2 34.8Z" style="fill:url(#axf-3);stroke-linecap:round;stroke-linejoin:round;stroke-width:10px;stroke:#000"/><path class="axf-3" d="M630 804.4c20.9 7.2 50.4 8.8 72.2 2.9"/><path class="axf-5" d="M615.1 682.5c-26.5 1.4-46.5 46-36.4 71.8m3.6 44.2c-9.7 36.6 29.6 85.2 64.9 59.1"/><path class="axf-6" d="M641 707.2a56.3 56.3 0 0 1 9.2 16.6m-19.3-26.6-3.3-1M655 824.5a36.6 36.6 0 0 1-12.7 18.4"/><path class="axf-5" d="M630 740.3c-6 20.1-.6 42.8 4.4 62.6a2.4 2.4 0 0 0-.2-.8m38.7-38.6c6.7 16.4 6 31.7 18.2 42.1m30.5-45.6c8.2 18.3 4.8 36.4 20.5 47m29.3-44.5c7.4 18.9.7 32 17.1 39.6m32.2-70c-7.5 19.4-4.4 44.9 10.2 60.3m-70.4-60.6c21.2 18.8 22.4 69.7 59.2 65.2m-148.4 20.8c9-.4 17.9-2 29.1-3.6 15.5 7.7 21.6 10.4 38.6 2.9"/><path class="axf-6" d="M644.6 748.9a37.2 37.2 0 0 1 13.3 13.7m29.5-18.9a28.4 28.4 0 0 1 17.5 12.6m31.8-16.4a26.2 26.2 0 0 1 12.7 10.5m33.6-13.2c4.6-1.8 9.8-1.2 14.8-.7h.2c0 .1-.2.1-.1 0M931.6 539a21.6 21.6 0 0 1 3.4 21.3m-6.4 11.9-1.5 2m-13.8 69.9a12.8 12.8 0 0 1 2.1 13m-28.8 39.1a19.9 19.9 0 0 1-6.8 11"/><linearGradient id="a18" gradientUnits="userSpaceOnUse" x1="567.997" y1="610.614" x2="741.994" y2="610.614" gradientTransform="matrix(1 0 0 -1 0 1100)"><stop offset="0" style="stop-color:#0ff"/><stop offset=".5" style="stop-color:#ff03af"/><stop offset="1" style="stop-color:#0095ff"/></linearGradient><path style="fill:url(#a18);stroke:#000;stroke-width:10;stroke-linecap:round;stroke-linejoin:round;stroke-miterlimit:10" d="M569 425c-9 24 89 51 74 72-2 3-21-4-26 10.9-10 32 104 76 123 50.3 13-18.5-63-39.9-57-59.9 3-11 38 1 45-15.9 11-26.5-143-97-159-57.7v.3z"/><linearGradient id="b7" gradientUnits="userSpaceOnUse" x1="393.997" y1="591.618" x2="567.994" y2="591.618" gradientTransform="matrix(1 0 0 -1 0 1100)"><stop offset="0" style="stop-color:#0ff"/><stop offset=".5" style="stop-color:#f700ba"/><stop offset="1" style="stop-color:#0095ff"/></linearGradient><path style="fill:url(#b7);stroke:#000;stroke-width:10;stroke-linecap:round;stroke-linejoin:round;stroke-miterlimit:10" d="M395 444c-9 24 89 51 74 72-2 3-21-4-26 10.9-10 32 104 76 123 50.3 13-18.5-63-39.9-57-59.9 3-11 38 1 45-15.9 12-27-143-97-159-57.7v.3z"/><path d="M393 442.5c-12 31 55 49 71 66 2.5 10-11 2-16 3-12 1-15 17-10 26.1 11 22 37 33 58.5 43.5 25 12 56 15 70.7-4M568 419c-27 38 87 60 65 74-83 9 78 112 108 65" style="opacity:.6;stroke:#000;enable-background:new;fill:none;stroke-width:10;stroke-linecap:round;stroke-linejoin:round;stroke-miterlimit:10"/><path d="M469.6 457c20.5 5 39.9 14 57 27M646 439c18 6 35 15 49 27m-2 63c8.5 3 16 8 23 14l1 1m-203 1c11 5 21 12 29.6 20" style="fill:none;stroke:#fff;stroke-width:10;stroke-linecap:round;stroke-linejoin:round;stroke-miterlimit:10"/><style>.st231{fill:none;stroke:#000;stroke-width:10;stroke-linecap:round;stroke-linejoin:round;stroke-miterlimit:10}</style><g id="Layer_69"><path d="M357 479c41.5-7 15.5-83 75-83.3 64-.6 56-52 173-19 36 10 64.5-10 81-11 34-1.5 77 67 108 4.7-1-6-3.5-12-7-16.9 7 10.9 10.7 24 11 36.5 27.5-15.5 8-44 7-52-3-29 24-47-10-71.1-63-44 6-91-33.5-132.8-14-15-39 3-40.7 19.4-1 10.6 6 20 10 30 16 38.5-25 58-46.5 21.6-24-47-38-40-87-34.4-36 4-29-30.8-48-43-20.9-7-44 15-47 34.7-2 13 3 26 1 38.5-3 20-26 13-31.5-2.4-8-22-5-51-25-66.8-19-14-47 .9-47 24.4 0 9.6 5 18.5 10 26.5 40 59 0 65.5-9.6 57-5-5-7-14-14-14.9-17-.9-10 24-18 30.1-5 3.5-12-1-15-6.8-4-10 5-28-13-32.1-38-8-54 56-40.9 90.8 15 40-13 44-20.5 37.8-8.5-7 0-27-17-27.9-29.6-2-42 46-31 71.7 9.6 22 35 39 35 65.3 15-13 40.6-4 55.5 5.7-26.3-28.4 50.2-49.8 35.7 19.7z" style="fill:#3bed94"/><path class="st231" d="M315 454c1.5-23 35-26 41-5 7 25-13 47 16 72.4"/><path class="st231" d="M334 475.6c-20-34-61-31.5-89-9.6-20 8-43-3-64 4.1-22 7-28 37.5-5 43.5 6.5 2 23-2 26-1.1 15 4 11 25-5 30.1-21 6-10 29 6 29"/><path class="st231" d="M357 479c41.5-7 15.5-83 75-83.3 64-.6 56-52 173-19 36 10 64.5-10 81-11 34-1.5 77 67 108 4.7-1-6-3.5-12-7-16.9 7 10.9 10.7 24 11 36.5 27.5-15.5 8-44 7-52-3-29 24-47-10-71.1-63-44 6-91-33.5-132.8-14-15-39 3-40.7 19.4-1 10.6 6 20 10 30 16 38.5-25 58-46.5 21.6-24-47-38-40-87-34.4-36 4-29-30.8-48-43-20.9-7-44 15-47 34.7-2 13 3 26 1 38.5-3 20-26 13-31.5-2.4-8-22-5-51-25-66.8-19-14-47 .9-47 24.4 0 9.6 5 18.5 10 26.5 40 59 0 65.5-9.6 57-5-5-7-14-14-14.9-17-.9-10 24-18 30.1-5 3.5-12-1-15-6.8-4-10 5-28-13-32.1-38-8-54 56-40.9 90.8 15 40-13 44-20.5 37.8-8.5-7 0-27-17-27.9-29.6-2-42 46-31 71.7 9.6 22 35 39 34 64.9"/><path d="M795 382.6c-36 44-83-4-101-8.6-22.5-5-45 14-68 10.4-79-12-89-22-172 13.6-16 7-35 4-49 15-22 18-15 66-48 72.9" style="opacity:.6;fill:none;stroke:#000;stroke-width:10;stroke-linecap:round;stroke-linejoin:round;stroke-miterlimit:10;enable-background:new"/><path d="M750.5 143.7c4 5 7 12 7 18.7m.5 14.2v5m28 96.1c6 3 10 9 12 15M644.5 179.6c9 3 15 11 19.5 18.7m6.5 11.6c1 2 2 3 2.5 5M538 140c6 1 11 5 14 10.3m4 12c.5 1 1 2 1.5 3.6m-126.6-25.8c7 .9 14 6 17 12.4m2 12.5c.6 2 1 4 2 5.7M325 236c-9.6 9-12 23-13 35.5m0 14.5c0 3 0 5 .6 7.8M249.7 340c-6 9-8 21-5 31.6m6 14.2c.9 2 2 3 3 5.1M768 378.6c-7 2-14 1-20-2.9m-13-7.9c-1-.9-3-2-4-2.7m-118-4.6c12 2 24 2 36-1.8m-210 19.8c12-.5 23-4 33-10m-46 12.1c-2 0-3.5 0-5 .4" style="stroke:#fff;fill:none;stroke-width:10;stroke-linecap:round;stroke-linejoin:round;stroke-miterlimit:10"/></g><circle cx="550" cy="550" r="500" style="fill:none;stroke:#000;stroke-width:10;stroke-linecap:round;stroke-linejoin:round;stroke-miterlimit:10"/></svg>