<svg version="1.1" id="Layer_1" xmlns="http://www.w3.org/2000/svg" x="0" y="0" viewBox="0 0 1100 1100" style="enable-background:new 0 0 1100 1100" xml:space="preserve" xmlns:xlink="http://www.w3.org/1999/xlink"><style>.st17{fill:none;stroke-width:10;stroke-linecap:round;stroke-linejoin:round;stroke-miterlimit:10;stroke:#b5d7fc}</style><g id="clouds"><circle cx="549.5" cy="550" r="500" style="fill:#48aaf1"/><path d="M609 832.7c17 31 34 34 65 19.5 13 7.5 28 11 44 11.2-4 35.8 47 49.8 59 15.4 3.5 5 9.6-.1 40 7.4 48.5 12 55-70 2-66.1-5-11-14-20.8-25-26.3 3-18 12-35 13-53-2-21-17-35-38.5-24.3-9-8-22-8.5-36-9.1 14-23-67-49.5-62 19.7-14 2-28 9.5-37 21.8C575.8 702 534 836 609 832.7zM311 906c5 16 21 27 38 26.3 5 9 33 46 56 20.9 47 22 63-31.5 21-52.4-6-18-21-30-38-39.6 5-34-35-42-53-15.9-59-31.3-88 58.2-24 60.7zm68-193.5c6 33-38 52-64 37.3-9.8 21-39.7 26-56 10.3-9 6-17 10.6-25.5 14.8 5 37.5-32 62-50 20-6 4-14 5-21 3.1-5 11-13 22-25 25.5-18-2-88-142-69-177.7 12-22 37-30.1 59-17.3 2.5-13 8.5-25 17-33.6-7-41.5 33-58 53.5-21.3 22 1 38 15 48 32.9 14-9 86-56 108 9.2 20.7-9.8 33-8 52 4.3 37-9 55 42.5 16 52.5-17 3.3-1 20.5-43 40zM215 322.3c29 36 85-24 51-52.4 25-34-15-60.9-42-32.7-.7-18-12-34-29-38.1-27.5 25-51 55-69 88 8 12 22 19 37 18.6 5 22.3 34 31.3 52 16.6zm396-190.9c-36 17-16 83.5 42 51.9 25 28 59.6-38 23-65.6-1-27.7-65-66.7-65 13.7zm378 181.5c-20-10-42-5-61 7.2-15-13-37-3-47 11.7-14-22.5-70.7-16-32 39.6-8 12-12 26-7 41.3-42 11-29 65 6 77.1 9.9 3 39 56 70 9.9 9.7 6 22 7 33 2.7 5.8 12 24 10 33 19.7 14 23 41 25.5 65 18.1 0-79.2-24-157.2-60-227.3z" style="fill:#e8f4fe"/><path d="M695.5 698.2c-5 4-8 10.6-9 17M688 729v3m-104 51c0 9 2 17 6 25m-.1-42 4.1-4m39.5 83.6c7 4 15 4 22 0M666 839l1.5-2m62.5 30.5c.5 7 6 13 13 15m13 .5 2.5-1m71.5-47.2c6.5 2 11 9 12 16m-2 13.8c-.1 1 0 2-1 3m-44-134.8c2 5 1 11-1.5 16M784 757l-2 1m-32-37.5c3 1 6.5 3 8.5 6M289 866.1c-5 15 2 23 13 26m-6-37c0-1 1-2 2-2m75-9.5c3 3 4 9 3 13m-7 10.4-2 1.5m60 47.9c5 3 9.7 8 10 14m-7.1 15.1c1 0 2-1 3-2m-72.4-14.9c2 6 6.5 11.5 12 15m27-60.2c3 2 5 4 6.5 7m-94-294.6c-14.5-2-29.6 3-40 13m55-8.3c1 0 3 1 4 2m84 30.1c5 1 10 3 12 8m0 11.4-1 4m-36.2 34.7c-5 4-11 6-17 7m-7.8 30.6c-4 5-9 8-15 10m-11 3.7h-3m-70 3c1 6 7 11.5 13 12m12-2h2m-72 31.4c-1 5-3 10-7 13m-40-232.1c5 3 9 9 9.8 15m28.2 7.6c5 3 9.9 8 13 13m-123 33.4c6 0 12 2.5 16.5 6m8.5 9.7 2 3m828-332.9c7-.5 13 1 19 4m-55 11.2c0-5-3-9-8-10M861 361c-6-1.5-11-6-13-12m-18.5 101c2 12.5 14.5 22 26 24m-25.6-38.9c0-2 2-3 3-4m66.8 51.8c3 5 2 12-2 16m-16.7 5.2c1 1 2 1 3 1m86-1.4c5 2.5 10.5 3 15.8 2m20.2 21.5c5 4 12 4 19 4M853 400.1c-2-4-1-9 1-13M671 131c7 7 11 18 8 28m-6 11.9c-1 1-1 2-2 3m-56 6.1c8 3 16-1 21-7m6-10.1c0-1 .7-2 .9-3M641 96.3c-9 2-15.5 10.5-15 19.5m1.5 12.2.5 1.6m-430 86.6c5 5 8 11 9 18m3.8 11.8.2 3m49-5.9c2 3 3 8 1 11m3 45.8c-3 14-19.8 25-33 16m-6-9.6c-.9-.7-1-2-1-3m-33 14.8c-5-1-9-4-11-8.5m-5-10.8c0-1-.6-2-.7-3m-24.6-3.5c-4-1-7-4-9.5-7m7.8 506.8c-2 5-6 9-11 12" style="fill:none;stroke:#fff;stroke-width:10;stroke-linecap:round;stroke-linejoin:round;stroke-miterlimit:10"/><path class="st17" d="M62.5 658.3c7-44 62-48 81-9.6"/><path class="st17" d="M128.5 627.7c-2-13 4-26 15-33m15.5 11.2c-26-10-18-52 8-54.4 23-2 41 30.1 27 49"/><path class="st17" d="M197 574.1c22-2 42 19 50 38"/><path class="st17" d="M239 627.8c26-69.6 136-57 111.5 15"/><path class="st17" d="M355 617.9c10.9-14 39.7-11 48 5"/><path class="st17" d="M395 634.5c5-25.5 47-13 48 8.3 1 26-27 40.8-45 24"/><path class="st17" d="M417 674.2c-9 23-33 42-58 36"/><path class="st17" d="M379 711c9.7 33-38 56.5-63.5 38"/><path class="st17" d="M310.5 720.6c17 26-10 59.6-41 48.2-16-6-22-32-12-46"/><path class="st17" d="M256 756.9c-5.5 8.5-14 15-23 19"/><path class="st17" d="M219 767.6c34 12 3 63-22 48.2-8-5-14-14-14-23"/><path class="st17" d="M192 782.3c-6 9.6-16 16-27 17m-3-11.8c0 16-12 31.5-27 36.5m199.5 20.7c-41-21.5-63 13-60.5 33.2 3 25.5 37 39.9 54 17.5"/><path class="st17" d="M310.5 907.9c6 15 21 25 37 25"/><path class="st17" d="M348 921.2c-2 29 32 49 56 34m-66-85.7c-14-16 5.5-39 24-40.8 29.9-3 39 36.5 13 49"/><path class="st17" d="M388 864.5c18 3 34 17 39.5 35m-27.7 41.3c8 23 42 24 51 .7 8-22-23-49.9-43-34m201.2-73c14 37 69 37 73-5"/><path class="st17" d="M675 850.7c10 11 27 15 41 10.9m13-13.6c-21 13.5-9.6 46 13 49.7 25 7 47-23 23-39m12.5 18.3c7 4.5 16 5 23 2"/><path class="st17" d="M795 867.6c9.8 31 53 28 60.9-2.9 10-29.9-26-59-49-34"/><path class="st17" d="M818 821.3c-2-14-15-25-29-25"/><path class="st17" d="M777 805.6c13-6 22-19 23-33m-182 52.2c-39 30-64-37-43-64.8 37-48 70-1 69 17"/><path class="st17" d="M634 751.8c2-15 24-25 38-22"/><path class="st17" d="M682 746.8c-20-24-9-65 25-65.4 26.5-.5 35 34 21 53"/><path class="st17" d="M736 709c16-6 35 5 38.5 22"/><path class="st17" d="M782 773.1c47-9 29.8-78.5-14-55m92.1-225.7c9 52 89 17 43-24"/><path class="st17" d="M918 495c7 11 22 14 34 9m-3-11.8c4.5 19.9 27 32 46 26m-12 4.1c8 26 41.5 27 63 18m-173-52.6c-19.9 14-48.5-8-56-27.7-12-30.1 19-60 47-41"/><path class="st17" d="M844 410.8c-7-13-4-30 7-39"/><path class="st17" d="M868 375.5c-26 2-46-34-25-51.6 13-9 35-5 39 12"/><path class="st17" d="M889 352.4c-13-13-2-36 15-38.5 31.5-4 36 26.5 25 36m2-30c10.6-16 39.5-15.8 55-7m-859-23.8c7 12 22 19 35.5 16"/><path class="st17" d="M161 291.3c-4 29.6 32.5 54 53 28"/><path class="st17" d="M212 308c1 23 30 32 47 19.3 22.5-15 28-57-6-60m14-.2c27-28-19.6-58-40.9-29m-.6 12.7c-2-19-7-44-28-51M611 131.6c-21 5-23 33-13 48.8 17 27 60.1 11 57.5-20"/><path class="st17" d="M651 180.9c11 17 34 5 39-10.8 12-26-7.5-59-37-59"/><path class="st17" d="M621 141.6c-38-46.5 44-87 52-28"/></g><path d="M532 207.7c-68 59.6-71 20-121 36.5-19.6 10.9-14 30-9.7 39.6 11 23-51 9-69 40.3-10 18 .1 42-7.5 61.8-9 19.6-34 35-37 52.2-43 48-154 7-119 70.4 6 11 33-6 39 9.1 7 17.5-39 29-21 46.7 18 5 21 39.9 57 63.2 14 20 3 51 19 69.1 35.8 38 46-25 41-34.3 4-39 44-11 22 38.7-23 52 11 74 36.5 56.6 24-9 13 39 23 50.9 19.5 37 55 12 67 12 18 1 28 22 29.8 40.3 6.5 63 54 46 59 8 15.5-34 45 49 47 59.9 11 73 69 42 71 17.9 3-54-3-60.1 2-68.3 18.5-31 71 13 90.8-15.5 14-19.7-31-63.5 8-55.4 94 19 19-101 14-120.4-9-35.5 14-106 47-121.7 18-9 17-35.5 7-52.8-9.5-17-25-30.6-31-48.9-13.5-54 22-102-36-133.3-5-3-7-9.5-4-14.4 17-26 1-66-32-71.4-22-3-44 9-66.5 6.3C615 246 579 177 532 207.7z" style="fill:#009dff"/><linearGradient id="a5" gradientUnits="userSpaceOnUse" x1="381.071" y1="365.002" x2="511.347" y2="365.002" gradientTransform="matrix(1 0 0 -1 0 1100)"><stop offset="0" style="stop-color:#c517ff"/><stop offset="1" style="stop-color:#ff1751"/></linearGradient><path style="fill:url(#a5)" d="M381 766.7c29-5 16-38 23.5-55.9 5-12 38-28 21-55 16 5 19 22 17 37.1-1.5 16 23 11 25-12.6 2.5-28 7-46.5 33-60.3-19 31 22.5 46 5.5 76.6-11 19-30.1 35-33 57.7-3 18 21 19 23 2.2 19 43-20 21-5 70.2 3 8-1 18.5-8 23.2-30-96.4-85 60.1-102-83.2z"/><linearGradient id="b2" gradientUnits="userSpaceOnUse" x1="566.921" y1="265.744" x2="809.398" y2="265.744" gradientTransform="matrix(1 0 0 -1 0 1100)"><stop offset="0" style="stop-color:#c517ff"/><stop offset="1" style="stop-color:#ff1751"/></linearGradient><path style="fill:url(#b2)" d="M660 882.5c21-37 76 16 97.5-22.4 8-24-21-40-10-55.2 33.5 32.5 88-14 47-80.7-16-1-19.8 25.5-36 2.2-21-15-58 12-53-34.7-4 7-12 12-14 19.7-2 9 10.1 31-4.5 30.9-15 0-18-6-30 6.2 51 2 49 91 19 53.7-6-7-11-14-22-14.4 23.5 25-13 61-25 23.6-12-38.5-17-63-62-48.6 54.5 11 1 67 11 27.3-30 49 28.5 69 2 103.3 32 140.6 104.5 79.6 80-10.9z"/><linearGradient id="c2" gradientUnits="userSpaceOnUse" x1="597.551" y1="561.092" x2="839.931" y2="561.092" gradientTransform="matrix(1 0 0 -1 0 1100)"><stop offset="0" style="stop-color:#c517ff"/><stop offset="1" style="stop-color:#ff1751"/></linearGradient><path style="fill:url(#c2)" d="M794 422.3c-27 46-87-10.9-124 69.1 29.8-26 38.5 15 5 21.8-44 .9-71 23-77 67 43-73 108 16 49 7.8 37 22 68-28 99-14.2 21 17-4 46-26 32.4 13 30.1 45.5-3 44.5 40.7 1 4 4 9 9 8.7 3-30 32-54 32-85.8C894 558.5 784 495 794 422.3z"/><linearGradient id="d2" gradientUnits="userSpaceOnUse" x1="213.681" y1="470.314" x2="342.252" y2="470.314" gradientTransform="matrix(1 0 0 -1 0 1100)"><stop offset="0" style="stop-color:#c517ff"/><stop offset="1" style="stop-color:#ff1751"/></linearGradient><path style="fill:url(#d2)" d="M214 599c.8-9 12-10 19.7-10.7 17-2 32.5-17 29.5-34.6 16.5 14.5 11 34 11 53 5 35 58 29 45-6.3 10 9.7 32 32 18 45.1-52-4-23 26-32 47.1-11 20-45.8 16-50-7.2 4.8-49.6-.2-55.9-41.2-86.4z"/><linearGradient id="e2" gradientUnits="userSpaceOnUse" x1="327.601" y1="625.422" x2="651.361" y2="625.422" gradientTransform="matrix(1 0 0 -1 0 1100)"><stop offset="0" style="stop-color:#c517ff"/><stop offset="1" style="stop-color:#ff1751"/></linearGradient><path style="fill:url(#e2)" d="M328 390.7c43 2 75 48 61 88.9 16-1 18-31 34-32.6 46 8-18 113 75 149.8-25-25-3-59 19-30.7 55 61-4 134 82 148.8-39-39 5-66 13-38.5 13.5-20-8-40.6-24-52.2-40.9-30.8-43-93 13-103.9-43-2-41-34-26-43.2 16-10 40 51 76.5 10.7-34 0-3-60.5-59-66.7-26 0-49.9 22-77 14.5-54-15.8.5-66 3-29.6 13-16 .9-34-17-39.1-81-21 23-103-8-132.6-30 13-125.5-11-85 58.1C341 303 328 308 328 390.7z"/><linearGradient id="f2" gradientUnits="userSpaceOnUse" x1="590.061" y1="760.677" x2="766.959" y2="760.677" gradientTransform="matrix(1 0 0 -1 0 1100)"><stop offset="0" style="stop-color:#c517ff"/><stop offset="1" style="stop-color:#ff1751"/></linearGradient><path style="fill:url(#f2)" d="M610 229.1c27 44-45 63-9.8 119.3-3-52 47 2-10 28.5 45 11 37-37.5 70.9-35.7 23 1 31 28 22.5 47.5-11 19-15 44 2 60.7-8-59.8 53-36 53-82.4 0-9-3-19 3-25.2 6-5 16-4 20.5-9.4C739 345 835 216 649 248.5c-13.5-5.5-24-14.5-39-19.4z"/><style>.st40{fill:none;stroke:#000;stroke-width:10;stroke-linecap:round;stroke-linejoin:round;stroke-miterlimit:10}.st98{opacity:.6;enable-background:new}</style><g id="Outline"><path class="st98" d="M793 537c-1 .7-1 2-.5 3 5 10 11 35 25 30 8-2 21-13 18-22.4-.5-1-2-2-3-1.5-26 12-28-11-39-9.4v.3zm-34 274.5c6 5 26 8 25-3-6-7-20.6-12-21.5-26C750 772 744 803 759 811.5zm-219.3 52s1 .5 1 .8c9 13.5-3 36-18 40-34 6-9-6-6-44 .3-5.3 22.3 2.7 23 3.2zM342 731c5 7-4 22-4 33 8 13 29.6-5 33-14.9 2-12-17-21-28-20.2-1 .1-1 1.1-1 2.1zm31-120.2c2 23-8 47-26 61.9-13 10.9-17.5-30.6-8-27.9 6 4.2 28-18.8 34-34zm-157-59.9c-8 6-17 3-25 1-11 5 4 20 13.5 16 5-4 12-9 12-15.7-.5-.2-1.5-.2-.5-1.3zM337 473c-6-10-3-23 0-34 0-1 0-2-.6-2-9-9-23 11-19.8 20.7C318 463 338 475 337 472.8v.2z"/><path class="st98" d="M326 392c-2 29 24 45 7 44-7 2-14 1-15 11-1 11-24 0-24.5-1.3C285 433 317 404.5 326 392zm103-118c-9.9-4-16-16-18-25-4-6-9.9 1-11 6-7 54 29.5 28 29 19zm293 9c16 21 29.5 12 40 20.7 3 4 1 9.6-1 14-3 9-13 9-20 4.1-14.5-5.8-22-22.2-19-38.8z"/><path class="st40" d="M347 729c53.5 5 15 86 59 102 25 9 37-19.8 55-11.9 23 10.1 19.6 40 24 60.7 9.6 46 63 29.6 58-12.8"/><path class="st40" d="M519 861c89-9 47.5 119 114.5 115 39-6 35-47 25-76.5-3-9 0-18.5 7-24.5 24.5-21 59 15.5 84-2.5 15-11 8-33-2-45-12-15 0-32 10-43"/><path class="st40" d="M790 539c53 69.8-64 71 8 194.5 6 14 11 32 11 48.5 0 32-49 47.5-61 16"/><path class="st40" d="M721 287c2 51 64 31 74 88 6 34-11.5 71 7 103 10 18 27 31.5 34 51 8 19-4 47-27 42"/><path class="st40" d="M407 290.6c-16-8-12-29.9-2-41 17-15 40.5-10 61-6 29.8 1 49-29 75-38 50-17 81 55 133 44 23-5 48-11 69 1 25 14 33 55 10 75"/><path class="st40" d="M428 278c-16 26.5-51 17.5-76 28.5-20 10.5-28 33-23 55 10 47-43 51-39 88m25 4.5c1.5-23 35-26 41-5 7 25-13 47 16 72"/><path class="st40" d="M334 476c-20-34-61-31.5-89-9.6-20 8-43-3-64 4-22 7-28 37-5 43.5 6.5 2 23-2 26-1 15 4 11 25-5 30-21 6-10 29 6 29"/><path class="st40" d="M216 554.5c-15 15-14 41 2 55 37 22 41 31 36 69.7-2 31 46 41 53.5 10 2-10.8-4-22 0-33 13-32 44 20 62-44.5"/><path class="st40" d="M327 647.9c25 29.7-.5 47-7 75-10 32.5 34 65 53 25"/><path d="M729 262.5c9 4 16 13 18 22.5m-193-68c12.5 2 24.5 8 34 16m9 9 3 3m-163 10c-5.5-.9-12 .6-15.5 4M362 319.6c-9 2-14 10.7-16 19M339 449c4 1 6 6 6 9.8M308.5 470c-12-6-16-5-22-4M175 492c1-4 5-7 9-7.5m38 89.5c-4 8 0 16 4 19.9m44 78.6c-1 6 1 15 9 18m76-77.5c-3 14-13 14.5-16 16m4.5 119.5c-5-3-9-9-8-15M397 782c-1 14.5 7 28 14 30m90 53.9c-3 12 2 27 14.5 25M636 957c14-3 17-28 11-38m96-60.1c1-7 0-14-4-19m46-49.1c8-6.5 9-25 3-39M786 582c5-8 3-19-3-26m37-12c2-8.5-.6-18-7-24m-56-169c18 6 22 30 21 35" style="opacity:.7882;fill:none;stroke:#fff;stroke-width:10;stroke-linecap:round;stroke-linejoin:round;stroke-miterlimit:10;enable-background:new"/></g><defs><linearGradient id="zag" x1="638.52" y1="776.5" x2="875.8" y2="776.5" gradientUnits="userSpaceOnUse"><stop offset="0" stop-color="#17ffaa"/><stop offset="1" stop-color="#ffff17"/></linearGradient><linearGradient id="zag-2" x1="841.11" y1="758.37" x2="880.76" y2="761.1" gradientUnits="userSpaceOnUse"><stop offset="0" stop-color="#ff1726"/><stop offset="1" stop-color="#fff017"/></linearGradient><linearGradient id="zag-3" x1="882.79" y1="580.8" x2="875.4" y2="723.92" gradientUnits="userSpaceOnUse"><stop offset="0" stop-color="#fb17ff"/><stop offset=".15" stop-color="#fb17e3"/><stop offset=".47" stop-color="#fd179d"/><stop offset=".93" stop-color="#ff172d"/><stop offset="1" stop-color="#ff171b"/></linearGradient><style>.zag-3,.zag-7{fill:none}.zag-3{stroke:#000}.zag-3,.zag-7{stroke-linecap:round;stroke-linejoin:round}.zag-3{stroke-width:10px}.zag-7{stroke:#fff;stroke-width:6px}</style></defs><path d="M640.3 753.4c-8.3 43.3 13.3 40.2 47.2 47.4 23.5 8.7 69.4 20.7 93.2 11.7 67.7 40.5 151.2-100.7 43.1-76.6-23.7 8.5-48.5 1.2-72.5 8.1-36.7 21.1-70.6 19.9-111 9.4Z" style="fill:url(#zag)"/><path d="M847.7 732.2c5.3 19.7-19.2 34.8 2.5 53.1 31.1 14.3 37.8-60.9-2.5-53.1Z" style="fill:url(#zag-2)"/><path class="zag-3" d="M640.3 755c39.4-4.4 40 60.7 83.4 55.8"/><path class="zag-3" d="M659.7 757.4a80 80 0 0 1 39.7 7.6m-54.7 24.2c12.8 5.5 26 10.9 39.9 11.1 2.8.1 5.6-.1 8.4.1m86.6 12.3c-15.6 7-35.1 5.7-50.4-2.2-13.5-12.7-15.9-34.4-29.8-47.3 12.3-5.7 28.2-6.9 40.9-2 24.9 9.5 24.7 47.4 50.3 55.1 29.8 9 52.4.1 71.5-25.4 9.8-13.2 21.7-31.8 11.4-47.1-17.9-26.6-60.7-.5-87-1.2"/><path class="zag-3" d="M848.1 732c-4.7 3.6 4.6 9.1-5.1 25-7.7 12.6 1.3 31.9 16.9 32.4"/><path d="M861.7 704.3c1.5 19.1 25.4 19.7 24.4-13.6-1-31.4 37.5-39.2 25.1-82.2-8.2-28.8-47.4-20.7-34.5 9.3 2.4 5.5 7.9 10.3 6.8 16.2s-9.8 9-14.2 4c-3.1-3.5-3.2-9.5-7.2-12-8.4-5.3-24.8 11.9-9 31.6 11.9 14.8 7 26.6 8.6 46.7Z" style="fill:url(#zag-3);stroke-width:10px;stroke-linecap:round;stroke-linejoin:round;stroke:#000"/><path class="zag-3" d="M640.5 742.5c-4.3 18.7-1.4 38.2 1.8 57.1"/><path class="zag-3" d="M582.2 761.4C570 663.5 673.6 655 673.6 755m.7 45.8c4.6 84.1-87.2 86.6-87.2 7.8m140.2-52.5c56.6-35.3 93.1-6 112.2 52.1"/><path d="M581.5 762.4c-13-32.9 2.9-79.3 40.4-78.4M646 787.9c-2.3-10.5-6-30.5 10.2-25.5 7.1 2.2 17 24.6 27.3 33.6m13-31c11.1 11.4 13.9 28.7 24.3 40.6m6.5-47.2c26.2 5.8 28.8 38.2 47.3 52.4m29.7-66c16.6 11.6 32.5 29.3 37.6 49 3.4 13.6 16.1-1.1 4.1-1.7m3.9-57.7c3.4 20.5-17 39.5 10.8 52m-273.6 22.2c-8.6 36.3 29.6 78.8 63.3 51.6" style="opacity:.6;stroke-width:10px;stroke-linecap:round;stroke-linejoin:round;stroke:#000;fill:none"/><path d="M633.6 701.4c9.5 0 16.9 9.5 19.3 18.7m4.1 13.2.8 4.4m2.1 74.9c1.3 9.8-1.5 19.3-9.5 28m-10.4 8.6-1.7.7" style="stroke:#fff;stroke-width:10px;stroke-linecap:round;stroke-linejoin:round;fill:none"/><path class="zag-7" d="M655.5 783.8c1.9.9 3.8 1.6 5.7 2.3m6.8 2.8 1.9.4m23.5-4a48.2 48.2 0 0 0 12 13m21.3-8.9c2.6 5.9 6.2 11.9 11.4 13.1m49.2-49.2c7.6 3.7 15.4 8.1 19.6 15.4m3.6 5.9 1 1.9M781 796.2c2.5 5.3 7.9 8.7 13.5 10.5m8.2 2.1 1.8.5m86.1-207.5a10.6 10.6 0 0 1 9.2 7.5m2.9 7.7.2 1.3"/><path d="M855.5 639.6c-1.3 3.3.6 6.9 2.4 9.8" style="stroke-width:5px;stroke:#fff;stroke-linecap:round;stroke-linejoin:round;fill:none"/><path class="zag-7" d="m744.8 805.3 1.8.2m-58.5-27.4.9 1.2"/><defs><linearGradient id="zj" x1="629.68" y1="468.83" x2="1049.01" y2="468.83" gradientUnits="userSpaceOnUse"><stop offset="0" stop-color="#0ff"/><stop offset="1" stop-color="#5eff00"/></linearGradient><linearGradient id="zj-2" x1="440.74" y1="521" x2="1065.73" y2="456.07" gradientUnits="userSpaceOnUse"><stop offset="0" stop-color="#00eaff"/><stop offset=".13" stop-color="#00ece3"/><stop offset=".42" stop-color="#00f29d"/><stop offset=".84" stop-color="#00fb2d"/><stop offset="1" stop-color="#0f0"/></linearGradient><style>.zj-3,.zj-4{fill:none;stroke-linecap:round;stroke-linejoin:round;stroke-width:10px;stroke-dasharray:0 0 0 0 0 0;stroke:#000}.zj-4{opacity:.6}</style></defs><path d="M544.8 451.6c-37.5 21.7-72.4 33.5-59.3 84.8 17.7 69.3 77.9 90.1 100.3 73.8 5.4-11.2-7.4-157.8-41-158.6Zm147.7-25.7c-56.4 15-73.8 88.4-44.6 134.3 14.2 22.3 43.4 40.2 70.5 39.1 29.4-2.8 22-178-25.9-173.4Z"/><path d="M677.4 588.8c92.3-52.5 121.6 53.6 152.2-.2 35 13.7 70.6-10 105.4-12.8 37.9-3 77.5 20.7 113.7 1 2.8-83.5-11.3-169.8-50.6-243.4-50.9 43.6-87.4-5.9-161.1 87-4.8-22.9-26.1-17.2-38-4-60.2 48.3-93.1 24.1-125 45-7.4 4.9-17.5 2.3-26.6 3.3-36.5 36.1-11.6 102.3 30 124.1Z" style="fill:url(#zj)"/><path d="M1012.5 365.3c-29-.1-26.1 36-48.7 44.7-21.4-62.9-68.4 13.9-99.8 25.6-61.2 9.9-101.2 49-128.4 51 4-41.7-56.9 5.8-97.4 2.6-61.8-4.9-63 27.1-142.8 3.8-36 42.7-22.1 97.5 41.8 114.5 48.9-50.2 94.6-30.3 144.7-43.2 110.5-41.5 149.7 18 190.8 2.5 12-4.5 13.2-19.4 5-28 48-25.8 121.1 51.8 125.8-3.9 13.9 4.5 30.9 8.1 44.9.8a426.7 426.7 0 0 0-35.9-170.4Z" style="fill:url(#zj-2)"/><path class="zj-3" d="M1009.9 366.3c-35.4 6.2-24.2 54.1-71 56.7"/><path class="zj-3" d="M963.4 413.6c0-18.9-15.6-34.1-34.2-26.5-27.8 11.3-43.1 44.1-74 51.9-22.7 5.7-46.9 8.3-66.3 22.5-21.9 16-46.5 31.6-74.8 26.8"/><path class="zj-3" d="M734.4 486.9c5.3-11.7-8.5-21.3-19.4-19-19.6 4.1-42.4 25.3-83.6 20.7-43-4.8-69.5 31.7-136 4.4m552.6 44.2c-21.6 13-45.2-8-67.4-8.4"/><path class="zj-3" d="M1002.1 533.9c5.6 21.1-14.2 28.9-34.5 18.1-32.2-17.1-74.2-26.2-107.8-6.9"/><path class="zj-3" d="M877.3 539.5c11 9.5 14.1 40.3-38.1 24.8-25.6-7.6-69.8-21.5-105.7-16-28.9 4.5-55.4 23.1-85.7 20.3-40.5-3.8-79.8 9.1-108.6 38.5m457.6-272.7c-23.3 25.5-55.5 23.7-86.9 27.7-47.5 5.9-44.9 57-90.3 64.1"/><path class="zj-3" d="M835.2 419.9c.3-7.4-8.4-33.2-43.4.7-20.2 19.7-49.1 31.9-78.6 28.5-20.9-2.4-32.1 19.2-62.8 13.8m396.9 117.4c-35.2 16-82.9-15.5-134.5-.9-21.2 5.9-42.4 16.6-64.1 13-15.8-2.7-31-13.3-46.6-9.4"/><path class="zj-3" d="M827.1 587c-1.2 22.6-23.7 21.2-37.8 8.5-27.5-24.7-75.5-30.8-108.4-9m-92.4-8.5c6.3 26.8-.6 47.5-31.4 37.3-156.5-51.6-48.3-148.8-17.2-161.6 23.9-9.9 29 28.5 33.4 42.1m58.7-8.9c8.4-28.5 75.9-94.6 84.8-40.5"/><path class="zj-3" d="M652.1 570.4c18.5 17.5 79.3 55 81.3 7.2"/><path class="zj-4" d="M476.4 525.5c-6.1 21.4-.8 48.7 16.6 62.4 20.8 16.2 67 47.6 91 25.8m7.2-32.7c69.1-30.7 84.4 45.5 132.8 17.3M643.6 466c-8.3 6.8-10.1 12.5-13.9 22.5m105.9 91.3a94.4 94.4 0 0 1 53.8 25.5m12.9-21.1c6.2 2.3 13.2 4.4 18 9.3m39-47.8c8.5-2.8 16.9.4 23.6 6m96.9-22.2a35 35 0 0 1 20.8 18m-40.2-145.4c-3.3 9.4-11.9 15.4-19.8 20.7m-110.3-13.9c-.8 6.8-5.7 12-10.2 16.8m-87.4 49.7a29.3 29.3 0 0 1-17.5 12.7"/><path d="M940.4 398.5a23.6 23.6 0 0 0-14.5 6.9m-9.4 7.4-2.3 2.4m90.8-32.5c-4.6 2-7 6.8-9 11.1m39.8 134.1a25.2 25.2 0 0 1-14.8-2.1m-35.8 19A21.1 21.1 0 0 1 973 540m-106.6 17.4a25.7 25.7 0 0 1-13.1-2.3m-11.7-3.4-2.5-1.2m-26.8-132.6a43.5 43.5 0 0 0-7.7 6.5m-7.1 7.6-2.2 2m113.2-58.4c-6.1.5-11.4 4.3-16.3 8.1m-7.7 8.9-2.3 1.9M628.1 500.4a55.8 55.8 0 0 0-21.8 3.2m-12.4 4.4-2.8 1.2m443.7 60.3a37.1 37.1 0 0 1-17.8 1.3" style="opacity:.72;stroke:#fff;fill:none;stroke-linecap:round;stroke-linejoin:round;stroke-width:10px;stroke-dasharray:0 0 0 0 0 0"/><path d="M690.5 545.2a63.9 63.9 0 0 1-24.3 5.6m-11.8 2.6-3.6-.5m172.4-94a86.7 86.7 0 0 0-21 9.1" style="opacity:.73;stroke:#fff;fill:none;stroke-linecap:round;stroke-linejoin:round;stroke-width:10px;stroke-dasharray:0 0 0 0 0 0"/><path class="zj-4" d="M497.6 496.3c-32.2 53.5-7.7 84.7 43.9 106.9m108.4-136a43.8 43.8 0 0 0-9.5 18.4m23.5 85.6a47 47 0 0 0 14.5 11.3"/><defs><style>.zbi-3{fill:none;stroke-linecap:round;stroke-linejoin:round;stroke-width:10px;stroke:#000}</style></defs><path d="M346.3 398.4c133.7 133.1 174-36.5 487-17 12.1.8 16-8.5 10.7-17.5-12.5-21.3-43.6-24.9-57.7-46.5-149.5-6.2-302.5 14.1-440 81Z" style="fill:#e600ff"/><path d="M293.6 425.4c147.8-84.7 322.8-116.1 494.1-106.7 18.8-290.3-568.4-184.4-494.1 106.7Z" style="fill:#bf00ff"/><path class="zbi-3" d="M293.6 425.4c147.8-84.7 322.8-116.1 494.1-106.7 18.8-290.3-568.4-184.4-494.1 106.7Z"/><path class="zbi-3" d="M346.3 398.4c133.7 133.1 174-36.5 487-17 12.1.8 16-8.5 10.7-17.5-12.5-21.3-43.6-24.9-57.3-45.5"/><path d="M348.3 404.5a417 417 0 0 0-53.9 28m134.6 15c35.3 11.7 79.6-5 113-16.8 81.2-28.8 166.2-48.7 252.5-45.7" style="opacity:.6;stroke:#000;fill:none;stroke-linecap:round;stroke-linejoin:round;stroke-width:10px"/><path d="M811.8 353.4a39.6 39.6 0 0 1 14.9 12.3m-444.7 47a115.1 115.1 0 0 0 40.9 19.4m12.9 1.3h4.8m254.7-244.3a113 113 0 0 1 58 56.7m6.2 15.7 3.2 8m-386.4-33.8c-29.2 23.4-53.5 48.7-62.1 83.6" style="stroke:#fff;fill:none;stroke-linecap:round;stroke-linejoin:round;stroke-width:10px"/><circle cx="550" cy="550" r="500" style="fill:none;stroke:#000;stroke-width:10;stroke-linecap:round;stroke-linejoin:round;stroke-miterlimit:10"/></svg>