<svg xmlns="http://www.w3.org/2000/svg" viewBox="0 0 2453 1392.6"><g transform="matrix(.7 0 0 .7 315 31.85)"><svg version="1.1" id="Layer_1" xmlns="http://www.w3.org/2000/svg" x="0" y="0" viewBox="0 0 1100 1100" style="enable-background:new 0 0 1100 1100" xml:space="preserve" xmlns:xlink="http://www.w3.org/1999/xlink"><linearGradient id="a3" gradientUnits="userSpaceOnUse" x1="432.676" y1="-700.409" x2="789.687" y2="-76.39" gradientTransform="translate(0 1066)"><stop offset="0" style="stop-color:#5900ff"/><stop offset="1" style="stop-color:#f06"/></linearGradient><path style="fill:url(#a3)" d="M302.5 412.2c13 30 55 19 61-10.5 3-13-.8-27-2-40.7-3-33 15-45 47-40.6 56 8 63-33 100.6-58.7 58-39.6 78 46 81 54 9 24.5 35 23 44-.7 26-71 94-32.5 93.5 28 1 13 1 25.5 5 37.6 8 32 68 39.5 59 5-1.5-6-17-12-17-12 27 9 43 42 33 68-8 21-39.9 44-13 70.7 26 26 40 54 25 83-54 105 46 96.5-36.5 188-7 8-12 22-13 29-3 17 20.1 28 23 17.9 5-18 16-26 16-26-17 19-13 22-22 45-12.5 32-49 12-55 57-8 33-26 40.9-57 34.9-21-.5-40 13-60 19-55 17-84-17-124-47-49-29-108 16-133-68 0 0 5 18 9.5 20.3 21 11 36-34 20.5-51.5-13-15-39-16-48-34-6-11-3-25-2-37.9 3-37-23-56-40.7-84.1-24-47.5 18-100 9-149-19-49-16-105 29-138.6L302.5 412v.2z"/><path d="M533 208.9c-68 59.6-71 20-121 36.5-19.6 10.9-14 30-9.7 39.6 11 23-51 9-69 40.3-10 18 .1 42-7.5 61.8-9 19.6-34 35-37 52.2-43 48-154 7-119 70.4 6 11 33-6 39 9.1 7 17.5-39 29-21 46.7 18 5 21 39.9 57 63.2 14 20 3 51 19 69.1 35.8 38 46-25 41-34.3 4-39 44-11 22 38.7-23 52 11 74 36.5 56.6 38.5-10.5-14 99.9 89.9 62.9 18 1 28 22 29.8 40.3 6.5 63 54 46 59 8 15.5-34 45 49 47 59.9 11 73 69 42 71 17.9 3-54-3-60.1 2-68.3 18.5-31 71 13 90.8-15.5 14-19.7-31-63.5 8-55.4 94 19 19-101 14-120.4-9-35.5 14-106 47-121.7 18-9 17-35.5 7-52.8-9.5-17-25-30.6-31-48.9-13.5-54 22-102-36-133.3-5-3-7-9.5-4-14.4 17-26 1-66-32-71.4-22-3-44 9-66.5 6.3-43.3-5-79.7-74-126.3-43.1z" style="fill:#6e6e6e"/><path d="M551 531.2c-4 3-8-6-7-10.6 4-11 19.9-5 21 5.1 2 20.5-29 26-35 8.3-21-61 99.7-54 64 5.1-54 90.6-144-47-56-74.4 130.8-41 127 189-29.6 124.6-72-29.7-55-145 2-180.5 135-85 249 165 93 228.2-143 57.5-250.6-133-173-249.8 107-159.7 406.5-57 311 228.4-70.5 210.6-543 143-434-182.1C352 299 516 201 654 250.8c30 0 126.5-31 113 52-33 55 26 7 31 79.3 0 86-26 50 41 148 9 23-7 48-33 45.2-1 40-60 47-9 153.5 38 78-20 102-49.7 72.9-8 15.5 47 92.5-37 69.6-30-10.8-57 1-48 35.8 19 70.6-30 79.7-53 58.5-28-26-21-98-63-99.5 8 29.8-35 59-54 29.1-11-24-6-70-35-79.2 42-25 95-13 141-23.5C757 756 824 534.5 761 388.2c-64-146-280.5-139-361-10.4-65 104-36 285 99 311.6 252 49.5 279.7-339.5 82-329-188 9.9-179 317 14 246.8 76-28 70.5-116 2-162.2-61-41-141 47-97 103.9 65 85 178.5-53 64-70-52-8-65.5 82-9.8 75.2 11-1 21-12 22-23.1 2-29.7-43-31-38-.8 2 11 19.5 14 21 1.8-.2-5-1.2-6.2-8.2-.8z" style="fill:#d9d9d9"/><style>.st40{fill:none;stroke:#000;stroke-width:10;stroke-linecap:round;stroke-linejoin:round;stroke-miterlimit:10}.st98{opacity:.6;enable-background:new}</style><g id="Outline"><path class="st98" d="M793 537c-1 .7-1 2-.5 3 5 10 11 35 25 30 8-2 21-13 18-22.4-.5-1-2-2-3-1.5-26 12-28-11-39-9.4v.3zm-34 274.5c6 5 26 8 25-3-6-7-20.6-12-21.5-26C750 772 744 803 759 811.5zm-219.3 52s1 .5 1 .8c9 13.5-3 36-18 40-34 6-9-6-6-44 .3-5.3 22.3 2.7 23 3.2zM342 731c5 7-4 22-4 33 8 13 29.6-5 33-14.9 2-12-17-21-28-20.2-1 .1-1 1.1-1 2.1zm31-120.2c2 23-8 47-26 61.9-13 10.9-17.5-30.6-8-27.9 6 4.2 28-18.8 34-34zm-157-59.9c-8 6-17 3-25 1-11 5 4 20 13.5 16 5-4 12-9 12-15.7-.5-.2-1.5-.2-.5-1.3zM337 473c-6-10-3-23 0-34 0-1 0-2-.6-2-9-9-23 11-19.8 20.7C318 463 338 475 337 472.8v.2z"/><path class="st98" d="M326 392c-2 29 24 45 7 44-7 2-14 1-15 11-1 11-24 0-24.5-1.3C285 433 317 404.5 326 392zm103-118c-9.9-4-16-16-18-25-4-6-9.9 1-11 6-7 54 29.5 28 29 19zm293 9c16 21 29.5 12 40 20.7 3 4 1 9.6-1 14-3 9-13 9-20 4.1-14.5-5.8-22-22.2-19-38.8z"/><path class="st40" d="M347 729c53.5 5 15 86 59 102 25 9 37-19.8 55-11.9 23 10.1 19.6 40 24 60.7 9.6 46 63 29.6 58-12.8"/><path class="st40" d="M519 861c89-9 47.5 119 114.5 115 39-6 35-47 25-76.5-3-9 0-18.5 7-24.5 24.5-21 59 15.5 84-2.5 15-11 8-33-2-45-12-15 0-32 10-43"/><path class="st40" d="M790 539c53 69.8-64 71 8 194.5 6 14 11 32 11 48.5 0 32-49 47.5-61 16"/><path class="st40" d="M721 287c2 51 64 31 74 88 6 34-11.5 71 7 103 10 18 27 31.5 34 51 8 19-4 47-27 42"/><path class="st40" d="M407 290.6c-16-8-12-29.9-2-41 17-15 40.5-10 61-6 29.8 1 49-29 75-38 50-17 81 55 133 44 23-5 48-11 69 1 25 14 33 55 10 75"/><path class="st40" d="M428 278c-16 26.5-51 17.5-76 28.5-20 10.5-28 33-23 55 10 47-43 51-39 88m25 4.5c1.5-23 35-26 41-5 7 25-13 47 16 72"/><path class="st40" d="M334 476c-20-34-61-31.5-89-9.6-20 8-43-3-64 4-22 7-28 37-5 43.5 6.5 2 23-2 26-1 15 4 11 25-5 30-21 6-10 29 6 29"/><path class="st40" d="M216 554.5c-15 15-14 41 2 55 37 22 41 31 36 69.7-2 31 46 41 53.5 10 2-10.8-4-22 0-33 13-32 44 20 62-44.5"/><path class="st40" d="M327 647.9c25 29.7-.5 47-7 75-10 32.5 34 65 53 25"/><path d="M729 262.5c9 4 16 13 18 22.5m-193-68c12.5 2 24.5 8 34 16m9 9 3 3m-163 10c-5.5-.9-12 .6-15.5 4M362 319.6c-9 2-14 10.7-16 19M339 449c4 1 6 6 6 9.8M308.5 470c-12-6-16-5-22-4M175 492c1-4 5-7 9-7.5m38 89.5c-4 8 0 16 4 19.9m44 78.6c-1 6 1 15 9 18m76-77.5c-3 14-13 14.5-16 16m4.5 119.5c-5-3-9-9-8-15M397 782c-1 14.5 7 28 14 30m90 53.9c-3 12 2 27 14.5 25M636 957c14-3 17-28 11-38m96-60.1c1-7 0-14-4-19m46-49.1c8-6.5 9-25 3-39M786 582c5-8 3-19-3-26m37-12c2-8.5-.6-18-7-24m-56-169c18 6 22 30 21 35" style="opacity:.7882;fill:none;stroke:#fff;stroke-width:10;stroke-linecap:round;stroke-linejoin:round;stroke-miterlimit:10;enable-background:new"/></g><style>.st40{fill:none;stroke-width:10;stroke-linecap:round;stroke-linejoin:round;stroke-miterlimit:10;stroke:#000}.st152{fill:#ae0f45}</style><g id="Vamp"><path d="M429 737.5c57 100 248 114 303 5-22.3-58.5-275-50.5-303-5z" style="fill:#fe1767"/><path class="st152" d="M637 761.5c-120-80.6-205 29-203-19-10-23 154-62.9 203 19z"/><path class="st152" d="M647 768c5-34 49-35 50.9-46-22-15-59.5 0-75 19.8l24 25.8v.4z"/><path d="M575 734c14 4.5 26 13 36 24m8 10.5c1 1 2 2.5 3 4m35-31c5-1 10.5-2 15 0m31 3c3 0 5.5 1 8 3" style="fill:none;stroke:#fff;stroke-width:10;stroke-linecap:round;stroke-linejoin:round;stroke-miterlimit:10"/><path d="M424 720.7c2 37.5 43-33 182 8 35 26 59-19.8 114 5.9 41 19 50-119.8-20.7-73.1-44 22-97 39.6-147 39C508 695 427 639.7 424 720.7z"/><path d="M489.6 686c7 18 14 37 21 55 1.4 4 52.4-57.5-21-55zm214.4-7c-4.5 21-14 81-20 55-4-18-15-38-28-50.6-4-2.4 73.5-48.4 48-4.4z" style="fill:#fff"/><path d="m507 692.7.7-3c-9 12 9 41 3 52-5-5-18-44-21-58.7v2l17.3 7.7zM676 674c6 41 18 53 13.5 59.6-12-12-33-49.8-34-53.1l-1 1.1L676 674z" style="fill:#b3b3b3"/><path class="st40" d="M703 659.7c-65 28-131 58-200 28-99-43-102 58.5-29.7 98.5 49.7 27.5 109.6 43 166 29.7 42-10 124-71 111-147.5-4.3-24.9-27.3-17.4-47.3-8.7z"/><path class="st40" d="M484 684c14 23 23 49 28 76 4-21.5 11-42 21.5-62M653 684c19 17 28 42 37 66 7-30 10.7-67 24-92m-186 57c44-6 90 16 116.5 51.5"/><path class="st40" d="M621 739.9c18-9.5 38-12 58-11m16-.4c13 0 25 6 36 13M499 718c-24-1.5-48 4.5-68 17"/></g><defs><linearGradient id="zi" x1="523.88" y1="415.21" x2="538.45" y2="667.96" gradientTransform="rotate(3.5 529.279 542.401)" gradientUnits="userSpaceOnUse"><stop offset="0" stop-color="#df0dff"/><stop offset=".5" stop-color="#f00c10"/><stop offset="1" stop-color="#ffe70d"/></linearGradient><linearGradient id="zi-2" x1="667.68" y1="397.6" x2="691.17" y2="649.75" gradientTransform="rotate(3.5 676.165 524.809)" gradientUnits="userSpaceOnUse"><stop offset="0" stop-color="#e70dff"/><stop offset=".23" stop-color="#eb0daf"/><stop offset=".5" stop-color="#f00c58"/><stop offset="1" stop-color="#fffb0d"/></linearGradient><style>.zi-2,.zi-5{stroke:#000;stroke-linecap:round;stroke-linejoin:round;stroke-width:10px;fill:none}.zi-2{opacity:.6}</style></defs><path d="M517.7 466.4c-25.4 24.8-5.8 53 2.8 80.3 5.1 16-4 32.7-3.9 49 .4 55.3 65.6 35 42.6-32.1-10.3-29.7-1.2-46-1.2-73.8 0-21.9-22.9-38.5-40.3-23.4Zm150-17c-25.4 24.9-5.9 53.1 2.8 80.4 5 15.9-4 32.6-3.9 49 .3 55.3 65.6 35 42.5-32.1-10.2-29.7-1.1-46-1.1-73.8 0-21.9-23-38.5-40.3-23.5Z" style="stroke-linecap:round;stroke-linejoin:round;stroke-width:10px;stroke:#000;fill:#fff"/><path class="zi-2" d="M505.1 438.3c-68.5 24.5-44.9 251.5 44.4 215.2M651.6 421c-64 34.3-44 238.9 42.6 216.9"/><path class="zi-2" d="M516.2 461.9c-36.7 30.1 7.4 72.3-.2 107.4-4.5 21-8.1 65.8 24.5 58.3m124.8-182.9c-36.6 30.2 7.4 72.4-.1 107.5-4.6 21-8.1 65.7 24.5 58.3"/><path d="M528 464c-26 15.6 4.9 63.3 27.2 38.4-4.6 14.8-.3 33.5-1.3 48.8-4 8.4-22.3 10.4-30.5 6-5.3-32.1-42.8-74.7 4.6-93.2Zm149.9-16.9c-26 15.6 5 63.3 27.2 38.4-4.5 14.8-.3 33.5-1.3 48.7-3.9 8.5-22.3 10.5-30.5 6.1-5.3-32.1-42.8-74.7 4.6-93.2Z"/><ellipse cx="531.3" cy="544.4" rx="60.1" ry="112" transform="rotate(-3.5 528.909 541.97)" style="fill:url(#zi);opacity:.74"/><ellipse cx="679.8" cy="527.5" rx="60.1" ry="112" transform="rotate(-3.5 676.845 525.196)" style="fill:url(#zi-2);opacity:.74"/><ellipse class="zi-5" cx="531.3" cy="544.4" rx="60.1" ry="112" transform="rotate(-3.5 528.909 541.97)"/><ellipse class="zi-5" cx="679.8" cy="527.5" rx="60.1" ry="112" transform="rotate(-3.5 676.845 525.196)"/><path d="M533.6 449.9a123.1 123.1 0 0 1 34.4 69.3m2.3 16.6a84.3 84.3 0 0 1 .6 10.1m113.2-111c18.2 16.8 30.5 44.1 35 79.3m3.1 13.8a36.8 36.8 0 0 1 .1 11" style="stroke:#fff;fill:none;stroke-linecap:round;stroke-linejoin:round;stroke-width:10px"/><style>.st40,.st68{fill:none;stroke:#000;stroke-width:10;stroke-linecap:round;stroke-linejoin:round;stroke-miterlimit:10}.st68{opacity:.6;enable-background:new}.st262,.st263{fill:#fff;stroke:#1c1c1c;stroke-width:10;stroke-linecap:round;stroke-linejoin:round;stroke-miterlimit:10}.st263{fill:none}</style><g id="Scull_Hoodie"><linearGradient id="SVGID_00000041265213162397775930000005438875575371958204_" gradientUnits="userSpaceOnUse" x1="546" y1="-1072" x2="546" y2="63" gradientTransform="translate(0 1066)"><stop offset="0" style="stop-color:#a3a3a3"/><stop offset="1" style="stop-color:#454545"/></linearGradient><path style="fill:url(#SVGID_00000041265213162397775930000005438875575371958204_)" d="M243 300c2 45-56 49.9-65 86.4-5 19 27 59-36 85-38 2.5-63 83-13 81.9 27-7-46 28.5 9 119.7 17 28-8 68-39.8 85.8C256 1131 814 1144 994 782c-106-83-3-103-29-159-20-44-40-18-40.5-35.3 25-32 100.5-72.5 54-118-24-23-38 59.5-66 10.6-22-38 37-89 18-126-10.8-13-42-32-53-9.9-23 3 18-115-43-145-61 13-33 74-110-50-18-29-62 12-150-76-31-13.5-131 11.5-92 58-217-17-110 54-190 93.5-44 13-104 21-97 81.5 4 32 41 18 156 38 22 4 13-25 44-28.2 76 18 95-63 138-67 50.6-2 47 58 72 79 29 16 31-31 50-42 68.5-41 74 68 81 101 11 24 46 28 62 6 39 38-4 62-10 98 0 18 17 30 28 45 42 59-29 81-5.5 139.8 11 27 22 70.9-11 87-73 82 26 56-22 99.8-15 9.9-36.5 13.5-44 32.5-12.5 53-24 45.5-73 45-108 54.5-104 9.9-188-34.9-34-11-86 2-104.5-37 24 3.5 34-41 20.6-55-69-34-49.8-40-52.5-82.6-5-76.5-72.5-44-32-170 20-63-25.5-80 .8-148 12 34 57 12 59.8-16.9 2-19-6-39 2-57.5L243 300z"/><path class="st40" d="M304 411c13 30 55 19 61-10.5 3-13-.8-27-2-40.7-3-33 15-45 47-40.6 56 8 63-33 100.6-59 58-39.8 78 46 81 54 9 24.5 35 23 44-.7 26-71 94-32.5 93.5 28.4 1 13 1 25.5 5 38 8 32 68 39.5 59 5-1.5-6-17-12-17-12 27 9 43 42 33 68.2-8 21-39.9 44-13 70.7 26 26 40 54 25 83-54 105 46 96.5-36.5 188-7 8-12 22-13 29.3-3 17 20.1 28 23 17.9 5-18 16-26 16-26-17 19-13 22-22 45-12.5 32-49 12-55 56.6-8 33-26 40.9-57 34.9-21-.5-40 13-60 19-55 17-84-17-124-47-49-29-108 16-133-68.4 10 52 53-1 30-31-33-28-59-15-50-72 3-37-23-56-40.7-84-24-47.5 18-100 9-149.3-19-49-16-105 29-139"/><path class="st40" d="M992 778.5c-83-49.9-26-111-22-126 10.5-57-72-89.6-43-17.2-30.8-73 59-65 64-133.5 2-30.9-29.6-52-43-16-4 10.7-22 14-29 5.5-33.5-37.5 28-86 15-129.9-18-46.5-87-28-41 16-50-46 7-130.8-48-171-36-26-48.5 49-84 2-43-57-18-72-102-77.8-36-2.5-49.5-31-74-51.5-34.5-29-147 14-103 48 9.7 7.5 48-6 48-6-56 24.5-128-11-182 24-34 22-6 52-50 77-24 14-50 5-80 27-62 51 17 125 26 52-4 60.5-87 54-61 114.1 9 20-11 47-31 53-88 25-42 120-13 75 3-5 1-23 1-23 4 24-9 45-19.6 65.6-31 59.5 72 90-21 171C257 1138 824.5 1142 992 778.5z"/><path d="M895 377c-9.8-10.9-7-32.5 4-42-11-5-25 6-25.5 18M930 636c1-14 10.8-28 24-33-11-5-25-13-35-3M809 800c-11 9-25 18.5-39.7 13 6.5 1.5 5 16 22 19M361 842c10 7 24.5 5 33-4-2 12.5-11 27-25 29M136.5 518c-5 11.5-20 22-33 18 6 15 26.5 24 38 10M338 369c-11 18-22 41-9.7 60.9-15-.9-26.5-17-22-32M242 297c-9.5 12-27 21-43 15.9 8 12 26 22 39 12m291.6-208c-20 3-40-4-53-21-7 13 0 31 14 36M773 374.5c7 9 8 22 3 32 12.5-2 24-16 17-28v1" style="opacity:.6;enable-background:new"/><path d="M910 356.9c8 6 11 18 8 27.5m-3 12.6c0 1.5-.5 3-1 4.5m59 87.5c4 10 3 22-3 31m-6 12c-1 .8-2 2-3 2m-14 83c6 6 9 15 8 23.5m-1 10.5c0 .8-1 2-1 2.5M834 217c10 6.5 17.5 17.5 19 29m2 15.9c1 2 1 4 .5 6M693.5 148c9 3 17.5 9 23 17M537 85c-15 .9-29.7 6-42 15m56-17.2h6.5M385 146c-14 2-28 9.7-36.5 21m53.5-23h4M222 263c-9.7 9.9-14 24.5-12 38m26-46.5 3-1.5m-32 120c-8 5-14 14-15.5 24M126 494.5c-8 8-13 20-12 32m25 60.5c-7 11-11 25-5 37m7.5 15c1 2 1 4 2 6M373 818c6 5 9 14 7 21m-18-27c-1-.9-2-2-3-2m90 106.5c12 0 25 6 34 10.9m14 9.6c1 1 2 2 4 3m183 16c-9-2-18-1-26 2.5m102-71.6c-8 5-11 14-13 22M796 793c-5 6-8 12.5-9 19.7m16-30.7 3-3m23.9-165c-5 13-11 27.5-8 42m3.1 13.9 1 4.5M807 474c-6 8-5 19 1 27m7 9.5c1 1 2 2 2 3.5m-71-148c2 11.5 11 22 22 25m-24-40.1-.7-4M612 320c5-1 10-4.5 12-9m5-11.4 1.5-3M471 276c-9 11-20 20.6-33.5 27m-12 2.6h-5M352 389c-1 10-7.5 19.5-16 24m15-46c.5 3 1 5 1 8m-64 124.5c3 10 4 21 2 31m-2 14.4c-1 2-1 3-2 5m19 139.8c9 8 15 18 18 29.5" style="fill:none;stroke:#fff;stroke-width:10;stroke-linecap:round;stroke-linejoin:round;stroke-miterlimit:10"/><path class="st68" d="M179 514c-6 14 4 27 16 33 8.5 10 14 22 22 33 12 13 3 34.5 18 43.4 11 4 29-5.5 35-14.5M189 722c-9 9-7.5 24 3 31.5 9.9 7 11 34 14.5 49.9 5 21-9 23-5 35.8 5 16 19 11 31.5 8 6 0 11-2 16-5.5M325 942c-15 22 8 52 31 34 19-8 77 10 79.6 29 9 19 49.6 17 46-7.5m430.4-319c25 25-9 42.5-12 48-6 22-12 50.6-6 63 9 12.5 0 32-16 32M891 422c12.5 14 1 27-9 37-6 18-8 39.9-3 49 7 12-5 29.5-19 23M747 255c-17 5-41 49.8 6 43 13 8 23 20.5 34 31 13 21-8 53 33 38m-539-75c-26 4-16.5 34-18 37-8 19-19 37-28 56-7 11.5-15 8-23 12.1-9 5-15 24-3 29M356 244c9 18 33 20 41 .6 13-5 37-9 50.5-13 5 3.5 36 19 33-8M513 204c-2 8 3 16 10 19 15 25 43 23 44-9 2-6 8-10.5 15-4.5 6 4 5 9.8 6 15.5 3 14 22 21 31 9 4-11 16-5 16-20m-115.3-57c.5 16 15 22 28 24m51.3 0c14-1 34-2 38-18"/><path d="M579.6 199c27.5 19 8 52 47 25 27-27-16-26.5-19-29.9-12-12-28-22-38-35.8 3-14-20.8-63-32-17-28 .5-12 38 11 29.9 11 8 18 19 31 27.4v.4z" style="fill:#fff"/><path class="st262" d="M889 682c3.5-7 15-8 21-3 15 13 2.5 36-15 37.6-7 23-11 47-12 71.2 28.5 14-.5 47-22 26.6l4-12c1 13-16 17-25 9.5-10-9 0-27 13-26v-1c3-25 5-49.7 10-74.4-14-2-13-22-5-30 14-14 37 2 29 19m-672 20c.9-7.5 10.8-12 17-9 17 7 13 30-2 37 1 22 5 44 11 65 28.5 3.5 13 40.6-11 29.3V830c5 10.6-9 19.5-18 15.5-11-5-7.5-23 3-26.2v-1c-5-23-10-44.5-13-67.3-12 2.5-18-15-13-25 7-15.8 32-9 31 8m-22-227c-2-7 4-13 10.5-11.9 16 3 21 24 12 33.7 9 19.5 19.7 38 32.5 56 24-3 25.5 33.5 2 28.7l-4-10.7c7.5 8.5 0 19.5-9 18-10.8-2-14-19-7-24.2l-.5-1.1c-12-19-24.5-38-35-58-9 5-19.6-9.6-19.6-19 0-16 23-15 28 0M873 425c2.5-6 11-6 15-2.5 11 9.8 2 27-11 28.7-5 18-8 36-8 54.4 20 10 0 36-15 20.3l3-9c1 9.6-12 13-17.5 7-7-7 0-20 9-19.8v-1c2-19 4-38 7-56.8-9.7-1-9-17-3.5-23 9.7-11 26 1.5 21 15M476 986c8 5 7 19 1 25-17 15-39.8-1.5-39.6-22.4-25-10.8-50.6-18-77-22.3-19 31-52-6-27-28.2l13 6.5c-14 0-17-20.8-7-29.7 11-10 29 4 27 17.8l1 .6c27 7 54 12 81 21 4-16 26-12 34-2 14 17-7 42.5-25 32M311 308c7-6 19.9-2 24 6 10 20-12 38-32 32.3-17 21-31 44-42 68.6 25 26-19.6 48-34 18.3l9.7-10.9c-4 13-25 10.6-30.6-.6-7-14 11-27 24-21.4l1-1.2c14-24.5 26-49 41-72.5-14-8-5-28 7-33 20.6-9 39 18 24 32.5M359 224c-7-.9-12-11-10-17.9 5-17 27.5-13 35 2.1 20.7-1 41-5 60.5-11.6.8-29.7 48-11.5 28 10-2 2-16 1-11 1 16-1 19 9 16 19-4 12-21 8-25-3.3l-1 .1c-21 5-41 10.9-62.5 14 3 13-13 18-22 13.9-16-8-11.5-34 5-32M621 144c7-3 16 2 17 8.5 3 17-18 26-31.5 18.3-17.5 12.5-33 27-47 43.4 13 24-26 32-30 7.5l9.8-6c-6 9-21 3.5-23-5.9-2-11 15-18 23-11.6l1-.7c16-16 30.6-32 48-46.3-9-8 2-22 13-23.5 17.5-3 26 20 11 28"/><path class="st263" d="M547 169.6c-8 8-22-3-24-12-4-16 19.8-22.5 29-9"/><path class="st263" d="M539 139.8c-4-6 2-14 8-15 17-3 27 17 20 29.6l4 4m22 23.5 18 17M548 170c3 2 5 5 8 8m20 19.5c6 6.5 13 12 21 18"/><path class="st263" d="M597 215c-6.5 7.5 1 23 13 21 9.5-1.5 15-15 5-20.5"/><path class="st263" d="M621 224.9c25-3 15-38-9-27"/><path class="st262" d="M827.5 348c3 7-4 18.5-11 21-19 7-27.5-15-18-32.7v-.1c-12-18-27-33-44-46-28 19.9-34-23-6-33.1l6 10c-9.8-5-2-24 9-28 13-5 19 13 11 24.5l1 1c16 15 33 29 47 46 9.9-12 24-1.5 25 10 2 19.7-25 34-32.5 18"/><path class="st68" d="M815.5 339.6c4 9 4 19 1 27M755 269c-5-2-15-4-19.7 0M873 438c.6-6 5-12 10-14m-26 92c.5 6 5 11 11 12m21.9 171c1-9 7-17 15-21M866 802c.5 8 4 15 11 18M457 985c8 4 16.5 9 20 18m-131-58c-7-1-15-.7-20 4.5m-95-119.9c2 5.5 5 11 11 13m-21-108.7c-.7-8 2-16 7-23v-.2s0 0 0 0M252 602c3 5 8 8 13.5 8M208 518c-3-6-5-15-2-21m33-75c2 5 1 10-2 15m69-111c6-15 20.5-19 20-19m47-88c-9 .8-16-1.5-23-7m111-5c7-1 13-6 16-12m64 20c-3 5-5 11-2 17m75.5-16c5 4 11 5.5 17 3M612 155c9-4 16-5.5 25-4m-85-2.5c-4.5-6-8-14-7-22m50 60.5c-4 4-7 7.5-11 11"/></g></svg></g><defs><linearGradient id="utr" x1="-672.59" y1="1168.15" x2="1870.31" y2="648.88" gradientUnits="userSpaceOnUse"><stop offset="0" stop-color="#ff006f"/><stop offset="1" stop-color="#ff9100"/></linearGradient><linearGradient id="utr-2" x1="914.14" y1="119.84" x2="139.73" y2="1041.84" gradientUnits="userSpaceOnUse"><stop offset="0" stop-color="#00fff7"/><stop offset="1" stop-color="#0008ff"/></linearGradient><style>.utr-4,.utr-7,.utr-8{fill:none;stroke-linecap:round;stroke-linejoin:round;stroke-dasharray:0 0 0 0 0 0}.utr-8{stroke:#fff}.utr-4,.utr-7{stroke:#000}.utr-4,.utr-7,.utr-8{stroke-width:21px}.utr-5{fill:#fc004c}.utr-6{fill:#fff}.utr-7{opacity:.6}.utr-8{opacity:.7}</style></defs><g id="Layer_47" data-name="Layer 47"><path d="M1008.8 387.6C1943.1 316.2 2352 871 655.3 1330.2-243.6 1573.5-1360 1181.3 74.5 643c9.6 90.5 26 191.9 85 264 206.2 177.8 712.2 13 920.2-227a1204.1 1204.1 0 0 0-70.9-292.4Z" transform="translate(623.8 -21.9)" style="fill:url(#utr)"/><path d="M1080.3 686c-228.6 252.5-598.4 344.2-924.2 271.9C-246.7 8.5 952.3-413 1080.3 686Z" transform="translate(623.8 -21.9)" style="opacity:.67;fill:url(#utr-2)"/><path d="M653.2 119.5A362.6 362.6 0 0 1 808 236.6m54 78.4c.8 1.8 11.3 29.6 10.1 22.7" transform="translate(623.8 -21.9)" style="stroke-width:52px;opacity:.68;stroke:#fff;fill:none;stroke-linecap:round;stroke-linejoin:round;stroke-dasharray:0 0 0 0 0 0"/><path class="utr-4" d="M73.7 642.1c-1433.7 539.2-317.3 931.4 581.6 688.1C2352 871 1943.1 316.2 1008.8 387.6" transform="translate(623.8 -21.9)"/><path class="utr-4" d="M1080.3 686c-228.6 252.5-598.4 344.2-924.2 271.9C-246.7 8.5 952.3-413 1080.3 686Z" transform="translate(623.8 -21.9)"/><path class="utr-5" d="M1252.6 490.4c11.1-6.3 20.9-18.4 33.9-20 20 6.6 38.7 39 50.3 56.4-13.2 5.7-27.3 14.6-34.3 27.5 35.5 53 98.7 91.2 102.6-3.6 218.6-81.7-8.6-353.4-130.1-162.2-42-21.5-103.2 21.1-22.4 101.9Z" transform="translate(623.8 -21.9)"/><circle class="utr-6" cx="1991.3" cy="330.9" r="18.7"/><ellipse class="utr-6" cx="2069.1" cy="340.9" rx="21.5" ry="24.5"/><ellipse class="utr-6" cx="2020" cy="388.1" rx="37" ry="33.5"/><ellipse class="utr-6" cx="1930.5" cy="359.5" rx="23" ry="22.5"/><ellipse class="utr-6" cx="2042.5" cy="482.9" rx="32.5" ry="39.6"/><ellipse class="utr-6" cx="2097.6" cy="424.9" rx="28.5" ry="23.3"/><path class="utr-4" d="M1188.4 540c51.3 24.6 59.4-62.8 103.1-67m-48 182.9c1.7-46.8 49.8-112.3 92-131.2" transform="translate(623.8 -21.9)"/><path class="utr-4" d="M1268.8 446.8a320.9 320.9 0 0 1 84.6 103.8" transform="translate(623.8 -21.9)"/><path class="utr-4" d="M1251.1 495.2c-70.2-82.4-31.4-162.3 64.7-76.5m-13.6 136c63.1 103.2 135.5 43.5 77.3-52.3" transform="translate(623.8 -21.9)"/><path class="utr-4" d="M1404.3 549.3c218.2-64.9 1.8-358.5-129.1-164.7" transform="translate(623.8 -21.9)"/><path class="utr-7" d="M1284.3 481a383.8 383.8 0 0 1 39.6 45.8m57.6-24.4c11.8 15 24.5 30.7 42.3 37.6m-106.6-121.6c-13.8-13.7-28.7-29.3-30.6-49.6m-10.3 103.3a179.8 179.8 0 0 0-9.5-21.5m56.7 83.9a74.4 74.4 0 0 1 27.7 18.9" transform="translate(623.8 -21.9)"/><path class="utr-8" d="M1463.3 415.6a84.8 84.8 0 0 1-13.4 68.4m-20.4 17.6a32.4 32.4 0 0 1-5.3 4.5" transform="translate(623.8 -21.9)"/><path class="utr-5" d="M1240.6 731.1c15.2-8.7 28.5-25.4 46.3-27.5 27.4 9.1 53 53.7 68.9 77.7-18.1 7.9-37.4 20.2-46.9 38 48.5 73.1 135 125.7 140.3-5 299.1-112.7-11.7-487.3-178-223.7-57.4-29.6-141.2 29-30.6 140.5Z" transform="translate(623.8 -21.9)"/><ellipse class="utr-6" cx="2021.6" cy="519.4" rx="25.7" ry="25.9"/><ellipse class="utr-6" cx="2120.1" cy="538.8" rx="29.4" ry="33.8"/><ellipse class="utr-6" cx="2061" cy="598.4" rx="50.6" ry="46.2"/><ellipse class="utr-6" cx="1938.4" cy="558.9" rx="31.5" ry="31"/><ellipse class="utr-6" cx="2091.7" cy="729.1" rx="44.5" ry="54.6"/><ellipse class="utr-6" cx="2167.1" cy="649.1" rx="39" ry="32.2"/><path class="utr-4" d="M1152.7 799.5c70.2 34 81.3-86.6 141.1-92.3m-65.6 252.2c2.2-64.6 68.1-154.8 125.9-181" transform="translate(623.8 -21.9)"/><path class="utr-4" d="M1262.7 671a442 442 0 0 1 115.8 143.2" transform="translate(623.8 -21.9)"/><path class="utr-4" d="M1238.4 737.8c-96-113.6-42.9-223.8 88.6-105.6m-18.5 187.6c86.2 142.4 185.3 60 105.7-72.1" transform="translate(623.8 -21.9)"/><path class="utr-4" d="M1448.1 812.3c298.6-89.5 2.6-494.4-176.7-227.1" transform="translate(623.8 -21.9)"/><path class="utr-7" d="M1283.9 718.2a517.9 517.9 0 0 1 54.2 63.2m77.9-29.9c16.2 20.7 34.5 49.5 57.9 51.7M1329 631.8c-18.9-18.9-39.4-40.4-42-68.3m-14.1 142.4a261.1 261.1 0 0 0-12.9-29.7m77.6 115.7a102.6 102.6 0 0 1 37.9 26.2" transform="translate(623.8 -21.9)"/><path class="utr-8" d="M1528.9 627.9a118.2 118.2 0 0 1-18.3 94.5m-28 24.2a48.5 48.5 0 0 1-7.2 6.3" transform="translate(623.8 -21.9)"/><path class="utr-5" d="M-329.4 890.7c9-9.3 15-24 27.2-29.3 21.5.5 49.3 26.5 65.7 40.1-11.2 9.5-22.5 22.3-25.5 36.9 50.1 41.1 123.2 59.7 99.3-33.7C27.2 761.1-274.2 563.3-337.3 785c-47.3-8.6-94.8 50.8 7.9 105.7Z" transform="translate(623.8 -21.9)"/><circle class="utr-6" cx="-257.2" cy="723" transform="rotate(-16.7 -19.798 -1413.33)" r="19.1"/><ellipse class="utr-6" cx="-178.2" cy="710" rx="22" ry="24.9" transform="rotate(-16.7 59.327 -1426.075)"/><ellipse class="utr-6" cx="-212.4" cy="770.3" rx="37.8" ry="34" transform="rotate(-16.7 25.11 -1366.023)"/><ellipse class="utr-6" cx="-308.4" cy="768.7" rx="23.5" ry="22.9" transform="rotate(-16.7 -70.712 -1367.559)"/><ellipse class="utr-6" cx="-162.7" cy="856" rx="33.2" ry="40.2" transform="rotate(-16.7 74.787 -1280.084)"/><ellipse class="utr-6" cx="-125.8" cy="783.4" rx="29.1" ry="23.7" transform="rotate(-16.7 111.586 -1352.982)"/><path class="utr-4" d="M-377.8 957.8c57.3 9 39.8-78.5 81.3-95.3m6.5 192.1c-12.1-46.1 15.9-123.9 51.7-154.8" transform="translate(623.8 -21.9)"/><path class="utr-4" d="M-326.4 843.6a325.5 325.5 0 0 1 113.1 76.3" transform="translate(623.8 -21.9)"/><path class="utr-4" d="M-329.6 895.9c-92.7-59.6-78.1-148.8 41-93.5m26.4 136.4c91.8 82 145.2 2.7 60.4-73.6" transform="translate(623.8 -21.9)"/><path class="utr-4" d="M-163.9 903.6C30.6 776.4-266.7 554.1-338.3 781.1" transform="translate(623.8 -21.9)"/><path class="utr-7" d="M-301.2 872.4a380.9 380.9 0 0 1 52.1 32.9m49.2-40.6c16 11.1 32.9 22.6 52.4 24.1m-139.8-87.1c-17.5-9.3-36.7-20.1-44.4-39.2m20 103.5a193.2 193.2 0 0 0-15.5-18.2m79.9 65.1a75.6 75.6 0 0 1 32.7 10.3" transform="translate(623.8 -21.9)"/><path class="utr-8" d="M-145.2 756.1a86.1 86.1 0 0 1 6.9 70.6m-14.9 23.1a31.9 31.9 0 0 1-3.8 6" transform="translate(623.8 -21.9)"/><path class="utr-5" d="M101.9 1046.4c9-12.8 13.3-30.9 26.9-39.8 25.6-4.4 63.5 18.8 85.6 30.4-11.6 13.4-22.6 30.7-23.4 48 67.3 35.3 157.5 39.5 111.6-61.5 198.9-208-196.4-363.4-229.9-95.9-57.8 1.2-103.1 80 29.2 118.8Z" transform="translate(623.8 -21.9)"/><ellipse class="utr-6" cx="156.3" cy="838.3" rx="23.3" ry="21.9" transform="rotate(-26.9 422.669 -476.237)"/><ellipse class="utr-6" cx="247.9" cy="805" rx="26.7" ry="28.6" transform="rotate(-26.9 514.406 -509.554)"/><ellipse class="utr-6" cx="218.5" cy="881.8" rx="46" ry="39.2" transform="rotate(-26.9 484.952 -432.608)"/><ellipse class="utr-6" cx="104.1" cy="902.3" rx="28.6" ry="26.3" transform="rotate(-26.9 370.454 -412.25)"/><ellipse class="utr-6" cx="293.5" cy="968" rx="40.4" ry="46.3" transform="rotate(-26.9 560.079 -346.565)"/><ellipse class="utr-6" cx="323.9" cy="876.5" rx="35.4" ry="27.3" transform="rotate(-26.9 590.324 -437.91)"/><path class="utr-4" d="M57 1134.2c69.8-3.1 32.6-98.8 78.8-127.7m43.6 217.6c-22.9-49.8-4.3-145.1 32.5-188.6" transform="translate(623.8 -21.9)"/><path class="utr-4" d="M96.7 991.9a379.7 379.7 0 0 1 148.7 60.7" transform="translate(623.8 -21.9)"/><path class="utr-4" d="M102.7 1052.4C-18.6 1005.9-18 900.8 133.9 936.1m56.9 149.4c124.5 72.2 173.1-30.8 58-97.9" transform="translate(623.8 -21.9)"/><path class="utr-4" d="M301 1022.5c207.4-190.3-187.6-374.7-230.1-99.1" transform="translate(623.8 -21.9)"/><path class="utr-7" d="M132 1018.9a448.6 448.6 0 0 1 68.1 25.4m50.9-57.8c21 9 43.4 18.2 66.7 15.3M135.3 935c-22.5-6.5-47.3-14.3-60.1-34.4m43.2 113.4a213.5 213.5 0 0 0-21.9-17m107.2 55.5a93.1 93.1 0 0 1 40.7 4.2" transform="translate(623.8 -21.9)"/><path class="utr-8" d="M295.7 850c18.5 21.1 26.5 50.7 21.3 78.9m-13.3 29.8a36.8 36.8 0 0 1-3.4 7.6" transform="translate(623.8 -21.9)"/><path class="utr-5" d="M695.4 975.7c15.2-8.2 28.5-24 46.3-26 27.4 8.6 53 50.8 68.9 73.6-18.1 7.5-37.4 19.1-46.9 35.9 48.5 69.1 135 118.9 140.3-4.8 299.1-106.6-11.7-461.1-178-211.7-57.4-28-141.2 27.6-30.6 133Z" transform="translate(623.8 -21.9)"/><ellipse class="utr-6" cx="1476.4" cy="774.2" rx="25.7" ry="24.5"/><path class="utr-6" d="M929.7 809.2c0-17.6 13.2-31.9 29.5-31.9s27.6 26.1 27.6 43.8-13.2 31.9-29.4 31.9-27.7-26.1-27.7-43.8Z" transform="translate(623.8 -21.9)"/><ellipse class="utr-6" cx="1515.8" cy="848.9" rx="50.6" ry="43.7"/><ellipse class="utr-6" cx="1393.2" cy="811.6" rx="31.5" ry="29.4"/><ellipse class="utr-6" cx="1546.5" cy="972.6" rx="44.5" ry="51.7"/><ellipse class="utr-6" cx="1621.9" cy="897" rx="39" ry="30.4"/><path class="utr-4" d="M607.5 1040.4c70.2 32.2 81.3-81.9 141.1-87.3M683 1191.8c2.2-61.2 68.1-146.5 125.9-171.3" transform="translate(623.8 -21.9)"/><path class="utr-4" d="M717.5 918.8c48 36.8 87.8 83.3 115.8 135.6" transform="translate(623.8 -21.9)"/><path class="utr-4" d="M693.3 982.1c-96.1-107.6-43-211.8 88.5-100m-18.5 177.6c86.3 134.7 185.3 56.8 105.7-68.2" transform="translate(623.8 -21.9)"/><path class="utr-4" d="M902.9 1052.6c298.6-84.7 2.6-467.9-176.6-215" transform="translate(623.8 -21.9)"/><path class="utr-7" d="M738.7 963.6a493.4 493.4 0 0 1 54.2 59.7m78.9-31.8c16.1 19.6 34.3 49 57.8 49M783.8 881.8c-18.9-17.9-39.4-38.3-42-64.7m-14.1 134.8a222.8 222.8 0 0 0-12.9-28.1m77.6 109.5a101.7 101.7 0 0 1 37.9 24.7" transform="translate(623.8 -21.9)"/><path class="utr-8" d="M983.7 878.1c7.7 30.4.8 64-18.3 89.4m-28 22.9a41.2 41.2 0 0 1-7.2 5.9" transform="translate(623.8 -21.9)"/><path d="M-530.4 1207.5c83.4 64.9 188.2 95.6 291.8 116.1m45.4 7.5 55.3 7.4m1895-605.4c-71.8 104.9-118.7 135-198.6 183.9m-30.6 23.1-16.7 11.5c-1.3.9-3.5 1.6 16.7-11.5Zm15.7-477a433.4 433.4 0 0 1 98.9 37.5m27.5 15.2 7.8 5.1m-2165 465.4a261 261 0 0 0-76.8 93.9m100.9-118.9 10.9-8.3m164.9-31.9a182 182 0 0 0-26.8 66.5m451.8 57.5a116 116 0 0 0-6.3 31.4m612.6-47.9a286 286 0 0 0-65.2 88.9m-18.3 34.7L656 1167m625.1-372.6a239.6 239.6 0 0 0-50.8 74.7m-14.3 24.3-3.2 7.7m48.6-367.4a89.2 89.2 0 0 1 18.5-23" transform="translate(623.8 -21.9)" style="stroke-width:21px;stroke:#fff;fill:none;stroke-linecap:round;stroke-linejoin:round;stroke-dasharray:0 0 0 0 0 0"/></g></svg>