<svg version="1.1" id="Layer_1" xmlns="http://www.w3.org/2000/svg" x="0" y="0" viewBox="0 0 1100 1100" style="enable-background:new 0 0 1100 1100" xml:space="preserve" xmlns:xlink="http://www.w3.org/1999/xlink"><style type="text/css">.st301{fill:#005BEF;stroke:#000000;stroke-width:10;stroke-linecap:round;stroke-linejoin:round;stroke-miterlimit:10;}</style><circle class="st301" cx="550" cy="553.7" r="500"/><path d="M532 209c-68 59.6-70.9 20-120.8 36.5-19.6 10.9-14 30-9.7 39.6 11 23-50.8 9-69 40.3-10 18 0 42-7.5 61.8-9 19.6-34 35-37 52-43 48-154 7-119 70.4 6 11 33-6 39 9.1 7 17.5-39 29-21 46.7 18 5 20.7 39.9 57 63 14 20 3 51 19 69.1 36 38 46-25 41-34.3 4-39 44-10.6 22 38.7-23 52 11 74 36.5 56.6 24-9 13 39 23 50.9 19.5 37 55 12 67 12 18 .7 28 22 29.8 40.3 6.5 63 54 46 59 8 15.5-34 45 49 47 59.9 11 73 69 42 70.8 17.9 3-54-3-60 2-68.3 18.5-31 71 13 90.8-15.5 14-19.7-31-63.5 8-55.4 94 19 19-100.7 14-120.4-9-35.5 14-106 47-121.7 18-9 17-35.5 7-52.8-9.5-17-25-30.6-31-48.9-13.5-54 22-102-36-133.3-5-3-7-9.5-4-14.4 17-26 1-66-32-71.4-22-3-44 9-66.5 6.3C615 247 578.5 178 532 209z" style="fill:#fff"/><path d="M747 800c4 6 53 38 60.9-18.1-5-193-236-16-125 82.8 16 0 92 35 72.5-20.9-4.4-14-15.4-28.3-8.4-43.8zM338 671c77.5-19.8 116 97 49 135-5.5-19-4-41-15-57.8-20 37-61 5-49.7-27C328 707 333 692 338 671zm151-49.2c-74 49 120.7 156 145 62 18-69.6-5-97-62-133.3-49-31.5-132 36-87 57.8 7 3.7 9 10.2 4 13.5zm233-142.7c-57 44 55 146 86.5 81C836 504 776 437 722 479.1zM544 207c-52 184 218 237.5 232 132.3-9-2-17.5-6-24-12.3 30.7-17 14-77-19-83-26-5-49 6-75 6.1-36.5 2.9-42-45.1-114-43.1zM233 471.6c-2 94 70.6 142 148 86.5 63-45 19-195-52.5-214.6-3 10.8 2 22 1 33.7-20.5 32-44 73-47 73-16.5.8-33.5 7.8-49.5 21.4z" style="fill:#3d3d3d"/><style>.st40{fill:none;stroke:#000;stroke-width:10;stroke-linecap:round;stroke-linejoin:round;stroke-miterlimit:10}.st98{opacity:.6;enable-background:new}</style><g id="Outline"><path class="st98" d="M793 537c-1 .7-1 2-.5 3 5 10 11 35 25 30 8-2 21-13 18-22.4-.5-1-2-2-3-1.5-26 12-28-11-39-9.4v.3zm-34 274.5c6 5 26 8 25-3-6-7-20.6-12-21.5-26C750 772 744 803 759 811.5zm-219.3 52s1 .5 1 .8c9 13.5-3 36-18 40-34 6-9-6-6-44 .3-5.3 22.3 2.7 23 3.2zM342 731c5 7-4 22-4 33 8 13 29.6-5 33-14.9 2-12-17-21-28-20.2-1 .1-1 1.1-1 2.1zm31-120.2c2 23-8 47-26 61.9-13 10.9-17.5-30.6-8-27.9 6 4.2 28-18.8 34-34zm-157-59.9c-8 6-17 3-25 1-11 5 4 20 13.5 16 5-4 12-9 12-15.7-.5-.2-1.5-.2-.5-1.3zM337 473c-6-10-3-23 0-34 0-1 0-2-.6-2-9-9-23 11-19.8 20.7C318 463 338 475 337 472.8v.2z"/><path class="st98" d="M326 392c-2 29 24 45 7 44-7 2-14 1-15 11-1 11-24 0-24.5-1.3C285 433 317 404.5 326 392zm103-118c-9.9-4-16-16-18-25-4-6-9.9 1-11 6-7 54 29.5 28 29 19zm293 9c16 21 29.5 12 40 20.7 3 4 1 9.6-1 14-3 9-13 9-20 4.1-14.5-5.8-22-22.2-19-38.8z"/><path class="st40" d="M347 729c53.5 5 15 86 59 102 25 9 37-19.8 55-11.9 23 10.1 19.6 40 24 60.7 9.6 46 63 29.6 58-12.8"/><path class="st40" d="M519 861c89-9 47.5 119 114.5 115 39-6 35-47 25-76.5-3-9 0-18.5 7-24.5 24.5-21 59 15.5 84-2.5 15-11 8-33-2-45-12-15 0-32 10-43"/><path class="st40" d="M790 539c53 69.8-64 71 8 194.5 6 14 11 32 11 48.5 0 32-49 47.5-61 16"/><path class="st40" d="M721 287c2 51 64 31 74 88 6 34-11.5 71 7 103 10 18 27 31.5 34 51 8 19-4 47-27 42"/><path class="st40" d="M407 290.6c-16-8-12-29.9-2-41 17-15 40.5-10 61-6 29.8 1 49-29 75-38 50-17 81 55 133 44 23-5 48-11 69 1 25 14 33 55 10 75"/><path class="st40" d="M428 278c-16 26.5-51 17.5-76 28.5-20 10.5-28 33-23 55 10 47-43 51-39 88m25 4.5c1.5-23 35-26 41-5 7 25-13 47 16 72"/><path class="st40" d="M334 476c-20-34-61-31.5-89-9.6-20 8-43-3-64 4-22 7-28 37-5 43.5 6.5 2 23-2 26-1 15 4 11 25-5 30-21 6-10 29 6 29"/><path class="st40" d="M216 554.5c-15 15-14 41 2 55 37 22 41 31 36 69.7-2 31 46 41 53.5 10 2-10.8-4-22 0-33 13-32 44 20 62-44.5"/><path class="st40" d="M327 647.9c25 29.7-.5 47-7 75-10 32.5 34 65 53 25"/><path d="M729 262.5c9 4 16 13 18 22.5m-193-68c12.5 2 24.5 8 34 16m9 9 3 3m-163 10c-5.5-.9-12 .6-15.5 4M362 319.6c-9 2-14 10.7-16 19M339 449c4 1 6 6 6 9.8M308.5 470c-12-6-16-5-22-4M175 492c1-4 5-7 9-7.5m38 89.5c-4 8 0 16 4 19.9m44 78.6c-1 6 1 15 9 18m76-77.5c-3 14-13 14.5-16 16m4.5 119.5c-5-3-9-9-8-15M397 782c-1 14.5 7 28 14 30m90 53.9c-3 12 2 27 14.5 25M636 957c14-3 17-28 11-38m96-60.1c1-7 0-14-4-19m46-49.1c8-6.5 9-25 3-39M786 582c5-8 3-19-3-26m37-12c2-8.5-.6-18-7-24m-56-169c18 6 22 30 21 35" style="opacity:.7882;fill:none;stroke:#fff;stroke-width:10;stroke-linecap:round;stroke-linejoin:round;stroke-miterlimit:10;enable-background:new"/></g><defs><style>.zab-3{fill:none;stroke-linecap:round;stroke-linejoin:round;stroke-width:10px;stroke:#000}</style></defs><path d="M550.4 800.2C662.9 839.6 644 929 776.5 930.6c13.5-.7 27.2-1.4 40.4 2.5-1.7-10.8-9.3-20-19-25.5 13.1-9 30.1-6.3 43.7-.4-14-38.5-70.6-36.5-95.8-66.8-15.5-16.5-13.2-39.1-18.6-59.3-10.7-40-59.7-71.3-98.4-48.6-48.9-68.9-140.1-51.6-157.3-28.1-27.1 37.1 2.7 87.5 78.9 95.8Z" style="fill:#ff0059"/><path d="M592.1 693.6a240.8 240.8 0 0 1 36.9 39.3c34.1-22.9 80.2 4.7 95.2 38.6 36.1-26.3 31.7-93.9-15.4-104.3-23.4-2.5-80.2 26.4-116.7 26.4Z"/><path d="M520.4 791.5q5.4-10.7 10.5-21.3l14.2 28.2Zm-18.7-103c9.8 16 20.1 31.8 30.9 47.1l14.8-47.1Zm161.9-9.4c11 11.9 19.5 26 31.4 37l11.4-48.4Zm48.9 73.3 6.7-23.2 19.6 23.4-14.7 18.4-11.6-18.6z" style="fill:#fff"/><path class="zab-3" d="M767.3 894.2c19.5 17.4 40.7 6.7 55.6 41.9-19.2-7.7-40.6-4.7-61.2-6-137.3-8.9-91.2-107.9-248.8-137.2-28.9-5.4-61.1-40.2-50.2-72.1 21.5-63.1 110.6-18.9 161.8-31.1 32.9-7.8 73-35.9 104-13.3 33.8 24.8 23.7 68.1-3.1 96.1"/><path class="zab-3" d="M580.4 690.8c32.9 15 55 49.4 68.6 81.9m-18.7-39.8c35.5-25.6 86.8 10.4 95.2 48.5 5.1 23.4 6.7 49.5 26.3 66.4 28.2 24.3 76.3 24.4 95.5 60.9-15.7-5.7-34.9-11.3-49.8-1M500.6 689l33.2 50.3 14.6-50"/><path class="zab-3" d="M663.4 680a402.5 402.5 0 0 1 32 40.4l12.2-50.8M519 791.8c4.3-7.9 6.7-14.5 13-23.8l15.3 32m165-50.3a224.9 224.9 0 0 1 7.8-22.2l20.8 23.6"/><path d="M480.1 696.3c-38.8 20.9-21.3 73.2 3.3 90.5 41 28.8 70.2-11 172.3 100.5M531.2 767.2l-18.3 22.5m254.7 102.4c12.9 10.1 30.7 6.8 45.8 10" style="opacity:.6;stroke:#000;fill:none;stroke-linecap:round;stroke-linejoin:round;stroke-width:10px"/><path d="M604 729.2a90.1 90.1 0 0 1 18.8 29.4m6.2 13.6 1.9 3.3m53.8-28.5a47.4 47.4 0 0 1 22.6 28.5m3 12.5.8 2.8M677 884.1a103.4 103.4 0 0 0 37.2 22.7m11.2 3.5 3.6 1m55.1-31.2a49.8 49.8 0 0 1 18.4 8.1" style="stroke:#fff;opacity:.83;fill:none;stroke-linecap:round;stroke-linejoin:round;stroke-width:10px"/><path d="M653.1 772.7c-4.7-16.5.8-36.2 17.1-43.9-13.4-4.3-30.6-1.6-41.9 2.7m-12.9-7.2c-21.5-13-45.2-16.2-70.3-15.2 1.7-5.2.9-14.8 1.3-20.7 28.1-3.2 53.5 10.4 69 35.9Zm-85.2 18.5c-17.6-20.5-30.2-43.2-61.3-31.8 5.1-9.6 21.5-17.9 31.5-22.3" style="opacity:.6"/><style>.st16,.st40,.st68{fill:none;stroke:#fff;stroke-width:10;stroke-linecap:round;stroke-linejoin:round;stroke-miterlimit:10}.st40,.st68{stroke:#000}.st68{opacity:.6;enable-background:new}</style><g id="visor"><path class="st68" d="M425 452.5c-10 10-4 21-3 34 1 17.5-25 17-23 50.8 2 14 13.5 16 23 23.7 16 13-12 46.5 10.5 59 28 9 30-39 60.5-13 35 26 45-3 76-1 14 3 23 19.6 37 17.6 15-2 18-20 26-30.7 12-16 32 5 58-7 14-7 10.8-31 27-33 10-1 22-7 25-17.8 1-4 .7-9 3-11.9 3-4 9-5 11-9"/><path class="st68" d="M483 474c-28 10-52 59-14 72m214-104.1c32-1 53 43 26 64m-216 .1c-38 74 159 54 184 5"/><path d="M667 467c-60.6-40.6-281 59-113 83.5 33 5 185.5-41 113-83.9v.4z" style="fill:#fff"/><linearGradient id="SVGID_00000094605671738681660570000007936507584095639945_" gradientUnits="userSpaceOnUse" x1="531.586" y1="652.528" x2="653.586" y2="545.528" gradientTransform="matrix(1 0 0 -1 0 1100)"><stop offset="0" style="stop-color:#7b00ff"/><stop offset="1" style="stop-color:#ff0084"/></linearGradient><path style="fill:url(#SVGID_00000094605671738681660570000007936507584095639945_)" d="M550 467.8c-14 18 11 55 13 77 5 7 19.7 5 25-2 12-19.9-19.5-44-2-62 34-18 16 44 33 54.9 14 3 24-5 18-20-3-15 7-32-2-46-17-26.7-57-6.7-85-1.9z"/><path class="st16" d="M616 472c4 3 6.5 7 7 12m1 11v3"/><path d="M589 509.6c-6 26 3 45 25 27.9 4-17.5-4-37.8-25-27.9z"/><path class="st40" d="M623 456c-34 1-67 9-98 22.5-39.6 17-51 50.7-3 66 40 13 129-5.8 157-37.4 27-31.1-23.5-52.1-56-51.1zm-138 18c-20 15.5-47 54-14 71m210-103.1c29 12 42 36.5 27 65"/><path class="st40" d="M548 470c-15 25 21 51 15 75m57-87c33.5 21 8 44.5 21 70m-51.3 15c6-24-26-55-1-64 30-4 16 42 30.5 58"/><path class="st40" d="M580 500c4 9 19.8 11 27 7"/><linearGradient id="SVGID_00000036223863161345539850000005378798673148752026_" gradientUnits="userSpaceOnUse" x1="447.777" y1="687.666" x2="720.78" y2="506.665" gradientTransform="matrix(1 0 0 -1 0 1100)"><stop offset="0" style="stop-color:#ff002b"/><stop offset="1" style="stop-color:#ffd500"/></linearGradient><path style="opacity:.6902;fill:url(#SVGID_00000036223863161345539850000005378798673148752026_);enable-background:new" d="M490 437.6c-27-5-59.5-2-69 27.5-2 8 6.5 14 8.5 23-13 13.5-31 37-21 56 17 16 28 12 22 41.3-4 12 0 36 16.5 28 24-20.5 25-38 55-9.8 36 21 42-28 89 4.9 5 3 10.5 7 16 5.2 5-1 9-7 10.9-11.5 19.7-55 51 4 78-31 18-41 36-9 44-50 9-8 22-7 24-22.2 3-23-25-35-31-54.5-6-26 13-63-29-63-42 9.6-31 58-93 33-71-35-61.4 34.5-120.9 23.1z"/><path class="st16" d="M713 395c6.5 2 9 9 9 15m-2 13v2m26.5 60c3 3 5 8 5 13m-183-80c6-3 13.5-1 19 2m12.4 4 2.1 1m-121.5 25c-7-1-15-1-22 0M726 523c1 4 0 8-2 11m-36 27.5c-2 4-4 9-9 10.6m-12-.1h-2m-56 21c-1 3-3.5 6-5.5 9M535 592c-4 4-10 5-16 5m-11-4-2-1m-65-1.3c-1.5 3-2 7-.5 10M427 513c-4 4-6 9-7 15m-.3 10.5.3 1.5"/><path class="st68" d="M737.5 501c3 7 11 11.5 19 10.6M449 464c-5 6-13 10.9-21 13"/><path class="st40" d="M449 464c-9 26-42 39-44 68-1 8 4 17 12 19 6.5 2 13 3 15 9.8 5 16-13 44 5.5 52 24 11 23-43 58-14 45 37 47-28 95 11 27 22 25-16 40.8-28.5 15-12 35 8 52 2 15-5 15-24 24-33 7-5 17-2 23-7 14-9.6 4-29.9 7-44"/><path class="st40" d="M431 486c-24-21 3-49.7 29.8-49.5 24-2 56 9.6 74-10 39-42 61-9.7 103-5.2 46.5 2 39-48.5 78-39.5 29 11 16 33 17 56 1 18 19 29.5 27 44.9 10 16 0 42.5-21 33"/></g><defs><linearGradient id="zbd" x1="531.69" y1="69.46" x2="554.66" y2="438.37" gradientUnits="userSpaceOnUse"><stop offset="0" stop-color="#f09a11"/><stop offset=".16" stop-color="#f09613"/><stop offset=".33" stop-color="#f0891b"/><stop offset=".51" stop-color="#f07427"/><stop offset=".69" stop-color="#f05638"/><stop offset=".87" stop-color="#f0304d"/><stop offset="1" stop-color="#f0115f"/></linearGradient><linearGradient id="zbd-2" x1="542.92" y1="235.77" x2="534.97" y2="331.83" gradientUnits="userSpaceOnUse"><stop offset="0" stop-color="#f0e511"/><stop offset=".12" stop-color="#f0e011"/><stop offset=".26" stop-color="#f0d211"/><stop offset=".42" stop-color="#f0ba11"/><stop offset=".58" stop-color="#f09911"/><stop offset=".75" stop-color="#f06e11"/><stop offset=".92" stop-color="#f03b11"/><stop offset="1" stop-color="#f02011"/></linearGradient><style>.zbd-3{fill:none;stroke-linecap:round;stroke-linejoin:round;stroke-width:10px;stroke:#000}</style></defs><path d="M263.9 257.4c-54.1 48.5-21.8 131.7 33.9 164.7 19.9-14.3 33.6-34.7 32.6-60.2 37.7 14.1 79.3 10.7 119.4 7.6 105.8-8.2 216.5 23.6 322.1.2 153.4-62 81.8-200-90.4-125C697.4 131.9 594 86.4 528 138.4c-47.8-30.3-205.7-25.9-141.5 78.4 3.3 15.6 6.2 33.1.3 48.3-38.6-17.2-85.3-41.2-122.9-7.7Z" style="fill:url(#zbd)"/><path d="M387.5 265c99.2 70 203.9 63.7 303.6 29.2a95.3 95.3 0 0 1-8.6-34.4c-93.1 29.5-196.1 15.3-289.1-8.6a118.9 118.9 0 0 1-5.9 13.8Z" style="fill:url(#zbd-2)"/><path class="zbd-3" d="M683.8 246.3c214-87.9 216.6 108.9 66 128.2-91.8 11.7-184.8-11.4-277.2-5.4-48.6 3.1-97.8 7.6-144.5-6.8 5.1 25.8-12.5 44.8-31.8 60.1-58.9-34.9-88.9-126.6-24.7-172.8 79.3-56.9 276.5 176.9 485.7 87.8"/><path class="zbd-3" d="M528 138.4c40.3-37.7 138.7-20.9 149.9 46.5 8.9 53.7-12.7 97.2 38.3 134M539.3 155.8c-42.1-55.2-120.8-35.7-149.2-16.4-51.9 35.4 15.5 61.1-1.5 125.5"/><path class="zbd-3" d="M681.5 260.6c-94.3 28.1-195.1 14.6-288.7-10.4M692 295.4c-69 22.1-138.6 27.5-210.7 16.9"/><path d="M330.6 370.2c56.7 18 118 5.8 177.5 5.1 47.2-.6 94.2 6.3 141.3 9.4s95.5 2.6 140.3-12.4m-32.4-36.8c-72.7 21.9-154 21.4-224.4-8l-18.3-5.5a438 438 0 0 0 179-20.1m-301.7-44.3c32.2 26.4 73.3 38.8 109.8 59" style="opacity:.6;stroke:#000;fill:none;stroke-linecap:round;stroke-linejoin:round;stroke-width:10px"/><path d="M779.1 242c15.9-2.2 33.8.8 44.9 13.3m6.4 12.1a23.7 23.7 0 0 1 .9 9.9M625.2 145.9a39.9 39.9 0 0 1 26.7 24.8m4.7 18 .5 5.6m-187.2-57.6a73.4 73.4 0 0 1 42 15.4m-58.5-15.7a18.2 18.2 0 0 0-4.6.6M326.4 259.2c-13.5-4.8-29.7-7-42.3 1.2m-11.1 8.4-3.1 3.1m398 4.8a228.8 228.8 0 0 1-55.6 11.3m-15.2.9-8.6.3m104.4 26.4a46.3 46.3 0 0 0 10 10.7m108.6 8.7a113.9 113.9 0 0 1-30.5 17.8" style="stroke:#fff;opacity:.8;fill:none;stroke-linecap:round;stroke-linejoin:round;stroke-width:10px"/><path d="M325.7 359c-18.8 17.9-45.4 21.9-69.6 22 4.6 14.5 20.5 27 32.9 35.9 5.1 4.3 11.5 2.1 15.8-2.5 12.7-13.5 30.7-35.8 20.9-55.4Zm217.8-203.1c-2.8-14 5.3-29 18.6-34.2a76.7 76.7 0 0 0-35.8 17.2" style="opacity:.6"/><circle cx="550" cy="550" r="500" style="fill:none;stroke:#000;stroke-width:10;stroke-linecap:round;stroke-linejoin:round;stroke-miterlimit:10"/></svg>