<svg xmlns="http://www.w3.org/2000/svg" viewBox="0 0 2453 1392.6"><g transform="matrix(.7 0 0 .7 315 31.85)"><svg version="1.1" id="Layer_1" xmlns="http://www.w3.org/2000/svg" x="0" y="0" viewBox="0 0 1100 1100" style="enable-background:new 0 0 1100 1100" xml:space="preserve" xmlns:xlink="http://www.w3.org/1999/xlink"><defs><style>.zc-2,.zc-3{fill:none;stroke-linecap:round;stroke-linejoin:round;stroke-width:10px}.zc-2{stroke:#4a4a4a}.zc-3{stroke:#00ff37}</style></defs><g id="Layer_72" data-name="Layer 72"><path d="M531.7 209c-67.9 59.6-70.9 20.3-120.8 36.5-19.6 10.9-14.3 30.3-9.7 39.6 11.2 22.8-50.8 8.7-68.6 40.3-10.3 18.3.1 42.2-7.5 61.8s-33.8 34.7-36.8 52.2c-43.4 48.2-154 6.6-119.1 70.4 6.2 11.4 32.9-6.3 39.1 9.1 7 17.5-38.8 29.4-21.3 46.7 17.7 4.9 20.7 39.9 56.9 63.2 13.8 20 2.7 51.4 19.4 69.1 35.8 37.8 46.3-24.8 41.3-34.3 4.3-38.8 43.9-10.6 22.2 38.7-22.8 51.7 11.2 74 36.5 56.6 24-8.9 13.3 38.7 23.3 50.9 19.5 37.2 54.9 11.6 66.6 12 18.1.7 28 22.3 29.8 40.3 6.5 63 53.6 46.3 59.1 8 15.5-34.3 45.1 48.6 46.9 59.9 11.3 72.6 69.3 42 70.8 17.9 3.3-54.1-3.2-60.1 1.7-68.3 18.5-31.1 71 13.3 90.8-15.5 13.6-19.7-31.2-63.5 7.9-55.4 94 19.4 18.7-100.7 13.8-120.4-8.8-35.5 13.9-105.6 46.9-121.7 18.1-8.8 17.1-35.5 7.4-52.8s-24.9-30.6-31.4-48.9c-13.5-54.4 22.4-102.1-36-133.3a10.2 10.2 0 0 1-3.9-14.4c17.1-26.3 1.3-66.4-31.8-71.4-22.1-3.3-44.3 8.9-66.5 6.3-43.8-5.2-80.2-74.1-127-43.1Z" style="fill:#757575"/><path class="zc-2" d="M416.3 430.8c-7.8 85.7-9.7 162.5-14.6 245.2-15.1 6.6-15.8 30.7 1 32.6"/><path class="zc-2" d="M268.4 456.4q-1.3 51.9-5.7 103.6c86.9 6.2 172.1 5.7 258 12.8.8 15.4 20.6 16.8 27.6 6.3"/><path class="zc-2" d="M446 564.3c-2.2 48.2-4.3 96.5-.6 144.5l102.9 7.6"/><path class="zc-2" d="M504.2 793.2a1259.8 1259.8 0 0 1-4-130.1c-9.2-4.4-11.8-17.1-.3-22.8m-89 104.8-.1 83.7"/><path class="zc-2" d="M415.9 788.2c58.7-.6 115.8-1 176.4-.6 4.4 12.8 18.4 10.7 22.6 1.9M375.8 302.8c-.7 34.1-5.5 102.7-5.8 102.4-9.5 5.5-16.4 18.6-.4 26.1m117-190.5c-4 52.9-9.6 103.1-10.8 155.2"/><path class="zc-2" d="M378.1 380.3c79.4 1.5 159.1 4.3 238.4 4.3m-131.7-43.9a705.1 705.1 0 0 0 80.9 6c2.1 11.1 12.6 11.4 17.1 4.6m73-99.4c-22.8 113.8-33.3 229.4-33.3 345.8"/><path class="zc-2" d="M790.1 437.5c-60.6-2.3-118.7-4.1-179-8.9 0 10.8-13.8 16.2-20.3 4.2"/><path class="zc-2" d="M690.3 634.1c6-76.9 12-153.9 24.2-229.5-11.3-4.6-18-23.6-2.4-32.4"/><path class="zc-2" d="M558.1 620.2a1265.5 1265.5 0 0 0 220.2 6.3"/><path class="zc-2" d="M632.7 622.6c9.4 108.6 8.8 220.1 28.8 330.2M418.1 482.2l235.5 15.9"/><path class="zc-2" d="M799.4 736.5c-74.3 4.6-143.2 5.8-216.2 6-9.8 14.5-22.4 14.1-28.5 3.3"/><path class="zc-3" d="M274.9 453.3c-.5 33.5-2.7 66.9-6.3 100.1l251.2 12m-67.1-.2q.3 68.4-1.8 136.7l98.6 8.1"/><path class="zc-3" d="M507.4 662a1249.5 1249.5 0 0 0 5 129.8m-91-360q-8.1 123.3-12.5 246.9m13.6-203.4c77 7.5 154.2 14 231.4 18.3M494.5 237.3C488.5 290 484 343 481 396m8-61.3c25.8 2.9 51.7 5 77.7 6.1M383.3 303c-2.1 35.5-4.7 70.9-7.6 106.3"/><path class="zc-3" d="M380.9 374.1c78.1 1 159.3 6.7 234.6 6.7m45.3-128.7A2110 2110 0 0 0 626 596.9"/><path class="zc-3" d="M791.1 434.5c-61.8-5-119.4-6.7-181.8-11.7"/><path class="zc-3" d="M721.5 403.7q-16.7 116.1-25.2 233.1"/><path class="zc-3" d="M783.7 620.7a1735.9 1735.9 0 0 1-224.6-4.1m79.1 6.9c10.7 106.6 7.9 214.6 26.8 320.1"/><path class="zc-3" d="M796.7 732.4c-76.7 2.3-144.6 2-217.1 4.1m-163.8 95.1c-.3-29.8.2-59.5 1.4-89.3m.5 39.6c58.5 0 115.7-.5 175.3-.5"/><ellipse class="zc-3" cx="577" cy="339.7" rx="10.4" ry="14"/><ellipse class="zc-3" cx="598.3" cy="420.8" rx="10.9" ry="16.7"/><ellipse class="zc-3" cx="374.9" cy="421" rx="11.1" ry="11.7"/><circle class="zc-3" cx="538.2" cy="565.4" r="17"/><ellipse class="zc-3" cx="564.5" cy="737.8" rx="13.3" ry="12.4"/><ellipse class="zc-3" cx="606.2" cy="781.9" rx="11.6" ry="11.7"/><circle class="zc-3" cx="722.4" cy="384.6" r="16.2"/><circle class="zc-3" cx="408.9" cy="694.8" r="15.2"/><ellipse class="zc-3" cx="508.6" cy="648.7" rx="13.4" ry="11.1"/></g><style>.st40{fill:none;stroke:#000;stroke-width:10;stroke-linecap:round;stroke-linejoin:round;stroke-miterlimit:10}.st98{opacity:.6;enable-background:new}</style><g id="Outline"><path class="st98" d="M793 537c-1 .7-1 2-.5 3 5 10 11 35 25 30 8-2 21-13 18-22.4-.5-1-2-2-3-1.5-26 12-28-11-39-9.4v.3zm-34 274.5c6 5 26 8 25-3-6-7-20.6-12-21.5-26C750 772 744 803 759 811.5zm-219.3 52s1 .5 1 .8c9 13.5-3 36-18 40-34 6-9-6-6-44 .3-5.3 22.3 2.7 23 3.2zM342 731c5 7-4 22-4 33 8 13 29.6-5 33-14.9 2-12-17-21-28-20.2-1 .1-1 1.1-1 2.1zm31-120.2c2 23-8 47-26 61.9-13 10.9-17.5-30.6-8-27.9 6 4.2 28-18.8 34-34zm-157-59.9c-8 6-17 3-25 1-11 5 4 20 13.5 16 5-4 12-9 12-15.7-.5-.2-1.5-.2-.5-1.3zM337 473c-6-10-3-23 0-34 0-1 0-2-.6-2-9-9-23 11-19.8 20.7C318 463 338 475 337 472.8v.2z"/><path class="st98" d="M326 392c-2 29 24 45 7 44-7 2-14 1-15 11-1 11-24 0-24.5-1.3C285 433 317 404.5 326 392zm103-118c-9.9-4-16-16-18-25-4-6-9.9 1-11 6-7 54 29.5 28 29 19zm293 9c16 21 29.5 12 40 20.7 3 4 1 9.6-1 14-3 9-13 9-20 4.1-14.5-5.8-22-22.2-19-38.8z"/><path class="st40" d="M347 729c53.5 5 15 86 59 102 25 9 37-19.8 55-11.9 23 10.1 19.6 40 24 60.7 9.6 46 63 29.6 58-12.8"/><path class="st40" d="M519 861c89-9 47.5 119 114.5 115 39-6 35-47 25-76.5-3-9 0-18.5 7-24.5 24.5-21 59 15.5 84-2.5 15-11 8-33-2-45-12-15 0-32 10-43"/><path class="st40" d="M790 539c53 69.8-64 71 8 194.5 6 14 11 32 11 48.5 0 32-49 47.5-61 16"/><path class="st40" d="M721 287c2 51 64 31 74 88 6 34-11.5 71 7 103 10 18 27 31.5 34 51 8 19-4 47-27 42"/><path class="st40" d="M407 290.6c-16-8-12-29.9-2-41 17-15 40.5-10 61-6 29.8 1 49-29 75-38 50-17 81 55 133 44 23-5 48-11 69 1 25 14 33 55 10 75"/><path class="st40" d="M428 278c-16 26.5-51 17.5-76 28.5-20 10.5-28 33-23 55 10 47-43 51-39 88m25 4.5c1.5-23 35-26 41-5 7 25-13 47 16 72"/><path class="st40" d="M334 476c-20-34-61-31.5-89-9.6-20 8-43-3-64 4-22 7-28 37-5 43.5 6.5 2 23-2 26-1 15 4 11 25-5 30-21 6-10 29 6 29"/><path class="st40" d="M216 554.5c-15 15-14 41 2 55 37 22 41 31 36 69.7-2 31 46 41 53.5 10 2-10.8-4-22 0-33 13-32 44 20 62-44.5"/><path class="st40" d="M327 647.9c25 29.7-.5 47-7 75-10 32.5 34 65 53 25"/><path d="M729 262.5c9 4 16 13 18 22.5m-193-68c12.5 2 24.5 8 34 16m9 9 3 3m-163 10c-5.5-.9-12 .6-15.5 4M362 319.6c-9 2-14 10.7-16 19M339 449c4 1 6 6 6 9.8M308.5 470c-12-6-16-5-22-4M175 492c1-4 5-7 9-7.5m38 89.5c-4 8 0 16 4 19.9m44 78.6c-1 6 1 15 9 18m76-77.5c-3 14-13 14.5-16 16m4.5 119.5c-5-3-9-9-8-15M397 782c-1 14.5 7 28 14 30m90 53.9c-3 12 2 27 14.5 25M636 957c14-3 17-28 11-38m96-60.1c1-7 0-14-4-19m46-49.1c8-6.5 9-25 3-39M786 582c5-8 3-19-3-26m37-12c2-8.5-.6-18-7-24m-56-169c18 6 22 30 21 35" style="opacity:.7882;fill:none;stroke:#fff;stroke-width:10;stroke-linecap:round;stroke-linejoin:round;stroke-miterlimit:10;enable-background:new"/></g><style>.st40,.st68{fill:none;stroke-width:10;stroke-linecap:round;stroke-linejoin:round;stroke-miterlimit:10;stroke:#000}.st68{opacity:.6;enable-background:new}</style><g id="Eye"><linearGradient id="SVGID_00000144327888440828662330000012949225208094602647_" gradientUnits="userSpaceOnUse" x1="232.314" y1="-555.531" x2="336.458" y2="-482.43" gradientTransform="translate(0 1066)"><stop offset="0" style="stop-color:#00ff04"/><stop offset=".811" style="stop-color:#00fccf"/><stop offset="1" style="stop-color:#00fbff"/></linearGradient><path style="fill:url(#SVGID_00000144327888440828662330000012949225208094602647_)" d="M278 494c-31 10.8-13 49-9.5 56 8 16-9 32.5 9 50.8 9 9 46 8 40.7-31-2-13-13-23-13.5-35.8-.7-21-3.7-48-26.7-40z"/><path d="M273 498c-6.5 9-1 22 4 30.8 6 8 13 15 14 25 2 14-6 31 3 43.7 15 18 30.6-23 23-35-3-7-8-13.5-10-20.8-5-16 2-45-21-49" style="opacity:.5098;fill:#fff;enable-background:new"/><path class="st68" d="M274 516c9 24.5 14 39 18 64"/><path class="st40" d="M278 494c-31 10.8-13 49-9.5 56 8 16-9 32.5 9 50.8 9 9 46 8 40.7-31-2-13-13-23-13.5-36C304 513 301 486 278 494z"/><path class="st40" d="M282 526c6 17 10.5 35 14 53"/><path d="M279 515c1 4 2 7 3.5 11m24.5 46.9c1 5 1.5 13-5 19" style="fill:none;stroke:#fff;stroke-width:10;stroke-linecap:round;stroke-linejoin:round;stroke-miterlimit:10"/><path class="st68" d="M264 495.9c-15.5 19-6 44 1 65 3 9-3 18-1 27 4 24 31 31 46 12"/></g><defs><radialGradient id="radial-gradientzaa" cx="765.67" cy="820.76" r="91.18" gradientTransform="matrix(-.16 .83 -1.38 -.03 2001.21 206.15)" gradientUnits="userSpaceOnUse"><stop offset="0" stop-color="#ef0aff"/><stop offset=".09" stop-color="#f10af6"/><stop offset=".24" stop-color="#f50add"/><stop offset=".44" stop-color="#fc0ab4"/><stop offset=".5" stop-color="#ff0aa5"/><stop offset="1" stop-color="#ff120a"/></radialGradient><linearGradient id="zaa" x1="655.87" y1="735.42" x2="729.22" y2="794.94" gradientUnits="userSpaceOnUse"><stop offset="0" stop-color="#ff0a47"/><stop offset="1" stop-color="#f30aff"/></linearGradient><style>.zaa-8{fill:#fff}.zaa-3,.zaa-4{fill:none;stroke-linecap:round;stroke-linejoin:round;stroke:#000;stroke-width:10px}.zaa-4{opacity:.6}.zaa-8{opacity:.42}</style></defs><path d="M746.8 738.6c-5.3-98.1-108.5-6-249.9-53.8-16-5.4-33.6-10.3-49.7-5.1-36.3 11.7-11.4 58.9 7 78.8 57 61.6 153.8 83 228.1 46.5Z" style="fill:#fff"/><path d="M735.1 749.8c-17.4 18.8-28.3 48.2-32.2 73.7-20.1-28.8-49-49.4-76.1-71.1 26.7-1.1 52.2-11.9 77.9-17.4 9.4 5.8 17 11.8 30.4 14.8Z" style="fill:url(#zaa)"/><path class="zaa-3" d="M746.8 738.6c-5.3-98.1-108.5-6-249.9-53.8-16-5.4-33.6-10.3-49.7-5.1-36.3 11.7-11.4 58.9 7 78.8 57 61.6 153.8 83 228.1 46.5"/><path class="zaa-3" d="M619.6 752.8a229 229 0 0 1 86 76m2.5-93.2a64.3 64.3 0 0 0 25.2 15.7M435.1 646.2c-26.5 2.1-46.7 28.8-41.7 54.8"/><path class="zaa-3" d="M743.1 719.5c-71.5 34.3-231 64.9-310.8-21.4"/><path class="zaa-4" d="M435.1 646.2c-28.1-8.1-56.3 32.7-41.7 54.8m41-14.5c-16.4 16.7-7.9 43.9 4.2 60.2 54.4 73.6 162.5 103.4 245.9 66.1 4.1 6.9 11.5 11.7 14 19.3 2.3 12 2.4 24.5 6 36.4"/><path class="zaa-4" d="M432.8 707.1c46.6 52.8 121.3 55.3 186.7 53.9 12.9-.2 37.2 25.2 58.1 41.8m63.3-75c-32.5 14.2-69.6 23.7-105 29.3m87.5-8.2c-21.3 11.1-35.9 28.5-42.5 49.3"/><path d="M433.5 659.7c-8 .9-21.7 9.4-24.2 21.9" style="stroke:#fff;stroke-width:10px;fill:none;stroke-linecap:round;stroke-linejoin:round"/><path d="M659.8 763.9a134.8 134.8 0 0 1 14.3 10" style="stroke-width:8px;stroke:#fff;fill:none;stroke-linecap:round;stroke-linejoin:round"/><ellipse cx="749.8" cy="821.8" rx="107.7" ry="68.9" transform="rotate(-51.8 749.772 821.786)" style="fill:url(#radial-gradientzaa)"/><ellipse class="zaa-8" cx="711.3" cy="899.3" rx="18.2" ry="15" transform="rotate(-76.7 710.867 899.148)"/><ellipse class="zaa-8" cx="778.7" cy="759.5" rx="22.7" ry="16.3" transform="rotate(-61.4 779.5 759.65)"/><ellipse class="zaa-8" cx="814.3" cy="791" rx="14.5" ry="11.3" transform="rotate(-66.8 814.833 791.109)"/><ellipse class="zaa-8" cx="771.4" cy="867.8" rx="25.6" ry="19.9" transform="rotate(-66.8 771.867 867.986)"/><ellipse class="zaa-8" cx="729.4" cy="796.5" rx="22.9" ry="17.8" transform="rotate(-66.8 729.813 796.628)"/><ellipse class="zaa-8" cx="772.3" cy="816.6" rx="12.1" ry="9.4" transform="rotate(-66.8 772.817 816.715)"/><ellipse class="zaa-8" cx="729.3" cy="861" rx="12.1" ry="10.3" transform="rotate(-89.8 728.925 860.985)"/><ellipse class="zaa-8" cx="804.1" cy="833.8" rx="9.6" ry="7.5" transform="rotate(-66.8 804.545 833.937)"/><ellipse class="zaa-8" cx="745.6" cy="748.9" rx="10.5" ry="8.1" transform="rotate(-66.8 746.123 748.958)"/><ellipse class="zaa-8" cx="689.9" cy="800.7" rx="14.1" ry="9.5" transform="rotate(-59 689.062 800.39)"/><ellipse class="zaa-8" cx="696.7" cy="851.2" rx="16.2" ry="10.6" transform="rotate(-58 696.756 851.168)"/><ellipse class="zaa-8" cx="819.8" cy="748.9" rx="10" ry="7" transform="rotate(-60.3 820.367 749.004)"/><ellipse class="zaa-3" cx="749.8" cy="821.8" rx="107.7" ry="68.9" transform="rotate(-51.8 749.772 821.786)"/><path d="M770.6 745.7a128.4 128.4 0 0 0-69.7 58.9m-9.2 16.3a74.3 74.3 0 0 0-3.9 11.2" style="stroke-width:13px;opacity:.82;stroke:#fff;fill:none;stroke-linecap:round;stroke-linejoin:round"/><linearGradient id="a18" gradientUnits="userSpaceOnUse" x1="567.997" y1="610.614" x2="741.994" y2="610.614" gradientTransform="matrix(1 0 0 -1 0 1100)"><stop offset="0" style="stop-color:#0ff"/><stop offset=".5" style="stop-color:#ff03af"/><stop offset="1" style="stop-color:#0095ff"/></linearGradient><path style="fill:url(#a18);stroke:#000;stroke-width:10;stroke-linecap:round;stroke-linejoin:round;stroke-miterlimit:10" d="M569 425c-9 24 89 51 74 72-2 3-21-4-26 10.9-10 32 104 76 123 50.3 13-18.5-63-39.9-57-59.9 3-11 38 1 45-15.9 11-26.5-143-97-159-57.7v.3z"/><linearGradient id="b7" gradientUnits="userSpaceOnUse" x1="393.997" y1="591.618" x2="567.994" y2="591.618" gradientTransform="matrix(1 0 0 -1 0 1100)"><stop offset="0" style="stop-color:#0ff"/><stop offset=".5" style="stop-color:#f700ba"/><stop offset="1" style="stop-color:#0095ff"/></linearGradient><path style="fill:url(#b7);stroke:#000;stroke-width:10;stroke-linecap:round;stroke-linejoin:round;stroke-miterlimit:10" d="M395 444c-9 24 89 51 74 72-2 3-21-4-26 10.9-10 32 104 76 123 50.3 13-18.5-63-39.9-57-59.9 3-11 38 1 45-15.9 12-27-143-97-159-57.7v.3z"/><path d="M393 442.5c-12 31 55 49 71 66 2.5 10-11 2-16 3-12 1-15 17-10 26.1 11 22 37 33 58.5 43.5 25 12 56 15 70.7-4M568 419c-27 38 87 60 65 74-83 9 78 112 108 65" style="opacity:.6;stroke:#000;enable-background:new;fill:none;stroke-width:10;stroke-linecap:round;stroke-linejoin:round;stroke-miterlimit:10"/><path d="M469.6 457c20.5 5 39.9 14 57 27M646 439c18 6 35 15 49 27m-2 63c8.5 3 16 8 23 14l1 1m-203 1c11 5 21 12 29.6 20" style="fill:none;stroke:#fff;stroke-width:10;stroke-linecap:round;stroke-linejoin:round;stroke-miterlimit:10"/><defs><linearGradient id="zbj" x1="516.88" y1="143.24" x2="596.42" y2="317.05" gradientUnits="userSpaceOnUse"><stop offset="0" stop-color="#0ff"/><stop offset=".08" stop-color="#1ab9ff"/><stop offset=".26" stop-color="#5a0cff"/><stop offset=".27" stop-color="#5d05ff"/><stop offset=".59" stop-color="#ff0fe7"/><stop offset=".86" stop-color="#ff6912"/><stop offset="1" stop-color="#ff1500"/></linearGradient><style>.zbj-3{fill:none;stroke-linecap:round;stroke-linejoin:round;stroke-dasharray:0 0 0 0 0 0;stroke:#000;stroke-width:10px}</style></defs><path d="M525.9 322.4c-10.7 12.5-13 27.9-2.2 41.6-2.7 13.8 5.9 30.6 22.2 28.1 8.2 15.2 31 20 42.3 5.4 13 5.9 28.9 4.8 42.1-2.6 19.8 12.2 41.2-2 36.4-25.6 11-10.9 9.7-28.6-1.8-39.3 5.2-12.8-4.1-26.2-18-27.8-5.1-14.8-24.8-21.9-37.8-11.9-13.2-7.3-29.2-4.3-40.1 6.5-11.7-9.1-46.4-8.5-43.1 25.6Z" style="fill:#dedede"/><path d="M532.9 207.8a226.2 226.2 0 0 1-45.1 28.4c11.7-107.3 133.3-157 134.8 46.4-6.1.7-9.8 2.6-14.6 7.5-12.5-5-27.5-3.1-39 4.7-5.1-2.8-10.6-5.5-16.4-6a145.7 145.7 0 0 0-19.7-81Z" style="fill:url(#zbj)"/><path class="zbj-3" d="M535.3 330.9c-32.4-25.2 23.9-62.9 38-23.3"/><path class="zbj-3" d="M525.9 322.5c-12.1 8.6-13.5 27.6-2.8 37.9m10.6-5.9c-19.8 9.9-8.9 46.3 13.5 37.7"/><path class="zbj-3" d="M547.2 382.2c-3.2 31.6 48.8 34.6 42.3 2.9"/><path class="zbj-3" d="M589.9 398.4c15.1 8.8 38.8 5.5 47.3-10.9"/><path class="zbj-3" d="M633.3 395c21.7 19.4 49.3-12.7 26.4-31.1m6.8 4.3c11.2-9.2 13-29.4-.4-37.5m-12.7 6.9c17.4-8 16-34.5-4.2-36.7m-34.2-2.4c-9.5-14.5-31.8-16.9-44.2-4.7m74.1 18.1c6.3-19.4-20.2-37.3-35.1-22.9m-86.5-97.6c23 25.7 28.1 63.6 30.9 96.9"/><path class="zbj-3" d="M623.5 281.9C610.6 51.5 492.7 154.5 487.3 237c17.4-4.1 29-19.3 44-27.9"/><path d="M621.6 285.7c-4.4 2.2-6 7.4-6.8 11.9m45.1 9.6c-5.2-1.6-10.4 1.2-14.5 4.3m28.2 31.5c-3.8-5.5-11.1-7.4-17.5-6.5m-18.3 51.7c2.5 6.6 6.5 10.4 13 11.9m-44.7.3a39.8 39.8 0 0 1-14.6-14.2m-45.9-5.5a26.2 26.2 0 0 1-11.4 8.9m40-82.1a24.5 24.5 0 0 1 8.3-20m-48.4 65.7a19.2 19.2 0 0 1-15.9-5.4" style="opacity:.37;stroke-width:10px;stroke:#000;fill:none;stroke-linecap:round;stroke-linejoin:round;stroke-dasharray:0 0 0 0 0 0"/><path d="M521.2 191.4c5.8 9.3-.1 21.2-6 29.2m14.6-7c12.6 21.4 15.6 46.5 18 71.8M523 318.3c-13.9 11.6-16.2 32.2-4.1 46.2-3.4 16.5 6.8 35.9 25.8 34.4 9.9 14.1 30.1 16.4 44 6.5a50 50 0 0 0 43-3.9 22.6 22.6 0 0 0 26.7-3.1m-37.8-122.2c-5.7.7-11.3 3.2-16.6 6.8-12.2-5.4-24.7-1.5-35.9 5.2a16 16 0 0 0-11.1-2.1" style="opacity:.6;stroke-width:10px;stroke:#000;fill:none;stroke-linecap:round;stroke-linejoin:round;stroke-dasharray:0 0 0 0 0 0"/><path d="M549.6 301.3a11 11 0 0 1 9.5 5.3m36.1-9a15.5 15.5 0 0 1 8 5.3m27.1-5.2a9.1 9.1 0 0 1 3.4 7.3m21.4 15a9.4 9.4 0 0 1-3.7 6.3m3.4 47.4a10.4 10.4 0 0 1 1 9.1m-28.8.9a17.8 17.8 0 0 1-8 5.5m-61.2-3.6a10.8 10.8 0 0 0 6.2 7.7m-29.5-18.8c-.7-3.3.8-6.8 3.1-9.3" style="stroke-width:7px;stroke:#fff;opacity:.81;fill:none;stroke-linecap:round;stroke-linejoin:round;stroke-dasharray:0 0 0 0 0 0"/><path d="M567.8 155.1c10.6 5 17.9 16.1 22.1 27.1m5.3 13.2c.3 1.2 1.7 6.3 1.9 7.5" style="stroke:#fff;opacity:.81;stroke-width:10px;fill:none;stroke-linecap:round;stroke-linejoin:round;stroke-dasharray:0 0 0 0 0 0"/></svg></g><defs><linearGradient id="utr" x1="-672.59" y1="1168.15" x2="1870.31" y2="648.88" gradientUnits="userSpaceOnUse"><stop offset="0" stop-color="#ff006f"/><stop offset="1" stop-color="#ff9100"/></linearGradient><linearGradient id="utr-2" x1="914.14" y1="119.84" x2="139.73" y2="1041.84" gradientUnits="userSpaceOnUse"><stop offset="0" stop-color="#00fff7"/><stop offset="1" stop-color="#0008ff"/></linearGradient><style>.utr-4,.utr-7,.utr-8{fill:none;stroke-linecap:round;stroke-linejoin:round;stroke-dasharray:0 0 0 0 0 0}.utr-8{stroke:#fff}.utr-4,.utr-7{stroke:#000}.utr-4,.utr-7,.utr-8{stroke-width:21px}.utr-5{fill:#fc004c}.utr-6{fill:#fff}.utr-7{opacity:.6}.utr-8{opacity:.7}</style></defs><g id="Layer_47" data-name="Layer 47"><path d="M1008.8 387.6C1943.1 316.2 2352 871 655.3 1330.2-243.6 1573.5-1360 1181.3 74.5 643c9.6 90.5 26 191.9 85 264 206.2 177.8 712.2 13 920.2-227a1204.1 1204.1 0 0 0-70.9-292.4Z" transform="translate(623.8 -21.9)" style="fill:url(#utr)"/><path d="M1080.3 686c-228.6 252.5-598.4 344.2-924.2 271.9C-246.7 8.5 952.3-413 1080.3 686Z" transform="translate(623.8 -21.9)" style="opacity:.67;fill:url(#utr-2)"/><path d="M653.2 119.5A362.6 362.6 0 0 1 808 236.6m54 78.4c.8 1.8 11.3 29.6 10.1 22.7" transform="translate(623.8 -21.9)" style="stroke-width:52px;opacity:.68;stroke:#fff;fill:none;stroke-linecap:round;stroke-linejoin:round;stroke-dasharray:0 0 0 0 0 0"/><path class="utr-4" d="M73.7 642.1c-1433.7 539.2-317.3 931.4 581.6 688.1C2352 871 1943.1 316.2 1008.8 387.6" transform="translate(623.8 -21.9)"/><path class="utr-4" d="M1080.3 686c-228.6 252.5-598.4 344.2-924.2 271.9C-246.7 8.5 952.3-413 1080.3 686Z" transform="translate(623.8 -21.9)"/><path class="utr-5" d="M1252.6 490.4c11.1-6.3 20.9-18.4 33.9-20 20 6.6 38.7 39 50.3 56.4-13.2 5.7-27.3 14.6-34.3 27.5 35.5 53 98.7 91.2 102.6-3.6 218.6-81.7-8.6-353.4-130.1-162.2-42-21.5-103.2 21.1-22.4 101.9Z" transform="translate(623.8 -21.9)"/><circle class="utr-6" cx="1991.3" cy="330.9" r="18.7"/><ellipse class="utr-6" cx="2069.1" cy="340.9" rx="21.5" ry="24.5"/><ellipse class="utr-6" cx="2020" cy="388.1" rx="37" ry="33.5"/><ellipse class="utr-6" cx="1930.5" cy="359.5" rx="23" ry="22.5"/><ellipse class="utr-6" cx="2042.5" cy="482.9" rx="32.5" ry="39.6"/><ellipse class="utr-6" cx="2097.6" cy="424.9" rx="28.5" ry="23.3"/><path class="utr-4" d="M1188.4 540c51.3 24.6 59.4-62.8 103.1-67m-48 182.9c1.7-46.8 49.8-112.3 92-131.2" transform="translate(623.8 -21.9)"/><path class="utr-4" d="M1268.8 446.8a320.9 320.9 0 0 1 84.6 103.8" transform="translate(623.8 -21.9)"/><path class="utr-4" d="M1251.1 495.2c-70.2-82.4-31.4-162.3 64.7-76.5m-13.6 136c63.1 103.2 135.5 43.5 77.3-52.3" transform="translate(623.8 -21.9)"/><path class="utr-4" d="M1404.3 549.3c218.2-64.9 1.8-358.5-129.1-164.7" transform="translate(623.8 -21.9)"/><path class="utr-7" d="M1284.3 481a383.8 383.8 0 0 1 39.6 45.8m57.6-24.4c11.8 15 24.5 30.7 42.3 37.6m-106.6-121.6c-13.8-13.7-28.7-29.3-30.6-49.6m-10.3 103.3a179.8 179.8 0 0 0-9.5-21.5m56.7 83.9a74.4 74.4 0 0 1 27.7 18.9" transform="translate(623.8 -21.9)"/><path class="utr-8" d="M1463.3 415.6a84.8 84.8 0 0 1-13.4 68.4m-20.4 17.6a32.4 32.4 0 0 1-5.3 4.5" transform="translate(623.8 -21.9)"/><path class="utr-5" d="M1240.6 731.1c15.2-8.7 28.5-25.4 46.3-27.5 27.4 9.1 53 53.7 68.9 77.7-18.1 7.9-37.4 20.2-46.9 38 48.5 73.1 135 125.7 140.3-5 299.1-112.7-11.7-487.3-178-223.7-57.4-29.6-141.2 29-30.6 140.5Z" transform="translate(623.8 -21.9)"/><ellipse class="utr-6" cx="2021.6" cy="519.4" rx="25.7" ry="25.9"/><ellipse class="utr-6" cx="2120.1" cy="538.8" rx="29.4" ry="33.8"/><ellipse class="utr-6" cx="2061" cy="598.4" rx="50.6" ry="46.2"/><ellipse class="utr-6" cx="1938.4" cy="558.9" rx="31.5" ry="31"/><ellipse class="utr-6" cx="2091.7" cy="729.1" rx="44.5" ry="54.6"/><ellipse class="utr-6" cx="2167.1" cy="649.1" rx="39" ry="32.2"/><path class="utr-4" d="M1152.7 799.5c70.2 34 81.3-86.6 141.1-92.3m-65.6 252.2c2.2-64.6 68.1-154.8 125.9-181" transform="translate(623.8 -21.9)"/><path class="utr-4" d="M1262.7 671a442 442 0 0 1 115.8 143.2" transform="translate(623.8 -21.9)"/><path class="utr-4" d="M1238.4 737.8c-96-113.6-42.9-223.8 88.6-105.6m-18.5 187.6c86.2 142.4 185.3 60 105.7-72.1" transform="translate(623.8 -21.9)"/><path class="utr-4" d="M1448.1 812.3c298.6-89.5 2.6-494.4-176.7-227.1" transform="translate(623.8 -21.9)"/><path class="utr-7" d="M1283.9 718.2a517.9 517.9 0 0 1 54.2 63.2m77.9-29.9c16.2 20.7 34.5 49.5 57.9 51.7M1329 631.8c-18.9-18.9-39.4-40.4-42-68.3m-14.1 142.4a261.1 261.1 0 0 0-12.9-29.7m77.6 115.7a102.6 102.6 0 0 1 37.9 26.2" transform="translate(623.8 -21.9)"/><path class="utr-8" d="M1528.9 627.9a118.2 118.2 0 0 1-18.3 94.5m-28 24.2a48.5 48.5 0 0 1-7.2 6.3" transform="translate(623.8 -21.9)"/><path class="utr-5" d="M-329.4 890.7c9-9.3 15-24 27.2-29.3 21.5.5 49.3 26.5 65.7 40.1-11.2 9.5-22.5 22.3-25.5 36.9 50.1 41.1 123.2 59.7 99.3-33.7C27.2 761.1-274.2 563.3-337.3 785c-47.3-8.6-94.8 50.8 7.9 105.7Z" transform="translate(623.8 -21.9)"/><circle class="utr-6" cx="-257.2" cy="723" transform="rotate(-16.7 -19.798 -1413.33)" r="19.1"/><ellipse class="utr-6" cx="-178.2" cy="710" rx="22" ry="24.9" transform="rotate(-16.7 59.327 -1426.075)"/><ellipse class="utr-6" cx="-212.4" cy="770.3" rx="37.8" ry="34" transform="rotate(-16.7 25.11 -1366.023)"/><ellipse class="utr-6" cx="-308.4" cy="768.7" rx="23.5" ry="22.9" transform="rotate(-16.7 -70.712 -1367.559)"/><ellipse class="utr-6" cx="-162.7" cy="856" rx="33.2" ry="40.2" transform="rotate(-16.7 74.787 -1280.084)"/><ellipse class="utr-6" cx="-125.8" cy="783.4" rx="29.1" ry="23.7" transform="rotate(-16.7 111.586 -1352.982)"/><path class="utr-4" d="M-377.8 957.8c57.3 9 39.8-78.5 81.3-95.3m6.5 192.1c-12.1-46.1 15.9-123.9 51.7-154.8" transform="translate(623.8 -21.9)"/><path class="utr-4" d="M-326.4 843.6a325.5 325.5 0 0 1 113.1 76.3" transform="translate(623.8 -21.9)"/><path class="utr-4" d="M-329.6 895.9c-92.7-59.6-78.1-148.8 41-93.5m26.4 136.4c91.8 82 145.2 2.7 60.4-73.6" transform="translate(623.8 -21.9)"/><path class="utr-4" d="M-163.9 903.6C30.6 776.4-266.7 554.1-338.3 781.1" transform="translate(623.8 -21.9)"/><path class="utr-7" d="M-301.2 872.4a380.9 380.9 0 0 1 52.1 32.9m49.2-40.6c16 11.1 32.9 22.6 52.4 24.1m-139.8-87.1c-17.5-9.3-36.7-20.1-44.4-39.2m20 103.5a193.2 193.2 0 0 0-15.5-18.2m79.9 65.1a75.6 75.6 0 0 1 32.7 10.3" transform="translate(623.8 -21.9)"/><path class="utr-8" d="M-145.2 756.1a86.1 86.1 0 0 1 6.9 70.6m-14.9 23.1a31.9 31.9 0 0 1-3.8 6" transform="translate(623.8 -21.9)"/><path class="utr-5" d="M101.9 1046.4c9-12.8 13.3-30.9 26.9-39.8 25.6-4.4 63.5 18.8 85.6 30.4-11.6 13.4-22.6 30.7-23.4 48 67.3 35.3 157.5 39.5 111.6-61.5 198.9-208-196.4-363.4-229.9-95.9-57.8 1.2-103.1 80 29.2 118.8Z" transform="translate(623.8 -21.9)"/><ellipse class="utr-6" cx="156.3" cy="838.3" rx="23.3" ry="21.9" transform="rotate(-26.9 422.669 -476.237)"/><ellipse class="utr-6" cx="247.9" cy="805" rx="26.7" ry="28.6" transform="rotate(-26.9 514.406 -509.554)"/><ellipse class="utr-6" cx="218.5" cy="881.8" rx="46" ry="39.2" transform="rotate(-26.9 484.952 -432.608)"/><ellipse class="utr-6" cx="104.1" cy="902.3" rx="28.6" ry="26.3" transform="rotate(-26.9 370.454 -412.25)"/><ellipse class="utr-6" cx="293.5" cy="968" rx="40.4" ry="46.3" transform="rotate(-26.9 560.079 -346.565)"/><ellipse class="utr-6" cx="323.9" cy="876.5" rx="35.4" ry="27.3" transform="rotate(-26.9 590.324 -437.91)"/><path class="utr-4" d="M57 1134.2c69.8-3.1 32.6-98.8 78.8-127.7m43.6 217.6c-22.9-49.8-4.3-145.1 32.5-188.6" transform="translate(623.8 -21.9)"/><path class="utr-4" d="M96.7 991.9a379.7 379.7 0 0 1 148.7 60.7" transform="translate(623.8 -21.9)"/><path class="utr-4" d="M102.7 1052.4C-18.6 1005.9-18 900.8 133.9 936.1m56.9 149.4c124.5 72.2 173.1-30.8 58-97.9" transform="translate(623.8 -21.9)"/><path class="utr-4" d="M301 1022.5c207.4-190.3-187.6-374.7-230.1-99.1" transform="translate(623.8 -21.9)"/><path class="utr-7" d="M132 1018.9a448.6 448.6 0 0 1 68.1 25.4m50.9-57.8c21 9 43.4 18.2 66.7 15.3M135.3 935c-22.5-6.5-47.3-14.3-60.1-34.4m43.2 113.4a213.5 213.5 0 0 0-21.9-17m107.2 55.5a93.1 93.1 0 0 1 40.7 4.2" transform="translate(623.8 -21.9)"/><path class="utr-8" d="M295.7 850c18.5 21.1 26.5 50.7 21.3 78.9m-13.3 29.8a36.8 36.8 0 0 1-3.4 7.6" transform="translate(623.8 -21.9)"/><path class="utr-5" d="M695.4 975.7c15.2-8.2 28.5-24 46.3-26 27.4 8.6 53 50.8 68.9 73.6-18.1 7.5-37.4 19.1-46.9 35.9 48.5 69.1 135 118.9 140.3-4.8 299.1-106.6-11.7-461.1-178-211.7-57.4-28-141.2 27.6-30.6 133Z" transform="translate(623.8 -21.9)"/><ellipse class="utr-6" cx="1476.4" cy="774.2" rx="25.7" ry="24.5"/><path class="utr-6" d="M929.7 809.2c0-17.6 13.2-31.9 29.5-31.9s27.6 26.1 27.6 43.8-13.2 31.9-29.4 31.9-27.7-26.1-27.7-43.8Z" transform="translate(623.8 -21.9)"/><ellipse class="utr-6" cx="1515.8" cy="848.9" rx="50.6" ry="43.7"/><ellipse class="utr-6" cx="1393.2" cy="811.6" rx="31.5" ry="29.4"/><ellipse class="utr-6" cx="1546.5" cy="972.6" rx="44.5" ry="51.7"/><ellipse class="utr-6" cx="1621.9" cy="897" rx="39" ry="30.4"/><path class="utr-4" d="M607.5 1040.4c70.2 32.2 81.3-81.9 141.1-87.3M683 1191.8c2.2-61.2 68.1-146.5 125.9-171.3" transform="translate(623.8 -21.9)"/><path class="utr-4" d="M717.5 918.8c48 36.8 87.8 83.3 115.8 135.6" transform="translate(623.8 -21.9)"/><path class="utr-4" d="M693.3 982.1c-96.1-107.6-43-211.8 88.5-100m-18.5 177.6c86.3 134.7 185.3 56.8 105.7-68.2" transform="translate(623.8 -21.9)"/><path class="utr-4" d="M902.9 1052.6c298.6-84.7 2.6-467.9-176.6-215" transform="translate(623.8 -21.9)"/><path class="utr-7" d="M738.7 963.6a493.4 493.4 0 0 1 54.2 59.7m78.9-31.8c16.1 19.6 34.3 49 57.8 49M783.8 881.8c-18.9-17.9-39.4-38.3-42-64.7m-14.1 134.8a222.8 222.8 0 0 0-12.9-28.1m77.6 109.5a101.7 101.7 0 0 1 37.9 24.7" transform="translate(623.8 -21.9)"/><path class="utr-8" d="M983.7 878.1c7.7 30.4.8 64-18.3 89.4m-28 22.9a41.2 41.2 0 0 1-7.2 5.9" transform="translate(623.8 -21.9)"/><path d="M-530.4 1207.5c83.4 64.9 188.2 95.6 291.8 116.1m45.4 7.5 55.3 7.4m1895-605.4c-71.8 104.9-118.7 135-198.6 183.9m-30.6 23.1-16.7 11.5c-1.3.9-3.5 1.6 16.7-11.5Zm15.7-477a433.4 433.4 0 0 1 98.9 37.5m27.5 15.2 7.8 5.1m-2165 465.4a261 261 0 0 0-76.8 93.9m100.9-118.9 10.9-8.3m164.9-31.9a182 182 0 0 0-26.8 66.5m451.8 57.5a116 116 0 0 0-6.3 31.4m612.6-47.9a286 286 0 0 0-65.2 88.9m-18.3 34.7L656 1167m625.1-372.6a239.6 239.6 0 0 0-50.8 74.7m-14.3 24.3-3.2 7.7m48.6-367.4a89.2 89.2 0 0 1 18.5-23" transform="translate(623.8 -21.9)" style="stroke-width:21px;stroke:#fff;fill:none;stroke-linecap:round;stroke-linejoin:round;stroke-dasharray:0 0 0 0 0 0"/></g></svg>