<svg version="1.1" id="Layer_1" xmlns="http://www.w3.org/2000/svg" x="0" y="0" viewBox="0 0 1100 1100" style="enable-background:new 0 0 1100 1100" xml:space="preserve" xmlns:xlink="http://www.w3.org/1999/xlink"><style type="text/css">.st304{fill:#FF0A68;stroke:#000000;stroke-width:10;stroke-linecap:round;stroke-linejoin:round;stroke-miterlimit:10;}</style><circle class="st304" cx="550" cy="553.7" r="500"/><style>.st232{fill:#fff}.st237{fill:#4f4f4f}</style><g id="Layer_58"><path d="M532 209c-68 59.6-70.9 20-120.8 36.5-19.6 10.9-14 30-9.7 39.6 11 23-50.8 9-69 40.3-10 18 0 42-7.5 61.8-9 19.6-34 35-37 52-43 48-154 7-119 70.4 6 11 33-6 39 9.1 7 17.5-39 29-21 46.7 18 5 20.7 39.9 57 63 14 20 3 51 19 69.1 36 38 46-25 41-34.3 4-39 44-10.6 22 38.7-23 52 11 74 36.5 56.6 24-9 13 39 23 50.9 19.5 37 55 12 67 12 18 .7 28 22 29.8 40.3 6.5 63 54 46 59 8 15.5-34 45 49 47 59.9 11 73 69 42 70.8 17.9 3-54-3-60 2-68.3 18.5-31 71 13 90.8-15.5 14-19.7-31-63.5 8-55.4 94 19 19-100.7 14-120.4-9-35.5 14-106 47-121.7 18-9 17-35.5 7-52.8-9.5-17-25-30.6-31-48.9-13.5-54 22-102-36-133.3-5-3-7-9.5-4-14.4 17-26 1-66-32-71.4-22-3-44 9-66.5 6.3C615 247 578.5 178 532 209z" style="fill:#fc6603"/><path class="st232" d="M452 243.6 614 494l-43-15 54 112.5c-92-92-201-164.5-294-257.7 6-46 67-19.6 76-42.4-30-32.4 14-63.4 45-47.8z"/><path class="st237" d="M327 389.5c76 74 148 151 220.5 228.4 0 0-188-133-189-135.5 6-60.8-41-57-44-29.9-12 5-27-6-24-19.3 2.5-7.2 32-35.2 36.5-43.7z"/><path class="st232" d="M744 807.1c-89-73-178-147-273-210.1 32 42 65 84 99 124.6-13-3-25-7-38-10.9 53 51 78 125 126 182.8-.9-61 106 21 101-42.6-3-15.9-13-26.4-15-43.8z"/><path class="st237" d="M799.6 476 585 287.8l101 144.9-93-67c61 99 132 192 182 301.5-10.7-36 29.6-63 32-96.9 24 8 38-22.5 29-42.4-7-19.9-26-34.9-36.4-51.9z"/><path class="st232" d="m802 744-105-67c31 43 65 85 103.5 124.1 15-17.1 7.5-35.1 1.5-57.1zM232 471.3l267 290-106.5-54.8 6 28.1s-60.7-46-60-48.3c3-15-4.5-43-24-41-23 10.6 5 42-18 60.8-53 13.5-39-48-41-59.8-7-36-57-32-47.5-75.7-14 1-32-13-19.8-25.5 60.6-37-9-26.5-19-37-13-13-1-36 15-38.8 15.8-1.3 30.8.5 47.8 2z"/></g><style>.st40{fill:none;stroke:#000;stroke-width:10;stroke-linecap:round;stroke-linejoin:round;stroke-miterlimit:10}.st98{opacity:.6;enable-background:new}</style><g id="Outline"><path class="st98" d="M793 537c-1 .7-1 2-.5 3 5 10 11 35 25 30 8-2 21-13 18-22.4-.5-1-2-2-3-1.5-26 12-28-11-39-9.4v.3zm-34 274.5c6 5 26 8 25-3-6-7-20.6-12-21.5-26C750 772 744 803 759 811.5zm-219.3 52s1 .5 1 .8c9 13.5-3 36-18 40-34 6-9-6-6-44 .3-5.3 22.3 2.7 23 3.2zM342 731c5 7-4 22-4 33 8 13 29.6-5 33-14.9 2-12-17-21-28-20.2-1 .1-1 1.1-1 2.1zm31-120.2c2 23-8 47-26 61.9-13 10.9-17.5-30.6-8-27.9 6 4.2 28-18.8 34-34zm-157-59.9c-8 6-17 3-25 1-11 5 4 20 13.5 16 5-4 12-9 12-15.7-.5-.2-1.5-.2-.5-1.3zM337 473c-6-10-3-23 0-34 0-1 0-2-.6-2-9-9-23 11-19.8 20.7C318 463 338 475 337 472.8v.2z"/><path class="st98" d="M326 392c-2 29 24 45 7 44-7 2-14 1-15 11-1 11-24 0-24.5-1.3C285 433 317 404.5 326 392zm103-118c-9.9-4-16-16-18-25-4-6-9.9 1-11 6-7 54 29.5 28 29 19zm293 9c16 21 29.5 12 40 20.7 3 4 1 9.6-1 14-3 9-13 9-20 4.1-14.5-5.8-22-22.2-19-38.8z"/><path class="st40" d="M347 729c53.5 5 15 86 59 102 25 9 37-19.8 55-11.9 23 10.1 19.6 40 24 60.7 9.6 46 63 29.6 58-12.8"/><path class="st40" d="M519 861c89-9 47.5 119 114.5 115 39-6 35-47 25-76.5-3-9 0-18.5 7-24.5 24.5-21 59 15.5 84-2.5 15-11 8-33-2-45-12-15 0-32 10-43"/><path class="st40" d="M790 539c53 69.8-64 71 8 194.5 6 14 11 32 11 48.5 0 32-49 47.5-61 16"/><path class="st40" d="M721 287c2 51 64 31 74 88 6 34-11.5 71 7 103 10 18 27 31.5 34 51 8 19-4 47-27 42"/><path class="st40" d="M407 290.6c-16-8-12-29.9-2-41 17-15 40.5-10 61-6 29.8 1 49-29 75-38 50-17 81 55 133 44 23-5 48-11 69 1 25 14 33 55 10 75"/><path class="st40" d="M428 278c-16 26.5-51 17.5-76 28.5-20 10.5-28 33-23 55 10 47-43 51-39 88m25 4.5c1.5-23 35-26 41-5 7 25-13 47 16 72"/><path class="st40" d="M334 476c-20-34-61-31.5-89-9.6-20 8-43-3-64 4-22 7-28 37-5 43.5 6.5 2 23-2 26-1 15 4 11 25-5 30-21 6-10 29 6 29"/><path class="st40" d="M216 554.5c-15 15-14 41 2 55 37 22 41 31 36 69.7-2 31 46 41 53.5 10 2-10.8-4-22 0-33 13-32 44 20 62-44.5"/><path class="st40" d="M327 647.9c25 29.7-.5 47-7 75-10 32.5 34 65 53 25"/><path d="M729 262.5c9 4 16 13 18 22.5m-193-68c12.5 2 24.5 8 34 16m9 9 3 3m-163 10c-5.5-.9-12 .6-15.5 4M362 319.6c-9 2-14 10.7-16 19M339 449c4 1 6 6 6 9.8M308.5 470c-12-6-16-5-22-4M175 492c1-4 5-7 9-7.5m38 89.5c-4 8 0 16 4 19.9m44 78.6c-1 6 1 15 9 18m76-77.5c-3 14-13 14.5-16 16m4.5 119.5c-5-3-9-9-8-15M397 782c-1 14.5 7 28 14 30m90 53.9c-3 12 2 27 14.5 25M636 957c14-3 17-28 11-38m96-60.1c1-7 0-14-4-19m46-49.1c8-6.5 9-25 3-39M786 582c5-8 3-19-3-26m37-12c2-8.5-.6-18-7-24m-56-169c18 6 22 30 21 35" style="opacity:.7882;fill:none;stroke:#fff;stroke-width:10;stroke-linecap:round;stroke-linejoin:round;stroke-miterlimit:10;enable-background:new"/></g><defs><style>.axg-2{fill:none;stroke-linecap:round;stroke-linejoin:round;stroke-width:10px;stroke:#000}</style></defs><path d="M243.3 626.7c44.2-16.7-13.7-73.4 35.6-67.3 21.7 19.1-.3 76.2 37.7 66.4 49.7-12.9 2.3-62.1-2.5-73.1.2-30.9 41.4 1.5 50.2-38.3-18.2-24 5.5-57.2-11.5-72.8-23.1-21.4-36.9 8.5-40.9 12.3-49.6-11.5-64.2 25.4-117.3 13.2-18.8 1.7-44.6 25-24.6 41.9 11.7 10 34.4-3.6 41 13 5.6 20.2-54 25.9-6 50.9-4.7 29.1 19.3 38.5 38.3 53.8Z" style="fill:#ff00d9"/><path class="axg-2" d="M314.8 454c1.5-23.1 35.3-26.3 41.4-5 7.1 24.8-12.6 46.8 16.2 72.4"/><path class="axg-2" d="M333.7 475.6c-20.3-33.6-61.2-31.5-89.3-9.6-20 8.1-43.3-2.6-63.8 4.1s-28 37.5-4.7 43.5c6.5 1.7 23.1-2 26.4-1.1 15.3 4 11.4 25.2-5.4 30.1-21.2 6.2-10.2 28.6 6.3 29"/><path class="axg-2" d="M215.8 554.5c-14.8 14.8-13.6 41.2 2.4 54.6 36.7 21.9 40.7 30.9 35.7 69.7-2 31.4 45.8 41 53.5 10 1.8-10.8-4.5-22.1.2-32.7 12.4-32.5 44.2 20.2 62.3-44.5"/><path class="axg-2" d="M243.3 626.7c37.7-15 11.5-42.6 12.4-55.1s13.2-19 23.2-12.2c21.7 19.1-1.6 66.4 37.7 66.4 19.4 0 27.9-27.7 18.2-43.9-6.2-10.4-19.9-17.2-20.7-29.2-.9-15.6 12.2-15.8 24-15.8 17.1 0 22.7-11.2 26.4-22.4"/><path d="M252.3 630.1c37.2-23.8-3.2-55.3 13.1-65.7 19.7-12.7 16.5 44.9 26.1 55.7 14.5 16.1 42.1 14.9 49.3-5.5 15-42.4-25.4-45.4-20.3-64.1 4.2-15.7 34.1 2.2 47.4-30.2m-34.2-44.7c-5.3-11.3-15.2-21.9-8-36.1m-109.9 115c-6.5 6.5-14.4 12.3-26.3 7.7" style="opacity:.6;stroke:#000;fill:none;stroke-linecap:round;stroke-linejoin:round;stroke-width:10px"/><path d="M338.8 448.3a14 14 0 0 1 5.2 10.6m-61 4.8a28.5 28.5 0 0 1 22.2 6.9m-128.7 18.6a16.8 16.8 0 0 1 13-6.3m11.2-1.3 2.1.3M350 516.8c-2.5 4.5-5.9 7.7-12.8 6.9m-14.8 66.2c2.4 4.6 2 10.8-.1 15.9m-98.6-12.5a24.4 24.4 0 0 1-2.5-20.2" style="stroke:#fff;fill:none;stroke-linecap:round;stroke-linejoin:round;stroke-width:10px"/><style>.st40{fill:none;stroke-width:10;stroke-linecap:round;stroke-linejoin:round;stroke-miterlimit:10;stroke:#000}</style><g id="Confused"><path d="M436 675c-22 21-11 48 18 57 29.7 9 14.5 58 38.5 75 48 17 33-29.6 51-32.5 18.5-3 9 36 40 57 29.5 19.8 75 1 78-35 4-55 36-12 52-35.5" style="opacity:.6;fill:none;stroke:#000;stroke-width:10;stroke-linecap:round;stroke-miterlimit:10;enable-background:new"/><path d="M584 706c7 8 13 18 21 26 97-19 94 22 113.5 24 30-7 34-98-17-91-41 5-76 35-116 39.6-.5.4-.5 1.4-1.5 1.4z"/><path d="M715 756c-4 14-34 2-46 5-18 4-5 116-91 56-13-9-17-53.5-36-48.9-13 6.5-7 30.7-28 35.5-42.5 9.7-19-76-75-85.9-17.5-3-7-33 5-44 40.6-21 39.9 31 135 32.3 12 4 18 17 26 26 73-20 110 21 110 23.7v.3z" style="fill:#fe1767"/><path d="M435 696c41.5-24 78 29 119.8 29 14-.1 30.8-6.5 44 2-10-23-15.5-20-37-18.7-30-2-56-20-82-34-18-9-47-1-45 21.3v.4zm182 59c1-18 38-25 55-24-17-5-52-5-65 4.6l10 19.1v.3z" style="fill:#ae0f45"/><path class="st40" d="M464 669.5c-28 0-47 36-19.8 50.6 6 3 12 3 18 6 30 16 8 75 47.5 78.6 9.7 1 19-7 21-17 1-6 0-13 4-17.5 6-7 18-3.5 23 3.9 5 7 6 17 9 25.5 11 39 74 49.5 87 5.9 5-16-6-56 35-44 67 19.7 78-117-5-93-69.9 20-111 65-186 15.5-9.7-6.5-19.7-14.5-33.7-14.5z"/><path class="st40" d="M582 707c14 13 25 29 32 47"/><path d="M579.9 726c6 7 11 15 14 23m5.7 15 2.4 4m52-28c9 0 18 2 26 6m-39.5-7.5h-4" style="fill:none;stroke:#fff;stroke-width:10;stroke-linecap:round;stroke-linejoin:round;stroke-miterlimit:10"/><path class="st40" d="M606 733c37-17 86-8 112 24"/></g><linearGradient id="a19" gradientUnits="userSpaceOnUse" x1="569.719" y1="943.832" x2="764.719" y2="730.832" gradientTransform="scale(1 -1) rotate(-7.793 -9231.448 -329.654)"><stop offset="0" style="stop-color:#00fff2"/><stop offset=".09" style="stop-color:#00f4f3"/><stop offset=".25" style="stop-color:#00d6f4"/><stop offset=".46" style="stop-color:#00a5f7"/><stop offset=".713" style="stop-color:#0062fa"/><stop offset="1" style="stop-color:#000dff"/></linearGradient><path style="fill:url(#a19)" d="M637.5 543.3c47 179.5 155 8 146-52-6 13-26 22-29 2 .9-28 39.7-80 24-103.9-7 12-19.7 26-29.6 29.3-9 3-39-.8-30-23-5 7-15 23-23 25-14 3-20.6-17-24-28-23.5 47 8.5 48-1 72.4-18 17-32-9.9-29.6-27-11 18-23 44-8 62 9 10 24 13 32.5 23 6 7 9 17 3 23.5-12.8 10.4-24.8.4-31.3-3.6v.3z"/><linearGradient id="b8" gradientUnits="userSpaceOnUse" x1="360.012" y1="935.045" x2="525.135" y2="714.881" gradientTransform="scale(1 -1) rotate(-7.793 -9231.448 -329.654)"><stop offset="0" style="stop-color:#00fff2"/><stop offset=".09" style="stop-color:#00f8f2"/><stop offset=".225" style="stop-color:#00e3f3"/><stop offset=".388" style="stop-color:#00c2f5"/><stop offset=".573" style="stop-color:#0093f8"/><stop offset=".776" style="stop-color:#0057fb"/><stop offset=".992" style="stop-color:#0010ff"/><stop offset="1" style="stop-color:#000dff"/></linearGradient><path style="fill:url(#b8)" d="M412 396c29 16 5 54-13.5 31-12 45 33 35 37 77 3 26-24.5 34-31 6-12 20.5 2 38 18 52 11 9.7 8 27.5 11 41.6 10.5 47 78 52 97 8.5 5-12 6-26 13-37 13-16 35-31 33-53.9-11.5 18-41 9-26-12.2 8-11.5 22-17 33-27 15-13 22-34 19.8-54-7 16-32 15-22-5 10-19.8 10.6-31.5-4-48.8-2 49.8-72 22-42-8-15 6-23 19-29 33.5-5 12-21 21-34 19-21-6-24-42-60-23v.3z"/><path d="M764 425c-1 9.8-6 19-11 28m-3 10.5c-.5.9-1 2-1.5 3m7.5 83.2c-10.5 24-19.5 38-42.5 53M693 609h4.5m-59-135c-1 8 4 15 9 19M520 593.9c-2 14-14 29-27.5 32m-18.5.1c1.5 0 3 1 4 .8m75-81.8c-3 4-6 8-10 11m43-103c-2 7.5-7 14-13 19m-8 7.8c-1 .5-1 1-2 2m10-73.8c0 4-2 7-4 9.7M439.5 408c4 2 6 6 9 9.8m-37 31.2c2 5 6 8 10 10" style="fill:none;stroke:#fff;stroke-width:10;stroke-linecap:round;stroke-linejoin:round;stroke-miterlimit:10"/><path d="M410 397.5c8 8 11 21 7.5 32m-22-3.5c-21 46 49.8 50 32 99M401 509.6c-13 20 3 41 17 58 12 15 6 39 18 55 15 24 51 30 73 13M575 519c-6 6-14 8-22 8m47-99.5c-4 5-10 8-17 9m-9-63.5c-2 12-10 24-22 28m-21-36c-29 6-23 44-53 55m159 15c-49 84 26.5 67 29 108.5m-33-.5c10.5 49 49 119.9 100 63m49-115c-7 5-17 12-24 9m17-113c-9.5 14-23 25-39 32m-20-27c-10 8-15 27-31 24.5M668 389c-30 50 17 59-9 80" style="opacity:.6;fill:none;stroke:#000;stroke-width:10;stroke-linecap:round;stroke-linejoin:round;stroke-miterlimit:10;enable-background:new"/><path d="M429 478c17.5 17 35 34 52 51-.9-8-2-16-2.5-23 23 21 45 44 68 64 12.5-11 21-27 29-43-11 8-34 2-30-14.1L469 452.3v31l-47-52c-7 2.5-16 3-23 1-3 28 13 34 30 45.3v.4zm40-57c27 27 54 54.5 82 81 5-3 10.7-7 16-9.8-79-76-2-2-79-77m160 53.3c15 18 30 36 44 54v-19c19 27 39 53 61 77.8 2-5 5-10 9-14.9-9.8-11-46-57-73-91-2 13-2 11-2 16-5.5-9-11-17-17-26m2-18.9c33 32.5 66 66 97.5 99.2l7-9c-37-39-56-57-112-116" style="opacity:.6118;fill:#fff;enable-background:new"/><path d="M412 396c29 16 5 54-13.5 31-12 45 33 35 37 77 3 26-24.5 34-31 6.4-12 20.5 2 38 18 52 11 9.7 8 27.5 11 42 10 47 78 52 97 8.5 5-12 6-26 13-36.7 13-16 35-31 33-53.9-11.5 18-41 9-26-12 8-11 22-17 33-27 15-13 22-34 19.8-53.6-7 16-32 15-22-5 10-19.8 10.6-31.5-4-49-2 49.8-72 22-42-8-15 6-23 19-29 33.5-5 12-21 21-34 19C451 413 448.5 377 412 395.7v.3zm225.5 147c47 179.5 155 8 146-52-6 13-26 22-29 2 .9-28 39.7-80 24-103.9-7 12-19.7 26-29.6 29-9 3-39-.8-30-23-5 7-15 23-23 25-14 3-20.6-17-24-28.2-23.5 47 8.5 48-1 72-18 17-32-9.9-29.6-27-11 18-23 44-8 62 9 10 24 13 32.5 22.8 6 7 9 17 3 23.5C656 557 644 547 637.5 543z" style="stroke:#000;fill:none;stroke-width:10;stroke-linecap:round;stroke-linejoin:round;stroke-miterlimit:10"/><circle cx="550" cy="550" r="500" style="fill:none;stroke:#000;stroke-width:10;stroke-linecap:round;stroke-linejoin:round;stroke-miterlimit:10"/></svg>