<svg version="1.1" id="Layer_1" xmlns="http://www.w3.org/2000/svg" x="0" y="0" viewBox="0 0 1100 1100" style="enable-background:new 0 0 1100 1100" xml:space="preserve" xmlns:xlink="http://www.w3.org/1999/xlink"><style type="text/css">.st301{fill:#005BEF;stroke:#000000;stroke-width:10;stroke-linecap:round;stroke-linejoin:round;stroke-miterlimit:10;}</style><circle class="st301" cx="550" cy="553.7" r="500"/><radialGradient id="a7" cx="580.189" cy="564.136" r="327.345" gradientTransform="matrix(1 0 0 1.2341 0 -131.758)" gradientUnits="userSpaceOnUse"><stop offset="0" style="stop-color:#20f"/><stop offset="1" style="stop-color:#ff00fb"/></radialGradient><path style="fill:url(#a7)" d="M534 210.7c-68 59.6-71 20-121 36.5-19.6 10.9-14 30-9.7 39.6 11 23-51 9-69 40.3-10 18 .1 42-7.5 61.8-9 19.6-34 35-37 52.2-43 48-154 7-119 70.4 6 11 33-6 39 9.1 7 17.5-39 29-21 46.7 18 5 21 39.9 57 63.2 14 20 3 51 19 69.1 35.8 38 46-25 41-34.3 4-39 44-11 22 38.7-23 52 11 74 36.5 56.6 24-9 13 39 23 50.9 19.5 37 55 12 67 12 18 1 28 22 29.8 40.3 6.5 63 54 46 59 8 15.5-34 45 49 47 59.9 11 73 69 42 71 17.9 3-54-3-60.1 2-68.3 18.5-31 71 13 90.8-15.5 14-19.7-31-63.5 8-55.4 94 19 19-101 14-120.4-9-35.5 14-106 47-121.7 18-9 17-35.5 7-52.8-9.5-17-25-30.6-31-48.9-13.5-54 22-102-36-133.3-5-3-7-9.5-4-14.4 17-26 1-66-32-71.4-22-3-44 9-66.5 6.3C618 249 581 179.7 534 210.7z"/><radialGradient id="b3" cx="576.431" cy="567.501" r="286.75" gradientUnits="userSpaceOnUse"><stop offset="0" style="stop-color:#ff00d0"/><stop offset="1" style="stop-color:#0073ff"/></radialGradient><path style="fill:url(#b3)" d="m339.9 679.6 457.5-205.8c84 96 24 91 9.9 104.2-70.1 128 5 134 1 195.7-149-156-336-279-473-446.5 0 83-16 63-47 126.1-56 20-102 17-102 16.7s-64 47 26 46.7c13 27.5-51 37-7 58.3 15 45 48 56 51 73.8 4 23-4 55.8 28 61.7 36 7 20.6-50.1 33-62.2 16.7-11.3 22.8 17.7 22.6 31.3z"/><style>.st40{fill:none;stroke:#000;stroke-width:10;stroke-linecap:round;stroke-linejoin:round;stroke-miterlimit:10}.st98{opacity:.6;enable-background:new}</style><g id="Outline"><path class="st98" d="M793 537c-1 .7-1 2-.5 3 5 10 11 35 25 30 8-2 21-13 18-22.4-.5-1-2-2-3-1.5-26 12-28-11-39-9.4v.3zm-34 274.5c6 5 26 8 25-3-6-7-20.6-12-21.5-26C750 772 744 803 759 811.5zm-219.3 52s1 .5 1 .8c9 13.5-3 36-18 40-34 6-9-6-6-44 .3-5.3 22.3 2.7 23 3.2zM342 731c5 7-4 22-4 33 8 13 29.6-5 33-14.9 2-12-17-21-28-20.2-1 .1-1 1.1-1 2.1zm31-120.2c2 23-8 47-26 61.9-13 10.9-17.5-30.6-8-27.9 6 4.2 28-18.8 34-34zm-157-59.9c-8 6-17 3-25 1-11 5 4 20 13.5 16 5-4 12-9 12-15.7-.5-.2-1.5-.2-.5-1.3zM337 473c-6-10-3-23 0-34 0-1 0-2-.6-2-9-9-23 11-19.8 20.7C318 463 338 475 337 472.8v.2z"/><path class="st98" d="M326 392c-2 29 24 45 7 44-7 2-14 1-15 11-1 11-24 0-24.5-1.3C285 433 317 404.5 326 392zm103-118c-9.9-4-16-16-18-25-4-6-9.9 1-11 6-7 54 29.5 28 29 19zm293 9c16 21 29.5 12 40 20.7 3 4 1 9.6-1 14-3 9-13 9-20 4.1-14.5-5.8-22-22.2-19-38.8z"/><path class="st40" d="M347 729c53.5 5 15 86 59 102 25 9 37-19.8 55-11.9 23 10.1 19.6 40 24 60.7 9.6 46 63 29.6 58-12.8"/><path class="st40" d="M519 861c89-9 47.5 119 114.5 115 39-6 35-47 25-76.5-3-9 0-18.5 7-24.5 24.5-21 59 15.5 84-2.5 15-11 8-33-2-45-12-15 0-32 10-43"/><path class="st40" d="M790 539c53 69.8-64 71 8 194.5 6 14 11 32 11 48.5 0 32-49 47.5-61 16"/><path class="st40" d="M721 287c2 51 64 31 74 88 6 34-11.5 71 7 103 10 18 27 31.5 34 51 8 19-4 47-27 42"/><path class="st40" d="M407 290.6c-16-8-12-29.9-2-41 17-15 40.5-10 61-6 29.8 1 49-29 75-38 50-17 81 55 133 44 23-5 48-11 69 1 25 14 33 55 10 75"/><path class="st40" d="M428 278c-16 26.5-51 17.5-76 28.5-20 10.5-28 33-23 55 10 47-43 51-39 88m25 4.5c1.5-23 35-26 41-5 7 25-13 47 16 72"/><path class="st40" d="M334 476c-20-34-61-31.5-89-9.6-20 8-43-3-64 4-22 7-28 37-5 43.5 6.5 2 23-2 26-1 15 4 11 25-5 30-21 6-10 29 6 29"/><path class="st40" d="M216 554.5c-15 15-14 41 2 55 37 22 41 31 36 69.7-2 31 46 41 53.5 10 2-10.8-4-22 0-33 13-32 44 20 62-44.5"/><path class="st40" d="M327 647.9c25 29.7-.5 47-7 75-10 32.5 34 65 53 25"/><path d="M729 262.5c9 4 16 13 18 22.5m-193-68c12.5 2 24.5 8 34 16m9 9 3 3m-163 10c-5.5-.9-12 .6-15.5 4M362 319.6c-9 2-14 10.7-16 19M339 449c4 1 6 6 6 9.8M308.5 470c-12-6-16-5-22-4M175 492c1-4 5-7 9-7.5m38 89.5c-4 8 0 16 4 19.9m44 78.6c-1 6 1 15 9 18m76-77.5c-3 14-13 14.5-16 16m4.5 119.5c-5-3-9-9-8-15M397 782c-1 14.5 7 28 14 30m90 53.9c-3 12 2 27 14.5 25M636 957c14-3 17-28 11-38m96-60.1c1-7 0-14-4-19m46-49.1c8-6.5 9-25 3-39M786 582c5-8 3-19-3-26m37-12c2-8.5-.6-18-7-24m-56-169c18 6 22 30 21 35" style="opacity:.7882;fill:none;stroke:#fff;stroke-width:10;stroke-linecap:round;stroke-linejoin:round;stroke-miterlimit:10;enable-background:new"/></g><style>.st231{fill:none;stroke:#000;stroke-width:10;stroke-linecap:round;stroke-linejoin:round;stroke-miterlimit:10}</style><g id="Layer_65"><path d="M356 639c8-18-17-27-19-43 7-59.6-10.7-35-28-65.1-7 17 17 81-13 55.1-7-6-2-19-8.5-26-42 42-9-38-27-59.4 1.5 26-36 17-15-35.1-108-4-96 43-63 50 19 4 37-17 24 21.7-13 8-32 15-12.5 30.9 23 14 3 28 29 44.6 32 18 36 34 30 68 1 14 15 25 29 25.8 39.6 3 9.5-50.6 37-61.3 11-2.2 29 7.8 37-6.2z" style="fill:#ff054c"/><path class="st231" d="M244.5 466.7c-20.9 59 19.9 60 12 27.5 24 25 1.5 43 5 67.8 3.5 16.5 27 9.8 22-6 15 5 3 38 19.9 34.8 26-4-13-44 6-72 0 36 24 19.8 30 45.9 2 7 0 15-1 22.1-7 28 21 27 20 50.4"/><path d="M313 516.9c0 34 24 19 30 44.3 2 7 0 14-1 21.3-7 27 21 26 20 48.6M248.5 466.7c-20.9 57 19.9 58 12 26.6 24 24 1.5 41 5 65.4 3.5 16 27 9 22-5.7 15 5 3 36 19.9 33.6" style="opacity:.6;stroke:#000;enable-background:new;fill:none;stroke-width:10;stroke-linecap:round;stroke-linejoin:round;stroke-miterlimit:10"/><path class="st231" d="M334 475.6c-20-34-61-31.5-89-9.6-20 8-43-3-64 4.1-22 7-28 37.5-5 43.5 6.5 2 23-2 26-1.1 15 4 11 25-5 30.1-21 6-10 29 6 29"/><path class="st231" d="M216 554.5c-15 15-14 41 2 54.6 37 22 40.7 30.9 36 69.7-2 31 46 41 53.5 10 2-10.8-4.5-22 0-32.7 12-32.5 44 20 62-44.5"/><path d="M269 669.9c-1.5 6-1 14 4 19m10 4.7c4 1.5 6 0 9-1.8m36-60.8c4 2 9 3 13 2.3M217.5 579c-1 7 2 15 8 19m10.5 6.7c.8.6 1.5 1 2 1.8M187 480c-5.5 2-10 6-12 11.8" style="stroke:#fff;fill:none;stroke-width:10;stroke-linecap:round;stroke-linejoin:round;stroke-miterlimit:10"/></g><style>.st40{fill:none;stroke-width:10;stroke-linecap:round;stroke-linejoin:round;stroke-miterlimit:10;stroke:#000}</style><g id="Confused"><path d="M436 675c-22 21-11 48 18 57 29.7 9 14.5 58 38.5 75 48 17 33-29.6 51-32.5 18.5-3 9 36 40 57 29.5 19.8 75 1 78-35 4-55 36-12 52-35.5" style="opacity:.6;fill:none;stroke:#000;stroke-width:10;stroke-linecap:round;stroke-miterlimit:10;enable-background:new"/><path d="M584 706c7 8 13 18 21 26 97-19 94 22 113.5 24 30-7 34-98-17-91-41 5-76 35-116 39.6-.5.4-.5 1.4-1.5 1.4z"/><path d="M715 756c-4 14-34 2-46 5-18 4-5 116-91 56-13-9-17-53.5-36-48.9-13 6.5-7 30.7-28 35.5-42.5 9.7-19-76-75-85.9-17.5-3-7-33 5-44 40.6-21 39.9 31 135 32.3 12 4 18 17 26 26 73-20 110 21 110 23.7v.3z" style="fill:#fe1767"/><path d="M435 696c41.5-24 78 29 119.8 29 14-.1 30.8-6.5 44 2-10-23-15.5-20-37-18.7-30-2-56-20-82-34-18-9-47-1-45 21.3v.4zm182 59c1-18 38-25 55-24-17-5-52-5-65 4.6l10 19.1v.3z" style="fill:#ae0f45"/><path class="st40" d="M464 669.5c-28 0-47 36-19.8 50.6 6 3 12 3 18 6 30 16 8 75 47.5 78.6 9.7 1 19-7 21-17 1-6 0-13 4-17.5 6-7 18-3.5 23 3.9 5 7 6 17 9 25.5 11 39 74 49.5 87 5.9 5-16-6-56 35-44 67 19.7 78-117-5-93-69.9 20-111 65-186 15.5-9.7-6.5-19.7-14.5-33.7-14.5z"/><path class="st40" d="M582 707c14 13 25 29 32 47"/><path d="M579.9 726c6 7 11 15 14 23m5.7 15 2.4 4m52-28c9 0 18 2 26 6m-39.5-7.5h-4" style="fill:none;stroke:#fff;stroke-width:10;stroke-linecap:round;stroke-linejoin:round;stroke-miterlimit:10"/><path class="st40" d="M606 733c37-17 86-8 112 24"/></g><defs><linearGradient id="zd" x1="447.05" y1="539.8" x2="543.4" y2="539.8" gradientUnits="userSpaceOnUse"><stop offset="0" stop-color="#f70275"/><stop offset="1" stop-color="#f78502"/></linearGradient><linearGradient id="zd-2" x1="562.73" y1="532.04" x2="661.07" y2="532.04" xlink:href="#zd"/><linearGradient id="zd-3" x1="672.66" y1="514.36" x2="758.62" y2="514.36" xlink:href="#zd"/><style>.zd-2{stroke:#000;stroke-linecap:round;stroke-linejoin:round;stroke-width:10px;fill:none;opacity:.6}</style></defs><path d="M485.3 459.7c-21.4 24.2-2.4 57.2 2.9 83.9 7.8 39-16.2 74.3 7.2 80.2 20.6 5.1 24.7-21.5 20.3-36.7-7.7-27.4-18.9-56.8-11.1-85.2 12.3-45.4-10.8-51.8-19.3-42.2Zm114.9-6.9c-40.9 11.8 15.4 82.4 3.2 120-15.2 46.8 14.5 46.2 19.9 42.4 29-20.5-13.8-70.9-9.4-103.7 2-15.1 13.3-66.6-13.7-58.7Zm98.4-16.7c-24.6 30.5 15.8 71.5 10.8 106.1-8.5 58.5 28.4 37.2 25.8 19.6-3.3-22.7-26.9-42-21.6-65.5 17.1-76.3-9.1-67.4-15-60.2Z" style="stroke-linecap:round;stroke-linejoin:round;stroke-width:10px;stroke:#000;fill:#fff"/><path class="zd-2" d="M471.3 435.8c-18.3 9.7-26.7 30.5-30.5 49.8-5.8 30.1 10.5 56.4 14.9 86 3.2 21.8-11.8 46.6 5.5 68.1 13.3 16.7 39.4 19.4 55.6 5.3"/><path class="zd-2" d="M483.2 456.2c-27.9 24.3-4.5 62 .4 91.2 3.4 20-3.8 39.6-4.3 59.4-.4 15 17.4 30.2 28.9 16.6m73-196.1c-58.1 40.5 6.2 106.8-8.4 166.1-9.4 38.5 24.5 71.9 60.5 49.8"/><path class="zd-2" d="M588.1 454.8c-21.8 22.8 4.6 64.9 9.7 92.1 3.5 18.5-4.4 35.8-3 54 1.1 14.8 20.2 27.6 30.3 13.6M689 414.9c-45.4 30.1-2.8 83-4.3 123.6-.6 17.1-6.7 34.2-3.3 51.5 3.6 19 24 36.8 42.8 26.2"/><path class="zd-2" d="M695.7 433c-21.9 21.6-5.4 54.6 3.3 78.6 7.3 20.2 3.6 35.1 4.1 54.8.2 11.2 13.5 26.1 22.5 13.8"/><path d="M694 450c-2.7 13.4 4.9 31.7 20.6 30.3-3.9 18-4.8 37.4 7 52.8.7 1.2 1.5 2.6.9 3.7-6.4 6.9-13.7-1.2-14.5-8.5-8.4-26.8-21.9-48.2-14-78.3Zm-105.8 17.7c1.6 15.1 6.1 37 25.1 28-4.3 19.6 2 39.4 6.4 58.5 2.7 7.9-7.6 9.6-12 4.7-1.7-28.1-20.6-52.8-23-80.8Zm-107.6 5c-5.2 13.7 3 35.5 19.1 36.2-4.7 18.5 5.9 36.5 6.6 54.9 1.1 6.6-10.2 8.7-13.8 4.6-1.2-27.9-26.9-70-11.9-95.7Z"/><path d="M481.2 433.4C451.7 445.9 444 484.5 448 513c5.3 37.2 18.6 52.9 12.2 93.5-11.1 69.5 118.7 61.6 73.7-65.5-16.5-46.6 4.1-69.8-2.8-89.2s-28.7-27.4-49.9-18.4Z" style="fill:url(#zd);opacity:.73"/><path d="M593.4 424c-58.2 33.4-16.5 82.4-12.4 133.4 2.2 28.7-17.7 74 20.2 85.9s71.3-22.6 56.3-56.9c-39.8-90.8-17.1-63.5-17.1-124 0-28.7-16.4-56-47-38.4Z" style="fill:url(#zd-2);opacity:.73"/><path d="M694.8 416.1c-42.8 28.8-11.4 71-5.6 109.2 3.1 20.4-6.3 41-3.6 61.6 4.7 37.7 53.5 39.6 67.2 7.6 23.6-55.4-32.8-66.6-20.7-120.5 16.2-72.2-26.4-65.2-37.3-57.9Z" style="fill:url(#zd-3);opacity:.73"/><path d="M481.2 433.4C451.7 445.9 444 484.5 448 513c5.3 37.2 18.6 52.9 12.2 93.5-11.1 69.5 118.7 61.6 73.7-65.5-16.5-46.6 4.1-69.8-2.8-89.2s-28.7-27.4-49.9-18.4Zm112.2-9.4c-58.2 33.4-16.5 82.4-12.4 133.4 2.2 28.7-17.7 74 20.2 85.9s71.3-22.6 56.3-56.9c-39.8-90.8-17.1-63.5-17.1-124 0-28.7-16.4-56-47-38.4Zm101.4-7.9c-42.8 28.8-11.4 71-5.6 109.2 3.1 20.4-6.3 41-3.6 61.6 4.7 37.7 53.5 39.6 67.2 7.6 23.6-55.4-32.8-66.6-20.7-120.5 16.2-72.2-26.4-65.2-37.3-57.9Z" style="fill:none;stroke-linecap:round;stroke-linejoin:round;stroke-width:10px;stroke:#000"/><path d="M716.1 426.7a26.8 26.8 0 0 1 3.8 19.9m-2.2 12.5-.4 2.2m26.9 106.1c.8 11.6-3 25.7-14.2 31.3m-12.1 2.8-2.5-.4m-99.9-166.4a34 34 0 0 1 7.4 21.9m-.3 14.4-.4 3.6m17.9 107.7a31.1 31.1 0 0 1-.5 30m-7.3 10.4-2.9 1.9M506.6 444.8c8.7 4.6 11.2 15.8 8.8 24.9m-2.1 13.9-1 4.2m13.6 88.6a51.2 51.2 0 0 1-4.5 36.4m-6 9.9a11.8 11.8 0 0 1-4.4 3.9" style="stroke:#fff;stroke-linecap:round;stroke-linejoin:round;stroke-width:10px;fill:none"/><defs><linearGradient id="zba" x1="236.25" y1="315.23" x2="831.1" y2="276.55" gradientUnits="userSpaceOnUse"><stop offset="0" stop-color="#ffe600"/><stop offset=".1" stop-color="#ffd80d"/><stop offset=".29" stop-color="#ffb430"/><stop offset=".54" stop-color="#ff7a68"/><stop offset=".85" stop-color="#ff2bb4"/><stop offset="1" stop-color="#f0d"/></linearGradient><linearGradient id="zba-2" x1="170.69" y1="396.71" x2="297.01" y2="391.81" gradientUnits="userSpaceOnUse"><stop offset="0" stop-color="#ffe600"/><stop offset="1" stop-color="#fb00ff"/></linearGradient><style>.zba-3{fill:none;stroke-linecap:round;stroke-linejoin:round;stroke-width:10px;stroke:#000}</style></defs><path d="M302.4 418.1c-6.2 7-11.2 12.6-13.1 22.1-29.2-1-28-19.1-16.1-37.7 13.9-21.6 21.4-46.8 26-72.1 35.7-199.2 379.2-210.4 492.2-64.9 26.5 34.1 75.6 111.2 5.1 124.4-.2-10.9-.8-22.7-9.9-32.9-168.1-31.3-344.7 5.4-503.5 66.2 0 0 239.5-107.6 239.5-107.9 29.4 8.3 87.5 14 109.8-10.4 8-20.2-164.4-16.8-104.8 13.1Z" style="fill:url(#zba)"/><path d="M296.9 338.5c-48.3 49.4-111.6 56.7-124.8 82.1s53.4 39.7 98.4 14.9c-15.4-24.6 26.7-60.7 26.4-97Z" style="fill:url(#zba-2)"/><path class="zba-3" d="M809.2 361.3c-177.3-36.6-357.6-4.4-523.7 62.7"/><path class="zba-3" d="M302.4 418.1c-6.2 7-11.2 12.6-13.1 22.1-29.2-1-28-19.1-16.1-37.7 13.9-21.6 21.4-46.8 26-72.1 35.7-199.2 379.2-210.4 492.2-64.9 26.5 34.1 75.6 111.2 5.1 124.4-.2-10.9-.8-22.7-7.2-31.9"/><ellipse class="zba-3" cx="574.7" cy="306.2" rx="60.3" ry="15.5" transform="rotate(-2.5 584.699 310.79)"/><path class="zba-3" d="M295.3 339.7c-21.3 18.9-45.4 34.5-71 47.2-18.9 9.4-47 14.7-53 36-9.8 34.9 89.4 22.7 103.1 14.3"/><path d="M791.2 365.2c-164.8-31-336.1 1.8-493 60.8m332.7-121.7a180.2 180.2 0 0 0-112 3.5m291 54.9a39.2 39.2 0 0 0-12 4.3m-513.3 57.5a19.3 19.3 0 0 0 7 4.2m-3.2-79.8c-4.3 17.8-10.9 35.4-21 50.6-7.1 10.6-11.8 23.8-6.3 36" style="opacity:.6;stroke:#000;fill:none;stroke-linecap:round;stroke-linejoin:round;stroke-width:10px"/><path d="M701.6 218.9a130.2 130.2 0 0 1 51 36.9m12.4 15 3.4 4.4m-539.3 123L201 410.9m-10.2 6.5a7.5 7.5 0 0 0-3.5 3.1m154-150.5a141.8 141.8 0 0 1 46.7-43.8" style="stroke:#fff;fill:none;stroke-linecap:round;stroke-linejoin:round;stroke-width:10px"/><circle cx="550" cy="550" r="500" style="fill:none;stroke:#000;stroke-width:10;stroke-linecap:round;stroke-linejoin:round;stroke-miterlimit:10"/></svg>