<svg version="1.1" id="Layer_1" xmlns="http://www.w3.org/2000/svg" x="0" y="0" viewBox="0 0 1100 1100" style="enable-background:new 0 0 1100 1100" xml:space="preserve" xmlns:xlink="http://www.w3.org/1999/xlink"><circle cx="550" cy="550" r="500" style="fill:#2e2e2e"/><linearGradient id="a1" gradientUnits="userSpaceOnUse" x1="264.957" y1="853.134" x2="422.298" y2="853.134"><stop offset="0" style="stop-color:#00ff90"/><stop offset="1" style="stop-color:#c800ff"/></linearGradient><circle cx="343" cy="853" r="78" style="fill:url(#a1);stroke:#000;stroke-width:10;stroke-linecap:round;stroke-linejoin:round;stroke-miterlimit:10"/><linearGradient id="b1" gradientUnits="userSpaceOnUse" x1="826.38" y1="645.312" x2="919.38" y2="645.312"><stop offset="0" style="stop-color:#f7ff00"/><stop offset="1" style="stop-color:#ff5e00"/></linearGradient><ellipse style="fill:url(#b1);stroke:#000;stroke-width:10;stroke-linecap:round;stroke-linejoin:round;stroke-miterlimit:10" cx="873" cy="645" rx="46.5" ry="53"/><linearGradient id="c1" gradientUnits="userSpaceOnUse" x1="179.591" y1="404.219" x2="384.591" y2="404.219"><stop offset="0" style="stop-color:#0073ff"/><stop offset="1" style="stop-color:#8c00ff"/></linearGradient><ellipse style="fill:url(#c1);stroke:#000;stroke-width:10;stroke-linecap:round;stroke-linejoin:round;stroke-miterlimit:10" cx="282" cy="404" rx="102.5" ry="111"/><linearGradient id="d1" gradientUnits="userSpaceOnUse" x1="766.562" y1="310.33" x2="944.562" y2="310.33"><stop offset="0" style="stop-color:#7300ff"/><stop offset="1" style="stop-color:#ff008c"/></linearGradient><ellipse style="fill:url(#d1);stroke:#000;stroke-width:10;stroke-linecap:round;stroke-linejoin:round;stroke-miterlimit:10" cx="856" cy="310" rx="89" ry="95"/><linearGradient id="e1" gradientUnits="userSpaceOnUse" x1="615.769" y1="857.232" x2="845.269" y2="857.232"><stop offset="0" style="stop-color:#f0b"/><stop offset="1" style="stop-color:#f40"/></linearGradient><circle style="fill:url(#e1);stroke:#000;stroke-width:10;stroke-linecap:round;stroke-linejoin:round;stroke-miterlimit:10" cx="730.5" cy="857" r="115"/><linearGradient id="f1" gradientUnits="userSpaceOnUse" x1="115.411" y1="614.727" x2="186.411" y2="614.727"><stop offset="0" style="stop-color:#00ff90"/><stop offset="1" style="stop-color:#006fff"/></linearGradient><circle style="fill:url(#f1);stroke:#000;stroke-width:10;stroke-linecap:round;stroke-linejoin:round;stroke-miterlimit:10" cx="150.9" cy="615" r="35.5"/><path d="M313 326.3c18 9.9 33 27 39.6 46m7 22.7 1 7m509.9-163.1c19 5 34 19.6 41 38m6 22c1 3 1.5 5 2 8M879 609.4c9 4 16 11 19.8 20m.7 19.6-.5 5M759 766.9c25 9 44 31 49.9 56.5m7.1 23.7c1 4 1 7 .5 10.8M364 799.3c16 6 29 22 31 39m0 22.7-2 6M153.5 595.4c7 1 12 6 14 12" style="opacity:.8118;fill:none;stroke:#fff;stroke-width:16;stroke-linecap:round;stroke-linejoin:round;stroke-miterlimit:10;stroke-dasharray:0,0,0,0,0,0"/><path d="M533 209.1c-68 59.6-71 20-121 36.5-19.6 10.9-14 30-9.7 39.6 11 23-51 9-69 40.3-10 18 .1 42-7.5 61.8-9 19.6-34 35-37 52.2-43 48-154 7-119 70.4 6 11 33-6 39 9.1 7 17.5-39 29-21 46.7 18 5 21 39.9 57 63.2 14 20 3 51 19 69.1 35.8 38 46-25 41-34.3 4-39 44-11 22 38.7-23 52 11 74 36.5 56.6 24-9 13 39 23 50.9 19.5 37 55 12 67 12 18 1 28 22 29.8 40.3 6.5 63 54 46 59 8 15.5-34 45 49 47 59.9 11 73 69 42 71 17.9 3-54-3-60.1 2-68.3 18.5-31 71 13 90.8-15.5 14-19.7-31-63.5 8-55.4 94 19 19-101 14-120.4-9-35.5 14-106 47-121.7 18-9 17-35.5 7-52.8-9.5-17-25-30.6-31-48.9-13.5-54 22-102-36-133.3-5-3-7-9.5-4-14.4 17-26 1-66-32-71.4-22-3-44 9-66.5 6.3C616 247 579.9 178 533 209.1z" style="fill:#009dff"/><style>.st40{fill:none;stroke:#000;stroke-width:10;stroke-linecap:round;stroke-linejoin:round;stroke-miterlimit:10}.st98{opacity:.6;enable-background:new}</style><g id="Outline"><path class="st98" d="M793 537c-1 .7-1 2-.5 3 5 10 11 35 25 30 8-2 21-13 18-22.4-.5-1-2-2-3-1.5-26 12-28-11-39-9.4v.3zm-34 274.5c6 5 26 8 25-3-6-7-20.6-12-21.5-26C750 772 744 803 759 811.5zm-219.3 52s1 .5 1 .8c9 13.5-3 36-18 40-34 6-9-6-6-44 .3-5.3 22.3 2.7 23 3.2zM342 731c5 7-4 22-4 33 8 13 29.6-5 33-14.9 2-12-17-21-28-20.2-1 .1-1 1.1-1 2.1zm31-120.2c2 23-8 47-26 61.9-13 10.9-17.5-30.6-8-27.9 6 4.2 28-18.8 34-34zm-157-59.9c-8 6-17 3-25 1-11 5 4 20 13.5 16 5-4 12-9 12-15.7-.5-.2-1.5-.2-.5-1.3zM337 473c-6-10-3-23 0-34 0-1 0-2-.6-2-9-9-23 11-19.8 20.7C318 463 338 475 337 472.8v.2z"/><path class="st98" d="M326 392c-2 29 24 45 7 44-7 2-14 1-15 11-1 11-24 0-24.5-1.3C285 433 317 404.5 326 392zm103-118c-9.9-4-16-16-18-25-4-6-9.9 1-11 6-7 54 29.5 28 29 19zm293 9c16 21 29.5 12 40 20.7 3 4 1 9.6-1 14-3 9-13 9-20 4.1-14.5-5.8-22-22.2-19-38.8z"/><path class="st40" d="M347 729c53.5 5 15 86 59 102 25 9 37-19.8 55-11.9 23 10.1 19.6 40 24 60.7 9.6 46 63 29.6 58-12.8"/><path class="st40" d="M519 861c89-9 47.5 119 114.5 115 39-6 35-47 25-76.5-3-9 0-18.5 7-24.5 24.5-21 59 15.5 84-2.5 15-11 8-33-2-45-12-15 0-32 10-43"/><path class="st40" d="M790 539c53 69.8-64 71 8 194.5 6 14 11 32 11 48.5 0 32-49 47.5-61 16"/><path class="st40" d="M721 287c2 51 64 31 74 88 6 34-11.5 71 7 103 10 18 27 31.5 34 51 8 19-4 47-27 42"/><path class="st40" d="M407 290.6c-16-8-12-29.9-2-41 17-15 40.5-10 61-6 29.8 1 49-29 75-38 50-17 81 55 133 44 23-5 48-11 69 1 25 14 33 55 10 75"/><path class="st40" d="M428 278c-16 26.5-51 17.5-76 28.5-20 10.5-28 33-23 55 10 47-43 51-39 88m25 4.5c1.5-23 35-26 41-5 7 25-13 47 16 72"/><path class="st40" d="M334 476c-20-34-61-31.5-89-9.6-20 8-43-3-64 4-22 7-28 37-5 43.5 6.5 2 23-2 26-1 15 4 11 25-5 30-21 6-10 29 6 29"/><path class="st40" d="M216 554.5c-15 15-14 41 2 55 37 22 41 31 36 69.7-2 31 46 41 53.5 10 2-10.8-4-22 0-33 13-32 44 20 62-44.5"/><path class="st40" d="M327 647.9c25 29.7-.5 47-7 75-10 32.5 34 65 53 25"/><path d="M729 262.5c9 4 16 13 18 22.5m-193-68c12.5 2 24.5 8 34 16m9 9 3 3m-163 10c-5.5-.9-12 .6-15.5 4M362 319.6c-9 2-14 10.7-16 19M339 449c4 1 6 6 6 9.8M308.5 470c-12-6-16-5-22-4M175 492c1-4 5-7 9-7.5m38 89.5c-4 8 0 16 4 19.9m44 78.6c-1 6 1 15 9 18m76-77.5c-3 14-13 14.5-16 16m4.5 119.5c-5-3-9-9-8-15M397 782c-1 14.5 7 28 14 30m90 53.9c-3 12 2 27 14.5 25M636 957c14-3 17-28 11-38m96-60.1c1-7 0-14-4-19m46-49.1c8-6.5 9-25 3-39M786 582c5-8 3-19-3-26m37-12c2-8.5-.6-18-7-24m-56-169c18 6 22 30 21 35" style="opacity:.7882;fill:none;stroke:#fff;stroke-width:10;stroke-linecap:round;stroke-linejoin:round;stroke-miterlimit:10;enable-background:new"/></g><linearGradient id="a10" gradientUnits="userSpaceOnUse" x1="242.469" y1="-542.713" x2="318.469" y2="-492.713" gradientTransform="translate(0 1066)"><stop offset="0" style="stop-color:#0f4"/><stop offset=".298" style="stop-color:#00e97f"/><stop offset=".781" style="stop-color:#00c8db"/><stop offset="1" style="stop-color:#0bf"/></linearGradient><path style="fill:url(#a10)" d="M279 499.3c-8 19.6-17 39-25 59 19 9.7 33 28 41 48 1-26 10.9-46 29-65-15-15.3-28-25.3-45-42.3v.3z"/><path d="M275.5 512c36 25 1 53 19 84 14-76 63.5-25-16-93.5" style="opacity:.4902;fill:#fff;enable-background:new"/><path d="M279 499c-8 19.6-17 39-25 59 19 9.7 33 28 41 48 1-26 10.9-46 29-65-15-15-28-25-45-42z" style="fill:none;stroke:#000;stroke-width:10;stroke-linecap:round;stroke-linejoin:round;stroke-miterlimit:10"/><path d="M274 498.5C264 519 255 540 248 562c21 7 34 27 45 45.5" style="opacity:.6;fill:none;stroke:#000;stroke-width:10;stroke-linecap:round;stroke-linejoin:round;stroke-miterlimit:10;enable-background:new"/><path d="M283 523c4.5 4 9 9 13 13m10 10c-.8-.6-2-1-2-2" style="fill:none;stroke:#fff;stroke-width:10;stroke-linecap:round;stroke-linejoin:round;stroke-miterlimit:10"/><style>.st40,.st68{fill:none;stroke-width:10;stroke-linecap:round;stroke-linejoin:round;stroke-miterlimit:10;stroke:#000}.st68{opacity:.6;enable-background:new}</style><g id="Happy_Beard"><linearGradient id="SVGID_00000012458921589117142250000001255892426965824154_" gradientUnits="userSpaceOnUse" x1="482.466" y1="444.183" x2="708.475" y2="85.169" gradientTransform="matrix(.9987 .05075 .05075 -.9987 14.064 1042.44)"><stop offset="0" style="stop-color:#00a2ff"/><stop offset=".654" style="stop-color:#aa36e8"/><stop offset="1" style="stop-color:#f0d"/></linearGradient><path style="fill:url(#SVGID_00000012458921589117142250000001255892426965824154_);stroke:#000;stroke-width:10;stroke-linecap:round;stroke-linejoin:round;stroke-miterlimit:10" d="M749.8 654c37 24 16.5 79 8.5 114-16 55 39 72 17 127.5-43-56-34 11-42 16.3-19-69-64-3-13 17.9-4 24-57-17-46 57.5-23-10.7-20.8-39.9-26-60.9-6-18-26-20.8-36-4.5-9.8 20.8-19 43-41 55 4-43-33-56-39-64.9-5-8-2-20.6-10-26-15-10-28 12-43 13.2 26-41-19.5-103-26-30-28-26-11-53-23-61-8-4-15 8-24 8 12.5-20.5-2-44-5-65.6-9-66 51.5-97 109-72.5 82 35 64-11 110-8.9 54 3 86-44 129-15.4v.3z"/><path d="M441 706c-36 33 0 64 9.9 68 44 21 49 42 67 62 28 26 56 18 87 2.2 19.5-9.9 43 1 65-1 30.6-3 59-32 55-64-6-46 7-36 20-56 8-12 1-29-10-37.3-33-22-53 13-81 19.5-12 2-24-4-36-4-24 0-45 44-112 4.9-22-13-48-10.7-65 5.3v.4z" style="fill:#fe1767"/><path d="M582 710.6c22.5 7 43 21 58 38.9 24-16 58-5 82 8-4-19 14-28 22-42.5 12-22-13-65-67-27.5-39 30.5-54-11.5-95 23.1z"/><path d="M629.8 745c-22-17-48-8-72-2.9-54 11-82-46-125-24 27-47 81-13 94-7.9C573 729 583 691 629.8 745zm26.2 40c2-22 25-37 46-37-17-14-45-9-62 3.6l16 33.4z" style="fill:#ae0f45"/><path class="st40" d="M441 706c-36 33 0 64 9.9 68 44 21 49 42 67 62 28 26 56 18 87 2.2 19.5-9.9 43 1 65-1 30.6-3 59-32 55-64-6-46 7-36 20-56 8-12 1-29-10-37.3-33-22-53 13-81 19.5-12 2-24-4-36-4-24 0-45 44-112 4.9-22-13-48-10.7-65 5.3v.4z"/><path class="st68" d="M433 710c-15 15-16 41-2 57 9.9 12 26 16 38 26 24.5 18 35 53 65 64.5 31 12 59-13 88-18 19.7-4 51 12 66-7m-264-153c-59 41-7 89-22 134"/><path d="M606 741c11 8 17 21 22 33m7 14 1 4m50-33c8 2 16 6 22 12.5m20-111.7c10 1 19.8 7 25 16m4 11.2 1 3.5M751.5 833c5 6 8 12.5 11 19.5M767 863l1 3m-171 56c-2 6-4 11-8 17m-6 10-2 2M448.5 817c-1 5 0 11 .5 16" style="fill:none;stroke:#fff;stroke-width:10;stroke-linecap:round;stroke-linejoin:round;stroke-miterlimit:10"/><path class="st40" d="M582 712c38 7.5 66 45 75 80.7M640 749c30-16 57-9 83 10.9"/><path class="st68" d="M731 897c.9-8.5 5-22 15-23m-48 21c-4 13 0 34 14 38m-59 19c3 9.5 9 18 16.5 24M487 861c4.5 11.5 7 19.9 3 29m-73-82c2-9 .7-22-7-28.5"/></g><defs><linearGradient id="axe" x1="503.59" y1="455.12" x2="514" y2="579.96" gradientUnits="userSpaceOnUse"><stop offset="0" stop-color="#00ffe1"/><stop offset="1" stop-color="#001eff"/></linearGradient><linearGradient id="axe-2" x1="666.66" y1="438.52" x2="689.84" y2="583.76" gradientUnits="userSpaceOnUse"><stop offset="0" stop-color="#ff001e"/><stop offset=".12" stop-color="#ff131c"/><stop offset=".35" stop-color="#ff4315"/><stop offset=".68" stop-color="#ff900b"/><stop offset="1" stop-color="#ffe100"/></linearGradient><style>.axe-2,.axe-3{fill:none;stroke:#000;stroke-linecap:round;stroke-linejoin:round;stroke-width:10px}.axe-3{opacity:.6}</style></defs><path d="M358.8 447.6c26.7-17.9 58.8-13.6 88.6-7.6 27 5.4 49.5-11.1 71.8-23.3 20.6-11.4 44.7 1.2 38.7 22.4 0 0 43.9-12.2 84.7-26.1 11.4-3.9 35.6 3.2 60.9-8 37-16.4 60.7 20.5 56.9 55.6-4 36.8 15.7 35.5 20 50.3 2.9 10.3-7 20.9-17.4 18.4 0 0 33.6 62.6-10.6 52.4-40.8-9.4-50.6 21.8-98.6 18.2-22.5-1.7-64.7 64.1-61.8 3.7 0 0-4.9-3.7-43.7 6.9-32.6 8.9-31.3-16.7-75.3-9-33.5 5.9-25.5-37.8-57.5-36.6l12.6 4.3c2.2 33.7-37.3 27.7-36.7-4.1 2.5-19 9.1-38 7.9-57.2-11.9-8.1-26.4-9.1-40.5-9.7-3-16.7-1.2-33.4 0-50.6Z" style="fill:#fff"/><path class="axe-2" d="M314.8 454c1.5-23.1 35.3-26.3 41.4-5 7.1 24.8-12.6 46.8 16.2 72.4m-13.6-73.8c26.7-17.9 58.8-13.6 88.6-7.6 27 5.4 49.5-11.1 71.8-23.3 20.6-11.4 45.5-2.4 38.7 20.2"/><path class="axe-2" d="M541.6 437.1c49.3 12.9 61.3-24.6 101-24.1 26.3.4 35.6 3.2 60.9-8 37-16.4 60.7 20.5 56.9 55.6-4 36.8 15.7 35.5 20 50.3 2.9 10.3-7 20.9-17.4 18.4"/><path class="axe-2" d="M758.9 515.3c-1.8 17.2 14.3 28.9 16.7 44.4 2 13.2-7.4 25.6-23.2 22-40.8-9.4-51.2 26.4-98.6 18.2-22.8-3.9-25.3 25.9-45.9 28.7-13.6 1.9-26-14-15.9-25"/><path class="axe-2" d="M606.6 603.5c-28.6-10.2-35.2 9.2-60.1 9.3-33.7 0-29.5-19-73.5-11.3-33.5 5.9-25.5-37.8-57.5-36.6"/><path class="axe-2" d="M391.7 477.1c20 36.3-.2 54.7-.6 88.4-.3 31.4 39.2 37.4 37 3.7"/><path class="axe-2" d="M399.4 508.2a40.6 40.6 0 0 0-39.7-5.7"/><path class="axe-3" d="M541.6 437.1c8.1-.1 14.6-7.8 14.2-15.9m-164.1 55.9c2.1 7.9 2.6 17-3 22.6m26.8 65.2c10.5 5.3 7.5 17.8 0 25.2m191.1 13.4c-9.2-.8-15.3 9-14.8 17.4m167.1-105.6c3 7.2 9.7 11.4 17.3 9.3m-413.9-75.7c6.7 15.1-2.7 32.3 1.5 47.9m.6 8.6c10.5.3 21.5-.2 29.7 8-3.3 19.3-12.7 39.8-7.7 59.4 2.6 10.6 12.1 22.3 24.2 19.2"/><path class="axe-3" d="M431.1 577.2c13.5 27.7 27.8 32.6 58.6 29.6 42.9-4.1 39.9 25.2 92.8 1.9-.9 13.7 11.6 27.5 25.4 20.1m26.6-19c33.2-9.5 35.3 11 80.7-17.5 22.7-14.3 46.1 5.1 58-18.1"/><path d="M446.5 532.3c15.9 12.4 12.9 45.3 59.3 21.3 13-6.7 27.9 7.8 41.8 12.2 24.3 10.5 46.2-15.1 31.4-36.7-7-10.3-9.6-21.2-7.5-33.4 2.9-17.2-16.1-36.6-32.1-27-44.4 26.8-51.7-10.5-77.4 1.4-15.2 7-41.7 41.9-15.5 62.2Z" style="fill:url(#axe);stroke-linecap:round;stroke-linejoin:round;stroke-width:10px;stroke:#000"/><path d="M615.6 483.2c1.5 9.9 12.5 19.3 12.5 34 0 71.8 26.9 19.3 85.6 34.9 18.7 5 31.1-22.3 21.5-38.4-25.1-41.8-8.3-51.5-26.2-61.5-21-11.7-40.2 11.8-60.4 11-11.7-.4-36.9-6.1-33 20Z" style="fill:url(#axe-2);stroke-linecap:round;stroke-linejoin:round;stroke-width:10px;stroke:#000"/><path class="axe-3" d="M440.3 490.6c-17.5 17.6-8 35.8 10.4 51.1 7.3 6.1 7.2 18.1 15.2 23.2 14.7 9.3 30-3.8 44.4-6.7 20.3-4.1 47.3 30.7 63.2 5.3m40.8-91.2c-4.9 11.3 2 21.8 5.5 32.6 11.7 35.7-5.6 70.2 48.7 52.7 22.6-7.4 42.8 5.6 54-5.3"/><path d="M549.9 479.1a17.2 17.2 0 0 1 6.3 12.2m1.2 12.1-.4 2.7m-87.7-24.3c-8.3 4.4-15.4 11.8-17.7 20.9m-2.6 13.5v1.8m121.2 26.3a16 16 0 0 1-14.6 10.3m142.8-93.5c5.5 2.8 8.1 9.2 8.9 15.2m2.5 11.8.6 2.8m16.8 36.7a18.3 18.3 0 0 1-5.4 11.2m-94.1-63.7c-1.1 4.7 1 8.9 3.4 12.7m12.1 56.1c-3-3.6-3.4-8.6-3.4-13.1" style="stroke:#fff;opacity:.74;stroke-linecap:round;stroke-linejoin:round;stroke-width:10px;fill:none"/><path d="M447 489a656.4 656.4 0 0 1 50.1 42.7l1.3-16.6s62.4 50.9 62.6 51.2c9.2-.5 18.2-6.2 20.9-15.5l-90.3-56.4-4.5 11.4-29.3-30.2M617.2 489l54.4 32.3-5.6-16.1s64 39.4 64.9 39.4c5.8-1.9 7.6-10.9 7.5-16.4l-82-38.4v10l-39.2-27.1" style="opacity:.28;fill:#fff"/><path class="axe-2" d="M446.5 532.3c15.9 12.4 12.9 45.3 59.3 21.3 13-6.7 27.9 7.8 41.8 12.2 24.3 10.5 46.2-15.1 31.4-36.7-7-10.3-9.6-21.2-7.5-33.4 2.9-17.2-16.1-36.6-32.1-27-44.4 26.8-51.7-10.5-77.4 1.4-15.2 7-41.7 41.9-15.5 62.2Zm169.1-49.1c1.5 9.9 12.5 19.3 12.5 34 0 71.8 26.9 19.3 85.6 34.9 18.7 5 31.1-22.3 21.5-38.4-25.1-41.8-8.3-51.5-26.2-61.5-21-11.7-40.2 11.8-60.4 11-11.7-.4-36.9-6.1-33 20Z"/><style>.st68{fill:none;stroke-linecap:round;stroke-linejoin:round;stroke-miterlimit:10;opacity:.6;stroke:#000;stroke-width:10;enable-background:new}</style><g id="Flame_Horns"><radialGradient id="SVGID_00000080209009676873749930000001060105919475124125_" cx="411.357" cy="716.24" r="98.454" gradientTransform="matrix(1 0 0 -1.3309 0 1204.53)" gradientUnits="userSpaceOnUse"><stop offset="0" style="stop-color:#ff0051"/><stop offset="1" style="stop-color:#ffae00"/></radialGradient><path style="fill:url(#SVGID_00000080209009676873749930000001060105919475124125_);stroke:#000;stroke-width:10;stroke-linecap:round;stroke-linejoin:round;stroke-miterlimit:10" d="M358 242c-15 33-24 114 14 129 32 12 107-15 104-54-2-28-30.5-13-27-71.4-3 4-8 12-11 16-4 6-15 3-13-9.9 6-32 22-48.5 1.5-81.9-5 85-52 44-.8-41.2-77 51-41 114-41 136.5 0 8.5-6 20.5-15 16C358 274 361 254.5 358 242z"/><radialGradient id="SVGID_00000046340282393842880260000016969407795463563686_" cx="704.981" cy="693.497" r="86.371" gradientTransform="matrix(1 0 0 -1.4164 0 1232.09)" gradientUnits="userSpaceOnUse"><stop offset="0" style="stop-color:#ff0051"/><stop offset="1" style="stop-color:#ffae00"/></radialGradient><path style="fill:url(#SVGID_00000046340282393842880260000016969407795463563686_);stroke:#000;stroke-width:10;stroke-linecap:round;stroke-linejoin:round;stroke-miterlimit:10" d="M708 141c-19.7 17-39 39.6-37 67 6 94-37 75-18 114 9.8 20 41 35 63 36 38-1 57-51 36-81.5 2 16-17 27-18 7.5-2-27 30-44 6-104-14 72-57 23-32-39z"/><path class="st68" d="M359 360.9c27 42 145-2 116-52m174.6-9.9c-17 40 66 84 91 50.6"/><path d="M687 187c-4 8.5-5 18-3 27m0 15v4m53-11c0 9-3 17.5-6 26m-4.5 11-1 2.5M748 311c-1 9-6 19-13.5 26m-14.5 8 4-1m-365-48c-1 11 0 23 3 34m5 14 1 5m21-143c-2 11 1 21 4 32m3 11.8v3.2" style="stroke:#fff;stroke-width:7;fill:none;stroke-linecap:round;stroke-linejoin:round;stroke-miterlimit:10"/><path class="st68" d="M354 263c1.5 11 13 28 24 18m70-22.5c-4 6-10 9-17 5m1-78.5c2 14-5 29-19 32m309-2c9-4 16-12 19-20.6m15 94.6c-3 6-10 10.5-15 6"/></g><circle cx="550" cy="550" r="500" style="fill:none;stroke:#000;stroke-width:10;stroke-linecap:round;stroke-linejoin:round;stroke-miterlimit:10"/></svg>