<svg version="1.1" id="Layer_1" xmlns="http://www.w3.org/2000/svg" x="0" y="0" viewBox="0 0 1100 1100" style="enable-background:new 0 0 1100 1100" xml:space="preserve" xmlns:xlink="http://www.w3.org/1999/xlink"><path d="M178 220c12 65 96 58 145 73.5 105 33 142 205 259 198C924 471 815 683 999 767.1c15-28 26-58 33.5-90.2-31 3-79-25-64-57 10-21.5 46-65-1-68.6-76-5-19-57 20-25.1 17 14 36 45 61.5 34.6 2-44-3-88-15-130.9-81.5 19-124.5-85-198-73.9-67 9.8-153.5 76-213 17.9-17-29 11-63 40.7-65.6 56-4 58-66 15-89.6-75-31-86 59.7-139.6 65.5-123 14-57.5-169-166.5-203.5C298 111 231 159 178 220zm801 586.7c-21-28-62-29-98-28.2C662 798 654 538 448 609.3 196 697 219 565 51 563.5c2 61 14 122 38 179.5 114-52 156 24 253 38.9C542 812 530.5 662 713 919.2c25 28 55 58 95 58C879.5 939 935 876 979 806.7zM534.5 1050c-15-83-150-33.5-235-128.4-62-70-75-22-110.9-26.1C277 988 402.5 1045 534.5 1050z" style="fill:#430f70"/><radialGradient id="a4" cx="564.461" cy="535.948" r="438.66" gradientTransform="matrix(1 0 0 -1 0 1100)" gradientUnits="userSpaceOnUse"><stop offset="0" style="stop-color:#7303fc"/><stop offset="1" style="stop-color:#03fcb1"/></radialGradient><path style="fill:url(#a4)" d="M532 209c-68 59.6-71 20-121 36.5-19.6 10.9-14 30-9.7 39.6 11 23-51 9-69 40-10 18 0 42-7.5 61.8-9 19.6-34 35-37 52-43 48-154 7-119 70 6 11 33-6 39 9 7 17.5-39 29-21 46.7 18 5 21 39.9 57 63 14 20 3 51 19 69 36 38 46-25 41-34 4-39 44-11 22 38.7-23 52 11 74 36.5 57 24-9 13 39 23 50.9 19.5 37 55 12 67 12 18 1 28 22 29.8 40.3 6 63 54 46 59 8 15.5-34 45 49 47 59.9 12 73 69.5 42 71 17.9 3-54-3-60 2-68.3 19-31 71 13 90.8-15.5 14-19.8-31-63 8-55 94 19.9 19-101 14-120-9-35.5 14-106 47-121.7 18-9 17-35.5 7-53-9.6-17-25-30.6-31-48.9-13.5-54 21-100.6-36-133-5-3-7-9.5-4-14.4 17-26 1-66-32-71-22-3-44 9-66.5 6C615 247 578.5 178 532 209z"/><style>.st40{fill:none;stroke:#000;stroke-width:10;stroke-linecap:round;stroke-linejoin:round;stroke-miterlimit:10}.st98{opacity:.6;enable-background:new}</style><g id="Outline"><path class="st98" d="M793 537c-1 .7-1 2-.5 3 5 10 11 35 25 30 8-2 21-13 18-22.4-.5-1-2-2-3-1.5-26 12-28-11-39-9.4v.3zm-34 274.5c6 5 26 8 25-3-6-7-20.6-12-21.5-26C750 772 744 803 759 811.5zm-219.3 52s1 .5 1 .8c9 13.5-3 36-18 40-34 6-9-6-6-44 .3-5.3 22.3 2.7 23 3.2zM342 731c5 7-4 22-4 33 8 13 29.6-5 33-14.9 2-12-17-21-28-20.2-1 .1-1 1.1-1 2.1zm31-120.2c2 23-8 47-26 61.9-13 10.9-17.5-30.6-8-27.9 6 4.2 28-18.8 34-34zm-157-59.9c-8 6-17 3-25 1-11 5 4 20 13.5 16 5-4 12-9 12-15.7-.5-.2-1.5-.2-.5-1.3zM337 473c-6-10-3-23 0-34 0-1 0-2-.6-2-9-9-23 11-19.8 20.7C318 463 338 475 337 472.8v.2z"/><path class="st98" d="M326 392c-2 29 24 45 7 44-7 2-14 1-15 11-1 11-24 0-24.5-1.3C285 433 317 404.5 326 392zm103-118c-9.9-4-16-16-18-25-4-6-9.9 1-11 6-7 54 29.5 28 29 19zm293 9c16 21 29.5 12 40 20.7 3 4 1 9.6-1 14-3 9-13 9-20 4.1-14.5-5.8-22-22.2-19-38.8z"/><path class="st40" d="M347 729c53.5 5 15 86 59 102 25 9 37-19.8 55-11.9 23 10.1 19.6 40 24 60.7 9.6 46 63 29.6 58-12.8"/><path class="st40" d="M519 861c89-9 47.5 119 114.5 115 39-6 35-47 25-76.5-3-9 0-18.5 7-24.5 24.5-21 59 15.5 84-2.5 15-11 8-33-2-45-12-15 0-32 10-43"/><path class="st40" d="M790 539c53 69.8-64 71 8 194.5 6 14 11 32 11 48.5 0 32-49 47.5-61 16"/><path class="st40" d="M721 287c2 51 64 31 74 88 6 34-11.5 71 7 103 10 18 27 31.5 34 51 8 19-4 47-27 42"/><path class="st40" d="M407 290.6c-16-8-12-29.9-2-41 17-15 40.5-10 61-6 29.8 1 49-29 75-38 50-17 81 55 133 44 23-5 48-11 69 1 25 14 33 55 10 75"/><path class="st40" d="M428 278c-16 26.5-51 17.5-76 28.5-20 10.5-28 33-23 55 10 47-43 51-39 88m25 4.5c1.5-23 35-26 41-5 7 25-13 47 16 72"/><path class="st40" d="M334 476c-20-34-61-31.5-89-9.6-20 8-43-3-64 4-22 7-28 37-5 43.5 6.5 2 23-2 26-1 15 4 11 25-5 30-21 6-10 29 6 29"/><path class="st40" d="M216 554.5c-15 15-14 41 2 55 37 22 41 31 36 69.7-2 31 46 41 53.5 10 2-10.8-4-22 0-33 13-32 44 20 62-44.5"/><path class="st40" d="M327 647.9c25 29.7-.5 47-7 75-10 32.5 34 65 53 25"/><path d="M729 262.5c9 4 16 13 18 22.5m-193-68c12.5 2 24.5 8 34 16m9 9 3 3m-163 10c-5.5-.9-12 .6-15.5 4M362 319.6c-9 2-14 10.7-16 19M339 449c4 1 6 6 6 9.8M308.5 470c-12-6-16-5-22-4M175 492c1-4 5-7 9-7.5m38 89.5c-4 8 0 16 4 19.9m44 78.6c-1 6 1 15 9 18m76-77.5c-3 14-13 14.5-16 16m4.5 119.5c-5-3-9-9-8-15M397 782c-1 14.5 7 28 14 30m90 53.9c-3 12 2 27 14.5 25M636 957c14-3 17-28 11-38m96-60.1c1-7 0-14-4-19m46-49.1c8-6.5 9-25 3-39M786 582c5-8 3-19-3-26m37-12c2-8.5-.6-18-7-24m-56-169c18 6 22 30 21 35" style="opacity:.7882;fill:none;stroke:#fff;stroke-width:10;stroke-linecap:round;stroke-linejoin:round;stroke-miterlimit:10;enable-background:new"/></g><linearGradient id="a12" gradientUnits="userSpaceOnUse" x1="234.425" y1="-533.764" x2="348.416" y2="-471.769" gradientTransform="translate(0 1066)"><stop offset="0" style="stop-color:#e0f"/><stop offset=".098" style="stop-color:#e002ff"/><stop offset=".286" style="stop-color:#ba07ff"/><stop offset=".543" style="stop-color:#7c0eff"/><stop offset=".857" style="stop-color:#2919ff"/><stop offset="1" style="stop-color:#001eff"/></linearGradient><path style="fill:url(#a12)" d="M329 545.2c-2-47-53-63-76-27-7 11-9 27-1 38 5.8 8 15 12 19 21 5 13-6 28 0 39.9 16 22 43-1.5 35-25-14.5-31.1 24-18.1 23-47.1v.2z"/><path d="M264 506c-18 25 30 88 55 57.9 22.5-21 3-59-24.5-63.3-10.5-2-23.5-4-30.5 5.2v.2z" style="opacity:.3412;fill:#fff;enable-background:new"/><path d="M329 545c-1.5-47-53-63-76-27-7 11-9 27-1 38 5.8 8 15 12 19 21.4 5 13-6 28 0 39.9 16 22 43-1.5 35-25-14.5-31.3 24-18.3 23-47.3z" style="fill:none;stroke:#000;stroke-width:10;stroke-linecap:round;stroke-linejoin:round;stroke-miterlimit:10"/><path d="M262 503c-19 13-29.7 41-14 60.5 5 6 12 10 16 17 5.5 12-3 28 3.5 39.5 4 7 13 9.8 19.7 7" style="opacity:.6;fill:none;stroke:#000;stroke-width:10;stroke-linecap:round;stroke-linejoin:round;stroke-miterlimit:10;enable-background:new"/><path d="M295.5 515c7 4 12 9.6 16 16m3.5 12c.5 1 1 2 1 3" style="fill:none;stroke:#fff;stroke-width:10;stroke-linecap:round;stroke-linejoin:round;stroke-miterlimit:10"/><defs><style>.zac-4{fill:none;stroke-linecap:round;stroke-linejoin:round;stroke-width:10px;stroke:#000}</style></defs><path d="M497.5 766.8c-11.6 118.6 226.7 117.7 213-1.9Z" style="fill:#ff0059"/><path d="M501.5 776.7c58 34.9 68.2-20.3 116.4-3.9" style="stroke-linecap:round;stroke-linejoin:round;stroke-width:10px;stroke:#660024;fill:none"/><path d="M710.8 767.7c-15.5 13.1-45.4-1-55.8 13.3-4.6 6.4-3.8 13.2.4 20.5-9.7-4.2-18.8-13-24.8-22.6 4.9-10.2 63.2-17.4 80.2-11.2Z" style="fill:#660024"/><path d="M591.5 759.8a117.5 117.5 0 0 1 36.8 18.7l17.9-13.1a143.7 143.7 0 0 1-39-27.9c-5.9 6.8-12.4 13.5-15.7 22.3Z"/><path class="zac-4" d="M497.5 766.8c-11.6 118.6 226.7 117.7 213-1.9"/><path class="zac-4" d="M587.2 761.2c25.3 5.5 48.6 20.8 64.6 42.2"/><path d="M613.4 727.7c-85 131.8-186.8-17.3-157.3-65.4 16 36.8 60.9 42.3 94.1 33.4 29.4-7.8 41.6-35.6 58.8-35 20 .6 40 21.1 61.7 26.2 35.3 8.3 68.4-11.4 83.4-46.9 23 48.4-11.4 113.5-58.8 125.2-32 7.9-64.5-2.7-87.7-26.2" style="fill:#c97600;stroke:#000;stroke-linecap:round;stroke-linejoin:round;stroke-width:10px"/><path class="zac-4" d="M629.6 779.5a40.9 40.9 0 0 1 21.7-13.9"/><path d="M611.7 675.4a55.8 55.8 0 0 1 20.4 10.1m10.1 6 2.8 1.6m-57.8 43.4a60.1 60.1 0 0 1-28 23.6m-14.7 3.5-4.3-.2m204.4-70.3c-4.1 14.1-9.8 24.8-18.5 33.1m-10.5 10.3-3.4 2.5m-105.9 44.1c9.9 2 17.6 9.3 24 16.7m7.9 10.7 1.6 2.7" style="stroke:#fff;fill:none;stroke-linecap:round;stroke-linejoin:round;stroke-width:10px"/><path d="M450.9 662.3c-14.3 40.4 8.3 83 40.5 108.3-4 99.8 155.8 120.9 203.8 49m-91.1-158.3c-24.3 2.6-33.6 26.7-52.7 34.3m201.8-56.5c-11.4 19.8-27.4 35.9-50.4 47.5m-89.4 41.1c2.2 12.1 8.8 20.3 15.9 27.8" style="opacity:.6;stroke:#000;fill:none;stroke-linecap:round;stroke-linejoin:round;stroke-width:10px"/><defs><linearGradient id="a" x1="591.66" y1="391.79" x2="591.66" y2="679.79" gradientUnits="userSpaceOnUse"><stop offset="0" stop-color="#f08"/><stop offset=".22" stop-color="#fe336d"/><stop offset=".71" stop-color="#fcb329"/><stop offset="1" stop-color="#fbff00"/></linearGradient></defs><path d="M455.5 582.7c11.6 22.3 28.8 20.1 46 32.9 5.2 3.8 6.7 18-14.9 11.2 46.7 61.8 107.7-17.3 107.9-69.7-4.3 3.3-13.9 8.3-17.4-.9-8.3-21.6 29.3-54.6 39.3-17.2 2.5 9.4-6.1 17.4-2.7 26.7 2.6 7.2 9.4 29-8.2 23.8-.3 19 20.4 44.4 37.4 48.2 51.5 11.8 90.4-56.5 98-75.1-16.7 6.6-32.4 2.7-2.3-23.5a74.7 74.7 0 0 0 22-33.2c-37.3 12.3 22.9-54.3 14.3-83.8-53.1 68.9-60.7 20.1-52.2 7-11.9 3.5-18.7 13.9-25.2 23.6-10 15-23.2 11.3-25.6-8-1.8-14.6-15.4-17.4-26-21.1 16.1 42.5-13.7 39.4-17.6 12.2-11.9 6.2-16.6 20-19.6 32-4.3 17.8-29.9 44.2-41.9 23-10-17.6 24.4-33.4-6.8-55.7-4.9 23.2-20.3 21.9-37.1 33.8-20.9 14.8-22.7-20.3-10.3-32.5-21.9 3.9-29.4 29.1-47.3 28.6s-14.4-22.6-6.2-32.8c-17.3 7.9-33.3 29.1-34.2 48.1-.5 9.6 13.1 25.5 1.9 30.4-6.5 3-12.7-5.7-19.2-.1 12.8 10.7 10.6 19.5 34.5 32.5 54.2 29.6 20.3 39.7 13.4 39.6Z" style="fill:url(#a)"/><path d="M456.3 463.6c10.3 24.3 16.9 61.6 25.7 86.4l13.9-22.9 48.5 116.8 22.2-17.8-65.7-133.4-9.6 20.2-13.9-51.6m31.4 12.5c18.1 49.4 36.4 99.1 62.8 144.6l6.9-13.8-61.1-131m97.9-21q17.9 55.6 39.5 109.9l7.1-30.9 25.7 95.8 25.9-22.3-49.4-105.5-11 18.6s-11-62.2-11.3-61.6c-8.1-1.7-12-11.8-15.3-18-5 3.2-8 8.7-11.2 14Zm37.6-6.5c20.9 39.8 39.3 81.4 67.8 116.8l9.3-16.4s-51.9-84.7-51-84c-13.6-11.7-3.6-35-30.3-34.6a28.6 28.6 0 0 1 4.2 18.2Z" style="fill:#fff;opacity:.36"/><path d="M559 434.6c-5.6 19.9-31.3 20.6-42.8 35.4m108.4-34c-22.5 14.4-17.7 42.9-39.5 60.4m57.5-72.2a54.6 54.6 0 0 1 3.2 28m73.1-25.5c-15.3 6.3-21.8 23.6-34 33.7m86.8-40.2c-10.1 15.1-24.3 28.5-40.8 36.4M508 433c-18.1 3.8-25.5 24.1-41.7 31.2m-12.5-33.9c-18.1 11.8-36.6 32-32.8 54.6 1.2 7.2 5.6 13.6 6 21m-20.7 8.3c6 5.6 9.8 13.1 15.2 19.2 13.6 15.4 36.8 21 47.4 39.2m-15.4 11.8c8.8 22 35.8 22.5 47.4 37.8m-15.6 8.2c10.2 14.5 29.4 26.6 46.9 18.4m68.1-124c12.6 11.3 11.9 14.8 8.5 32.4-1.8 9.4 6.8 19.5 4 29.1m-9.6 4.5c3.2 30.4 34.3 62.2 65.7 46.5m-76.4-81.4a18.1 18.1 0 0 1-10.7 3.6m157.4 1.2a40.5 40.5 0 0 1-13.9.9m33.7-57a20.5 20.5 0 0 1-7 .3" style="stroke:#000;opacity:.6;fill:none;stroke-linecap:round;stroke-linejoin:round;stroke-width:10px;stroke-dasharray:0 0 0 0 0 0"/><path d="M702.3 596a70.8 70.8 0 0 1-25.5 22.5m-11.7 5.3-4.1 1.1m80.4-107.3c-3.4 4.2-7.1 8.3-12 10.7m-104.2-70.5a32 32 0 0 0-4.3 13.4m-46.1 116.5a85.3 85.3 0 0 1-17 25.3m-10.6 10.6-3 2.4m15.5-165.8a29 29 0 0 1-3.8 8.4M442.6 465a22.9 22.9 0 0 0-4.1 13.6m3.9 14.5.4 3.5m-7.4 26.9a38.9 38.9 0 0 0 11.8 7.3m30.9 59.1a27.2 27.2 0 0 0 11.1 5.3m261-131.4a50.4 50.4 0 0 1-6.4 13.2" style="fill:none;stroke-linecap:round;stroke-linejoin:round;stroke-width:10px;stroke-dasharray:0 0 0 0 0 0;stroke:#fff"/><path d="M455.5 582.7c11.6 22.3 28.8 20.1 46 32.9 5.2 3.8 6.7 18-14.9 11.2 46.7 61.8 107.7-17.3 107.9-69.7-4.3 3.3-13.9 8.3-17.4-.9-8.3-21.6 29.3-54.6 39.3-17.2 2.5 9.4-6.1 17.4-2.7 26.7 2.6 7.2 9.4 29-8.2 23.8-.3 19 20.4 44.4 37.4 48.2 51.5 11.8 90.4-56.5 98-75.1-16.7 6.6-32.4 2.7-2.3-23.5a74.7 74.7 0 0 0 22-33.2c-37.3 12.3 22.9-54.3 14.3-83.8-53.1 68.9-60.7 20.1-52.2 7-11.9 3.5-18.7 13.9-25.2 23.6-10 15-23.2 11.3-25.6-8-1.8-14.6-15.4-17.4-26-21.1 16.1 42.5-13.7 39.4-17.6 12.2-11.9 6.2-16.6 20-19.6 32-4.3 17.8-29.9 44.2-41.9 23-10-17.6 24.4-33.4-6.8-55.7-4.9 23.2-20.3 21.9-37.1 33.8-20.9 14.8-22.7-20.3-10.3-32.5-21.9 3.9-29.4 29.1-47.3 28.6s-14.4-22.6-6.2-32.8c-17.3 7.9-33.3 29.1-34.2 48.1-.5 9.6 13.1 25.5 1.9 30.4-6.5 3-12.7-5.7-19.2-.1 12.8 10.7 10.6 19.5 34.5 32.5 54.2 29.6 20.3 39.7 13.4 39.6Z" style="stroke:#000;fill:none;stroke-linecap:round;stroke-linejoin:round;stroke-width:10px;stroke-dasharray:0 0 0 0 0 0"/><style>.st68{fill:none;stroke-linecap:round;stroke-linejoin:round;stroke-miterlimit:10;opacity:.6;stroke:#000;stroke-width:10;enable-background:new}</style><g id="Flame_Horns"><radialGradient id="SVGID_00000080209009676873749930000001060105919475124125_" cx="411.357" cy="716.24" r="98.454" gradientTransform="matrix(1 0 0 -1.3309 0 1204.53)" gradientUnits="userSpaceOnUse"><stop offset="0" style="stop-color:#ff0051"/><stop offset="1" style="stop-color:#ffae00"/></radialGradient><path style="fill:url(#SVGID_00000080209009676873749930000001060105919475124125_);stroke:#000;stroke-width:10;stroke-linecap:round;stroke-linejoin:round;stroke-miterlimit:10" d="M358 242c-15 33-24 114 14 129 32 12 107-15 104-54-2-28-30.5-13-27-71.4-3 4-8 12-11 16-4 6-15 3-13-9.9 6-32 22-48.5 1.5-81.9-5 85-52 44-.8-41.2-77 51-41 114-41 136.5 0 8.5-6 20.5-15 16C358 274 361 254.5 358 242z"/><radialGradient id="SVGID_00000046340282393842880260000016969407795463563686_" cx="704.981" cy="693.497" r="86.371" gradientTransform="matrix(1 0 0 -1.4164 0 1232.09)" gradientUnits="userSpaceOnUse"><stop offset="0" style="stop-color:#ff0051"/><stop offset="1" style="stop-color:#ffae00"/></radialGradient><path style="fill:url(#SVGID_00000046340282393842880260000016969407795463563686_);stroke:#000;stroke-width:10;stroke-linecap:round;stroke-linejoin:round;stroke-miterlimit:10" d="M708 141c-19.7 17-39 39.6-37 67 6 94-37 75-18 114 9.8 20 41 35 63 36 38-1 57-51 36-81.5 2 16-17 27-18 7.5-2-27 30-44 6-104-14 72-57 23-32-39z"/><path class="st68" d="M359 360.9c27 42 145-2 116-52m174.6-9.9c-17 40 66 84 91 50.6"/><path d="M687 187c-4 8.5-5 18-3 27m0 15v4m53-11c0 9-3 17.5-6 26m-4.5 11-1 2.5M748 311c-1 9-6 19-13.5 26m-14.5 8 4-1m-365-48c-1 11 0 23 3 34m5 14 1 5m21-143c-2 11 1 21 4 32m3 11.8v3.2" style="stroke:#fff;stroke-width:7;fill:none;stroke-linecap:round;stroke-linejoin:round;stroke-miterlimit:10"/><path class="st68" d="M354 263c1.5 11 13 28 24 18m70-22.5c-4 6-10 9-17 5m1-78.5c2 14-5 29-19 32m309-2c9-4 16-12 19-20.6m15 94.6c-3 6-10 10.5-15 6"/></g><circle cx="550" cy="550" r="500" style="fill:none;stroke:#000;stroke-width:10;stroke-linecap:round;stroke-linejoin:round;stroke-miterlimit:10"/></svg>