<svg version="1.1" id="Layer_1" xmlns="http://www.w3.org/2000/svg" x="0" y="0" viewBox="0 0 1100 1100" style="enable-background:new 0 0 1100 1100" xml:space="preserve" xmlns:xlink="http://www.w3.org/1999/xlink"><path d="M178 220c12 65 96 58 145 73.5 105 33 142 205 259 198C924 471 815 683 999 767.1c15-28 26-58 33.5-90.2-31 3-79-25-64-57 10-21.5 46-65-1-68.6-76-5-19-57 20-25.1 17 14 36 45 61.5 34.6 2-44-3-88-15-130.9-81.5 19-124.5-85-198-73.9-67 9.8-153.5 76-213 17.9-17-29 11-63 40.7-65.6 56-4 58-66 15-89.6-75-31-86 59.7-139.6 65.5-123 14-57.5-169-166.5-203.5C298 111 231 159 178 220zm801 586.7c-21-28-62-29-98-28.2C662 798 654 538 448 609.3 196 697 219 565 51 563.5c2 61 14 122 38 179.5 114-52 156 24 253 38.9C542 812 530.5 662 713 919.2c25 28 55 58 95 58C879.5 939 935 876 979 806.7zM534.5 1050c-15-83-150-33.5-235-128.4-62-70-75-22-110.9-26.1C277 988 402.5 1045 534.5 1050z" style="fill:#430f70"/><path d="M533 208.9c-68 59.6-71 20-121 36.5-19.6 10.9-14 30-9.7 39.6 11 23-51 9-69 40.3-10 18 .1 42-7.5 61.8-9 19.6-34 35-37 52.2-43 48-154 7-119 70.4 6 11 33-6 39 9.1 7 17.5-39 29-21 46.7 18 5 21 39.9 57 63.2 14 20 3 51 19 69.1 35.8 38 46-25 41-34.3 4-39 44-11 22 38.7-23 52 11 74 36.5 56.6 38.5-10.5-14 99.9 89.9 62.9 18 1 28 22 29.8 40.3 6.5 63 54 46 59 8 15.5-34 45 49 47 59.9 11 73 69 42 71 17.9 3-54-3-60.1 2-68.3 18.5-31 71 13 90.8-15.5 14-19.7-31-63.5 8-55.4 94 19 19-101 14-120.4-9-35.5 14-106 47-121.7 18-9 17-35.5 7-52.8-9.5-17-25-30.6-31-48.9-13.5-54 22-102-36-133.3-5-3-7-9.5-4-14.4 17-26 1-66-32-71.4-22-3-44 9-66.5 6.3-43.3-5-79.7-74-126.3-43.1z" style="fill:#6e6e6e"/><path d="M551 531.2c-4 3-8-6-7-10.6 4-11 19.9-5 21 5.1 2 20.5-29 26-35 8.3-21-61 99.7-54 64 5.1-54 90.6-144-47-56-74.4 130.8-41 127 189-29.6 124.6-72-29.7-55-145 2-180.5 135-85 249 165 93 228.2-143 57.5-250.6-133-173-249.8 107-159.7 406.5-57 311 228.4-70.5 210.6-543 143-434-182.1C352 299 516 201 654 250.8c30 0 126.5-31 113 52-33 55 26 7 31 79.3 0 86-26 50 41 148 9 23-7 48-33 45.2-1 40-60 47-9 153.5 38 78-20 102-49.7 72.9-8 15.5 47 92.5-37 69.6-30-10.8-57 1-48 35.8 19 70.6-30 79.7-53 58.5-28-26-21-98-63-99.5 8 29.8-35 59-54 29.1-11-24-6-70-35-79.2 42-25 95-13 141-23.5C757 756 824 534.5 761 388.2c-64-146-280.5-139-361-10.4-65 104-36 285 99 311.6 252 49.5 279.7-339.5 82-329-188 9.9-179 317 14 246.8 76-28 70.5-116 2-162.2-61-41-141 47-97 103.9 65 85 178.5-53 64-70-52-8-65.5 82-9.8 75.2 11-1 21-12 22-23.1 2-29.7-43-31-38-.8 2 11 19.5 14 21 1.8-.2-5-1.2-6.2-8.2-.8z" style="fill:#d9d9d9"/><style>.st40{fill:none;stroke:#000;stroke-width:10;stroke-linecap:round;stroke-linejoin:round;stroke-miterlimit:10}.st98{opacity:.6;enable-background:new}</style><g id="Outline"><path class="st98" d="M793 537c-1 .7-1 2-.5 3 5 10 11 35 25 30 8-2 21-13 18-22.4-.5-1-2-2-3-1.5-26 12-28-11-39-9.4v.3zm-34 274.5c6 5 26 8 25-3-6-7-20.6-12-21.5-26C750 772 744 803 759 811.5zm-219.3 52s1 .5 1 .8c9 13.5-3 36-18 40-34 6-9-6-6-44 .3-5.3 22.3 2.7 23 3.2zM342 731c5 7-4 22-4 33 8 13 29.6-5 33-14.9 2-12-17-21-28-20.2-1 .1-1 1.1-1 2.1zm31-120.2c2 23-8 47-26 61.9-13 10.9-17.5-30.6-8-27.9 6 4.2 28-18.8 34-34zm-157-59.9c-8 6-17 3-25 1-11 5 4 20 13.5 16 5-4 12-9 12-15.7-.5-.2-1.5-.2-.5-1.3zM337 473c-6-10-3-23 0-34 0-1 0-2-.6-2-9-9-23 11-19.8 20.7C318 463 338 475 337 472.8v.2z"/><path class="st98" d="M326 392c-2 29 24 45 7 44-7 2-14 1-15 11-1 11-24 0-24.5-1.3C285 433 317 404.5 326 392zm103-118c-9.9-4-16-16-18-25-4-6-9.9 1-11 6-7 54 29.5 28 29 19zm293 9c16 21 29.5 12 40 20.7 3 4 1 9.6-1 14-3 9-13 9-20 4.1-14.5-5.8-22-22.2-19-38.8z"/><path class="st40" d="M347 729c53.5 5 15 86 59 102 25 9 37-19.8 55-11.9 23 10.1 19.6 40 24 60.7 9.6 46 63 29.6 58-12.8"/><path class="st40" d="M519 861c89-9 47.5 119 114.5 115 39-6 35-47 25-76.5-3-9 0-18.5 7-24.5 24.5-21 59 15.5 84-2.5 15-11 8-33-2-45-12-15 0-32 10-43"/><path class="st40" d="M790 539c53 69.8-64 71 8 194.5 6 14 11 32 11 48.5 0 32-49 47.5-61 16"/><path class="st40" d="M721 287c2 51 64 31 74 88 6 34-11.5 71 7 103 10 18 27 31.5 34 51 8 19-4 47-27 42"/><path class="st40" d="M407 290.6c-16-8-12-29.9-2-41 17-15 40.5-10 61-6 29.8 1 49-29 75-38 50-17 81 55 133 44 23-5 48-11 69 1 25 14 33 55 10 75"/><path class="st40" d="M428 278c-16 26.5-51 17.5-76 28.5-20 10.5-28 33-23 55 10 47-43 51-39 88m25 4.5c1.5-23 35-26 41-5 7 25-13 47 16 72"/><path class="st40" d="M334 476c-20-34-61-31.5-89-9.6-20 8-43-3-64 4-22 7-28 37-5 43.5 6.5 2 23-2 26-1 15 4 11 25-5 30-21 6-10 29 6 29"/><path class="st40" d="M216 554.5c-15 15-14 41 2 55 37 22 41 31 36 69.7-2 31 46 41 53.5 10 2-10.8-4-22 0-33 13-32 44 20 62-44.5"/><path class="st40" d="M327 647.9c25 29.7-.5 47-7 75-10 32.5 34 65 53 25"/><path d="M729 262.5c9 4 16 13 18 22.5m-193-68c12.5 2 24.5 8 34 16m9 9 3 3m-163 10c-5.5-.9-12 .6-15.5 4M362 319.6c-9 2-14 10.7-16 19M339 449c4 1 6 6 6 9.8M308.5 470c-12-6-16-5-22-4M175 492c1-4 5-7 9-7.5m38 89.5c-4 8 0 16 4 19.9m44 78.6c-1 6 1 15 9 18m76-77.5c-3 14-13 14.5-16 16m4.5 119.5c-5-3-9-9-8-15M397 782c-1 14.5 7 28 14 30m90 53.9c-3 12 2 27 14.5 25M636 957c14-3 17-28 11-38m96-60.1c1-7 0-14-4-19m46-49.1c8-6.5 9-25 3-39M786 582c5-8 3-19-3-26m37-12c2-8.5-.6-18-7-24m-56-169c18 6 22 30 21 35" style="opacity:.7882;fill:none;stroke:#fff;stroke-width:10;stroke-linecap:round;stroke-linejoin:round;stroke-miterlimit:10;enable-background:new"/></g><radialGradient id="a14" cx="290.798" cy="544.048" r="35.638" gradientTransform="matrix(1.0835 0 0 1.2069 -20.488 -120.931)" gradientUnits="userSpaceOnUse"><stop offset="0" style="stop-color:#ffe100"/><stop offset="1" style="stop-color:#f70"/></radialGradient><path style="fill:url(#a14)" d="M294.5 494.1 255 568.3l79.5 8.9z"/><path style="opacity:.451;fill:#fff" d="m283 520.1 22 51.8 26 2.4-37-76.5"/><path style="fill:none;stroke:#000;stroke-width:10;stroke-linecap:round;stroke-linejoin:round;stroke-miterlimit:10" d="M294.5 494.1 255 568.3l79.5 8.9z"/><path d="M289 492.2c-16 29-29.8 52-44 79.8l88 12.5" style="opacity:.6;fill:none;stroke:#000;stroke-width:10;stroke-linecap:round;stroke-linejoin:round;stroke-miterlimit:10"/><path d="M294 524.9c2.5 5 5 9.5 6 14.5m6 14.6 2 4" style="opacity:.749;fill:none;stroke:#fff;stroke-width:10;stroke-linecap:round;stroke-linejoin:round;stroke-miterlimit:10"/><style>.st40{fill:none;stroke:#000;stroke-width:10;stroke-linecap:round;stroke-linejoin:round;stroke-miterlimit:10}</style><g id="Buck_Teeth"><path d="M408 710c-35-29 16.5-71 37-38m262 13c26-29 68 8 43 37m-273 57.8c55 36 130 42 191 15.5M440 698c14 16 34 28.5 53 38m80 23c12 1 24 1 36 1m103-46c-7 7-15 13-22 19.5" style="opacity:.6;enable-background:new;fill:none;stroke:#000;stroke-width:10;stroke-linecap:round;stroke-linejoin:round;stroke-miterlimit:10"/><linearGradient id="SVGID_00000144308631695432882570000007628677700832790193_" gradientUnits="userSpaceOnUse" x1="615" y1="365.37" x2="685.95" y2="365.37" gradientTransform="matrix(1 0 0 -1 0 1100)"><stop offset="0" style="stop-color:#ff0378"/><stop offset="1" style="stop-color:#ff8903"/></linearGradient><path style="fill:url(#SVGID_00000144308631695432882570000007628677700832790193_)" d="M616 768c16-5 68-13 69.9-32.3C692 706 606.5 663 616 768z"/><linearGradient id="SVGID_00000051372725403280898550000008547425539188560257_" gradientUnits="userSpaceOnUse" x1="495" y1="367.694" x2="569" y2="367.694" gradientTransform="matrix(1 0 0 -1 0 1100)"><stop offset="0" style="stop-color:#ff0378"/><stop offset="1" style="stop-color:#ff8903"/></linearGradient><path style="fill:url(#SVGID_00000051372725403280898550000008547425539188560257_)" d="M496 744.4c14 4 68 35 73 12 0-78-60-68-73-12.4v.4z"/><path d="M512 713c3 27 29 43 54 46-2 1 .5 5-2 6.5s-106-5.6-52-52.5zm106 21.5c19.6 31 57.5-1 67 5 2 13.5-97 59.5-67-5z" style="opacity:.6;enable-background:new"/><path class="st40" d="M435 702c67 74 213 98 282 15m-10-31c27-19 56 5.5 43 36m-342-12c-20-26 7-62 37-38"/><path class="st40" d="M495 743c8-59.8 88-63 74 22m46 2c-15-59.8 55-101 72-26m-210 35c58 29 129 45 189.6 15"/><path d="M544 716c5 4 8 9 9 15m3 18v-5m95-29.1c6 0 12 3 15 8m6 14.1c0-1-.7-2-1-3m-205 11c59 40 138 51 209.8 21.5M714 697c6.5-3 15.5-4 21 1m-320-11c0-7 8-13 15-8" style="fill:none;stroke:#fff;stroke-width:10;stroke-linecap:round;stroke-linejoin:round;stroke-miterlimit:10"/></g><defs><linearGradient id="axe" x1="503.59" y1="455.12" x2="514" y2="579.96" gradientUnits="userSpaceOnUse"><stop offset="0" stop-color="#00ffe1"/><stop offset="1" stop-color="#001eff"/></linearGradient><linearGradient id="axe-2" x1="666.66" y1="438.52" x2="689.84" y2="583.76" gradientUnits="userSpaceOnUse"><stop offset="0" stop-color="#ff001e"/><stop offset=".12" stop-color="#ff131c"/><stop offset=".35" stop-color="#ff4315"/><stop offset=".68" stop-color="#ff900b"/><stop offset="1" stop-color="#ffe100"/></linearGradient><style>.axe-2,.axe-3{fill:none;stroke:#000;stroke-linecap:round;stroke-linejoin:round;stroke-width:10px}.axe-3{opacity:.6}</style></defs><path d="M358.8 447.6c26.7-17.9 58.8-13.6 88.6-7.6 27 5.4 49.5-11.1 71.8-23.3 20.6-11.4 44.7 1.2 38.7 22.4 0 0 43.9-12.2 84.7-26.1 11.4-3.9 35.6 3.2 60.9-8 37-16.4 60.7 20.5 56.9 55.6-4 36.8 15.7 35.5 20 50.3 2.9 10.3-7 20.9-17.4 18.4 0 0 33.6 62.6-10.6 52.4-40.8-9.4-50.6 21.8-98.6 18.2-22.5-1.7-64.7 64.1-61.8 3.7 0 0-4.9-3.7-43.7 6.9-32.6 8.9-31.3-16.7-75.3-9-33.5 5.9-25.5-37.8-57.5-36.6l12.6 4.3c2.2 33.7-37.3 27.7-36.7-4.1 2.5-19 9.1-38 7.9-57.2-11.9-8.1-26.4-9.1-40.5-9.7-3-16.7-1.2-33.4 0-50.6Z" style="fill:#fff"/><path class="axe-2" d="M314.8 454c1.5-23.1 35.3-26.3 41.4-5 7.1 24.8-12.6 46.8 16.2 72.4m-13.6-73.8c26.7-17.9 58.8-13.6 88.6-7.6 27 5.4 49.5-11.1 71.8-23.3 20.6-11.4 45.5-2.4 38.7 20.2"/><path class="axe-2" d="M541.6 437.1c49.3 12.9 61.3-24.6 101-24.1 26.3.4 35.6 3.2 60.9-8 37-16.4 60.7 20.5 56.9 55.6-4 36.8 15.7 35.5 20 50.3 2.9 10.3-7 20.9-17.4 18.4"/><path class="axe-2" d="M758.9 515.3c-1.8 17.2 14.3 28.9 16.7 44.4 2 13.2-7.4 25.6-23.2 22-40.8-9.4-51.2 26.4-98.6 18.2-22.8-3.9-25.3 25.9-45.9 28.7-13.6 1.9-26-14-15.9-25"/><path class="axe-2" d="M606.6 603.5c-28.6-10.2-35.2 9.2-60.1 9.3-33.7 0-29.5-19-73.5-11.3-33.5 5.9-25.5-37.8-57.5-36.6"/><path class="axe-2" d="M391.7 477.1c20 36.3-.2 54.7-.6 88.4-.3 31.4 39.2 37.4 37 3.7"/><path class="axe-2" d="M399.4 508.2a40.6 40.6 0 0 0-39.7-5.7"/><path class="axe-3" d="M541.6 437.1c8.1-.1 14.6-7.8 14.2-15.9m-164.1 55.9c2.1 7.9 2.6 17-3 22.6m26.8 65.2c10.5 5.3 7.5 17.8 0 25.2m191.1 13.4c-9.2-.8-15.3 9-14.8 17.4m167.1-105.6c3 7.2 9.7 11.4 17.3 9.3m-413.9-75.7c6.7 15.1-2.7 32.3 1.5 47.9m.6 8.6c10.5.3 21.5-.2 29.7 8-3.3 19.3-12.7 39.8-7.7 59.4 2.6 10.6 12.1 22.3 24.2 19.2"/><path class="axe-3" d="M431.1 577.2c13.5 27.7 27.8 32.6 58.6 29.6 42.9-4.1 39.9 25.2 92.8 1.9-.9 13.7 11.6 27.5 25.4 20.1m26.6-19c33.2-9.5 35.3 11 80.7-17.5 22.7-14.3 46.1 5.1 58-18.1"/><path d="M446.5 532.3c15.9 12.4 12.9 45.3 59.3 21.3 13-6.7 27.9 7.8 41.8 12.2 24.3 10.5 46.2-15.1 31.4-36.7-7-10.3-9.6-21.2-7.5-33.4 2.9-17.2-16.1-36.6-32.1-27-44.4 26.8-51.7-10.5-77.4 1.4-15.2 7-41.7 41.9-15.5 62.2Z" style="fill:url(#axe);stroke-linecap:round;stroke-linejoin:round;stroke-width:10px;stroke:#000"/><path d="M615.6 483.2c1.5 9.9 12.5 19.3 12.5 34 0 71.8 26.9 19.3 85.6 34.9 18.7 5 31.1-22.3 21.5-38.4-25.1-41.8-8.3-51.5-26.2-61.5-21-11.7-40.2 11.8-60.4 11-11.7-.4-36.9-6.1-33 20Z" style="fill:url(#axe-2);stroke-linecap:round;stroke-linejoin:round;stroke-width:10px;stroke:#000"/><path class="axe-3" d="M440.3 490.6c-17.5 17.6-8 35.8 10.4 51.1 7.3 6.1 7.2 18.1 15.2 23.2 14.7 9.3 30-3.8 44.4-6.7 20.3-4.1 47.3 30.7 63.2 5.3m40.8-91.2c-4.9 11.3 2 21.8 5.5 32.6 11.7 35.7-5.6 70.2 48.7 52.7 22.6-7.4 42.8 5.6 54-5.3"/><path d="M549.9 479.1a17.2 17.2 0 0 1 6.3 12.2m1.2 12.1-.4 2.7m-87.7-24.3c-8.3 4.4-15.4 11.8-17.7 20.9m-2.6 13.5v1.8m121.2 26.3a16 16 0 0 1-14.6 10.3m142.8-93.5c5.5 2.8 8.1 9.2 8.9 15.2m2.5 11.8.6 2.8m16.8 36.7a18.3 18.3 0 0 1-5.4 11.2m-94.1-63.7c-1.1 4.7 1 8.9 3.4 12.7m12.1 56.1c-3-3.6-3.4-8.6-3.4-13.1" style="stroke:#fff;opacity:.74;stroke-linecap:round;stroke-linejoin:round;stroke-width:10px;fill:none"/><path d="M447 489a656.4 656.4 0 0 1 50.1 42.7l1.3-16.6s62.4 50.9 62.6 51.2c9.2-.5 18.2-6.2 20.9-15.5l-90.3-56.4-4.5 11.4-29.3-30.2M617.2 489l54.4 32.3-5.6-16.1s64 39.4 64.9 39.4c5.8-1.9 7.6-10.9 7.5-16.4l-82-38.4v10l-39.2-27.1" style="opacity:.28;fill:#fff"/><path class="axe-2" d="M446.5 532.3c15.9 12.4 12.9 45.3 59.3 21.3 13-6.7 27.9 7.8 41.8 12.2 24.3 10.5 46.2-15.1 31.4-36.7-7-10.3-9.6-21.2-7.5-33.4 2.9-17.2-16.1-36.6-32.1-27-44.4 26.8-51.7-10.5-77.4 1.4-15.2 7-41.7 41.9-15.5 62.2Zm169.1-49.1c1.5 9.9 12.5 19.3 12.5 34 0 71.8 26.9 19.3 85.6 34.9 18.7 5 31.1-22.3 21.5-38.4-25.1-41.8-8.3-51.5-26.2-61.5-21-11.7-40.2 11.8-60.4 11-11.7-.4-36.9-6.1-33 20Z"/><defs><style>.zbh-2{fill:none;stroke-linecap:round;stroke-linejoin:round;stroke-width:10px;stroke:#000}</style></defs><path d="M357.3 453.9c38.6 2 75-22.4 99.5-51.8 36 15 77.1 7.7 106.9-18.6 35.3 9.6 78.1 10 106.7-15.6 25.8 8.2 55.4 3.6 78.2-11.2 13.7 7.9 29.3 12.5 44.9 14.4 5 9.7 2.2 21.7 5.1 32 50.5-20.7 54.9-96.4 15.3-130.4-7.4-53-59.9-90.3-113.1-79-39.7-40.8-96.6-35.9-143.6-10-45.6-24.8-82-17.6-121.6 13.4-60.9-16.5-119.9 24.2-131.3 85.2-41.6 3.5-71.1 47.4-52 86.8-20.1 26.5-28.6 64.7-11.7 94.9 21.9-13 47.9-18.8 72.3-10.7 6.9-22.4 39.3-25 44.4.6Z" style="fill:#ff5e00"/><path class="zbh-2" d="M466.3 372.6c-3.4 44.7-65.7 83.2-107.4 81.6"/><path class="zbh-2" d="M560.5 384.4c-22.9 29.9-69.5 29.2-103.3 19m221.1-46c-31 42.4-94.7 40.2-135.4 13.1m127.1-1.6c33.4 10.4 71.9-.9 94.4-27.6"/><path class="zbh-2" d="M748.3 356.8a85.4 85.4 0 0 0 60.1 10.5"/><path class="zbh-2" d="M790.5 266.1c66.3 11.6 64.4 116.9 4.8 138.1a71.2 71.2 0 0 0-1.3-33.4"/><path class="zbh-2" d="M814.8 273.6c-3.9-60.2-83-106.3-133.9-67.8"/><path class="zbh-2" d="M701.8 194.1c-38.8-43.6-112.8-43.2-151.2.7"/><path class="zbh-2" d="M560.5 185.1c-49.9-31.6-113.8-14.7-133 31.8"/><path class="zbh-2" d="M436.8 197.2c-64.9-20.9-136.3 34.6-132.1 102.7"/><path class="zbh-2" d="M305.3 282.9c-44.3-2.7-69.9 49.5-53.2 87.4"/><path class="zbh-2" d="M274.8 360.1c-44 10.4-55 70-34.1 107.1 23.1-14.5 45.6-24.2 74.4-12.4.4-24.3 39.2-28.5 42.2-.6"/><path d="M797.1 281.9a35.6 35.6 0 0 1 20.7 20.6m3.9 11.6a16.8 16.8 0 0 1 .9 3.2M754.7 211a55.5 55.5 0 0 0-32.2-6.7m-12 2.5-3.4.9M627 175.3a90.3 90.3 0 0 0-34.4 6.9m-10.7 6-3.2 1.8m-86.6-6.8a52.9 52.9 0 0 0-28.4 11.8m-10.9 9.7-4.6 4m-87.1 12.8a85.4 85.4 0 0 0-23.8 22.2m-6.6 10.5-1.6 2m-64.3 67.4a50.4 50.4 0 0 0-5 19.8m-9.6 56.7a61.4 61.4 0 0 0-5 27.7m199.7-37.7a89.2 89.2 0 0 1-30.5 28.7m-11.9 6.2-4.9 1.9M538.3 388a56.5 56.5 0 0 1-22.7 6.5m-11.9.5-2.4-.1m157.3-36a81.4 81.4 0 0 1-47.3 15.3m-14.4-1.3-2.6-.2m125.2-16.1a77.1 77.1 0 0 0 23-12.2m-39.2 15.4 3.2-.3m74.4-4.5a39.9 39.9 0 0 0 14.6 1.2" style="stroke:#fff;fill:none;stroke-linecap:round;stroke-linejoin:round;stroke-width:10px"/><path d="M360.3 462.6c37.6-2.2 73.7-20.9 98-49.9 37.5 8.6 78.6 5.9 108.2-22.4 34.9 13.6 76 7.5 106.4-15.1 25.1 7.9 53.7 3.4 76.1-11.6a72.5 72.5 0 0 0 41.9 12.1" style="opacity:.6;stroke:#000;fill:none;stroke-linecap:round;stroke-linejoin:round;stroke-width:10px"/><path d="M812.6 368.9a69.1 69.1 0 0 1-14.2 31.4c.3-10.1.6-20.3-2.6-29.8m-9.2-106.3c6.4-11.8 9.6-26.3 4.6-39.1 7 1.3 21.6 27.2 21.9 47.7m-136.5-68a47.1 47.1 0 0 0-9.2-33.9c13 3.6 26.1 12 33.5 23.2m-153.7 2.4A43.3 43.3 0 0 0 525 173c11.6 2.9 23.8 6.1 32.7 14.1m-133.8 31.8c-5.5-13.7-20-21.2-33.9-23.8 14.4-2 34.6-2.2 45.7 4.5m-133 103.3c-13.1-5.1-31.4-3.5-42.7 4.8 11.3-12.8 26.9-24 44.6-23.5m166.5 87.1a45.8 45.8 0 0 0 17.7 37c-9.7-4.3-20.6-2.4-30.6-4.9m224.7-46.9c.5 5.6 2.9 11.6 8.2 14.3a116.8 116.8 0 0 1-16.7-4.3m94.9-24.6c-1.5 8 1 18.5 7.2 23.8-8-4.5-18.5-2.5-25.5-8.9" style="opacity:.6"/><circle cx="550" cy="550" r="500" style="fill:none;stroke:#000;stroke-width:10;stroke-linecap:round;stroke-linejoin:round;stroke-miterlimit:10"/></svg>