<svg version="1.1" id="Layer_1" xmlns="http://www.w3.org/2000/svg" x="0" y="0" viewBox="0 0 1100 1100" style="enable-background:new 0 0 1100 1100" xml:space="preserve" xmlns:xlink="http://www.w3.org/1999/xlink"><style type="text/css">.st300{fill:#00DE72;stroke:#000000;stroke-width:10;stroke-linecap:round;stroke-linejoin:round;stroke-miterlimit:10;}</style><circle class="st300" cx="550" cy="553.7" r="500"/><path d="M533 208.9c-68 59.6-71 20-121 36.5-19.6 10.9-14 30-9.7 39.6 11 23-51 9-69 40.3-10 18 .1 42-7.5 61.8-9 19.6-34 35-37 52.2-43 48-154 7-119 70.4 6 11 33-6 39 9.1 7 17.5-39 29-21 46.7 18 5 21 39.9 57 63.2 14 20 3 51 19 69.1 35.8 38 46-25 41-34.3 4-39 44-11 22 38.7-23 52 11 74 36.5 56.6 38.5-10.5-14 99.9 89.9 62.9 18 1 28 22 29.8 40.3 6.5 63 54 46 59 8 15.5-34 45 49 47 59.9 11 73 69 42 71 17.9 3-54-3-60.1 2-68.3 18.5-31 71 13 90.8-15.5 14-19.7-31-63.5 8-55.4 94 19 19-101 14-120.4-9-35.5 14-106 47-121.7 18-9 17-35.5 7-52.8-9.5-17-25-30.6-31-48.9-13.5-54 22-102-36-133.3-5-3-7-9.5-4-14.4 17-26 1-66-32-71.4-22-3-44 9-66.5 6.3-43.3-5-79.7-74-126.3-43.1z" style="fill:#6e6e6e"/><path d="M551 531.2c-4 3-8-6-7-10.6 4-11 19.9-5 21 5.1 2 20.5-29 26-35 8.3-21-61 99.7-54 64 5.1-54 90.6-144-47-56-74.4 130.8-41 127 189-29.6 124.6-72-29.7-55-145 2-180.5 135-85 249 165 93 228.2-143 57.5-250.6-133-173-249.8 107-159.7 406.5-57 311 228.4-70.5 210.6-543 143-434-182.1C352 299 516 201 654 250.8c30 0 126.5-31 113 52-33 55 26 7 31 79.3 0 86-26 50 41 148 9 23-7 48-33 45.2-1 40-60 47-9 153.5 38 78-20 102-49.7 72.9-8 15.5 47 92.5-37 69.6-30-10.8-57 1-48 35.8 19 70.6-30 79.7-53 58.5-28-26-21-98-63-99.5 8 29.8-35 59-54 29.1-11-24-6-70-35-79.2 42-25 95-13 141-23.5C757 756 824 534.5 761 388.2c-64-146-280.5-139-361-10.4-65 104-36 285 99 311.6 252 49.5 279.7-339.5 82-329-188 9.9-179 317 14 246.8 76-28 70.5-116 2-162.2-61-41-141 47-97 103.9 65 85 178.5-53 64-70-52-8-65.5 82-9.8 75.2 11-1 21-12 22-23.1 2-29.7-43-31-38-.8 2 11 19.5 14 21 1.8-.2-5-1.2-6.2-8.2-.8z" style="fill:#d9d9d9"/><style>.st40{fill:none;stroke:#000;stroke-width:10;stroke-linecap:round;stroke-linejoin:round;stroke-miterlimit:10}.st98{opacity:.6;enable-background:new}</style><g id="Outline"><path class="st98" d="M793 537c-1 .7-1 2-.5 3 5 10 11 35 25 30 8-2 21-13 18-22.4-.5-1-2-2-3-1.5-26 12-28-11-39-9.4v.3zm-34 274.5c6 5 26 8 25-3-6-7-20.6-12-21.5-26C750 772 744 803 759 811.5zm-219.3 52s1 .5 1 .8c9 13.5-3 36-18 40-34 6-9-6-6-44 .3-5.3 22.3 2.7 23 3.2zM342 731c5 7-4 22-4 33 8 13 29.6-5 33-14.9 2-12-17-21-28-20.2-1 .1-1 1.1-1 2.1zm31-120.2c2 23-8 47-26 61.9-13 10.9-17.5-30.6-8-27.9 6 4.2 28-18.8 34-34zm-157-59.9c-8 6-17 3-25 1-11 5 4 20 13.5 16 5-4 12-9 12-15.7-.5-.2-1.5-.2-.5-1.3zM337 473c-6-10-3-23 0-34 0-1 0-2-.6-2-9-9-23 11-19.8 20.7C318 463 338 475 337 472.8v.2z"/><path class="st98" d="M326 392c-2 29 24 45 7 44-7 2-14 1-15 11-1 11-24 0-24.5-1.3C285 433 317 404.5 326 392zm103-118c-9.9-4-16-16-18-25-4-6-9.9 1-11 6-7 54 29.5 28 29 19zm293 9c16 21 29.5 12 40 20.7 3 4 1 9.6-1 14-3 9-13 9-20 4.1-14.5-5.8-22-22.2-19-38.8z"/><path class="st40" d="M347 729c53.5 5 15 86 59 102 25 9 37-19.8 55-11.9 23 10.1 19.6 40 24 60.7 9.6 46 63 29.6 58-12.8"/><path class="st40" d="M519 861c89-9 47.5 119 114.5 115 39-6 35-47 25-76.5-3-9 0-18.5 7-24.5 24.5-21 59 15.5 84-2.5 15-11 8-33-2-45-12-15 0-32 10-43"/><path class="st40" d="M790 539c53 69.8-64 71 8 194.5 6 14 11 32 11 48.5 0 32-49 47.5-61 16"/><path class="st40" d="M721 287c2 51 64 31 74 88 6 34-11.5 71 7 103 10 18 27 31.5 34 51 8 19-4 47-27 42"/><path class="st40" d="M407 290.6c-16-8-12-29.9-2-41 17-15 40.5-10 61-6 29.8 1 49-29 75-38 50-17 81 55 133 44 23-5 48-11 69 1 25 14 33 55 10 75"/><path class="st40" d="M428 278c-16 26.5-51 17.5-76 28.5-20 10.5-28 33-23 55 10 47-43 51-39 88m25 4.5c1.5-23 35-26 41-5 7 25-13 47 16 72"/><path class="st40" d="M334 476c-20-34-61-31.5-89-9.6-20 8-43-3-64 4-22 7-28 37-5 43.5 6.5 2 23-2 26-1 15 4 11 25-5 30-21 6-10 29 6 29"/><path class="st40" d="M216 554.5c-15 15-14 41 2 55 37 22 41 31 36 69.7-2 31 46 41 53.5 10 2-10.8-4-22 0-33 13-32 44 20 62-44.5"/><path class="st40" d="M327 647.9c25 29.7-.5 47-7 75-10 32.5 34 65 53 25"/><path d="M729 262.5c9 4 16 13 18 22.5m-193-68c12.5 2 24.5 8 34 16m9 9 3 3m-163 10c-5.5-.9-12 .6-15.5 4M362 319.6c-9 2-14 10.7-16 19M339 449c4 1 6 6 6 9.8M308.5 470c-12-6-16-5-22-4M175 492c1-4 5-7 9-7.5m38 89.5c-4 8 0 16 4 19.9m44 78.6c-1 6 1 15 9 18m76-77.5c-3 14-13 14.5-16 16m4.5 119.5c-5-3-9-9-8-15M397 782c-1 14.5 7 28 14 30m90 53.9c-3 12 2 27 14.5 25M636 957c14-3 17-28 11-38m96-60.1c1-7 0-14-4-19m46-49.1c8-6.5 9-25 3-39M786 582c5-8 3-19-3-26m37-12c2-8.5-.6-18-7-24m-56-169c18 6 22 30 21 35" style="opacity:.7882;fill:none;stroke:#fff;stroke-width:10;stroke-linecap:round;stroke-linejoin:round;stroke-miterlimit:10;enable-background:new"/></g><linearGradient id="a12" gradientUnits="userSpaceOnUse" x1="234.425" y1="-533.764" x2="348.416" y2="-471.769" gradientTransform="translate(0 1066)"><stop offset="0" style="stop-color:#e0f"/><stop offset=".098" style="stop-color:#e002ff"/><stop offset=".286" style="stop-color:#ba07ff"/><stop offset=".543" style="stop-color:#7c0eff"/><stop offset=".857" style="stop-color:#2919ff"/><stop offset="1" style="stop-color:#001eff"/></linearGradient><path style="fill:url(#a12)" d="M329 545.2c-2-47-53-63-76-27-7 11-9 27-1 38 5.8 8 15 12 19 21 5 13-6 28 0 39.9 16 22 43-1.5 35-25-14.5-31.1 24-18.1 23-47.1v.2z"/><path d="M264 506c-18 25 30 88 55 57.9 22.5-21 3-59-24.5-63.3-10.5-2-23.5-4-30.5 5.2v.2z" style="opacity:.3412;fill:#fff;enable-background:new"/><path d="M329 545c-1.5-47-53-63-76-27-7 11-9 27-1 38 5.8 8 15 12 19 21.4 5 13-6 28 0 39.9 16 22 43-1.5 35-25-14.5-31.3 24-18.3 23-47.3z" style="fill:none;stroke:#000;stroke-width:10;stroke-linecap:round;stroke-linejoin:round;stroke-miterlimit:10"/><path d="M262 503c-19 13-29.7 41-14 60.5 5 6 12 10 16 17 5.5 12-3 28 3.5 39.5 4 7 13 9.8 19.7 7" style="opacity:.6;fill:none;stroke:#000;stroke-width:10;stroke-linecap:round;stroke-linejoin:round;stroke-miterlimit:10;enable-background:new"/><path d="M295.5 515c7 4 12 9.6 16 16m3.5 12c.5 1 1 2 1 3" style="fill:none;stroke:#fff;stroke-width:10;stroke-linecap:round;stroke-linejoin:round;stroke-miterlimit:10"/><style>.st40,.st68{fill:none;stroke-width:10;stroke-linecap:round;stroke-linejoin:round;stroke-miterlimit:10;stroke:#000}.st68{opacity:.6;enable-background:new}</style><g id="Mmmm"><path class="st40" d="M506 744c55 21 117 25 173 5m-182 30c-52-25-58-74 10.9-72"/><path class="st40" d="M663 713c79-11 91 46 19 76"/><path class="st68" d="M506 702c-76-9.9-68 67-11 79m10-33c56 22 120.5 31 176 5.5"/><path class="st68" d="M664.5 709.8c46-15 125 29.7 21 83"/><path d="M676 724c10-1 21 0 30 5m9 6 1 1m-220-15.2c-8 .6-16 3-21 9" style="fill:none;stroke:#fff;stroke-width:10;stroke-linecap:round;stroke-linejoin:round;stroke-miterlimit:10"/></g><style>.st16,.st40,.st68{fill:none;stroke:#fff;stroke-width:10;stroke-linecap:round;stroke-linejoin:round;stroke-miterlimit:10}.st40,.st68{stroke:#000}.st68{opacity:.6;enable-background:new}</style><g id="visor"><path class="st68" d="M425 452.5c-10 10-4 21-3 34 1 17.5-25 17-23 50.8 2 14 13.5 16 23 23.7 16 13-12 46.5 10.5 59 28 9 30-39 60.5-13 35 26 45-3 76-1 14 3 23 19.6 37 17.6 15-2 18-20 26-30.7 12-16 32 5 58-7 14-7 10.8-31 27-33 10-1 22-7 25-17.8 1-4 .7-9 3-11.9 3-4 9-5 11-9"/><path class="st68" d="M483 474c-28 10-52 59-14 72m214-104.1c32-1 53 43 26 64m-216 .1c-38 74 159 54 184 5"/><path d="M667 467c-60.6-40.6-281 59-113 83.5 33 5 185.5-41 113-83.9v.4z" style="fill:#fff"/><linearGradient id="SVGID_00000094605671738681660570000007936507584095639945_" gradientUnits="userSpaceOnUse" x1="531.586" y1="652.528" x2="653.586" y2="545.528" gradientTransform="matrix(1 0 0 -1 0 1100)"><stop offset="0" style="stop-color:#7b00ff"/><stop offset="1" style="stop-color:#ff0084"/></linearGradient><path style="fill:url(#SVGID_00000094605671738681660570000007936507584095639945_)" d="M550 467.8c-14 18 11 55 13 77 5 7 19.7 5 25-2 12-19.9-19.5-44-2-62 34-18 16 44 33 54.9 14 3 24-5 18-20-3-15 7-32-2-46-17-26.7-57-6.7-85-1.9z"/><path class="st16" d="M616 472c4 3 6.5 7 7 12m1 11v3"/><path d="M589 509.6c-6 26 3 45 25 27.9 4-17.5-4-37.8-25-27.9z"/><path class="st40" d="M623 456c-34 1-67 9-98 22.5-39.6 17-51 50.7-3 66 40 13 129-5.8 157-37.4 27-31.1-23.5-52.1-56-51.1zm-138 18c-20 15.5-47 54-14 71m210-103.1c29 12 42 36.5 27 65"/><path class="st40" d="M548 470c-15 25 21 51 15 75m57-87c33.5 21 8 44.5 21 70m-51.3 15c6-24-26-55-1-64 30-4 16 42 30.5 58"/><path class="st40" d="M580 500c4 9 19.8 11 27 7"/><linearGradient id="SVGID_00000036223863161345539850000005378798673148752026_" gradientUnits="userSpaceOnUse" x1="447.777" y1="687.666" x2="720.78" y2="506.665" gradientTransform="matrix(1 0 0 -1 0 1100)"><stop offset="0" style="stop-color:#ff002b"/><stop offset="1" style="stop-color:#ffd500"/></linearGradient><path style="opacity:.6902;fill:url(#SVGID_00000036223863161345539850000005378798673148752026_);enable-background:new" d="M490 437.6c-27-5-59.5-2-69 27.5-2 8 6.5 14 8.5 23-13 13.5-31 37-21 56 17 16 28 12 22 41.3-4 12 0 36 16.5 28 24-20.5 25-38 55-9.8 36 21 42-28 89 4.9 5 3 10.5 7 16 5.2 5-1 9-7 10.9-11.5 19.7-55 51 4 78-31 18-41 36-9 44-50 9-8 22-7 24-22.2 3-23-25-35-31-54.5-6-26 13-63-29-63-42 9.6-31 58-93 33-71-35-61.4 34.5-120.9 23.1z"/><path class="st16" d="M713 395c6.5 2 9 9 9 15m-2 13v2m26.5 60c3 3 5 8 5 13m-183-80c6-3 13.5-1 19 2m12.4 4 2.1 1m-121.5 25c-7-1-15-1-22 0M726 523c1 4 0 8-2 11m-36 27.5c-2 4-4 9-9 10.6m-12-.1h-2m-56 21c-1 3-3.5 6-5.5 9M535 592c-4 4-10 5-16 5m-11-4-2-1m-65-1.3c-1.5 3-2 7-.5 10M427 513c-4 4-6 9-7 15m-.3 10.5.3 1.5"/><path class="st68" d="M737.5 501c3 7 11 11.5 19 10.6M449 464c-5 6-13 10.9-21 13"/><path class="st40" d="M449 464c-9 26-42 39-44 68-1 8 4 17 12 19 6.5 2 13 3 15 9.8 5 16-13 44 5.5 52 24 11 23-43 58-14 45 37 47-28 95 11 27 22 25-16 40.8-28.5 15-12 35 8 52 2 15-5 15-24 24-33 7-5 17-2 23-7 14-9.6 4-29.9 7-44"/><path class="st40" d="M431 486c-24-21 3-49.7 29.8-49.5 24-2 56 9.6 74-10 39-42 61-9.7 103-5.2 46.5 2 39-48.5 78-39.5 29 11 16 33 17 56 1 18 19 29.5 27 44.9 10 16 0 42.5-21 33"/></g><style>.st40,.st68{fill:none;stroke:#000;stroke-width:10;stroke-linecap:round;stroke-linejoin:round;stroke-miterlimit:10}.st68{opacity:.6;enable-background:new}</style><g id="Transmit"><linearGradient id="SVGID_00000127734904184448701060000009899486580737071243_" gradientUnits="userSpaceOnUse" x1="542.818" y1="876.092" x2="557.818" y2="742.092" gradientTransform="matrix(1 0 0 -1 0 1100)"><stop offset="0" style="stop-color:#00ffd0"/><stop offset=".104" style="stop-color:#00f3d3"/><stop offset=".293" style="stop-color:#00d2da"/><stop offset=".547" style="stop-color:#009de6"/><stop offset=".852" style="stop-color:#0055f7"/><stop offset="1" style="stop-color:#002fff"/></linearGradient><path style="fill:url(#SVGID_00000127734904184448701060000009899486580737071243_)" d="M549 237.6c-12 19-23 38.5-34 58.4l47 44.7 22-69.5-35-33.6z"/><linearGradient id="SVGID_00000150060648064343517610000006857265343630394550_" gradientUnits="userSpaceOnUse" x1="529.9" y1="863.989" x2="536.9" y2="798.989" gradientTransform="matrix(1 0 0 -1 0 1100)"><stop offset="0" style="stop-color:#00ffd0"/><stop offset=".104" style="stop-color:#00f3d3"/><stop offset=".293" style="stop-color:#00d2da"/><stop offset=".547" style="stop-color:#009de6"/><stop offset=".852" style="stop-color:#0055f7"/><stop offset="1" style="stop-color:#002fff"/></linearGradient><path style="fill:url(#SVGID_00000150060648064343517610000006857265343630394550_)" d="M548 241c2 2 1 10 5 49.3-11 1.5-25 4-35 5.4l30-54.7z"/><linearGradient id="SVGID_00000103974633343853836120000000367405727942247351_" gradientUnits="userSpaceOnUse" x1="584.31" y1="809.646" x2="552.31" y2="781.646" gradientTransform="matrix(1 0 0 -1 0 1100)"><stop offset="0" style="stop-color:#00ffd0"/><stop offset=".099" style="stop-color:#00f6d2"/><stop offset=".262" style="stop-color:#00ddd8"/><stop offset=".469" style="stop-color:#00b4e1"/><stop offset=".713" style="stop-color:#007bee"/><stop offset=".984" style="stop-color:#0034fe"/><stop offset="1" style="stop-color:#002fff"/></linearGradient><path style="fill:url(#SVGID_00000103974633343853836120000000367405727942247351_)" d="M554 290c2 18 4.5 31 6 48.5l19.6-50.9L554 290z"/><linearGradient id="SVGID_00000175290621592340520880000014853312583583039662_" gradientUnits="userSpaceOnUse" x1="562.39" y1="811.688" x2="530.39" y2="771.688" gradientTransform="matrix(1 0 0 -1 0 1100)"><stop offset="0" style="stop-color:#00ffd0"/><stop offset=".104" style="stop-color:#00f3d3"/><stop offset=".293" style="stop-color:#00d2da"/><stop offset=".547" style="stop-color:#009de6"/><stop offset=".852" style="stop-color:#0055f7"/><stop offset="1" style="stop-color:#002fff"/></linearGradient><path style="fill:url(#SVGID_00000175290621592340520880000014853312583583039662_)" d="M519 296c9.8-2 28-4 35-5.5l6 46.9-41-41.7v.3z"/><linearGradient id="SVGID_00000160910735292254152780000008448727389273966231_" gradientUnits="userSpaceOnUse" x1="675.74" y1="887.689" x2="552.74" y2="990.689" gradientTransform="matrix(1 0 0 -1 0 1100)"><stop offset="0" style="stop-color:#0400ff"/><stop offset=".214" style="stop-color:#0341f4"/><stop offset=".5" style="stop-color:#0291e6"/><stop offset=".736" style="stop-color:#01cddd"/><stop offset=".908" style="stop-color:#00f1d6"/><stop offset="1" style="stop-color:#00ffd4"/></linearGradient><path style="fill:url(#SVGID_00000160910735292254152780000008448727389273966231_)" d="M586 172.4c-7.5 37-17 73.5-29 109.3l106-92.1-26-7s89.7-97 89-97c-13.5-12-35-15-53-17.2l-34 71-8-24.8-30 73.5-15-16.1v.4z"/><linearGradient id="SVGID_00000022529941660613312940000016512510607446133916_" gradientUnits="userSpaceOnUse" x1="619.886" y1="971.899" x2="750.886" y2="823.899" gradientTransform="matrix(1 0 0 -1 0 1100)"><stop offset="0" style="stop-color:#0040ff"/><stop offset=".114" style="stop-color:#1f36ff"/><stop offset=".341" style="stop-color:#5823ff"/><stop offset=".55" style="stop-color:#8414ff"/><stop offset=".737" style="stop-color:#a409ff"/><stop offset=".893" style="stop-color:#b802ff"/><stop offset="1" style="stop-color:#bf00ff"/></linearGradient><path style="fill:url(#SVGID_00000022529941660613312940000016512510607446133916_)" d="M559.6 287.3c31-35 65-67 101-97.4l-26-8s94-97 95-96c5-1 9.8 1 14.5 3 29 12 57 26 81.5 44.3l-109 71.7 24 10-181 72.1v.3z"/><linearGradient id="SVGID_00000142898874918184540610000016770726687242683319_" gradientUnits="userSpaceOnUse" x1="686.196" y1="943.103" x2="766.196" y2="791.103" gradientTransform="matrix(1 0 0 -1 0 1100)"><stop offset="0" style="stop-color:#ff00e1"/><stop offset=".143" style="stop-color:#ea00e4"/><stop offset=".441" style="stop-color:#b200ed"/><stop offset=".864" style="stop-color:#5a00fa"/><stop offset="1" style="stop-color:#3c00ff"/></linearGradient><path style="fill:url(#SVGID_00000142898874918184540610000016770726687242683319_)" d="M567 287.3c47-2 93.5-6 139.9-11.8L688 256l118-11.4-24-20s105-43 104.5-44c-19-18-39.9-33.5-63-46.2l-107 70 21.5 10.1L567 287v.3z"/><path class="st40" d="m676 68.2-39 74-5-35-33 84.9-13-22.1-33 119.7 156-12.5-23-20.2 121-11.2-27-21.4 107-39.9"/><path class="st40" d="m554 289.3 111-100.9-31-6.6L729 84m94 49c-38 25-73 47-109 71.3l29 9.3-184 72"/><path class="st40" d="M562 250c-4-5-9-9.6-14-14.2l-33 60.4 47 48.5 18.5-55"/><path class="st68" d="M544 235c-15 23-24 39.5-37 62 0 0 54 52 55 52.9 9-19.9 18-39.9 26-59.9"/><path class="st68" d="M559 277c34-32 62.5-58 93-87.9l-25-6.2 93-100m99 45.1c-41 28-76 51-113 76.5l22.5 9.7-152 59"/></g><circle cx="550" cy="550" r="500" style="fill:none;stroke:#000;stroke-width:10;stroke-linecap:round;stroke-linejoin:round;stroke-miterlimit:10"/></svg>