<svg version="1.1" id="Layer_1" xmlns="http://www.w3.org/2000/svg" x="0" y="0" viewBox="0 0 1100 1100" style="enable-background:new 0 0 1100 1100" xml:space="preserve" xmlns:xlink="http://www.w3.org/1999/xlink"><style type="text/css">.st301{fill:#005BEF;stroke:#000000;stroke-width:10;stroke-linecap:round;stroke-linejoin:round;stroke-miterlimit:10;}</style><circle class="st301" cx="550" cy="553.7" r="500"/><defs><style>.zc-2,.zc-3{fill:none;stroke-linecap:round;stroke-linejoin:round;stroke-width:10px}.zc-2{stroke:#4a4a4a}.zc-3{stroke:#00ff37}</style></defs><g id="Layer_72" data-name="Layer 72"><path d="M531.7 209c-67.9 59.6-70.9 20.3-120.8 36.5-19.6 10.9-14.3 30.3-9.7 39.6 11.2 22.8-50.8 8.7-68.6 40.3-10.3 18.3.1 42.2-7.5 61.8s-33.8 34.7-36.8 52.2c-43.4 48.2-154 6.6-119.1 70.4 6.2 11.4 32.9-6.3 39.1 9.1 7 17.5-38.8 29.4-21.3 46.7 17.7 4.9 20.7 39.9 56.9 63.2 13.8 20 2.7 51.4 19.4 69.1 35.8 37.8 46.3-24.8 41.3-34.3 4.3-38.8 43.9-10.6 22.2 38.7-22.8 51.7 11.2 74 36.5 56.6 24-8.9 13.3 38.7 23.3 50.9 19.5 37.2 54.9 11.6 66.6 12 18.1.7 28 22.3 29.8 40.3 6.5 63 53.6 46.3 59.1 8 15.5-34.3 45.1 48.6 46.9 59.9 11.3 72.6 69.3 42 70.8 17.9 3.3-54.1-3.2-60.1 1.7-68.3 18.5-31.1 71 13.3 90.8-15.5 13.6-19.7-31.2-63.5 7.9-55.4 94 19.4 18.7-100.7 13.8-120.4-8.8-35.5 13.9-105.6 46.9-121.7 18.1-8.8 17.1-35.5 7.4-52.8s-24.9-30.6-31.4-48.9c-13.5-54.4 22.4-102.1-36-133.3a10.2 10.2 0 0 1-3.9-14.4c17.1-26.3 1.3-66.4-31.8-71.4-22.1-3.3-44.3 8.9-66.5 6.3-43.8-5.2-80.2-74.1-127-43.1Z" style="fill:#757575"/><path class="zc-2" d="M416.3 430.8c-7.8 85.7-9.7 162.5-14.6 245.2-15.1 6.6-15.8 30.7 1 32.6"/><path class="zc-2" d="M268.4 456.4q-1.3 51.9-5.7 103.6c86.9 6.2 172.1 5.7 258 12.8.8 15.4 20.6 16.8 27.6 6.3"/><path class="zc-2" d="M446 564.3c-2.2 48.2-4.3 96.5-.6 144.5l102.9 7.6"/><path class="zc-2" d="M504.2 793.2a1259.8 1259.8 0 0 1-4-130.1c-9.2-4.4-11.8-17.1-.3-22.8m-89 104.8-.1 83.7"/><path class="zc-2" d="M415.9 788.2c58.7-.6 115.8-1 176.4-.6 4.4 12.8 18.4 10.7 22.6 1.9M375.8 302.8c-.7 34.1-5.5 102.7-5.8 102.4-9.5 5.5-16.4 18.6-.4 26.1m117-190.5c-4 52.9-9.6 103.1-10.8 155.2"/><path class="zc-2" d="M378.1 380.3c79.4 1.5 159.1 4.3 238.4 4.3m-131.7-43.9a705.1 705.1 0 0 0 80.9 6c2.1 11.1 12.6 11.4 17.1 4.6m73-99.4c-22.8 113.8-33.3 229.4-33.3 345.8"/><path class="zc-2" d="M790.1 437.5c-60.6-2.3-118.7-4.1-179-8.9 0 10.8-13.8 16.2-20.3 4.2"/><path class="zc-2" d="M690.3 634.1c6-76.9 12-153.9 24.2-229.5-11.3-4.6-18-23.6-2.4-32.4"/><path class="zc-2" d="M558.1 620.2a1265.5 1265.5 0 0 0 220.2 6.3"/><path class="zc-2" d="M632.7 622.6c9.4 108.6 8.8 220.1 28.8 330.2M418.1 482.2l235.5 15.9"/><path class="zc-2" d="M799.4 736.5c-74.3 4.6-143.2 5.8-216.2 6-9.8 14.5-22.4 14.1-28.5 3.3"/><path class="zc-3" d="M274.9 453.3c-.5 33.5-2.7 66.9-6.3 100.1l251.2 12m-67.1-.2q.3 68.4-1.8 136.7l98.6 8.1"/><path class="zc-3" d="M507.4 662a1249.5 1249.5 0 0 0 5 129.8m-91-360q-8.1 123.3-12.5 246.9m13.6-203.4c77 7.5 154.2 14 231.4 18.3M494.5 237.3C488.5 290 484 343 481 396m8-61.3c25.8 2.9 51.7 5 77.7 6.1M383.3 303c-2.1 35.5-4.7 70.9-7.6 106.3"/><path class="zc-3" d="M380.9 374.1c78.1 1 159.3 6.7 234.6 6.7m45.3-128.7A2110 2110 0 0 0 626 596.9"/><path class="zc-3" d="M791.1 434.5c-61.8-5-119.4-6.7-181.8-11.7"/><path class="zc-3" d="M721.5 403.7q-16.7 116.1-25.2 233.1"/><path class="zc-3" d="M783.7 620.7a1735.9 1735.9 0 0 1-224.6-4.1m79.1 6.9c10.7 106.6 7.9 214.6 26.8 320.1"/><path class="zc-3" d="M796.7 732.4c-76.7 2.3-144.6 2-217.1 4.1m-163.8 95.1c-.3-29.8.2-59.5 1.4-89.3m.5 39.6c58.5 0 115.7-.5 175.3-.5"/><ellipse class="zc-3" cx="577" cy="339.7" rx="10.4" ry="14"/><ellipse class="zc-3" cx="598.3" cy="420.8" rx="10.9" ry="16.7"/><ellipse class="zc-3" cx="374.9" cy="421" rx="11.1" ry="11.7"/><circle class="zc-3" cx="538.2" cy="565.4" r="17"/><ellipse class="zc-3" cx="564.5" cy="737.8" rx="13.3" ry="12.4"/><ellipse class="zc-3" cx="606.2" cy="781.9" rx="11.6" ry="11.7"/><circle class="zc-3" cx="722.4" cy="384.6" r="16.2"/><circle class="zc-3" cx="408.9" cy="694.8" r="15.2"/><ellipse class="zc-3" cx="508.6" cy="648.7" rx="13.4" ry="11.1"/></g><style>.st40{fill:none;stroke:#000;stroke-width:10;stroke-linecap:round;stroke-linejoin:round;stroke-miterlimit:10}.st98{opacity:.6;enable-background:new}</style><g id="Outline"><path class="st98" d="M793 537c-1 .7-1 2-.5 3 5 10 11 35 25 30 8-2 21-13 18-22.4-.5-1-2-2-3-1.5-26 12-28-11-39-9.4v.3zm-34 274.5c6 5 26 8 25-3-6-7-20.6-12-21.5-26C750 772 744 803 759 811.5zm-219.3 52s1 .5 1 .8c9 13.5-3 36-18 40-34 6-9-6-6-44 .3-5.3 22.3 2.7 23 3.2zM342 731c5 7-4 22-4 33 8 13 29.6-5 33-14.9 2-12-17-21-28-20.2-1 .1-1 1.1-1 2.1zm31-120.2c2 23-8 47-26 61.9-13 10.9-17.5-30.6-8-27.9 6 4.2 28-18.8 34-34zm-157-59.9c-8 6-17 3-25 1-11 5 4 20 13.5 16 5-4 12-9 12-15.7-.5-.2-1.5-.2-.5-1.3zM337 473c-6-10-3-23 0-34 0-1 0-2-.6-2-9-9-23 11-19.8 20.7C318 463 338 475 337 472.8v.2z"/><path class="st98" d="M326 392c-2 29 24 45 7 44-7 2-14 1-15 11-1 11-24 0-24.5-1.3C285 433 317 404.5 326 392zm103-118c-9.9-4-16-16-18-25-4-6-9.9 1-11 6-7 54 29.5 28 29 19zm293 9c16 21 29.5 12 40 20.7 3 4 1 9.6-1 14-3 9-13 9-20 4.1-14.5-5.8-22-22.2-19-38.8z"/><path class="st40" d="M347 729c53.5 5 15 86 59 102 25 9 37-19.8 55-11.9 23 10.1 19.6 40 24 60.7 9.6 46 63 29.6 58-12.8"/><path class="st40" d="M519 861c89-9 47.5 119 114.5 115 39-6 35-47 25-76.5-3-9 0-18.5 7-24.5 24.5-21 59 15.5 84-2.5 15-11 8-33-2-45-12-15 0-32 10-43"/><path class="st40" d="M790 539c53 69.8-64 71 8 194.5 6 14 11 32 11 48.5 0 32-49 47.5-61 16"/><path class="st40" d="M721 287c2 51 64 31 74 88 6 34-11.5 71 7 103 10 18 27 31.5 34 51 8 19-4 47-27 42"/><path class="st40" d="M407 290.6c-16-8-12-29.9-2-41 17-15 40.5-10 61-6 29.8 1 49-29 75-38 50-17 81 55 133 44 23-5 48-11 69 1 25 14 33 55 10 75"/><path class="st40" d="M428 278c-16 26.5-51 17.5-76 28.5-20 10.5-28 33-23 55 10 47-43 51-39 88m25 4.5c1.5-23 35-26 41-5 7 25-13 47 16 72"/><path class="st40" d="M334 476c-20-34-61-31.5-89-9.6-20 8-43-3-64 4-22 7-28 37-5 43.5 6.5 2 23-2 26-1 15 4 11 25-5 30-21 6-10 29 6 29"/><path class="st40" d="M216 554.5c-15 15-14 41 2 55 37 22 41 31 36 69.7-2 31 46 41 53.5 10 2-10.8-4-22 0-33 13-32 44 20 62-44.5"/><path class="st40" d="M327 647.9c25 29.7-.5 47-7 75-10 32.5 34 65 53 25"/><path d="M729 262.5c9 4 16 13 18 22.5m-193-68c12.5 2 24.5 8 34 16m9 9 3 3m-163 10c-5.5-.9-12 .6-15.5 4M362 319.6c-9 2-14 10.7-16 19M339 449c4 1 6 6 6 9.8M308.5 470c-12-6-16-5-22-4M175 492c1-4 5-7 9-7.5m38 89.5c-4 8 0 16 4 19.9m44 78.6c-1 6 1 15 9 18m76-77.5c-3 14-13 14.5-16 16m4.5 119.5c-5-3-9-9-8-15M397 782c-1 14.5 7 28 14 30m90 53.9c-3 12 2 27 14.5 25M636 957c14-3 17-28 11-38m96-60.1c1-7 0-14-4-19m46-49.1c8-6.5 9-25 3-39M786 582c5-8 3-19-3-26m37-12c2-8.5-.6-18-7-24m-56-169c18 6 22 30 21 35" style="opacity:.7882;fill:none;stroke:#fff;stroke-width:10;stroke-linecap:round;stroke-linejoin:round;stroke-miterlimit:10;enable-background:new"/></g><style>.st40,.st68{fill:none;stroke-width:10;stroke-linecap:round;stroke-linejoin:round;stroke-miterlimit:10;stroke:#000}.st68{opacity:.6;enable-background:new}</style><g id="Eye"><linearGradient id="SVGID_00000144327888440828662330000012949225208094602647_" gradientUnits="userSpaceOnUse" x1="232.314" y1="-555.531" x2="336.458" y2="-482.43" gradientTransform="translate(0 1066)"><stop offset="0" style="stop-color:#00ff04"/><stop offset=".811" style="stop-color:#00fccf"/><stop offset="1" style="stop-color:#00fbff"/></linearGradient><path style="fill:url(#SVGID_00000144327888440828662330000012949225208094602647_)" d="M278 494c-31 10.8-13 49-9.5 56 8 16-9 32.5 9 50.8 9 9 46 8 40.7-31-2-13-13-23-13.5-35.8-.7-21-3.7-48-26.7-40z"/><path d="M273 498c-6.5 9-1 22 4 30.8 6 8 13 15 14 25 2 14-6 31 3 43.7 15 18 30.6-23 23-35-3-7-8-13.5-10-20.8-5-16 2-45-21-49" style="opacity:.5098;fill:#fff;enable-background:new"/><path class="st68" d="M274 516c9 24.5 14 39 18 64"/><path class="st40" d="M278 494c-31 10.8-13 49-9.5 56 8 16-9 32.5 9 50.8 9 9 46 8 40.7-31-2-13-13-23-13.5-36C304 513 301 486 278 494z"/><path class="st40" d="M282 526c6 17 10.5 35 14 53"/><path d="M279 515c1 4 2 7 3.5 11m24.5 46.9c1 5 1.5 13-5 19" style="fill:none;stroke:#fff;stroke-width:10;stroke-linecap:round;stroke-linejoin:round;stroke-miterlimit:10"/><path class="st68" d="M264 495.9c-15.5 19-6 44 1 65 3 9-3 18-1 27 4 24 31 31 46 12"/></g><style>.st40{fill:none;stroke-width:10;stroke-linecap:round;stroke-linejoin:round;stroke-miterlimit:10;stroke:#000}</style><g id="Confused"><path d="M436 675c-22 21-11 48 18 57 29.7 9 14.5 58 38.5 75 48 17 33-29.6 51-32.5 18.5-3 9 36 40 57 29.5 19.8 75 1 78-35 4-55 36-12 52-35.5" style="opacity:.6;fill:none;stroke:#000;stroke-width:10;stroke-linecap:round;stroke-miterlimit:10;enable-background:new"/><path d="M584 706c7 8 13 18 21 26 97-19 94 22 113.5 24 30-7 34-98-17-91-41 5-76 35-116 39.6-.5.4-.5 1.4-1.5 1.4z"/><path d="M715 756c-4 14-34 2-46 5-18 4-5 116-91 56-13-9-17-53.5-36-48.9-13 6.5-7 30.7-28 35.5-42.5 9.7-19-76-75-85.9-17.5-3-7-33 5-44 40.6-21 39.9 31 135 32.3 12 4 18 17 26 26 73-20 110 21 110 23.7v.3z" style="fill:#fe1767"/><path d="M435 696c41.5-24 78 29 119.8 29 14-.1 30.8-6.5 44 2-10-23-15.5-20-37-18.7-30-2-56-20-82-34-18-9-47-1-45 21.3v.4zm182 59c1-18 38-25 55-24-17-5-52-5-65 4.6l10 19.1v.3z" style="fill:#ae0f45"/><path class="st40" d="M464 669.5c-28 0-47 36-19.8 50.6 6 3 12 3 18 6 30 16 8 75 47.5 78.6 9.7 1 19-7 21-17 1-6 0-13 4-17.5 6-7 18-3.5 23 3.9 5 7 6 17 9 25.5 11 39 74 49.5 87 5.9 5-16-6-56 35-44 67 19.7 78-117-5-93-69.9 20-111 65-186 15.5-9.7-6.5-19.7-14.5-33.7-14.5z"/><path class="st40" d="M582 707c14 13 25 29 32 47"/><path d="M579.9 726c6 7 11 15 14 23m5.7 15 2.4 4m52-28c9 0 18 2 26 6m-39.5-7.5h-4" style="fill:none;stroke:#fff;stroke-width:10;stroke-linecap:round;stroke-linejoin:round;stroke-miterlimit:10"/><path class="st40" d="M606 733c37-17 86-8 112 24"/></g><style>.st40,.st68{fill:none;stroke-width:10;stroke-linecap:round;stroke-linejoin:round;stroke-miterlimit:10;stroke:#000}.st68{opacity:.6;enable-background:new}</style><g id="x"><linearGradient id="SVGID_00000108293349405905417590000007858031186733274302_" gradientUnits="userSpaceOnUse" x1="513.292" y1="1028.154" x2="683.299" y2="731.142" gradientTransform="matrix(1 0 0 -1 0 1410)"><stop offset="0" style="stop-color:#f03"/><stop offset=".221" style="stop-color:#e7005c"/><stop offset=".715" style="stop-color:#ac00c1"/><stop offset="1" style="stop-color:#80f"/></linearGradient><path style="fill:url(#SVGID_00000108293349405905417590000007858031186733274302_);stroke:#000;stroke-width:10;stroke-linecap:round;stroke-linejoin:round;stroke-miterlimit:10" d="M491 487c-16 7-3 23-8.5 33-4 7-14 9.7-21 5-9-6-9-18-11-28.9-4-21-21-39-22.5-60.8-2-33 38-55.8 64-37 38 27 79 115 116 35.9 12-26 23-58 53-67.9 30-9.7 41 29 36 51.5-2.5 11.5-12 21.5-11 33 1 12 12 22.5 11 35-.5 6-5 12.5-12 12-5 0-9-4-14.5-5-18-.5-18 23-6 31.5 18 13 42 18 56.5 36 31 37-12 83-44 46-3-4.5-6-10-11-10.8-16 .5-4 28-21 30-8 .9-15-4-17-12-5.5-20 2-44-21-55-18.5-9-41 8-38 28.4 3 19 30.5 42 10.5 59-9 6-21.5 0-27-9-4-11-17-9-19.9 2-4.5 17-11 29-30 21.5-34-14-32-64.5-4-83.9 46-31.5 26-104-8-89.7v.2z"/><path class="st40" d="M466 429c77 52 155 104 234 154"/><path class="st40" d="M671.5 395c-49.6 75-104 148-158 219.9"/><path class="st68" d="M462 432c75 57 158 103 235 157"/><path class="st68" d="M675 397.9c-46.5 78-103 148-157 221M434 408c-24 29 0 55 10 83 4 12 2 33 19 36m30-37c35 2 31 58 13 78-6 7-14 13-19.8 19.9-24 24-16 74 21 77M589 563c42 0 21 48 47 63m29-24.1c3 9 19 18 28 19M660.5 365c-51 10.9-46 80-88 102"/><path d="M459 410c8-3 18-3 24 4m11 8.4 2 2M687 398c2 7 1 14-2 20m-4 11c0 .6-1 1-1 2m25 134c10 6.5 17 19 13 31.5m-7 9.5c-.5.5-1 1-1.5 2M567 618c4 4 6 8.5 7 14m-80-18c-2 11 1 22 9 29.9m9.5 7.2 2 .9" style="fill:none;stroke:#fff;stroke-width:10;stroke-linecap:round;stroke-linejoin:round;stroke-miterlimit:10"/></g><circle cx="550" cy="550" r="500" style="fill:none;stroke:#000;stroke-width:10;stroke-linecap:round;stroke-linejoin:round;stroke-miterlimit:10"/></svg>