<svg version="1.1" id="Layer_1" xmlns="http://www.w3.org/2000/svg" x="0" y="0" viewBox="0 0 1100 1100" style="enable-background:new 0 0 1100 1100" xml:space="preserve" xmlns:xlink="http://www.w3.org/1999/xlink"><style type="text/css">.st301{fill:#005BEF;stroke:#000000;stroke-width:10;stroke-linecap:round;stroke-linejoin:round;stroke-miterlimit:10;}</style><circle class="st301" cx="550" cy="553.7" r="500"/><radialGradient id="a9" cx="560.657" cy="569.423" r="93.351" gradientTransform="matrix(1 0 0 3.2533 0 -1281.846)" gradientUnits="userSpaceOnUse"><stop offset="0" style="stop-color:#00f2ff"/><stop offset="1" style="stop-color:#370080"/></radialGradient><path style="fill:url(#a9)" d="M533 210.7c-68 59.6-71 20-121 36.5-19.6 10.9-14 30-9.7 39.6 11 23-51 9-69 40.3-10 18 .1 42-7.5 61.8-9 19.6-34 35-37 52.2-43 48-154 7-119 70.4 6 11 33-6 39 9.1 7 17.5-39 29-21 46.7 18 5 21 39.9 57 63.2 14 20 3 51 19 69.1 35.8 38 46-25 41-34.3 4-39 44-11 22 38.7-23 52 11 74 36.5 56.6 24-9 13 39 23 50.9 19.5 37 55 12 67 12 18 1 28 22 29.8 40.3 6.5 63 54 46 59 8 15.5-34 45 49 47 59.9 11 73 69 42 71 17.9 3-54-3-60.1 2-68.3 18.5-31 71 13 90.8-15.5 14-19.7-31-63.5 8-55.4 94 19 19-101 14-120.4-9-35.5 14-106 47-121.7 18-9 17-35.5 7-52.8-9.5-17-25-30.6-31-48.9-13.5-54 22-102-36-133.3-5-3-7-9.5-4-14.4 17-26 1-66-32-71.4-22-3-44 9-66.5 6.3-43.4-4.8-79.5-74.1-126.4-43.1z"/><radialGradient id="b5" cx="553.285" cy="308.14" r="3.115" gradientTransform="matrix(30.3532 0 0 7.6359 -16163.282 -1999.622)" gradientUnits="userSpaceOnUse"><stop offset="0" style="stop-color:#00f2ff"/><stop offset="1" style="stop-color:#370080;stop-opacity:0"/></radialGradient><ellipse style="fill:url(#b5)" cx="635" cy="353" rx="83.5" ry="47.5"/><radialGradient id="c4" cx="685.268" cy="483.405" r="2.167" gradientTransform="matrix(16.0015 0 0 8.3553 -10251.582 -3523.179)" gradientUnits="userSpaceOnUse"><stop offset="0" style="stop-color:#00f2ff"/><stop offset="1" style="stop-color:#370080;stop-opacity:0"/></radialGradient><ellipse style="fill:url(#c4)" cx="715" cy="515.5" rx="30.5" ry="36"/><radialGradient id="d4" cx="417.82" cy="724.757" r="2.666" gradientTransform="matrix(25.7894 0 0 8.8738 -10290.887 -5668.355)" gradientUnits="userSpaceOnUse"><stop offset="0" style="stop-color:#00f2ff"/><stop offset="1" style="stop-color:#370080;stop-opacity:0"/></radialGradient><ellipse style="fill:url(#d4)" cx="488" cy="763" rx="71.5" ry="34.5"/><radialGradient id="e4" cx="525.562" cy="453.385" r="2.733" gradientTransform="matrix(2.3275 0 0 1.7985 -693.718 -358.824)" gradientUnits="userSpaceOnUse"><stop offset="0" style="stop-color:#00ff48"/><stop offset="1" style="stop-color:#7300ff;stop-opacity:0"/></radialGradient><circle style="fill:url(#e4)" cx="529.5" cy="457" r="5.5"/><radialGradient id="f4" cx="492.648" cy="546.297" r="1.723" gradientTransform="matrix(5.2809 0 0 5.0294 -2100.605 -2192.76)" gradientUnits="userSpaceOnUse"><stop offset="0" style="stop-color:#f700ff"/><stop offset="1" style="stop-color:#7300ff;stop-opacity:0"/></radialGradient><circle style="fill:url(#f4)" cx="501" cy="555" r="9"/><radialGradient id="g2" cx="642.36" cy="683.471" r="2.175" gradientTransform="matrix(4.189 0 0 4.4069 -2039.596 -2318.762)" gradientUnits="userSpaceOnUse"><stop offset="0" style="stop-color:#ff006a"/><stop offset="1" style="stop-color:#7300ff;stop-opacity:0"/></radialGradient><circle style="fill:url(#g2)" cx="651" cy="693" r="10"/><radialGradient id="h2" cx="631.016" cy="564.413" r="1.923" gradientTransform="matrix(1.8774 0 0 1.767 -550.874 -430.127)" gradientUnits="userSpaceOnUse"><stop offset="0" style="stop-color:#ff0"/><stop offset="1" style="stop-color:#7300ff;stop-opacity:0"/></radialGradient><circle style="fill:url(#h2)" cx="634" cy="567" r="3.5"/><radialGradient id="i2" cx="586.567" cy="520.158" r=".454" gradientTransform="translate(-1669.963 -1480.415) scale(3.851)" gradientUnits="userSpaceOnUse"><stop offset="0" style="stop-color:#ff2600"/><stop offset="1" style="stop-color:#7300ff;stop-opacity:0"/></radialGradient><circle style="fill:url(#i2)" cx="589" cy="523" r="2"/><radialGradient id="j2" cx="421.591" cy="470.614" r="2.51" gradientTransform="matrix(3.2467 0 0 3.9604 -939.96 -1384.463)" gradientUnits="userSpaceOnUse"><stop offset="0" style="stop-color:#00ffea"/><stop offset="1" style="stop-color:#7300ff;stop-opacity:0"/></radialGradient><circle style="fill:url(#j2)" cx="429" cy="479" r="9"/><style>.st40{fill:none;stroke:#000;stroke-width:10;stroke-linecap:round;stroke-linejoin:round;stroke-miterlimit:10}.st98{opacity:.6;enable-background:new}</style><g id="Outline"><path class="st98" d="M793 537c-1 .7-1 2-.5 3 5 10 11 35 25 30 8-2 21-13 18-22.4-.5-1-2-2-3-1.5-26 12-28-11-39-9.4v.3zm-34 274.5c6 5 26 8 25-3-6-7-20.6-12-21.5-26C750 772 744 803 759 811.5zm-219.3 52s1 .5 1 .8c9 13.5-3 36-18 40-34 6-9-6-6-44 .3-5.3 22.3 2.7 23 3.2zM342 731c5 7-4 22-4 33 8 13 29.6-5 33-14.9 2-12-17-21-28-20.2-1 .1-1 1.1-1 2.1zm31-120.2c2 23-8 47-26 61.9-13 10.9-17.5-30.6-8-27.9 6 4.2 28-18.8 34-34zm-157-59.9c-8 6-17 3-25 1-11 5 4 20 13.5 16 5-4 12-9 12-15.7-.5-.2-1.5-.2-.5-1.3zM337 473c-6-10-3-23 0-34 0-1 0-2-.6-2-9-9-23 11-19.8 20.7C318 463 338 475 337 472.8v.2z"/><path class="st98" d="M326 392c-2 29 24 45 7 44-7 2-14 1-15 11-1 11-24 0-24.5-1.3C285 433 317 404.5 326 392zm103-118c-9.9-4-16-16-18-25-4-6-9.9 1-11 6-7 54 29.5 28 29 19zm293 9c16 21 29.5 12 40 20.7 3 4 1 9.6-1 14-3 9-13 9-20 4.1-14.5-5.8-22-22.2-19-38.8z"/><path class="st40" d="M347 729c53.5 5 15 86 59 102 25 9 37-19.8 55-11.9 23 10.1 19.6 40 24 60.7 9.6 46 63 29.6 58-12.8"/><path class="st40" d="M519 861c89-9 47.5 119 114.5 115 39-6 35-47 25-76.5-3-9 0-18.5 7-24.5 24.5-21 59 15.5 84-2.5 15-11 8-33-2-45-12-15 0-32 10-43"/><path class="st40" d="M790 539c53 69.8-64 71 8 194.5 6 14 11 32 11 48.5 0 32-49 47.5-61 16"/><path class="st40" d="M721 287c2 51 64 31 74 88 6 34-11.5 71 7 103 10 18 27 31.5 34 51 8 19-4 47-27 42"/><path class="st40" d="M407 290.6c-16-8-12-29.9-2-41 17-15 40.5-10 61-6 29.8 1 49-29 75-38 50-17 81 55 133 44 23-5 48-11 69 1 25 14 33 55 10 75"/><path class="st40" d="M428 278c-16 26.5-51 17.5-76 28.5-20 10.5-28 33-23 55 10 47-43 51-39 88m25 4.5c1.5-23 35-26 41-5 7 25-13 47 16 72"/><path class="st40" d="M334 476c-20-34-61-31.5-89-9.6-20 8-43-3-64 4-22 7-28 37-5 43.5 6.5 2 23-2 26-1 15 4 11 25-5 30-21 6-10 29 6 29"/><path class="st40" d="M216 554.5c-15 15-14 41 2 55 37 22 41 31 36 69.7-2 31 46 41 53.5 10 2-10.8-4-22 0-33 13-32 44 20 62-44.5"/><path class="st40" d="M327 647.9c25 29.7-.5 47-7 75-10 32.5 34 65 53 25"/><path d="M729 262.5c9 4 16 13 18 22.5m-193-68c12.5 2 24.5 8 34 16m9 9 3 3m-163 10c-5.5-.9-12 .6-15.5 4M362 319.6c-9 2-14 10.7-16 19M339 449c4 1 6 6 6 9.8M308.5 470c-12-6-16-5-22-4M175 492c1-4 5-7 9-7.5m38 89.5c-4 8 0 16 4 19.9m44 78.6c-1 6 1 15 9 18m76-77.5c-3 14-13 14.5-16 16m4.5 119.5c-5-3-9-9-8-15M397 782c-1 14.5 7 28 14 30m90 53.9c-3 12 2 27 14.5 25M636 957c14-3 17-28 11-38m96-60.1c1-7 0-14-4-19m46-49.1c8-6.5 9-25 3-39M786 582c5-8 3-19-3-26m37-12c2-8.5-.6-18-7-24m-56-169c18 6 22 30 21 35" style="opacity:.7882;fill:none;stroke:#fff;stroke-width:10;stroke-linecap:round;stroke-linejoin:round;stroke-miterlimit:10;enable-background:new"/></g><radialGradient id="a14" cx="290.798" cy="544.048" r="35.638" gradientTransform="matrix(1.0835 0 0 1.2069 -20.488 -120.931)" gradientUnits="userSpaceOnUse"><stop offset="0" style="stop-color:#ffe100"/><stop offset="1" style="stop-color:#f70"/></radialGradient><path style="fill:url(#a14)" d="M294.5 494.1 255 568.3l79.5 8.9z"/><path style="opacity:.451;fill:#fff" d="m283 520.1 22 51.8 26 2.4-37-76.5"/><path style="fill:none;stroke:#000;stroke-width:10;stroke-linecap:round;stroke-linejoin:round;stroke-miterlimit:10" d="M294.5 494.1 255 568.3l79.5 8.9z"/><path d="M289 492.2c-16 29-29.8 52-44 79.8l88 12.5" style="opacity:.6;fill:none;stroke:#000;stroke-width:10;stroke-linecap:round;stroke-linejoin:round;stroke-miterlimit:10"/><path d="M294 524.9c2.5 5 5 9.5 6 14.5m6 14.6 2 4" style="opacity:.749;fill:none;stroke:#fff;stroke-width:10;stroke-linecap:round;stroke-linejoin:round;stroke-miterlimit:10"/><defs><linearGradient id="zae" x1="798.93" y1="733.98" x2="937.44" y2="726.56" gradientUnits="userSpaceOnUse"><stop offset="0" stop-color="#f705ff"/><stop offset=".5" stop-color="#e30556"/><stop offset="1" stop-color="#ffc505"/></linearGradient><linearGradient id="zae-2" x1="611.81" y1="744.71" x2="857.55" y2="744.71" gradientUnits="userSpaceOnUse"><stop offset="0" stop-color="#00ff6f"/><stop offset="1" stop-color="#0090ff"/></linearGradient><linearGradient id="zae-3" x1="826.24" y1="742.98" x2="857.41" y2="742.98" gradientUnits="userSpaceOnUse"><stop offset="0" stop-color="#f06"/><stop offset="1" stop-color="#f90"/></linearGradient><linearGradient id="zae-4" x1="652.3" y1="753.53" x2="744.04" y2="753.53" gradientUnits="userSpaceOnUse"><stop offset="0" stop-color="#ff009d"/><stop offset="1" stop-color="#ff6200"/></linearGradient><style>.zae-4{fill:none;stroke-linecap:round;stroke-linejoin:round;stroke:#000;stroke-width:10px}</style></defs><path d="M812.7 697.1c-.8-22 16.5-29.6 35.7-16.3 10.5 7.2 15.4-1.7 18.7-9.4 4.1-9.3 3.6-22 15-25.1 23.8-6.4 33.2 25.6 10.5 39.9-19.1 12 1.3 36 14.1 16s39.7-11.3 31.6 11.8-50.1 5.6-50.1 25.6c0 10.8 11.2 9.8 21.5 13.5 20.6 7.4 6.2 41.6-14.9 31.6-5.1-2.4-10.8-6.9-16.1-4.4s-6.4 10.6-2.1 16c5.6 7.1-1.3 16.9-9.5 17.8-10.6 1.1-15.2-10.9-26.1-11.6-8.9-.7-21.3-3-23.4-13.4Z" style="fill:url(#zae)"/><path d="M618.4 773.8c34.4-8.5 64.9 17.1 98 17.7 13.5.2 26.5-5.5 39.9-5.8 30.3-.7 84.6 8.6 93.6-13.4 27-65.5-22.1-88.1-77.6-66.3-22.3 8.8-52.5 17.8-49.1 11.6-11.3-39.7-77.3 19.7-106.9 13.8-6.8 12.9-5.7 29.7 2.1 42.4Z" style="fill:url(#zae-2)"/><path d="M826.2 700.5c13.3 51.7-1.7 70.9 4.5 83.3 21.3 15.6 49.6-80.6-4.5-83.3Z" style="fill:url(#zae-3)"/><path class="zae-4" d="M618.5 731.8c30.7.3 53.9-26.7 84.5-28.9 10-.7 24.2 8.1 18.6 18.9"/><path class="zae-4" d="M703.5 723c24.3 2.4 46.5-8.2 68.8-17 55.5-21.8 104.6.8 77.6 66.3-9 22-63.3 12.7-93.6 13.4-13.4.3-26.4 6-39.9 5.8-33.1-.6-63.6-26.2-98-17.7"/><path class="zae-4" d="M822.7 698.8c12.6 24.9 12.8 58.2 4.2 85m7.2-25.9 18.6-1.8m-19.2-29.2 19.1-3.1"/><path d="M652.5 752.4c3.9 11 18.1 7.3 27.1 6.2 13.9-1.6 26.9 6.1 40.5 8.2 32.8 4.8 31.5-32.1-1.3-22.7-16.9 4.8-70.3-17.1-66.3 8.3Z" style="fill:url(#zae-4)"/><path d="M689.5 743.1c-.3 21.2 51.3 36.2 52.5 9.2-2.4-12.2-42.8-8.6-52.5-9.2Z" style="opacity:.3;fill:#fff"/><path d="M716.3 747.7a24.6 24.6 0 0 1 14.2 17.3c31-7.7-2.6-32.5-14.2-17.3Z" style="opacity:.49;fill:#fff"/><path class="zae-4" d="M652.5 752.4c3.9 11 18.1 7.3 27.1 6.2 13.9-1.6 26.9 6.1 40.5 8.2 32.8 4.8 31.5-32.1-1.3-22.7-16.9 4.8-70.3-17.1-66.3 8.3Zm160.2-55.3c-.8-22 16.5-29.6 35.7-16.3 10.5 7.2 15.4-1.7 18.7-9.4 4.1-9.3 3.6-22 15-25.1 23.8-6.4 33.2 25.6 10.5 39.9-19.1 12 1.3 36 14.1 16s39.7-11.3 31.6 11.8-50.1 5.6-50.1 25.6c0 10.8 11.2 9.8 21.5 13.5 20.6 7.4 6.2 41.6-14.9 31.6-5.1-2.4-10.8-6.9-16.1-4.4s-6.4 10.6-2.1 16c5.6 7.1-1.3 16.9-9.5 17.8-10.6 1.1-15.2-10.9-26.1-11.6-8.9-.7-21.3-3-23.4-13.4m-200.2-69.5c-6.3 20.9-8.1 46 2.8 68.3m-40.6-82.5c17.4-67.6 59.3-31.9 66 18.2"/><path class="zae-4" d="M580.9 801.8c24.2 71.2 65.8 25.1 65.5-26.9"/><path d="M579.6 705.4c-1.9-18.1 12-42.1 31.5-36.9m-30.2 133.3c-1.6 20 21.5 52.2 41.4 33.1m-2.7-100c-2.1 11.4-2.1 24 1.2 35.1m82.5-48.2a43.1 43.1 0 0 0 16.4-7.2m-67.4 36.3c0 21.6 32.7 10.1 46.5 15.3s39.6 12.3 44.6-8.1m86.9-53.6c8.6 24.5 8.9 50.5 2.4 75.6" style="opacity:.6;stroke-width:10px;stroke:#000;fill:none;stroke-linecap:round;stroke-linejoin:round"/><path d="M817.3 714.5c-9.8-5.5-21.6-2.9-31.6.8m-11.3 3.4a8.5 8.5 0 0 0-2.2.9m-80.3-1.9a68.2 68.2 0 0 0-13.8 5.4M612 683.4c5.4 3.3 8.7 9.1 11.7 14.7m5.1 10.8.7 2.7m3.6 76.6a53.2 53.2 0 0 1-7.3 20.4m-7.6 10.1-2.3 2.3" style="stroke:#fff;stroke-width:10px;fill:none;stroke-linecap:round;stroke-linejoin:round"/><path d="M835.4 685.4a9 9 0 0 0-8.7.3m65.2-29.1a10.1 10.1 0 0 1 3 8m-2.2 7a5.9 5.9 0 0 1-1.7 2.7m38.9 31.7a9.5 9.5 0 0 1-6.3 8.3m-15.8 58.5a8.5 8.5 0 0 1-8.5 1.4m-6.7-2.8-1.6-.5m-31.5 30.3a10.1 10.1 0 0 0 6.3 3.2" style="stroke-width:6px;stroke:#fff;fill:none;stroke-linecap:round;stroke-linejoin:round"/><defs><linearGradient id="axe" x1="503.59" y1="455.12" x2="514" y2="579.96" gradientUnits="userSpaceOnUse"><stop offset="0" stop-color="#00ffe1"/><stop offset="1" stop-color="#001eff"/></linearGradient><linearGradient id="axe-2" x1="666.66" y1="438.52" x2="689.84" y2="583.76" gradientUnits="userSpaceOnUse"><stop offset="0" stop-color="#ff001e"/><stop offset=".12" stop-color="#ff131c"/><stop offset=".35" stop-color="#ff4315"/><stop offset=".68" stop-color="#ff900b"/><stop offset="1" stop-color="#ffe100"/></linearGradient><style>.axe-2,.axe-3{fill:none;stroke:#000;stroke-linecap:round;stroke-linejoin:round;stroke-width:10px}.axe-3{opacity:.6}</style></defs><path d="M358.8 447.6c26.7-17.9 58.8-13.6 88.6-7.6 27 5.4 49.5-11.1 71.8-23.3 20.6-11.4 44.7 1.2 38.7 22.4 0 0 43.9-12.2 84.7-26.1 11.4-3.9 35.6 3.2 60.9-8 37-16.4 60.7 20.5 56.9 55.6-4 36.8 15.7 35.5 20 50.3 2.9 10.3-7 20.9-17.4 18.4 0 0 33.6 62.6-10.6 52.4-40.8-9.4-50.6 21.8-98.6 18.2-22.5-1.7-64.7 64.1-61.8 3.7 0 0-4.9-3.7-43.7 6.9-32.6 8.9-31.3-16.7-75.3-9-33.5 5.9-25.5-37.8-57.5-36.6l12.6 4.3c2.2 33.7-37.3 27.7-36.7-4.1 2.5-19 9.1-38 7.9-57.2-11.9-8.1-26.4-9.1-40.5-9.7-3-16.7-1.2-33.4 0-50.6Z" style="fill:#fff"/><path class="axe-2" d="M314.8 454c1.5-23.1 35.3-26.3 41.4-5 7.1 24.8-12.6 46.8 16.2 72.4m-13.6-73.8c26.7-17.9 58.8-13.6 88.6-7.6 27 5.4 49.5-11.1 71.8-23.3 20.6-11.4 45.5-2.4 38.7 20.2"/><path class="axe-2" d="M541.6 437.1c49.3 12.9 61.3-24.6 101-24.1 26.3.4 35.6 3.2 60.9-8 37-16.4 60.7 20.5 56.9 55.6-4 36.8 15.7 35.5 20 50.3 2.9 10.3-7 20.9-17.4 18.4"/><path class="axe-2" d="M758.9 515.3c-1.8 17.2 14.3 28.9 16.7 44.4 2 13.2-7.4 25.6-23.2 22-40.8-9.4-51.2 26.4-98.6 18.2-22.8-3.9-25.3 25.9-45.9 28.7-13.6 1.9-26-14-15.9-25"/><path class="axe-2" d="M606.6 603.5c-28.6-10.2-35.2 9.2-60.1 9.3-33.7 0-29.5-19-73.5-11.3-33.5 5.9-25.5-37.8-57.5-36.6"/><path class="axe-2" d="M391.7 477.1c20 36.3-.2 54.7-.6 88.4-.3 31.4 39.2 37.4 37 3.7"/><path class="axe-2" d="M399.4 508.2a40.6 40.6 0 0 0-39.7-5.7"/><path class="axe-3" d="M541.6 437.1c8.1-.1 14.6-7.8 14.2-15.9m-164.1 55.9c2.1 7.9 2.6 17-3 22.6m26.8 65.2c10.5 5.3 7.5 17.8 0 25.2m191.1 13.4c-9.2-.8-15.3 9-14.8 17.4m167.1-105.6c3 7.2 9.7 11.4 17.3 9.3m-413.9-75.7c6.7 15.1-2.7 32.3 1.5 47.9m.6 8.6c10.5.3 21.5-.2 29.7 8-3.3 19.3-12.7 39.8-7.7 59.4 2.6 10.6 12.1 22.3 24.2 19.2"/><path class="axe-3" d="M431.1 577.2c13.5 27.7 27.8 32.6 58.6 29.6 42.9-4.1 39.9 25.2 92.8 1.9-.9 13.7 11.6 27.5 25.4 20.1m26.6-19c33.2-9.5 35.3 11 80.7-17.5 22.7-14.3 46.1 5.1 58-18.1"/><path d="M446.5 532.3c15.9 12.4 12.9 45.3 59.3 21.3 13-6.7 27.9 7.8 41.8 12.2 24.3 10.5 46.2-15.1 31.4-36.7-7-10.3-9.6-21.2-7.5-33.4 2.9-17.2-16.1-36.6-32.1-27-44.4 26.8-51.7-10.5-77.4 1.4-15.2 7-41.7 41.9-15.5 62.2Z" style="fill:url(#axe);stroke-linecap:round;stroke-linejoin:round;stroke-width:10px;stroke:#000"/><path d="M615.6 483.2c1.5 9.9 12.5 19.3 12.5 34 0 71.8 26.9 19.3 85.6 34.9 18.7 5 31.1-22.3 21.5-38.4-25.1-41.8-8.3-51.5-26.2-61.5-21-11.7-40.2 11.8-60.4 11-11.7-.4-36.9-6.1-33 20Z" style="fill:url(#axe-2);stroke-linecap:round;stroke-linejoin:round;stroke-width:10px;stroke:#000"/><path class="axe-3" d="M440.3 490.6c-17.5 17.6-8 35.8 10.4 51.1 7.3 6.1 7.2 18.1 15.2 23.2 14.7 9.3 30-3.8 44.4-6.7 20.3-4.1 47.3 30.7 63.2 5.3m40.8-91.2c-4.9 11.3 2 21.8 5.5 32.6 11.7 35.7-5.6 70.2 48.7 52.7 22.6-7.4 42.8 5.6 54-5.3"/><path d="M549.9 479.1a17.2 17.2 0 0 1 6.3 12.2m1.2 12.1-.4 2.7m-87.7-24.3c-8.3 4.4-15.4 11.8-17.7 20.9m-2.6 13.5v1.8m121.2 26.3a16 16 0 0 1-14.6 10.3m142.8-93.5c5.5 2.8 8.1 9.2 8.9 15.2m2.5 11.8.6 2.8m16.8 36.7a18.3 18.3 0 0 1-5.4 11.2m-94.1-63.7c-1.1 4.7 1 8.9 3.4 12.7m12.1 56.1c-3-3.6-3.4-8.6-3.4-13.1" style="stroke:#fff;opacity:.74;stroke-linecap:round;stroke-linejoin:round;stroke-width:10px;fill:none"/><path d="M447 489a656.4 656.4 0 0 1 50.1 42.7l1.3-16.6s62.4 50.9 62.6 51.2c9.2-.5 18.2-6.2 20.9-15.5l-90.3-56.4-4.5 11.4-29.3-30.2M617.2 489l54.4 32.3-5.6-16.1s64 39.4 64.9 39.4c5.8-1.9 7.6-10.9 7.5-16.4l-82-38.4v10l-39.2-27.1" style="opacity:.28;fill:#fff"/><path class="axe-2" d="M446.5 532.3c15.9 12.4 12.9 45.3 59.3 21.3 13-6.7 27.9 7.8 41.8 12.2 24.3 10.5 46.2-15.1 31.4-36.7-7-10.3-9.6-21.2-7.5-33.4 2.9-17.2-16.1-36.6-32.1-27-44.4 26.8-51.7-10.5-77.4 1.4-15.2 7-41.7 41.9-15.5 62.2Zm169.1-49.1c1.5 9.9 12.5 19.3 12.5 34 0 71.8 26.9 19.3 85.6 34.9 18.7 5 31.1-22.3 21.5-38.4-25.1-41.8-8.3-51.5-26.2-61.5-21-11.7-40.2 11.8-60.4 11-11.7-.4-36.9-6.1-33 20Z"/><linearGradient id="a21" gradientUnits="userSpaceOnUse" x1="503.691" y1="241.136" x2="690.539" y2="221.151"><stop offset="0" style="stop-color:#ff2b2b"/><stop offset="1" style="stop-color:#ffff2b"/></linearGradient><path style="fill:url(#a21);stroke:#000;stroke-width:10;stroke-linecap:round;stroke-linejoin:round;stroke-miterlimit:10;stroke-dasharray:0,0,0,0,0,0" d="M562 170.5c-4 2-9 2.5-13.5 1.4 18 17-4 44 7 61.1 7 11 21 19 19.9 34.5 0 7-7 15-13 8.6 1 15 13 25 23 34.8 9.5 9.5-2 29 8 38.4 16 13 43-9 39.8-26.5-2-13-9-28 2-39.7 8-8 25.5-21 14-32.8-2 5-9 8-12 3.8-4-4 1.5-10.5 3-16.1 2-11-9-18-14-27-12-24 24-41 1-62.1 0 20-34 20-28 0 5-17-3-16.5-11-27.2 7 14-20.1 30-27.5 16.4-4-8 0-18-7-25.3-5.8 19-32 29-33 48.7-2 40-15.8 26.5-16.5 24.1-4 12 11 24 9 37 15-6 26-22 42-26"/><path d="M549 202.2c-17 33 35 57 16 69.5-3 0-6 1-7 4.3-5 19.5 22 28 25 45.2 1 6.5-.5 13 1 19.9 3 15.5 25 20 34 7m-72-175.9c11 22-14 30.7-28 41.5" style="opacity:.6;fill:none;stroke:#000;stroke-width:10;stroke-linecap:round;stroke-linejoin:round;stroke-miterlimit:10;stroke-dasharray:0,0,0,0,0,0"/><path d="M620 320.5c1 4 .5 8-2 11.5m-10 7-2 1m12-117.6c3 3 5 6 6 10m-91.5-71.8c2-4.5 5-9 8-12" style="opacity:.7882;stroke:#fff;fill:none;stroke-width:10;stroke-linecap:round;stroke-linejoin:round;stroke-miterlimit:10;stroke-dasharray:0,0,0,0,0,0"/><circle cx="550" cy="550" r="500" style="fill:none;stroke:#000;stroke-width:10;stroke-linecap:round;stroke-linejoin:round;stroke-miterlimit:10"/></svg>