<svg version="1.1" id="Layer_1" xmlns="http://www.w3.org/2000/svg" x="0" y="0" viewBox="0 0 1100 1100" style="enable-background:new 0 0 1100 1100" xml:space="preserve" xmlns:xlink="http://www.w3.org/1999/xlink"><style type="text/css">.st301{fill:#005BEF;stroke:#000000;stroke-width:10;stroke-linecap:round;stroke-linejoin:round;stroke-miterlimit:10;}</style><circle class="st301" cx="550" cy="553.7" r="500"/><defs><linearGradient id="a" x1="440.97" y1="180.1" x2="582.97" y2="998.27" gradientUnits="userSpaceOnUse"><stop offset="0" stop-color="#fbff03"/><stop offset=".25" stop-color="#ff751a"/><stop offset=".39" stop-color="#ff298d"/><stop offset=".54" stop-color="#e100ff"/><stop offset=".75" stop-color="#4f2bff"/><stop offset="1" stop-color="#03eeff"/></linearGradient></defs><path d="M531.7 209c-67.9 59.6-70.9 20.3-120.8 36.5-19.6 10.9-14.3 30.3-9.7 39.6 11.2 22.8-50.8 8.7-68.6 40.3-10.3 18.3.1 42.2-7.5 61.8s-33.8 34.7-36.8 52.2c-43.4 48.2-154 6.6-119.1 70.4 6.2 11.4 32.9-6.3 39.1 9.1 7 17.5-38.8 29.4-21.3 46.7 17.7 4.9 20.7 39.9 56.9 63.2 13.8 20 2.7 51.4 19.4 69.1 35.8 37.8 46.3-24.8 41.3-34.3 4.3-38.8 43.9-10.6 22.2 38.7-22.8 51.7 11.2 74 36.5 56.6 24-8.9 13.3 38.7 23.3 50.9 19.5 37.2 54.9 11.6 66.6 12 18.1.7 28 22.3 29.8 40.3 6.5 63 53.6 46.3 59.1 8 15.5-34.3 45.1 48.6 46.9 59.9 11.3 72.6 69.3 42 70.8 17.9 3.3-54.1-3.2-60.1 1.7-68.3 18.5-31.1 71 13.3 90.8-15.5 13.6-19.7-31.2-63.5 7.9-55.4 94 19.4 18.7-100.7 13.8-120.4-8.8-35.5 13.9-105.6 46.9-121.7 18.1-8.8 17.1-35.5 7.4-52.8s-24.9-30.6-31.4-48.9c-13.5-54.4 22.4-102.1-36-133.3a10.2 10.2 0 0 1-3.9-14.4c17.1-26.3 1.3-66.4-31.8-71.4-22.1-3.3-44.3 8.9-66.5 6.3-43.8-5.2-80.2-74.1-127-43.1Z" style="fill:url(#a)" data-name="Layer 57"/><style>.st40{fill:none;stroke:#000;stroke-width:10;stroke-linecap:round;stroke-linejoin:round;stroke-miterlimit:10}.st98{opacity:.6;enable-background:new}</style><g id="Outline"><path class="st98" d="M793 537c-1 .7-1 2-.5 3 5 10 11 35 25 30 8-2 21-13 18-22.4-.5-1-2-2-3-1.5-26 12-28-11-39-9.4v.3zm-34 274.5c6 5 26 8 25-3-6-7-20.6-12-21.5-26C750 772 744 803 759 811.5zm-219.3 52s1 .5 1 .8c9 13.5-3 36-18 40-34 6-9-6-6-44 .3-5.3 22.3 2.7 23 3.2zM342 731c5 7-4 22-4 33 8 13 29.6-5 33-14.9 2-12-17-21-28-20.2-1 .1-1 1.1-1 2.1zm31-120.2c2 23-8 47-26 61.9-13 10.9-17.5-30.6-8-27.9 6 4.2 28-18.8 34-34zm-157-59.9c-8 6-17 3-25 1-11 5 4 20 13.5 16 5-4 12-9 12-15.7-.5-.2-1.5-.2-.5-1.3zM337 473c-6-10-3-23 0-34 0-1 0-2-.6-2-9-9-23 11-19.8 20.7C318 463 338 475 337 472.8v.2z"/><path class="st98" d="M326 392c-2 29 24 45 7 44-7 2-14 1-15 11-1 11-24 0-24.5-1.3C285 433 317 404.5 326 392zm103-118c-9.9-4-16-16-18-25-4-6-9.9 1-11 6-7 54 29.5 28 29 19zm293 9c16 21 29.5 12 40 20.7 3 4 1 9.6-1 14-3 9-13 9-20 4.1-14.5-5.8-22-22.2-19-38.8z"/><path class="st40" d="M347 729c53.5 5 15 86 59 102 25 9 37-19.8 55-11.9 23 10.1 19.6 40 24 60.7 9.6 46 63 29.6 58-12.8"/><path class="st40" d="M519 861c89-9 47.5 119 114.5 115 39-6 35-47 25-76.5-3-9 0-18.5 7-24.5 24.5-21 59 15.5 84-2.5 15-11 8-33-2-45-12-15 0-32 10-43"/><path class="st40" d="M790 539c53 69.8-64 71 8 194.5 6 14 11 32 11 48.5 0 32-49 47.5-61 16"/><path class="st40" d="M721 287c2 51 64 31 74 88 6 34-11.5 71 7 103 10 18 27 31.5 34 51 8 19-4 47-27 42"/><path class="st40" d="M407 290.6c-16-8-12-29.9-2-41 17-15 40.5-10 61-6 29.8 1 49-29 75-38 50-17 81 55 133 44 23-5 48-11 69 1 25 14 33 55 10 75"/><path class="st40" d="M428 278c-16 26.5-51 17.5-76 28.5-20 10.5-28 33-23 55 10 47-43 51-39 88m25 4.5c1.5-23 35-26 41-5 7 25-13 47 16 72"/><path class="st40" d="M334 476c-20-34-61-31.5-89-9.6-20 8-43-3-64 4-22 7-28 37-5 43.5 6.5 2 23-2 26-1 15 4 11 25-5 30-21 6-10 29 6 29"/><path class="st40" d="M216 554.5c-15 15-14 41 2 55 37 22 41 31 36 69.7-2 31 46 41 53.5 10 2-10.8-4-22 0-33 13-32 44 20 62-44.5"/><path class="st40" d="M327 647.9c25 29.7-.5 47-7 75-10 32.5 34 65 53 25"/><path d="M729 262.5c9 4 16 13 18 22.5m-193-68c12.5 2 24.5 8 34 16m9 9 3 3m-163 10c-5.5-.9-12 .6-15.5 4M362 319.6c-9 2-14 10.7-16 19M339 449c4 1 6 6 6 9.8M308.5 470c-12-6-16-5-22-4M175 492c1-4 5-7 9-7.5m38 89.5c-4 8 0 16 4 19.9m44 78.6c-1 6 1 15 9 18m76-77.5c-3 14-13 14.5-16 16m4.5 119.5c-5-3-9-9-8-15M397 782c-1 14.5 7 28 14 30m90 53.9c-3 12 2 27 14.5 25M636 957c14-3 17-28 11-38m96-60.1c1-7 0-14-4-19m46-49.1c8-6.5 9-25 3-39M786 582c5-8 3-19-3-26m37-12c2-8.5-.6-18-7-24m-56-169c18 6 22 30 21 35" style="opacity:.7882;fill:none;stroke:#fff;stroke-width:10;stroke-linecap:round;stroke-linejoin:round;stroke-miterlimit:10;enable-background:new"/></g><linearGradient id="a15" gradientUnits="userSpaceOnUse" x1="238.934" y1="-556.918" x2="343.954" y2="-476.903" gradientTransform="translate(0 1066)"><stop offset="0" style="stop-color:#ff0040"/><stop offset=".125" style="stop-color:#ec0051"/><stop offset=".379" style="stop-color:#bb007e"/><stop offset=".736" style="stop-color:#6d00c6"/><stop offset="1" style="stop-color:#2f00ff"/></linearGradient><path style="fill:url(#a15)" d="M236 532.1c15 4 17 20 16 34-2 29 36 51 62 29 28-23-9-58 18-81-9-3.5-15 15-32 3.7-7-4-12-20-3-24-39 10-16 37-41 37-7-2.8-15-3.8-20 1.3z"/><path d="M288 499.9c-21.5 33 12 52-12 78.5-4 4-9.8 8-9.7 14 3 16 28 10.5 39 6.9 9-4 16.5-13 18-23.5.5-19.7-4-39-1-59-7 5-19 3.5-25-3-4.3-3.8-5.3-10.3-9.3-13.9z" style="opacity:.1882;fill:#fff;enable-background:new"/><path d="M236 532c15 4 17 20 16 34-2 29 36 51 62 29 28-23-9-58 18-81.3-9-3.5-15 15-32 4-7-4-12-20-3-24-39 10-16 37-41 37-7-2.7-15-3.7-20 1.3z" style="fill:none;stroke:#000;stroke-width:10;stroke-linecap:round;stroke-linejoin:round;stroke-miterlimit:10"/><path d="M254.5 527c20-8 9-29 36-32M233 534c12 7.5 15 22 14 35-2 31 39 49.7 62 29" style="opacity:.6;stroke:#000;enable-background:new;fill:none;stroke-width:10;stroke-linecap:round;stroke-linejoin:round;stroke-miterlimit:10"/><path d="M310 560.8c1 9-1 21-10 25m7-40.8c0 1 0 2 .5 3" style="fill:none;stroke:#fff;stroke-width:10;stroke-linecap:round;stroke-linejoin:round;stroke-miterlimit:10"/><style>.st40{fill:none;stroke:#000;stroke-width:10;stroke-linecap:round;stroke-linejoin:round;stroke-miterlimit:10}</style><g id="Duhh"><path d="M713 770.3c-107 104-373 27-163-65.2 27-9 49.7 7.5 69 24.1 37-16.2 72 8.8 94 41.1z" style="fill:#fe1767"/><path d="M711 767.2c-20-25-57.5-53.5-90.6-38-12-11-24-22-38-29.5C623 679.6 771 699 711 767.2z"/><path d="M611.5 726.5C562 714 507 740 474 776.7c-1-40 50-66 84-75.9 21-4.8 40 8.2 53.5 25.7zm27.5 28.1c-1-13 16-24 28-23.4-14-8-32-8-46-.1l18 23.5z" style="fill:#ae0f45"/><ellipse transform="rotate(-9.32 598.78 756.174)" class="st40" cx="599" cy="756" rx="128" ry="62"/><path class="st40" d="M571 699.3c27 9 50 29 64 54m-14-23.2c33.5-18.5 68 11 89 36M475 706c-26 21-48.5 57-26 89m272-111.6c27 10 48 49 27 77"/><path d="M475 706c-32 9.6-59 64-27 89m273-113.7c33 4 55 55 28.5 78M472 768.6c-19.6 91 222 65.8 246-6" style="opacity:.6;fill:none;stroke:#000;stroke-width:10;stroke-linecap:round;stroke-linejoin:round;stroke-miterlimit:10"/><path d="M588 723c7 5.5 13 12 18 18m8 12.5 1.5 2.5m43.5-13.2c7 3 14 7.5 19 13m9 10.2 3 3" style="opacity:.7686;fill:none;stroke:#fff;stroke-width:10;stroke-linecap:round;stroke-linejoin:round;stroke-miterlimit:10"/></g><style>.st68{stroke:#000;stroke-width:10;stroke-linecap:round;stroke-linejoin:round;stroke-miterlimit:10;opacity:.6;fill:none;enable-background:new}</style><g id="alien_00000145779733946831664370000009074345826783358107_"><linearGradient id="SVGID_00000134929046068304295460000003865380033506734480_" gradientUnits="userSpaceOnUse" x1="387.917" y1="548.513" x2="528.981" y2="548.513" gradientTransform="matrix(.9977 .06804 .06804 -.9977 -1.427 1023.765)"><stop offset="0" style="stop-color:#0f6"/><stop offset="1" style="stop-color:#09f"/></linearGradient><path style="fill:url(#SVGID_00000134929046068304295460000003865380033506734480_);stroke:#000;stroke-width:10;stroke-linecap:round;stroke-linejoin:round;stroke-miterlimit:10" d="M465 398c-61 37-45 158-3 205.5 49.6 48 94 18 99-50.8 4-54.2-22-199.7-96-154.7z"/><linearGradient id="SVGID_00000155142322038179041680000014658100529363488651_" gradientUnits="userSpaceOnUse" x1="592.641" y1="573.859" x2="716.733" y2="573.859" gradientTransform="matrix(.9977 .06804 .06804 -.9977 -1.427 1023.765)"><stop offset="0" style="stop-color:#0f6"/><stop offset="1" style="stop-color:#09f"/></linearGradient><path style="fill:url(#SVGID_00000155142322038179041680000014658100529363488651_);stroke:#000;stroke-width:10;stroke-linecap:round;stroke-linejoin:round;stroke-miterlimit:10" d="M648 437c-66 161 42 235 93 96 10-37 21-78 10-115-15-50-78-41-103 19z"/><path d="M484 434c8 36 15.5 72 22 108m209-121.1c-9 35-19 69-29.7 104" style="stroke:#000;stroke-width:10;stroke-linecap:round;stroke-linejoin:round;stroke-miterlimit:10;fill:none"/><path d="M677 547c-9.6-1-14 15-7 20 14 13 24-18 7-20zm-169 14.9c-15 2-12 28 3.5 23 13.5-3.4 11.5-25.1-3.5-23z" style="fill:#fff;stroke:#000;stroke-width:10;stroke-linecap:round;stroke-linejoin:round;stroke-miterlimit:10"/><path class="st68" d="M453.5 399c-81 54-6 303 87 216M693 384c-77 2.5-105 255-8 222.5"/><path class="st68" d="M478 433c8 36.5 16 73 22 110m-4 21c-9 12 5 34 18 25m196-171c-11.5 35-21.5 70-30 106m-13 21c-15 10-5 39.6 14 29.5"/><path d="M494 408c17 8 27 26 32 44m6 20 1 7m197-69.5c9 14 11 33 9.5 49M735 478c0 3-1 5.5-1 8" style="fill:none;stroke:#fff;stroke-width:10;stroke-linecap:round;stroke-linejoin:round;stroke-miterlimit:10"/></g><defs><linearGradient id="zba" x1="236.25" y1="315.23" x2="831.1" y2="276.55" gradientUnits="userSpaceOnUse"><stop offset="0" stop-color="#ffe600"/><stop offset=".1" stop-color="#ffd80d"/><stop offset=".29" stop-color="#ffb430"/><stop offset=".54" stop-color="#ff7a68"/><stop offset=".85" stop-color="#ff2bb4"/><stop offset="1" stop-color="#f0d"/></linearGradient><linearGradient id="zba-2" x1="170.69" y1="396.71" x2="297.01" y2="391.81" gradientUnits="userSpaceOnUse"><stop offset="0" stop-color="#ffe600"/><stop offset="1" stop-color="#fb00ff"/></linearGradient><style>.zba-3{fill:none;stroke-linecap:round;stroke-linejoin:round;stroke-width:10px;stroke:#000}</style></defs><path d="M302.4 418.1c-6.2 7-11.2 12.6-13.1 22.1-29.2-1-28-19.1-16.1-37.7 13.9-21.6 21.4-46.8 26-72.1 35.7-199.2 379.2-210.4 492.2-64.9 26.5 34.1 75.6 111.2 5.1 124.4-.2-10.9-.8-22.7-9.9-32.9-168.1-31.3-344.7 5.4-503.5 66.2 0 0 239.5-107.6 239.5-107.9 29.4 8.3 87.5 14 109.8-10.4 8-20.2-164.4-16.8-104.8 13.1Z" style="fill:url(#zba)"/><path d="M296.9 338.5c-48.3 49.4-111.6 56.7-124.8 82.1s53.4 39.7 98.4 14.9c-15.4-24.6 26.7-60.7 26.4-97Z" style="fill:url(#zba-2)"/><path class="zba-3" d="M809.2 361.3c-177.3-36.6-357.6-4.4-523.7 62.7"/><path class="zba-3" d="M302.4 418.1c-6.2 7-11.2 12.6-13.1 22.1-29.2-1-28-19.1-16.1-37.7 13.9-21.6 21.4-46.8 26-72.1 35.7-199.2 379.2-210.4 492.2-64.9 26.5 34.1 75.6 111.2 5.1 124.4-.2-10.9-.8-22.7-7.2-31.9"/><ellipse class="zba-3" cx="574.7" cy="306.2" rx="60.3" ry="15.5" transform="rotate(-2.5 584.699 310.79)"/><path class="zba-3" d="M295.3 339.7c-21.3 18.9-45.4 34.5-71 47.2-18.9 9.4-47 14.7-53 36-9.8 34.9 89.4 22.7 103.1 14.3"/><path d="M791.2 365.2c-164.8-31-336.1 1.8-493 60.8m332.7-121.7a180.2 180.2 0 0 0-112 3.5m291 54.9a39.2 39.2 0 0 0-12 4.3m-513.3 57.5a19.3 19.3 0 0 0 7 4.2m-3.2-79.8c-4.3 17.8-10.9 35.4-21 50.6-7.1 10.6-11.8 23.8-6.3 36" style="opacity:.6;stroke:#000;fill:none;stroke-linecap:round;stroke-linejoin:round;stroke-width:10px"/><path d="M701.6 218.9a130.2 130.2 0 0 1 51 36.9m12.4 15 3.4 4.4m-539.3 123L201 410.9m-10.2 6.5a7.5 7.5 0 0 0-3.5 3.1m154-150.5a141.8 141.8 0 0 1 46.7-43.8" style="stroke:#fff;fill:none;stroke-linecap:round;stroke-linejoin:round;stroke-width:10px"/><circle cx="550" cy="550" r="500" style="fill:none;stroke:#000;stroke-width:10;stroke-linecap:round;stroke-linejoin:round;stroke-miterlimit:10"/></svg>