<svg version="1.1" id="Layer_1" xmlns="http://www.w3.org/2000/svg" x="0" y="0" viewBox="0 0 1100 1100" style="enable-background:new 0 0 1100 1100" xml:space="preserve" xmlns:xlink="http://www.w3.org/1999/xlink"><style type="text/css">.st302{fill:#6A10EB;stroke:#000000;stroke-width:10;stroke-linecap:round;stroke-linejoin:round;stroke-miterlimit:10;}</style><circle class="st302" cx="550" cy="553.7" r="500"/><linearGradient id="a6" gradientUnits="userSpaceOnUse" x1="163.939" y1="511.702" x2="836.611" y2="511.702" gradientTransform="matrix(1 0 0 -1 0 1100)"><stop offset="0" style="stop-color:#ff0026"/><stop offset=".225" style="stop-color:#ff371c"/><stop offset=".604" style="stop-color:#ff8d0d"/><stop offset=".871" style="stop-color:#ffc404"/><stop offset="1" style="stop-color:#ffd900"/></linearGradient><path style="fill:url(#a6)" d="M533 209.1c-68 59.6-71 20-121 36.5-19.6 10.9-14 30-9.7 39.6 11 23-51 9-69 40.3-10 18 .1 42-7.5 61.8-9 19.6-34 35-37 52.2-43 48-154 7-119 70.4 6 11 33-6 39 9.1 7 17.5-39 29-21 46.7 18 5 21 39.9 57 63.2 14 20 3 51 19 69.1 35.8 38 46-25 41-34.3 4-39 44-11 22 38.7-23 52 11 74 36.5 56.6 24-9 13 39 23 50.9 19.5 37 55 12 67 12 18 1 28 22 29.8 40.3 6.5 63 54 46 59 8 15.5-34 45 49 47 59.9 11 73 69 42 71 17.9 3-54-3-60.1 2-68.3 18.5-31 71 13 90.8-15.5 14-19.7-31-63.5 8-55.4 94 19 19-101 14-120.4-9-35.5 14-106 47-121.7 18-9 17-35.5 7-52.8-9.5-17-25-30.6-31-48.9-13.5-54 22-102-36-133.3-5-3-7-9.5-4-14.4 17-26 1-66-32-71.4-22-3-44 9-66.5 6.3C616 247 579.9 178 533 209.1z"/><style>.st40{fill:none;stroke:#000;stroke-width:10;stroke-linecap:round;stroke-linejoin:round;stroke-miterlimit:10}.st98{opacity:.6;enable-background:new}</style><g id="Outline"><path class="st98" d="M793 537c-1 .7-1 2-.5 3 5 10 11 35 25 30 8-2 21-13 18-22.4-.5-1-2-2-3-1.5-26 12-28-11-39-9.4v.3zm-34 274.5c6 5 26 8 25-3-6-7-20.6-12-21.5-26C750 772 744 803 759 811.5zm-219.3 52s1 .5 1 .8c9 13.5-3 36-18 40-34 6-9-6-6-44 .3-5.3 22.3 2.7 23 3.2zM342 731c5 7-4 22-4 33 8 13 29.6-5 33-14.9 2-12-17-21-28-20.2-1 .1-1 1.1-1 2.1zm31-120.2c2 23-8 47-26 61.9-13 10.9-17.5-30.6-8-27.9 6 4.2 28-18.8 34-34zm-157-59.9c-8 6-17 3-25 1-11 5 4 20 13.5 16 5-4 12-9 12-15.7-.5-.2-1.5-.2-.5-1.3zM337 473c-6-10-3-23 0-34 0-1 0-2-.6-2-9-9-23 11-19.8 20.7C318 463 338 475 337 472.8v.2z"/><path class="st98" d="M326 392c-2 29 24 45 7 44-7 2-14 1-15 11-1 11-24 0-24.5-1.3C285 433 317 404.5 326 392zm103-118c-9.9-4-16-16-18-25-4-6-9.9 1-11 6-7 54 29.5 28 29 19zm293 9c16 21 29.5 12 40 20.7 3 4 1 9.6-1 14-3 9-13 9-20 4.1-14.5-5.8-22-22.2-19-38.8z"/><path class="st40" d="M347 729c53.5 5 15 86 59 102 25 9 37-19.8 55-11.9 23 10.1 19.6 40 24 60.7 9.6 46 63 29.6 58-12.8"/><path class="st40" d="M519 861c89-9 47.5 119 114.5 115 39-6 35-47 25-76.5-3-9 0-18.5 7-24.5 24.5-21 59 15.5 84-2.5 15-11 8-33-2-45-12-15 0-32 10-43"/><path class="st40" d="M790 539c53 69.8-64 71 8 194.5 6 14 11 32 11 48.5 0 32-49 47.5-61 16"/><path class="st40" d="M721 287c2 51 64 31 74 88 6 34-11.5 71 7 103 10 18 27 31.5 34 51 8 19-4 47-27 42"/><path class="st40" d="M407 290.6c-16-8-12-29.9-2-41 17-15 40.5-10 61-6 29.8 1 49-29 75-38 50-17 81 55 133 44 23-5 48-11 69 1 25 14 33 55 10 75"/><path class="st40" d="M428 278c-16 26.5-51 17.5-76 28.5-20 10.5-28 33-23 55 10 47-43 51-39 88m25 4.5c1.5-23 35-26 41-5 7 25-13 47 16 72"/><path class="st40" d="M334 476c-20-34-61-31.5-89-9.6-20 8-43-3-64 4-22 7-28 37-5 43.5 6.5 2 23-2 26-1 15 4 11 25-5 30-21 6-10 29 6 29"/><path class="st40" d="M216 554.5c-15 15-14 41 2 55 37 22 41 31 36 69.7-2 31 46 41 53.5 10 2-10.8-4-22 0-33 13-32 44 20 62-44.5"/><path class="st40" d="M327 647.9c25 29.7-.5 47-7 75-10 32.5 34 65 53 25"/><path d="M729 262.5c9 4 16 13 18 22.5m-193-68c12.5 2 24.5 8 34 16m9 9 3 3m-163 10c-5.5-.9-12 .6-15.5 4M362 319.6c-9 2-14 10.7-16 19M339 449c4 1 6 6 6 9.8M308.5 470c-12-6-16-5-22-4M175 492c1-4 5-7 9-7.5m38 89.5c-4 8 0 16 4 19.9m44 78.6c-1 6 1 15 9 18m76-77.5c-3 14-13 14.5-16 16m4.5 119.5c-5-3-9-9-8-15M397 782c-1 14.5 7 28 14 30m90 53.9c-3 12 2 27 14.5 25M636 957c14-3 17-28 11-38m96-60.1c1-7 0-14-4-19m46-49.1c8-6.5 9-25 3-39M786 582c5-8 3-19-3-26m37-12c2-8.5-.6-18-7-24m-56-169c18 6 22 30 21 35" style="opacity:.7882;fill:none;stroke:#fff;stroke-width:10;stroke-linecap:round;stroke-linejoin:round;stroke-miterlimit:10;enable-background:new"/></g><style>.st40,.st68{fill:none;stroke-width:10;stroke-linecap:round;stroke-linejoin:round;stroke-miterlimit:10;stroke:#000}.st68{opacity:.6;enable-background:new}</style><g id="Happy"><path d="M472 678c-67.5 48.5 23 111 67 136.9 53 31 146 29 172-35-2-70.4-182-75.9-239-101.9z" style="fill:#fe1767"/><path d="M447 712c54-27 129.6 24 175.5 51 14 42 9-12 57-12 23 0-30-7-35-8.8-66-23-92-57-161-63C468 678 449.6 693 447 712z" style="fill:#ac1045"/><path d="M581 704c11 15 22 34 39 40.9 83-28 84 57 101 20 25-53.9 29-111.9-140-61.3v.4z"/><path d="M576 729.8c14 7 21 22 27 36m7 14c1 2 2 4 2 6m47-31.8c11 1 21 8 26 18" style="fill:none;stroke:#fff;stroke-width:10;stroke-linecap:round;stroke-linejoin:round;stroke-miterlimit:10"/><path class="st68" d="M702 653c15.5-2 51 9 55 47.5m-287-46c-24-3-49 19-51 43.5"/><path class="st40" d="M574 830.5c152.5 49 229.9-198 74-142-112 40.5-154-33-189-2.7-55 48.2 62 127.7 115 144.7zM471 656c-23 0-46 19.8-50 43"/><path class="st40" d="M701 655c27-1 48 20 54 46m-191 0c36 17.5 57 51 70 85m-15-37c34-21 74-6 93 28"/><path class="st68" d="M453 692c-84 69 216 256 268 72"/></g><defs><linearGradient id="zk" x1="474.52" y1="537.34" x2="581.87" y2="537.34" gradientUnits="userSpaceOnUse"><stop offset="0" stop-color="#ff003b"/><stop offset="1" stop-color="#ffc400"/></linearGradient><linearGradient id="zk-2" x1="613.35" y1="577.54" x2="714.17" y2="577.54" xlink:href="#zk"/><style>.zk-4{fill:#fff}.zk-5,.zk-6{fill:none;stroke-linecap:round;stroke-linejoin:round;stroke-width:10px;stroke:#000}.zk-6{opacity:.6}</style></defs><path d="M576 489.1c-17.4-85.3-98.8-65.1-101.4 39.1-2.3 90 96.1 176.5 107.3 38.1Z" style="fill:url(#zk)"/><path d="M613.4 565.6c29.9 106.6 123 59.5 95.9-37Z" style="fill:url(#zk-2)"/><path d="M526.5 440.7c50.5 50 45.2 135.7 17 196 37.7 7.8 36-81.4 36.3-112.5 1-81.4-43.2-91.8-53.3-83.5Zm170 106.9c-2 25.4-12.1 49-23.7 71.4-4.3 25.7 52.1-24.9 39.8-78.7Z" style="fill:#94948a"/><path class="zk-4" d="M488.9 586.9c21.3-28.5 56.9-35.5 90.4-25.6 209.2 62.3 134.9-215.9 35.6-107.9-37.2 40.4-82.4 88.4-138 60.2-6.4 25-1.7 51.5 12 73.3Z"/><path class="zk-4" d="M708.7 467.1c18.2-7.9 25.2-30.7 41.5-41.9 114.2-78.4 170.2 163.9-51.5 120.6Z"/><path class="zk-5" d="M576 489.1c-17.4-85.3-98.8-65.1-101.4 39.1-2.3 90 96.1 176.5 107.3 38.1"/><path class="zk-5" d="M521.5 438.1a99.2 99.2 0 0 1 38.2 65.5m2.1 56c4.3 26.8-6.9 54.1-21.2 77.1"/><path class="zk-5" d="M477.4 513.2c55.1 28.6 100.3-19.4 137.5-59.8 99.3-108 173.6 170.2-35.6 107.9-33.5-9.9-69.1-2.9-90.4 25.6"/><path class="zk-5" d="M708.7 467.1c18.2-7.9 25.2-30.7 41.5-41.9 114.2-78.4 170.2 163.9-51.5 120.6m-82.1 27c4.9 42.5 82.5 107.7 99.3-22.9v1.2"/><path class="zk-5" d="M697.1 548.4c-1.4 23.6-13.3 56.8-29 77.6m.3-167.4a76.1 76.1 0 0 1 14.7 67.5m124.8-91.3a69.7 69.7 0 0 1 13 61.3"/><path class="zk-6" d="M506.3 441.7c-72.3 36.4-27.5 243.7 48.6 193.6m29.5-66.9a99.1 99.1 0 0 0 26.3 7.9c5.9 26.1 32.6 61.4 62.5 50.7m41.1-160c11.4 24.2 5.2 52.5-6.1 75.6m9.7 11.9c38.6 9.2 83.9 1.6 114.9-24.2"/><path class="zk-6" d="M481.5 517.8a138.1 138.1 0 0 0 8.7 61.4"/><path d="M522.6 458.1a49.6 49.6 0 0 1 12.4 20.3m4.2 11.4.6 3.3m10.6 79.3a92.1 92.1 0 0 1-7.9 27.3m-5.1 11.6-1.5 3M676 580.6a72.7 72.7 0 0 1-9.6 21.9" style="stroke:#fff;fill:none;stroke-linecap:round;stroke-linejoin:round;stroke-width:10px"/><style>.st231{fill:none;stroke:#000;stroke-width:10;stroke-linecap:round;stroke-linejoin:round;stroke-miterlimit:10}</style><g id="Layer_69"><path d="M357 479c41.5-7 15.5-83 75-83.3 64-.6 56-52 173-19 36 10 64.5-10 81-11 34-1.5 77 67 108 4.7-1-6-3.5-12-7-16.9 7 10.9 10.7 24 11 36.5 27.5-15.5 8-44 7-52-3-29 24-47-10-71.1-63-44 6-91-33.5-132.8-14-15-39 3-40.7 19.4-1 10.6 6 20 10 30 16 38.5-25 58-46.5 21.6-24-47-38-40-87-34.4-36 4-29-30.8-48-43-20.9-7-44 15-47 34.7-2 13 3 26 1 38.5-3 20-26 13-31.5-2.4-8-22-5-51-25-66.8-19-14-47 .9-47 24.4 0 9.6 5 18.5 10 26.5 40 59 0 65.5-9.6 57-5-5-7-14-14-14.9-17-.9-10 24-18 30.1-5 3.5-12-1-15-6.8-4-10 5-28-13-32.1-38-8-54 56-40.9 90.8 15 40-13 44-20.5 37.8-8.5-7 0-27-17-27.9-29.6-2-42 46-31 71.7 9.6 22 35 39 35 65.3 15-13 40.6-4 55.5 5.7-26.3-28.4 50.2-49.8 35.7 19.7z" style="fill:#3bed94"/><path class="st231" d="M315 454c1.5-23 35-26 41-5 7 25-13 47 16 72.4"/><path class="st231" d="M334 475.6c-20-34-61-31.5-89-9.6-20 8-43-3-64 4.1-22 7-28 37.5-5 43.5 6.5 2 23-2 26-1.1 15 4 11 25-5 30.1-21 6-10 29 6 29"/><path class="st231" d="M357 479c41.5-7 15.5-83 75-83.3 64-.6 56-52 173-19 36 10 64.5-10 81-11 34-1.5 77 67 108 4.7-1-6-3.5-12-7-16.9 7 10.9 10.7 24 11 36.5 27.5-15.5 8-44 7-52-3-29 24-47-10-71.1-63-44 6-91-33.5-132.8-14-15-39 3-40.7 19.4-1 10.6 6 20 10 30 16 38.5-25 58-46.5 21.6-24-47-38-40-87-34.4-36 4-29-30.8-48-43-20.9-7-44 15-47 34.7-2 13 3 26 1 38.5-3 20-26 13-31.5-2.4-8-22-5-51-25-66.8-19-14-47 .9-47 24.4 0 9.6 5 18.5 10 26.5 40 59 0 65.5-9.6 57-5-5-7-14-14-14.9-17-.9-10 24-18 30.1-5 3.5-12-1-15-6.8-4-10 5-28-13-32.1-38-8-54 56-40.9 90.8 15 40-13 44-20.5 37.8-8.5-7 0-27-17-27.9-29.6-2-42 46-31 71.7 9.6 22 35 39 34 64.9"/><path d="M795 382.6c-36 44-83-4-101-8.6-22.5-5-45 14-68 10.4-79-12-89-22-172 13.6-16 7-35 4-49 15-22 18-15 66-48 72.9" style="opacity:.6;fill:none;stroke:#000;stroke-width:10;stroke-linecap:round;stroke-linejoin:round;stroke-miterlimit:10;enable-background:new"/><path d="M750.5 143.7c4 5 7 12 7 18.7m.5 14.2v5m28 96.1c6 3 10 9 12 15M644.5 179.6c9 3 15 11 19.5 18.7m6.5 11.6c1 2 2 3 2.5 5M538 140c6 1 11 5 14 10.3m4 12c.5 1 1 2 1.5 3.6m-126.6-25.8c7 .9 14 6 17 12.4m2 12.5c.6 2 1 4 2 5.7M325 236c-9.6 9-12 23-13 35.5m0 14.5c0 3 0 5 .6 7.8M249.7 340c-6 9-8 21-5 31.6m6 14.2c.9 2 2 3 3 5.1M768 378.6c-7 2-14 1-20-2.9m-13-7.9c-1-.9-3-2-4-2.7m-118-4.6c12 2 24 2 36-1.8m-210 19.8c12-.5 23-4 33-10m-46 12.1c-2 0-3.5 0-5 .4" style="stroke:#fff;fill:none;stroke-width:10;stroke-linecap:round;stroke-linejoin:round;stroke-miterlimit:10"/></g><circle cx="550" cy="550" r="500" style="fill:none;stroke:#000;stroke-width:10;stroke-linecap:round;stroke-linejoin:round;stroke-miterlimit:10"/></svg>