<svg version="1.1" id="Layer_1" xmlns="http://www.w3.org/2000/svg" x="0" y="0" viewBox="0 0 1100 1100" style="enable-background:new 0 0 1100 1100" xml:space="preserve" xmlns:xlink="http://www.w3.org/1999/xlink"><style type="text/css">.st301{fill:#005BEF;stroke:#000000;stroke-width:10;stroke-linecap:round;stroke-linejoin:round;stroke-miterlimit:10;}</style><circle class="st301" cx="550" cy="553.7" r="500"/><linearGradient id="a8" gradientUnits="userSpaceOnUse" x1="558.119" y1="436.228" x2="806.198" y2="309.187" gradientTransform="matrix(1 0 0 -1 0 1100)"><stop offset="0" style="stop-color:#03fcf4"/><stop offset=".089" style="stop-color:#03f2f4"/><stop offset=".244" style="stop-color:#03d5f5"/><stop offset=".446" style="stop-color:#03a8f7"/><stop offset=".686" style="stop-color:#0368f9"/><stop offset=".957" style="stop-color:#0318fc"/><stop offset="1" style="stop-color:#030bfc"/></linearGradient><path style="fill:url(#a8)" d="M777.5 632.2c-21 64 38 96 31 151-4 29-37 44-59 23-39 0 84 96-74 61.8l-98-255 200 19v.2z"/><linearGradient id="b4" gradientUnits="userSpaceOnUse" x1="173.214" y1="619.428" x2="438.218" y2="483.425" gradientTransform="matrix(1 0 0 -1 0 1100)"><stop offset="0" style="stop-color:#03fcf4"/><stop offset=".089" style="stop-color:#03f2f4"/><stop offset=".244" style="stop-color:#03d5f5"/><stop offset=".446" style="stop-color:#03a8f7"/><stop offset=".686" style="stop-color:#0368f9"/><stop offset=".957" style="stop-color:#0318fc"/><stop offset="1" style="stop-color:#030bfc"/></linearGradient><path style="fill:url(#b4)" d="M331 377.1c-59 101.5-46 59.7-77 80.7-27 18-93-2-93 37 6 29.8 36 8.5 48 20 16.5 28-46 23-13 56.7 10.7-1 12 9.6 12 18 0 41 56 5 46 90 6 41 63 35 53.5-7.9-12-53.5 59-31 9.6 55.8-4 34 41 54 54.5 19l-42-202.6 70.9-144.5L331 377v.1z"/><linearGradient id="c3" gradientUnits="userSpaceOnUse" x1="342.781" y1="569.57" x2="468.781" y2="505.57" gradientTransform="matrix(1 0 0 -1 0 1100)"><stop offset="0" style="stop-color:#03fcf4"/><stop offset=".089" style="stop-color:#03f2f4"/><stop offset=".244" style="stop-color:#03d5f5"/><stop offset=".446" style="stop-color:#03a8f7"/><stop offset=".686" style="stop-color:#0368f9"/><stop offset=".957" style="stop-color:#0318fc"/><stop offset="1" style="stop-color:#030bfc"/></linearGradient><path style="fill:url(#c3)" d="M331 545c2 0 123 8 129 8.3l-5 70.8-124-79.4v.3z"/><linearGradient id="d3" gradientUnits="userSpaceOnUse" x1="192.925" y1="662.852" x2="343.925" y2="585.852" gradientTransform="matrix(1 0 0 -1 0 1100)"><stop offset="0" style="stop-color:#03fcf4"/><stop offset=".089" style="stop-color:#03f2f4"/><stop offset=".244" style="stop-color:#03d5f5"/><stop offset=".446" style="stop-color:#03a8f7"/><stop offset=".686" style="stop-color:#0368f9"/><stop offset=".957" style="stop-color:#0318fc"/><stop offset="1" style="stop-color:#030bfc"/></linearGradient><path style="fill:url(#d3)" d="M333 383s39.8 16 59 24.2L330 545s-123 30.6-123 30c-9.6-3-26-12-19.7-22 10.9-17 59-39.8-12-39.8-19.7 0-16-35 1-41.8 10-4 15 11 103-20C305 426 320 398 333 382.6v.4z"/><linearGradient id="e3" gradientUnits="userSpaceOnUse" x1="286.992" y1="458.984" x2="489.992" y2="354.984" gradientTransform="matrix(1 0 0 -1 0 1100)"><stop offset="0" style="stop-color:#03fcf4"/><stop offset=".089" style="stop-color:#03f2f4"/><stop offset=".244" style="stop-color:#03d5f5"/><stop offset=".446" style="stop-color:#03a8f7"/><stop offset=".686" style="stop-color:#0368f9"/><stop offset=".957" style="stop-color:#0318fc"/><stop offset="1" style="stop-color:#030bfc"/></linearGradient><path style="fill:url(#e3)" d="M370 736.6c-12-64-28-126.5-40-191.7l125 79.3 33.5-10s-33 200-33 201C369 878 384 757 370 736.6z"/><linearGradient id="f3" gradientUnits="userSpaceOnUse" x1="439.222" y1="373.432" x2="708.222" y2="235.432" gradientTransform="matrix(1 0 0 -1 0 1100)"><stop offset="0" style="stop-color:#03fcf4"/><stop offset=".089" style="stop-color:#03f2f4"/><stop offset=".244" style="stop-color:#03d5f5"/><stop offset=".446" style="stop-color:#03a8f7"/><stop offset=".686" style="stop-color:#0368f9"/><stop offset=".957" style="stop-color:#0318fc"/><stop offset="1" style="stop-color:#030bfc"/></linearGradient><path style="fill:url(#f3)" d="M455 817.1c11.5-68 23-137 34-204.8l103 38s83.5 217 83 217c-38 12 25 108-48 107.6-50-5-29-103-86-109.9 4 32-31 59.6-51 25-12-24.5-2-61-35-72.9z"/><linearGradient id="g1" gradientUnits="userSpaceOnUse" x1="532.938" y1="679.879" x2="827.935" y2="528.88" gradientTransform="matrix(1 0 0 -1 0 1100)"><stop offset="0" style="stop-color:#03fcf4"/><stop offset=".089" style="stop-color:#03f2f4"/><stop offset=".244" style="stop-color:#03d5f5"/><stop offset=".446" style="stop-color:#03a8f7"/><stop offset=".686" style="stop-color:#0368f9"/><stop offset=".957" style="stop-color:#0318fc"/><stop offset="1" style="stop-color:#030bfc"/></linearGradient><path style="fill:url(#g1)" d="M795 370.7c7.5 30-8 63 0 93.1 9 34 71 72 29.9 108-18 0-17-9-46 67.3l-200.8-12.3-28-255.8h244.8l.1-.3z"/><linearGradient id="h1" gradientUnits="userSpaceOnUse" x1="638.618" y1="629.254" x2="830.554" y2="531.286" gradientTransform="matrix(1 0 0 -1 0 1100)"><stop offset="0" style="stop-color:#03fcf4"/><stop offset=".089" style="stop-color:#03f2f4"/><stop offset=".244" style="stop-color:#03d5f5"/><stop offset=".446" style="stop-color:#03a8f7"/><stop offset=".686" style="stop-color:#0368f9"/><stop offset=".957" style="stop-color:#0318fc"/><stop offset="1" style="stop-color:#030bfc"/></linearGradient><path style="fill:url(#h1)" d="M774 639c-53.5-3.5-104-6-159-9.6l-39.9-44.1 29-8.4 24.5-69.5s164-129.5 165.5-128c-13 153 35 82 43 169.7 3 32-32 17-35 33.1C797 601.5 788 620 774 638.8v.2z"/><linearGradient id="i1" gradientUnits="userSpaceOnUse" x1="614.019" y1="789.038" x2="783.019" y2="703.038" gradientTransform="matrix(1 0 0 -1 0 1100)"><stop offset="0" style="stop-color:#03fcf4"/><stop offset=".089" style="stop-color:#03f2f4"/><stop offset=".244" style="stop-color:#03d5f5"/><stop offset=".446" style="stop-color:#03a8f7"/><stop offset=".686" style="stop-color:#0368f9"/><stop offset=".957" style="stop-color:#0318fc"/><stop offset="1" style="stop-color:#030bfc"/></linearGradient><path style="fill:url(#i1)" d="m642 247.4-59.5 171.4c70.9-9.6 146-17 213-42 7-26-22.5-44-43-50C809 236 695 243 642 247v.4z"/><linearGradient id="j1" gradientUnits="userSpaceOnUse" x1="442.133" y1="833.26" x2="643.133" y2="730.26" gradientTransform="matrix(1 0 0 -1 0 1100)"><stop offset="0" style="stop-color:#03fcf4"/><stop offset=".089" style="stop-color:#03f2f4"/><stop offset=".244" style="stop-color:#03d5f5"/><stop offset=".446" style="stop-color:#03a8f7"/><stop offset=".686" style="stop-color:#0368f9"/><stop offset=".957" style="stop-color:#0318fc"/><stop offset="1" style="stop-color:#030bfc"/></linearGradient><path style="fill:url(#j1)" d="M449.9 240c10 4 22 4 33 1.1 14-4 25-15 36.5-24 11-9 25-17 39-17s27 9 38 17c16 12 32.5 25 52 32.5l-58 224.1L449.9 240z"/><linearGradient id="k" gradientUnits="userSpaceOnUse" x1="357.104" y1="807.111" x2="658.067" y2="653.13" gradientTransform="matrix(1 0 0 -1 0 1100)"><stop offset="0" style="stop-color:#03fcf4"/><stop offset=".089" style="stop-color:#03f2f4"/><stop offset=".244" style="stop-color:#03d5f5"/><stop offset=".446" style="stop-color:#03a8f7"/><stop offset=".686" style="stop-color:#0368f9"/><stop offset=".957" style="stop-color:#0318fc"/><stop offset="1" style="stop-color:#030bfc"/></linearGradient><path style="fill:url(#k)" d="M462 244c-10-2.5-21-5-32-4.5s-22 4-29 12.1-9 21-3 29.6c3 4 7 8 5 12-1.5 3.5-6 4-9.8 4-14 0-27 2-39.7 7.9-12 6-23 16-27 29-2 6-2 13-2 19.7 0 9 1 18 3 26.5l300 126.5-49-106.6L462 244z"/><linearGradient id="l" gradientUnits="userSpaceOnUse" x1="435.046" y1="589.091" x2="595.046" y2="507.091" gradientTransform="matrix(1 0 0 -1 0 1100)"><stop offset="0" style="stop-color:#03fcf4"/><stop offset=".089" style="stop-color:#03f2f4"/><stop offset=".244" style="stop-color:#03d5f5"/><stop offset=".446" style="stop-color:#03a8f7"/><stop offset=".686" style="stop-color:#0368f9"/><stop offset=".957" style="stop-color:#0318fc"/><stop offset="1" style="stop-color:#030bfc"/></linearGradient><path style="fill:url(#l)" d="M629.6 507.4c-8 23-16 47-25 70.4l-149.9 46.8 12-185.6 163 68v.4z"/><linearGradient id="m" gradientUnits="userSpaceOnUse" x1="506.773" y1="513.561" x2="653.773" y2="437.561" gradientTransform="matrix(1 0 0 -1 0 1100)"><stop offset="0" style="stop-color:#03fcf4"/><stop offset=".089" style="stop-color:#03f2f4"/><stop offset=".244" style="stop-color:#03d5f5"/><stop offset=".446" style="stop-color:#03a8f7"/><stop offset=".686" style="stop-color:#0368f9"/><stop offset=".957" style="stop-color:#0318fc"/><stop offset="1" style="stop-color:#030bfc"/></linearGradient><path style="fill:url(#m)" d="M578 586.2c-31 9-58 17-89.8 27.9l163 56.8L578 586v.2z"/><linearGradient id="n" gradientUnits="userSpaceOnUse" x1="441.998" y1="531.996" x2="496.998" y2="503.996" gradientTransform="matrix(1 0 0 -1 0 1100)"><stop offset="0" style="stop-color:#03fcf4"/><stop offset=".089" style="stop-color:#03f2f4"/><stop offset=".244" style="stop-color:#03d5f5"/><stop offset=".446" style="stop-color:#03a8f7"/><stop offset=".686" style="stop-color:#0368f9"/><stop offset=".957" style="stop-color:#0318fc"/><stop offset="1" style="stop-color:#030bfc"/></linearGradient><path style="fill:url(#n)" d="M461 527.8c-2 34-4 65-6 96.7l34-10.6-28-86.1z"/><linearGradient id="o" gradientUnits="userSpaceOnUse" x1="359.947" y1="627.897" x2="470.947" y2="570.897" gradientTransform="matrix(1 0 0 -1 0 1100)"><stop offset="0" style="stop-color:#03fcf4"/><stop offset=".089" style="stop-color:#03f2f4"/><stop offset=".244" style="stop-color:#03d5f5"/><stop offset=".446" style="stop-color:#03a8f7"/><stop offset=".686" style="stop-color:#0368f9"/><stop offset=".957" style="stop-color:#0318fc"/><stop offset="1" style="stop-color:#030bfc"/></linearGradient><path style="fill:url(#o)" d="M391 406.9c-21 48.5-38 86-61 138l129.5 9.1 7.5-115.1-76-32z"/><style>.st40{fill:none;stroke:#000;stroke-width:10;stroke-linecap:round;stroke-linejoin:round;stroke-miterlimit:10}.st98{opacity:.6;enable-background:new}</style><g id="Outline"><path class="st98" d="M793 537c-1 .7-1 2-.5 3 5 10 11 35 25 30 8-2 21-13 18-22.4-.5-1-2-2-3-1.5-26 12-28-11-39-9.4v.3zm-34 274.5c6 5 26 8 25-3-6-7-20.6-12-21.5-26C750 772 744 803 759 811.5zm-219.3 52s1 .5 1 .8c9 13.5-3 36-18 40-34 6-9-6-6-44 .3-5.3 22.3 2.7 23 3.2zM342 731c5 7-4 22-4 33 8 13 29.6-5 33-14.9 2-12-17-21-28-20.2-1 .1-1 1.1-1 2.1zm31-120.2c2 23-8 47-26 61.9-13 10.9-17.5-30.6-8-27.9 6 4.2 28-18.8 34-34zm-157-59.9c-8 6-17 3-25 1-11 5 4 20 13.5 16 5-4 12-9 12-15.7-.5-.2-1.5-.2-.5-1.3zM337 473c-6-10-3-23 0-34 0-1 0-2-.6-2-9-9-23 11-19.8 20.7C318 463 338 475 337 472.8v.2z"/><path class="st98" d="M326 392c-2 29 24 45 7 44-7 2-14 1-15 11-1 11-24 0-24.5-1.3C285 433 317 404.5 326 392zm103-118c-9.9-4-16-16-18-25-4-6-9.9 1-11 6-7 54 29.5 28 29 19zm293 9c16 21 29.5 12 40 20.7 3 4 1 9.6-1 14-3 9-13 9-20 4.1-14.5-5.8-22-22.2-19-38.8z"/><path class="st40" d="M347 729c53.5 5 15 86 59 102 25 9 37-19.8 55-11.9 23 10.1 19.6 40 24 60.7 9.6 46 63 29.6 58-12.8"/><path class="st40" d="M519 861c89-9 47.5 119 114.5 115 39-6 35-47 25-76.5-3-9 0-18.5 7-24.5 24.5-21 59 15.5 84-2.5 15-11 8-33-2-45-12-15 0-32 10-43"/><path class="st40" d="M790 539c53 69.8-64 71 8 194.5 6 14 11 32 11 48.5 0 32-49 47.5-61 16"/><path class="st40" d="M721 287c2 51 64 31 74 88 6 34-11.5 71 7 103 10 18 27 31.5 34 51 8 19-4 47-27 42"/><path class="st40" d="M407 290.6c-16-8-12-29.9-2-41 17-15 40.5-10 61-6 29.8 1 49-29 75-38 50-17 81 55 133 44 23-5 48-11 69 1 25 14 33 55 10 75"/><path class="st40" d="M428 278c-16 26.5-51 17.5-76 28.5-20 10.5-28 33-23 55 10 47-43 51-39 88m25 4.5c1.5-23 35-26 41-5 7 25-13 47 16 72"/><path class="st40" d="M334 476c-20-34-61-31.5-89-9.6-20 8-43-3-64 4-22 7-28 37-5 43.5 6.5 2 23-2 26-1 15 4 11 25-5 30-21 6-10 29 6 29"/><path class="st40" d="M216 554.5c-15 15-14 41 2 55 37 22 41 31 36 69.7-2 31 46 41 53.5 10 2-10.8-4-22 0-33 13-32 44 20 62-44.5"/><path class="st40" d="M327 647.9c25 29.7-.5 47-7 75-10 32.5 34 65 53 25"/><path d="M729 262.5c9 4 16 13 18 22.5m-193-68c12.5 2 24.5 8 34 16m9 9 3 3m-163 10c-5.5-.9-12 .6-15.5 4M362 319.6c-9 2-14 10.7-16 19M339 449c4 1 6 6 6 9.8M308.5 470c-12-6-16-5-22-4M175 492c1-4 5-7 9-7.5m38 89.5c-4 8 0 16 4 19.9m44 78.6c-1 6 1 15 9 18m76-77.5c-3 14-13 14.5-16 16m4.5 119.5c-5-3-9-9-8-15M397 782c-1 14.5 7 28 14 30m90 53.9c-3 12 2 27 14.5 25M636 957c14-3 17-28 11-38m96-60.1c1-7 0-14-4-19m46-49.1c8-6.5 9-25 3-39M786 582c5-8 3-19-3-26m37-12c2-8.5-.6-18-7-24m-56-169c18 6 22 30 21 35" style="opacity:.7882;fill:none;stroke:#fff;stroke-width:10;stroke-linecap:round;stroke-linejoin:round;stroke-miterlimit:10;enable-background:new"/></g><style>.st113{fill:url(#SVGID_00000161607897382723119130000008384714424499667899_);stroke:#000;stroke-width:10;stroke-linecap:round;stroke-linejoin:round;stroke-miterlimit:10}.st115{fill:url(#SVGID_00000060750496457387242310000012666657064974295186_)}.st116{opacity:.6902;fill:url(#SVGID_00000147217783223614028420000005859567438160853156_);enable-background:new}</style><g id="Diamond"><linearGradient id="SVGID_00000047747315158047275670000003291867314489516677_" gradientUnits="userSpaceOnUse" x1="288.392" y1="548.057" x2="314.227" y2="509.458"><stop offset="0" style="stop-color:#00fff2"/><stop offset=".094" style="stop-color:#00f2f3"/><stop offset=".271" style="stop-color:#00cef5"/><stop offset=".51" style="stop-color:#0095f8"/><stop offset=".799" style="stop-color:#0047fc"/><stop offset="1" style="stop-color:#000dff"/></linearGradient><path style="fill:url(#SVGID_00000047747315158047275670000003291867314489516677_)" d="M288 501.7c2 15 4 33 7 46.8l29-6.4-36-40.4z"/><linearGradient id="SVGID_00000141446425912342851330000003408777914311007933_" gradientUnits="userSpaceOnUse" x1="267.149" y1="523.397" x2="303.78" y2="545.402"><stop offset="0" style="stop-color:#00fff2"/><stop offset=".095" style="stop-color:#00f1f3"/><stop offset=".273" style="stop-color:#00cef5"/><stop offset=".514" style="stop-color:#0094f8"/><stop offset=".807" style="stop-color:#0045fc"/><stop offset="1" style="stop-color:#000dff"/></linearGradient><path style="fill:url(#SVGID_00000141446425912342851330000003408777914311007933_)" d="M264 553.5c10-2 20.5-4 30.7-5.8l-6-43.6-24.7 49.4z"/><linearGradient id="SVGID_00000109030460764858650640000015191774076603487363_" gradientUnits="userSpaceOnUse" x1="274.137" y1="586.606" x2="296.946" y2="541.468"><stop offset="0" style="stop-color:#00fff2"/><stop offset="1" style="stop-color:#000dff"/></linearGradient><path style="fill:url(#SVGID_00000109030460764858650640000015191774076603487363_)" d="m260.1 554 34.9-6.3 6 45.4z"/><linearGradient id="SVGID_00000006686354308698079230000008291800467576291461_" gradientUnits="userSpaceOnUse" x1="288.999" y1="550.828" x2="317.454" y2="572.732"><stop offset="0" style="stop-color:#00fff2"/><stop offset=".125" style="stop-color:#00e8f3"/><stop offset=".388" style="stop-color:#00abf6"/><stop offset=".764" style="stop-color:#004cfc"/><stop offset="1" style="stop-color:#000dff"/></linearGradient><path style="fill:url(#SVGID_00000006686354308698079230000008291800467576291461_)" d="M301 593.8c-3-16-4-28.5-7-46.1l26.5-5.6-19.5 51.7z"/><path style="fill:none;stroke:#000;stroke-width:10;stroke-linecap:round;stroke-linejoin:round;stroke-miterlimit:10" d="m287 495-27.1 58.9L303 602l23-60.6z"/><path d="M282 493.7c-9.8 22-19 40.6-28 60.8l46 52" style="opacity:.6;fill:none;stroke:#000;stroke-width:10;stroke-linecap:round;stroke-linejoin:round;stroke-miterlimit:10"/></g><style>.st40{fill:none;stroke-width:10;stroke-linecap:round;stroke-linejoin:round;stroke-miterlimit:10;stroke:#000}.st152{fill:#ae0f45}</style><g id="Vamp"><path d="M429 737.5c57 100 248 114 303 5-22.3-58.5-275-50.5-303-5z" style="fill:#fe1767"/><path class="st152" d="M637 761.5c-120-80.6-205 29-203-19-10-23 154-62.9 203 19z"/><path class="st152" d="M647 768c5-34 49-35 50.9-46-22-15-59.5 0-75 19.8l24 25.8v.4z"/><path d="M575 734c14 4.5 26 13 36 24m8 10.5c1 1 2 2.5 3 4m35-31c5-1 10.5-2 15 0m31 3c3 0 5.5 1 8 3" style="fill:none;stroke:#fff;stroke-width:10;stroke-linecap:round;stroke-linejoin:round;stroke-miterlimit:10"/><path d="M424 720.7c2 37.5 43-33 182 8 35 26 59-19.8 114 5.9 41 19 50-119.8-20.7-73.1-44 22-97 39.6-147 39C508 695 427 639.7 424 720.7z"/><path d="M489.6 686c7 18 14 37 21 55 1.4 4 52.4-57.5-21-55zm214.4-7c-4.5 21-14 81-20 55-4-18-15-38-28-50.6-4-2.4 73.5-48.4 48-4.4z" style="fill:#fff"/><path d="m507 692.7.7-3c-9 12 9 41 3 52-5-5-18-44-21-58.7v2l17.3 7.7zM676 674c6 41 18 53 13.5 59.6-12-12-33-49.8-34-53.1l-1 1.1L676 674z" style="fill:#b3b3b3"/><path class="st40" d="M703 659.7c-65 28-131 58-200 28-99-43-102 58.5-29.7 98.5 49.7 27.5 109.6 43 166 29.7 42-10 124-71 111-147.5-4.3-24.9-27.3-17.4-47.3-8.7z"/><path class="st40" d="M484 684c14 23 23 49 28 76 4-21.5 11-42 21.5-62M653 684c19 17 28 42 37 66 7-30 10.7-67 24-92m-186 57c44-6 90 16 116.5 51.5"/><path class="st40" d="M621 739.9c18-9.5 38-12 58-11m16-.4c13 0 25 6 36 13M499 718c-24-1.5-48 4.5-68 17"/></g><defs><linearGradient id="zl" x1="574.42" y1="410.83" x2="618.38" y2="675.51" gradientUnits="userSpaceOnUse"><stop offset="0" stop-color="#00ff19"/><stop offset=".22" stop-color="#00fa46"/><stop offset=".7" stop-color="#00eeb6"/><stop offset="1" stop-color="#00e6ff"/></linearGradient><style>.zl-3{fill:none;stroke-linecap:round;stroke-linejoin:round;stroke-width:10px;stroke:#000}</style></defs><path d="M746.4 534.9c13.5 7.2 27.2-7.7 21.7-22.5-4.6-12.5-17-13.9-17-35.5 0-45.9-85.7-81.3-142.9-1.3-25.4 35.5-44.1-49.3-124-44.7-38.6 2.2-84.3 38.4-70.1 76.9 31 84.2 9.1 85.6 18.1 107.2 5.8 13.7 26.8 18.9 35.1 4.2 19.3 25.5 52.7 36.3 76.4 9.9 57.9 26.7 37.8-55 32.1-74.1-3.2-45.4 46.6-36.5 51.6-5.4 2.6 16.2-3.4 85.5 34.5 44.1 8.8 6 10.9 17.4 16.6 25.9 16.3 24.1 45.5 11.2 42.2-17 41.4 1.7 44.3-39.2 25.7-67.7Z" style="fill:url(#zl)"/><path d="M438.8 449.7a25.8 25.8 0 0 1 3.2 5.3l40.5 89.1 14.5-19.4 34 113.4s15.8-8.2 16.6-6.9c13.2 12.2 32.4-1.9 37.5-15.9l-86.3-125.8-11.2 26-25.8-78.5m180 6.5 1.7 3.3 17.9 81.5 13.3-14.7s20.7 118 20.7 118.8c22.6 2.6 24.8-13.8 24.4-31.7 8.1 1.5 14.9-1 21.4-5l-63.5-114.4-9.1 21.6-4-70.7" style="fill:#fff;opacity:.47"/><path class="zl-3" d="M458.7 607.4c9.5 6.5 14.6 17.9 23 25.8 17.5 16.1 46.2 12.8 62-4.2 4.3-4.6 8-10 13.6-12.8"/><path class="zl-3" d="M546 629c16.3 20.4 42.6-2.4 40.4-24.8-1.8-19.2-13.8-36.8-11.7-56 4.9-44.6 58.3-24.1 53.7 12.5-7.8 60.9 32.4 47.9 32.4 31.3"/><path class="zl-3" d="M653.4 587.4c25.2 6.3 18.1 44.5 44.5 45.9 11.1.6 24.3-10.8 22.6-25.1-1.2-10.5-9.2-13.3-6-24.3m5.2 15.7c19.4 6.2 39.7-10.2 39.6-30.5-.1-17.6-18.1-30.4-17.3-47.5"/><path class="zl-3" d="M746.4 534.9c13.5 7.2 27.2-7.7 21.7-22.5-4.6-12.5-17-13.9-17-35.5 0-45.9-56.4-50.9-75.3-47.5s-32.8 11.4-67.6 46.2c-30.9 30.9-44.1-49.3-124-44.7-38.6 2.2-84.3 38.4-70.1 76.9 31 84.2 9.1 85.6 18.1 107.2 5.8 13.7 26.8 18.9 34.5 4.6"/><path d="M428.9 449.8c-51.5 33.4 2.4 85.8-3.3 135.8-1.6 14-2.6 35.5 14.5 39.7m17.6-18.2c1.8 5.9 2.6 12.4-.2 17.8m100.2-8.6c-2.4 5.2-4.6 11.2-2.8 16.8m98-45.3a19.7 19.7 0 0 1-1.7 15.4m63.6-18.4c3.6 7 9.7 13.6 17.8 14.8m9.6-78.8a23.7 23.7 0 0 0 16.6 14.6m-292.7 90.2c7.1 9.4 17.8 19 30.4 16.6m45.9-9.1c7.6 6.5 19.7 6.8 28.5 1m28.9-109.4c42.3 24.6 7.5 57.5 35.3 77.9m26.3-2.6c8.7 9.5 10.9 24.3 22 32.1 7 4.9 17.3 5.9 23.4-.7" style="opacity:.6;stroke:#000;fill:none;stroke-linecap:round;stroke-linejoin:round;stroke-width:10px"/><path d="M711.8 447.7a25.1 25.1 0 0 1 18.5 15.2m4 11.6.1 2.6m19 34.3a16.1 16.1 0 0 1 3.3 8.1M743.4 560a20.2 20.2 0 0 1-1 18.5m-6.3-31.4 1.6 2.6m-31.6 53.7a15 15 0 0 1-2.1 15m-60.7-25.8a17 17 0 0 1-3.5-12.3m-133-132.9a67.2 67.2 0 0 1 34.6 19.8m-51.1-21a32.6 32.6 0 0 0-10.3.7m92.3 152.7a22.1 22.1 0 0 1-.5 14.8m-4.1-29.3.9 2m-32.4 30c-4.2 4.9-9.8 9-16.2 9.5m-12 2.7-2.9-.8m-60.4-17a13.3 13.3 0 0 1-1-12.1" style="stroke:#fff;fill:none;stroke-linecap:round;stroke-linejoin:round;stroke-width:10px"/><defs><style>.zbi-3{fill:none;stroke-linecap:round;stroke-linejoin:round;stroke-width:10px;stroke:#000}</style></defs><path d="M346.3 398.4c133.7 133.1 174-36.5 487-17 12.1.8 16-8.5 10.7-17.5-12.5-21.3-43.6-24.9-57.7-46.5-149.5-6.2-302.5 14.1-440 81Z" style="fill:#e600ff"/><path d="M293.6 425.4c147.8-84.7 322.8-116.1 494.1-106.7 18.8-290.3-568.4-184.4-494.1 106.7Z" style="fill:#bf00ff"/><path class="zbi-3" d="M293.6 425.4c147.8-84.7 322.8-116.1 494.1-106.7 18.8-290.3-568.4-184.4-494.1 106.7Z"/><path class="zbi-3" d="M346.3 398.4c133.7 133.1 174-36.5 487-17 12.1.8 16-8.5 10.7-17.5-12.5-21.3-43.6-24.9-57.3-45.5"/><path d="M348.3 404.5a417 417 0 0 0-53.9 28m134.6 15c35.3 11.7 79.6-5 113-16.8 81.2-28.8 166.2-48.7 252.5-45.7" style="opacity:.6;stroke:#000;fill:none;stroke-linecap:round;stroke-linejoin:round;stroke-width:10px"/><path d="M811.8 353.4a39.6 39.6 0 0 1 14.9 12.3m-444.7 47a115.1 115.1 0 0 0 40.9 19.4m12.9 1.3h4.8m254.7-244.3a113 113 0 0 1 58 56.7m6.2 15.7 3.2 8m-386.4-33.8c-29.2 23.4-53.5 48.7-62.1 83.6" style="stroke:#fff;fill:none;stroke-linecap:round;stroke-linejoin:round;stroke-width:10px"/><circle cx="550" cy="550" r="500" style="fill:none;stroke:#000;stroke-width:10;stroke-linecap:round;stroke-linejoin:round;stroke-miterlimit:10"/></svg>