<svg version="1.1" id="Layer_1" xmlns="http://www.w3.org/2000/svg" x="0" y="0" viewBox="0 0 1100 1100" style="enable-background:new 0 0 1100 1100" xml:space="preserve" xmlns:xlink="http://www.w3.org/1999/xlink"><style type="text/css">.st302{fill:#6A10EB;stroke:#000000;stroke-width:10;stroke-linecap:round;stroke-linejoin:round;stroke-miterlimit:10;}</style><circle class="st302" cx="550" cy="553.7" r="500"/><path d="M327 702.4c-23 52 11 74 36.5 56.6 38.5-10-14 99.9 89.9 62.9 18 1 28 22 29.8 40.3 6.5 63 54 46 59 8 15.5-34 45 49 47 59.9 11 73 69 42 71 17.9 3-54-3-60.1 2-68.3 18.5-31 71 13 90.8-15.5 14-19.7-31-63.5 8-55.4 94 19 19-101 14-120.4l-448 14z" style="fill:#20f"/><path d="M779 692.9c-15-51 21-118 41.5-126.2 18.5-8 17-33 7-50.2h-620c7 18-39 32-21 49.2 18 5 21 39.9 57 63.2 14 20 3 51 19 69.1 35.8 38 46-25 41-34.3 4-39 44-11 23 38.7-23 53 14 74 32.5 61.5 16-11 25-65 63 3.8 11 21 47 11 39-13.5-18.5-58 50.7-32 59-10 5 12.5-8 31 8 37.1 35 13 37-31 29.9-42.8-17-28 17-34 27.5-21.8 11 12-18 33 11 43.2 14 5 34-4 32-21.1-1-8-29-43 22-38 39 4 71 91 97 20.6C752 709 762 688 779 692.9z" style="fill:#04f"/><path d="M828 516.5c-76-76 7-145.5-67-184.7l-436 55.5c-9 19.6-34 35-37 52.2-43 48-155 7-119 70.4 48-3 52 29 58 37.6 23 33 72-41 88.5 20.7 12 43 39.7 26 39 9.3-2-37.5 45-31 59.6-9.7 75 110 112 49 105 20.2-9-39.9 23.5-39 29-29.8 6 9.6-7 22-3 32.5 9 25 53.5 18 35.5-25.4-11-27 39-10.1 53 .5 45.5 35 86 35 120-14.2 25-37 47-22 61.5-22.1 6.9.1 21.9-3.5 12.9-13z" style="fill:#00b2ff"/><path d="M761 331.7c-16-9 41-64-36-85.8-22-4-44 9-66.5 6.3-44-5-80-74-127-43.1-68 59.6-71 20-121 36.5-19.6 10.9-9 38-5 47.6 12 24-91-35-78 91.2-1 11 12.5 24 21 16.6 26-23 41-7 52 17.3 15 34 48.5 23 47-14.9-1-42 80.7-51 88 55.6 1.5 22 37 31 53 13.8 34-39-17-59.7-2-87.9 4-7 18-7 19.6 1.3 1 6-4 12-3 17.7 5 26.5 43.5 3 33-18.9-25-49.9 50-19.8 73-17.2C734.5 370 743 348 761 331.7z" style="fill:#00e1ff"/><style>.st40{fill:none;stroke:#000;stroke-width:10;stroke-linecap:round;stroke-linejoin:round;stroke-miterlimit:10}.st98{opacity:.6;enable-background:new}</style><g id="Outline"><path class="st98" d="M793 537c-1 .7-1 2-.5 3 5 10 11 35 25 30 8-2 21-13 18-22.4-.5-1-2-2-3-1.5-26 12-28-11-39-9.4v.3zm-34 274.5c6 5 26 8 25-3-6-7-20.6-12-21.5-26C750 772 744 803 759 811.5zm-219.3 52s1 .5 1 .8c9 13.5-3 36-18 40-34 6-9-6-6-44 .3-5.3 22.3 2.7 23 3.2zM342 731c5 7-4 22-4 33 8 13 29.6-5 33-14.9 2-12-17-21-28-20.2-1 .1-1 1.1-1 2.1zm31-120.2c2 23-8 47-26 61.9-13 10.9-17.5-30.6-8-27.9 6 4.2 28-18.8 34-34zm-157-59.9c-8 6-17 3-25 1-11 5 4 20 13.5 16 5-4 12-9 12-15.7-.5-.2-1.5-.2-.5-1.3zM337 473c-6-10-3-23 0-34 0-1 0-2-.6-2-9-9-23 11-19.8 20.7C318 463 338 475 337 472.8v.2z"/><path class="st98" d="M326 392c-2 29 24 45 7 44-7 2-14 1-15 11-1 11-24 0-24.5-1.3C285 433 317 404.5 326 392zm103-118c-9.9-4-16-16-18-25-4-6-9.9 1-11 6-7 54 29.5 28 29 19zm293 9c16 21 29.5 12 40 20.7 3 4 1 9.6-1 14-3 9-13 9-20 4.1-14.5-5.8-22-22.2-19-38.8z"/><path class="st40" d="M347 729c53.5 5 15 86 59 102 25 9 37-19.8 55-11.9 23 10.1 19.6 40 24 60.7 9.6 46 63 29.6 58-12.8"/><path class="st40" d="M519 861c89-9 47.5 119 114.5 115 39-6 35-47 25-76.5-3-9 0-18.5 7-24.5 24.5-21 59 15.5 84-2.5 15-11 8-33-2-45-12-15 0-32 10-43"/><path class="st40" d="M790 539c53 69.8-64 71 8 194.5 6 14 11 32 11 48.5 0 32-49 47.5-61 16"/><path class="st40" d="M721 287c2 51 64 31 74 88 6 34-11.5 71 7 103 10 18 27 31.5 34 51 8 19-4 47-27 42"/><path class="st40" d="M407 290.6c-16-8-12-29.9-2-41 17-15 40.5-10 61-6 29.8 1 49-29 75-38 50-17 81 55 133 44 23-5 48-11 69 1 25 14 33 55 10 75"/><path class="st40" d="M428 278c-16 26.5-51 17.5-76 28.5-20 10.5-28 33-23 55 10 47-43 51-39 88m25 4.5c1.5-23 35-26 41-5 7 25-13 47 16 72"/><path class="st40" d="M334 476c-20-34-61-31.5-89-9.6-20 8-43-3-64 4-22 7-28 37-5 43.5 6.5 2 23-2 26-1 15 4 11 25-5 30-21 6-10 29 6 29"/><path class="st40" d="M216 554.5c-15 15-14 41 2 55 37 22 41 31 36 69.7-2 31 46 41 53.5 10 2-10.8-4-22 0-33 13-32 44 20 62-44.5"/><path class="st40" d="M327 647.9c25 29.7-.5 47-7 75-10 32.5 34 65 53 25"/><path d="M729 262.5c9 4 16 13 18 22.5m-193-68c12.5 2 24.5 8 34 16m9 9 3 3m-163 10c-5.5-.9-12 .6-15.5 4M362 319.6c-9 2-14 10.7-16 19M339 449c4 1 6 6 6 9.8M308.5 470c-12-6-16-5-22-4M175 492c1-4 5-7 9-7.5m38 89.5c-4 8 0 16 4 19.9m44 78.6c-1 6 1 15 9 18m76-77.5c-3 14-13 14.5-16 16m4.5 119.5c-5-3-9-9-8-15M397 782c-1 14.5 7 28 14 30m90 53.9c-3 12 2 27 14.5 25M636 957c14-3 17-28 11-38m96-60.1c1-7 0-14-4-19m46-49.1c8-6.5 9-25 3-39M786 582c5-8 3-19-3-26m37-12c2-8.5-.6-18-7-24m-56-169c18 6 22 30 21 35" style="opacity:.7882;fill:none;stroke:#fff;stroke-width:10;stroke-linecap:round;stroke-linejoin:round;stroke-miterlimit:10;enable-background:new"/></g><radialGradient id="a14" cx="290.798" cy="544.048" r="35.638" gradientTransform="matrix(1.0835 0 0 1.2069 -20.488 -120.931)" gradientUnits="userSpaceOnUse"><stop offset="0" style="stop-color:#ffe100"/><stop offset="1" style="stop-color:#f70"/></radialGradient><path style="fill:url(#a14)" d="M294.5 494.1 255 568.3l79.5 8.9z"/><path style="opacity:.451;fill:#fff" d="m283 520.1 22 51.8 26 2.4-37-76.5"/><path style="fill:none;stroke:#000;stroke-width:10;stroke-linecap:round;stroke-linejoin:round;stroke-miterlimit:10" d="M294.5 494.1 255 568.3l79.5 8.9z"/><path d="M289 492.2c-16 29-29.8 52-44 79.8l88 12.5" style="opacity:.6;fill:none;stroke:#000;stroke-width:10;stroke-linecap:round;stroke-linejoin:round;stroke-miterlimit:10"/><path d="M294 524.9c2.5 5 5 9.5 6 14.5m6 14.6 2 4" style="opacity:.749;fill:none;stroke:#fff;stroke-width:10;stroke-linecap:round;stroke-linejoin:round;stroke-miterlimit:10"/><defs><style>.zac-4{fill:none;stroke-linecap:round;stroke-linejoin:round;stroke-width:10px;stroke:#000}</style></defs><path d="M497.5 766.8c-11.6 118.6 226.7 117.7 213-1.9Z" style="fill:#ff0059"/><path d="M501.5 776.7c58 34.9 68.2-20.3 116.4-3.9" style="stroke-linecap:round;stroke-linejoin:round;stroke-width:10px;stroke:#660024;fill:none"/><path d="M710.8 767.7c-15.5 13.1-45.4-1-55.8 13.3-4.6 6.4-3.8 13.2.4 20.5-9.7-4.2-18.8-13-24.8-22.6 4.9-10.2 63.2-17.4 80.2-11.2Z" style="fill:#660024"/><path d="M591.5 759.8a117.5 117.5 0 0 1 36.8 18.7l17.9-13.1a143.7 143.7 0 0 1-39-27.9c-5.9 6.8-12.4 13.5-15.7 22.3Z"/><path class="zac-4" d="M497.5 766.8c-11.6 118.6 226.7 117.7 213-1.9"/><path class="zac-4" d="M587.2 761.2c25.3 5.5 48.6 20.8 64.6 42.2"/><path d="M613.4 727.7c-85 131.8-186.8-17.3-157.3-65.4 16 36.8 60.9 42.3 94.1 33.4 29.4-7.8 41.6-35.6 58.8-35 20 .6 40 21.1 61.7 26.2 35.3 8.3 68.4-11.4 83.4-46.9 23 48.4-11.4 113.5-58.8 125.2-32 7.9-64.5-2.7-87.7-26.2" style="fill:#c97600;stroke:#000;stroke-linecap:round;stroke-linejoin:round;stroke-width:10px"/><path class="zac-4" d="M629.6 779.5a40.9 40.9 0 0 1 21.7-13.9"/><path d="M611.7 675.4a55.8 55.8 0 0 1 20.4 10.1m10.1 6 2.8 1.6m-57.8 43.4a60.1 60.1 0 0 1-28 23.6m-14.7 3.5-4.3-.2m204.4-70.3c-4.1 14.1-9.8 24.8-18.5 33.1m-10.5 10.3-3.4 2.5m-105.9 44.1c9.9 2 17.6 9.3 24 16.7m7.9 10.7 1.6 2.7" style="stroke:#fff;fill:none;stroke-linecap:round;stroke-linejoin:round;stroke-width:10px"/><path d="M450.9 662.3c-14.3 40.4 8.3 83 40.5 108.3-4 99.8 155.8 120.9 203.8 49m-91.1-158.3c-24.3 2.6-33.6 26.7-52.7 34.3m201.8-56.5c-11.4 19.8-27.4 35.9-50.4 47.5m-89.4 41.1c2.2 12.1 8.8 20.3 15.9 27.8" style="opacity:.6;stroke:#000;fill:none;stroke-linecap:round;stroke-linejoin:round;stroke-width:10px"/><style>.st40{fill:none;stroke:#000;stroke-width:10;stroke-linecap:round;stroke-linejoin:round;stroke-miterlimit:10}</style><g id="glasses"><linearGradient id="SVGID_00000178916075595908665650000004557367053833667231_" gradientUnits="userSpaceOnUse" x1="598.405" y1="1033.928" x2="641.405" y2="678.931" gradientTransform="matrix(1 0 0 -1 0 1410)"><stop offset="0" style="stop-color:#00f5d0"/><stop offset=".232" style="stop-color:#42b1da"/><stop offset=".508" style="stop-color:#8b66e6"/><stop offset=".738" style="stop-color:#c02fee"/><stop offset=".908" style="stop-color:#e10df3"/><stop offset="1" style="stop-color:#ed00f5"/></linearGradient><path style="fill:url(#SVGID_00000178916075595908665650000004557367053833667231_)" d="M360 453c2 11 0 51 7 55.1 14 4 47-17 49.9 2 3 11 7 22 6 33-2 22-21 43-13 65 9 25 35.8 11 38 17.3 11 32 20 25 48 27 19 5.5 23 38 45 35 26-3 15-55 34-38.5 15 13 41 3 44.5-16.4 4-23-18.5-42.5-19-66 2-28 23-48 8-79 8 .5 17 0 25-1 13 24 8 46.5-2 69.9-17 39.8 15 52.5 29 45-2 14-11 36 2 47 10.5 5 23-4 29-12 11-22 29.5-2 39 10.3 12 12 28 6 29-11 .6-7.5-2-16 2-23 6-5 18 6 27-10.8 6-30-9-21 14-54.7 8-12 34-27 17-51-7-9.6-20.5-18-17-31 16 3 34-8.5 44-19.9 6-9.5 9-23 6-33.5-5-12-17-10.9-24.5-2-10 9.9-20.9-1-12.5-12 8-11 39-18 7-31-52.5-6.5-53 102-140.5 31.8-46-29-49 40.6-93 34-32.5-5-17-24-60.8-4-59-42-66 22.5-124 20.3-14-.5-32-7-44 3.8v.3z"/><path d="M363.5 508c17 18 36-5 48 0 24 37-27 79.5-.5 112.9 11 14 29.9 7 32 8.8 4.5 18 16 29 35 29 40-5 27 27.5 53 28m37-34.7c10 9.5 27 10.5 38 2m9-163.1c56-2-32.5 112 38 120 5 4-17 39.7 17.5 37m29.5-17c19-2 25 27 46 22m38-41.9c-4 5-11 7-17 7M445 500.6c-6 10.5-14.5 5-21 10" style="opacity:.6;enable-background:new;fill:none;stroke:#000;stroke-width:10;stroke-linecap:round;stroke-linejoin:round;stroke-miterlimit:10"/><path d="M495 429.5c9 2 17 6 23 13m-38.2-11.6c-1 0-2 .8-3.5 1.5M374 495c6 .5 12-1 16-4m213 15c2 9.5-1 19-5 28m-6.5 13-1.5 3m12 58c6 7 9.9 19 4.5 27m-10.5 8c-1 0-1.5.5-2 .7M550 656c0 7-3 13-8 18m-79-46c1 7 7 12 14 12m168-78c-3 7-3 15-1 22m25 39c-2 3.5-1 8 2 11m78.5-14c2 6 1 12-1 17m-.5-30v-2m41-76c4 7 0 14-5 19.5m22-47.5c4 3 6 7 7 11m28-92c0 8-3 16.5-9 22m-11 5c-2 0-3 .9-5 1m-150.5-41c7 1 12 5.5 17 10.7M652 409c-1 .5-2 1-3 2" style="fill:none;stroke:#fff;stroke-width:10;stroke-linecap:round;stroke-linejoin:round;stroke-miterlimit:10"/><path d="M429 607c3 4 3 10 0 15 4-1 12-3 13-8m151 11.9c-5 8-7.5 19.8 0 27-6 0-27.5-5-16-23M592 498c7-1 14.5 1 20 5-2-5-4-11-9-14m61-2c-8 5-15 13-19 21-1 0-6-12-4-18m12 96c-1 6-6.5 11-12 13 6 1 14 2 19-2m112-5c-1 7 2 14 8 18-6 2-13.5-.5-17-6m40-87.5c4 5 10 11 17 9-3.5 3-9 6-14 4.5m-28-62.5c8-2 17 3 22 8.9.5-5-.9-12-4-16h-1m-244-23.9c-5-3-6-11.5-3-16.5-6 3-13 7-13 14" style="opacity:.6;enable-background:new"/><path class="st40" d="M362 503c14 14 34.5-3 50.9-2 9.6.5 23 7 29.9-3"/><path class="st40" d="M413 501c24 36 0 62-4 97-2 19 19.5 34 35 21.5"/><path class="st40" d="M434 606c26 12 3 52 54 46 31-4 21.5 36 50 37 32 2 19-59 51-65"/><path class="st40" d="M570 642.5c12 19.5 44 17 51-5 9-27.5-27-52-19-79 7-23 24-47 7-69m27-1.5c14 25 2 49.7-5.5 74-5.8 18 6 53 29 38"/><path class="st40" d="M656 588c12 13.5 0 29-1 44 0 14 15 21 27 11.9 15-12 23-31 40.6-8.4 26 34 40 9 40-3.5s-7-29.6 5-38.5"/><path class="st40" d="M763 609c12 9 30-2 28-16.9-.8-5-3-9-4-14-4-22 32-25 13-58"/><path class="st40" d="M808 535c22-1 21-31 7-42-9-7-16-17.5-13-29m-141 20c-18 12.5-39-12-68 10.6M779 463c9.8-6 22-2 34-2 54 0 53-75.5 20.7-55-19 12-22-1-19.7-6.8 4-9 17-9 23-16 5-13-10.9-18-21-17-29 3-32 32-51.5 45-21 15-58 14-74-6.7-7-9-17-14-29-13-23 1.5-29.5 25.5-47 35-34 22-52-27-81.5 3"/><path class="st40" d="M548 438c-13 0-23-10-33-16.9-39-27-69 31-108 29-17-.9-35-10-50 2.7 6 15 2 34 5 49"/></g><style>.st40{fill:none;stroke-width:10;stroke-linecap:round;stroke-linejoin:round;stroke-miterlimit:10;stroke:#000}</style><g id="Gold_Headband"><linearGradient id="SVGID_00000134236501401383457500000003505018008553449115_" gradientUnits="userSpaceOnUse" x1="264" y1="774.579" x2="818" y2="774.579" gradientTransform="matrix(1 0 0 -1 0 1100)"><stop offset="0" style="stop-color:#fffb0a"/><stop offset="1" style="stop-color:#ff1f0a"/></linearGradient><path style="fill:url(#SVGID_00000134236501401383457500000003505018008553449115_)" d="M399 299.7c-73-.5-73 32-77 92.9 61-36 73-9.8 132.5-20.7 32-9 57-44 89.5-39 102 15.8 37 32 125 2 35-12 82 36 114 9.6-56.5-31-5.5-15-16-56-9.8-52-39.6-25-68-7-17 7-37.5.6-55 7-79.7 29-68-8-123 9.9-41.1 13.6-88 40.6-122 1.3z"/><path class="st40" d="M397 300.8c51 35 81 8 131-5 32-8 67 13 97 .7 36-19.6 30-4 63-12.7 22.5-6 33-25 59.6-24M323 394.5c48-44 82-9.6 130.6-23 40-11 59-52 108-35 54 19 45 21 99-1.4 38-16 83 36 120 9.9"/><path class="st40" d="M747 258c26.5 12 27 50 5 68 11 3 20.5 9.5 28 18m-383-44c-29.7-2-66 10.8-72.5 43-3 17 5 37-6 52"/><path d="M321 402.5c10.6-9 22-18 35-22 19.9-6 41 0 62 1 19.9 1 40-2 58-11.4 22-12 41-33 66-33 12 0 22 5 33 9.6 16 7 34 13 51 9.5 16-3 29.6-15 46-17.4 18-3 36 6 54 12.6s38 11 53.5 0" style="opacity:.6;fill:none;stroke:#000;stroke-width:10;stroke-linecap:round;stroke-linejoin:round;stroke-miterlimit:10;enable-background:new"/><path d="M745 276c7 5 9 16 5 23m-6 11.6-2 5.4m-358 0c-15 .8-29 9-38 20.6m-7 13.4-1 7m297-26c-7 5.5-16 8-24.5 7.5m-12.5-4.6c-2-.5-4-1-6-2M420 362c13 1 27-2 39-9" style="fill:none;stroke:#fff;stroke-width:10;stroke-linecap:round;stroke-linejoin:round;stroke-miterlimit:10"/></g><circle cx="550" cy="550" r="500" style="fill:none;stroke:#000;stroke-width:10;stroke-linecap:round;stroke-linejoin:round;stroke-miterlimit:10"/></svg>