<svg version="1.1" id="Layer_1" xmlns="http://www.w3.org/2000/svg" x="0" y="0" viewBox="0 0 1100 1100" style="enable-background:new 0 0 1100 1100" xml:space="preserve" xmlns:xlink="http://www.w3.org/1999/xlink"><path d="M178 220c12 65 96 58 145 73.5 105 33 142 205 259 198C924 471 815 683 999 767.1c15-28 26-58 33.5-90.2-31 3-79-25-64-57 10-21.5 46-65-1-68.6-76-5-19-57 20-25.1 17 14 36 45 61.5 34.6 2-44-3-88-15-130.9-81.5 19-124.5-85-198-73.9-67 9.8-153.5 76-213 17.9-17-29 11-63 40.7-65.6 56-4 58-66 15-89.6-75-31-86 59.7-139.6 65.5-123 14-57.5-169-166.5-203.5C298 111 231 159 178 220zm801 586.7c-21-28-62-29-98-28.2C662 798 654 538 448 609.3 196 697 219 565 51 563.5c2 61 14 122 38 179.5 114-52 156 24 253 38.9C542 812 530.5 662 713 919.2c25 28 55 58 95 58C879.5 939 935 876 979 806.7zM534.5 1050c-15-83-150-33.5-235-128.4-62-70-75-22-110.9-26.1C277 988 402.5 1045 534.5 1050z" style="fill:#430f70"/><path d="M532 207.7c-68 59.6-71 20-121 36.5-19.6 10.9-14 30-9.7 39.6 11 23-51 9-69 40.3-10 18 .1 42-7.5 61.8-9 19.6-34 35-37 52.2-43 48-154 7-119 70.4 6 11 33-6 39 9.1 7 17.5-39 29-21 46.7 18 5 21 39.9 57 63.2 14 20 3 51 19 69.1 35.8 38 46-25 41-34.3 4-39 44-11 22 38.7-23 52 11 74 36.5 56.6 24-9 13 39 23 50.9 19.5 37 55 12 67 12 18 1 28 22 29.8 40.3 6.5 63 54 46 59 8 15.5-34 45 49 47 59.9 11 73 69 42 71 17.9 3-54-3-60.1 2-68.3 18.5-31 71 13 90.8-15.5 14-19.7-31-63.5 8-55.4 94 19 19-101 14-120.4-9-35.5 14-106 47-121.7 18-9 17-35.5 7-52.8-9.5-17-25-30.6-31-48.9-13.5-54 22-102-36-133.3-5-3-7-9.5-4-14.4 17-26 1-66-32-71.4-22-3-44 9-66.5 6.3C615 246 579 177 532 207.7z" style="fill:#009dff"/><linearGradient id="a5" gradientUnits="userSpaceOnUse" x1="381.071" y1="365.002" x2="511.347" y2="365.002" gradientTransform="matrix(1 0 0 -1 0 1100)"><stop offset="0" style="stop-color:#c517ff"/><stop offset="1" style="stop-color:#ff1751"/></linearGradient><path style="fill:url(#a5)" d="M381 766.7c29-5 16-38 23.5-55.9 5-12 38-28 21-55 16 5 19 22 17 37.1-1.5 16 23 11 25-12.6 2.5-28 7-46.5 33-60.3-19 31 22.5 46 5.5 76.6-11 19-30.1 35-33 57.7-3 18 21 19 23 2.2 19 43-20 21-5 70.2 3 8-1 18.5-8 23.2-30-96.4-85 60.1-102-83.2z"/><linearGradient id="b2" gradientUnits="userSpaceOnUse" x1="566.921" y1="265.744" x2="809.398" y2="265.744" gradientTransform="matrix(1 0 0 -1 0 1100)"><stop offset="0" style="stop-color:#c517ff"/><stop offset="1" style="stop-color:#ff1751"/></linearGradient><path style="fill:url(#b2)" d="M660 882.5c21-37 76 16 97.5-22.4 8-24-21-40-10-55.2 33.5 32.5 88-14 47-80.7-16-1-19.8 25.5-36 2.2-21-15-58 12-53-34.7-4 7-12 12-14 19.7-2 9 10.1 31-4.5 30.9-15 0-18-6-30 6.2 51 2 49 91 19 53.7-6-7-11-14-22-14.4 23.5 25-13 61-25 23.6-12-38.5-17-63-62-48.6 54.5 11 1 67 11 27.3-30 49 28.5 69 2 103.3 32 140.6 104.5 79.6 80-10.9z"/><linearGradient id="c2" gradientUnits="userSpaceOnUse" x1="597.551" y1="561.092" x2="839.931" y2="561.092" gradientTransform="matrix(1 0 0 -1 0 1100)"><stop offset="0" style="stop-color:#c517ff"/><stop offset="1" style="stop-color:#ff1751"/></linearGradient><path style="fill:url(#c2)" d="M794 422.3c-27 46-87-10.9-124 69.1 29.8-26 38.5 15 5 21.8-44 .9-71 23-77 67 43-73 108 16 49 7.8 37 22 68-28 99-14.2 21 17-4 46-26 32.4 13 30.1 45.5-3 44.5 40.7 1 4 4 9 9 8.7 3-30 32-54 32-85.8C894 558.5 784 495 794 422.3z"/><linearGradient id="d2" gradientUnits="userSpaceOnUse" x1="213.681" y1="470.314" x2="342.252" y2="470.314" gradientTransform="matrix(1 0 0 -1 0 1100)"><stop offset="0" style="stop-color:#c517ff"/><stop offset="1" style="stop-color:#ff1751"/></linearGradient><path style="fill:url(#d2)" d="M214 599c.8-9 12-10 19.7-10.7 17-2 32.5-17 29.5-34.6 16.5 14.5 11 34 11 53 5 35 58 29 45-6.3 10 9.7 32 32 18 45.1-52-4-23 26-32 47.1-11 20-45.8 16-50-7.2 4.8-49.6-.2-55.9-41.2-86.4z"/><linearGradient id="e2" gradientUnits="userSpaceOnUse" x1="327.601" y1="625.422" x2="651.361" y2="625.422" gradientTransform="matrix(1 0 0 -1 0 1100)"><stop offset="0" style="stop-color:#c517ff"/><stop offset="1" style="stop-color:#ff1751"/></linearGradient><path style="fill:url(#e2)" d="M328 390.7c43 2 75 48 61 88.9 16-1 18-31 34-32.6 46 8-18 113 75 149.8-25-25-3-59 19-30.7 55 61-4 134 82 148.8-39-39 5-66 13-38.5 13.5-20-8-40.6-24-52.2-40.9-30.8-43-93 13-103.9-43-2-41-34-26-43.2 16-10 40 51 76.5 10.7-34 0-3-60.5-59-66.7-26 0-49.9 22-77 14.5-54-15.8.5-66 3-29.6 13-16 .9-34-17-39.1-81-21 23-103-8-132.6-30 13-125.5-11-85 58.1C341 303 328 308 328 390.7z"/><linearGradient id="f2" gradientUnits="userSpaceOnUse" x1="590.061" y1="760.677" x2="766.959" y2="760.677" gradientTransform="matrix(1 0 0 -1 0 1100)"><stop offset="0" style="stop-color:#c517ff"/><stop offset="1" style="stop-color:#ff1751"/></linearGradient><path style="fill:url(#f2)" d="M610 229.1c27 44-45 63-9.8 119.3-3-52 47 2-10 28.5 45 11 37-37.5 70.9-35.7 23 1 31 28 22.5 47.5-11 19-15 44 2 60.7-8-59.8 53-36 53-82.4 0-9-3-19 3-25.2 6-5 16-4 20.5-9.4C739 345 835 216 649 248.5c-13.5-5.5-24-14.5-39-19.4z"/><style>.st40{fill:none;stroke:#000;stroke-width:10;stroke-linecap:round;stroke-linejoin:round;stroke-miterlimit:10}.st98{opacity:.6;enable-background:new}</style><g id="Outline"><path class="st98" d="M793 537c-1 .7-1 2-.5 3 5 10 11 35 25 30 8-2 21-13 18-22.4-.5-1-2-2-3-1.5-26 12-28-11-39-9.4v.3zm-34 274.5c6 5 26 8 25-3-6-7-20.6-12-21.5-26C750 772 744 803 759 811.5zm-219.3 52s1 .5 1 .8c9 13.5-3 36-18 40-34 6-9-6-6-44 .3-5.3 22.3 2.7 23 3.2zM342 731c5 7-4 22-4 33 8 13 29.6-5 33-14.9 2-12-17-21-28-20.2-1 .1-1 1.1-1 2.1zm31-120.2c2 23-8 47-26 61.9-13 10.9-17.5-30.6-8-27.9 6 4.2 28-18.8 34-34zm-157-59.9c-8 6-17 3-25 1-11 5 4 20 13.5 16 5-4 12-9 12-15.7-.5-.2-1.5-.2-.5-1.3zM337 473c-6-10-3-23 0-34 0-1 0-2-.6-2-9-9-23 11-19.8 20.7C318 463 338 475 337 472.8v.2z"/><path class="st98" d="M326 392c-2 29 24 45 7 44-7 2-14 1-15 11-1 11-24 0-24.5-1.3C285 433 317 404.5 326 392zm103-118c-9.9-4-16-16-18-25-4-6-9.9 1-11 6-7 54 29.5 28 29 19zm293 9c16 21 29.5 12 40 20.7 3 4 1 9.6-1 14-3 9-13 9-20 4.1-14.5-5.8-22-22.2-19-38.8z"/><path class="st40" d="M347 729c53.5 5 15 86 59 102 25 9 37-19.8 55-11.9 23 10.1 19.6 40 24 60.7 9.6 46 63 29.6 58-12.8"/><path class="st40" d="M519 861c89-9 47.5 119 114.5 115 39-6 35-47 25-76.5-3-9 0-18.5 7-24.5 24.5-21 59 15.5 84-2.5 15-11 8-33-2-45-12-15 0-32 10-43"/><path class="st40" d="M790 539c53 69.8-64 71 8 194.5 6 14 11 32 11 48.5 0 32-49 47.5-61 16"/><path class="st40" d="M721 287c2 51 64 31 74 88 6 34-11.5 71 7 103 10 18 27 31.5 34 51 8 19-4 47-27 42"/><path class="st40" d="M407 290.6c-16-8-12-29.9-2-41 17-15 40.5-10 61-6 29.8 1 49-29 75-38 50-17 81 55 133 44 23-5 48-11 69 1 25 14 33 55 10 75"/><path class="st40" d="M428 278c-16 26.5-51 17.5-76 28.5-20 10.5-28 33-23 55 10 47-43 51-39 88m25 4.5c1.5-23 35-26 41-5 7 25-13 47 16 72"/><path class="st40" d="M334 476c-20-34-61-31.5-89-9.6-20 8-43-3-64 4-22 7-28 37-5 43.5 6.5 2 23-2 26-1 15 4 11 25-5 30-21 6-10 29 6 29"/><path class="st40" d="M216 554.5c-15 15-14 41 2 55 37 22 41 31 36 69.7-2 31 46 41 53.5 10 2-10.8-4-22 0-33 13-32 44 20 62-44.5"/><path class="st40" d="M327 647.9c25 29.7-.5 47-7 75-10 32.5 34 65 53 25"/><path d="M729 262.5c9 4 16 13 18 22.5m-193-68c12.5 2 24.5 8 34 16m9 9 3 3m-163 10c-5.5-.9-12 .6-15.5 4M362 319.6c-9 2-14 10.7-16 19M339 449c4 1 6 6 6 9.8M308.5 470c-12-6-16-5-22-4M175 492c1-4 5-7 9-7.5m38 89.5c-4 8 0 16 4 19.9m44 78.6c-1 6 1 15 9 18m76-77.5c-3 14-13 14.5-16 16m4.5 119.5c-5-3-9-9-8-15M397 782c-1 14.5 7 28 14 30m90 53.9c-3 12 2 27 14.5 25M636 957c14-3 17-28 11-38m96-60.1c1-7 0-14-4-19m46-49.1c8-6.5 9-25 3-39M786 582c5-8 3-19-3-26m37-12c2-8.5-.6-18-7-24m-56-169c18 6 22 30 21 35" style="opacity:.7882;fill:none;stroke:#fff;stroke-width:10;stroke-linecap:round;stroke-linejoin:round;stroke-miterlimit:10;enable-background:new"/></g><defs><style>.axg-2{fill:none;stroke-linecap:round;stroke-linejoin:round;stroke-width:10px;stroke:#000}</style></defs><path d="M243.3 626.7c44.2-16.7-13.7-73.4 35.6-67.3 21.7 19.1-.3 76.2 37.7 66.4 49.7-12.9 2.3-62.1-2.5-73.1.2-30.9 41.4 1.5 50.2-38.3-18.2-24 5.5-57.2-11.5-72.8-23.1-21.4-36.9 8.5-40.9 12.3-49.6-11.5-64.2 25.4-117.3 13.2-18.8 1.7-44.6 25-24.6 41.9 11.7 10 34.4-3.6 41 13 5.6 20.2-54 25.9-6 50.9-4.7 29.1 19.3 38.5 38.3 53.8Z" style="fill:#ff00d9"/><path class="axg-2" d="M314.8 454c1.5-23.1 35.3-26.3 41.4-5 7.1 24.8-12.6 46.8 16.2 72.4"/><path class="axg-2" d="M333.7 475.6c-20.3-33.6-61.2-31.5-89.3-9.6-20 8.1-43.3-2.6-63.8 4.1s-28 37.5-4.7 43.5c6.5 1.7 23.1-2 26.4-1.1 15.3 4 11.4 25.2-5.4 30.1-21.2 6.2-10.2 28.6 6.3 29"/><path class="axg-2" d="M215.8 554.5c-14.8 14.8-13.6 41.2 2.4 54.6 36.7 21.9 40.7 30.9 35.7 69.7-2 31.4 45.8 41 53.5 10 1.8-10.8-4.5-22.1.2-32.7 12.4-32.5 44.2 20.2 62.3-44.5"/><path class="axg-2" d="M243.3 626.7c37.7-15 11.5-42.6 12.4-55.1s13.2-19 23.2-12.2c21.7 19.1-1.6 66.4 37.7 66.4 19.4 0 27.9-27.7 18.2-43.9-6.2-10.4-19.9-17.2-20.7-29.2-.9-15.6 12.2-15.8 24-15.8 17.1 0 22.7-11.2 26.4-22.4"/><path d="M252.3 630.1c37.2-23.8-3.2-55.3 13.1-65.7 19.7-12.7 16.5 44.9 26.1 55.7 14.5 16.1 42.1 14.9 49.3-5.5 15-42.4-25.4-45.4-20.3-64.1 4.2-15.7 34.1 2.2 47.4-30.2m-34.2-44.7c-5.3-11.3-15.2-21.9-8-36.1m-109.9 115c-6.5 6.5-14.4 12.3-26.3 7.7" style="opacity:.6;stroke:#000;fill:none;stroke-linecap:round;stroke-linejoin:round;stroke-width:10px"/><path d="M338.8 448.3a14 14 0 0 1 5.2 10.6m-61 4.8a28.5 28.5 0 0 1 22.2 6.9m-128.7 18.6a16.8 16.8 0 0 1 13-6.3m11.2-1.3 2.1.3M350 516.8c-2.5 4.5-5.9 7.7-12.8 6.9m-14.8 66.2c2.4 4.6 2 10.8-.1 15.9m-98.6-12.5a24.4 24.4 0 0 1-2.5-20.2" style="stroke:#fff;fill:none;stroke-linecap:round;stroke-linejoin:round;stroke-width:10px"/><style>.st40,.st68{fill:none;stroke-width:10;stroke-linecap:round;stroke-linejoin:round;stroke-miterlimit:10;stroke:#000}.st68{opacity:.6;enable-background:new}</style><g id="Happy"><path d="M472 678c-67.5 48.5 23 111 67 136.9 53 31 146 29 172-35-2-70.4-182-75.9-239-101.9z" style="fill:#fe1767"/><path d="M447 712c54-27 129.6 24 175.5 51 14 42 9-12 57-12 23 0-30-7-35-8.8-66-23-92-57-161-63C468 678 449.6 693 447 712z" style="fill:#ac1045"/><path d="M581 704c11 15 22 34 39 40.9 83-28 84 57 101 20 25-53.9 29-111.9-140-61.3v.4z"/><path d="M576 729.8c14 7 21 22 27 36m7 14c1 2 2 4 2 6m47-31.8c11 1 21 8 26 18" style="fill:none;stroke:#fff;stroke-width:10;stroke-linecap:round;stroke-linejoin:round;stroke-miterlimit:10"/><path class="st68" d="M702 653c15.5-2 51 9 55 47.5m-287-46c-24-3-49 19-51 43.5"/><path class="st40" d="M574 830.5c152.5 49 229.9-198 74-142-112 40.5-154-33-189-2.7-55 48.2 62 127.7 115 144.7zM471 656c-23 0-46 19.8-50 43"/><path class="st40" d="M701 655c27-1 48 20 54 46m-191 0c36 17.5 57 51 70 85m-15-37c34-21 74-6 93 28"/><path class="st68" d="M453 692c-84 69 216 256 268 72"/></g><style>.st40,.st68{fill:none;stroke-width:10;stroke-linecap:round;stroke-linejoin:round;stroke-miterlimit:10;stroke:#000}.st68{opacity:.6;enable-background:new}.st102{fill:#fff}</style><g id="all_seeing"><path class="st102" d="M764 494c-106-69-252-35.5-344.5 38C509 624 704 617 764 494z"/><linearGradient id="SVGID_00000154406609517563783580000003077220973173026472_" gradientUnits="userSpaceOnUse" x1="576.467" y1="996.091" x2="618.467" y2="789.095" gradientTransform="matrix(1 0 0 -1 0 1410)"><stop offset="0" style="stop-color:#001aff"/><stop offset="1" style="stop-color:#e600ff"/></linearGradient><path style="fill:url(#SVGID_00000154406609517563783580000003077220973173026472_)" d="M671 464.4c-43-9.5-199-12-159.6 59.5 29.8 54 4 62 21 66 51 12 124 4 164-28C671 535 698 508 671 464v.4z"/><path d="M592 532c3 20.5 2 40.6-2 60.6 18 2 37-3 54-6 24-4 12-34 6-48.5-25 11.9-54-6.6-58-6.5v.4z"/><path class="st102" d="M591 495c-22.5 32 39 69.5 57 40-2-22-34-61-57-40.4v.4z"/><path class="st40" d="M779.5 504C680 422 498 458 409 541"/><path class="st40" d="M420.5 531c90 96 280 85 345-37"/><path class="st40" d="M511 482c-19.8 44 28 62 14 106m143-127c35 32 1 71 28.5 100.5m-112.5 31c22-19-3-70 0-88 2-11 13-18.5 24.5-15 29.9 4 52 66 51 93"/><path class="st40" d="M584 511c5 27 37 41 62 29"/><path class="st68" d="M417 539c96 95.5 284 85 353-36"/><path class="st68" d="M503 485c-19 40 24 59 16 98m66-88c-22.5 28 18 66.5-7 96"/><path d="M658 470c7 5.5 12 14 13 23m-1 14v3.5" style="fill:none;stroke:#fff;stroke-width:10;stroke-linecap:round;stroke-linejoin:round;stroke-miterlimit:10"/></g><style>.st40{fill:none;stroke:#000;stroke-width:10;stroke-linecap:round;stroke-linejoin:round;stroke-miterlimit:10}</style><g id="Galaxy_Crown"><linearGradient id="SVGID_00000129190531900010010780000008211493552199069579_" gradientUnits="userSpaceOnUse" x1="495.731" y1="1031.076" x2="535.731" y2="648.076" gradientTransform="matrix(1 0 0 -1 0 1100)"><stop offset="0" style="stop-color:#ffea00"/><stop offset=".093" style="stop-color:#ffe302"/><stop offset=".23" style="stop-color:#ffcf07"/><stop offset=".395" style="stop-color:#ffae10"/><stop offset=".581" style="stop-color:#ff801d"/><stop offset=".786" style="stop-color:#ff452d"/><stop offset="1" style="stop-color:#ff0040"/></linearGradient><path style="fill:url(#SVGID_00000129190531900010010780000008211493552199069579_)" d="M298 414c149.8-77 330-85 494-62 6-85-26-182-88-242-3 27-13 53.5-28 76-26-7-53-48-58-61.8-7 17-16 51-31 61-11 0-21.5-.8-31 8-24-29.7-45-62-62-97-13 33-24 67-39 99.2-31 20.9-60-15.5-75-32-6 22-9 53-26 69-14-2-29 4-33 19-28-9-52-29-74-46.9-13 73.5 15 143 51 209.5z"/><path d="M577.5 217c-6-10 3-37.5 16-21.9 7 19 4 41 14.5 58 23 36 60 3 46-30.8-6-39 1-29 15-25.5 6-4 3-17-3.5-17.9-30-6-32-43-50-56-29.9 106-39.6 38-56.5 74m-204 61.6c-24.5-13-17-43 9.5-17 19.5 13.5 45 89.9 74 52 17-22.5-25-87.5 6-79.3 0-12 15-15-9.6-12-20.7-5-39-20.6-54-35-11 30-17 64-29 62-15-3-29.8 10-29 25" style="opacity:.6;enable-background:new"/><linearGradient id="SVGID_00000019662561078124328900000009874137589085370762_" gradientUnits="userSpaceOnUse" x1="484.984" y1="845.11" x2="541.002" y2="845.11" gradientTransform="matrix(1 0 0 -1 0 1100)"><stop offset="0" style="stop-color:#00ffb7"/><stop offset="1" style="stop-color:#0048ff"/></linearGradient><path style="fill:url(#SVGID_00000019662561078124328900000009874137589085370762_)" d="M486 258c-4-33 5-61 20-62.8 15-2 30 23.5 34 56.4s-5 61-20 63c-15 1.4-30-23.6-34-56.6z"/><linearGradient id="SVGID_00000159439059309634084680000001970710607329571458_" gradientUnits="userSpaceOnUse" x1="288.032" y1="774.971" x2="338.199" y2="774.971" gradientTransform="matrix(1 0 0 -1 0 1100)"><stop offset="0" style="stop-color:#00ffb7"/><stop offset="1" style="stop-color:#0048ff"/></linearGradient><path style="fill:url(#SVGID_00000159439059309634084680000001970710607329571458_)" d="M294 332.5c-8-22-6-44 5-48 10.9-4 26 11 35 33 8 22 6 44-5 48-12 4.2-27-10.5-35-33z"/><linearGradient id="SVGID_00000124848668680866045530000001350187592146382249_" gradientUnits="userSpaceOnUse" x1="699.174" y1="843.9" x2="746.034" y2="843.9" gradientTransform="matrix(1 0 0 -1 0 1100)"><stop offset="0" style="stop-color:#00ffb7"/><stop offset="1" style="stop-color:#0048ff"/></linearGradient><path style="fill:url(#SVGID_00000124848668680866045530000001350187592146382249_)" d="M701 259.5c-3.5-26 3-48 15-49.8s25 17.5 29 43c4 26-3 48-15 49.8s-25.5-17.5-29-43z"/><path d="M701 234c1 17 21 48 40 44 12-84-40-74-40-44.2v.2zm-211.1 29c12 18.5 37.5 21 49 12 5.1-112.5-68.9-90-49-12zM294 292.9c-13 22 14 58 39 49.6 13-12.7-23.3-76.5-39-49.6z" style="opacity:.3098;fill:#fff;enable-background:new"/><path class="st40" d="M300 414c-40.7-57-62-147-54-214 29 29 63 59 106 61"/><path class="st40" d="M324 253c-3-9 4-18 13-20.7 46-7 49 69 89 70.5 26.5 1 9.8-53 5-69.9-4-14-.9-39 20.5-32"/><path class="st40" d="M446 214c19-39 32-82 49-122 18 45 46 88 79 125"/><path class="st40" d="M559.9 198c4-15 24-16 32-3 12 21 6 49 24 67s43 4 42-20.5c1-17-12.5-33-9-50 2-10 19.7-16 24-5"/><path class="st40" d="M671 196.5c15-29 26-61 32-93 54 65 95 157.5 90 249-163-23-335-15-493 61M356.5 232c9.9-23 19-46 22-70.7 3 1 12.5 24 52 43"/><path class="st40" d="M586.5 187c14.5-19.8 22-44 29.5-67 14 31 17 34 39.5 58.5"/><ellipse transform="rotate(-6.735 513.282 255.02)" cx="513" cy="255" rx="27" ry="60" style="fill:none;stroke:#000;stroke-width:9.9999;stroke-linecap:round;stroke-linejoin:round;stroke-miterlimit:9.9999"/><ellipse transform="rotate(-20.437 313.317 325.182)" cx="313" cy="325" rx="21" ry="43" style="fill:none;stroke:#000;stroke-width:10.0005;stroke-linecap:round;stroke-linejoin:round;stroke-miterlimit:10.0005"/><ellipse transform="rotate(-8.378 722.899 256.192)" cx="723" cy="256" rx="22.5" ry="47" style="fill:none;stroke:#000;stroke-width:9.9997;stroke-linecap:round;stroke-linejoin:round;stroke-miterlimit:9.9997"/><path d="M289 290c-18 22 13 97 44 74m166-167.5c-43 16-7 159 30 113m182-99.7c-28.5 14-15 107 20.5 93m59.5 56.1c-163-26.5-331-7-483 59" style="opacity:.6;enable-background:new;fill:none;stroke:#000;stroke-width:10;stroke-linecap:round;stroke-linejoin:round;stroke-miterlimit:10"/><path d="M712 143.9c7 11 13 23 18 35m8 16.1 3 6m-242-64c4.5 11 9.6 21 15 30.9m10 11.1 3 4.5M260 242c0 14 2 28 6 42m1 14.5c0 2 .5 4 1 6m97-39.5c5.5 6 9.7 13 12 20m8 10 2 2m198-85c2 6 3 12 4 18m1.9 13 .6 2M771 279.8c2 14 3 29 3 43M723 229c5 8 8 16 9 25m1 12v6.5M513 219c5 9 9 19 9.9 29.6M526 263v5m-219 33c5 6 9 12 11.5 19m3.5 12 1 4.5" style="fill:none;stroke:#fff;stroke-width:10;stroke-linecap:round;stroke-linejoin:round;stroke-miterlimit:10"/></g><circle cx="550" cy="550" r="500" style="fill:none;stroke:#000;stroke-width:10;stroke-linecap:round;stroke-linejoin:round;stroke-miterlimit:10"/></svg>