<svg version="1.1" id="Layer_1" xmlns="http://www.w3.org/2000/svg" x="0" y="0" viewBox="0 0 1100 1100" style="enable-background:new 0 0 1100 1100" xml:space="preserve" xmlns:xlink="http://www.w3.org/1999/xlink"><path d="M50 550C50 274 274 50 550 50s500 224 500 500S50 826 50 550z" style="fill:#0090ff"/><path d="M1050 550c0 276-224 500-500 500S50 826 50 550s1000-276 1000 0z" style="fill:#06f"/><style>.st231{fill:none;stroke:#000;stroke-width:10;stroke-linecap:round;stroke-linejoin:round;stroke-miterlimit:10}</style><g id="Layer_60"><path d="M532 209c-68 59.6-70.9 20-120.8 36.5-19.6 10.9-14 30-9.7 39.6 11 23-50.8 9-69 40.3-10 18 0 42-7.5 61.8-9 19.6-34 35-37 52-43 48-154 7-119 70.4 6 11 33-6 39 9.1 7 17.5-39 29-21 46.7 18 5 20.7 39.9 57 63 14 20 3 51 19 69.1 36 38 46-25 41-34.3 4-39 44-10.6 22 38.7-23 52 11 74 36.5 56.6 24-9 13 39 23 50.9 19.5 37 55 12 67 12 18 .7 28 22 29.8 40.3 6.5 63 54 46 59 8 15.5-34 45 49 47 59.9 11 73 69 42 70.8 17.9 3-54-3-60 2-68.3 18.5-31 71 13 90.8-15.5 14-19.7-31-63.5 8-55.4 94 19 19-100.7 14-120.4-9-35.5 14-106 47-121.7 18-9 17-35.5 7-52.8-9.5-17-25-30.6-31-48.9-13.5-54 22-102-36-133.3-5-3-7-9.5-4-14.4 17-26 1-66-32-71.4-22-3-44 9-66.5 6.3C615 247 578.5 178 532 209z" style="fill:#454d57"/><path d="M359.5 492.8c150 8 284 83 426 128.7 9.7-15 19-31 21-49 75-7-4-87-10-110.6-7-29.5 9.7-87-8-105l-169 46.4S484 242.5 484.5 242.6c-21.5-4-124-9.5-74 51.8-16.5 6-35 4-52 10-64 30.5 3 66-49 109.5-10 9-19 20.7-18 34.7 7 2 16 2 21 8 25.5-57.6 52 2.4 47 36.2zM323 643.5c32 36 1 47-5 81.7.7 33 34.5 65 55 23 9 23 3 51.5 19 71.6 33 35 45-23 82 5.4l12-116.8s-117-87-118-85.4c-8.4 20-23 26.9-45 20.5z" style="fill:#a1a1a1"/><path d="m364 671.3 78.5 8.3M378 711c34.5 2 69 2 104-2m-102.2 52c32.5-5 65-7 98-7.1M388 801.1c27.5-3 55-4.5 83-4.9" style="fill:none;stroke:#fff;stroke-width:10;stroke-linecap:round;stroke-linejoin:round;stroke-miterlimit:10"/><path d="M490.8 240c44 51 88 103 130 155.5l163-43M400 613.8c25 14 49 29.5 72 47.1m-100-42.1 120.5 85.8-13 133M362 499.1c145 15 281 76 416 128.8M626 404c-11 47-27 95-39 141.5" style="stroke:#788697;fill:none;stroke-width:10;stroke-linecap:round;stroke-linejoin:round;stroke-miterlimit:10"/><path class="st231" d="m368 622.1 117 86.1L473 825m-74-206.2c24 15 46.5 30.6 68.5 47.6m-110-171.6c148 9 286.5 80.5 426 127.4"/><path class="st231" d="M432 669.9c-30.9.8-62 .8-93 0m139 33.9-151 8.6m151 35.9-100 7m97 32.7c-29.9 2-59.8 5-89.7 8M788 357.5l-172 46.8-132-162.2m133 163.2c-13 47-26 94-39 140.4"/></g><style>.st40{fill:none;stroke:#000;stroke-width:10;stroke-linecap:round;stroke-linejoin:round;stroke-miterlimit:10}.st98{opacity:.6;enable-background:new}</style><g id="Outline"><path class="st98" d="M793 537c-1 .7-1 2-.5 3 5 10 11 35 25 30 8-2 21-13 18-22.4-.5-1-2-2-3-1.5-26 12-28-11-39-9.4v.3zm-34 274.5c6 5 26 8 25-3-6-7-20.6-12-21.5-26C750 772 744 803 759 811.5zm-219.3 52s1 .5 1 .8c9 13.5-3 36-18 40-34 6-9-6-6-44 .3-5.3 22.3 2.7 23 3.2zM342 731c5 7-4 22-4 33 8 13 29.6-5 33-14.9 2-12-17-21-28-20.2-1 .1-1 1.1-1 2.1zm31-120.2c2 23-8 47-26 61.9-13 10.9-17.5-30.6-8-27.9 6 4.2 28-18.8 34-34zm-157-59.9c-8 6-17 3-25 1-11 5 4 20 13.5 16 5-4 12-9 12-15.7-.5-.2-1.5-.2-.5-1.3zM337 473c-6-10-3-23 0-34 0-1 0-2-.6-2-9-9-23 11-19.8 20.7C318 463 338 475 337 472.8v.2z"/><path class="st98" d="M326 392c-2 29 24 45 7 44-7 2-14 1-15 11-1 11-24 0-24.5-1.3C285 433 317 404.5 326 392zm103-118c-9.9-4-16-16-18-25-4-6-9.9 1-11 6-7 54 29.5 28 29 19zm293 9c16 21 29.5 12 40 20.7 3 4 1 9.6-1 14-3 9-13 9-20 4.1-14.5-5.8-22-22.2-19-38.8z"/><path class="st40" d="M347 729c53.5 5 15 86 59 102 25 9 37-19.8 55-11.9 23 10.1 19.6 40 24 60.7 9.6 46 63 29.6 58-12.8"/><path class="st40" d="M519 861c89-9 47.5 119 114.5 115 39-6 35-47 25-76.5-3-9 0-18.5 7-24.5 24.5-21 59 15.5 84-2.5 15-11 8-33-2-45-12-15 0-32 10-43"/><path class="st40" d="M790 539c53 69.8-64 71 8 194.5 6 14 11 32 11 48.5 0 32-49 47.5-61 16"/><path class="st40" d="M721 287c2 51 64 31 74 88 6 34-11.5 71 7 103 10 18 27 31.5 34 51 8 19-4 47-27 42"/><path class="st40" d="M407 290.6c-16-8-12-29.9-2-41 17-15 40.5-10 61-6 29.8 1 49-29 75-38 50-17 81 55 133 44 23-5 48-11 69 1 25 14 33 55 10 75"/><path class="st40" d="M428 278c-16 26.5-51 17.5-76 28.5-20 10.5-28 33-23 55 10 47-43 51-39 88m25 4.5c1.5-23 35-26 41-5 7 25-13 47 16 72"/><path class="st40" d="M334 476c-20-34-61-31.5-89-9.6-20 8-43-3-64 4-22 7-28 37-5 43.5 6.5 2 23-2 26-1 15 4 11 25-5 30-21 6-10 29 6 29"/><path class="st40" d="M216 554.5c-15 15-14 41 2 55 37 22 41 31 36 69.7-2 31 46 41 53.5 10 2-10.8-4-22 0-33 13-32 44 20 62-44.5"/><path class="st40" d="M327 647.9c25 29.7-.5 47-7 75-10 32.5 34 65 53 25"/><path d="M729 262.5c9 4 16 13 18 22.5m-193-68c12.5 2 24.5 8 34 16m9 9 3 3m-163 10c-5.5-.9-12 .6-15.5 4M362 319.6c-9 2-14 10.7-16 19M339 449c4 1 6 6 6 9.8M308.5 470c-12-6-16-5-22-4M175 492c1-4 5-7 9-7.5m38 89.5c-4 8 0 16 4 19.9m44 78.6c-1 6 1 15 9 18m76-77.5c-3 14-13 14.5-16 16m4.5 119.5c-5-3-9-9-8-15M397 782c-1 14.5 7 28 14 30m90 53.9c-3 12 2 27 14.5 25M636 957c14-3 17-28 11-38m96-60.1c1-7 0-14-4-19m46-49.1c8-6.5 9-25 3-39M786 582c5-8 3-19-3-26m37-12c2-8.5-.6-18-7-24m-56-169c18 6 22 30 21 35" style="opacity:.7882;fill:none;stroke:#fff;stroke-width:10;stroke-linecap:round;stroke-linejoin:round;stroke-miterlimit:10;enable-background:new"/></g><defs><radialGradient id="axz" cx="274.03" cy="669.68" r="95.31" gradientTransform="matrix(1 0 0 1.52 0 -350.6)" gradientUnits="userSpaceOnUse"><stop offset="0" stop-color="#ff0"/><stop offset=".09" stop-color="#fff804"/><stop offset=".22" stop-color="#ffe611"/><stop offset=".37" stop-color="#ffc826"/><stop offset=".53" stop-color="#ff9e42"/><stop offset=".71" stop-color="#ff6867"/><stop offset=".9" stop-color="#ff2794"/><stop offset="1" stop-color="#ff00ae"/></radialGradient><style>.axz-2{fill:none;stroke-linecap:round;stroke-linejoin:round;stroke-width:10px;stroke:#000}</style></defs><path d="M284 571.6a39.5 39.5 0 0 1 23.8-24.7c51.9 51.9 50.7 215.3-24.6 244-89.2 17.6-92.9-123.2-59.1-177 12.6 3.9 22.5 14.1 28.2 26.5-19.9 37.1-15.3 95.7 16.6 117.4 0 0 78.6-58.2 15.1-186.2Z" style="fill:url(#axz)"/><path class="axz-2" d="M287.6 590s-5.4-30.7 20.2-43.1c51.9 51.9 50.7 215.3-24.6 244-16.7 6.4-35.5 2.1-48.4-10.2-41.5-39.7-36.9-118.8-10.7-166.8 6.4 3 22.3 11.8 28.4 25.6"/><path class="axz-2" d="M287.6 590c57 75.9-3.7 207.6-33.9 154.8-17.2-30-17.2-72.7-.7-103.5"/><path class="axz-2" d="M317.1 542c-27.5 6.7-34.8 31.7-33.5 63.4"/><path d="M315.9 556.4c-.4-3.7-2.4-8.4.4-13.5m-8.2 9.9c-13.4 8.1-17.6 25-17.8 39.8m-2.6 7.1c25.3 44.6 17.2 55.1 11.8 102.3m-75.3-80.9c8.9 4.2 18.3 12.3 23.2 21.5-21.9 35.5-12.9 122.8 21.5 115.2" style="opacity:.6;stroke:#000;fill:none;stroke-linecap:round;stroke-linejoin:round;stroke-width:10px"/><path d="M317.9 731.9a75.4 75.4 0 0 1-18.4 30.2m-7.9 8.8a22.9 22.9 0 0 1-8 5.3m27.5-201.8a104.3 104.3 0 0 1 11.9 31" style="stroke:#fff;fill:none;stroke-linecap:round;stroke-linejoin:round;stroke-width:10px"/><style>.st40{fill:none;stroke-width:10;stroke-linecap:round;stroke-linejoin:round;stroke-miterlimit:10;stroke:#000}.st152{fill:#ae0f45}</style><g id="Ooooo"><path d="M571 686c16 10 49 36 53.5 36.9 45-10.5 81 9 84 8 40-27 67-50 32-96.9-22-15-36 36-46 45-46 43-76.5-30-123.5 6.6v.4z"/><path d="M436 659c-55 31 27 58 37.5 80-13 40 24 108 52 62.5 49.9-81 57 28 71 47.9 30.1 43 62-2 45-38-5-10.8-24-62 21-34 48 29.8 62-18 47-40.7-25-38-83-4-103-22.1-10-9-27-43-91-13C487 702 459 639 436 658.7v.3z" style="fill:#fe1767"/><path class="st152" d="M427 699c23-21 47 6 67 17 54 29 76-27 132 11.9-47-62-67.5-32-92-27.7-34 6-56-28-81-45-26-8-41 18-26 43.5v.3z"/><path class="st152" d="M641 751c-6-12 19.7-27 30.6-28-13-7-39-6.5-47 7.1L641 751z"/><path d="M585 711c10 5 18 14 24 24m9 11c1.5 1 3 3 4 5m42-19c9.9 1 19 6 26.5 13" style="fill:none;stroke:#fff;stroke-width:10;stroke-linecap:round;stroke-linejoin:round;stroke-miterlimit:10"/><path class="st40" d="M433 656c-13 4-18 24-13 36.9 14 34 68 24 53 70-11 36 31 72 47 42.5 38-68 66-20 69 28 2 29 48 55 57 10 4-19-7-35-14-52-8-18 11-26 25-16.9 1 1 2 2 3.5 3 15.5 14 32 22 48 2 23.5-30-20.9-45 32-72 26-13 20-53 3-71.6-20-17.5-32 6-39 24-29 77-88-3-127 21-98 60-94-40.9-145-25.1v.2z"/><path class="st40" d="M568 686.9c29 12 55 37 70 64M623 725c26-15 63-5 87 12"/><path d="M417.5 665.9c-34 63 71.5 42 49 107-11 31 28 65 56 41 13-11 18-38 39-35 24 8 17 48 29 68 32 54 97 16 49-58-7-11 7-25 25-6 35.5 36.5 64 4 59-34.7-5-44 38-35 32-66" style="opacity:.6;fill:none;stroke:#050505;stroke-width:10;stroke-linecap:round;stroke-linejoin:round;stroke-miterlimit:10;enable-background:new"/></g><defs><linearGradient id="zd" x1="447.05" y1="539.8" x2="543.4" y2="539.8" gradientUnits="userSpaceOnUse"><stop offset="0" stop-color="#f70275"/><stop offset="1" stop-color="#f78502"/></linearGradient><linearGradient id="zd-2" x1="562.73" y1="532.04" x2="661.07" y2="532.04" xlink:href="#zd"/><linearGradient id="zd-3" x1="672.66" y1="514.36" x2="758.62" y2="514.36" xlink:href="#zd"/><style>.zd-2{stroke:#000;stroke-linecap:round;stroke-linejoin:round;stroke-width:10px;fill:none;opacity:.6}</style></defs><path d="M485.3 459.7c-21.4 24.2-2.4 57.2 2.9 83.9 7.8 39-16.2 74.3 7.2 80.2 20.6 5.1 24.7-21.5 20.3-36.7-7.7-27.4-18.9-56.8-11.1-85.2 12.3-45.4-10.8-51.8-19.3-42.2Zm114.9-6.9c-40.9 11.8 15.4 82.4 3.2 120-15.2 46.8 14.5 46.2 19.9 42.4 29-20.5-13.8-70.9-9.4-103.7 2-15.1 13.3-66.6-13.7-58.7Zm98.4-16.7c-24.6 30.5 15.8 71.5 10.8 106.1-8.5 58.5 28.4 37.2 25.8 19.6-3.3-22.7-26.9-42-21.6-65.5 17.1-76.3-9.1-67.4-15-60.2Z" style="stroke-linecap:round;stroke-linejoin:round;stroke-width:10px;stroke:#000;fill:#fff"/><path class="zd-2" d="M471.3 435.8c-18.3 9.7-26.7 30.5-30.5 49.8-5.8 30.1 10.5 56.4 14.9 86 3.2 21.8-11.8 46.6 5.5 68.1 13.3 16.7 39.4 19.4 55.6 5.3"/><path class="zd-2" d="M483.2 456.2c-27.9 24.3-4.5 62 .4 91.2 3.4 20-3.8 39.6-4.3 59.4-.4 15 17.4 30.2 28.9 16.6m73-196.1c-58.1 40.5 6.2 106.8-8.4 166.1-9.4 38.5 24.5 71.9 60.5 49.8"/><path class="zd-2" d="M588.1 454.8c-21.8 22.8 4.6 64.9 9.7 92.1 3.5 18.5-4.4 35.8-3 54 1.1 14.8 20.2 27.6 30.3 13.6M689 414.9c-45.4 30.1-2.8 83-4.3 123.6-.6 17.1-6.7 34.2-3.3 51.5 3.6 19 24 36.8 42.8 26.2"/><path class="zd-2" d="M695.7 433c-21.9 21.6-5.4 54.6 3.3 78.6 7.3 20.2 3.6 35.1 4.1 54.8.2 11.2 13.5 26.1 22.5 13.8"/><path d="M694 450c-2.7 13.4 4.9 31.7 20.6 30.3-3.9 18-4.8 37.4 7 52.8.7 1.2 1.5 2.6.9 3.7-6.4 6.9-13.7-1.2-14.5-8.5-8.4-26.8-21.9-48.2-14-78.3Zm-105.8 17.7c1.6 15.1 6.1 37 25.1 28-4.3 19.6 2 39.4 6.4 58.5 2.7 7.9-7.6 9.6-12 4.7-1.7-28.1-20.6-52.8-23-80.8Zm-107.6 5c-5.2 13.7 3 35.5 19.1 36.2-4.7 18.5 5.9 36.5 6.6 54.9 1.1 6.6-10.2 8.7-13.8 4.6-1.2-27.9-26.9-70-11.9-95.7Z"/><path d="M481.2 433.4C451.7 445.9 444 484.5 448 513c5.3 37.2 18.6 52.9 12.2 93.5-11.1 69.5 118.7 61.6 73.7-65.5-16.5-46.6 4.1-69.8-2.8-89.2s-28.7-27.4-49.9-18.4Z" style="fill:url(#zd);opacity:.73"/><path d="M593.4 424c-58.2 33.4-16.5 82.4-12.4 133.4 2.2 28.7-17.7 74 20.2 85.9s71.3-22.6 56.3-56.9c-39.8-90.8-17.1-63.5-17.1-124 0-28.7-16.4-56-47-38.4Z" style="fill:url(#zd-2);opacity:.73"/><path d="M694.8 416.1c-42.8 28.8-11.4 71-5.6 109.2 3.1 20.4-6.3 41-3.6 61.6 4.7 37.7 53.5 39.6 67.2 7.6 23.6-55.4-32.8-66.6-20.7-120.5 16.2-72.2-26.4-65.2-37.3-57.9Z" style="fill:url(#zd-3);opacity:.73"/><path d="M481.2 433.4C451.7 445.9 444 484.5 448 513c5.3 37.2 18.6 52.9 12.2 93.5-11.1 69.5 118.7 61.6 73.7-65.5-16.5-46.6 4.1-69.8-2.8-89.2s-28.7-27.4-49.9-18.4Zm112.2-9.4c-58.2 33.4-16.5 82.4-12.4 133.4 2.2 28.7-17.7 74 20.2 85.9s71.3-22.6 56.3-56.9c-39.8-90.8-17.1-63.5-17.1-124 0-28.7-16.4-56-47-38.4Zm101.4-7.9c-42.8 28.8-11.4 71-5.6 109.2 3.1 20.4-6.3 41-3.6 61.6 4.7 37.7 53.5 39.6 67.2 7.6 23.6-55.4-32.8-66.6-20.7-120.5 16.2-72.2-26.4-65.2-37.3-57.9Z" style="fill:none;stroke-linecap:round;stroke-linejoin:round;stroke-width:10px;stroke:#000"/><path d="M716.1 426.7a26.8 26.8 0 0 1 3.8 19.9m-2.2 12.5-.4 2.2m26.9 106.1c.8 11.6-3 25.7-14.2 31.3m-12.1 2.8-2.5-.4m-99.9-166.4a34 34 0 0 1 7.4 21.9m-.3 14.4-.4 3.6m17.9 107.7a31.1 31.1 0 0 1-.5 30m-7.3 10.4-2.9 1.9M506.6 444.8c8.7 4.6 11.2 15.8 8.8 24.9m-2.1 13.9-1 4.2m13.6 88.6a51.2 51.2 0 0 1-4.5 36.4m-6 9.9a11.8 11.8 0 0 1-4.4 3.9" style="stroke:#fff;stroke-linecap:round;stroke-linejoin:round;stroke-width:10px;fill:none"/><defs><linearGradient id="zbm" x1="557" y1="390.36" x2="524.49" y2="55.58" gradientUnits="userSpaceOnUse"><stop offset="0" stop-color="#ff003b"/><stop offset="1" stop-color="#ffc400"/></linearGradient><linearGradient id="zbm-2" x1="549.79" y1="299" x2="555.18" y2="378.33" gradientUnits="userSpaceOnUse"><stop offset="0" stop-color="#ffc800"/><stop offset="1" stop-color="#ff00ae"/></linearGradient><style>.zbm-3{fill:none;stroke:#000;stroke-linecap:round;stroke-linejoin:round;stroke-width:10px}</style></defs><path d="M316.7 353c-63-155.5-37.1-219.2 128.3-254.6 191.6-41.2 362.9-25.6 358.4 214.7-161.7-13.6-328.6.5-486.7 39.9Z" style="fill:url(#zbm)"/><path d="M317.3 403.1c-9.2 12.5-26.4 20.8-27.1 38.3-246.4-126.3 825.4-205.6 507.3-39.3 0-14.4 1.3-30.2-10-44.1a1069.4 1069.4 0 0 0-470.2 45.1Z" style="fill:url(#zbm-2)"/><path class="zbm-3" d="M816.2 359.4c-178.6-21.7-358.6-11-528.1 54.1"/><path class="zbm-3" d="M790.7 358.2c8.1 13.7 6.8 29.5 6.8 43.9 318.1-166.3-753.7-87-507.3 39.3.7-17.5 17.9-25.8 27.1-38.3"/><path class="zbm-3" d="M316.7 353c-63-155.5-37.1-219.2 128.3-254.6 191.6-41.2 359.9-25.1 359.9 215.2"/><path d="M787.5 205.3c-133.3-32.4-409.5 9.4-497.4 58.6 2 11.1 4.4 22.2 8.4 37.5 156.4-56.5 331.7-87.3 497.4-59.6Z" style="stroke-linecap:round;stroke-linejoin:round;stroke-width:10px;stroke:#000"/><path d="M791.5 364.6a1178 1178 0 0 0-478.6 45m503.3-50.2c-6.5.9-15.1 4.9-18.7 10.8M287.2 415a23 23 0 0 1 13.2 1.6m497.1-169c-163.6-22.8-340.7-7.1-492.8 61.7" style="opacity:.6;stroke-linecap:round;stroke-linejoin:round;stroke-width:10px;stroke:#000;fill:none"/><path d="M834.6 338.8a192.7 192.7 0 0 0-46-11.5m-14.4-2-6.8-.9m-433.7 43.3c-15.2 3.6-29.1 7.5-41 15.7m-17.1 8 3.3-1.8M684.1 118a78.6 78.6 0 0 1 40.3 26.8m10.5 13.6 3.7 5.1m46.3 101.1a86.7 86.7 0 0 1 1.5 26.9M313.6 181.7a76.4 76.4 0 0 1 35.5-34.4m-43.3 48.9-1.8 5.5" style="stroke:#fff;opacity:.78;fill:none;stroke-linecap:round;stroke-linejoin:round;stroke-width:10px"/><circle cx="550" cy="550" r="500" style="fill:none;stroke:#000;stroke-width:10;stroke-linecap:round;stroke-linejoin:round;stroke-miterlimit:10"/></svg>