<svg version="1.1" id="Layer_1" xmlns="http://www.w3.org/2000/svg" x="0" y="0" viewBox="0 0 1100 1100" style="enable-background:new 0 0 1100 1100" xml:space="preserve" xmlns:xlink="http://www.w3.org/1999/xlink"><style type="text/css">.st303{fill:#FED907;stroke:#000000;stroke-width:10;stroke-linecap:round;stroke-linejoin:round;stroke-miterlimit:10;}</style><circle class="st303" cx="550" cy="553.7" r="500"/><linearGradient id="a3" gradientUnits="userSpaceOnUse" x1="432.676" y1="-700.409" x2="789.687" y2="-76.39" gradientTransform="translate(0 1066)"><stop offset="0" style="stop-color:#5900ff"/><stop offset="1" style="stop-color:#f06"/></linearGradient><path style="fill:url(#a3)" d="M302.5 412.2c13 30 55 19 61-10.5 3-13-.8-27-2-40.7-3-33 15-45 47-40.6 56 8 63-33 100.6-58.7 58-39.6 78 46 81 54 9 24.5 35 23 44-.7 26-71 94-32.5 93.5 28 1 13 1 25.5 5 37.6 8 32 68 39.5 59 5-1.5-6-17-12-17-12 27 9 43 42 33 68-8 21-39.9 44-13 70.7 26 26 40 54 25 83-54 105 46 96.5-36.5 188-7 8-12 22-13 29-3 17 20.1 28 23 17.9 5-18 16-26 16-26-17 19-13 22-22 45-12.5 32-49 12-55 57-8 33-26 40.9-57 34.9-21-.5-40 13-60 19-55 17-84-17-124-47-49-29-108 16-133-68 0 0 5 18 9.5 20.3 21 11 36-34 20.5-51.5-13-15-39-16-48-34-6-11-3-25-2-37.9 3-37-23-56-40.7-84.1-24-47.5 18-100 9-149-19-49-16-105 29-138.6L302.5 412v.2z"/><path d="M533 208.9c-68 59.6-71 20-121 36.5-19.6 10.9-14 30-9.7 39.6 11 23-51 9-69 40.3-10 18 .1 42-7.5 61.8-9 19.6-34 35-37 52.2-43 48-154 7-119 70.4 6 11 33-6 39 9.1 7 17.5-39 29-21 46.7 18 5 21 39.9 57 63.2 14 20 3 51 19 69.1 35.8 38 46-25 41-34.3 4-39 44-11 22 38.7-23 52 11 74 36.5 56.6 38.5-10.5-14 99.9 89.9 62.9 18 1 28 22 29.8 40.3 6.5 63 54 46 59 8 15.5-34 45 49 47 59.9 11 73 69 42 71 17.9 3-54-3-60.1 2-68.3 18.5-31 71 13 90.8-15.5 14-19.7-31-63.5 8-55.4 94 19 19-101 14-120.4-9-35.5 14-106 47-121.7 18-9 17-35.5 7-52.8-9.5-17-25-30.6-31-48.9-13.5-54 22-102-36-133.3-5-3-7-9.5-4-14.4 17-26 1-66-32-71.4-22-3-44 9-66.5 6.3-43.3-5-79.7-74-126.3-43.1z" style="fill:#6e6e6e"/><path d="M551 531.2c-4 3-8-6-7-10.6 4-11 19.9-5 21 5.1 2 20.5-29 26-35 8.3-21-61 99.7-54 64 5.1-54 90.6-144-47-56-74.4 130.8-41 127 189-29.6 124.6-72-29.7-55-145 2-180.5 135-85 249 165 93 228.2-143 57.5-250.6-133-173-249.8 107-159.7 406.5-57 311 228.4-70.5 210.6-543 143-434-182.1C352 299 516 201 654 250.8c30 0 126.5-31 113 52-33 55 26 7 31 79.3 0 86-26 50 41 148 9 23-7 48-33 45.2-1 40-60 47-9 153.5 38 78-20 102-49.7 72.9-8 15.5 47 92.5-37 69.6-30-10.8-57 1-48 35.8 19 70.6-30 79.7-53 58.5-28-26-21-98-63-99.5 8 29.8-35 59-54 29.1-11-24-6-70-35-79.2 42-25 95-13 141-23.5C757 756 824 534.5 761 388.2c-64-146-280.5-139-361-10.4-65 104-36 285 99 311.6 252 49.5 279.7-339.5 82-329-188 9.9-179 317 14 246.8 76-28 70.5-116 2-162.2-61-41-141 47-97 103.9 65 85 178.5-53 64-70-52-8-65.5 82-9.8 75.2 11-1 21-12 22-23.1 2-29.7-43-31-38-.8 2 11 19.5 14 21 1.8-.2-5-1.2-6.2-8.2-.8z" style="fill:#d9d9d9"/><style>.st40{fill:none;stroke:#000;stroke-width:10;stroke-linecap:round;stroke-linejoin:round;stroke-miterlimit:10}.st98{opacity:.6;enable-background:new}</style><g id="Outline"><path class="st98" d="M793 537c-1 .7-1 2-.5 3 5 10 11 35 25 30 8-2 21-13 18-22.4-.5-1-2-2-3-1.5-26 12-28-11-39-9.4v.3zm-34 274.5c6 5 26 8 25-3-6-7-20.6-12-21.5-26C750 772 744 803 759 811.5zm-219.3 52s1 .5 1 .8c9 13.5-3 36-18 40-34 6-9-6-6-44 .3-5.3 22.3 2.7 23 3.2zM342 731c5 7-4 22-4 33 8 13 29.6-5 33-14.9 2-12-17-21-28-20.2-1 .1-1 1.1-1 2.1zm31-120.2c2 23-8 47-26 61.9-13 10.9-17.5-30.6-8-27.9 6 4.2 28-18.8 34-34zm-157-59.9c-8 6-17 3-25 1-11 5 4 20 13.5 16 5-4 12-9 12-15.7-.5-.2-1.5-.2-.5-1.3zM337 473c-6-10-3-23 0-34 0-1 0-2-.6-2-9-9-23 11-19.8 20.7C318 463 338 475 337 472.8v.2z"/><path class="st98" d="M326 392c-2 29 24 45 7 44-7 2-14 1-15 11-1 11-24 0-24.5-1.3C285 433 317 404.5 326 392zm103-118c-9.9-4-16-16-18-25-4-6-9.9 1-11 6-7 54 29.5 28 29 19zm293 9c16 21 29.5 12 40 20.7 3 4 1 9.6-1 14-3 9-13 9-20 4.1-14.5-5.8-22-22.2-19-38.8z"/><path class="st40" d="M347 729c53.5 5 15 86 59 102 25 9 37-19.8 55-11.9 23 10.1 19.6 40 24 60.7 9.6 46 63 29.6 58-12.8"/><path class="st40" d="M519 861c89-9 47.5 119 114.5 115 39-6 35-47 25-76.5-3-9 0-18.5 7-24.5 24.5-21 59 15.5 84-2.5 15-11 8-33-2-45-12-15 0-32 10-43"/><path class="st40" d="M790 539c53 69.8-64 71 8 194.5 6 14 11 32 11 48.5 0 32-49 47.5-61 16"/><path class="st40" d="M721 287c2 51 64 31 74 88 6 34-11.5 71 7 103 10 18 27 31.5 34 51 8 19-4 47-27 42"/><path class="st40" d="M407 290.6c-16-8-12-29.9-2-41 17-15 40.5-10 61-6 29.8 1 49-29 75-38 50-17 81 55 133 44 23-5 48-11 69 1 25 14 33 55 10 75"/><path class="st40" d="M428 278c-16 26.5-51 17.5-76 28.5-20 10.5-28 33-23 55 10 47-43 51-39 88m25 4.5c1.5-23 35-26 41-5 7 25-13 47 16 72"/><path class="st40" d="M334 476c-20-34-61-31.5-89-9.6-20 8-43-3-64 4-22 7-28 37-5 43.5 6.5 2 23-2 26-1 15 4 11 25-5 30-21 6-10 29 6 29"/><path class="st40" d="M216 554.5c-15 15-14 41 2 55 37 22 41 31 36 69.7-2 31 46 41 53.5 10 2-10.8-4-22 0-33 13-32 44 20 62-44.5"/><path class="st40" d="M327 647.9c25 29.7-.5 47-7 75-10 32.5 34 65 53 25"/><path d="M729 262.5c9 4 16 13 18 22.5m-193-68c12.5 2 24.5 8 34 16m9 9 3 3m-163 10c-5.5-.9-12 .6-15.5 4M362 319.6c-9 2-14 10.7-16 19M339 449c4 1 6 6 6 9.8M308.5 470c-12-6-16-5-22-4M175 492c1-4 5-7 9-7.5m38 89.5c-4 8 0 16 4 19.9m44 78.6c-1 6 1 15 9 18m76-77.5c-3 14-13 14.5-16 16m4.5 119.5c-5-3-9-9-8-15M397 782c-1 14.5 7 28 14 30m90 53.9c-3 12 2 27 14.5 25M636 957c14-3 17-28 11-38m96-60.1c1-7 0-14-4-19m46-49.1c8-6.5 9-25 3-39M786 582c5-8 3-19-3-26m37-12c2-8.5-.6-18-7-24m-56-169c18 6 22 30 21 35" style="opacity:.7882;fill:none;stroke:#fff;stroke-width:10;stroke-linecap:round;stroke-linejoin:round;stroke-miterlimit:10;enable-background:new"/></g><style>.st40,.st68{fill:none;stroke-width:10;stroke-linecap:round;stroke-linejoin:round;stroke-miterlimit:10;stroke:#000}.st68{opacity:.6;enable-background:new}</style><g id="trippy_monocle"><path class="st68" d="M478 416c-98.5 54-52 295 75 229m120-263c-24 5-51 30.5-54 56m142 120c-1 25-19.9 49-43.5 57M674 420c-62 49.7-14 226 41 157"/><path class="st68" d="M515 446.9c-32.5 32-26 103-10.5 143 9 22 38 29 41.5 1"/><path d="M687 417c-49 19 1 94 40 65 18-17-11-81.5-37-67.5 1-.5 1-2-3 2.5zm-171 33.5c-34 25 4 86 38.5 55C567 465 536 433 516 450.5z" style="fill:#fff"/><path class="st40" d="M525 445c-43 8-36 170.5 7 159 41-11 39-168-7-159.4v.4z"/><path d="M503 490.6c-27 129 68 160 58 12-34 27.2-51-8.6-58-12zM661 449c-47 176 96 182 72 28.9-33 23.1-57 1.6-72-28.9z"/><path class="st40" d="M504.5 467c-5.5 32 23 63 54 39M686 416c-63 33-38 186 14 170.5C755 571 744 386 686 416z"/><path class="st40" d="M666 437c-6 33 37 63 66 42m-107-39.2c6-25 25-46.5 50-54M757 557c-8.5 29-19 44-43 54"/><linearGradient id="SVGID_00000171696356865888095910000012114362784109113733_" gradientUnits="userSpaceOnUse" x1="431.024" y1="881.903" x2="597.039" y2="881.903" gradientTransform="matrix(1 0 0 -1 0 1410)"><stop offset="0" style="stop-color:#00ff62"/><stop offset="1" style="stop-color:#009dff"/></linearGradient><path style="opacity:.7216;fill:url(#SVGID_00000171696356865888095910000012114362784109113733_);enable-background:new" d="M487 413.5c-78 38-75 218 17 237 131 27.5 124-305.5-17-237z"/><path d="M537.5 423c17 11 27 32 33.5 51m3 18v7m-10 109c-6 12-17 22-30 27" style="fill:none;stroke:#fff;stroke-width:10;stroke-linecap:round;stroke-linejoin:round;stroke-miterlimit:10"/><path class="st40" d="M508 404c-109 26-102 253 17.5 248 104.1-4 95.5-275-17.5-248z"/></g><style>.st68{fill:none;stroke-width:10;stroke-linecap:round;stroke-linejoin:round;stroke-miterlimit:10;opacity:.6;stroke:#000;enable-background:new}</style><g id="Target"><path class="st68" d="M519 277c32 24 63 50 92 77.3L519 277z"/><path class="st68" d="M535 358c28-34 48-57 74.5-89"/><path d="m526.5 277 86.5 71m-82 7c29.8-32 50.6-60 78-90" style="stroke:#f01;fill:none;stroke-width:10;stroke-linecap:round;stroke-linejoin:round;stroke-miterlimit:10"/></g><style>.st16,.st40,.st68{fill:none;stroke:#fff;stroke-width:10;stroke-linecap:round;stroke-linejoin:round;stroke-miterlimit:10}.st40,.st68{stroke:#000}.st68{opacity:.6;enable-background:new}</style><g id="Polar_Hoodie"><linearGradient id="SVGID_00000032637641433338465610000007851579417180279483_" gradientUnits="userSpaceOnUse" x1="544" y1="-432" x2="544" y2="-1068" gradientTransform="translate(0 1066)"><stop offset="0" style="stop-color:#00ffc4"/><stop offset=".103" style="stop-color:#00f6c7"/><stop offset=".274" style="stop-color:#00ddce"/><stop offset=".489" style="stop-color:#00b5da"/><stop offset=".742" style="stop-color:#007deb"/><stop offset="1" style="stop-color:#003cff"/></linearGradient><path style="fill:url(#SVGID_00000032637641433338465610000007851579417180279483_)" d="M241 301.7c2 45-55.8 49.9-65 86-5 19 27 59-36 85-38 2.5-63 83-13 81.9 27-7-46 28.5 9 119.7 17 28-8 68-39.8 86 158 373 716 385 896 23.9-106-83-3-103-29-159-20-44-40-18-40.5-35.3 25-32 100.5-72.5 54-118-24-23-38 59.5-66 10.6-22-38 37-89 18-126-10.8-13-42-32-53-9.9-23 3 18-115-43-145-61 13-33 74-110-50-18-29-62 12-150-76-31-13.5-131 11.5-92 58-217-17-110 54-190 93.5-44 13-104 21-97 81.5 4 32 41 18 156 38 22 4 13-25 44-28.2 76 18 95-63 138-67 50.6-2 47 58 72 79 29 16 31-31 50-42 68.5-41 74 68 81 101 11 24 46 28 62 6 39 38-4 62-10 98 0 18 17 30 28 45 42 59-29 81-5.5 139.8 11 27 22 70.9-11 87-73 82 26 56-22 99.8-15 9.9-36.5 13.5-44 32.5-12.5 53-24 45.5-73 45-108 54.5-104 9.9-188-34.9-34-11-86 2-104.5-37 24 3.5 34-41 20.6-55-69-34-49.8-40-52.5-82.6-5-76.5-72.5-44-32-170 20-63-25.5-80 .8-148 12 34 57 12 59.8-16.9 2-19-6-39 2-57.5L241 301.7z"/><linearGradient id="SVGID_00000117640511703433748440000010943481505125308581_" gradientUnits="userSpaceOnUse" x1="541.898" y1="-622" x2="541.898" y2="96" gradientTransform="translate(0 1066)"><stop offset="0" style="stop-color:#ff0051"/><stop offset="1" style="stop-color:#ffae00"/></linearGradient><path style="fill:url(#SVGID_00000117640511703433748440000010943481505125308581_)" d="M103 782.3c-30.6-33.5 27-40 33-81 10-39.5-46-84-12-118 58.5 35 28-56 61-64-15.5 42 33 53 29 8.5 49 17 5.5 34 14 63.9 6 21 35-12 30-29 7 12 16 38 34 28-34 70 48.5 90 44 149.1-13 82 86 46 40 124.9-7 5-9 12-2 18 34 28 57.5-10 186 78 48 18 75-24 119-19.8 55.5 5 38-43 78-67 13-8 47-32 19-42-36-36 67-59 31-146-29.9-72 41-93 3-149.8 15-13 20-35 13-53 13 3 19 15 25 26 30 17.5 8-52.5 33.5-66-1 15-2 53 22 31.4 30.5 49 43-10 54-6 96.5 36-69 119-27.5 129 102 24-59 131 59 180.8-174 361.4-717 354.7-886 4z"/><path d="M513 184c32 24 78.5 20 109.9-2-31.9-21-83.9-35-109.9 1.8v.2z" style="fill:#fff"/><linearGradient id="SVGID_00000006678727818027146420000015326747936323323321_" gradientUnits="userSpaceOnUse" x1="563.48" y1="-907" x2="563.48" y2="-854" gradientTransform="translate(0 1066)"><stop offset="0" style="stop-color:#ff0051"/><stop offset="1" style="stop-color:#ffae00"/></linearGradient><path style="fill:url(#SVGID_00000006678727818027146420000015326747936323323321_)" d="M548 161c-33.5 34 23 54 37 33.1 19-37.1-29-39.1-37-33.1z"/><path class="st40" d="M302 413c13 30 55 19 61-10.5 3-13-.8-27-2-40.7-3-33 15-45 47-40.6 56 8 63-33 100.6-59 58-39.8 78 46 81 54 9 24.5 35 23 44-.7 26-71 94-32.5 93.5 28.4 1 13 1 25.5 5 38 8 32 68 39.5 59 5-1.5-6-17-12-17-12 27 9 43 42 33 68.2-8 21-39.9 44-13 70.7 26 26 40 54 25 83-54 105 46 96.5-36.5 188-7 8-12 22-13 29.3-3 17 20.1 28 23 17.9 5-18 16-26 16-26-17 19-13 22-22 45-12.5 32-49 12-55 56.6-8 33-26 40.9-57 34.9-21-.5-40 13-60 19-55 17-84-17-124-47-49-29-108 16-133-68.4 10 52 53-1 30-31-33-28-59-15-50-72 3-37-23-56-40.7-84-24-47.5 18-100 9-149.3-19-49-16-105 29-139"/><path class="st40" d="M990 780c-83-49.9-26-111-22-126 10.5-57-72-89.6-43-17.2-30.8-73 59-65 64-133.5 2-30.9-29.6-52-43-16-4 10.7-22 14-29 5.5-33.5-37.5 28-86 15-129.9-18-46.5-87-28-41 16-50-46 7-130.8-48-171-36-26-48.5 49-84 2-43-57-18-72-102-77.8-36-2.5-49-31-74-52-34-29-147 14-103 48 9.7 7.5 48-6 48-6-56 24.5-128-11-182 24-34 22-6 52-50 77-24 14-50 5-80 27-62 51 17 125 26 52-4 60.5-87 54-61 114.1 9 20-11 47-31 53-88 25-42 120-13 75 3-5 1-23 1-23 4 24-9 45-19.6 65.6-31 59.5 72 90-21 171C254 1139.8 822 1144 990 780z"/><path d="M893 378c-9.8-10.9-7-32.5 4-42-11-5-25 6-25.5 18M928 637.5c1-14 10.8-28 24-33-11-5-25-13-35-3M807 802c-11 9-25 18.5-39.7 13 6.5 1.5 5 16 22 19M358 843.5c10 7 24.5 5 33-4-2 12.5-11 27-25 29M134 519.7c-5 11.5-20.5 22-33 18 6 15 26.5 24 38 10m197-177c-11 18-22 41-9.7 60.9-15-.9-26.5-17-22-32M239 298.9c-9.5 12-27 21-43 15.9 8 12 26 22 39 12M527 119c-20 3-40-4-53-21-7 13 0 31 14 36m283 242c7 9 8 22 3 32 12.5-2 24-16 17-28v1" style="opacity:.6;enable-background:new"/><path class="st16" d="M908 358.5c8 6 11 18 8 27.5m-3.5 13c0 1.5-.5 3-1 4.5m59.5 87.3c4 10 3 22-3 31m-6 12.2c-1 .8-2 2-3 2m-14 82c6 6 9 15 8 23.5m-1 11.5c0 .8-1 2-1 2.5M832 219c10 6.5 17.5 17.5 19 29m1 16c1 2 1 4 .5 6M691 150c9 3 17.5 9 23 17M535 87c-15 .9-29.7 6-42 15m56-17.5h6.5M383 148c-14 2-28 9.7-36.5 21m53.1-23h4M220 265c-9.7 10-14 24.5-12 38m26-46.8 3-1.5M205 374c-8 5-14 14-15.5 24M124 496c-8 8-13 20-12 32m15 72.8c-4 11.5-3 16 3 28m9 11.2c1 2 1 4 2 6m230 173.7c6 5 9 14 7 21m-18.1-27.2c-1-.9-2-2-3-2M447 918c12 0 25 6 34 10.9m13 10.1c1 1 2 2 4 3m183.5 16c-9-2-18-1-26 2.5M758 889c-8 5-11 14-13 22m49-117c-5 6-8 12.5-9 19.7m16-30.7 3-3m24-165c-5 13-11 27.5-8 42m3 14.6 1 4.5M805 476c-6 8-5 19 1 27m-62-135.1c2 11.5 11 22 22 25m-24-40.3-.7-4M609.6 322c5-1 10-4.5 12-9m4.4-12 1.5-3M469 277.9c-9 11-20 20.6-33.5 26.5m-12.5 2.8h-5m-68.2 83.6c-1 10-7.5 19.5-16 24M349 369c.5 3 1 5 1 8m-64.5 124c3 10 4 21 2 31m-1.5 15c-1 2-1 3-2 5m18.5 139c9 8 15 18 18 29.5"/><path class="st68" d="M128 575c8 11 23 16 29 1 4-10 0-22 1-32 2-19 19-31 36-37.9-22 56 22 61 12.5 13 65 23 20.5 38 27 69.7 7 18 23-29.8 21-36 16 6.5 15 36 34.5 33M166.5 690.6c-13-28 26-47 26-75 9 9 6 24 12 34.9 7.5 6 11-9 10.9-15M219 726c-43 26-2 64.5-21 85.5m29-57.5c5-4 8-10.5 8-17m33 35.5c4 12-1 27-12 34.5m123 111c-4 12-12 22-22 29m152 9c-2 18-28 35.5-13 54m32-19c4-5 6-11 5-16.9v-.5M803 877c-17 10-26.5 44-15 60m26-87.3c10 14 11 33 1 47.5m66-64.7c-22 7-10 36-25 50m16-208.6c-42 19-6 58-13 78m32-122.2c-27 18 7 44-10 65M813 527c12-11 16-33 2-44 23.5-3 29 1 37.5 22 1.5 8 20 9.5 9-23.1-4.5-19 12-39.7 29.8-44-4 13-9 51 13 31.5"/><path class="st40" d="M123 579c8 20 40.5 18 43-3.5 2.5-22-11-39 22-60.6-17 60 37 51 25 11.7 14 1 31 15 25 28-29 64 23 54 19 5 12 8 15 42 32 33m525-59.7c17-9 20.8-34 7-48 27-4 21 19 31 27 5 4 13 1 15.5-4.1 10-18-18-35 19-65-12 48 16 38 19.9 30M361 950c11-6 19-18.5 19.6-31 .5 10 5 25 18 24m393.4-7c-13-19 3-42 13-58.5-2 51.5 45 2.5 9.8-30.7 12 2 27 6.5 31 19.2 2 6 1 16 8 19 4 2 10 0 12-4.5 9.6-18-5.5-30 17-47-4 9 1 24 12 20.6M860.5 753c19-24-31.5-42 13.5-78-6 29 13 30 17 14 8-29-23-32 3.5-59.4-2 22 24.5 17 24 52-.1 4 2 8 5 9.8M499.7 1009c-13-12 12.5-33 11.5-51.9 7 62 37 35 25 17 34 9.6 6 44.5 32 53M200.5 813c28-30.7-23-42 19.8-85-9 43 25 35 16.5 9 22 6 17 27 12.5 43.2-12 45 33 33 21-7 23 2 23 26 17 44-5 10.7-6 22 3.5 30.8M171 689.7c-10-22 23-34.5 23-66 3 10 1 31 11.5 36 11.5 2 16-15 12-23.5 33 17-1 46 25 63M501 194c38-51 91-36 131.5-11"/><path class="st40" d="M512.5 185c32 24 79 22 109-4"/><path class="st40" d="M541 166c-4 10.6-3 23 2 33m44-2c6-9.9 5-23-1-32"/><path class="st68" d="M508 190.7c35 25 86 23 118-6"/><path class="st16" d="M575 172c3 4 3 9 2 14"/></g><defs><linearGradient id="zae" x1="798.93" y1="733.98" x2="937.44" y2="726.56" gradientUnits="userSpaceOnUse"><stop offset="0" stop-color="#f705ff"/><stop offset=".5" stop-color="#e30556"/><stop offset="1" stop-color="#ffc505"/></linearGradient><linearGradient id="zae-2" x1="611.81" y1="744.71" x2="857.55" y2="744.71" gradientUnits="userSpaceOnUse"><stop offset="0" stop-color="#00ff6f"/><stop offset="1" stop-color="#0090ff"/></linearGradient><linearGradient id="zae-3" x1="826.24" y1="742.98" x2="857.41" y2="742.98" gradientUnits="userSpaceOnUse"><stop offset="0" stop-color="#f06"/><stop offset="1" stop-color="#f90"/></linearGradient><linearGradient id="zae-4" x1="652.3" y1="753.53" x2="744.04" y2="753.53" gradientUnits="userSpaceOnUse"><stop offset="0" stop-color="#ff009d"/><stop offset="1" stop-color="#ff6200"/></linearGradient><style>.zae-4{fill:none;stroke-linecap:round;stroke-linejoin:round;stroke:#000;stroke-width:10px}</style></defs><path d="M812.7 697.1c-.8-22 16.5-29.6 35.7-16.3 10.5 7.2 15.4-1.7 18.7-9.4 4.1-9.3 3.6-22 15-25.1 23.8-6.4 33.2 25.6 10.5 39.9-19.1 12 1.3 36 14.1 16s39.7-11.3 31.6 11.8-50.1 5.6-50.1 25.6c0 10.8 11.2 9.8 21.5 13.5 20.6 7.4 6.2 41.6-14.9 31.6-5.1-2.4-10.8-6.9-16.1-4.4s-6.4 10.6-2.1 16c5.6 7.1-1.3 16.9-9.5 17.8-10.6 1.1-15.2-10.9-26.1-11.6-8.9-.7-21.3-3-23.4-13.4Z" style="fill:url(#zae)"/><path d="M618.4 773.8c34.4-8.5 64.9 17.1 98 17.7 13.5.2 26.5-5.5 39.9-5.8 30.3-.7 84.6 8.6 93.6-13.4 27-65.5-22.1-88.1-77.6-66.3-22.3 8.8-52.5 17.8-49.1 11.6-11.3-39.7-77.3 19.7-106.9 13.8-6.8 12.9-5.7 29.7 2.1 42.4Z" style="fill:url(#zae-2)"/><path d="M826.2 700.5c13.3 51.7-1.7 70.9 4.5 83.3 21.3 15.6 49.6-80.6-4.5-83.3Z" style="fill:url(#zae-3)"/><path class="zae-4" d="M618.5 731.8c30.7.3 53.9-26.7 84.5-28.9 10-.7 24.2 8.1 18.6 18.9"/><path class="zae-4" d="M703.5 723c24.3 2.4 46.5-8.2 68.8-17 55.5-21.8 104.6.8 77.6 66.3-9 22-63.3 12.7-93.6 13.4-13.4.3-26.4 6-39.9 5.8-33.1-.6-63.6-26.2-98-17.7"/><path class="zae-4" d="M822.7 698.8c12.6 24.9 12.8 58.2 4.2 85m7.2-25.9 18.6-1.8m-19.2-29.2 19.1-3.1"/><path d="M652.5 752.4c3.9 11 18.1 7.3 27.1 6.2 13.9-1.6 26.9 6.1 40.5 8.2 32.8 4.8 31.5-32.1-1.3-22.7-16.9 4.8-70.3-17.1-66.3 8.3Z" style="fill:url(#zae-4)"/><path d="M689.5 743.1c-.3 21.2 51.3 36.2 52.5 9.2-2.4-12.2-42.8-8.6-52.5-9.2Z" style="opacity:.3;fill:#fff"/><path d="M716.3 747.7a24.6 24.6 0 0 1 14.2 17.3c31-7.7-2.6-32.5-14.2-17.3Z" style="opacity:.49;fill:#fff"/><path class="zae-4" d="M652.5 752.4c3.9 11 18.1 7.3 27.1 6.2 13.9-1.6 26.9 6.1 40.5 8.2 32.8 4.8 31.5-32.1-1.3-22.7-16.9 4.8-70.3-17.1-66.3 8.3Zm160.2-55.3c-.8-22 16.5-29.6 35.7-16.3 10.5 7.2 15.4-1.7 18.7-9.4 4.1-9.3 3.6-22 15-25.1 23.8-6.4 33.2 25.6 10.5 39.9-19.1 12 1.3 36 14.1 16s39.7-11.3 31.6 11.8-50.1 5.6-50.1 25.6c0 10.8 11.2 9.8 21.5 13.5 20.6 7.4 6.2 41.6-14.9 31.6-5.1-2.4-10.8-6.9-16.1-4.4s-6.4 10.6-2.1 16c5.6 7.1-1.3 16.9-9.5 17.8-10.6 1.1-15.2-10.9-26.1-11.6-8.9-.7-21.3-3-23.4-13.4m-200.2-69.5c-6.3 20.9-8.1 46 2.8 68.3m-40.6-82.5c17.4-67.6 59.3-31.9 66 18.2"/><path class="zae-4" d="M580.9 801.8c24.2 71.2 65.8 25.1 65.5-26.9"/><path d="M579.6 705.4c-1.9-18.1 12-42.1 31.5-36.9m-30.2 133.3c-1.6 20 21.5 52.2 41.4 33.1m-2.7-100c-2.1 11.4-2.1 24 1.2 35.1m82.5-48.2a43.1 43.1 0 0 0 16.4-7.2m-67.4 36.3c0 21.6 32.7 10.1 46.5 15.3s39.6 12.3 44.6-8.1m86.9-53.6c8.6 24.5 8.9 50.5 2.4 75.6" style="opacity:.6;stroke-width:10px;stroke:#000;fill:none;stroke-linecap:round;stroke-linejoin:round"/><path d="M817.3 714.5c-9.8-5.5-21.6-2.9-31.6.8m-11.3 3.4a8.5 8.5 0 0 0-2.2.9m-80.3-1.9a68.2 68.2 0 0 0-13.8 5.4M612 683.4c5.4 3.3 8.7 9.1 11.7 14.7m5.1 10.8.7 2.7m3.6 76.6a53.2 53.2 0 0 1-7.3 20.4m-7.6 10.1-2.3 2.3" style="stroke:#fff;stroke-width:10px;fill:none;stroke-linecap:round;stroke-linejoin:round"/><path d="M835.4 685.4a9 9 0 0 0-8.7.3m65.2-29.1a10.1 10.1 0 0 1 3 8m-2.2 7a5.9 5.9 0 0 1-1.7 2.7m38.9 31.7a9.5 9.5 0 0 1-6.3 8.3m-15.8 58.5a8.5 8.5 0 0 1-8.5 1.4m-6.7-2.8-1.6-.5m-31.5 30.3a10.1 10.1 0 0 0 6.3 3.2" style="stroke-width:6px;stroke:#fff;fill:none;stroke-linecap:round;stroke-linejoin:round"/><circle cx="550" cy="550" r="500" style="fill:none;stroke:#000;stroke-width:10;stroke-linecap:round;stroke-linejoin:round;stroke-miterlimit:10"/></svg>