<svg version="1.1" id="Layer_1" xmlns="http://www.w3.org/2000/svg" x="0" y="0" viewBox="0 0 1100 1100" style="enable-background:new 0 0 1100 1100" xml:space="preserve" xmlns:xlink="http://www.w3.org/1999/xlink"><style type="text/css">.st300{fill:#00DE72;stroke:#000000;stroke-width:10;stroke-linecap:round;stroke-linejoin:round;stroke-miterlimit:10;}</style><circle class="st300" cx="550" cy="553.7" r="500"/><path d="M532 209c-68 59.6-70.9 20-120.8 36.5-19.6 10.9-14 30-9.7 39.6 11 23-50.8 9-69 40.3-10 18 0 42-7.5 61.8-9 19.6-34 35-37 52-43 48-154 7-119 70.4 6 11 33-6 39 9.1 7 17.5-39 29-21 46.7 18 5 20.7 39.9 57 63 14 20 3 51 19 69.1 36 38 46-25 41-34.3 4-39 44-10.6 22 38.7-23 52 11 74 36.5 56.6 24-9 13 39 23 50.9 19.5 37 55 12 67 12 18 .7 28 22 29.8 40.3 6.5 63 54 46 59 8 15.5-34 45 49 47 59.9 11 73 69 42 70.8 17.9 3-54-3-60 2-68.3 18.5-31 71 13 90.8-15.5 14-19.7-31-63.5 8-55.4 94 19 19-100.7 14-120.4-9-35.5 14-106 47-121.7 18-9 17-35.5 7-52.8-9.5-17-25-30.6-31-48.9-13.5-54 22-102-36-133.3-5-3-7-9.5-4-14.4 17-26 1-66-32-71.4-22-3-44 9-66.5 6.3C615 247 578.5 178 532 209z" style="fill:#5d7f48"/><path d="M800 739.3c-5-3.5-5.5 16-14.5-2.4-2-4.5-9-5-13-1.9-6 6-2 18.5-9 22.6-9.8 5.5-17-8-16-16.5 3-49-69.6-23-36 7.5 10.6 9.5 28 19.8 16 35.8-14 19-18-22-39-10.8-18 9-19.5 38-7 52.3 12 14 19 28.5 3 43.9 17-11 71 29.5 74-10.5 1-18-27-40.9-10-57.9 11.5 20.6 86 24.6 51.5-62.1zm9-251.4c-15 39-85 33-97-4-12-38 38-64 4-107.8-17-22-45-7-27 17.4 19 25-17 53-40 33.8-65.5-55 59.9-109-26-190.9 32 37 86-9.8 123 15.1 23 16 27 56 7 76.8 81 30.7 11 106.7 56 159.6zM209 594c9-14 28-5 35 6.7 9.7 16 28.5 43 47 22.1 7-7 4-17 .6-25.7-6.5-15 9-25 24-20.5 6 2 12 5 19 5.3 26 3 42.5-27 30.6-49-4-7-4-18-4-26.4-2-50-12-109-47-50.4-29-20.5-80 25-119 14.4-39-5-45 55-1.5 44.1 42.5 0 5 26-8 41 3 12 10.6 13 19 17.3 2.3 6.6 1.3 16.1 4.3 21.1z" style="fill:#7a0d09"/><path d="M710 870.6c-7-20.6 23.5-19 20 3.7l-20-3.7zm12-67c-4 1-6 7-3 10.1 2.5 2 7 2.5 9 5.4 1.5 2 .7 5 2 7.6 5 9 17 0 14.5-8.4C741 809 734 800 722 803.6zm65 6.7c-11-14 7-43 19.6-29.5 4 13.2-6.6 27.2-19.6 29.5zm-94-5.8c-6 7 6 23 13 16 8-7.5-4-27.5-13-16zm104-333.2c-24 8-45.5-12-39.8-37 5-20.9 36-26.5 36-1.3l3.8 38.3zm-66.4-7c-5 9.9 9 23 18 16 15.4-11.3-6.1-39.3-18-16zm6.9-141.3c-16 17.5 6 48 23 56.3s35-8 26-25.7c-11-17.6-27.5-23.6-49-30.6zm-66.9-70.9c-15 44 48 69 52 51 1-5-4-29 9.8-14 28 30 35-29 5-43.7-12.4-6.4-56.4 4.5-66.8 6.7zM212 532c4 6.5 12 10 19.6 11.3 57 9 26-88-17-71.5-17 1-42-6-52 12.5C149 530 219 497 212 532zm73-39.1c-23 30.7 35 62 39 23.5 2-18.4-25-42.4-39-23.5z" style="fill:#e1908d"/><style>.st40{fill:none;stroke:#000;stroke-width:10;stroke-linecap:round;stroke-linejoin:round;stroke-miterlimit:10}.st98{opacity:.6;enable-background:new}</style><g id="Outline"><path class="st98" d="M793 537c-1 .7-1 2-.5 3 5 10 11 35 25 30 8-2 21-13 18-22.4-.5-1-2-2-3-1.5-26 12-28-11-39-9.4v.3zm-34 274.5c6 5 26 8 25-3-6-7-20.6-12-21.5-26C750 772 744 803 759 811.5zm-219.3 52s1 .5 1 .8c9 13.5-3 36-18 40-34 6-9-6-6-44 .3-5.3 22.3 2.7 23 3.2zM342 731c5 7-4 22-4 33 8 13 29.6-5 33-14.9 2-12-17-21-28-20.2-1 .1-1 1.1-1 2.1zm31-120.2c2 23-8 47-26 61.9-13 10.9-17.5-30.6-8-27.9 6 4.2 28-18.8 34-34zm-157-59.9c-8 6-17 3-25 1-11 5 4 20 13.5 16 5-4 12-9 12-15.7-.5-.2-1.5-.2-.5-1.3zM337 473c-6-10-3-23 0-34 0-1 0-2-.6-2-9-9-23 11-19.8 20.7C318 463 338 475 337 472.8v.2z"/><path class="st98" d="M326 392c-2 29 24 45 7 44-7 2-14 1-15 11-1 11-24 0-24.5-1.3C285 433 317 404.5 326 392zm103-118c-9.9-4-16-16-18-25-4-6-9.9 1-11 6-7 54 29.5 28 29 19zm293 9c16 21 29.5 12 40 20.7 3 4 1 9.6-1 14-3 9-13 9-20 4.1-14.5-5.8-22-22.2-19-38.8z"/><path class="st40" d="M347 729c53.5 5 15 86 59 102 25 9 37-19.8 55-11.9 23 10.1 19.6 40 24 60.7 9.6 46 63 29.6 58-12.8"/><path class="st40" d="M519 861c89-9 47.5 119 114.5 115 39-6 35-47 25-76.5-3-9 0-18.5 7-24.5 24.5-21 59 15.5 84-2.5 15-11 8-33-2-45-12-15 0-32 10-43"/><path class="st40" d="M790 539c53 69.8-64 71 8 194.5 6 14 11 32 11 48.5 0 32-49 47.5-61 16"/><path class="st40" d="M721 287c2 51 64 31 74 88 6 34-11.5 71 7 103 10 18 27 31.5 34 51 8 19-4 47-27 42"/><path class="st40" d="M407 290.6c-16-8-12-29.9-2-41 17-15 40.5-10 61-6 29.8 1 49-29 75-38 50-17 81 55 133 44 23-5 48-11 69 1 25 14 33 55 10 75"/><path class="st40" d="M428 278c-16 26.5-51 17.5-76 28.5-20 10.5-28 33-23 55 10 47-43 51-39 88m25 4.5c1.5-23 35-26 41-5 7 25-13 47 16 72"/><path class="st40" d="M334 476c-20-34-61-31.5-89-9.6-20 8-43-3-64 4-22 7-28 37-5 43.5 6.5 2 23-2 26-1 15 4 11 25-5 30-21 6-10 29 6 29"/><path class="st40" d="M216 554.5c-15 15-14 41 2 55 37 22 41 31 36 69.7-2 31 46 41 53.5 10 2-10.8-4-22 0-33 13-32 44 20 62-44.5"/><path class="st40" d="M327 647.9c25 29.7-.5 47-7 75-10 32.5 34 65 53 25"/><path d="M729 262.5c9 4 16 13 18 22.5m-193-68c12.5 2 24.5 8 34 16m9 9 3 3m-163 10c-5.5-.9-12 .6-15.5 4M362 319.6c-9 2-14 10.7-16 19M339 449c4 1 6 6 6 9.8M308.5 470c-12-6-16-5-22-4M175 492c1-4 5-7 9-7.5m38 89.5c-4 8 0 16 4 19.9m44 78.6c-1 6 1 15 9 18m76-77.5c-3 14-13 14.5-16 16m4.5 119.5c-5-3-9-9-8-15M397 782c-1 14.5 7 28 14 30m90 53.9c-3 12 2 27 14.5 25M636 957c14-3 17-28 11-38m96-60.1c1-7 0-14-4-19m46-49.1c8-6.5 9-25 3-39M786 582c5-8 3-19-3-26m37-12c2-8.5-.6-18-7-24m-56-169c18 6 22 30 21 35" style="opacity:.7882;fill:none;stroke:#fff;stroke-width:10;stroke-linecap:round;stroke-linejoin:round;stroke-miterlimit:10;enable-background:new"/></g><linearGradient id="a16" gradientUnits="userSpaceOnUse" x1="588.718" y1="669.061" x2="570.716" y2="592.054" gradientTransform="matrix(1 0 0 -1 0 1410)"><stop offset="0" style="stop-color:#0aff16"/><stop offset=".104" style="stop-color:#0afd3b"/><stop offset=".283" style="stop-color:#0afa76"/><stop offset=".456" style="stop-color:#0af8a7"/><stop offset=".619" style="stop-color:#0af6cd"/><stop offset=".768" style="stop-color:#0af4e9"/><stop offset=".9" style="stop-color:#0af3f9"/><stop offset="1" style="stop-color:#0af3ff"/></linearGradient><path style="fill:url(#a16);stroke:#000;stroke-width:10;stroke-linecap:round;stroke-linejoin:round;stroke-miterlimit:10" d="M720 718c-63 33.5-179 40.6-235-10-27 19-37 63 12.5 57.5 18.5-2 8 39.8 29 43.1 14 2 19.6-9.8 26-22.5 7-15 25-5 29.6-3.5 26 8 27-19.6 25-33"/><path d="M482 706c-30.5 19-39.9 71 6.5 69 23-1 17 9.5 20 23 6 26 34 24 44.5 1.7 16-34 54 17 59.7-36 4-33-25 14 107-39.8" style="opacity:.6;fill:none;stroke:#000;stroke-width:10;stroke-linecap:round;stroke-linejoin:round;stroke-miterlimit:10;enable-background:new"/><path d="M484 725.9c-5 5-8 11-8 18m5 9.1c0 .5 1 1 1 1m52 42c5-3 9-13 9-13m55-21c0 3.5-1 7-4 9" style="fill:none;stroke:#fff;stroke-width:7.5;stroke-linecap:round;stroke-linejoin:round;stroke-miterlimit:10"/><defs><linearGradient id="zf" x1="420.51" y1="545.37" x2="607.38" y2="545.37" gradientUnits="userSpaceOnUse"><stop offset="0" stop-color="#00d4ff"/><stop offset="1" stop-color="#2a00ff"/></linearGradient><linearGradient id="zf-2" x1="606.81" y1="515.34" x2="752.7" y2="515.34" xlink:href="#zf"/><style>.zf-2,.zf-5{stroke:#000}.zf-2,.zf-5,.zf-6,.zf-7{stroke-linecap:round;stroke-linejoin:round}.zf-2,.zf-5,.zf-6{stroke-width:10px}.zf-2,.zf-5,.zf-6,.zf-7{fill:none}.zf-2{opacity:.6}.zf-6,.zf-7{stroke:#fff}.zf-7{stroke-width:8px}</style></defs><path d="M488.4 466.9c-32.4 16.3-2.2 43.7-2.5 67.8-.2 15.5-5.3 32.3 3.5 46.2 24.7 38.8 74.6-.8 48.1-34.8-12-15.5-20.5-23.5-15.7-44.1s-12.4-45.7-33.4-35.1Zm157.5 7.3c7.9 26.5 21.5 11.9 13.8 58-7.3 43.6 58.7 29.1 38-5.9-26.3-44.6 13.4-53-15.4-79.6-20.3-18.9-41.9 9-36.4 27.5Z" style="stroke-width:10px;stroke-linecap:round;stroke-linejoin:round;stroke:#000;fill:#fff"/><path class="zf-2" d="M439.3 457.5c-29.7 23.6-2.9 58.7-9.5 84.3-5.8 22.7-29.4 47.7 2 57.7m20.2.8c3 11.9 15.1 17.2 25.6 21.8s13.6 14.2 18.9 22.5c13.3 20.5 48 25.8 63.6 4.3M615.6 431c-34.9 41.4 16.7 86.3 4.3 131.1-2.9 10.6-8.6 27.8 4.9 32.8m26.3-.8c9.4 15.1 23.9 40.6 48.4 31.2m26.2-51.4c6.2 2.5 14.8-.3 19.3-5.3m-269.3-97.3c-14.4 19.2 2.4 40.2 4.4 60.3 1.3 14.1-1.7 28.6 2.1 42.6 5.2 19.2 29 35.2 45.5 19.8M650 444c-20.3 25-4 35 4.7 58.5 5.3 14.4-2.9 30.8 1.7 45.2s22.2 19.7 33.1 9.5"/><path d="M484.2 473.3c-18.7 19.5 20.1 57.9 33.7 28.5-1.7 28.3 17.1 39.2 13.1 41.5-25.4 14.5-56.6 16.7-44.9-10.9-2.9-20-24.5-42.8-1.9-59.1ZM653 455.1c-11.2 24.3 27.5 38.1 36.2 14-2.3 11-3.2 23.2-1.7 34.3 3.5 13.5-14.9 11.9-23.2 10.3-.8-20.7-29.1-37.9-11.3-58.6Z"/><path d="M587.1 515.8c32.4-20.1-20.4-36.3-28.1-50.3-10.2-18.7-26.4-31.5-43-33.2-42.2-4.2-93.3 23.3-85.5 68.1 10.7 61.2-5.5 49.5-9.7 74.9-3.2 19.5 18.8 36.7 34.3 20.7 1.1 13.1 34.9 22.4 52.8 54.5 16.9 14.7 43.6 8.6 57-8.2 15.5-19.5-4.4-33 17.8-74.2 51.7 0 6.4-38.9 4.4-52.3Z" style="fill:url(#zf);opacity:.64"/><path d="M724 565.8c56 15.1 14.3-41.8 5.7-60.3-15-32.3 5.3-74-34.3-93.3-41.2-20.1-102.9 21.3-85.6 68.4 28.3 76.9 12.8 81.5 10.3 98.2-3 19.6 20.3 28.7 31.6 11.5 45.9 63.5 78.8 25.6 72.3-24.5Z" style="fill:url(#zf-2);opacity:.64"/><path class="zf-5" d="M453.9 595.7c-14.3 16.3-36.3-.9-33.1-20.4 4.2-25.4 20.4-13.7 9.7-74.9-7.8-44.8 43.3-72.3 85.5-68.1 16.6 1.7 32.8 14.5 43 33.2 7.7 14 22.5 13.6 31.6 22.7s5.8 21.8-3.5 27.6m57.7 65.9c17.8 11.1 19.5 33 37.2 40.2s38.4 2.3 41.1-24c1.7-16.6-4.6-36.3 7.6-50.2"/><path class="zf-5" d="M724 565.8c13.1 13.8 31.5 0 28.6-16.6s-17.9-28-22.9-43.7c-10.7-34 5.3-74-34.3-93.3-41.2-20.1-102.9 21.3-85.6 68.4 28.3 76.9 12.8 81.5 10.3 98.2-3 19.6 20.3 28.7 31.1 11.7m-201.3-13.6c9.9 18.5-.2 31 26.9 39.8 22 7.2 16.7 35 47.4 41.8 23.9 5.2 52.4-14.7 47.3-39.2-6.3-29.6 22.8-53.3 4.3-74.2"/><path class="zf-5" d="M582.7 566.7c10.8 4.1 23.2 0 23.2-16.7 0-21.4-24.8-26.2-30.1-46"/><path class="zf-6" d="M510.5 446.1a21.6 21.6 0 0 1 12 3.8 53.4 53.4 0 0 1 9.4 8.4m9.2 11 2.1 2.7"/><path class="zf-2" d="M576.8 503.7a14.6 14.6 0 0 0 10.2 7M575.4 544c9.7 4.2 8.7 17.6 17.3 22.7m-144 10c.2 8.2-.2 17.2-5.6 23.8m201.1-18.4c-1.4 5.6-3.2 11.9-8.2 15.3m95-49a25.7 25.7 0 0 0 .3 20.7"/><path class="zf-6" d="M681.7 423.8c14.2 1.8 23.6 15.2 25.7 28.6m2.2 14.1-.1 3.6"/><path class="zf-7" d="M739.5 557.6a12.1 12.1 0 0 0 1.9-7.9"/><path class="zf-6" d="M711.1 591.4a22 22 0 0 1-9.2 18.4m8.7-29.3-.4-2.5"/><path class="zf-7" d="M632.1 582.7a17.1 17.1 0 0 1 2.1-10.6m-57.4-80.6a16.7 16.7 0 0 1 6.5 5m3.2 40.3a23.4 23.4 0 0 1 6.2 10.9"/><path class="zf-6" d="M567.7 554.8c2.8 6.1 1.1 13.1-1.7 18.9m-4.9 11.7-.6 2.4m-2.2 35.9c0 8.7-7.6 15-15.2 17.9m-107.5-57.2a14.9 14.9 0 0 1 1.7-14.4"/><linearGradient id="a24" gradientUnits="userSpaceOnUse" x1="573.737" y1="372.301" x2="573.737" y2="180.3"><stop offset="0" style="stop-color:#00ff9d"/><stop offset=".048" style="stop-color:#0af1a2"/><stop offset=".405" style="stop-color:#538bca"/><stop offset=".694" style="stop-color:#8940e6"/><stop offset=".898" style="stop-color:#aa12f8"/><stop offset="1" style="stop-color:#b700ff"/></linearGradient><path style="fill:url(#a24)" d="M755 324.4c23-19.7 15-61-10-75-21-11.5-46-6-69-1-52.5 10.5-83-60.6-133-44-26 9-45 39-75 38-20.5-4-44-9-61 6-11 11-11 35.5 4.5 43.6 0 0-14 4-31 8.3-3 9.7-.1 20 7 26.6 7 5.8 17 7 24 12.6 12 8 17 25.5 31 30.6 21 8 38-13 44-31.2 3-9 6-19.6 14-25.9 10.9-9 30-4 35.5 8.8 3.5 8 2 19 9 25.4 5.8 5 15 4 22 .4 19.9-12 9.5-32 7-52.5-2.5-19 10.6-25.5 28-16.2 21 11 27 32 32 52.5 4 17.5 28 26 44 18.4 14-7 25-27 42-22.7 15 3 21 28 38 25 7-1 12-9.5 9.5-18C748 321 755 324 755 324.4z"/><path d="M722 283.9c-4 28 26 37 45 50.2 2.5 8.5-2 17-9.5 18-17 3-23-22-38-25-18-4-28 16-42 22.7-16 8-39.7-.9-44-18.4-5-20.7-11-41-32-52.5-17-9-30-2-28 16.2 3 20 13 40.6-7 52.5-7 4-16 5-22-.4-7-6-5-17-9-25.4-5-13-25-18-35.5-8.8-8 6-10.5 16.5-14 25.9-6 18-23 39-44 31.2-14-5-19-22-31-30.6-7.5-5-17-7-24-12.6-7-6-10.5-17-7-26.6 17-5 41-6.5 49.6-24" style="fill:none;stroke:#000;stroke-width:10;stroke-linecap:round;stroke-linejoin:round;stroke-miterlimit:10;stroke-dasharray:0,0,0,0,0,0"/><path d="M408 289.6c-16-8-12-29.9-2-41.2 17-15 40.5-10.1 61-6 29.8 1 49-29 75-38 50-17 80.5 54.5 133 44 23-5 48-10.5 69 1 25 14 33 55 10 75" style="fill:none;stroke:#000;stroke-width:10;stroke-linecap:round;stroke-linejoin:round;stroke-miterlimit:10"/><path d="M723 283.6c5 15 17 28 33 33M429.7 274c-5 9-18 12-28 9M373 303.1c-3 25 18 31 36 41.9 9 7 14 18 24 24.8 28 19 52-5.8 60-33.2 3.5-12 14-27.5 28-21.5 17 11 4 42 35 40.1 13-2 25-13 28-25.5 2-10-3-20-4.5-30.7-2-19.7 12-22 26-13.4 19 12 16.5 39 27 56.9 17 25 48 17 66.5-1.4 25-24 31.5 7 48 14.1 9 4 21-2 24-11" style="opacity:.6;fill:none;stroke:#000;stroke-width:10;stroke-linecap:round;stroke-linejoin:round;stroke-miterlimit:10"/><path d="M736 260.5c5 2 9.8 6 13 11m5 11.2c.5 2 1 3.5 1 5m-194-71.8c9-1 17 4 25 9m10 8.1 3.8 2M412 266.1c.6-6 6-11 12-14m13-2.1h2.8m34.2 83.4c-2 7-6 13-12 17m17.8-30.7 1.2-2.7m86 5.2c1 4 .1 9-3 11.5m1-22.7-1-2m92.5 27.7c6 2 12 1 17-2.5" style="opacity:.651;stroke:#fff;fill:none;stroke-width:10;stroke-linecap:round;stroke-linejoin:round;stroke-miterlimit:10"/><circle cx="550" cy="550" r="500" style="fill:none;stroke:#000;stroke-width:10;stroke-linecap:round;stroke-linejoin:round;stroke-miterlimit:10"/></svg>