<svg version="1.1" id="Layer_1" xmlns="http://www.w3.org/2000/svg" x="0" y="0" viewBox="0 0 1100 1100" style="enable-background:new 0 0 1100 1100" xml:space="preserve" xmlns:xlink="http://www.w3.org/1999/xlink"><style type="text/css">.st300{fill:#00DE72;stroke:#000000;stroke-width:10;stroke-linecap:round;stroke-linejoin:round;stroke-miterlimit:10;}</style><circle class="st300" cx="550" cy="553.7" r="500"/><defs><style>.zc-2,.zc-3{fill:none;stroke-linecap:round;stroke-linejoin:round;stroke-width:10px}.zc-2{stroke:#4a4a4a}.zc-3{stroke:#00ff37}</style></defs><g id="Layer_72" data-name="Layer 72"><path d="M531.7 209c-67.9 59.6-70.9 20.3-120.8 36.5-19.6 10.9-14.3 30.3-9.7 39.6 11.2 22.8-50.8 8.7-68.6 40.3-10.3 18.3.1 42.2-7.5 61.8s-33.8 34.7-36.8 52.2c-43.4 48.2-154 6.6-119.1 70.4 6.2 11.4 32.9-6.3 39.1 9.1 7 17.5-38.8 29.4-21.3 46.7 17.7 4.9 20.7 39.9 56.9 63.2 13.8 20 2.7 51.4 19.4 69.1 35.8 37.8 46.3-24.8 41.3-34.3 4.3-38.8 43.9-10.6 22.2 38.7-22.8 51.7 11.2 74 36.5 56.6 24-8.9 13.3 38.7 23.3 50.9 19.5 37.2 54.9 11.6 66.6 12 18.1.7 28 22.3 29.8 40.3 6.5 63 53.6 46.3 59.1 8 15.5-34.3 45.1 48.6 46.9 59.9 11.3 72.6 69.3 42 70.8 17.9 3.3-54.1-3.2-60.1 1.7-68.3 18.5-31.1 71 13.3 90.8-15.5 13.6-19.7-31.2-63.5 7.9-55.4 94 19.4 18.7-100.7 13.8-120.4-8.8-35.5 13.9-105.6 46.9-121.7 18.1-8.8 17.1-35.5 7.4-52.8s-24.9-30.6-31.4-48.9c-13.5-54.4 22.4-102.1-36-133.3a10.2 10.2 0 0 1-3.9-14.4c17.1-26.3 1.3-66.4-31.8-71.4-22.1-3.3-44.3 8.9-66.5 6.3-43.8-5.2-80.2-74.1-127-43.1Z" style="fill:#757575"/><path class="zc-2" d="M416.3 430.8c-7.8 85.7-9.7 162.5-14.6 245.2-15.1 6.6-15.8 30.7 1 32.6"/><path class="zc-2" d="M268.4 456.4q-1.3 51.9-5.7 103.6c86.9 6.2 172.1 5.7 258 12.8.8 15.4 20.6 16.8 27.6 6.3"/><path class="zc-2" d="M446 564.3c-2.2 48.2-4.3 96.5-.6 144.5l102.9 7.6"/><path class="zc-2" d="M504.2 793.2a1259.8 1259.8 0 0 1-4-130.1c-9.2-4.4-11.8-17.1-.3-22.8m-89 104.8-.1 83.7"/><path class="zc-2" d="M415.9 788.2c58.7-.6 115.8-1 176.4-.6 4.4 12.8 18.4 10.7 22.6 1.9M375.8 302.8c-.7 34.1-5.5 102.7-5.8 102.4-9.5 5.5-16.4 18.6-.4 26.1m117-190.5c-4 52.9-9.6 103.1-10.8 155.2"/><path class="zc-2" d="M378.1 380.3c79.4 1.5 159.1 4.3 238.4 4.3m-131.7-43.9a705.1 705.1 0 0 0 80.9 6c2.1 11.1 12.6 11.4 17.1 4.6m73-99.4c-22.8 113.8-33.3 229.4-33.3 345.8"/><path class="zc-2" d="M790.1 437.5c-60.6-2.3-118.7-4.1-179-8.9 0 10.8-13.8 16.2-20.3 4.2"/><path class="zc-2" d="M690.3 634.1c6-76.9 12-153.9 24.2-229.5-11.3-4.6-18-23.6-2.4-32.4"/><path class="zc-2" d="M558.1 620.2a1265.5 1265.5 0 0 0 220.2 6.3"/><path class="zc-2" d="M632.7 622.6c9.4 108.6 8.8 220.1 28.8 330.2M418.1 482.2l235.5 15.9"/><path class="zc-2" d="M799.4 736.5c-74.3 4.6-143.2 5.8-216.2 6-9.8 14.5-22.4 14.1-28.5 3.3"/><path class="zc-3" d="M274.9 453.3c-.5 33.5-2.7 66.9-6.3 100.1l251.2 12m-67.1-.2q.3 68.4-1.8 136.7l98.6 8.1"/><path class="zc-3" d="M507.4 662a1249.5 1249.5 0 0 0 5 129.8m-91-360q-8.1 123.3-12.5 246.9m13.6-203.4c77 7.5 154.2 14 231.4 18.3M494.5 237.3C488.5 290 484 343 481 396m8-61.3c25.8 2.9 51.7 5 77.7 6.1M383.3 303c-2.1 35.5-4.7 70.9-7.6 106.3"/><path class="zc-3" d="M380.9 374.1c78.1 1 159.3 6.7 234.6 6.7m45.3-128.7A2110 2110 0 0 0 626 596.9"/><path class="zc-3" d="M791.1 434.5c-61.8-5-119.4-6.7-181.8-11.7"/><path class="zc-3" d="M721.5 403.7q-16.7 116.1-25.2 233.1"/><path class="zc-3" d="M783.7 620.7a1735.9 1735.9 0 0 1-224.6-4.1m79.1 6.9c10.7 106.6 7.9 214.6 26.8 320.1"/><path class="zc-3" d="M796.7 732.4c-76.7 2.3-144.6 2-217.1 4.1m-163.8 95.1c-.3-29.8.2-59.5 1.4-89.3m.5 39.6c58.5 0 115.7-.5 175.3-.5"/><ellipse class="zc-3" cx="577" cy="339.7" rx="10.4" ry="14"/><ellipse class="zc-3" cx="598.3" cy="420.8" rx="10.9" ry="16.7"/><ellipse class="zc-3" cx="374.9" cy="421" rx="11.1" ry="11.7"/><circle class="zc-3" cx="538.2" cy="565.4" r="17"/><ellipse class="zc-3" cx="564.5" cy="737.8" rx="13.3" ry="12.4"/><ellipse class="zc-3" cx="606.2" cy="781.9" rx="11.6" ry="11.7"/><circle class="zc-3" cx="722.4" cy="384.6" r="16.2"/><circle class="zc-3" cx="408.9" cy="694.8" r="15.2"/><ellipse class="zc-3" cx="508.6" cy="648.7" rx="13.4" ry="11.1"/></g><style>.st40{fill:none;stroke:#000;stroke-width:10;stroke-linecap:round;stroke-linejoin:round;stroke-miterlimit:10}.st98{opacity:.6;enable-background:new}</style><g id="Outline"><path class="st98" d="M793 537c-1 .7-1 2-.5 3 5 10 11 35 25 30 8-2 21-13 18-22.4-.5-1-2-2-3-1.5-26 12-28-11-39-9.4v.3zm-34 274.5c6 5 26 8 25-3-6-7-20.6-12-21.5-26C750 772 744 803 759 811.5zm-219.3 52s1 .5 1 .8c9 13.5-3 36-18 40-34 6-9-6-6-44 .3-5.3 22.3 2.7 23 3.2zM342 731c5 7-4 22-4 33 8 13 29.6-5 33-14.9 2-12-17-21-28-20.2-1 .1-1 1.1-1 2.1zm31-120.2c2 23-8 47-26 61.9-13 10.9-17.5-30.6-8-27.9 6 4.2 28-18.8 34-34zm-157-59.9c-8 6-17 3-25 1-11 5 4 20 13.5 16 5-4 12-9 12-15.7-.5-.2-1.5-.2-.5-1.3zM337 473c-6-10-3-23 0-34 0-1 0-2-.6-2-9-9-23 11-19.8 20.7C318 463 338 475 337 472.8v.2z"/><path class="st98" d="M326 392c-2 29 24 45 7 44-7 2-14 1-15 11-1 11-24 0-24.5-1.3C285 433 317 404.5 326 392zm103-118c-9.9-4-16-16-18-25-4-6-9.9 1-11 6-7 54 29.5 28 29 19zm293 9c16 21 29.5 12 40 20.7 3 4 1 9.6-1 14-3 9-13 9-20 4.1-14.5-5.8-22-22.2-19-38.8z"/><path class="st40" d="M347 729c53.5 5 15 86 59 102 25 9 37-19.8 55-11.9 23 10.1 19.6 40 24 60.7 9.6 46 63 29.6 58-12.8"/><path class="st40" d="M519 861c89-9 47.5 119 114.5 115 39-6 35-47 25-76.5-3-9 0-18.5 7-24.5 24.5-21 59 15.5 84-2.5 15-11 8-33-2-45-12-15 0-32 10-43"/><path class="st40" d="M790 539c53 69.8-64 71 8 194.5 6 14 11 32 11 48.5 0 32-49 47.5-61 16"/><path class="st40" d="M721 287c2 51 64 31 74 88 6 34-11.5 71 7 103 10 18 27 31.5 34 51 8 19-4 47-27 42"/><path class="st40" d="M407 290.6c-16-8-12-29.9-2-41 17-15 40.5-10 61-6 29.8 1 49-29 75-38 50-17 81 55 133 44 23-5 48-11 69 1 25 14 33 55 10 75"/><path class="st40" d="M428 278c-16 26.5-51 17.5-76 28.5-20 10.5-28 33-23 55 10 47-43 51-39 88m25 4.5c1.5-23 35-26 41-5 7 25-13 47 16 72"/><path class="st40" d="M334 476c-20-34-61-31.5-89-9.6-20 8-43-3-64 4-22 7-28 37-5 43.5 6.5 2 23-2 26-1 15 4 11 25-5 30-21 6-10 29 6 29"/><path class="st40" d="M216 554.5c-15 15-14 41 2 55 37 22 41 31 36 69.7-2 31 46 41 53.5 10 2-10.8-4-22 0-33 13-32 44 20 62-44.5"/><path class="st40" d="M327 647.9c25 29.7-.5 47-7 75-10 32.5 34 65 53 25"/><path d="M729 262.5c9 4 16 13 18 22.5m-193-68c12.5 2 24.5 8 34 16m9 9 3 3m-163 10c-5.5-.9-12 .6-15.5 4M362 319.6c-9 2-14 10.7-16 19M339 449c4 1 6 6 6 9.8M308.5 470c-12-6-16-5-22-4M175 492c1-4 5-7 9-7.5m38 89.5c-4 8 0 16 4 19.9m44 78.6c-1 6 1 15 9 18m76-77.5c-3 14-13 14.5-16 16m4.5 119.5c-5-3-9-9-8-15M397 782c-1 14.5 7 28 14 30m90 53.9c-3 12 2 27 14.5 25M636 957c14-3 17-28 11-38m96-60.1c1-7 0-14-4-19m46-49.1c8-6.5 9-25 3-39M786 582c5-8 3-19-3-26m37-12c2-8.5-.6-18-7-24m-56-169c18 6 22 30 21 35" style="opacity:.7882;fill:none;stroke:#fff;stroke-width:10;stroke-linecap:round;stroke-linejoin:round;stroke-miterlimit:10;enable-background:new"/></g><defs><linearGradient id="zaf" x1="493.99" y1="811.54" x2="981.88" y2="811.54" gradientUnits="userSpaceOnUse"><stop offset="0" stop-color="#ff0400"/><stop offset="1" stop-color="#6a00ff"/></linearGradient><style>.zaf-2,.zaf-3{fill:none;stroke-linecap:round;stroke-linejoin:round;stroke:#000;stroke-width:10px}.zaf-3{opacity:.6}</style></defs><path d="M498.1 718.7c-21.9 37.1 48.6 112.8 86.9 120.9 41.9-26.9 61.7 36 94.5 37.5-9.4-9.1 1.3-30.1 8.9-17 22.7 39.6 50.1 23.4 65.3 37.4 10.1 9.3 12.5 26.7 27.3 31.2-3.5-12.3 10.8-14.9 15.7-4.3 14.4 30.9 19.4 3.6 46.2 32.9 57-39.3 108.6-92.5 139-155.5-5.4-7.5-54.3-4.3-24.6-24.4-28.7-31.9-84.3 14.4-79.4-49-38.2 19.6-60.7-10.2-95.1-9.8-11.9.2-59.6 33.8-38.6-11.8-31.7 5.4-48.5-15.7-74.4-27.2-15.5-7-47.4 16.2-68.1-13.8-35.7 10.4-78.6 23.2-103.6 52.9Z" style="fill:url(#zaf)"/><path d="M590.7 841.3a39.6 39.6 0 0 0 41.5 7c-9.4-10.4-32.8-25.2-41.5-7Zm12.8-173.5c11.7 18.3 38.7 18.3 55.8 8.4-12.3-14.8-38.8-15.8-55.8-8.4Z"/><path class="zaf-2" d="M588.4 838.3c39.9-27.5 56.3 43.5 94.6 40.7-21.3-17.9 2.3-33.6 13.7-8.7 10.4 22.7 24.4 17.6 45.1 19.9 23 2.5 17.7 41.4 41.3 37.7-4.9-5.6 1.7-14.5 8.6-11.5s5.5 14 10.5 19.1c11 11.1 29.6.9 37.5 22.4M604.1 668.8c18.9 29.5 49.4 1 73.4 14.3 21.1 11.6 44.5 31.8 69.8 19.1-1.1 7.7-10.6 12.1-10.2 19.8.8 13.7 18.7 9.5 26.8 4.2 39.5-26.3 65.7 29.9 114.3.6 1.9 13.7-8.6 27.7 8.1 36.2 23.7 12.2 54.1-12 72.3 16.2-7.8-2-17.8 6.4-10.3 13.3 9 8.3 25.7-.9 34.2 8.6M650.4 800c31.9-6.5 31.8 33.3 62.7 31-12.8-8.7 6-21.6 14-10.9 16 21.2 21.8 18 46.1 15.8-13.9-2.8-12.1-21.5-19.5-30.7s-25.8.8-25.8-12c0-9.6 11.6-10.4 18.6-7.7-6.6-16.5-26.1-8.2-39.3-7s-12.6-14.9.8-13.9c-13-15.1-36.9 4.5-50.5-9.3m159.3 23.2c16.3-2.4 17.4 21.3 32.1 21.3s28.3 2.4 35.3 17.8c-19.2-10.5-19.7 25.2 21.2 20.4-48.9 29.8-36.7-10.8-67.6-11.2m-35.3 22.4c18.3-.1 18.7 29.5 39 28.2-6 6.8-17.3 9.7-25 4.7-10.5-6.9-22.9-6.7-13.4 7.5-16.5-.8-17.8-23.2-33.7-26.1M593.3 706.4c14.5.6 22 17.8 39.1 23.1-17.9 5.4-17.8 10.7-27.2 9-7.4-1.4-13.4-14.7-17-4.6-2.2 6.4 4.8 11 8.2 14.9-34.3 3-16.9-30.2-46.5-30.3"/><path class="zaf-2" d="M661.4 676c-21.4-33-144.3 4.2-167.1 48.8-21.4 41.8 98.3 145.5 137.1 123.5M490.2 677.2c-37.9 16.7-47.7 53.9-28.3 89.4"/><path class="zaf-3" d="M488.9 676.4c-42.3 4.7-53.7 59-30.3 89.6"/><path class="zaf-3" d="M501.2 712c-65.4 35.4 85.1 166.2 134.8 144.1a63.8 63.8 0 0 0 22.8 21m-110-156.6c20.2 6.9 19.8 37.2 45.9 29.2m-4.3-15.5c4.8 1.1 8.1 5.8 12.7 7.6 10.7 3.4 19.9-6.1 28.9-10.6m17.2 70.7c25.6.4 35.7 36.5 63.2 30.9m.5-12.1c25.6 4.4 10.3 27.8 59.6 16.3m-42.4-43.1a40.2 40.2 0 0 1 15.9-6.8m-46.5-14.7a24.4 24.4 0 0 1 8.6-5.5m60.6 101.2c12.3 7.4 16.2 24.7 34 23.9m-.6-10.6c15.1 2.1 25.7 13.3 39.2-2.7m-3.7-48c15.6 0 19.4 39.5 68.7 8M873.4 820a27.7 27.7 0 0 1 9.9-1.1"/><path class="zaf-3" d="M604 672.7c-43.9 7.5-86.8 27.6-110.7 66.9"/><path d="M652.3 693.4a31.5 31.5 0 0 1 22.2 4.6m11.8 7.1 3.4 1.7m86.7 28.7c7.7-4.6 17.3-2.6 25.1.7m115.7 41.9a32 32 0 0 1 17.1.2m-30.8.6-2.5.2m60.1 29.4a12.3 12.3 0 0 1 7.1 0m-259.6 59.3a15.4 15.4 0 0 0 13.5 8.8m11.9.7 1.8.3m73.7 47.9c1.9 4.7 5.7 5 8.2 5.4m-168.5-84.6a73 73 0 0 0 14 12.6" style="stroke:#fff;opacity:.75;stroke-width:10px;fill:none;stroke-linecap:round;stroke-linejoin:round"/><path d="M601 724.4a14.6 14.6 0 0 0 6.2 4.2m143.1 99.1a14.6 14.6 0 0 1-9.5-5.5m-4.9-6.5-1.3-1.4m-35.8 2.8a26.3 26.3 0 0 1-6.7-6.6m-6.3-7.5-.7-1.1m131.8-13.2a13.8 13.8 0 0 1 7.1 4.3m4.9 7.2 1.6 2.2m25.6 7.7a18 18 0 0 1 8.9 1.1m-62.2 47.7a13.5 13.5 0 0 1 6.7 5.3m-16.6-9.2 1.7.8" style="stroke-width:7px;stroke:#fff;opacity:.75;fill:none;stroke-linecap:round;stroke-linejoin:round"/><style>.st40,.st68{fill:none;stroke:#000;stroke-width:10;stroke-linecap:round;stroke-linejoin:round;stroke-miterlimit:10}.st68{opacity:.6;enable-background:new}</style><g id="clouds_00000132064263232096526770000004594804391114312866_"><linearGradient id="SVGID_00000168815864788562971780000008009317104823657398_" gradientUnits="userSpaceOnUse" x1="375.454" y1="631.653" x2="559.455" y2="484.653" gradientTransform="scale(1 -1) rotate(-2.241 -27002.414 -491.187)"><stop offset="0" style="stop-color:#0f9"/><stop offset=".149" style="stop-color:#00efa4"/><stop offset=".441" style="stop-color:#00c5c0"/><stop offset=".844" style="stop-color:#0082ec"/><stop offset="1" style="stop-color:#06f"/></linearGradient><path style="fill:url(#SVGID_00000168815864788562971780000008009317104823657398_)" d="M441 443.1c-21 12-28 39.7-20 62-7 14-8 32 3 44-15 28-2 55 29 58 6 45 54 47 67.5 5.4 11 11 44-4 34-43 15-15.5 16-42.5-.5-57 10.9-22 2-52-24.5-55 9-16.5 0-34-9-47.7C498 382 433 403 441 443v.1z"/><linearGradient id="SVGID_00000074418743135565432100000001250214097951887239_" gradientUnits="userSpaceOnUse" x1="555.704" y1="637.058" x2="756.704" y2="528.058" gradientTransform="scale(1 -1) rotate(-2.241 -27002.414 -491.187)"><stop offset="0" style="stop-color:#0f9"/><stop offset="1" style="stop-color:#06f"/></linearGradient><path style="fill:url(#SVGID_00000074418743135565432100000001250214097951887239_)" d="M609.9 493.1c-19 16-15 50 7.5 61-3 19 7 42 28.5 41 16 34 61 30 73-5.5 7.5 6 37-14 24-48.6 12-15 8-38-4-51 14-23 0-58-27-57-11-93-108-57-94 7.9-16.9 3.1-20.9 42.1-8 52.1v.1z"/><path class="st40" d="M467 577.9c-13 9-14 28-9.8 43 15 52 92 2 55-42M528 563c50.5 33 57-72 3-49"/><path class="st40" d="M513 464c29-22 56 18 42 45.5"/><path class="st40" d="M449.9 465c-43-76 99.9-101 82-9M523 614.5c24 10.5 42.5-22 33-43M443 539c-41 17.5-28 75 9 68"/><path class="st40" d="M439.9 446c-21 8-35 39.7-16 57"/><path class="st40" d="M437 496c-23 4-31 36-14 51.5M629 455c-27-26.5-4-66 27-76 40.6-13 67 37 46 70.8"/><path class="st40" d="M616 441c-15 12-18 36-8 52"/><path class="st40" d="M624 489.6c-36 2-37 78 11 63"/><path class="st40" d="M619 556c-9 19 7.5 42 27.5 39m12.5-28c-23 28 1 62 33 52.5 26-8 34-39 16-59.8m4-129.9c25 4 42 36 28 59m-25 11c21-22 41 3 36 28-3 15-24 28-35.5 15"/><path class="st40" d="M720.5 589c21 2 32-23 24-41M490 450.7c1 38 3 74 4 113M663 430l26 108"/><path class="st68" d="M450 409c-15 11.5-10 28-22 37-20 16-19 38-17 62 1 9-5 17-3 25.8 1 7 6 14 6.5 21-3 18.5-9 44 11 54 16 6 23 5 30 24 7 18 33 20.5 46 6M634 388.5c-19.8 9.7-19 32-25.5 50.9-5 14-17 26-13 41 8 30.5-14 45 11 76.9 16 20.1 1 36 34.5 44.9 8.5 4 12 15 19.8 20 14 10.5 33 2 43-10M703 450c4.5-9 14-14 24.5-12M708 558c9 4 14 14 18 23"/><path class="st68" d="M657 567c-8 4-14 13-15 22m-28-137c4 3.5 10 5 15 3m-116 8c5-7 12-12 20-15.5m-3 65.5c5.5-7 14-10.5 22-10m-26 61.5c6 8 15.5 13 25 13.5m-85-2c-11 4-16.5 15.5-20 26m-4-66c-6-2-12 2-16 5m11-46.5c-4-2-9-1-13 1m25-29.5c-6-.6-9-6-10.8-11M659 432l25 109m-198.5-90 3 114"/><path d="M674 394.5c8 3 14.5 11 15.5 20M688 434l1-4m32.5 22c5 4 8 10.5 8 17m1.5 38c4 4 6 9.7 6 15m-39 49c5 9 3 20-4 27m-17 7c1 0 3 .5 4 0m-65.5-129c-.9-3-.9-7 0-10m5.5 41c-5 4-8 10-7 17m3 13 1 1.5M501.5 413c7 3 12 9 14 17M487 412c-1.5 0-3 0-4 .9m48.5 60c5 2 9 6 11 11M547 526c6 4 9 11 8.5 18M538 595c3-3 5-6 6-9.8m-40 8.8c3 10-1 22-9 28m-15.3 1H478m-40-64c-5 6-6.5 15-4 23m-5.5-60c0-3.5 2-7 5-9m-4.5-33.4c0-3 1-6 3-8" style="opacity:.8;stroke:#fff;enable-background:new;fill:none;stroke-width:10;stroke-linecap:round;stroke-linejoin:round;stroke-miterlimit:10"/></g><defs><linearGradient id="zbk" x1="236.05" y1="322.22" x2="786.08" y2="195.7" gradientUnits="userSpaceOnUse"><stop offset="0" stop-color="#ff0080"/><stop offset="1" stop-color="#6a00ff"/></linearGradient><linearGradient id="zbk-2" x1="253.46" y1="373.96" x2="815.73" y2="373.96" gradientUnits="userSpaceOnUse"><stop offset="0" stop-color="#00ff84"/><stop offset="1" stop-color="#004cff"/></linearGradient><style>.zbk-3,.zbk-4{fill:none;stroke-linecap:round;stroke-linejoin:round;stroke-width:10px;stroke:#000}.zbk-4{opacity:.6}</style></defs><path d="M277.6 395.2c-58-233.3 425.8-349.7 508.5-97.5-104.6-28.1-415 39-508.5 97.5Z" style="fill:url(#zbk)"/><path d="M294.7 427.7c0-.1-6.5 12.2-5.1 22.2a84.4 84.4 0 0 0-30.7 6.1C191.5 337.6 774 270.5 789.1 298.1c34.5 13.6 34.5 54.4 5.6 75.2-1-3.6-1.3-19.2-25.5-36.9-160 3.8-324.4 35.6-474.5 91.3Z" style="fill:url(#zbk-2)"/><path class="zbk-3" d="M791.1 336.4A1541.8 1541.8 0 0 0 277 434.2"/><path class="zbk-3" d="M770.8 337.6c22.6 16.5 22.9 32.1 23.9 35.7 28.9-20.8 28.9-61.6-5.6-75.2-70.6-27.9-384.2 32.1-495.6 88.6-26.4 13.4-60 43.7-34.6 69.3a84.4 84.4 0 0 1 30.7-6.1c-1.4-10 5.1-22.3 5.1-22.2"/><path class="zbk-3" d="M319.6 376.1c2.8 11.7 6 23.4 9.5 35m64.1-56.7 8.2 35.9m80.9-60.2 8.8 39.9m83-60.2a432.5 432.5 0 0 0 5.3 43.8m90.7-57.4 3.1 44.2m68.5-47.6 2.4 42.3"/><path class="zbk-3" d="M788 297c-84.6-251.5-568.4-135.1-510.4 98.2"/><path class="zbk-4" d="M778.4 342.8a1506.5 1506.5 0 0 0-484.7 93.1m-17.5-1.2a41.2 41.2 0 0 0 13.1 1.4m502.3-98.9a30.6 30.6 0 0 1-10.8 6.5m1-56.7c-169.4-9.5-349.2 29.6-503.4 100.4m34.7-6.3q5.4 16.3 10.2 33"/><path class="zbk-4" d="M385.8 355.6c3.3 11.7 6.2 23.5 8.9 35.4m80.4-58.6 7.9 36.3m83.3-55.5c1.9 12.4 3.7 24.9 5.5 37.4m92.7-52.2c.7 13.6 1.6 27.2 2.7 40.7m67.8-43.8 2 38.4"/><path d="M766.9 307a51.2 51.2 0 0 1 22.2 7m-68.5-10.2c-9.3.5-18.6 1.2-27.9 2m-52.1 4.9-31.7 4.9m-63.2 11.6c-10.3 1.6-20.5 3.4-30.6 5.7m-58.3 13.9-28.7 7.5m-58.7 16.4c-7 2.3-14 4.5-21.1 6.5m-45 18a133.4 133.4 0 0 0-21.9 13.6m370.5-222.2a157.9 157.9 0 0 1 57.7 32.5m10.7 10.2 6.1 6m-347-14a187.2 187.2 0 0 0-65.7 60m-7.4 15.7a27.7 27.7 0 0 1-2.8 5.4" style="stroke:#fff;fill:none;stroke-linecap:round;stroke-linejoin:round;stroke-width:10px"/><circle cx="550" cy="550" r="500" style="fill:none;stroke:#000;stroke-width:10;stroke-linecap:round;stroke-linejoin:round;stroke-miterlimit:10"/></svg>