<svg version="1.1" id="Layer_1" xmlns="http://www.w3.org/2000/svg" x="0" y="0" viewBox="0 0 1100 1100" style="enable-background:new 0 0 1100 1100" xml:space="preserve" xmlns:xlink="http://www.w3.org/1999/xlink"><style type="text/css">.st301{fill:#005BEF;stroke:#000000;stroke-width:10;stroke-linecap:round;stroke-linejoin:round;stroke-miterlimit:10;}</style><circle class="st301" cx="550" cy="553.7" r="500"/><path d="M533 209.1c-68 59.6-71 20-121 36.5-19.6 10.9-14 30-9.7 39.6 11 23-51 9-69 40.3-10 18 .1 42-7.5 61.8-9 19.6-34 35-37 52.2-43 48-154 7-119 70.4 6 11 33-6 39 9.1 7 17.5-39 29-21 46.7 18 5 21 39.9 57 63.2 14 20 3 51 19 69.1 35.8 38 46-25 41-34.3 4-39 44-11 22 38.7-23 52 11 74 36.5 56.6 24-9 13 39 23 50.9 19.5 37 55 12 67 12 18 1 28 22 29.8 40.3 6.5 63 54 46 59 8 15.5-34 45 49 47 59.9 11 73 69 42 71 17.9 3-54-3-60.1 2-68.3 18.5-31 71 13 90.8-15.5 14-19.7-31-63.5 8-55.4 94 19 19-101 14-120.4-9-35.5 14-106 47-121.7 18-9 17-35.5 7-52.8-9.5-17-25-30.6-31-48.9-13.5-54 22-102-36-133.3-5-3-7-9.5-4-14.4 17-26 1-66-32-71.4-22-3-44 9-66.5 6.3C616 247 579.9 178 533 209.1z" style="fill:#2fedc1"/><path d="M335 383c30 83 32 5 73 37.1 15 15.5 23 42 16 61.4-42 113 99.7 118 61 54.2-7-10.9-7.5-29 9-23.3 9.8 3.5 1 18 5 23 9 10 22-5 19-16.2-4-16.5-16-36 10.8-37.3 92-5.5 37 129.5 32 168.5-8.5 59.8 66 95 81 28.5 4-13-5-44 8-50.3 38-5.8 29 79 57 53.4 12-11 29.6-33 39-6.7 6.5 15 17 50.1 38.5 34" style="opacity:.6;fill:none;stroke:#000;stroke-width:10;stroke-linecap:round;stroke-linejoin:round;stroke-miterlimit:10;enable-background:new"/><path d="M782 697.2c-28-63 23-79 24-126.3 78-11 .7-76-6.5-96.5-17-50 24-120-45-146.2 28-27 9-81.5-29.9-83.8-111 20-69.5-13-164-40.6-39.9 5-47 46-138 37.8-24 5-36 40-9 49.7-19 18-55-3-76 29.9-17 26-9 52 7.5 84.6 18 36 27 9 35 5.9 37-13.5 50.5 48 42 78.1-25 91 73 116 67 59.3-1-11-14-22-9-33.3 3-5 11-7.5 15-2.6 4 5-2 13 1 19 8 15 30-2 17-21-29-42 71-54 72 29.9 0 37-19 70-23 106.3-8 75 86 103 78-3.8-2-23.5 15-23 28-10.8 19.6 19.6 9 43 24 51.3 17 9.9 43-67 62 10.2 5.8 25.3 35.5 23.7 27.9 2.9z" style="fill:#ed2fd4"/><style>.st40{fill:none;stroke:#000;stroke-width:10;stroke-linecap:round;stroke-linejoin:round;stroke-miterlimit:10}.st98{opacity:.6;enable-background:new}</style><g id="Outline"><path class="st98" d="M793 537c-1 .7-1 2-.5 3 5 10 11 35 25 30 8-2 21-13 18-22.4-.5-1-2-2-3-1.5-26 12-28-11-39-9.4v.3zm-34 274.5c6 5 26 8 25-3-6-7-20.6-12-21.5-26C750 772 744 803 759 811.5zm-219.3 52s1 .5 1 .8c9 13.5-3 36-18 40-34 6-9-6-6-44 .3-5.3 22.3 2.7 23 3.2zM342 731c5 7-4 22-4 33 8 13 29.6-5 33-14.9 2-12-17-21-28-20.2-1 .1-1 1.1-1 2.1zm31-120.2c2 23-8 47-26 61.9-13 10.9-17.5-30.6-8-27.9 6 4.2 28-18.8 34-34zm-157-59.9c-8 6-17 3-25 1-11 5 4 20 13.5 16 5-4 12-9 12-15.7-.5-.2-1.5-.2-.5-1.3zM337 473c-6-10-3-23 0-34 0-1 0-2-.6-2-9-9-23 11-19.8 20.7C318 463 338 475 337 472.8v.2z"/><path class="st98" d="M326 392c-2 29 24 45 7 44-7 2-14 1-15 11-1 11-24 0-24.5-1.3C285 433 317 404.5 326 392zm103-118c-9.9-4-16-16-18-25-4-6-9.9 1-11 6-7 54 29.5 28 29 19zm293 9c16 21 29.5 12 40 20.7 3 4 1 9.6-1 14-3 9-13 9-20 4.1-14.5-5.8-22-22.2-19-38.8z"/><path class="st40" d="M347 729c53.5 5 15 86 59 102 25 9 37-19.8 55-11.9 23 10.1 19.6 40 24 60.7 9.6 46 63 29.6 58-12.8"/><path class="st40" d="M519 861c89-9 47.5 119 114.5 115 39-6 35-47 25-76.5-3-9 0-18.5 7-24.5 24.5-21 59 15.5 84-2.5 15-11 8-33-2-45-12-15 0-32 10-43"/><path class="st40" d="M790 539c53 69.8-64 71 8 194.5 6 14 11 32 11 48.5 0 32-49 47.5-61 16"/><path class="st40" d="M721 287c2 51 64 31 74 88 6 34-11.5 71 7 103 10 18 27 31.5 34 51 8 19-4 47-27 42"/><path class="st40" d="M407 290.6c-16-8-12-29.9-2-41 17-15 40.5-10 61-6 29.8 1 49-29 75-38 50-17 81 55 133 44 23-5 48-11 69 1 25 14 33 55 10 75"/><path class="st40" d="M428 278c-16 26.5-51 17.5-76 28.5-20 10.5-28 33-23 55 10 47-43 51-39 88m25 4.5c1.5-23 35-26 41-5 7 25-13 47 16 72"/><path class="st40" d="M334 476c-20-34-61-31.5-89-9.6-20 8-43-3-64 4-22 7-28 37-5 43.5 6.5 2 23-2 26-1 15 4 11 25-5 30-21 6-10 29 6 29"/><path class="st40" d="M216 554.5c-15 15-14 41 2 55 37 22 41 31 36 69.7-2 31 46 41 53.5 10 2-10.8-4-22 0-33 13-32 44 20 62-44.5"/><path class="st40" d="M327 647.9c25 29.7-.5 47-7 75-10 32.5 34 65 53 25"/><path d="M729 262.5c9 4 16 13 18 22.5m-193-68c12.5 2 24.5 8 34 16m9 9 3 3m-163 10c-5.5-.9-12 .6-15.5 4M362 319.6c-9 2-14 10.7-16 19M339 449c4 1 6 6 6 9.8M308.5 470c-12-6-16-5-22-4M175 492c1-4 5-7 9-7.5m38 89.5c-4 8 0 16 4 19.9m44 78.6c-1 6 1 15 9 18m76-77.5c-3 14-13 14.5-16 16m4.5 119.5c-5-3-9-9-8-15M397 782c-1 14.5 7 28 14 30m90 53.9c-3 12 2 27 14.5 25M636 957c14-3 17-28 11-38m96-60.1c1-7 0-14-4-19m46-49.1c8-6.5 9-25 3-39M786 582c5-8 3-19-3-26m37-12c2-8.5-.6-18-7-24m-56-169c18 6 22 30 21 35" style="opacity:.7882;fill:none;stroke:#fff;stroke-width:10;stroke-linecap:round;stroke-linejoin:round;stroke-miterlimit:10;enable-background:new"/></g><style>.st114,.st40{fill:none;stroke:#000;stroke-width:10;stroke-linecap:round;stroke-linejoin:round;stroke-miterlimit:10}.st114{opacity:.6}</style><g id="Gold_Grin"><linearGradient id="SVGID_00000081606631022545257470000014627497906921380512_" gradientUnits="userSpaceOnUse" x1="585.954" y1="672.231" x2="590.726" y2="803.954" gradientTransform="matrix(.9983 .05903 -.05903 .9983 45.793 -31.52)"><stop offset="0" style="stop-color:#ff7300"/><stop offset="1" style="stop-color:#fff700"/></linearGradient><path style="fill:url(#SVGID_00000081606631022545257470000014627497906921380512_)" d="M445 721.7c74 72 209 68.5 294 17.6 11-22 14-48 10-71.6-93 58-225 64-318 1.4 4 16.9 0 38.9 14 52.6z"/><linearGradient id="SVGID_00000100364754194457657420000004888850632049891250_" gradientUnits="userSpaceOnUse" x1="593.726" y1="750.857" x2="598.675" y2="857.774" gradientTransform="matrix(.9983 .05903 -.05903 .9983 45.793 -31.52)"><stop offset="0" style="stop-color:#ff7300"/><stop offset="1" style="stop-color:#fff700"/></linearGradient><path style="fill:url(#SVGID_00000100364754194457657420000004888850632049891250_)" d="M449.8 731c48 130 244 141 289 12.4C642 785 543 789.8 449.8 731z"/><path class="st40" d="M751 664.8c-87 59.8-236 69.9-322-1.1 27 236.3 338 220.8 322 1.1z"/><path class="st40" d="M444 722c84 74 209.8 64.5 295 19"/><path class="st114" d="M424 664.3C421 793 594 909 705 797"/><path class="st114" d="M433 673.1c85 69 224 55 314 4m-294 58.5c75 63.5 197 55 282 15"/><path d="M736 694.4c-1 9-3 18-5.8 26m-23.2 55c-12 16-29 28-49 35m-10.5 3.9c-3 .6-5 1-8 2" style="opacity:.7804;stroke:#fff;fill:none;stroke-width:10;stroke-linecap:round;stroke-linejoin:round;stroke-miterlimit:10"/></g><defs><linearGradient id="axe" x1="503.59" y1="455.12" x2="514" y2="579.96" gradientUnits="userSpaceOnUse"><stop offset="0" stop-color="#00ffe1"/><stop offset="1" stop-color="#001eff"/></linearGradient><linearGradient id="axe-2" x1="666.66" y1="438.52" x2="689.84" y2="583.76" gradientUnits="userSpaceOnUse"><stop offset="0" stop-color="#ff001e"/><stop offset=".12" stop-color="#ff131c"/><stop offset=".35" stop-color="#ff4315"/><stop offset=".68" stop-color="#ff900b"/><stop offset="1" stop-color="#ffe100"/></linearGradient><style>.axe-2,.axe-3{fill:none;stroke:#000;stroke-linecap:round;stroke-linejoin:round;stroke-width:10px}.axe-3{opacity:.6}</style></defs><path d="M358.8 447.6c26.7-17.9 58.8-13.6 88.6-7.6 27 5.4 49.5-11.1 71.8-23.3 20.6-11.4 44.7 1.2 38.7 22.4 0 0 43.9-12.2 84.7-26.1 11.4-3.9 35.6 3.2 60.9-8 37-16.4 60.7 20.5 56.9 55.6-4 36.8 15.7 35.5 20 50.3 2.9 10.3-7 20.9-17.4 18.4 0 0 33.6 62.6-10.6 52.4-40.8-9.4-50.6 21.8-98.6 18.2-22.5-1.7-64.7 64.1-61.8 3.7 0 0-4.9-3.7-43.7 6.9-32.6 8.9-31.3-16.7-75.3-9-33.5 5.9-25.5-37.8-57.5-36.6l12.6 4.3c2.2 33.7-37.3 27.7-36.7-4.1 2.5-19 9.1-38 7.9-57.2-11.9-8.1-26.4-9.1-40.5-9.7-3-16.7-1.2-33.4 0-50.6Z" style="fill:#fff"/><path class="axe-2" d="M314.8 454c1.5-23.1 35.3-26.3 41.4-5 7.1 24.8-12.6 46.8 16.2 72.4m-13.6-73.8c26.7-17.9 58.8-13.6 88.6-7.6 27 5.4 49.5-11.1 71.8-23.3 20.6-11.4 45.5-2.4 38.7 20.2"/><path class="axe-2" d="M541.6 437.1c49.3 12.9 61.3-24.6 101-24.1 26.3.4 35.6 3.2 60.9-8 37-16.4 60.7 20.5 56.9 55.6-4 36.8 15.7 35.5 20 50.3 2.9 10.3-7 20.9-17.4 18.4"/><path class="axe-2" d="M758.9 515.3c-1.8 17.2 14.3 28.9 16.7 44.4 2 13.2-7.4 25.6-23.2 22-40.8-9.4-51.2 26.4-98.6 18.2-22.8-3.9-25.3 25.9-45.9 28.7-13.6 1.9-26-14-15.9-25"/><path class="axe-2" d="M606.6 603.5c-28.6-10.2-35.2 9.2-60.1 9.3-33.7 0-29.5-19-73.5-11.3-33.5 5.9-25.5-37.8-57.5-36.6"/><path class="axe-2" d="M391.7 477.1c20 36.3-.2 54.7-.6 88.4-.3 31.4 39.2 37.4 37 3.7"/><path class="axe-2" d="M399.4 508.2a40.6 40.6 0 0 0-39.7-5.7"/><path class="axe-3" d="M541.6 437.1c8.1-.1 14.6-7.8 14.2-15.9m-164.1 55.9c2.1 7.9 2.6 17-3 22.6m26.8 65.2c10.5 5.3 7.5 17.8 0 25.2m191.1 13.4c-9.2-.8-15.3 9-14.8 17.4m167.1-105.6c3 7.2 9.7 11.4 17.3 9.3m-413.9-75.7c6.7 15.1-2.7 32.3 1.5 47.9m.6 8.6c10.5.3 21.5-.2 29.7 8-3.3 19.3-12.7 39.8-7.7 59.4 2.6 10.6 12.1 22.3 24.2 19.2"/><path class="axe-3" d="M431.1 577.2c13.5 27.7 27.8 32.6 58.6 29.6 42.9-4.1 39.9 25.2 92.8 1.9-.9 13.7 11.6 27.5 25.4 20.1m26.6-19c33.2-9.5 35.3 11 80.7-17.5 22.7-14.3 46.1 5.1 58-18.1"/><path d="M446.5 532.3c15.9 12.4 12.9 45.3 59.3 21.3 13-6.7 27.9 7.8 41.8 12.2 24.3 10.5 46.2-15.1 31.4-36.7-7-10.3-9.6-21.2-7.5-33.4 2.9-17.2-16.1-36.6-32.1-27-44.4 26.8-51.7-10.5-77.4 1.4-15.2 7-41.7 41.9-15.5 62.2Z" style="fill:url(#axe);stroke-linecap:round;stroke-linejoin:round;stroke-width:10px;stroke:#000"/><path d="M615.6 483.2c1.5 9.9 12.5 19.3 12.5 34 0 71.8 26.9 19.3 85.6 34.9 18.7 5 31.1-22.3 21.5-38.4-25.1-41.8-8.3-51.5-26.2-61.5-21-11.7-40.2 11.8-60.4 11-11.7-.4-36.9-6.1-33 20Z" style="fill:url(#axe-2);stroke-linecap:round;stroke-linejoin:round;stroke-width:10px;stroke:#000"/><path class="axe-3" d="M440.3 490.6c-17.5 17.6-8 35.8 10.4 51.1 7.3 6.1 7.2 18.1 15.2 23.2 14.7 9.3 30-3.8 44.4-6.7 20.3-4.1 47.3 30.7 63.2 5.3m40.8-91.2c-4.9 11.3 2 21.8 5.5 32.6 11.7 35.7-5.6 70.2 48.7 52.7 22.6-7.4 42.8 5.6 54-5.3"/><path d="M549.9 479.1a17.2 17.2 0 0 1 6.3 12.2m1.2 12.1-.4 2.7m-87.7-24.3c-8.3 4.4-15.4 11.8-17.7 20.9m-2.6 13.5v1.8m121.2 26.3a16 16 0 0 1-14.6 10.3m142.8-93.5c5.5 2.8 8.1 9.2 8.9 15.2m2.5 11.8.6 2.8m16.8 36.7a18.3 18.3 0 0 1-5.4 11.2m-94.1-63.7c-1.1 4.7 1 8.9 3.4 12.7m12.1 56.1c-3-3.6-3.4-8.6-3.4-13.1" style="stroke:#fff;opacity:.74;stroke-linecap:round;stroke-linejoin:round;stroke-width:10px;fill:none"/><path d="M447 489a656.4 656.4 0 0 1 50.1 42.7l1.3-16.6s62.4 50.9 62.6 51.2c9.2-.5 18.2-6.2 20.9-15.5l-90.3-56.4-4.5 11.4-29.3-30.2M617.2 489l54.4 32.3-5.6-16.1s64 39.4 64.9 39.4c5.8-1.9 7.6-10.9 7.5-16.4l-82-38.4v10l-39.2-27.1" style="opacity:.28;fill:#fff"/><path class="axe-2" d="M446.5 532.3c15.9 12.4 12.9 45.3 59.3 21.3 13-6.7 27.9 7.8 41.8 12.2 24.3 10.5 46.2-15.1 31.4-36.7-7-10.3-9.6-21.2-7.5-33.4 2.9-17.2-16.1-36.6-32.1-27-44.4 26.8-51.7-10.5-77.4 1.4-15.2 7-41.7 41.9-15.5 62.2Zm169.1-49.1c1.5 9.9 12.5 19.3 12.5 34 0 71.8 26.9 19.3 85.6 34.9 18.7 5 31.1-22.3 21.5-38.4-25.1-41.8-8.3-51.5-26.2-61.5-21-11.7-40.2 11.8-60.4 11-11.7-.4-36.9-6.1-33 20Z"/><defs><linearGradient id="zbj" x1="516.88" y1="143.24" x2="596.42" y2="317.05" gradientUnits="userSpaceOnUse"><stop offset="0" stop-color="#0ff"/><stop offset=".08" stop-color="#1ab9ff"/><stop offset=".26" stop-color="#5a0cff"/><stop offset=".27" stop-color="#5d05ff"/><stop offset=".59" stop-color="#ff0fe7"/><stop offset=".86" stop-color="#ff6912"/><stop offset="1" stop-color="#ff1500"/></linearGradient><style>.zbj-3{fill:none;stroke-linecap:round;stroke-linejoin:round;stroke-dasharray:0 0 0 0 0 0;stroke:#000;stroke-width:10px}</style></defs><path d="M525.9 322.4c-10.7 12.5-13 27.9-2.2 41.6-2.7 13.8 5.9 30.6 22.2 28.1 8.2 15.2 31 20 42.3 5.4 13 5.9 28.9 4.8 42.1-2.6 19.8 12.2 41.2-2 36.4-25.6 11-10.9 9.7-28.6-1.8-39.3 5.2-12.8-4.1-26.2-18-27.8-5.1-14.8-24.8-21.9-37.8-11.9-13.2-7.3-29.2-4.3-40.1 6.5-11.7-9.1-46.4-8.5-43.1 25.6Z" style="fill:#dedede"/><path d="M532.9 207.8a226.2 226.2 0 0 1-45.1 28.4c11.7-107.3 133.3-157 134.8 46.4-6.1.7-9.8 2.6-14.6 7.5-12.5-5-27.5-3.1-39 4.7-5.1-2.8-10.6-5.5-16.4-6a145.7 145.7 0 0 0-19.7-81Z" style="fill:url(#zbj)"/><path class="zbj-3" d="M535.3 330.9c-32.4-25.2 23.9-62.9 38-23.3"/><path class="zbj-3" d="M525.9 322.5c-12.1 8.6-13.5 27.6-2.8 37.9m10.6-5.9c-19.8 9.9-8.9 46.3 13.5 37.7"/><path class="zbj-3" d="M547.2 382.2c-3.2 31.6 48.8 34.6 42.3 2.9"/><path class="zbj-3" d="M589.9 398.4c15.1 8.8 38.8 5.5 47.3-10.9"/><path class="zbj-3" d="M633.3 395c21.7 19.4 49.3-12.7 26.4-31.1m6.8 4.3c11.2-9.2 13-29.4-.4-37.5m-12.7 6.9c17.4-8 16-34.5-4.2-36.7m-34.2-2.4c-9.5-14.5-31.8-16.9-44.2-4.7m74.1 18.1c6.3-19.4-20.2-37.3-35.1-22.9m-86.5-97.6c23 25.7 28.1 63.6 30.9 96.9"/><path class="zbj-3" d="M623.5 281.9C610.6 51.5 492.7 154.5 487.3 237c17.4-4.1 29-19.3 44-27.9"/><path d="M621.6 285.7c-4.4 2.2-6 7.4-6.8 11.9m45.1 9.6c-5.2-1.6-10.4 1.2-14.5 4.3m28.2 31.5c-3.8-5.5-11.1-7.4-17.5-6.5m-18.3 51.7c2.5 6.6 6.5 10.4 13 11.9m-44.7.3a39.8 39.8 0 0 1-14.6-14.2m-45.9-5.5a26.2 26.2 0 0 1-11.4 8.9m40-82.1a24.5 24.5 0 0 1 8.3-20m-48.4 65.7a19.2 19.2 0 0 1-15.9-5.4" style="opacity:.37;stroke-width:10px;stroke:#000;fill:none;stroke-linecap:round;stroke-linejoin:round;stroke-dasharray:0 0 0 0 0 0"/><path d="M521.2 191.4c5.8 9.3-.1 21.2-6 29.2m14.6-7c12.6 21.4 15.6 46.5 18 71.8M523 318.3c-13.9 11.6-16.2 32.2-4.1 46.2-3.4 16.5 6.8 35.9 25.8 34.4 9.9 14.1 30.1 16.4 44 6.5a50 50 0 0 0 43-3.9 22.6 22.6 0 0 0 26.7-3.1m-37.8-122.2c-5.7.7-11.3 3.2-16.6 6.8-12.2-5.4-24.7-1.5-35.9 5.2a16 16 0 0 0-11.1-2.1" style="opacity:.6;stroke-width:10px;stroke:#000;fill:none;stroke-linecap:round;stroke-linejoin:round;stroke-dasharray:0 0 0 0 0 0"/><path d="M549.6 301.3a11 11 0 0 1 9.5 5.3m36.1-9a15.5 15.5 0 0 1 8 5.3m27.1-5.2a9.1 9.1 0 0 1 3.4 7.3m21.4 15a9.4 9.4 0 0 1-3.7 6.3m3.4 47.4a10.4 10.4 0 0 1 1 9.1m-28.8.9a17.8 17.8 0 0 1-8 5.5m-61.2-3.6a10.8 10.8 0 0 0 6.2 7.7m-29.5-18.8c-.7-3.3.8-6.8 3.1-9.3" style="stroke-width:7px;stroke:#fff;opacity:.81;fill:none;stroke-linecap:round;stroke-linejoin:round;stroke-dasharray:0 0 0 0 0 0"/><path d="M567.8 155.1c10.6 5 17.9 16.1 22.1 27.1m5.3 13.2c.3 1.2 1.7 6.3 1.9 7.5" style="stroke:#fff;opacity:.81;stroke-width:10px;fill:none;stroke-linecap:round;stroke-linejoin:round;stroke-dasharray:0 0 0 0 0 0"/><circle cx="550" cy="550" r="500" style="fill:none;stroke:#000;stroke-width:10;stroke-linecap:round;stroke-linejoin:round;stroke-miterlimit:10"/></svg>