<svg version="1.1" id="Layer_1" xmlns="http://www.w3.org/2000/svg" x="0" y="0" viewBox="0 0 1100 1100" style="enable-background:new 0 0 1100 1100" xml:space="preserve" xmlns:xlink="http://www.w3.org/1999/xlink"><style type="text/css">.st304{fill:#FF0A68;stroke:#000000;stroke-width:10;stroke-linecap:round;stroke-linejoin:round;stroke-miterlimit:10;}</style><circle class="st304" cx="550" cy="553.7" r="500"/><path d="M532 209c-68 59.6-70.9 20-120.8 36.5-19.6 10.9-14 30-9.7 39.6 11 23-50.8 9-69 40.3-10 18 0 42-7.5 61.8-9 19.6-34 35-37 52-43 48-154 7-119 70.4 6 11 33-6 39 9.1 7 17.5-39 29-21 46.7 18 5 20.7 39.9 57 63 14 20 3 51 19 69.1 36 38 46-25 41-34.3 4-39 44-10.6 22 38.7-23 52 11 74 36.5 56.6 24-9 13 39 23 50.9 19.5 37 55 12 67 12 18 .7 28 22 29.8 40.3 6.5 63 54 46 59 8 15.5-34 45 49 47 59.9 11 73 69 42 70.8 17.9 3-54-3-60 2-68.3 18.5-31 71 13 90.8-15.5 14-19.7-31-63.5 8-55.4 94 19 19-100.7 14-120.4-9-35.5 14-106 47-121.7 18-9 17-35.5 7-52.8-9.5-17-25-30.6-31-48.9-13.5-54 22-102-36-133.3-5-3-7-9.5-4-14.4 17-26 1-66-32-71.4-22-3-44 9-66.5 6.3C615 247 578.5 178 532 209z" style="fill:#dbb07e"/><style>.st40{fill:none;stroke:#000;stroke-width:10;stroke-linecap:round;stroke-linejoin:round;stroke-miterlimit:10}.st98{opacity:.6;enable-background:new}</style><g id="Outline"><path class="st98" d="M793 537c-1 .7-1 2-.5 3 5 10 11 35 25 30 8-2 21-13 18-22.4-.5-1-2-2-3-1.5-26 12-28-11-39-9.4v.3zm-34 274.5c6 5 26 8 25-3-6-7-20.6-12-21.5-26C750 772 744 803 759 811.5zm-219.3 52s1 .5 1 .8c9 13.5-3 36-18 40-34 6-9-6-6-44 .3-5.3 22.3 2.7 23 3.2zM342 731c5 7-4 22-4 33 8 13 29.6-5 33-14.9 2-12-17-21-28-20.2-1 .1-1 1.1-1 2.1zm31-120.2c2 23-8 47-26 61.9-13 10.9-17.5-30.6-8-27.9 6 4.2 28-18.8 34-34zm-157-59.9c-8 6-17 3-25 1-11 5 4 20 13.5 16 5-4 12-9 12-15.7-.5-.2-1.5-.2-.5-1.3zM337 473c-6-10-3-23 0-34 0-1 0-2-.6-2-9-9-23 11-19.8 20.7C318 463 338 475 337 472.8v.2z"/><path class="st98" d="M326 392c-2 29 24 45 7 44-7 2-14 1-15 11-1 11-24 0-24.5-1.3C285 433 317 404.5 326 392zm103-118c-9.9-4-16-16-18-25-4-6-9.9 1-11 6-7 54 29.5 28 29 19zm293 9c16 21 29.5 12 40 20.7 3 4 1 9.6-1 14-3 9-13 9-20 4.1-14.5-5.8-22-22.2-19-38.8z"/><path class="st40" d="M347 729c53.5 5 15 86 59 102 25 9 37-19.8 55-11.9 23 10.1 19.6 40 24 60.7 9.6 46 63 29.6 58-12.8"/><path class="st40" d="M519 861c89-9 47.5 119 114.5 115 39-6 35-47 25-76.5-3-9 0-18.5 7-24.5 24.5-21 59 15.5 84-2.5 15-11 8-33-2-45-12-15 0-32 10-43"/><path class="st40" d="M790 539c53 69.8-64 71 8 194.5 6 14 11 32 11 48.5 0 32-49 47.5-61 16"/><path class="st40" d="M721 287c2 51 64 31 74 88 6 34-11.5 71 7 103 10 18 27 31.5 34 51 8 19-4 47-27 42"/><path class="st40" d="M407 290.6c-16-8-12-29.9-2-41 17-15 40.5-10 61-6 29.8 1 49-29 75-38 50-17 81 55 133 44 23-5 48-11 69 1 25 14 33 55 10 75"/><path class="st40" d="M428 278c-16 26.5-51 17.5-76 28.5-20 10.5-28 33-23 55 10 47-43 51-39 88m25 4.5c1.5-23 35-26 41-5 7 25-13 47 16 72"/><path class="st40" d="M334 476c-20-34-61-31.5-89-9.6-20 8-43-3-64 4-22 7-28 37-5 43.5 6.5 2 23-2 26-1 15 4 11 25-5 30-21 6-10 29 6 29"/><path class="st40" d="M216 554.5c-15 15-14 41 2 55 37 22 41 31 36 69.7-2 31 46 41 53.5 10 2-10.8-4-22 0-33 13-32 44 20 62-44.5"/><path class="st40" d="M327 647.9c25 29.7-.5 47-7 75-10 32.5 34 65 53 25"/><path d="M729 262.5c9 4 16 13 18 22.5m-193-68c12.5 2 24.5 8 34 16m9 9 3 3m-163 10c-5.5-.9-12 .6-15.5 4M362 319.6c-9 2-14 10.7-16 19M339 449c4 1 6 6 6 9.8M308.5 470c-12-6-16-5-22-4M175 492c1-4 5-7 9-7.5m38 89.5c-4 8 0 16 4 19.9m44 78.6c-1 6 1 15 9 18m76-77.5c-3 14-13 14.5-16 16m4.5 119.5c-5-3-9-9-8-15M397 782c-1 14.5 7 28 14 30m90 53.9c-3 12 2 27 14.5 25M636 957c14-3 17-28 11-38m96-60.1c1-7 0-14-4-19m46-49.1c8-6.5 9-25 3-39M786 582c5-8 3-19-3-26m37-12c2-8.5-.6-18-7-24m-56-169c18 6 22 30 21 35" style="opacity:.7882;fill:none;stroke:#fff;stroke-width:10;stroke-linecap:round;stroke-linejoin:round;stroke-miterlimit:10;enable-background:new"/></g><style>.st40,.st68{fill:none;stroke-width:10;stroke-linecap:round;stroke-linejoin:round;stroke-miterlimit:10;stroke:#000}.st68{opacity:.6;enable-background:new}</style><g id="Eye"><linearGradient id="SVGID_00000144327888440828662330000012949225208094602647_" gradientUnits="userSpaceOnUse" x1="232.314" y1="-555.531" x2="336.458" y2="-482.43" gradientTransform="translate(0 1066)"><stop offset="0" style="stop-color:#00ff04"/><stop offset=".811" style="stop-color:#00fccf"/><stop offset="1" style="stop-color:#00fbff"/></linearGradient><path style="fill:url(#SVGID_00000144327888440828662330000012949225208094602647_)" d="M278 494c-31 10.8-13 49-9.5 56 8 16-9 32.5 9 50.8 9 9 46 8 40.7-31-2-13-13-23-13.5-35.8-.7-21-3.7-48-26.7-40z"/><path d="M273 498c-6.5 9-1 22 4 30.8 6 8 13 15 14 25 2 14-6 31 3 43.7 15 18 30.6-23 23-35-3-7-8-13.5-10-20.8-5-16 2-45-21-49" style="opacity:.5098;fill:#fff;enable-background:new"/><path class="st68" d="M274 516c9 24.5 14 39 18 64"/><path class="st40" d="M278 494c-31 10.8-13 49-9.5 56 8 16-9 32.5 9 50.8 9 9 46 8 40.7-31-2-13-13-23-13.5-36C304 513 301 486 278 494z"/><path class="st40" d="M282 526c6 17 10.5 35 14 53"/><path d="M279 515c1 4 2 7 3.5 11m24.5 46.9c1 5 1.5 13-5 19" style="fill:none;stroke:#fff;stroke-width:10;stroke-linecap:round;stroke-linejoin:round;stroke-miterlimit:10"/><path class="st68" d="M264 495.9c-15.5 19-6 44 1 65 3 9-3 18-1 27 4 24 31 31 46 12"/></g><style>.st40{fill:none;stroke:#000;stroke-width:10;stroke-linecap:round;stroke-linejoin:round;stroke-miterlimit:10}</style><g id="Duhh"><path d="M713 770.3c-107 104-373 27-163-65.2 27-9 49.7 7.5 69 24.1 37-16.2 72 8.8 94 41.1z" style="fill:#fe1767"/><path d="M711 767.2c-20-25-57.5-53.5-90.6-38-12-11-24-22-38-29.5C623 679.6 771 699 711 767.2z"/><path d="M611.5 726.5C562 714 507 740 474 776.7c-1-40 50-66 84-75.9 21-4.8 40 8.2 53.5 25.7zm27.5 28.1c-1-13 16-24 28-23.4-14-8-32-8-46-.1l18 23.5z" style="fill:#ae0f45"/><ellipse transform="rotate(-9.32 598.78 756.174)" class="st40" cx="599" cy="756" rx="128" ry="62"/><path class="st40" d="M571 699.3c27 9 50 29 64 54m-14-23.2c33.5-18.5 68 11 89 36M475 706c-26 21-48.5 57-26 89m272-111.6c27 10 48 49 27 77"/><path d="M475 706c-32 9.6-59 64-27 89m273-113.7c33 4 55 55 28.5 78M472 768.6c-19.6 91 222 65.8 246-6" style="opacity:.6;fill:none;stroke:#000;stroke-width:10;stroke-linecap:round;stroke-linejoin:round;stroke-miterlimit:10"/><path d="M588 723c7 5.5 13 12 18 18m8 12.5 1.5 2.5m43.5-13.2c7 3 14 7.5 19 13m9 10.2 3 3" style="opacity:.7686;fill:none;stroke:#fff;stroke-width:10;stroke-linecap:round;stroke-linejoin:round;stroke-miterlimit:10"/></g><style>.st68{enable-background:new;opacity:.6;fill:none;stroke:#000;stroke-width:10;stroke-linecap:round;stroke-linejoin:round;stroke-miterlimit:10}</style><g id="trippy_VR"><linearGradient id="SVGID_00000020388922614253771230000004650598949562930306_" gradientUnits="userSpaceOnUse" x1="586.484" y1="720.989" x2="598.481" y2="427.041" gradientTransform="matrix(1 0 0 -1 0 1100)"><stop offset="0" style="stop-color:#ff0062"/><stop offset="1" style="stop-color:#ff9d00"/></linearGradient><path style="fill:url(#SVGID_00000020388922614253771230000004650598949562930306_);stroke:#000;stroke-width:10;stroke-linecap:round;stroke-linejoin:round;stroke-miterlimit:10" d="M729 389c-81 32-168 29.7-254 29.7-79 0-75 45-76 110-2 167 409.6 107 385-42.5-5-30.2-7-116.1-55-97.2z"/><linearGradient id="SVGID_00000048501908464928315330000009927288370948035757_" gradientUnits="userSpaceOnUse" x1="580.562" y1="671.12" x2="631.559" y2="442.138" gradientTransform="matrix(1 0 0 -1 0 1100)"><stop offset="0" style="stop-color:#00fff2"/><stop offset=".613" style="stop-color:#006cfa"/><stop offset="1" style="stop-color:#000dff"/></linearGradient><path style="fill:url(#SVGID_00000048501908464928315330000009927288370948035757_);stroke:#000;stroke-width:10;stroke-linecap:round;stroke-linejoin:round;stroke-miterlimit:10" d="M718 427.5c-108 47-156 32-241 30.7-43-.7-46 57-32 88.5 46.5 85 313 56 307-66.2-1-21.5-3.5-66.5-34-53z"/><path d="M728 449c6 14 8 29 7 44m-5 16.5-3 5.5m-270-31c-4 14-4 29.7 1 44m5 14c1 4 4 8 7 10m276-148c6 7 9.8 16 12 24.5m11 85.5c-3.5 10.9-9 21-16 30m18-42-.2-4M445 436c-10 4-19 12-23 22m-5.5 17-.5 4m5 82c4 9 10 17 18 23" style="fill:none;stroke:#fff;stroke-width:10;stroke-linecap:round;stroke-linejoin:round;stroke-miterlimit:10"/><path d="M520 460.9c26 32 51 65 74 99 0-10 0-20.8-.8-31 8 13 18 24 29 35.2l19 19.8 27-8.4-80.6-75.8-5 18.9L544 462m38 1c24 26.5 48 52 74 76.9l-4-26.1 41.5 48.1 14-7.2-62-57.3-1 17.1-46-53" style="opacity:.502;fill:#fff;enable-background:new"/><path class="st68" d="M421 431c-42 16-34 122-14 152 59 87.5 312 59 358-29"/><path class="st68" d="M452 466c-13 8-17 25-18 33.5C420.5 635.8 661 619 725 545"/><path d="M718 427.5c-108 47-156 32-241 30.7-43-.7-46 57-32 88.5 46.5 85 313 56 307-66-1-21.7-3.5-66.7-34-53.2z" style="fill:none;stroke:#000;stroke-width:10;stroke-linecap:round;stroke-linejoin:round;stroke-miterlimit:10"/></g><circle cx="550" cy="550" r="500" style="fill:none;stroke:#000;stroke-width:10;stroke-linecap:round;stroke-linejoin:round;stroke-miterlimit:10"/></svg>