<svg version="1.1" id="Layer_1" xmlns="http://www.w3.org/2000/svg" x="0" y="0" viewBox="0 0 1100 1100" style="enable-background:new 0 0 1100 1100" xml:space="preserve" xmlns:xlink="http://www.w3.org/1999/xlink"><style type="text/css">.st300{fill:#00DE72;stroke:#000000;stroke-width:10;stroke-linecap:round;stroke-linejoin:round;stroke-miterlimit:10;}</style><circle class="st300" cx="550" cy="553.7" r="500"/><style>.st75{fill:none;stroke-width:10;stroke-linecap:round;stroke-linejoin:round;stroke-miterlimit:10;stroke:#005e0f}</style><g id="brain"><path d="M533 208.1c-68 59.6-71 20-121 36.5-19.6 10.9-14 30-9.7 39.6 11 23-51 9-69 40.3-10 18 .1 42-7.5 61.8-9 19.6-34 35-37 52.2-43 48-154 7-119 70.4 6 11 33-6 39 9.1 7 17.5-39 29-21 46.7 18 5 21 39.9 57 63.2 14 20 3 51 19 69.1 35.8 38 46-25 41-34.3 4-39 44-11 22 38.7-23 52 11 74 36.5 56.6 38.5-10.5-14 99.9 89.9 62.9 18 1 28 22 29.8 40.3 6.5 63 54 46 59 8 15.5-34 45 49 47 59.9 11 73 69 42 71 17.9 3-54-3-60.1 2-68.3 18.5-31 71 13 90.8-15.5 14-19.7-31-63.5 8-55.4 94 19 19-101 14-120.4-9-35.5 14-106 47-121.7 18-9 17-35.5 7-52.8-9.5-17-25-30.6-31-48.9-13.5-54 22-102-36-133.3-5-3-7-9.5-4-14.4 17-26 1-66-32-71.4-22-3-44 9-66.5 6.3C616 246 579.9 177 533 208.1z" style="fill:#a1ffb0"/><path d="M697 378.3c13-5 26 9.9 19.9 22.3-8 11.5-21.5 25.5-13 40.2 18 19 52 27 40 60.9-13 32-46 15-70 22.6-14 7-27 22-44 14-12 13-30 22-46.5 11.8-16 37-37-4-75.5 25.8-16 12-4.5-5-44-16.9-22-7-25-35-10.5-50.3-19-1-39.9-26-25-43 36-6 22-36 36-50.2 16-17 61.5-6 96-25.5 8-4 51.5 5 65.5 2.8C654 386 664 346 697 378.3z" style="fill:#a15e96"/><path d="M442 474.8c2-4 2-9.6 0-14m23 75.7c2-8 0-17-6.5-23m73.5-56.1c-36 22-4 81.5-45 107m76-56.4c2 18.5 27.5 22 31 40m-54-122.4c19-1 28 20 28 36.3 0 11 8 19 17 24.2 23 11 47 16 49 48m18-58.5c14 15.8 42 19 48 42m-22.5-127.7c4-5 7-9.6 9-15M602 465.5c22 3.5 30.9-23 48.5-31M583 403c2-3 3-8 2-11.5m60-6.4c14 14 8 38 19.5 52.1 8 10.1 24 14 27 28.5" style="stroke:#5d5e5e;fill:none;stroke-width:10;stroke-linecap:round;stroke-linejoin:round;stroke-miterlimit:10"/><path d="M716 468.5c6 3 11 8 12 15m0 13.5-1 3m-245-78.6c-9 5-15 14-15.5 24M496 419h3m100 95.2c7 3 12 9 14 16M588 509l-2-1.5m45-101.6c2 3 3 7 4 10.9m-74 122.3c4 2 6.5 5 7.5 9M706 392.2c0 3-1 7-4 9" style="fill:none;stroke:#fff;stroke-width:10;stroke-linecap:round;stroke-linejoin:round;stroke-miterlimit:10"/><path class="st75" d="M694 378.2c-29-35-47 15-71.5 16.1-9 0-18-6-27-7-7-1-15 1-21 6"/><path class="st75" d="M581 402.8c-4-11-18-18-29.5-13.8-7 2.5-12 8-19 12-13 9-29 3-44 2.5-59.9 12-23 55-45 72"/><path class="st75" d="M451 462.7c-13-14-32.5 8-29 22.7 7 28 29.7 16 46 26.6 8 6 8 19 0 25"/><path class="st75" d="M458 509.9c-30.1 18-6 62 25 46.7 41-25-2-87 47-100.9"/><path class="st75" d="M478 559.6c4 11 16.5 21 27 16.5 25.5-11 10-19.9 56-9.5 14 3 29.7-16 19-28.6-8-9-25-16-19-30.6"/><path class="st75" d="M584 549.2c30.1 20 84-29.5-10-61.7-10.7-5-13-17-12-27.6 0-14-9-34-25-32.5"/><path class="st75" d="M628 535.6c26 18 37-15 61-14.8 21 1 42 9.6 53-14.2 21-57-52-48-40-84.1 4-12 20-21 16-34.4-8-16-29-7-39 3"/><path class="st75" d="M638 390.4c18.5 13 6.5 44 26 55.9 11 4 21.5 9 27 20"/><path class="st75" d="M651 428.4c-22 1-27 32-48 34m89 56.6c-3-23-35-22-43-42"/></g><style>.st40{fill:none;stroke:#000;stroke-width:10;stroke-linecap:round;stroke-linejoin:round;stroke-miterlimit:10}.st98{opacity:.6;enable-background:new}</style><g id="Outline"><path class="st98" d="M793 537c-1 .7-1 2-.5 3 5 10 11 35 25 30 8-2 21-13 18-22.4-.5-1-2-2-3-1.5-26 12-28-11-39-9.4v.3zm-34 274.5c6 5 26 8 25-3-6-7-20.6-12-21.5-26C750 772 744 803 759 811.5zm-219.3 52s1 .5 1 .8c9 13.5-3 36-18 40-34 6-9-6-6-44 .3-5.3 22.3 2.7 23 3.2zM342 731c5 7-4 22-4 33 8 13 29.6-5 33-14.9 2-12-17-21-28-20.2-1 .1-1 1.1-1 2.1zm31-120.2c2 23-8 47-26 61.9-13 10.9-17.5-30.6-8-27.9 6 4.2 28-18.8 34-34zm-157-59.9c-8 6-17 3-25 1-11 5 4 20 13.5 16 5-4 12-9 12-15.7-.5-.2-1.5-.2-.5-1.3zM337 473c-6-10-3-23 0-34 0-1 0-2-.6-2-9-9-23 11-19.8 20.7C318 463 338 475 337 472.8v.2z"/><path class="st98" d="M326 392c-2 29 24 45 7 44-7 2-14 1-15 11-1 11-24 0-24.5-1.3C285 433 317 404.5 326 392zm103-118c-9.9-4-16-16-18-25-4-6-9.9 1-11 6-7 54 29.5 28 29 19zm293 9c16 21 29.5 12 40 20.7 3 4 1 9.6-1 14-3 9-13 9-20 4.1-14.5-5.8-22-22.2-19-38.8z"/><path class="st40" d="M347 729c53.5 5 15 86 59 102 25 9 37-19.8 55-11.9 23 10.1 19.6 40 24 60.7 9.6 46 63 29.6 58-12.8"/><path class="st40" d="M519 861c89-9 47.5 119 114.5 115 39-6 35-47 25-76.5-3-9 0-18.5 7-24.5 24.5-21 59 15.5 84-2.5 15-11 8-33-2-45-12-15 0-32 10-43"/><path class="st40" d="M790 539c53 69.8-64 71 8 194.5 6 14 11 32 11 48.5 0 32-49 47.5-61 16"/><path class="st40" d="M721 287c2 51 64 31 74 88 6 34-11.5 71 7 103 10 18 27 31.5 34 51 8 19-4 47-27 42"/><path class="st40" d="M407 290.6c-16-8-12-29.9-2-41 17-15 40.5-10 61-6 29.8 1 49-29 75-38 50-17 81 55 133 44 23-5 48-11 69 1 25 14 33 55 10 75"/><path class="st40" d="M428 278c-16 26.5-51 17.5-76 28.5-20 10.5-28 33-23 55 10 47-43 51-39 88m25 4.5c1.5-23 35-26 41-5 7 25-13 47 16 72"/><path class="st40" d="M334 476c-20-34-61-31.5-89-9.6-20 8-43-3-64 4-22 7-28 37-5 43.5 6.5 2 23-2 26-1 15 4 11 25-5 30-21 6-10 29 6 29"/><path class="st40" d="M216 554.5c-15 15-14 41 2 55 37 22 41 31 36 69.7-2 31 46 41 53.5 10 2-10.8-4-22 0-33 13-32 44 20 62-44.5"/><path class="st40" d="M327 647.9c25 29.7-.5 47-7 75-10 32.5 34 65 53 25"/><path d="M729 262.5c9 4 16 13 18 22.5m-193-68c12.5 2 24.5 8 34 16m9 9 3 3m-163 10c-5.5-.9-12 .6-15.5 4M362 319.6c-9 2-14 10.7-16 19M339 449c4 1 6 6 6 9.8M308.5 470c-12-6-16-5-22-4M175 492c1-4 5-7 9-7.5m38 89.5c-4 8 0 16 4 19.9m44 78.6c-1 6 1 15 9 18m76-77.5c-3 14-13 14.5-16 16m4.5 119.5c-5-3-9-9-8-15M397 782c-1 14.5 7 28 14 30m90 53.9c-3 12 2 27 14.5 25M636 957c14-3 17-28 11-38m96-60.1c1-7 0-14-4-19m46-49.1c8-6.5 9-25 3-39M786 582c5-8 3-19-3-26m37-12c2-8.5-.6-18-7-24m-56-169c18 6 22 30 21 35" style="opacity:.7882;fill:none;stroke:#fff;stroke-width:10;stroke-linecap:round;stroke-linejoin:round;stroke-miterlimit:10;enable-background:new"/></g><style>.st40,.st68{fill:none;stroke-width:10;stroke-linecap:round;stroke-linejoin:round;stroke-miterlimit:10;stroke:#000}.st68{opacity:.6;enable-background:new}</style><g id="Eye"><linearGradient id="SVGID_00000144327888440828662330000012949225208094602647_" gradientUnits="userSpaceOnUse" x1="232.314" y1="-555.531" x2="336.458" y2="-482.43" gradientTransform="translate(0 1066)"><stop offset="0" style="stop-color:#00ff04"/><stop offset=".811" style="stop-color:#00fccf"/><stop offset="1" style="stop-color:#00fbff"/></linearGradient><path style="fill:url(#SVGID_00000144327888440828662330000012949225208094602647_)" d="M278 494c-31 10.8-13 49-9.5 56 8 16-9 32.5 9 50.8 9 9 46 8 40.7-31-2-13-13-23-13.5-35.8-.7-21-3.7-48-26.7-40z"/><path d="M273 498c-6.5 9-1 22 4 30.8 6 8 13 15 14 25 2 14-6 31 3 43.7 15 18 30.6-23 23-35-3-7-8-13.5-10-20.8-5-16 2-45-21-49" style="opacity:.5098;fill:#fff;enable-background:new"/><path class="st68" d="M274 516c9 24.5 14 39 18 64"/><path class="st40" d="M278 494c-31 10.8-13 49-9.5 56 8 16-9 32.5 9 50.8 9 9 46 8 40.7-31-2-13-13-23-13.5-36C304 513 301 486 278 494z"/><path class="st40" d="M282 526c6 17 10.5 35 14 53"/><path d="M279 515c1 4 2 7 3.5 11m24.5 46.9c1 5 1.5 13-5 19" style="fill:none;stroke:#fff;stroke-width:10;stroke-linecap:round;stroke-linejoin:round;stroke-miterlimit:10"/><path class="st68" d="M264 495.9c-15.5 19-6 44 1 65 3 9-3 18-1 27 4 24 31 31 46 12"/></g><defs><style>.zac-4{fill:none;stroke-linecap:round;stroke-linejoin:round;stroke-width:10px;stroke:#000}</style></defs><path d="M497.5 766.8c-11.6 118.6 226.7 117.7 213-1.9Z" style="fill:#ff0059"/><path d="M501.5 776.7c58 34.9 68.2-20.3 116.4-3.9" style="stroke-linecap:round;stroke-linejoin:round;stroke-width:10px;stroke:#660024;fill:none"/><path d="M710.8 767.7c-15.5 13.1-45.4-1-55.8 13.3-4.6 6.4-3.8 13.2.4 20.5-9.7-4.2-18.8-13-24.8-22.6 4.9-10.2 63.2-17.4 80.2-11.2Z" style="fill:#660024"/><path d="M591.5 759.8a117.5 117.5 0 0 1 36.8 18.7l17.9-13.1a143.7 143.7 0 0 1-39-27.9c-5.9 6.8-12.4 13.5-15.7 22.3Z"/><path class="zac-4" d="M497.5 766.8c-11.6 118.6 226.7 117.7 213-1.9"/><path class="zac-4" d="M587.2 761.2c25.3 5.5 48.6 20.8 64.6 42.2"/><path d="M613.4 727.7c-85 131.8-186.8-17.3-157.3-65.4 16 36.8 60.9 42.3 94.1 33.4 29.4-7.8 41.6-35.6 58.8-35 20 .6 40 21.1 61.7 26.2 35.3 8.3 68.4-11.4 83.4-46.9 23 48.4-11.4 113.5-58.8 125.2-32 7.9-64.5-2.7-87.7-26.2" style="fill:#c97600;stroke:#000;stroke-linecap:round;stroke-linejoin:round;stroke-width:10px"/><path class="zac-4" d="M629.6 779.5a40.9 40.9 0 0 1 21.7-13.9"/><path d="M611.7 675.4a55.8 55.8 0 0 1 20.4 10.1m10.1 6 2.8 1.6m-57.8 43.4a60.1 60.1 0 0 1-28 23.6m-14.7 3.5-4.3-.2m204.4-70.3c-4.1 14.1-9.8 24.8-18.5 33.1m-10.5 10.3-3.4 2.5m-105.9 44.1c9.9 2 17.6 9.3 24 16.7m7.9 10.7 1.6 2.7" style="stroke:#fff;fill:none;stroke-linecap:round;stroke-linejoin:round;stroke-width:10px"/><path d="M450.9 662.3c-14.3 40.4 8.3 83 40.5 108.3-4 99.8 155.8 120.9 203.8 49m-91.1-158.3c-24.3 2.6-33.6 26.7-52.7 34.3m201.8-56.5c-11.4 19.8-27.4 35.9-50.4 47.5m-89.4 41.1c2.2 12.1 8.8 20.3 15.9 27.8" style="opacity:.6;stroke:#000;fill:none;stroke-linecap:round;stroke-linejoin:round;stroke-width:10px"/><style>.st114,.st40{fill:none;stroke:#000;stroke-width:10;stroke-linecap:round;stroke-linejoin:round;stroke-miterlimit:10}.st114{opacity:.6}</style><g id="suspicious_eye"><path d="M719 485.7c-75 34-164 43-245 39-79.5-4-88 69-8 79.6 62 8 254-20 290-73.1 22-30.2-4-60.2-37-45.5z" style="fill:#fff"/><path d="M574 545.3c1 17.5 0 35-5 52.2l56-9.9-16.5-30.5-34.5-11.8z"/><linearGradient id="SVGID_00000126282863442437977090000011937741723992343478_" gradientUnits="userSpaceOnUse" x1="587.88" y1="506.723" x2="601.628" y2="614.919"><stop offset="0" style="stop-color:#b0f"/><stop offset="1" style="stop-color:#f04"/></linearGradient><path style="fill:url(#SVGID_00000126282863442437977090000011937741723992343478_)" d="M662 508.1c13 16 19 46 13 65.8.5 0-49 15-49 14.6-27-20.5-5.5-57.5-26-66.7-46-4-15 52-33 76.7 0 0-43 3-43 2.9-13-21-19.5-53-3-73.9 48-3.5 94-8.5 141-19.4z"/><path class="st40" d="M719 485.7c-75 34-164 43-245 39-79.5-4-88 69-8 79.6 62 8 254-20 290-73.1 22-30.2-4-60.2-37-45.5z"/><path class="st40" d="M519.8 527.9c-13 23-7 52 4 75M661 508.4c17.5 17.5 19 42 14 66m-111 25.8c23-20.9-12-81 34-78.9 26 4 0 48 28 66"/><path class="st40" d="M575 533.1c3 15 18 26 34 24m121-96.7c23-5 37 2 48 21m-357 27c-14 4-25 16-29 29.9"/><path class="st114" d="M419.6 506.5c-15.5 2-28 15-29 30.8M729 456.8c19-9 41 3 50 20.9m-369 77.1c-22 112 366 41 355-46"/><path class="st114" d="M417.5 545.8c28-16 63-17.5 94-12.8-5 22-5 46 5 66M668 510.9c29.8-5 57-29 88-20.6"/><path d="M655 521.9c5 8 8 17 8 26m-1 12.1v3" style="opacity:.7804;stroke:#fff;fill:none;stroke-width:10;stroke-linecap:round;stroke-linejoin:round;stroke-miterlimit:10"/></g><style>.st40{fill:none;stroke-width:10;stroke-linecap:round;stroke-linejoin:round;stroke-miterlimit:10;stroke:#000}</style><g id="Shroom_Antenna"><linearGradient id="SVGID_00000176735610897484560930000017691232496244912291_" gradientUnits="userSpaceOnUse" x1="401.493" y1="824.274" x2="312.493" y2="984.274" gradientTransform="matrix(1 0 0 -1 0 1100)"><stop offset="0" style="stop-color:#ff0019"/><stop offset=".092" style="stop-color:#ff0918"/><stop offset=".244" style="stop-color:#ff2315"/><stop offset=".437" style="stop-color:#ff4c11"/><stop offset=".665" style="stop-color:#ff850b"/><stop offset=".918" style="stop-color:#ffcd03"/><stop offset="1" style="stop-color:#ffe600"/></linearGradient><path style="fill:url(#SVGID_00000176735610897484560930000017691232496244912291_)" d="M409 168.3c96 29-58 182-88 89C213 196 389.7 58 409 168v.3z"/><linearGradient id="SVGID_00000033361498561336005100000005581830373393905326_" gradientUnits="userSpaceOnUse" x1="742.668" y1="1020.722" x2="672.668" y2="852.722" gradientTransform="matrix(1 0 0 -1 0 1100)"><stop offset="0" style="stop-color:#ff0019"/><stop offset="1" style="stop-color:#ffe600"/></linearGradient><path style="fill:url(#SVGID_00000033361498561336005100000005581830373393905326_)" d="M644 150.9c-88.5 56 113.5 159.5 116 61 91-90.9-130-173.9-116-61z"/><path d="M769 134.9c-22.5 7-8 46 13 33.9l-13-33.9zM712 120c-14 8.5-2 34 14 27 20.5-8 4-35.5-14-27zm-50 23c12.5-4 18-19 14-30.5C660 79 619 167 662 143zm46.5 27c13-21.5 37.5 7 21 21.7l-21-21.7zm21.1 58c3 8 13.5 9 19.9 5 13-9.6 0-29-14-27.9l-6 22.5v.4zM681 144c-12 17 20 14 14 0-2-7-11-6-14-.3v.3zm-48 16c19 8 4 33-11 26.1l11-26.1zm-293.4-24c-7 17 21 28.5 32 16 22-35-28-26-32-16.4v.4zM312 167c-17 15-4 42.5 18 30.9 21-12.9 5-50.9-18-30.9zm47.6 5c-7 7-1 15 8 11.5 8-7.5 0-15.5-8-11.7v.2zM304 245c-2-8 11-18 17-10.7 3 12 5 27-17 10.3v.4zm37-13c-24-13-6-48 16-27.3L341 232zm88.7-48.1c-27 13-1 39.5 9.8 16.2l-9.8-16.2zM347 264c-12 3-7 24 5 20.7 14-4 10-26-5-20.9v.2z" style="fill:#fff"/><linearGradient id="SVGID_00000043457880346161170380000015667602403679971728_" gradientUnits="userSpaceOnUse" x1="620" y1="903.19" x2="744" y2="903.19" gradientTransform="matrix(1 0 0 -1 0 1100)"><stop offset="0" style="stop-color:#ff00d5"/><stop offset="1" style="stop-color:#ff2b00"/></linearGradient><path style="fill:url(#SVGID_00000043457880346161170380000015667602403679971728_)" d="M649 177.4c-11 32 56 64 79.7 49 25-38-56-87-79.7-49.4v.4z"/><linearGradient id="SVGID_00000121994016746903787350000010207019385027681171_" gradientUnits="userSpaceOnUse" x1="327.911" y1="881.357" x2="436.911" y2="866.357" gradientTransform="matrix(1 0 0 -1 0 1100)"><stop offset="0" style="stop-color:#ff00d5"/><stop offset="1" style="stop-color:#ff2b00"/></linearGradient><path style="fill:url(#SVGID_00000121994016746903787350000010207019385027681171_)" d="M412 194.8c19 28-33 76-59 67.5-33.4-29.3 26.8-97.3 59-67.5z"/><linearGradient id="SVGID_00000120544995956153986830000010364649666597856660_" gradientUnits="userSpaceOnUse" x1="654.073" y1="885.052" x2="718.073" y2="795.052" gradientTransform="matrix(1 0 0 -1 0 1100)"><stop offset="0" style="stop-color:#ffd500"/><stop offset="1" style="stop-color:#f90"/></linearGradient><path style="fill:url(#SVGID_00000120544995956153986830000010364649666597856660_)" d="M672 228c-20.5 24-7 50.5-11 80 5 10.5 19 6 28.5 7.5 25-15-10.6-49 17.5-102 3-13.9-27-45.5-35 14.5z"/><linearGradient id="SVGID_00000139262761562535967860000013547569025019711667_" gradientUnits="userSpaceOnUse" x1="341.889" y1="850.787" x2="458.889" y2="789.787" gradientTransform="matrix(1 0 0 -1 0 1100)"><stop offset="0" style="stop-color:#ffd500"/><stop offset="1" style="stop-color:#ff8000"/></linearGradient><path style="fill:url(#SVGID_00000139262761562535967860000013547569025019711667_)" d="M405 248.9c25 17 21 46 33 73-2 11-16 10.9-24 15-27-8-4-49.6-45-92-6-12.9 12-50.9 36 4z"/><path class="st40" d="M647 299c12.5 5 22 17 24 29.9m-3-12.9c14-6 32 0 38.5 14"/><path class="st40" d="M658 303c11-13 0-31.5.8-47 .9-17 15-29.9 18-46 .7-4 .6-9 3-12 11-16 32 5 27 20-2 6-6 11.5-9 17-14 26 12 55-2 80.9"/><path class="st40" d="M671 217c-35-14-35-59 9-53 48 3 81 69 26 65"/><path class="st40" d="M661 236c-47-19-58-83 2-90.6M699 249c54 15 75-23 49-66.5"/><path class="st40" d="M643 148.9c-10.8-39.7 39-59.9 73-51 50.5 13 96 72 44 115M449 310c-9.8 8-15 22-13 35"/><path class="st40" d="M436 332c-14-2-28.5 9-30.5 24"/><path class="st40" d="M440 317c-14-9.6-9-29.8-15-44-6-16-23-24-30-39-2-4-3-8-6-10.6-15-12-28 14-18 27 3 5.5 9 9 13 13.9 21 21 5 56 26 76.5"/><path class="st40" d="M403 239c27.5-24 13.5-66-24-48-42 16.5-52.5 89-3 69.6"/><path class="st40" d="M418 253c37-31.5 27-95-29-86m-1 110c-44 29.5-74-1-64-49.7"/><path class="st40" d="M408 165.5c-2-40.9-53-46-80.9-28-41 27-65 96-5 122"/><path d="M661 299c8 13 24 2 34 13m-46-137c29.8-19 77 9.6 85 42m-298 99.5c-4 12-18 7-26 16M407 191c-29.7-2-54 24-63.5 55m45.5-78c14-4 15.5-16 9.7-26m-74.2 83.5c-2 10-6.5 32-23 21m446.5-64c5 8.5 14 29 28 11m-112-49c-9 1-16.5-2-22-9M671 320c11.5-6 27 1.5 36 9m-273 7.9c-10 1-20 6-28 13" style="opacity:.6;enable-background:new;stroke:#000;fill:none;stroke-width:10;stroke-linecap:round;stroke-linejoin:round;stroke-miterlimit:10"/><path d="M411 269.9c3.5 6 5.5 12 6 19m0 12.1 1 4m258-60c-4 6-4.5 14-2.5 20m1.5 13v4" style="fill:none;stroke:#fff;stroke-width:10;stroke-linecap:round;stroke-linejoin:round;stroke-miterlimit:10"/></g><circle cx="550" cy="550" r="500" style="fill:none;stroke:#000;stroke-width:10;stroke-linecap:round;stroke-linejoin:round;stroke-miterlimit:10"/></svg>