<svg version="1.1" id="Layer_1" xmlns="http://www.w3.org/2000/svg" x="0" y="0" viewBox="0 0 1100 1100" style="enable-background:new 0 0 1100 1100" xml:space="preserve" xmlns:xlink="http://www.w3.org/1999/xlink"><style type="text/css">.st303{fill:#FED907;stroke:#000000;stroke-width:10;stroke-linecap:round;stroke-linejoin:round;stroke-miterlimit:10;}</style><circle class="st303" cx="550" cy="553.7" r="500"/><path d="M327 702.4c-23 52 11 74 36.5 56.6 38.5-10-14 99.9 89.9 62.9 18 1 28 22 29.8 40.3 6.5 63 54 46 59 8 15.5-34 45 49 47 59.9 11 73 69 42 71 17.9 3-54-3-60.1 2-68.3 18.5-31 71 13 90.8-15.5 14-19.7-31-63.5 8-55.4 94 19 19-101 14-120.4l-448 14z" style="fill:#20f"/><path d="M779 692.9c-15-51 21-118 41.5-126.2 18.5-8 17-33 7-50.2h-620c7 18-39 32-21 49.2 18 5 21 39.9 57 63.2 14 20 3 51 19 69.1 35.8 38 46-25 41-34.3 4-39 44-11 23 38.7-23 53 14 74 32.5 61.5 16-11 25-65 63 3.8 11 21 47 11 39-13.5-18.5-58 50.7-32 59-10 5 12.5-8 31 8 37.1 35 13 37-31 29.9-42.8-17-28 17-34 27.5-21.8 11 12-18 33 11 43.2 14 5 34-4 32-21.1-1-8-29-43 22-38 39 4 71 91 97 20.6C752 709 762 688 779 692.9z" style="fill:#04f"/><path d="M828 516.5c-76-76 7-145.5-67-184.7l-436 55.5c-9 19.6-34 35-37 52.2-43 48-155 7-119 70.4 48-3 52 29 58 37.6 23 33 72-41 88.5 20.7 12 43 39.7 26 39 9.3-2-37.5 45-31 59.6-9.7 75 110 112 49 105 20.2-9-39.9 23.5-39 29-29.8 6 9.6-7 22-3 32.5 9 25 53.5 18 35.5-25.4-11-27 39-10.1 53 .5 45.5 35 86 35 120-14.2 25-37 47-22 61.5-22.1 6.9.1 21.9-3.5 12.9-13z" style="fill:#00b2ff"/><path d="M761 331.7c-16-9 41-64-36-85.8-22-4-44 9-66.5 6.3-44-5-80-74-127-43.1-68 59.6-71 20-121 36.5-19.6 10.9-9 38-5 47.6 12 24-91-35-78 91.2-1 11 12.5 24 21 16.6 26-23 41-7 52 17.3 15 34 48.5 23 47-14.9-1-42 80.7-51 88 55.6 1.5 22 37 31 53 13.8 34-39-17-59.7-2-87.9 4-7 18-7 19.6 1.3 1 6-4 12-3 17.7 5 26.5 43.5 3 33-18.9-25-49.9 50-19.8 73-17.2C734.5 370 743 348 761 331.7z" style="fill:#00e1ff"/><style>.st40{fill:none;stroke:#000;stroke-width:10;stroke-linecap:round;stroke-linejoin:round;stroke-miterlimit:10}.st98{opacity:.6;enable-background:new}</style><g id="Outline"><path class="st98" d="M793 537c-1 .7-1 2-.5 3 5 10 11 35 25 30 8-2 21-13 18-22.4-.5-1-2-2-3-1.5-26 12-28-11-39-9.4v.3zm-34 274.5c6 5 26 8 25-3-6-7-20.6-12-21.5-26C750 772 744 803 759 811.5zm-219.3 52s1 .5 1 .8c9 13.5-3 36-18 40-34 6-9-6-6-44 .3-5.3 22.3 2.7 23 3.2zM342 731c5 7-4 22-4 33 8 13 29.6-5 33-14.9 2-12-17-21-28-20.2-1 .1-1 1.1-1 2.1zm31-120.2c2 23-8 47-26 61.9-13 10.9-17.5-30.6-8-27.9 6 4.2 28-18.8 34-34zm-157-59.9c-8 6-17 3-25 1-11 5 4 20 13.5 16 5-4 12-9 12-15.7-.5-.2-1.5-.2-.5-1.3zM337 473c-6-10-3-23 0-34 0-1 0-2-.6-2-9-9-23 11-19.8 20.7C318 463 338 475 337 472.8v.2z"/><path class="st98" d="M326 392c-2 29 24 45 7 44-7 2-14 1-15 11-1 11-24 0-24.5-1.3C285 433 317 404.5 326 392zm103-118c-9.9-4-16-16-18-25-4-6-9.9 1-11 6-7 54 29.5 28 29 19zm293 9c16 21 29.5 12 40 20.7 3 4 1 9.6-1 14-3 9-13 9-20 4.1-14.5-5.8-22-22.2-19-38.8z"/><path class="st40" d="M347 729c53.5 5 15 86 59 102 25 9 37-19.8 55-11.9 23 10.1 19.6 40 24 60.7 9.6 46 63 29.6 58-12.8"/><path class="st40" d="M519 861c89-9 47.5 119 114.5 115 39-6 35-47 25-76.5-3-9 0-18.5 7-24.5 24.5-21 59 15.5 84-2.5 15-11 8-33-2-45-12-15 0-32 10-43"/><path class="st40" d="M790 539c53 69.8-64 71 8 194.5 6 14 11 32 11 48.5 0 32-49 47.5-61 16"/><path class="st40" d="M721 287c2 51 64 31 74 88 6 34-11.5 71 7 103 10 18 27 31.5 34 51 8 19-4 47-27 42"/><path class="st40" d="M407 290.6c-16-8-12-29.9-2-41 17-15 40.5-10 61-6 29.8 1 49-29 75-38 50-17 81 55 133 44 23-5 48-11 69 1 25 14 33 55 10 75"/><path class="st40" d="M428 278c-16 26.5-51 17.5-76 28.5-20 10.5-28 33-23 55 10 47-43 51-39 88m25 4.5c1.5-23 35-26 41-5 7 25-13 47 16 72"/><path class="st40" d="M334 476c-20-34-61-31.5-89-9.6-20 8-43-3-64 4-22 7-28 37-5 43.5 6.5 2 23-2 26-1 15 4 11 25-5 30-21 6-10 29 6 29"/><path class="st40" d="M216 554.5c-15 15-14 41 2 55 37 22 41 31 36 69.7-2 31 46 41 53.5 10 2-10.8-4-22 0-33 13-32 44 20 62-44.5"/><path class="st40" d="M327 647.9c25 29.7-.5 47-7 75-10 32.5 34 65 53 25"/><path d="M729 262.5c9 4 16 13 18 22.5m-193-68c12.5 2 24.5 8 34 16m9 9 3 3m-163 10c-5.5-.9-12 .6-15.5 4M362 319.6c-9 2-14 10.7-16 19M339 449c4 1 6 6 6 9.8M308.5 470c-12-6-16-5-22-4M175 492c1-4 5-7 9-7.5m38 89.5c-4 8 0 16 4 19.9m44 78.6c-1 6 1 15 9 18m76-77.5c-3 14-13 14.5-16 16m4.5 119.5c-5-3-9-9-8-15M397 782c-1 14.5 7 28 14 30m90 53.9c-3 12 2 27 14.5 25M636 957c14-3 17-28 11-38m96-60.1c1-7 0-14-4-19m46-49.1c8-6.5 9-25 3-39M786 582c5-8 3-19-3-26m37-12c2-8.5-.6-18-7-24m-56-169c18 6 22 30 21 35" style="opacity:.7882;fill:none;stroke:#fff;stroke-width:10;stroke-linecap:round;stroke-linejoin:round;stroke-miterlimit:10;enable-background:new"/></g><defs><linearGradient id="zaf" x1="493.99" y1="811.54" x2="981.88" y2="811.54" gradientUnits="userSpaceOnUse"><stop offset="0" stop-color="#ff0400"/><stop offset="1" stop-color="#6a00ff"/></linearGradient><style>.zaf-2,.zaf-3{fill:none;stroke-linecap:round;stroke-linejoin:round;stroke:#000;stroke-width:10px}.zaf-3{opacity:.6}</style></defs><path d="M498.1 718.7c-21.9 37.1 48.6 112.8 86.9 120.9 41.9-26.9 61.7 36 94.5 37.5-9.4-9.1 1.3-30.1 8.9-17 22.7 39.6 50.1 23.4 65.3 37.4 10.1 9.3 12.5 26.7 27.3 31.2-3.5-12.3 10.8-14.9 15.7-4.3 14.4 30.9 19.4 3.6 46.2 32.9 57-39.3 108.6-92.5 139-155.5-5.4-7.5-54.3-4.3-24.6-24.4-28.7-31.9-84.3 14.4-79.4-49-38.2 19.6-60.7-10.2-95.1-9.8-11.9.2-59.6 33.8-38.6-11.8-31.7 5.4-48.5-15.7-74.4-27.2-15.5-7-47.4 16.2-68.1-13.8-35.7 10.4-78.6 23.2-103.6 52.9Z" style="fill:url(#zaf)"/><path d="M590.7 841.3a39.6 39.6 0 0 0 41.5 7c-9.4-10.4-32.8-25.2-41.5-7Zm12.8-173.5c11.7 18.3 38.7 18.3 55.8 8.4-12.3-14.8-38.8-15.8-55.8-8.4Z"/><path class="zaf-2" d="M588.4 838.3c39.9-27.5 56.3 43.5 94.6 40.7-21.3-17.9 2.3-33.6 13.7-8.7 10.4 22.7 24.4 17.6 45.1 19.9 23 2.5 17.7 41.4 41.3 37.7-4.9-5.6 1.7-14.5 8.6-11.5s5.5 14 10.5 19.1c11 11.1 29.6.9 37.5 22.4M604.1 668.8c18.9 29.5 49.4 1 73.4 14.3 21.1 11.6 44.5 31.8 69.8 19.1-1.1 7.7-10.6 12.1-10.2 19.8.8 13.7 18.7 9.5 26.8 4.2 39.5-26.3 65.7 29.9 114.3.6 1.9 13.7-8.6 27.7 8.1 36.2 23.7 12.2 54.1-12 72.3 16.2-7.8-2-17.8 6.4-10.3 13.3 9 8.3 25.7-.9 34.2 8.6M650.4 800c31.9-6.5 31.8 33.3 62.7 31-12.8-8.7 6-21.6 14-10.9 16 21.2 21.8 18 46.1 15.8-13.9-2.8-12.1-21.5-19.5-30.7s-25.8.8-25.8-12c0-9.6 11.6-10.4 18.6-7.7-6.6-16.5-26.1-8.2-39.3-7s-12.6-14.9.8-13.9c-13-15.1-36.9 4.5-50.5-9.3m159.3 23.2c16.3-2.4 17.4 21.3 32.1 21.3s28.3 2.4 35.3 17.8c-19.2-10.5-19.7 25.2 21.2 20.4-48.9 29.8-36.7-10.8-67.6-11.2m-35.3 22.4c18.3-.1 18.7 29.5 39 28.2-6 6.8-17.3 9.7-25 4.7-10.5-6.9-22.9-6.7-13.4 7.5-16.5-.8-17.8-23.2-33.7-26.1M593.3 706.4c14.5.6 22 17.8 39.1 23.1-17.9 5.4-17.8 10.7-27.2 9-7.4-1.4-13.4-14.7-17-4.6-2.2 6.4 4.8 11 8.2 14.9-34.3 3-16.9-30.2-46.5-30.3"/><path class="zaf-2" d="M661.4 676c-21.4-33-144.3 4.2-167.1 48.8-21.4 41.8 98.3 145.5 137.1 123.5M490.2 677.2c-37.9 16.7-47.7 53.9-28.3 89.4"/><path class="zaf-3" d="M488.9 676.4c-42.3 4.7-53.7 59-30.3 89.6"/><path class="zaf-3" d="M501.2 712c-65.4 35.4 85.1 166.2 134.8 144.1a63.8 63.8 0 0 0 22.8 21m-110-156.6c20.2 6.9 19.8 37.2 45.9 29.2m-4.3-15.5c4.8 1.1 8.1 5.8 12.7 7.6 10.7 3.4 19.9-6.1 28.9-10.6m17.2 70.7c25.6.4 35.7 36.5 63.2 30.9m.5-12.1c25.6 4.4 10.3 27.8 59.6 16.3m-42.4-43.1a40.2 40.2 0 0 1 15.9-6.8m-46.5-14.7a24.4 24.4 0 0 1 8.6-5.5m60.6 101.2c12.3 7.4 16.2 24.7 34 23.9m-.6-10.6c15.1 2.1 25.7 13.3 39.2-2.7m-3.7-48c15.6 0 19.4 39.5 68.7 8M873.4 820a27.7 27.7 0 0 1 9.9-1.1"/><path class="zaf-3" d="M604 672.7c-43.9 7.5-86.8 27.6-110.7 66.9"/><path d="M652.3 693.4a31.5 31.5 0 0 1 22.2 4.6m11.8 7.1 3.4 1.7m86.7 28.7c7.7-4.6 17.3-2.6 25.1.7m115.7 41.9a32 32 0 0 1 17.1.2m-30.8.6-2.5.2m60.1 29.4a12.3 12.3 0 0 1 7.1 0m-259.6 59.3a15.4 15.4 0 0 0 13.5 8.8m11.9.7 1.8.3m73.7 47.9c1.9 4.7 5.7 5 8.2 5.4m-168.5-84.6a73 73 0 0 0 14 12.6" style="stroke:#fff;opacity:.75;stroke-width:10px;fill:none;stroke-linecap:round;stroke-linejoin:round"/><path d="M601 724.4a14.6 14.6 0 0 0 6.2 4.2m143.1 99.1a14.6 14.6 0 0 1-9.5-5.5m-4.9-6.5-1.3-1.4m-35.8 2.8a26.3 26.3 0 0 1-6.7-6.6m-6.3-7.5-.7-1.1m131.8-13.2a13.8 13.8 0 0 1 7.1 4.3m4.9 7.2 1.6 2.2m25.6 7.7a18 18 0 0 1 8.9 1.1m-62.2 47.7a13.5 13.5 0 0 1 6.7 5.3m-16.6-9.2 1.7.8" style="stroke-width:7px;stroke:#fff;opacity:.75;fill:none;stroke-linecap:round;stroke-linejoin:round"/><style>.st40{fill:none;stroke-width:10;stroke-linecap:round;stroke-linejoin:round;stroke-miterlimit:10;stroke:#000}.st102{fill:#fff}</style><g id="big_eyes"><ellipse class="st102" cx="678" cy="489.9" rx="67.5" ry="110.5"/><ellipse class="st102" cx="508" cy="513" rx="73.5" ry="122.5"/><radialGradient id="SVGID_00000065789191343214124940000013387809796566389911_" cx="508.413" cy="417.605" r="62.802" gradientTransform="matrix(1 0 0 -2.5954 0 1663.197)" gradientUnits="userSpaceOnUse"><stop offset="0" style="stop-color:#12e6bf"/><stop offset="1" style="stop-color:#1239e6"/></radialGradient><path style="fill:url(#SVGID_00000065789191343214124940000013387809796566389911_)" d="M439 540.2C463 707 597 621.5 575.5 524L439 540v.2z"/><radialGradient id="SVGID_00000061441783641086741920000007150631355785008026_" cx="678.644" cy="440.767" r="57.921" gradientTransform="matrix(1 0 0 -2.6573 0 1721.31)" gradientUnits="userSpaceOnUse"><stop offset="0" style="stop-color:#12e6bf"/><stop offset="1" style="stop-color:#1239e6"/></radialGradient><path style="fill:url(#SVGID_00000061441783641086741920000007150631355785008026_)" d="M614 514.3c17 129.5 125.5 104 129-14.8L614 514v.3z"/><path d="M653 389.6c-34 27-49 78-39 119 38.5 36 131 0 130.8-17.5 0-17-2-35-6-51.4-5-7-12 29-53 22-34.8.3-36.8-50.2-32.8-72.1zm-164 7.9c-42 18-70 107-46 143.9 42.5 15.5 97 13 135.5-12 8-22-.6-47-5-68.8C518 526 475 459 489 397.5z"/><ellipse class="st40" cx="508" cy="513" rx="73.5" ry="122.5"/><ellipse class="st40" cx="678" cy="489.9" rx="67.5" ry="110.5"/><path class="st40" d="M494.5 393c-29 57 29.9 133 79 68m86.5-77c-29 57 37 113.5 77 53M437 540c46 18 100 14 143-10.8m35-14.2c58 16 89 1 128-16"/><path d="M483 393.9c-81 42.5-70.5 285.5 49 238M651 385c-99 69-17 278 51 209.6" style="opacity:.6;enable-background:new;stroke:#000;fill:none;stroke-width:10;stroke-linecap:round;stroke-linejoin:round;stroke-miterlimit:10"/><path d="M725 526c-2 12-6 24-13 35m-7 11c-1.5 2-3 3.5-5 5m-142-15.5c-4 15-11 29.5-20.5 42M527 613c-1 1.5-3 3-5 4" style="fill:none;stroke:#fff;stroke-width:10;stroke-linecap:round;stroke-linejoin:round;stroke-miterlimit:10"/></g><defs><linearGradient id="zbm" x1="557" y1="390.36" x2="524.49" y2="55.58" gradientUnits="userSpaceOnUse"><stop offset="0" stop-color="#ff003b"/><stop offset="1" stop-color="#ffc400"/></linearGradient><linearGradient id="zbm-2" x1="549.79" y1="299" x2="555.18" y2="378.33" gradientUnits="userSpaceOnUse"><stop offset="0" stop-color="#ffc800"/><stop offset="1" stop-color="#ff00ae"/></linearGradient><style>.zbm-3{fill:none;stroke:#000;stroke-linecap:round;stroke-linejoin:round;stroke-width:10px}</style></defs><path d="M316.7 353c-63-155.5-37.1-219.2 128.3-254.6 191.6-41.2 362.9-25.6 358.4 214.7-161.7-13.6-328.6.5-486.7 39.9Z" style="fill:url(#zbm)"/><path d="M317.3 403.1c-9.2 12.5-26.4 20.8-27.1 38.3-246.4-126.3 825.4-205.6 507.3-39.3 0-14.4 1.3-30.2-10-44.1a1069.4 1069.4 0 0 0-470.2 45.1Z" style="fill:url(#zbm-2)"/><path class="zbm-3" d="M816.2 359.4c-178.6-21.7-358.6-11-528.1 54.1"/><path class="zbm-3" d="M790.7 358.2c8.1 13.7 6.8 29.5 6.8 43.9 318.1-166.3-753.7-87-507.3 39.3.7-17.5 17.9-25.8 27.1-38.3"/><path class="zbm-3" d="M316.7 353c-63-155.5-37.1-219.2 128.3-254.6 191.6-41.2 359.9-25.1 359.9 215.2"/><path d="M787.5 205.3c-133.3-32.4-409.5 9.4-497.4 58.6 2 11.1 4.4 22.2 8.4 37.5 156.4-56.5 331.7-87.3 497.4-59.6Z" style="stroke-linecap:round;stroke-linejoin:round;stroke-width:10px;stroke:#000"/><path d="M791.5 364.6a1178 1178 0 0 0-478.6 45m503.3-50.2c-6.5.9-15.1 4.9-18.7 10.8M287.2 415a23 23 0 0 1 13.2 1.6m497.1-169c-163.6-22.8-340.7-7.1-492.8 61.7" style="opacity:.6;stroke-linecap:round;stroke-linejoin:round;stroke-width:10px;stroke:#000;fill:none"/><path d="M834.6 338.8a192.7 192.7 0 0 0-46-11.5m-14.4-2-6.8-.9m-433.7 43.3c-15.2 3.6-29.1 7.5-41 15.7m-17.1 8 3.3-1.8M684.1 118a78.6 78.6 0 0 1 40.3 26.8m10.5 13.6 3.7 5.1m46.3 101.1a86.7 86.7 0 0 1 1.5 26.9M313.6 181.7a76.4 76.4 0 0 1 35.5-34.4m-43.3 48.9-1.8 5.5" style="stroke:#fff;opacity:.78;fill:none;stroke-linecap:round;stroke-linejoin:round;stroke-width:10px"/><circle cx="550" cy="550" r="500" style="fill:none;stroke:#000;stroke-width:10;stroke-linecap:round;stroke-linejoin:round;stroke-miterlimit:10"/></svg>