<svg version="1.1" id="Layer_1" xmlns="http://www.w3.org/2000/svg" x="0" y="0" viewBox="0 0 1100 1100" style="enable-background:new 0 0 1100 1100" xml:space="preserve" xmlns:xlink="http://www.w3.org/1999/xlink"><style type="text/css">.st301{fill:#005BEF;stroke:#000000;stroke-width:10;stroke-linecap:round;stroke-linejoin:round;stroke-miterlimit:10;}</style><circle class="st301" cx="550" cy="553.7" r="500"/><style>.st231{fill:none;stroke:#000;stroke-width:10;stroke-linecap:round;stroke-linejoin:round;stroke-miterlimit:10}</style><g id="Layer_60"><path d="M532 209c-68 59.6-70.9 20-120.8 36.5-19.6 10.9-14 30-9.7 39.6 11 23-50.8 9-69 40.3-10 18 0 42-7.5 61.8-9 19.6-34 35-37 52-43 48-154 7-119 70.4 6 11 33-6 39 9.1 7 17.5-39 29-21 46.7 18 5 20.7 39.9 57 63 14 20 3 51 19 69.1 36 38 46-25 41-34.3 4-39 44-10.6 22 38.7-23 52 11 74 36.5 56.6 24-9 13 39 23 50.9 19.5 37 55 12 67 12 18 .7 28 22 29.8 40.3 6.5 63 54 46 59 8 15.5-34 45 49 47 59.9 11 73 69 42 70.8 17.9 3-54-3-60 2-68.3 18.5-31 71 13 90.8-15.5 14-19.7-31-63.5 8-55.4 94 19 19-100.7 14-120.4-9-35.5 14-106 47-121.7 18-9 17-35.5 7-52.8-9.5-17-25-30.6-31-48.9-13.5-54 22-102-36-133.3-5-3-7-9.5-4-14.4 17-26 1-66-32-71.4-22-3-44 9-66.5 6.3C615 247 578.5 178 532 209z" style="fill:#454d57"/><path d="M359.5 492.8c150 8 284 83 426 128.7 9.7-15 19-31 21-49 75-7-4-87-10-110.6-7-29.5 9.7-87-8-105l-169 46.4S484 242.5 484.5 242.6c-21.5-4-124-9.5-74 51.8-16.5 6-35 4-52 10-64 30.5 3 66-49 109.5-10 9-19 20.7-18 34.7 7 2 16 2 21 8 25.5-57.6 52 2.4 47 36.2zM323 643.5c32 36 1 47-5 81.7.7 33 34.5 65 55 23 9 23 3 51.5 19 71.6 33 35 45-23 82 5.4l12-116.8s-117-87-118-85.4c-8.4 20-23 26.9-45 20.5z" style="fill:#a1a1a1"/><path d="m364 671.3 78.5 8.3M378 711c34.5 2 69 2 104-2m-102.2 52c32.5-5 65-7 98-7.1M388 801.1c27.5-3 55-4.5 83-4.9" style="fill:none;stroke:#fff;stroke-width:10;stroke-linecap:round;stroke-linejoin:round;stroke-miterlimit:10"/><path d="M490.8 240c44 51 88 103 130 155.5l163-43M400 613.8c25 14 49 29.5 72 47.1m-100-42.1 120.5 85.8-13 133M362 499.1c145 15 281 76 416 128.8M626 404c-11 47-27 95-39 141.5" style="stroke:#788697;fill:none;stroke-width:10;stroke-linecap:round;stroke-linejoin:round;stroke-miterlimit:10"/><path class="st231" d="m368 622.1 117 86.1L473 825m-74-206.2c24 15 46.5 30.6 68.5 47.6m-110-171.6c148 9 286.5 80.5 426 127.4"/><path class="st231" d="M432 669.9c-30.9.8-62 .8-93 0m139 33.9-151 8.6m151 35.9-100 7m97 32.7c-29.9 2-59.8 5-89.7 8M788 357.5l-172 46.8-132-162.2m133 163.2c-13 47-26 94-39 140.4"/></g><style>.st40{fill:none;stroke:#000;stroke-width:10;stroke-linecap:round;stroke-linejoin:round;stroke-miterlimit:10}.st98{opacity:.6;enable-background:new}</style><g id="Outline"><path class="st98" d="M793 537c-1 .7-1 2-.5 3 5 10 11 35 25 30 8-2 21-13 18-22.4-.5-1-2-2-3-1.5-26 12-28-11-39-9.4v.3zm-34 274.5c6 5 26 8 25-3-6-7-20.6-12-21.5-26C750 772 744 803 759 811.5zm-219.3 52s1 .5 1 .8c9 13.5-3 36-18 40-34 6-9-6-6-44 .3-5.3 22.3 2.7 23 3.2zM342 731c5 7-4 22-4 33 8 13 29.6-5 33-14.9 2-12-17-21-28-20.2-1 .1-1 1.1-1 2.1zm31-120.2c2 23-8 47-26 61.9-13 10.9-17.5-30.6-8-27.9 6 4.2 28-18.8 34-34zm-157-59.9c-8 6-17 3-25 1-11 5 4 20 13.5 16 5-4 12-9 12-15.7-.5-.2-1.5-.2-.5-1.3zM337 473c-6-10-3-23 0-34 0-1 0-2-.6-2-9-9-23 11-19.8 20.7C318 463 338 475 337 472.8v.2z"/><path class="st98" d="M326 392c-2 29 24 45 7 44-7 2-14 1-15 11-1 11-24 0-24.5-1.3C285 433 317 404.5 326 392zm103-118c-9.9-4-16-16-18-25-4-6-9.9 1-11 6-7 54 29.5 28 29 19zm293 9c16 21 29.5 12 40 20.7 3 4 1 9.6-1 14-3 9-13 9-20 4.1-14.5-5.8-22-22.2-19-38.8z"/><path class="st40" d="M347 729c53.5 5 15 86 59 102 25 9 37-19.8 55-11.9 23 10.1 19.6 40 24 60.7 9.6 46 63 29.6 58-12.8"/><path class="st40" d="M519 861c89-9 47.5 119 114.5 115 39-6 35-47 25-76.5-3-9 0-18.5 7-24.5 24.5-21 59 15.5 84-2.5 15-11 8-33-2-45-12-15 0-32 10-43"/><path class="st40" d="M790 539c53 69.8-64 71 8 194.5 6 14 11 32 11 48.5 0 32-49 47.5-61 16"/><path class="st40" d="M721 287c2 51 64 31 74 88 6 34-11.5 71 7 103 10 18 27 31.5 34 51 8 19-4 47-27 42"/><path class="st40" d="M407 290.6c-16-8-12-29.9-2-41 17-15 40.5-10 61-6 29.8 1 49-29 75-38 50-17 81 55 133 44 23-5 48-11 69 1 25 14 33 55 10 75"/><path class="st40" d="M428 278c-16 26.5-51 17.5-76 28.5-20 10.5-28 33-23 55 10 47-43 51-39 88m25 4.5c1.5-23 35-26 41-5 7 25-13 47 16 72"/><path class="st40" d="M334 476c-20-34-61-31.5-89-9.6-20 8-43-3-64 4-22 7-28 37-5 43.5 6.5 2 23-2 26-1 15 4 11 25-5 30-21 6-10 29 6 29"/><path class="st40" d="M216 554.5c-15 15-14 41 2 55 37 22 41 31 36 69.7-2 31 46 41 53.5 10 2-10.8-4-22 0-33 13-32 44 20 62-44.5"/><path class="st40" d="M327 647.9c25 29.7-.5 47-7 75-10 32.5 34 65 53 25"/><path d="M729 262.5c9 4 16 13 18 22.5m-193-68c12.5 2 24.5 8 34 16m9 9 3 3m-163 10c-5.5-.9-12 .6-15.5 4M362 319.6c-9 2-14 10.7-16 19M339 449c4 1 6 6 6 9.8M308.5 470c-12-6-16-5-22-4M175 492c1-4 5-7 9-7.5m38 89.5c-4 8 0 16 4 19.9m44 78.6c-1 6 1 15 9 18m76-77.5c-3 14-13 14.5-16 16m4.5 119.5c-5-3-9-9-8-15M397 782c-1 14.5 7 28 14 30m90 53.9c-3 12 2 27 14.5 25M636 957c14-3 17-28 11-38m96-60.1c1-7 0-14-4-19m46-49.1c8-6.5 9-25 3-39M786 582c5-8 3-19-3-26m37-12c2-8.5-.6-18-7-24m-56-169c18 6 22 30 21 35" style="opacity:.7882;fill:none;stroke:#fff;stroke-width:10;stroke-linecap:round;stroke-linejoin:round;stroke-miterlimit:10;enable-background:new"/></g><radialGradient id="a11" cx="288.494" cy="554.914" r="39.332" gradientTransform="matrix(1 0 0 1.0187 0 -10.236)" gradientUnits="userSpaceOnUse"><stop offset="0" style="stop-color:#f01"/><stop offset="1" style="stop-color:#fe0"/></radialGradient><path style="fill:url(#a11);stroke:#000;stroke-width:10;stroke-linecap:round;stroke-linejoin:round;stroke-miterlimit:10" d="M273 536.9c-28-45 82-54 9 29.2-42 48 48 58 20 7.9-3-6-8-11-13-16.2-4-4.8-8.9-9.8-16-20.9z"/><path d="M269.9 512.1c-17 19.7 16 41 9 48.3-25.5 26-7 53 10 47" style="opacity:.6;fill:none;stroke:#000;stroke-width:10;stroke-linecap:round;stroke-linejoin:round;stroke-miterlimit:10"/><path d="M294.5 517.1c1 2 1 5 0 8M292 577c2 4 5 8 5 12" style="opacity:.8902;fill:none;stroke:#fff;stroke-width:8;stroke-linecap:round;stroke-linejoin:round;stroke-miterlimit:10"/><defs><linearGradient id="zaf" x1="493.99" y1="811.54" x2="981.88" y2="811.54" gradientUnits="userSpaceOnUse"><stop offset="0" stop-color="#ff0400"/><stop offset="1" stop-color="#6a00ff"/></linearGradient><style>.zaf-2,.zaf-3{fill:none;stroke-linecap:round;stroke-linejoin:round;stroke:#000;stroke-width:10px}.zaf-3{opacity:.6}</style></defs><path d="M498.1 718.7c-21.9 37.1 48.6 112.8 86.9 120.9 41.9-26.9 61.7 36 94.5 37.5-9.4-9.1 1.3-30.1 8.9-17 22.7 39.6 50.1 23.4 65.3 37.4 10.1 9.3 12.5 26.7 27.3 31.2-3.5-12.3 10.8-14.9 15.7-4.3 14.4 30.9 19.4 3.6 46.2 32.9 57-39.3 108.6-92.5 139-155.5-5.4-7.5-54.3-4.3-24.6-24.4-28.7-31.9-84.3 14.4-79.4-49-38.2 19.6-60.7-10.2-95.1-9.8-11.9.2-59.6 33.8-38.6-11.8-31.7 5.4-48.5-15.7-74.4-27.2-15.5-7-47.4 16.2-68.1-13.8-35.7 10.4-78.6 23.2-103.6 52.9Z" style="fill:url(#zaf)"/><path d="M590.7 841.3a39.6 39.6 0 0 0 41.5 7c-9.4-10.4-32.8-25.2-41.5-7Zm12.8-173.5c11.7 18.3 38.7 18.3 55.8 8.4-12.3-14.8-38.8-15.8-55.8-8.4Z"/><path class="zaf-2" d="M588.4 838.3c39.9-27.5 56.3 43.5 94.6 40.7-21.3-17.9 2.3-33.6 13.7-8.7 10.4 22.7 24.4 17.6 45.1 19.9 23 2.5 17.7 41.4 41.3 37.7-4.9-5.6 1.7-14.5 8.6-11.5s5.5 14 10.5 19.1c11 11.1 29.6.9 37.5 22.4M604.1 668.8c18.9 29.5 49.4 1 73.4 14.3 21.1 11.6 44.5 31.8 69.8 19.1-1.1 7.7-10.6 12.1-10.2 19.8.8 13.7 18.7 9.5 26.8 4.2 39.5-26.3 65.7 29.9 114.3.6 1.9 13.7-8.6 27.7 8.1 36.2 23.7 12.2 54.1-12 72.3 16.2-7.8-2-17.8 6.4-10.3 13.3 9 8.3 25.7-.9 34.2 8.6M650.4 800c31.9-6.5 31.8 33.3 62.7 31-12.8-8.7 6-21.6 14-10.9 16 21.2 21.8 18 46.1 15.8-13.9-2.8-12.1-21.5-19.5-30.7s-25.8.8-25.8-12c0-9.6 11.6-10.4 18.6-7.7-6.6-16.5-26.1-8.2-39.3-7s-12.6-14.9.8-13.9c-13-15.1-36.9 4.5-50.5-9.3m159.3 23.2c16.3-2.4 17.4 21.3 32.1 21.3s28.3 2.4 35.3 17.8c-19.2-10.5-19.7 25.2 21.2 20.4-48.9 29.8-36.7-10.8-67.6-11.2m-35.3 22.4c18.3-.1 18.7 29.5 39 28.2-6 6.8-17.3 9.7-25 4.7-10.5-6.9-22.9-6.7-13.4 7.5-16.5-.8-17.8-23.2-33.7-26.1M593.3 706.4c14.5.6 22 17.8 39.1 23.1-17.9 5.4-17.8 10.7-27.2 9-7.4-1.4-13.4-14.7-17-4.6-2.2 6.4 4.8 11 8.2 14.9-34.3 3-16.9-30.2-46.5-30.3"/><path class="zaf-2" d="M661.4 676c-21.4-33-144.3 4.2-167.1 48.8-21.4 41.8 98.3 145.5 137.1 123.5M490.2 677.2c-37.9 16.7-47.7 53.9-28.3 89.4"/><path class="zaf-3" d="M488.9 676.4c-42.3 4.7-53.7 59-30.3 89.6"/><path class="zaf-3" d="M501.2 712c-65.4 35.4 85.1 166.2 134.8 144.1a63.8 63.8 0 0 0 22.8 21m-110-156.6c20.2 6.9 19.8 37.2 45.9 29.2m-4.3-15.5c4.8 1.1 8.1 5.8 12.7 7.6 10.7 3.4 19.9-6.1 28.9-10.6m17.2 70.7c25.6.4 35.7 36.5 63.2 30.9m.5-12.1c25.6 4.4 10.3 27.8 59.6 16.3m-42.4-43.1a40.2 40.2 0 0 1 15.9-6.8m-46.5-14.7a24.4 24.4 0 0 1 8.6-5.5m60.6 101.2c12.3 7.4 16.2 24.7 34 23.9m-.6-10.6c15.1 2.1 25.7 13.3 39.2-2.7m-3.7-48c15.6 0 19.4 39.5 68.7 8M873.4 820a27.7 27.7 0 0 1 9.9-1.1"/><path class="zaf-3" d="M604 672.7c-43.9 7.5-86.8 27.6-110.7 66.9"/><path d="M652.3 693.4a31.5 31.5 0 0 1 22.2 4.6m11.8 7.1 3.4 1.7m86.7 28.7c7.7-4.6 17.3-2.6 25.1.7m115.7 41.9a32 32 0 0 1 17.1.2m-30.8.6-2.5.2m60.1 29.4a12.3 12.3 0 0 1 7.1 0m-259.6 59.3a15.4 15.4 0 0 0 13.5 8.8m11.9.7 1.8.3m73.7 47.9c1.9 4.7 5.7 5 8.2 5.4m-168.5-84.6a73 73 0 0 0 14 12.6" style="stroke:#fff;opacity:.75;stroke-width:10px;fill:none;stroke-linecap:round;stroke-linejoin:round"/><path d="M601 724.4a14.6 14.6 0 0 0 6.2 4.2m143.1 99.1a14.6 14.6 0 0 1-9.5-5.5m-4.9-6.5-1.3-1.4m-35.8 2.8a26.3 26.3 0 0 1-6.7-6.6m-6.3-7.5-.7-1.1m131.8-13.2a13.8 13.8 0 0 1 7.1 4.3m4.9 7.2 1.6 2.2m25.6 7.7a18 18 0 0 1 8.9 1.1m-62.2 47.7a13.5 13.5 0 0 1 6.7 5.3m-16.6-9.2 1.7.8" style="stroke-width:7px;stroke:#fff;opacity:.75;fill:none;stroke-linecap:round;stroke-linejoin:round"/><style>.st68{stroke:#000;stroke-width:10;stroke-linecap:round;stroke-linejoin:round;stroke-miterlimit:10;opacity:.6;fill:none;enable-background:new}</style><g id="alien_00000145779733946831664370000009074345826783358107_"><linearGradient id="SVGID_00000134929046068304295460000003865380033506734480_" gradientUnits="userSpaceOnUse" x1="387.917" y1="548.513" x2="528.981" y2="548.513" gradientTransform="matrix(.9977 .06804 .06804 -.9977 -1.427 1023.765)"><stop offset="0" style="stop-color:#0f6"/><stop offset="1" style="stop-color:#09f"/></linearGradient><path style="fill:url(#SVGID_00000134929046068304295460000003865380033506734480_);stroke:#000;stroke-width:10;stroke-linecap:round;stroke-linejoin:round;stroke-miterlimit:10" d="M465 398c-61 37-45 158-3 205.5 49.6 48 94 18 99-50.8 4-54.2-22-199.7-96-154.7z"/><linearGradient id="SVGID_00000155142322038179041680000014658100529363488651_" gradientUnits="userSpaceOnUse" x1="592.641" y1="573.859" x2="716.733" y2="573.859" gradientTransform="matrix(.9977 .06804 .06804 -.9977 -1.427 1023.765)"><stop offset="0" style="stop-color:#0f6"/><stop offset="1" style="stop-color:#09f"/></linearGradient><path style="fill:url(#SVGID_00000155142322038179041680000014658100529363488651_);stroke:#000;stroke-width:10;stroke-linecap:round;stroke-linejoin:round;stroke-miterlimit:10" d="M648 437c-66 161 42 235 93 96 10-37 21-78 10-115-15-50-78-41-103 19z"/><path d="M484 434c8 36 15.5 72 22 108m209-121.1c-9 35-19 69-29.7 104" style="stroke:#000;stroke-width:10;stroke-linecap:round;stroke-linejoin:round;stroke-miterlimit:10;fill:none"/><path d="M677 547c-9.6-1-14 15-7 20 14 13 24-18 7-20zm-169 14.9c-15 2-12 28 3.5 23 13.5-3.4 11.5-25.1-3.5-23z" style="fill:#fff;stroke:#000;stroke-width:10;stroke-linecap:round;stroke-linejoin:round;stroke-miterlimit:10"/><path class="st68" d="M453.5 399c-81 54-6 303 87 216M693 384c-77 2.5-105 255-8 222.5"/><path class="st68" d="M478 433c8 36.5 16 73 22 110m-4 21c-9 12 5 34 18 25m196-171c-11.5 35-21.5 70-30 106m-13 21c-15 10-5 39.6 14 29.5"/><path d="M494 408c17 8 27 26 32 44m6 20 1 7m197-69.5c9 14 11 33 9.5 49M735 478c0 3-1 5.5-1 8" style="fill:none;stroke:#fff;stroke-width:10;stroke-linecap:round;stroke-linejoin:round;stroke-miterlimit:10"/></g><defs><linearGradient id="zbj" x1="516.88" y1="143.24" x2="596.42" y2="317.05" gradientUnits="userSpaceOnUse"><stop offset="0" stop-color="#0ff"/><stop offset=".08" stop-color="#1ab9ff"/><stop offset=".26" stop-color="#5a0cff"/><stop offset=".27" stop-color="#5d05ff"/><stop offset=".59" stop-color="#ff0fe7"/><stop offset=".86" stop-color="#ff6912"/><stop offset="1" stop-color="#ff1500"/></linearGradient><style>.zbj-3{fill:none;stroke-linecap:round;stroke-linejoin:round;stroke-dasharray:0 0 0 0 0 0;stroke:#000;stroke-width:10px}</style></defs><path d="M525.9 322.4c-10.7 12.5-13 27.9-2.2 41.6-2.7 13.8 5.9 30.6 22.2 28.1 8.2 15.2 31 20 42.3 5.4 13 5.9 28.9 4.8 42.1-2.6 19.8 12.2 41.2-2 36.4-25.6 11-10.9 9.7-28.6-1.8-39.3 5.2-12.8-4.1-26.2-18-27.8-5.1-14.8-24.8-21.9-37.8-11.9-13.2-7.3-29.2-4.3-40.1 6.5-11.7-9.1-46.4-8.5-43.1 25.6Z" style="fill:#dedede"/><path d="M532.9 207.8a226.2 226.2 0 0 1-45.1 28.4c11.7-107.3 133.3-157 134.8 46.4-6.1.7-9.8 2.6-14.6 7.5-12.5-5-27.5-3.1-39 4.7-5.1-2.8-10.6-5.5-16.4-6a145.7 145.7 0 0 0-19.7-81Z" style="fill:url(#zbj)"/><path class="zbj-3" d="M535.3 330.9c-32.4-25.2 23.9-62.9 38-23.3"/><path class="zbj-3" d="M525.9 322.5c-12.1 8.6-13.5 27.6-2.8 37.9m10.6-5.9c-19.8 9.9-8.9 46.3 13.5 37.7"/><path class="zbj-3" d="M547.2 382.2c-3.2 31.6 48.8 34.6 42.3 2.9"/><path class="zbj-3" d="M589.9 398.4c15.1 8.8 38.8 5.5 47.3-10.9"/><path class="zbj-3" d="M633.3 395c21.7 19.4 49.3-12.7 26.4-31.1m6.8 4.3c11.2-9.2 13-29.4-.4-37.5m-12.7 6.9c17.4-8 16-34.5-4.2-36.7m-34.2-2.4c-9.5-14.5-31.8-16.9-44.2-4.7m74.1 18.1c6.3-19.4-20.2-37.3-35.1-22.9m-86.5-97.6c23 25.7 28.1 63.6 30.9 96.9"/><path class="zbj-3" d="M623.5 281.9C610.6 51.5 492.7 154.5 487.3 237c17.4-4.1 29-19.3 44-27.9"/><path d="M621.6 285.7c-4.4 2.2-6 7.4-6.8 11.9m45.1 9.6c-5.2-1.6-10.4 1.2-14.5 4.3m28.2 31.5c-3.8-5.5-11.1-7.4-17.5-6.5m-18.3 51.7c2.5 6.6 6.5 10.4 13 11.9m-44.7.3a39.8 39.8 0 0 1-14.6-14.2m-45.9-5.5a26.2 26.2 0 0 1-11.4 8.9m40-82.1a24.5 24.5 0 0 1 8.3-20m-48.4 65.7a19.2 19.2 0 0 1-15.9-5.4" style="opacity:.37;stroke-width:10px;stroke:#000;fill:none;stroke-linecap:round;stroke-linejoin:round;stroke-dasharray:0 0 0 0 0 0"/><path d="M521.2 191.4c5.8 9.3-.1 21.2-6 29.2m14.6-7c12.6 21.4 15.6 46.5 18 71.8M523 318.3c-13.9 11.6-16.2 32.2-4.1 46.2-3.4 16.5 6.8 35.9 25.8 34.4 9.9 14.1 30.1 16.4 44 6.5a50 50 0 0 0 43-3.9 22.6 22.6 0 0 0 26.7-3.1m-37.8-122.2c-5.7.7-11.3 3.2-16.6 6.8-12.2-5.4-24.7-1.5-35.9 5.2a16 16 0 0 0-11.1-2.1" style="opacity:.6;stroke-width:10px;stroke:#000;fill:none;stroke-linecap:round;stroke-linejoin:round;stroke-dasharray:0 0 0 0 0 0"/><path d="M549.6 301.3a11 11 0 0 1 9.5 5.3m36.1-9a15.5 15.5 0 0 1 8 5.3m27.1-5.2a9.1 9.1 0 0 1 3.4 7.3m21.4 15a9.4 9.4 0 0 1-3.7 6.3m3.4 47.4a10.4 10.4 0 0 1 1 9.1m-28.8.9a17.8 17.8 0 0 1-8 5.5m-61.2-3.6a10.8 10.8 0 0 0 6.2 7.7m-29.5-18.8c-.7-3.3.8-6.8 3.1-9.3" style="stroke-width:7px;stroke:#fff;opacity:.81;fill:none;stroke-linecap:round;stroke-linejoin:round;stroke-dasharray:0 0 0 0 0 0"/><path d="M567.8 155.1c10.6 5 17.9 16.1 22.1 27.1m5.3 13.2c.3 1.2 1.7 6.3 1.9 7.5" style="stroke:#fff;opacity:.81;stroke-width:10px;fill:none;stroke-linecap:round;stroke-linejoin:round;stroke-dasharray:0 0 0 0 0 0"/><circle cx="550" cy="550" r="500" style="fill:none;stroke:#000;stroke-width:10;stroke-linecap:round;stroke-linejoin:round;stroke-miterlimit:10"/></svg>