<svg version="1.1" id="Layer_1" xmlns="http://www.w3.org/2000/svg" x="0" y="0" viewBox="0 0 1100 1100" style="enable-background:new 0 0 1100 1100" xml:space="preserve" xmlns:xlink="http://www.w3.org/1999/xlink"><style type="text/css">.st302{fill:#6A10EB;stroke:#000000;stroke-width:10;stroke-linecap:round;stroke-linejoin:round;stroke-miterlimit:10;}</style><circle class="st302" cx="550" cy="553.7" r="500"/><linearGradient id="a3" gradientUnits="userSpaceOnUse" x1="432.676" y1="-700.409" x2="789.687" y2="-76.39" gradientTransform="translate(0 1066)"><stop offset="0" style="stop-color:#5900ff"/><stop offset="1" style="stop-color:#f06"/></linearGradient><path style="fill:url(#a3)" d="M302.5 412.2c13 30 55 19 61-10.5 3-13-.8-27-2-40.7-3-33 15-45 47-40.6 56 8 63-33 100.6-58.7 58-39.6 78 46 81 54 9 24.5 35 23 44-.7 26-71 94-32.5 93.5 28 1 13 1 25.5 5 37.6 8 32 68 39.5 59 5-1.5-6-17-12-17-12 27 9 43 42 33 68-8 21-39.9 44-13 70.7 26 26 40 54 25 83-54 105 46 96.5-36.5 188-7 8-12 22-13 29-3 17 20.1 28 23 17.9 5-18 16-26 16-26-17 19-13 22-22 45-12.5 32-49 12-55 57-8 33-26 40.9-57 34.9-21-.5-40 13-60 19-55 17-84-17-124-47-49-29-108 16-133-68 0 0 5 18 9.5 20.3 21 11 36-34 20.5-51.5-13-15-39-16-48-34-6-11-3-25-2-37.9 3-37-23-56-40.7-84.1-24-47.5 18-100 9-149-19-49-16-105 29-138.6L302.5 412v.2z"/><path d="M533 209.1c-68 59.6-71 20-121 36.5-19.6 10.9-14 30-9.7 39.6 11 23-51 9-69 40.3-10 18 .1 42-7.5 61.8-9 19.6-34 35-37 52.2-43 48-154 7-119 70.4 6 11 33-6 39 9.1 7 17.5-39 29-21 46.7 18 5 21 39.9 57 63.2 14 20 3 51 19 69.1 35.8 38 46-25 41-34.3 4-39 44-11 22 38.7-23 52 11 74 36.5 56.6 24-9 13 39 23 50.9 19.5 37 55 12 67 12 18 1 28 22 29.8 40.3 6.5 63 54 46 59 8 15.5-34 45 49 47 59.9 11 73 69 42 71 17.9 3-54-3-60.1 2-68.3 18.5-31 71 13 90.8-15.5 14-19.7-31-63.5 8-55.4 94 19 19-101 14-120.4-9-35.5 14-106 47-121.7 18-9 17-35.5 7-52.8-9.5-17-25-30.6-31-48.9-13.5-54 22-102-36-133.3-5-3-7-9.5-4-14.4 17-26 1-66-32-71.4-22-3-44 9-66.5 6.3C616 247 579.9 178 533 209.1z" style="fill:#e80068"/><style>.st40{fill:none;stroke:#000;stroke-width:10;stroke-linecap:round;stroke-linejoin:round;stroke-miterlimit:10}.st98{opacity:.6;enable-background:new}</style><g id="Outline"><path class="st98" d="M793 537c-1 .7-1 2-.5 3 5 10 11 35 25 30 8-2 21-13 18-22.4-.5-1-2-2-3-1.5-26 12-28-11-39-9.4v.3zm-34 274.5c6 5 26 8 25-3-6-7-20.6-12-21.5-26C750 772 744 803 759 811.5zm-219.3 52s1 .5 1 .8c9 13.5-3 36-18 40-34 6-9-6-6-44 .3-5.3 22.3 2.7 23 3.2zM342 731c5 7-4 22-4 33 8 13 29.6-5 33-14.9 2-12-17-21-28-20.2-1 .1-1 1.1-1 2.1zm31-120.2c2 23-8 47-26 61.9-13 10.9-17.5-30.6-8-27.9 6 4.2 28-18.8 34-34zm-157-59.9c-8 6-17 3-25 1-11 5 4 20 13.5 16 5-4 12-9 12-15.7-.5-.2-1.5-.2-.5-1.3zM337 473c-6-10-3-23 0-34 0-1 0-2-.6-2-9-9-23 11-19.8 20.7C318 463 338 475 337 472.8v.2z"/><path class="st98" d="M326 392c-2 29 24 45 7 44-7 2-14 1-15 11-1 11-24 0-24.5-1.3C285 433 317 404.5 326 392zm103-118c-9.9-4-16-16-18-25-4-6-9.9 1-11 6-7 54 29.5 28 29 19zm293 9c16 21 29.5 12 40 20.7 3 4 1 9.6-1 14-3 9-13 9-20 4.1-14.5-5.8-22-22.2-19-38.8z"/><path class="st40" d="M347 729c53.5 5 15 86 59 102 25 9 37-19.8 55-11.9 23 10.1 19.6 40 24 60.7 9.6 46 63 29.6 58-12.8"/><path class="st40" d="M519 861c89-9 47.5 119 114.5 115 39-6 35-47 25-76.5-3-9 0-18.5 7-24.5 24.5-21 59 15.5 84-2.5 15-11 8-33-2-45-12-15 0-32 10-43"/><path class="st40" d="M790 539c53 69.8-64 71 8 194.5 6 14 11 32 11 48.5 0 32-49 47.5-61 16"/><path class="st40" d="M721 287c2 51 64 31 74 88 6 34-11.5 71 7 103 10 18 27 31.5 34 51 8 19-4 47-27 42"/><path class="st40" d="M407 290.6c-16-8-12-29.9-2-41 17-15 40.5-10 61-6 29.8 1 49-29 75-38 50-17 81 55 133 44 23-5 48-11 69 1 25 14 33 55 10 75"/><path class="st40" d="M428 278c-16 26.5-51 17.5-76 28.5-20 10.5-28 33-23 55 10 47-43 51-39 88m25 4.5c1.5-23 35-26 41-5 7 25-13 47 16 72"/><path class="st40" d="M334 476c-20-34-61-31.5-89-9.6-20 8-43-3-64 4-22 7-28 37-5 43.5 6.5 2 23-2 26-1 15 4 11 25-5 30-21 6-10 29 6 29"/><path class="st40" d="M216 554.5c-15 15-14 41 2 55 37 22 41 31 36 69.7-2 31 46 41 53.5 10 2-10.8-4-22 0-33 13-32 44 20 62-44.5"/><path class="st40" d="M327 647.9c25 29.7-.5 47-7 75-10 32.5 34 65 53 25"/><path d="M729 262.5c9 4 16 13 18 22.5m-193-68c12.5 2 24.5 8 34 16m9 9 3 3m-163 10c-5.5-.9-12 .6-15.5 4M362 319.6c-9 2-14 10.7-16 19M339 449c4 1 6 6 6 9.8M308.5 470c-12-6-16-5-22-4M175 492c1-4 5-7 9-7.5m38 89.5c-4 8 0 16 4 19.9m44 78.6c-1 6 1 15 9 18m76-77.5c-3 14-13 14.5-16 16m4.5 119.5c-5-3-9-9-8-15M397 782c-1 14.5 7 28 14 30m90 53.9c-3 12 2 27 14.5 25M636 957c14-3 17-28 11-38m96-60.1c1-7 0-14-4-19m46-49.1c8-6.5 9-25 3-39M786 582c5-8 3-19-3-26m37-12c2-8.5-.6-18-7-24m-56-169c18 6 22 30 21 35" style="opacity:.7882;fill:none;stroke:#fff;stroke-width:10;stroke-linecap:round;stroke-linejoin:round;stroke-miterlimit:10;enable-background:new"/></g><linearGradient id="a12" gradientUnits="userSpaceOnUse" x1="234.425" y1="-533.764" x2="348.416" y2="-471.769" gradientTransform="translate(0 1066)"><stop offset="0" style="stop-color:#e0f"/><stop offset=".098" style="stop-color:#e002ff"/><stop offset=".286" style="stop-color:#ba07ff"/><stop offset=".543" style="stop-color:#7c0eff"/><stop offset=".857" style="stop-color:#2919ff"/><stop offset="1" style="stop-color:#001eff"/></linearGradient><path style="fill:url(#a12)" d="M329 545.2c-2-47-53-63-76-27-7 11-9 27-1 38 5.8 8 15 12 19 21 5 13-6 28 0 39.9 16 22 43-1.5 35-25-14.5-31.1 24-18.1 23-47.1v.2z"/><path d="M264 506c-18 25 30 88 55 57.9 22.5-21 3-59-24.5-63.3-10.5-2-23.5-4-30.5 5.2v.2z" style="opacity:.3412;fill:#fff;enable-background:new"/><path d="M329 545c-1.5-47-53-63-76-27-7 11-9 27-1 38 5.8 8 15 12 19 21.4 5 13-6 28 0 39.9 16 22 43-1.5 35-25-14.5-31.3 24-18.3 23-47.3z" style="fill:none;stroke:#000;stroke-width:10;stroke-linecap:round;stroke-linejoin:round;stroke-miterlimit:10"/><path d="M262 503c-19 13-29.7 41-14 60.5 5 6 12 10 16 17 5.5 12-3 28 3.5 39.5 4 7 13 9.8 19.7 7" style="opacity:.6;fill:none;stroke:#000;stroke-width:10;stroke-linecap:round;stroke-linejoin:round;stroke-miterlimit:10;enable-background:new"/><path d="M295.5 515c7 4 12 9.6 16 16m3.5 12c.5 1 1 2 1 3" style="fill:none;stroke:#fff;stroke-width:10;stroke-linecap:round;stroke-linejoin:round;stroke-miterlimit:10"/><style>.st40,.st68{fill:none;stroke-width:10;stroke-linecap:round;stroke-linejoin:round;stroke-miterlimit:10;stroke:#000}.st68{opacity:.6;enable-background:new}</style><g id="Happy_Beard"><linearGradient id="SVGID_00000012458921589117142250000001255892426965824154_" gradientUnits="userSpaceOnUse" x1="482.466" y1="444.183" x2="708.475" y2="85.169" gradientTransform="matrix(.9987 .05075 .05075 -.9987 14.064 1042.44)"><stop offset="0" style="stop-color:#00a2ff"/><stop offset=".654" style="stop-color:#aa36e8"/><stop offset="1" style="stop-color:#f0d"/></linearGradient><path style="fill:url(#SVGID_00000012458921589117142250000001255892426965824154_);stroke:#000;stroke-width:10;stroke-linecap:round;stroke-linejoin:round;stroke-miterlimit:10" d="M749.8 654c37 24 16.5 79 8.5 114-16 55 39 72 17 127.5-43-56-34 11-42 16.3-19-69-64-3-13 17.9-4 24-57-17-46 57.5-23-10.7-20.8-39.9-26-60.9-6-18-26-20.8-36-4.5-9.8 20.8-19 43-41 55 4-43-33-56-39-64.9-5-8-2-20.6-10-26-15-10-28 12-43 13.2 26-41-19.5-103-26-30-28-26-11-53-23-61-8-4-15 8-24 8 12.5-20.5-2-44-5-65.6-9-66 51.5-97 109-72.5 82 35 64-11 110-8.9 54 3 86-44 129-15.4v.3z"/><path d="M441 706c-36 33 0 64 9.9 68 44 21 49 42 67 62 28 26 56 18 87 2.2 19.5-9.9 43 1 65-1 30.6-3 59-32 55-64-6-46 7-36 20-56 8-12 1-29-10-37.3-33-22-53 13-81 19.5-12 2-24-4-36-4-24 0-45 44-112 4.9-22-13-48-10.7-65 5.3v.4z" style="fill:#fe1767"/><path d="M582 710.6c22.5 7 43 21 58 38.9 24-16 58-5 82 8-4-19 14-28 22-42.5 12-22-13-65-67-27.5-39 30.5-54-11.5-95 23.1z"/><path d="M629.8 745c-22-17-48-8-72-2.9-54 11-82-46-125-24 27-47 81-13 94-7.9C573 729 583 691 629.8 745zm26.2 40c2-22 25-37 46-37-17-14-45-9-62 3.6l16 33.4z" style="fill:#ae0f45"/><path class="st40" d="M441 706c-36 33 0 64 9.9 68 44 21 49 42 67 62 28 26 56 18 87 2.2 19.5-9.9 43 1 65-1 30.6-3 59-32 55-64-6-46 7-36 20-56 8-12 1-29-10-37.3-33-22-53 13-81 19.5-12 2-24-4-36-4-24 0-45 44-112 4.9-22-13-48-10.7-65 5.3v.4z"/><path class="st68" d="M433 710c-15 15-16 41-2 57 9.9 12 26 16 38 26 24.5 18 35 53 65 64.5 31 12 59-13 88-18 19.7-4 51 12 66-7m-264-153c-59 41-7 89-22 134"/><path d="M606 741c11 8 17 21 22 33m7 14 1 4m50-33c8 2 16 6 22 12.5m20-111.7c10 1 19.8 7 25 16m4 11.2 1 3.5M751.5 833c5 6 8 12.5 11 19.5M767 863l1 3m-171 56c-2 6-4 11-8 17m-6 10-2 2M448.5 817c-1 5 0 11 .5 16" style="fill:none;stroke:#fff;stroke-width:10;stroke-linecap:round;stroke-linejoin:round;stroke-miterlimit:10"/><path class="st40" d="M582 712c38 7.5 66 45 75 80.7M640 749c30-16 57-9 83 10.9"/><path class="st68" d="M731 897c.9-8.5 5-22 15-23m-48 21c-4 13 0 34 14 38m-59 19c3 9.5 9 18 16.5 24M487 861c4.5 11.5 7 19.9 3 29m-73-82c2-9 .7-22-7-28.5"/></g><style>.st16,.st40,.st68{fill:none;stroke:#fff;stroke-width:10;stroke-linecap:round;stroke-linejoin:round;stroke-miterlimit:10}.st40,.st68{stroke:#000}.st68{opacity:.6;enable-background:new}</style><g id="visor"><path class="st68" d="M425 452.5c-10 10-4 21-3 34 1 17.5-25 17-23 50.8 2 14 13.5 16 23 23.7 16 13-12 46.5 10.5 59 28 9 30-39 60.5-13 35 26 45-3 76-1 14 3 23 19.6 37 17.6 15-2 18-20 26-30.7 12-16 32 5 58-7 14-7 10.8-31 27-33 10-1 22-7 25-17.8 1-4 .7-9 3-11.9 3-4 9-5 11-9"/><path class="st68" d="M483 474c-28 10-52 59-14 72m214-104.1c32-1 53 43 26 64m-216 .1c-38 74 159 54 184 5"/><path d="M667 467c-60.6-40.6-281 59-113 83.5 33 5 185.5-41 113-83.9v.4z" style="fill:#fff"/><linearGradient id="SVGID_00000094605671738681660570000007936507584095639945_" gradientUnits="userSpaceOnUse" x1="531.586" y1="652.528" x2="653.586" y2="545.528" gradientTransform="matrix(1 0 0 -1 0 1100)"><stop offset="0" style="stop-color:#7b00ff"/><stop offset="1" style="stop-color:#ff0084"/></linearGradient><path style="fill:url(#SVGID_00000094605671738681660570000007936507584095639945_)" d="M550 467.8c-14 18 11 55 13 77 5 7 19.7 5 25-2 12-19.9-19.5-44-2-62 34-18 16 44 33 54.9 14 3 24-5 18-20-3-15 7-32-2-46-17-26.7-57-6.7-85-1.9z"/><path class="st16" d="M616 472c4 3 6.5 7 7 12m1 11v3"/><path d="M589 509.6c-6 26 3 45 25 27.9 4-17.5-4-37.8-25-27.9z"/><path class="st40" d="M623 456c-34 1-67 9-98 22.5-39.6 17-51 50.7-3 66 40 13 129-5.8 157-37.4 27-31.1-23.5-52.1-56-51.1zm-138 18c-20 15.5-47 54-14 71m210-103.1c29 12 42 36.5 27 65"/><path class="st40" d="M548 470c-15 25 21 51 15 75m57-87c33.5 21 8 44.5 21 70m-51.3 15c6-24-26-55-1-64 30-4 16 42 30.5 58"/><path class="st40" d="M580 500c4 9 19.8 11 27 7"/><linearGradient id="SVGID_00000036223863161345539850000005378798673148752026_" gradientUnits="userSpaceOnUse" x1="447.777" y1="687.666" x2="720.78" y2="506.665" gradientTransform="matrix(1 0 0 -1 0 1100)"><stop offset="0" style="stop-color:#ff002b"/><stop offset="1" style="stop-color:#ffd500"/></linearGradient><path style="opacity:.6902;fill:url(#SVGID_00000036223863161345539850000005378798673148752026_);enable-background:new" d="M490 437.6c-27-5-59.5-2-69 27.5-2 8 6.5 14 8.5 23-13 13.5-31 37-21 56 17 16 28 12 22 41.3-4 12 0 36 16.5 28 24-20.5 25-38 55-9.8 36 21 42-28 89 4.9 5 3 10.5 7 16 5.2 5-1 9-7 10.9-11.5 19.7-55 51 4 78-31 18-41 36-9 44-50 9-8 22-7 24-22.2 3-23-25-35-31-54.5-6-26 13-63-29-63-42 9.6-31 58-93 33-71-35-61.4 34.5-120.9 23.1z"/><path class="st16" d="M713 395c6.5 2 9 9 9 15m-2 13v2m26.5 60c3 3 5 8 5 13m-183-80c6-3 13.5-1 19 2m12.4 4 2.1 1m-121.5 25c-7-1-15-1-22 0M726 523c1 4 0 8-2 11m-36 27.5c-2 4-4 9-9 10.6m-12-.1h-2m-56 21c-1 3-3.5 6-5.5 9M535 592c-4 4-10 5-16 5m-11-4-2-1m-65-1.3c-1.5 3-2 7-.5 10M427 513c-4 4-6 9-7 15m-.3 10.5.3 1.5"/><path class="st68" d="M737.5 501c3 7 11 11.5 19 10.6M449 464c-5 6-13 10.9-21 13"/><path class="st40" d="M449 464c-9 26-42 39-44 68-1 8 4 17 12 19 6.5 2 13 3 15 9.8 5 16-13 44 5.5 52 24 11 23-43 58-14 45 37 47-28 95 11 27 22 25-16 40.8-28.5 15-12 35 8 52 2 15-5 15-24 24-33 7-5 17-2 23-7 14-9.6 4-29.9 7-44"/><path class="st40" d="M431 486c-24-21 3-49.7 29.8-49.5 24-2 56 9.6 74-10 39-42 61-9.7 103-5.2 46.5 2 39-48.5 78-39.5 29 11 16 33 17 56 1 18 19 29.5 27 44.9 10 16 0 42.5-21 33"/></g><style>.st68{fill:none;stroke-width:10;stroke-linecap:round;stroke-linejoin:round;stroke-miterlimit:10;opacity:.6;stroke:#000;enable-background:new}</style><g id="Target"><path class="st68" d="M519 277c32 24 63 50 92 77.3L519 277z"/><path class="st68" d="M535 358c28-34 48-57 74.5-89"/><path d="m526.5 277 86.5 71m-82 7c29.8-32 50.6-60 78-90" style="stroke:#f01;fill:none;stroke-width:10;stroke-linecap:round;stroke-linejoin:round;stroke-miterlimit:10"/></g><style>.st16,.st40{fill:none;stroke:#fff;stroke-width:10;stroke-linecap:round;stroke-linejoin:round;stroke-miterlimit:10}.st40{stroke:#000}</style><g id="Slime_Hoodie"><linearGradient id="SVGID_00000123401052496922830430000015556801029275583928_" gradientUnits="userSpaceOnUse" x1="35.794" y1="-946.035" x2="985.876" y2="-91.961" gradientTransform="translate(0 1066)"><stop offset="0" style="stop-color:#80f"/><stop offset=".095" style="stop-color:#8c00fe"/><stop offset=".184" style="stop-color:#9700fa"/><stop offset=".27" style="stop-color:#aa00f3"/><stop offset=".354" style="stop-color:#c400ea"/><stop offset=".437" style="stop-color:#e600de"/><stop offset=".488" style="stop-color:#ff00d5"/><stop offset="1" style="stop-color:#ff002b"/></linearGradient><path style="fill:url(#SVGID_00000123401052496922830430000015556801029275583928_)" d="M243 300c2 45-56 49.9-65 86.4-5 19 27 59-36 85-38 2.5-63 83-13 81.9 27-7-46 28.5 9 119.7 17 28-8 68-39.8 85.8C256 1131 814 1144 994 782c-106-83-3-103-29-159-20-44-40-18-40.5-35.3 25-32 100.5-72.5 54-118-24-23-38 59.5-66 10.6-22-38 37-89 18-126-10.8-13-42-32-53-9.9-23 3 18-115-43-145-61 13-33 74-110-50-18-29-62 12-150-76-31-13.5-131 11.5-92 58-217-17-110 54-190 93.5-44 13-104 21-97 81.5 4 32 41 18 156 38 22 4 13-25 44-28.2 76 18 95-63 138-67 50.6-2 47 58 72 79 29 16 31-31 50-42 68.5-41 74 68 81 101 11 24 46 28 62 6 39 38-4 62-10 98 0 18 17 30 28 45 42 59-29 81-5.5 139.8 11 27 22 70.9-11 87-73 82 26 56-22 99.8-15 9.9-36.5 13.5-44 32.5-12.5 53-24 45.5-73 45-108 54.5-104 9.9-188-34.9-34-11-86 2-104.5-37 24 3.5 34-41 20.6-55-69-34-49.8-40-52.5-82.6-5-76.5-72.5-44-32-170 20-63-25.5-80 .8-148 12 34 57 12 59.8-16.9 2-19-6-39 2-57.5L243 300z"/><linearGradient id="SVGID_00000141424450916588158380000009415204813451245479_" gradientUnits="userSpaceOnUse" x1="862" y1="-265.091" x2="992.044" y2="-265.091" gradientTransform="translate(0 1066)"><stop offset="0" style="stop-color:#00ff73"/><stop offset="1" style="stop-color:#008cff"/></linearGradient><path style="fill:url(#SVGID_00000141424450916588158380000009415204813451245479_)" d="M947 719.5c-16-1-30-8-43.5 6-34 35 22 43.5 25 71 1 9-5 20.9-15 19-10-2-16-42-47.5-7-18 47.5 49.6 36 52 74.7 2 17 73.5-96 75-107-23.5-10.2-42-31.2-46-56.7z"/><linearGradient id="SVGID_00000021817058697853631000000001280469018344591241_" gradientUnits="userSpaceOnUse" x1="100" y1="-254.132" x2="309.136" y2="-254.132" gradientTransform="translate(0 1066)"><stop offset="0" style="stop-color:#00ff73"/><stop offset="1" style="stop-color:#008cff"/></linearGradient><path style="fill:url(#SVGID_00000021817058697853631000000001280469018344591241_)" d="M100 756.2c28 72 76 136 137 183-12-66 53-30 69-71.9 17-38-40-92-54-41-3 36-35 44-57 16.8-34-62 65-12 43.5-61.5-31 3-89-4-32-45 53-12 22-54 0-52-24 2-42.5 27-69 10.1C136 721 115 735 100 756v.2z"/><linearGradient id="SVGID_00000065772179729150831490000010202721548549267584_" gradientUnits="userSpaceOnUse" x1="159.956" y1="-636.12" x2="238" y2="-636.12" gradientTransform="translate(0 1066)"><stop offset="0" style="stop-color:#00ff73"/><stop offset="1" style="stop-color:#008cff"/></linearGradient><path style="fill:url(#SVGID_00000065772179729150831490000010202721548549267584_)" d="M221 345.9c-19 9-43 23-43 47 18 66-23 62-16 74 5.8 9.6 12 27 16.5 37 36 33 36-24.5 22-49.4C255 395 239.5 361 221 345.9z"/><linearGradient id="SVGID_00000034800682440937396170000015067179293432719524_" gradientUnits="userSpaceOnUse" x1="529" y1="-822.541" x2="704" y2="-822.541" gradientTransform="translate(0 1066)"><stop offset="0" style="stop-color:#00ff73"/><stop offset="1" style="stop-color:#008cff"/></linearGradient><path style="fill:url(#SVGID_00000034800682440937396170000015067179293432719524_)" d="M536.5 249.7c36.5-2 43 41 57 67 35.8 66 52-78 111-31.5 1-7-.8-15-6-20-28-19.8 5-47 0-74.5-6-34-82-80.9-50 41 0 16-21 46-37 29-6-17.5 35-57 3-64.5-8-1-18 1.5-22 9.1 18 64-32 37-15 4 21-41-43-59-48-16 1 19.2 17.5 36.3 7 56.4z"/><linearGradient id="SVGID_00000103974768665328908060000009981248899361223327_" gradientUnits="userSpaceOnUse" x1="843" y1="-659.831" x2="933.961" y2="-659.831" gradientTransform="translate(0 1066)"><stop offset="0" style="stop-color:#00ff73"/><stop offset="1" style="stop-color:#008cff"/></linearGradient><path style="fill:url(#SVGID_00000103974768665328908060000009981248899361223327_)" d="M867 313.1c-39 16 1 47-23.5 123.9 3 16 17 14 26 3 8-9.6 39-11 4 36-8 21 28 33 37 13.4-3-44 19-81 23-107.5 6-37-29-61-60-39C873 333 871 323 867 313v.1z"/><path d="M894 741c-17 35 40 32 25 65-7 5-13-15-29-17-23-3-42 24-33.5 45.4 8 27 56 15 54 58M230 726c-2 12-16 16-25 21.5-9 4-15 16.5-9 23.5 13.5 9.8 36-8 49 8.6 12.5 16-7 37-25 33-55-13-15 53 16 37.5 17-13 9-57 49-47 32 14 44 77 6 89.5-29 5-55 12-48 48m-90-471.7c17 6 14 29 23 42 10 14 33 10.1 39-6 8-22-16-39-2.5-58.3 9.8-14 64-56 15-103.5M841 444c3 13 21 12 29 2.5 10-13 24 1 4.5 17-30 24 20 65 42 30.5" style="opacity:.6;enable-background:new;fill:none;stroke:#000;stroke-width:10;stroke-linecap:round;stroke-linejoin:round;stroke-miterlimit:10"/><path class="st16" d="M878 814.5c-3 7 1 14 7 18m12 6.8 3 1M923 731c-5.5 2-10 6-13 10.7m-3 10.3c0 1 1 2 1 4m-620 78c6 9.8 6 22 1 33m-9.5-43c-1 0-2-.9-3-1M224 798c3 0 5-1 7-3m-10-89c2 5 1 12-2 17m-7-26c-1 0-1-.5-2-.8M228 385c1 6.5-1 13-5 19m-8 9.5c-1 .9-1 2-2 3M196 482c3 5 4 11 2 16m346-303.1c0-5 4-10 9-12m11 1.1c1 0 1.5 1 2 1m45.5 22c2 2 2.5 5 2 7m63.5-41c6 6 9 14.5 8 23m-2 13c0 1-1 3-1 4m172 219c0-5 2-9.7 4-14m41.7 67.9c-3 3-9 4-13 2"/><path class="st40" d="M304 411c13 30 55 19 61-10.5 3-13-.8-27-2-40.7-3-33 15-45 47-40.6 56 8 63-33 100.6-59 58-39.8 78 46 81 54 9 24.5 35 23 44-.7 26-71 94-32.5 93.5 28.4 1 13 1 25.5 5 38 8 32 68 39.5 59 5-1.5-6-17-12-17-12 27 9 43 42 33 68.2-8 21-39.9 44-13 70.7 26 26 40 54 25 83-54 105 46 96.5-36.5 188-7 8-12 22-13 29.3-3 17 20.1 28 23 17.9 5-18 16-26 16-26-17 19-13 22-22 45-12.5 32-49 12-55 56.6-8 33-26 40.9-57 34.9-21-.5-40 13-60 19-55 17-84-17-124-47-49-29-108 16-133-68.4 10 52 53-1 30-31-33-28-59-15-50-72 3-37-23-56-40.7-84-24-47.5 18-100 9-149.3-19-49-16-105 29-139"/><path class="st40" d="M992 778.5c-83-49.9-26-111-22-126 10.5-57-72-89.6-43-17.2-30.8-73 59-65 64-133.5 2-30.9-29.6-52-43-16-4 10.7-22 14-29 5.5-33.5-37.5 28-86 15-129.9-18-46.5-87-28-41 16-50-46 7-130.8-48-171-36-26-48.5 49-84 2-43-57-18-72-102-77.8-36-2.5-49.5-31-74-51.5-34.5-29-147 14-103 48 9.7 7.5 48-6 48-6-56 24.5-128-11-182 24-34 22-6 52-50 77-24 14-50 5-80 27-62 51 17 125 26 52-4 60.5-87 54-61 114.1 9 20-11 47-31 53-88 25-42 120-13 75 3-5 1-23 1-23 4 24-9 45-19.6 65.6-31 59.5 72 90-21 171C257 1138 824.5 1142 992 778.5z"/><path d="M895 377c-9.8-10.9-7-32.5 4-42-11-5-25 6-25.5 18M930 636c1-14 10.8-28 24-33-11-5-25-13-35-3M809 800c-11 9-25 18.5-39.7 13 6.5 1.5 5 16 22 19M361 842c10 7 24.5 5 33-4-2 12.5-11 27-25 29M136.5 518c-5 11.5-20 22-33 18 6 15 26.5 24 38 10M338 369c-11 18-22 41-9.7 60.9-15-.9-26.5-17-22-32M242 297c-9.5 12-27 21-43 15.9 8 12 26 22 39 12m291.6-208c-20 3-40-4-53-21-7 13 0 31 14 36M773 374.5c7 9 8 22 3 32 12.5-2 24-16 17-28v1" style="opacity:.6;enable-background:new"/><path class="st16" d="M910 356.9c8 6 11 18 8 27.5m-3 12.6c0 1.5-.5 3-1 4.5m59 87.5c4 10 3 22-3 31m-6 12c-1 .8-2 2-3 2m-14 83c6 6 9 15 8 23.5m-1 10.5c0 .8-1 2-1 2.5M834 217c10 6.5 17.5 17.5 19 29m2 15.9c1 2 1 4 .5 6M693.5 148c9 3 17.5 9 23 17M537 85c-15 .9-29.7 6-42 15m56-17.2h6.5M385 146c-14 2-28 9.7-36.5 21m53.5-23h4M222 263c-9.7 9.9-14 24.5-12 38m26-46.5 3-1.5m-32 120c-8 5-14 14-15.5 24M126 494.5c-8 8-13 20-12 32m25 60.5c-7 11-11 25-5 37m7.5 15c1 2 1 4 2 6M373 818c6 5 9 14 7 21m-18-27c-1-.9-2-2-3-2m90 106.5c12 0 25 6 34 10.9m14 9.6c1 1 2 2 4 3m183 16c-9-2-18-1-26 2.5m102-71.6c-8 5-11 14-13 22M796 793c-5 6-8 12.5-9 19.7m16-30.7 3-3m23.9-165c-5 13-11 27.5-8 42m3.1 13.9 1 4.5M807 474c-6 8-5 19 1 27m7 9.5c1 1 2 2 2 3.5m-71-148c2 11.5 11 22 22 25m-24-40.1-.7-4M612 320c5-1 10-4.5 12-9m5-11.4 1.5-3M471 276c-9 11-20 20.6-33.5 27m-12 2.6h-5M352 389c-1 10-7.5 19.5-16 24m15-46c.5 3 1 5 1 8m-64 124.5c3 10 4 21 2 31m-2 14.4c-1 2-1 3-2 5m19 139.8c9 8 15 18 18 29.5"/><path class="st40" d="M917 888c12-51-78-25-50.5-81.5 6-12 24-17 34-7 5 5 8 14 16 15.2 7 1 12-7 13-14 1-29.8-23-26-34-43-10.9-17 12.5-44 31.5-41 7 1 14 5 19.5 1M141 688c3 11.5 18 17 29 13 16-8 29.7-22 49.5-12 19 9.6 20 39.8 0 47.7-53 6-36.5 59.9-6 45 30.8-15 44 22 12 28-10 .9-22-6-30.6-.6-28 18 19 59 42 48.5 16-7 13-29 21-42 17-26 53 11 52 35 1 17.5-10.5 38-28 39-31 2-56 19.9-44 52M535 248c25-19.7-36-65 17-80.5 13-4 29 8 29.6 21.9 1 16-18 37-3 50.2 9.9 9 26-2.5 21-14.9-2-6-8-10-7-16 2-13 21-18.5 29-8.9 17 20-24 45-9 62.2 10 11.5 26-4 31-15 17-39-12-52-6-76 9.7-38 91.5-11 50 62.9-13 33 25.5 31 16 48M868 311c-41 15-11 61-12 78-2 19-26 49-8.5 57 19 8 19.8-8 30-12.5 9-4 14 5 14 12 0 26-27 20.9-16 46 7 17 36 13 39-5M160 466c14 6 9 27 17 38 19 26 48 0 26-33-24.5-38 80-53 16.5-126"/></g><circle cx="550" cy="550" r="500" style="fill:none;stroke:#000;stroke-width:10;stroke-linecap:round;stroke-linejoin:round;stroke-miterlimit:10"/></svg>