<svg version="1.1" id="Layer_1" xmlns="http://www.w3.org/2000/svg" x="0" y="0" viewBox="0 0 1100 1100" style="enable-background:new 0 0 1100 1100" xml:space="preserve" xmlns:xlink="http://www.w3.org/1999/xlink"><style type="text/css">.st302{fill:#6A10EB;stroke:#000000;stroke-width:10;stroke-linecap:round;stroke-linejoin:round;stroke-miterlimit:10;}</style><circle class="st302" cx="550" cy="553.7" r="500"/><path d="M533 209.1c-68 59.6-71 20-121 36.5-19.6 10.9-14 30-9.7 39.6 11 23-51 9-69 40.3-10 18 .1 42-7.5 61.8-9 19.6-34 35-37 52.2-43 48-154 7-119 70.4 6 11 33-6 39 9.1 7 17.5-39 29-21 46.7 18 5 21 39.9 57 63.2 14 20 3 51 19 69.1 35.8 38 46-25 41-34.3 4-39 44-11 22 38.7-23 52 11 74 36.5 56.6 24-9 13 39 23 50.9 19.5 37 55 12 67 12 18 1 28 22 29.8 40.3 6.5 63 54 46 59 8 15.5-34 45 49 47 59.9 11 73 69 42 71 17.9 3-54-3-60.1 2-68.3 18.5-31 71 13 90.8-15.5 14-19.7-31-63.5 8-55.4 94 19 19-101 14-120.4-9-35.5 14-106 47-121.7 18-9 17-35.5 7-52.8-9.5-17-25-30.6-31-48.9-13.5-54 22-102-36-133.3-5-3-7-9.5-4-14.4 17-26 1-66-32-71.4-22-3-44 9-66.5 6.3C616 247 579.9 178 533 209.1z" style="fill:#009dff"/><style>.st40{fill:none;stroke:#000;stroke-width:10;stroke-linecap:round;stroke-linejoin:round;stroke-miterlimit:10}.st98{opacity:.6;enable-background:new}</style><g id="Outline"><path class="st98" d="M793 537c-1 .7-1 2-.5 3 5 10 11 35 25 30 8-2 21-13 18-22.4-.5-1-2-2-3-1.5-26 12-28-11-39-9.4v.3zm-34 274.5c6 5 26 8 25-3-6-7-20.6-12-21.5-26C750 772 744 803 759 811.5zm-219.3 52s1 .5 1 .8c9 13.5-3 36-18 40-34 6-9-6-6-44 .3-5.3 22.3 2.7 23 3.2zM342 731c5 7-4 22-4 33 8 13 29.6-5 33-14.9 2-12-17-21-28-20.2-1 .1-1 1.1-1 2.1zm31-120.2c2 23-8 47-26 61.9-13 10.9-17.5-30.6-8-27.9 6 4.2 28-18.8 34-34zm-157-59.9c-8 6-17 3-25 1-11 5 4 20 13.5 16 5-4 12-9 12-15.7-.5-.2-1.5-.2-.5-1.3zM337 473c-6-10-3-23 0-34 0-1 0-2-.6-2-9-9-23 11-19.8 20.7C318 463 338 475 337 472.8v.2z"/><path class="st98" d="M326 392c-2 29 24 45 7 44-7 2-14 1-15 11-1 11-24 0-24.5-1.3C285 433 317 404.5 326 392zm103-118c-9.9-4-16-16-18-25-4-6-9.9 1-11 6-7 54 29.5 28 29 19zm293 9c16 21 29.5 12 40 20.7 3 4 1 9.6-1 14-3 9-13 9-20 4.1-14.5-5.8-22-22.2-19-38.8z"/><path class="st40" d="M347 729c53.5 5 15 86 59 102 25 9 37-19.8 55-11.9 23 10.1 19.6 40 24 60.7 9.6 46 63 29.6 58-12.8"/><path class="st40" d="M519 861c89-9 47.5 119 114.5 115 39-6 35-47 25-76.5-3-9 0-18.5 7-24.5 24.5-21 59 15.5 84-2.5 15-11 8-33-2-45-12-15 0-32 10-43"/><path class="st40" d="M790 539c53 69.8-64 71 8 194.5 6 14 11 32 11 48.5 0 32-49 47.5-61 16"/><path class="st40" d="M721 287c2 51 64 31 74 88 6 34-11.5 71 7 103 10 18 27 31.5 34 51 8 19-4 47-27 42"/><path class="st40" d="M407 290.6c-16-8-12-29.9-2-41 17-15 40.5-10 61-6 29.8 1 49-29 75-38 50-17 81 55 133 44 23-5 48-11 69 1 25 14 33 55 10 75"/><path class="st40" d="M428 278c-16 26.5-51 17.5-76 28.5-20 10.5-28 33-23 55 10 47-43 51-39 88m25 4.5c1.5-23 35-26 41-5 7 25-13 47 16 72"/><path class="st40" d="M334 476c-20-34-61-31.5-89-9.6-20 8-43-3-64 4-22 7-28 37-5 43.5 6.5 2 23-2 26-1 15 4 11 25-5 30-21 6-10 29 6 29"/><path class="st40" d="M216 554.5c-15 15-14 41 2 55 37 22 41 31 36 69.7-2 31 46 41 53.5 10 2-10.8-4-22 0-33 13-32 44 20 62-44.5"/><path class="st40" d="M327 647.9c25 29.7-.5 47-7 75-10 32.5 34 65 53 25"/><path d="M729 262.5c9 4 16 13 18 22.5m-193-68c12.5 2 24.5 8 34 16m9 9 3 3m-163 10c-5.5-.9-12 .6-15.5 4M362 319.6c-9 2-14 10.7-16 19M339 449c4 1 6 6 6 9.8M308.5 470c-12-6-16-5-22-4M175 492c1-4 5-7 9-7.5m38 89.5c-4 8 0 16 4 19.9m44 78.6c-1 6 1 15 9 18m76-77.5c-3 14-13 14.5-16 16m4.5 119.5c-5-3-9-9-8-15M397 782c-1 14.5 7 28 14 30m90 53.9c-3 12 2 27 14.5 25M636 957c14-3 17-28 11-38m96-60.1c1-7 0-14-4-19m46-49.1c8-6.5 9-25 3-39M786 582c5-8 3-19-3-26m37-12c2-8.5-.6-18-7-24m-56-169c18 6 22 30 21 35" style="opacity:.7882;fill:none;stroke:#fff;stroke-width:10;stroke-linecap:round;stroke-linejoin:round;stroke-miterlimit:10;enable-background:new"/></g><radialGradient id="a14" cx="290.798" cy="544.048" r="35.638" gradientTransform="matrix(1.0835 0 0 1.2069 -20.488 -120.931)" gradientUnits="userSpaceOnUse"><stop offset="0" style="stop-color:#ffe100"/><stop offset="1" style="stop-color:#f70"/></radialGradient><path style="fill:url(#a14)" d="M294.5 494.1 255 568.3l79.5 8.9z"/><path style="opacity:.451;fill:#fff" d="m283 520.1 22 51.8 26 2.4-37-76.5"/><path style="fill:none;stroke:#000;stroke-width:10;stroke-linecap:round;stroke-linejoin:round;stroke-miterlimit:10" d="M294.5 494.1 255 568.3l79.5 8.9z"/><path d="M289 492.2c-16 29-29.8 52-44 79.8l88 12.5" style="opacity:.6;fill:none;stroke:#000;stroke-width:10;stroke-linecap:round;stroke-linejoin:round;stroke-miterlimit:10"/><path d="M294 524.9c2.5 5 5 9.5 6 14.5m6 14.6 2 4" style="opacity:.749;fill:none;stroke:#fff;stroke-width:10;stroke-linecap:round;stroke-linejoin:round;stroke-miterlimit:10"/><defs><linearGradient id="zae" x1="798.93" y1="733.98" x2="937.44" y2="726.56" gradientUnits="userSpaceOnUse"><stop offset="0" stop-color="#f705ff"/><stop offset=".5" stop-color="#e30556"/><stop offset="1" stop-color="#ffc505"/></linearGradient><linearGradient id="zae-2" x1="611.81" y1="744.71" x2="857.55" y2="744.71" gradientUnits="userSpaceOnUse"><stop offset="0" stop-color="#00ff6f"/><stop offset="1" stop-color="#0090ff"/></linearGradient><linearGradient id="zae-3" x1="826.24" y1="742.98" x2="857.41" y2="742.98" gradientUnits="userSpaceOnUse"><stop offset="0" stop-color="#f06"/><stop offset="1" stop-color="#f90"/></linearGradient><linearGradient id="zae-4" x1="652.3" y1="753.53" x2="744.04" y2="753.53" gradientUnits="userSpaceOnUse"><stop offset="0" stop-color="#ff009d"/><stop offset="1" stop-color="#ff6200"/></linearGradient><style>.zae-4{fill:none;stroke-linecap:round;stroke-linejoin:round;stroke:#000;stroke-width:10px}</style></defs><path d="M812.7 697.1c-.8-22 16.5-29.6 35.7-16.3 10.5 7.2 15.4-1.7 18.7-9.4 4.1-9.3 3.6-22 15-25.1 23.8-6.4 33.2 25.6 10.5 39.9-19.1 12 1.3 36 14.1 16s39.7-11.3 31.6 11.8-50.1 5.6-50.1 25.6c0 10.8 11.2 9.8 21.5 13.5 20.6 7.4 6.2 41.6-14.9 31.6-5.1-2.4-10.8-6.9-16.1-4.4s-6.4 10.6-2.1 16c5.6 7.1-1.3 16.9-9.5 17.8-10.6 1.1-15.2-10.9-26.1-11.6-8.9-.7-21.3-3-23.4-13.4Z" style="fill:url(#zae)"/><path d="M618.4 773.8c34.4-8.5 64.9 17.1 98 17.7 13.5.2 26.5-5.5 39.9-5.8 30.3-.7 84.6 8.6 93.6-13.4 27-65.5-22.1-88.1-77.6-66.3-22.3 8.8-52.5 17.8-49.1 11.6-11.3-39.7-77.3 19.7-106.9 13.8-6.8 12.9-5.7 29.7 2.1 42.4Z" style="fill:url(#zae-2)"/><path d="M826.2 700.5c13.3 51.7-1.7 70.9 4.5 83.3 21.3 15.6 49.6-80.6-4.5-83.3Z" style="fill:url(#zae-3)"/><path class="zae-4" d="M618.5 731.8c30.7.3 53.9-26.7 84.5-28.9 10-.7 24.2 8.1 18.6 18.9"/><path class="zae-4" d="M703.5 723c24.3 2.4 46.5-8.2 68.8-17 55.5-21.8 104.6.8 77.6 66.3-9 22-63.3 12.7-93.6 13.4-13.4.3-26.4 6-39.9 5.8-33.1-.6-63.6-26.2-98-17.7"/><path class="zae-4" d="M822.7 698.8c12.6 24.9 12.8 58.2 4.2 85m7.2-25.9 18.6-1.8m-19.2-29.2 19.1-3.1"/><path d="M652.5 752.4c3.9 11 18.1 7.3 27.1 6.2 13.9-1.6 26.9 6.1 40.5 8.2 32.8 4.8 31.5-32.1-1.3-22.7-16.9 4.8-70.3-17.1-66.3 8.3Z" style="fill:url(#zae-4)"/><path d="M689.5 743.1c-.3 21.2 51.3 36.2 52.5 9.2-2.4-12.2-42.8-8.6-52.5-9.2Z" style="opacity:.3;fill:#fff"/><path d="M716.3 747.7a24.6 24.6 0 0 1 14.2 17.3c31-7.7-2.6-32.5-14.2-17.3Z" style="opacity:.49;fill:#fff"/><path class="zae-4" d="M652.5 752.4c3.9 11 18.1 7.3 27.1 6.2 13.9-1.6 26.9 6.1 40.5 8.2 32.8 4.8 31.5-32.1-1.3-22.7-16.9 4.8-70.3-17.1-66.3 8.3Zm160.2-55.3c-.8-22 16.5-29.6 35.7-16.3 10.5 7.2 15.4-1.7 18.7-9.4 4.1-9.3 3.6-22 15-25.1 23.8-6.4 33.2 25.6 10.5 39.9-19.1 12 1.3 36 14.1 16s39.7-11.3 31.6 11.8-50.1 5.6-50.1 25.6c0 10.8 11.2 9.8 21.5 13.5 20.6 7.4 6.2 41.6-14.9 31.6-5.1-2.4-10.8-6.9-16.1-4.4s-6.4 10.6-2.1 16c5.6 7.1-1.3 16.9-9.5 17.8-10.6 1.1-15.2-10.9-26.1-11.6-8.9-.7-21.3-3-23.4-13.4m-200.2-69.5c-6.3 20.9-8.1 46 2.8 68.3m-40.6-82.5c17.4-67.6 59.3-31.9 66 18.2"/><path class="zae-4" d="M580.9 801.8c24.2 71.2 65.8 25.1 65.5-26.9"/><path d="M579.6 705.4c-1.9-18.1 12-42.1 31.5-36.9m-30.2 133.3c-1.6 20 21.5 52.2 41.4 33.1m-2.7-100c-2.1 11.4-2.1 24 1.2 35.1m82.5-48.2a43.1 43.1 0 0 0 16.4-7.2m-67.4 36.3c0 21.6 32.7 10.1 46.5 15.3s39.6 12.3 44.6-8.1m86.9-53.6c8.6 24.5 8.9 50.5 2.4 75.6" style="opacity:.6;stroke-width:10px;stroke:#000;fill:none;stroke-linecap:round;stroke-linejoin:round"/><path d="M817.3 714.5c-9.8-5.5-21.6-2.9-31.6.8m-11.3 3.4a8.5 8.5 0 0 0-2.2.9m-80.3-1.9a68.2 68.2 0 0 0-13.8 5.4M612 683.4c5.4 3.3 8.7 9.1 11.7 14.7m5.1 10.8.7 2.7m3.6 76.6a53.2 53.2 0 0 1-7.3 20.4m-7.6 10.1-2.3 2.3" style="stroke:#fff;stroke-width:10px;fill:none;stroke-linecap:round;stroke-linejoin:round"/><path d="M835.4 685.4a9 9 0 0 0-8.7.3m65.2-29.1a10.1 10.1 0 0 1 3 8m-2.2 7a5.9 5.9 0 0 1-1.7 2.7m38.9 31.7a9.5 9.5 0 0 1-6.3 8.3m-15.8 58.5a8.5 8.5 0 0 1-8.5 1.4m-6.7-2.8-1.6-.5m-31.5 30.3a10.1 10.1 0 0 0 6.3 3.2" style="stroke-width:6px;stroke:#fff;fill:none;stroke-linecap:round;stroke-linejoin:round"/><style>.st40,.st68{fill:none;stroke:#000;stroke-width:10;stroke-linecap:round;stroke-linejoin:round;stroke-miterlimit:10}.st68{opacity:.6;enable-background:new}</style><g id="clouds_00000132064263232096526770000004594804391114312866_"><linearGradient id="SVGID_00000168815864788562971780000008009317104823657398_" gradientUnits="userSpaceOnUse" x1="375.454" y1="631.653" x2="559.455" y2="484.653" gradientTransform="scale(1 -1) rotate(-2.241 -27002.414 -491.187)"><stop offset="0" style="stop-color:#0f9"/><stop offset=".149" style="stop-color:#00efa4"/><stop offset=".441" style="stop-color:#00c5c0"/><stop offset=".844" style="stop-color:#0082ec"/><stop offset="1" style="stop-color:#06f"/></linearGradient><path style="fill:url(#SVGID_00000168815864788562971780000008009317104823657398_)" d="M441 443.1c-21 12-28 39.7-20 62-7 14-8 32 3 44-15 28-2 55 29 58 6 45 54 47 67.5 5.4 11 11 44-4 34-43 15-15.5 16-42.5-.5-57 10.9-22 2-52-24.5-55 9-16.5 0-34-9-47.7C498 382 433 403 441 443v.1z"/><linearGradient id="SVGID_00000074418743135565432100000001250214097951887239_" gradientUnits="userSpaceOnUse" x1="555.704" y1="637.058" x2="756.704" y2="528.058" gradientTransform="scale(1 -1) rotate(-2.241 -27002.414 -491.187)"><stop offset="0" style="stop-color:#0f9"/><stop offset="1" style="stop-color:#06f"/></linearGradient><path style="fill:url(#SVGID_00000074418743135565432100000001250214097951887239_)" d="M609.9 493.1c-19 16-15 50 7.5 61-3 19 7 42 28.5 41 16 34 61 30 73-5.5 7.5 6 37-14 24-48.6 12-15 8-38-4-51 14-23 0-58-27-57-11-93-108-57-94 7.9-16.9 3.1-20.9 42.1-8 52.1v.1z"/><path class="st40" d="M467 577.9c-13 9-14 28-9.8 43 15 52 92 2 55-42M528 563c50.5 33 57-72 3-49"/><path class="st40" d="M513 464c29-22 56 18 42 45.5"/><path class="st40" d="M449.9 465c-43-76 99.9-101 82-9M523 614.5c24 10.5 42.5-22 33-43M443 539c-41 17.5-28 75 9 68"/><path class="st40" d="M439.9 446c-21 8-35 39.7-16 57"/><path class="st40" d="M437 496c-23 4-31 36-14 51.5M629 455c-27-26.5-4-66 27-76 40.6-13 67 37 46 70.8"/><path class="st40" d="M616 441c-15 12-18 36-8 52"/><path class="st40" d="M624 489.6c-36 2-37 78 11 63"/><path class="st40" d="M619 556c-9 19 7.5 42 27.5 39m12.5-28c-23 28 1 62 33 52.5 26-8 34-39 16-59.8m4-129.9c25 4 42 36 28 59m-25 11c21-22 41 3 36 28-3 15-24 28-35.5 15"/><path class="st40" d="M720.5 589c21 2 32-23 24-41M490 450.7c1 38 3 74 4 113M663 430l26 108"/><path class="st68" d="M450 409c-15 11.5-10 28-22 37-20 16-19 38-17 62 1 9-5 17-3 25.8 1 7 6 14 6.5 21-3 18.5-9 44 11 54 16 6 23 5 30 24 7 18 33 20.5 46 6M634 388.5c-19.8 9.7-19 32-25.5 50.9-5 14-17 26-13 41 8 30.5-14 45 11 76.9 16 20.1 1 36 34.5 44.9 8.5 4 12 15 19.8 20 14 10.5 33 2 43-10M703 450c4.5-9 14-14 24.5-12M708 558c9 4 14 14 18 23"/><path class="st68" d="M657 567c-8 4-14 13-15 22m-28-137c4 3.5 10 5 15 3m-116 8c5-7 12-12 20-15.5m-3 65.5c5.5-7 14-10.5 22-10m-26 61.5c6 8 15.5 13 25 13.5m-85-2c-11 4-16.5 15.5-20 26m-4-66c-6-2-12 2-16 5m11-46.5c-4-2-9-1-13 1m25-29.5c-6-.6-9-6-10.8-11M659 432l25 109m-198.5-90 3 114"/><path d="M674 394.5c8 3 14.5 11 15.5 20M688 434l1-4m32.5 22c5 4 8 10.5 8 17m1.5 38c4 4 6 9.7 6 15m-39 49c5 9 3 20-4 27m-17 7c1 0 3 .5 4 0m-65.5-129c-.9-3-.9-7 0-10m5.5 41c-5 4-8 10-7 17m3 13 1 1.5M501.5 413c7 3 12 9 14 17M487 412c-1.5 0-3 0-4 .9m48.5 60c5 2 9 6 11 11M547 526c6 4 9 11 8.5 18M538 595c3-3 5-6 6-9.8m-40 8.8c3 10-1 22-9 28m-15.3 1H478m-40-64c-5 6-6.5 15-4 23m-5.5-60c0-3.5 2-7 5-9m-4.5-33.4c0-3 1-6 3-8" style="opacity:.8;stroke:#fff;enable-background:new;fill:none;stroke-width:10;stroke-linecap:round;stroke-linejoin:round;stroke-miterlimit:10"/></g><defs><style>.zbh-2{fill:none;stroke-linecap:round;stroke-linejoin:round;stroke-width:10px;stroke:#000}</style></defs><path d="M357.3 453.9c38.6 2 75-22.4 99.5-51.8 36 15 77.1 7.7 106.9-18.6 35.3 9.6 78.1 10 106.7-15.6 25.8 8.2 55.4 3.6 78.2-11.2 13.7 7.9 29.3 12.5 44.9 14.4 5 9.7 2.2 21.7 5.1 32 50.5-20.7 54.9-96.4 15.3-130.4-7.4-53-59.9-90.3-113.1-79-39.7-40.8-96.6-35.9-143.6-10-45.6-24.8-82-17.6-121.6 13.4-60.9-16.5-119.9 24.2-131.3 85.2-41.6 3.5-71.1 47.4-52 86.8-20.1 26.5-28.6 64.7-11.7 94.9 21.9-13 47.9-18.8 72.3-10.7 6.9-22.4 39.3-25 44.4.6Z" style="fill:#ff5e00"/><path class="zbh-2" d="M466.3 372.6c-3.4 44.7-65.7 83.2-107.4 81.6"/><path class="zbh-2" d="M560.5 384.4c-22.9 29.9-69.5 29.2-103.3 19m221.1-46c-31 42.4-94.7 40.2-135.4 13.1m127.1-1.6c33.4 10.4 71.9-.9 94.4-27.6"/><path class="zbh-2" d="M748.3 356.8a85.4 85.4 0 0 0 60.1 10.5"/><path class="zbh-2" d="M790.5 266.1c66.3 11.6 64.4 116.9 4.8 138.1a71.2 71.2 0 0 0-1.3-33.4"/><path class="zbh-2" d="M814.8 273.6c-3.9-60.2-83-106.3-133.9-67.8"/><path class="zbh-2" d="M701.8 194.1c-38.8-43.6-112.8-43.2-151.2.7"/><path class="zbh-2" d="M560.5 185.1c-49.9-31.6-113.8-14.7-133 31.8"/><path class="zbh-2" d="M436.8 197.2c-64.9-20.9-136.3 34.6-132.1 102.7"/><path class="zbh-2" d="M305.3 282.9c-44.3-2.7-69.9 49.5-53.2 87.4"/><path class="zbh-2" d="M274.8 360.1c-44 10.4-55 70-34.1 107.1 23.1-14.5 45.6-24.2 74.4-12.4.4-24.3 39.2-28.5 42.2-.6"/><path d="M797.1 281.9a35.6 35.6 0 0 1 20.7 20.6m3.9 11.6a16.8 16.8 0 0 1 .9 3.2M754.7 211a55.5 55.5 0 0 0-32.2-6.7m-12 2.5-3.4.9M627 175.3a90.3 90.3 0 0 0-34.4 6.9m-10.7 6-3.2 1.8m-86.6-6.8a52.9 52.9 0 0 0-28.4 11.8m-10.9 9.7-4.6 4m-87.1 12.8a85.4 85.4 0 0 0-23.8 22.2m-6.6 10.5-1.6 2m-64.3 67.4a50.4 50.4 0 0 0-5 19.8m-9.6 56.7a61.4 61.4 0 0 0-5 27.7m199.7-37.7a89.2 89.2 0 0 1-30.5 28.7m-11.9 6.2-4.9 1.9M538.3 388a56.5 56.5 0 0 1-22.7 6.5m-11.9.5-2.4-.1m157.3-36a81.4 81.4 0 0 1-47.3 15.3m-14.4-1.3-2.6-.2m125.2-16.1a77.1 77.1 0 0 0 23-12.2m-39.2 15.4 3.2-.3m74.4-4.5a39.9 39.9 0 0 0 14.6 1.2" style="stroke:#fff;fill:none;stroke-linecap:round;stroke-linejoin:round;stroke-width:10px"/><path d="M360.3 462.6c37.6-2.2 73.7-20.9 98-49.9 37.5 8.6 78.6 5.9 108.2-22.4 34.9 13.6 76 7.5 106.4-15.1 25.1 7.9 53.7 3.4 76.1-11.6a72.5 72.5 0 0 0 41.9 12.1" style="opacity:.6;stroke:#000;fill:none;stroke-linecap:round;stroke-linejoin:round;stroke-width:10px"/><path d="M812.6 368.9a69.1 69.1 0 0 1-14.2 31.4c.3-10.1.6-20.3-2.6-29.8m-9.2-106.3c6.4-11.8 9.6-26.3 4.6-39.1 7 1.3 21.6 27.2 21.9 47.7m-136.5-68a47.1 47.1 0 0 0-9.2-33.9c13 3.6 26.1 12 33.5 23.2m-153.7 2.4A43.3 43.3 0 0 0 525 173c11.6 2.9 23.8 6.1 32.7 14.1m-133.8 31.8c-5.5-13.7-20-21.2-33.9-23.8 14.4-2 34.6-2.2 45.7 4.5m-133 103.3c-13.1-5.1-31.4-3.5-42.7 4.8 11.3-12.8 26.9-24 44.6-23.5m166.5 87.1a45.8 45.8 0 0 0 17.7 37c-9.7-4.3-20.6-2.4-30.6-4.9m224.7-46.9c.5 5.6 2.9 11.6 8.2 14.3a116.8 116.8 0 0 1-16.7-4.3m94.9-24.6c-1.5 8 1 18.5 7.2 23.8-8-4.5-18.5-2.5-25.5-8.9" style="opacity:.6"/><circle cx="550" cy="550" r="500" style="fill:none;stroke:#000;stroke-width:10;stroke-linecap:round;stroke-linejoin:round;stroke-miterlimit:10"/></svg>