<svg version="1.1" id="Layer_1" xmlns="http://www.w3.org/2000/svg" x="0" y="0" viewBox="0 0 1100 1100" style="enable-background:new 0 0 1100 1100" xml:space="preserve" xmlns:xlink="http://www.w3.org/1999/xlink"><style type="text/css">.st302{fill:#6A10EB;stroke:#000000;stroke-width:10;stroke-linecap:round;stroke-linejoin:round;stroke-miterlimit:10;}</style><circle class="st302" cx="550" cy="553.7" r="500"/><defs><style>.zc-2,.zc-3{fill:none;stroke-linecap:round;stroke-linejoin:round;stroke-width:10px}.zc-2{stroke:#4a4a4a}.zc-3{stroke:#00ff37}</style></defs><g id="Layer_72" data-name="Layer 72"><path d="M531.7 209c-67.9 59.6-70.9 20.3-120.8 36.5-19.6 10.9-14.3 30.3-9.7 39.6 11.2 22.8-50.8 8.7-68.6 40.3-10.3 18.3.1 42.2-7.5 61.8s-33.8 34.7-36.8 52.2c-43.4 48.2-154 6.6-119.1 70.4 6.2 11.4 32.9-6.3 39.1 9.1 7 17.5-38.8 29.4-21.3 46.7 17.7 4.9 20.7 39.9 56.9 63.2 13.8 20 2.7 51.4 19.4 69.1 35.8 37.8 46.3-24.8 41.3-34.3 4.3-38.8 43.9-10.6 22.2 38.7-22.8 51.7 11.2 74 36.5 56.6 24-8.9 13.3 38.7 23.3 50.9 19.5 37.2 54.9 11.6 66.6 12 18.1.7 28 22.3 29.8 40.3 6.5 63 53.6 46.3 59.1 8 15.5-34.3 45.1 48.6 46.9 59.9 11.3 72.6 69.3 42 70.8 17.9 3.3-54.1-3.2-60.1 1.7-68.3 18.5-31.1 71 13.3 90.8-15.5 13.6-19.7-31.2-63.5 7.9-55.4 94 19.4 18.7-100.7 13.8-120.4-8.8-35.5 13.9-105.6 46.9-121.7 18.1-8.8 17.1-35.5 7.4-52.8s-24.9-30.6-31.4-48.9c-13.5-54.4 22.4-102.1-36-133.3a10.2 10.2 0 0 1-3.9-14.4c17.1-26.3 1.3-66.4-31.8-71.4-22.1-3.3-44.3 8.9-66.5 6.3-43.8-5.2-80.2-74.1-127-43.1Z" style="fill:#757575"/><path class="zc-2" d="M416.3 430.8c-7.8 85.7-9.7 162.5-14.6 245.2-15.1 6.6-15.8 30.7 1 32.6"/><path class="zc-2" d="M268.4 456.4q-1.3 51.9-5.7 103.6c86.9 6.2 172.1 5.7 258 12.8.8 15.4 20.6 16.8 27.6 6.3"/><path class="zc-2" d="M446 564.3c-2.2 48.2-4.3 96.5-.6 144.5l102.9 7.6"/><path class="zc-2" d="M504.2 793.2a1259.8 1259.8 0 0 1-4-130.1c-9.2-4.4-11.8-17.1-.3-22.8m-89 104.8-.1 83.7"/><path class="zc-2" d="M415.9 788.2c58.7-.6 115.8-1 176.4-.6 4.4 12.8 18.4 10.7 22.6 1.9M375.8 302.8c-.7 34.1-5.5 102.7-5.8 102.4-9.5 5.5-16.4 18.6-.4 26.1m117-190.5c-4 52.9-9.6 103.1-10.8 155.2"/><path class="zc-2" d="M378.1 380.3c79.4 1.5 159.1 4.3 238.4 4.3m-131.7-43.9a705.1 705.1 0 0 0 80.9 6c2.1 11.1 12.6 11.4 17.1 4.6m73-99.4c-22.8 113.8-33.3 229.4-33.3 345.8"/><path class="zc-2" d="M790.1 437.5c-60.6-2.3-118.7-4.1-179-8.9 0 10.8-13.8 16.2-20.3 4.2"/><path class="zc-2" d="M690.3 634.1c6-76.9 12-153.9 24.2-229.5-11.3-4.6-18-23.6-2.4-32.4"/><path class="zc-2" d="M558.1 620.2a1265.5 1265.5 0 0 0 220.2 6.3"/><path class="zc-2" d="M632.7 622.6c9.4 108.6 8.8 220.1 28.8 330.2M418.1 482.2l235.5 15.9"/><path class="zc-2" d="M799.4 736.5c-74.3 4.6-143.2 5.8-216.2 6-9.8 14.5-22.4 14.1-28.5 3.3"/><path class="zc-3" d="M274.9 453.3c-.5 33.5-2.7 66.9-6.3 100.1l251.2 12m-67.1-.2q.3 68.4-1.8 136.7l98.6 8.1"/><path class="zc-3" d="M507.4 662a1249.5 1249.5 0 0 0 5 129.8m-91-360q-8.1 123.3-12.5 246.9m13.6-203.4c77 7.5 154.2 14 231.4 18.3M494.5 237.3C488.5 290 484 343 481 396m8-61.3c25.8 2.9 51.7 5 77.7 6.1M383.3 303c-2.1 35.5-4.7 70.9-7.6 106.3"/><path class="zc-3" d="M380.9 374.1c78.1 1 159.3 6.7 234.6 6.7m45.3-128.7A2110 2110 0 0 0 626 596.9"/><path class="zc-3" d="M791.1 434.5c-61.8-5-119.4-6.7-181.8-11.7"/><path class="zc-3" d="M721.5 403.7q-16.7 116.1-25.2 233.1"/><path class="zc-3" d="M783.7 620.7a1735.9 1735.9 0 0 1-224.6-4.1m79.1 6.9c10.7 106.6 7.9 214.6 26.8 320.1"/><path class="zc-3" d="M796.7 732.4c-76.7 2.3-144.6 2-217.1 4.1m-163.8 95.1c-.3-29.8.2-59.5 1.4-89.3m.5 39.6c58.5 0 115.7-.5 175.3-.5"/><ellipse class="zc-3" cx="577" cy="339.7" rx="10.4" ry="14"/><ellipse class="zc-3" cx="598.3" cy="420.8" rx="10.9" ry="16.7"/><ellipse class="zc-3" cx="374.9" cy="421" rx="11.1" ry="11.7"/><circle class="zc-3" cx="538.2" cy="565.4" r="17"/><ellipse class="zc-3" cx="564.5" cy="737.8" rx="13.3" ry="12.4"/><ellipse class="zc-3" cx="606.2" cy="781.9" rx="11.6" ry="11.7"/><circle class="zc-3" cx="722.4" cy="384.6" r="16.2"/><circle class="zc-3" cx="408.9" cy="694.8" r="15.2"/><ellipse class="zc-3" cx="508.6" cy="648.7" rx="13.4" ry="11.1"/></g><style>.st40{fill:none;stroke:#000;stroke-width:10;stroke-linecap:round;stroke-linejoin:round;stroke-miterlimit:10}.st98{opacity:.6;enable-background:new}</style><g id="Outline"><path class="st98" d="M793 537c-1 .7-1 2-.5 3 5 10 11 35 25 30 8-2 21-13 18-22.4-.5-1-2-2-3-1.5-26 12-28-11-39-9.4v.3zm-34 274.5c6 5 26 8 25-3-6-7-20.6-12-21.5-26C750 772 744 803 759 811.5zm-219.3 52s1 .5 1 .8c9 13.5-3 36-18 40-34 6-9-6-6-44 .3-5.3 22.3 2.7 23 3.2zM342 731c5 7-4 22-4 33 8 13 29.6-5 33-14.9 2-12-17-21-28-20.2-1 .1-1 1.1-1 2.1zm31-120.2c2 23-8 47-26 61.9-13 10.9-17.5-30.6-8-27.9 6 4.2 28-18.8 34-34zm-157-59.9c-8 6-17 3-25 1-11 5 4 20 13.5 16 5-4 12-9 12-15.7-.5-.2-1.5-.2-.5-1.3zM337 473c-6-10-3-23 0-34 0-1 0-2-.6-2-9-9-23 11-19.8 20.7C318 463 338 475 337 472.8v.2z"/><path class="st98" d="M326 392c-2 29 24 45 7 44-7 2-14 1-15 11-1 11-24 0-24.5-1.3C285 433 317 404.5 326 392zm103-118c-9.9-4-16-16-18-25-4-6-9.9 1-11 6-7 54 29.5 28 29 19zm293 9c16 21 29.5 12 40 20.7 3 4 1 9.6-1 14-3 9-13 9-20 4.1-14.5-5.8-22-22.2-19-38.8z"/><path class="st40" d="M347 729c53.5 5 15 86 59 102 25 9 37-19.8 55-11.9 23 10.1 19.6 40 24 60.7 9.6 46 63 29.6 58-12.8"/><path class="st40" d="M519 861c89-9 47.5 119 114.5 115 39-6 35-47 25-76.5-3-9 0-18.5 7-24.5 24.5-21 59 15.5 84-2.5 15-11 8-33-2-45-12-15 0-32 10-43"/><path class="st40" d="M790 539c53 69.8-64 71 8 194.5 6 14 11 32 11 48.5 0 32-49 47.5-61 16"/><path class="st40" d="M721 287c2 51 64 31 74 88 6 34-11.5 71 7 103 10 18 27 31.5 34 51 8 19-4 47-27 42"/><path class="st40" d="M407 290.6c-16-8-12-29.9-2-41 17-15 40.5-10 61-6 29.8 1 49-29 75-38 50-17 81 55 133 44 23-5 48-11 69 1 25 14 33 55 10 75"/><path class="st40" d="M428 278c-16 26.5-51 17.5-76 28.5-20 10.5-28 33-23 55 10 47-43 51-39 88m25 4.5c1.5-23 35-26 41-5 7 25-13 47 16 72"/><path class="st40" d="M334 476c-20-34-61-31.5-89-9.6-20 8-43-3-64 4-22 7-28 37-5 43.5 6.5 2 23-2 26-1 15 4 11 25-5 30-21 6-10 29 6 29"/><path class="st40" d="M216 554.5c-15 15-14 41 2 55 37 22 41 31 36 69.7-2 31 46 41 53.5 10 2-10.8-4-22 0-33 13-32 44 20 62-44.5"/><path class="st40" d="M327 647.9c25 29.7-.5 47-7 75-10 32.5 34 65 53 25"/><path d="M729 262.5c9 4 16 13 18 22.5m-193-68c12.5 2 24.5 8 34 16m9 9 3 3m-163 10c-5.5-.9-12 .6-15.5 4M362 319.6c-9 2-14 10.7-16 19M339 449c4 1 6 6 6 9.8M308.5 470c-12-6-16-5-22-4M175 492c1-4 5-7 9-7.5m38 89.5c-4 8 0 16 4 19.9m44 78.6c-1 6 1 15 9 18m76-77.5c-3 14-13 14.5-16 16m4.5 119.5c-5-3-9-9-8-15M397 782c-1 14.5 7 28 14 30m90 53.9c-3 12 2 27 14.5 25M636 957c14-3 17-28 11-38m96-60.1c1-7 0-14-4-19m46-49.1c8-6.5 9-25 3-39M786 582c5-8 3-19-3-26m37-12c2-8.5-.6-18-7-24m-56-169c18 6 22 30 21 35" style="opacity:.7882;fill:none;stroke:#fff;stroke-width:10;stroke-linecap:round;stroke-linejoin:round;stroke-miterlimit:10;enable-background:new"/></g><style>.st40,.st68{fill:none;stroke-width:10;stroke-linecap:round;stroke-linejoin:round;stroke-miterlimit:10;stroke:#000}.st68{opacity:.6;enable-background:new}</style><g id="Eye_Mouth"><path d="M553 707c-22 9-41.5 19.6-59 36.5C619.8 856 553 707 553 707zm72 20c0-13-19-18-27-6-2 1 16.5 46 27 5.6v.4zm28-33c3 18-2 56 13 67.5 88-58.5-2-67.5-13-67.5z" style="fill:#fff"/><linearGradient id="SVGID_00000135662984397971047570000016405347921401767057_" gradientUnits="userSpaceOnUse" x1="562.708" y1="-326.584" x2="588.711" y2="-216.569" gradientTransform="rotate(3.292 -17168.273 890.9) scale(1.00005)"><stop offset="0" style="stop-color:#ff0062"/><stop offset="1" style="stop-color:#ff9d00"/></linearGradient><path style="fill:url(#SVGID_00000135662984397971047570000016405347921401767057_)" d="M590.5 741.5c-6-16 18-46 32-27-6.5 113 51 51 40 39-19.8-22 24-98-102-49.5 3.5 142 54.5 73.5 30 37.5z"/><path d="M600 785c-17-46 9-78.5 28-2.8l-28 2.6v.2z"/><path class="st40" d="M721 722c-73.5-57-177-29.7-239.7 30"/><path class="st40" d="M708 714.9c-39 85-154 98-216 30"/><path class="st40" d="M560 704c-13 27 20 51.5 8.5 79m76-92c20 17.5 0 53 21 70M596 785c10-17-5-35-3-52.5 1-11 13-28 26-19 18 12-14 39 12 66"/><path class="st40" d="M597 722c-4 11 11 23 21.5 22.5m-123.5-38c-53 44-63.5 67 6 99m174.5-142c134 42 81 79.6 27 123"/><path d="M637 702.5c3 4 5 9 4 14m1 11.5v3" style="fill:none;stroke:#fff;stroke-width:10;stroke-linecap:round;stroke-linejoin:round;stroke-miterlimit:10"/><path class="st68" d="M493 706c-63.5 36-67 76 6 100.9M677 662c47 12 161 37 29 127"/><path class="st68" d="M484.5 749.9c63 68 188 59.8 228-28"/><path class="st68" d="M553 708.5c-13 23 16 47 11 74"/></g><defs><linearGradient id="zf" x1="420.51" y1="545.37" x2="607.38" y2="545.37" gradientUnits="userSpaceOnUse"><stop offset="0" stop-color="#00d4ff"/><stop offset="1" stop-color="#2a00ff"/></linearGradient><linearGradient id="zf-2" x1="606.81" y1="515.34" x2="752.7" y2="515.34" xlink:href="#zf"/><style>.zf-2,.zf-5{stroke:#000}.zf-2,.zf-5,.zf-6,.zf-7{stroke-linecap:round;stroke-linejoin:round}.zf-2,.zf-5,.zf-6{stroke-width:10px}.zf-2,.zf-5,.zf-6,.zf-7{fill:none}.zf-2{opacity:.6}.zf-6,.zf-7{stroke:#fff}.zf-7{stroke-width:8px}</style></defs><path d="M488.4 466.9c-32.4 16.3-2.2 43.7-2.5 67.8-.2 15.5-5.3 32.3 3.5 46.2 24.7 38.8 74.6-.8 48.1-34.8-12-15.5-20.5-23.5-15.7-44.1s-12.4-45.7-33.4-35.1Zm157.5 7.3c7.9 26.5 21.5 11.9 13.8 58-7.3 43.6 58.7 29.1 38-5.9-26.3-44.6 13.4-53-15.4-79.6-20.3-18.9-41.9 9-36.4 27.5Z" style="stroke-width:10px;stroke-linecap:round;stroke-linejoin:round;stroke:#000;fill:#fff"/><path class="zf-2" d="M439.3 457.5c-29.7 23.6-2.9 58.7-9.5 84.3-5.8 22.7-29.4 47.7 2 57.7m20.2.8c3 11.9 15.1 17.2 25.6 21.8s13.6 14.2 18.9 22.5c13.3 20.5 48 25.8 63.6 4.3M615.6 431c-34.9 41.4 16.7 86.3 4.3 131.1-2.9 10.6-8.6 27.8 4.9 32.8m26.3-.8c9.4 15.1 23.9 40.6 48.4 31.2m26.2-51.4c6.2 2.5 14.8-.3 19.3-5.3m-269.3-97.3c-14.4 19.2 2.4 40.2 4.4 60.3 1.3 14.1-1.7 28.6 2.1 42.6 5.2 19.2 29 35.2 45.5 19.8M650 444c-20.3 25-4 35 4.7 58.5 5.3 14.4-2.9 30.8 1.7 45.2s22.2 19.7 33.1 9.5"/><path d="M484.2 473.3c-18.7 19.5 20.1 57.9 33.7 28.5-1.7 28.3 17.1 39.2 13.1 41.5-25.4 14.5-56.6 16.7-44.9-10.9-2.9-20-24.5-42.8-1.9-59.1ZM653 455.1c-11.2 24.3 27.5 38.1 36.2 14-2.3 11-3.2 23.2-1.7 34.3 3.5 13.5-14.9 11.9-23.2 10.3-.8-20.7-29.1-37.9-11.3-58.6Z"/><path d="M587.1 515.8c32.4-20.1-20.4-36.3-28.1-50.3-10.2-18.7-26.4-31.5-43-33.2-42.2-4.2-93.3 23.3-85.5 68.1 10.7 61.2-5.5 49.5-9.7 74.9-3.2 19.5 18.8 36.7 34.3 20.7 1.1 13.1 34.9 22.4 52.8 54.5 16.9 14.7 43.6 8.6 57-8.2 15.5-19.5-4.4-33 17.8-74.2 51.7 0 6.4-38.9 4.4-52.3Z" style="fill:url(#zf);opacity:.64"/><path d="M724 565.8c56 15.1 14.3-41.8 5.7-60.3-15-32.3 5.3-74-34.3-93.3-41.2-20.1-102.9 21.3-85.6 68.4 28.3 76.9 12.8 81.5 10.3 98.2-3 19.6 20.3 28.7 31.6 11.5 45.9 63.5 78.8 25.6 72.3-24.5Z" style="fill:url(#zf-2);opacity:.64"/><path class="zf-5" d="M453.9 595.7c-14.3 16.3-36.3-.9-33.1-20.4 4.2-25.4 20.4-13.7 9.7-74.9-7.8-44.8 43.3-72.3 85.5-68.1 16.6 1.7 32.8 14.5 43 33.2 7.7 14 22.5 13.6 31.6 22.7s5.8 21.8-3.5 27.6m57.7 65.9c17.8 11.1 19.5 33 37.2 40.2s38.4 2.3 41.1-24c1.7-16.6-4.6-36.3 7.6-50.2"/><path class="zf-5" d="M724 565.8c13.1 13.8 31.5 0 28.6-16.6s-17.9-28-22.9-43.7c-10.7-34 5.3-74-34.3-93.3-41.2-20.1-102.9 21.3-85.6 68.4 28.3 76.9 12.8 81.5 10.3 98.2-3 19.6 20.3 28.7 31.1 11.7m-201.3-13.6c9.9 18.5-.2 31 26.9 39.8 22 7.2 16.7 35 47.4 41.8 23.9 5.2 52.4-14.7 47.3-39.2-6.3-29.6 22.8-53.3 4.3-74.2"/><path class="zf-5" d="M582.7 566.7c10.8 4.1 23.2 0 23.2-16.7 0-21.4-24.8-26.2-30.1-46"/><path class="zf-6" d="M510.5 446.1a21.6 21.6 0 0 1 12 3.8 53.4 53.4 0 0 1 9.4 8.4m9.2 11 2.1 2.7"/><path class="zf-2" d="M576.8 503.7a14.6 14.6 0 0 0 10.2 7M575.4 544c9.7 4.2 8.7 17.6 17.3 22.7m-144 10c.2 8.2-.2 17.2-5.6 23.8m201.1-18.4c-1.4 5.6-3.2 11.9-8.2 15.3m95-49a25.7 25.7 0 0 0 .3 20.7"/><path class="zf-6" d="M681.7 423.8c14.2 1.8 23.6 15.2 25.7 28.6m2.2 14.1-.1 3.6"/><path class="zf-7" d="M739.5 557.6a12.1 12.1 0 0 0 1.9-7.9"/><path class="zf-6" d="M711.1 591.4a22 22 0 0 1-9.2 18.4m8.7-29.3-.4-2.5"/><path class="zf-7" d="M632.1 582.7a17.1 17.1 0 0 1 2.1-10.6m-57.4-80.6a16.7 16.7 0 0 1 6.5 5m3.2 40.3a23.4 23.4 0 0 1 6.2 10.9"/><path class="zf-6" d="M567.7 554.8c2.8 6.1 1.1 13.1-1.7 18.9m-4.9 11.7-.6 2.4m-2.2 35.9c0 8.7-7.6 15-15.2 17.9m-107.5-57.2a14.9 14.9 0 0 1 1.7-14.4"/><style>.st40{fill:none;stroke:#000;stroke-width:10;stroke-linecap:round;stroke-linejoin:round;stroke-miterlimit:10}</style><g id="Galaxy_Crown"><linearGradient id="SVGID_00000129190531900010010780000008211493552199069579_" gradientUnits="userSpaceOnUse" x1="495.731" y1="1031.076" x2="535.731" y2="648.076" gradientTransform="matrix(1 0 0 -1 0 1100)"><stop offset="0" style="stop-color:#ffea00"/><stop offset=".093" style="stop-color:#ffe302"/><stop offset=".23" style="stop-color:#ffcf07"/><stop offset=".395" style="stop-color:#ffae10"/><stop offset=".581" style="stop-color:#ff801d"/><stop offset=".786" style="stop-color:#ff452d"/><stop offset="1" style="stop-color:#ff0040"/></linearGradient><path style="fill:url(#SVGID_00000129190531900010010780000008211493552199069579_)" d="M298 414c149.8-77 330-85 494-62 6-85-26-182-88-242-3 27-13 53.5-28 76-26-7-53-48-58-61.8-7 17-16 51-31 61-11 0-21.5-.8-31 8-24-29.7-45-62-62-97-13 33-24 67-39 99.2-31 20.9-60-15.5-75-32-6 22-9 53-26 69-14-2-29 4-33 19-28-9-52-29-74-46.9-13 73.5 15 143 51 209.5z"/><path d="M577.5 217c-6-10 3-37.5 16-21.9 7 19 4 41 14.5 58 23 36 60 3 46-30.8-6-39 1-29 15-25.5 6-4 3-17-3.5-17.9-30-6-32-43-50-56-29.9 106-39.6 38-56.5 74m-204 61.6c-24.5-13-17-43 9.5-17 19.5 13.5 45 89.9 74 52 17-22.5-25-87.5 6-79.3 0-12 15-15-9.6-12-20.7-5-39-20.6-54-35-11 30-17 64-29 62-15-3-29.8 10-29 25" style="opacity:.6;enable-background:new"/><linearGradient id="SVGID_00000019662561078124328900000009874137589085370762_" gradientUnits="userSpaceOnUse" x1="484.984" y1="845.11" x2="541.002" y2="845.11" gradientTransform="matrix(1 0 0 -1 0 1100)"><stop offset="0" style="stop-color:#00ffb7"/><stop offset="1" style="stop-color:#0048ff"/></linearGradient><path style="fill:url(#SVGID_00000019662561078124328900000009874137589085370762_)" d="M486 258c-4-33 5-61 20-62.8 15-2 30 23.5 34 56.4s-5 61-20 63c-15 1.4-30-23.6-34-56.6z"/><linearGradient id="SVGID_00000159439059309634084680000001970710607329571458_" gradientUnits="userSpaceOnUse" x1="288.032" y1="774.971" x2="338.199" y2="774.971" gradientTransform="matrix(1 0 0 -1 0 1100)"><stop offset="0" style="stop-color:#00ffb7"/><stop offset="1" style="stop-color:#0048ff"/></linearGradient><path style="fill:url(#SVGID_00000159439059309634084680000001970710607329571458_)" d="M294 332.5c-8-22-6-44 5-48 10.9-4 26 11 35 33 8 22 6 44-5 48-12 4.2-27-10.5-35-33z"/><linearGradient id="SVGID_00000124848668680866045530000001350187592146382249_" gradientUnits="userSpaceOnUse" x1="699.174" y1="843.9" x2="746.034" y2="843.9" gradientTransform="matrix(1 0 0 -1 0 1100)"><stop offset="0" style="stop-color:#00ffb7"/><stop offset="1" style="stop-color:#0048ff"/></linearGradient><path style="fill:url(#SVGID_00000124848668680866045530000001350187592146382249_)" d="M701 259.5c-3.5-26 3-48 15-49.8s25 17.5 29 43c4 26-3 48-15 49.8s-25.5-17.5-29-43z"/><path d="M701 234c1 17 21 48 40 44 12-84-40-74-40-44.2v.2zm-211.1 29c12 18.5 37.5 21 49 12 5.1-112.5-68.9-90-49-12zM294 292.9c-13 22 14 58 39 49.6 13-12.7-23.3-76.5-39-49.6z" style="opacity:.3098;fill:#fff;enable-background:new"/><path class="st40" d="M300 414c-40.7-57-62-147-54-214 29 29 63 59 106 61"/><path class="st40" d="M324 253c-3-9 4-18 13-20.7 46-7 49 69 89 70.5 26.5 1 9.8-53 5-69.9-4-14-.9-39 20.5-32"/><path class="st40" d="M446 214c19-39 32-82 49-122 18 45 46 88 79 125"/><path class="st40" d="M559.9 198c4-15 24-16 32-3 12 21 6 49 24 67s43 4 42-20.5c1-17-12.5-33-9-50 2-10 19.7-16 24-5"/><path class="st40" d="M671 196.5c15-29 26-61 32-93 54 65 95 157.5 90 249-163-23-335-15-493 61M356.5 232c9.9-23 19-46 22-70.7 3 1 12.5 24 52 43"/><path class="st40" d="M586.5 187c14.5-19.8 22-44 29.5-67 14 31 17 34 39.5 58.5"/><ellipse transform="rotate(-6.735 513.282 255.02)" cx="513" cy="255" rx="27" ry="60" style="fill:none;stroke:#000;stroke-width:9.9999;stroke-linecap:round;stroke-linejoin:round;stroke-miterlimit:9.9999"/><ellipse transform="rotate(-20.437 313.317 325.182)" cx="313" cy="325" rx="21" ry="43" style="fill:none;stroke:#000;stroke-width:10.0005;stroke-linecap:round;stroke-linejoin:round;stroke-miterlimit:10.0005"/><ellipse transform="rotate(-8.378 722.899 256.192)" cx="723" cy="256" rx="22.5" ry="47" style="fill:none;stroke:#000;stroke-width:9.9997;stroke-linecap:round;stroke-linejoin:round;stroke-miterlimit:9.9997"/><path d="M289 290c-18 22 13 97 44 74m166-167.5c-43 16-7 159 30 113m182-99.7c-28.5 14-15 107 20.5 93m59.5 56.1c-163-26.5-331-7-483 59" style="opacity:.6;enable-background:new;fill:none;stroke:#000;stroke-width:10;stroke-linecap:round;stroke-linejoin:round;stroke-miterlimit:10"/><path d="M712 143.9c7 11 13 23 18 35m8 16.1 3 6m-242-64c4.5 11 9.6 21 15 30.9m10 11.1 3 4.5M260 242c0 14 2 28 6 42m1 14.5c0 2 .5 4 1 6m97-39.5c5.5 6 9.7 13 12 20m8 10 2 2m198-85c2 6 3 12 4 18m1.9 13 .6 2M771 279.8c2 14 3 29 3 43M723 229c5 8 8 16 9 25m1 12v6.5M513 219c5 9 9 19 9.9 29.6M526 263v5m-219 33c5 6 9 12 11.5 19m3.5 12 1 4.5" style="fill:none;stroke:#fff;stroke-width:10;stroke-linecap:round;stroke-linejoin:round;stroke-miterlimit:10"/></g><circle cx="550" cy="550" r="500" style="fill:none;stroke:#000;stroke-width:10;stroke-linecap:round;stroke-linejoin:round;stroke-miterlimit:10"/></svg>