<svg version="1.1" id="Layer_1" xmlns="http://www.w3.org/2000/svg" x="0" y="0" viewBox="0 0 1100 1100" style="enable-background:new 0 0 1100 1100" xml:space="preserve" xmlns:xlink="http://www.w3.org/1999/xlink"><path d="M50 550C50 274 274 50 550 50s500 224 500 500S50 826 50 550z" style="fill:#0090ff"/><path d="M1050 550c0 276-224 500-500 500S50 826 50 550s1000-276 1000 0z" style="fill:#06f"/><path d="M533 209.1c-68 59.6-71 20-121 36.5-19.6 10.9-14 30-9.7 39.6 11 23-51 9-69 40.3-10 18 .1 42-7.5 61.8-9 19.6-34 35-37 52.2-43 48-154 7-119 70.4 6 11 33-6 39 9.1 7 17.5-39 29-21 46.7 18 5 21 39.9 57 63.2 14 20 3 51 19 69.1 35.8 38 46-25 41-34.3 4-39 44-11 22 38.7-23 52 11 74 36.5 56.6 24-9 13 39 23 50.9 19.5 37 55 12 67 12 18 1 28 22 29.8 40.3 6.5 63 54 46 59 8 15.5-34 45 49 47 59.9 11 73 69 42 71 17.9 3-54-3-60.1 2-68.3 18.5-31 71 13 90.8-15.5 14-19.7-31-63.5 8-55.4 94 19 19-101 14-120.4-9-35.5 14-106 47-121.7 18-9 17-35.5 7-52.8-9.5-17-25-30.6-31-48.9-13.5-54 22-102-36-133.3-5-3-7-9.5-4-14.4 17-26 1-66-32-71.4-22-3-44 9-66.5 6.3C616 247 579.9 178 533 209.1z" style="fill:#e80068"/><style>.st40{fill:none;stroke:#000;stroke-width:10;stroke-linecap:round;stroke-linejoin:round;stroke-miterlimit:10}.st98{opacity:.6;enable-background:new}</style><g id="Outline"><path class="st98" d="M793 537c-1 .7-1 2-.5 3 5 10 11 35 25 30 8-2 21-13 18-22.4-.5-1-2-2-3-1.5-26 12-28-11-39-9.4v.3zm-34 274.5c6 5 26 8 25-3-6-7-20.6-12-21.5-26C750 772 744 803 759 811.5zm-219.3 52s1 .5 1 .8c9 13.5-3 36-18 40-34 6-9-6-6-44 .3-5.3 22.3 2.7 23 3.2zM342 731c5 7-4 22-4 33 8 13 29.6-5 33-14.9 2-12-17-21-28-20.2-1 .1-1 1.1-1 2.1zm31-120.2c2 23-8 47-26 61.9-13 10.9-17.5-30.6-8-27.9 6 4.2 28-18.8 34-34zm-157-59.9c-8 6-17 3-25 1-11 5 4 20 13.5 16 5-4 12-9 12-15.7-.5-.2-1.5-.2-.5-1.3zM337 473c-6-10-3-23 0-34 0-1 0-2-.6-2-9-9-23 11-19.8 20.7C318 463 338 475 337 472.8v.2z"/><path class="st98" d="M326 392c-2 29 24 45 7 44-7 2-14 1-15 11-1 11-24 0-24.5-1.3C285 433 317 404.5 326 392zm103-118c-9.9-4-16-16-18-25-4-6-9.9 1-11 6-7 54 29.5 28 29 19zm293 9c16 21 29.5 12 40 20.7 3 4 1 9.6-1 14-3 9-13 9-20 4.1-14.5-5.8-22-22.2-19-38.8z"/><path class="st40" d="M347 729c53.5 5 15 86 59 102 25 9 37-19.8 55-11.9 23 10.1 19.6 40 24 60.7 9.6 46 63 29.6 58-12.8"/><path class="st40" d="M519 861c89-9 47.5 119 114.5 115 39-6 35-47 25-76.5-3-9 0-18.5 7-24.5 24.5-21 59 15.5 84-2.5 15-11 8-33-2-45-12-15 0-32 10-43"/><path class="st40" d="M790 539c53 69.8-64 71 8 194.5 6 14 11 32 11 48.5 0 32-49 47.5-61 16"/><path class="st40" d="M721 287c2 51 64 31 74 88 6 34-11.5 71 7 103 10 18 27 31.5 34 51 8 19-4 47-27 42"/><path class="st40" d="M407 290.6c-16-8-12-29.9-2-41 17-15 40.5-10 61-6 29.8 1 49-29 75-38 50-17 81 55 133 44 23-5 48-11 69 1 25 14 33 55 10 75"/><path class="st40" d="M428 278c-16 26.5-51 17.5-76 28.5-20 10.5-28 33-23 55 10 47-43 51-39 88m25 4.5c1.5-23 35-26 41-5 7 25-13 47 16 72"/><path class="st40" d="M334 476c-20-34-61-31.5-89-9.6-20 8-43-3-64 4-22 7-28 37-5 43.5 6.5 2 23-2 26-1 15 4 11 25-5 30-21 6-10 29 6 29"/><path class="st40" d="M216 554.5c-15 15-14 41 2 55 37 22 41 31 36 69.7-2 31 46 41 53.5 10 2-10.8-4-22 0-33 13-32 44 20 62-44.5"/><path class="st40" d="M327 647.9c25 29.7-.5 47-7 75-10 32.5 34 65 53 25"/><path d="M729 262.5c9 4 16 13 18 22.5m-193-68c12.5 2 24.5 8 34 16m9 9 3 3m-163 10c-5.5-.9-12 .6-15.5 4M362 319.6c-9 2-14 10.7-16 19M339 449c4 1 6 6 6 9.8M308.5 470c-12-6-16-5-22-4M175 492c1-4 5-7 9-7.5m38 89.5c-4 8 0 16 4 19.9m44 78.6c-1 6 1 15 9 18m76-77.5c-3 14-13 14.5-16 16m4.5 119.5c-5-3-9-9-8-15M397 782c-1 14.5 7 28 14 30m90 53.9c-3 12 2 27 14.5 25M636 957c14-3 17-28 11-38m96-60.1c1-7 0-14-4-19m46-49.1c8-6.5 9-25 3-39M786 582c5-8 3-19-3-26m37-12c2-8.5-.6-18-7-24m-56-169c18 6 22 30 21 35" style="opacity:.7882;fill:none;stroke:#fff;stroke-width:10;stroke-linecap:round;stroke-linejoin:round;stroke-miterlimit:10;enable-background:new"/></g><style>.st16,.st40{fill:none;stroke:#fff;stroke-width:10;stroke-linecap:round;stroke-linejoin:round;stroke-miterlimit:10}.st40{stroke:#000}</style><g id="Uhhh"><path d="M454 750c44 128 108 11 219.5 40 76 19.7 48-35-2.5-47.9-89 0 43 77-80.5-18.3-16 19-37.5 19-45.5-6-18 19.6-34 13-46 5-1-.8-3 0-3 1 0 21.2-24 27.2-42 26.2z" style="fill:#fe1767"/><path d="M462 774c6-15 91-49 167-19 2.5-13-29.5-23-39-35-7 23-37 17-48.5-4.9-1 16-22 32-45 3-4 29-19 35-46 29L462 774zm185 2c4-16 23-25 38-27-16-8-37-5-48 9.5l10 17.5z" style="fill:#ae0f45"/><path class="st16" d="M609 748.5c5 3 9.9 7 13 13m5 9.5c.5 1 1 2 1 2.5"/><path d="M622 740c19 37 31-26 106 38 59-75 17-63-1-91-18 49.8-38 12-46 2.6 0 27.5-16 45.5-38 19.9 2 14.5-8 22.5-21 30.5z" style="fill:#0a0a0a"/><linearGradient id="SVGID_00000139981180508707222230000012447543696721124522_" gradientUnits="userSpaceOnUse" x1="599.092" y1="-379.014" x2="612.092" y2="-295.014" gradientTransform="translate(0 1066)"><stop offset="0" style="stop-color:#17dcff"/><stop offset="1" style="stop-color:#3a17ff"/></linearGradient><path style="fill:url(#SVGID_00000139981180508707222230000012447543696721124522_)" d="M453 740.5c16 23 48.5 4 43.5-21.5 19 27 42 19.8 49-9.9 9 59.6 39 13 46 6.9 22 55 46 .5 52-10.5 14 38 30.9-1 38-14 13 29.5 37 17 46-7.5 3 10 15.5 29 26 18 6-21-19.5-76-88.5-30.2-71 71.2-205.1-44.8-212 68.7z"/><path d="M465 706c-1 14 4 29.9 16 38-18 8-29.6-3-30.8-9m67.8-48.1c-8 14-4 32 4 45.5-19-3-25-28-27-44m71 8.6c-4.5 12-4 26 1 38-16-5-20-26-19.8-41.5M611 700c-5 13 3 26 10 36-17.5 4-27-19-28-33m61-22c-2 14 5 27 14.5 36.5-16 3.5-25-15-28-28v1M699 656c-4.5 18 0 37 11 52-20 .5-27-30-27-46m51 3.5c-11.5 39.7 35 55 18 14" style="opacity:.6;enable-background:new"/><path class="st16" d="M676 758c9 2.5 15 9 21 16 0 0-.5 0-.7-.5"/><path d="M718 673c0 6-2 11.5-4 17m-2 5c0 .9-1 2-1 3m-40-15c0 6-1 13-3 19m-37 6c-.5 6-3 11-6 16m-43-13.5c-1 4-3 8-6 11m-4 4.4c0 .5-1 .9-1.5 1M536 704c-1 6-3 11-6 16m-5 4s0 .6-.5.8M485 709c.5 7-1 14.5-3 21m-3 5c0 .8-1 1.5-1 2" style="fill:none;stroke:#fff;stroke-width:5;stroke-linecap:round;stroke-linejoin:round;stroke-miterlimit:10"/><path class="st40" d="M487 688.5c-54 14-41 93-2 116 39.5 23 84-15 126-19 30.6-3 61 13 91 7.7 54-9.8 68-99 38.5-125-38-34-84 9-96 16C577 725 549 672 487 688.5z"/><path class="st40" d="M451 738.5c9 20 57 20 40-49.9 14 78 59 42 52 3 6 77 54 37 47.5 11.3 4 56 61 41 47-13.5 12 48 49 41.5 42-24 5 64 47 59 49-2.9 1 13-2 24 7 35.8 4 5.5 12 8 18 5"/><path class="st40" d="M614 738.5c14 8 25 22 31 37"/><path class="st40" d="M635 757c12-14 55-27 89 24"/><path d="M457 705c-34 39 3 109 51 113.5 39.9 4 76-30 116-27.9 43 6 84 25 115-19" style="opacity:.6;fill:none;stroke:#000;stroke-width:10;stroke-linecap:round;stroke-linejoin:round;stroke-miterlimit:10;enable-background:new"/></g><style>.st16,.st40,.st68{fill:none;stroke:#fff;stroke-width:10;stroke-linecap:round;stroke-linejoin:round;stroke-miterlimit:10}.st40,.st68{stroke:#000}.st68{opacity:.6;enable-background:new}</style><g id="visor"><path class="st68" d="M425 452.5c-10 10-4 21-3 34 1 17.5-25 17-23 50.8 2 14 13.5 16 23 23.7 16 13-12 46.5 10.5 59 28 9 30-39 60.5-13 35 26 45-3 76-1 14 3 23 19.6 37 17.6 15-2 18-20 26-30.7 12-16 32 5 58-7 14-7 10.8-31 27-33 10-1 22-7 25-17.8 1-4 .7-9 3-11.9 3-4 9-5 11-9"/><path class="st68" d="M483 474c-28 10-52 59-14 72m214-104.1c32-1 53 43 26 64m-216 .1c-38 74 159 54 184 5"/><path d="M667 467c-60.6-40.6-281 59-113 83.5 33 5 185.5-41 113-83.9v.4z" style="fill:#fff"/><linearGradient id="SVGID_00000094605671738681660570000007936507584095639945_" gradientUnits="userSpaceOnUse" x1="531.586" y1="652.528" x2="653.586" y2="545.528" gradientTransform="matrix(1 0 0 -1 0 1100)"><stop offset="0" style="stop-color:#7b00ff"/><stop offset="1" style="stop-color:#ff0084"/></linearGradient><path style="fill:url(#SVGID_00000094605671738681660570000007936507584095639945_)" d="M550 467.8c-14 18 11 55 13 77 5 7 19.7 5 25-2 12-19.9-19.5-44-2-62 34-18 16 44 33 54.9 14 3 24-5 18-20-3-15 7-32-2-46-17-26.7-57-6.7-85-1.9z"/><path class="st16" d="M616 472c4 3 6.5 7 7 12m1 11v3"/><path d="M589 509.6c-6 26 3 45 25 27.9 4-17.5-4-37.8-25-27.9z"/><path class="st40" d="M623 456c-34 1-67 9-98 22.5-39.6 17-51 50.7-3 66 40 13 129-5.8 157-37.4 27-31.1-23.5-52.1-56-51.1zm-138 18c-20 15.5-47 54-14 71m210-103.1c29 12 42 36.5 27 65"/><path class="st40" d="M548 470c-15 25 21 51 15 75m57-87c33.5 21 8 44.5 21 70m-51.3 15c6-24-26-55-1-64 30-4 16 42 30.5 58"/><path class="st40" d="M580 500c4 9 19.8 11 27 7"/><linearGradient id="SVGID_00000036223863161345539850000005378798673148752026_" gradientUnits="userSpaceOnUse" x1="447.777" y1="687.666" x2="720.78" y2="506.665" gradientTransform="matrix(1 0 0 -1 0 1100)"><stop offset="0" style="stop-color:#ff002b"/><stop offset="1" style="stop-color:#ffd500"/></linearGradient><path style="opacity:.6902;fill:url(#SVGID_00000036223863161345539850000005378798673148752026_);enable-background:new" d="M490 437.6c-27-5-59.5-2-69 27.5-2 8 6.5 14 8.5 23-13 13.5-31 37-21 56 17 16 28 12 22 41.3-4 12 0 36 16.5 28 24-20.5 25-38 55-9.8 36 21 42-28 89 4.9 5 3 10.5 7 16 5.2 5-1 9-7 10.9-11.5 19.7-55 51 4 78-31 18-41 36-9 44-50 9-8 22-7 24-22.2 3-23-25-35-31-54.5-6-26 13-63-29-63-42 9.6-31 58-93 33-71-35-61.4 34.5-120.9 23.1z"/><path class="st16" d="M713 395c6.5 2 9 9 9 15m-2 13v2m26.5 60c3 3 5 8 5 13m-183-80c6-3 13.5-1 19 2m12.4 4 2.1 1m-121.5 25c-7-1-15-1-22 0M726 523c1 4 0 8-2 11m-36 27.5c-2 4-4 9-9 10.6m-12-.1h-2m-56 21c-1 3-3.5 6-5.5 9M535 592c-4 4-10 5-16 5m-11-4-2-1m-65-1.3c-1.5 3-2 7-.5 10M427 513c-4 4-6 9-7 15m-.3 10.5.3 1.5"/><path class="st68" d="M737.5 501c3 7 11 11.5 19 10.6M449 464c-5 6-13 10.9-21 13"/><path class="st40" d="M449 464c-9 26-42 39-44 68-1 8 4 17 12 19 6.5 2 13 3 15 9.8 5 16-13 44 5.5 52 24 11 23-43 58-14 45 37 47-28 95 11 27 22 25-16 40.8-28.5 15-12 35 8 52 2 15-5 15-24 24-33 7-5 17-2 23-7 14-9.6 4-29.9 7-44"/><path class="st40" d="M431 486c-24-21 3-49.7 29.8-49.5 24-2 56 9.6 74-10 39-42 61-9.7 103-5.2 46.5 2 39-48.5 78-39.5 29 11 16 33 17 56 1 18 19 29.5 27 44.9 10 16 0 42.5-21 33"/></g><style>.st40{fill:none;stroke-width:10;stroke-linecap:round;stroke-linejoin:round;stroke-miterlimit:10;stroke:#000}</style><g id="Gold_Headband"><linearGradient id="SVGID_00000134236501401383457500000003505018008553449115_" gradientUnits="userSpaceOnUse" x1="264" y1="774.579" x2="818" y2="774.579" gradientTransform="matrix(1 0 0 -1 0 1100)"><stop offset="0" style="stop-color:#fffb0a"/><stop offset="1" style="stop-color:#ff1f0a"/></linearGradient><path style="fill:url(#SVGID_00000134236501401383457500000003505018008553449115_)" d="M399 299.7c-73-.5-73 32-77 92.9 61-36 73-9.8 132.5-20.7 32-9 57-44 89.5-39 102 15.8 37 32 125 2 35-12 82 36 114 9.6-56.5-31-5.5-15-16-56-9.8-52-39.6-25-68-7-17 7-37.5.6-55 7-79.7 29-68-8-123 9.9-41.1 13.6-88 40.6-122 1.3z"/><path class="st40" d="M397 300.8c51 35 81 8 131-5 32-8 67 13 97 .7 36-19.6 30-4 63-12.7 22.5-6 33-25 59.6-24M323 394.5c48-44 82-9.6 130.6-23 40-11 59-52 108-35 54 19 45 21 99-1.4 38-16 83 36 120 9.9"/><path class="st40" d="M747 258c26.5 12 27 50 5 68 11 3 20.5 9.5 28 18m-383-44c-29.7-2-66 10.8-72.5 43-3 17 5 37-6 52"/><path d="M321 402.5c10.6-9 22-18 35-22 19.9-6 41 0 62 1 19.9 1 40-2 58-11.4 22-12 41-33 66-33 12 0 22 5 33 9.6 16 7 34 13 51 9.5 16-3 29.6-15 46-17.4 18-3 36 6 54 12.6s38 11 53.5 0" style="opacity:.6;fill:none;stroke:#000;stroke-width:10;stroke-linecap:round;stroke-linejoin:round;stroke-miterlimit:10;enable-background:new"/><path d="M745 276c7 5 9 16 5 23m-6 11.6-2 5.4m-358 0c-15 .8-29 9-38 20.6m-7 13.4-1 7m297-26c-7 5.5-16 8-24.5 7.5m-12.5-4.6c-2-.5-4-1-6-2M420 362c13 1 27-2 39-9" style="fill:none;stroke:#fff;stroke-width:10;stroke-linecap:round;stroke-linejoin:round;stroke-miterlimit:10"/></g><circle cx="550" cy="550" r="500" style="fill:none;stroke:#000;stroke-width:10;stroke-linecap:round;stroke-linejoin:round;stroke-miterlimit:10"/></svg>