<svg version="1.1" id="Layer_1" xmlns="http://www.w3.org/2000/svg" x="0" y="0" viewBox="0 0 1100 1100" style="enable-background:new 0 0 1100 1100" xml:space="preserve" xmlns:xlink="http://www.w3.org/1999/xlink"><style type="text/css">.st304{fill:#FF0A68;stroke:#000000;stroke-width:10;stroke-linecap:round;stroke-linejoin:round;stroke-miterlimit:10;}</style><circle class="st304" cx="550" cy="553.7" r="500"/><radialGradient id="a7" cx="580.189" cy="564.136" r="327.345" gradientTransform="matrix(1 0 0 1.2341 0 -131.758)" gradientUnits="userSpaceOnUse"><stop offset="0" style="stop-color:#20f"/><stop offset="1" style="stop-color:#ff00fb"/></radialGradient><path style="fill:url(#a7)" d="M534 210.7c-68 59.6-71 20-121 36.5-19.6 10.9-14 30-9.7 39.6 11 23-51 9-69 40.3-10 18 .1 42-7.5 61.8-9 19.6-34 35-37 52.2-43 48-154 7-119 70.4 6 11 33-6 39 9.1 7 17.5-39 29-21 46.7 18 5 21 39.9 57 63.2 14 20 3 51 19 69.1 35.8 38 46-25 41-34.3 4-39 44-11 22 38.7-23 52 11 74 36.5 56.6 24-9 13 39 23 50.9 19.5 37 55 12 67 12 18 1 28 22 29.8 40.3 6.5 63 54 46 59 8 15.5-34 45 49 47 59.9 11 73 69 42 71 17.9 3-54-3-60.1 2-68.3 18.5-31 71 13 90.8-15.5 14-19.7-31-63.5 8-55.4 94 19 19-101 14-120.4-9-35.5 14-106 47-121.7 18-9 17-35.5 7-52.8-9.5-17-25-30.6-31-48.9-13.5-54 22-102-36-133.3-5-3-7-9.5-4-14.4 17-26 1-66-32-71.4-22-3-44 9-66.5 6.3C618 249 581 179.7 534 210.7z"/><radialGradient id="b3" cx="576.431" cy="567.501" r="286.75" gradientUnits="userSpaceOnUse"><stop offset="0" style="stop-color:#ff00d0"/><stop offset="1" style="stop-color:#0073ff"/></radialGradient><path style="fill:url(#b3)" d="m339.9 679.6 457.5-205.8c84 96 24 91 9.9 104.2-70.1 128 5 134 1 195.7-149-156-336-279-473-446.5 0 83-16 63-47 126.1-56 20-102 17-102 16.7s-64 47 26 46.7c13 27.5-51 37-7 58.3 15 45 48 56 51 73.8 4 23-4 55.8 28 61.7 36 7 20.6-50.1 33-62.2 16.7-11.3 22.8 17.7 22.6 31.3z"/><style>.st40{fill:none;stroke:#000;stroke-width:10;stroke-linecap:round;stroke-linejoin:round;stroke-miterlimit:10}.st98{opacity:.6;enable-background:new}</style><g id="Outline"><path class="st98" d="M793 537c-1 .7-1 2-.5 3 5 10 11 35 25 30 8-2 21-13 18-22.4-.5-1-2-2-3-1.5-26 12-28-11-39-9.4v.3zm-34 274.5c6 5 26 8 25-3-6-7-20.6-12-21.5-26C750 772 744 803 759 811.5zm-219.3 52s1 .5 1 .8c9 13.5-3 36-18 40-34 6-9-6-6-44 .3-5.3 22.3 2.7 23 3.2zM342 731c5 7-4 22-4 33 8 13 29.6-5 33-14.9 2-12-17-21-28-20.2-1 .1-1 1.1-1 2.1zm31-120.2c2 23-8 47-26 61.9-13 10.9-17.5-30.6-8-27.9 6 4.2 28-18.8 34-34zm-157-59.9c-8 6-17 3-25 1-11 5 4 20 13.5 16 5-4 12-9 12-15.7-.5-.2-1.5-.2-.5-1.3zM337 473c-6-10-3-23 0-34 0-1 0-2-.6-2-9-9-23 11-19.8 20.7C318 463 338 475 337 472.8v.2z"/><path class="st98" d="M326 392c-2 29 24 45 7 44-7 2-14 1-15 11-1 11-24 0-24.5-1.3C285 433 317 404.5 326 392zm103-118c-9.9-4-16-16-18-25-4-6-9.9 1-11 6-7 54 29.5 28 29 19zm293 9c16 21 29.5 12 40 20.7 3 4 1 9.6-1 14-3 9-13 9-20 4.1-14.5-5.8-22-22.2-19-38.8z"/><path class="st40" d="M347 729c53.5 5 15 86 59 102 25 9 37-19.8 55-11.9 23 10.1 19.6 40 24 60.7 9.6 46 63 29.6 58-12.8"/><path class="st40" d="M519 861c89-9 47.5 119 114.5 115 39-6 35-47 25-76.5-3-9 0-18.5 7-24.5 24.5-21 59 15.5 84-2.5 15-11 8-33-2-45-12-15 0-32 10-43"/><path class="st40" d="M790 539c53 69.8-64 71 8 194.5 6 14 11 32 11 48.5 0 32-49 47.5-61 16"/><path class="st40" d="M721 287c2 51 64 31 74 88 6 34-11.5 71 7 103 10 18 27 31.5 34 51 8 19-4 47-27 42"/><path class="st40" d="M407 290.6c-16-8-12-29.9-2-41 17-15 40.5-10 61-6 29.8 1 49-29 75-38 50-17 81 55 133 44 23-5 48-11 69 1 25 14 33 55 10 75"/><path class="st40" d="M428 278c-16 26.5-51 17.5-76 28.5-20 10.5-28 33-23 55 10 47-43 51-39 88m25 4.5c1.5-23 35-26 41-5 7 25-13 47 16 72"/><path class="st40" d="M334 476c-20-34-61-31.5-89-9.6-20 8-43-3-64 4-22 7-28 37-5 43.5 6.5 2 23-2 26-1 15 4 11 25-5 30-21 6-10 29 6 29"/><path class="st40" d="M216 554.5c-15 15-14 41 2 55 37 22 41 31 36 69.7-2 31 46 41 53.5 10 2-10.8-4-22 0-33 13-32 44 20 62-44.5"/><path class="st40" d="M327 647.9c25 29.7-.5 47-7 75-10 32.5 34 65 53 25"/><path d="M729 262.5c9 4 16 13 18 22.5m-193-68c12.5 2 24.5 8 34 16m9 9 3 3m-163 10c-5.5-.9-12 .6-15.5 4M362 319.6c-9 2-14 10.7-16 19M339 449c4 1 6 6 6 9.8M308.5 470c-12-6-16-5-22-4M175 492c1-4 5-7 9-7.5m38 89.5c-4 8 0 16 4 19.9m44 78.6c-1 6 1 15 9 18m76-77.5c-3 14-13 14.5-16 16m4.5 119.5c-5-3-9-9-8-15M397 782c-1 14.5 7 28 14 30m90 53.9c-3 12 2 27 14.5 25M636 957c14-3 17-28 11-38m96-60.1c1-7 0-14-4-19m46-49.1c8-6.5 9-25 3-39M786 582c5-8 3-19-3-26m37-12c2-8.5-.6-18-7-24m-56-169c18 6 22 30 21 35" style="opacity:.7882;fill:none;stroke:#fff;stroke-width:10;stroke-linecap:round;stroke-linejoin:round;stroke-miterlimit:10;enable-background:new"/></g><linearGradient id="a10" gradientUnits="userSpaceOnUse" x1="242.469" y1="-542.713" x2="318.469" y2="-492.713" gradientTransform="translate(0 1066)"><stop offset="0" style="stop-color:#0f4"/><stop offset=".298" style="stop-color:#00e97f"/><stop offset=".781" style="stop-color:#00c8db"/><stop offset="1" style="stop-color:#0bf"/></linearGradient><path style="fill:url(#a10)" d="M279 499.3c-8 19.6-17 39-25 59 19 9.7 33 28 41 48 1-26 10.9-46 29-65-15-15.3-28-25.3-45-42.3v.3z"/><path d="M275.5 512c36 25 1 53 19 84 14-76 63.5-25-16-93.5" style="opacity:.4902;fill:#fff;enable-background:new"/><path d="M279 499c-8 19.6-17 39-25 59 19 9.7 33 28 41 48 1-26 10.9-46 29-65-15-15-28-25-45-42z" style="fill:none;stroke:#000;stroke-width:10;stroke-linecap:round;stroke-linejoin:round;stroke-miterlimit:10"/><path d="M274 498.5C264 519 255 540 248 562c21 7 34 27 45 45.5" style="opacity:.6;fill:none;stroke:#000;stroke-width:10;stroke-linecap:round;stroke-linejoin:round;stroke-miterlimit:10;enable-background:new"/><path d="M283 523c4.5 4 9 9 13 13m10 10c-.8-.6-2-1-2-2" style="fill:none;stroke:#fff;stroke-width:10;stroke-linecap:round;stroke-linejoin:round;stroke-miterlimit:10"/><style>.st40,.st68{fill:none;stroke-width:10;stroke-linecap:round;stroke-linejoin:round;stroke-miterlimit:10;stroke:#000}.st68{opacity:.6;enable-background:new}</style><g id="Happy_Beard"><linearGradient id="SVGID_00000012458921589117142250000001255892426965824154_" gradientUnits="userSpaceOnUse" x1="482.466" y1="444.183" x2="708.475" y2="85.169" gradientTransform="matrix(.9987 .05075 .05075 -.9987 14.064 1042.44)"><stop offset="0" style="stop-color:#00a2ff"/><stop offset=".654" style="stop-color:#aa36e8"/><stop offset="1" style="stop-color:#f0d"/></linearGradient><path style="fill:url(#SVGID_00000012458921589117142250000001255892426965824154_);stroke:#000;stroke-width:10;stroke-linecap:round;stroke-linejoin:round;stroke-miterlimit:10" d="M749.8 654c37 24 16.5 79 8.5 114-16 55 39 72 17 127.5-43-56-34 11-42 16.3-19-69-64-3-13 17.9-4 24-57-17-46 57.5-23-10.7-20.8-39.9-26-60.9-6-18-26-20.8-36-4.5-9.8 20.8-19 43-41 55 4-43-33-56-39-64.9-5-8-2-20.6-10-26-15-10-28 12-43 13.2 26-41-19.5-103-26-30-28-26-11-53-23-61-8-4-15 8-24 8 12.5-20.5-2-44-5-65.6-9-66 51.5-97 109-72.5 82 35 64-11 110-8.9 54 3 86-44 129-15.4v.3z"/><path d="M441 706c-36 33 0 64 9.9 68 44 21 49 42 67 62 28 26 56 18 87 2.2 19.5-9.9 43 1 65-1 30.6-3 59-32 55-64-6-46 7-36 20-56 8-12 1-29-10-37.3-33-22-53 13-81 19.5-12 2-24-4-36-4-24 0-45 44-112 4.9-22-13-48-10.7-65 5.3v.4z" style="fill:#fe1767"/><path d="M582 710.6c22.5 7 43 21 58 38.9 24-16 58-5 82 8-4-19 14-28 22-42.5 12-22-13-65-67-27.5-39 30.5-54-11.5-95 23.1z"/><path d="M629.8 745c-22-17-48-8-72-2.9-54 11-82-46-125-24 27-47 81-13 94-7.9C573 729 583 691 629.8 745zm26.2 40c2-22 25-37 46-37-17-14-45-9-62 3.6l16 33.4z" style="fill:#ae0f45"/><path class="st40" d="M441 706c-36 33 0 64 9.9 68 44 21 49 42 67 62 28 26 56 18 87 2.2 19.5-9.9 43 1 65-1 30.6-3 59-32 55-64-6-46 7-36 20-56 8-12 1-29-10-37.3-33-22-53 13-81 19.5-12 2-24-4-36-4-24 0-45 44-112 4.9-22-13-48-10.7-65 5.3v.4z"/><path class="st68" d="M433 710c-15 15-16 41-2 57 9.9 12 26 16 38 26 24.5 18 35 53 65 64.5 31 12 59-13 88-18 19.7-4 51 12 66-7m-264-153c-59 41-7 89-22 134"/><path d="M606 741c11 8 17 21 22 33m7 14 1 4m50-33c8 2 16 6 22 12.5m20-111.7c10 1 19.8 7 25 16m4 11.2 1 3.5M751.5 833c5 6 8 12.5 11 19.5M767 863l1 3m-171 56c-2 6-4 11-8 17m-6 10-2 2M448.5 817c-1 5 0 11 .5 16" style="fill:none;stroke:#fff;stroke-width:10;stroke-linecap:round;stroke-linejoin:round;stroke-miterlimit:10"/><path class="st40" d="M582 712c38 7.5 66 45 75 80.7M640 749c30-16 57-9 83 10.9"/><path class="st68" d="M731 897c.9-8.5 5-22 15-23m-48 21c-4 13 0 34 14 38m-59 19c3 9.5 9 18 16.5 24M487 861c4.5 11.5 7 19.9 3 29m-73-82c2-9 .7-22-7-28.5"/></g><defs><linearGradient id="ze" x1="411.69" y1="535.4" x2="547.43" y2="535.4" gradientUnits="userSpaceOnUse"><stop offset="0" stop-color="#0ff"/><stop offset="1" stop-color="#00f"/></linearGradient><linearGradient id="ze-2" x1="519.79" y1="532.03" x2="604.49" y2="532.03" xlink:href="#ze"/><linearGradient id="ze-3" x1="595.22" y1="562.5" x2="709.15" y2="562.5" xlink:href="#ze"/><linearGradient id="ze-4" x1="626.17" y1="477.22" x2="754.31" y2="477.22" xlink:href="#ze"/><style>.ze-2,.ze-7{stroke:#000;stroke-linecap:round;stroke-linejoin:round;stroke-width:10px;fill:none}.ze-2{opacity:.6}</style></defs><path d="M657.6 445.2c-10.2 14.7 7.8 30.8 24.5 35.3s22.5 22.4 36.9 28.4c40.5 17.2-18.5-125.4-61.4-63.7Zm-144.9 13.4c-23.1-10.5-70.3 84.4-73.7 106.9-6.5 43.3 40.7 62.5 34.9 3.1-3.1-31.3 82.8-90.1 38.8-110Zm42.6 89.2c-14.9-1.3-14.8 37.5-8.6 59.4s44.4-6.9 28.9-23.5c-13.9-15-7.4-34.7-20.3-35.9Zm60.5-22.5c-11.7 17 21.5 28.1 25.2 45.7 9 43.5 60.1 5.8 37.3-21.4-8-9.5-21.7-9-31.7-15-6.6-3.9-22.3-21.6-30.8-9.3Z" style="stroke-linecap:round;stroke-linejoin:round;stroke-width:10px;stroke:#000;fill:#fff"/><path class="ze-2" d="M501.6 435.2c-43.9 16.5-103.5 102.3-94.6 151.7 5 27.7 34.9 65.7 64.3 48.5m102.5-204.9c-25.2 21 5.3 38-29.5 86.3-16.6 23.1-29.3 51.4-29.8 80.3-.5 36.3 46.6 57.7 71.5 29.9m6.3-101.6c-3.9 12.9 3.4 25.6 9.8 36.3 19.2 31.8 11.5 28 18 41.7 20.5 43.1 79.3 12.5 87.1-25.2m-81.7-146.9c-8.6 16.4-4.6 39.5 7.1 53.4s33.3 13.2 62.8 38.6c12.8 11.1 38.2 38.7 52 15.7"/><path class="ze-2" d="M501.4 455c-34.5 24.8-69.1 81.5-67.8 124.7.4 14.8 17 38.6 32.2 24.9m79.8-56.1c-11.4 15.1-14.2 85.8 18.4 66.5m45.9-86.4c-3.4 15.5 13.6 24.5 21.4 35.4s8.6 23.5 19.6 29.2c14 7.2 29.5-5.5 31.9-19.6m-31.7-125.2c-4.5 20.9 16.9 33.1 33.5 39.5 13.7 5.2 29.8 36.5 45.1 21.3"/><path d="M671.1 436.5c-16.7 22.4 36.3 35.4 34.5 9.4 7.2 6.6 13.8 16.7 14.9 26.5-3.6 7.4-12.4 15.6-21.1 14.8-8.7-5.5-71.1-24.4-28.3-50.7Zm-47.3 106c6 7.2 22.6 1.5 18.5-6.9 8.6 6.3 21.8 5.3 28.8 13.6-1 6.4-32.1 31.5-47.3-6.7Zm-76.9 20.4c-.6 9 11.7 14.8 17 6.8 23.2 21.5-14.2 22.3-17.6 16.3-2.6-8-1-13 .6-23.1Zm-44.8-98.2c-12.6 12.2-6.9 38.7 13.1 30.8-15.8 22.1-22.6 63.4-56 41.5-16.6-10.9 24.1-65 42.9-72.3Z"/><path d="M502 436.9c-24.7 10-130.4 119.4-74 181.9 25.4 28.2 68.2 27 68.2-36.9 0-43.1 59-87.4 50.4-120.3-4.8-18-23.3-33.4-44.6-24.7Z" style="fill:url(#ze);opacity:.72"/><path d="M576.3 432c-20.8 18.6 6.9 39.7-21.4 80.6-83.6 120.5 4.8 138.2 31.8 113.4 43.6-40-31.5-66.5-6.8-105.9 49.4-78.6 11.6-101.7-3.6-88.1Z" style="fill:url(#ze-2);opacity:.72"/><path d="M598.4 517.5c-11.4 22.1 11 43.8 20.3 63.3 8.2 17.1 5.9 33.6 28.5 38.3 30.8 6.5 75-37.4 58.3-66.8-13.2-23.3-89.5-69-107.1-34.8Z" style="fill:url(#ze-3);opacity:.72"/><path d="M631.1 429.8c-13.2 27.6 1.1 57.2 29.2 65.9 23.3 7.2 40.2 27.8 60.5 43.2 52.8 40.2 42-120-23.8-129-18.7-2.6-56.5.2-65.9 19.9Z" style="fill:url(#ze-4);opacity:.72"/><path class="ze-7" d="M502 436.9c-24.7 10-130.4 119.4-74 181.9 25.4 28.2 68.2 27 68.2-36.9 0-43.1 59-87.4 50.4-120.3-4.8-18-23.3-33.4-44.6-24.7Zm74.3-4.9c-20.8 18.6 6.9 39.7-21.4 80.6-83.6 120.5 4.8 138.2 31.8 113.4 43.6-40-31.5-66.5-6.8-105.9 49.4-78.6 11.6-101.7-3.6-88.1Z"/><path class="ze-7" d="M598.4 517.5c-11.4 22.1 11 43.8 20.3 63.3 8.2 17.1 5.9 33.6 28.5 38.3 30.8 6.5 75-37.4 58.3-66.8-13.2-23.3-89.5-69-107.1-34.8Zm32.7-87.7c-13.2 27.6 1.1 57.2 29.2 65.9 23.3 7.2 40.2 27.8 60.5 43.2 52.8 40.2 42-120-23.8-129-18.7-2.6-56.5.2-65.9 19.9Z"/><path d="M701.4 426.4c18.7 4.2 28.6 34.2 34.5 55.6m1.1 13.3a52.3 52.3 0 0 1 0 12.5m-105.2 13.4a107.8 107.8 0 0 1 40.1 20.9m10.7 8.4a27.4 27.4 0 0 0 3.6 3.2m-97.3-111.3c2.9 3.5 3.1 8.3 3.1 12.6m-8.3 130.6a21.6 21.6 0 0 1-5.1 26.2m-9.1 6a25.3 25.3 0 0 1-3.6 1.2m-36.2-157.8c2.7 8.8-.3 18.1-4.6 25.9m-6.5 11.8-1.4 2.3m-37.8 85.5a37.9 37.9 0 0 1-4.1 22.2m-6.5 10.1a10.5 10.5 0 0 1-2.8 1.4" style="stroke:#fff;stroke-linecap:round;stroke-linejoin:round;stroke-width:10px;fill:none"/><style>.st40{fill:none;stroke-width:10;stroke-linecap:round;stroke-linejoin:round;stroke-miterlimit:10;stroke:#000}</style><g id="Gold_Headband"><linearGradient id="SVGID_00000134236501401383457500000003505018008553449115_" gradientUnits="userSpaceOnUse" x1="264" y1="774.579" x2="818" y2="774.579" gradientTransform="matrix(1 0 0 -1 0 1100)"><stop offset="0" style="stop-color:#fffb0a"/><stop offset="1" style="stop-color:#ff1f0a"/></linearGradient><path style="fill:url(#SVGID_00000134236501401383457500000003505018008553449115_)" d="M399 299.7c-73-.5-73 32-77 92.9 61-36 73-9.8 132.5-20.7 32-9 57-44 89.5-39 102 15.8 37 32 125 2 35-12 82 36 114 9.6-56.5-31-5.5-15-16-56-9.8-52-39.6-25-68-7-17 7-37.5.6-55 7-79.7 29-68-8-123 9.9-41.1 13.6-88 40.6-122 1.3z"/><path class="st40" d="M397 300.8c51 35 81 8 131-5 32-8 67 13 97 .7 36-19.6 30-4 63-12.7 22.5-6 33-25 59.6-24M323 394.5c48-44 82-9.6 130.6-23 40-11 59-52 108-35 54 19 45 21 99-1.4 38-16 83 36 120 9.9"/><path class="st40" d="M747 258c26.5 12 27 50 5 68 11 3 20.5 9.5 28 18m-383-44c-29.7-2-66 10.8-72.5 43-3 17 5 37-6 52"/><path d="M321 402.5c10.6-9 22-18 35-22 19.9-6 41 0 62 1 19.9 1 40-2 58-11.4 22-12 41-33 66-33 12 0 22 5 33 9.6 16 7 34 13 51 9.5 16-3 29.6-15 46-17.4 18-3 36 6 54 12.6s38 11 53.5 0" style="opacity:.6;fill:none;stroke:#000;stroke-width:10;stroke-linecap:round;stroke-linejoin:round;stroke-miterlimit:10;enable-background:new"/><path d="M745 276c7 5 9 16 5 23m-6 11.6-2 5.4m-358 0c-15 .8-29 9-38 20.6m-7 13.4-1 7m297-26c-7 5.5-16 8-24.5 7.5m-12.5-4.6c-2-.5-4-1-6-2M420 362c13 1 27-2 39-9" style="fill:none;stroke:#fff;stroke-width:10;stroke-linecap:round;stroke-linejoin:round;stroke-miterlimit:10"/></g><circle cx="550" cy="550" r="500" style="fill:none;stroke:#000;stroke-width:10;stroke-linecap:round;stroke-linejoin:round;stroke-miterlimit:10"/></svg>