<svg version="1.1" id="Layer_1" xmlns="http://www.w3.org/2000/svg" x="0" y="0" viewBox="0 0 1100 1100" style="enable-background:new 0 0 1100 1100" xml:space="preserve" xmlns:xlink="http://www.w3.org/1999/xlink"><style type="text/css">.st300{fill:#00DE72;stroke:#000000;stroke-width:10;stroke-linecap:round;stroke-linejoin:round;stroke-miterlimit:10;}</style><circle class="st300" cx="550" cy="553.7" r="500"/><style>.st75{fill:none;stroke-width:10;stroke-linecap:round;stroke-linejoin:round;stroke-miterlimit:10;stroke:#005e0f}</style><g id="brain"><path d="M533 208.1c-68 59.6-71 20-121 36.5-19.6 10.9-14 30-9.7 39.6 11 23-51 9-69 40.3-10 18 .1 42-7.5 61.8-9 19.6-34 35-37 52.2-43 48-154 7-119 70.4 6 11 33-6 39 9.1 7 17.5-39 29-21 46.7 18 5 21 39.9 57 63.2 14 20 3 51 19 69.1 35.8 38 46-25 41-34.3 4-39 44-11 22 38.7-23 52 11 74 36.5 56.6 38.5-10.5-14 99.9 89.9 62.9 18 1 28 22 29.8 40.3 6.5 63 54 46 59 8 15.5-34 45 49 47 59.9 11 73 69 42 71 17.9 3-54-3-60.1 2-68.3 18.5-31 71 13 90.8-15.5 14-19.7-31-63.5 8-55.4 94 19 19-101 14-120.4-9-35.5 14-106 47-121.7 18-9 17-35.5 7-52.8-9.5-17-25-30.6-31-48.9-13.5-54 22-102-36-133.3-5-3-7-9.5-4-14.4 17-26 1-66-32-71.4-22-3-44 9-66.5 6.3C616 246 579.9 177 533 208.1z" style="fill:#a1ffb0"/><path d="M697 378.3c13-5 26 9.9 19.9 22.3-8 11.5-21.5 25.5-13 40.2 18 19 52 27 40 60.9-13 32-46 15-70 22.6-14 7-27 22-44 14-12 13-30 22-46.5 11.8-16 37-37-4-75.5 25.8-16 12-4.5-5-44-16.9-22-7-25-35-10.5-50.3-19-1-39.9-26-25-43 36-6 22-36 36-50.2 16-17 61.5-6 96-25.5 8-4 51.5 5 65.5 2.8C654 386 664 346 697 378.3z" style="fill:#a15e96"/><path d="M442 474.8c2-4 2-9.6 0-14m23 75.7c2-8 0-17-6.5-23m73.5-56.1c-36 22-4 81.5-45 107m76-56.4c2 18.5 27.5 22 31 40m-54-122.4c19-1 28 20 28 36.3 0 11 8 19 17 24.2 23 11 47 16 49 48m18-58.5c14 15.8 42 19 48 42m-22.5-127.7c4-5 7-9.6 9-15M602 465.5c22 3.5 30.9-23 48.5-31M583 403c2-3 3-8 2-11.5m60-6.4c14 14 8 38 19.5 52.1 8 10.1 24 14 27 28.5" style="stroke:#5d5e5e;fill:none;stroke-width:10;stroke-linecap:round;stroke-linejoin:round;stroke-miterlimit:10"/><path d="M716 468.5c6 3 11 8 12 15m0 13.5-1 3m-245-78.6c-9 5-15 14-15.5 24M496 419h3m100 95.2c7 3 12 9 14 16M588 509l-2-1.5m45-101.6c2 3 3 7 4 10.9m-74 122.3c4 2 6.5 5 7.5 9M706 392.2c0 3-1 7-4 9" style="fill:none;stroke:#fff;stroke-width:10;stroke-linecap:round;stroke-linejoin:round;stroke-miterlimit:10"/><path class="st75" d="M694 378.2c-29-35-47 15-71.5 16.1-9 0-18-6-27-7-7-1-15 1-21 6"/><path class="st75" d="M581 402.8c-4-11-18-18-29.5-13.8-7 2.5-12 8-19 12-13 9-29 3-44 2.5-59.9 12-23 55-45 72"/><path class="st75" d="M451 462.7c-13-14-32.5 8-29 22.7 7 28 29.7 16 46 26.6 8 6 8 19 0 25"/><path class="st75" d="M458 509.9c-30.1 18-6 62 25 46.7 41-25-2-87 47-100.9"/><path class="st75" d="M478 559.6c4 11 16.5 21 27 16.5 25.5-11 10-19.9 56-9.5 14 3 29.7-16 19-28.6-8-9-25-16-19-30.6"/><path class="st75" d="M584 549.2c30.1 20 84-29.5-10-61.7-10.7-5-13-17-12-27.6 0-14-9-34-25-32.5"/><path class="st75" d="M628 535.6c26 18 37-15 61-14.8 21 1 42 9.6 53-14.2 21-57-52-48-40-84.1 4-12 20-21 16-34.4-8-16-29-7-39 3"/><path class="st75" d="M638 390.4c18.5 13 6.5 44 26 55.9 11 4 21.5 9 27 20"/><path class="st75" d="M651 428.4c-22 1-27 32-48 34m89 56.6c-3-23-35-22-43-42"/></g><style>.st40{fill:none;stroke:#000;stroke-width:10;stroke-linecap:round;stroke-linejoin:round;stroke-miterlimit:10}.st98{opacity:.6;enable-background:new}</style><g id="Outline"><path class="st98" d="M793 537c-1 .7-1 2-.5 3 5 10 11 35 25 30 8-2 21-13 18-22.4-.5-1-2-2-3-1.5-26 12-28-11-39-9.4v.3zm-34 274.5c6 5 26 8 25-3-6-7-20.6-12-21.5-26C750 772 744 803 759 811.5zm-219.3 52s1 .5 1 .8c9 13.5-3 36-18 40-34 6-9-6-6-44 .3-5.3 22.3 2.7 23 3.2zM342 731c5 7-4 22-4 33 8 13 29.6-5 33-14.9 2-12-17-21-28-20.2-1 .1-1 1.1-1 2.1zm31-120.2c2 23-8 47-26 61.9-13 10.9-17.5-30.6-8-27.9 6 4.2 28-18.8 34-34zm-157-59.9c-8 6-17 3-25 1-11 5 4 20 13.5 16 5-4 12-9 12-15.7-.5-.2-1.5-.2-.5-1.3zM337 473c-6-10-3-23 0-34 0-1 0-2-.6-2-9-9-23 11-19.8 20.7C318 463 338 475 337 472.8v.2z"/><path class="st98" d="M326 392c-2 29 24 45 7 44-7 2-14 1-15 11-1 11-24 0-24.5-1.3C285 433 317 404.5 326 392zm103-118c-9.9-4-16-16-18-25-4-6-9.9 1-11 6-7 54 29.5 28 29 19zm293 9c16 21 29.5 12 40 20.7 3 4 1 9.6-1 14-3 9-13 9-20 4.1-14.5-5.8-22-22.2-19-38.8z"/><path class="st40" d="M347 729c53.5 5 15 86 59 102 25 9 37-19.8 55-11.9 23 10.1 19.6 40 24 60.7 9.6 46 63 29.6 58-12.8"/><path class="st40" d="M519 861c89-9 47.5 119 114.5 115 39-6 35-47 25-76.5-3-9 0-18.5 7-24.5 24.5-21 59 15.5 84-2.5 15-11 8-33-2-45-12-15 0-32 10-43"/><path class="st40" d="M790 539c53 69.8-64 71 8 194.5 6 14 11 32 11 48.5 0 32-49 47.5-61 16"/><path class="st40" d="M721 287c2 51 64 31 74 88 6 34-11.5 71 7 103 10 18 27 31.5 34 51 8 19-4 47-27 42"/><path class="st40" d="M407 290.6c-16-8-12-29.9-2-41 17-15 40.5-10 61-6 29.8 1 49-29 75-38 50-17 81 55 133 44 23-5 48-11 69 1 25 14 33 55 10 75"/><path class="st40" d="M428 278c-16 26.5-51 17.5-76 28.5-20 10.5-28 33-23 55 10 47-43 51-39 88m25 4.5c1.5-23 35-26 41-5 7 25-13 47 16 72"/><path class="st40" d="M334 476c-20-34-61-31.5-89-9.6-20 8-43-3-64 4-22 7-28 37-5 43.5 6.5 2 23-2 26-1 15 4 11 25-5 30-21 6-10 29 6 29"/><path class="st40" d="M216 554.5c-15 15-14 41 2 55 37 22 41 31 36 69.7-2 31 46 41 53.5 10 2-10.8-4-22 0-33 13-32 44 20 62-44.5"/><path class="st40" d="M327 647.9c25 29.7-.5 47-7 75-10 32.5 34 65 53 25"/><path d="M729 262.5c9 4 16 13 18 22.5m-193-68c12.5 2 24.5 8 34 16m9 9 3 3m-163 10c-5.5-.9-12 .6-15.5 4M362 319.6c-9 2-14 10.7-16 19M339 449c4 1 6 6 6 9.8M308.5 470c-12-6-16-5-22-4M175 492c1-4 5-7 9-7.5m38 89.5c-4 8 0 16 4 19.9m44 78.6c-1 6 1 15 9 18m76-77.5c-3 14-13 14.5-16 16m4.5 119.5c-5-3-9-9-8-15M397 782c-1 14.5 7 28 14 30m90 53.9c-3 12 2 27 14.5 25M636 957c14-3 17-28 11-38m96-60.1c1-7 0-14-4-19m46-49.1c8-6.5 9-25 3-39M786 582c5-8 3-19-3-26m37-12c2-8.5-.6-18-7-24m-56-169c18 6 22 30 21 35" style="opacity:.7882;fill:none;stroke:#fff;stroke-width:10;stroke-linecap:round;stroke-linejoin:round;stroke-miterlimit:10;enable-background:new"/></g><style>.st40{fill:none;stroke:#000;stroke-width:10;stroke-linecap:round;stroke-linejoin:round;stroke-miterlimit:10}</style><g id="Duhh"><path d="M713 770.3c-107 104-373 27-163-65.2 27-9 49.7 7.5 69 24.1 37-16.2 72 8.8 94 41.1z" style="fill:#fe1767"/><path d="M711 767.2c-20-25-57.5-53.5-90.6-38-12-11-24-22-38-29.5C623 679.6 771 699 711 767.2z"/><path d="M611.5 726.5C562 714 507 740 474 776.7c-1-40 50-66 84-75.9 21-4.8 40 8.2 53.5 25.7zm27.5 28.1c-1-13 16-24 28-23.4-14-8-32-8-46-.1l18 23.5z" style="fill:#ae0f45"/><ellipse transform="rotate(-9.32 598.78 756.174)" class="st40" cx="599" cy="756" rx="128" ry="62"/><path class="st40" d="M571 699.3c27 9 50 29 64 54m-14-23.2c33.5-18.5 68 11 89 36M475 706c-26 21-48.5 57-26 89m272-111.6c27 10 48 49 27 77"/><path d="M475 706c-32 9.6-59 64-27 89m273-113.7c33 4 55 55 28.5 78M472 768.6c-19.6 91 222 65.8 246-6" style="opacity:.6;fill:none;stroke:#000;stroke-width:10;stroke-linecap:round;stroke-linejoin:round;stroke-miterlimit:10"/><path d="M588 723c7 5.5 13 12 18 18m8 12.5 1.5 2.5m43.5-13.2c7 3 14 7.5 19 13m9 10.2 3 3" style="opacity:.7686;fill:none;stroke:#fff;stroke-width:10;stroke-linecap:round;stroke-linejoin:round;stroke-miterlimit:10"/></g><defs><linearGradient id="zl" x1="574.42" y1="410.83" x2="618.38" y2="675.51" gradientUnits="userSpaceOnUse"><stop offset="0" stop-color="#00ff19"/><stop offset=".22" stop-color="#00fa46"/><stop offset=".7" stop-color="#00eeb6"/><stop offset="1" stop-color="#00e6ff"/></linearGradient><style>.zl-3{fill:none;stroke-linecap:round;stroke-linejoin:round;stroke-width:10px;stroke:#000}</style></defs><path d="M746.4 534.9c13.5 7.2 27.2-7.7 21.7-22.5-4.6-12.5-17-13.9-17-35.5 0-45.9-85.7-81.3-142.9-1.3-25.4 35.5-44.1-49.3-124-44.7-38.6 2.2-84.3 38.4-70.1 76.9 31 84.2 9.1 85.6 18.1 107.2 5.8 13.7 26.8 18.9 35.1 4.2 19.3 25.5 52.7 36.3 76.4 9.9 57.9 26.7 37.8-55 32.1-74.1-3.2-45.4 46.6-36.5 51.6-5.4 2.6 16.2-3.4 85.5 34.5 44.1 8.8 6 10.9 17.4 16.6 25.9 16.3 24.1 45.5 11.2 42.2-17 41.4 1.7 44.3-39.2 25.7-67.7Z" style="fill:url(#zl)"/><path d="M438.8 449.7a25.8 25.8 0 0 1 3.2 5.3l40.5 89.1 14.5-19.4 34 113.4s15.8-8.2 16.6-6.9c13.2 12.2 32.4-1.9 37.5-15.9l-86.3-125.8-11.2 26-25.8-78.5m180 6.5 1.7 3.3 17.9 81.5 13.3-14.7s20.7 118 20.7 118.8c22.6 2.6 24.8-13.8 24.4-31.7 8.1 1.5 14.9-1 21.4-5l-63.5-114.4-9.1 21.6-4-70.7" style="fill:#fff;opacity:.47"/><path class="zl-3" d="M458.7 607.4c9.5 6.5 14.6 17.9 23 25.8 17.5 16.1 46.2 12.8 62-4.2 4.3-4.6 8-10 13.6-12.8"/><path class="zl-3" d="M546 629c16.3 20.4 42.6-2.4 40.4-24.8-1.8-19.2-13.8-36.8-11.7-56 4.9-44.6 58.3-24.1 53.7 12.5-7.8 60.9 32.4 47.9 32.4 31.3"/><path class="zl-3" d="M653.4 587.4c25.2 6.3 18.1 44.5 44.5 45.9 11.1.6 24.3-10.8 22.6-25.1-1.2-10.5-9.2-13.3-6-24.3m5.2 15.7c19.4 6.2 39.7-10.2 39.6-30.5-.1-17.6-18.1-30.4-17.3-47.5"/><path class="zl-3" d="M746.4 534.9c13.5 7.2 27.2-7.7 21.7-22.5-4.6-12.5-17-13.9-17-35.5 0-45.9-56.4-50.9-75.3-47.5s-32.8 11.4-67.6 46.2c-30.9 30.9-44.1-49.3-124-44.7-38.6 2.2-84.3 38.4-70.1 76.9 31 84.2 9.1 85.6 18.1 107.2 5.8 13.7 26.8 18.9 34.5 4.6"/><path d="M428.9 449.8c-51.5 33.4 2.4 85.8-3.3 135.8-1.6 14-2.6 35.5 14.5 39.7m17.6-18.2c1.8 5.9 2.6 12.4-.2 17.8m100.2-8.6c-2.4 5.2-4.6 11.2-2.8 16.8m98-45.3a19.7 19.7 0 0 1-1.7 15.4m63.6-18.4c3.6 7 9.7 13.6 17.8 14.8m9.6-78.8a23.7 23.7 0 0 0 16.6 14.6m-292.7 90.2c7.1 9.4 17.8 19 30.4 16.6m45.9-9.1c7.6 6.5 19.7 6.8 28.5 1m28.9-109.4c42.3 24.6 7.5 57.5 35.3 77.9m26.3-2.6c8.7 9.5 10.9 24.3 22 32.1 7 4.9 17.3 5.9 23.4-.7" style="opacity:.6;stroke:#000;fill:none;stroke-linecap:round;stroke-linejoin:round;stroke-width:10px"/><path d="M711.8 447.7a25.1 25.1 0 0 1 18.5 15.2m4 11.6.1 2.6m19 34.3a16.1 16.1 0 0 1 3.3 8.1M743.4 560a20.2 20.2 0 0 1-1 18.5m-6.3-31.4 1.6 2.6m-31.6 53.7a15 15 0 0 1-2.1 15m-60.7-25.8a17 17 0 0 1-3.5-12.3m-133-132.9a67.2 67.2 0 0 1 34.6 19.8m-51.1-21a32.6 32.6 0 0 0-10.3.7m92.3 152.7a22.1 22.1 0 0 1-.5 14.8m-4.1-29.3.9 2m-32.4 30c-4.2 4.9-9.8 9-16.2 9.5m-12 2.7-2.9-.8m-60.4-17a13.3 13.3 0 0 1-1-12.1" style="stroke:#fff;fill:none;stroke-linecap:round;stroke-linejoin:round;stroke-width:10px"/><defs><linearGradient id="zbk" x1="236.05" y1="322.22" x2="786.08" y2="195.7" gradientUnits="userSpaceOnUse"><stop offset="0" stop-color="#ff0080"/><stop offset="1" stop-color="#6a00ff"/></linearGradient><linearGradient id="zbk-2" x1="253.46" y1="373.96" x2="815.73" y2="373.96" gradientUnits="userSpaceOnUse"><stop offset="0" stop-color="#00ff84"/><stop offset="1" stop-color="#004cff"/></linearGradient><style>.zbk-3,.zbk-4{fill:none;stroke-linecap:round;stroke-linejoin:round;stroke-width:10px;stroke:#000}.zbk-4{opacity:.6}</style></defs><path d="M277.6 395.2c-58-233.3 425.8-349.7 508.5-97.5-104.6-28.1-415 39-508.5 97.5Z" style="fill:url(#zbk)"/><path d="M294.7 427.7c0-.1-6.5 12.2-5.1 22.2a84.4 84.4 0 0 0-30.7 6.1C191.5 337.6 774 270.5 789.1 298.1c34.5 13.6 34.5 54.4 5.6 75.2-1-3.6-1.3-19.2-25.5-36.9-160 3.8-324.4 35.6-474.5 91.3Z" style="fill:url(#zbk-2)"/><path class="zbk-3" d="M791.1 336.4A1541.8 1541.8 0 0 0 277 434.2"/><path class="zbk-3" d="M770.8 337.6c22.6 16.5 22.9 32.1 23.9 35.7 28.9-20.8 28.9-61.6-5.6-75.2-70.6-27.9-384.2 32.1-495.6 88.6-26.4 13.4-60 43.7-34.6 69.3a84.4 84.4 0 0 1 30.7-6.1c-1.4-10 5.1-22.3 5.1-22.2"/><path class="zbk-3" d="M319.6 376.1c2.8 11.7 6 23.4 9.5 35m64.1-56.7 8.2 35.9m80.9-60.2 8.8 39.9m83-60.2a432.5 432.5 0 0 0 5.3 43.8m90.7-57.4 3.1 44.2m68.5-47.6 2.4 42.3"/><path class="zbk-3" d="M788 297c-84.6-251.5-568.4-135.1-510.4 98.2"/><path class="zbk-4" d="M778.4 342.8a1506.5 1506.5 0 0 0-484.7 93.1m-17.5-1.2a41.2 41.2 0 0 0 13.1 1.4m502.3-98.9a30.6 30.6 0 0 1-10.8 6.5m1-56.7c-169.4-9.5-349.2 29.6-503.4 100.4m34.7-6.3q5.4 16.3 10.2 33"/><path class="zbk-4" d="M385.8 355.6c3.3 11.7 6.2 23.5 8.9 35.4m80.4-58.6 7.9 36.3m83.3-55.5c1.9 12.4 3.7 24.9 5.5 37.4m92.7-52.2c.7 13.6 1.6 27.2 2.7 40.7m67.8-43.8 2 38.4"/><path d="M766.9 307a51.2 51.2 0 0 1 22.2 7m-68.5-10.2c-9.3.5-18.6 1.2-27.9 2m-52.1 4.9-31.7 4.9m-63.2 11.6c-10.3 1.6-20.5 3.4-30.6 5.7m-58.3 13.9-28.7 7.5m-58.7 16.4c-7 2.3-14 4.5-21.1 6.5m-45 18a133.4 133.4 0 0 0-21.9 13.6m370.5-222.2a157.9 157.9 0 0 1 57.7 32.5m10.7 10.2 6.1 6m-347-14a187.2 187.2 0 0 0-65.7 60m-7.4 15.7a27.7 27.7 0 0 1-2.8 5.4" style="stroke:#fff;fill:none;stroke-linecap:round;stroke-linejoin:round;stroke-width:10px"/><style>.st231{fill:none;stroke:#000;stroke-width:10;stroke-linecap:round;stroke-linejoin:round;stroke-miterlimit:10}</style><g id="Layer_66"><path d="M902 539.9c23 45 86 12 84-31.1-2-75-92-102-123-159.9-15-28-8-66-29.9-89.7-36-39.5-98-30-114-96.1l13 27.7c44 20.8 55-64-12-77.4-54-10.8-104 33-158 26.3-30.6-4-57-24-87-30-136-25.5-114 150-221 195.8-17 7-35 15-46 30.6-15 21.5 3 53 30.5 53.9l30.8-43.9c-28 75-109.8 44.5-130 140.4-17 79.8 40 100.8 32 152.7-4 26-24 47-27 73-3 28 19 47.5 46 41.5 15-3 22-16 26-25L192 686c58 57-22 110 67 140.7 43 19 59.6 64 67 107.3 10.6 62 114 49 73-12.3-8-12-16-28 3-30.5 28.5-2 38 33.5 29.6 56.1-3 10.6-8 20.8-9 31.8-5 68 98 53 55-10.5-17-25.5 16-45 37-17.5 56 73 121 87 187 17.7 9-9.9 21.5-2 32 3.8 65 33 50.8-95.5 86-129.7l-22 50.5c11 37 60.8 29 75-2.4 14-30.9.9-68 12-100.3 11.5-35 52-57 56-93 9-82.5-82-100.9-17-213" style="opacity:.4314;fill:#00ffea;enable-background:new"/><path class="st231" d="M269 346c-28 75-109.8 44.5-130 140.4-17 79.8 40 100.8 32 152.7-4 26-24 47-27 73-3 28 19 47.5 46 41.5 15-3 19-12 23.5-21.1"/><path class="st231" d="M192 686c58 57-22 110 67 140.7 43 19 59.6 64 67 107.3 10.6 62 114 49 73-12.3-8-12-16-28 3-30.5 28.5-2 38 33.5 29.6 56.1-3 10.6-8 20.8-9 31.8-5 68 98 53 55-10.5-17-25.5 16-45 37-17.5 56 73 121 87 187 17.7 9-9.9 21.5-2 32 3.8 65 33 50.8-95.5 86-129.7"/><path class="st231" d="M924 484.5c-64 112 26 130.7 17 213-4 36-44 58.5-56 93-10.7 32 2 69-12 100.3-14 32-64 39-75 2.4"/><path class="st231" d="M719.5 163.1c16.5 66 78 57 114 96.1 21.5 23 15 62 29.9 89.7 31 58 120.7 85 123 159.9 1 43-61 76-84 31.1"/><path class="st231" d="M732 190.7c44 20.8 55-64-12-77.4-54-10.8-104 33-158 26.3-30.6-4-57-24-87-30C339 84 361 259.8 254 305.4c-17 7-35 15-46 30.6-15 21.5-3 54.5 25 55.4"/><path d="M824 843c-9 25-4 58 18 73.9-67 5.1-38-57.9-18-73.9zm104-359.1c-6 25.5 3 57 25.5 72.3-19 3-30 3-44-11.5-16-16.7 6.5-46.7 18.5-60.8zM723 160.1c7 14.5 22.5 25 39 25.8-18 14.1-49-2.9-39-25.8zM188 686.8c6 20.8 9 50.7-9 65.8 16.5 0 37-9 35-28.1-2-16.5-7-33.5-26-37.7zm79-344.3C252 360 228 379 204 369c11 20 32 29 49 8.8 10-9.8 16.7-19.8 14-35.3z" style="opacity:.6;enable-background:new"/><path d="M957 470.9c7 10.5 14 23 12 36.1m-4 16c-1 3-3 6-5 8m-52 107.3c7 10 12 23 13 35m1 14c0 3-.7 6-1.5 8.5M863 841.9c2 12 .9 24-3 34.9m-9 13.2c-1.5 2-3 4-5.5 4.9m-74 29.9c-.7 10.9-4 22-10.5 30.7m-203 14.2c12 14 29 23 47 26.3m17-.3c5 .5 10 0 14.5-2.3m-195.8-11.5c-.6 9 3.5 18 10.5 23.5m-9.2-37.3c.5-2 1-4 2-5.3m-99-34.3c3 13 14 24 26.5 27.6M339 908.7c-.7-2-1-3-2-5M230.5 779.8c2 11 9 22 19.9 26.3m12.6 5.8c1 .7 2.5 1 4 1.7M164 696c-5 8-5.5 18-2 26m7 11.5c1 1.5 3 3 5 3.6m26-307.8c-16 8-29 23-35 40.4m-5 15.8c-2 3-2.5 6-3 9.1m82-167.2c-7 5-15 10-17.5 18.4m-3.5 15.9v4.9m199-235.3c-14 8-25 20-31 34.5m51-40.2c5-1 10.6-1 16 .1m280 9.3c9 6 14.5 16 16 26.3m-31.5-33c-2-.9-4-1-6-1.5m80.5 123c9.9 4 19 9.8 26 17.8m9 13.1 3 6" style="stroke:#fff;fill:none;stroke-width:10;stroke-linecap:round;stroke-linejoin:round;stroke-miterlimit:10"/></g><circle cx="550" cy="550" r="500" style="fill:none;stroke:#000;stroke-width:10;stroke-linecap:round;stroke-linejoin:round;stroke-miterlimit:10"/></svg>