<svg version="1.1" id="Layer_1" xmlns="http://www.w3.org/2000/svg" x="0" y="0" viewBox="0 0 1100 1100" style="enable-background:new 0 0 1100 1100" xml:space="preserve" xmlns:xlink="http://www.w3.org/1999/xlink"><style type="text/css">.st302{fill:#6A10EB;stroke:#000000;stroke-width:10;stroke-linecap:round;stroke-linejoin:round;stroke-miterlimit:10;}</style><circle class="st302" cx="550" cy="553.7" r="500"/><defs><style>.zc-2,.zc-3{fill:none;stroke-linecap:round;stroke-linejoin:round;stroke-width:10px}.zc-2{stroke:#4a4a4a}.zc-3{stroke:#00ff37}</style></defs><g id="Layer_72" data-name="Layer 72"><path d="M531.7 209c-67.9 59.6-70.9 20.3-120.8 36.5-19.6 10.9-14.3 30.3-9.7 39.6 11.2 22.8-50.8 8.7-68.6 40.3-10.3 18.3.1 42.2-7.5 61.8s-33.8 34.7-36.8 52.2c-43.4 48.2-154 6.6-119.1 70.4 6.2 11.4 32.9-6.3 39.1 9.1 7 17.5-38.8 29.4-21.3 46.7 17.7 4.9 20.7 39.9 56.9 63.2 13.8 20 2.7 51.4 19.4 69.1 35.8 37.8 46.3-24.8 41.3-34.3 4.3-38.8 43.9-10.6 22.2 38.7-22.8 51.7 11.2 74 36.5 56.6 24-8.9 13.3 38.7 23.3 50.9 19.5 37.2 54.9 11.6 66.6 12 18.1.7 28 22.3 29.8 40.3 6.5 63 53.6 46.3 59.1 8 15.5-34.3 45.1 48.6 46.9 59.9 11.3 72.6 69.3 42 70.8 17.9 3.3-54.1-3.2-60.1 1.7-68.3 18.5-31.1 71 13.3 90.8-15.5 13.6-19.7-31.2-63.5 7.9-55.4 94 19.4 18.7-100.7 13.8-120.4-8.8-35.5 13.9-105.6 46.9-121.7 18.1-8.8 17.1-35.5 7.4-52.8s-24.9-30.6-31.4-48.9c-13.5-54.4 22.4-102.1-36-133.3a10.2 10.2 0 0 1-3.9-14.4c17.1-26.3 1.3-66.4-31.8-71.4-22.1-3.3-44.3 8.9-66.5 6.3-43.8-5.2-80.2-74.1-127-43.1Z" style="fill:#757575"/><path class="zc-2" d="M416.3 430.8c-7.8 85.7-9.7 162.5-14.6 245.2-15.1 6.6-15.8 30.7 1 32.6"/><path class="zc-2" d="M268.4 456.4q-1.3 51.9-5.7 103.6c86.9 6.2 172.1 5.7 258 12.8.8 15.4 20.6 16.8 27.6 6.3"/><path class="zc-2" d="M446 564.3c-2.2 48.2-4.3 96.5-.6 144.5l102.9 7.6"/><path class="zc-2" d="M504.2 793.2a1259.8 1259.8 0 0 1-4-130.1c-9.2-4.4-11.8-17.1-.3-22.8m-89 104.8-.1 83.7"/><path class="zc-2" d="M415.9 788.2c58.7-.6 115.8-1 176.4-.6 4.4 12.8 18.4 10.7 22.6 1.9M375.8 302.8c-.7 34.1-5.5 102.7-5.8 102.4-9.5 5.5-16.4 18.6-.4 26.1m117-190.5c-4 52.9-9.6 103.1-10.8 155.2"/><path class="zc-2" d="M378.1 380.3c79.4 1.5 159.1 4.3 238.4 4.3m-131.7-43.9a705.1 705.1 0 0 0 80.9 6c2.1 11.1 12.6 11.4 17.1 4.6m73-99.4c-22.8 113.8-33.3 229.4-33.3 345.8"/><path class="zc-2" d="M790.1 437.5c-60.6-2.3-118.7-4.1-179-8.9 0 10.8-13.8 16.2-20.3 4.2"/><path class="zc-2" d="M690.3 634.1c6-76.9 12-153.9 24.2-229.5-11.3-4.6-18-23.6-2.4-32.4"/><path class="zc-2" d="M558.1 620.2a1265.5 1265.5 0 0 0 220.2 6.3"/><path class="zc-2" d="M632.7 622.6c9.4 108.6 8.8 220.1 28.8 330.2M418.1 482.2l235.5 15.9"/><path class="zc-2" d="M799.4 736.5c-74.3 4.6-143.2 5.8-216.2 6-9.8 14.5-22.4 14.1-28.5 3.3"/><path class="zc-3" d="M274.9 453.3c-.5 33.5-2.7 66.9-6.3 100.1l251.2 12m-67.1-.2q.3 68.4-1.8 136.7l98.6 8.1"/><path class="zc-3" d="M507.4 662a1249.5 1249.5 0 0 0 5 129.8m-91-360q-8.1 123.3-12.5 246.9m13.6-203.4c77 7.5 154.2 14 231.4 18.3M494.5 237.3C488.5 290 484 343 481 396m8-61.3c25.8 2.9 51.7 5 77.7 6.1M383.3 303c-2.1 35.5-4.7 70.9-7.6 106.3"/><path class="zc-3" d="M380.9 374.1c78.1 1 159.3 6.7 234.6 6.7m45.3-128.7A2110 2110 0 0 0 626 596.9"/><path class="zc-3" d="M791.1 434.5c-61.8-5-119.4-6.7-181.8-11.7"/><path class="zc-3" d="M721.5 403.7q-16.7 116.1-25.2 233.1"/><path class="zc-3" d="M783.7 620.7a1735.9 1735.9 0 0 1-224.6-4.1m79.1 6.9c10.7 106.6 7.9 214.6 26.8 320.1"/><path class="zc-3" d="M796.7 732.4c-76.7 2.3-144.6 2-217.1 4.1m-163.8 95.1c-.3-29.8.2-59.5 1.4-89.3m.5 39.6c58.5 0 115.7-.5 175.3-.5"/><ellipse class="zc-3" cx="577" cy="339.7" rx="10.4" ry="14"/><ellipse class="zc-3" cx="598.3" cy="420.8" rx="10.9" ry="16.7"/><ellipse class="zc-3" cx="374.9" cy="421" rx="11.1" ry="11.7"/><circle class="zc-3" cx="538.2" cy="565.4" r="17"/><ellipse class="zc-3" cx="564.5" cy="737.8" rx="13.3" ry="12.4"/><ellipse class="zc-3" cx="606.2" cy="781.9" rx="11.6" ry="11.7"/><circle class="zc-3" cx="722.4" cy="384.6" r="16.2"/><circle class="zc-3" cx="408.9" cy="694.8" r="15.2"/><ellipse class="zc-3" cx="508.6" cy="648.7" rx="13.4" ry="11.1"/></g><style>.st40{fill:none;stroke:#000;stroke-width:10;stroke-linecap:round;stroke-linejoin:round;stroke-miterlimit:10}.st98{opacity:.6;enable-background:new}</style><g id="Outline"><path class="st98" d="M793 537c-1 .7-1 2-.5 3 5 10 11 35 25 30 8-2 21-13 18-22.4-.5-1-2-2-3-1.5-26 12-28-11-39-9.4v.3zm-34 274.5c6 5 26 8 25-3-6-7-20.6-12-21.5-26C750 772 744 803 759 811.5zm-219.3 52s1 .5 1 .8c9 13.5-3 36-18 40-34 6-9-6-6-44 .3-5.3 22.3 2.7 23 3.2zM342 731c5 7-4 22-4 33 8 13 29.6-5 33-14.9 2-12-17-21-28-20.2-1 .1-1 1.1-1 2.1zm31-120.2c2 23-8 47-26 61.9-13 10.9-17.5-30.6-8-27.9 6 4.2 28-18.8 34-34zm-157-59.9c-8 6-17 3-25 1-11 5 4 20 13.5 16 5-4 12-9 12-15.7-.5-.2-1.5-.2-.5-1.3zM337 473c-6-10-3-23 0-34 0-1 0-2-.6-2-9-9-23 11-19.8 20.7C318 463 338 475 337 472.8v.2z"/><path class="st98" d="M326 392c-2 29 24 45 7 44-7 2-14 1-15 11-1 11-24 0-24.5-1.3C285 433 317 404.5 326 392zm103-118c-9.9-4-16-16-18-25-4-6-9.9 1-11 6-7 54 29.5 28 29 19zm293 9c16 21 29.5 12 40 20.7 3 4 1 9.6-1 14-3 9-13 9-20 4.1-14.5-5.8-22-22.2-19-38.8z"/><path class="st40" d="M347 729c53.5 5 15 86 59 102 25 9 37-19.8 55-11.9 23 10.1 19.6 40 24 60.7 9.6 46 63 29.6 58-12.8"/><path class="st40" d="M519 861c89-9 47.5 119 114.5 115 39-6 35-47 25-76.5-3-9 0-18.5 7-24.5 24.5-21 59 15.5 84-2.5 15-11 8-33-2-45-12-15 0-32 10-43"/><path class="st40" d="M790 539c53 69.8-64 71 8 194.5 6 14 11 32 11 48.5 0 32-49 47.5-61 16"/><path class="st40" d="M721 287c2 51 64 31 74 88 6 34-11.5 71 7 103 10 18 27 31.5 34 51 8 19-4 47-27 42"/><path class="st40" d="M407 290.6c-16-8-12-29.9-2-41 17-15 40.5-10 61-6 29.8 1 49-29 75-38 50-17 81 55 133 44 23-5 48-11 69 1 25 14 33 55 10 75"/><path class="st40" d="M428 278c-16 26.5-51 17.5-76 28.5-20 10.5-28 33-23 55 10 47-43 51-39 88m25 4.5c1.5-23 35-26 41-5 7 25-13 47 16 72"/><path class="st40" d="M334 476c-20-34-61-31.5-89-9.6-20 8-43-3-64 4-22 7-28 37-5 43.5 6.5 2 23-2 26-1 15 4 11 25-5 30-21 6-10 29 6 29"/><path class="st40" d="M216 554.5c-15 15-14 41 2 55 37 22 41 31 36 69.7-2 31 46 41 53.5 10 2-10.8-4-22 0-33 13-32 44 20 62-44.5"/><path class="st40" d="M327 647.9c25 29.7-.5 47-7 75-10 32.5 34 65 53 25"/><path d="M729 262.5c9 4 16 13 18 22.5m-193-68c12.5 2 24.5 8 34 16m9 9 3 3m-163 10c-5.5-.9-12 .6-15.5 4M362 319.6c-9 2-14 10.7-16 19M339 449c4 1 6 6 6 9.8M308.5 470c-12-6-16-5-22-4M175 492c1-4 5-7 9-7.5m38 89.5c-4 8 0 16 4 19.9m44 78.6c-1 6 1 15 9 18m76-77.5c-3 14-13 14.5-16 16m4.5 119.5c-5-3-9-9-8-15M397 782c-1 14.5 7 28 14 30m90 53.9c-3 12 2 27 14.5 25M636 957c14-3 17-28 11-38m96-60.1c1-7 0-14-4-19m46-49.1c8-6.5 9-25 3-39M786 582c5-8 3-19-3-26m37-12c2-8.5-.6-18-7-24m-56-169c18 6 22 30 21 35" style="opacity:.7882;fill:none;stroke:#fff;stroke-width:10;stroke-linecap:round;stroke-linejoin:round;stroke-miterlimit:10;enable-background:new"/></g><defs><radialGradient id="axz" cx="274.03" cy="669.68" r="95.31" gradientTransform="matrix(1 0 0 1.52 0 -350.6)" gradientUnits="userSpaceOnUse"><stop offset="0" stop-color="#ff0"/><stop offset=".09" stop-color="#fff804"/><stop offset=".22" stop-color="#ffe611"/><stop offset=".37" stop-color="#ffc826"/><stop offset=".53" stop-color="#ff9e42"/><stop offset=".71" stop-color="#ff6867"/><stop offset=".9" stop-color="#ff2794"/><stop offset="1" stop-color="#ff00ae"/></radialGradient><style>.axz-2{fill:none;stroke-linecap:round;stroke-linejoin:round;stroke-width:10px;stroke:#000}</style></defs><path d="M284 571.6a39.5 39.5 0 0 1 23.8-24.7c51.9 51.9 50.7 215.3-24.6 244-89.2 17.6-92.9-123.2-59.1-177 12.6 3.9 22.5 14.1 28.2 26.5-19.9 37.1-15.3 95.7 16.6 117.4 0 0 78.6-58.2 15.1-186.2Z" style="fill:url(#axz)"/><path class="axz-2" d="M287.6 590s-5.4-30.7 20.2-43.1c51.9 51.9 50.7 215.3-24.6 244-16.7 6.4-35.5 2.1-48.4-10.2-41.5-39.7-36.9-118.8-10.7-166.8 6.4 3 22.3 11.8 28.4 25.6"/><path class="axz-2" d="M287.6 590c57 75.9-3.7 207.6-33.9 154.8-17.2-30-17.2-72.7-.7-103.5"/><path class="axz-2" d="M317.1 542c-27.5 6.7-34.8 31.7-33.5 63.4"/><path d="M315.9 556.4c-.4-3.7-2.4-8.4.4-13.5m-8.2 9.9c-13.4 8.1-17.6 25-17.8 39.8m-2.6 7.1c25.3 44.6 17.2 55.1 11.8 102.3m-75.3-80.9c8.9 4.2 18.3 12.3 23.2 21.5-21.9 35.5-12.9 122.8 21.5 115.2" style="opacity:.6;stroke:#000;fill:none;stroke-linecap:round;stroke-linejoin:round;stroke-width:10px"/><path d="M317.9 731.9a75.4 75.4 0 0 1-18.4 30.2m-7.9 8.8a22.9 22.9 0 0 1-8 5.3m27.5-201.8a104.3 104.3 0 0 1 11.9 31" style="stroke:#fff;fill:none;stroke-linecap:round;stroke-linejoin:round;stroke-width:10px"/><defs><linearGradient id="zae" x1="798.93" y1="733.98" x2="937.44" y2="726.56" gradientUnits="userSpaceOnUse"><stop offset="0" stop-color="#f705ff"/><stop offset=".5" stop-color="#e30556"/><stop offset="1" stop-color="#ffc505"/></linearGradient><linearGradient id="zae-2" x1="611.81" y1="744.71" x2="857.55" y2="744.71" gradientUnits="userSpaceOnUse"><stop offset="0" stop-color="#00ff6f"/><stop offset="1" stop-color="#0090ff"/></linearGradient><linearGradient id="zae-3" x1="826.24" y1="742.98" x2="857.41" y2="742.98" gradientUnits="userSpaceOnUse"><stop offset="0" stop-color="#f06"/><stop offset="1" stop-color="#f90"/></linearGradient><linearGradient id="zae-4" x1="652.3" y1="753.53" x2="744.04" y2="753.53" gradientUnits="userSpaceOnUse"><stop offset="0" stop-color="#ff009d"/><stop offset="1" stop-color="#ff6200"/></linearGradient><style>.zae-4{fill:none;stroke-linecap:round;stroke-linejoin:round;stroke:#000;stroke-width:10px}</style></defs><path d="M812.7 697.1c-.8-22 16.5-29.6 35.7-16.3 10.5 7.2 15.4-1.7 18.7-9.4 4.1-9.3 3.6-22 15-25.1 23.8-6.4 33.2 25.6 10.5 39.9-19.1 12 1.3 36 14.1 16s39.7-11.3 31.6 11.8-50.1 5.6-50.1 25.6c0 10.8 11.2 9.8 21.5 13.5 20.6 7.4 6.2 41.6-14.9 31.6-5.1-2.4-10.8-6.9-16.1-4.4s-6.4 10.6-2.1 16c5.6 7.1-1.3 16.9-9.5 17.8-10.6 1.1-15.2-10.9-26.1-11.6-8.9-.7-21.3-3-23.4-13.4Z" style="fill:url(#zae)"/><path d="M618.4 773.8c34.4-8.5 64.9 17.1 98 17.7 13.5.2 26.5-5.5 39.9-5.8 30.3-.7 84.6 8.6 93.6-13.4 27-65.5-22.1-88.1-77.6-66.3-22.3 8.8-52.5 17.8-49.1 11.6-11.3-39.7-77.3 19.7-106.9 13.8-6.8 12.9-5.7 29.7 2.1 42.4Z" style="fill:url(#zae-2)"/><path d="M826.2 700.5c13.3 51.7-1.7 70.9 4.5 83.3 21.3 15.6 49.6-80.6-4.5-83.3Z" style="fill:url(#zae-3)"/><path class="zae-4" d="M618.5 731.8c30.7.3 53.9-26.7 84.5-28.9 10-.7 24.2 8.1 18.6 18.9"/><path class="zae-4" d="M703.5 723c24.3 2.4 46.5-8.2 68.8-17 55.5-21.8 104.6.8 77.6 66.3-9 22-63.3 12.7-93.6 13.4-13.4.3-26.4 6-39.9 5.8-33.1-.6-63.6-26.2-98-17.7"/><path class="zae-4" d="M822.7 698.8c12.6 24.9 12.8 58.2 4.2 85m7.2-25.9 18.6-1.8m-19.2-29.2 19.1-3.1"/><path d="M652.5 752.4c3.9 11 18.1 7.3 27.1 6.2 13.9-1.6 26.9 6.1 40.5 8.2 32.8 4.8 31.5-32.1-1.3-22.7-16.9 4.8-70.3-17.1-66.3 8.3Z" style="fill:url(#zae-4)"/><path d="M689.5 743.1c-.3 21.2 51.3 36.2 52.5 9.2-2.4-12.2-42.8-8.6-52.5-9.2Z" style="opacity:.3;fill:#fff"/><path d="M716.3 747.7a24.6 24.6 0 0 1 14.2 17.3c31-7.7-2.6-32.5-14.2-17.3Z" style="opacity:.49;fill:#fff"/><path class="zae-4" d="M652.5 752.4c3.9 11 18.1 7.3 27.1 6.2 13.9-1.6 26.9 6.1 40.5 8.2 32.8 4.8 31.5-32.1-1.3-22.7-16.9 4.8-70.3-17.1-66.3 8.3Zm160.2-55.3c-.8-22 16.5-29.6 35.7-16.3 10.5 7.2 15.4-1.7 18.7-9.4 4.1-9.3 3.6-22 15-25.1 23.8-6.4 33.2 25.6 10.5 39.9-19.1 12 1.3 36 14.1 16s39.7-11.3 31.6 11.8-50.1 5.6-50.1 25.6c0 10.8 11.2 9.8 21.5 13.5 20.6 7.4 6.2 41.6-14.9 31.6-5.1-2.4-10.8-6.9-16.1-4.4s-6.4 10.6-2.1 16c5.6 7.1-1.3 16.9-9.5 17.8-10.6 1.1-15.2-10.9-26.1-11.6-8.9-.7-21.3-3-23.4-13.4m-200.2-69.5c-6.3 20.9-8.1 46 2.8 68.3m-40.6-82.5c17.4-67.6 59.3-31.9 66 18.2"/><path class="zae-4" d="M580.9 801.8c24.2 71.2 65.8 25.1 65.5-26.9"/><path d="M579.6 705.4c-1.9-18.1 12-42.1 31.5-36.9m-30.2 133.3c-1.6 20 21.5 52.2 41.4 33.1m-2.7-100c-2.1 11.4-2.1 24 1.2 35.1m82.5-48.2a43.1 43.1 0 0 0 16.4-7.2m-67.4 36.3c0 21.6 32.7 10.1 46.5 15.3s39.6 12.3 44.6-8.1m86.9-53.6c8.6 24.5 8.9 50.5 2.4 75.6" style="opacity:.6;stroke-width:10px;stroke:#000;fill:none;stroke-linecap:round;stroke-linejoin:round"/><path d="M817.3 714.5c-9.8-5.5-21.6-2.9-31.6.8m-11.3 3.4a8.5 8.5 0 0 0-2.2.9m-80.3-1.9a68.2 68.2 0 0 0-13.8 5.4M612 683.4c5.4 3.3 8.7 9.1 11.7 14.7m5.1 10.8.7 2.7m3.6 76.6a53.2 53.2 0 0 1-7.3 20.4m-7.6 10.1-2.3 2.3" style="stroke:#fff;stroke-width:10px;fill:none;stroke-linecap:round;stroke-linejoin:round"/><path d="M835.4 685.4a9 9 0 0 0-8.7.3m65.2-29.1a10.1 10.1 0 0 1 3 8m-2.2 7a5.9 5.9 0 0 1-1.7 2.7m38.9 31.7a9.5 9.5 0 0 1-6.3 8.3m-15.8 58.5a8.5 8.5 0 0 1-8.5 1.4m-6.7-2.8-1.6-.5m-31.5 30.3a10.1 10.1 0 0 0 6.3 3.2" style="stroke-width:6px;stroke:#fff;fill:none;stroke-linecap:round;stroke-linejoin:round"/><defs><linearGradient id="zi" x1="523.88" y1="415.21" x2="538.45" y2="667.96" gradientTransform="rotate(3.5 529.279 542.401)" gradientUnits="userSpaceOnUse"><stop offset="0" stop-color="#df0dff"/><stop offset=".5" stop-color="#f00c10"/><stop offset="1" stop-color="#ffe70d"/></linearGradient><linearGradient id="zi-2" x1="667.68" y1="397.6" x2="691.17" y2="649.75" gradientTransform="rotate(3.5 676.165 524.809)" gradientUnits="userSpaceOnUse"><stop offset="0" stop-color="#e70dff"/><stop offset=".23" stop-color="#eb0daf"/><stop offset=".5" stop-color="#f00c58"/><stop offset="1" stop-color="#fffb0d"/></linearGradient><style>.zi-2,.zi-5{stroke:#000;stroke-linecap:round;stroke-linejoin:round;stroke-width:10px;fill:none}.zi-2{opacity:.6}</style></defs><path d="M517.7 466.4c-25.4 24.8-5.8 53 2.8 80.3 5.1 16-4 32.7-3.9 49 .4 55.3 65.6 35 42.6-32.1-10.3-29.7-1.2-46-1.2-73.8 0-21.9-22.9-38.5-40.3-23.4Zm150-17c-25.4 24.9-5.9 53.1 2.8 80.4 5 15.9-4 32.6-3.9 49 .3 55.3 65.6 35 42.5-32.1-10.2-29.7-1.1-46-1.1-73.8 0-21.9-23-38.5-40.3-23.5Z" style="stroke-linecap:round;stroke-linejoin:round;stroke-width:10px;stroke:#000;fill:#fff"/><path class="zi-2" d="M505.1 438.3c-68.5 24.5-44.9 251.5 44.4 215.2M651.6 421c-64 34.3-44 238.9 42.6 216.9"/><path class="zi-2" d="M516.2 461.9c-36.7 30.1 7.4 72.3-.2 107.4-4.5 21-8.1 65.8 24.5 58.3m124.8-182.9c-36.6 30.2 7.4 72.4-.1 107.5-4.6 21-8.1 65.7 24.5 58.3"/><path d="M528 464c-26 15.6 4.9 63.3 27.2 38.4-4.6 14.8-.3 33.5-1.3 48.8-4 8.4-22.3 10.4-30.5 6-5.3-32.1-42.8-74.7 4.6-93.2Zm149.9-16.9c-26 15.6 5 63.3 27.2 38.4-4.5 14.8-.3 33.5-1.3 48.7-3.9 8.5-22.3 10.5-30.5 6.1-5.3-32.1-42.8-74.7 4.6-93.2Z"/><ellipse cx="531.3" cy="544.4" rx="60.1" ry="112" transform="rotate(-3.5 528.909 541.97)" style="fill:url(#zi);opacity:.74"/><ellipse cx="679.8" cy="527.5" rx="60.1" ry="112" transform="rotate(-3.5 676.845 525.196)" style="fill:url(#zi-2);opacity:.74"/><ellipse class="zi-5" cx="531.3" cy="544.4" rx="60.1" ry="112" transform="rotate(-3.5 528.909 541.97)"/><ellipse class="zi-5" cx="679.8" cy="527.5" rx="60.1" ry="112" transform="rotate(-3.5 676.845 525.196)"/><path d="M533.6 449.9a123.1 123.1 0 0 1 34.4 69.3m2.3 16.6a84.3 84.3 0 0 1 .6 10.1m113.2-111c18.2 16.8 30.5 44.1 35 79.3m3.1 13.8a36.8 36.8 0 0 1 .1 11" style="stroke:#fff;fill:none;stroke-linecap:round;stroke-linejoin:round;stroke-width:10px"/><style>.st40,.st68{fill:none;stroke:#000;stroke-width:10;stroke-linecap:round;stroke-linejoin:round;stroke-miterlimit:10}.st68{opacity:.6;enable-background:new}</style><g id="Knowledge"><path d="M484 313.5c48 35 117.5 20 160-17-49.5-41.5-124-41.5-160 17z" style="fill:#fff"/><linearGradient id="SVGID_00000081643937399829794740000016140099050203615631_" gradientUnits="userSpaceOnUse" x1="614.626" y1="817.896" x2="614.626" y2="890.904" gradientTransform="matrix(.9959 -.09015 -.09015 -.9959 28.476 1198.007)"><stop offset="0" style="stop-color:#ff0037"/><stop offset="1" style="stop-color:#ffc800"/></linearGradient><path style="fill:url(#SVGID_00000081643937399829794740000016140099050203615631_)" d="M534 273c-14 19 1 35-2 54.7 0 2 20 7 21 1 8-77 28-53 26-2.9 6-1.5 14-1 20-2-10-19.6 8-39-6-53.5-9-11.3-51-8.3-59 2.7z"/><path class="st40" d="M471 319c82-73 109.6-66 186-15"/><path class="st40" d="M482 314c52 31 115 19 163-16m9 34c37 16 53-7 29-38m-227 6c-39 47 3 59 19.5 47"/><path class="st40" d="M530 277c-9 19 7 32-1 52m63-59.4c15 16-5 36 8 52m-49 9c19-18-7-37 12.5-49 9-4.5 19 5 16 14.5-3 9.6-8 21.5-1.5 30.7"/><path class="st40" d="M557 290c0 8.5 9 15.5 17 14.9-4 8-12.5-2-8 7 12 10.8-6 22-1.5 6.5"/><path class="st68" d="M454 300c-44.5 56 4 65 21 48m178-12.1c39 21 63-11 32-44M477 319c52 38 124 21 173-15.5"/><path class="st68" d="M523 282c-7 15 4 31 3 46"/></g><circle cx="550" cy="550" r="500" style="fill:none;stroke:#000;stroke-width:10;stroke-linecap:round;stroke-linejoin:round;stroke-miterlimit:10"/></svg>