<svg version="1.1" id="Layer_1" xmlns="http://www.w3.org/2000/svg" x="0" y="0" viewBox="0 0 1100 1100" style="enable-background:new 0 0 1100 1100" xml:space="preserve" xmlns:xlink="http://www.w3.org/1999/xlink"><style type="text/css">.st301{fill:#005BEF;stroke:#000000;stroke-width:10;stroke-linecap:round;stroke-linejoin:round;stroke-miterlimit:10;}</style><circle class="st301" cx="550" cy="553.7" r="500"/><radialGradient id="a7" cx="580.189" cy="564.136" r="327.345" gradientTransform="matrix(1 0 0 1.2341 0 -131.758)" gradientUnits="userSpaceOnUse"><stop offset="0" style="stop-color:#20f"/><stop offset="1" style="stop-color:#ff00fb"/></radialGradient><path style="fill:url(#a7)" d="M534 210.7c-68 59.6-71 20-121 36.5-19.6 10.9-14 30-9.7 39.6 11 23-51 9-69 40.3-10 18 .1 42-7.5 61.8-9 19.6-34 35-37 52.2-43 48-154 7-119 70.4 6 11 33-6 39 9.1 7 17.5-39 29-21 46.7 18 5 21 39.9 57 63.2 14 20 3 51 19 69.1 35.8 38 46-25 41-34.3 4-39 44-11 22 38.7-23 52 11 74 36.5 56.6 24-9 13 39 23 50.9 19.5 37 55 12 67 12 18 1 28 22 29.8 40.3 6.5 63 54 46 59 8 15.5-34 45 49 47 59.9 11 73 69 42 71 17.9 3-54-3-60.1 2-68.3 18.5-31 71 13 90.8-15.5 14-19.7-31-63.5 8-55.4 94 19 19-101 14-120.4-9-35.5 14-106 47-121.7 18-9 17-35.5 7-52.8-9.5-17-25-30.6-31-48.9-13.5-54 22-102-36-133.3-5-3-7-9.5-4-14.4 17-26 1-66-32-71.4-22-3-44 9-66.5 6.3C618 249 581 179.7 534 210.7z"/><radialGradient id="b3" cx="576.431" cy="567.501" r="286.75" gradientUnits="userSpaceOnUse"><stop offset="0" style="stop-color:#ff00d0"/><stop offset="1" style="stop-color:#0073ff"/></radialGradient><path style="fill:url(#b3)" d="m339.9 679.6 457.5-205.8c84 96 24 91 9.9 104.2-70.1 128 5 134 1 195.7-149-156-336-279-473-446.5 0 83-16 63-47 126.1-56 20-102 17-102 16.7s-64 47 26 46.7c13 27.5-51 37-7 58.3 15 45 48 56 51 73.8 4 23-4 55.8 28 61.7 36 7 20.6-50.1 33-62.2 16.7-11.3 22.8 17.7 22.6 31.3z"/><style>.st40{fill:none;stroke:#000;stroke-width:10;stroke-linecap:round;stroke-linejoin:round;stroke-miterlimit:10}.st98{opacity:.6;enable-background:new}</style><g id="Outline"><path class="st98" d="M793 537c-1 .7-1 2-.5 3 5 10 11 35 25 30 8-2 21-13 18-22.4-.5-1-2-2-3-1.5-26 12-28-11-39-9.4v.3zm-34 274.5c6 5 26 8 25-3-6-7-20.6-12-21.5-26C750 772 744 803 759 811.5zm-219.3 52s1 .5 1 .8c9 13.5-3 36-18 40-34 6-9-6-6-44 .3-5.3 22.3 2.7 23 3.2zM342 731c5 7-4 22-4 33 8 13 29.6-5 33-14.9 2-12-17-21-28-20.2-1 .1-1 1.1-1 2.1zm31-120.2c2 23-8 47-26 61.9-13 10.9-17.5-30.6-8-27.9 6 4.2 28-18.8 34-34zm-157-59.9c-8 6-17 3-25 1-11 5 4 20 13.5 16 5-4 12-9 12-15.7-.5-.2-1.5-.2-.5-1.3zM337 473c-6-10-3-23 0-34 0-1 0-2-.6-2-9-9-23 11-19.8 20.7C318 463 338 475 337 472.8v.2z"/><path class="st98" d="M326 392c-2 29 24 45 7 44-7 2-14 1-15 11-1 11-24 0-24.5-1.3C285 433 317 404.5 326 392zm103-118c-9.9-4-16-16-18-25-4-6-9.9 1-11 6-7 54 29.5 28 29 19zm293 9c16 21 29.5 12 40 20.7 3 4 1 9.6-1 14-3 9-13 9-20 4.1-14.5-5.8-22-22.2-19-38.8z"/><path class="st40" d="M347 729c53.5 5 15 86 59 102 25 9 37-19.8 55-11.9 23 10.1 19.6 40 24 60.7 9.6 46 63 29.6 58-12.8"/><path class="st40" d="M519 861c89-9 47.5 119 114.5 115 39-6 35-47 25-76.5-3-9 0-18.5 7-24.5 24.5-21 59 15.5 84-2.5 15-11 8-33-2-45-12-15 0-32 10-43"/><path class="st40" d="M790 539c53 69.8-64 71 8 194.5 6 14 11 32 11 48.5 0 32-49 47.5-61 16"/><path class="st40" d="M721 287c2 51 64 31 74 88 6 34-11.5 71 7 103 10 18 27 31.5 34 51 8 19-4 47-27 42"/><path class="st40" d="M407 290.6c-16-8-12-29.9-2-41 17-15 40.5-10 61-6 29.8 1 49-29 75-38 50-17 81 55 133 44 23-5 48-11 69 1 25 14 33 55 10 75"/><path class="st40" d="M428 278c-16 26.5-51 17.5-76 28.5-20 10.5-28 33-23 55 10 47-43 51-39 88m25 4.5c1.5-23 35-26 41-5 7 25-13 47 16 72"/><path class="st40" d="M334 476c-20-34-61-31.5-89-9.6-20 8-43-3-64 4-22 7-28 37-5 43.5 6.5 2 23-2 26-1 15 4 11 25-5 30-21 6-10 29 6 29"/><path class="st40" d="M216 554.5c-15 15-14 41 2 55 37 22 41 31 36 69.7-2 31 46 41 53.5 10 2-10.8-4-22 0-33 13-32 44 20 62-44.5"/><path class="st40" d="M327 647.9c25 29.7-.5 47-7 75-10 32.5 34 65 53 25"/><path d="M729 262.5c9 4 16 13 18 22.5m-193-68c12.5 2 24.5 8 34 16m9 9 3 3m-163 10c-5.5-.9-12 .6-15.5 4M362 319.6c-9 2-14 10.7-16 19M339 449c4 1 6 6 6 9.8M308.5 470c-12-6-16-5-22-4M175 492c1-4 5-7 9-7.5m38 89.5c-4 8 0 16 4 19.9m44 78.6c-1 6 1 15 9 18m76-77.5c-3 14-13 14.5-16 16m4.5 119.5c-5-3-9-9-8-15M397 782c-1 14.5 7 28 14 30m90 53.9c-3 12 2 27 14.5 25M636 957c14-3 17-28 11-38m96-60.1c1-7 0-14-4-19m46-49.1c8-6.5 9-25 3-39M786 582c5-8 3-19-3-26m37-12c2-8.5-.6-18-7-24m-56-169c18 6 22 30 21 35" style="opacity:.7882;fill:none;stroke:#fff;stroke-width:10;stroke-linecap:round;stroke-linejoin:round;stroke-miterlimit:10;enable-background:new"/></g><defs><linearGradient id="axf" x1="741.04" y1="835.98" x2="725.62" y2="701.22" gradientUnits="userSpaceOnUse"><stop offset="0" stop-color="#ff9d00"/><stop offset=".12" stop-color="#ff9306"/><stop offset=".33" stop-color="#ff7915"/><stop offset=".6" stop-color="#ff4d2d"/><stop offset=".91" stop-color="#ff124f"/><stop offset="1" stop-color="#ff0059"/></linearGradient><linearGradient id="axf-2" x1="840.33" y1="761.07" x2="812.15" y2="763.18" gradientUnits="userSpaceOnUse"><stop offset="0" stop-color="#ff1e00"/><stop offset=".09" stop-color="#fe1c0e"/><stop offset=".27" stop-color="#fc1833"/><stop offset=".51" stop-color="#f81170"/><stop offset=".8" stop-color="#f207c2"/><stop offset="1" stop-color="#e0f"/></linearGradient><linearGradient id="axf-3" x1="851.73" y1="625.07" x2="951.68" y2="625.07" gradientUnits="userSpaceOnUse"><stop offset="0" stop-color="red"/><stop offset="1" stop-color="#ff0"/></linearGradient><style>.axf-3,.axf-5,.axf-6{fill:none}.axf-3,.axf-5{stroke:#000}.axf-3,.axf-5,.axf-6{stroke-linecap:round;stroke-linejoin:round;stroke-width:10px}.axf-5{opacity:.6}.axf-6{stroke:#fff}</style></defs><path d="M626.2 736.3a94.1 94.1 0 0 0 7.1 68.7 146.4 146.4 0 0 0 66.9 2.7c14.9 7 32.9 7.4 49.6.4a55.6 55.6 0 0 0 44.8-5.5c71 22.1 69.7-119.3-40.3-69.2-14.7-9.5-31.7-1.9-46.5 4.7-15.3-11.1-36.9-5.8-51.3 4.4-10.1-4.5-18.2-7-30.3-6.2Z" style="fill:url(#axf)"/><path d="M818.5 729.1c-17.3 15.2 1.6 86.9 18.1 60.8 7.6-18.7 8.5-60.1-18.1-60.8Z" style="fill:url(#axf-2)"/><path class="axf-3" d="M625.3 728.3a141 141 0 0 0 6.8 86.1m-6-77.4c62.6-13.9 46.9 106.1 121.9 71.9"/><path class="axf-3" d="M657.1 740.2c89-44.8 53.7 106.8 138.6 64.1"/><path class="axf-3" d="M709.7 738c70.8-48.9 55.1 96.5 119.8 61.7 18.6-14.4 16.2-45.9 3.8-63.1s-65.2-16.3-78.5-3.3"/><path class="axf-3" d="M816.1 727c-9.7 22.5-6 53.7 12.1 71m-249.5-43.7c-.2-77.7 64.5-105.5 90.1-22.2m-86.5 66.4c2.2 71.9 77.8 92.6 88.3 13.5"/><path d="M851.7 729c21.7-11.6 3.3-31 4.3-47.8.6-11.4 11.9-15.7 16.8-26 7.3-15.5-4.7-21.1-4.7-35.1s10.4-20.6 10-34.5c-3.7-112.1 118.9-57.6 55.2 6.1-39.2 39.2 11.1 43.8-9.3 76.2-6.3 10-20.8 14.7-23.1 26.3-4.6 23.5-26.3 37.1-49.2 34.8Z" style="fill:url(#axf-3);stroke-linecap:round;stroke-linejoin:round;stroke-width:10px;stroke:#000"/><path class="axf-3" d="M630 804.4c20.9 7.2 50.4 8.8 72.2 2.9"/><path class="axf-5" d="M615.1 682.5c-26.5 1.4-46.5 46-36.4 71.8m3.6 44.2c-9.7 36.6 29.6 85.2 64.9 59.1"/><path class="axf-6" d="M641 707.2a56.3 56.3 0 0 1 9.2 16.6m-19.3-26.6-3.3-1M655 824.5a36.6 36.6 0 0 1-12.7 18.4"/><path class="axf-5" d="M630 740.3c-6 20.1-.6 42.8 4.4 62.6a2.4 2.4 0 0 0-.2-.8m38.7-38.6c6.7 16.4 6 31.7 18.2 42.1m30.5-45.6c8.2 18.3 4.8 36.4 20.5 47m29.3-44.5c7.4 18.9.7 32 17.1 39.6m32.2-70c-7.5 19.4-4.4 44.9 10.2 60.3m-70.4-60.6c21.2 18.8 22.4 69.7 59.2 65.2m-148.4 20.8c9-.4 17.9-2 29.1-3.6 15.5 7.7 21.6 10.4 38.6 2.9"/><path class="axf-6" d="M644.6 748.9a37.2 37.2 0 0 1 13.3 13.7m29.5-18.9a28.4 28.4 0 0 1 17.5 12.6m31.8-16.4a26.2 26.2 0 0 1 12.7 10.5m33.6-13.2c4.6-1.8 9.8-1.2 14.8-.7h.2c0 .1-.2.1-.1 0M931.6 539a21.6 21.6 0 0 1 3.4 21.3m-6.4 11.9-1.5 2m-13.8 69.9a12.8 12.8 0 0 1 2.1 13m-28.8 39.1a19.9 19.9 0 0 1-6.8 11"/><style>.st40,.st68{fill:none;stroke-width:10;stroke-linecap:round;stroke-linejoin:round;stroke-miterlimit:10;stroke:#000}.st68{opacity:.6;enable-background:new}.st102{fill:#fff}</style><g id="all_seeing"><path class="st102" d="M764 494c-106-69-252-35.5-344.5 38C509 624 704 617 764 494z"/><linearGradient id="SVGID_00000154406609517563783580000003077220973173026472_" gradientUnits="userSpaceOnUse" x1="576.467" y1="996.091" x2="618.467" y2="789.095" gradientTransform="matrix(1 0 0 -1 0 1410)"><stop offset="0" style="stop-color:#001aff"/><stop offset="1" style="stop-color:#e600ff"/></linearGradient><path style="fill:url(#SVGID_00000154406609517563783580000003077220973173026472_)" d="M671 464.4c-43-9.5-199-12-159.6 59.5 29.8 54 4 62 21 66 51 12 124 4 164-28C671 535 698 508 671 464v.4z"/><path d="M592 532c3 20.5 2 40.6-2 60.6 18 2 37-3 54-6 24-4 12-34 6-48.5-25 11.9-54-6.6-58-6.5v.4z"/><path class="st102" d="M591 495c-22.5 32 39 69.5 57 40-2-22-34-61-57-40.4v.4z"/><path class="st40" d="M779.5 504C680 422 498 458 409 541"/><path class="st40" d="M420.5 531c90 96 280 85 345-37"/><path class="st40" d="M511 482c-19.8 44 28 62 14 106m143-127c35 32 1 71 28.5 100.5m-112.5 31c22-19-3-70 0-88 2-11 13-18.5 24.5-15 29.9 4 52 66 51 93"/><path class="st40" d="M584 511c5 27 37 41 62 29"/><path class="st68" d="M417 539c96 95.5 284 85 353-36"/><path class="st68" d="M503 485c-19 40 24 59 16 98m66-88c-22.5 28 18 66.5-7 96"/><path d="M658 470c7 5.5 12 14 13 23m-1 14v3.5" style="fill:none;stroke:#fff;stroke-width:10;stroke-linecap:round;stroke-linejoin:round;stroke-miterlimit:10"/></g><style>.st231,.st263{fill:none;stroke:#000;stroke-width:10;stroke-linecap:round;stroke-linejoin:round;stroke-miterlimit:10}.st263{stroke:#00ff2f}</style><g id="Layer_64"><path d="M290.6 446.8c8 0 15 3 22 6 0 0 10-15 15-16.6 6-2 24 2 24.5 1 16-27.5 30-34 56.5-23.9 13 5 25.5-5 33.5-14.3 39.7-75 116-2.5 177-25.7 15.5-6 29.9-14 45-21.1 48-30.8 72 20.8 110.9-11.6-5-6-11.5-10-19-14.3 47-118.3-92-70.3-118-81-33-14-67-61.5-102.5-37.9-69.7 46-67.5 34-110 32.1-26 5-37 36-18 55-47 20-83-11-77 80.3-4.5 28.2-35.5 43.2-39.9 72z" style="fill:#9e9e9e"/><path d="M741 290.6c7-.9 14-2 21-3.7M334 406c0 9 .8 18 1 27m44-53.1-46 5.4m47-67.8v13.7m6 7.3c-18 2-36 3.5-54 5.5m61 4.7c1 20 4 40.6 7 60.7m4-37.4c10-1 17-2 26-3.9m-12.5-48.7 5 39.4M453 243.9c2 29.7 4 59 7 89m8-25.4c15 0 29.7-.9 44-3m-3-40.5 1 32m.7 9.5c0 13 1 26.5 4 39.5 0 0 43-.9 43-.7 5 10.8 25.5 13 29.9 0M559 249.9c-9 23 26 36 35 12.8l6 .6 2.5 59.6m8.5-16.6h17l3 37.8m-30.1-100v10.1m15.1-19.3c0 6 .8 12.5 1 18.8m48 13v57.9m24.7-41.5-.8 52.4M654 319c19 1 39 1 58-.4" style="stroke:#454545;fill:none;stroke-width:10;stroke-linecap:round;stroke-linejoin:round;stroke-miterlimit:10"/><path class="st263" d="M398 346.8c2 22 4 44 7 65.8m-4-46.7c9.7-1 19-2 29-3.8l-8-44m36-75.1c3 29.9 6 60 7 90m.5-31.9c16 .6 31-2 47-.6m1.5-37.9c1 26 2.5 51 5 77.6 13.5 0 27 0 40.6-1"/><circle class="st263" cx="575.5" cy="257.5" r="14.5"/><ellipse class="st263" cx="575.5" cy="337.8" rx="14.5" ry="12.4"/><path class="st263" d="m593.5 257.4 27 .4-.5-22.1m-14 8.2 2 79.6m156-41.2-23 2.5m-47-1.5c-2 18-2 35.5-1 53.3"/><path class="st263" d="M712.5 313.9c-19.8 1.5-39.7 1.5-59.5.1"/><path class="st263" d="M669 326c0-19.8 0-39.5.5-59m-60 34.5c8 0 16-.8 24-1.5l2 44M331 337.9c19-1 36-2 55-4.3l-1-16.4m-44 116.7c-.9-9-1-19-.8-28m-7.2-26.8c16 0 29-2 45-3"/><path d="M722 285.5c4.5 16 17 29 32 34.5m-326-44c-6 5-14 8-22 7.4m-49 162.4c16-46 46-20.9 64-22.8 29-3 37-52 72-49.6 71 4.6 98 30.6 167.5-11.4 18-9 33-19 59-10.1 20.5 7 42.5 16 59-3.5" style="opacity:.6;stroke:#000;enable-background:new;fill:none;stroke-width:10;stroke-linecap:round;stroke-linejoin:round;stroke-miterlimit:10"/><path d="M736 261.6c6 4 11 10 13.5 16.9m2.5 12.8v5M561 216c7 1 14 4 19.5 8.3m11.5 8.4 6 4.4m-187 30.6c0-6.5 4.5-10 12-12.3m13-3.5 4 .6M359 318c-6 4.5-10 11-12 18.1m-2 10.4c-.5 1.5-.8 3-1 4.7" style="opacity:.7098;stroke:#fff;enable-background:new;fill:none;stroke-width:10;stroke-linecap:round;stroke-linejoin:round;stroke-miterlimit:10"/><path class="st231" d="M355.5 444.8c-4-19 13.5-39 32-34.7 39 9.5 38 10 62-22.3 40-54 111 5 165-13.6 17.5-6 33-16 49.8-24.6 61-31 72 29 109.8-8.4-19.8-17-53-19.5-54-54.6"/><path class="st231" d="M407 290.6c-16-8-12-29.9-2-41 17-15 40.5-10 61-6 29.8 1 49-29 75-38 50-17 80.5 54.5 133 44 23-5 48-10.5 69 1 25 14 33 55 10 75"/><path class="st231" d="M428 277.8c-16 26.5-51 17.5-76 28.5-20 10.5-28 33-23 54.8 10 47-43 51-38 88.1 7.5 0 15 2 22 4.7 5-19 34-26 43-7"/></g><circle cx="550" cy="550" r="500" style="fill:none;stroke:#000;stroke-width:10;stroke-linecap:round;stroke-linejoin:round;stroke-miterlimit:10"/></svg>