<svg version="1.1" id="Layer_1" xmlns="http://www.w3.org/2000/svg" x="0" y="0" viewBox="0 0 1100 1100" style="enable-background:new 0 0 1100 1100" xml:space="preserve" xmlns:xlink="http://www.w3.org/1999/xlink"><style type="text/css">.st301{fill:#005BEF;stroke:#000000;stroke-width:10;stroke-linecap:round;stroke-linejoin:round;stroke-miterlimit:10;}</style><circle class="st301" cx="550" cy="553.7" r="500"/><radialGradient id="a4" cx="564.461" cy="535.948" r="438.66" gradientTransform="matrix(1 0 0 -1 0 1100)" gradientUnits="userSpaceOnUse"><stop offset="0" style="stop-color:#7303fc"/><stop offset="1" style="stop-color:#03fcb1"/></radialGradient><path style="fill:url(#a4)" d="M532 209c-68 59.6-71 20-121 36.5-19.6 10.9-14 30-9.7 39.6 11 23-51 9-69 40-10 18 0 42-7.5 61.8-9 19.6-34 35-37 52-43 48-154 7-119 70 6 11 33-6 39 9 7 17.5-39 29-21 46.7 18 5 21 39.9 57 63 14 20 3 51 19 69 36 38 46-25 41-34 4-39 44-11 22 38.7-23 52 11 74 36.5 57 24-9 13 39 23 50.9 19.5 37 55 12 67 12 18 1 28 22 29.8 40.3 6 63 54 46 59 8 15.5-34 45 49 47 59.9 12 73 69.5 42 71 17.9 3-54-3-60 2-68.3 19-31 71 13 90.8-15.5 14-19.8-31-63 8-55 94 19.9 19-101 14-120-9-35.5 14-106 47-121.7 18-9 17-35.5 7-53-9.6-17-25-30.6-31-48.9-13.5-54 21-100.6-36-133-5-3-7-9.5-4-14.4 17-26 1-66-32-71-22-3-44 9-66.5 6C615 247 578.5 178 532 209z"/><style>.st40{fill:none;stroke:#000;stroke-width:10;stroke-linecap:round;stroke-linejoin:round;stroke-miterlimit:10}.st98{opacity:.6;enable-background:new}</style><g id="Outline"><path class="st98" d="M793 537c-1 .7-1 2-.5 3 5 10 11 35 25 30 8-2 21-13 18-22.4-.5-1-2-2-3-1.5-26 12-28-11-39-9.4v.3zm-34 274.5c6 5 26 8 25-3-6-7-20.6-12-21.5-26C750 772 744 803 759 811.5zm-219.3 52s1 .5 1 .8c9 13.5-3 36-18 40-34 6-9-6-6-44 .3-5.3 22.3 2.7 23 3.2zM342 731c5 7-4 22-4 33 8 13 29.6-5 33-14.9 2-12-17-21-28-20.2-1 .1-1 1.1-1 2.1zm31-120.2c2 23-8 47-26 61.9-13 10.9-17.5-30.6-8-27.9 6 4.2 28-18.8 34-34zm-157-59.9c-8 6-17 3-25 1-11 5 4 20 13.5 16 5-4 12-9 12-15.7-.5-.2-1.5-.2-.5-1.3zM337 473c-6-10-3-23 0-34 0-1 0-2-.6-2-9-9-23 11-19.8 20.7C318 463 338 475 337 472.8v.2z"/><path class="st98" d="M326 392c-2 29 24 45 7 44-7 2-14 1-15 11-1 11-24 0-24.5-1.3C285 433 317 404.5 326 392zm103-118c-9.9-4-16-16-18-25-4-6-9.9 1-11 6-7 54 29.5 28 29 19zm293 9c16 21 29.5 12 40 20.7 3 4 1 9.6-1 14-3 9-13 9-20 4.1-14.5-5.8-22-22.2-19-38.8z"/><path class="st40" d="M347 729c53.5 5 15 86 59 102 25 9 37-19.8 55-11.9 23 10.1 19.6 40 24 60.7 9.6 46 63 29.6 58-12.8"/><path class="st40" d="M519 861c89-9 47.5 119 114.5 115 39-6 35-47 25-76.5-3-9 0-18.5 7-24.5 24.5-21 59 15.5 84-2.5 15-11 8-33-2-45-12-15 0-32 10-43"/><path class="st40" d="M790 539c53 69.8-64 71 8 194.5 6 14 11 32 11 48.5 0 32-49 47.5-61 16"/><path class="st40" d="M721 287c2 51 64 31 74 88 6 34-11.5 71 7 103 10 18 27 31.5 34 51 8 19-4 47-27 42"/><path class="st40" d="M407 290.6c-16-8-12-29.9-2-41 17-15 40.5-10 61-6 29.8 1 49-29 75-38 50-17 81 55 133 44 23-5 48-11 69 1 25 14 33 55 10 75"/><path class="st40" d="M428 278c-16 26.5-51 17.5-76 28.5-20 10.5-28 33-23 55 10 47-43 51-39 88m25 4.5c1.5-23 35-26 41-5 7 25-13 47 16 72"/><path class="st40" d="M334 476c-20-34-61-31.5-89-9.6-20 8-43-3-64 4-22 7-28 37-5 43.5 6.5 2 23-2 26-1 15 4 11 25-5 30-21 6-10 29 6 29"/><path class="st40" d="M216 554.5c-15 15-14 41 2 55 37 22 41 31 36 69.7-2 31 46 41 53.5 10 2-10.8-4-22 0-33 13-32 44 20 62-44.5"/><path class="st40" d="M327 647.9c25 29.7-.5 47-7 75-10 32.5 34 65 53 25"/><path d="M729 262.5c9 4 16 13 18 22.5m-193-68c12.5 2 24.5 8 34 16m9 9 3 3m-163 10c-5.5-.9-12 .6-15.5 4M362 319.6c-9 2-14 10.7-16 19M339 449c4 1 6 6 6 9.8M308.5 470c-12-6-16-5-22-4M175 492c1-4 5-7 9-7.5m38 89.5c-4 8 0 16 4 19.9m44 78.6c-1 6 1 15 9 18m76-77.5c-3 14-13 14.5-16 16m4.5 119.5c-5-3-9-9-8-15M397 782c-1 14.5 7 28 14 30m90 53.9c-3 12 2 27 14.5 25M636 957c14-3 17-28 11-38m96-60.1c1-7 0-14-4-19m46-49.1c8-6.5 9-25 3-39M786 582c5-8 3-19-3-26m37-12c2-8.5-.6-18-7-24m-56-169c18 6 22 30 21 35" style="opacity:.7882;fill:none;stroke:#fff;stroke-width:10;stroke-linecap:round;stroke-linejoin:round;stroke-miterlimit:10;enable-background:new"/></g><radialGradient id="a11" cx="288.494" cy="554.914" r="39.332" gradientTransform="matrix(1 0 0 1.0187 0 -10.236)" gradientUnits="userSpaceOnUse"><stop offset="0" style="stop-color:#f01"/><stop offset="1" style="stop-color:#fe0"/></radialGradient><path style="fill:url(#a11);stroke:#000;stroke-width:10;stroke-linecap:round;stroke-linejoin:round;stroke-miterlimit:10" d="M273 536.9c-28-45 82-54 9 29.2-42 48 48 58 20 7.9-3-6-8-11-13-16.2-4-4.8-8.9-9.8-16-20.9z"/><path d="M269.9 512.1c-17 19.7 16 41 9 48.3-25.5 26-7 53 10 47" style="opacity:.6;fill:none;stroke:#000;stroke-width:10;stroke-linecap:round;stroke-linejoin:round;stroke-miterlimit:10"/><path d="M294.5 517.1c1 2 1 5 0 8M292 577c2 4 5 8 5 12" style="opacity:.8902;fill:none;stroke:#fff;stroke-width:8;stroke-linecap:round;stroke-linejoin:round;stroke-miterlimit:10"/><style>.st16,.st40{fill:none;stroke:#fff;stroke-width:10;stroke-linecap:round;stroke-linejoin:round;stroke-miterlimit:10}.st40{stroke:#000}</style><g id="Uhhh"><path d="M454 750c44 128 108 11 219.5 40 76 19.7 48-35-2.5-47.9-89 0 43 77-80.5-18.3-16 19-37.5 19-45.5-6-18 19.6-34 13-46 5-1-.8-3 0-3 1 0 21.2-24 27.2-42 26.2z" style="fill:#fe1767"/><path d="M462 774c6-15 91-49 167-19 2.5-13-29.5-23-39-35-7 23-37 17-48.5-4.9-1 16-22 32-45 3-4 29-19 35-46 29L462 774zm185 2c4-16 23-25 38-27-16-8-37-5-48 9.5l10 17.5z" style="fill:#ae0f45"/><path class="st16" d="M609 748.5c5 3 9.9 7 13 13m5 9.5c.5 1 1 2 1 2.5"/><path d="M622 740c19 37 31-26 106 38 59-75 17-63-1-91-18 49.8-38 12-46 2.6 0 27.5-16 45.5-38 19.9 2 14.5-8 22.5-21 30.5z" style="fill:#0a0a0a"/><linearGradient id="SVGID_00000139981180508707222230000012447543696721124522_" gradientUnits="userSpaceOnUse" x1="599.092" y1="-379.014" x2="612.092" y2="-295.014" gradientTransform="translate(0 1066)"><stop offset="0" style="stop-color:#17dcff"/><stop offset="1" style="stop-color:#3a17ff"/></linearGradient><path style="fill:url(#SVGID_00000139981180508707222230000012447543696721124522_)" d="M453 740.5c16 23 48.5 4 43.5-21.5 19 27 42 19.8 49-9.9 9 59.6 39 13 46 6.9 22 55 46 .5 52-10.5 14 38 30.9-1 38-14 13 29.5 37 17 46-7.5 3 10 15.5 29 26 18 6-21-19.5-76-88.5-30.2-71 71.2-205.1-44.8-212 68.7z"/><path d="M465 706c-1 14 4 29.9 16 38-18 8-29.6-3-30.8-9m67.8-48.1c-8 14-4 32 4 45.5-19-3-25-28-27-44m71 8.6c-4.5 12-4 26 1 38-16-5-20-26-19.8-41.5M611 700c-5 13 3 26 10 36-17.5 4-27-19-28-33m61-22c-2 14 5 27 14.5 36.5-16 3.5-25-15-28-28v1M699 656c-4.5 18 0 37 11 52-20 .5-27-30-27-46m51 3.5c-11.5 39.7 35 55 18 14" style="opacity:.6;enable-background:new"/><path class="st16" d="M676 758c9 2.5 15 9 21 16 0 0-.5 0-.7-.5"/><path d="M718 673c0 6-2 11.5-4 17m-2 5c0 .9-1 2-1 3m-40-15c0 6-1 13-3 19m-37 6c-.5 6-3 11-6 16m-43-13.5c-1 4-3 8-6 11m-4 4.4c0 .5-1 .9-1.5 1M536 704c-1 6-3 11-6 16m-5 4s0 .6-.5.8M485 709c.5 7-1 14.5-3 21m-3 5c0 .8-1 1.5-1 2" style="fill:none;stroke:#fff;stroke-width:5;stroke-linecap:round;stroke-linejoin:round;stroke-miterlimit:10"/><path class="st40" d="M487 688.5c-54 14-41 93-2 116 39.5 23 84-15 126-19 30.6-3 61 13 91 7.7 54-9.8 68-99 38.5-125-38-34-84 9-96 16C577 725 549 672 487 688.5z"/><path class="st40" d="M451 738.5c9 20 57 20 40-49.9 14 78 59 42 52 3 6 77 54 37 47.5 11.3 4 56 61 41 47-13.5 12 48 49 41.5 42-24 5 64 47 59 49-2.9 1 13-2 24 7 35.8 4 5.5 12 8 18 5"/><path class="st40" d="M614 738.5c14 8 25 22 31 37"/><path class="st40" d="M635 757c12-14 55-27 89 24"/><path d="M457 705c-34 39 3 109 51 113.5 39.9 4 76-30 116-27.9 43 6 84 25 115-19" style="opacity:.6;fill:none;stroke:#000;stroke-width:10;stroke-linecap:round;stroke-linejoin:round;stroke-miterlimit:10;enable-background:new"/></g><style>.st68{enable-background:new;opacity:.6;fill:none;stroke:#000;stroke-width:10;stroke-linecap:round;stroke-linejoin:round;stroke-miterlimit:10}</style><g id="trippy_VR"><linearGradient id="SVGID_00000020388922614253771230000004650598949562930306_" gradientUnits="userSpaceOnUse" x1="586.484" y1="720.989" x2="598.481" y2="427.041" gradientTransform="matrix(1 0 0 -1 0 1100)"><stop offset="0" style="stop-color:#ff0062"/><stop offset="1" style="stop-color:#ff9d00"/></linearGradient><path style="fill:url(#SVGID_00000020388922614253771230000004650598949562930306_);stroke:#000;stroke-width:10;stroke-linecap:round;stroke-linejoin:round;stroke-miterlimit:10" d="M729 389c-81 32-168 29.7-254 29.7-79 0-75 45-76 110-2 167 409.6 107 385-42.5-5-30.2-7-116.1-55-97.2z"/><linearGradient id="SVGID_00000048501908464928315330000009927288370948035757_" gradientUnits="userSpaceOnUse" x1="580.562" y1="671.12" x2="631.559" y2="442.138" gradientTransform="matrix(1 0 0 -1 0 1100)"><stop offset="0" style="stop-color:#00fff2"/><stop offset=".613" style="stop-color:#006cfa"/><stop offset="1" style="stop-color:#000dff"/></linearGradient><path style="fill:url(#SVGID_00000048501908464928315330000009927288370948035757_);stroke:#000;stroke-width:10;stroke-linecap:round;stroke-linejoin:round;stroke-miterlimit:10" d="M718 427.5c-108 47-156 32-241 30.7-43-.7-46 57-32 88.5 46.5 85 313 56 307-66.2-1-21.5-3.5-66.5-34-53z"/><path d="M728 449c6 14 8 29 7 44m-5 16.5-3 5.5m-270-31c-4 14-4 29.7 1 44m5 14c1 4 4 8 7 10m276-148c6 7 9.8 16 12 24.5m11 85.5c-3.5 10.9-9 21-16 30m18-42-.2-4M445 436c-10 4-19 12-23 22m-5.5 17-.5 4m5 82c4 9 10 17 18 23" style="fill:none;stroke:#fff;stroke-width:10;stroke-linecap:round;stroke-linejoin:round;stroke-miterlimit:10"/><path d="M520 460.9c26 32 51 65 74 99 0-10 0-20.8-.8-31 8 13 18 24 29 35.2l19 19.8 27-8.4-80.6-75.8-5 18.9L544 462m38 1c24 26.5 48 52 74 76.9l-4-26.1 41.5 48.1 14-7.2-62-57.3-1 17.1-46-53" style="opacity:.502;fill:#fff;enable-background:new"/><path class="st68" d="M421 431c-42 16-34 122-14 152 59 87.5 312 59 358-29"/><path class="st68" d="M452 466c-13 8-17 25-18 33.5C420.5 635.8 661 619 725 545"/><path d="M718 427.5c-108 47-156 32-241 30.7-43-.7-46 57-32 88.5 46.5 85 313 56 307-66-1-21.7-3.5-66.7-34-53.2z" style="fill:none;stroke:#000;stroke-width:10;stroke-linecap:round;stroke-linejoin:round;stroke-miterlimit:10"/></g><style>.st40{fill:none;stroke-width:10;stroke-linecap:round;stroke-linejoin:round;stroke-miterlimit:10;stroke:#000}</style><g id="Flame_Halo"><linearGradient id="SVGID_00000161599887772636497190000018358745444819511700_" gradientUnits="userSpaceOnUse" x1="509.55" y1="997.092" x2="552.552" y2="737.079" gradientTransform="matrix(1 0 0 -1 0 1100)"><stop offset="0" style="stop-color:#f04"/><stop offset=".113" style="stop-color:#ff0642"/><stop offset=".265" style="stop-color:#ff173b"/><stop offset=".441" style="stop-color:#ff3431"/><stop offset=".634" style="stop-color:#ff5c23"/><stop offset=".839" style="stop-color:#ff8e10"/><stop offset="1" style="stop-color:#fb0"/></linearGradient><path style="fill:url(#SVGID_00000161599887772636497190000018358745444819511700_)" d="M309 217.8c-4 34 15 83.5 56 73 21 2 29 34 49 35 9 1 17-5 26-7 20-4 38.5 14 59 14 19.6 0 36-15 56-17 16-1 33 7 48 3 18-5 28-23.5 44.5-31.5 29-11.5 55-3 65.5-38.9 19-28 45.5-41 27-80.5-6.5 18-25 24-29 1-14.5-27-49.9-4-73-8-17-3-30-22-27-39.1-11.5 14-27 30.8-47 27-8-1.5-15-7-23.5-7-13 0-22 12-34 18-19 9-28-8-26-25.6-19 11-17 28-17 47-7 19-21 0-24-11-61 73-33-4-80-10 29 46 1.5 84-48 53.8 21 22 100 46 104 29 6-13 19-23 31.5-28 24-8 53 2 75-10.9 40.8-24 34.5 14 76-.9 17-12 80.9-19.9 53 17-9.6-3-15-20.8-27-16 0 42-24 54-60 34-5.5-2-10 1-12 6.3-14 17-29.9-4-30.7-19.5-9 13-16 48-35.5 44-6-2-9.5-9-16-10.7-5.5-2-11 1-16 3.4-24 11-17-17-33.5-26.2L309 217.8z"/><path class="st40" d="M308.5 212c-7 30 6.5 80.5 43 81 16-5 29 5 39 17.5 35 38 36-12 76 10.7 44.5 25 51-2 90.6-5 13 .5 24 8 37 7 23-2 35-30 57-38 16-5.8 36 .5 49-11.1 9-8 9-21 16-31 6-9 17-14 23-21.9 17-21 7-50-3-72 9.6 34-22 45-26 22.7-19.8-43-103 33-99-57-11 23-44 49-67 27-20-9-33.5 28-54 21-14-6-12-24-8-35.6-17 13-22 25-18 46-2 26-27 15-26-6-71 85-27-11-85.5-8.5 18 18.5 22 57-6 66.7C337 228 318 218 308.5 212z"/><path class="st40" d="M386 224c7 49 35 37 24 11 11 3.5 17 14 22 24 16 19.5 21-14 46 5.9 32 18 20.9-22 46-46.5-2 10.6-2 24 8 30.9 12.5 6 15-2 21-10 5-4 12 1 17.5 3.9 34 19 64-11 46-44.9 5 4.5 16 10 32 24 5-16 13-31 23-44.9 1 8-6 23.5 6 26"/><path class="st40" d="M656 196.9c-29-14-45.5 6-72 9-18.5 2-38-18-55-8-53 31-70.6-9.7-109.6 39"/><path d="M402 252c3 0 5-3 5-6.4s-.6-6 .5-9c.7-2 2-3 4-4.9 11-11 23-23 38-27 17-5 36 0 53-4 15.5-4 30-14 46-12 8 1 15 5 23 7.6 8 3 17 4 23 0 10-4 21-8 32-9s23 0 33 5" style="opacity:.6;fill:none;stroke:#000;stroke-width:10;stroke-linecap:round;stroke-linejoin:round;stroke-miterlimit:10;enable-background:new"/><path d="M736 195c1 6.5-1 13-5 18m-9 7-3 3m-30-53c5 0 9 3 11 7m-379 58c2 11 6 22 12 31m7.9 11 2.6 2M538 153c-5 3-10 7-14 12M401 302c4 5 10 8.5 17 8m61.7 3c12.5 5 27 5 39.6 0m11.3-5 4.4-1m52 2.6c9 1 18-4 23-10.8m67-29.8c8 1 16-4 19-10.9" style="fill:none;stroke:#fff;stroke-width:10;stroke-linecap:round;stroke-linejoin:round;stroke-miterlimit:10"/></g><circle cx="550" cy="550" r="500" style="fill:none;stroke:#000;stroke-width:10;stroke-linecap:round;stroke-linejoin:round;stroke-miterlimit:10"/></svg>